# Blender 5.2.2 LTS
# www.blender.org
mtllib ruins_kr_floor_a.mtl
o piece
v 2.500000 2.500000 -0.008183
v -2.500000 2.500000 -0.008183
v 2.500000 -2.500000 -0.008183
v -2.500000 -2.500000 -0.008183
v -1.250000 2.500000 -0.008183
v -1.250000 -2.500000 -0.008183
v 0.000000 2.500000 -0.008183
v 0.000000 -2.500000 -0.008183
v 1.250000 2.500000 -0.008183
v 1.250000 -2.500000 -0.008183
v -2.500000 -1.250000 -0.008183
v 0.000000 -1.250000 -0.008183
v 1.250000 -1.250000 -0.008183
v 2.500000 -1.250000 -0.008183
v -2.500000 0.000000 -0.008183
v 0.000000 0.000000 -0.008183
v 1.250000 0.000000 -0.008183
v 2.500000 1.250000 -0.008183
v 2.241325 2.378471 -0.008183
v 1.508675 2.378471 -0.008183
v 1.371529 2.241325 -0.008183
v 1.371529 1.508675 -0.008183
v 1.508675 1.371529 -0.008183
v 2.241325 1.371529 -0.008183
v 2.378471 2.241325 -0.008183
v 2.378471 1.508675 -0.008183
v -1.508675 2.378471 -0.008183
v -2.241325 2.378471 -0.008183
v -2.378471 2.241325 -0.008183
v -2.378471 1.508675 -0.008183
v -2.241325 1.371529 -0.008183
v -1.508675 1.371529 -0.008183
v -1.371529 2.241325 -0.008183
v -1.371529 1.508675 -0.008183
v -0.258675 2.378471 -0.008183
v -0.991325 2.378471 -0.008183
v -1.128471 2.241325 -0.008183
v -1.128471 1.508675 -0.008183
v -0.991325 1.371529 -0.008183
v -0.258675 1.371529 -0.008183
v -0.121529 2.241325 -0.008183
v -0.121529 1.508675 -0.008183
v 0.991325 2.378471 -0.008183
v 0.258675 2.378471 -0.008183
v 0.121529 2.241325 -0.008183
v 0.121529 1.508675 -0.008183
v 0.258675 1.371529 -0.008183
v 0.991325 1.371529 -0.008183
v 1.128471 2.241325 -0.008183
v 1.128471 1.508675 -0.008183
v -2.241325 -1.371529 -0.008183
v -1.508675 -1.371529 -0.008183
v -2.378471 -1.508675 -0.008183
v -2.378471 -2.241325 -0.008183
v -1.508675 -2.378471 -0.008183
v -2.241325 -2.378471 -0.008183
v -1.371529 -1.508675 -0.008183
v -1.371529 -2.241325 -0.008183
v -0.991325 -1.371529 -0.008183
v -0.258675 -1.371529 -0.008183
v -1.128471 -1.508675 -0.008183
v -1.128471 -2.241325 -0.008183
v -0.258675 -2.378471 -0.008183
v -0.991325 -2.378471 -0.008183
v -0.121529 -1.508675 -0.008183
v -0.121529 -2.241325 -0.008183
v 0.258675 -1.371529 -0.008183
v 0.991325 -1.371529 -0.008183
v 0.121529 -1.508675 -0.008183
v 0.121529 -2.241325 -0.008183
v 0.991325 -2.378471 -0.008183
v 0.258675 -2.378471 -0.008183
v 1.128471 -1.508675 -0.008183
v 1.128471 -2.241325 -0.008183
v 1.508675 -1.371529 -0.008183
v 2.241325 -1.371529 -0.008183
v 1.371529 -1.508675 -0.008183
v 1.371529 -2.241325 -0.008183
v 2.241325 -2.378471 -0.008183
v 1.508675 -2.378471 -0.008183
v 2.378471 -1.508675 -0.008183
v 2.378471 -2.241325 -0.008183
v -2.241325 -0.121529 -0.008183
v -1.508675 -0.121529 -0.008183
v -2.378471 -0.258675 -0.008183
v -2.378471 -0.991325 -0.008183
v -2.241325 -1.128471 -0.008183
v -1.508675 -1.128471 -0.008183
v -1.371529 -0.258675 -0.008183
v -1.371529 -0.991325 -0.008183
v -0.104977 -0.104977 -0.008183
v -0.991325 -0.121529 -0.008183
v -0.258675 -0.121529 -0.008183
v -1.145024 -1.145024 -0.008183
v -1.128471 -0.258675 -0.008183
v -1.128471 -0.991325 -0.008183
v -0.991325 -1.128471 -0.008183
v -0.258675 -1.128471 -0.008183
v -0.121529 -0.258675 -0.008183
v -0.121529 -0.991325 -0.008183
v 0.258675 -0.121529 -0.008183
v 0.991325 -0.121529 -0.008183
v 0.121529 -0.258675 -0.008183
v 0.121529 -0.991325 -0.008183
v 0.258675 -1.128471 -0.008183
v 0.991325 -1.128471 -0.008183
v 1.128471 -0.258675 -0.008183
v 1.128471 -0.991325 -0.008183
v 1.508675 -0.121529 -0.008183
v 2.241325 -0.121529 -0.008183
v 1.371529 -0.258675 -0.008183
v 1.371529 -0.991325 -0.008183
v 1.508675 -1.128471 -0.008183
v 2.241325 -1.128471 -0.008183
v 2.378471 -0.258675 -0.008183
v 2.378471 -0.991325 -0.008183
v -2.241325 1.128471 -0.008183
v -1.508675 1.128471 -0.008183
v -2.378471 0.991325 -0.008183
v -2.378471 0.258675 -0.008183
v -2.241325 0.121529 -0.008183
v -1.508675 0.121529 -0.008183
v -1.371529 0.991325 -0.008183
v -1.371529 0.258675 -0.008183
v -0.991325 1.128471 -0.008183
v -0.258675 1.128471 -0.008183
v -1.145024 0.104977 -0.008183
v -1.128471 0.991325 -0.008183
v -1.128471 0.258675 -0.008183
v -0.991325 0.121529 -0.008183
v -0.258675 0.121529 -0.008183
v -0.121529 0.991325 -0.008183
v -0.121529 0.258675 -0.008183
v 0.258675 1.128471 -0.008183
v 0.991325 1.128471 -0.008183
v 0.104977 0.104977 -0.008183
v 0.121529 0.991325 -0.008183
v 0.121529 0.258675 -0.008183
v 0.258675 0.121529 -0.008183
v 0.991325 0.121529 -0.008183
v 1.128471 0.991325 -0.008183
v 1.128471 0.258675 -0.008183
v 1.508675 1.128471 -0.008183
v 2.241325 1.128471 -0.008183
v 1.371529 0.991325 -0.008183
v 1.371529 0.258675 -0.008183
v 1.508675 0.121529 -0.008183
v 2.241325 0.121529 -0.008183
v 2.378471 0.991325 -0.008183
v 2.378471 0.258675 -0.008183
v 2.204693 2.328125 0.008183
v 2.328125 2.204689 0.008183
v 1.545307 2.328125 0.008183
v 1.421875 2.204689 0.008183
v 1.421875 1.545303 0.008183
v 1.545307 1.421875 0.008183
v 2.204693 1.421875 0.008183
v 2.328125 1.545303 0.008183
v -1.545308 2.328125 0.008183
v -1.421874 2.204689 0.008183
v -2.204692 2.328125 0.008183
v -2.328126 2.204689 0.008183
v -2.328126 1.545311 0.008183
v -2.204692 1.421875 0.008183
v -1.545308 1.421875 0.008183
v -1.421874 1.545311 0.008183
v -0.295308 2.328125 0.008183
v -0.171874 2.204689 0.008183
v -0.954692 2.328125 0.008183
v -1.078126 2.204689 0.008183
v -1.078126 1.545311 0.008183
v -0.954692 1.421875 0.008183
v -0.295308 1.421875 0.008183
v -0.171874 1.545311 0.008183
v 0.954693 2.328125 0.008183
v 1.078125 2.204689 0.008183
v 0.295307 2.328125 0.008183
v 0.171874 2.204689 0.008183
v 0.171874 1.545303 0.008183
v 0.295307 1.421875 0.008183
v 0.954693 1.421875 0.008183
v 1.078125 1.545303 0.008183
v -1.545308 -1.421875 0.008183
v -1.421874 -1.545311 0.008183
v -2.204692 -1.421875 0.008183
v -2.328126 -1.545311 0.008183
v -2.328126 -2.204689 0.008183
v -2.204692 -2.328125 0.008183
v -1.545308 -2.328125 0.008183
v -1.421874 -2.204689 0.008183
v -0.295308 -1.421875 0.008183
v -0.171874 -1.545311 0.008183
v -0.954692 -1.421875 0.008183
v -1.078126 -1.545311 0.008183
v -1.078126 -2.204689 0.008183
v -0.954692 -2.328125 0.008183
v -0.295308 -2.328125 0.008183
v -0.171874 -2.204689 0.008183
v 0.954693 -1.421875 0.008183
v 1.078125 -1.545311 0.008183
v 0.295307 -1.421875 0.008183
v 0.171874 -1.545311 0.008183
v 0.171874 -2.204697 0.008183
v 0.295307 -2.328125 0.008183
v 0.954693 -2.328125 0.008183
v 1.078125 -2.204697 0.008183
v 2.204693 -1.421875 0.008183
v 2.328125 -1.545311 0.008183
v 1.545307 -1.421875 0.008183
v 1.421875 -1.545311 0.008183
v 1.421875 -2.204697 0.008183
v 1.545307 -2.328125 0.008183
v 2.204693 -2.328125 0.008183
v 2.328125 -2.204697 0.008183
v -1.545308 -0.171875 0.008183
v -1.421874 -0.295311 0.008183
v -2.204692 -0.171875 0.008183
v -2.328126 -0.295311 0.008183
v -2.328126 -0.954689 0.008183
v -2.204692 -1.078125 0.008183
v -1.545308 -1.078125 0.008183
v -1.421874 -0.954689 0.008183
v -0.295308 -0.171875 0.008183
v -0.171874 -0.295311 0.008183
v -0.954692 -0.171875 0.008183
v -1.078126 -0.295311 0.008183
v -1.078126 -0.954689 0.008183
v -0.954692 -1.078125 0.008183
v -0.295308 -1.078125 0.008183
v -0.171874 -0.954689 0.008183
v 0.954693 -0.171875 0.008183
v 1.078125 -0.295311 0.008183
v 0.295307 -0.171875 0.008183
v 0.171874 -0.295311 0.008183
v 0.171874 -0.954697 0.008183
v 0.295307 -1.078125 0.008183
v 0.954693 -1.078125 0.008183
v 1.078125 -0.954697 0.008183
v 2.204693 -0.171875 0.008183
v 2.328125 -0.295311 0.008183
v 1.545307 -0.171875 0.008183
v 1.421875 -0.295311 0.008183
v 1.421875 -0.954697 0.008183
v 1.545307 -1.078125 0.008183
v 2.204693 -1.078125 0.008183
v 2.328125 -0.954697 0.008183
v -1.545308 1.078125 0.008183
v -1.421874 0.954697 0.008183
v -2.204692 1.078125 0.008183
v -2.328126 0.954697 0.008183
v -2.328126 0.295311 0.008183
v -2.204692 0.171875 0.008183
v -1.545308 0.171875 0.008183
v -1.421874 0.295311 0.008183
v -0.295308 1.078125 0.008183
v -0.171874 0.954697 0.008183
v -0.954692 1.078125 0.008183
v -1.078126 0.954697 0.008183
v -1.078126 0.295311 0.008183
v -0.954692 0.171875 0.008183
v -0.295308 0.171875 0.008183
v -0.171874 0.295311 0.008183
v 0.954693 1.078125 0.008183
v 1.078125 0.954689 0.008183
v 0.295307 1.078125 0.008183
v 0.171874 0.954689 0.008183
v 0.171874 0.295303 0.008183
v 0.295307 0.171875 0.008183
v 0.954693 0.171875 0.008183
v 1.078125 0.295303 0.008183
v 2.204693 1.078125 0.008183
v 2.328125 0.954689 0.008183
v 1.545307 1.078125 0.008183
v 1.421875 0.954689 0.008183
v 1.421875 0.295311 0.008183
v 1.545307 0.171875 0.008183
v 2.204693 0.171875 0.008183
v 2.328125 0.295311 0.008183
vn -0.0000 -0.0000 1.0000
vn 0.1818 0.1818 0.9664
vn -0.0000 0.3092 0.9510
vn -0.1818 0.1818 0.9664
vn -0.3092 -0.0000 0.9510
vn -0.1818 -0.1818 0.9664
vn -0.0000 -0.3092 0.9510
vn 0.1818 -0.1818 0.9664
vn 0.3092 -0.0000 0.9510
vn 0.1818 0.1819 0.9664
vn -0.1819 -0.1819 0.9664
vn -0.1819 0.1819 0.9664
vt 0.625000 0.625000
vt 0.625000 0.875000
s 0
usemtl ruins_kr_floor_a
f 17/1/1 50/1/1 141/1/1
f 10/1/1 79/1/1 80/1/1
f 145/1/1 143/1/1 22/1/1
f 127/1/1 122/1/1 84/1/1
f 1/1/1 19/1/1 25/1/1
f 2/1/1 28/1/1 27/1/1
f 157/2/1 158/2/1 154/2/1
f 12/1/1 105/1/1 104/1/1
f 164/2/1 165/2/1 166/2/1
f 172/2/1 173/2/1 174/2/1
f 181/2/1 182/2/1 178/2/1
f 188/2/1 189/2/1 190/2/1
f 147/1/1 17/1/1 109/1/1
f 196/2/1 197/2/1 198/2/1
f 6/1/1 8/1/1 64/1/1
f 205/2/1 206/2/1 202/2/1
f 213/2/1 214/2/1 210/2/1
f 220/2/1 221/2/1 222/2/1
f 228/2/1 229/2/1 230/2/1
f 237/2/1 238/2/1 234/2/1
f 245/2/1 246/2/1 242/2/1
f 4/1/1 54/1/1 11/1/1
f 252/2/1 253/2/1 254/2/1
f 39/1/1 123/1/1 128/1/1
f 260/2/1 261/2/1 262/2/1
f 269/2/1 270/2/1 266/2/1
f 13/1/1 77/1/1 75/1/1
f 276/2/1 277/2/1 278/2/1
f 25/2/2 151/2/2 152/2/2
f 20/2/3 151/2/3 19/2/3
f 21/2/4 153/2/4 20/2/4
f 22/2/5 154/2/5 21/2/5
f 23/2/6 155/2/6 22/2/6
f 24/2/7 156/2/7 23/2/7
f 24/2/8 158/2/8 157/2/8
f 26/2/9 152/2/9 158/2/9
f 33/2/2 159/2/2 160/2/2
f 28/2/3 159/2/3 27/2/3
f 29/2/4 161/2/4 28/2/4
f 29/2/5 163/2/5 162/2/5
f 30/2/6 164/2/6 163/2/6
f 32/2/7 164/2/7 31/2/7
f 34/2/8 165/2/8 32/2/8
f 33/2/9 166/2/9 34/2/9
f 41/2/2 167/2/2 168/2/2
f 36/2/3 167/2/3 35/2/3
f 37/2/4 169/2/4 36/2/4
f 37/2/5 171/2/5 170/2/5
f 38/2/6 172/2/6 171/2/6
f 40/2/7 172/2/7 39/2/7
f 42/2/8 173/2/8 40/2/8
f 41/2/9 174/2/9 42/2/9
f 49/2/2 175/2/2 176/2/2
f 43/2/3 177/2/3 175/2/3
f 45/2/4 177/2/4 44/2/4
f 46/2/5 178/2/5 45/2/5
f 47/2/6 179/2/6 46/2/6
f 48/2/7 180/2/7 47/2/7
f 48/2/8 182/2/8 181/2/8
f 50/2/9 176/2/9 182/2/9
f 57/2/2 183/2/2 184/2/2
f 51/2/3 183/2/3 52/2/3
f 53/2/4 185/2/4 51/2/4
f 54/2/5 186/2/5 53/2/5
f 54/2/6 188/2/6 187/2/6
f 55/2/7 188/2/7 56/2/7
f 58/2/8 189/2/8 55/2/8
f 57/2/9 190/2/9 58/2/9
f 65/2/2 191/2/2 192/2/2
f 59/2/3 191/2/3 60/2/3
f 61/2/4 193/2/4 59/2/4
f 62/2/5 194/2/5 61/2/5
f 62/2/6 196/2/6 195/2/6
f 63/2/7 196/2/7 64/2/7
f 66/2/8 197/2/8 63/2/8
f 65/2/9 198/2/9 66/2/9
f 73/2/2 199/2/2 200/2/2
f 68/2/3 201/2/3 199/2/3
f 69/2/4 201/2/4 67/2/4
f 70/2/5 202/2/5 69/2/5
f 72/2/6 203/2/6 70/2/6
f 71/2/7 204/2/7 72/2/7
f 71/2/8 206/2/8 205/2/8
f 74/2/9 200/2/9 206/2/9
f 81/2/2 207/2/2 208/2/2
f 75/2/3 207/2/3 76/2/3
f 77/2/4 209/2/4 75/2/4
f 78/2/5 210/2/5 77/2/5
f 80/2/6 211/2/6 78/2/6
f 79/2/7 212/2/7 80/2/7
f 79/2/8 214/2/8 213/2/8
f 82/2/9 208/2/9 214/2/9
f 89/2/2 215/2/2 216/2/2
f 83/2/3 215/2/3 84/2/3
f 85/2/4 217/2/4 83/2/4
f 86/2/5 218/2/5 85/2/5
f 86/2/6 220/2/6 219/2/6
f 88/2/7 220/2/7 87/2/7
f 90/2/8 221/2/8 88/2/8
f 89/2/9 222/2/9 90/2/9
f 99/2/2 223/2/2 224/2/2
f 92/2/3 223/2/3 93/2/3
f 95/2/4 225/2/4 92/2/4
f 96/2/5 226/2/5 95/2/5
f 96/2/6 228/2/6 227/2/6
f 98/2/7 228/2/7 97/2/7
f 100/2/8 229/2/8 98/2/8
f 99/2/9 230/2/9 100/2/9
f 107/2/2 231/2/2 232/2/2
f 102/2/3 233/2/3 231/2/3
f 103/2/4 233/2/4 101/2/4
f 104/2/5 234/2/5 103/2/5
f 105/2/6 235/2/6 104/2/6
f 106/2/7 236/2/7 105/2/7
f 106/2/8 238/2/8 237/2/8
f 108/2/9 232/2/9 238/2/9
f 115/2/2 239/2/2 240/2/2
f 109/2/3 239/2/3 110/2/3
f 111/2/4 241/2/4 109/2/4
f 112/2/5 242/2/5 111/2/5
f 113/2/6 243/2/6 112/2/6
f 114/2/7 244/2/7 113/2/7
f 114/2/8 246/2/8 245/2/8
f 116/2/9 240/2/9 246/2/9
f 118/2/10 248/2/10 123/2/10
f 117/2/3 247/2/3 118/2/3
f 117/2/4 250/2/4 249/2/4
f 119/2/5 251/2/5 250/2/5
f 120/2/6 252/2/6 251/2/6
f 122/2/7 252/2/7 121/2/7
f 124/2/8 253/2/8 122/2/8
f 123/2/9 254/2/9 124/2/9
f 126/2/10 256/2/10 132/2/10
f 125/2/3 255/2/3 126/2/3
f 125/2/4 258/2/4 257/2/4
f 128/2/5 259/2/5 258/2/5
f 129/2/6 260/2/6 259/2/6
f 131/2/7 260/2/7 130/2/7
f 133/2/8 261/2/8 131/2/8
f 132/2/9 262/2/9 133/2/9
f 141/2/2 263/2/2 264/2/2
f 135/2/3 265/2/3 263/2/3
f 137/2/4 265/2/4 134/2/4
f 138/2/5 266/2/5 137/2/5
f 139/2/11 267/2/11 138/2/11
f 140/2/7 268/2/7 139/2/7
f 140/2/8 270/2/8 269/2/8
f 142/2/9 264/2/9 270/2/9
f 149/2/2 271/2/2 272/2/2
f 143/2/3 271/2/3 144/2/3
f 145/2/4 273/2/4 143/2/4
f 145/2/5 275/2/5 274/2/5
f 146/2/6 276/2/6 275/2/6
f 148/2/7 276/2/7 147/2/7
f 150/2/8 277/2/8 148/2/8
f 149/2/9 278/2/9 150/2/9
f 44/1/1 43/1/1 7/1/1
f 43/1/1 9/1/1 7/1/1
f 7/1/1 41/1/1 45/1/1
f 41/1/1 42/1/1 45/1/1
f 42/1/1 16/1/1 137/1/1
f 16/1/1 136/1/1 138/1/1
f 137/1/1 16/1/1 138/1/1
f 136/1/1 139/1/1 138/1/1
f 45/1/1 44/1/1 7/1/1
f 42/1/1 137/1/1 46/1/1
f 46/1/1 45/1/1 42/1/1
f 46/1/1 137/1/1 134/1/1
f 47/1/1 46/1/1 134/1/1
f 47/1/1 134/1/1 135/1/1
f 48/1/1 47/1/1 135/1/1
f 48/1/1 135/1/1 50/1/1
f 135/1/1 141/1/1 50/1/1
f 142/1/1 140/1/1 17/1/1
f 141/1/1 142/1/1 17/1/1
f 10/1/1 3/1/1 79/1/1
f 80/1/1 78/1/1 10/1/1
f 49/1/1 50/1/1 22/1/1
f 50/1/1 17/1/1 145/1/1
f 17/1/1 146/1/1 145/1/1
f 143/1/1 144/1/1 24/1/1
f 144/1/1 18/1/1 24/1/1
f 50/1/1 145/1/1 22/1/1
f 9/1/1 43/1/1 49/1/1
f 22/1/1 21/1/1 49/1/1
f 21/1/1 9/1/1 49/1/1
f 143/1/1 24/1/1 23/1/1
f 143/1/1 23/1/1 22/1/1
f 90/1/1 88/1/1 94/1/1
f 94/1/1 96/1/1 90/1/1
f 96/1/1 95/1/1 90/1/1
f 89/1/1 90/1/1 95/1/1
f 89/1/1 95/1/1 127/1/1
f 95/1/1 92/1/1 127/1/1
f 15/1/1 83/1/1 121/1/1
f 83/1/1 84/1/1 121/1/1
f 84/1/1 89/1/1 127/1/1
f 93/1/1 99/1/1 91/1/1
f 121/1/1 84/1/1 122/1/1
f 92/1/1 93/1/1 131/1/1
f 93/1/1 91/1/1 131/1/1
f 91/1/1 16/1/1 131/1/1
f 131/1/1 130/1/1 92/1/1
f 130/1/1 127/1/1 92/1/1
f 9/1/1 21/1/1 20/1/1
f 9/1/1 20/1/1 19/1/1
f 26/1/1 24/1/1 18/1/1
f 25/1/1 26/1/1 18/1/1
f 1/1/1 9/1/1 19/1/1
f 25/1/1 18/1/1 1/1/1
f 27/1/1 5/1/1 2/1/1
f 2/1/1 29/1/1 28/1/1
f 158/2/1 152/2/1 154/2/1
f 152/2/1 151/2/1 154/2/1
f 151/2/1 153/2/1 154/2/1
f 154/2/1 155/2/1 156/2/1
f 156/2/1 157/2/1 154/2/1
f 55/1/1 6/1/1 58/1/1
f 6/1/1 62/1/1 58/1/1
f 57/1/1 58/1/1 62/1/1
f 57/1/1 62/1/1 61/1/1
f 11/1/1 51/1/1 87/1/1
f 51/1/1 52/1/1 87/1/1
f 52/1/1 57/1/1 94/1/1
f 57/1/1 61/1/1 94/1/1
f 61/1/1 59/1/1 94/1/1
f 85/1/1 83/1/1 15/1/1
f 86/1/1 85/1/1 15/1/1
f 87/1/1 52/1/1 88/1/1
f 59/1/1 60/1/1 97/1/1
f 86/1/1 15/1/1 11/1/1
f 94/1/1 88/1/1 52/1/1
f 87/1/1 86/1/1 11/1/1
f 94/1/1 59/1/1 97/1/1
f 97/1/1 96/1/1 94/1/1
f 65/1/1 66/1/1 69/1/1
f 66/1/1 8/1/1 70/1/1
f 69/1/1 66/1/1 70/1/1
f 98/1/1 97/1/1 60/1/1
f 91/1/1 99/1/1 103/1/1
f 99/1/1 100/1/1 103/1/1
f 100/1/1 98/1/1 12/1/1
f 98/1/1 60/1/1 12/1/1
f 60/1/1 65/1/1 12/1/1
f 16/1/1 91/1/1 103/1/1
f 139/1/1 136/1/1 101/1/1
f 136/1/1 16/1/1 101/1/1
f 17/1/1 140/1/1 102/1/1
f 140/1/1 139/1/1 101/1/1
f 101/1/1 102/1/1 140/1/1
f 103/1/1 100/1/1 104/1/1
f 8/1/1 72/1/1 70/1/1
f 69/1/1 67/1/1 12/1/1
f 103/1/1 101/1/1 16/1/1
f 12/1/1 13/1/1 106/1/1
f 65/1/1 69/1/1 12/1/1
f 100/1/1 12/1/1 104/1/1
f 12/1/1 106/1/1 105/1/1
f 166/2/1 160/2/1 162/2/1
f 160/2/1 159/2/1 162/2/1
f 159/2/1 161/2/1 162/2/1
f 162/2/1 163/2/1 166/2/1
f 163/2/1 164/2/1 166/2/1
f 174/2/1 168/2/1 170/2/1
f 168/2/1 167/2/1 170/2/1
f 167/2/1 169/2/1 170/2/1
f 170/2/1 171/2/1 174/2/1
f 171/2/1 172/2/1 174/2/1
f 182/2/1 176/2/1 178/2/1
f 176/2/1 175/2/1 178/2/1
f 175/2/1 177/2/1 178/2/1
f 178/2/1 179/2/1 180/2/1
f 180/2/1 181/2/1 178/2/1
f 190/2/1 184/2/1 186/2/1
f 184/2/1 183/2/1 186/2/1
f 183/2/1 185/2/1 186/2/1
f 186/2/1 187/2/1 190/2/1
f 187/2/1 188/2/1 190/2/1
f 116/1/1 14/1/1 115/1/1
f 14/1/1 18/1/1 115/1/1
f 18/1/1 144/1/1 149/1/1
f 18/1/1 149/1/1 150/1/1
f 115/1/1 18/1/1 150/1/1
f 115/1/1 150/1/1 148/1/1
f 110/1/1 115/1/1 148/1/1
f 147/1/1 146/1/1 17/1/1
f 110/1/1 148/1/1 147/1/1
f 17/1/1 111/1/1 109/1/1
f 109/1/1 110/1/1 147/1/1
f 198/2/1 192/2/1 194/2/1
f 192/2/1 191/2/1 194/2/1
f 191/2/1 193/2/1 194/2/1
f 194/2/1 195/2/1 198/2/1
f 195/2/1 196/2/1 198/2/1
f 8/1/1 66/1/1 63/1/1
f 64/1/1 62/1/1 6/1/1
f 8/1/1 63/1/1 64/1/1
f 206/2/1 200/2/1 202/2/1
f 200/2/1 199/2/1 202/2/1
f 199/2/1 201/2/1 202/2/1
f 202/2/1 203/2/1 204/2/1
f 204/2/1 205/2/1 202/2/1
f 214/2/1 208/2/1 210/2/1
f 208/2/1 207/2/1 210/2/1
f 207/2/1 209/2/1 210/2/1
f 210/2/1 211/2/1 212/2/1
f 212/2/1 213/2/1 210/2/1
f 222/2/1 216/2/1 218/2/1
f 216/2/1 215/2/1 218/2/1
f 215/2/1 217/2/1 218/2/1
f 218/2/1 219/2/1 222/2/1
f 219/2/1 220/2/1 222/2/1
f 230/2/1 224/2/1 226/2/1
f 224/2/1 223/2/1 226/2/1
f 223/2/1 225/2/1 226/2/1
f 226/2/1 227/2/1 230/2/1
f 227/2/1 228/2/1 230/2/1
f 238/2/1 232/2/1 234/2/1
f 232/2/1 231/2/1 234/2/1
f 231/2/1 233/2/1 234/2/1
f 234/2/1 235/2/1 236/2/1
f 236/2/1 237/2/1 234/2/1
f 246/2/1 240/2/1 242/2/1
f 240/2/1 239/2/1 242/2/1
f 239/2/1 241/2/1 242/2/1
f 242/2/1 243/2/1 244/2/1
f 244/2/1 245/2/1 242/2/1
f 4/1/1 6/1/1 55/1/1
f 4/1/1 55/1/1 56/1/1
f 53/1/1 51/1/1 11/1/1
f 4/1/1 56/1/1 54/1/1
f 54/1/1 53/1/1 11/1/1
f 254/2/1 248/2/1 247/2/1
f 247/2/1 249/2/1 254/2/1
f 249/2/1 250/2/1 251/2/1
f 254/2/1 249/2/1 251/2/1
f 251/2/1 252/2/1 254/2/1
f 35/1/1 41/1/1 7/1/1
f 7/1/1 5/1/1 36/1/1
f 5/1/1 27/1/1 33/1/1
f 36/1/1 5/1/1 37/1/1
f 36/1/1 35/1/1 7/1/1
f 5/1/1 33/1/1 37/1/1
f 37/1/1 33/1/1 34/1/1
f 38/1/1 37/1/1 34/1/1
f 38/1/1 34/1/1 32/1/1
f 39/1/1 38/1/1 123/1/1
f 38/1/1 32/1/1 123/1/1
f 133/1/1 131/1/1 16/1/1
f 132/1/1 133/1/1 16/1/1
f 30/1/1 29/1/1 2/1/1
f 15/1/1 121/1/1 120/1/1
f 15/1/1 120/1/1 119/1/1
f 30/1/1 2/1/1 15/1/1
f 30/1/1 15/1/1 119/1/1
f 30/1/1 119/1/1 117/1/1
f 31/1/1 30/1/1 117/1/1
f 31/1/1 117/1/1 118/1/1
f 32/1/1 31/1/1 118/1/1
f 32/1/1 118/1/1 123/1/1
f 124/1/1 122/1/1 127/1/1
f 132/1/1 16/1/1 42/1/1
f 126/1/1 132/1/1 42/1/1
f 126/1/1 42/1/1 40/1/1
f 125/1/1 126/1/1 40/1/1
f 123/1/1 124/1/1 129/1/1
f 124/1/1 127/1/1 129/1/1
f 127/1/1 130/1/1 129/1/1
f 129/1/1 128/1/1 123/1/1
f 125/1/1 40/1/1 39/1/1
f 128/1/1 125/1/1 39/1/1
f 262/2/1 256/2/1 255/2/1
f 255/2/1 257/2/1 262/2/1
f 257/2/1 258/2/1 259/2/1
f 262/2/1 257/2/1 259/2/1
f 259/2/1 260/2/1 262/2/1
f 270/2/1 264/2/1 266/2/1
f 264/2/1 263/2/1 266/2/1
f 263/2/1 265/2/1 266/2/1
f 266/2/1 267/2/1 268/2/1
f 268/2/1 269/2/1 266/2/1
f 111/1/1 17/1/1 107/1/1
f 17/1/1 102/1/1 107/1/1
f 112/1/1 111/1/1 107/1/1
f 108/1/1 106/1/1 13/1/1
f 112/1/1 107/1/1 108/1/1
f 113/1/1 112/1/1 13/1/1
f 112/1/1 108/1/1 13/1/1
f 13/1/1 12/1/1 68/1/1
f 12/1/1 67/1/1 68/1/1
f 14/1/1 116/1/1 114/1/1
f 114/1/1 113/1/1 75/1/1
f 113/1/1 13/1/1 75/1/1
f 13/1/1 68/1/1 73/1/1
f 14/1/1 114/1/1 76/1/1
f 76/1/1 114/1/1 75/1/1
f 82/1/1 79/1/1 3/1/1
f 81/1/1 82/1/1 3/1/1
f 13/1/1 73/1/1 77/1/1
f 73/1/1 74/1/1 77/1/1
f 71/1/1 72/1/1 8/1/1
f 71/1/1 8/1/1 10/1/1
f 10/1/1 78/1/1 74/1/1
f 78/1/1 77/1/1 74/1/1
f 74/1/1 71/1/1 10/1/1
f 81/1/1 3/1/1 14/1/1
f 76/1/1 81/1/1 14/1/1
f 278/2/1 272/2/1 274/2/1
f 272/2/1 271/2/1 274/2/1
f 271/2/1 273/2/1 274/2/1
f 274/2/1 275/2/1 278/2/1
f 275/2/1 276/2/1 278/2/1
f 25/2/2 19/2/2 151/2/2
f 20/2/3 153/2/3 151/2/3
f 21/2/4 154/2/4 153/2/4
f 22/2/5 155/2/5 154/2/5
f 23/2/6 156/2/6 155/2/6
f 24/2/7 157/2/7 156/2/7
f 24/2/8 26/2/8 158/2/8
f 26/2/9 25/2/9 152/2/9
f 33/2/2 27/2/2 159/2/2
f 28/2/3 161/2/3 159/2/3
f 29/2/4 162/2/4 161/2/4
f 29/2/5 30/2/5 163/2/5
f 30/2/6 31/2/6 164/2/6
f 32/2/7 165/2/7 164/2/7
f 34/2/8 166/2/8 165/2/8
f 33/2/9 160/2/9 166/2/9
f 41/2/2 35/2/2 167/2/2
f 36/2/3 169/2/3 167/2/3
f 37/2/4 170/2/4 169/2/4
f 37/2/5 38/2/5 171/2/5
f 38/2/6 39/2/6 172/2/6
f 40/2/7 173/2/7 172/2/7
f 42/2/8 174/2/8 173/2/8
f 41/2/9 168/2/9 174/2/9
f 49/2/2 43/2/2 175/2/2
f 43/2/3 44/2/3 177/2/3
f 45/2/4 178/2/4 177/2/4
f 46/2/5 179/2/5 178/2/5
f 47/2/6 180/2/6 179/2/6
f 48/2/7 181/2/7 180/2/7
f 48/2/8 50/2/8 182/2/8
f 50/2/9 49/2/9 176/2/9
f 57/2/2 52/2/2 183/2/2
f 51/2/3 185/2/3 183/2/3
f 53/2/4 186/2/4 185/2/4
f 54/2/5 187/2/5 186/2/5
f 54/2/6 56/2/6 188/2/6
f 55/2/7 189/2/7 188/2/7
f 58/2/8 190/2/8 189/2/8
f 57/2/9 184/2/9 190/2/9
f 65/2/2 60/2/2 191/2/2
f 59/2/3 193/2/3 191/2/3
f 61/2/4 194/2/4 193/2/4
f 62/2/5 195/2/5 194/2/5
f 62/2/6 64/2/6 196/2/6
f 63/2/7 197/2/7 196/2/7
f 66/2/8 198/2/8 197/2/8
f 65/2/9 192/2/9 198/2/9
f 73/2/2 68/2/2 199/2/2
f 68/2/3 67/2/3 201/2/3
f 69/2/4 202/2/4 201/2/4
f 70/2/5 203/2/5 202/2/5
f 72/2/6 204/2/6 203/2/6
f 71/2/7 205/2/7 204/2/7
f 71/2/8 74/2/8 206/2/8
f 74/2/9 73/2/9 200/2/9
f 81/2/2 76/2/2 207/2/2
f 75/2/3 209/2/3 207/2/3
f 77/2/4 210/2/4 209/2/4
f 78/2/5 211/2/5 210/2/5
f 80/2/6 212/2/6 211/2/6
f 79/2/7 213/2/7 212/2/7
f 79/2/8 82/2/8 214/2/8
f 82/2/9 81/2/9 208/2/9
f 89/2/2 84/2/2 215/2/2
f 83/2/3 217/2/3 215/2/3
f 85/2/4 218/2/4 217/2/4
f 86/2/5 219/2/5 218/2/5
f 86/2/6 87/2/6 220/2/6
f 88/2/7 221/2/7 220/2/7
f 90/2/8 222/2/8 221/2/8
f 89/2/9 216/2/9 222/2/9
f 99/2/2 93/2/2 223/2/2
f 92/2/3 225/2/3 223/2/3
f 95/2/4 226/2/4 225/2/4
f 96/2/5 227/2/5 226/2/5
f 96/2/6 97/2/6 228/2/6
f 98/2/7 229/2/7 228/2/7
f 100/2/8 230/2/8 229/2/8
f 99/2/9 224/2/9 230/2/9
f 107/2/2 102/2/2 231/2/2
f 102/2/3 101/2/3 233/2/3
f 103/2/4 234/2/4 233/2/4
f 104/2/5 235/2/5 234/2/5
f 105/2/6 236/2/6 235/2/6
f 106/2/7 237/2/7 236/2/7
f 106/2/8 108/2/8 238/2/8
f 108/2/9 107/2/9 232/2/9
f 115/2/2 110/2/2 239/2/2
f 109/2/3 241/2/3 239/2/3
f 111/2/4 242/2/4 241/2/4
f 112/2/5 243/2/5 242/2/5
f 113/2/6 244/2/6 243/2/6
f 114/2/7 245/2/7 244/2/7
f 114/2/8 116/2/8 246/2/8
f 116/2/9 115/2/9 240/2/9
f 118/2/2 247/2/2 248/2/2
f 117/2/3 249/2/3 247/2/3
f 117/2/4 119/2/4 250/2/4
f 119/2/5 120/2/5 251/2/5
f 120/2/6 121/2/6 252/2/6
f 122/2/7 253/2/7 252/2/7
f 124/2/8 254/2/8 253/2/8
f 123/2/9 248/2/9 254/2/9
f 126/2/2 255/2/2 256/2/2
f 125/2/3 257/2/3 255/2/3
f 125/2/12 128/2/12 258/2/12
f 128/2/5 129/2/5 259/2/5
f 129/2/6 130/2/6 260/2/6
f 131/2/7 261/2/7 260/2/7
f 133/2/8 262/2/8 261/2/8
f 132/2/9 256/2/9 262/2/9
f 141/2/2 135/2/2 263/2/2
f 135/2/3 134/2/3 265/2/3
f 137/2/4 266/2/4 265/2/4
f 138/2/5 267/2/5 266/2/5
f 139/2/6 268/2/6 267/2/6
f 140/2/7 269/2/7 268/2/7
f 140/2/8 142/2/8 270/2/8
f 142/2/9 141/2/9 264/2/9
f 149/2/2 144/2/2 271/2/2
f 143/2/3 273/2/3 271/2/3
f 145/2/4 274/2/4 273/2/4
f 145/2/5 146/2/5 275/2/5
f 146/2/6 147/2/6 276/2/6
f 148/2/7 277/2/7 276/2/7
f 150/2/8 278/2/8 277/2/8
f 149/2/9 272/2/9 278/2/9
