# Blender 5.2.2 LTS
# www.blender.org
mtllib ruins_find_cut_plate.mtl
o piece
v -0.274504 -0.177797 1.285224
v -0.249928 -0.164111 -1.308998
v -0.250971 -0.209276 -1.307474
v -0.339497 -0.237171 1.288222
v -0.348268 -0.200305 -1.298839
v -0.349499 -0.252531 -1.294656
v -0.338557 -0.284657 1.288622
v 0.219757 -0.145849 -1.316546
v 0.192895 -0.175552 1.295162
v 0.194362 -0.228850 1.293108
v 0.103022 -0.109974 1.296843
v 0.095786 -0.097497 -1.304884
v 0.094300 -0.144239 -1.302730
v 0.104095 -0.156446 1.294009
v 0.016031 -0.156694 1.294429
v 0.003794 -0.164027 -1.301566
v 0.002009 -0.219198 -1.298720
v 0.017208 -0.203352 1.292199
v -0.081833 -0.176137 1.311625
v -0.085538 -0.140978 -1.301357
v -0.223705 -0.216722 1.295567
v -0.177924 -0.212442 -1.301343
v -0.159936 -0.249658 1.306634
v 0.538645 -0.252987 -1.283931
v 0.556834 -0.239961 1.279264
v 0.463538 -0.173816 1.283871
v 0.451075 -0.181801 -1.287433
v 0.449461 -0.228107 -1.283942
v 0.464602 -0.220707 1.282378
v 0.374688 -0.225380 1.285513
v 0.359926 -0.224277 -1.285951
v 0.358032 -0.269636 -1.279563
v 0.281055 -0.124712 1.292848
v 0.256811 -0.204732 -1.313657
v 0.282148 -0.171583 1.291294
v -0.436307 -0.200756 1.289802
v -0.444601 -0.144381 -1.292699
v -0.448881 -0.192243 -1.291261
v -0.435208 -0.245776 1.289222
v -0.524383 -0.245679 1.285047
v -0.538068 -0.188935 -1.290419
v -0.528503 -0.237757 -1.287721
v -0.522265 -0.288772 1.283386
v -0.052070 -0.260184 0.515215
v -0.135615 -0.215476 0.518929
v -0.211509 -0.261695 0.524810
v -0.301164 -0.227609 0.462782
v -0.379672 -0.281434 0.421972
v -0.383092 -0.236945 0.404059
v -0.211962 -0.213709 0.528661
v -0.138203 -0.169112 0.512880
v -0.049308 -0.212974 0.513824
v 0.024320 -0.176798 0.445334
v 0.120497 -0.212602 0.495852
v 0.203450 -0.159335 0.533257
v 0.334352 -0.193916 0.590986
v 0.435702 -0.156205 0.528794
v 0.544495 -0.203601 0.505234
v 0.547301 -0.250604 0.507254
v 0.437433 -0.202106 0.537840
v 0.337479 -0.243311 0.577993
v 0.205253 -0.204992 0.543826
v 0.118353 -0.256239 0.519541
v 0.028454 -0.221359 0.462487
v 0.003725 -0.262976 -0.535787
v 0.090760 -0.227240 -0.524521
v 0.171911 -0.289384 -0.544915
v 0.253517 -0.249915 -0.525777
v 0.322308 -0.302503 -0.502175
v 0.429073 -0.252953 -0.538375
v 0.518685 -0.294115 -0.576491
v 0.520150 -0.247300 -0.573300
v 0.432816 -0.204406 -0.544397
v 0.316642 -0.258435 -0.482724
v 0.258367 -0.201352 -0.532053
v 0.174911 -0.245358 -0.522914
v 0.092585 -0.185497 -0.516420
v 0.008105 -0.213685 -0.497818
v -0.083181 -0.185135 -0.560202
v -0.158781 -0.214964 -0.629761
v -0.164465 -0.265370 -0.613933
v -0.084491 -0.229210 -0.577423
v -0.061832 0.021767 1.262335
v -0.377493 0.035889 -1.316583
v -0.378342 -0.009276 -1.314943
v -0.149873 -0.037171 1.272193
v -0.473862 -0.000305 -1.294515
v -0.474574 -0.052531 -1.290213
v -0.148892 -0.084657 1.272476
v 0.087771 0.054151 -1.381315
v 0.379396 0.024448 1.214200
v 0.380603 -0.028850 1.211982
v 0.290399 0.090026 1.226821
v -0.033855 0.102503 -1.354632
v -0.035067 0.055761 -1.352313
v 0.291118 0.043554 1.223877
v 0.203761 0.043306 1.235026
v -0.124756 0.035973 -1.340127
v -0.126182 -0.019198 -1.337085
v 0.204658 -0.003352 1.232670
v 0.108723 0.023863 1.264021
v -0.213397 0.059022 -1.329033
v -0.034049 -0.016722 1.265372
v -0.305093 -0.012442 -1.317760
v 0.030593 -0.049658 1.268586
v 0.408257 -0.052987 -1.387806
v 0.738685 -0.039961 1.154068
v 0.646646 0.026184 1.170010
v 0.320913 0.018199 -1.380609
v 0.319736 -0.028107 -1.376948
v 0.647521 -0.020707 1.168398
v 0.558658 -0.025380 1.182467
v 0.230624 -0.024277 -1.368030
v 0.229523 -0.069636 -1.361459
v 0.466617 0.075288 1.201158
v 0.124901 -0.004732 -1.382963
v 0.467513 0.028417 1.199484
v -0.245769 -0.000756 1.285560
v -0.568729 0.055619 -1.276680
v -0.572802 0.007757 -1.274732
v -0.244748 -0.045776 1.284851
v -0.333768 -0.045679 1.291574
v -0.661221 0.011065 -1.263026
v -0.651399 -0.037757 -1.261515
v -0.331868 -0.088772 1.289668
v 0.041206 -0.060184 0.469919
v -0.041264 -0.015476 0.483788
v -0.115875 -0.061695 0.498874
v -0.212422 -0.027609 0.448235
v -0.295318 -0.081434 0.417297
v -0.300895 -0.036945 0.399934
v -0.213071 0.020649 0.454006
v -0.115855 -0.013709 0.502751
v -0.044569 0.030888 0.478099
v 0.043778 -0.012974 0.468203
v 0.108510 0.023202 0.391250
v 0.210127 -0.012602 0.429671
v 0.297020 0.040665 0.456687
v 0.433981 0.006084 0.498033
v 0.526997 0.043795 0.423953
v 0.632108 -0.003601 0.387310
v 0.635139 -0.050604 0.388974
v 0.529818 -0.002106 0.432721
v 0.435502 -0.043311 0.484756
v 0.300098 -0.004992 0.466957
v 0.210886 -0.056239 0.453444
v 0.114704 -0.021359 0.407771
v -0.031500 -0.062976 -0.580048
v 0.056260 -0.027240 -0.579473
v 0.134320 -0.089384 -0.609604
v 0.217651 -0.049915 -0.600555
v 0.288805 -0.102503 -0.585512
v 0.390362 -0.052953 -0.634453
v 0.474661 -0.094115 -0.683206
v 0.476504 -0.047300 -0.680217
v 0.393344 -0.004406 -0.640886
v 0.285552 -0.058436 -0.565515
v 0.221699 -0.001352 -0.607375
v 0.139979 -0.045358 -0.588133
v 0.059058 0.014503 -0.571654
v -0.022525 -0.013685 -0.542896
v -0.120733 0.014865 -0.593689
v -0.204247 -0.014964 -0.653517
v -0.207960 -0.065370 -0.637114
v -0.124133 -0.029210 -0.610623
v -0.469224 0.221767 1.271227
v -0.061811 0.235889 -1.294796
v -0.063080 0.190724 -1.293454
v -0.556572 0.162829 1.256436
v -0.160529 0.199695 -1.300146
v -0.162400 0.147469 -1.296207
v -0.555707 0.115343 1.256978
v 0.403272 0.254151 -1.228776
v -0.031821 0.224448 1.346575
v -0.030050 0.171150 1.344776
v -0.120849 0.290026 1.334176
v 0.279003 0.302503 -1.236652
v 0.277198 0.255761 -1.234757
v -0.119347 0.243554 1.331544
v -0.206393 0.243306 1.318184
v 0.187625 0.235973 -1.247765
v 0.185416 0.180802 -1.245233
v -0.204881 0.196648 1.316166
v -0.305741 0.223863 1.319859
v 0.099360 0.259022 -1.261533
v -0.443355 0.183278 1.281804
v 0.008109 0.187558 -1.275972
v -0.382102 0.150342 1.302711
v 0.713132 0.147013 -1.146678
v 0.330125 0.160039 1.387806
v 0.237257 0.226184 1.377761
v 0.627188 0.218199 -1.163836
v 0.625048 0.171893 -1.160640
v 0.238542 0.179293 1.376453
v 0.149244 0.174620 1.365483
v 0.536929 0.175723 -1.176630
v 0.534060 0.130364 -1.170618
v 0.055616 0.275288 1.358081
v 0.439418 0.195268 -1.220126
v 0.056939 0.228417 1.356717
v -0.652438 0.199244 1.242852
v -0.256637 0.255619 -1.309151
v -0.261090 0.207757 -1.308401
v -0.651261 0.154224 1.242451
v -0.738685 0.154321 1.224378
v -0.349311 0.211065 -1.321521
v -0.340285 0.162243 -1.317360
v -0.736333 0.111228 1.223069
v -0.151759 0.139816 0.537909
v -0.234856 0.184524 0.528509
v -0.310736 0.138305 0.522445
v -0.389584 0.172391 0.447156
v -0.460741 0.118566 0.394567
v -0.461316 0.163055 0.376339
v -0.391799 0.220649 0.452524
v -0.311785 0.186291 0.526177
v -0.236466 0.230888 0.522129
v -0.148813 0.187026 0.536968
v -0.065378 0.223202 0.480839
v 0.021712 0.187398 0.545781
v 0.097793 0.240665 0.595702
v 0.218052 0.206084 0.673197
v 0.327884 0.243795 0.627625
v 0.439023 0.196399 0.621374
v 0.441478 0.149396 0.623809
v 0.328179 0.197894 0.636832
v 0.223174 0.156689 0.660854
v 0.097921 0.195008 0.606422
v 0.015890 0.143761 0.568842
v -0.063977 0.178641 0.498427
v 0.067762 0.137024 -0.491425
v 0.151964 0.172760 -0.466682
v 0.235306 0.110616 -0.474130
v 0.312913 0.150085 -0.442462
v 0.377165 0.097497 -0.408390
v 0.488278 0.147047 -0.427442
v 0.582750 0.105885 -0.451070
v 0.583697 0.152700 -0.447689
v 0.492917 0.195594 -0.432804
v 0.368526 0.141565 -0.390063
v 0.318685 0.198648 -0.447902
v 0.234827 0.154642 -0.451931
v 0.152499 0.214503 -0.458395
v 0.066149 0.186315 -0.453238
v -0.014254 0.214865 -0.529134
v -0.078042 0.185036 -0.609663
v -0.086133 0.134630 -0.594919
v -0.012855 0.170790 -0.546348
vn -0.4789 0.8779 0.0001
vn -0.0952 -0.0772 -0.9925
vn 0.5628 -0.8265 0.0074
vn -0.0884 0.1465 0.9853
vn 0.0447 -0.0320 0.9985
vn -0.5199 0.8521 -0.0604
vn 0.4949 -0.8670 0.0587
vn 0.5846 0.8113 0.0098
vn -0.4183 -0.9080 -0.0213
vn 0.0821 -0.0355 -0.9960
vn 0.5895 0.8070 0.0345
vn -0.1102 -0.1178 -0.9869
vn -0.3675 -0.9300 0.0105
vn -0.0262 -0.0615 0.9978
vn -0.4608 0.8871 -0.0268
vn -0.0016 -0.0515 -0.9987
vn 0.3764 -0.9260 0.0293
vn 0.0049 -0.0608 0.9981
vn 0.2979 0.9546 0.0010
vn -0.0155 -0.0510 -0.9986
vn -0.4725 -0.8810 -0.0227
vn -0.3532 0.9354 -0.0172
vn 0.5218 -0.8524 0.0350
vn 0.4280 0.9026 -0.0462
vn -0.4003 -0.9152 0.0473
vn 0.0272 -0.0312 0.9991
vn -0.4384 0.8979 -0.0392
vn 0.0162 -0.1401 -0.9900
vn 0.4316 -0.9012 0.0392
vn 0.0364 -0.0310 0.9989
vn 0.2805 0.9578 -0.0622
vn 0.2310 -0.1451 -0.9621
vn -0.2913 -0.9550 0.0564
vn 0.0437 -0.0321 0.9985
vn 0.8437 0.5361 0.0288
vn -0.0811 -0.0777 -0.9937
vn -0.7800 -0.6253 -0.0242
vn 0.0116 -0.0126 0.9999
vn -0.4298 0.9027 0.0211
vn -0.0116 -0.0574 -0.9983
vn 0.4955 -0.8684 -0.0206
vn -0.0468 -0.0140 0.9988
vn 0.9992 -0.0295 -0.0252
vn -0.9814 -0.1922 0.0010
vn -0.2525 -0.9654 0.0650
vn 0.6857 -0.7278 -0.0104
vn -0.3837 -0.9222 0.0477
vn 0.5104 -0.8592 -0.0362
vn 0.3518 0.9359 -0.0171
vn -0.2750 0.9614 -0.0004
vn -0.1911 0.9813 0.0221
vn -0.4725 0.8810 -0.0240
vn 0.3962 0.9118 -0.1082
vn -0.4993 0.8663 0.0115
vn 0.7318 0.6815 -0.0116
vn -0.3300 0.9433 0.0342
vn 0.4058 0.9133 0.0364
vn -0.2049 -0.9786 -0.0170
vn 0.0527 -0.9984 0.0225
vn -0.4997 -0.8648 0.0482
vn 0.5460 -0.8376 -0.0187
vn -0.6227 -0.7774 0.0887
vn 0.4746 -0.8799 0.0220
vn 0.3887 -0.9164 -0.0960
vn -0.3537 -0.9247 -0.1409
vn 0.4442 -0.8945 -0.0494
vn -0.5929 -0.8030 -0.0612
vn 0.4127 -0.9107 -0.0191
vn -0.2682 -0.9613 -0.0635
vn 0.6305 0.7761 0.0102
vn -0.4221 0.9064 0.0172
vn 0.4816 0.8756 0.0382
vn 0.5903 0.8019 0.0919
vn -0.3040 0.9508 0.0604
vn 0.2496 0.9667 0.0568
vn -0.6117 0.7908 0.0204
vn 0.4503 -0.8862 -0.1087
vn -0.3350 -0.9407 -0.0532
vn -0.5731 0.8173 0.0603
vn -0.2154 -0.0772 -0.9735
vn 0.5595 -0.8265 -0.0612
vn 0.0396 0.1070 0.9935
vn 0.1660 -0.0320 0.9856
vn -0.5234 0.8521 0.0034
vn 0.4983 -0.8670 -0.0020
vn 0.3437 0.9388 -0.0238
vn -0.4178 -0.9080 0.0299
vn -0.0399 -0.0355 -0.9986
vn 0.5893 0.8070 -0.0376
vn -0.2296 -0.1178 -0.9661
vn -0.3635 -0.9300 0.0552
vn 0.0956 -0.0615 0.9935
vn -0.4606 0.8871 0.0296
vn -0.1233 -0.0515 -0.9910
vn 0.3772 -0.9260 -0.0168
vn 0.1265 -0.0608 0.9901
vn 0.2958 0.9546 -0.0353
vn -0.1371 -0.0510 -0.9892
vn -0.4717 -0.8810 0.0350
vn -0.3527 0.9354 0.0259
vn 0.5222 -0.8524 -0.0288
vn 0.4192 0.9026 -0.0980
vn -0.3915 -0.9152 0.0957
vn 0.1488 -0.0312 0.9884
vn -0.4399 0.8979 0.0146
vn -0.1046 -0.1401 -0.9846
vn 0.4331 -0.9012 -0.0137
vn 0.1579 -0.0310 0.9870
vn 0.2708 0.9578 -0.0959
vn 0.1120 -0.1451 -0.9831
vn -0.2823 -0.9550 0.0915
vn 0.1651 -0.0321 0.9858
vn 0.8409 0.5361 -0.0742
vn -0.2016 -0.0777 -0.9764
vn -0.7771 -0.6253 0.0710
vn 0.1333 -0.0126 0.9910
vn -0.4240 0.9027 0.0733
vn -0.1331 -0.0574 -0.9894
vn 0.4893 -0.8684 -0.0809
vn 0.0753 -0.0140 0.9971
vn 0.9887 -0.0295 -0.1468
vn -0.9739 -0.1922 0.1206
vn -0.2427 -0.9654 0.0953
vn 0.6794 -0.7278 -0.0939
vn -0.3750 -0.9222 0.0941
vn 0.5022 -0.8592 -0.0982
vn 0.3471 0.9359 -0.0598
vn -0.5456 0.8319 0.1009
vn 0.3631 0.9292 -0.0692
vn -0.2730 0.9614 0.0331
vn -0.1870 0.9813 0.0452
vn -0.4719 0.8810 0.0338
vn 0.3801 0.9118 -0.1557
vn -0.4942 0.8663 0.0723
vn 0.7249 0.6815 -0.1007
vn -0.3234 0.9433 0.0741
vn 0.4072 0.9133 -0.0133
vn -0.2054 -0.9786 0.0081
vn 0.0550 -0.9984 0.0159
vn -0.4901 -0.8648 0.1087
vn 0.5397 -0.8376 -0.0851
vn -0.6072 -0.7774 0.1639
vn 0.4737 -0.8799 -0.0360
vn 0.3741 -0.9164 -0.1426
vn -0.3682 -0.9247 -0.0967
vn 0.4349 -0.8945 -0.1032
vn -0.5959 -0.8030 0.0115
vn 0.4073 -0.9107 -0.0692
vn -0.2739 -0.9613 -0.0303
vn 0.6270 0.7761 -0.0667
vn -0.4169 0.9064 0.0685
vn 0.4826 0.8756 -0.0207
vn 0.5971 0.8019 0.0193
vn -0.2943 0.9508 0.0970
vn 0.2546 0.9667 0.0260
vn -0.6047 0.7908 0.0948
vn 0.4337 -0.8862 -0.1627
vn -0.3389 -0.9407 -0.0120
vn -0.5675 0.8173 -0.1000
vn 0.0612 -0.0772 -0.9951
vn 0.5547 -0.8265 0.0954
vn -0.2358 0.1070 0.9659
vn -0.1121 -0.0320 0.9932
vn -0.5041 0.8521 -0.1410
vn 0.4796 -0.8670 0.1354
vn 0.3370 0.9388 0.0718
vn -0.4099 -0.9080 -0.0864
vn 0.2369 -0.0355 -0.9709
vn 0.5769 0.8070 0.1263
vn 0.0456 -0.1178 -0.9920
vn -0.3646 -0.9300 -0.0471
vn -0.1820 -0.0615 0.9814
vn -0.4509 0.8871 -0.0985
vn 0.1547 -0.0515 -0.9866
vn 0.3672 -0.9260 0.0878
vn -0.1513 -0.0608 0.9866
vn 0.2940 0.9546 0.0476
vn 0.1409 -0.0510 -0.9887
vn -0.4631 -0.8810 -0.0964
vn -0.3462 0.9354 -0.0723
vn 0.5099 -0.8524 0.1162
vn 0.4300 0.9026 0.0213
vn -0.4027 -0.9152 -0.0159
vn -0.1294 -0.0312 0.9911
vn -0.4269 0.8979 -0.1072
vn 0.1709 -0.1401 -0.9753
vn 0.4201 -0.9012 0.1063
vn -0.1203 -0.0310 0.9923
vn 0.2867 0.9578 -0.0175
vn 0.3787 -0.1451 -0.9141
vn -0.2966 -0.9550 0.0102
vn -0.1130 -0.0321 0.9931
vn 0.8288 0.5361 0.1604
vn 0.0754 -0.0777 -0.9941
vn -0.7666 -0.6253 -0.1460
vn -0.1450 -0.0126 0.9894
vn -0.4278 0.9027 -0.0464
vn 0.1447 -0.0574 -0.9878
vn 0.4926 -0.8684 0.0571
vn -0.2024 -0.0140 0.9792
vn 0.9909 -0.0295 0.1314
vn -0.9694 -0.1922 -0.1525
vn -0.2596 -0.9654 0.0247
vn 0.6789 -0.7278 0.0970
vn -0.3864 -0.9222 -0.0129
vn 0.5098 -0.8592 0.0440
vn 0.3501 0.9359 0.0381
vn -0.5523 0.8319 -0.0534
vn 0.3681 0.9292 0.0335
vn -0.2715 0.9614 -0.0434
vn -0.1922 0.9813 -0.0080
vn -0.4629 0.8810 -0.0976
vn 0.4083 0.9118 -0.0449
vn -0.4950 0.8663 -0.0667
vn 0.7246 0.6815 0.1030
vn -0.3313 0.9433 -0.0179
vn 0.3951 0.9133 0.0995
vn -0.1997 -0.9786 -0.0488
vn 0.0485 -0.9984 0.0305
vn -0.5011 -0.8648 -0.0306
vn 0.5422 -0.8376 0.0669
vn -0.6289 -0.7774 -0.0098
vn 0.4653 -0.8799 0.0960
vn 0.3989 -0.9164 -0.0340
vn -0.3273 -0.9247 -0.1945
vn 0.4465 -0.8945 0.0207
vn -0.5760 -0.8030 -0.1532
vn 0.4106 -0.9107 0.0457
vn -0.2549 -0.9613 -0.1046
vn 0.6211 0.7761 0.1087
vn -0.4196 0.9064 -0.0490
vn 0.4696 0.8756 0.1131
vn 0.5687 0.8019 0.1831
vn -0.3097 0.9508 0.0121
vn 0.2376 0.9667 0.0951
vn -0.6074 0.7908 -0.0755
vn 0.4618 -0.8862 -0.0369
vn -0.3225 -0.9407 -0.1050
vn -0.3442 0.9388 0.0132
vn -0.0912 -0.0315 -0.9953
vn 0.4011 -0.9160 -0.0084
vn -0.0646 0.0071 0.9979
vn 0.0449 -0.0372 0.9983
vn -0.4703 0.8809 -0.0534
vn 0.4254 -0.9036 0.0495
vn 0.3885 0.9213 0.0168
vn -0.3485 -0.9373 -0.0114
vn 0.3540 0.9352 -0.0112
vn -0.1099 -0.0423 -0.9930
vn -0.6130 -0.7893 -0.0340
vn -0.0214 -0.0391 0.9990
vn -0.3226 0.9460 -0.0315
vn -0.0028 -0.0459 -0.9989
vn 0.4480 -0.8936 0.0262
vn 0.0049 -0.0476 0.9989
vn 0.4421 0.8966 0.0245
vn -0.3555 -0.9347 -0.0049
vn 0.1811 -0.0424 0.9826
vn -0.5232 0.8513 -0.0395
vn 0.4044 -0.9144 0.0197
vn -0.1331 0.0743 0.9883
vn 0.3913 0.9193 -0.0423
vn -0.0207 -0.0745 -0.9970
vn -0.3925 -0.9186 0.0464
vn -0.3748 0.9258 -0.0494
vn 0.0191 -0.0758 -0.9969
vn 0.3960 -0.9171 0.0447
vn 0.6965 0.7176 0.0076
vn 0.2801 0.1296 -0.9512
vn -0.6086 -0.7935 0.0059
vn 0.5028 0.8642 0.0173
vn -0.0769 -0.0231 -0.9968
vn -0.5190 -0.8547 -0.0150
vn 0.0097 0.0086 0.9999
vn -0.4552 0.8901 0.0220
vn -0.0105 -0.0291 -0.9995
vn 0.4438 -0.8959 -0.0189
vn -0.0468 -0.0408 0.9981
vn 0.9980 0.0585 -0.0249
vn -0.9988 -0.0492 0.0014
vn -0.4655 -0.8787 0.1058
vn 0.5188 -0.8546 -0.0211
vn -0.4645 -0.8845 0.0443
vn 0.5759 -0.8170 -0.0304
vn -0.3731 -0.9277 0.0143
vn -0.6733 0.7387 0.0334
vn 0.6066 0.7949 0.0124
vn -0.5101 0.8590 0.0436
vn 0.4411 0.8917 -0.1012
vn -0.4609 0.8870 -0.0270
vn 0.5859 0.8053 -0.0904
vn -0.5436 0.8393 0.0103
vn 0.2846 0.9559 -0.0726
vn -0.4998 0.8634 0.0681
vn 0.5783 0.8158 -0.0023
vn 0.9982 0.0590 -0.0131
vn -0.3997 -0.9165 0.0176
vn 0.3682 -0.9290 -0.0366
vn -0.2949 -0.9527 0.0729
vn 0.5120 -0.8588 -0.0199
vn -0.4187 -0.9016 0.1085
vn 0.4494 -0.8929 0.0288
vn 0.6286 -0.7764 -0.0460
vn -0.6193 -0.7804 -0.0861
vn -0.5269 -0.8484 -0.0509
vn 0.4155 -0.9094 -0.0194
vn -0.4317 -0.9011 -0.0418
vn 0.9991 -0.0330 0.0263
vn 0.4507 0.8919 0.0382
vn -0.4145 0.9099 0.0164
vn 0.6684 0.7407 0.0675
vn -0.4574 0.8852 0.0851
vn 0.3711 0.9186 0.1361
vn -0.5817 0.8087 0.0879
vn 0.2616 0.9634 0.0581
vn -0.4103 0.9103 0.0555
vn 0.5582 0.8296 -0.0128
vn -0.0368 -0.9964 -0.0760
vn 0.6102 -0.7889 -0.0727
vn -0.6621 -0.7440 -0.0897
vn -0.3400 0.9388 0.0550
vn -0.2119 -0.0315 -0.9768
vn 0.3970 -0.9160 -0.0572
vn 0.0575 0.0071 0.9983
vn 0.1662 -0.0372 0.9854
vn -0.4733 0.8809 0.0043
vn 0.4283 -0.9036 -0.0027
vn 0.3877 0.9213 -0.0306
vn -0.3473 -0.9373 0.0312
vn 0.3500 0.9352 -0.0542
vn -0.2301 -0.0423 -0.9722
vn -0.6126 -0.7893 0.0410
vn 0.1005 -0.0391 0.9942
vn -0.3240 0.9460 0.0081
vn -0.1245 -0.0459 -0.9912
vn 0.4479 -0.8936 -0.0286
vn 0.1266 -0.0476 0.9908
vn 0.4418 0.8966 -0.0296
vn -0.3534 -0.9347 0.0385
vn 0.2995 -0.0424 0.9532
vn -0.5241 0.8513 0.0245
vn 0.4038 -0.9144 -0.0298
vn -0.0117 0.0743 0.9972
vn 0.3832 0.9193 -0.0897
vn -0.1420 -0.0744 -0.9871
vn -0.3840 -0.9186 0.0939
vn -0.3780 0.9258 -0.0034
vn -0.1025 -0.0758 -0.9918
vn 0.3985 -0.9171 -0.0039
vn 0.6922 0.7176 -0.0773
vn 0.1621 0.1296 -0.9782
vn -0.6033 -0.7935 0.0800
vn 0.5012 0.8642 -0.0442
vn -0.1978 -0.0231 -0.9800
vn -0.5169 -0.8547 0.0484
vn 0.1315 0.0086 0.9913
vn -0.4491 0.8901 0.0773
vn -0.1323 -0.0291 -0.9908
vn 0.4382 -0.8959 -0.0728
vn 0.0752 -0.0408 0.9963
vn 0.9875 0.0585 -0.1463
vn -0.9912 -0.0492 0.1232
vn -0.4492 -0.8787 0.1617
vn 0.5124 -0.8546 -0.0841
vn -0.4556 -0.8845 0.1005
vn 0.5679 -0.8170 -0.1003
vn -0.3686 -0.9277 0.0596
vn -0.5887 0.8019 0.1021
vn 0.8111 0.5788 -0.0847
vn -0.5010 0.8590 0.1054
vn 0.4255 0.8917 -0.1542
vn -0.4608 0.8870 0.0294
vn 0.5705 0.8053 -0.1611
vn -0.5383 0.8393 0.0765
vn 0.2736 0.9559 -0.1068
vn -0.4878 0.8634 0.1286
vn 0.5737 0.8158 -0.0728
vn 0.9891 0.0590 -0.1347
vn -0.3945 -0.9165 0.0661
vn 0.3610 -0.9290 -0.0813
vn -0.2839 -0.9527 0.1083
vn 0.5058 -0.8588 -0.0822
vn -0.4023 -0.9016 0.1587
vn 0.4495 -0.8929 -0.0262
vn 0.6183 -0.7764 -0.1222
vn -0.6251 -0.7804 -0.0099
vn -0.5292 -0.8484 0.0137
vn 0.4100 -0.9094 -0.0698
vn -0.4336 -0.9011 0.0111
vn 0.9949 -0.0330 -0.0957
vn 0.4520 0.8919 -0.0170
vn -0.4094 0.9099 0.0668
vn 0.6717 0.7407 -0.0144
vn -0.4436 0.8852 0.1402
vn 0.3849 0.9186 0.0899
vn -0.5666 0.8087 0.1581
vn 0.2667 0.9634 0.0258
vn -0.4004 0.9103 0.1051
vn 0.5525 0.8296 -0.0807
vn -0.0458 -0.9964 -0.0709
vn 0.5968 -0.7889 -0.1465
vn -0.6681 -0.7440 -0.0084
vn -0.3420 0.9388 -0.0408
vn 0.0656 -0.0315 -0.9973
vn 0.3974 -0.9160 0.0545
vn -0.2199 0.0071 0.9755
vn -0.1118 -0.0372 0.9930
vn -0.4562 0.8809 -0.1264
vn 0.4124 -0.9036 0.1155
vn 0.3811 0.9213 0.0774
vn -0.3424 -0.9373 -0.0657
vn 0.3514 0.9352 0.0444
vn 0.0468 -0.0423 -0.9980
vn -0.6001 -0.7893 -0.1295
vn -0.1774 -0.0391 0.9834
vn -0.3137 0.9460 -0.0815
vn 0.1535 -0.0459 -0.9871
vn 0.4384 -0.8936 0.0959
vn -0.1514 -0.0476 0.9873
vn 0.4329 0.8966 0.0933
vn -0.3503 -0.9347 -0.0604
vn 0.0251 -0.0424 0.9988
vn -0.5106 0.8513 -0.1209
vn 0.3964 -0.9144 0.0827
vn -0.2861 0.0743 0.9553
vn 0.3931 0.9193 0.0194
vn 0.1356 -0.0744 -0.9880
vn -0.3950 -0.9186 -0.0155
vn -0.3625 0.9258 -0.1075
vn 0.1748 -0.0758 -0.9817
vn 0.3842 -0.9171 0.1061
vn 0.6867 0.7176 0.1165
vn 0.4255 0.1296 -0.8956
vn -0.6020 -0.7935 -0.0894
vn 0.4939 0.8642 0.0957
vn 0.0800 -0.0231 -0.9965
vn -0.5102 -0.8547 -0.0960
vn -0.1469 0.0086 0.9891
vn -0.4530 0.8901 -0.0494
vn 0.1460 -0.0291 -0.9889
vn 0.4412 -0.8959 0.0508
vn -0.2023 -0.0408 0.9785
vn 0.9896 0.0585 0.1315
vn -0.9867 -0.0492 -0.1548
vn -0.4763 -0.8787 0.0317
vn 0.5157 -0.8546 0.0604
vn -0.4657 -0.8845 -0.0290
vn 0.5736 -0.8170 0.0601
vn -0.3707 -0.9277 -0.0443
vn -0.5941 0.8019 -0.0641
vn 0.8030 0.5788 0.1421
vn -0.5106 0.8590 -0.0368
vn 0.4515 0.8917 -0.0310
vn -0.4510 0.8870 -0.0988
vn 0.5929 0.8053 0.0024
vn -0.5385 0.8393 -0.0748
vn 0.2924 0.9559 -0.0272
vn -0.5043 0.8634 -0.0109
vn 0.5715 0.8158 0.0882
vn 0.9879 0.0590 0.1432
vn -0.3975 -0.9165 -0.0452
vn 0.3694 -0.9290 0.0214
vn -0.3027 -0.9527 0.0259
vn 0.5088 -0.8588 0.0604
vn -0.4305 -0.9016 0.0416
vn 0.4393 -0.8929 0.0988
vn 0.6280 -0.7764 0.0529
vn -0.5982 -0.7804 -0.1819
vn -0.5124 -0.8484 -0.1327
vn 0.4134 -0.9094 0.0459
vn -0.4198 -0.9011 -0.1088
vn 0.9827 -0.0330 0.1822
vn 0.4392 0.8919 0.1082
vn -0.4119 0.9099 -0.0487
vn 0.6496 0.7407 0.1713
vn -0.4651 0.8852 0.0125
vn 0.3452 0.9186 0.1925
vn -0.5883 0.8087 -0.0042
vn 0.2493 0.9634 0.0983
vn -0.4139 0.9103 -0.0093
vn 0.5533 0.8296 0.0747
vn -0.0245 -0.9964 -0.0808
vn 0.6141 -0.7889 0.0237
vn -0.6399 -0.7440 -0.1922
vt 0.625000 0.375000
vt 0.625000 0.625000
s 0
usemtl ruins_find_cut_plate
f 2/1/1 49/1/1 1/1/1
f 5/2/2 3/2/2 6/2/2
f 48/1/3 3/1/3 47/1/3
f 4/1/4 21/1/4 1/1/4
f 9/2/5 35/2/5 33/2/5
f 75/1/6 54/1/6 55/1/6
f 63/1/7 68/1/7 62/1/7
f 50/2/8 2/2/8 1/2/8
f 81/2/9 47/2/9 3/2/9
f 22/2/10 3/2/10 2/2/10
f 53/2/11 76/2/11 77/2/11
f 13/2/12 8/2/12 34/2/12
f 64/2/13 67/2/13 63/2/13
f 14/2/14 9/2/14 11/2/14
f 53/2/15 78/2/15 52/2/15
f 16/2/16 13/2/16 17/2/16
f 64/2/17 65/2/17 66/2/17
f 15/2/18 14/2/18 11/2/18
f 51/2/19 78/2/19 79/2/19
f 20/1/20 16/1/20 17/1/20
f 45/2/21 65/2/21 44/2/21
f 50/2/22 79/2/22 80/2/22
f 46/2/23 82/2/23 45/2/23
f 73/2/24 58/2/24 72/2/24
f 59/2/25 70/2/25 71/2/25
f 29/1/26 25/1/26 26/1/26
f 74/2/27 57/2/27 73/2/27
f 31/1/28 28/1/28 32/1/28
f 60/2/29 69/2/29 70/2/29
f 30/2/30 29/2/30 26/2/30
f 74/1/31 55/1/31 56/1/31
f 34/1/32 31/1/32 32/1/32
f 62/1/33 69/1/33 61/1/33
f 35/2/34 30/2/34 33/2/34
f 5/2/35 36/2/35 49/2/35
f 38/2/36 5/2/36 6/2/36
f 39/2/37 6/2/37 48/2/37
f 39/1/38 4/1/38 36/1/38
f 41/2/39 36/2/39 37/2/39
f 41/2/40 38/2/40 42/2/40
f 39/2/41 42/2/41 38/2/41
f 40/1/42 39/1/42 36/1/42
f 72/2/43 59/2/43 71/2/43
f 42/2/44 40/2/44 41/2/44
f 45/2/45 18/2/45 19/2/45
f 23/2/46 45/2/46 19/2/46
f 46/1/47 21/1/47 47/1/47
f 7/1/48 47/1/48 21/1/48
f 36/1/49 4/1/49 49/1/49
f 19/2/50 50/2/50 21/2/50
f 15/2/51 51/2/51 19/2/51
f 11/2/52 52/2/52 15/2/52
f 11/2/53 54/2/53 53/2/53
f 55/2/54 9/2/54 33/2/54
f 56/2/55 33/2/55 30/2/55
f 56/2/56 26/2/56 57/2/56
f 57/1/57 25/1/57 58/1/57
f 60/1/58 25/1/58 29/1/58
f 61/2/59 29/2/59 30/2/59
f 35/2/60 61/2/60 30/2/60
f 10/2/61 62/2/61 35/2/61
f 14/2/62 63/2/62 10/2/62
f 44/2/63 14/2/63 18/2/63
f 65/2/64 13/2/64 66/2/64
f 67/2/65 13/2/65 34/2/65
f 67/1/66 34/1/66 68/1/66
f 68/1/67 32/1/67 69/1/67
f 70/1/68 32/1/68 28/1/68
f 71/1/69 28/1/69 24/1/69
f 27/1/70 72/1/70 24/1/70
f 31/1/71 73/1/71 27/1/71
f 75/1/72 31/1/72 8/1/72
f 76/2/73 12/2/73 77/2/73
f 77/2/74 16/2/74 78/2/74
f 79/1/75 16/1/75 20/1/75
f 80/1/76 20/1/76 22/1/76
f 81/1/77 20/1/77 82/1/77
f 82/1/78 17/1/78 65/1/78
f 84/1/79 131/1/79 132/1/79
f 87/2/80 85/2/80 88/2/80
f 130/1/81 85/1/81 129/1/81
f 86/1/82 103/1/82 83/1/82
f 91/2/83 117/2/83 115/2/83
f 158/1/84 137/1/84 138/1/84
f 146/1/85 151/1/85 145/1/85
f 133/2/86 84/2/86 132/2/86
f 164/2/87 129/2/87 85/2/87
f 104/2/88 85/2/88 84/2/88
f 136/2/89 159/2/89 160/2/89
f 95/2/90 90/2/90 116/2/90
f 147/2/91 150/2/91 146/2/91
f 96/2/92 91/2/92 93/2/92
f 136/2/93 161/2/93 135/2/93
f 98/2/94 95/2/94 99/2/94
f 147/2/95 148/2/95 149/2/95
f 97/2/96 96/2/96 93/2/96
f 134/2/97 161/2/97 162/2/97
f 102/1/98 98/1/98 99/1/98
f 127/2/99 148/2/99 126/2/99
f 133/2/100 162/2/100 163/2/100
f 128/2/101 165/2/101 127/2/101
f 156/2/102 141/2/102 155/2/102
f 142/2/103 153/2/103 154/2/103
f 111/1/104 107/1/104 108/1/104
f 157/2/105 140/2/105 156/2/105
f 113/1/106 110/1/106 114/1/106
f 143/2/107 152/2/107 153/2/107
f 112/2/108 111/2/108 108/2/108
f 157/1/109 138/1/109 139/1/109
f 116/1/110 113/1/110 114/1/110
f 145/1/111 152/1/111 144/1/111
f 117/2/112 112/2/112 115/2/112
f 87/2/113 118/2/113 131/2/113
f 120/2/114 87/2/114 88/2/114
f 121/2/115 88/2/115 130/2/115
f 121/1/116 86/1/116 118/1/116
f 123/2/117 118/2/117 119/2/117
f 123/2/118 120/2/118 124/2/118
f 121/2/119 124/2/119 120/2/119
f 122/1/120 121/1/120 118/1/120
f 155/2/121 142/2/121 154/2/121
f 124/2/122 122/2/122 123/2/122
f 127/2/123 100/2/123 101/2/123
f 105/2/124 127/2/124 101/2/124
f 128/1/125 103/1/125 129/1/125
f 89/1/126 129/1/126 103/1/126
f 118/1/127 86/1/127 131/1/127
f 132/1/128 86/1/128 83/1/128
f 83/1/129 133/1/129 132/1/129
f 101/2/130 133/2/130 103/2/130
f 97/2/131 134/2/131 101/2/131
f 93/2/132 135/2/132 97/2/132
f 93/2/133 137/2/133 136/2/133
f 138/2/134 91/2/134 115/2/134
f 139/2/135 115/2/135 112/2/135
f 139/2/136 108/2/136 140/2/136
f 140/1/137 107/1/137 141/1/137
f 143/1/138 107/1/138 111/1/138
f 144/2/139 111/2/139 112/2/139
f 117/2/140 144/2/140 112/2/140
f 92/2/141 145/2/141 117/2/141
f 96/2/142 146/2/142 92/2/142
f 126/2/143 96/2/143 100/2/143
f 148/2/144 95/2/144 149/2/144
f 150/2/145 95/2/145 116/2/145
f 150/1/146 116/1/146 151/1/146
f 151/1/147 114/1/147 152/1/147
f 153/1/148 114/1/148 110/1/148
f 154/1/149 110/1/149 106/1/149
f 109/1/150 155/1/150 106/1/150
f 113/1/151 156/1/151 109/1/151
f 158/1/152 113/1/152 90/1/152
f 159/2/153 94/2/153 160/2/153
f 160/2/154 98/2/154 161/2/154
f 162/1/155 98/1/155 102/1/155
f 163/1/156 102/1/156 104/1/156
f 164/1/157 102/1/157 165/1/157
f 165/1/158 99/1/158 148/1/158
f 167/1/159 214/1/159 215/1/159
f 170/2/160 168/2/160 171/2/160
f 213/1/161 168/1/161 212/1/161
f 169/1/162 186/1/162 166/1/162
f 174/2/163 200/2/163 198/2/163
f 241/1/164 220/1/164 221/1/164
f 229/1/165 234/1/165 228/1/165
f 216/2/166 167/2/166 215/2/166
f 247/2/167 212/2/167 168/2/167
f 187/2/168 168/2/168 167/2/168
f 219/2/169 242/2/169 243/2/169
f 178/2/170 173/2/170 199/2/170
f 230/2/171 233/2/171 229/2/171
f 179/2/172 174/2/172 176/2/172
f 219/2/173 244/2/173 218/2/173
f 181/2/174 178/2/174 182/2/174
f 230/2/175 231/2/175 232/2/175
f 180/2/176 179/2/176 176/2/176
f 217/2/177 244/2/177 245/2/177
f 185/1/178 181/1/178 182/1/178
f 210/2/179 231/2/179 209/2/179
f 216/2/180 245/2/180 246/2/180
f 211/2/181 248/2/181 210/2/181
f 239/2/182 224/2/182 238/2/182
f 225/2/183 236/2/183 237/2/183
f 194/1/184 190/1/184 191/1/184
f 240/2/185 223/2/185 239/2/185
f 196/1/186 193/1/186 197/1/186
f 226/2/187 235/2/187 236/2/187
f 195/2/188 194/2/188 191/2/188
f 240/1/189 221/1/189 222/1/189
f 199/1/190 196/1/190 197/1/190
f 228/1/191 235/1/191 227/1/191
f 200/2/192 195/2/192 198/2/192
f 170/2/193 201/2/193 214/2/193
f 203/2/194 170/2/194 171/2/194
f 204/2/195 171/2/195 213/2/195
f 204/1/196 169/1/196 201/1/196
f 206/2/197 201/2/197 202/2/197
f 206/2/198 203/2/198 207/2/198
f 204/2/199 207/2/199 203/2/199
f 205/1/200 204/1/200 201/1/200
f 238/2/201 225/2/201 237/2/201
f 207/2/202 205/2/202 206/2/202
f 210/2/203 183/2/203 184/2/203
f 188/2/204 210/2/204 184/2/204
f 211/1/205 186/1/205 212/1/205
f 172/1/206 212/1/206 186/1/206
f 201/1/207 169/1/207 214/1/207
f 215/1/208 169/1/208 166/1/208
f 166/1/209 216/1/209 215/1/209
f 184/2/210 216/2/210 186/2/210
f 180/2/211 217/2/211 184/2/211
f 176/2/212 218/2/212 180/2/212
f 176/2/213 220/2/213 219/2/213
f 221/2/214 174/2/214 198/2/214
f 222/2/215 198/2/215 195/2/215
f 222/2/216 191/2/216 223/2/216
f 223/1/217 190/1/217 224/1/217
f 226/1/218 190/1/218 194/1/218
f 227/2/219 194/2/219 195/2/219
f 200/2/220 227/2/220 195/2/220
f 175/2/221 228/2/221 200/2/221
f 179/2/222 229/2/222 175/2/222
f 209/2/223 179/2/223 183/2/223
f 231/2/224 178/2/224 232/2/224
f 233/2/225 178/2/225 199/2/225
f 233/1/226 199/1/226 234/1/226
f 234/1/227 197/1/227 235/1/227
f 236/1/228 197/1/228 193/1/228
f 237/1/229 193/1/229 189/1/229
f 192/1/230 238/1/230 189/1/230
f 196/1/231 239/1/231 192/1/231
f 241/1/232 196/1/232 173/1/232
f 242/2/233 177/2/233 243/2/233
f 243/2/234 181/2/234 244/2/234
f 245/1/235 181/1/235 185/1/235
f 246/1/236 185/1/236 187/1/236
f 247/1/237 185/1/237 248/1/237
f 248/1/238 182/1/238 231/1/238
f 2/1/239 5/1/239 49/1/239
f 5/2/240 2/2/240 3/2/240
f 48/1/241 6/1/241 3/1/241
f 4/1/242 7/1/242 21/1/242
f 9/2/243 10/2/243 35/2/243
f 75/1/244 76/1/244 54/1/244
f 63/1/245 67/1/245 68/1/245
f 50/2/246 80/2/246 2/2/246
f 81/2/247 46/2/247 47/2/247
f 53/2/248 54/2/248 76/2/248
f 13/2/249 12/2/249 8/2/249
f 64/2/250 66/2/250 67/2/250
f 14/2/251 10/2/251 9/2/251
f 53/2/252 77/2/252 78/2/252
f 16/2/253 12/2/253 13/2/253
f 64/2/254 44/2/254 65/2/254
f 15/2/255 18/2/255 14/2/255
f 51/2/256 52/2/256 78/2/256
f 45/2/257 82/2/257 65/2/257
f 19/2/258 18/2/258 15/2/258
f 50/2/259 51/2/259 79/2/259
f 46/2/260 81/2/260 82/2/260
f 21/2/261 23/2/261 19/2/261
f 73/2/262 57/2/262 58/2/262
f 28/1/263 27/1/263 24/1/263
f 59/2/264 60/2/264 70/2/264
f 74/2/265 56/2/265 57/2/265
f 31/1/266 27/1/266 28/1/266
f 60/2/267 61/2/267 69/2/267
f 74/1/268 75/1/268 55/1/268
f 34/1/269 8/1/269 31/1/269
f 62/1/270 68/1/270 69/1/270
f 5/2/271 37/2/271 36/2/271
f 38/2/272 37/2/272 5/2/272
f 39/2/273 38/2/273 6/2/273
f 39/1/274 7/1/274 4/1/274
f 41/2/275 40/2/275 36/2/275
f 41/2/276 37/2/276 38/2/276
f 39/2/277 43/2/277 42/2/277
f 40/1/278 43/1/278 39/1/278
f 72/2/279 58/2/279 59/2/279
f 42/2/280 43/2/280 40/2/280
f 45/2/281 44/2/281 18/2/281
f 23/2/282 46/2/282 45/2/282
f 46/1/283 23/1/283 21/1/283
f 7/1/284 48/1/284 47/1/284
f 39/1/285 48/1/285 7/1/285
f 1/1/286 49/1/286 4/1/286
f 1/1/287 21/1/287 50/1/287
f 19/2/288 51/2/288 50/2/288
f 15/2/289 52/2/289 51/2/289
f 11/2/290 53/2/290 52/2/290
f 11/2/291 9/2/291 54/2/291
f 55/2/292 54/2/292 9/2/292
f 56/2/293 55/2/293 33/2/293
f 56/2/294 30/2/294 26/2/294
f 57/1/295 26/1/295 25/1/295
f 59/1/296 58/1/296 25/1/296
f 60/1/297 59/1/297 25/1/297
f 61/2/298 60/2/298 29/2/298
f 35/2/299 62/2/299 61/2/299
f 10/2/300 63/2/300 62/2/300
f 14/2/301 64/2/301 63/2/301
f 44/2/302 64/2/302 14/2/302
f 65/2/303 17/2/303 13/2/303
f 67/2/304 66/2/304 13/2/304
f 68/1/305 34/1/305 32/1/305
f 70/1/306 69/1/306 32/1/306
f 71/1/307 70/1/307 28/1/307
f 72/1/308 71/1/308 24/1/308
f 27/1/309 73/1/309 72/1/309
f 31/1/310 74/1/310 73/1/310
f 75/1/311 74/1/311 31/1/311
f 8/1/312 76/1/312 75/1/312
f 76/2/313 8/2/313 12/2/313
f 77/2/314 12/2/314 16/2/314
f 79/1/315 78/1/315 16/1/315
f 80/1/316 79/1/316 20/1/316
f 80/2/317 22/2/317 2/2/317
f 3/2/318 22/2/318 81/2/318
f 81/1/319 22/1/319 20/1/319
f 82/1/320 20/1/320 17/1/320
f 84/1/321 87/1/321 131/1/321
f 87/2/322 84/2/322 85/2/322
f 130/1/323 88/1/323 85/1/323
f 86/1/324 89/1/324 103/1/324
f 91/2/325 92/2/325 117/2/325
f 158/1/326 159/1/326 137/1/326
f 146/1/327 150/1/327 151/1/327
f 133/2/328 163/2/328 84/2/328
f 164/2/329 128/2/329 129/2/329
f 136/2/330 137/2/330 159/2/330
f 95/2/331 94/2/331 90/2/331
f 147/2/332 149/2/332 150/2/332
f 96/2/333 92/2/333 91/2/333
f 136/2/334 160/2/334 161/2/334
f 98/2/335 94/2/335 95/2/335
f 147/2/336 126/2/336 148/2/336
f 97/2/337 100/2/337 96/2/337
f 134/2/338 135/2/338 161/2/338
f 127/2/339 165/2/339 148/2/339
f 101/2/340 100/2/340 97/2/340
f 133/2/341 134/2/341 162/2/341
f 128/2/342 164/2/342 165/2/342
f 103/2/343 105/2/343 101/2/343
f 156/2/344 140/2/344 141/2/344
f 110/1/345 109/1/345 106/1/345
f 142/2/346 143/2/346 153/2/346
f 157/2/347 139/2/347 140/2/347
f 113/1/348 109/1/348 110/1/348
f 143/2/349 144/2/349 152/2/349
f 157/1/350 158/1/350 138/1/350
f 116/1/351 90/1/351 113/1/351
f 145/1/352 151/1/352 152/1/352
f 87/2/353 119/2/353 118/2/353
f 120/2/354 119/2/354 87/2/354
f 121/2/355 120/2/355 88/2/355
f 121/1/356 89/1/356 86/1/356
f 123/2/357 122/2/357 118/2/357
f 123/2/358 119/2/358 120/2/358
f 121/2/359 125/2/359 124/2/359
f 122/1/360 125/1/360 121/1/360
f 155/2/361 141/2/361 142/2/361
f 124/2/362 125/2/362 122/2/362
f 127/2/363 126/2/363 100/2/363
f 105/2/364 128/2/364 127/2/364
f 128/1/365 105/1/365 103/1/365
f 89/1/366 130/1/366 129/1/366
f 121/1/367 130/1/367 89/1/367
f 132/1/368 131/1/368 86/1/368
f 83/1/369 103/1/369 133/1/369
f 101/2/370 134/2/370 133/2/370
f 97/2/371 135/2/371 134/2/371
f 93/2/372 136/2/372 135/2/372
f 93/2/373 91/2/373 137/2/373
f 138/2/374 137/2/374 91/2/374
f 139/2/375 138/2/375 115/2/375
f 139/2/376 112/2/376 108/2/376
f 140/1/377 108/1/377 107/1/377
f 142/1/378 141/1/378 107/1/378
f 143/1/379 142/1/379 107/1/379
f 144/2/380 143/2/380 111/2/380
f 117/2/381 145/2/381 144/2/381
f 92/2/382 146/2/382 145/2/382
f 96/2/383 147/2/383 146/2/383
f 126/2/384 147/2/384 96/2/384
f 148/2/385 99/2/385 95/2/385
f 150/2/386 149/2/386 95/2/386
f 151/1/387 116/1/387 114/1/387
f 153/1/388 152/1/388 114/1/388
f 154/1/389 153/1/389 110/1/389
f 155/1/390 154/1/390 106/1/390
f 109/1/391 156/1/391 155/1/391
f 113/1/392 157/1/392 156/1/392
f 158/1/393 157/1/393 113/1/393
f 90/1/394 159/1/394 158/1/394
f 159/2/395 90/2/395 94/2/395
f 160/2/396 94/2/396 98/2/396
f 162/1/397 161/1/397 98/1/397
f 163/1/398 162/1/398 102/1/398
f 163/2/399 104/2/399 84/2/399
f 85/2/400 104/2/400 164/2/400
f 164/1/401 104/1/401 102/1/401
f 165/1/402 102/1/402 99/1/402
f 167/1/403 170/1/403 214/1/403
f 170/2/404 167/2/404 168/2/404
f 213/1/405 171/1/405 168/1/405
f 169/1/406 172/1/406 186/1/406
f 174/2/407 175/2/407 200/2/407
f 241/1/408 242/1/408 220/1/408
f 229/1/409 233/1/409 234/1/409
f 216/2/410 246/2/410 167/2/410
f 247/2/411 211/2/411 212/2/411
f 219/2/412 220/2/412 242/2/412
f 178/2/413 177/2/413 173/2/413
f 230/2/414 232/2/414 233/2/414
f 179/2/415 175/2/415 174/2/415
f 219/2/416 243/2/416 244/2/416
f 181/2/417 177/2/417 178/2/417
f 230/2/418 209/2/418 231/2/418
f 180/2/419 183/2/419 179/2/419
f 217/2/420 218/2/420 244/2/420
f 210/2/421 248/2/421 231/2/421
f 184/2/422 183/2/422 180/2/422
f 216/2/423 217/2/423 245/2/423
f 211/2/424 247/2/424 248/2/424
f 186/2/425 188/2/425 184/2/425
f 239/2/426 223/2/426 224/2/426
f 193/1/427 192/1/427 189/1/427
f 225/2/428 226/2/428 236/2/428
f 240/2/429 222/2/429 223/2/429
f 196/1/430 192/1/430 193/1/430
f 226/2/431 227/2/431 235/2/431
f 240/1/432 241/1/432 221/1/432
f 199/1/433 173/1/433 196/1/433
f 228/1/434 234/1/434 235/1/434
f 170/2/435 202/2/435 201/2/435
f 203/2/436 202/2/436 170/2/436
f 204/2/437 203/2/437 171/2/437
f 204/1/438 172/1/438 169/1/438
f 206/2/439 205/2/439 201/2/439
f 206/2/440 202/2/440 203/2/440
f 204/2/441 208/2/441 207/2/441
f 205/1/442 208/1/442 204/1/442
f 238/2/443 224/2/443 225/2/443
f 207/2/444 208/2/444 205/2/444
f 210/2/445 209/2/445 183/2/445
f 188/2/446 211/2/446 210/2/446
f 211/1/447 188/1/447 186/1/447
f 172/1/448 213/1/448 212/1/448
f 204/1/449 213/1/449 172/1/449
f 215/1/450 214/1/450 169/1/450
f 166/1/451 186/1/451 216/1/451
f 184/2/452 217/2/452 216/2/452
f 180/2/453 218/2/453 217/2/453
f 176/2/454 219/2/454 218/2/454
f 176/2/455 174/2/455 220/2/455
f 221/2/456 220/2/456 174/2/456
f 222/2/457 221/2/457 198/2/457
f 222/2/458 195/2/458 191/2/458
f 223/1/459 191/1/459 190/1/459
f 225/1/460 224/1/460 190/1/460
f 226/1/461 225/1/461 190/1/461
f 227/2/462 226/2/462 194/2/462
f 200/2/463 228/2/463 227/2/463
f 175/2/464 229/2/464 228/2/464
f 179/2/465 230/2/465 229/2/465
f 209/2/466 230/2/466 179/2/466
f 231/2/467 182/2/467 178/2/467
f 233/2/468 232/2/468 178/2/468
f 234/1/469 199/1/469 197/1/469
f 236/1/470 235/1/470 197/1/470
f 237/1/471 236/1/471 193/1/471
f 238/1/472 237/1/472 189/1/472
f 192/1/473 239/1/473 238/1/473
f 196/1/474 240/1/474 239/1/474
f 241/1/475 240/1/475 196/1/475
f 173/1/476 242/1/476 241/1/476
f 242/2/477 173/2/477 177/2/477
f 243/2/478 177/2/478 181/2/478
f 245/1/479 244/1/479 181/1/479
f 246/1/480 245/1/480 185/1/480
f 246/2/481 187/2/481 167/2/481
f 168/2/482 187/2/482 247/2/482
f 247/1/483 187/1/483 185/1/483
f 248/1/484 185/1/484 182/1/484
