# Blender 5.2.2 LTS
# www.blender.org
mtllib ruins_ch_floor_a.mtl
o piece
v 0.343567 0.231922 -0.091570
v 0.308817 -0.182475 -0.093582
v 0.371656 0.203871 0.201030
v 0.341422 -0.158276 0.199271
v 0.784830 0.178936 0.196831
v 0.755941 -0.183211 0.195073
v 0.822529 0.203386 -0.096374
v 0.789081 -0.211010 -0.098386
v 0.650660 0.235161 0.251431
v 0.523023 -0.214680 0.249233
v 0.520285 -0.247018 -0.095984
v 0.655143 0.268126 -0.093469
v -0.173858 -0.193771 -0.099567
v -0.270916 0.184685 -0.099567
v -0.264998 -0.127887 0.202640
v -0.305691 0.117782 0.202640
v -0.787755 -0.172893 0.202640
v -0.787755 0.190958 0.202640
v -0.822529 -0.199140 -0.099567
v -0.822529 0.217204 -0.099567
v -0.521533 -0.218342 0.202640
v -0.628237 0.246201 0.202640
v -0.624602 0.329820 -0.099567
v -0.517896 -0.251146 -0.099567
v -0.398936 -0.792132 -0.090244
v -0.004719 -0.823056 -0.090244
v -0.371792 -0.761053 0.193318
v -0.027279 -0.788081 0.193318
v -0.438580 -0.230609 0.193318
v -0.022617 -0.257635 0.193318
v -0.465820 -0.195633 -0.090244
v 0.010157 -0.226556 -0.090244
v -0.524092 -0.539601 0.193318
v 0.018447 -0.573379 0.193318
v 0.057283 -0.579268 -0.090244
v -0.563531 -0.540616 -0.090244
v -0.093561 -0.185870 -0.114293
v 0.260420 -0.171027 -0.111166
v -0.067711 -0.158640 0.161454
v 0.199850 -0.145484 0.164187
v -0.172828 0.219323 0.212178
v 0.206185 0.231005 0.214910
v -0.201206 0.275638 -0.078637
v 0.232134 0.289006 -0.075509
v -0.257444 0.070946 0.194628
v 0.266353 -0.008897 0.198043
v 0.338554 -0.005996 -0.094810
v -0.358792 0.071736 -0.098719
v 0.585904 0.286895 -0.099567
v 0.601971 0.725897 -0.099567
v 0.551366 0.315902 0.202640
v 0.565409 0.699557 0.202640
v 0.058573 0.394695 0.202640
v 0.072615 0.718038 0.202640
v 0.022011 0.334136 -0.099567
v 0.038078 0.747049 -0.099567
v 0.328967 0.261054 0.202640
v 0.304978 0.778627 0.202640
v 0.309960 0.813078 -0.099567
v 0.331415 0.181219 -0.099567
v 0.004371 0.297482 -0.075062
v -0.001823 0.766180 -0.072071
v -0.035464 0.326629 0.206379
v -0.040875 0.733880 0.208993
v -0.493867 0.726070 0.180025
v -0.542840 0.252069 -0.108210
v -0.520171 0.757243 -0.105219
v -0.293002 0.783582 0.248411
v -0.283310 0.823056 -0.086539
v -0.255807 0.196128 -0.090278
v -0.295901 0.233613 0.245389
v -0.518221 0.290956 0.164607
v -1.294364 -1.417201 -0.091570
v -1.329114 -1.831598 -0.093582
v -1.266275 -1.445252 0.201030
v -1.296509 -1.807399 0.199271
v -0.853101 -1.470187 0.196831
v -0.881990 -1.832334 0.195073
v -0.815402 -1.445737 -0.096374
v -0.848850 -1.860133 -0.098386
v -0.987271 -1.413962 0.251431
v -1.114908 -1.863803 0.249233
v -1.117646 -1.896141 -0.095984
v -0.982788 -1.380996 -0.093469
v -1.811789 -1.842893 -0.099567
v -1.908847 -1.464438 -0.099567
v -1.902929 -1.777010 0.202640
v -1.943622 -1.531341 0.202640
v -2.425686 -1.822016 0.202640
v -2.425686 -1.458165 0.202640
v -2.460459 -1.848262 -0.099567
v -2.460459 -1.431919 -0.099567
v -2.159464 -1.867465 0.202640
v -2.266168 -1.402922 0.202640
v -2.262533 -1.319303 -0.099567
v -2.155827 -1.900269 -0.099567
v -2.036867 -2.441255 -0.090244
v -1.642650 -2.472179 -0.090244
v -2.009723 -2.410176 0.193318
v -1.665209 -2.437204 0.193318
v -2.076511 -1.879732 0.193318
v -1.660548 -1.906758 0.193318
v -2.103751 -1.844756 -0.090245
v -1.627774 -1.875679 -0.090245
v -2.162023 -2.188724 0.193318
v -1.619484 -2.222502 0.193318
v -1.580648 -2.228390 -0.090245
v -2.201462 -2.189739 -0.090245
v -1.731491 -1.834993 -0.114293
v -1.377511 -1.820150 -0.111166
v -1.705642 -1.807763 0.161454
v -1.438081 -1.794607 0.164187
v -1.810759 -1.429800 0.212177
v -1.431746 -1.418118 0.214910
v -1.839137 -1.373485 -0.078637
v -1.405797 -1.360117 -0.075509
v -1.895375 -1.578176 0.194627
v -1.371578 -1.658020 0.198043
v -1.299377 -1.655119 -0.094810
v -1.996723 -1.577387 -0.098719
v -1.052027 -1.362228 -0.099567
v -1.035960 -0.923226 -0.099567
v -1.086565 -1.333221 0.202640
v -1.072522 -0.949566 0.202640
v -1.579358 -1.254428 0.202640
v -1.565316 -0.931085 0.202640
v -1.615920 -1.314986 -0.099567
v -1.599854 -0.902074 -0.099567
v -1.308964 -1.388069 0.202640
v -1.332953 -0.870496 0.202640
v -1.327971 -0.836045 -0.099567
v -1.306516 -1.467904 -0.099567
v -1.633560 -1.351641 -0.075062
v -1.639754 -0.882943 -0.072071
v -1.673395 -1.322494 0.206379
v -1.678806 -0.915243 0.208993
v -2.131798 -0.923053 0.180025
v -2.180771 -1.397054 -0.108210
v -2.158102 -0.891880 -0.105219
v -1.930933 -0.865541 0.248411
v -1.921241 -0.826067 -0.086540
v -1.893738 -1.452994 -0.090278
v -1.933832 -1.415510 0.245389
v -2.156152 -1.358167 0.164607
v -1.294364 0.231922 -0.091570
v -1.329114 -0.182475 -0.093582
v -1.266275 0.203871 0.201030
v -1.296509 -0.158276 0.199271
v -0.853101 0.178936 0.196831
v -0.881990 -0.183211 0.195073
v -0.815402 0.203386 -0.096374
v -0.848850 -0.211010 -0.098386
v -0.987271 0.235161 0.251431
v -1.114908 -0.214680 0.249233
v -1.117646 -0.247018 -0.095984
v -0.982788 0.268126 -0.093469
v -1.811789 -0.193771 -0.099567
v -1.908847 0.184685 -0.099567
v -1.902929 -0.127887 0.202640
v -1.943622 0.117782 0.202640
v -2.425686 -0.172893 0.202640
v -2.425686 0.190958 0.202640
v -2.460459 -0.199140 -0.099567
v -2.460459 0.217204 -0.099567
v -2.159464 -0.218342 0.202640
v -2.266168 0.246201 0.202640
v -2.262533 0.329820 -0.099567
v -2.155827 -0.251146 -0.099567
v -2.036867 -0.792132 -0.090244
v -1.642650 -0.823056 -0.090244
v -2.009723 -0.761053 0.193318
v -1.665209 -0.788081 0.193318
v -2.076511 -0.230609 0.193318
v -1.660548 -0.257635 0.193318
v -2.103751 -0.195633 -0.090244
v -1.627774 -0.226556 -0.090244
v -2.162023 -0.539601 0.193318
v -1.619484 -0.573379 0.193318
v -1.580648 -0.579268 -0.090244
v -2.201462 -0.540616 -0.090244
v -1.731491 -0.185870 -0.114293
v -1.377511 -0.171027 -0.111166
v -1.705642 -0.158640 0.161454
v -1.438081 -0.145484 0.164187
v -1.810759 0.219323 0.212178
v -1.431746 0.231005 0.214910
v -1.839137 0.275638 -0.078637
v -1.405797 0.289006 -0.075509
v -1.895375 0.070946 0.194628
v -1.371578 -0.008897 0.198043
v -1.299377 -0.005996 -0.094810
v -1.996723 0.071736 -0.098719
v -1.052027 0.286895 -0.099567
v -1.035960 0.725897 -0.099567
v -1.086565 0.315902 0.202640
v -1.072522 0.699557 0.202640
v -1.579358 0.394695 0.202640
v -1.565316 0.718038 0.202640
v -1.615920 0.334136 -0.099567
v -1.599854 0.747049 -0.099567
v -1.308964 0.261054 0.202640
v -1.332953 0.778627 0.202640
v -1.327971 0.813078 -0.099567
v -1.306516 0.181219 -0.099567
v -1.633560 0.297482 -0.075062
v -1.639754 0.766180 -0.072071
v -1.673395 0.326629 0.206379
v -1.678806 0.733880 0.208993
v -2.131798 0.726070 0.180025
v -2.180771 0.252069 -0.108210
v -2.158102 0.757243 -0.105219
v -1.930933 0.783582 0.248411
v -1.921241 0.823056 -0.086539
v -1.893738 0.196128 -0.090278
v -1.933832 0.233613 0.245389
v -2.156152 0.290956 0.164607
v -1.294364 1.881045 -0.091569
v -1.329114 1.466648 -0.093582
v -1.266275 1.852994 0.201030
v -1.296509 1.490847 0.199271
v -0.853101 1.828059 0.196831
v -0.881990 1.465911 0.195073
v -0.815402 1.852509 -0.096374
v -0.848850 1.438112 -0.098386
v -0.987271 1.884284 0.251431
v -1.114908 1.434443 0.249233
v -1.117646 1.402105 -0.095984
v -0.982788 1.917249 -0.093469
v -1.811789 1.455352 -0.099567
v -1.908847 1.833808 -0.099567
v -1.902929 1.521236 0.202640
v -1.943622 1.766905 0.202640
v -2.425686 1.476230 0.202640
v -2.425686 1.840080 0.202640
v -2.460459 1.449983 -0.099567
v -2.460459 1.866327 -0.099567
v -2.159464 1.430781 0.202640
v -2.266168 1.895324 0.202640
v -2.262533 1.978943 -0.099567
v -2.155827 1.397977 -0.099567
v -2.036867 0.856990 -0.090244
v -1.642650 0.826067 -0.090244
v -2.009723 0.888070 0.193318
v -1.665209 0.861042 0.193318
v -2.076511 1.418514 0.193318
v -1.660548 1.391488 0.193318
v -2.103751 1.453490 -0.090244
v -1.627774 1.422567 -0.090244
v -2.162023 1.109522 0.193318
v -1.619484 1.075744 0.193318
v -1.580648 1.069855 -0.090244
v -2.201462 1.108507 -0.090244
v -1.731491 1.463253 -0.114293
v -1.377511 1.478096 -0.111166
v -1.705642 1.490483 0.161454
v -1.438081 1.503639 0.164187
v -1.810759 1.868446 0.212178
v -1.431746 1.880128 0.214910
v -1.839137 1.924761 -0.078636
v -1.405797 1.938129 -0.075509
v -1.895375 1.720069 0.194628
v -1.371578 1.640226 0.198043
v -1.299377 1.643126 -0.094810
v -1.996723 1.720858 -0.098719
v -1.052027 1.936018 -0.099567
v -1.035960 2.375019 -0.099567
v -1.086565 1.965025 0.202640
v -1.072522 2.348680 0.202640
v -1.579358 2.043818 0.202640
v -1.565316 2.367161 0.202640
v -1.615920 1.983259 -0.099567
v -1.599854 2.396172 -0.099567
v -1.308964 1.910177 0.202640
v -1.332953 2.427750 0.202640
v -1.327971 2.462201 -0.099567
v -1.306516 1.830342 -0.099567
v -1.633560 1.946605 -0.075062
v -1.639754 2.415303 -0.072071
v -1.673395 1.975752 0.206380
v -1.678806 2.383003 0.208993
v -2.131798 2.375193 0.180025
v -2.180771 1.901192 -0.108210
v -2.158102 2.406366 -0.105219
v -1.930933 2.432705 0.248411
v -1.921241 2.472179 -0.086539
v -1.893738 1.845251 -0.090278
v -1.933832 1.882736 0.245389
v -2.156152 1.940078 0.164607
v 0.343567 -1.417201 -0.091570
v 0.308817 -1.831598 -0.093582
v 0.371656 -1.445252 0.201030
v 0.341422 -1.807399 0.199271
v 0.784830 -1.470187 0.196831
v 0.755941 -1.832334 0.195073
v 0.822529 -1.445737 -0.096374
v 0.789081 -1.860133 -0.098386
v 0.650660 -1.413962 0.251431
v 0.523023 -1.863803 0.249233
v 0.520285 -1.896141 -0.095984
v 0.655143 -1.380996 -0.093469
v -0.173858 -1.842893 -0.099567
v -0.270916 -1.464438 -0.099567
v -0.264998 -1.777010 0.202640
v -0.305691 -1.531341 0.202640
v -0.787755 -1.822016 0.202640
v -0.787755 -1.458165 0.202640
v -0.822529 -1.848262 -0.099567
v -0.822529 -1.431919 -0.099567
v -0.521533 -1.867465 0.202640
v -0.628237 -1.402922 0.202640
v -0.624602 -1.319303 -0.099567
v -0.517896 -1.900269 -0.099567
v -0.398936 -2.441255 -0.090244
v -0.004719 -2.472179 -0.090244
v -0.371792 -2.410176 0.193318
v -0.027279 -2.437204 0.193318
v -0.438580 -1.879732 0.193318
v -0.022617 -1.906758 0.193318
v -0.465820 -1.844756 -0.090245
v 0.010157 -1.875679 -0.090245
v -0.524092 -2.188724 0.193318
v 0.018447 -2.222502 0.193318
v 0.057283 -2.228390 -0.090245
v -0.563531 -2.189739 -0.090245
v -0.093561 -1.834993 -0.114293
v 0.260420 -1.820150 -0.111166
v -0.067711 -1.807763 0.161454
v 0.199850 -1.794607 0.164187
v -0.172828 -1.429800 0.212177
v 0.206185 -1.418118 0.214910
v -0.201206 -1.373485 -0.078637
v 0.232134 -1.360117 -0.075509
v -0.257444 -1.578176 0.194627
v 0.266353 -1.658020 0.198043
v 0.338554 -1.655119 -0.094810
v -0.358792 -1.577387 -0.098719
v 0.585904 -1.362228 -0.099567
v 0.601971 -0.923226 -0.099567
v 0.551366 -1.333221 0.202640
v 0.565409 -0.949566 0.202640
v 0.058573 -1.254428 0.202640
v 0.072615 -0.931085 0.202640
v 0.022011 -1.314986 -0.099567
v 0.038078 -0.902074 -0.099567
v 0.328967 -1.388069 0.202640
v 0.304978 -0.870496 0.202640
v 0.309960 -0.836045 -0.099567
v 0.331415 -1.467904 -0.099567
v 0.004371 -1.351641 -0.075062
v -0.001823 -0.882943 -0.072071
v -0.035464 -1.322494 0.206379
v -0.040875 -0.915243 0.208993
v -0.493867 -0.923053 0.180025
v -0.542840 -1.397054 -0.108210
v -0.520171 -0.891880 -0.105219
v -0.293002 -0.865541 0.248411
v -0.283310 -0.826067 -0.086540
v -0.255807 -1.452994 -0.090278
v -0.295901 -1.415510 0.245389
v -0.518221 -1.358167 0.164607
v 0.343567 1.881045 -0.091569
v 0.308817 1.466648 -0.093582
v 0.371656 1.852994 0.201030
v 0.341422 1.490847 0.199271
v 0.784830 1.828059 0.196831
v 0.755941 1.465911 0.195073
v 0.822529 1.852509 -0.096374
v 0.789081 1.438112 -0.098386
v 0.650660 1.884284 0.251431
v 0.523023 1.434443 0.249233
v 0.520285 1.402105 -0.095984
v 0.655143 1.917249 -0.093469
v -0.173858 1.455352 -0.099567
v -0.270916 1.833808 -0.099567
v -0.264998 1.521236 0.202640
v -0.305691 1.766905 0.202640
v -0.787755 1.476230 0.202640
v -0.787755 1.840080 0.202640
v -0.822529 1.449983 -0.099567
v -0.822529 1.866327 -0.099567
v -0.521533 1.430781 0.202640
v -0.628237 1.895324 0.202640
v -0.624602 1.978943 -0.099567
v -0.517896 1.397977 -0.099567
v -0.398936 0.856990 -0.090244
v -0.004719 0.826067 -0.090244
v -0.371792 0.888070 0.193318
v -0.027279 0.861042 0.193318
v -0.438580 1.418514 0.193318
v -0.022617 1.391488 0.193318
v -0.465820 1.453490 -0.090244
v 0.010157 1.422567 -0.090244
v -0.524092 1.109522 0.193318
v 0.018447 1.075744 0.193318
v 0.057283 1.069855 -0.090244
v -0.563531 1.108507 -0.090244
v -0.093561 1.463253 -0.114293
v 0.260420 1.478096 -0.111166
v -0.067711 1.490483 0.161454
v 0.199850 1.503639 0.164187
v -0.172828 1.868446 0.212178
v 0.206185 1.880128 0.214910
v -0.201206 1.924761 -0.078636
v 0.232134 1.938129 -0.075509
v -0.257444 1.720069 0.194628
v 0.266353 1.640226 0.198043
v 0.338554 1.643126 -0.094810
v -0.358792 1.720858 -0.098719
v 0.585904 1.936018 -0.099567
v 0.601971 2.375019 -0.099567
v 0.551366 1.965025 0.202640
v 0.565409 2.348680 0.202640
v 0.058573 2.043818 0.202640
v 0.072615 2.367161 0.202640
v 0.022011 1.983259 -0.099567
v 0.038078 2.396172 -0.099567
v 0.328967 1.910177 0.202640
v 0.304978 2.427750 0.202640
v 0.309960 2.462201 -0.099567
v 0.331415 1.830342 -0.099567
v 0.004371 1.946605 -0.075062
v -0.001823 2.415303 -0.072071
v -0.035464 1.975752 0.206380
v -0.040875 2.383003 0.208993
v -0.493867 2.375193 0.180025
v -0.542840 1.901192 -0.108210
v -0.520171 2.406366 -0.105219
v -0.293002 2.432705 0.248411
v -0.283310 2.472179 -0.086539
v -0.255807 1.845251 -0.090278
v -0.295901 1.882736 0.245389
v -0.518221 1.940078 0.164607
v 1.981498 -1.417201 -0.091570
v 1.946748 -1.831598 -0.093582
v 2.009587 -1.445252 0.201030
v 1.979353 -1.807399 0.199271
v 2.422761 -1.470187 0.196831
v 2.393872 -1.832334 0.195073
v 2.460459 -1.445737 -0.096374
v 2.427012 -1.860133 -0.098386
v 2.288591 -1.413962 0.251431
v 2.160954 -1.863803 0.249233
v 2.158216 -1.896141 -0.095984
v 2.293074 -1.380996 -0.093469
v 1.464073 -1.842893 -0.099567
v 1.367015 -1.464438 -0.099567
v 1.372933 -1.777010 0.202640
v 1.332240 -1.531341 0.202640
v 0.850175 -1.822016 0.202640
v 0.850175 -1.458165 0.202640
v 0.815402 -1.848262 -0.099567
v 0.815402 -1.431919 -0.099567
v 1.116398 -1.867465 0.202640
v 1.009694 -1.402922 0.202640
v 1.013329 -1.319303 -0.099567
v 1.120035 -1.900269 -0.099567
v 1.238995 -2.441255 -0.090244
v 1.633212 -2.472179 -0.090244
v 1.266138 -2.410176 0.193318
v 1.630121 -2.429506 0.193805
v 1.199351 -1.879732 0.193318
v 1.615314 -1.906758 0.193318
v 1.172111 -1.844756 -0.090245
v 1.648088 -1.875679 -0.090245
v 1.113839 -2.188724 0.193318
v 1.695214 -2.228390 -0.090245
v 1.074400 -2.189739 -0.090245
v 1.544370 -1.834993 -0.114293
v 1.898351 -1.820150 -0.111166
v 1.570220 -1.807763 0.161454
v 1.837781 -1.794607 0.164187
v 1.465103 -1.429800 0.212177
v 1.844116 -1.418118 0.214910
v 1.436725 -1.373485 -0.078637
v 1.870064 -1.360117 -0.075509
v 1.380487 -1.578176 0.194627
v 1.904284 -1.658020 0.198043
v 1.976485 -1.655119 -0.094810
v 1.279139 -1.577387 -0.098719
v 2.223835 -1.362228 -0.099567
v 2.239902 -0.923226 -0.099567
v 2.189297 -1.333221 0.202640
v 2.203340 -0.949566 0.202640
v 1.696504 -1.254428 0.202640
v 1.710546 -0.931085 0.202640
v 1.659942 -1.314986 -0.099567
v 1.676008 -0.902074 -0.099567
v 1.966898 -1.388069 0.202640
v 1.942909 -0.870496 0.202640
v 1.947891 -0.836045 -0.099567
v 1.969346 -1.467904 -0.099567
v 1.642302 -1.351641 -0.075062
v 1.636108 -0.882943 -0.072071
v 1.602467 -1.322494 0.206379
v 1.597056 -0.915243 0.208993
v 1.144064 -0.923053 0.180025
v 1.095091 -1.397054 -0.108210
v 1.117760 -0.891880 -0.105219
v 1.344929 -0.865541 0.248411
v 1.354621 -0.826067 -0.086540
v 1.382124 -1.452994 -0.090278
v 1.342030 -1.415510 0.245389
v 1.119709 -1.358167 0.164607
v 1.981498 0.231922 -0.091570
v 1.946748 -0.182475 -0.093582
v 2.009587 0.203871 0.201030
v 1.979353 -0.158276 0.199271
v 2.422761 0.178936 0.196831
v 2.393872 -0.183211 0.195073
v 2.460459 0.203386 -0.096374
v 2.427012 -0.211010 -0.098386
v 2.288591 0.235161 0.251431
v 2.160954 -0.214680 0.249233
v 2.158216 -0.247018 -0.095984
v 2.293074 0.268126 -0.093469
v 1.464073 -0.193771 -0.099567
v 1.367015 0.184685 -0.099567
v 1.372933 -0.127887 0.202640
v 1.332240 0.117782 0.202640
v 0.850175 -0.172893 0.202640
v 0.850175 0.190958 0.202640
v 0.815402 -0.199140 -0.099567
v 0.815402 0.217204 -0.099567
v 1.116398 -0.218342 0.202640
v 1.009694 0.246201 0.202640
v 1.013329 0.329820 -0.099567
v 1.120035 -0.251146 -0.099567
v 1.238995 -0.792132 -0.090244
v 1.633212 -0.823056 -0.090244
v 1.266138 -0.761053 0.193318
v 1.630121 -0.780383 0.193805
v 1.199351 -0.230609 0.193318
v 1.615314 -0.257635 0.193318
v 1.172111 -0.195633 -0.090244
v 1.648088 -0.226556 -0.090244
v 1.113839 -0.539601 0.193318
v 1.695214 -0.579268 -0.090244
v 1.074400 -0.540616 -0.090244
v 1.544370 -0.185870 -0.114293
v 1.898351 -0.171027 -0.111166
v 1.570220 -0.158640 0.161454
v 1.837781 -0.145484 0.164187
v 1.465103 0.219323 0.212178
v 1.844116 0.231005 0.214910
v 1.436725 0.275638 -0.078637
v 1.870064 0.289006 -0.075509
v 1.380487 0.070946 0.194628
v 1.904284 -0.008897 0.198043
v 1.976485 -0.005996 -0.094810
v 1.279139 0.071736 -0.098719
v 2.223835 0.286895 -0.099567
v 2.239902 0.725897 -0.099567
v 2.189297 0.315902 0.202640
v 2.203340 0.699557 0.202640
v 1.696504 0.394695 0.202640
v 1.710546 0.718038 0.202640
v 1.659942 0.334136 -0.099567
v 1.676008 0.747049 -0.099567
v 1.966898 0.261054 0.202640
v 1.942909 0.778627 0.202640
v 1.947891 0.813078 -0.099567
v 1.969346 0.181219 -0.099567
v 1.642302 0.297482 -0.075062
v 1.636108 0.766180 -0.072071
v 1.602467 0.326629 0.206379
v 1.597056 0.733880 0.208993
v 1.144064 0.726070 0.180025
v 1.095091 0.252069 -0.108210
v 1.117760 0.757243 -0.105219
v 1.344929 0.783582 0.248411
v 1.354621 0.823056 -0.086539
v 1.382124 0.196128 -0.090278
v 1.342030 0.233613 0.245389
v 1.119709 0.290956 0.164607
v 1.981498 1.881045 -0.091569
v 1.946748 1.466648 -0.093582
v 2.009587 1.852994 0.201030
v 1.979353 1.490847 0.199271
v 2.422761 1.828059 0.196831
v 2.393872 1.465911 0.195073
v 2.460459 1.852509 -0.096374
v 2.427012 1.438112 -0.098386
v 2.288591 1.884284 0.251431
v 2.160954 1.434443 0.249233
v 2.158216 1.402105 -0.095984
v 2.293074 1.917249 -0.093469
v 1.464073 1.455352 -0.099567
v 1.367015 1.833808 -0.099567
v 1.372933 1.521236 0.202640
v 1.332240 1.766905 0.202640
v 0.850175 1.476230 0.202640
v 0.850175 1.840080 0.202640
v 0.815402 1.449983 -0.099567
v 0.815402 1.866327 -0.099567
v 1.116398 1.430781 0.202640
v 1.009694 1.895324 0.202640
v 1.013329 1.978943 -0.099567
v 1.120035 1.397977 -0.099567
v 1.238995 0.856990 -0.090244
v 1.633212 0.826067 -0.090244
v 1.266138 0.888070 0.193318
v 1.610653 0.861042 0.193318
v 1.199351 1.418514 0.193318
v 1.615314 1.391488 0.193318
v 1.172111 1.453490 -0.090244
v 1.648088 1.422567 -0.090244
v 1.113839 1.109522 0.193318
v 1.656378 1.075744 0.193318
v 1.695214 1.069855 -0.090244
v 1.074400 1.108507 -0.090244
v 1.544370 1.463253 -0.114293
v 1.898351 1.478096 -0.111166
v 1.570220 1.490483 0.161454
v 1.837781 1.503639 0.164187
v 1.465103 1.868446 0.212178
v 1.844116 1.880128 0.214910
v 1.436725 1.924761 -0.078636
v 1.870064 1.938129 -0.075509
v 1.380487 1.720069 0.194628
v 1.904284 1.640226 0.198043
v 1.976485 1.643126 -0.094810
v 1.279139 1.720858 -0.098719
v 2.223835 1.936018 -0.099567
v 2.239902 2.375019 -0.099567
v 2.189297 1.965025 0.202640
v 2.203340 2.348680 0.202640
v 1.696504 2.043818 0.202640
v 1.710546 2.367161 0.202640
v 1.659942 1.983259 -0.099567
v 1.676008 2.396172 -0.099567
v 1.966898 1.910177 0.202640
v 1.942909 2.427750 0.202640
v 1.947891 2.462201 -0.099567
v 1.969346 1.830342 -0.099567
v 1.642302 1.946605 -0.075062
v 1.636108 2.415303 -0.072071
v 1.602467 1.975752 0.206380
v 1.597056 2.383003 0.208993
v 1.144064 2.375193 0.180025
v 1.095091 1.901192 -0.108210
v 1.117760 2.406366 -0.105219
v 1.344929 2.432705 0.248411
v 1.354621 2.472179 -0.086539
v 1.382124 1.845251 -0.090278
v 1.342030 1.882736 0.245389
v 1.119709 1.940078 0.164607
v -2.500000 -2.500000 -0.051431
v -2.500000 2.500000 -0.051431
v -2.500000 -2.500000 -0.251431
v -2.500000 2.500000 -0.251431
v 2.500000 -2.500000 -0.051431
v 2.500000 2.500000 -0.051431
v 2.500000 -2.500000 -0.251431
v 2.500000 2.500000 -0.251431
vn -0.9913 0.0823 0.1030
vn 0.3646 -0.0336 0.9306
vn 0.9895 -0.0795 0.1206
vn 0.1541 -0.9839 0.0909
vn 0.3598 0.9248 0.1234
vn -0.1827 0.0470 0.9820
vn -0.2890 -0.9509 0.1107
vn -0.1275 0.9875 0.0927
vn 0.9423 0.2417 0.2315
vn -0.0008 0.0002 1.0000
vn -0.9934 -0.0000 0.1143
vn -0.3249 0.9382 0.1189
vn -0.1674 -0.9804 0.1044
vn 0.3590 0.9017 0.2409
vn 0.3307 -0.9378 0.1058
vn -0.0777 -0.9902 0.1160
vn -0.0000 -0.0000 1.0000
vn 0.0644 0.9912 0.1161
vn 0.9830 0.1278 0.1320
vn -0.9546 0.2704 0.1251
vn 0.9636 -0.2451 0.1069
vn -0.8159 -0.5611 0.1396
vn 0.0479 -0.9944 0.0937
vn -0.0225 -0.1048 0.9942
vn -0.0316 0.9807 0.1930
vn 0.9636 0.2323 0.1325
vn -0.8640 0.4719 0.1757
vn -0.0322 -0.1689 0.9851
vn 0.8701 -0.4349 0.2318
vn -0.7543 -0.6427 0.1342
vn 0.9925 -0.0363 0.1169
vn -0.9929 0.0386 0.1124
vn -0.2509 0.9622 0.1056
vn -0.4315 -0.8730 0.2272
vn 0.2841 0.9516 0.1173
vn 0.2318 -0.9400 0.2502
vn 0.9902 0.0122 0.1389
vn -0.3182 -0.0158 0.9479
vn -0.9955 0.0442 0.0835
vn -0.3060 0.9465 0.1027
vn -0.2743 -0.9588 0.0743
vn 0.1503 -0.0062 0.9886
vn 0.1893 0.9722 0.1380
vn 0.3520 -0.9247 0.1453
vn -0.0528 -0.9921 0.1138
vn 0.9699 0.0277 0.2419
vn 0.9681 -0.2462 0.0475
vn -1.0000 -0.0000 -0.0000
vn -0.0000 -0.0000 -1.0000
vn 1.0000 -0.0000 -0.0000
vn -0.0000 -1.0000 -0.0000
vn -0.0000 1.0000 -0.0000
vn -0.9912 0.0826 0.1035
vn 0.2351 -0.0714 0.9694
vn 0.9896 -0.0805 0.1194
vn 0.1329 -0.9852 0.1083
vn 0.4164 0.9045 0.0919
vn -0.2603 0.0170 0.9654
vn -0.3181 -0.9437 0.0909
vn -0.1141 0.9878 0.1057
vn 0.9757 0.1616 0.1481
vn -0.0014 -0.0010 1.0000
vn 0.0001 0.0009 1.0000
vn -0.4815 0.8462 0.2283
vn 0.3674 0.8953 0.2521
vn 0.1590 -0.9535 0.2558
vn 0.9830 0.1313 0.1280
vn -0.9553 0.2644 0.1319
vn 0.9688 -0.2063 0.1370
vn -0.8310 -0.5438 0.1175
vn 0.0408 -0.9940 0.1012
vn -0.0050 -0.0714 0.9974
vn 0.9202 0.3169 0.2300
vn -0.7747 0.5722 0.2692
vn 0.0020 -0.2415 0.9704
vn 0.8584 -0.4693 0.2070
vn -0.6711 -0.7048 0.2300
vn -0.9921 0.0431 0.1175
vn -0.2343 0.9648 0.1194
vn -0.4315 -0.8731 0.2271
vn 0.2887 0.9507 0.1131
vn 0.3802 -0.9155 0.1313
vn 0.9902 0.0123 0.1390
vn -0.3423 -0.0034 0.9396
vn -0.9939 0.0522 0.0974
vn -0.2749 0.9527 0.1295
vn -0.1983 -0.9677 0.1558
vn 0.1536 -0.0043 0.9881
vn 0.2101 0.9702 0.1204
vn 0.3517 -0.9247 0.1455
vn 0.2886 0.9507 0.1131
vn 0.3674 0.8952 0.2521
vn -0.0773 -0.9861 0.1473
vn -0.6711 -0.7048 0.2299
vt 0.125000 0.625000
vt 0.875000 0.625000
vt 0.375000 0.875000
s 0
usemtl ruins_ch_floor_a
f 1/1/1 4/1/1 3/1/1
f 9/2/2 6/2/2 5/2/2
f 6/1/3 7/1/3 5/1/3
f 11/1/4 6/1/4 10/1/4
f 12/1/5 5/1/5 7/1/5
f 3/2/6 10/2/6 9/2/6
f 11/1/7 4/1/7 2/1/7
f 12/1/8 3/1/8 9/1/8
f 14/3/9 15/3/9 13/3/9
f 536/2/10 531/2/10 532/2/10
f 17/3/11 20/3/11 19/3/11
f 22/3/12 20/3/12 18/3/12
f 24/3/13 17/3/13 19/3/13
f 14/3/14 22/3/14 16/3/14
f 24/3/15 15/3/15 21/3/15
f 25/1/16 28/1/16 27/1/16
f 321/2/17 322/2/17 317/2/17
f 30/1/18 31/1/18 29/1/18
f 35/1/19 30/1/19 34/1/19
f 36/1/20 29/1/20 31/1/20
f 35/1/21 28/1/21 26/1/21
f 33/1/22 25/1/22 27/1/22
f 37/1/23 40/1/23 39/1/23
f 46/2/24 41/2/24 45/2/24
f 41/1/25 44/1/25 43/1/25
f 46/1/26 44/1/26 42/1/26
f 43/1/27 45/1/27 41/1/27
f 39/2/28 46/2/28 45/2/28
f 47/1/29 40/1/29 38/1/29
f 45/1/30 37/1/30 39/1/30
f 50/3/31 51/3/31 49/3/31
f 177/2/17 178/2/17 173/2/17
f 53/3/32 56/3/32 55/3/32
f 59/3/33 54/3/33 58/3/33
f 55/3/34 57/3/34 53/3/34
f 59/3/35 52/3/35 50/3/35
f 60/3/36 51/3/36 57/3/36
f 62/1/37 63/1/37 61/1/37
f 68/2/38 65/2/38 72/2/38
f 72/1/39 67/1/39 66/1/39
f 69/1/40 65/1/40 68/1/40
f 70/1/41 71/1/41 72/1/41
f 63/2/42 68/2/42 71/2/42
f 69/1/43 64/1/43 62/1/43
f 70/1/44 63/1/44 71/1/44
f 73/1/1 76/1/1 75/1/1
f 81/2/2 78/2/2 77/2/2
f 78/1/3 79/1/3 77/1/3
f 83/1/4 78/1/4 82/1/4
f 84/1/5 77/1/5 79/1/5
f 75/2/6 82/2/6 81/2/6
f 83/1/7 76/1/7 74/1/7
f 84/1/8 75/1/8 81/1/8
f 86/3/9 87/3/9 85/3/9
f 345/1/17 346/1/17 341/1/17
f 90/3/11 91/3/11 89/3/11
f 94/3/12 92/3/12 90/3/12
f 96/3/13 89/3/13 91/3/13
f 86/3/14 94/3/14 88/3/14
f 96/3/15 87/3/15 93/3/15
f 97/1/16 100/1/16 99/1/16
f 488/1/17 489/1/17 484/1/17
f 102/1/18 103/1/18 101/1/18
f 107/1/19 102/1/19 106/1/19
f 108/1/20 101/1/20 103/1/20
f 107/1/21 100/1/21 98/1/21
f 105/1/22 97/1/22 99/1/22
f 109/1/23 112/1/23 111/1/23
f 118/2/24 113/2/24 117/2/24
f 113/1/25 116/1/25 115/1/25
f 118/1/26 116/1/26 114/1/26
f 115/1/27 117/1/27 113/1/27
f 111/2/28 118/2/28 117/2/28
f 119/1/29 112/1/29 110/1/29
f 117/1/30 109/1/30 111/1/30
f 122/3/31 123/3/31 121/3/31
f 524/1/17 525/1/17 520/1/17
f 125/3/32 128/3/32 127/3/32
f 131/3/33 126/3/33 130/3/33
f 127/3/34 129/3/34 125/3/34
f 131/3/35 124/3/35 122/3/35
f 132/3/36 123/3/36 129/3/36
f 134/1/37 135/1/37 133/1/37
f 140/2/38 137/2/38 144/2/38
f 144/1/39 139/1/39 138/1/39
f 141/1/40 137/1/40 140/1/40
f 142/1/41 143/1/41 144/1/41
f 135/2/42 140/2/42 143/2/42
f 141/1/43 136/1/43 134/1/43
f 142/1/44 135/1/44 143/1/44
f 145/1/1 148/1/1 147/1/1
f 153/2/2 150/2/2 149/2/2
f 150/1/3 151/1/3 149/1/3
f 155/1/4 150/1/4 154/1/4
f 156/1/5 149/1/5 151/1/5
f 147/2/6 154/2/6 153/2/6
f 155/1/7 148/1/7 146/1/7
f 156/1/8 147/1/8 153/1/8
f 158/3/9 159/3/9 157/3/9
f 393/2/17 394/2/17 389/2/17
f 161/3/11 164/3/11 163/3/11
f 166/3/12 164/3/12 162/3/12
f 168/3/13 161/3/13 163/3/13
f 158/3/14 166/3/14 160/3/14
f 168/3/15 159/3/15 165/3/15
f 169/1/16 172/1/16 171/1/16
f 381/1/17 382/1/17 377/1/17
f 174/1/18 175/1/18 173/1/18
f 179/1/19 174/1/19 178/1/19
f 180/1/20 173/1/20 175/1/20
f 179/1/21 172/1/21 170/1/21
f 177/1/22 169/1/22 171/1/22
f 181/1/23 184/1/23 183/1/23
f 190/2/24 185/2/24 189/2/24
f 185/1/25 188/1/25 187/1/25
f 190/1/26 188/1/26 186/1/26
f 187/1/27 189/1/27 185/1/27
f 183/2/28 190/2/28 189/2/28
f 191/1/29 184/1/29 182/1/29
f 189/1/30 181/1/30 183/1/30
f 194/3/31 195/3/31 193/3/31
f 237/1/17 238/1/17 233/1/17
f 197/3/32 200/3/32 199/3/32
f 203/3/33 198/3/33 202/3/33
f 199/3/34 201/3/34 197/3/34
f 203/3/35 196/3/35 194/3/35
f 204/3/36 195/3/36 201/3/36
f 206/1/37 207/1/37 205/1/37
f 212/2/38 209/2/38 216/2/38
f 216/1/39 211/1/39 210/1/39
f 213/1/40 209/1/40 212/1/40
f 214/1/41 215/1/41 216/1/41
f 207/2/42 212/2/42 215/2/42
f 213/1/43 208/1/43 206/1/43
f 214/1/44 207/1/44 215/1/44
f 217/1/1 220/1/1 219/1/1
f 225/2/2 222/2/2 221/2/2
f 222/1/3 223/1/3 221/1/3
f 227/1/4 222/1/4 226/1/4
f 228/1/5 221/1/5 223/1/5
f 219/2/6 226/2/6 225/2/6
f 227/1/7 220/1/7 218/1/7
f 228/1/8 219/1/8 225/1/8
f 230/3/9 231/3/9 229/3/9
f 105/2/17 106/2/17 101/2/17
f 234/3/11 235/3/11 233/3/11
f 238/3/12 236/3/12 234/3/12
f 240/3/13 233/3/13 235/3/13
f 230/3/14 238/3/14 232/3/14
f 240/3/15 231/3/15 237/3/15
f 241/1/16 244/1/16 243/1/16
f 21/1/17 22/1/17 17/1/17
f 246/1/18 247/1/18 245/1/18
f 251/1/19 246/1/19 250/1/19
f 252/1/20 245/1/20 247/1/20
f 251/1/21 244/1/21 242/1/21
f 249/1/22 241/1/22 243/1/22
f 253/1/23 256/1/23 255/1/23
f 262/2/24 257/2/24 261/2/24
f 257/1/25 260/1/25 259/1/25
f 262/1/26 260/1/26 258/1/26
f 259/1/27 261/1/27 257/1/27
f 255/2/28 262/2/28 261/2/28
f 263/1/29 256/1/29 254/1/29
f 261/1/30 253/1/30 255/1/30
f 266/3/31 267/3/31 265/3/31
f 57/1/17 58/1/17 53/1/17
f 269/3/32 272/3/32 271/3/32
f 275/3/33 270/3/33 274/3/33
f 271/3/34 273/3/34 269/3/34
f 275/3/35 268/3/35 266/3/35
f 276/3/36 267/3/36 273/3/36
f 278/1/37 279/1/37 277/1/37
f 284/2/38 281/2/38 288/2/38
f 288/1/39 283/1/39 282/1/39
f 285/1/40 281/1/40 284/1/40
f 286/1/41 287/1/41 288/1/41
f 279/2/42 284/2/42 287/2/42
f 285/1/43 280/1/43 278/1/43
f 286/1/44 279/1/44 287/1/44
f 289/1/1 292/1/1 291/1/1
f 297/2/2 294/2/2 293/2/2
f 294/1/3 295/1/3 293/1/3
f 299/1/4 294/1/4 298/1/4
f 300/1/5 293/1/5 295/1/5
f 291/2/6 298/2/6 297/2/6
f 299/1/7 292/1/7 290/1/7
f 300/1/8 291/1/8 297/1/8
f 302/3/9 303/3/9 301/3/9
f 595/1/17 596/1/17 591/1/17
f 306/3/11 307/3/11 305/3/11
f 310/3/12 308/3/12 306/3/12
f 312/3/13 305/3/13 307/3/13
f 302/3/14 310/3/14 304/3/14
f 312/3/15 303/3/15 309/3/15
f 313/1/16 316/1/16 315/1/16
f 129/1/17 130/1/17 125/1/17
f 318/1/18 319/1/18 317/1/18
f 323/1/19 318/1/19 322/1/19
f 324/1/20 317/1/20 319/1/20
f 323/1/21 316/1/21 314/1/21
f 321/1/22 313/1/22 315/1/22
f 325/1/23 328/1/23 327/1/23
f 334/2/24 329/2/24 333/2/24
f 329/1/25 332/1/25 331/1/25
f 334/1/26 332/1/26 330/1/26
f 331/1/27 333/1/27 329/1/27
f 327/2/28 334/2/28 333/2/28
f 335/1/29 328/1/29 326/1/29
f 333/1/30 325/1/30 327/1/30
f 338/3/31 339/3/31 337/3/31
f 165/1/17 166/1/17 161/1/17
f 341/3/32 344/3/32 343/3/32
f 347/3/33 342/3/33 346/3/33
f 343/3/34 345/3/34 341/3/34
f 347/3/35 340/3/35 338/3/35
f 348/3/36 339/3/36 345/3/36
f 350/1/37 351/1/37 349/1/37
f 356/2/38 353/2/38 360/2/38
f 360/1/39 355/1/39 354/1/39
f 357/1/40 353/1/40 356/1/40
f 358/1/41 359/1/41 360/1/41
f 351/2/42 356/2/42 359/2/42
f 357/1/43 352/1/43 350/1/43
f 358/1/44 351/1/44 359/1/44
f 361/1/1 364/1/1 363/1/1
f 369/2/2 366/2/2 365/2/2
f 366/1/3 367/1/3 365/1/3
f 371/1/4 366/1/4 370/1/4
f 372/1/5 365/1/5 367/1/5
f 363/2/6 370/2/6 369/2/6
f 371/1/7 364/1/7 362/1/7
f 372/1/8 363/1/8 369/1/8
f 374/3/9 375/3/9 373/3/9
f 33/2/17 34/2/17 29/2/17
f 378/3/11 379/3/11 377/3/11
f 382/3/12 380/3/12 378/3/12
f 384/3/13 377/3/13 379/3/13
f 374/3/14 382/3/14 376/3/14
f 384/3/15 375/3/15 381/3/15
f 385/1/16 388/1/16 387/1/16
f 417/1/17 418/1/17 413/1/17
f 390/1/18 391/1/18 389/1/18
f 395/1/19 390/1/19 394/1/19
f 396/1/20 389/1/20 391/1/20
f 395/1/21 388/1/21 386/1/21
f 393/1/22 385/1/22 387/1/22
f 397/1/23 400/1/23 399/1/23
f 406/2/24 401/2/24 405/2/24
f 401/1/25 404/1/25 403/1/25
f 406/1/26 404/1/26 402/1/26
f 403/1/27 405/1/27 401/1/27
f 399/2/28 406/2/28 405/2/28
f 407/1/29 400/1/29 398/1/29
f 405/1/30 397/1/30 399/1/30
f 410/3/31 411/3/31 409/3/31
f 249/2/17 250/2/17 245/2/17
f 413/3/32 416/3/32 415/3/32
f 419/3/33 414/3/33 418/3/33
f 415/3/34 417/3/34 413/3/34
f 419/3/35 412/3/35 410/3/35
f 420/3/36 411/3/36 417/3/36
f 422/1/37 423/1/37 421/1/37
f 428/2/38 425/2/38 432/2/38
f 432/1/39 427/1/39 426/1/39
f 429/1/40 425/1/40 428/1/40
f 430/1/41 431/1/41 432/1/41
f 423/2/42 428/2/42 431/2/42
f 429/1/43 424/1/43 422/1/43
f 430/1/44 423/1/44 431/1/44
f 433/1/1 436/1/1 435/1/1
f 441/2/2 438/2/2 437/2/2
f 438/1/3 439/1/3 437/1/3
f 443/1/4 438/1/4 442/1/4
f 444/1/5 437/1/5 439/1/5
f 435/2/6 442/2/6 441/2/6
f 443/1/7 436/1/7 434/1/7
f 444/1/8 435/1/8 441/1/8
f 446/3/9 447/3/9 445/3/9
f 273/1/17 274/1/17 269/1/17
f 450/3/11 451/3/11 449/3/11
f 454/3/12 452/3/12 450/3/12
f 456/3/13 449/3/13 451/3/13
f 446/3/14 454/3/14 448/3/14
f 456/3/15 447/3/15 453/3/15
f 457/1/45 460/1/45 459/1/45
f 201/1/17 202/1/17 197/1/17
f 462/1/18 463/1/18 461/1/18
f 466/1/46 462/1/46 460/1/46
f 467/1/20 461/1/20 463/1/20
f 466/1/47 460/1/47 458/1/47
f 465/1/22 457/1/22 459/1/22
f 468/1/23 471/1/23 470/1/23
f 477/2/24 472/2/24 476/2/24
f 472/1/25 475/1/25 474/1/25
f 477/1/26 475/1/26 473/1/26
f 474/1/27 476/1/27 472/1/27
f 470/2/28 477/2/28 476/2/28
f 478/1/29 471/1/29 469/1/29
f 476/1/30 468/1/30 470/1/30
f 481/3/31 482/3/31 480/3/31
f 631/1/17 632/1/17 627/1/17
f 484/3/32 487/3/32 486/3/32
f 490/3/33 485/3/33 489/3/33
f 486/3/34 488/3/34 484/3/34
f 490/3/35 483/3/35 481/3/35
f 491/3/36 482/3/36 488/3/36
f 493/1/37 494/1/37 492/1/37
f 499/2/38 496/2/38 503/2/38
f 503/1/39 498/1/39 497/1/39
f 500/1/40 496/1/40 499/1/40
f 501/1/41 502/1/41 503/1/41
f 494/2/42 499/2/42 502/2/42
f 500/1/43 495/1/43 493/1/43
f 501/1/44 494/1/44 502/1/44
f 504/1/1 507/1/1 506/1/1
f 512/2/2 509/2/2 508/2/2
f 509/1/3 510/1/3 508/1/3
f 514/1/4 509/1/4 513/1/4
f 515/1/5 508/1/5 510/1/5
f 506/2/6 513/2/6 512/2/6
f 514/1/7 507/1/7 505/1/7
f 515/1/8 506/1/8 512/1/8
f 517/3/9 518/3/9 516/3/9
f 465/2/10 460/2/10 461/2/10
f 520/3/11 523/3/11 522/3/11
f 525/3/12 523/3/12 521/3/12
f 527/3/13 520/3/13 522/3/13
f 517/3/14 525/3/14 519/3/14
f 527/3/15 518/3/15 524/3/15
f 528/1/45 531/1/45 530/1/45
f 309/1/17 310/1/17 305/1/17
f 533/1/18 534/1/18 532/1/18
f 537/1/46 533/1/46 531/1/46
f 538/1/20 532/1/20 534/1/20
f 537/1/47 531/1/47 529/1/47
f 536/1/22 528/1/22 530/1/22
f 539/1/23 542/1/23 541/1/23
f 548/2/24 543/2/24 547/2/24
f 543/1/25 546/1/25 545/1/25
f 548/1/26 546/1/26 544/1/26
f 545/1/27 547/1/27 543/1/27
f 541/2/28 548/2/28 547/2/28
f 549/1/29 542/1/29 540/1/29
f 547/1/30 539/1/30 541/1/30
f 552/3/31 553/3/31 551/3/31
f 555/3/32 558/3/32 557/3/32
f 561/3/33 556/3/33 560/3/33
f 557/3/34 559/3/34 555/3/34
f 561/3/35 554/3/35 552/3/35
f 562/3/36 553/3/36 559/3/36
f 564/1/37 565/1/37 563/1/37
f 570/2/38 567/2/38 574/2/38
f 574/1/39 569/1/39 568/1/39
f 571/1/40 567/1/40 570/1/40
f 572/1/41 573/1/41 574/1/41
f 565/2/42 570/2/42 573/2/42
f 571/1/43 566/1/43 564/1/43
f 572/1/44 565/1/44 573/1/44
f 575/1/1 578/1/1 577/1/1
f 583/2/2 580/2/2 579/2/2
f 580/1/3 581/1/3 579/1/3
f 585/1/4 580/1/4 584/1/4
f 586/1/5 579/1/5 581/1/5
f 577/2/6 584/2/6 583/2/6
f 585/1/7 578/1/7 576/1/7
f 586/1/8 577/1/8 583/1/8
f 588/3/9 589/3/9 587/3/9
f 559/1/17 560/1/17 555/1/17
f 592/3/11 593/3/11 591/3/11
f 596/3/12 594/3/12 592/3/12
f 598/3/13 591/3/13 593/3/13
f 588/3/14 596/3/14 590/3/14
f 598/3/15 589/3/15 595/3/15
f 599/1/16 602/1/16 601/1/16
f 453/1/17 454/1/17 449/1/17
f 604/1/18 605/1/18 603/1/18
f 609/1/19 604/1/19 608/1/19
f 610/1/20 603/1/20 605/1/20
f 609/1/21 602/1/21 600/1/21
f 607/1/22 599/1/22 601/1/22
f 611/1/23 614/1/23 613/1/23
f 620/2/24 615/2/24 619/2/24
f 615/1/25 618/1/25 617/1/25
f 620/1/26 618/1/26 616/1/26
f 617/1/27 619/1/27 615/1/27
f 613/2/28 620/2/28 619/2/28
f 621/1/29 614/1/29 612/1/29
f 619/1/30 611/1/30 613/1/30
f 624/3/31 625/3/31 623/3/31
f 93/1/17 94/1/17 89/1/17
f 627/3/32 630/3/32 629/3/32
f 633/3/33 628/3/33 632/3/33
f 629/3/34 631/3/34 627/3/34
f 633/3/35 626/3/35 624/3/35
f 634/3/36 625/3/36 631/3/36
f 636/1/37 637/1/37 635/1/37
f 642/2/38 639/2/38 646/2/38
f 646/1/39 641/1/39 640/1/39
f 643/1/40 639/1/40 642/1/40
f 644/1/41 645/1/41 646/1/41
f 637/2/42 642/2/42 645/2/42
f 643/1/43 638/1/43 636/1/43
f 644/1/44 637/1/44 645/1/44
f 648/3/48 649/3/48 647/3/48
f 650/3/49 653/3/49 649/3/49
f 654/3/50 651/3/50 653/3/50
f 652/3/17 647/3/17 651/3/17
f 653/3/51 647/3/51 649/3/51
f 650/3/52 652/3/52 654/3/52
f 607/2/17 608/2/17 603/2/17
f 1/1/53 2/1/53 4/1/53
f 9/2/54 10/2/54 6/2/54
f 6/1/55 8/1/55 7/1/55
f 11/1/56 8/1/56 6/1/56
f 12/1/57 9/1/57 5/1/57
f 3/2/58 4/2/58 10/2/58
f 11/1/59 10/1/59 4/1/59
f 12/1/60 1/1/60 3/1/60
f 14/3/61 16/3/61 15/3/61
f 536/2/62 530/2/62 531/2/62
f 531/2/63 533/2/63 532/2/63
f 17/3/11 18/3/11 20/3/11
f 22/3/64 23/3/64 20/3/64
f 24/3/13 21/3/13 17/3/13
f 14/3/65 23/3/65 22/3/65
f 24/3/66 13/3/66 15/3/66
f 25/1/16 26/1/16 28/1/16
f 321/2/17 315/2/17 322/2/17
f 315/2/17 316/2/17 322/2/17
f 322/2/17 318/2/17 317/2/17
f 30/1/18 32/1/18 31/1/18
f 35/1/67 32/1/67 30/1/67
f 36/1/68 33/1/68 29/1/68
f 35/1/69 34/1/69 28/1/69
f 33/1/70 36/1/70 25/1/70
f 37/1/71 38/1/71 40/1/71
f 46/2/72 42/2/72 41/2/72
f 41/1/25 42/1/25 44/1/25
f 46/1/73 47/1/73 44/1/73
f 43/1/74 48/1/74 45/1/74
f 39/2/75 40/2/75 46/2/75
f 47/1/76 46/1/76 40/1/76
f 45/1/77 48/1/77 37/1/77
f 50/3/31 52/3/31 51/3/31
f 177/2/17 171/2/17 178/2/17
f 171/2/17 172/2/17 178/2/17
f 178/2/17 174/2/17 173/2/17
f 53/3/78 54/3/78 56/3/78
f 59/3/79 56/3/79 54/3/79
f 55/3/80 60/3/80 57/3/80
f 59/3/81 58/3/81 52/3/81
f 60/3/82 49/3/82 51/3/82
f 62/1/83 64/1/83 63/1/83
f 71/2/84 68/2/84 72/2/84
f 72/1/85 65/1/85 67/1/85
f 69/1/86 67/1/86 65/1/86
f 72/1/87 66/1/87 70/1/87
f 63/2/88 64/2/88 68/2/88
f 69/1/89 68/1/89 64/1/89
f 70/1/90 61/1/90 63/1/90
f 73/1/53 74/1/53 76/1/53
f 81/2/54 82/2/54 78/2/54
f 78/1/55 80/1/55 79/1/55
f 83/1/56 80/1/56 78/1/56
f 84/1/57 81/1/57 77/1/57
f 75/2/58 76/2/58 82/2/58
f 83/1/59 82/1/59 76/1/59
f 84/1/60 73/1/60 75/1/60
f 86/3/61 88/3/61 87/3/61
f 345/1/17 339/1/17 340/1/17
f 340/1/17 346/1/17 345/1/17
f 346/1/17 342/1/17 341/1/17
f 90/3/11 92/3/11 91/3/11
f 94/3/64 95/3/64 92/3/64
f 96/3/13 93/3/13 89/3/13
f 86/3/65 95/3/65 94/3/65
f 96/3/66 85/3/66 87/3/66
f 97/1/16 98/1/16 100/1/16
f 488/1/17 482/1/17 483/1/17
f 483/1/17 489/1/17 488/1/17
f 489/1/17 485/1/17 484/1/17
f 102/1/18 104/1/18 103/1/18
f 107/1/67 104/1/67 102/1/67
f 108/1/68 105/1/68 101/1/68
f 107/1/69 106/1/69 100/1/69
f 105/1/70 108/1/70 97/1/70
f 109/1/71 110/1/71 112/1/71
f 118/2/72 114/2/72 113/2/72
f 113/1/25 114/1/25 116/1/25
f 118/1/73 119/1/73 116/1/73
f 115/1/74 120/1/74 117/1/74
f 111/2/75 112/2/75 118/2/75
f 119/1/76 118/1/76 112/1/76
f 117/1/77 120/1/77 109/1/77
f 122/3/31 124/3/31 123/3/31
f 524/1/17 518/1/17 519/1/17
f 519/1/17 525/1/17 524/1/17
f 525/1/17 521/1/17 520/1/17
f 125/3/78 126/3/78 128/3/78
f 131/3/79 128/3/79 126/3/79
f 127/3/80 132/3/80 129/3/80
f 131/3/91 130/3/91 124/3/91
f 132/3/82 121/3/82 123/3/82
f 134/1/83 136/1/83 135/1/83
f 143/2/84 140/2/84 144/2/84
f 144/1/85 137/1/85 139/1/85
f 141/1/86 139/1/86 137/1/86
f 144/1/87 138/1/87 142/1/87
f 135/2/88 136/2/88 140/2/88
f 141/1/89 140/1/89 136/1/89
f 142/1/90 133/1/90 135/1/90
f 145/1/53 146/1/53 148/1/53
f 153/2/54 154/2/54 150/2/54
f 150/1/55 152/1/55 151/1/55
f 155/1/56 152/1/56 150/1/56
f 156/1/57 153/1/57 149/1/57
f 147/2/58 148/2/58 154/2/58
f 155/1/59 154/1/59 148/1/59
f 156/1/60 145/1/60 147/1/60
f 158/3/61 160/3/61 159/3/61
f 393/2/17 387/2/17 394/2/17
f 387/2/17 388/2/17 394/2/17
f 394/2/17 390/2/17 389/2/17
f 161/3/11 162/3/11 164/3/11
f 166/3/64 167/3/64 164/3/64
f 168/3/13 165/3/13 161/3/13
f 158/3/65 167/3/65 166/3/65
f 168/3/66 157/3/66 159/3/66
f 169/1/16 170/1/16 172/1/16
f 381/1/17 375/1/17 376/1/17
f 376/1/17 382/1/17 381/1/17
f 382/1/17 378/1/17 377/1/17
f 174/1/18 176/1/18 175/1/18
f 179/1/67 176/1/67 174/1/67
f 180/1/68 177/1/68 173/1/68
f 179/1/69 178/1/69 172/1/69
f 177/1/70 180/1/70 169/1/70
f 181/1/71 182/1/71 184/1/71
f 190/2/72 186/2/72 185/2/72
f 185/1/25 186/1/25 188/1/25
f 190/1/73 191/1/73 188/1/73
f 187/1/74 192/1/74 189/1/74
f 183/2/75 184/2/75 190/2/75
f 191/1/76 190/1/76 184/1/76
f 189/1/77 192/1/77 181/1/77
f 194/3/31 196/3/31 195/3/31
f 237/1/17 231/1/17 232/1/17
f 232/1/17 238/1/17 237/1/17
f 238/1/17 234/1/17 233/1/17
f 197/3/78 198/3/78 200/3/78
f 203/3/79 200/3/79 198/3/79
f 199/3/80 204/3/80 201/3/80
f 203/3/81 202/3/81 196/3/81
f 204/3/82 193/3/82 195/3/82
f 206/1/83 208/1/83 207/1/83
f 215/2/84 212/2/84 216/2/84
f 216/1/85 209/1/85 211/1/85
f 213/1/86 211/1/86 209/1/86
f 216/1/87 210/1/87 214/1/87
f 207/2/88 208/2/88 212/2/88
f 213/1/89 212/1/89 208/1/89
f 214/1/90 205/1/90 207/1/90
f 217/1/53 218/1/53 220/1/53
f 225/2/54 226/2/54 222/2/54
f 222/1/55 224/1/55 223/1/55
f 227/1/56 224/1/56 222/1/56
f 228/1/57 225/1/57 221/1/57
f 219/2/58 220/2/58 226/2/58
f 227/1/59 226/1/59 220/1/59
f 228/1/60 217/1/60 219/1/60
f 230/3/61 232/3/61 231/3/61
f 105/2/17 99/2/17 106/2/17
f 99/2/17 100/2/17 106/2/17
f 106/2/17 102/2/17 101/2/17
f 234/3/11 236/3/11 235/3/11
f 238/3/64 239/3/64 236/3/64
f 240/3/13 237/3/13 233/3/13
f 230/3/92 239/3/92 238/3/92
f 240/3/66 229/3/66 231/3/66
f 241/1/16 242/1/16 244/1/16
f 21/1/17 15/1/17 16/1/17
f 16/1/17 22/1/17 21/1/17
f 22/1/17 18/1/17 17/1/17
f 246/1/18 248/1/18 247/1/18
f 251/1/67 248/1/67 246/1/67
f 252/1/68 249/1/68 245/1/68
f 251/1/69 250/1/69 244/1/69
f 249/1/70 252/1/70 241/1/70
f 253/1/71 254/1/71 256/1/71
f 262/2/72 258/2/72 257/2/72
f 257/1/25 258/1/25 260/1/25
f 262/1/73 263/1/73 260/1/73
f 259/1/74 264/1/74 261/1/74
f 255/2/75 256/2/75 262/2/75
f 263/1/76 262/1/76 256/1/76
f 261/1/77 264/1/77 253/1/77
f 266/3/31 268/3/31 267/3/31
f 57/1/17 51/1/17 52/1/17
f 52/1/17 58/1/17 57/1/17
f 58/1/17 54/1/17 53/1/17
f 269/3/78 270/3/78 272/3/78
f 275/3/79 272/3/79 270/3/79
f 271/3/80 276/3/80 273/3/80
f 275/3/81 274/3/81 268/3/81
f 276/3/82 265/3/82 267/3/82
f 278/1/83 280/1/83 279/1/83
f 287/2/84 284/2/84 288/2/84
f 288/1/85 281/1/85 283/1/85
f 285/1/86 283/1/86 281/1/86
f 288/1/87 282/1/87 286/1/87
f 279/2/88 280/2/88 284/2/88
f 285/1/89 284/1/89 280/1/89
f 286/1/90 277/1/90 279/1/90
f 289/1/53 290/1/53 292/1/53
f 297/2/54 298/2/54 294/2/54
f 294/1/55 296/1/55 295/1/55
f 299/1/56 296/1/56 294/1/56
f 300/1/57 297/1/57 293/1/57
f 291/2/58 292/2/58 298/2/58
f 299/1/59 298/1/59 292/1/59
f 300/1/60 289/1/60 291/1/60
f 302/3/61 304/3/61 303/3/61
f 595/1/17 589/1/17 590/1/17
f 590/1/17 596/1/17 595/1/17
f 596/1/17 592/1/17 591/1/17
f 306/3/11 308/3/11 307/3/11
f 310/3/64 311/3/64 308/3/64
f 312/3/13 309/3/13 305/3/13
f 302/3/65 311/3/65 310/3/65
f 312/3/66 301/3/66 303/3/66
f 313/1/16 314/1/16 316/1/16
f 129/1/17 123/1/17 124/1/17
f 124/1/17 130/1/17 129/1/17
f 130/1/17 126/1/17 125/1/17
f 318/1/18 320/1/18 319/1/18
f 323/1/67 320/1/67 318/1/67
f 324/1/68 321/1/68 317/1/68
f 323/1/69 322/1/69 316/1/69
f 321/1/70 324/1/70 313/1/70
f 325/1/71 326/1/71 328/1/71
f 334/2/72 330/2/72 329/2/72
f 329/1/25 330/1/25 332/1/25
f 334/1/73 335/1/73 332/1/73
f 331/1/74 336/1/74 333/1/74
f 327/2/75 328/2/75 334/2/75
f 335/1/76 334/1/76 328/1/76
f 333/1/77 336/1/77 325/1/77
f 338/3/31 340/3/31 339/3/31
f 165/1/17 159/1/17 160/1/17
f 160/1/17 166/1/17 165/1/17
f 166/1/17 162/1/17 161/1/17
f 341/3/78 342/3/78 344/3/78
f 347/3/79 344/3/79 342/3/79
f 343/3/80 348/3/80 345/3/80
f 347/3/91 346/3/91 340/3/91
f 348/3/82 337/3/82 339/3/82
f 350/1/83 352/1/83 351/1/83
f 359/2/84 356/2/84 360/2/84
f 360/1/85 353/1/85 355/1/85
f 357/1/86 355/1/86 353/1/86
f 360/1/87 354/1/87 358/1/87
f 351/2/88 352/2/88 356/2/88
f 357/1/89 356/1/89 352/1/89
f 358/1/90 349/1/90 351/1/90
f 361/1/53 362/1/53 364/1/53
f 369/2/54 370/2/54 366/2/54
f 366/1/55 368/1/55 367/1/55
f 371/1/56 368/1/56 366/1/56
f 372/1/57 369/1/57 365/1/57
f 363/2/58 364/2/58 370/2/58
f 371/1/59 370/1/59 364/1/59
f 372/1/60 361/1/60 363/1/60
f 374/3/61 376/3/61 375/3/61
f 33/2/17 27/2/17 34/2/17
f 27/2/17 28/2/17 34/2/17
f 34/2/17 30/2/17 29/2/17
f 378/3/11 380/3/11 379/3/11
f 382/3/64 383/3/64 380/3/64
f 384/3/13 381/3/13 377/3/13
f 374/3/92 383/3/92 382/3/92
f 384/3/66 373/3/66 375/3/66
f 385/1/16 386/1/16 388/1/16
f 417/1/17 411/1/17 412/1/17
f 412/1/17 418/1/17 417/1/17
f 418/1/17 414/1/17 413/1/17
f 390/1/18 392/1/18 391/1/18
f 395/1/67 392/1/67 390/1/67
f 396/1/68 393/1/68 389/1/68
f 395/1/69 394/1/69 388/1/69
f 393/1/70 396/1/70 385/1/70
f 397/1/71 398/1/71 400/1/71
f 406/2/72 402/2/72 401/2/72
f 401/1/25 402/1/25 404/1/25
f 406/1/73 407/1/73 404/1/73
f 403/1/74 408/1/74 405/1/74
f 399/2/75 400/2/75 406/2/75
f 407/1/76 406/1/76 400/1/76
f 405/1/77 408/1/77 397/1/77
f 410/3/31 412/3/31 411/3/31
f 249/2/17 243/2/17 250/2/17
f 243/2/17 244/2/17 250/2/17
f 250/2/17 246/2/17 245/2/17
f 413/3/78 414/3/78 416/3/78
f 419/3/79 416/3/79 414/3/79
f 415/3/80 420/3/80 417/3/80
f 419/3/81 418/3/81 412/3/81
f 420/3/82 409/3/82 411/3/82
f 422/1/83 424/1/83 423/1/83
f 431/2/84 428/2/84 432/2/84
f 432/1/85 425/1/85 427/1/85
f 429/1/86 427/1/86 425/1/86
f 432/1/87 426/1/87 430/1/87
f 423/2/88 424/2/88 428/2/88
f 429/1/89 428/1/89 424/1/89
f 430/1/90 421/1/90 423/1/90
f 433/1/53 434/1/53 436/1/53
f 441/2/54 442/2/54 438/2/54
f 438/1/55 440/1/55 439/1/55
f 443/1/56 440/1/56 438/1/56
f 444/1/57 441/1/57 437/1/57
f 435/2/58 436/2/58 442/2/58
f 443/1/59 442/1/59 436/1/59
f 444/1/60 433/1/60 435/1/60
f 446/3/61 448/3/61 447/3/61
f 273/1/17 267/1/17 268/1/17
f 268/1/17 274/1/17 273/1/17
f 274/1/17 270/1/17 269/1/17
f 450/3/11 452/3/11 451/3/11
f 454/3/64 455/3/64 452/3/64
f 456/3/13 453/3/13 449/3/13
f 446/3/65 455/3/65 454/3/65
f 456/3/66 445/3/66 447/3/66
f 457/1/93 458/1/93 460/1/93
f 201/1/17 195/1/17 196/1/17
f 196/1/17 202/1/17 201/1/17
f 202/1/17 198/1/17 197/1/17
f 462/1/18 464/1/18 463/1/18
f 466/1/67 464/1/67 462/1/67
f 467/1/68 465/1/68 461/1/68
f 465/1/70 467/1/70 457/1/70
f 468/1/71 469/1/71 471/1/71
f 477/2/72 473/2/72 472/2/72
f 472/1/25 473/1/25 475/1/25
f 477/1/73 478/1/73 475/1/73
f 474/1/74 479/1/74 476/1/74
f 470/2/75 471/2/75 477/2/75
f 478/1/76 477/1/76 471/1/76
f 476/1/94 479/1/94 468/1/94
f 481/3/31 483/3/31 482/3/31
f 631/1/17 625/1/17 626/1/17
f 626/1/17 632/1/17 631/1/17
f 632/1/17 628/1/17 627/1/17
f 484/3/78 485/3/78 487/3/78
f 490/3/79 487/3/79 485/3/79
f 486/3/80 491/3/80 488/3/80
f 490/3/91 489/3/91 483/3/91
f 491/3/82 480/3/82 482/3/82
f 493/1/83 495/1/83 494/1/83
f 502/2/84 499/2/84 503/2/84
f 503/1/85 496/1/85 498/1/85
f 500/1/86 498/1/86 496/1/86
f 503/1/87 497/1/87 501/1/87
f 494/2/88 495/2/88 499/2/88
f 500/1/89 499/1/89 495/1/89
f 501/1/90 492/1/90 494/1/90
f 504/1/53 505/1/53 507/1/53
f 512/2/54 513/2/54 509/2/54
f 509/1/55 511/1/55 510/1/55
f 514/1/56 511/1/56 509/1/56
f 515/1/57 512/1/57 508/1/57
f 506/2/58 507/2/58 513/2/58
f 514/1/59 513/1/59 507/1/59
f 515/1/60 504/1/60 506/1/60
f 517/3/61 519/3/61 518/3/61
f 465/2/62 459/2/62 460/2/62
f 460/2/63 462/2/63 461/2/63
f 520/3/11 521/3/11 523/3/11
f 525/3/64 526/3/64 523/3/64
f 527/3/13 524/3/13 520/3/13
f 517/3/65 526/3/65 525/3/65
f 527/3/66 516/3/66 518/3/66
f 528/1/93 529/1/93 531/1/93
f 309/1/17 303/1/17 304/1/17
f 304/1/17 310/1/17 309/1/17
f 310/1/17 306/1/17 305/1/17
f 533/1/18 535/1/18 534/1/18
f 537/1/67 535/1/67 533/1/67
f 538/1/68 536/1/68 532/1/68
f 536/1/70 538/1/70 528/1/70
f 539/1/71 540/1/71 542/1/71
f 548/2/72 544/2/72 543/2/72
f 543/1/25 544/1/25 546/1/25
f 548/1/73 549/1/73 546/1/73
f 545/1/74 550/1/74 547/1/74
f 541/2/75 542/2/75 548/2/75
f 549/1/76 548/1/76 542/1/76
f 547/1/94 550/1/94 539/1/94
f 552/3/31 554/3/31 553/3/31
f 555/3/78 556/3/78 558/3/78
f 561/3/79 558/3/79 556/3/79
f 557/3/80 562/3/80 559/3/80
f 561/3/81 560/3/81 554/3/81
f 562/3/82 551/3/82 553/3/82
f 564/1/83 566/1/83 565/1/83
f 573/2/84 570/2/84 574/2/84
f 574/1/85 567/1/85 569/1/85
f 571/1/86 569/1/86 567/1/86
f 574/1/87 568/1/87 572/1/87
f 565/2/88 566/2/88 570/2/88
f 571/1/89 570/1/89 566/1/89
f 572/1/90 563/1/90 565/1/90
f 575/1/53 576/1/53 578/1/53
f 583/2/54 584/2/54 580/2/54
f 580/1/55 582/1/55 581/1/55
f 585/1/56 582/1/56 580/1/56
f 586/1/57 583/1/57 579/1/57
f 577/2/58 578/2/58 584/2/58
f 585/1/59 584/1/59 578/1/59
f 586/1/60 575/1/60 577/1/60
f 588/3/61 590/3/61 589/3/61
f 559/1/17 553/1/17 554/1/17
f 554/1/17 560/1/17 559/1/17
f 560/1/17 556/1/17 555/1/17
f 592/3/11 594/3/11 593/3/11
f 596/3/64 597/3/64 594/3/64
f 598/3/13 595/3/13 591/3/13
f 588/3/92 597/3/92 596/3/92
f 598/3/66 587/3/66 589/3/66
f 599/1/16 600/1/16 602/1/16
f 453/1/17 447/1/17 448/1/17
f 448/1/17 454/1/17 453/1/17
f 454/1/17 450/1/17 449/1/17
f 604/1/18 606/1/18 605/1/18
f 609/1/67 606/1/67 604/1/67
f 610/1/68 607/1/68 603/1/68
f 609/1/69 608/1/69 602/1/69
f 607/1/70 610/1/70 599/1/70
f 611/1/71 612/1/71 614/1/71
f 620/2/72 616/2/72 615/2/72
f 615/1/25 616/1/25 618/1/25
f 620/1/73 621/1/73 618/1/73
f 617/1/74 622/1/74 619/1/74
f 613/2/75 614/2/75 620/2/75
f 621/1/76 620/1/76 614/1/76
f 619/1/94 622/1/94 611/1/94
f 624/3/31 626/3/31 625/3/31
f 93/1/17 87/1/17 88/1/17
f 88/1/17 94/1/17 93/1/17
f 94/1/17 90/1/17 89/1/17
f 627/3/78 628/3/78 630/3/78
f 633/3/79 630/3/79 628/3/79
f 629/3/80 634/3/80 631/3/80
f 633/3/81 632/3/81 626/3/81
f 634/3/82 623/3/82 625/3/82
f 636/1/83 638/1/83 637/1/83
f 645/2/84 642/2/84 646/2/84
f 646/1/85 639/1/85 641/1/85
f 643/1/86 641/1/86 639/1/86
f 646/1/87 640/1/87 644/1/87
f 637/2/88 638/2/88 642/2/88
f 643/1/89 642/1/89 638/1/89
f 644/1/90 635/1/90 637/1/90
f 648/3/48 650/3/48 649/3/48
f 650/3/49 654/3/49 653/3/49
f 654/3/50 652/3/50 651/3/50
f 652/3/17 648/3/17 647/3/17
f 653/3/51 651/3/51 647/3/51
f 650/3/52 648/3/52 652/3/52
f 607/2/17 601/2/17 608/2/17
f 601/2/17 602/2/17 608/2/17
f 608/2/17 604/2/17 603/2/17
