# Blender 5.2.2 LTS
# www.blender.org
mtllib ruins_hk_wall_a.mtl
o piece
v -2.500000 1.976534 -0.231257
v -2.500000 1.522085 0.042205
v -2.500000 -0.986696 0.042205
v -2.500000 -1.470515 -0.231257
v 2.500000 1.976534 -0.231257
v 2.500000 1.522085 0.042205
v 2.500000 -0.986696 0.042205
v 2.500000 -1.470515 -0.231257
v -2.500000 -2.458619 -0.231257
v 2.500000 -2.458619 -0.231257
v 2.500000 2.500000 -0.231257
v -2.500000 2.500000 -0.231257
v -2.500000 -2.458619 -0.356537
v 2.500000 -2.458619 -0.356537
v 2.500000 2.500000 -0.356538
v -2.500000 2.500000 -0.356538
v 1.605673 2.500000 -0.231257
v 1.421274 2.500000 -0.231257
v 1.605673 1.976534 -0.231257
v 1.421274 1.976534 -0.231257
v 1.605673 1.522085 0.042205
v 1.421274 1.522085 0.042205
v 1.605673 -0.986696 0.042205
v 1.421274 -0.986696 0.042205
v 1.605673 -1.470515 -0.231257
v 1.421274 -1.470515 -0.231257
v 1.589764 -2.458619 -0.231257
v 1.389740 -2.458619 -0.231257
v -1.605673 2.500000 -0.231257
v -1.421275 2.500000 -0.231256
v -1.605673 1.976534 -0.231257
v -1.421275 1.976534 -0.231256
v -1.605673 1.522085 0.042205
v -1.421275 1.522085 0.042206
v -1.605673 -0.986696 0.042205
v -1.421275 -0.986696 0.042207
v -1.605673 -1.470515 -0.231257
v -1.421275 -1.470515 -0.231255
v -1.605673 -2.458619 -0.231257
v -1.421275 -2.458619 -0.231255
v 1.566244 2.500000 -0.102207
v 1.459308 2.500000 -0.102207
v 1.566244 1.976534 -0.102207
v 1.459308 1.976534 -0.102207
v 1.566244 1.522085 0.171255
v 1.459308 1.522085 0.171255
v 1.566244 -0.986696 0.171255
v 1.459308 -0.986696 0.171255
v 1.566244 -1.470515 -0.102207
v 1.459308 -1.470515 -0.102207
v 1.546997 -2.458619 -0.102207
v 1.430996 -2.458619 -0.102207
v -1.459308 2.500000 -0.102207
v -1.566246 2.500000 -0.102209
v -1.459308 1.976534 -0.102207
v -1.566246 1.976534 -0.102209
v -1.459308 1.522085 0.171255
v -1.566246 1.522085 0.171253
v -1.459308 -0.986696 0.171255
v -1.566246 -0.986696 0.171253
v -1.459308 -1.470515 -0.102207
v -1.566246 -1.470515 -0.102209
v -1.459308 -2.458619 -0.102207
v -1.566246 -2.458619 -0.102209
v -1.642937 1.464347 0.042206
v -2.462737 1.464347 0.042206
v -1.642937 -0.928958 0.042207
v -2.462737 -0.928958 0.042207
v 1.642935 1.464347 0.042205
v 1.642935 -0.928958 0.042205
v 2.462735 1.464347 0.042205
v 2.462735 -0.928958 0.042205
v 0.513238 -0.928958 0.042205
v 0.513238 1.464347 0.042205
v 1.381793 1.464347 0.042205
v 1.381793 -0.928958 0.042205
v -1.381795 1.464347 0.042203
v -1.381795 -0.928958 0.042204
v -0.513239 1.464347 0.042205
v -0.513239 -0.928958 0.042205
v -0.434278 -0.928958 0.042205
v -0.434278 1.464347 0.042205
v 0.434277 1.464347 0.042205
v 0.434277 -0.928958 0.042205
v -1.706007 1.384570 0.017692
v -2.399666 1.384570 0.017692
v -1.706007 -0.849181 0.017692
v -2.399666 -0.849181 0.017692
v 1.706006 1.384570 0.017690
v 1.706006 -0.849181 0.017690
v 2.399664 1.384570 0.017690
v 2.399664 -0.849181 0.017690
v 0.580060 -0.849181 0.017690
v 0.580060 1.384570 0.017690
v 1.314972 1.384570 0.017690
v 1.314972 -0.849181 0.017690
v -1.314972 1.384570 0.017690
v -1.314972 -0.849181 0.017690
v -0.580060 1.384570 0.017690
v -0.580060 -0.849181 0.017690
v -0.367456 -0.849181 0.017690
v -0.367456 1.384570 0.017690
v 0.367456 1.384570 0.017690
v 0.367456 -0.849181 0.017690
v -2.462737 0.612169 0.042207
v -2.399666 0.612169 0.017692
v -1.706007 0.612169 0.017692
v -1.642937 0.612169 0.042207
v -1.381795 0.612169 0.042203
v -1.314972 0.612169 0.017690
v -0.580060 0.612169 0.017690
v -0.513239 0.612169 0.042205
v -0.434278 0.612169 0.042205
v -0.367456 0.612169 0.017690
v 0.367456 0.612169 0.017690
v 0.434277 0.612169 0.042205
v 0.513238 0.612169 0.042205
v 0.580060 0.612169 0.017690
v 1.314972 0.612169 0.017690
v 1.381793 0.612169 0.042205
v 1.642935 0.612169 0.042205
v 1.706006 0.612169 0.017690
v 2.399664 0.612169 0.017690
v 2.462735 0.612169 0.042205
v -2.372476 0.504821 0.042205
v -2.323293 0.504821 0.017692
v -1.782381 0.504821 0.017692
v -1.733199 0.504821 0.042203
v -1.288001 0.504821 0.042205
v -1.235611 0.504821 0.017690
v -0.659421 0.504821 0.017690
v -0.607031 0.504821 0.042205
v -0.348610 0.504821 0.042203
v -0.294971 0.504821 0.017690
v 0.294971 0.504821 0.017690
v 0.348609 0.504821 0.042207
v 0.586767 0.504821 0.042205
v 0.642276 0.504821 0.017690
v 1.252756 0.504821 0.017690
v 1.308264 0.504821 0.042205
v 1.737948 0.504821 0.042205
v 1.786401 0.504821 0.017690
v 2.319269 0.504821 0.017690
v 2.367722 0.504821 0.042205
v -2.372476 0.030568 0.042205
v -2.323293 0.030568 0.017692
v -1.782381 0.030568 0.017692
v -1.733199 0.030568 0.042204
v -1.288001 0.030568 0.042205
v -1.235611 0.030568 0.017690
v -0.659421 0.030568 0.017690
v -0.607031 0.030568 0.042205
v -0.348610 0.030568 0.042204
v -0.294971 0.030568 0.017690
v 0.294971 0.030568 0.017690
v 0.348609 0.030568 0.042207
v 0.586767 0.030568 0.042205
v 0.642276 0.030568 0.017690
v 1.252756 0.030568 0.017690
v 1.308264 0.030568 0.042205
v 1.737948 0.030568 0.042205
v 1.786401 0.030568 0.017690
v 2.319269 0.030568 0.017690
v 2.367722 0.030568 0.042205
v -2.462737 -0.076779 0.042207
v -2.399666 -0.076779 0.017692
v -1.706007 -0.076779 0.017692
v -1.642937 -0.076779 0.042207
v -1.381795 -0.076779 0.042204
v -1.314972 -0.076779 0.017690
v -0.580060 -0.076779 0.017690
v -0.513239 -0.076779 0.042205
v -0.434278 -0.076779 0.042205
v -0.367456 -0.076779 0.017690
v 0.367456 -0.076779 0.017690
v 0.434277 -0.076779 0.042205
v 0.513238 -0.076779 0.042205
v 0.580060 -0.076779 0.017690
v 1.314972 -0.076779 0.017690
v 1.381793 -0.076779 0.042205
v 1.642935 -0.076779 0.042205
v 1.706006 -0.076779 0.017690
v 2.399664 -0.076779 0.017690
v 2.462735 -0.076779 0.042205
v 2.500000 -0.270883 -0.356538
v 2.500000 -0.270883 0.042205
v 2.462735 -0.270883 0.042205
v 2.399664 -0.270883 0.017690
v 1.706006 -0.270883 0.017690
v 1.642935 -0.270883 0.042205
v 1.605673 -0.270883 0.042205
v 1.421274 -0.270883 0.042205
v 1.381793 -0.270883 0.042205
v 1.314972 -0.270883 0.017690
v 0.580060 -0.270883 0.017690
v 0.513238 -0.270883 0.042205
v 0.434277 -0.270883 0.042205
v 0.367456 -0.270883 0.017690
v -0.367456 -0.270883 0.017690
v -0.434278 -0.270883 0.042205
v -0.513239 -0.270883 0.042205
v -0.580060 -0.270883 0.017690
v -1.314972 -0.270883 0.017690
v -1.381795 -0.270883 0.042204
v -1.421275 -0.270883 0.042207
v -1.605673 -0.270883 0.042205
v -1.642937 -0.270883 0.042207
v -1.706007 -0.270883 0.017692
v -2.399666 -0.270883 0.017692
v -2.462737 -0.270883 0.042207
v -2.500000 -0.270883 0.042205
v -2.500000 -0.270883 -0.356538
v 2.500000 -0.482704 -0.356538
v 2.500000 -0.482704 0.042205
v 2.462735 -0.482704 0.042205
v 2.399664 -0.482704 0.017690
v 1.706006 -0.482704 0.017690
v 1.642935 -0.482704 0.042205
v 1.605673 -0.482704 0.042205
v 1.421274 -0.482704 0.042205
v 1.381793 -0.482704 0.042205
v 1.314972 -0.482704 0.017690
v 0.580060 -0.482704 0.017690
v 0.513238 -0.482704 0.042205
v 0.434277 -0.482704 0.042205
v 0.367456 -0.482704 0.017690
v -0.367456 -0.482704 0.017690
v -0.434278 -0.482704 0.042205
v -0.513239 -0.482704 0.042205
v -0.580060 -0.482704 0.017690
v -1.314972 -0.482704 0.017690
v -1.381795 -0.482704 0.042204
v -1.421275 -0.482704 0.042207
v -1.605673 -0.482704 0.042205
v -1.642937 -0.482704 0.042207
v -1.706007 -0.482704 0.017692
v -2.399666 -0.482704 0.017692
v -2.462737 -0.482704 0.042207
v -2.500000 -0.482704 0.042205
v -2.500000 -0.482704 -0.356538
v 2.013327 -2.500000 -0.257685
v 2.013327 -2.500000 0.171380
v 2.013327 -1.149464 -0.257685
v 2.013327 -1.149464 0.171380
v 0.986673 -1.149464 -0.257685
v 0.986673 -1.149464 0.171380
v 0.986673 -2.500000 -0.257685
v 0.986673 -2.500000 0.171380
v 1.159973 -2.500000 0.356536
v 1.840027 -2.500000 0.356536
v 1.159973 -1.339550 0.356536
v 1.840027 -1.339550 0.356536
v -0.986673 -2.500000 -0.257685
v -0.986673 -2.500000 0.171380
v -0.986673 -1.149464 -0.257685
v -0.986673 -1.149464 0.171380
v -2.013327 -1.149464 -0.257685
v -2.013327 -1.149464 0.171380
v -2.013327 -2.500000 -0.257685
v -2.013327 -2.500000 0.171380
v -1.840027 -2.500000 0.356536
v -1.159972 -2.500000 0.356538
v -1.840027 -1.339550 0.356536
v -1.159972 -1.339550 0.356538
vn -0.0000 -1.0000 -0.0000
vn -0.0000 -0.0000 1.0000
vn 1.0000 -0.0000 -0.0000
vn -0.0000 0.5156 0.8568
vn -0.0000 -0.4921 0.8706
vn -0.0000 1.0000 -0.0000
vn 0.9564 -0.0000 0.2922
vn -0.9592 -0.0000 0.2827
vn 0.9419 0.1732 0.2878
vn -0.9456 0.1677 0.2787
vn 0.9436 -0.1629 0.2883
vn -0.9472 -0.1578 0.2792
vn 0.9562 -0.0154 0.2922
vn -0.9521 0.0304 0.3044
vn 0.9592 -0.0000 0.2827
vn -0.9564 -0.0000 0.2922
vn 0.9456 0.1677 0.2787
vn -0.9419 0.1732 0.2878
vn 0.9472 -0.1578 0.2792
vn -0.9436 -0.1629 0.2883
vn -0.0000 -0.2937 0.9559
vn -0.3623 -0.0000 0.9321
vn -0.0000 0.2937 0.9559
vn 0.3623 -0.0000 0.9321
vn 0.3444 -0.0000 0.9388
vn -0.3444 -0.0000 0.9388
vn 0.4252 0.3025 0.8531
vn -0.3466 0.2914 0.8916
vn 0.4044 0.2990 0.8643
vn -0.3298 0.2882 0.8990
vn 0.4002 0.2702 0.8757
vn -0.3321 0.2650 0.9052
vn 0.3934 0.2280 0.8907
vn -0.3352 0.2296 0.9137
vn 0.4277 0.3203 0.8453
vn -0.3450 0.3053 0.8876
vn -1.0000 -0.0000 -0.0000
vn 0.4461 -0.0000 0.8950
vn -0.4461 -0.0000 0.8950
vn 0.4238 -0.0000 0.9057
vn -0.4238 -0.0000 0.9057
vn 0.4157 -0.0000 0.9095
vn -0.4157 -0.0000 0.9095
vn 0.4040 -0.0000 0.9148
vn -0.4040 -0.0000 0.9148
vn 0.4515 -0.0000 0.8923
vn -0.4515 -0.0000 0.8923
vn 0.3466 -0.2914 0.8916
vn -0.3466 -0.2914 0.8916
vn 0.3298 -0.2882 0.8990
vn -0.3298 -0.2882 0.8990
vn 0.3321 -0.2650 0.9052
vn -0.3321 -0.2650 0.9052
vn 0.3352 -0.2296 0.9137
vn -0.3352 -0.2296 0.9137
vn 0.3450 -0.3053 0.8876
vn -0.3450 -0.3053 0.8876
vn 0.0001 -0.0000 1.0000
vn -0.0000 -0.0000 -1.0000
vn -0.7301 -0.0000 0.6833
vn -0.0000 0.6978 0.7163
vn 0.7301 -0.0000 0.6833
vn 0.9491 -0.0185 0.3145
vn -0.9588 0.0275 0.2826
vn -0.0000 -0.0001 1.0000
vn -0.0000 0.0001 1.0000
vn 0.3466 0.2914 0.8916
vn -0.4252 0.3025 0.8531
vn 0.3298 0.2882 0.8990
vn -0.4044 0.2990 0.8643
vn 0.3321 0.2650 0.9052
vn -0.4002 0.2703 0.8757
vn 0.3352 0.2296 0.9137
vn -0.3934 0.2280 0.8907
vn 0.3450 0.3053 0.8876
vn -0.4277 0.3203 0.8453
vn 0.4252 -0.3025 0.8531
vn -0.4252 -0.3025 0.8531
vn 0.4044 -0.2990 0.8643
vn -0.4044 -0.2990 0.8643
vn 0.4002 -0.2702 0.8757
vn -0.4002 -0.2703 0.8757
vn 0.3934 -0.2280 0.8907
vn -0.3934 -0.2280 0.8907
vn 0.4277 -0.3203 0.8453
vn -0.4277 -0.3203 0.8453
vt 0.125000 0.625000
vt 0.875000 0.375000
vt 0.875000 0.625000
vt 0.625000 0.625000
vt 0.375000 0.375000
vt 0.625000 0.875000
s 0
usemtl ruins_hk_wall_a
f 247/1/1 241/1/1 250/1/1
f 225/2/2 196/2/2 197/2/2
f 229/2/2 200/2/2 201/2/2
f 213/3/3 7/3/3 8/3/3
f 44/1/2 41/1/2 42/1/2
f 46/1/4 43/1/4 44/1/4
f 50/1/5 47/1/5 48/1/5
f 50/1/2 51/1/2 49/1/2
f 14/3/1 27/3/1 28/3/1
f 56/1/2 53/1/2 54/1/2
f 58/1/4 55/1/4 56/1/4
f 60/1/5 61/1/5 59/1/5
f 64/1/2 61/1/2 62/1/2
f 2/3/4 31/3/4 1/3/4
f 4/3/5 35/3/5 3/3/5
f 9/3/2 37/3/2 4/3/2
f 29/3/2 1/3/2 31/3/2
f 11/3/2 19/3/2 5/3/2
f 6/3/4 19/3/4 21/3/4
f 8/3/5 23/3/5 25/3/5
f 10/3/2 25/3/2 27/3/2
f 18/4/6 41/4/6 17/4/6
f 41/1/7 19/1/7 17/1/7
f 44/1/8 18/1/8 20/1/8
f 43/1/9 21/1/9 19/1/9
f 22/1/10 44/1/10 20/1/10
f 259/1/1 253/1/1 262/1/1
f 23/1/11 49/1/11 25/1/11
f 50/1/12 24/1/12 26/1/12
f 49/1/13 27/1/13 25/1/13
f 52/1/14 26/1/14 28/1/14
f 54/4/6 30/4/6 29/4/6
f 53/1/15 32/1/15 30/1/15
f 56/1/16 29/1/16 31/1/16
f 55/1/17 34/1/17 32/1/17
f 33/1/18 56/1/18 31/1/18
f 36/1/19 61/1/19 38/1/19
f 62/1/20 35/1/20 37/1/20
f 38/1/15 63/1/15 40/1/15
f 64/1/16 37/1/16 39/1/16
f 68/3/2 3/3/2 35/3/2
f 82/3/2 83/3/2 22/3/2
f 22/3/4 32/3/4 34/3/4
f 139/4/2 138/4/2 158/4/2
f 30/3/2 20/3/2 18/3/2
f 60/1/2 57/1/2 58/1/2
f 36/3/2 84/3/2 81/3/2
f 48/1/2 45/1/2 46/1/2
f 143/4/2 142/4/2 162/4/2
f 86/5/21 65/5/21 66/5/21
f 167/5/22 207/5/22 168/5/22
f 87/5/23 68/5/23 67/5/23
f 209/5/24 165/5/24 210/5/24
f 189/5/24 181/5/24 190/5/24
f 89/5/21 71/5/21 69/5/21
f 183/5/22 187/5/22 184/5/22
f 92/5/23 70/5/23 72/5/23
f 195/5/25 177/5/25 196/5/25
f 94/5/21 75/5/21 74/5/21
f 179/5/26 193/5/26 180/5/26
f 96/5/23 73/5/23 76/5/23
f 203/5/25 169/5/25 204/5/25
f 97/5/21 79/5/21 77/5/21
f 171/5/26 201/5/26 172/5/26
f 80/5/23 98/5/23 78/5/23
f 199/5/25 173/5/25 200/5/25
f 102/5/21 83/5/21 82/5/21
f 175/5/26 197/5/26 176/5/26
f 104/5/23 81/5/23 84/5/23
f 86/5/24 105/5/24 106/5/24
f 85/5/22 108/5/22 65/5/22
f 234/1/16 35/1/16 60/1/16
f 97/5/25 109/5/25 110/5/25
f 99/5/26 112/5/26 79/5/26
f 102/5/25 113/5/25 114/5/25
f 103/5/26 116/5/26 83/5/26
f 94/5/25 117/5/25 118/5/25
f 95/5/26 120/5/26 75/5/26
f 192/1/8 220/1/8 48/1/8
f 89/5/24 121/5/24 122/5/24
f 91/5/22 124/5/22 71/5/22
f 65/3/2 33/3/2 2/3/2
f 106/5/27 125/5/27 126/5/27
f 107/5/28 128/5/28 108/5/28
f 110/5/29 129/5/29 130/5/29
f 111/5/30 132/5/30 112/5/30
f 114/5/31 133/5/31 134/5/31
f 115/5/32 136/5/32 116/5/32
f 118/5/33 137/5/33 138/5/33
f 119/5/34 140/5/34 120/5/34
f 122/5/35 141/5/35 142/5/35
f 123/5/36 144/5/36 124/5/36
f 21/3/2 121/3/2 69/3/2
f 16/3/37 212/3/37 1/3/37
f 126/5/38 145/5/38 146/5/38
f 127/5/39 148/5/39 128/5/39
f 130/5/40 149/5/40 150/5/40
f 131/5/41 152/5/41 132/5/41
f 134/5/42 153/5/42 154/5/42
f 135/5/43 156/5/43 136/5/43
f 138/5/44 157/5/44 158/5/44
f 146/4/2 147/4/2 127/4/2
f 139/5/45 160/5/45 140/5/45
f 142/5/46 161/5/46 162/5/46
f 143/5/47 164/5/47 144/5/47
f 166/5/48 145/5/48 165/5/48
f 72/3/2 70/3/2 23/3/2
f 148/5/49 167/5/49 168/5/49
f 170/5/50 149/5/50 169/5/50
f 152/5/51 171/5/51 172/5/51
f 131/4/2 130/4/2 150/4/2
f 174/5/52 153/5/52 173/5/52
f 156/5/53 175/5/53 176/5/53
f 3/3/37 239/3/37 240/3/37
f 178/5/54 157/5/54 177/5/54
f 160/5/55 179/5/55 180/5/55
f 182/5/56 161/5/56 181/5/56
f 164/5/57 183/5/57 184/5/57
f 213/2/3 186/2/3 214/2/3
f 215/2/2 186/2/2 187/2/2
f 188/2/22 215/2/22 187/2/22
f 216/2/2 189/2/2 217/2/2
f 218/2/24 189/2/24 190/2/24
f 218/2/2 191/2/2 219/2/2
f 221/2/2 192/2/2 193/2/2
f 194/2/26 221/2/26 193/2/26
f 222/2/2 195/2/2 223/2/2
f 224/2/25 195/2/25 196/2/25
f 198/2/26 225/2/26 197/2/26
f 226/2/2 199/2/2 227/2/2
f 228/2/25 199/2/25 200/2/25
f 202/2/26 229/2/26 201/2/26
f 230/2/2 203/2/2 231/2/2
f 232/2/25 203/2/25 204/2/25
f 232/2/58 205/2/58 233/2/58
f 205/1/15 34/1/15 57/1/15
f 235/2/2 206/2/2 207/2/2
f 208/2/22 235/2/22 207/2/22
f 237/2/2 208/2/2 209/2/2
f 238/2/24 209/2/24 210/2/24
f 238/2/2 211/2/2 239/2/2
f 240/2/37 211/2/37 212/2/37
f 15/3/3 11/3/3 5/3/3
f 92/5/22 215/5/22 216/5/22
f 92/4/2 217/4/2 90/4/2
f 90/5/24 218/5/24 70/5/24
f 191/1/7 21/1/7 45/1/7
f 96/5/26 221/5/26 222/5/26
f 96/4/2 223/4/2 93/4/2
f 93/5/25 224/5/25 73/5/25
f 104/5/26 225/5/26 226/5/26
f 104/4/2 227/4/2 101/4/2
f 101/5/25 228/5/25 81/5/25
f 30/3/6 18/3/6 16/3/6
f 100/5/26 229/5/26 230/5/26
f 100/4/2 231/4/2 98/4/2
f 98/5/25 232/5/25 78/5/25
f 135/4/2 134/4/2 154/4/2
f 87/5/22 235/5/22 236/5/22
f 88/4/2 236/4/2 237/4/2
f 88/5/24 238/5/24 68/5/24
f 243/1/3 242/1/3 241/1/3
f 245/1/6 244/1/6 243/1/6
f 247/1/37 246/1/37 245/1/37
f 252/1/2 249/1/2 250/1/2
f 245/1/59 241/1/59 247/1/59
f 248/1/60 251/1/60 246/1/60
f 251/1/61 244/1/61 246/1/61
f 252/1/62 242/1/62 244/1/62
f 255/1/3 254/1/3 253/1/3
f 257/1/6 256/1/6 255/1/6
f 259/1/37 258/1/37 257/1/37
f 264/1/2 261/1/2 262/1/2
f 257/1/59 253/1/59 259/1/59
f 260/1/60 263/1/60 258/1/60
f 263/1/61 256/1/61 258/1/61
f 264/1/62 254/1/62 256/1/62
f 28/3/2 38/3/2 40/3/2
f 185/6/59 213/6/59 240/6/59
f 36/3/5 26/3/5 24/3/5
f 241/1/1 242/1/1 250/1/1
f 250/1/1 249/1/1 247/1/1
f 249/1/1 248/1/1 247/1/1
f 225/2/2 224/2/2 196/2/2
f 229/2/2 228/2/2 200/2/2
f 10/3/3 14/3/3 8/3/3
f 14/3/3 213/3/3 8/3/3
f 213/3/3 214/3/3 7/3/3
f 44/1/2 43/1/2 41/1/2
f 46/1/4 45/1/4 43/1/4
f 50/1/5 49/1/5 47/1/5
f 50/1/2 52/1/2 51/1/2
f 40/3/1 63/3/1 64/3/1
f 39/3/1 9/3/1 13/3/1
f 40/3/1 64/3/1 39/3/1
f 51/3/1 52/3/1 28/3/1
f 28/3/1 40/3/1 13/3/1
f 40/3/1 39/3/1 13/3/1
f 13/3/1 14/3/1 28/3/1
f 14/3/1 10/3/1 27/3/1
f 27/3/1 51/3/1 28/3/1
f 56/1/2 55/1/2 53/1/2
f 58/1/4 57/1/4 55/1/4
f 60/1/5 62/1/5 61/1/5
f 64/1/2 63/1/2 61/1/2
f 2/3/4 33/3/4 31/3/4
f 4/3/5 37/3/5 35/3/5
f 9/3/2 39/3/2 37/3/2
f 29/3/2 12/3/2 1/3/2
f 11/3/2 17/3/2 19/3/2
f 6/3/4 5/3/4 19/3/4
f 8/3/5 7/3/5 23/3/5
f 10/3/2 8/3/2 25/3/2
f 18/4/6 42/4/6 41/4/6
f 41/1/7 43/1/7 19/1/7
f 44/1/8 42/1/8 18/1/8
f 43/1/9 45/1/9 21/1/9
f 22/1/10 46/1/10 44/1/10
f 253/1/1 254/1/1 262/1/1
f 262/1/1 261/1/1 259/1/1
f 261/1/1 260/1/1 259/1/1
f 23/1/11 47/1/11 49/1/11
f 50/1/12 48/1/12 24/1/12
f 49/1/63 51/1/63 27/1/63
f 52/1/64 50/1/64 26/1/64
f 54/4/6 53/4/6 30/4/6
f 53/1/15 55/1/15 32/1/15
f 56/1/16 54/1/16 29/1/16
f 55/1/17 57/1/17 34/1/17
f 33/1/18 58/1/18 56/1/18
f 36/1/19 59/1/19 61/1/19
f 62/1/20 60/1/20 35/1/20
f 38/1/15 61/1/15 63/1/15
f 64/1/16 62/1/16 37/1/16
f 68/3/2 238/3/2 239/3/2
f 35/3/2 234/3/2 67/3/2
f 234/3/2 235/3/2 67/3/2
f 68/3/2 239/3/2 3/3/2
f 35/3/2 67/3/2 68/3/2
f 169/3/2 149/3/2 129/3/2
f 169/3/2 129/3/2 109/3/2
f 205/3/58 204/3/58 169/3/58
f 193/3/2 192/3/2 180/3/2
f 192/3/2 22/3/2 120/3/2
f 180/3/2 192/3/2 120/3/2
f 140/3/2 160/3/2 180/3/2
f 34/3/58 205/3/58 109/3/58
f 205/3/58 169/3/58 109/3/58
f 120/3/2 140/3/2 180/3/2
f 34/3/58 109/3/58 77/3/58
f 34/3/65 77/3/65 79/3/65
f 75/3/2 120/3/2 22/3/2
f 74/3/2 75/3/2 22/3/2
f 22/3/2 34/3/2 82/3/2
f 34/3/2 79/3/2 82/3/2
f 112/3/2 132/3/2 133/3/2
f 132/3/2 152/3/2 133/3/2
f 157/3/2 137/3/2 136/3/2
f 137/3/2 117/3/2 116/3/2
f 136/3/2 137/3/2 116/3/2
f 197/3/2 196/3/2 177/3/2
f 177/3/2 157/3/2 176/3/2
f 176/3/2 157/3/2 156/3/2
f 197/3/2 177/3/2 176/3/2
f 136/3/2 156/3/2 157/3/2
f 117/3/2 74/3/2 116/3/2
f 152/3/2 172/3/2 153/3/2
f 153/3/2 172/3/2 173/3/2
f 172/3/2 201/3/2 200/3/2
f 153/3/2 133/3/2 152/3/2
f 172/3/2 200/3/2 173/3/2
f 133/3/2 113/3/2 112/3/2
f 83/3/2 116/3/2 74/3/2
f 112/3/2 113/3/2 82/3/2
f 83/3/2 74/3/2 22/3/2
f 79/3/2 112/3/2 82/3/2
f 22/3/4 20/3/4 32/3/4
f 194/4/2 179/4/2 159/4/2
f 139/4/2 119/4/2 118/4/2
f 119/4/2 95/4/2 94/4/2
f 195/4/2 194/4/2 159/4/2
f 119/4/2 94/4/2 118/4/2
f 195/4/2 159/4/2 158/4/2
f 159/4/2 139/4/2 158/4/2
f 158/4/2 178/4/2 195/4/2
f 118/4/2 138/4/2 139/4/2
f 30/3/2 32/3/2 20/3/2
f 60/1/2 59/1/2 57/1/2
f 78/3/58 232/3/58 233/3/58
f 24/3/2 220/3/2 76/3/2
f 220/3/2 221/3/2 76/3/2
f 78/3/58 233/3/58 36/3/58
f 228/3/2 229/3/2 80/3/2
f 80/3/66 78/3/66 36/3/66
f 36/3/2 24/3/2 84/3/2
f 24/3/2 76/3/2 73/3/2
f 73/3/2 224/3/2 225/3/2
f 24/3/2 73/3/2 84/3/2
f 81/3/2 228/3/2 80/3/2
f 73/3/2 225/3/2 84/3/2
f 81/3/2 80/3/2 36/3/2
f 48/1/2 47/1/2 45/1/2
f 188/4/2 183/4/2 163/4/2
f 143/4/2 123/4/2 122/4/2
f 123/4/2 91/4/2 89/4/2
f 189/4/2 188/4/2 163/4/2
f 123/4/2 89/4/2 122/4/2
f 189/4/2 163/4/2 162/4/2
f 163/4/2 143/4/2 162/4/2
f 162/4/2 182/4/2 189/4/2
f 122/4/2 142/4/2 143/4/2
f 86/5/21 85/5/21 65/5/21
f 167/5/22 208/5/22 207/5/22
f 87/5/23 88/5/23 68/5/23
f 209/5/24 166/5/24 165/5/24
f 189/5/24 182/5/24 181/5/24
f 89/5/21 91/5/21 71/5/21
f 183/5/22 188/5/22 187/5/22
f 92/5/23 90/5/23 70/5/23
f 195/5/25 178/5/25 177/5/25
f 94/5/21 95/5/21 75/5/21
f 179/5/26 194/5/26 193/5/26
f 96/5/23 93/5/23 73/5/23
f 203/5/25 170/5/25 169/5/25
f 97/5/21 99/5/21 79/5/21
f 171/5/26 202/5/26 201/5/26
f 80/5/23 100/5/23 98/5/23
f 199/5/25 174/5/25 173/5/25
f 102/5/21 103/5/21 83/5/21
f 175/5/26 198/5/26 197/5/26
f 104/5/23 101/5/23 81/5/23
f 86/5/24 66/5/24 105/5/24
f 85/5/22 107/5/22 108/5/22
f 60/1/16 58/1/16 206/1/16
f 58/1/16 33/1/16 206/1/16
f 206/1/16 234/1/16 60/1/16
f 97/5/25 77/5/25 109/5/25
f 99/5/26 111/5/26 112/5/26
f 102/5/25 82/5/25 113/5/25
f 103/5/26 115/5/26 116/5/26
f 94/5/25 74/5/25 117/5/25
f 95/5/26 119/5/26 120/5/26
f 220/1/8 24/1/8 48/1/8
f 48/1/8 46/1/8 192/1/8
f 46/1/8 22/1/8 192/1/8
f 89/5/24 69/5/24 121/5/24
f 91/5/22 123/5/22 124/5/22
f 165/3/2 145/3/2 125/3/2
f 165/3/2 125/3/2 105/3/2
f 211/3/2 210/3/2 165/3/2
f 207/3/2 206/3/2 168/3/2
f 206/3/2 33/3/2 108/3/2
f 168/3/2 206/3/2 108/3/2
f 128/3/2 148/3/2 168/3/2
f 2/3/2 211/3/2 105/3/2
f 211/3/2 165/3/2 105/3/2
f 108/3/2 128/3/2 168/3/2
f 2/3/2 105/3/2 66/3/2
f 65/3/2 108/3/2 33/3/2
f 2/3/2 66/3/2 65/3/2
f 106/5/67 105/5/67 125/5/67
f 107/5/68 127/5/68 128/5/68
f 110/5/69 109/5/69 129/5/69
f 111/5/70 131/5/70 132/5/70
f 114/5/71 113/5/71 133/5/71
f 115/5/72 135/5/72 136/5/72
f 118/5/73 117/5/73 137/5/73
f 119/5/74 139/5/74 140/5/74
f 122/5/75 121/5/75 141/5/75
f 123/5/76 143/5/76 144/5/76
f 124/3/2 144/3/2 184/3/2
f 144/3/2 164/3/2 184/3/2
f 184/3/2 187/3/2 186/3/2
f 124/3/2 184/3/2 186/3/2
f 21/3/2 191/3/2 121/3/2
f 191/3/2 190/3/2 181/3/2
f 181/3/2 161/3/2 141/3/2
f 191/3/2 181/3/2 121/3/2
f 124/3/2 186/3/2 6/3/2
f 71/3/2 124/3/2 6/3/2
f 181/3/2 141/3/2 121/3/2
f 69/3/2 71/3/2 21/3/2
f 71/3/2 6/3/2 21/3/2
f 211/3/37 2/3/37 212/3/37
f 2/3/37 1/3/37 212/3/37
f 1/3/37 12/3/37 16/3/37
f 126/5/38 125/5/38 145/5/38
f 127/5/39 147/5/39 148/5/39
f 130/5/40 129/5/40 149/5/40
f 131/5/41 151/5/41 152/5/41
f 134/5/42 133/5/42 153/5/42
f 135/5/43 155/5/43 156/5/43
f 138/5/44 137/5/44 157/5/44
f 86/4/2 106/4/2 85/4/2
f 106/4/2 126/4/2 107/4/2
f 85/4/2 106/4/2 107/4/2
f 146/4/2 166/4/2 209/4/2
f 146/4/2 209/4/2 147/4/2
f 209/4/2 208/4/2 147/4/2
f 126/4/2 146/4/2 127/4/2
f 127/4/2 107/4/2 126/4/2
f 208/4/2 167/4/2 147/4/2
f 139/5/45 159/5/45 160/5/45
f 142/5/46 141/5/46 161/5/46
f 143/5/47 163/5/47 164/5/47
f 166/5/77 146/5/77 145/5/77
f 70/3/2 218/3/2 219/3/2
f 7/3/2 214/3/2 72/3/2
f 214/3/2 215/3/2 72/3/2
f 70/3/2 219/3/2 23/3/2
f 7/3/2 72/3/2 23/3/2
f 148/5/78 147/5/78 167/5/78
f 170/5/79 150/5/79 149/5/79
f 152/5/80 151/5/80 171/5/80
f 202/4/2 171/4/2 151/4/2
f 131/4/2 111/4/2 110/4/2
f 111/4/2 99/4/2 97/4/2
f 203/4/2 202/4/2 151/4/2
f 111/4/2 97/4/2 110/4/2
f 203/4/2 151/4/2 150/4/2
f 151/4/2 131/4/2 150/4/2
f 150/4/2 170/4/2 203/4/2
f 110/4/2 130/4/2 131/4/2
f 174/5/81 154/5/81 153/5/81
f 156/5/82 155/5/82 175/5/82
f 240/3/37 13/3/37 4/3/37
f 13/3/37 9/3/37 4/3/37
f 4/3/37 3/3/37 240/3/37
f 178/5/83 158/5/83 157/5/83
f 160/5/84 159/5/84 179/5/84
f 182/5/85 162/5/85 161/5/85
f 164/5/86 163/5/86 183/5/86
f 213/2/3 185/2/3 186/2/3
f 215/2/2 214/2/2 186/2/2
f 188/2/22 216/2/22 215/2/22
f 216/2/2 188/2/2 189/2/2
f 218/2/24 217/2/24 189/2/24
f 218/2/2 190/2/2 191/2/2
f 221/2/2 220/2/2 192/2/2
f 194/2/26 222/2/26 221/2/26
f 222/2/2 194/2/2 195/2/2
f 224/2/25 223/2/25 195/2/25
f 198/2/26 226/2/26 225/2/26
f 226/2/2 198/2/2 199/2/2
f 228/2/25 227/2/25 199/2/25
f 202/2/26 230/2/26 229/2/26
f 230/2/2 202/2/2 203/2/2
f 232/2/25 231/2/25 203/2/25
f 232/2/58 204/2/58 205/2/58
f 57/1/15 59/1/15 205/1/15
f 59/1/15 36/1/15 233/1/15
f 205/1/15 59/1/15 233/1/15
f 235/2/2 234/2/2 206/2/2
f 208/2/22 236/2/22 235/2/22
f 237/2/2 236/2/2 208/2/2
f 238/2/24 237/2/24 209/2/24
f 238/2/2 210/2/2 211/2/2
f 240/2/37 239/2/37 211/2/37
f 5/3/3 6/3/3 185/3/3
f 6/3/3 186/3/3 185/3/3
f 185/3/3 15/3/3 5/3/3
f 92/5/22 72/5/22 215/5/22
f 92/4/2 216/4/2 217/4/2
f 90/5/24 217/5/24 218/5/24
f 45/1/7 47/1/7 191/1/7
f 47/1/7 23/1/7 219/1/7
f 191/1/7 47/1/7 219/1/7
f 96/5/26 76/5/26 221/5/26
f 96/4/2 222/4/2 223/4/2
f 93/5/25 223/5/25 224/5/25
f 104/5/26 84/5/26 225/5/26
f 104/4/2 226/4/2 227/4/2
f 101/5/25 227/5/25 228/5/25
f 11/3/6 15/3/6 17/3/6
f 15/3/6 16/3/6 18/3/6
f 17/3/6 15/3/6 18/3/6
f 16/3/6 12/3/6 29/3/6
f 29/3/6 30/3/6 16/3/6
f 100/5/26 80/5/26 229/5/26
f 100/4/2 230/4/2 231/4/2
f 98/5/25 231/5/25 232/5/25
f 198/4/2 175/4/2 155/4/2
f 135/4/2 115/4/2 114/4/2
f 115/4/2 103/4/2 102/4/2
f 199/4/2 198/4/2 155/4/2
f 115/4/2 102/4/2 114/4/2
f 199/4/2 155/4/2 154/4/2
f 155/4/2 135/4/2 154/4/2
f 154/4/2 174/4/2 199/4/2
f 114/4/2 134/4/2 135/4/2
f 87/5/22 67/5/22 235/5/22
f 88/4/2 87/4/2 236/4/2
f 88/5/24 237/5/24 238/5/24
f 243/1/3 244/1/3 242/1/3
f 245/1/6 246/1/6 244/1/6
f 247/1/37 248/1/37 246/1/37
f 252/1/2 251/1/2 249/1/2
f 245/1/59 243/1/59 241/1/59
f 248/1/60 249/1/60 251/1/60
f 251/1/61 252/1/61 244/1/61
f 252/1/62 250/1/62 242/1/62
f 255/1/3 256/1/3 254/1/3
f 257/1/6 258/1/6 256/1/6
f 259/1/37 260/1/37 258/1/37
f 264/1/2 263/1/2 261/1/2
f 257/1/59 255/1/59 253/1/59
f 260/1/60 261/1/60 263/1/60
f 263/1/61 264/1/61 256/1/61
f 264/1/62 262/1/62 254/1/62
f 28/3/2 26/3/2 38/3/2
f 212/6/59 16/6/59 15/6/59
f 212/6/59 15/6/59 185/6/59
f 14/6/59 13/6/59 240/6/59
f 240/6/59 212/6/59 185/6/59
f 213/6/59 14/6/59 240/6/59
f 36/3/5 38/3/5 26/3/5
