# Blender 5.2.2 LTS
# www.blender.org
mtllib ruins_find_rod.mtl
o piece
v -0.450000 -0.000000 -0.062500
v -0.378000 0.000000 -0.062500
v -0.450000 -0.044194 -0.044194
v -0.378000 -0.044194 -0.044194
v -0.450000 -0.062500 0.000000
v -0.378000 -0.062500 0.000000
v -0.450000 -0.044194 0.044194
v -0.378000 -0.044194 0.044194
v -0.450000 -0.000000 0.062500
v -0.378000 0.000000 0.062500
v -0.450000 0.044194 0.044194
v -0.378000 0.044194 0.044194
v -0.450000 0.062500 0.000000
v -0.378000 0.062500 0.000000
v -0.450000 0.044194 -0.044194
v -0.378000 0.044194 -0.044194
v -0.378000 -0.000000 -0.050000
v -0.330060 0.000000 -0.050000
v -0.378000 -0.035355 -0.035355
v -0.330060 -0.035355 -0.035355
v -0.378000 -0.050000 0.000000
v -0.330060 -0.050000 0.000000
v -0.378000 -0.035355 0.035355
v -0.330060 -0.035355 0.035355
v -0.378000 -0.000000 0.050000
v -0.330060 0.000000 0.050000
v -0.378000 0.035355 0.035355
v -0.330060 0.035355 0.035355
v -0.378000 0.050000 0.000000
v -0.330060 0.050000 0.000000
v -0.378000 0.035355 -0.035355
v -0.330060 0.035355 -0.035355
v -0.330060 -0.000000 -0.035000
v -0.293278 0.000000 -0.035000
v -0.330060 -0.024749 -0.024749
v -0.293278 -0.024749 -0.024749
v -0.330060 -0.035000 0.000000
v -0.293278 -0.035000 0.000000
v -0.330060 -0.024749 0.024749
v -0.293278 -0.024749 0.024749
v -0.330060 -0.000000 0.035000
v -0.293278 0.000000 0.035000
v -0.330060 0.024749 0.024749
v -0.293278 0.024749 0.024749
v -0.330060 0.035000 0.000000
v -0.293278 0.035000 0.000000
v -0.330060 0.024749 -0.024749
v -0.293278 0.024749 -0.024749
v -0.293278 -0.000000 -0.050000
v -0.241030 0.000000 -0.050000
v -0.293278 -0.035355 -0.035355
v -0.241030 -0.035355 -0.035355
v -0.293278 -0.050000 0.000000
v -0.241030 -0.050000 0.000000
v -0.293278 -0.035355 0.035355
v -0.241030 -0.035355 0.035355
v -0.293278 -0.000000 0.050000
v -0.241030 0.000000 0.050000
v -0.293278 0.035355 0.035355
v -0.241030 0.035355 0.035355
v -0.293278 0.050000 0.000000
v -0.241030 0.050000 0.000000
v -0.293278 0.035355 -0.035355
v -0.241030 0.035355 -0.035355
v -0.241030 -0.000000 -0.035000
v -0.178723 0.000000 -0.035000
v -0.241030 -0.024749 -0.024749
v -0.178723 -0.024749 -0.024749
v -0.241030 -0.035000 0.000000
v -0.178723 -0.035000 0.000000
v -0.241030 -0.024749 0.024749
v -0.178723 -0.024749 0.024749
v -0.241030 -0.000000 0.035000
v -0.178723 0.000000 0.035000
v -0.241030 0.024749 0.024749
v -0.178723 0.024749 0.024749
v -0.241030 0.035000 0.000000
v -0.178723 0.035000 0.000000
v -0.241030 0.024749 -0.024749
v -0.178723 0.024749 -0.024749
v -0.178723 -0.000000 -0.050000
v -0.140489 0.000000 -0.050000
v -0.178723 -0.035355 -0.035355
v -0.140489 -0.035355 -0.035355
v -0.178723 -0.050000 0.000000
v -0.140489 -0.050000 0.000000
v -0.178723 -0.035355 0.035355
v -0.140489 -0.035355 0.035355
v -0.178723 -0.000000 0.050000
v -0.140489 0.000000 0.050000
v -0.178723 0.035355 0.035355
v -0.140489 0.035355 0.035355
v -0.178723 0.050000 0.000000
v -0.140489 0.050000 0.000000
v -0.178723 0.035355 -0.035355
v -0.140489 0.035355 -0.035355
v -0.140489 -0.000000 -0.035000
v -0.100404 0.000000 -0.035000
v -0.140489 -0.024749 -0.024749
v -0.100404 -0.024749 -0.024749
v -0.140489 -0.035000 0.000000
v -0.100404 -0.035000 0.000000
v -0.140489 -0.024749 0.024749
v -0.100404 -0.024749 0.024749
v -0.140489 -0.000000 0.035000
v -0.100404 0.000000 0.035000
v -0.140489 0.024749 0.024749
v -0.100404 0.024749 0.024749
v -0.140489 0.035000 0.000000
v -0.100404 0.035000 0.000000
v -0.140489 0.024749 -0.024749
v -0.100404 0.024749 -0.024749
v -0.100404 -0.000000 -0.050000
v -0.037716 0.000000 -0.050000
v -0.100404 -0.035355 -0.035355
v -0.037716 -0.035355 -0.035355
v -0.100404 -0.050000 0.000000
v -0.037716 -0.050000 0.000000
v -0.100404 -0.035355 0.035355
v -0.037716 -0.035355 0.035355
v -0.100404 -0.000000 0.050000
v -0.037716 0.000000 0.050000
v -0.100404 0.035355 0.035355
v -0.037716 0.035355 0.035355
v -0.100404 0.050000 0.000000
v -0.037716 0.050000 0.000000
v -0.100404 0.035355 -0.035355
v -0.037716 0.035355 -0.035355
v -0.037716 -0.000000 -0.035000
v 0.003322 0.000000 -0.035000
v -0.037716 -0.024749 -0.024749
v 0.003322 -0.024749 -0.024749
v -0.037716 -0.035000 0.000000
v 0.003322 -0.035000 0.000000
v -0.037716 -0.024749 0.024749
v 0.003322 -0.024749 0.024749
v -0.037716 -0.000000 0.035000
v 0.003322 0.000000 0.035000
v -0.037716 0.024749 0.024749
v 0.003322 0.024749 0.024749
v -0.037716 0.035000 0.000000
v 0.003322 0.035000 0.000000
v -0.037716 0.024749 -0.024749
v 0.003322 0.024749 -0.024749
v 0.003322 -0.000000 -0.050000
v 0.074124 0.000000 -0.050000
v 0.003322 -0.035355 -0.035355
v 0.074124 -0.035355 -0.035355
v 0.003322 -0.050000 0.000000
v 0.074124 -0.050000 0.000000
v 0.003322 -0.035355 0.035355
v 0.074124 -0.035355 0.035355
v 0.003322 -0.000000 0.050000
v 0.074124 0.000000 0.050000
v 0.003322 0.035355 0.035355
v 0.074124 0.035355 0.035355
v 0.003322 0.050000 0.000000
v 0.074124 0.050000 0.000000
v 0.003322 0.035355 -0.035355
v 0.074124 0.035355 -0.035355
v 0.074124 -0.000000 -0.035000
v 0.115920 0.000000 -0.035000
v 0.074124 -0.024749 -0.024749
v 0.115920 -0.024749 -0.024749
v 0.074124 -0.035000 0.000000
v 0.115920 -0.035000 0.000000
v 0.074124 -0.024749 0.024749
v 0.115920 -0.024749 0.024749
v 0.074124 -0.000000 0.035000
v 0.115920 0.000000 0.035000
v 0.074124 0.024749 0.024749
v 0.115920 0.024749 0.024749
v 0.074124 0.035000 0.000000
v 0.115920 0.035000 0.000000
v 0.074124 0.024749 -0.024749
v 0.115920 0.024749 -0.024749
v 0.115920 -0.000000 -0.050000
v 0.177561 0.000000 -0.050000
v 0.115920 -0.035355 -0.035355
v 0.177561 -0.035355 -0.035355
v 0.115920 -0.050000 0.000000
v 0.177561 -0.050000 0.000000
v 0.115920 -0.035355 0.035355
v 0.177561 -0.035355 0.035355
v 0.115920 -0.000000 0.050000
v 0.177561 0.000000 0.050000
v 0.115920 0.035355 0.035355
v 0.177561 0.035355 0.035355
v 0.115920 0.050000 0.000000
v 0.177561 0.050000 0.000000
v 0.115920 0.035355 -0.035355
v 0.177561 0.035355 -0.035355
v 0.177561 -0.000000 -0.035000
v 0.232992 0.000000 -0.035000
v 0.177561 -0.024749 -0.024749
v 0.232992 -0.024749 -0.024749
v 0.177561 -0.035000 0.000000
v 0.232992 -0.035000 0.000000
v 0.177561 -0.024749 0.024749
v 0.232992 -0.024749 0.024749
v 0.177561 -0.000000 0.035000
v 0.232992 0.000000 0.035000
v 0.177561 0.024749 0.024749
v 0.232992 0.024749 0.024749
v 0.177561 0.035000 0.000000
v 0.232992 0.035000 0.000000
v 0.177561 0.024749 -0.024749
v 0.232992 0.024749 -0.024749
v 0.232992 -0.000000 -0.050000
v 0.270231 0.000000 -0.050000
v 0.232992 -0.035355 -0.035355
v 0.270231 -0.035355 -0.035355
v 0.232992 -0.050000 0.000000
v 0.270231 -0.050000 0.000000
v 0.232992 -0.035355 0.035355
v 0.270231 -0.035355 0.035355
v 0.232992 -0.000000 0.050000
v 0.270231 0.000000 0.050000
v 0.232992 0.035355 0.035355
v 0.270231 0.035355 0.035355
v 0.232992 0.050000 0.000000
v 0.270231 0.050000 0.000000
v 0.232992 0.035355 -0.035355
v 0.270231 0.035355 -0.035355
v 0.270231 -0.000000 -0.035000
v 0.315736 0.000000 -0.035000
v 0.270231 -0.024749 -0.024749
v 0.315736 -0.024749 -0.024749
v 0.270231 -0.035000 0.000000
v 0.315736 -0.035000 0.000000
v 0.270231 -0.024749 0.024749
v 0.315736 -0.024749 0.024749
v 0.270231 -0.000000 0.035000
v 0.315736 0.000000 0.035000
v 0.270231 0.024749 0.024749
v 0.315736 0.024749 0.024749
v 0.270231 0.035000 0.000000
v 0.315736 0.035000 0.000000
v 0.270231 0.024749 -0.024749
v 0.315736 0.024749 -0.024749
v 0.315736 -0.000000 -0.050000
v 0.378000 0.000000 -0.050000
v 0.315736 -0.035355 -0.035355
v 0.378000 -0.035355 -0.035355
v 0.315736 -0.050000 0.000000
v 0.378000 -0.050000 0.000000
v 0.315736 -0.035355 0.035355
v 0.378000 -0.035355 0.035355
v 0.315736 -0.000000 0.050000
v 0.378000 0.000000 0.050000
v 0.315736 0.035355 0.035355
v 0.378000 0.035355 0.035355
v 0.315736 0.050000 0.000000
v 0.378000 0.050000 0.000000
v 0.315736 0.035355 -0.035355
v 0.378000 0.035355 -0.035355
v 0.378000 -0.000000 -0.062500
v 0.450000 0.000000 -0.062500
v 0.378000 -0.044194 -0.044194
v 0.450000 -0.044194 -0.044194
v 0.378000 -0.062500 0.000000
v 0.450000 -0.062500 0.000000
v 0.378000 -0.044194 0.044194
v 0.450000 -0.044194 0.044194
v 0.378000 -0.000000 0.062500
v 0.450000 0.000000 0.062500
v 0.378000 0.044194 0.044194
v 0.450000 0.044194 0.044194
v 0.378000 0.062500 0.000000
v 0.450000 0.062500 0.000000
v 0.378000 0.044194 -0.044194
v 0.450000 0.044194 -0.044194
vn -0.0000 -0.9239 -0.3827
vn -0.0000 -0.3827 -0.9239
vn -0.0000 0.3827 0.9239
vn -0.0000 -0.3827 0.9239
vn -0.0000 -0.9239 0.3827
vn -0.0000 0.9239 0.3827
vn 1.0000 -0.0000 -0.0000
vn -0.0000 0.9239 -0.3827
vn -0.0000 0.3827 -0.9239
vn -1.0000 -0.0000 -0.0000
vt 0.125000 0.625000
vt 0.875000 0.625000
vt 0.125000 0.125000
s 0
usemtl ruins_find_rod
f 52/1/1 53/1/1 51/1/1
f 2/2/2 3/2/2 1/2/2
f 26/1/3 27/1/3 25/1/3
f 20/1/1 21/1/1 19/1/1
f 3/2/1 6/2/1 5/2/1
f 24/1/4 25/1/4 23/1/4
f 104/3/4 105/3/4 103/3/4
f 6/2/5 7/2/5 5/2/5
f 87/1/4 90/1/4 89/1/4
f 82/1/2 83/1/2 81/1/2
f 8/2/4 9/2/4 7/2/4
f 58/1/3 59/1/3 57/1/3
f 18/1/2 19/1/2 17/1/2
f 10/2/3 11/2/3 9/2/3
f 21/1/5 24/1/5 23/1/5
f 49/1/2 52/1/2 51/1/2
f 12/2/6 13/2/6 11/2/6
f 8/2/7 6/2/7 14/2/7
f 56/1/4 57/1/4 55/1/4
f 14/2/8 15/2/8 13/2/8
f 33/3/2 36/3/2 35/3/2
f 40/3/4 41/3/4 39/3/4
f 16/2/9 1/2/9 15/2/9
f 13/2/10 15/2/10 7/2/10
f 98/3/2 99/3/2 97/3/2
f 38/3/5 39/3/5 37/3/5
f 27/1/6 30/1/6 29/1/6
f 119/1/4 122/1/4 121/1/4
f 17/1/10 19/1/10 27/1/10
f 30/1/8 31/1/8 29/1/8
f 35/3/1 38/3/1 37/3/1
f 42/3/3 43/3/3 41/3/3
f 32/1/9 17/1/9 31/1/9
f 18/1/7 32/1/7 30/1/7
f 54/1/5 55/1/5 53/1/5
f 136/3/4 137/3/4 135/3/4
f 44/3/6 45/3/6 43/3/6
f 48/3/7 44/3/7 40/3/7
f 114/1/2 115/1/2 113/1/2
f 45/3/8 48/3/8 47/3/8
f 66/3/2 67/3/2 65/3/2
f 72/3/4 73/3/4 71/3/4
f 47/3/9 34/3/9 33/3/9
f 45/3/10 33/3/10 37/3/10
f 152/1/4 153/1/4 151/1/4
f 70/3/5 71/3/5 69/3/5
f 60/1/6 61/1/6 59/1/6
f 129/3/2 132/3/2 131/3/2
f 61/1/10 49/1/10 53/1/10
f 61/1/8 64/1/8 63/1/8
f 68/3/1 69/3/1 67/3/1
f 73/3/3 76/3/3 75/3/3
f 63/1/9 50/1/9 49/1/9
f 64/1/7 62/1/7 60/1/7
f 168/3/4 169/3/4 167/3/4
f 86/1/5 87/1/5 85/1/5
f 76/3/6 77/3/6 75/3/6
f 146/1/2 147/1/2 145/1/2
f 73/3/10 77/3/10 65/3/10
f 78/3/8 79/3/8 77/3/8
f 84/1/1 85/1/1 83/1/1
f 89/1/3 92/1/3 91/1/3
f 80/3/9 65/3/9 79/3/9
f 68/3/7 80/3/7 76/3/7
f 184/1/4 185/1/4 183/1/4
f 102/3/5 103/3/5 101/3/5
f 92/1/6 93/1/6 91/1/6
f 161/3/2 164/3/2 163/3/2
f 83/1/10 85/1/10 87/1/10
f 94/1/8 95/1/8 93/1/8
f 99/3/1 102/3/1 101/3/1
f 106/3/3 107/3/3 105/3/3
f 96/1/9 81/1/9 95/1/9
f 94/1/7 92/1/7 84/1/7
f 200/3/4 201/3/4 199/3/4
f 118/1/5 119/1/5 117/1/5
f 108/3/6 109/3/6 107/3/6
f 177/1/2 180/1/2 179/1/2
f 97/3/10 101/3/10 105/3/10
f 110/3/8 111/3/8 109/3/8
f 115/1/1 118/1/1 117/1/1
f 122/1/3 123/1/3 121/1/3
f 112/3/9 97/3/9 111/3/9
f 100/3/7 112/3/7 108/3/7
f 216/1/4 217/1/4 215/1/4
f 134/3/5 135/3/5 133/3/5
f 124/1/6 125/1/6 123/1/6
f 194/3/2 195/3/2 193/3/2
f 117/1/10 121/1/10 125/1/10
f 126/1/8 127/1/8 125/1/8
f 132/3/1 133/3/1 131/3/1
f 138/3/3 139/3/3 137/3/3
f 128/1/9 113/1/9 127/1/9
f 126/1/7 124/1/7 116/1/7
f 232/3/4 233/3/4 231/3/4
f 150/1/5 151/1/5 149/1/5
f 139/3/6 142/3/6 141/3/6
f 210/1/2 211/1/2 209/1/2
f 129/3/10 133/3/10 137/3/10
f 142/3/8 143/3/8 141/3/8
f 148/1/1 149/1/1 147/1/1
f 154/1/3 155/1/3 153/1/3
f 143/3/9 130/3/9 129/3/9
f 132/3/7 144/3/7 140/3/7
f 248/1/4 249/1/4 247/1/4
f 166/3/5 167/3/5 165/3/5
f 156/1/6 157/1/6 155/1/6
f 226/3/2 227/3/2 225/3/2
f 153/1/10 157/1/10 145/1/10
f 158/1/8 159/1/8 157/1/8
f 163/3/1 166/3/1 165/3/1
f 170/3/3 171/3/3 169/3/3
f 159/1/9 146/1/9 145/1/9
f 158/1/7 156/1/7 148/1/7
f 264/2/4 265/2/4 263/2/4
f 182/1/5 183/1/5 181/1/5
f 172/3/6 173/3/6 171/3/6
f 242/1/2 243/1/2 241/1/2
f 161/3/10 165/3/10 169/3/10
f 173/3/8 176/3/8 175/3/8
f 179/1/1 182/1/1 181/1/1
f 186/1/3 187/1/3 185/1/3
f 175/3/9 162/3/9 161/3/9
f 164/3/7 176/3/7 172/3/7
f 198/3/5 199/3/5 197/3/5
f 188/1/6 189/1/6 187/1/6
f 258/2/2 259/2/2 257/2/2
f 185/1/10 189/1/10 177/1/10
f 190/1/8 191/1/8 189/1/8
f 196/3/1 197/3/1 195/3/1
f 202/3/3 203/3/3 201/3/3
f 192/1/9 177/1/9 191/1/9
f 190/1/7 188/1/7 180/1/7
f 214/1/5 215/1/5 213/1/5
f 204/3/6 205/3/6 203/3/6
f 201/3/10 205/3/10 193/3/10
f 206/3/8 207/3/8 205/3/8
f 212/1/1 213/1/1 211/1/1
f 217/1/3 220/1/3 219/1/3
f 208/3/9 193/3/9 207/3/9
f 196/3/7 208/3/7 204/3/7
f 230/3/5 231/3/5 229/3/5
f 220/1/6 221/1/6 219/1/6
f 213/1/10 217/1/10 221/1/10
f 222/1/8 223/1/8 221/1/8
f 228/3/1 229/3/1 227/3/1
f 234/3/3 235/3/3 233/3/3
f 224/1/9 209/1/9 223/1/9
f 222/1/7 220/1/7 212/1/7
f 246/1/5 247/1/5 245/1/5
f 236/3/6 237/3/6 235/3/6
f 225/3/10 229/3/10 233/3/10
f 238/3/8 239/3/8 237/3/8
f 244/1/1 245/1/1 243/1/1
f 250/1/3 251/1/3 249/1/3
f 240/3/9 225/3/9 239/3/9
f 228/3/7 240/3/7 236/3/7
f 262/2/5 263/2/5 261/2/5
f 252/1/6 253/1/6 251/1/6
f 249/1/10 253/1/10 241/1/10
f 254/1/8 255/1/8 253/1/8
f 259/2/1 262/2/1 261/2/1
f 266/2/3 267/2/3 265/2/3
f 256/1/9 241/1/9 255/1/9
f 254/1/7 252/1/7 244/1/7
f 268/2/6 269/2/6 267/2/6
f 261/2/10 265/2/10 269/2/10
f 269/2/8 272/2/8 271/2/8
f 272/2/9 257/2/9 271/2/9
f 270/2/7 268/2/7 260/2/7
f 52/1/1 54/1/1 53/1/1
f 2/2/2 4/2/2 3/2/2
f 26/1/3 28/1/3 27/1/3
f 20/1/1 22/1/1 21/1/1
f 3/2/1 4/2/1 6/2/1
f 24/1/4 26/1/4 25/1/4
f 104/3/4 106/3/4 105/3/4
f 6/2/5 8/2/5 7/2/5
f 87/1/4 88/1/4 90/1/4
f 82/1/2 84/1/2 83/1/2
f 8/2/4 10/2/4 9/2/4
f 58/1/3 60/1/3 59/1/3
f 18/1/2 20/1/2 19/1/2
f 10/2/3 12/2/3 11/2/3
f 21/1/5 22/1/5 24/1/5
f 49/1/2 50/1/2 52/1/2
f 12/2/6 14/2/6 13/2/6
f 6/2/7 4/2/7 14/2/7
f 4/2/7 2/2/7 14/2/7
f 2/2/7 16/2/7 14/2/7
f 14/2/7 12/2/7 10/2/7
f 10/2/7 8/2/7 14/2/7
f 56/1/4 58/1/4 57/1/4
f 14/2/8 16/2/8 15/2/8
f 33/3/2 34/3/2 36/3/2
f 40/3/4 42/3/4 41/3/4
f 16/2/9 2/2/9 1/2/9
f 15/2/10 1/2/10 3/2/10
f 3/2/10 5/2/10 15/2/10
f 5/2/10 7/2/10 15/2/10
f 7/2/10 9/2/10 11/2/10
f 11/2/10 13/2/10 7/2/10
f 98/3/2 100/3/2 99/3/2
f 38/3/5 40/3/5 39/3/5
f 27/1/6 28/1/6 30/1/6
f 119/1/4 120/1/4 122/1/4
f 19/1/10 21/1/10 23/1/10
f 23/1/10 25/1/10 19/1/10
f 25/1/10 27/1/10 19/1/10
f 27/1/10 29/1/10 31/1/10
f 31/1/10 17/1/10 27/1/10
f 30/1/8 32/1/8 31/1/8
f 35/3/1 36/3/1 38/3/1
f 42/3/3 44/3/3 43/3/3
f 32/1/9 18/1/9 17/1/9
f 30/1/7 28/1/7 22/1/7
f 28/1/7 26/1/7 22/1/7
f 26/1/7 24/1/7 22/1/7
f 22/1/7 20/1/7 30/1/7
f 20/1/7 18/1/7 30/1/7
f 54/1/5 56/1/5 55/1/5
f 136/3/4 138/3/4 137/3/4
f 44/3/6 46/3/6 45/3/6
f 40/3/7 38/3/7 36/3/7
f 36/3/7 34/3/7 48/3/7
f 48/3/7 46/3/7 44/3/7
f 44/3/7 42/3/7 40/3/7
f 40/3/7 36/3/7 48/3/7
f 114/1/2 116/1/2 115/1/2
f 45/3/8 46/3/8 48/3/8
f 66/3/2 68/3/2 67/3/2
f 72/3/4 74/3/4 73/3/4
f 47/3/9 48/3/9 34/3/9
f 37/3/10 39/3/10 41/3/10
f 41/3/10 43/3/10 45/3/10
f 45/3/10 47/3/10 33/3/10
f 33/3/10 35/3/10 37/3/10
f 37/3/10 41/3/10 45/3/10
f 152/1/4 154/1/4 153/1/4
f 70/3/5 72/3/5 71/3/5
f 60/1/6 62/1/6 61/1/6
f 129/3/2 130/3/2 132/3/2
f 53/1/10 55/1/10 57/1/10
f 57/1/10 59/1/10 61/1/10
f 61/1/10 63/1/10 49/1/10
f 49/1/10 51/1/10 53/1/10
f 53/1/10 57/1/10 61/1/10
f 61/1/8 62/1/8 64/1/8
f 68/3/1 70/3/1 69/3/1
f 73/3/3 74/3/3 76/3/3
f 63/1/9 64/1/9 50/1/9
f 60/1/7 58/1/7 52/1/7
f 58/1/7 56/1/7 52/1/7
f 56/1/7 54/1/7 52/1/7
f 52/1/7 50/1/7 60/1/7
f 50/1/7 64/1/7 60/1/7
f 168/3/4 170/3/4 169/3/4
f 86/1/5 88/1/5 87/1/5
f 76/3/6 78/3/6 77/3/6
f 146/1/2 148/1/2 147/1/2
f 65/3/10 67/3/10 69/3/10
f 69/3/10 71/3/10 73/3/10
f 73/3/10 75/3/10 77/3/10
f 77/3/10 79/3/10 65/3/10
f 65/3/10 69/3/10 73/3/10
f 78/3/8 80/3/8 79/3/8
f 84/1/1 86/1/1 85/1/1
f 89/1/3 90/1/3 92/1/3
f 80/3/9 66/3/9 65/3/9
f 76/3/7 74/3/7 72/3/7
f 72/3/7 70/3/7 68/3/7
f 68/3/7 66/3/7 80/3/7
f 80/3/7 78/3/7 76/3/7
f 76/3/7 72/3/7 68/3/7
f 184/1/4 186/1/4 185/1/4
f 102/3/5 104/3/5 103/3/5
f 92/1/6 94/1/6 93/1/6
f 161/3/2 162/3/2 164/3/2
f 87/1/10 89/1/10 95/1/10
f 89/1/10 91/1/10 95/1/10
f 91/1/10 93/1/10 95/1/10
f 95/1/10 81/1/10 87/1/10
f 81/1/10 83/1/10 87/1/10
f 94/1/8 96/1/8 95/1/8
f 99/3/1 100/3/1 102/3/1
f 106/3/3 108/3/3 107/3/3
f 96/1/9 82/1/9 81/1/9
f 92/1/7 90/1/7 88/1/7
f 88/1/7 86/1/7 92/1/7
f 86/1/7 84/1/7 92/1/7
f 84/1/7 82/1/7 96/1/7
f 96/1/7 94/1/7 84/1/7
f 200/3/4 202/3/4 201/3/4
f 118/1/5 120/1/5 119/1/5
f 108/3/6 110/3/6 109/3/6
f 177/1/2 178/1/2 180/1/2
f 97/3/10 99/3/10 101/3/10
f 101/3/10 103/3/10 105/3/10
f 105/3/10 107/3/10 97/3/10
f 107/3/10 109/3/10 97/3/10
f 109/3/10 111/3/10 97/3/10
f 110/3/8 112/3/8 111/3/8
f 115/1/1 116/1/1 118/1/1
f 122/1/3 124/1/3 123/1/3
f 112/3/9 98/3/9 97/3/9
f 108/3/7 106/3/7 104/3/7
f 104/3/7 102/3/7 100/3/7
f 100/3/7 98/3/7 112/3/7
f 112/3/7 110/3/7 108/3/7
f 108/3/7 104/3/7 100/3/7
f 216/1/4 218/1/4 217/1/4
f 134/3/5 136/3/5 135/3/5
f 124/1/6 126/1/6 125/1/6
f 194/3/2 196/3/2 195/3/2
f 113/1/10 115/1/10 117/1/10
f 117/1/10 119/1/10 121/1/10
f 121/1/10 123/1/10 125/1/10
f 125/1/10 127/1/10 113/1/10
f 113/1/10 117/1/10 125/1/10
f 126/1/8 128/1/8 127/1/8
f 132/3/1 134/3/1 133/3/1
f 138/3/3 140/3/3 139/3/3
f 128/1/9 114/1/9 113/1/9
f 124/1/7 122/1/7 120/1/7
f 120/1/7 118/1/7 124/1/7
f 118/1/7 116/1/7 124/1/7
f 116/1/7 114/1/7 128/1/7
f 128/1/7 126/1/7 116/1/7
f 232/3/4 234/3/4 233/3/4
f 150/1/5 152/1/5 151/1/5
f 139/3/6 140/3/6 142/3/6
f 210/1/2 212/1/2 211/1/2
f 129/3/10 131/3/10 133/3/10
f 133/3/10 135/3/10 137/3/10
f 137/3/10 139/3/10 129/3/10
f 139/3/10 141/3/10 129/3/10
f 141/3/10 143/3/10 129/3/10
f 142/3/8 144/3/8 143/3/8
f 148/1/1 150/1/1 149/1/1
f 154/1/3 156/1/3 155/1/3
f 143/3/9 144/3/9 130/3/9
f 140/3/7 138/3/7 136/3/7
f 136/3/7 134/3/7 132/3/7
f 132/3/7 130/3/7 144/3/7
f 144/3/7 142/3/7 140/3/7
f 140/3/7 136/3/7 132/3/7
f 248/1/4 250/1/4 249/1/4
f 166/3/5 168/3/5 167/3/5
f 156/1/6 158/1/6 157/1/6
f 226/3/2 228/3/2 227/3/2
f 145/1/10 147/1/10 149/1/10
f 149/1/10 151/1/10 153/1/10
f 153/1/10 155/1/10 157/1/10
f 157/1/10 159/1/10 145/1/10
f 145/1/10 149/1/10 153/1/10
f 158/1/8 160/1/8 159/1/8
f 163/3/1 164/3/1 166/3/1
f 170/3/3 172/3/3 171/3/3
f 159/1/9 160/1/9 146/1/9
f 156/1/7 154/1/7 152/1/7
f 152/1/7 150/1/7 156/1/7
f 150/1/7 148/1/7 156/1/7
f 148/1/7 146/1/7 160/1/7
f 160/1/7 158/1/7 148/1/7
f 264/2/4 266/2/4 265/2/4
f 182/1/5 184/1/5 183/1/5
f 172/3/6 174/3/6 173/3/6
f 242/1/2 244/1/2 243/1/2
f 161/3/10 163/3/10 165/3/10
f 165/3/10 167/3/10 169/3/10
f 169/3/10 171/3/10 161/3/10
f 171/3/10 173/3/10 161/3/10
f 173/3/10 175/3/10 161/3/10
f 173/3/8 174/3/8 176/3/8
f 179/1/1 180/1/1 182/1/1
f 186/1/3 188/1/3 187/1/3
f 175/3/9 176/3/9 162/3/9
f 172/3/7 170/3/7 168/3/7
f 168/3/7 166/3/7 164/3/7
f 164/3/7 162/3/7 176/3/7
f 176/3/7 174/3/7 172/3/7
f 172/3/7 168/3/7 164/3/7
f 198/3/5 200/3/5 199/3/5
f 188/1/6 190/1/6 189/1/6
f 258/2/2 260/2/2 259/2/2
f 177/1/10 179/1/10 181/1/10
f 181/1/10 183/1/10 185/1/10
f 185/1/10 187/1/10 189/1/10
f 189/1/10 191/1/10 177/1/10
f 177/1/10 181/1/10 185/1/10
f 190/1/8 192/1/8 191/1/8
f 196/3/1 198/3/1 197/3/1
f 202/3/3 204/3/3 203/3/3
f 192/1/9 178/1/9 177/1/9
f 188/1/7 186/1/7 184/1/7
f 184/1/7 182/1/7 188/1/7
f 182/1/7 180/1/7 188/1/7
f 180/1/7 178/1/7 192/1/7
f 192/1/7 190/1/7 180/1/7
f 214/1/5 216/1/5 215/1/5
f 204/3/6 206/3/6 205/3/6
f 193/3/10 195/3/10 201/3/10
f 195/3/10 197/3/10 201/3/10
f 197/3/10 199/3/10 201/3/10
f 201/3/10 203/3/10 205/3/10
f 205/3/10 207/3/10 193/3/10
f 206/3/8 208/3/8 207/3/8
f 212/1/1 214/1/1 213/1/1
f 217/1/3 218/1/3 220/1/3
f 208/3/9 194/3/9 193/3/9
f 204/3/7 202/3/7 200/3/7
f 200/3/7 198/3/7 196/3/7
f 196/3/7 194/3/7 208/3/7
f 208/3/7 206/3/7 204/3/7
f 204/3/7 200/3/7 196/3/7
f 230/3/5 232/3/5 231/3/5
f 220/1/6 222/1/6 221/1/6
f 209/1/10 211/1/10 213/1/10
f 213/1/10 215/1/10 217/1/10
f 217/1/10 219/1/10 221/1/10
f 221/1/10 223/1/10 209/1/10
f 209/1/10 213/1/10 221/1/10
f 222/1/8 224/1/8 223/1/8
f 228/3/1 230/3/1 229/3/1
f 234/3/3 236/3/3 235/3/3
f 224/1/9 210/1/9 209/1/9
f 220/1/7 218/1/7 216/1/7
f 216/1/7 214/1/7 220/1/7
f 214/1/7 212/1/7 220/1/7
f 212/1/7 210/1/7 224/1/7
f 224/1/7 222/1/7 212/1/7
f 246/1/5 248/1/5 247/1/5
f 236/3/6 238/3/6 237/3/6
f 225/3/10 227/3/10 229/3/10
f 229/3/10 231/3/10 233/3/10
f 233/3/10 235/3/10 225/3/10
f 235/3/10 237/3/10 225/3/10
f 237/3/10 239/3/10 225/3/10
f 238/3/8 240/3/8 239/3/8
f 244/1/1 246/1/1 245/1/1
f 250/1/3 252/1/3 251/1/3
f 240/3/9 226/3/9 225/3/9
f 236/3/7 234/3/7 232/3/7
f 232/3/7 230/3/7 228/3/7
f 228/3/7 226/3/7 240/3/7
f 240/3/7 238/3/7 236/3/7
f 236/3/7 232/3/7 228/3/7
f 262/2/5 264/2/5 263/2/5
f 252/1/6 254/1/6 253/1/6
f 241/1/10 243/1/10 245/1/10
f 245/1/10 247/1/10 249/1/10
f 249/1/10 251/1/10 253/1/10
f 253/1/10 255/1/10 241/1/10
f 241/1/10 245/1/10 249/1/10
f 254/1/8 256/1/8 255/1/8
f 259/2/1 260/2/1 262/2/1
f 266/2/3 268/2/3 267/2/3
f 256/1/9 242/1/9 241/1/9
f 252/1/7 250/1/7 248/1/7
f 248/1/7 246/1/7 252/1/7
f 246/1/7 244/1/7 252/1/7
f 244/1/7 242/1/7 256/1/7
f 256/1/7 254/1/7 244/1/7
f 268/2/6 270/2/6 269/2/6
f 257/2/10 259/2/10 261/2/10
f 261/2/10 263/2/10 265/2/10
f 265/2/10 267/2/10 269/2/10
f 269/2/10 271/2/10 257/2/10
f 257/2/10 261/2/10 269/2/10
f 269/2/8 270/2/8 272/2/8
f 272/2/9 258/2/9 257/2/9
f 268/2/7 266/2/7 264/2/7
f 264/2/7 262/2/7 268/2/7
f 262/2/7 260/2/7 268/2/7
f 260/2/7 258/2/7 272/2/7
f 272/2/7 270/2/7 260/2/7
