# Blender 5.2.2 LTS
# www.blender.org
mtllib ruins_tg_pillar_a.mtl
o piece
v -0.774340 1.623416 -0.768449
v -0.774340 -0.849477 -0.768449
v -0.774340 -2.545439 -0.768449
v -0.774340 2.545439 -0.768449
v 0.774340 1.858057 0.207975
v 0.274340 0.954597 -0.317967
v 0.274340 -0.849477 -0.317967
v 0.774340 -1.508533 0.207975
v 0.774340 1.858057 -0.768449
v 0.274340 0.954597 -0.768449
v 0.274340 -0.849477 -0.768449
v 0.774340 -1.508533 -0.768449
v 0.774340 -2.545439 0.207975
v 0.774340 -2.545439 -0.768449
v 0.774340 2.545439 -0.768449
v 0.774340 2.545439 0.207974
v 0.213865 1.858057 0.768450
v -0.312077 0.954597 0.268450
v -0.312077 -0.849477 0.268450
v 0.213865 -1.508533 0.768450
v -0.774340 1.858057 0.768450
v -0.774340 0.954597 0.268450
v -0.774340 -0.849477 0.268450
v -0.774340 -1.508533 0.768450
v 0.213865 -2.545439 0.768450
v -0.774340 -2.545439 0.768450
v -0.774340 2.545439 0.768450
v 0.213865 2.545439 0.768450
v -0.774340 1.623416 0.739403
v 0.183310 1.623416 0.739403
v 0.745293 1.623416 0.177420
v 0.745293 1.623416 -0.768449
v -0.774340 0.954597 -0.768450
v 0.274340 -0.742943 -0.317967
v 0.274340 -0.742943 -0.768449
v -0.774340 -0.742943 -0.768449
v -0.774340 -0.742943 0.268450
v -0.312077 -0.742943 0.268450
v 0.274340 0.860050 -0.317967
v 0.274340 0.860050 -0.768449
v -0.774340 0.860050 -0.768450
v -0.774340 0.860050 0.268450
v -0.312077 0.860050 0.268450
v 0.341035 0.799826 -0.290206
v 0.341035 -0.656849 -0.290206
v 0.352590 0.799826 -0.768449
v 0.352590 -0.656849 -0.768449
v -0.774340 0.799826 0.346700
v -0.284316 0.799826 0.335144
v -0.774340 -0.656849 0.346700
v -0.284316 -0.656849 0.335144
vn 0.9924 -0.1229 -0.0000
vn 1.0000 -0.0000 -0.0000
vn 0.7967 0.6044 -0.0000
vn -1.0000 -0.0000 -0.0000
vn -0.0000 -0.0000 -1.0000
vn 0.7071 -0.0000 0.7071
vn 0.6960 -0.1768 0.6960
vn 0.4755 0.7402 0.4755
vn -0.0000 -1.0000 -0.0000
vn -0.0000 -0.1229 0.9924
vn -0.0000 -0.0000 1.0000
vn -0.0000 0.6044 0.7967
vn -0.0000 1.0000 -0.0000
vn -0.0000 -0.5757 0.8176
vn 0.4946 -0.7146 0.4946
vn 0.8176 -0.5757 -0.0000
vn 0.9997 -0.0000 0.0242
vn 0.0236 -0.0000 0.9997
vn 0.4735 0.7427 0.4735
vn 0.6099 0.7925 -0.0000
vn 0.7874 -0.6161 0.0190
vn 0.0157 0.7453 0.6665
vn -0.0000 -0.6726 0.7400
vn 0.5587 -0.6130 0.5587
vn 0.6664 0.7454 0.0161
vn 0.7400 -0.6726 -0.0000
vn -0.0000 0.7925 0.6099
vn 0.0186 -0.6160 0.7875
vt 0.875000 0.625000
vt 0.125000 0.875000
vt 0.625000 0.875000
vt 0.125000 0.625000
s 0
usemtl ruins_tg_pillar_a
f 31/1/1 9/1/1 5/1/1
f 39/2/2 10/2/2 6/2/2
f 7/3/3 12/3/3 11/3/3
f 13/3/2 12/3/2 8/3/2
f 9/1/2 16/1/2 5/1/2
f 23/3/4 2/3/4 3/3/4
f 4/1/5 15/1/5 9/1/5
f 1/4/5 10/4/5 33/4/5
f 21/1/4 27/1/4 4/1/4
f 5/1/6 28/1/6 17/1/6
f 31/1/7 17/1/7 30/1/7
f 6/2/6 43/2/6 39/2/6
f 7/3/8 20/3/8 8/3/8
f 13/3/6 20/3/6 25/3/6
f 3/3/9 14/3/9 13/3/9
f 21/1/10 30/1/10 17/1/10
f 22/2/11 43/2/11 18/2/11
f 19/3/12 24/3/12 20/3/12
f 24/3/11 25/3/11 20/3/11
f 17/1/11 27/1/11 21/1/11
f 16/1/13 15/1/13 4/1/13
f 41/1/5 47/1/5 36/1/5
f 22/4/4 1/4/4 33/4/4
f 29/4/14 18/4/14 30/4/14
f 6/4/15 30/4/15 18/4/15
f 32/4/16 6/4/16 10/4/16
f 41/2/5 10/2/5 40/2/5
f 22/2/4 41/2/4 42/2/4
f 7/2/6 38/2/6 19/2/6
f 34/2/2 11/2/2 35/2/2
f 2/2/5 35/2/5 11/2/5
f 37/2/4 2/2/4 23/2/4
f 37/2/11 19/2/11 38/2/11
f 44/1/6 51/1/6 45/1/6
f 44/1/17 47/1/17 46/1/17
f 3/3/5 11/3/5 12/3/5
f 48/1/18 51/1/18 49/1/18
f 39/1/19 49/1/19 44/1/19
f 39/1/20 46/1/20 40/1/20
f 34/1/21 47/1/21 45/1/21
f 43/1/22 48/1/22 49/1/22
f 38/1/23 50/1/23 37/1/23
f 51/1/24 34/1/24 45/1/24
f 41/1/4 36/1/4 50/1/4
f 31/1/1 32/1/1 9/1/1
f 39/2/2 40/2/2 10/2/2
f 7/3/3 8/3/3 12/3/3
f 13/3/2 14/3/2 12/3/2
f 9/1/2 15/1/2 16/1/2
f 3/3/4 26/3/4 24/3/4
f 24/3/4 23/3/4 3/3/4
f 32/1/5 1/1/5 9/1/5
f 1/1/5 4/1/5 9/1/5
f 1/4/5 32/4/5 10/4/5
f 4/1/4 1/1/4 21/1/4
f 1/1/4 29/1/4 21/1/4
f 5/1/6 16/1/6 28/1/6
f 31/1/7 5/1/7 17/1/7
f 6/2/6 18/2/6 43/2/6
f 7/3/8 19/3/8 20/3/8
f 13/3/6 8/3/6 20/3/6
f 13/3/9 25/3/9 3/3/9
f 25/3/9 26/3/9 3/3/9
f 21/1/10 29/1/10 30/1/10
f 22/2/11 42/2/11 43/2/11
f 19/3/12 23/3/12 24/3/12
f 24/3/11 26/3/11 25/3/11
f 17/1/11 28/1/11 27/1/11
f 27/1/13 28/1/13 4/1/13
f 28/1/13 16/1/13 4/1/13
f 41/1/5 40/1/5 46/1/5
f 46/1/5 47/1/5 41/1/5
f 47/1/5 35/1/5 36/1/5
f 22/4/4 29/4/4 1/4/4
f 29/4/14 22/4/14 18/4/14
f 6/4/15 31/4/15 30/4/15
f 32/4/16 31/4/16 6/4/16
f 41/2/5 33/2/5 10/2/5
f 22/2/4 33/2/4 41/2/4
f 7/2/6 34/2/6 38/2/6
f 34/2/2 7/2/2 11/2/2
f 2/2/5 36/2/5 35/2/5
f 37/2/4 36/2/4 2/2/4
f 37/2/11 23/2/11 19/2/11
f 44/1/6 49/1/6 51/1/6
f 44/1/17 45/1/17 47/1/17
f 12/3/5 14/3/5 3/3/5
f 3/3/5 2/3/5 11/3/5
f 48/1/18 50/1/18 51/1/18
f 39/1/19 43/1/19 49/1/19
f 39/1/25 44/1/25 46/1/25
f 34/1/26 35/1/26 47/1/26
f 43/1/27 42/1/27 48/1/27
f 38/1/28 51/1/28 50/1/28
f 51/1/24 38/1/24 34/1/24
f 36/1/4 37/1/4 50/1/4
f 50/1/4 48/1/4 41/1/4
f 48/1/4 42/1/4 41/1/4
