# Blender 5.2.2 LTS
# www.blender.org
mtllib ruins_hk_wall_b.mtl
o piece
v -2.500000 2.234313 -0.176543
v -2.500000 1.711961 0.190480
v 2.500000 2.234313 -0.176543
v 2.500000 1.711961 0.190480
v 2.500000 2.500000 -0.176543
v -2.500000 2.500000 -0.176543
v -2.500000 1.711961 -0.310378
v -2.500000 -2.500000 -0.310377
v 2.500000 -2.500000 -0.310377
v 2.500000 2.500000 -0.310378
v -2.500000 2.500000 -0.310378
v 2.500000 -0.323853 -0.310377
v 2.500000 -0.323853 0.190480
v -2.500000 -0.323853 0.190480
v -2.500000 -0.323853 -0.310377
v 1.500000 -0.323853 0.190480
v 1.221985 -0.759299 0.190480
v -1.500000 -0.323853 0.190480
v -2.500000 -0.843993 0.310378
v -2.500000 -1.503650 -0.056645
v -2.500000 -2.500000 -0.056645
v -1.500000 -0.323853 0.310378
v -2.500000 -0.323853 0.310378
v 1.500000 -0.323853 0.310378
v 2.500000 -0.323853 0.310378
v 2.500000 -0.843993 0.310378
v 2.500000 -1.503650 -0.056645
v 2.500000 -2.500000 -0.056645
v 1.221985 -0.759299 0.310378
v -2.151770 1.257673 0.190480
v -1.404898 -0.210986 0.190481
v -2.151770 -0.210986 0.190480
v 1.404898 -0.210986 0.190480
v 2.151770 1.257673 0.190480
v 2.151770 -0.210986 0.190480
v 1.144510 -0.585012 0.190480
v -2.107208 1.169629 0.084642
v -1.375803 -0.153969 0.084642
v -2.107208 -0.153969 0.084642
v 1.375803 -0.153969 0.084642
v 2.107205 1.169629 0.084642
v 2.107205 -0.153969 0.084642
v 1.120807 -0.496967 0.084642
v 1.882645 1.404085 0.190480
v 1.843655 1.316040 0.084642
v -1.882648 1.404085 0.190481
v -1.843658 1.316040 0.084642
v 0.750000 -1.103286 0.166111
v 0.750000 -0.843993 0.310378
v -1.350000 -0.558793 0.310377
v 0.750000 -0.759299 0.310377
v 0.750000 -0.759299 0.190480
v -1.350000 -0.558793 0.190480
v 0.750000 -0.585012 0.190480
v -1.350000 -0.289843 0.190481
v 0.750000 -0.496967 0.084642
v -1.350000 -0.202056 0.096449
v -1.350000 -0.188677 0.084642
v -1.350000 1.098722 0.084642
v 0.750000 -0.323853 -0.310377
v -1.350000 1.098722 -0.310378
v 0.750000 -1.103286 -0.310377
v 0.313097 1.711961 0.190480
v 0.313576 1.713436 0.189443
v 0.318112 1.711961 0.190480
v 1.086424 -0.116539 0.084642
v 0.184572 1.316040 0.084642
v 1.535519 1.316040 0.084642
v 1.549950 1.311347 0.084642
v 0.750000 -0.007129 0.084642
v 0.114026 1.098722 0.084642
v 0.213154 1.404085 0.190480
v 1.264793 1.404085 0.190480
v 0.313097 1.711961 -0.310378
v 0.313576 1.713436 -0.310378
v 1.086424 -0.116539 -0.310377
v 0.750000 -0.007129 -0.310377
v 1.549950 1.311347 -0.310378
v 0.114026 1.098722 -0.310378
v -1.524058 -0.843993 0.310378
v -0.482421 -1.103286 0.166111
v -1.238791 -1.456309 -0.030305
v -1.350000 -0.624706 0.310377
v -1.576886 -0.730601 0.310377
v -1.576886 -0.730601 -0.310377
v -1.350000 -0.624706 -0.310377
v -0.482421 -1.103286 -0.310377
v -1.238791 -1.456309 -0.310377
vn -0.0000 0.5749 0.8182
vn -0.0000 -0.0000 1.0000
vn -0.0000 -0.4862 0.8738
vn -1.0000 -0.0000 -0.0000
vn -0.0000 -1.0000 -0.0000
vn -0.0000 1.0000 -0.0000
vn 1.0000 -0.0000 -0.0000
vn -0.8429 0.5381 -0.0000
vn 0.8429 0.5381 -0.0000
vn 0.3553 -0.6396 0.6817
vn -0.0000 0.8804 0.4743
vn 0.9216 -0.0000 0.3880
vn -0.9216 -0.0000 0.3881
vn -0.6853 0.4771 0.5503
vn -0.0000 0.7688 0.6395
vn 0.7241 0.5041 0.4706
vn -0.0000 -0.0000 -1.0000
vn -0.3553 -0.6396 0.6817
vn -0.0000 -0.7688 0.6395
vn 0.9511 -0.3088 -0.0000
vn -0.9511 0.3088 -0.0000
vn 0.3093 0.9510 -0.0000
vn -0.3093 -0.9510 -0.0000
vn 0.9065 0.4223 -0.0000
vn -0.4229 0.9062 -0.0000
vn 0.4229 -0.9062 -0.0000
vn 0.3540 -0.6507 0.6717
vn -0.7055 0.5245 0.4765
vn 0.6648 0.4943 0.5601
vn -0.3540 -0.6507 0.6717
vt 0.375000 0.625000
vt 0.875000 0.375000
vt 0.125000 0.625000
vt 0.875000 0.625000
vt 0.875000 0.875000
vt 0.125000 0.125000
s 0
usemtl ruins_hk_wall_b
f 64/1/1 1/1/1 63/1/1
f 22/2/2 23/2/2 84/2/2
f 20/2/3 27/2/3 82/2/3
f 28/2/2 20/2/2 21/2/2
f 3/1/2 6/1/2 1/1/2
f 19/2/4 14/2/4 15/2/4
f 21/2/5 9/2/5 28/2/5
f 11/1/4 7/1/4 1/1/4
f 16/1/2 13/1/2 35/1/2
f 5/1/6 11/1/6 6/1/6
f 30/1/2 2/1/2 14/1/2
f 23/2/6 18/2/6 14/2/6
f 24/2/6 13/2/6 16/2/6
f 13/2/7 25/2/7 26/2/7
f 29/2/8 16/2/8 17/2/8
f 17/2/6 51/2/6 29/2/6
f 18/2/9 50/2/9 53/2/9
f 29/2/2 49/2/2 26/2/2
f 47/3/10 30/3/10 37/3/10
f 31/3/11 39/3/11 32/3/11
f 32/3/12 37/3/12 30/3/12
f 41/3/13 35/3/13 34/3/13
f 42/3/11 33/3/11 35/3/11
f 33/3/14 43/3/14 36/3/14
f 43/3/15 54/3/15 36/3/15
f 31/3/16 55/3/16 57/3/16
f 39/4/2 38/4/2 59/4/2
f 69/4/2 66/4/2 40/4/2
f 3/1/7 4/1/7 12/1/7
f 78/5/17 10/5/17 12/5/17
f 8/5/17 88/5/17 9/5/17
f 34/3/18 45/3/18 41/3/18
f 72/3/19 47/3/19 67/3/19
f 44/3/19 68/3/19 45/3/19
f 53/6/7 83/6/7 86/6/7
f 56/6/4 70/6/4 60/6/4
f 48/6/6 87/6/6 81/6/6
f 59/6/5 79/6/5 71/6/5
f 67/6/20 71/6/20 79/6/20
f 66/6/21 78/6/21 76/6/21
f 76/6/22 70/6/22 66/6/22
f 65/6/23 64/6/23 75/6/23
f 82/6/24 88/6/24 85/6/24
f 82/6/25 87/6/25 88/6/25
f 83/6/26 85/6/26 86/6/26
f 64/1/1 65/1/1 3/1/1
f 65/1/1 4/1/1 3/1/1
f 3/1/1 1/1/1 64/1/1
f 1/1/1 2/1/1 63/1/1
f 23/2/2 19/2/2 84/2/2
f 19/2/2 80/2/2 84/2/2
f 84/2/2 83/2/2 50/2/2
f 50/2/2 22/2/2 84/2/2
f 82/2/3 80/2/3 20/2/3
f 80/2/3 19/2/3 20/2/3
f 27/2/3 26/2/3 48/2/3
f 26/2/3 49/2/3 48/2/3
f 48/2/3 81/2/3 82/2/3
f 27/2/3 48/2/3 82/2/3
f 28/2/2 27/2/2 20/2/2
f 3/1/2 5/1/2 6/1/2
f 15/2/4 8/2/4 20/2/4
f 8/2/4 21/2/4 20/2/4
f 20/2/4 19/2/4 15/2/4
f 19/2/4 23/2/4 14/2/4
f 21/2/5 8/2/5 9/2/5
f 7/1/4 15/1/4 14/1/4
f 14/1/4 2/1/4 7/1/4
f 2/1/4 1/1/4 7/1/4
f 1/1/4 6/1/4 11/1/4
f 36/1/2 54/1/2 52/1/2
f 4/1/2 65/1/2 73/1/2
f 4/1/2 73/1/2 44/1/2
f 36/1/2 52/1/2 17/1/2
f 4/1/2 44/1/2 34/1/2
f 36/1/2 17/1/2 16/1/2
f 4/1/2 34/1/2 13/1/2
f 34/1/2 35/1/2 13/1/2
f 33/1/2 36/1/2 16/1/2
f 35/1/2 33/1/2 16/1/2
f 5/1/6 10/1/6 11/1/6
f 18/1/2 53/1/2 55/1/2
f 55/1/2 31/1/2 18/1/2
f 31/1/2 32/1/2 18/1/2
f 72/1/2 63/1/2 46/1/2
f 63/1/2 2/1/2 46/1/2
f 14/1/2 18/1/2 32/1/2
f 30/1/2 46/1/2 2/1/2
f 14/1/2 32/1/2 30/1/2
f 23/2/6 22/2/6 18/2/6
f 24/2/6 25/2/6 13/2/6
f 27/2/7 28/2/7 9/2/7
f 9/2/7 12/2/7 27/2/7
f 12/2/7 13/2/7 26/2/7
f 27/2/7 12/2/7 26/2/7
f 29/2/8 24/2/8 16/2/8
f 17/2/6 52/2/6 51/2/6
f 18/2/9 22/2/9 50/2/9
f 25/2/2 24/2/2 26/2/2
f 24/2/2 29/2/2 26/2/2
f 29/2/2 51/2/2 49/2/2
f 47/3/27 46/3/27 30/3/27
f 31/3/11 38/3/11 39/3/11
f 32/3/12 39/3/12 37/3/12
f 41/3/13 42/3/13 35/3/13
f 42/3/11 40/3/11 33/3/11
f 33/3/28 40/3/28 43/3/28
f 43/3/15 56/3/15 54/3/15
f 57/3/29 58/3/29 38/3/29
f 38/3/16 31/3/16 57/3/16
f 71/4/2 67/4/2 59/4/2
f 67/4/2 47/4/2 59/4/2
f 47/4/2 37/4/2 59/4/2
f 37/4/2 39/4/2 59/4/2
f 38/4/2 58/4/2 59/4/2
f 66/4/2 70/4/2 56/4/2
f 56/4/2 43/4/2 66/4/2
f 43/4/2 40/4/2 66/4/2
f 40/4/2 42/4/2 41/4/2
f 41/4/2 45/4/2 69/4/2
f 45/4/2 68/4/2 69/4/2
f 41/4/2 69/4/2 40/4/2
f 4/1/7 13/1/7 12/1/7
f 12/1/7 10/1/7 3/1/7
f 10/1/7 5/1/7 3/1/7
f 75/5/17 74/5/17 11/5/17
f 74/5/17 7/5/17 11/5/17
f 11/5/17 10/5/17 75/5/17
f 60/5/17 77/5/17 76/5/17
f 12/5/17 60/5/17 76/5/17
f 12/5/17 76/5/17 78/5/17
f 78/5/17 75/5/17 10/5/17
f 7/5/17 74/5/17 61/5/17
f 74/5/17 79/5/17 61/5/17
f 61/5/17 86/5/17 15/5/17
f 86/5/17 85/5/17 15/5/17
f 15/5/17 7/5/17 61/5/17
f 60/5/17 12/5/17 62/5/17
f 12/5/17 9/5/17 62/5/17
f 88/5/17 87/5/17 62/5/17
f 8/5/17 15/5/17 85/5/17
f 88/5/17 62/5/17 9/5/17
f 8/5/17 85/5/17 88/5/17
f 34/3/30 44/3/30 45/3/30
f 72/3/19 46/3/19 47/3/19
f 44/3/19 73/3/19 68/3/19
f 57/6/7 55/6/7 53/6/7
f 53/6/7 50/6/7 83/6/7
f 86/6/7 61/6/7 58/6/7
f 61/6/7 59/6/7 58/6/7
f 58/6/7 57/6/7 86/6/7
f 57/6/7 53/6/7 86/6/7
f 60/6/4 62/6/4 56/6/4
f 62/6/4 48/6/4 52/6/4
f 56/6/4 62/6/4 52/6/4
f 48/6/4 49/6/4 52/6/4
f 49/6/4 51/6/4 52/6/4
f 52/6/4 54/6/4 56/6/4
f 77/6/4 60/6/4 70/6/4
f 48/6/6 62/6/6 87/6/6
f 59/6/5 61/6/5 79/6/5
f 79/6/20 74/6/20 67/6/20
f 74/6/20 75/6/20 64/6/20
f 67/6/20 74/6/20 64/6/20
f 64/6/20 63/6/20 67/6/20
f 63/6/20 72/6/20 67/6/20
f 66/6/21 69/6/21 78/6/21
f 76/6/22 77/6/22 70/6/22
f 75/6/23 78/6/23 73/6/23
f 78/6/23 69/6/23 68/6/23
f 68/6/23 73/6/23 78/6/23
f 73/6/23 65/6/23 75/6/23
f 85/6/24 84/6/24 80/6/24
f 80/6/24 82/6/24 85/6/24
f 82/6/25 81/6/25 87/6/25
f 83/6/26 84/6/26 85/6/26
