# Blender 5.2.2 LTS
# www.blender.org
mtllib ruins_hk_gantry.mtl
o piece
v -2.442693 -3.357866 2.445446
v 2.467463 -3.357866 2.445446
v -2.442693 -3.357866 -2.449268
v 2.467463 -3.357866 -2.449268
v -2.442693 -3.365220 -2.449268
v 2.467463 -3.365220 -2.449268
v -2.442693 -3.365220 2.445446
v 2.467463 -3.365220 2.445446
v 1.027292 -3.357866 1.047502
v 1.027292 -3.357866 -1.025684
v -1.062454 -3.357866 1.047502
v -1.062454 -3.357866 -1.025684
v 1.035105 -3.365220 1.059084
v -1.068010 -3.365220 1.059084
v 1.035105 -3.365220 -1.032205
v -1.068010 -3.365220 -1.032205
v -1.112664 -3.445505 1.112658
v 1.112659 -3.445505 1.112658
v -1.112664 -3.281433 1.112658
v 1.112659 -3.281433 1.112658
v -1.112664 -3.281433 -1.112660
v 1.112659 -3.281433 -1.112660
v -1.112664 -3.445505 -1.112660
v 1.112659 -3.445505 -1.112660
v -0.994919 -3.281433 0.994919
v 0.994924 -3.281433 0.994919
v 0.994924 -3.281433 -0.994925
v -0.994919 -3.281433 -0.994925
v -0.994919 -3.445505 -0.994925
v 0.994924 -3.445505 -0.994925
v 0.994924 -3.445505 0.994919
v -0.994919 -3.445505 0.994919
v 2.494373 -2.344951 2.318593
v 2.494343 -2.374804 2.392011
v 2.494373 -2.448247 2.421865
v 2.509714 -2.318496 2.319579
v 2.509656 -2.356201 2.410614
v 2.509705 -2.447236 2.448329
v 2.494373 -2.292036 2.320566
v 2.494343 -2.337597 2.429218
v 2.494373 -2.446230 2.474785
v 2.463708 -2.292036 2.320566
v 2.463748 -2.337597 2.429218
v 2.463708 -2.446230 2.474785
v 2.448386 -2.318496 2.319579
v 2.448445 -2.356201 2.410614
v 2.448386 -2.447236 2.448320
v 2.463708 -2.344951 2.318593
v 2.463748 -2.374804 2.392011
v 2.463708 -2.448247 2.421865
v 2.493337 -3.343926 2.423496
v 2.507634 -3.343989 2.448320
v 2.493337 -3.343926 2.473163
v 2.464597 -3.343760 2.473242
v 2.450154 -3.343657 2.448320
v 2.464597 -3.343760 2.423398
v 2.474636 -3.371973 2.448320
v 2.494373 -2.344956 -2.304097
v 2.494343 -2.374805 -2.377505
v 2.494373 -2.448247 -2.407349
v 2.509705 -2.318496 -2.305064
v 2.509646 -2.356201 -2.396099
v 2.509705 -2.447237 -2.433804
v 2.494373 -2.292031 -2.306031
v 2.494343 -2.337598 -2.414703
v 2.494373 -2.446231 -2.460269
v 2.463718 -2.292031 -2.306031
v 2.463748 -2.337598 -2.414703
v 2.463708 -2.446231 -2.460269
v 2.448386 -2.318496 -2.305064
v 2.448445 -2.356201 -2.396099
v 2.448386 -2.447237 -2.433814
v 2.463718 -2.344956 -2.304097
v 2.463738 -2.374805 -2.377496
v 2.463708 -2.448247 -2.407349
v 2.493347 -3.343926 -2.408980
v 2.507634 -3.343989 -2.433814
v 2.493347 -3.343926 -2.458648
v 2.464597 -3.343760 -2.458736
v 2.450154 -3.343662 -2.433814
v 2.464597 -3.343760 -2.408892
v 2.474636 -3.371973 -2.433814
v 2.463552 -2.784087 2.370908
v 2.448083 -2.757788 2.371445
v 2.463552 -2.731489 2.370966
v 2.494519 -2.731489 2.370976
v 2.510007 -2.757788 2.371445
v 2.494519 -2.784087 2.370908
v 2.470515 -2.791626 2.427265
v 2.461980 -2.757788 2.428271
v 2.470515 -2.723950 2.427265
v 2.487566 -2.723950 2.427265
v 2.496101 -2.757788 2.428261
v 2.487566 -2.791626 2.427265
v 2.463552 -2.784087 -2.356333
v 2.448074 -2.757788 -2.356920
v 2.463552 -2.731489 -2.356519
v 2.494519 -2.731489 -2.356519
v 2.509998 -2.757788 -2.356920
v 2.494519 -2.784087 -2.356324
v 2.470515 -2.791626 -2.412750
v 2.461980 -2.757788 -2.413755
v 2.470515 -2.723950 -2.412750
v 2.487576 -2.723950 -2.412750
v 2.496101 -2.757788 -2.413755
v 2.487576 -2.791626 -2.412750
v 2.466609 -2.369746 0.864540
v 2.454167 -2.368735 0.840156
v 2.466599 -2.369824 0.815771
v 2.491462 -2.369824 0.815771
v 2.503894 -2.368735 0.840156
v 2.491462 -2.369746 0.864540
v 2.470437 -2.341177 0.880253
v 2.461853 -2.339077 0.840156
v 2.470437 -2.341177 0.800058
v 2.487634 -2.341177 0.800048
v 2.496228 -2.339077 0.840156
v 2.487634 -2.341177 0.880253
v 2.466599 -3.252495 0.830556
v 2.454167 -3.254731 0.855009
v 2.466609 -3.252285 0.879462
v 2.491482 -3.252285 0.879462
v 2.503913 -3.254736 0.855009
v 2.491472 -3.252495 0.830566
v 2.464861 -3.344741 0.814785
v 2.450691 -3.349433 0.855009
v 2.464870 -3.344741 0.895234
v 2.493210 -3.344741 0.895244
v 2.507380 -3.349433 0.855009
v 2.493210 -3.344741 0.814785
v 2.466667 -2.384072 -0.862906
v 2.454304 -2.409180 -0.887164
v 2.466677 -2.414742 -0.911402
v 2.491414 -2.414742 -0.911402
v 2.503767 -2.409180 -0.887164
v 2.491404 -2.384072 -0.862916
v 2.470476 -2.355435 -0.847320
v 2.461921 -2.353345 -0.887154
v 2.470476 -2.355435 -0.926998
v 2.487605 -2.355435 -0.927007
v 2.496150 -2.353345 -0.887164
v 2.487605 -2.355435 -0.847320
v 2.466667 -3.252334 -0.920543
v 2.454294 -3.254727 -0.896236
v 2.466667 -3.252461 -0.871929
v 2.491404 -3.252461 -0.871929
v 2.503777 -3.254727 -0.896236
v 2.491404 -3.252334 -0.920543
v 2.464929 -3.344756 -0.936207
v 2.450828 -3.349419 -0.896246
v 2.464929 -3.344756 -0.856275
v 2.493142 -3.344756 -0.856275
v 2.507253 -3.349419 -0.896246
v 2.493152 -3.344756 -0.936207
v 2.318586 -2.344951 -2.494377
v 2.392004 -2.374805 -2.494347
v 2.421858 -2.448247 -2.494377
v 2.319573 -2.318496 -2.509718
v 2.410608 -2.356201 -2.509660
v 2.448323 -2.447237 -2.509709
v 2.320559 -2.292037 -2.494377
v 2.429211 -2.337598 -2.494347
v 2.474778 -2.446231 -2.494377
v 2.320559 -2.292037 -2.463713
v 2.429211 -2.337598 -2.463752
v 2.474778 -2.446231 -2.463713
v 2.319573 -2.318496 -2.448390
v 2.410608 -2.356201 -2.448449
v 2.448313 -2.447237 -2.448390
v 2.318586 -2.344951 -2.463713
v 2.392004 -2.374805 -2.463752
v 2.421858 -2.448247 -2.463713
v 2.423489 -3.343926 -2.493342
v 2.448313 -3.343989 -2.507638
v 2.473157 -3.343926 -2.493342
v 2.473235 -3.343760 -2.464601
v 2.448313 -3.343657 -2.450158
v 2.423391 -3.343760 -2.464601
v 2.448313 -3.371973 -2.474640
v -2.304104 -2.344956 -2.494377
v -2.377512 -2.374805 -2.494347
v -2.407356 -2.448247 -2.494377
v -2.305071 -2.318496 -2.509709
v -2.396106 -2.356201 -2.509650
v -2.433811 -2.447237 -2.509709
v -2.306038 -2.292032 -2.494377
v -2.414709 -2.337598 -2.494347
v -2.460276 -2.446231 -2.494377
v -2.306038 -2.292032 -2.463722
v -2.414709 -2.337598 -2.463752
v -2.460276 -2.446231 -2.463713
v -2.305071 -2.318496 -2.448390
v -2.396106 -2.356201 -2.448449
v -2.433821 -2.447237 -2.448390
v -2.304104 -2.344956 -2.463722
v -2.377502 -2.374805 -2.463742
v -2.407356 -2.448247 -2.463713
v -2.408987 -3.343926 -2.493351
v -2.433821 -3.343989 -2.507638
v -2.458655 -3.343926 -2.493351
v -2.458743 -3.343760 -2.464601
v -2.433821 -3.343662 -2.450158
v -2.408899 -3.343760 -2.464601
v -2.433821 -3.371973 -2.474640
v 2.370901 -2.784087 -2.463557
v 2.371438 -2.757788 -2.448088
v 2.370960 -2.731489 -2.463557
v 2.370969 -2.731489 -2.494523
v 2.371438 -2.757788 -2.510011
v 2.370901 -2.784087 -2.494523
v 2.427258 -2.791626 -2.470519
v 2.428264 -2.757788 -2.461984
v 2.427258 -2.723950 -2.470519
v 2.427258 -2.723950 -2.487570
v 2.428254 -2.757788 -2.496105
v 2.427258 -2.791626 -2.487570
v -2.356340 -2.784087 -2.463557
v -2.356926 -2.757788 -2.448078
v -2.356526 -2.731489 -2.463557
v -2.356526 -2.731489 -2.494523
v -2.356926 -2.757788 -2.510002
v -2.356331 -2.784087 -2.494523
v -2.412756 -2.791626 -2.470519
v -2.413762 -2.757788 -2.461984
v -2.412756 -2.723950 -2.470519
v -2.412756 -2.723950 -2.487580
v -2.413762 -2.757788 -2.496105
v -2.412756 -2.791626 -2.487580
v 0.864534 -2.369746 -2.466613
v 0.840149 -2.368736 -2.454172
v 0.815764 -2.369824 -2.466603
v 0.815764 -2.369824 -2.491467
v 0.840149 -2.368736 -2.503898
v 0.864534 -2.369746 -2.491467
v 0.880247 -2.341177 -2.470441
v 0.840149 -2.339077 -2.461857
v 0.800051 -2.341177 -2.470441
v 0.800041 -2.341177 -2.487638
v 0.840149 -2.339077 -2.496232
v 0.880247 -2.341177 -2.487638
v 0.830549 -3.252495 -2.466603
v 0.855002 -3.254732 -2.454172
v 0.879456 -3.252285 -2.466613
v 0.879456 -3.252285 -2.491486
v 0.855002 -3.254736 -2.503918
v 0.830559 -3.252495 -2.491476
v 0.814778 -3.344741 -2.464865
v 0.855002 -3.349434 -2.450695
v 0.895227 -3.344741 -2.464875
v 0.895237 -3.344741 -2.493215
v 0.855002 -3.349434 -2.507385
v 0.814778 -3.344741 -2.493215
v -0.862913 -2.384073 -2.466672
v -0.887170 -2.409180 -2.454308
v -0.911409 -2.414742 -2.466681
v -0.911409 -2.414742 -2.491418
v -0.887170 -2.409180 -2.503771
v -0.862922 -2.384073 -2.491408
v -0.847327 -2.355435 -2.470480
v -0.887161 -2.353345 -2.461926
v -0.927004 -2.355435 -2.470480
v -0.927014 -2.355435 -2.487609
v -0.887170 -2.353345 -2.496154
v -0.847327 -2.355435 -2.487609
v -0.920549 -3.252334 -2.466672
v -0.896243 -3.254727 -2.454298
v -0.871936 -3.252461 -2.466672
v -0.871936 -3.252461 -2.491408
v -0.896243 -3.254727 -2.503781
v -0.920549 -3.252334 -2.491408
v -0.936213 -3.344756 -2.464933
v -0.896252 -3.349419 -2.450832
v -0.856282 -3.344756 -2.464933
v -0.856282 -3.344756 -2.493146
v -0.896252 -3.349419 -2.507258
v -0.936213 -3.344756 -2.493156
v -2.318591 -2.344951 2.494379
v -2.392009 -2.374804 2.494350
v -2.421863 -2.448247 2.494379
v -2.319578 -2.318496 2.509721
v -2.410613 -2.356201 2.509662
v -2.448328 -2.447236 2.509711
v -2.320564 -2.292036 2.494379
v -2.429216 -2.337597 2.494350
v -2.474783 -2.446230 2.494379
v -2.320564 -2.292036 2.463715
v -2.429216 -2.337597 2.463754
v -2.474783 -2.446230 2.463715
v -2.319578 -2.318496 2.448393
v -2.410613 -2.356201 2.448452
v -2.448318 -2.447236 2.448393
v -2.318591 -2.344951 2.463715
v -2.392009 -2.374804 2.463754
v -2.421863 -2.448247 2.463715
v -2.423494 -3.343926 2.493344
v -2.448318 -3.343989 2.507641
v -2.473161 -3.343926 2.493344
v -2.473240 -3.343760 2.464604
v -2.448318 -3.343657 2.450161
v -2.423396 -3.343760 2.464604
v -2.448318 -3.371973 2.474643
v 2.304099 -2.344956 2.494379
v 2.377507 -2.374804 2.494350
v 2.407351 -2.448247 2.494379
v 2.305066 -2.318496 2.509711
v 2.396101 -2.356201 2.509653
v 2.433806 -2.447236 2.509711
v 2.306033 -2.292031 2.494379
v 2.414705 -2.337597 2.494350
v 2.460271 -2.446230 2.494379
v 2.306033 -2.292031 2.463725
v 2.414705 -2.337597 2.463754
v 2.460271 -2.446230 2.463715
v 2.305066 -2.318496 2.448393
v 2.396101 -2.356201 2.448452
v 2.433816 -2.447236 2.448393
v 2.304099 -2.344956 2.463725
v 2.377497 -2.374804 2.463744
v 2.407351 -2.448247 2.463715
v 2.408982 -3.343926 2.493354
v 2.433816 -3.343989 2.507641
v 2.458650 -3.343926 2.493354
v 2.458738 -3.343760 2.464604
v 2.433816 -3.343662 2.450161
v 2.408894 -3.343760 2.464604
v 2.433816 -3.371973 2.474643
v -2.370906 -2.784087 2.463559
v -2.371443 -2.757788 2.448090
v -2.370964 -2.731489 2.463559
v -2.370974 -2.731489 2.494526
v -2.371443 -2.757788 2.510014
v -2.370906 -2.784087 2.494526
v -2.427263 -2.791626 2.470522
v -2.428269 -2.757788 2.461987
v -2.427263 -2.723950 2.470522
v -2.427263 -2.723950 2.487573
v -2.428259 -2.757788 2.496108
v -2.427263 -2.791626 2.487573
v 2.356335 -2.784087 2.463559
v 2.356921 -2.757788 2.448081
v 2.356521 -2.731489 2.463559
v 2.356521 -2.731489 2.494526
v 2.356921 -2.757788 2.510004
v 2.356326 -2.784087 2.494526
v 2.412751 -2.791626 2.470522
v 2.413757 -2.757788 2.461987
v 2.412751 -2.723950 2.470522
v 2.412751 -2.723950 2.487582
v 2.413757 -2.757788 2.496108
v 2.412751 -2.791626 2.487582
v -0.864539 -2.369746 2.466616
v -0.840154 -2.368735 2.454174
v -0.815769 -2.369824 2.466606
v -0.815769 -2.369824 2.491469
v -0.840154 -2.368735 2.503901
v -0.864539 -2.369746 2.491469
v -0.880251 -2.341177 2.470444
v -0.840154 -2.339077 2.461860
v -0.800056 -2.341177 2.470444
v -0.800046 -2.341177 2.487641
v -0.840154 -2.339077 2.496235
v -0.880251 -2.341177 2.487641
v -0.830554 -3.252495 2.466606
v -0.855007 -3.254731 2.454174
v -0.879460 -3.252285 2.466616
v -0.879460 -3.252285 2.491489
v -0.855007 -3.254736 2.503920
v -0.830564 -3.252495 2.491479
v -0.814783 -3.344741 2.464868
v -0.855007 -3.349433 2.450698
v -0.895232 -3.344741 2.464877
v -0.895242 -3.344741 2.493217
v -0.855007 -3.349433 2.507387
v -0.814783 -3.344741 2.493217
v 0.862908 -2.384072 2.466674
v 0.887165 -2.409179 2.454311
v 0.911404 -2.414741 2.466684
v 0.911404 -2.414741 2.491420
v 0.887165 -2.409179 2.503774
v 0.862917 -2.384072 2.491410
v 0.847322 -2.355434 2.470483
v 0.887156 -2.353344 2.461928
v 0.927000 -2.355434 2.470483
v 0.927009 -2.355434 2.487612
v 0.887165 -2.353344 2.496157
v 0.847322 -2.355434 2.487612
v 0.920544 -3.252334 2.466674
v 0.896238 -3.254726 2.454301
v 0.871931 -3.252461 2.466674
v 0.871931 -3.252461 2.491410
v 0.896238 -3.254726 2.503783
v 0.920544 -3.252334 2.491410
v 0.936208 -3.344756 2.464936
v 0.896248 -3.349419 2.450834
v 0.856277 -3.344756 2.464936
v 0.856277 -3.344756 2.493149
v 0.896248 -3.349419 2.507260
v 0.936208 -3.344756 2.493159
v -2.530129 -3.445505 2.530129
v 2.530129 -3.445505 2.530129
v -2.530129 -3.281433 2.530129
v 2.530129 -3.281433 2.530129
v -2.530129 -3.281433 -2.530129
v 2.530129 -3.281433 -2.530129
v -2.530129 -3.445506 -2.530129
v 2.530129 -3.445506 -2.530129
v -2.419065 -3.281433 2.419064
v 2.419075 -3.281433 2.419064
v 2.419075 -3.281433 -2.419078
v -2.419065 -3.281433 -2.419078
v -2.419065 -3.445506 -2.419078
v 2.419075 -3.445506 -2.419078
v 2.419075 -3.445505 2.419064
v -2.419065 -3.445505 2.419064
v -2.494382 -2.344951 -2.318589
v -2.494353 -2.374805 -2.392007
v -2.494382 -2.448247 -2.421861
v -2.509724 -2.318496 -2.319576
v -2.509665 -2.356201 -2.410611
v -2.509714 -2.447237 -2.448326
v -2.494382 -2.292036 -2.320562
v -2.494353 -2.337598 -2.429214
v -2.494382 -2.446231 -2.474781
v -2.463718 -2.292036 -2.320562
v -2.463757 -2.337598 -2.429214
v -2.463718 -2.446231 -2.474781
v -2.448396 -2.318496 -2.319576
v -2.448455 -2.356201 -2.410611
v -2.448396 -2.447237 -2.448316
v -2.463718 -2.344951 -2.318589
v -2.463757 -2.374805 -2.392007
v -2.463718 -2.448247 -2.421861
v -2.493347 -3.343926 -2.423492
v -2.507644 -3.343989 -2.448316
v -2.493347 -3.343926 -2.473160
v -2.464607 -3.343760 -2.473238
v -2.450164 -3.343657 -2.448316
v -2.464607 -3.343760 -2.423394
v -2.474646 -3.371973 -2.448316
v -2.494382 -2.344956 2.304101
v -2.494353 -2.374804 2.377509
v -2.494382 -2.448247 2.407353
v -2.509714 -2.318496 2.305068
v -2.509656 -2.356201 2.396103
v -2.509714 -2.447236 2.433808
v -2.494382 -2.292031 2.306035
v -2.494353 -2.337597 2.414706
v -2.494382 -2.446230 2.460273
v -2.463728 -2.292031 2.306035
v -2.463757 -2.337597 2.414706
v -2.463718 -2.446230 2.460273
v -2.448396 -2.318496 2.305068
v -2.448455 -2.356201 2.396103
v -2.448396 -2.447236 2.433818
v -2.463728 -2.344956 2.304101
v -2.463748 -2.374804 2.377499
v -2.463718 -2.448247 2.407353
v -2.493357 -3.343926 2.408984
v -2.507644 -3.343989 2.433818
v -2.493357 -3.343926 2.458652
v -2.464607 -3.343760 2.458740
v -2.450164 -3.343662 2.433818
v -2.464607 -3.343760 2.408896
v -2.474646 -3.371973 2.433818
v -2.463562 -2.784087 -2.370904
v -2.448093 -2.757788 -2.371441
v -2.463562 -2.731489 -2.370962
v -2.494529 -2.731489 -2.370972
v -2.510017 -2.757788 -2.371441
v -2.494529 -2.784087 -2.370904
v -2.470525 -2.791626 -2.427261
v -2.461990 -2.757788 -2.428267
v -2.470525 -2.723950 -2.427261
v -2.487576 -2.723950 -2.427261
v -2.496111 -2.757788 -2.428257
v -2.487576 -2.791626 -2.427261
v -2.463562 -2.784087 2.356337
v -2.448083 -2.757788 2.356923
v -2.463562 -2.731489 2.356523
v -2.494529 -2.731489 2.356523
v -2.510007 -2.757788 2.356923
v -2.494529 -2.784087 2.356328
v -2.470525 -2.791626 2.412753
v -2.461990 -2.757788 2.413759
v -2.470525 -2.723950 2.412753
v -2.487585 -2.723950 2.412753
v -2.496111 -2.757788 2.413759
v -2.487585 -2.791626 2.412753
v -2.466619 -2.369746 -0.864537
v -2.454177 -2.368736 -0.840152
v -2.466609 -2.369824 -0.815767
v -2.491472 -2.369824 -0.815767
v -2.503904 -2.368736 -0.840152
v -2.491472 -2.369746 -0.864537
v -2.470447 -2.341177 -0.880250
v -2.461863 -2.339077 -0.840152
v -2.470447 -2.341177 -0.800054
v -2.487644 -2.341177 -0.800045
v -2.496238 -2.339077 -0.840152
v -2.487644 -2.341177 -0.880250
v -2.466609 -3.252495 -0.830552
v -2.454177 -3.254731 -0.855005
v -2.466619 -3.252285 -0.879459
v -2.491492 -3.252285 -0.879459
v -2.503923 -3.254736 -0.855005
v -2.491482 -3.252495 -0.830562
v -2.464870 -3.344741 -0.814781
v -2.450701 -3.349434 -0.855005
v -2.464880 -3.344741 -0.895230
v -2.493220 -3.344741 -0.895240
v -2.507390 -3.349434 -0.855005
v -2.493220 -3.344741 -0.814781
v -2.466677 -2.384072 0.862909
v -2.454314 -2.409180 0.887167
v -2.466687 -2.414741 0.911406
v -2.491423 -2.414741 0.911406
v -2.503777 -2.409180 0.887167
v -2.491414 -2.384072 0.862919
v -2.470486 -2.355434 0.847324
v -2.461931 -2.353345 0.887158
v -2.470486 -2.355434 0.927001
v -2.487615 -2.355434 0.927011
v -2.496160 -2.353345 0.887167
v -2.487615 -2.355434 0.847324
v -2.466677 -3.252334 0.920546
v -2.454304 -3.254726 0.896240
v -2.466677 -3.252461 0.871933
v -2.491414 -3.252461 0.871933
v -2.503787 -3.254726 0.896240
v -2.491414 -3.252334 0.920546
v -2.464939 -3.344756 0.936210
v -2.450837 -3.349419 0.896249
v -2.464939 -3.344756 0.856279
v -2.493152 -3.344756 0.856279
v -2.507263 -3.349419 0.896249
v -2.493162 -3.344756 0.936210
v 0.430618 -2.576953 -0.729136
v 0.409207 -2.576953 -0.783575
v 0.430618 -2.576953 -0.813975
v 0.349319 -2.576953 -0.813975
v 0.409207 -2.576953 -0.729136
v 0.349319 -2.576953 -0.783575
v -0.139016 -2.576953 -0.729136
v -0.117605 -2.576953 -0.783575
v -0.139016 -2.576953 -0.813975
v -0.057717 -2.576953 -0.813975
v -0.117605 -2.576953 -0.729136
v -0.057717 -2.576953 -0.783575
v 0.413230 0.727803 -0.790953
v 0.413230 0.767339 -0.781085
v 0.413230 0.767339 -0.749151
v 0.413230 0.727803 -0.739283
v 0.413230 0.703367 -0.765118
v -0.121628 0.727803 -0.790953
v -0.121628 0.767339 -0.781085
v -0.121628 0.767339 -0.749151
v -0.121628 0.727803 -0.739283
v -0.121628 0.703367 -0.765118
v 0.413230 0.270359 -0.790953
v 0.413230 0.309895 -0.781085
v 0.413230 0.309895 -0.749151
v 0.413230 0.270359 -0.739283
v 0.413230 0.245923 -0.765118
v -0.121628 0.270359 -0.790953
v -0.121628 0.309895 -0.781085
v -0.121628 0.309895 -0.749151
v -0.121628 0.270359 -0.739283
v -0.121628 0.245923 -0.765118
v 0.413230 -0.187090 -0.790953
v 0.413230 -0.147554 -0.781085
v 0.413230 -0.147554 -0.749151
v 0.413230 -0.187090 -0.739283
v 0.413230 -0.211524 -0.765118
v -0.121628 -0.187090 -0.790953
v -0.121628 -0.147554 -0.781085
v -0.121628 -0.147554 -0.749151
v -0.121628 -0.187090 -0.739283
v -0.121628 -0.211524 -0.765118
v 0.413230 -0.644534 -0.790953
v 0.413230 -0.604998 -0.781085
v 0.413230 -0.604998 -0.749151
v 0.413230 -0.644534 -0.739283
v 0.413230 -0.668970 -0.765118
v -0.121628 -0.644534 -0.790953
v -0.121628 -0.604998 -0.781085
v -0.121628 -0.604998 -0.749151
v -0.121628 -0.644534 -0.739283
v -0.121628 -0.668970 -0.765118
v 0.413230 -1.101980 -0.790953
v 0.413230 -1.062444 -0.781085
v 0.413230 -1.062444 -0.749151
v 0.413230 -1.101980 -0.739283
v 0.413230 -1.126416 -0.765118
v -0.121628 -1.101980 -0.790953
v -0.121628 -1.062444 -0.781085
v -0.121628 -1.062444 -0.749151
v -0.121628 -1.101980 -0.739283
v -0.121628 -1.126416 -0.765118
v 0.413230 -2.458462 -0.790953
v 0.413230 -2.498001 -0.781085
v 0.413230 -2.498001 -0.749151
v 0.413230 -2.458462 -0.739283
v 0.413230 -2.434028 -0.765118
v -0.121628 -2.458462 -0.790953
v -0.121628 -2.498001 -0.781085
v -0.121628 -2.498001 -0.749151
v -0.121628 -2.458462 -0.739283
v -0.121628 -2.434028 -0.765118
v 0.413230 -2.001016 -0.790953
v 0.413230 -2.040552 -0.781085
v 0.413230 -2.040552 -0.749151
v 0.413230 -2.001016 -0.739283
v 0.413230 -1.976582 -0.765118
v -0.121628 -2.001016 -0.790953
v -0.121628 -2.040552 -0.781085
v -0.121628 -2.040552 -0.749151
v -0.121628 -2.001016 -0.739283
v -0.121628 -1.976582 -0.765118
v 0.413230 -1.543569 -0.790953
v 0.413230 -1.583108 -0.781085
v 0.413230 -1.583108 -0.749151
v 0.413230 -1.543569 -0.739283
v 0.413230 -1.519136 -0.765118
v -0.121628 -1.543569 -0.790953
v -0.121628 -1.583108 -0.781085
v -0.121628 -1.583108 -0.749151
v -0.121628 -1.543569 -0.739283
v -0.121628 -1.519136 -0.765118
v 0.248455 -2.067376 -0.781085
v 0.248455 -2.067376 -0.749151
v 0.248455 -2.027839 -0.739283
v 0.248455 -2.003406 -0.765118
v 0.248455 -2.027839 -0.790953
v 0.013245 -0.213914 -0.790953
v 0.013245 -0.238347 -0.765118
v 0.013245 -0.213914 -0.739283
v 0.013245 -0.174377 -0.749151
v 0.013245 -0.174377 -0.781085
v 0.430618 2.423047 -0.729137
v 0.409207 2.423047 -0.783578
v 0.430618 2.423047 -0.813976
v 0.349319 2.423047 -0.813976
v 0.409207 2.423047 -0.729137
v 0.349319 2.423047 -0.783578
v -0.139016 2.423047 -0.729137
v -0.117605 2.423047 -0.783578
v -0.139016 2.423047 -0.813976
v -0.057717 2.423047 -0.813976
v -0.117605 2.423047 -0.729137
v -0.057717 2.423047 -0.783578
v 0.413230 1.160408 -0.790953
v 0.413230 1.120871 -0.781085
v 0.413230 1.120871 -0.749151
v 0.413230 1.160408 -0.739283
v 0.413230 1.184846 -0.765118
v -0.121628 1.160408 -0.790953
v -0.121628 1.120871 -0.781085
v -0.121628 1.120871 -0.749151
v -0.121628 1.160408 -0.739283
v -0.121628 1.184846 -0.765118
v 0.413230 1.617854 -0.790953
v 0.413230 1.578318 -0.781085
v 0.413230 1.578318 -0.749151
v 0.413230 1.617854 -0.739283
v 0.413230 1.642287 -0.765118
v -0.121628 1.617854 -0.790953
v -0.121628 1.578318 -0.781085
v -0.121628 1.578318 -0.749151
v -0.121628 1.617854 -0.739283
v -0.121628 1.642287 -0.765118
v 0.413230 2.075300 -0.790953
v 0.413230 2.035764 -0.781085
v 0.413230 2.035764 -0.749151
v 0.413230 2.075300 -0.739283
v 0.413230 2.099734 -0.765118
v -0.121628 2.075300 -0.790953
v -0.121628 2.035764 -0.781085
v -0.121628 2.035764 -0.749151
v -0.121628 2.075300 -0.739283
v -0.121628 2.099734 -0.765118
v 0.248455 2.008943 -0.781085
v 0.248455 2.008943 -0.749151
v 0.248455 2.048479 -0.739283
v 0.248455 2.072912 -0.765118
v 0.248455 2.048479 -0.790953
v 0.111169 1.141867 -0.781085
v 0.111169 1.141867 -0.749151
v 0.111169 1.181404 -0.739283
v 0.111169 1.205837 -0.765118
v 0.111169 1.181404 -0.790953
v -1.000750 -1.528506 1.000756
v -0.743713 -1.528506 1.000756
v -1.000750 3.445505 1.000756
v -0.743713 3.445505 1.000756
v -1.000750 3.445505 0.743715
v -0.743713 3.445505 0.743715
v -1.000750 -1.528506 0.743715
v -0.743713 -1.528506 0.743715
v -1.000750 3.445505 -0.743717
v -0.743713 3.445505 -0.743717
v -1.000750 3.445505 -1.000758
v -0.743713 3.445505 -1.000758
v -1.000750 -1.528506 -0.743716
v -0.743713 -1.528506 -0.743716
v -0.743713 -1.528506 -1.000757
v -1.000750 -1.528506 -1.000757
v 0.743723 -1.528506 -0.743716
v 1.000759 -1.528506 -0.743716
v 0.743723 3.445505 -0.743717
v 1.000759 3.445505 -0.743717
v 0.743723 3.445505 -1.000758
v 1.000759 3.445505 -1.000758
v 0.743723 -1.528506 -1.000757
v 1.000759 -1.528506 -1.000757
v 0.743723 -1.528506 1.000756
v 1.000759 -1.528506 1.000756
v 0.743723 3.445505 1.000756
v 1.000759 3.445505 1.000756
v 0.743723 3.445505 0.743715
v 1.000759 3.445505 0.743715
v 0.743723 -1.528506 0.743715
v 1.000759 -1.528506 0.743715
v 0.743723 0.173074 1.000756
v 1.000759 0.173074 1.000756
v 1.000759 0.173074 0.743715
v 0.743723 0.173074 0.743715
v 0.743718 1.754507 0.743715
v 1.000759 1.754507 0.743715
v 1.000759 1.754507 1.000756
v 0.743718 1.754507 1.000756
v 0.834724 0.781089 0.969696
v 0.973186 0.781089 0.969696
v 0.973186 0.781089 0.726747
v 0.730237 0.781089 0.726747
v 0.730237 0.781089 0.879784
v 0.734788 1.109595 0.980180
v 0.735461 0.545645 0.981723
v -0.903367 1.644966 0.780072
v 0.846423 1.644966 -0.825733
v -0.903367 1.760525 0.896542
v 0.846423 1.760525 -0.942203
v -0.903367 3.436875 -0.825733
v 0.846423 3.436875 0.780072
v -0.903367 3.321313 -0.942203
v 0.846423 3.321313 0.896542
v -0.846428 1.830068 0.827543
v 0.903367 1.830068 -0.873204
v 0.903367 3.367339 0.711078
v -0.846428 3.367339 -0.756734
v -0.846428 3.251775 -0.873204
v 0.903367 3.251775 0.827548
v 0.903367 1.714507 -0.756734
v -0.846428 1.714507 0.711073
v -0.925769 3.251201 0.925766
v 0.925764 3.251201 0.925766
v -0.925769 3.415273 0.925765
v 0.925764 3.415273 0.925765
v -0.925769 3.415273 -0.925768
v 0.925764 3.415273 -0.925768
v -0.925769 3.251201 -0.925768
v 0.925764 3.251201 -0.925768
v -0.827805 3.415273 0.827802
v 0.827805 3.415273 0.827802
v 0.827805 3.415273 -0.827809
v -0.827805 3.415273 -0.827809
v -0.827805 3.251201 -0.827809
v 0.827805 3.251201 -0.827809
v 0.827805 3.251201 0.827802
v -0.827805 3.251201 0.827802
v 0.831999 1.644966 -0.839430
v -0.773806 1.644966 0.910365
v 0.948464 1.760525 -0.839430
v -0.890281 1.760525 0.910365
v -0.773806 3.436875 -0.839430
v 0.831999 3.436875 0.910365
v -0.890281 3.321313 -0.839430
v 0.948464 3.321313 0.910365
v 0.879470 1.830068 -0.896368
v -0.821277 1.830068 0.853422
v 0.763000 3.367339 0.853422
v -0.704812 3.367339 -0.896368
v -0.821282 3.251775 -0.896368
v 0.879470 3.251775 0.853422
v -0.704812 1.714507 0.853422
v 0.763000 1.714507 -0.896368
v -0.903367 0.072112 0.780072
v 0.846423 0.072112 -0.825733
v -0.903367 0.187676 0.896542
v 0.846423 0.187676 -0.942203
v -0.903367 1.802876 -0.825733
v 0.846423 1.802876 0.780072
v -0.903367 1.687312 -0.942203
v 0.846423 1.687312 0.896542
v -0.846428 0.257212 0.827543
v 0.903367 0.257212 -0.873204
v 0.903367 1.733335 0.711078
v -0.846428 1.733335 -0.756734
v -0.846428 1.617773 -0.873204
v 0.903367 1.617773 0.827548
v 0.903367 0.141653 -0.756734
v -0.846428 0.141653 0.711073
v -0.925769 1.617202 0.925766
v 0.925764 1.617202 0.925766
v -0.925769 1.781274 0.925766
v 0.925764 1.781274 0.925766
v -0.925769 1.781274 -0.925768
v 0.925764 1.781274 -0.925768
v -0.925769 1.617202 -0.925767
v 0.925764 1.617202 -0.925767
v -0.827805 1.781274 0.827802
v 0.827805 1.781274 0.827802
v 0.827805 1.781274 -0.827809
v -0.827805 1.781274 -0.827809
v -0.827805 1.617202 -0.827808
v 0.827805 1.617202 -0.827808
v 0.827805 1.617202 0.827802
v -0.827805 1.617202 0.827802
v 0.831999 0.072112 -0.839429
v -0.773806 0.072112 0.910365
v 0.948464 0.187676 -0.839430
v -0.890281 0.187676 0.910365
v -0.773806 1.802876 -0.839430
v 0.831999 1.802876 0.910365
v -0.890281 1.687312 -0.839430
v 0.948464 1.687312 0.910365
v 0.879470 0.257212 -0.896368
v -0.821277 0.257212 0.853422
v 0.763000 1.733335 0.853422
v -0.704812 1.733335 -0.896368
v -0.821282 1.617773 -0.896368
v 0.879470 1.617773 0.853422
v -0.704812 0.141653 0.853422
v 0.763000 0.141653 -0.896368
v -0.903367 -1.500742 0.780073
v 0.846423 -1.500742 -0.825733
v -0.903367 -1.385181 0.896542
v 0.846423 -1.385181 -0.942203
v -0.903367 0.230024 -0.825733
v 0.846423 0.230024 0.780072
v -0.903367 0.114463 -0.942203
v 0.846423 0.114463 0.896542
v -0.846428 -1.315640 0.827543
v 0.903367 -1.315640 -0.873204
v 0.903367 0.160483 0.711078
v -0.846428 0.160483 -0.756734
v -0.846428 0.044922 -0.873204
v 0.903367 0.044922 0.827548
v 0.903367 -1.431201 -0.756734
v -0.846428 -1.431201 0.711073
v -0.925769 0.044348 0.925766
v 0.925764 0.044348 0.925766
v -0.925769 0.208418 0.925766
v 0.925764 0.208418 0.925766
v -0.925769 0.208418 -0.925767
v 0.925764 0.208418 -0.925767
v -0.925769 0.044348 -0.925767
v 0.925764 0.044348 -0.925767
v -0.827805 0.208418 0.827802
v 0.827805 0.208418 0.827802
v 0.827805 0.208418 -0.827808
v -0.827805 0.208418 -0.827808
v -0.827805 0.044348 -0.827808
v 0.827805 0.044348 -0.827808
v 0.827805 0.044348 0.827802
v -0.827805 0.044348 0.827802
v 0.831999 -1.500742 -0.839429
v -0.773806 -1.500742 0.910366
v 0.948464 -1.385181 -0.839429
v -0.890281 -1.385181 0.910365
v -0.773806 0.230024 -0.839430
v 0.831999 0.230024 0.910365
v -0.890281 0.114463 -0.839430
v 0.948464 0.114463 0.910365
v 0.879470 -1.315640 -0.896368
v -0.821277 -1.315640 0.853422
v 0.763000 0.160483 0.853422
v -0.704812 0.160483 -0.896368
v -0.821282 0.044922 -0.896368
v 0.879470 0.044922 0.853422
v -0.704812 -1.431201 0.853422
v 0.763000 -1.431201 -0.896368
v -1.112180 -1.554495 1.112177
v 1.112175 -1.554495 1.112177
v -1.112180 -1.364434 1.112177
v 1.112175 -1.364434 1.112177
v -1.112180 -1.364434 -1.112178
v 1.112175 -1.364434 -1.112178
v -1.112180 -1.554495 -1.112178
v 1.112175 -1.554495 -1.112178
v -0.726721 -1.364434 0.726718
v 0.726721 -1.364434 0.726718
v 0.726721 -1.364434 -0.726724
v -0.726721 -1.364434 -0.726724
v -0.726721 -1.554495 -0.726724
v 0.726721 -1.554495 -0.726724
v 0.726721 -1.554495 0.726718
v -0.726721 -1.554495 0.726718
v -0.862820 1.659587 0.861122
v 0.862288 1.659587 0.861122
v 0.862288 1.659587 -0.863976
v -0.862820 1.659587 -0.863976
v -0.862820 1.744162 0.861122
v 0.862288 1.744162 0.861122
v 0.862288 1.744162 -0.863976
v -0.862820 1.744162 -0.863976
v -0.465427 1.744162 -0.097887
v 0.464885 1.744162 -0.097887
v 0.464885 1.744162 -0.800301
v -0.465427 1.744162 -0.800301
v 0.464885 1.659587 -0.097887
v -0.465427 1.659587 -0.097887
v -0.465427 1.659587 -0.800301
v 0.464885 1.659587 -0.800301
vn -0.0000 1.0000 -0.0000
vn -0.0000 -1.0000 -0.0000
vn -0.0000 -0.0000 1.0000
vn -0.0000 -0.0000 -1.0000
vn 1.0000 -0.0000 -0.0000
vn -1.0000 -0.0000 -0.0000
vn 0.8512 -0.4863 -0.1974
vn 0.8516 -0.1971 -0.4858
vn 0.8466 0.4908 0.2060
vn 0.8508 0.2015 0.4854
vn -0.0000 0.9222 0.3867
vn -0.0000 0.3868 0.9222
vn -0.8467 0.4905 0.2060
vn -0.8510 0.2014 0.4850
vn -0.8462 -0.4926 -0.2035
vn -0.8516 -0.1970 -0.4857
vn -0.0000 -0.9263 -0.3767
vn -0.0000 -0.3766 -0.9264
vn 0.8666 -0.0019 -0.4991
vn 0.8667 -0.0020 0.4988
vn 0.0027 -0.0018 1.0000
vn -0.8654 -0.0017 0.5011
vn -0.8654 -0.0017 -0.5011
vn -0.0000 -0.0017 -1.0000
vn 0.6057 -0.7142 -0.3507
vn 0.6058 -0.7143 0.3504
vn -0.0018 -0.6624 0.7492
vn -0.6935 -0.5996 0.3994
vn -0.6935 -0.5996 -0.3994
vn -0.0013 -0.6623 -0.7492
vn 0.8461 -0.4926 0.2035
vn 0.8461 -0.2035 0.4927
vn 0.8467 0.4906 -0.2059
vn 0.8467 0.2060 -0.4905
vn -0.0000 0.9222 -0.3867
vn -0.0000 0.3868 -0.9222
vn -0.8507 0.4855 -0.2016
vn -0.8509 0.2015 -0.4852
vn -0.8513 -0.4861 0.1975
vn -0.8517 -0.1970 0.4856
vn 0.0001 -0.9263 0.3767
vn -0.0000 -0.3765 0.9264
vn 0.8652 -0.0020 0.5014
vn 0.8652 -0.0019 -0.5014
vn -0.8652 -0.0017 -0.5014
vn -0.8652 -0.0017 0.5014
vn 0.0030 -0.0018 1.0000
vn -0.0000 -0.5014 0.8652
vn -0.8653 0.5013 -0.0000
vn -0.0000 0.5013 0.8653
vn -0.9999 0.0139 -0.0000
vn 0.6058 -0.7143 0.3503
vn 0.6058 -0.7143 -0.3503
vn -0.0015 -0.6624 -0.7492
vn -0.6934 -0.5996 -0.3995
vn -0.6934 -0.5996 0.3995
vn -0.0015 -0.6623 0.7492
vn -0.8619 -0.5070 -0.0000
vn -0.8619 0.5070 -0.0000
vn 0.8618 0.5072 -0.0000
vn 0.8618 -0.5072 -0.0000
vn -0.8416 -0.4993 0.2058
vn -0.9654 0.2461 0.0864
vn -0.0000 0.9911 -0.1328
vn 0.8416 0.4993 0.2060
vn 0.9654 -0.2461 0.0862
vn -0.0000 -0.9912 -0.1326
vn -0.8413 -0.4998 -0.2059
vn -0.8419 0.4987 -0.2060
vn -0.0000 0.9911 0.1329
vn 0.8420 0.4987 -0.2059
vn 0.8413 -0.4998 -0.2057
vn -0.0000 -0.9912 0.1324
vn -0.8643 0.2240 0.4503
vn -0.9776 0.0157 -0.2101
vn -0.0005 -0.4812 -0.8766
vn 0.8643 0.2234 -0.4506
vn 0.9775 0.0153 0.2103
vn -0.0000 -0.4819 0.8762
vn 0.8653 0.5013 -0.0000
vn 0.8910 -0.0076 0.4539
vn -0.0000 0.0169 0.9999
vn 0.8917 0.0076 0.4526
vn 0.8909 -0.0076 -0.4542
vn -0.0000 -0.0167 -0.9999
vn -0.9439 0.0347 -0.3285
vn -0.8912 0.0925 0.4442
vn -0.0000 0.1683 0.9857
vn 0.9439 0.0346 0.3284
vn 0.8908 0.0929 -0.4449
vn -0.0000 0.1685 -0.9857
vn -0.0000 -0.9933 0.1159
vn -0.0000 -0.9933 -0.1159
vn -0.9307 0.1269 0.3430
vn -0.9776 0.0073 -0.2103
vn -0.0000 -0.2545 -0.9671
vn 0.8733 0.1191 -0.4725
vn 0.9775 0.0151 0.2104
vn 0.0004 -0.4781 0.8783
vn -0.8902 0.0049 -0.4555
vn -0.8890 -0.0048 0.4580
vn 0.0004 -0.0104 0.9999
vn 0.8889 -0.0048 0.4581
vn 0.8905 0.0049 -0.4550
vn -0.0000 0.0109 -0.9999
vn -0.9437 0.0346 -0.3290
vn -0.8908 0.0922 0.4449
vn -0.0000 0.1672 0.9859
vn 0.9437 0.0346 0.3291
vn 0.8910 0.0922 -0.4445
vn -0.0000 0.1671 -0.9859
vn -0.1974 -0.4863 -0.8512
vn -0.4858 -0.1971 -0.8515
vn 0.2060 0.4908 -0.8466
vn 0.4854 0.2015 -0.8507
vn 0.3867 0.9222 -0.0000
vn 0.9222 0.3868 -0.0000
vn 0.2060 0.4905 0.8467
vn 0.4850 0.2014 0.8510
vn -0.2035 -0.4926 0.8462
vn -0.4857 -0.1970 0.8516
vn -0.3767 -0.9263 -0.0000
vn -0.9264 -0.3766 -0.0000
vn -0.4991 -0.0019 -0.8666
vn 0.4988 -0.0020 -0.8667
vn 1.0000 -0.0018 -0.0027
vn 0.5011 -0.0017 0.8654
vn -0.5011 -0.0017 0.8654
vn -1.0000 -0.0017 -0.0000
vn -0.3507 -0.7143 -0.6057
vn 0.3504 -0.7143 -0.6058
vn 0.7491 -0.6624 0.0018
vn 0.3994 -0.5996 0.6935
vn -0.3994 -0.5996 0.6935
vn -0.7492 -0.6623 0.0013
vn 0.2035 -0.4926 -0.8461
vn 0.4927 -0.2035 -0.8461
vn -0.2059 0.4906 -0.8467
vn -0.4905 0.2060 -0.8467
vn -0.3867 0.9222 -0.0000
vn -0.9222 0.3868 -0.0000
vn -0.2016 0.4855 0.8507
vn -0.4851 0.2015 0.8509
vn 0.1974 -0.4861 0.8513
vn 0.4856 -0.1971 0.8517
vn 0.3767 -0.9264 -0.0001
vn 0.9264 -0.3765 -0.0000
vn 0.5014 -0.0020 -0.8652
vn -0.5013 -0.0019 -0.8652
vn -0.5014 -0.0017 0.8652
vn 0.5014 -0.0017 0.8652
vn 1.0000 -0.0018 -0.0031
vn 0.8652 -0.5014 -0.0000
vn -0.0000 0.5013 -0.8653
vn -0.0000 -0.5013 -0.8652
vn -0.0000 0.0174 -0.9998
vn -0.3503 -0.7143 -0.6058
vn -0.7492 -0.6624 0.0015
vn -0.3995 -0.5996 0.6934
vn 0.3995 -0.5996 0.6934
vn 0.7492 -0.6624 0.0015
vn -0.0000 -0.5070 0.8620
vn -0.0000 0.5070 0.8619
vn -0.0000 0.5072 -0.8618
vn -0.0000 -0.5072 -0.8618
vn 0.2058 -0.4993 0.8416
vn 0.0864 0.2461 0.9654
vn -0.1327 0.9912 -0.0000
vn 0.2060 0.4993 -0.8416
vn 0.0862 -0.2460 -0.9654
vn -0.1326 -0.9912 -0.0000
vn -0.2059 -0.4998 0.8413
vn -0.2060 0.4987 0.8419
vn 0.1329 0.9911 -0.0000
vn -0.2059 0.4987 -0.8420
vn -0.2057 -0.4998 -0.8413
vn 0.1324 -0.9912 -0.0000
vn 0.4503 0.2240 0.8643
vn -0.2101 0.0157 0.9776
vn -0.8766 -0.4812 0.0005
vn -0.4506 0.2234 -0.8643
vn 0.2103 0.0153 -0.9775
vn 0.8762 -0.4819 -0.0000
vn -0.8910 -0.0076 -0.4539
vn -0.4547 0.0077 -0.8906
vn 0.9999 0.0169 -0.0000
vn 0.4526 0.0076 -0.8917
vn -0.4541 -0.0076 -0.8909
vn -0.9999 -0.0167 -0.0000
vn -0.3285 0.0347 0.9439
vn 0.4441 0.0925 0.8912
vn 0.9857 0.1683 -0.0000
vn 0.3284 0.0346 -0.9439
vn -0.4449 0.0929 -0.8908
vn -0.9857 0.1685 -0.0000
vn 0.1159 -0.9933 -0.0000
vn -0.1159 -0.9933 -0.0000
vn 0.3430 0.1269 0.9307
vn -0.2103 0.0073 0.9776
vn -0.9671 -0.2545 -0.0000
vn -0.4724 0.1191 -0.8733
vn 0.2104 0.0151 -0.9775
vn 0.8783 -0.4781 -0.0003
vn -0.4556 0.0049 0.8902
vn 0.4580 -0.0048 0.8889
vn 0.9999 -0.0104 -0.0004
vn 0.4581 -0.0048 -0.8889
vn -0.4550 0.0049 -0.8905
vn -0.9999 0.0109 -0.0000
vn -0.3290 0.0346 0.9437
vn 0.4449 0.0922 0.8908
vn 0.9859 0.1672 -0.0000
vn 0.3291 0.0346 -0.9437
vn -0.4445 0.0922 -0.8910
vn -0.9859 0.1671 -0.0000
vn 0.1974 -0.4863 0.8512
vn 0.4858 -0.1971 0.8515
vn -0.2060 0.4908 0.8466
vn -0.4854 0.2016 0.8508
vn -0.2060 0.4905 -0.8467
vn -0.4850 0.2014 -0.8510
vn 0.2035 -0.4926 -0.8462
vn 0.4857 -0.1970 -0.8516
vn 0.3767 -0.9263 -0.0000
vn 0.9264 -0.3766 -0.0000
vn 0.4991 -0.0019 0.8666
vn -0.4988 -0.0020 0.8667
vn -1.0000 -0.0018 0.0027
vn -0.5011 -0.0017 -0.8654
vn 0.5011 -0.0017 -0.8654
vn 1.0000 -0.0017 -0.0000
vn 0.3507 -0.7142 0.6057
vn -0.3504 -0.7143 0.6058
vn -0.7492 -0.6624 -0.0018
vn -0.3994 -0.5996 -0.6935
vn 0.3994 -0.5996 -0.6935
vn 0.7492 -0.6623 -0.0013
vn -0.2035 -0.4926 0.8461
vn -0.4927 -0.2035 0.8461
vn 0.2059 0.4906 0.8467
vn 0.4905 0.2060 0.8467
vn 0.2016 0.4855 -0.8507
vn 0.4852 0.2015 -0.8509
vn -0.1974 -0.4861 -0.8513
vn -0.4856 -0.1970 -0.8517
vn -0.3767 -0.9264 0.0001
vn -0.9264 -0.3765 -0.0000
vn -0.5014 -0.0020 0.8652
vn 0.5014 -0.0019 0.8652
vn 0.5014 -0.0017 -0.8652
vn -0.5014 -0.0017 -0.8652
vn -1.0000 -0.0018 0.0031
vn -0.8652 -0.5014 -0.0000
vn -0.3503 -0.7143 0.6058
vn 0.3503 -0.7143 0.6058
vn 0.7492 -0.6623 -0.0016
vn 0.3995 -0.5997 -0.6934
vn -0.3995 -0.5997 -0.6934
vn -0.7492 -0.6623 -0.0015
vn -0.0000 -0.5070 -0.8620
vn -0.0000 0.5070 -0.8620
vn -0.0000 0.5072 0.8618
vn -0.0000 -0.5072 0.8618
vn -0.2058 -0.4993 -0.8417
vn -0.0864 0.2461 -0.9654
vn 0.1327 0.9912 -0.0000
vn -0.2060 0.4993 0.8416
vn -0.0862 -0.2460 0.9654
vn 0.1326 -0.9912 -0.0000
vn 0.2059 -0.4998 -0.8413
vn 0.2060 0.4987 -0.8419
vn -0.1329 0.9911 -0.0000
vn 0.2059 0.4987 0.8420
vn 0.2057 -0.4998 0.8413
vn -0.1324 -0.9912 -0.0000
vn -0.4503 0.2240 -0.8643
vn 0.2101 0.0157 -0.9776
vn 0.8766 -0.4812 -0.0005
vn 0.4506 0.2234 0.8643
vn -0.2103 0.0153 0.9775
vn -0.8762 -0.4819 -0.0000
vn -0.4539 -0.0076 0.8910
vn -0.8906 0.0077 0.4547
vn -0.9999 0.0169 -0.0000
vn -0.4526 0.0076 0.8917
vn 0.4541 -0.0076 0.8909
vn 0.9999 -0.0167 -0.0000
vn 0.3285 0.0346 -0.9439
vn -0.4442 0.0925 -0.8912
vn -0.9857 0.1683 -0.0000
vn -0.3284 0.0346 0.9439
vn 0.4449 0.0929 0.8908
vn 0.9857 0.1685 -0.0000
vn -0.3430 0.1269 -0.9307
vn 0.2103 0.0073 -0.9776
vn 0.9671 -0.2545 -0.0000
vn 0.4724 0.1191 0.8733
vn -0.2104 0.0151 0.9775
vn -0.8783 -0.4781 0.0003
vn 0.4555 0.0049 -0.8902
vn -0.4580 -0.0048 -0.8889
vn -0.9999 -0.0104 0.0004
vn -0.4581 -0.0048 0.8889
vn 0.4550 0.0049 0.8905
vn 0.9999 0.0109 -0.0000
vn 0.3290 0.0346 -0.9437
vn -0.4449 0.0922 -0.8908
vn -0.9859 0.1672 -0.0000
vn -0.3291 0.0346 0.9437
vn 0.4445 0.0922 0.8910
vn 0.9859 0.1671 -0.0000
vn -0.8512 -0.4863 0.1974
vn -0.8515 -0.1971 0.4858
vn -0.8466 0.4908 -0.2060
vn -0.8508 0.2015 -0.4854
vn 0.8467 0.4905 -0.2060
vn 0.8510 0.2014 -0.4850
vn 0.8462 -0.4926 0.2035
vn 0.8516 -0.1970 0.4857
vn -0.0000 -0.9263 0.3767
vn -0.0000 -0.3766 0.9264
vn -0.8666 -0.0019 0.4991
vn -0.8667 -0.0020 -0.4988
vn -0.0027 -0.0018 -1.0000
vn 0.8654 -0.0017 -0.5011
vn 0.8654 -0.0017 0.5011
vn -0.0000 -0.0017 1.0000
vn -0.6057 -0.7143 0.3507
vn -0.6058 -0.7143 -0.3504
vn 0.0018 -0.6624 -0.7491
vn 0.6935 -0.5996 -0.3995
vn 0.6935 -0.5996 0.3995
vn 0.0013 -0.6623 0.7492
vn -0.8461 -0.4926 -0.2035
vn -0.8461 -0.2035 -0.4927
vn -0.8467 0.4906 0.2059
vn -0.8467 0.2060 0.4905
vn 0.8507 0.4855 0.2016
vn 0.8509 0.2015 0.4852
vn 0.8513 -0.4861 -0.1974
vn 0.8517 -0.1970 -0.4856
vn -0.0001 -0.9264 -0.3767
vn -0.0000 -0.3765 -0.9264
vn -0.8652 -0.0020 -0.5014
vn -0.8653 -0.0019 0.5013
vn 0.8652 -0.0017 0.5014
vn 0.8652 -0.0017 -0.5014
vn -0.0030 -0.0018 -1.0000
vn -0.0000 -0.5014 -0.8652
vn -0.0000 -0.5013 0.8652
vn -0.6058 -0.7144 -0.3503
vn -0.6058 -0.7143 0.3503
vn 0.0015 -0.6624 0.7492
vn 0.6934 -0.5996 0.3995
vn 0.6934 -0.5997 -0.3995
vn 0.0015 -0.6623 -0.7492
vn 0.8619 -0.5070 -0.0000
vn 0.8620 0.5070 -0.0000
vn -0.8618 0.5072 -0.0000
vn -0.8618 -0.5072 -0.0000
vn 0.8416 -0.4993 -0.2058
vn 0.9654 0.2461 -0.0864
vn -0.0000 0.9911 0.1328
vn -0.8416 0.4993 -0.2060
vn -0.9654 -0.2461 -0.0862
vn -0.0000 -0.9912 0.1326
vn 0.8413 -0.4998 0.2058
vn 0.8420 0.4987 0.2060
vn -0.0000 0.9911 -0.1329
vn -0.8420 0.4987 0.2059
vn -0.8413 -0.4998 0.2057
vn -0.0000 -0.9912 -0.1324
vn 0.8643 0.2240 -0.4503
vn 0.9776 0.0157 0.2101
vn 0.0005 -0.4812 0.8766
vn -0.8643 0.2234 0.4506
vn -0.9775 0.0153 -0.2103
vn -0.0000 -0.4819 -0.8762
vn 0.4539 -0.0076 -0.8910
vn 0.4547 0.0077 0.8906
vn -0.0000 0.0169 -0.9999
vn -0.8917 0.0076 -0.4526
vn -0.8909 -0.0076 0.4542
vn -0.0000 -0.0167 0.9999
vn 0.9439 0.0347 0.3285
vn 0.8912 0.0925 -0.4441
vn -0.0000 0.1683 -0.9857
vn -0.9439 0.0346 -0.3284
vn -0.8908 0.0929 0.4449
vn -0.0000 0.1685 0.9857
vn 0.9307 0.1269 -0.3430
vn 0.9776 0.0073 0.2103
vn -0.0000 -0.2545 0.9671
vn -0.8733 0.1191 0.4724
vn -0.9775 0.0151 -0.2104
vn -0.0004 -0.4781 -0.8783
vn 0.8902 0.0049 0.4555
vn 0.8889 -0.0048 -0.4580
vn -0.0004 -0.0104 -0.9999
vn -0.8889 -0.0048 -0.4581
vn -0.8905 0.0049 0.4550
vn -0.0000 0.0109 0.9999
vn 0.9437 0.0346 0.3290
vn 0.8908 0.0922 -0.4449
vn -0.0000 0.1672 -0.9859
vn -0.9437 0.0346 -0.3291
vn -0.8910 0.0922 0.4445
vn -0.0000 0.1671 0.9859
vn -0.0000 0.2422 -0.9702
vn -0.0000 0.2422 0.9702
vn -0.0000 -0.7265 0.6872
vn -0.0000 -0.7265 -0.6872
vn 0.0481 0.2419 -0.9691
vn 0.1951 0.9808 -0.0000
vn 0.0481 0.2419 0.9691
vn -0.1430 -0.7191 0.6801
vn -0.1430 -0.7191 -0.6801
vn -0.0000 -0.2422 -0.9702
vn -0.0000 -0.2422 0.9702
vn -0.0000 0.7265 0.6871
vn -0.0000 0.7265 -0.6871
vn -0.0175 -0.2421 -0.9701
vn -0.0723 -0.9974 -0.0000
vn -0.0175 -0.2421 0.9701
vn 0.0526 0.7255 0.6862
vn 0.0526 0.7255 -0.6862
vn 0.1607 -0.9870 -0.0000
vn 0.0394 -0.2420 0.9695
vn -0.1175 0.7215 0.6824
vn -0.1175 0.7215 -0.6824
vn 0.0394 -0.2420 -0.9695
vn 0.0487 -0.7257 -0.6863
vn 0.0487 -0.7257 0.6863
vn -0.0162 0.2421 0.9701
vn -0.0669 0.9978 -0.0000
vn -0.0162 0.2421 -0.9701
vn 0.8906 0.0077 -0.4547
vn 0.0218 -0.2421 -0.9700
vn 0.0898 -0.9960 -0.0000
vn 0.0218 -0.2421 0.9700
vn -0.0654 0.7249 0.6857
vn -0.0654 0.7250 -0.6857
vn -0.1174 0.7215 0.6824
vn -0.1174 0.7215 -0.6824
vn -0.0693 -0.9976 -0.0000
vn -0.0168 -0.2421 0.9701
vn 0.0504 0.7255 0.6863
vn 0.0504 0.7256 -0.6863
vn -0.0168 -0.2421 -0.9701
vn -0.0000 -0.0319 0.9995
vn 0.9996 -0.0283 -0.0000
vn -0.0000 0.0510 0.9987
vn 0.9990 0.0453 -0.0000
vn -0.0000 -0.0279 -0.9996
vn -0.9998 -0.0222 -0.0000
vn -0.6367 -0.2173 0.7399
vn -0.6224 0.2993 0.7232
vn -0.0300 0.7163 -0.6972
vn 0.0326 0.7173 0.6960
vn -0.0327 -0.7173 0.6960
vn 0.0300 -0.7163 -0.6972
vn -0.6972 0.7163 0.0299
vn 0.6960 0.7173 -0.0326
vn 0.6960 -0.7173 0.0326
vn -0.6972 -0.7163 -0.0300
vn -0.0617 0.7280 -0.6828
vn 0.0618 0.7280 0.6828
vn -0.0674 -0.7300 0.6801
vn 0.0618 -0.7280 -0.6828
vn -0.6828 0.7280 0.0617
vn 0.6828 0.7280 -0.0618
vn 0.6801 -0.7300 0.0674
vn -0.6828 -0.7280 -0.0618
vn -0.0618 0.7280 -0.6828
vn 0.6801 0.7300 -0.0674
vn 0.8460 -0.4928 -0.2036
vn 0.8460 -0.2037 -0.4927
vn 0.8506 0.4857 0.2017
vn 0.8466 0.2061 0.4908
vn -0.8509 0.4852 0.2015
vn -0.8515 -0.4858 -0.1971
vn -0.8462 -0.2035 -0.4926
vn 0.8653 -0.0020 -0.5012
vn 0.8652 -0.0019 0.5015
vn 0.0034 -0.0018 -1.0000
vn 0.8513 -0.4861 0.1973
vn 0.8515 -0.1971 0.4859
vn 0.8507 0.4855 -0.2016
vn 0.8508 0.2015 -0.4853
vn -0.8467 0.4906 -0.2059
vn -0.8467 0.2060 -0.4905
vn -0.8463 -0.4923 0.2034
vn -0.8463 -0.2034 0.4923
vn 0.0003 -0.3766 0.9264
vn 0.8668 -0.0019 0.4987
vn 0.8668 -0.0020 -0.4987
vn 0.0030 -0.0018 -1.0000
vn -0.8653 -0.0017 -0.5012
vn -0.8654 -0.0017 0.5010
vn -0.0000 -0.5017 0.8651
vn -0.8651 0.5016 -0.0000
vn -0.0000 0.5011 0.8654
vn -0.9999 0.0138 -0.0000
vn 0.8617 0.5075 -0.0000
vn 0.8617 -0.5075 -0.0000
vn -0.9654 -0.2461 0.0864
vn -0.8418 0.4989 0.2059
vn 0.0001 0.9912 -0.1327
vn 0.9654 0.2461 0.0863
vn 0.8414 -0.4997 0.2059
vn -0.9654 -0.2461 -0.0863
vn -0.9654 0.2461 -0.0865
vn 0.9655 0.2458 -0.0863
vn 0.9655 -0.2458 -0.0860
vn -0.9776 0.0154 0.2101
vn -0.8642 0.2239 -0.4506
vn -0.0000 -0.4809 -0.8768
vn 0.9775 0.0152 -0.2102
vn 0.8646 0.2235 0.4501
vn 0.8651 0.5016 -0.0000
vn 0.8911 -0.0076 0.4537
vn 0.8908 0.0077 0.4544
vn 0.8910 -0.0076 -0.4539
vn 0.0004 -0.0168 -0.9999
vn -0.8910 0.0928 -0.4445
vn -0.9438 0.0346 0.3287
vn -0.0003 0.1682 0.9858
vn 0.8913 0.0924 0.4439
vn 0.9439 0.0346 -0.3285
vn 0.0004 0.1686 -0.9857
vn -0.0001 -0.9933 0.1158
vn -0.9774 0.0153 0.2107
vn -0.8730 0.1192 -0.4730
vn -0.0005 -0.2543 -0.9671
vn 0.9777 0.0075 -0.2101
vn 0.9307 0.1270 0.3431
vn -0.0000 -0.4783 0.8782
vn -0.8914 0.0050 -0.4533
vn -0.8910 -0.0049 0.4540
vn -0.0000 -0.0104 0.9999
vn 0.8910 -0.0049 0.4540
vn 0.8914 0.0049 -0.4533
vn -0.8910 0.0921 -0.4445
vn -0.9437 0.0345 0.3289
vn 0.8908 0.0922 0.4449
vn 0.9437 0.0347 -0.3290
vn -0.2036 -0.4928 -0.8460
vn -0.4927 -0.2037 -0.8460
vn 0.2017 0.4857 -0.8506
vn 0.4907 0.2061 -0.8466
vn 0.2015 0.4852 0.8509
vn -0.1971 -0.4858 0.8515
vn -0.4926 -0.2035 0.8462
vn -0.5012 -0.0020 -0.8653
vn 0.5015 -0.0019 -0.8652
vn -1.0000 -0.0018 -0.0034
vn 0.1973 -0.4861 -0.8513
vn 0.4859 -0.1971 -0.8515
vn -0.2016 0.4855 -0.8507
vn -0.4853 0.2015 -0.8508
vn -0.2059 0.4906 0.8467
vn -0.4905 0.2060 0.8467
vn 0.2034 -0.4923 0.8463
vn 0.4923 -0.2034 0.8463
vn 0.9264 -0.3766 -0.0003
vn 0.4987 -0.0019 -0.8668
vn -0.4987 -0.0020 -0.8668
vn -1.0000 -0.0018 -0.0031
vn -0.5012 -0.0017 0.8653
vn 0.5010 -0.0017 0.8654
vn 0.8653 -0.5012 -0.0000
vn -0.0000 0.5016 0.8651
vn -0.0000 0.5011 -0.8654
vn -0.0000 -0.5012 -0.8653
vn -0.0000 0.5075 -0.8617
vn -0.0000 -0.5075 -0.8617
vn 0.0864 -0.2461 0.9654
vn 0.2059 0.4989 0.8418
vn 0.0863 0.2460 -0.9654
vn 0.2059 -0.4997 -0.8414
vn -0.0863 -0.2461 0.9654
vn -0.0865 0.2461 0.9654
vn -0.0863 0.2458 -0.9655
vn -0.0860 -0.2458 -0.9655
vn 0.2101 0.0154 0.9776
vn -0.4506 0.2239 0.8642
vn -0.8768 -0.4809 -0.0000
vn -0.2103 0.0152 -0.9775
vn 0.4500 0.2235 -0.8646
vn -0.8911 -0.0076 -0.4537
vn -0.4528 0.0076 -0.8916
vn 0.4544 0.0077 -0.8907
vn -0.4539 -0.0076 -0.8910
vn -0.9999 -0.0168 -0.0004
vn -0.4445 0.0928 0.8910
vn 0.3287 0.0346 0.9438
vn 0.9858 0.1682 0.0003
vn 0.4439 0.0924 -0.8913
vn -0.3285 0.0346 -0.9439
vn -0.9857 0.1686 -0.0004
vn 0.1158 -0.9933 -0.0000
vn 0.2107 0.0153 0.9774
vn -0.4730 0.1192 0.8730
vn -0.9671 -0.2543 0.0006
vn -0.2101 0.0075 -0.9777
vn 0.3431 0.1270 -0.9307
vn 0.8782 -0.4783 -0.0000
vn -0.4533 0.0050 0.8914
vn 0.4540 -0.0049 0.8910
vn 0.9999 -0.0104 -0.0000
vn 0.4540 -0.0049 -0.8910
vn -0.4533 0.0049 -0.8914
vn -0.4445 0.0921 0.8910
vn 0.3289 0.0345 0.9437
vn 0.4449 0.0922 -0.8908
vn -0.3290 0.0347 -0.9437
vn 0.2036 -0.4928 0.8460
vn 0.4927 -0.2037 0.8460
vn -0.2017 0.4856 0.8506
vn -0.4907 0.2061 0.8466
vn -0.2015 0.4852 -0.8509
vn 0.1971 -0.4858 -0.8515
vn 0.4926 -0.2035 -0.8462
vn 0.5012 -0.0020 0.8653
vn -0.5015 -0.0019 0.8652
vn 1.0000 -0.0018 0.0034
vn -0.1973 -0.4861 0.8513
vn -0.4859 -0.1971 0.8515
vn 0.2016 0.4855 0.8507
vn 0.4853 0.2015 0.8508
vn 0.2059 0.4906 -0.8467
vn 0.4905 0.2060 -0.8468
vn -0.2034 -0.4923 -0.8463
vn -0.4923 -0.2034 -0.8463
vn -0.9264 -0.3766 0.0003
vn -0.4987 -0.0019 0.8668
vn 0.4987 -0.0020 0.8668
vn 1.0000 -0.0018 0.0030
vn 0.5012 -0.0017 -0.8653
vn -0.5010 -0.0017 -0.8654
vn -0.8651 -0.5017 -0.0000
vn -0.8654 0.5011 -0.0000
vn 0.8654 0.5011 -0.0000
vn -0.8653 -0.5012 -0.0000
vn -0.0000 0.5075 0.8617
vn -0.0000 -0.5075 0.8617
vn -0.0864 -0.2461 -0.9654
vn -0.2059 0.4989 -0.8418
vn -0.0863 0.2460 0.9654
vn -0.2059 -0.4997 0.8413
vn 0.0863 -0.2461 -0.9654
vn 0.0865 0.2461 -0.9654
vn 0.0863 0.2458 0.9655
vn 0.0860 -0.2458 0.9655
vn -0.2101 0.0154 -0.9776
vn 0.4506 0.2239 -0.8642
vn 0.8768 -0.4809 -0.0000
vn 0.2103 0.0152 0.9775
vn -0.4500 0.2235 0.8646
vn -0.4537 -0.0076 0.8911
vn -0.8915 0.0076 0.4529
vn -0.4544 0.0077 0.8907
vn 0.4539 -0.0076 0.8910
vn 0.9999 -0.0168 0.0004
vn 0.4445 0.0928 -0.8910
vn -0.3287 0.0346 -0.9438
vn -0.9858 0.1682 -0.0003
vn -0.4439 0.0924 0.8913
vn 0.3285 0.0346 0.9439
vn 0.9857 0.1686 0.0004
vn -0.1158 -0.9933 -0.0000
vn -0.2107 0.0153 -0.9774
vn 0.4730 0.1192 -0.8730
vn 0.9671 -0.2543 -0.0005
vn 0.2101 0.0075 0.9777
vn -0.3431 0.1270 0.9307
vn -0.8782 -0.4783 -0.0000
vn 0.4533 0.0050 -0.8914
vn -0.4540 -0.0049 -0.8910
vn -0.9999 -0.0104 -0.0000
vn -0.4540 -0.0049 0.8910
vn 0.4533 0.0049 0.8914
vn 0.4445 0.0921 -0.8910
vn -0.3289 0.0345 -0.9437
vn -0.4449 0.0922 0.8908
vn 0.3290 0.0347 0.9437
vn -0.8460 -0.4928 0.2036
vn -0.8460 -0.2037 0.4927
vn -0.8506 0.4856 -0.2017
vn -0.8466 0.2061 -0.4907
vn 0.8509 0.4852 -0.2015
vn 0.8468 0.2060 -0.4905
vn 0.8515 -0.4858 0.1971
vn 0.8462 -0.2035 0.4926
vn -0.8653 -0.0020 0.5012
vn -0.8652 -0.0019 -0.5015
vn -0.0034 -0.0018 1.0000
vn -0.8513 -0.4861 -0.1973
vn -0.8515 -0.1971 -0.4859
vn -0.8507 0.4855 0.2016
vn -0.8508 0.2015 0.4853
vn 0.8467 0.4906 0.2059
vn 0.8467 0.2060 0.4905
vn 0.8463 -0.4923 -0.2034
vn 0.8463 -0.2034 -0.4923
vn -0.0003 -0.3766 -0.9264
vn -0.8668 -0.0019 -0.4987
vn -0.8668 -0.0020 0.4987
vn -0.0030 -0.0018 1.0000
vn 0.8653 -0.0017 0.5012
vn 0.8654 -0.0017 -0.5010
vn -0.0000 -0.5017 -0.8651
vn -0.0000 0.5016 -0.8651
vn 0.8651 -0.5017 -0.0000
vn -0.0000 -0.5012 0.8653
vn -0.8617 0.5075 -0.0000
vn -0.8617 -0.5075 -0.0000
vn 0.9654 -0.2461 -0.0864
vn 0.8418 0.4989 -0.2059
vn -0.0000 0.9912 0.1327
vn -0.9654 0.2460 -0.0863
vn -0.8414 -0.4997 -0.2059
vn 0.9654 -0.2461 0.0863
vn 0.9654 0.2461 0.0865
vn -0.9655 0.2458 0.0863
vn -0.9655 -0.2458 0.0860
vn 0.9776 0.0154 -0.2101
vn 0.8642 0.2239 0.4506
vn -0.0000 -0.4809 0.8768
vn -0.9775 0.0152 0.2103
vn -0.8646 0.2235 -0.4500
vn 0.4537 -0.0076 -0.8911
vn 0.4528 0.0076 0.8916
vn -0.8907 0.0077 -0.4544
vn -0.8910 -0.0076 0.4539
vn -0.0004 -0.0168 0.9999
vn 0.8910 0.0928 0.4445
vn 0.9438 0.0346 -0.3287
vn 0.0003 0.1682 -0.9858
vn -0.8913 0.0924 -0.4439
vn -0.9439 0.0346 0.3285
vn -0.0004 0.1686 0.9857
vn -0.0000 -0.9933 -0.1158
vn 0.9774 0.0153 -0.2107
vn 0.8730 0.1192 0.4730
vn 0.0005 -0.2543 0.9671
vn -0.9777 0.0075 0.2101
vn -0.9307 0.1270 -0.3430
vn -0.0000 -0.4783 -0.8782
vn 0.8914 0.0050 0.4533
vn 0.8910 -0.0049 -0.4540
vn -0.0000 -0.0104 -0.9999
vn -0.8910 -0.0049 -0.4540
vn -0.8914 0.0049 0.4533
vn 0.8910 0.0921 0.4445
vn 0.9437 0.0345 -0.3289
vn -0.8908 0.0922 -0.4449
vn -0.9437 0.0347 0.3290
vn 0.8916 0.0076 -0.4528
vn -0.0654 0.7250 0.6857
vn -0.0654 0.7249 -0.6857
vn 0.0504 0.7256 0.6863
vn 0.0504 0.7255 -0.6863
vn 0.0326 0.7173 -0.6960
vn -0.0300 0.7163 0.6972
vn 0.0300 -0.7163 0.6972
vn -0.0326 -0.7173 -0.6960
vn -0.6960 0.7173 -0.0325
vn 0.6972 0.7163 0.0301
vn 0.6972 -0.7163 -0.0300
vn -0.6960 -0.7173 0.0326
vn 0.0674 0.7300 -0.6801
vn -0.0673 0.7300 0.6801
vn 0.0618 -0.7280 0.6828
vn -0.0673 -0.7300 -0.6801
vn -0.6801 0.7300 -0.0673
vn 0.6801 0.7300 0.0673
vn 0.6828 -0.7280 -0.0618
vn -0.6801 -0.7300 0.0673
vn 0.6828 0.7280 0.0618
vt 0.375000 0.875000
vt 0.625000 0.875000
vt 0.875000 0.875000
vt 0.125000 0.875000
vt 0.625000 0.375000
vt 0.875000 0.375000
s 0
usemtl ruins_hk_gantry
f 1/1/1 9/1/1 11/1/1
f 7/2/2 16/2/2 14/2/2
f 2/3/1 10/3/1 9/3/1
f 5/4/2 15/4/2 16/4/2
f 15/5/2 8/5/2 13/5/2
f 7/1/2 13/1/2 8/1/2
f 1/2/1 12/2/1 3/2/1
f 3/4/1 10/4/1 4/4/1
f 18/6/3 19/6/3 17/6/3
f 22/6/4 23/6/4 21/6/4
f 24/6/5 20/6/5 18/6/5
f 17/6/6 21/6/6 23/6/6
f 646/2/1 648/2/1 647/2/1
f 643/2/3 537/2/3 639/2/3
f 18/6/2 32/6/2 31/6/2
f 30/6/3 28/6/3 29/6/3
f 31/6/6 27/6/6 30/6/6
f 32/6/4 26/6/4 31/6/4
f 29/6/5 25/6/5 32/6/5
f 36/6/7 34/6/7 33/6/7
f 34/6/8 38/6/8 35/6/8
f 37/6/9 39/6/9 40/6/9
f 37/6/10 41/6/10 38/6/10
f 39/6/11 43/6/11 40/6/11
f 41/6/12 43/6/12 44/6/12
f 42/6/13 46/6/13 43/6/13
f 44/6/14 46/6/14 47/6/14
f 45/6/15 49/6/15 46/6/15
f 47/6/16 49/6/16 50/6/16
f 49/6/17 33/6/17 34/6/17
f 49/6/18 35/6/18 50/6/18
f 35/6/19 52/6/19 51/6/19
f 38/6/20 53/6/20 52/6/20
f 41/6/21 54/6/21 53/6/21
f 47/6/22 54/6/22 44/6/22
f 50/6/23 55/6/23 47/6/23
f 35/6/24 56/6/24 50/6/24
f 51/6/25 52/6/25 57/6/25
f 52/6/26 53/6/26 57/6/26
f 53/6/27 54/6/27 57/6/27
f 54/6/28 55/6/28 57/6/28
f 55/6/29 56/6/29 57/6/29
f 56/6/30 51/6/30 57/6/30
f 61/6/31 59/6/31 62/6/31
f 59/6/32 63/6/32 62/6/32
f 64/6/33 62/6/33 65/6/33
f 62/6/34 66/6/34 65/6/34
f 64/6/35 68/6/35 67/6/35
f 68/6/36 66/6/36 69/6/36
f 67/6/37 71/6/37 70/6/37
f 71/6/38 69/6/38 72/6/38
f 70/6/39 74/6/39 73/6/39
f 74/6/40 72/6/40 75/6/40
f 58/6/41 74/6/41 59/6/41
f 59/6/42 75/6/42 60/6/42
f 60/6/43 77/6/43 63/6/43
f 63/6/44 78/6/44 66/6/44
f 66/6/24 79/6/24 69/6/24
f 72/6/45 79/6/45 80/6/45
f 75/6/46 80/6/46 81/6/46
f 60/6/47 81/6/47 76/6/47
f 305/6/48 277/6/48 302/6/48
f 446/6/49 418/6/49 443/6/49
f 164/6/1 186/6/1 189/6/1
f 167/6/50 189/6/50 192/6/50
f 734/6/51 735/6/51 736/6/51
f 277/6/2 317/6/2 302/6/2
f 76/6/52 82/6/52 77/6/52
f 77/6/53 82/6/53 78/6/53
f 78/6/54 82/6/54 79/6/54
f 79/6/55 82/6/55 80/6/55
f 80/6/56 82/6/56 81/6/56
f 81/6/57 82/6/57 76/6/57
f 84/6/58 95/6/58 83/6/58
f 85/6/59 96/6/59 84/6/59
f 85/6/1 98/6/1 97/6/1
f 86/6/60 99/6/60 98/6/60
f 87/6/61 100/6/61 99/6/61
f 83/6/2 100/6/2 88/6/2
f 83/6/62 90/6/62 84/6/62
f 85/6/63 90/6/63 91/6/63
f 86/6/64 91/6/64 92/6/64
f 86/6/65 93/6/65 87/6/65
f 88/6/66 93/6/66 94/6/66
f 88/6/67 89/6/67 83/6/67
f 102/6/68 95/6/68 96/6/68
f 97/6/69 102/6/69 96/6/69
f 98/6/70 103/6/70 97/6/70
f 105/6/71 98/6/71 99/6/71
f 100/6/72 105/6/72 99/6/72
f 101/6/73 100/6/73 95/6/73
f 107/6/74 114/6/74 108/6/74
f 109/6/75 114/6/75 115/6/75
f 110/6/76 115/6/76 116/6/76
f 110/6/77 117/6/77 111/6/77
f 112/6/78 117/6/78 118/6/78
f 112/6/79 113/6/79 107/6/79
f 64/6/80 36/6/80 61/6/80
f 501/6/81 490/6/81 491/6/81
f 112/6/82 121/6/82 122/6/82
f 111/6/83 122/6/83 123/6/83
f 124/6/84 111/6/84 123/6/84
f 110/6/85 119/6/85 109/6/85
f 120/6/86 125/6/86 126/6/86
f 120/6/87 127/6/87 121/6/87
f 121/6/88 128/6/88 122/6/88
f 123/6/89 128/6/89 129/6/89
f 123/6/90 130/6/90 124/6/90
f 119/6/91 130/6/91 125/6/91
f 129/6/92 127/6/92 126/6/92
f 125/6/93 129/6/93 126/6/93
f 131/6/94 138/6/94 132/6/94
f 133/6/95 138/6/95 139/6/95
f 133/6/96 140/6/96 134/6/96
f 134/6/97 141/6/97 135/6/97
f 136/6/98 141/6/98 142/6/98
f 136/6/99 137/6/99 131/6/99
f 133/6/100 144/6/100 132/6/100
f 132/6/101 145/6/101 131/6/101
f 145/6/102 136/6/102 131/6/102
f 146/6/103 135/6/103 136/6/103
f 147/6/104 134/6/104 135/6/104
f 148/6/105 133/6/105 134/6/105
f 144/6/106 149/6/106 150/6/106
f 144/6/107 151/6/107 145/6/107
f 145/6/108 152/6/108 146/6/108
f 147/6/109 152/6/109 153/6/109
f 147/6/110 154/6/110 148/6/110
f 148/6/111 149/6/111 143/6/111
f 150/6/92 152/6/92 151/6/92
f 149/6/93 153/6/93 150/6/93
f 158/6/112 156/6/112 155/6/112
f 156/6/113 160/6/113 157/6/113
f 159/6/114 161/6/114 162/6/114
f 159/6/115 163/6/115 160/6/115
f 161/6/116 165/6/116 162/6/116
f 163/6/117 165/6/117 166/6/117
f 164/6/118 168/6/118 165/6/118
f 166/6/119 168/6/119 169/6/119
f 167/6/120 171/6/120 168/6/120
f 169/6/121 171/6/121 172/6/121
f 171/6/122 155/6/122 156/6/122
f 171/6/123 157/6/123 172/6/123
f 157/6/124 174/6/124 173/6/124
f 160/6/125 175/6/125 174/6/125
f 163/6/126 176/6/126 175/6/126
f 169/6/127 176/6/127 166/6/127
f 172/6/128 177/6/128 169/6/128
f 157/6/129 178/6/129 172/6/129
f 173/6/130 174/6/130 179/6/130
f 174/6/131 175/6/131 179/6/131
f 175/6/132 176/6/132 179/6/132
f 176/6/133 177/6/133 179/6/133
f 177/6/134 178/6/134 179/6/134
f 178/6/135 173/6/135 179/6/135
f 183/6/136 181/6/136 184/6/136
f 181/6/137 185/6/137 184/6/137
f 186/6/138 184/6/138 187/6/138
f 184/6/139 188/6/139 187/6/139
f 186/6/140 190/6/140 189/6/140
f 190/6/141 188/6/141 191/6/141
f 189/6/142 193/6/142 192/6/142
f 193/6/143 191/6/143 194/6/143
f 192/6/144 196/6/144 195/6/144
f 196/6/145 194/6/145 197/6/145
f 180/6/146 196/6/146 181/6/146
f 181/6/147 197/6/147 182/6/147
f 182/6/148 199/6/148 185/6/148
f 185/6/149 200/6/149 188/6/149
f 188/6/129 201/6/129 191/6/129
f 194/6/150 201/6/150 202/6/150
f 197/6/151 202/6/151 203/6/151
f 182/6/152 203/6/152 198/6/152
f 430/6/153 452/6/153 455/6/153
f 308/6/50 280/6/50 305/6/50
f 33/6/2 73/6/2 58/6/2
f 289/6/154 311/6/154 314/6/154
f 292/6/155 314/6/155 317/6/155
f 733/6/156 734/6/156 727/6/156
f 198/6/131 204/6/131 199/6/131
f 199/6/157 204/6/157 200/6/157
f 200/6/158 204/6/158 201/6/158
f 201/6/159 204/6/159 202/6/159
f 202/6/160 204/6/160 203/6/160
f 203/6/161 204/6/161 198/6/161
f 206/6/162 217/6/162 205/6/162
f 207/6/163 218/6/163 206/6/163
f 207/6/1 220/6/1 219/6/1
f 208/6/164 221/6/164 220/6/164
f 209/6/165 222/6/165 221/6/165
f 205/6/2 222/6/2 210/6/2
f 205/6/166 212/6/166 206/6/166
f 207/6/167 212/6/167 213/6/167
f 208/6/168 213/6/168 214/6/168
f 208/6/169 215/6/169 209/6/169
f 210/6/170 215/6/170 216/6/170
f 210/6/171 211/6/171 205/6/171
f 224/6/172 217/6/172 218/6/172
f 219/6/173 224/6/173 218/6/173
f 220/6/174 225/6/174 219/6/174
f 227/6/175 220/6/175 221/6/175
f 222/6/176 227/6/176 221/6/176
f 223/6/177 222/6/177 217/6/177
f 229/6/178 236/6/178 230/6/178
f 231/6/179 236/6/179 237/6/179
f 232/6/180 237/6/180 238/6/180
f 232/6/181 239/6/181 233/6/181
f 234/6/182 239/6/182 240/6/182
f 234/6/183 235/6/183 229/6/183
f 119/6/184 108/6/184 109/6/184
f 352/6/185 365/6/185 351/6/185
f 234/6/186 243/6/186 244/6/186
f 233/6/187 244/6/187 245/6/187
f 246/6/188 233/6/188 245/6/188
f 232/6/189 241/6/189 231/6/189
f 242/6/190 247/6/190 248/6/190
f 242/6/191 249/6/191 243/6/191
f 243/6/192 250/6/192 244/6/192
f 245/6/193 250/6/193 251/6/193
f 245/6/194 252/6/194 246/6/194
f 241/6/195 252/6/195 247/6/195
f 251/6/196 249/6/196 248/6/196
f 247/6/197 251/6/197 248/6/197
f 253/6/198 260/6/198 254/6/198
f 255/6/199 260/6/199 261/6/199
f 255/6/200 262/6/200 256/6/200
f 256/6/201 263/6/201 257/6/201
f 258/6/202 263/6/202 264/6/202
f 258/6/203 259/6/203 253/6/203
f 255/6/204 266/6/204 254/6/204
f 254/6/205 267/6/205 253/6/205
f 267/6/206 258/6/206 253/6/206
f 268/6/207 257/6/207 258/6/207
f 269/6/208 256/6/208 257/6/208
f 270/6/209 255/6/209 256/6/209
f 266/6/210 271/6/210 272/6/210
f 266/6/211 273/6/211 267/6/211
f 267/6/212 274/6/212 268/6/212
f 269/6/213 274/6/213 275/6/213
f 269/6/214 276/6/214 270/6/214
f 270/6/215 271/6/215 265/6/215
f 272/6/196 274/6/196 273/6/196
f 272/6/197 276/6/197 275/6/197
f 280/6/216 278/6/216 277/6/216
f 278/6/217 282/6/217 279/6/217
f 281/6/218 283/6/218 284/6/218
f 281/6/219 285/6/219 282/6/219
f 283/6/140 287/6/140 284/6/140
f 285/6/141 287/6/141 288/6/141
f 286/6/220 290/6/220 287/6/220
f 288/6/221 290/6/221 291/6/221
f 289/6/222 293/6/222 290/6/222
f 291/6/223 293/6/223 294/6/223
f 293/6/224 277/6/224 278/6/224
f 293/6/225 279/6/225 294/6/225
f 279/6/226 296/6/226 295/6/226
f 282/6/227 297/6/227 296/6/227
f 285/6/228 298/6/228 297/6/228
f 291/6/229 298/6/229 288/6/229
f 294/6/230 299/6/230 291/6/230
f 279/6/231 300/6/231 294/6/231
f 295/6/232 296/6/232 301/6/232
f 296/6/233 297/6/233 301/6/233
f 297/6/234 298/6/234 301/6/234
f 298/6/235 299/6/235 301/6/235
f 299/6/236 300/6/236 301/6/236
f 300/6/237 295/6/237 301/6/237
f 305/6/238 303/6/238 306/6/238
f 303/6/239 307/6/239 306/6/239
f 308/6/240 306/6/240 309/6/240
f 306/6/241 310/6/241 309/6/241
f 308/6/116 312/6/116 311/6/116
f 312/6/117 310/6/117 313/6/117
f 311/6/242 315/6/242 314/6/242
f 315/6/243 313/6/243 316/6/243
f 314/6/244 318/6/244 317/6/244
f 318/6/245 316/6/245 319/6/245
f 302/6/246 318/6/246 303/6/246
f 303/6/247 319/6/247 304/6/247
f 304/6/248 321/6/248 307/6/248
f 307/6/249 322/6/249 310/6/249
f 310/6/231 323/6/231 313/6/231
f 316/6/250 323/6/250 324/6/250
f 319/6/251 324/6/251 325/6/251
f 304/6/252 325/6/252 320/6/252
f 443/6/253 415/6/253 440/6/253
f 45/6/49 67/6/49 70/6/49
f 424/6/1 446/6/1 449/6/1
f 427/6/80 449/6/80 452/6/80
f 48/6/253 70/6/253 73/6/253
f 415/6/2 455/6/2 440/6/2
f 320/6/254 326/6/254 321/6/254
f 321/6/255 326/6/255 322/6/255
f 322/6/256 326/6/256 323/6/256
f 323/6/257 326/6/257 324/6/257
f 324/6/258 326/6/258 325/6/258
f 325/6/259 326/6/259 320/6/259
f 328/6/260 339/6/260 327/6/260
f 329/6/261 340/6/261 328/6/261
f 329/6/1 342/6/1 341/6/1
f 330/6/262 343/6/262 342/6/262
f 331/6/263 344/6/263 343/6/263
f 327/6/2 344/6/2 332/6/2
f 327/6/264 334/6/264 328/6/264
f 329/6/265 334/6/265 335/6/265
f 330/6/266 335/6/266 336/6/266
f 330/6/267 337/6/267 331/6/267
f 332/6/268 337/6/268 338/6/268
f 332/6/269 333/6/269 327/6/269
f 346/6/270 339/6/270 340/6/270
f 341/6/271 346/6/271 340/6/271
f 342/6/272 347/6/272 341/6/272
f 349/6/273 342/6/273 343/6/273
f 344/6/274 349/6/274 343/6/274
f 345/6/275 344/6/275 339/6/275
f 351/6/276 358/6/276 352/6/276
f 353/6/277 358/6/277 359/6/277
f 354/6/278 359/6/278 360/6/278
f 354/6/279 361/6/279 355/6/279
f 356/6/280 361/6/280 362/6/280
f 351/6/281 362/6/281 357/6/281
f 241/6/282 230/6/282 231/6/282
f 108/6/283 121/6/283 107/6/283
f 356/6/284 365/6/284 366/6/284
f 355/6/285 366/6/285 367/6/285
f 368/6/286 355/6/286 367/6/286
f 354/6/287 363/6/287 353/6/287
f 364/6/288 369/6/288 370/6/288
f 364/6/289 371/6/289 365/6/289
f 365/6/290 372/6/290 366/6/290
f 367/6/291 372/6/291 373/6/291
f 367/6/292 374/6/292 368/6/292
f 363/6/293 374/6/293 369/6/293
f 373/6/197 371/6/197 370/6/197
f 369/6/196 373/6/196 370/6/196
f 375/6/294 382/6/294 376/6/294
f 377/6/295 382/6/295 383/6/295
f 377/6/296 384/6/296 378/6/296
f 378/6/297 385/6/297 379/6/297
f 380/6/298 385/6/298 386/6/298
f 380/6/299 381/6/299 375/6/299
f 377/6/300 388/6/300 376/6/300
f 376/6/301 389/6/301 375/6/301
f 389/6/302 380/6/302 375/6/302
f 390/6/303 379/6/303 380/6/303
f 391/6/304 378/6/304 379/6/304
f 392/6/305 377/6/305 378/6/305
f 388/6/306 393/6/306 394/6/306
f 388/6/307 395/6/307 389/6/307
f 389/6/308 396/6/308 390/6/308
f 391/6/309 396/6/309 397/6/309
f 391/6/310 398/6/310 392/6/310
f 392/6/311 393/6/311 387/6/311
f 394/6/197 396/6/197 395/6/197
f 393/6/196 397/6/196 394/6/196
f 400/6/3 401/6/3 399/6/3
f 404/6/4 405/6/4 403/6/4
f 406/6/5 402/6/5 400/6/5
f 399/6/6 403/6/6 405/6/6
f 402/6/1 407/6/1 401/6/1
f 809/6/2 814/6/2 808/6/2
f 540/2/6 644/2/6 642/2/6
f 412/6/3 410/6/3 411/6/3
f 413/6/6 409/6/6 412/6/6
f 414/6/4 408/6/4 413/6/4
f 411/6/5 407/6/5 414/6/5
f 418/6/312 416/6/312 415/6/312
f 416/6/313 420/6/313 417/6/313
f 419/6/314 421/6/314 422/6/314
f 419/6/315 423/6/315 420/6/315
f 421/6/35 425/6/35 422/6/35
f 423/6/36 425/6/36 426/6/36
f 424/6/316 428/6/316 425/6/316
f 426/6/317 428/6/317 429/6/317
f 427/6/318 431/6/318 428/6/318
f 429/6/319 431/6/319 432/6/319
f 431/6/320 415/6/320 416/6/320
f 431/6/321 417/6/321 432/6/321
f 417/6/322 434/6/322 433/6/322
f 420/6/323 435/6/323 434/6/323
f 423/6/324 436/6/324 435/6/324
f 429/6/325 436/6/325 426/6/325
f 432/6/326 437/6/326 429/6/326
f 417/6/327 438/6/327 432/6/327
f 433/6/328 434/6/328 439/6/328
f 434/6/329 435/6/329 439/6/329
f 435/6/330 436/6/330 439/6/330
f 436/6/331 437/6/331 439/6/331
f 437/6/332 438/6/332 439/6/332
f 438/6/333 433/6/333 439/6/333
f 443/6/334 441/6/334 444/6/334
f 441/6/335 445/6/335 444/6/335
f 446/6/336 444/6/336 447/6/336
f 444/6/337 448/6/337 447/6/337
f 446/6/11 450/6/11 449/6/11
f 450/6/12 448/6/12 451/6/12
f 449/6/338 453/6/338 452/6/338
f 453/6/339 451/6/339 454/6/339
f 452/6/340 456/6/340 455/6/340
f 456/6/341 454/6/341 457/6/341
f 440/6/342 456/6/342 441/6/342
f 441/6/343 457/6/343 442/6/343
f 442/6/344 459/6/344 445/6/344
f 445/6/345 460/6/345 448/6/345
f 448/6/327 461/6/327 451/6/327
f 454/6/346 461/6/346 462/6/346
f 457/6/347 462/6/347 463/6/347
f 442/6/348 463/6/348 458/6/348
f 183/6/349 155/6/349 180/6/349
f 186/6/154 158/6/154 183/6/154
f 42/6/1 64/6/1 67/6/1
f 61/6/153 33/6/153 58/6/153
f 170/6/350 192/6/350 195/6/350
f 155/6/2 195/6/2 180/6/2
f 458/6/351 464/6/351 459/6/351
f 459/6/352 464/6/352 460/6/352
f 460/6/353 464/6/353 461/6/353
f 461/6/354 464/6/354 462/6/354
f 462/6/355 464/6/355 463/6/355
f 463/6/356 464/6/356 458/6/356
f 466/6/357 477/6/357 465/6/357
f 467/6/358 478/6/358 466/6/358
f 467/6/1 480/6/1 479/6/1
f 468/6/359 481/6/359 480/6/359
f 469/6/360 482/6/360 481/6/360
f 465/6/2 482/6/2 470/6/2
f 465/6/361 472/6/361 466/6/361
f 467/6/362 472/6/362 473/6/362
f 468/6/363 473/6/363 474/6/363
f 468/6/364 475/6/364 469/6/364
f 470/6/365 475/6/365 476/6/365
f 470/6/366 471/6/366 465/6/366
f 484/6/367 477/6/367 478/6/367
f 479/6/368 484/6/368 478/6/368
f 480/6/369 485/6/369 479/6/369
f 487/6/370 480/6/370 481/6/370
f 482/6/371 487/6/371 481/6/371
f 483/6/372 482/6/372 477/6/372
f 489/6/373 496/6/373 490/6/373
f 491/6/374 496/6/374 497/6/374
f 492/6/375 497/6/375 498/6/375
f 492/6/376 499/6/376 493/6/376
f 494/6/377 499/6/377 500/6/377
f 494/6/378 495/6/378 489/6/378
f 363/6/379 352/6/379 353/6/379
f 230/6/380 243/6/380 229/6/380
f 494/6/381 503/6/381 504/6/381
f 493/6/382 504/6/382 505/6/382
f 506/6/383 493/6/383 505/6/383
f 492/6/384 501/6/384 491/6/384
f 502/6/385 507/6/385 508/6/385
f 502/6/386 509/6/386 503/6/386
f 503/6/387 510/6/387 504/6/387
f 505/6/388 510/6/388 511/6/388
f 505/6/389 512/6/389 506/6/389
f 501/6/390 512/6/390 507/6/390
f 511/6/93 509/6/93 508/6/93
f 508/6/92 512/6/92 511/6/92
f 513/6/391 520/6/391 514/6/391
f 515/6/392 520/6/392 521/6/392
f 515/6/393 522/6/393 516/6/393
f 516/6/394 523/6/394 517/6/394
f 518/6/395 523/6/395 524/6/395
f 518/6/396 519/6/396 513/6/396
f 515/6/397 526/6/397 514/6/397
f 514/6/398 527/6/398 513/6/398
f 527/6/399 518/6/399 513/6/399
f 528/6/400 517/6/400 518/6/400
f 529/6/401 516/6/401 517/6/401
f 530/6/402 515/6/402 516/6/402
f 526/6/403 531/6/403 532/6/403
f 526/6/404 533/6/404 527/6/404
f 527/6/405 534/6/405 528/6/405
f 529/6/406 534/6/406 535/6/406
f 529/6/407 536/6/407 530/6/407
f 530/6/408 531/6/408 525/6/408
f 532/6/93 534/6/93 533/6/93
f 531/6/92 535/6/92 532/6/92
f 554/2/409 550/2/409 549/2/409
f 555/2/1 551/2/1 550/2/1
f 556/2/410 552/2/410 551/2/410
f 557/2/411 553/2/411 552/2/411
f 558/2/412 549/2/412 553/2/412
f 564/2/409 560/2/409 559/2/409
f 565/2/1 561/2/1 560/2/1
f 566/2/410 562/2/410 561/2/410
f 567/2/411 563/2/411 562/2/411
f 568/2/412 559/2/412 563/2/412
f 638/2/413 574/2/413 575/2/413
f 638/2/414 576/2/414 637/2/414
f 637/2/415 577/2/415 636/2/415
f 636/2/416 578/2/416 635/2/416
f 634/2/417 578/2/417 574/2/417
f 584/2/409 580/2/409 579/2/409
f 585/2/1 581/2/1 580/2/1
f 586/2/410 582/2/410 581/2/410
f 587/2/411 583/2/411 582/2/411
f 588/2/412 579/2/412 583/2/412
f 594/2/409 590/2/409 589/2/409
f 595/2/1 591/2/1 590/2/1
f 596/2/410 592/2/410 591/2/410
f 597/2/411 593/2/411 592/2/411
f 598/2/412 589/2/412 593/2/412
f 600/2/418 604/2/418 599/2/418
f 601/2/2 605/2/2 600/2/2
f 602/2/419 606/2/419 601/2/419
f 603/2/420 607/2/420 602/2/420
f 599/2/421 608/2/421 603/2/421
f 633/2/422 615/2/422 614/2/422
f 630/2/423 615/2/423 629/2/423
f 631/2/424 616/2/424 630/2/424
f 632/2/425 617/2/425 631/2/425
f 632/2/426 614/2/426 618/2/426
f 620/2/418 624/2/418 619/2/418
f 621/2/2 625/2/2 620/2/2
f 622/2/419 626/2/419 621/2/419
f 623/2/420 627/2/420 622/2/420
f 619/2/421 628/2/421 623/2/421
f 611/2/427 629/2/427 610/2/427
f 611/2/428 631/2/428 630/2/428
f 612/2/429 632/2/429 631/2/429
f 609/2/430 632/2/430 613/2/430
f 610/2/431 633/2/431 609/2/431
f 573/2/432 634/2/432 569/2/432
f 636/2/433 573/2/433 572/2/433
f 637/2/434 572/2/434 571/2/434
f 638/2/435 571/2/435 570/2/435
f 569/2/436 638/2/436 570/2/436
f 648/2/4 545/2/4 647/2/4
f 640/2/6 541/2/6 643/2/6
f 641/2/4 540/2/4 642/2/4
f 399/6/2 414/6/2 400/6/2
f 649/2/5 544/2/5 646/2/5
f 766/6/2 769/6/2 760/6/2
f 537/2/5 641/2/5 639/2/5
f 542/2/3 640/2/3 644/2/3
f 548/2/5 648/2/5 650/2/5
f 490/6/437 503/6/437 489/6/437
f 645/2/3 547/2/3 649/2/3
f 912/2/2 911/2/2 901/2/2
f 642/2/1 644/2/1 640/2/1
f 686/2/438 656/2/438 690/2/438
f 687/2/439 657/2/439 686/2/439
f 687/2/440 659/2/440 658/2/440
f 688/2/441 660/2/441 659/2/441
f 690/2/442 660/2/442 689/2/442
f 662/2/418 666/2/418 661/2/418
f 663/2/2 667/2/2 662/2/2
f 664/2/419 668/2/419 663/2/419
f 665/2/420 669/2/420 664/2/420
f 661/2/421 670/2/421 665/2/421
f 685/2/422 677/2/422 676/2/422
f 682/2/423 677/2/423 681/2/423
f 683/2/424 678/2/424 682/2/424
f 684/2/425 679/2/425 683/2/425
f 684/2/426 676/2/426 680/2/426
f 673/2/427 681/2/427 672/2/427
f 673/2/428 683/2/428 682/2/428
f 674/2/443 684/2/443 683/2/443
f 671/2/444 684/2/444 675/2/444
f 672/2/431 685/2/431 671/2/431
f 653/2/445 686/2/445 652/2/445
f 654/2/446 687/2/446 653/2/446
f 655/2/447 688/2/447 654/2/447
f 655/2/448 690/2/448 689/2/448
f 651/2/449 686/2/449 690/2/449
f 692/6/3 693/6/3 691/6/3
f 694/6/1 695/6/1 693/6/1
f 696/6/4 697/6/4 695/6/4
f 698/6/5 694/6/5 692/6/5
f 691/6/6 695/6/6 697/6/6
f 704/6/3 699/6/3 703/6/3
f 700/6/1 701/6/1 699/6/1
f 705/6/5 700/6/5 704/6/5
f 702/6/4 706/6/4 701/6/4
f 703/6/6 701/6/6 706/6/6
f 708/6/3 709/6/3 707/6/3
f 710/6/1 711/6/1 709/6/1
f 712/6/4 713/6/4 711/6/4
f 714/6/5 710/6/5 708/6/5
f 707/6/6 711/6/6 713/6/6
f 729/6/450 736/6/450 732/6/450
f 718/6/1 719/6/1 717/6/1
f 732/6/451 728/6/451 729/6/451
f 286/6/1 308/6/1 311/6/1
f 716/6/3 723/6/3 715/6/3
f 722/6/5 724/6/5 716/6/5
f 725/6/4 721/6/4 726/6/4
f 715/6/6 726/6/6 721/6/6
f 728/6/5 718/6/5 729/6/5
f 729/6/3 717/6/3 730/6/3
f 732/6/452 731/6/452 737/6/452
f 725/6/453 732/6/453 724/6/453
f 733/6/454 726/6/454 734/6/454
f 737/6/455 735/6/455 734/6/455
f 736/6/456 735/6/456 731/6/456
f 735/6/457 737/6/457 731/6/457
f 739/6/6 743/6/6 741/6/6
f 738/6/6 742/6/6 744/6/6
f 743/6/458 747/6/458 741/6/458
f 742/6/459 746/6/459 749/6/459
f 745/6/460 752/6/460 751/6/460
f 744/6/461 753/6/461 738/6/461
f 752/6/5 748/6/5 751/6/5
f 753/6/5 749/6/5 746/6/5
f 755/6/3 756/6/3 754/6/3
f 759/6/4 760/6/4 758/6/4
f 761/6/5 757/6/5 755/6/5
f 754/6/6 758/6/6 760/6/6
f 757/6/1 762/6/1 756/6/1
f 21/6/1 28/6/1 22/6/1
f 764/6/1 763/6/1 759/6/1
f 25/6/1 19/6/1 20/6/1
f 545/2/6 645/2/6 647/2/6
f 767/6/3 765/6/3 766/6/3
f 768/6/6 764/6/6 767/6/6
f 769/6/4 763/6/4 768/6/4
f 769/6/5 765/6/5 762/6/5
f 771/6/3 775/6/3 773/6/3
f 770/6/3 774/6/3 776/6/3
f 775/6/462 779/6/462 773/6/462
f 774/6/463 778/6/463 781/6/463
f 777/6/464 784/6/464 783/6/464
f 776/6/465 785/6/465 770/6/465
f 784/6/4 780/6/4 783/6/4
f 785/6/4 781/6/4 778/6/4
f 787/6/6 791/6/6 789/6/6
f 786/6/6 790/6/6 792/6/6
f 791/6/466 795/6/466 789/6/466
f 788/6/467 797/6/467 790/6/467
f 793/6/468 800/6/468 799/6/468
f 792/6/469 801/6/469 786/6/469
f 800/6/5 796/6/5 799/6/5
f 801/6/5 797/6/5 794/6/5
f 803/6/3 804/6/3 802/6/3
f 807/6/4 808/6/4 806/6/4
f 803/6/5 807/6/5 805/6/5
f 802/6/6 806/6/6 808/6/6
f 805/6/1 810/6/1 804/6/1
f 406/6/2 413/6/2 412/6/2
f 812/6/1 811/6/1 807/6/1
f 24/6/2 29/6/2 23/6/2
f 803/6/2 817/6/2 816/6/2
f 409/6/1 408/6/1 404/6/1
f 815/6/3 813/6/3 814/6/3
f 815/6/6 811/6/6 812/6/6
f 817/6/4 811/6/4 816/6/4
f 814/6/5 810/6/5 817/6/5
f 819/6/3 823/6/3 821/6/3
f 818/6/3 822/6/3 824/6/3
f 823/6/470 827/6/470 821/6/470
f 820/6/471 829/6/471 822/6/471
f 825/6/472 832/6/472 831/6/472
f 824/6/473 833/6/473 818/6/473
f 832/6/4 828/6/4 831/6/4
f 833/6/4 829/6/4 826/6/4
f 835/6/6 839/6/6 837/6/6
f 834/6/6 838/6/6 840/6/6
f 839/6/474 843/6/474 837/6/474
f 836/6/467 845/6/467 838/6/467
f 841/6/468 848/6/468 847/6/468
f 840/6/469 849/6/469 834/6/469
f 848/6/5 844/6/5 847/6/5
f 849/6/5 845/6/5 842/6/5
f 851/6/3 852/6/3 850/6/3
f 855/6/4 856/6/4 854/6/4
f 857/6/5 853/6/5 851/6/5
f 856/6/6 852/6/6 854/6/6
f 853/6/1 858/6/1 852/6/1
f 860/6/1 859/6/1 855/6/1
f 851/6/2 865/6/2 864/6/2
f 892/6/1 891/6/1 887/6/1
f 863/6/3 861/6/3 862/6/3
f 864/6/6 860/6/6 863/6/6
f 865/6/4 859/6/4 864/6/4
f 862/6/5 858/6/5 865/6/5
f 867/6/3 871/6/3 869/6/3
f 866/6/3 870/6/3 872/6/3
f 871/6/470 875/6/470 869/6/470
f 870/6/475 874/6/475 877/6/475
f 873/6/472 880/6/472 879/6/472
f 872/6/473 881/6/473 866/6/473
f 880/6/4 876/6/4 879/6/4
f 881/6/4 877/6/4 874/6/4
f 883/6/3 884/6/3 882/6/3
f 887/6/4 888/6/4 886/6/4
f 889/6/5 885/6/5 883/6/5
f 882/6/6 886/6/6 888/6/6
f 885/6/1 890/6/1 884/6/1
f 905/2/1 908/2/1 904/2/1
f 857/6/2 862/6/2 856/6/2
f 882/6/2 897/6/2 883/6/2
f 544/2/3 650/2/3 646/2/3
f 895/6/3 893/6/3 894/6/3
f 895/6/6 891/6/6 892/6/6
f 897/6/4 891/6/4 896/6/4
f 894/6/5 890/6/5 897/6/5
f 902/2/1 907/2/1 906/2/1
f 889/6/2 896/6/2 895/6/2
f 898/2/2 910/2/2 899/2/2
f 755/6/2 768/6/2 761/6/2
f 911/2/4 907/2/4 910/2/4
f 912/2/5 906/2/5 911/2/5
f 913/2/3 909/2/3 912/2/3
f 913/2/6 907/2/6 908/2/6
f 1/1/1 2/1/1 9/1/1
f 7/2/2 5/2/2 16/2/2
f 2/3/1 4/3/1 10/3/1
f 5/4/2 6/4/2 15/4/2
f 15/5/2 6/5/2 8/5/2
f 7/1/2 14/1/2 13/1/2
f 1/2/1 11/2/1 12/2/1
f 3/4/1 12/4/1 10/4/1
f 18/6/3 20/6/3 19/6/3
f 22/6/4 24/6/4 23/6/4
f 24/6/5 22/6/5 20/6/5
f 17/6/6 19/6/6 21/6/6
f 647/2/1 645/2/1 646/2/1
f 645/2/1 649/2/1 646/2/1
f 646/2/1 650/2/1 648/2/1
f 643/2/3 541/2/3 537/2/3
f 18/6/2 17/6/2 32/6/2
f 30/6/3 27/6/3 28/6/3
f 31/6/6 26/6/6 27/6/6
f 32/6/4 25/6/4 26/6/4
f 29/6/5 28/6/5 25/6/5
f 36/6/476 37/6/476 34/6/476
f 34/6/477 37/6/477 38/6/477
f 37/6/478 36/6/478 39/6/478
f 37/6/479 40/6/479 41/6/479
f 39/6/11 42/6/11 43/6/11
f 41/6/12 40/6/12 43/6/12
f 42/6/480 45/6/480 46/6/480
f 44/6/337 43/6/337 46/6/337
f 45/6/481 48/6/481 49/6/481
f 47/6/482 46/6/482 49/6/482
f 49/6/17 48/6/17 33/6/17
f 49/6/18 34/6/18 35/6/18
f 35/6/483 38/6/483 52/6/483
f 38/6/484 41/6/484 53/6/484
f 41/6/327 44/6/327 54/6/327
f 47/6/46 55/6/46 54/6/46
f 50/6/45 56/6/45 55/6/45
f 35/6/485 51/6/485 56/6/485
f 61/6/486 58/6/486 59/6/486
f 59/6/487 60/6/487 63/6/487
f 64/6/488 61/6/488 62/6/488
f 62/6/489 63/6/489 66/6/489
f 64/6/35 65/6/35 68/6/35
f 68/6/36 65/6/36 66/6/36
f 67/6/490 68/6/490 71/6/490
f 71/6/491 68/6/491 69/6/491
f 70/6/492 71/6/492 74/6/492
f 74/6/493 71/6/493 72/6/493
f 58/6/320 73/6/320 74/6/320
f 59/6/494 74/6/494 75/6/494
f 60/6/495 76/6/495 77/6/495
f 63/6/496 77/6/496 78/6/496
f 66/6/497 78/6/497 79/6/497
f 72/6/498 69/6/498 79/6/498
f 75/6/499 72/6/499 80/6/499
f 60/6/327 75/6/327 81/6/327
f 305/6/500 280/6/500 277/6/500
f 446/6/501 421/6/501 418/6/501
f 164/6/1 161/6/1 186/6/1
f 167/6/502 164/6/502 189/6/502
f 736/6/503 730/6/503 727/6/503
f 730/6/6 717/6/6 727/6/6
f 717/6/6 719/6/6 727/6/6
f 727/6/503 734/6/503 736/6/503
f 277/6/2 292/6/2 317/6/2
f 84/6/360 96/6/360 95/6/360
f 85/6/359 97/6/359 96/6/359
f 85/6/1 86/6/1 98/6/1
f 86/6/504 87/6/504 99/6/504
f 87/6/505 88/6/505 100/6/505
f 83/6/2 95/6/2 100/6/2
f 83/6/506 89/6/506 90/6/506
f 85/6/507 84/6/507 90/6/507
f 86/6/508 85/6/508 91/6/508
f 86/6/509 92/6/509 93/6/509
f 88/6/510 87/6/510 93/6/510
f 88/6/67 94/6/67 89/6/67
f 102/6/511 101/6/511 95/6/511
f 97/6/512 103/6/512 102/6/512
f 98/6/70 104/6/70 103/6/70
f 105/6/513 104/6/513 98/6/513
f 100/6/514 106/6/514 105/6/514
f 101/6/73 106/6/73 100/6/73
f 107/6/515 113/6/515 114/6/515
f 109/6/516 108/6/516 114/6/516
f 110/6/517 109/6/517 115/6/517
f 110/6/518 116/6/518 117/6/518
f 112/6/519 111/6/519 117/6/519
f 112/6/79 118/6/79 113/6/79
f 64/6/520 39/6/520 36/6/520
f 501/6/521 502/6/521 490/6/521
f 112/6/82 107/6/82 121/6/82
f 111/6/522 112/6/522 122/6/522
f 124/6/523 110/6/523 111/6/523
f 110/6/524 124/6/524 119/6/524
f 120/6/525 119/6/525 125/6/525
f 120/6/526 126/6/526 127/6/526
f 121/6/527 127/6/527 128/6/527
f 123/6/528 122/6/528 128/6/528
f 123/6/529 129/6/529 130/6/529
f 119/6/530 124/6/530 130/6/530
f 129/6/531 128/6/531 127/6/531
f 125/6/93 130/6/93 129/6/93
f 131/6/532 137/6/532 138/6/532
f 133/6/533 132/6/533 138/6/533
f 133/6/534 139/6/534 140/6/534
f 134/6/535 140/6/535 141/6/535
f 136/6/536 135/6/536 141/6/536
f 136/6/537 142/6/537 137/6/537
f 133/6/538 143/6/538 144/6/538
f 132/6/539 144/6/539 145/6/539
f 145/6/540 146/6/540 136/6/540
f 146/6/541 147/6/541 135/6/541
f 147/6/542 148/6/542 134/6/542
f 148/6/105 143/6/105 133/6/105
f 144/6/543 143/6/543 149/6/543
f 144/6/544 150/6/544 151/6/544
f 145/6/108 151/6/108 152/6/108
f 147/6/545 146/6/545 152/6/545
f 147/6/546 153/6/546 154/6/546
f 148/6/111 154/6/111 149/6/111
f 150/6/92 153/6/92 152/6/92
f 149/6/93 154/6/93 153/6/93
f 158/6/547 159/6/547 156/6/547
f 156/6/548 159/6/548 160/6/548
f 159/6/549 158/6/549 161/6/549
f 159/6/550 162/6/550 163/6/550
f 161/6/116 164/6/116 165/6/116
f 163/6/117 162/6/117 165/6/117
f 164/6/551 167/6/551 168/6/551
f 166/6/241 165/6/241 168/6/241
f 167/6/552 170/6/552 171/6/552
f 169/6/553 168/6/553 171/6/553
f 171/6/122 170/6/122 155/6/122
f 171/6/123 156/6/123 157/6/123
f 157/6/554 160/6/554 174/6/554
f 160/6/555 163/6/555 175/6/555
f 163/6/231 166/6/231 176/6/231
f 169/6/151 177/6/151 176/6/151
f 172/6/150 178/6/150 177/6/150
f 157/6/556 173/6/556 178/6/556
f 183/6/557 180/6/557 181/6/557
f 181/6/558 182/6/558 185/6/558
f 186/6/559 183/6/559 184/6/559
f 184/6/560 185/6/560 188/6/560
f 186/6/140 187/6/140 190/6/140
f 190/6/141 187/6/141 188/6/141
f 189/6/561 190/6/561 193/6/561
f 193/6/562 190/6/562 191/6/562
f 192/6/563 193/6/563 196/6/563
f 196/6/564 193/6/564 194/6/564
f 180/6/224 195/6/224 196/6/224
f 181/6/565 196/6/565 197/6/565
f 182/6/566 198/6/566 199/6/566
f 185/6/567 199/6/567 200/6/567
f 188/6/568 200/6/568 201/6/568
f 194/6/569 191/6/569 201/6/569
f 197/6/570 194/6/570 202/6/570
f 182/6/231 197/6/231 203/6/231
f 430/6/571 427/6/571 452/6/571
f 308/6/572 283/6/572 280/6/572
f 33/6/2 48/6/2 73/6/2
f 289/6/573 286/6/573 311/6/573
f 292/6/574 289/6/574 314/6/574
f 727/6/4 719/6/4 720/6/4
f 720/6/4 728/6/4 727/6/4
f 728/6/156 733/6/156 727/6/156
f 206/6/263 218/6/263 217/6/263
f 207/6/262 219/6/262 218/6/262
f 207/6/1 208/6/1 220/6/1
f 208/6/575 209/6/575 221/6/575
f 209/6/576 210/6/576 222/6/576
f 205/6/2 217/6/2 222/6/2
f 205/6/577 211/6/577 212/6/577
f 207/6/578 206/6/578 212/6/578
f 208/6/168 207/6/168 213/6/168
f 208/6/579 214/6/579 215/6/579
f 210/6/580 209/6/580 215/6/580
f 210/6/171 216/6/171 211/6/171
f 224/6/581 223/6/581 217/6/581
f 219/6/582 225/6/582 224/6/582
f 220/6/174 226/6/174 225/6/174
f 227/6/583 226/6/583 220/6/583
f 222/6/584 228/6/584 227/6/584
f 223/6/177 228/6/177 222/6/177
f 229/6/585 235/6/585 236/6/585
f 231/6/586 230/6/586 236/6/586
f 232/6/587 231/6/587 237/6/587
f 232/6/588 238/6/588 239/6/588
f 234/6/589 233/6/589 239/6/589
f 234/6/183 240/6/183 235/6/183
f 119/6/590 120/6/590 108/6/590
f 352/6/591 364/6/591 365/6/591
f 234/6/186 229/6/186 243/6/186
f 233/6/592 234/6/592 244/6/592
f 246/6/593 232/6/593 233/6/593
f 232/6/594 246/6/594 241/6/594
f 242/6/595 241/6/595 247/6/595
f 242/6/596 248/6/596 249/6/596
f 243/6/597 249/6/597 250/6/597
f 245/6/598 244/6/598 250/6/598
f 245/6/599 251/6/599 252/6/599
f 241/6/600 246/6/600 252/6/600
f 251/6/601 250/6/601 249/6/601
f 247/6/197 252/6/197 251/6/197
f 253/6/602 259/6/602 260/6/602
f 255/6/603 254/6/603 260/6/603
f 255/6/604 261/6/604 262/6/604
f 256/6/605 262/6/605 263/6/605
f 258/6/606 257/6/606 263/6/606
f 258/6/607 264/6/607 259/6/607
f 255/6/608 265/6/608 266/6/608
f 254/6/609 266/6/609 267/6/609
f 267/6/610 268/6/610 258/6/610
f 268/6/611 269/6/611 257/6/611
f 269/6/612 270/6/612 256/6/612
f 270/6/209 265/6/209 255/6/209
f 266/6/613 265/6/613 271/6/613
f 266/6/614 272/6/614 273/6/614
f 267/6/212 273/6/212 274/6/212
f 269/6/615 268/6/615 274/6/615
f 269/6/616 275/6/616 276/6/616
f 270/6/215 276/6/215 271/6/215
f 272/6/196 275/6/196 274/6/196
f 272/6/197 271/6/197 276/6/197
f 280/6/617 281/6/617 278/6/617
f 278/6/618 281/6/618 282/6/618
f 281/6/619 280/6/619 283/6/619
f 281/6/620 284/6/620 285/6/620
f 283/6/140 286/6/140 287/6/140
f 285/6/141 284/6/141 287/6/141
f 286/6/621 289/6/621 290/6/621
f 288/6/139 287/6/139 290/6/139
f 289/6/622 292/6/622 293/6/622
f 291/6/623 290/6/623 293/6/623
f 293/6/224 292/6/224 277/6/224
f 293/6/225 278/6/225 279/6/225
f 279/6/624 282/6/624 296/6/624
f 282/6/625 285/6/625 297/6/625
f 285/6/129 288/6/129 298/6/129
f 291/6/251 299/6/251 298/6/251
f 294/6/250 300/6/250 299/6/250
f 279/6/626 295/6/626 300/6/626
f 305/6/627 302/6/627 303/6/627
f 303/6/628 304/6/628 307/6/628
f 308/6/629 305/6/629 306/6/629
f 306/6/630 307/6/630 310/6/630
f 308/6/116 309/6/116 312/6/116
f 312/6/117 309/6/117 310/6/117
f 311/6/631 312/6/631 315/6/631
f 315/6/632 312/6/632 313/6/632
f 314/6/633 315/6/633 318/6/633
f 318/6/634 315/6/634 316/6/634
f 302/6/122 317/6/122 318/6/122
f 303/6/635 318/6/635 319/6/635
f 304/6/636 320/6/636 321/6/636
f 307/6/637 321/6/637 322/6/637
f 310/6/638 322/6/638 323/6/638
f 316/6/639 313/6/639 323/6/639
f 319/6/640 316/6/640 324/6/640
f 304/6/129 319/6/129 325/6/129
f 443/6/641 418/6/641 415/6/641
f 45/6/642 42/6/642 67/6/642
f 424/6/1 421/6/1 446/6/1
f 427/6/643 424/6/643 449/6/643
f 48/6/644 45/6/644 70/6/644
f 415/6/2 430/6/2 455/6/2
f 328/6/165 340/6/165 339/6/165
f 329/6/164 341/6/164 340/6/164
f 329/6/1 330/6/1 342/6/1
f 330/6/645 331/6/645 343/6/645
f 331/6/646 332/6/646 344/6/646
f 327/6/2 339/6/2 344/6/2
f 327/6/647 333/6/647 334/6/647
f 329/6/648 328/6/648 334/6/648
f 330/6/266 329/6/266 335/6/266
f 330/6/649 336/6/649 337/6/649
f 332/6/650 331/6/650 337/6/650
f 332/6/269 338/6/269 333/6/269
f 346/6/651 345/6/651 339/6/651
f 341/6/652 347/6/652 346/6/652
f 342/6/272 348/6/272 347/6/272
f 349/6/653 348/6/653 342/6/653
f 344/6/654 350/6/654 349/6/654
f 345/6/275 350/6/275 344/6/275
f 351/6/655 357/6/655 358/6/655
f 353/6/656 352/6/656 358/6/656
f 354/6/657 353/6/657 359/6/657
f 354/6/658 360/6/658 361/6/658
f 356/6/659 355/6/659 361/6/659
f 351/6/281 356/6/281 362/6/281
f 241/6/660 242/6/660 230/6/660
f 108/6/661 120/6/661 121/6/661
f 356/6/284 351/6/284 365/6/284
f 355/6/662 356/6/662 366/6/662
f 368/6/663 354/6/663 355/6/663
f 354/6/664 368/6/664 363/6/664
f 364/6/665 363/6/665 369/6/665
f 364/6/666 370/6/666 371/6/666
f 365/6/667 371/6/667 372/6/667
f 367/6/668 366/6/668 372/6/668
f 367/6/669 373/6/669 374/6/669
f 363/6/670 368/6/670 374/6/670
f 373/6/671 372/6/671 371/6/671
f 369/6/196 374/6/196 373/6/196
f 375/6/672 381/6/672 382/6/672
f 377/6/673 376/6/673 382/6/673
f 377/6/674 383/6/674 384/6/674
f 378/6/675 384/6/675 385/6/675
f 380/6/676 379/6/676 385/6/676
f 380/6/677 386/6/677 381/6/677
f 377/6/678 387/6/678 388/6/678
f 376/6/679 388/6/679 389/6/679
f 389/6/680 390/6/680 380/6/680
f 390/6/681 391/6/681 379/6/681
f 391/6/682 392/6/682 378/6/682
f 392/6/305 387/6/305 377/6/305
f 388/6/683 387/6/683 393/6/683
f 388/6/684 394/6/684 395/6/684
f 389/6/308 395/6/308 396/6/308
f 391/6/685 390/6/685 396/6/685
f 391/6/686 397/6/686 398/6/686
f 392/6/311 398/6/311 393/6/311
f 394/6/197 397/6/197 396/6/197
f 393/6/196 398/6/196 397/6/196
f 400/6/3 402/6/3 401/6/3
f 404/6/4 406/6/4 405/6/4
f 406/6/5 404/6/5 402/6/5
f 399/6/6 401/6/6 403/6/6
f 402/6/1 408/6/1 407/6/1
f 809/6/2 803/6/2 816/6/2
f 809/6/2 816/6/2 815/6/2
f 817/6/2 802/6/2 808/6/2
f 809/6/2 815/6/2 814/6/2
f 814/6/2 817/6/2 808/6/2
f 540/2/6 542/2/6 644/2/6
f 412/6/3 409/6/3 410/6/3
f 413/6/6 408/6/6 409/6/6
f 414/6/4 407/6/4 408/6/4
f 411/6/5 410/6/5 407/6/5
f 418/6/687 419/6/687 416/6/687
f 416/6/688 419/6/688 420/6/688
f 419/6/689 418/6/689 421/6/689
f 419/6/690 422/6/690 423/6/690
f 421/6/35 424/6/35 425/6/35
f 423/6/36 422/6/36 425/6/36
f 424/6/691 427/6/691 428/6/691
f 426/6/692 425/6/692 428/6/692
f 427/6/693 430/6/693 431/6/693
f 429/6/694 428/6/694 431/6/694
f 431/6/320 430/6/320 415/6/320
f 431/6/321 416/6/321 417/6/321
f 417/6/695 420/6/695 434/6/695
f 420/6/696 423/6/696 435/6/696
f 423/6/24 426/6/24 436/6/24
f 429/6/347 437/6/347 436/6/347
f 432/6/346 438/6/346 437/6/346
f 417/6/697 433/6/697 438/6/697
f 443/6/698 440/6/698 441/6/698
f 441/6/699 442/6/699 445/6/699
f 446/6/700 443/6/700 444/6/700
f 444/6/701 445/6/701 448/6/701
f 446/6/11 447/6/11 450/6/11
f 450/6/12 447/6/12 448/6/12
f 449/6/702 450/6/702 453/6/702
f 453/6/703 450/6/703 451/6/703
f 452/6/704 453/6/704 456/6/704
f 456/6/705 453/6/705 454/6/705
f 440/6/17 455/6/17 456/6/17
f 441/6/706 456/6/706 457/6/706
f 442/6/707 458/6/707 459/6/707
f 445/6/708 459/6/708 460/6/708
f 448/6/709 460/6/709 461/6/709
f 454/6/710 451/6/710 461/6/710
f 457/6/711 454/6/711 462/6/711
f 442/6/24 457/6/24 463/6/24
f 183/6/712 158/6/712 155/6/712
f 186/6/713 161/6/713 158/6/713
f 42/6/1 39/6/1 64/6/1
f 61/6/714 36/6/714 33/6/714
f 170/6/715 167/6/715 192/6/715
f 155/6/2 170/6/2 195/6/2
f 466/6/61 478/6/61 477/6/61
f 467/6/60 479/6/60 478/6/60
f 467/6/1 468/6/1 480/6/1
f 468/6/716 469/6/716 481/6/716
f 469/6/717 470/6/717 482/6/717
f 465/6/2 477/6/2 482/6/2
f 465/6/718 471/6/718 472/6/718
f 467/6/719 466/6/719 472/6/719
f 468/6/720 467/6/720 473/6/720
f 468/6/721 474/6/721 475/6/721
f 470/6/722 469/6/722 475/6/722
f 470/6/366 476/6/366 471/6/366
f 484/6/723 483/6/723 477/6/723
f 479/6/724 485/6/724 484/6/724
f 480/6/369 486/6/369 485/6/369
f 487/6/725 486/6/725 480/6/725
f 482/6/726 488/6/726 487/6/726
f 483/6/372 488/6/372 482/6/372
f 489/6/727 495/6/727 496/6/727
f 491/6/728 490/6/728 496/6/728
f 492/6/729 491/6/729 497/6/729
f 492/6/730 498/6/730 499/6/730
f 494/6/731 493/6/731 499/6/731
f 494/6/378 500/6/378 495/6/378
f 363/6/732 364/6/732 352/6/732
f 230/6/733 242/6/733 243/6/733
f 494/6/381 489/6/381 503/6/381
f 493/6/734 494/6/734 504/6/734
f 506/6/735 492/6/735 493/6/735
f 492/6/736 506/6/736 501/6/736
f 502/6/737 501/6/737 507/6/737
f 502/6/738 508/6/738 509/6/738
f 503/6/739 509/6/739 510/6/739
f 505/6/740 504/6/740 510/6/740
f 505/6/741 511/6/741 512/6/741
f 501/6/742 506/6/742 512/6/742
f 511/6/743 510/6/743 509/6/743
f 508/6/92 507/6/92 512/6/92
f 513/6/744 519/6/744 520/6/744
f 515/6/745 514/6/745 520/6/745
f 515/6/746 521/6/746 522/6/746
f 516/6/747 522/6/747 523/6/747
f 518/6/748 517/6/748 523/6/748
f 518/6/749 524/6/749 519/6/749
f 515/6/750 525/6/750 526/6/750
f 514/6/751 526/6/751 527/6/751
f 527/6/752 528/6/752 518/6/752
f 528/6/753 529/6/753 517/6/753
f 529/6/754 530/6/754 516/6/754
f 530/6/402 525/6/402 515/6/402
f 526/6/755 525/6/755 531/6/755
f 526/6/756 532/6/756 533/6/756
f 527/6/405 533/6/405 534/6/405
f 529/6/757 528/6/757 534/6/757
f 529/6/758 535/6/758 536/6/758
f 530/6/408 536/6/408 531/6/408
f 532/6/93 535/6/93 534/6/93
f 531/6/92 536/6/92 535/6/92
f 554/2/409 555/2/409 550/2/409
f 555/2/1 556/2/1 551/2/1
f 556/2/410 557/2/410 552/2/410
f 557/2/411 558/2/411 553/2/411
f 558/2/412 554/2/412 549/2/412
f 564/2/409 565/2/409 560/2/409
f 565/2/1 566/2/1 561/2/1
f 566/2/410 567/2/410 562/2/410
f 567/2/411 568/2/411 563/2/411
f 568/2/412 564/2/412 559/2/412
f 638/2/413 634/2/413 574/2/413
f 638/2/414 575/2/414 576/2/414
f 637/2/415 576/2/415 577/2/415
f 636/2/416 577/2/416 578/2/416
f 634/2/417 635/2/417 578/2/417
f 584/2/409 585/2/409 580/2/409
f 585/2/1 586/2/1 581/2/1
f 586/2/410 587/2/410 582/2/410
f 587/2/411 588/2/411 583/2/411
f 588/2/412 584/2/412 579/2/412
f 594/2/409 595/2/409 590/2/409
f 595/2/1 596/2/1 591/2/1
f 596/2/410 597/2/410 592/2/410
f 597/2/411 598/2/411 593/2/411
f 598/2/412 594/2/412 589/2/412
f 600/2/418 605/2/418 604/2/418
f 601/2/2 606/2/2 605/2/2
f 602/2/419 607/2/419 606/2/419
f 603/2/420 608/2/420 607/2/420
f 599/2/421 604/2/421 608/2/421
f 633/2/422 629/2/422 615/2/422
f 630/2/423 616/2/423 615/2/423
f 631/2/424 617/2/424 616/2/424
f 632/2/425 618/2/425 617/2/425
f 632/2/426 633/2/426 614/2/426
f 620/2/418 625/2/418 624/2/418
f 621/2/2 626/2/2 625/2/2
f 622/2/419 627/2/419 626/2/419
f 623/2/420 628/2/420 627/2/420
f 619/2/421 624/2/421 628/2/421
f 611/2/427 630/2/427 629/2/427
f 611/2/428 612/2/428 631/2/428
f 612/2/429 613/2/429 632/2/429
f 609/2/430 633/2/430 632/2/430
f 610/2/431 629/2/431 633/2/431
f 573/2/432 635/2/432 634/2/432
f 636/2/433 635/2/433 573/2/433
f 637/2/434 636/2/434 572/2/434
f 638/2/435 637/2/435 571/2/435
f 569/2/436 634/2/436 638/2/436
f 648/2/4 546/2/4 545/2/4
f 640/2/6 538/2/6 541/2/6
f 641/2/4 539/2/4 540/2/4
f 399/6/2 405/6/2 414/6/2
f 405/6/2 411/6/2 414/6/2
f 414/6/2 413/6/2 400/6/2
f 649/2/5 547/2/5 544/2/5
f 769/6/2 754/6/2 760/6/2
f 760/6/2 761/6/2 766/6/2
f 761/6/2 767/6/2 766/6/2
f 537/2/5 539/2/5 641/2/5
f 542/2/3 538/2/3 640/2/3
f 548/2/5 546/2/5 648/2/5
f 490/6/759 502/6/759 503/6/759
f 645/2/3 543/2/3 547/2/3
f 900/2/2 899/2/2 910/2/2
f 900/2/2 910/2/2 913/2/2
f 911/2/2 898/2/2 901/2/2
f 900/2/2 913/2/2 901/2/2
f 913/2/2 912/2/2 901/2/2
f 643/2/1 639/2/1 640/2/1
f 639/2/1 641/2/1 640/2/1
f 641/2/1 642/2/1 640/2/1
f 686/2/438 657/2/438 656/2/438
f 687/2/439 658/2/439 657/2/439
f 687/2/440 688/2/440 659/2/440
f 688/2/760 689/2/760 660/2/760
f 690/2/761 656/2/761 660/2/761
f 662/2/418 667/2/418 666/2/418
f 663/2/2 668/2/2 667/2/2
f 664/2/419 669/2/419 668/2/419
f 665/2/420 670/2/420 669/2/420
f 661/2/421 666/2/421 670/2/421
f 685/2/422 681/2/422 677/2/422
f 682/2/423 678/2/423 677/2/423
f 683/2/424 679/2/424 678/2/424
f 684/2/425 680/2/425 679/2/425
f 684/2/426 685/2/426 676/2/426
f 673/2/427 682/2/427 681/2/427
f 673/2/428 674/2/428 683/2/428
f 674/2/443 675/2/443 684/2/443
f 671/2/444 685/2/444 684/2/444
f 672/2/431 681/2/431 685/2/431
f 653/2/445 687/2/445 686/2/445
f 654/2/446 688/2/446 687/2/446
f 655/2/762 689/2/762 688/2/762
f 655/2/763 651/2/763 690/2/763
f 651/2/449 652/2/449 686/2/449
f 692/6/3 694/6/3 693/6/3
f 694/6/1 696/6/1 695/6/1
f 696/6/4 698/6/4 697/6/4
f 698/6/5 696/6/5 694/6/5
f 691/6/6 693/6/6 695/6/6
f 704/6/3 700/6/3 699/6/3
f 700/6/1 702/6/1 701/6/1
f 705/6/5 702/6/5 700/6/5
f 702/6/4 705/6/4 706/6/4
f 703/6/6 699/6/6 701/6/6
f 708/6/3 710/6/3 709/6/3
f 710/6/1 712/6/1 711/6/1
f 712/6/4 714/6/4 713/6/4
f 714/6/5 712/6/5 710/6/5
f 707/6/6 709/6/6 711/6/6
f 730/6/450 736/6/450 729/6/450
f 736/6/450 731/6/450 732/6/450
f 718/6/1 720/6/1 719/6/1
f 732/6/451 733/6/451 728/6/451
f 286/6/1 283/6/1 308/6/1
f 716/6/3 724/6/3 723/6/3
f 722/6/5 725/6/5 724/6/5
f 725/6/4 722/6/4 721/6/4
f 715/6/6 723/6/6 726/6/6
f 728/6/5 720/6/5 718/6/5
f 729/6/3 718/6/3 717/6/3
f 737/6/452 723/6/452 724/6/452
f 724/6/452 732/6/452 737/6/452
f 725/6/453 733/6/453 732/6/453
f 733/6/454 725/6/454 726/6/454
f 734/6/455 726/6/455 737/6/455
f 726/6/455 723/6/455 737/6/455
f 739/6/6 745/6/6 743/6/6
f 738/6/6 740/6/6 742/6/6
f 743/6/764 748/6/764 747/6/764
f 742/6/765 740/6/765 746/6/765
f 745/6/766 739/6/766 752/6/766
f 744/6/767 750/6/767 753/6/767
f 752/6/5 747/6/5 748/6/5
f 753/6/5 750/6/5 749/6/5
f 755/6/3 757/6/3 756/6/3
f 759/6/4 761/6/4 760/6/4
f 761/6/5 759/6/5 757/6/5
f 754/6/6 756/6/6 758/6/6
f 757/6/1 763/6/1 762/6/1
f 21/6/1 19/6/1 25/6/1
f 28/6/1 27/6/1 22/6/1
f 21/6/1 25/6/1 28/6/1
f 758/6/1 756/6/1 762/6/1
f 758/6/1 762/6/1 765/6/1
f 763/6/1 757/6/1 759/6/1
f 758/6/1 765/6/1 759/6/1
f 765/6/1 764/6/1 759/6/1
f 20/6/1 22/6/1 26/6/1
f 22/6/1 27/6/1 26/6/1
f 26/6/1 25/6/1 20/6/1
f 545/2/6 543/2/6 645/2/6
f 767/6/3 764/6/3 765/6/3
f 768/6/6 763/6/6 764/6/6
f 769/6/4 762/6/4 763/6/4
f 769/6/5 766/6/5 765/6/5
f 771/6/3 777/6/3 775/6/3
f 770/6/3 772/6/3 774/6/3
f 775/6/768 780/6/768 779/6/768
f 774/6/769 772/6/769 778/6/769
f 777/6/770 771/6/770 784/6/770
f 776/6/771 782/6/771 785/6/771
f 784/6/4 779/6/4 780/6/4
f 785/6/4 782/6/4 781/6/4
f 787/6/6 793/6/6 791/6/6
f 786/6/6 788/6/6 790/6/6
f 791/6/772 796/6/772 795/6/772
f 788/6/773 794/6/773 797/6/773
f 793/6/774 787/6/774 800/6/774
f 792/6/775 798/6/775 801/6/775
f 800/6/5 795/6/5 796/6/5
f 801/6/5 798/6/5 797/6/5
f 803/6/3 805/6/3 804/6/3
f 807/6/4 809/6/4 808/6/4
f 803/6/5 809/6/5 807/6/5
f 802/6/6 804/6/6 806/6/6
f 805/6/1 811/6/1 810/6/1
f 406/6/2 400/6/2 413/6/2
f 412/6/2 411/6/2 406/6/2
f 411/6/2 405/6/2 406/6/2
f 806/6/1 804/6/1 810/6/1
f 806/6/1 810/6/1 813/6/1
f 811/6/1 805/6/1 807/6/1
f 806/6/1 813/6/1 807/6/1
f 813/6/1 812/6/1 807/6/1
f 24/6/2 18/6/2 31/6/2
f 24/6/2 31/6/2 30/6/2
f 32/6/2 17/6/2 23/6/2
f 24/6/2 30/6/2 29/6/2
f 29/6/2 32/6/2 23/6/2
f 803/6/2 802/6/2 817/6/2
f 403/6/1 401/6/1 407/6/1
f 403/6/1 407/6/1 410/6/1
f 408/6/1 402/6/1 404/6/1
f 403/6/1 410/6/1 404/6/1
f 410/6/1 409/6/1 404/6/1
f 815/6/3 812/6/3 813/6/3
f 815/6/6 816/6/6 811/6/6
f 817/6/4 810/6/4 811/6/4
f 814/6/5 813/6/5 810/6/5
f 819/6/3 825/6/3 823/6/3
f 818/6/3 820/6/3 822/6/3
f 823/6/776 828/6/776 827/6/776
f 820/6/777 826/6/777 829/6/777
f 825/6/778 819/6/778 832/6/778
f 824/6/779 830/6/779 833/6/779
f 832/6/4 827/6/4 828/6/4
f 833/6/4 830/6/4 829/6/4
f 835/6/6 841/6/6 839/6/6
f 834/6/6 836/6/6 838/6/6
f 839/6/772 844/6/772 843/6/772
f 836/6/773 842/6/773 845/6/773
f 841/6/774 835/6/774 848/6/774
f 840/6/775 846/6/775 849/6/775
f 848/6/5 843/6/5 844/6/5
f 849/6/5 846/6/5 845/6/5
f 851/6/3 853/6/3 852/6/3
f 855/6/4 857/6/4 856/6/4
f 857/6/5 855/6/5 853/6/5
f 856/6/6 850/6/6 852/6/6
f 853/6/1 859/6/1 858/6/1
f 854/6/1 852/6/1 858/6/1
f 854/6/1 858/6/1 861/6/1
f 859/6/1 853/6/1 855/6/1
f 854/6/1 861/6/1 855/6/1
f 861/6/1 860/6/1 855/6/1
f 851/6/2 850/6/2 865/6/2
f 886/6/1 884/6/1 890/6/1
f 886/6/1 890/6/1 893/6/1
f 891/6/1 885/6/1 887/6/1
f 886/6/1 893/6/1 887/6/1
f 893/6/1 892/6/1 887/6/1
f 863/6/3 860/6/3 861/6/3
f 864/6/6 859/6/6 860/6/6
f 865/6/4 858/6/4 859/6/4
f 862/6/5 861/6/5 858/6/5
f 867/6/3 873/6/3 871/6/3
f 866/6/3 868/6/3 870/6/3
f 871/6/776 876/6/776 875/6/776
f 870/6/780 868/6/780 874/6/780
f 873/6/778 867/6/778 880/6/778
f 872/6/779 878/6/779 881/6/779
f 880/6/4 875/6/4 876/6/4
f 881/6/4 878/6/4 877/6/4
f 883/6/3 885/6/3 884/6/3
f 887/6/4 889/6/4 888/6/4
f 889/6/5 887/6/5 885/6/5
f 882/6/6 884/6/6 886/6/6
f 885/6/1 891/6/1 890/6/1
f 905/2/1 902/2/1 906/2/1
f 905/2/1 906/2/1 909/2/1
f 907/2/1 903/2/1 904/2/1
f 905/2/1 909/2/1 908/2/1
f 908/2/1 907/2/1 904/2/1
f 857/6/2 851/6/2 864/6/2
f 857/6/2 864/6/2 863/6/2
f 865/6/2 850/6/2 856/6/2
f 857/6/2 863/6/2 862/6/2
f 862/6/2 865/6/2 856/6/2
f 882/6/2 888/6/2 897/6/2
f 888/6/2 894/6/2 897/6/2
f 897/6/2 896/6/2 883/6/2
f 544/2/3 548/2/3 650/2/3
f 895/6/3 892/6/3 893/6/3
f 895/6/6 896/6/6 891/6/6
f 897/6/4 890/6/4 891/6/4
f 894/6/5 893/6/5 890/6/5
f 902/2/1 903/2/1 907/2/1
f 889/6/2 883/6/2 896/6/2
f 895/6/2 894/6/2 889/6/2
f 894/6/2 888/6/2 889/6/2
f 898/2/2 911/2/2 910/2/2
f 755/6/2 754/6/2 769/6/2
f 768/6/2 767/6/2 761/6/2
f 755/6/2 769/6/2 768/6/2
f 911/2/4 906/2/4 907/2/4
f 912/2/5 909/2/5 906/2/5
f 913/2/3 908/2/3 909/2/3
f 913/2/6 910/2/6 907/2/6
