# Blender 5.2.2 LTS
# www.blender.org
mtllib ruins_tg_wall_a.mtl
o piece
v 2.500000 1.515268 0.301401
v 2.500000 1.333690 -0.216296
v 2.500000 -1.074401 -0.216296
v 2.500000 -1.074401 0.044141
v -2.500000 1.515268 0.301401
v -2.500000 1.333690 -0.216296
v -2.500000 -1.074401 -0.216296
v -2.500000 -1.074401 0.044141
v 2.500000 1.715643 -0.448599
v 2.500000 1.333690 -0.448599
v 2.500000 -2.500000 -0.448599
v -2.500000 1.715643 -0.448599
v -2.500000 1.333690 -0.448599
v -2.500000 -2.500000 -0.448599
v -2.500000 2.500000 -0.448599
v 2.500000 2.500000 -0.448599
v 2.500000 -1.277789 0.301401
v -2.500000 -1.277789 0.301401
v -2.500000 -2.500000 0.301401
v 2.500000 -2.500000 0.301401
v -0.781659 -1.074401 -0.216296
v -0.781659 -1.074401 0.044141
v -0.781659 -1.277789 0.301401
v -0.781659 -2.500000 0.301401
v 0.781659 -1.074401 -0.216296
v 0.781659 -1.074401 0.044141
v 0.781659 -1.277789 0.301401
v 0.781659 -2.500000 0.301401
v 0.870611 -1.074401 -0.216297
v 0.870611 -1.074401 0.044140
v 0.870611 -1.277789 0.301401
v 0.870611 -2.500000 0.301401
v -0.870612 -1.074401 -0.216296
v -0.870612 -1.074401 0.044141
v -0.870612 -1.277789 0.301401
v -0.870612 -2.500000 0.301401
v -2.500000 1.715643 0.301401
v 2.500000 1.715643 0.301401
v 2.500000 1.849827 0.448599
v 2.500000 2.500000 0.448599
v -2.500000 1.849827 0.448599
v -2.500000 2.500000 0.448599
v -2.500000 -0.146844 -0.216296
v 2.500000 -0.146844 -0.216296
v -2.500000 0.356018 -0.216296
v 2.500000 0.356018 -0.216296
v 0.038284 -1.074401 -0.216296
v 0.038284 -0.146844 -0.216296
v 0.038284 0.356018 -0.216296
v 0.038284 1.333690 -0.216296
v -0.038284 -1.074401 -0.216296
v -0.038284 -0.146844 -0.216296
v -0.038284 0.356018 -0.216296
v -0.038284 1.333690 -0.216296
v -2.500000 0.308917 -0.156525
v -2.500000 -0.099743 -0.156524
v 2.500000 0.308917 -0.156525
v 2.500000 -0.099743 -0.156524
v 2.457760 1.281104 -0.183084
v 2.457760 0.408603 -0.183084
v 0.121576 1.243029 -0.183084
v 0.080524 0.408603 -0.183084
v -0.080524 0.408603 -0.183084
v -0.080524 1.281104 -0.183084
v -2.457761 1.281104 -0.183084
v -2.433441 0.444578 -0.183084
v -0.080524 -1.021815 -0.183084
v -0.935922 -0.975533 -0.183084
v -0.080524 -0.199429 -0.183084
v -2.457761 -0.199429 -0.183084
v -2.457761 -1.021815 -0.183084
v 2.457760 -1.021815 -0.183084
v 2.429257 -0.238717 -0.183084
v 0.080524 -0.199429 -0.183084
v 0.080524 -1.021815 -0.183084
v 2.500000 0.172697 -0.216296
v 2.500000 0.198540 -0.156524
v -2.500000 0.198540 -0.156524
v -2.500000 0.172697 -0.216296
v 2.500000 0.036477 -0.216296
v 2.500000 0.007376 -0.156524
v -1.605267 -0.021759 -0.156524
v -2.500000 0.007376 -0.156524
v -2.500000 0.036477 -0.216296
v -1.605267 0.007342 -0.216296
v -2.500000 1.339886 0.153296
v 2.500000 1.339886 0.153296
v -2.500000 1.415974 0.255359
v 2.500000 1.415974 0.255359
v -0.827008 1.715643 0.301401
v -0.827008 1.849827 0.448599
v 0.827008 1.715643 0.301401
v 0.827008 1.849827 0.448599
v -2.140405 1.814918 0.410306
v -1.186606 1.814918 0.410306
v -2.140405 1.750553 0.339697
v -1.186606 1.750553 0.339697
v -0.471493 1.814918 0.410303
v 0.471490 1.814918 0.410302
v -0.471491 1.750553 0.339694
v 0.471490 1.750553 0.339694
v 1.186603 1.814918 0.410303
v 2.140402 1.814918 0.410303
v 1.186603 1.750553 0.339694
v 2.140402 1.750553 0.339694
v -2.118225 1.824827 0.385220
v -1.208786 1.824827 0.385220
v -2.118225 1.776476 0.332181
v -1.208786 1.776476 0.332181
v -0.449564 1.824827 0.385217
v 0.449560 1.824827 0.385217
v -0.449564 1.776475 0.332175
v 0.449560 1.776475 0.332174
v 1.208783 1.824827 0.385217
v 2.118222 1.824827 0.385217
v 1.208783 1.776476 0.332175
v 2.118222 1.776476 0.332175
v 2.500000 1.950604 -0.448599
v 2.500000 1.951092 0.448599
v -2.500000 1.951092 0.448599
v -2.500000 1.950604 -0.448599
vn -0.0000 -0.0000 1.0000
vn -0.0000 1.0000 -0.0000
vn -0.0000 -0.5340 0.8455
vn 1.0000 -0.0000 -0.0000
vn -1.0000 -0.0000 -0.0000
vn -0.0000 0.7845 0.6202
vn -0.0000 -0.4207 0.9072
vn -0.0000 -0.7390 0.6737
vn -0.0000 -1.0000 -0.0000
vn -0.0000 -0.7854 0.6189
vn 0.6181 -0.0000 0.7861
vn -0.0000 0.3440 0.9390
vn -0.3539 0.0174 0.9351
vn -0.0000 0.5340 0.8455
vn -0.6320 -0.0184 0.7747
vn -0.0082 -0.5387 0.8425
vn -0.0186 -0.3444 0.9386
vn -0.6181 -0.0000 0.7861
vn 0.0095 -0.3128 0.9498
vn -0.0000 -0.3184 0.9479
vn 0.6356 0.0231 0.7717
vn -0.0000 0.3400 0.9404
vn -0.0064 0.8991 0.4377
vn 0.0293 0.8987 0.4376
vn -0.0000 -0.0000 -1.0000
vn -0.0000 -0.8017 0.5977
vn -0.0000 -0.9179 0.3969
vn -0.0000 -0.9999 0.0168
vn -0.0000 0.7854 0.6189
vn -0.0000 -0.9301 -0.3674
vn 0.7375 -0.4991 0.4550
vn -0.0000 0.2785 0.9604
vn -0.7375 -0.4991 0.4550
vn 0.7413 -0.4960 0.4521
vn -0.0000 0.2786 0.9604
vn -0.7413 -0.4960 0.4521
vn -0.0088 0.5390 0.8423
vn -0.4465 -0.0000 0.8948
vn -0.0000 -0.3511 0.9363
vn 0.4250 -0.0000 0.9052
vn 0.0090 0.5391 0.8422
vn 0.7414 -0.4959 0.4521
vt 0.125000 0.375000
vt 0.625000 0.625000
vt 0.875000 0.625000
vt 0.125000 0.625000
vt 0.125000 0.875000
vt 0.125000 0.125000
vt 0.375000 0.625000
vt 0.625000 0.875000
s 0
usemtl ruins_tg_wall_a
f 61/1/1 60/1/1 59/1/1
f 30/2/2 3/2/2 29/2/2
f 32/2/1 17/2/1 31/2/1
f 75/1/3 47/1/3 25/1/3
f 44/3/4 3/3/4 11/3/4
f 14/3/5 18/3/5 7/3/5
f 6/4/5 86/4/5 37/4/5
f 30/2/6 17/2/6 4/2/6
f 21/5/2 34/5/2 22/5/2
f 22/5/6 35/5/6 23/5/6
f 23/5/1 36/5/1 24/5/1
f 88/4/7 1/4/7 5/4/7
f 66/1/1 64/1/1 65/1/1
f 23/3/1 28/3/1 27/3/1
f 30/5/2 25/5/2 26/5/2
f 31/5/6 26/5/6 27/5/6
f 31/5/1 28/5/1 32/5/1
f 8/2/2 33/2/2 7/2/2
f 18/2/6 34/2/6 8/2/6
f 19/2/1 35/2/1 18/2/1
f 92/4/1 90/4/1 5/4/1
f 87/4/4 2/4/4 38/4/4
f 91/3/1 93/3/1 119/3/1
f 40/2/2 15/2/2 42/2/2
f 106/6/8 109/6/8 107/6/8
f 82/7/1 83/7/1 56/7/1
f 28/8/9 24/8/9 11/8/9
f 48/5/1 51/5/1 47/5/1
f 50/5/1 53/5/1 49/5/1
f 84/7/5 56/7/5 83/7/5
f 27/3/6 22/3/6 23/3/6
f 52/7/10 48/7/10 58/7/10
f 80/7/4 58/7/4 44/7/4
f 46/1/11 59/1/11 60/1/11
f 61/1/12 2/1/12 50/1/12
f 50/1/13 62/1/13 61/1/13
f 49/1/3 60/1/3 62/1/3
f 53/1/11 64/1/11 63/1/11
f 65/1/14 54/1/14 6/1/14
f 6/1/15 66/1/15 65/1/15
f 66/1/16 53/1/16 63/1/16
f 21/1/17 67/1/17 68/1/17
f 52/1/11 67/1/11 51/1/11
f 70/1/14 52/1/14 43/1/14
f 7/1/18 70/1/18 43/1/18
f 71/1/19 33/1/19 68/1/19
f 33/1/20 21/1/20 68/1/20
f 3/1/21 73/1/21 72/1/21
f 48/1/22 73/1/22 44/1/22
f 47/1/18 74/1/18 48/1/18
f 38/3/4 118/3/4 119/3/4
f 76/7/4 57/7/4 77/7/4
f 85/5/1 80/5/1 76/5/1
f 79/7/5 55/7/5 45/7/5
f 85/7/23 81/7/23 80/7/23
f 78/7/1 57/7/1 55/7/1
f 83/7/24 85/7/24 84/7/24
f 13/8/25 9/8/25 10/8/25
f 121/3/5 37/3/5 120/3/5
f 70/1/1 71/1/1 68/1/1
f 87/4/26 88/4/26 86/4/26
f 79/7/27 77/7/27 78/7/27
f 110/6/8 113/6/8 111/6/8
f 75/1/1 73/1/1 74/1/1
f 114/6/8 117/6/8 115/6/8
f 94/3/8 95/3/8 41/3/8
f 54/4/28 50/4/28 87/4/28
f 91/3/8 99/3/8 93/3/8
f 49/7/29 53/7/29 55/7/29
f 92/3/8 105/3/8 104/3/8
f 94/3/30 107/3/30 95/3/30
f 94/3/31 108/3/31 106/3/31
f 97/3/32 108/3/32 96/3/32
f 95/3/33 109/3/33 97/3/33
f 98/3/30 111/3/30 99/3/30
f 98/3/34 112/3/34 110/3/34
f 100/3/35 113/3/35 112/3/35
f 99/3/36 113/3/36 101/3/36
f 102/3/30 115/3/30 103/3/30
f 102/3/31 116/3/31 114/3/31
f 104/3/35 117/3/35 116/3/35
f 103/3/33 117/3/33 105/3/33
f 16/2/4 119/2/4 118/2/4
f 119/2/1 42/2/1 120/2/1
f 15/2/5 120/2/5 42/2/5
f 101/3/8 100/3/8 90/3/8
f 47/3/2 51/3/2 22/3/2
f 61/1/1 62/1/1 60/1/1
f 30/2/2 4/2/2 3/2/2
f 32/2/1 20/2/1 17/2/1
f 25/1/3 29/1/3 75/1/3
f 29/1/3 3/1/3 72/1/3
f 72/1/3 75/1/3 29/1/3
f 3/3/4 4/3/4 17/3/4
f 17/3/4 20/3/4 11/3/4
f 11/3/4 10/3/4 44/3/4
f 10/3/4 2/3/4 46/3/4
f 46/3/4 76/3/4 10/3/4
f 76/3/4 80/3/4 10/3/4
f 3/3/4 17/3/4 11/3/4
f 80/3/4 44/3/4 10/3/4
f 14/3/5 19/3/5 18/3/5
f 18/3/5 8/3/5 7/3/5
f 7/3/5 43/3/5 14/3/5
f 43/3/5 84/3/5 13/3/5
f 14/3/5 43/3/5 13/3/5
f 84/3/5 79/3/5 13/3/5
f 79/3/5 45/3/5 13/3/5
f 45/3/5 6/3/5 13/3/5
f 88/4/5 5/4/5 86/4/5
f 5/4/5 37/4/5 86/4/5
f 37/4/5 12/4/5 6/4/5
f 12/4/5 13/4/5 6/4/5
f 30/2/6 31/2/6 17/2/6
f 21/5/2 33/5/2 34/5/2
f 22/5/6 34/5/6 35/5/6
f 23/5/1 35/5/1 36/5/1
f 88/4/7 89/4/7 1/4/7
f 66/1/1 63/1/1 64/1/1
f 23/3/1 24/3/1 28/3/1
f 30/5/2 29/5/2 25/5/2
f 31/5/6 30/5/6 26/5/6
f 31/5/1 27/5/1 28/5/1
f 8/2/2 34/2/2 33/2/2
f 18/2/6 35/2/6 34/2/6
f 19/2/1 36/2/1 35/2/1
f 90/4/1 37/4/1 5/4/1
f 5/4/1 1/4/1 92/4/1
f 1/4/1 38/4/1 92/4/1
f 10/4/4 9/4/4 2/4/4
f 9/4/4 38/4/4 2/4/4
f 38/4/4 1/4/4 87/4/4
f 1/4/4 89/4/4 87/4/4
f 93/3/1 39/3/1 119/3/1
f 119/3/1 120/3/1 91/3/1
f 120/3/1 41/3/1 91/3/1
f 40/2/2 16/2/2 15/2/2
f 106/6/8 108/6/8 109/6/8
f 56/7/1 58/7/1 82/7/1
f 58/7/1 81/7/1 82/7/1
f 19/8/9 14/8/9 36/8/9
f 14/8/9 11/8/9 24/8/9
f 36/8/9 14/8/9 24/8/9
f 11/8/9 20/8/9 32/8/9
f 32/8/9 28/8/9 11/8/9
f 48/5/1 52/5/1 51/5/1
f 50/5/1 54/5/1 53/5/1
f 84/7/5 43/7/5 56/7/5
f 27/3/6 26/3/6 22/3/6
f 48/7/10 44/7/10 58/7/10
f 58/7/10 56/7/10 52/7/10
f 56/7/10 43/7/10 52/7/10
f 80/7/4 81/7/4 58/7/4
f 46/1/11 2/1/11 59/1/11
f 61/1/37 59/1/37 2/1/37
f 50/1/18 49/1/18 62/1/18
f 49/1/3 46/1/3 60/1/3
f 53/1/11 54/1/11 64/1/11
f 65/1/14 64/1/14 54/1/14
f 6/1/38 45/1/38 66/1/38
f 66/1/39 45/1/39 53/1/39
f 21/1/3 51/1/3 67/1/3
f 52/1/11 69/1/11 67/1/11
f 70/1/14 69/1/14 52/1/14
f 7/1/18 71/1/18 70/1/18
f 71/1/3 7/1/3 33/1/3
f 3/1/40 44/1/40 73/1/40
f 48/1/41 74/1/41 73/1/41
f 47/1/18 75/1/18 74/1/18
f 119/3/4 39/3/4 38/3/4
f 38/3/4 9/3/4 118/3/4
f 76/7/4 46/7/4 57/7/4
f 76/5/1 79/5/1 85/5/1
f 79/5/1 84/5/1 85/5/1
f 79/7/5 78/7/5 55/7/5
f 85/7/23 82/7/23 81/7/23
f 78/7/1 77/7/1 57/7/1
f 83/7/24 82/7/24 85/7/24
f 121/8/25 15/8/25 16/8/25
f 121/8/25 16/8/25 118/8/25
f 12/8/25 121/8/25 118/8/25
f 12/8/25 118/8/25 9/8/25
f 11/8/25 14/8/25 13/8/25
f 13/8/25 12/8/25 9/8/25
f 10/8/25 11/8/25 13/8/25
f 12/3/5 37/3/5 121/3/5
f 37/3/5 41/3/5 120/3/5
f 68/1/1 67/1/1 69/1/1
f 69/1/1 70/1/1 68/1/1
f 87/4/26 89/4/26 88/4/26
f 79/7/27 76/7/27 77/7/27
f 110/6/8 112/6/8 113/6/8
f 75/1/1 72/1/1 73/1/1
f 114/6/8 116/6/8 117/6/8
f 37/3/8 90/3/8 97/3/8
f 37/3/8 97/3/8 96/3/8
f 95/3/8 91/3/8 41/3/8
f 37/3/8 96/3/8 41/3/8
f 96/3/8 94/3/8 41/3/8
f 50/4/28 2/4/28 87/4/28
f 87/4/28 86/4/28 54/4/28
f 86/4/28 6/4/28 54/4/28
f 91/3/8 98/3/8 99/3/8
f 53/7/29 45/7/29 55/7/29
f 55/7/29 57/7/29 49/7/29
f 57/7/29 46/7/29 49/7/29
f 92/3/8 38/3/8 105/3/8
f 94/3/30 106/3/30 107/3/30
f 94/3/31 96/3/31 108/3/31
f 97/3/32 109/3/32 108/3/32
f 95/3/33 107/3/33 109/3/33
f 98/3/30 110/3/30 111/3/30
f 98/3/42 100/3/42 112/3/42
f 100/3/35 101/3/35 113/3/35
f 99/3/36 111/3/36 113/3/36
f 102/3/30 114/3/30 115/3/30
f 102/3/31 104/3/31 116/3/31
f 104/3/35 105/3/35 117/3/35
f 103/3/33 115/3/33 117/3/33
f 16/2/4 40/2/4 119/2/4
f 119/2/1 40/2/1 42/2/1
f 15/2/5 121/2/5 120/2/5
f 90/3/8 92/3/8 101/3/8
f 92/3/8 104/3/8 102/3/8
f 101/3/8 92/3/8 93/3/8
f 95/3/8 97/3/8 90/3/8
f 98/3/8 91/3/8 100/3/8
f 91/3/8 95/3/8 90/3/8
f 100/3/8 91/3/8 90/3/8
f 103/3/8 105/3/8 38/3/8
f 39/3/8 93/3/8 102/3/8
f 93/3/8 99/3/8 101/3/8
f 102/3/8 93/3/8 92/3/8
f 103/3/8 38/3/8 39/3/8
f 102/3/8 103/3/8 39/3/8
f 51/3/2 21/3/2 22/3/2
f 22/3/2 26/3/2 47/3/2
f 26/3/2 25/3/2 47/3/2
