# Blender 5.2.2 LTS
# www.blender.org
mtllib ruins_tg_gate.mtl
o piece
v 1.976504 -0.863691 0.614703
v 1.513924 -1.555993 0.614703
v 1.274131 -1.788900 0.614706
v -1.264134 -1.788901 0.614706
v -1.503927 -1.555994 0.614703
v -1.966509 -0.863693 0.614703
v -2.128945 -0.047068 0.614705
v -1.966509 0.769557 0.614704
v -1.503927 1.461858 0.614704
v -0.811626 1.924440 0.614705
v 0.004997 2.086876 0.614706
v 0.821623 1.924440 0.614705
v 1.513924 1.461859 0.614704
v 1.976504 0.769558 0.614704
v 2.138936 -0.047067 0.614705
v 1.976504 -0.863691 -0.616024
v 1.513924 -1.555993 -0.616025
v 1.274131 -1.788900 -0.616026
v -1.264134 -1.788901 -0.616026
v -1.503927 -1.555994 -0.616025
v -1.966509 -0.863693 -0.616024
v -2.128945 -0.047068 -0.616026
v -1.966509 0.769557 -0.616024
v -1.503927 1.461859 -0.616024
v -0.811626 1.924440 -0.616022
v 0.004997 2.086876 -0.616026
v 0.821623 1.924440 -0.616022
v 1.513924 1.461859 -0.616023
v 1.976504 0.769557 -0.616024
v 2.138936 -0.047067 -0.616026
v 2.467736 -2.443028 0.614705
v 2.467736 -2.606385 -0.616023
v -2.444756 -2.443028 0.614705
v -2.444756 -2.606385 -0.616023
v -2.444756 2.498171 0.614702
v -2.444756 2.498171 -0.616026
v 2.467736 2.498171 0.614702
v 2.467736 2.498171 -0.616026
v 1.274131 -2.606385 -0.616023
v 1.274131 -2.443028 0.614705
v -1.264134 -2.443028 0.614705
v -1.264134 -2.606385 -0.616023
v -1.768273 0.690262 -0.390329
v -1.352205 1.312953 -0.390330
v -0.729516 1.729022 -0.390329
v 0.004997 1.875126 -0.390328
v 0.739512 1.729022 -0.390329
v 1.362201 1.312953 -0.390330
v 1.778273 0.690262 -0.390329
v 1.924372 -0.044252 -0.390328
v 1.778273 -0.778765 -0.390331
v 1.362201 -1.401456 -0.390330
v 1.146522 -1.610945 -0.390327
v 1.146522 -2.443028 -0.390329
v -1.136523 -2.443028 -0.390329
v -1.136523 -1.610945 -0.390327
v -1.352205 -1.401457 -0.390330
v -1.768273 -0.778767 -0.390331
v -1.914379 -0.044253 -0.390328
v -1.768273 0.690262 0.388991
v -1.352205 1.312953 0.388990
v -0.729516 1.729022 0.388991
v 0.004997 1.875126 0.388988
v 0.739512 1.729022 0.388991
v 1.362201 1.312953 0.388990
v 1.778273 0.690262 0.388991
v 1.924372 -0.044252 0.388988
v 1.778273 -0.778765 0.388989
v 1.362201 -1.401456 0.388990
v 1.146522 -1.610944 0.388988
v 1.146522 -2.443028 0.388991
v -1.136523 -2.443028 0.388991
v -1.136523 -1.610945 0.388988
v -1.352205 -1.401457 0.388990
v -1.768273 -0.778767 0.388989
v -1.914379 -0.044253 0.388988
v -1.843767 0.721532 0.316364
v -1.409989 1.370732 0.316365
v -1.843767 0.721532 -0.317699
v -1.409989 1.370732 -0.317698
v -0.760787 1.804514 0.316364
v -0.760787 1.804514 -0.317700
v 0.004997 1.956838 0.316366
v 0.004997 1.956838 -0.317698
v 0.770774 1.804514 0.316364
v 0.770774 1.804514 -0.317700
v 1.419984 1.370732 0.316365
v 1.419984 1.370732 -0.317698
v 1.853765 0.721532 0.316364
v 1.853765 0.721532 -0.317699
v 2.006093 -0.044252 0.316366
v 2.006093 -0.044252 -0.317698
v 1.853765 -0.810035 0.316363
v 1.853765 -0.810035 -0.317700
v 1.425861 -1.454480 0.316363
v 1.425861 -1.454480 -0.317700
v 1.217204 -1.640826 0.316366
v 1.217204 -1.640826 -0.317698
v 1.229832 -2.443028 0.316365
v 1.229832 -2.443028 -0.317699
v -1.207194 -1.640827 0.316366
v -1.207194 -1.640827 -0.317698
v -1.219832 -2.443028 0.316365
v -1.219832 -2.443028 -0.317699
v -1.415866 -1.454483 0.316363
v -1.415866 -1.454483 -0.317697
v -1.843767 -0.810036 0.316363
v -1.843767 -0.810036 -0.317700
v -1.996093 -0.044252 0.316366
v -1.996093 -0.044252 -0.317698
v -2.478101 1.684362 -0.774340
v -2.478101 -0.788531 -0.774340
v -2.478101 -2.484493 -0.774340
v -2.478101 2.606385 -0.774340
v -3.454525 1.919003 0.774340
v -2.928583 1.015544 0.274340
v -2.928583 -0.788531 0.274340
v -3.454525 -1.447586 0.774340
v -2.478101 1.919003 0.774340
v -2.478101 1.015544 0.274340
v -2.478101 -0.788531 0.274340
v -2.478101 -1.447586 0.774340
v -3.454525 -2.484493 0.774340
v -2.478101 -2.484493 0.774340
v -2.478101 2.606385 0.774340
v -3.454525 2.606385 0.774340
v -4.015000 1.919003 0.213865
v -3.515000 1.015544 -0.312077
v -3.515000 -0.788531 -0.312077
v -4.015000 -1.447587 0.213865
v -4.015000 1.919003 -0.774340
v -3.515000 1.015544 -0.774340
v -3.515000 -0.788531 -0.774340
v -4.015000 -1.447587 -0.774340
v -4.015000 -2.484493 0.213865
v -4.015000 -2.484493 -0.774340
v -4.015000 2.606385 -0.774340
v -4.015000 2.606385 0.213865
v -3.985953 1.684362 -0.774340
v -3.985953 1.684362 0.183310
v -3.423971 1.684362 0.745293
v -2.478101 1.684362 0.745293
v -2.478100 1.015544 -0.774340
v -2.928583 -0.681997 0.274340
v -2.478101 -0.681997 0.274340
v -2.478101 -0.681997 -0.774340
v -3.515000 -0.681997 -0.774340
v -3.515000 -0.681997 -0.312077
v -2.928583 0.920996 0.274340
v -2.478101 0.920996 0.274340
v -2.478100 0.920996 -0.774340
v -3.515000 0.920996 -0.774340
v -3.515000 0.920996 -0.312077
v -2.956345 0.860773 0.341035
v -2.956344 -0.595903 0.341035
v -2.478101 0.860773 0.352590
v -2.478101 -0.595903 0.352590
v -3.593250 0.860773 -0.774340
v -3.581695 0.860773 -0.284316
v -3.593250 -0.595903 -0.774340
v -3.581695 -0.595903 -0.284316
v 2.466321 1.684362 -0.767559
v 2.466321 -0.788531 -0.767559
v 2.466321 -2.484493 -0.767559
v 2.466321 2.606385 -0.767559
v 4.015000 1.919003 0.208865
v 3.515000 1.015544 -0.317077
v 3.515000 -0.788531 -0.317077
v 4.015000 -1.447586 0.208865
v 4.015000 1.919003 -0.767559
v 3.515000 1.015544 -0.767559
v 3.515000 -0.788531 -0.767559
v 4.015000 -1.447587 -0.767559
v 4.015000 -2.484493 0.208865
v 4.015000 -2.484493 -0.767559
v 4.015000 2.606385 -0.767559
v 4.015000 2.606385 0.208865
v 3.454525 1.919003 0.769340
v 2.928584 1.015544 0.269340
v 2.928584 -0.788531 0.269340
v 3.454525 -1.447586 0.769340
v 2.466321 1.919003 0.769340
v 2.466321 1.015544 0.269340
v 2.466321 -0.788531 0.269340
v 2.466321 -1.447586 0.769340
v 3.454525 -2.484493 0.769340
v 2.466321 -2.484493 0.769340
v 2.466321 2.606385 0.769340
v 3.454525 2.606385 0.769340
v 2.466321 1.684362 0.740293
v 3.423971 1.684362 0.740293
v 3.985953 1.684362 0.178310
v 3.985953 1.684362 -0.767559
v 2.466321 1.015544 -0.767560
v 3.515000 -0.681997 -0.317077
v 3.515000 -0.681997 -0.767559
v 2.466321 -0.681997 -0.767559
v 2.466321 -0.681997 0.269340
v 2.928584 -0.681997 0.269340
v 3.515000 0.920996 -0.317077
v 3.515000 0.920996 -0.767559
v 2.466321 0.920996 -0.767560
v 2.466321 0.920996 0.269340
v 2.928584 0.920996 0.269340
v 3.581696 0.860773 -0.289316
v 3.581696 -0.595903 -0.289316
v 3.593250 0.860773 -0.767559
v 3.593250 -0.595903 -0.767559
v 2.466321 0.860773 0.347590
v 2.956345 0.860773 0.336035
v 2.466321 -0.595903 0.347590
v 2.956345 -0.595903 0.336035
vn -1.0000 -0.0000 -0.0000
vn 1.0000 -0.0000 -0.0000
vn -0.0000 -0.0000 -1.0000
vn -0.6060 0.4049 0.6846
vn -0.5027 0.5176 0.6923
vn 0.5028 0.5176 0.6923
vn 0.6060 0.4049 0.6846
vn 0.7165 0.1425 0.6829
vn 0.7182 -0.1429 0.6810
vn 0.6103 -0.4078 0.6792
vn 0.4085 -0.6113 0.6778
vn 0.1436 -0.7218 0.6771
vn -0.1436 -0.7218 0.6771
vn -0.4085 -0.6113 0.6778
vn -0.6103 -0.4078 0.6792
vn -0.7182 -0.1429 0.6810
vn -0.7165 0.1425 0.6829
vn -0.0000 -0.0000 1.0000
vn -0.0000 1.0000 -0.0000
vn -0.8705 -0.0000 0.4922
vn -0.0000 -1.0000 -0.0000
vn 0.8705 -0.0000 0.4922
vn 0.6102 -0.4077 -0.6792
vn 0.4084 -0.6113 -0.6779
vn 0.1436 -0.7217 -0.6771
vn -0.1436 -0.7217 -0.6771
vn -0.4084 -0.6113 -0.6779
vn -0.6102 -0.4077 -0.6792
vn -0.7182 -0.1429 -0.6810
vn -0.7165 0.1425 -0.6829
vn -0.6060 0.4049 -0.6847
vn -0.5027 0.5176 -0.6924
vn -0.8705 -0.0000 -0.4922
vn -0.0000 -0.8101 0.5863
vn 0.8705 -0.0000 -0.4922
vn 0.5027 0.5176 -0.6924
vn 0.6060 0.4049 -0.6847
vn 0.7165 0.1425 -0.6829
vn 0.7182 -0.1429 -0.6810
vn 0.8315 -0.5556 -0.0000
vn 0.5556 -0.8315 -0.0000
vn 0.1951 -0.9808 -0.0000
vn -0.1951 -0.9808 -0.0000
vn -0.5556 -0.8315 -0.0000
vn -0.8315 -0.5556 -0.0000
vn -0.9808 -0.1951 -0.0000
vn -0.9808 0.1951 -0.0000
vn -0.8331 0.5532 -0.0000
vn -0.6661 0.7459 -0.0000
vn -0.9999 -0.0157 -0.0000
vn 0.9999 -0.0158 -0.0000
vn 0.6661 0.7459 -0.0000
vn 0.8331 0.5532 -0.0000
vn 0.9808 0.1951 -0.0000
vn 0.9808 -0.1951 -0.0000
vn 0.5583 -0.3731 -0.7410
vn 0.5583 -0.3731 0.7410
vn 0.3731 -0.5583 -0.7410
vn 0.3731 -0.5584 0.7410
vn 0.1310 -0.6586 -0.7410
vn 0.1310 -0.6586 0.7410
vn -0.1310 -0.6586 -0.7410
vn -0.1310 -0.6586 0.7410
vn -0.3731 -0.5583 -0.7410
vn -0.3731 -0.5584 0.7410
vn -0.5583 -0.3731 -0.7410
vn -0.5584 -0.3731 0.7410
vn -0.6585 -0.1310 -0.7410
vn -0.6586 -0.1310 0.7410
vn -0.6586 0.1310 -0.7410
vn -0.6586 0.1310 0.7410
vn -0.5498 0.3674 -0.7502
vn -0.5593 0.3713 0.7412
vn -0.4993 0.5141 -0.6975
vn -0.4418 0.4947 0.7484
vn -0.6571 -0.0103 -0.7537
vn -0.7166 -0.0000 0.6974
vn 0.7167 -0.0000 -0.6974
vn 0.6571 -0.0104 0.7537
vn 0.4418 0.4947 -0.7484
vn 0.4993 0.5141 0.6974
vn 0.5592 0.3713 -0.7412
vn 0.5498 0.3674 0.7501
vn 0.6586 0.1310 -0.7410
vn 0.6586 0.1310 0.7410
vn 0.6586 -0.1310 -0.7410
vn 0.6586 -0.1310 0.7410
vn 0.1030 -0.9877 0.1181
vn 0.0997 -0.9864 0.1309
vn -0.1021 -0.9878 0.1171
vn -0.0000 -0.1229 0.9924
vn -0.0000 0.6044 0.7967
vn -0.7071 -0.0000 0.7071
vn -0.6960 -0.1768 0.6960
vn -0.4755 0.7402 0.4755
vn -0.9924 -0.1229 -0.0000
vn -0.7967 0.6044 -0.0000
vn -0.8176 -0.5757 -0.0000
vn -0.4946 -0.7146 0.4946
vn -0.0000 -0.5757 0.8176
vn -0.0242 -0.0000 0.9997
vn -0.9997 -0.0000 0.0236
vn -0.4735 0.7427 0.4735
vn -0.0000 0.7925 0.6099
vn -0.0190 -0.6161 0.7874
vn -0.6665 0.7453 0.0157
vn -0.7400 -0.6726 -0.0000
vn -0.5587 -0.6130 0.5587
vn 0.9924 -0.1229 -0.0000
vn 0.7967 0.6044 -0.0000
vn 0.7071 -0.0000 0.7071
vn 0.6960 -0.1768 0.6960
vn 0.4755 0.7402 0.4755
vn 0.4946 -0.7146 0.4946
vn 0.8176 -0.5757 -0.0000
vn 0.9997 -0.0000 0.0242
vn 0.0236 -0.0000 0.9997
vn 0.4735 0.7427 0.4735
vn 0.6099 0.7925 -0.0000
vn 0.7874 -0.6161 0.0190
vn 0.0157 0.7453 0.6665
vn -0.0000 -0.6726 0.7400
vn 0.5587 -0.6130 0.5587
vn -0.6061 0.4050 0.6846
vn -0.5028 0.5176 0.6923
vn 0.5027 0.5176 0.6923
vn -0.8705 -0.0000 0.4921
vn 0.3731 -0.5583 0.7410
vn -0.3731 -0.5584 -0.7410
vn -0.6586 -0.1310 -0.7410
vn -0.6585 0.1310 -0.7411
vn -0.5592 0.3713 -0.7412
vn -0.5498 0.3674 0.7501
vn -0.4418 0.4947 -0.7484
vn -0.4993 0.5141 0.6974
vn -0.7166 -0.0000 -0.6975
vn -0.6571 -0.0103 0.7537
vn 0.6571 -0.0104 -0.7537
vn 0.7167 -0.0000 0.6974
vn 0.4993 0.5141 -0.6974
vn 0.4418 0.4947 0.7484
vn 0.5498 0.3674 -0.7502
vn 0.5593 0.3713 0.7412
vn -0.0986 -0.9865 0.1309
vn -0.0161 0.7454 0.6664
vn -0.6099 0.7925 -0.0000
vn -0.7875 -0.6160 0.0186
vn 0.6664 0.7454 0.0161
vn 0.7400 -0.6726 -0.0000
vn 0.0186 -0.6160 0.7875
vt 0.375000 0.875000
vt 0.375000 0.625000
vt 0.875000 0.625000
vt 0.875000 0.875000
vt 0.125000 0.375000
vt 0.125000 0.875000
s 0
usemtl ruins_tg_gate
f 33/1/1 36/1/1 34/1/1
f 113/2/2 121/2/2 122/2/2
f 132/3/3 111/3/3 143/3/3
f 31/1/2 38/1/2 37/1/2
f 1/4/4 69/4/4 2/4/4
f 2/4/5 70/4/5 3/4/5
f 5/4/6 73/4/6 74/4/6
f 6/4/7 74/4/7 75/4/7
f 7/4/8 75/4/8 76/4/8
f 8/4/9 76/4/9 60/4/9
f 9/4/10 60/4/10 61/4/10
f 10/4/11 61/4/11 62/4/11
f 11/4/12 62/4/12 63/4/12
f 11/4/13 64/4/13 12/4/13
f 12/4/14 65/4/14 13/4/14
f 13/4/15 66/4/15 14/4/15
f 14/4/16 67/4/16 15/4/16
f 15/4/17 68/4/17 1/4/17
f 202/5/1 197/5/1 211/5/1
f 151/5/3 146/5/3 160/5/3
f 114/5/2 125/5/2 119/5/2
f 183/3/1 162/3/1 194/3/1
f 164/2/3 172/2/3 173/2/3
f 36/2/3 38/2/3 26/2/3
f 37/2/18 35/2/18 11/2/18
f 165/5/3 176/5/3 170/5/3
f 126/5/19 125/5/19 114/5/19
f 177/5/19 176/5/19 165/5/19
f 3/4/20 71/4/20 40/4/20
f 99/4/21 40/4/21 71/4/21
f 4/4/22 72/4/22 73/4/22
f 43/4/23 24/4/23 44/4/23
f 44/4/24 25/4/24 45/4/24
f 45/4/25 26/4/25 46/4/25
f 47/4/26 26/4/26 27/4/26
f 48/4/27 27/4/27 28/4/27
f 49/4/28 28/4/28 29/4/28
f 50/4/29 29/4/29 30/4/29
f 51/4/30 30/4/30 16/4/30
f 52/4/31 16/4/31 17/4/31
f 53/4/32 17/4/32 18/4/32
f 54/4/33 18/4/33 39/4/33
f 39/4/34 32/4/34 54/4/34
f 55/4/34 34/4/34 42/4/34
f 19/4/35 55/4/35 42/4/35
f 56/4/36 20/4/36 57/4/36
f 57/4/37 21/4/37 58/4/37
f 58/4/38 22/4/38 59/4/38
f 59/4/39 23/4/39 43/4/39
f 77/1/40 80/1/40 78/1/40
f 81/1/41 80/1/41 82/1/41
f 81/1/42 84/1/42 83/1/42
f 85/1/43 84/1/43 86/1/43
f 85/1/44 88/1/44 87/1/44
f 89/1/45 88/1/45 90/1/45
f 89/1/46 92/1/46 91/1/46
f 93/1/47 92/1/47 94/1/47
f 95/1/48 94/1/48 96/1/48
f 95/1/49 98/1/49 97/1/49
f 99/1/50 98/1/50 100/1/50
f 102/1/51 103/1/51 104/1/51
f 105/1/52 102/1/52 106/1/52
f 107/1/53 106/1/53 108/1/53
f 107/1/54 110/1/54 109/1/54
f 77/1/55 110/1/55 79/1/55
f 60/2/56 78/2/56 61/2/56
f 43/2/57 80/2/57 79/2/57
f 61/2/58 81/2/58 62/2/58
f 44/2/59 82/2/59 80/2/59
f 62/2/60 83/2/60 63/2/60
f 45/2/61 84/2/61 82/2/61
f 63/2/62 85/2/62 64/2/62
f 46/2/63 86/2/63 84/2/63
f 64/2/64 87/2/64 65/2/64
f 47/2/65 88/2/65 86/2/65
f 66/2/66 87/2/66 89/2/66
f 49/2/67 88/2/67 48/2/67
f 67/2/68 89/2/68 91/2/68
f 50/2/69 90/2/69 49/2/69
f 67/2/70 93/2/70 68/2/70
f 50/2/71 94/2/71 92/2/71
f 68/2/72 95/2/72 69/2/72
f 51/2/73 96/2/73 94/2/73
f 69/2/74 97/2/74 70/2/74
f 52/2/75 98/2/75 96/2/75
f 71/2/76 97/2/76 99/2/76
f 54/2/77 98/2/77 53/2/77
f 72/2/78 101/2/78 73/2/78
f 55/2/79 102/2/79 104/2/79
f 74/2/80 101/2/80 105/2/80
f 57/2/81 102/2/81 56/2/81
f 75/2/82 105/2/82 107/2/82
f 58/2/83 106/2/83 57/2/83
f 76/2/84 107/2/84 109/2/84
f 59/2/85 108/2/85 58/2/85
f 76/2/86 77/2/86 60/2/86
f 59/2/87 79/2/87 110/2/87
f 55/4/88 104/4/88 34/4/88
f 104/1/89 33/1/89 34/1/89
f 100/4/90 54/4/90 32/4/90
f 100/1/21 31/1/21 99/1/21
f 141/5/91 119/5/91 115/5/91
f 149/6/18 120/6/18 116/6/18
f 117/2/92 122/2/92 121/2/92
f 123/2/18 122/2/18 118/2/18
f 125/5/18 115/5/18 119/5/18
f 151/5/2 157/5/2 146/5/2
f 111/3/2 120/3/2 143/3/2
f 113/2/21 124/2/21 123/2/21
f 126/5/93 127/5/93 115/5/93
f 141/5/94 127/5/94 140/5/94
f 116/6/93 153/6/93 149/6/93
f 117/2/95 130/2/95 118/2/95
f 118/2/93 135/2/93 123/2/93
f 131/5/96 140/5/96 127/5/96
f 132/6/1 153/6/1 128/6/1
f 129/2/97 134/2/97 130/2/97
f 130/2/1 136/2/1 135/2/1
f 127/5/1 137/5/1 131/5/1
f 131/5/3 137/5/3 114/5/3
f 133/2/3 112/2/3 113/2/3
f 139/3/98 128/3/98 140/3/98
f 116/3/99 140/3/99 128/3/99
f 142/3/100 116/3/100 120/3/100
f 151/6/2 120/6/2 150/6/2
f 132/6/3 151/6/3 152/6/3
f 117/6/93 148/6/93 129/6/93
f 144/6/18 121/6/18 145/6/18
f 112/6/2 145/6/2 121/6/2
f 147/6/3 112/6/3 133/6/3
f 147/6/1 129/6/1 148/6/1
f 155/5/93 159/5/93 161/5/93
f 154/5/101 157/5/101 156/5/101
f 158/5/102 161/5/102 159/5/102
f 154/5/103 153/5/103 159/5/103
f 149/5/104 156/5/104 150/5/104
f 144/5/105 157/5/105 155/5/105
f 153/5/106 158/5/106 159/5/106
f 148/5/107 160/5/107 147/5/107
f 161/5/108 144/5/108 155/5/108
f 192/5/109 170/5/109 166/5/109
f 200/6/2 171/6/2 167/6/2
f 168/2/110 173/2/110 172/2/110
f 174/2/2 173/2/2 169/2/2
f 176/5/2 166/5/2 170/5/2
f 37/1/19 36/1/19 35/1/19
f 164/2/21 175/2/21 174/2/21
f 177/5/111 178/5/111 166/5/111
f 192/5/112 178/5/112 191/5/112
f 167/6/111 204/6/111 200/6/111
f 168/2/113 181/2/113 169/2/113
f 174/2/111 181/2/111 186/2/111
f 182/5/91 191/5/91 178/5/91
f 183/6/18 204/6/18 179/6/18
f 180/2/92 185/2/92 181/2/92
f 185/2/18 186/2/18 181/2/18
f 178/5/18 188/5/18 182/5/18
f 162/3/3 171/3/3 194/3/3
f 202/5/3 208/5/3 197/5/3
f 182/5/1 188/5/1 165/5/1
f 190/3/100 179/3/100 191/3/100
f 179/3/114 192/3/114 191/3/114
f 193/3/115 167/3/115 171/3/115
f 202/6/3 171/6/3 201/6/3
f 183/6/1 202/6/1 203/6/1
f 168/6/111 199/6/111 180/6/111
f 195/6/2 172/6/2 196/6/2
f 163/6/3 196/6/3 172/6/3
f 198/6/1 163/6/1 184/6/1
f 198/6/18 180/6/18 199/6/18
f 205/5/111 212/5/111 206/5/111
f 205/5/116 208/5/116 207/5/116
f 103/4/21 41/4/21 33/4/21
f 184/2/1 163/2/1 164/2/1
f 209/5/117 212/5/117 210/5/117
f 200/5/118 210/5/118 205/5/118
f 200/5/119 207/5/119 201/5/119
f 195/5/120 208/5/120 206/5/120
f 204/5/121 209/5/121 210/5/121
f 199/5/122 211/5/122 198/5/122
f 212/5/123 195/5/123 206/5/123
f 33/1/1 35/1/1 36/1/1
f 122/2/2 124/2/2 113/2/2
f 113/2/2 112/2/2 121/2/2
f 132/3/3 139/3/3 111/3/3
f 31/1/2 32/1/2 38/1/2
f 1/4/124 68/4/124 69/4/124
f 2/4/125 69/4/125 70/4/125
f 5/4/126 4/4/126 73/4/126
f 6/4/7 5/4/7 74/4/7
f 7/4/8 6/4/8 75/4/8
f 8/4/9 7/4/9 76/4/9
f 9/4/10 8/4/10 60/4/10
f 10/4/11 9/4/11 61/4/11
f 11/4/12 10/4/12 62/4/12
f 11/4/13 63/4/13 64/4/13
f 12/4/14 64/4/14 65/4/14
f 13/4/15 65/4/15 66/4/15
f 14/4/16 66/4/16 67/4/16
f 15/4/17 67/4/17 68/4/17
f 197/5/1 198/5/1 211/5/1
f 211/5/1 209/5/1 202/5/1
f 209/5/1 203/5/1 202/5/1
f 146/5/3 147/5/3 160/5/3
f 160/5/3 158/5/3 151/5/3
f 158/5/3 152/5/3 151/5/3
f 142/5/2 111/5/2 119/5/2
f 111/5/2 114/5/2 119/5/2
f 183/3/1 190/3/1 162/3/1
f 173/2/3 175/2/3 164/2/3
f 164/2/3 163/2/3 172/2/3
f 32/2/3 39/2/3 18/2/3
f 32/2/3 18/2/3 17/2/3
f 19/2/3 42/2/3 34/2/3
f 20/2/3 19/2/3 34/2/3
f 32/2/3 17/2/3 16/2/3
f 32/2/3 16/2/3 30/2/3
f 21/2/3 20/2/3 34/2/3
f 22/2/3 21/2/3 34/2/3
f 38/2/3 32/2/3 30/2/3
f 38/2/3 30/2/3 29/2/3
f 22/2/3 34/2/3 36/2/3
f 23/2/3 22/2/3 36/2/3
f 38/2/3 29/2/3 28/2/3
f 38/2/3 28/2/3 27/2/3
f 24/2/3 23/2/3 36/2/3
f 25/2/3 24/2/3 36/2/3
f 38/2/3 27/2/3 26/2/3
f 26/2/3 25/2/3 36/2/3
f 33/2/18 41/2/18 5/2/18
f 41/2/18 4/2/18 5/2/18
f 3/2/18 40/2/18 2/2/18
f 40/2/18 31/2/18 2/2/18
f 33/2/18 5/2/18 6/2/18
f 33/2/18 6/2/18 7/2/18
f 1/2/18 2/2/18 31/2/18
f 15/2/18 1/2/18 31/2/18
f 35/2/18 33/2/18 7/2/18
f 35/2/18 7/2/18 8/2/18
f 15/2/18 31/2/18 37/2/18
f 14/2/18 15/2/18 37/2/18
f 35/2/18 8/2/18 9/2/18
f 35/2/18 9/2/18 10/2/18
f 13/2/18 14/2/18 37/2/18
f 12/2/18 13/2/18 37/2/18
f 35/2/18 10/2/18 11/2/18
f 11/2/18 12/2/18 37/2/18
f 193/5/3 162/5/3 170/5/3
f 162/5/3 165/5/3 170/5/3
f 137/5/19 138/5/19 114/5/19
f 138/5/19 126/5/19 114/5/19
f 188/5/19 189/5/19 165/5/19
f 189/5/19 177/5/19 165/5/19
f 3/4/127 70/4/127 71/4/127
f 99/4/21 31/4/21 40/4/21
f 4/4/22 41/4/22 72/4/22
f 43/4/23 23/4/23 24/4/23
f 44/4/24 24/4/24 25/4/24
f 45/4/25 25/4/25 26/4/25
f 47/4/26 46/4/26 26/4/26
f 48/4/27 47/4/27 27/4/27
f 49/4/28 48/4/28 28/4/28
f 50/4/29 49/4/29 29/4/29
f 51/4/30 50/4/30 30/4/30
f 52/4/31 51/4/31 16/4/31
f 53/4/32 52/4/32 17/4/32
f 54/4/33 53/4/33 18/4/33
f 19/4/35 56/4/35 55/4/35
f 56/4/36 19/4/36 20/4/36
f 57/4/37 20/4/37 21/4/37
f 58/4/38 21/4/38 22/4/38
f 59/4/39 22/4/39 23/4/39
f 77/1/40 79/1/40 80/1/40
f 81/1/41 78/1/41 80/1/41
f 81/1/42 82/1/42 84/1/42
f 85/1/43 83/1/43 84/1/43
f 85/1/44 86/1/44 88/1/44
f 89/1/45 87/1/45 88/1/45
f 89/1/46 90/1/46 92/1/46
f 93/1/47 91/1/47 92/1/47
f 95/1/48 93/1/48 94/1/48
f 95/1/49 96/1/49 98/1/49
f 99/1/50 97/1/50 98/1/50
f 102/1/51 101/1/51 103/1/51
f 105/1/52 101/1/52 102/1/52
f 107/1/53 105/1/53 106/1/53
f 107/1/54 108/1/54 110/1/54
f 77/1/55 109/1/55 110/1/55
f 60/2/56 77/2/56 78/2/56
f 43/2/57 44/2/57 80/2/57
f 61/2/58 78/2/58 81/2/58
f 44/2/128 45/2/128 82/2/128
f 62/2/60 81/2/60 83/2/60
f 45/2/61 46/2/61 84/2/61
f 63/2/62 83/2/62 85/2/62
f 46/2/63 47/2/63 86/2/63
f 64/2/129 85/2/129 87/2/129
f 47/2/65 48/2/65 88/2/65
f 66/2/66 65/2/66 87/2/66
f 49/2/67 90/2/67 88/2/67
f 67/2/130 66/2/130 89/2/130
f 50/2/69 92/2/69 90/2/69
f 67/2/131 91/2/131 93/2/131
f 50/2/71 51/2/71 94/2/71
f 68/2/132 93/2/132 95/2/132
f 51/2/133 52/2/133 96/2/133
f 69/2/134 95/2/134 97/2/134
f 52/2/135 53/2/135 98/2/135
f 71/2/136 70/2/136 97/2/136
f 54/2/137 100/2/137 98/2/137
f 72/2/138 103/2/138 101/2/138
f 55/2/139 56/2/139 102/2/139
f 74/2/140 73/2/140 101/2/140
f 57/2/141 106/2/141 102/2/141
f 75/2/142 74/2/142 105/2/142
f 58/2/143 108/2/143 106/2/143
f 76/2/84 75/2/84 107/2/84
f 59/2/85 110/2/85 108/2/85
f 76/2/86 109/2/86 77/2/86
f 59/2/87 43/2/87 79/2/87
f 104/1/21 103/1/21 33/1/21
f 100/1/144 32/1/144 31/1/144
f 141/5/91 142/5/91 119/5/91
f 149/6/18 150/6/18 120/6/18
f 117/2/92 118/2/92 122/2/92
f 123/2/18 124/2/18 122/2/18
f 125/5/18 126/5/18 115/5/18
f 151/5/2 150/5/2 156/5/2
f 156/5/2 157/5/2 151/5/2
f 157/5/2 145/5/2 146/5/2
f 111/3/2 142/3/2 120/3/2
f 123/2/21 135/2/21 113/2/21
f 135/2/21 136/2/21 113/2/21
f 126/5/93 138/5/93 127/5/93
f 141/5/94 115/5/94 127/5/94
f 116/6/93 128/6/93 153/6/93
f 117/2/95 129/2/95 130/2/95
f 118/2/93 130/2/93 135/2/93
f 131/5/96 139/5/96 140/5/96
f 132/6/1 152/6/1 153/6/1
f 129/2/97 133/2/97 134/2/97
f 130/2/1 134/2/1 136/2/1
f 127/5/1 138/5/1 137/5/1
f 114/5/3 111/5/3 131/5/3
f 111/5/3 139/5/3 131/5/3
f 113/2/3 136/2/3 134/2/3
f 134/2/3 133/2/3 113/2/3
f 139/3/98 132/3/98 128/3/98
f 116/3/99 141/3/99 140/3/99
f 142/3/100 141/3/100 116/3/100
f 151/6/2 143/6/2 120/6/2
f 132/6/3 143/6/3 151/6/3
f 117/6/93 144/6/93 148/6/93
f 144/6/18 117/6/18 121/6/18
f 112/6/2 146/6/2 145/6/2
f 147/6/3 146/6/3 112/6/3
f 147/6/1 133/6/1 129/6/1
f 155/5/93 154/5/93 159/5/93
f 154/5/101 155/5/101 157/5/101
f 158/5/102 160/5/102 161/5/102
f 154/5/103 149/5/103 153/5/103
f 149/5/145 154/5/145 156/5/145
f 144/5/122 145/5/122 157/5/122
f 153/5/146 152/5/146 158/5/146
f 148/5/147 161/5/147 160/5/147
f 161/5/108 148/5/108 144/5/108
f 192/5/109 193/5/109 170/5/109
f 200/6/2 201/6/2 171/6/2
f 168/2/110 169/2/110 173/2/110
f 174/2/2 175/2/2 173/2/2
f 176/5/2 177/5/2 166/5/2
f 37/1/19 38/1/19 36/1/19
f 174/2/21 186/2/21 164/2/21
f 186/2/21 187/2/21 164/2/21
f 177/5/111 189/5/111 178/5/111
f 192/5/112 166/5/112 178/5/112
f 167/6/111 179/6/111 204/6/111
f 168/2/113 180/2/113 181/2/113
f 174/2/111 169/2/111 181/2/111
f 182/5/91 190/5/91 191/5/91
f 183/6/18 203/6/18 204/6/18
f 180/2/92 184/2/92 185/2/92
f 185/2/18 187/2/18 186/2/18
f 178/5/18 189/5/18 188/5/18
f 162/3/3 193/3/3 171/3/3
f 202/5/3 201/5/3 207/5/3
f 207/5/3 208/5/3 202/5/3
f 208/5/3 196/5/3 197/5/3
f 165/5/1 162/5/1 182/5/1
f 162/5/1 190/5/1 182/5/1
f 190/3/100 183/3/100 179/3/100
f 179/3/114 167/3/114 192/3/114
f 193/3/115 192/3/115 167/3/115
f 202/6/3 194/6/3 171/6/3
f 183/6/1 194/6/1 202/6/1
f 168/6/111 195/6/111 199/6/111
f 195/6/2 168/6/2 172/6/2
f 163/6/3 197/6/3 196/6/3
f 198/6/1 197/6/1 163/6/1
f 198/6/18 184/6/18 180/6/18
f 205/5/111 210/5/111 212/5/111
f 205/5/116 206/5/116 208/5/116
f 103/4/21 72/4/21 41/4/21
f 164/2/1 187/2/1 185/2/1
f 185/2/1 184/2/1 164/2/1
f 209/5/117 211/5/117 212/5/117
f 200/5/118 204/5/118 210/5/118
f 200/5/148 205/5/148 207/5/148
f 195/5/149 196/5/149 208/5/149
f 204/5/104 203/5/104 209/5/104
f 199/5/150 212/5/150 211/5/150
f 212/5/123 199/5/123 195/5/123
