# Blender 5.2.2 LTS
# www.blender.org
mtllib ruins_find_slate.mtl
o piece
v -0.225000 -0.160000 0.012000
v -0.225000 0.160000 0.012000
v -0.225000 -0.160000 -0.018000
v -0.225000 0.160000 -0.018000
v 0.225000 -0.160000 0.012000
v 0.225000 0.160000 0.012000
v 0.225000 -0.160000 -0.018000
v 0.225000 0.160000 -0.018000
v -0.146692 -0.117650 0.014000
v -0.146692 -0.077350 0.016000
v -0.136292 -0.117650 0.016000
v -0.136292 -0.077350 0.014000
v -0.176221 -0.087321 0.012000
v -0.176221 -0.087321 0.018000
v -0.169536 -0.079354 0.016000
v -0.142464 -0.115646 0.012000
v -0.142464 -0.115646 0.018000
v -0.135779 -0.107679 0.012000
v -0.135779 -0.107679 0.018000
v -0.160590 -0.046805 0.014000
v -0.160590 -0.028085 0.012000
v -0.160590 -0.028085 0.018000
v -0.141870 -0.046805 0.012000
v -0.141870 -0.046805 0.018000
v -0.141870 -0.028085 0.014000
v -0.175708 -0.052650 0.014000
v -0.175708 -0.012350 0.016000
v -0.165308 -0.052650 0.016000
v -0.165308 -0.012350 0.014000
v -0.161200 0.012350 0.014000
v -0.161200 0.052650 0.016000
v -0.150800 0.012350 0.016000
v -0.150800 0.052650 0.014000
v -0.169536 0.014354 0.015000
v -0.176221 0.022321 0.012000
v -0.176221 0.022321 0.018000
v -0.135779 0.042679 0.012000
v -0.135779 0.042679 0.018000
v -0.142464 0.050646 0.015000
v -0.180180 0.039390 0.014000
v -0.180180 0.049790 0.016000
v -0.131820 0.039390 0.016000
v -0.131820 0.049790 0.014000
v -0.169299 0.103382 0.014000
v -0.169299 0.113782 0.012000
v -0.169299 0.113782 0.018000
v -0.142701 0.103382 0.016000
v -0.142701 0.113782 0.014000
v -0.169299 0.081217 0.014000
v -0.169299 0.091617 0.012000
v -0.169299 0.091617 0.018000
v -0.142701 0.081217 0.012000
v -0.142701 0.081217 0.018000
v -0.142701 0.091617 0.012000
v -0.142701 0.091617 0.018000
v -0.147901 0.086417 0.012000
v -0.147901 0.086417 0.018000
v -0.147901 0.108582 0.012000
v -0.147901 0.108582 0.018000
v -0.137501 0.086417 0.016000
v -0.137501 0.108582 0.012000
v -0.137501 0.108582 0.018000
v -0.174499 0.086417 0.012000
v -0.174499 0.086417 0.018000
v -0.174499 0.108582 0.016000
v -0.164099 0.086417 0.012000
v -0.164099 0.086417 0.018000
v -0.164099 0.108582 0.012000
v -0.164099 0.108582 0.018000
v -0.152018 0.098914 0.012000
v -0.152018 0.098914 0.018000
v -0.152018 0.117634 0.016000
v -0.133298 0.098914 0.016000
v -0.133298 0.117634 0.012000
v -0.133298 0.117634 0.018000
v -0.091299 -0.091617 0.014000
v -0.091299 -0.081217 0.016000
v -0.064701 -0.091617 0.016000
v -0.064701 -0.081217 0.014000
v -0.091299 -0.113782 0.012000
v -0.091299 -0.113782 0.018000
v -0.091299 -0.103382 0.016000
v -0.064701 -0.113782 0.016000
v -0.064701 -0.103382 0.012000
v -0.064701 -0.103382 0.018000
v -0.069901 -0.108582 0.014000
v -0.069901 -0.086417 0.016000
v -0.059501 -0.108582 0.016000
v -0.059501 -0.086417 0.014000
v -0.096499 -0.108582 0.014000
v -0.096499 -0.086417 0.016000
v -0.086099 -0.108582 0.016000
v -0.086099 -0.086417 0.012000
v -0.086099 -0.086417 0.018000
v -0.094926 -0.090610 0.014000
v -0.094926 -0.080210 0.016000
v -0.061074 -0.090610 0.016000
v -0.061074 -0.080210 0.012000
v -0.061074 -0.080210 0.018000
v -0.068692 -0.109590 0.012000
v -0.068692 -0.109590 0.018000
v -0.068692 -0.085410 0.012000
v -0.068692 -0.085410 0.018000
v -0.058292 -0.109590 0.012000
v -0.058292 -0.109590 0.018000
v -0.058292 -0.085410 0.012000
v -0.058292 -0.085410 0.018000
v -0.102180 -0.049790 0.012000
v -0.102180 -0.049790 0.018000
v -0.102180 -0.039390 0.012000
v -0.102180 -0.039390 0.018000
v -0.053820 -0.049790 0.012000
v -0.053820 -0.049790 0.018000
v -0.053820 -0.039390 0.012000
v -0.053820 -0.039390 0.018000
v -0.091299 -0.026617 0.012000
v -0.091299 -0.026617 0.018000
v -0.091299 -0.016217 0.016000
v -0.064701 -0.026617 0.012000
v -0.064701 -0.026617 0.018000
v -0.064701 -0.016217 0.012000
v -0.064701 -0.016217 0.018000
v -0.091299 -0.048782 0.012000
v -0.091299 -0.048782 0.018000
v -0.091299 -0.038383 0.016000
v -0.064701 -0.048782 0.016000
v -0.064701 -0.038383 0.014000
v -0.069901 -0.043582 0.014000
v -0.069901 -0.021417 0.016000
v -0.059501 -0.043582 0.012000
v -0.059501 -0.043582 0.018000
v -0.059501 -0.021417 0.014000
v -0.096499 -0.043582 0.014000
v -0.096499 -0.021417 0.016000
v -0.086099 -0.043582 0.016000
v -0.086099 -0.021417 0.014000
v -0.083200 0.012350 0.014000
v -0.083200 0.052650 0.016000
v -0.072800 0.012350 0.016000
v -0.072800 0.052650 0.014000
v -0.091299 0.038383 0.014000
v -0.091299 0.048782 0.016000
v -0.064701 0.038383 0.016000
v -0.064701 0.048782 0.014000
v -0.091299 0.016217 0.012000
v -0.091299 0.016217 0.018000
v -0.091299 0.026618 0.016000
v -0.064701 0.016217 0.016000
v -0.064701 0.026618 0.014000
v -0.069901 0.021417 0.014000
v -0.069901 0.043582 0.016000
v -0.059501 0.021417 0.012000
v -0.059501 0.021417 0.018000
v -0.059501 0.043582 0.012000
v -0.059501 0.043582 0.018000
v -0.096499 0.021417 0.012000
v -0.096499 0.021417 0.018000
v -0.096499 0.043582 0.012000
v -0.096499 0.043582 0.018000
v -0.086099 0.021417 0.016000
v -0.086099 0.043582 0.014000
v -0.092508 0.018434 0.014000
v -0.092508 0.028834 0.012000
v -0.092508 0.028834 0.018000
v -0.063492 0.018434 0.016000
v -0.063492 0.028834 0.014000
v -0.092508 0.036166 0.014000
v -0.092508 0.046566 0.016000
v -0.063492 0.036166 0.016000
v -0.063492 0.046566 0.012000
v -0.063492 0.046566 0.018000
v -0.014508 -0.111566 0.014000
v -0.014508 -0.101166 0.016000
v 0.014508 -0.111566 0.016000
v 0.014508 -0.101166 0.014000
v -0.014508 -0.093834 0.014000
v -0.014508 -0.083434 0.016000
v 0.014508 -0.093834 0.016000
v 0.014508 -0.083434 0.014000
v -0.004560 -0.117819 0.014000
v -0.004560 -0.099099 0.016000
v 0.014160 -0.117819 0.016000
v 0.014160 -0.099099 0.014000
v -0.024180 -0.037700 0.014000
v -0.024180 -0.027300 0.016000
v 0.024180 -0.037700 0.012000
v 0.024180 -0.037700 0.018000
v 0.024180 -0.027300 0.014000
v -0.019708 -0.052650 0.012000
v -0.019708 -0.052650 0.018000
v -0.019708 -0.012350 0.012000
v -0.019708 -0.012350 0.018000
v -0.009308 -0.052650 0.012000
v -0.009308 -0.052650 0.018000
v -0.009308 -0.012350 0.012000
v -0.009308 -0.012350 0.018000
v -0.016926 0.039390 0.012000
v -0.016926 0.039390 0.018000
v -0.016926 0.049790 0.012000
v -0.016926 0.049790 0.018000
v 0.016926 0.039390 0.012000
v 0.016926 0.039390 0.018000
v 0.016926 0.049790 0.012000
v 0.016926 0.049790 0.018000
v 0.009308 0.020410 0.012000
v 0.009308 0.020410 0.018000
v 0.009308 0.044590 0.012000
v 0.009308 0.044590 0.018000
v 0.019708 0.020410 0.012000
v 0.019708 0.020410 0.018000
v 0.019708 0.044590 0.012000
v 0.019708 0.044590 0.018000
v -0.020221 0.042679 0.012000
v -0.020221 0.042679 0.018000
v -0.013536 0.050646 0.015000
v 0.013536 0.014354 0.015000
v 0.020221 0.022321 0.012000
v 0.020221 0.022321 0.018000
v -0.016926 0.104390 0.012000
v -0.016926 0.104390 0.018000
v -0.016926 0.114790 0.012000
v -0.016926 0.114790 0.018000
v 0.016926 0.104390 0.012000
v 0.016926 0.104390 0.018000
v 0.016926 0.114790 0.012000
v 0.016926 0.114790 0.018000
v 0.009308 0.085410 0.012000
v 0.009308 0.085410 0.018000
v 0.009308 0.109590 0.012000
v 0.009308 0.109590 0.018000
v 0.019708 0.085410 0.012000
v 0.019708 0.085410 0.018000
v 0.019708 0.109590 0.012000
v 0.019708 0.109590 0.018000
v -0.024180 0.104390 0.012000
v -0.024180 0.104390 0.018000
v -0.024180 0.114790 0.012000
v -0.024180 0.114790 0.018000
v 0.024180 0.104390 0.012000
v 0.024180 0.104390 0.018000
v 0.024180 0.114790 0.012000
v 0.024180 0.114790 0.018000
v 0.063492 -0.111566 0.012000
v 0.063492 -0.111566 0.018000
v 0.063492 -0.101166 0.012000
v 0.063492 -0.101166 0.018000
v 0.092508 -0.111566 0.012000
v 0.092508 -0.111566 0.018000
v 0.092508 -0.101166 0.012000
v 0.092508 -0.101166 0.018000
v 0.063492 -0.093834 0.014000
v 0.063492 -0.083434 0.016000
v 0.092508 -0.093834 0.016000
v 0.092508 -0.083434 0.012000
v 0.092508 -0.083434 0.018000
v 0.072800 -0.117650 0.014000
v 0.072800 -0.077350 0.016000
v 0.083200 -0.117650 0.016000
v 0.083200 -0.077350 0.014000
v 0.064464 -0.115646 0.014000
v 0.057779 -0.107679 0.016000
v 0.098221 -0.087321 0.016000
v 0.091536 -0.079354 0.014000
v 0.064701 0.038383 0.012000
v 0.064701 0.038383 0.018000
v 0.064701 0.048782 0.012000
v 0.064701 0.048782 0.018000
v 0.091299 0.038383 0.016000
v 0.091299 0.048782 0.014000
v 0.064701 0.016217 0.014000
v 0.064701 0.026617 0.012000
v 0.064701 0.026617 0.018000
v 0.091299 0.016217 0.012000
v 0.091299 0.016217 0.018000
v 0.091299 0.026618 0.014000
v 0.086099 0.021417 0.014000
v 0.086099 0.043582 0.016000
v 0.096499 0.021417 0.016000
v 0.096499 0.043582 0.014000
v 0.059501 0.021417 0.014000
v 0.059501 0.043582 0.012000
v 0.059501 0.043582 0.018000
v 0.069901 0.021417 0.012000
v 0.069901 0.021417 0.018000
v 0.069901 0.043582 0.012000
v 0.069901 0.043582 0.018000
v 0.064464 0.014354 0.015000
v 0.057779 0.022321 0.012000
v 0.057779 0.022321 0.018000
v 0.098221 0.042679 0.012000
v 0.098221 0.042679 0.018000
v 0.091536 0.050646 0.015000
v 0.080708 0.017499 0.012000
v 0.080708 0.017499 0.018000
v 0.080708 0.036219 0.012000
v 0.080708 0.036219 0.018000
v 0.099428 0.017499 0.012000
v 0.099428 0.017499 0.018000
v 0.099428 0.036219 0.014000
v 0.061074 0.104390 0.014000
v 0.061074 0.114790 0.016000
v 0.094926 0.104390 0.012000
v 0.094926 0.104390 0.018000
v 0.094926 0.114790 0.014000
v 0.087308 0.085410 0.014000
v 0.087308 0.109590 0.016000
v 0.097708 0.085410 0.016000
v 0.097708 0.109590 0.014000
v 0.072800 0.077350 0.014000
v 0.072800 0.117650 0.016000
v 0.083200 0.077350 0.016000
v 0.083200 0.117650 0.014000
v 0.135779 -0.087321 0.014000
v 0.142464 -0.079354 0.016000
v 0.169536 -0.115646 0.012000
v 0.169536 -0.115646 0.018000
v 0.176221 -0.107679 0.014000
v 0.137603 -0.116000 0.014000
v 0.137603 -0.097280 0.016000
v 0.156323 -0.116000 0.016000
v 0.156323 -0.097280 0.014000
v 0.136292 -0.052650 0.014000
v 0.136292 -0.012350 0.016000
v 0.146692 -0.052650 0.016000
v 0.146692 -0.012350 0.014000
v 0.135937 -0.036501 0.014000
v 0.135937 -0.017781 0.016000
v 0.154657 -0.036501 0.016000
v 0.154657 -0.017781 0.014000
v 0.141492 0.018434 0.014000
v 0.141492 0.028834 0.016000
v 0.170508 0.018434 0.012000
v 0.170508 0.018434 0.018000
v 0.170508 0.028834 0.014000
v 0.141492 0.036166 0.014000
v 0.141492 0.046566 0.016000
v 0.170508 0.036166 0.016000
v 0.170508 0.046566 0.014000
v 0.139074 0.039390 0.014000
v 0.139074 0.049790 0.012000
v 0.139074 0.049790 0.018000
v 0.172926 0.039390 0.012000
v 0.172926 0.039390 0.018000
v 0.172926 0.049790 0.014000
v 0.165308 0.020410 0.014000
v 0.165308 0.044590 0.016000
v 0.175708 0.020410 0.012000
v 0.175708 0.020410 0.018000
v 0.175708 0.044590 0.014000
v 0.145756 0.029097 0.014000
v 0.145756 0.047817 0.016000
v 0.164476 0.029097 0.016000
v 0.164476 0.047817 0.014000
v 0.142701 0.103382 0.012000
v 0.142701 0.103382 0.018000
v 0.142701 0.113782 0.016000
v 0.169299 0.103382 0.012000
v 0.169299 0.103382 0.018000
v 0.169299 0.113782 0.014000
v 0.142701 0.081217 0.012000
v 0.142701 0.081217 0.018000
v 0.142701 0.091617 0.016000
v 0.169299 0.081217 0.012000
v 0.169299 0.081217 0.018000
v 0.169299 0.091617 0.014000
v 0.164099 0.086417 0.014000
v 0.164099 0.108582 0.016000
v 0.174499 0.086417 0.016000
v 0.174499 0.108582 0.014000
v 0.137501 0.086417 0.014000
v 0.137501 0.108582 0.016000
v 0.147901 0.086417 0.016000
v 0.147901 0.108582 0.014000
v 0.131820 0.092300 0.014000
v 0.131820 0.102700 0.016000
v 0.180180 0.092300 0.016000
v 0.180180 0.102700 0.014000
v 0.142464 0.079354 0.014000
v 0.135779 0.087321 0.012000
v 0.135779 0.087321 0.018000
v 0.176221 0.107679 0.016000
v 0.169536 0.115646 0.014000
vn -1.0000 -0.0000 -0.0000
vn -0.0000 -0.0000 -1.0000
vn 1.0000 -0.0000 -0.0000
vn -0.0000 -0.0000 1.0000
vn -0.0000 -1.0000 -0.0000
vn -0.0000 1.0000 -0.0000
vn -0.1886 0.0487 -0.9808
vn 0.1886 0.0487 0.9808
vn -0.7660 0.6428 -0.0000
vn 0.7660 -0.6428 -0.0000
vn -0.6428 -0.7660 -0.0000
vn 0.1653 0.3283 -0.9300
vn -0.0347 0.0291 0.9990
vn 0.1056 -0.1056 -0.9888
vn 0.2045 0.2045 0.9572
vn -0.6428 0.7660 -0.0000
vn 0.6428 -0.7660 -0.0000
vn 0.1278 -0.2538 -0.9588
vn -0.1278 0.2538 0.9588
vn -0.0406 0.1887 -0.9812
vn 0.0406 0.1887 0.9812
vn 0.0736 -0.1883 -0.9793
vn 0.1461 0.1868 0.9715
vn -0.0000 -0.1888 -0.9820
vn -0.0000 -0.0899 0.9960
vn -0.3540 0.1661 -0.9204
vn -0.1888 -0.0000 0.9820
vn -0.2045 0.2045 -0.9572
vn -0.1056 -0.1056 0.9888
vn -0.0736 0.1883 -0.9793
vn 0.0736 0.1883 0.9793
vn -0.1390 0.3555 -0.9243
vn -0.0736 -0.1883 0.9793
vn -0.1881 0.0883 -0.9782
vn 0.1881 0.0883 0.9782
vn -0.3577 0.0839 -0.9301
vn -0.1881 -0.0883 0.9782
vn -0.1153 0.1876 -0.9755
vn -0.0579 -0.1885 0.9804
vn -0.0750 -0.0000 0.9972
vn -0.0700 0.3581 -0.9311
vn 0.1859 0.1745 0.9669
vn 0.1888 -0.0000 -0.9820
vn 0.3577 0.0839 0.9301
vn 0.0675 -0.1884 -0.9798
vn 0.1342 0.1871 0.9731
vn -0.1342 0.1871 -0.9731
vn -0.0675 -0.1884 0.9798
vn -0.0675 0.1884 -0.9798
vn 0.0675 0.1884 0.9798
vn -0.1056 0.1056 -0.9888
vn 0.1056 0.1056 0.9888
vn 0.0386 0.3587 0.9327
vn 0.1278 0.2538 -0.9588
vn -0.1278 -0.2538 0.9588
vn -0.1554 0.1159 -0.9810
vn -0.0872 0.1731 0.9810
vn 0.0750 -0.0000 -0.9972
vn 0.1390 0.3555 0.9243
vn -0.0000 -0.0899 -0.9960
vn 0.1062 -0.0000 -0.9943
vn -0.0579 0.1885 -0.9804
vn 0.0551 0.3584 0.9319
vn -0.1882 0.0810 -0.9788
vn 0.1882 0.0810 0.9788
vn 0.0872 0.1731 -0.9810
vn 0.2630 0.2475 0.9325
vn 0.0642 0.3582 0.9314
vn 0.0579 -0.1885 -0.9804
vn 0.1096 0.3568 0.9277
vn 0.1864 0.1603 0.9693
vn 0.0700 0.3581 0.9311
vn 0.1554 -0.1159 -0.9810
vn -0.0529 0.2012 0.9781
vn 0.1886 -0.0487 -0.9808
vn -0.1886 -0.0487 0.9808
vn 0.6428 0.7660 -0.0000
vn 0.1214 0.1447 0.9820
vn -0.2045 -0.2045 0.9572
vn -0.7660 -0.6428 -0.0000
vn 0.7660 0.6428 -0.0000
vn -0.1278 0.2538 -0.9588
vn 0.1278 -0.2538 0.9588
vn 0.0406 -0.1887 -0.9812
vn -0.0406 -0.1887 0.9812
vn -0.0700 -0.3581 0.9311
vn -0.0750 -0.0000 -0.9972
vn -0.1390 -0.3555 0.9243
vn 0.3540 -0.1661 -0.9204
vn 0.1888 -0.0000 0.9820
vn -0.0000 0.0899 0.9960
vn 0.2045 -0.2045 -0.9572
vn 0.1390 -0.3555 -0.9243
vn 0.1881 -0.0883 -0.9782
vn 0.1860 -0.1745 -0.9669
vn 0.0551 -0.3584 -0.9319
vn -0.0000 0.1888 0.9820
vn 0.1461 -0.1868 -0.9715
vn -0.3577 -0.0839 0.9301
vn -0.1888 -0.0000 -0.9820
vn 0.3577 -0.0839 -0.9301
vn -0.0642 -0.3582 0.9314
vn 0.0642 -0.3582 -0.9314
vn -0.0810 -0.1882 0.9788
vn -0.1278 -0.2538 -0.9588
vn 0.1278 0.2538 0.9588
vn 0.0872 -0.1731 0.9810
vn 0.0750 -0.0000 0.9972
vn -0.3540 -0.1661 0.9204
vn -0.0000 0.1062 -0.9943
vn -0.1153 -0.1876 0.9755
vn 0.1882 -0.0810 -0.9788
vn -0.1882 -0.0810 0.9788
vn -0.1889 -0.0870 0.9781
vn -0.1342 -0.1871 0.9731
vn -0.1096 -0.3568 0.9277
vn -0.3579 -0.0770 0.9306
vn -0.0000 0.1888 -0.9820
vn 0.1981 -0.3020 0.9325
vt 0.125000 0.625000
vt 0.375000 0.875000
vt 0.375000 0.625000
vt 0.875000 0.625000
s 0
usemtl ruins_find_slate
f 2/1/1 3/1/1 1/1/1
f 4/2/2 7/2/2 3/2/2
f 8/1/3 5/1/3 7/1/3
f 6/3/4 1/3/4 5/3/4
f 7/2/5 1/2/5 3/2/5
f 4/4/6 6/4/6 8/4/6
f 12/4/7 9/4/7 10/4/7
f 10/4/8 11/4/8 12/4/8
f 14/4/9 15/4/9 13/4/9
f 19/4/10 16/4/10 18/4/10
f 17/4/11 13/4/11 16/4/11
f 18/4/12 13/4/12 15/4/12
f 15/4/13 17/4/13 19/4/13
f 22/4/6 25/4/6 21/4/6
f 24/4/5 20/4/5 23/4/5
f 25/4/14 20/4/14 21/4/14
f 22/4/15 24/4/15 25/4/15
f 29/4/7 26/4/7 27/4/7
f 27/4/8 28/4/8 29/4/8
f 33/4/7 30/4/7 31/4/7
f 31/4/8 32/4/8 33/4/8
f 36/4/16 39/4/16 35/4/16
f 38/4/17 34/4/17 37/4/17
f 35/4/18 37/4/18 34/4/18
f 36/4/19 38/4/19 39/4/19
f 43/4/20 40/4/20 41/4/20
f 41/4/21 42/4/21 43/4/21
f 46/4/6 48/4/6 45/4/6
f 48/4/22 44/4/22 45/4/22
f 46/4/23 47/4/23 48/4/23
f 51/4/6 54/4/6 50/4/6
f 55/4/3 52/4/3 54/4/3
f 53/4/5 49/4/5 52/4/5
f 54/4/24 49/4/24 50/4/24
f 51/4/4 53/4/4 55/4/4
f 57/4/1 58/4/1 56/4/1
f 59/4/6 61/4/6 58/4/6
f 62/4/3 60/4/3 61/4/3
f 61/4/2 56/4/2 58/4/2
f 59/4/25 60/4/25 62/4/25
f 64/4/1 65/4/1 63/4/1
f 69/4/3 66/4/3 68/4/3
f 67/4/5 63/4/5 66/4/5
f 68/4/26 63/4/26 65/4/26
f 65/4/27 67/4/27 69/4/27
f 71/4/1 72/4/1 70/4/1
f 75/4/3 73/4/3 74/4/3
f 74/4/28 70/4/28 72/4/28
f 72/4/29 73/4/29 75/4/29
f 79/4/30 76/4/30 77/4/30
f 77/4/31 78/4/31 79/4/31
f 81/4/1 82/4/1 80/4/1
f 85/4/3 83/4/3 84/4/3
f 84/4/32 80/4/32 82/4/32
f 82/4/33 83/4/33 85/4/33
f 89/4/34 86/4/34 87/4/34
f 87/4/35 88/4/35 89/4/35
f 94/4/3 92/4/3 93/4/3
f 93/4/36 90/4/36 91/4/36
f 91/4/37 92/4/37 94/4/37
f 99/4/3 97/4/3 98/4/3
f 98/4/38 95/4/38 96/4/38
f 96/4/39 97/4/39 99/4/39
f 101/4/1 102/4/1 100/4/1
f 103/4/6 106/4/6 102/4/6
f 107/4/3 104/4/3 106/4/3
f 105/4/5 100/4/5 104/4/5
f 106/4/2 100/4/2 102/4/2
f 103/4/4 105/4/4 107/4/4
f 109/4/1 110/4/1 108/4/1
f 111/4/6 114/4/6 110/4/6
f 115/4/3 112/4/3 114/4/3
f 113/4/5 108/4/5 112/4/5
f 114/4/2 108/4/2 110/4/2
f 111/4/4 113/4/4 115/4/4
f 117/4/1 118/4/1 116/4/1
f 122/4/3 119/4/3 121/4/3
f 120/4/5 116/4/5 119/4/5
f 121/4/32 116/4/32 118/4/32
f 118/4/40 120/4/40 122/4/40
f 124/4/1 125/4/1 123/4/1
f 127/4/41 123/4/41 125/4/41
f 125/4/31 126/4/31 127/4/31
f 131/4/5 128/4/5 130/4/5
f 132/4/34 128/4/34 129/4/34
f 129/4/42 131/4/42 132/4/42
f 136/4/34 133/4/34 134/4/34
f 134/4/35 135/4/35 136/4/35
f 140/4/7 137/4/7 138/4/7
f 138/4/8 139/4/8 140/4/8
f 144/4/30 141/4/30 142/4/30
f 142/4/31 143/4/31 144/4/31
f 146/4/1 147/4/1 145/4/1
f 149/4/41 145/4/41 147/4/41
f 147/4/31 148/4/31 149/4/31
f 155/4/3 152/4/3 154/4/3
f 153/4/5 150/4/5 152/4/5
f 154/4/36 150/4/36 151/4/36
f 151/4/27 153/4/27 155/4/27
f 157/4/1 158/4/1 156/4/1
f 159/4/6 161/4/6 158/4/6
f 161/4/43 156/4/43 158/4/43
f 159/4/44 160/4/44 161/4/44
f 164/4/6 166/4/6 163/4/6
f 166/4/45 162/4/45 163/4/45
f 164/4/46 165/4/46 166/4/46
f 171/4/3 169/4/3 170/4/3
f 170/4/47 167/4/47 168/4/47
f 168/4/48 169/4/48 171/4/48
f 175/4/49 172/4/49 173/4/49
f 173/4/50 174/4/50 175/4/50
f 179/4/49 176/4/49 177/4/49
f 177/4/50 178/4/50 179/4/50
f 183/4/51 180/4/51 181/4/51
f 181/4/52 182/4/52 183/4/52
f 187/4/5 184/4/5 186/4/5
f 188/4/20 184/4/20 185/4/20
f 185/4/53 187/4/53 188/4/53
f 190/4/1 191/4/1 189/4/1
f 192/4/6 195/4/6 191/4/6
f 196/4/3 193/4/3 195/4/3
f 194/4/5 189/4/5 193/4/5
f 195/4/2 189/4/2 191/4/2
f 192/4/4 194/4/4 196/4/4
f 198/4/1 199/4/1 197/4/1
f 200/4/6 203/4/6 199/4/6
f 204/4/3 201/4/3 203/4/3
f 202/4/5 197/4/5 201/4/5
f 203/4/2 197/4/2 199/4/2
f 200/4/4 202/4/4 204/4/4
f 206/4/1 207/4/1 205/4/1
f 208/4/6 211/4/6 207/4/6
f 212/4/3 209/4/3 211/4/3
f 210/4/5 205/4/5 209/4/5
f 211/4/2 205/4/2 207/4/2
f 208/4/4 210/4/4 212/4/4
f 214/4/9 215/4/9 213/4/9
f 218/4/10 216/4/10 217/4/10
f 217/4/54 213/4/54 215/4/54
f 218/4/55 214/4/55 216/4/55
f 220/4/1 221/4/1 219/4/1
f 222/4/6 225/4/6 221/4/6
f 226/4/3 223/4/3 225/4/3
f 224/4/5 219/4/5 223/4/5
f 225/4/2 219/4/2 221/4/2
f 222/4/4 224/4/4 226/4/4
f 228/4/1 229/4/1 227/4/1
f 230/4/6 233/4/6 229/4/6
f 234/4/3 231/4/3 233/4/3
f 232/4/5 227/4/5 231/4/5
f 233/4/2 227/4/2 229/4/2
f 230/4/4 232/4/4 234/4/4
f 236/4/1 237/4/1 235/4/1
f 238/4/6 241/4/6 237/4/6
f 242/4/3 239/4/3 241/4/3
f 240/4/5 235/4/5 239/4/5
f 241/4/2 235/4/2 237/4/2
f 238/4/4 240/4/4 242/4/4
f 244/4/1 245/4/1 243/4/1
f 246/4/6 249/4/6 245/4/6
f 250/4/3 247/4/3 249/4/3
f 248/4/5 243/4/5 247/4/5
f 249/4/2 243/4/2 245/4/2
f 246/4/4 248/4/4 250/4/4
f 255/4/3 253/4/3 254/4/3
f 254/4/47 251/4/47 252/4/47
f 252/4/48 253/4/48 255/4/48
f 259/4/7 256/4/7 257/4/7
f 257/4/8 258/4/8 259/4/8
f 263/4/56 260/4/56 261/4/56
f 261/4/57 262/4/57 263/4/57
f 265/4/1 266/4/1 264/4/1
f 267/4/6 269/4/6 266/4/6
f 269/4/58 264/4/58 266/4/58
f 267/4/23 268/4/23 269/4/23
f 272/4/6 275/4/6 271/4/6
f 274/4/5 270/4/5 273/4/5
f 275/4/22 270/4/22 271/4/22
f 272/4/59 274/4/59 275/4/59
f 279/4/34 276/4/34 277/4/34
f 277/4/35 278/4/35 279/4/35
f 282/4/6 285/4/6 281/4/6
f 286/4/3 283/4/3 285/4/3
f 284/4/5 280/4/5 283/4/5
f 285/4/60 280/4/60 281/4/60
f 282/4/4 284/4/4 286/4/4
f 289/4/16 292/4/16 288/4/16
f 291/4/17 287/4/17 290/4/17
f 288/4/18 290/4/18 287/4/18
f 289/4/19 291/4/19 292/4/19
f 294/4/1 295/4/1 293/4/1
f 296/4/6 299/4/6 295/4/6
f 298/4/5 293/4/5 297/4/5
f 299/4/61 293/4/61 295/4/61
f 296/4/15 298/4/15 299/4/15
f 303/4/5 300/4/5 302/4/5
f 304/4/62 300/4/62 301/4/62
f 301/4/63 303/4/63 304/4/63
f 308/4/64 305/4/64 306/4/64
f 306/4/65 307/4/65 308/4/65
f 312/4/7 309/4/7 310/4/7
f 310/4/8 311/4/8 312/4/8
f 316/4/11 313/4/11 315/4/11
f 317/4/66 313/4/66 314/4/66
f 314/4/67 316/4/67 317/4/67
f 321/4/51 318/4/51 319/4/51
f 319/4/52 320/4/52 321/4/52
f 325/4/7 322/4/7 323/4/7
f 323/4/8 324/4/8 325/4/8
f 329/4/51 326/4/51 327/4/51
f 327/4/52 328/4/52 329/4/52
f 333/4/5 330/4/5 332/4/5
f 334/4/49 330/4/49 331/4/49
f 331/4/68 333/4/68 334/4/68
f 338/4/49 335/4/49 336/4/49
f 336/4/50 337/4/50 338/4/50
f 341/4/6 344/4/6 340/4/6
f 343/4/5 339/4/5 342/4/5
f 344/4/69 339/4/69 340/4/69
f 341/4/70 343/4/70 344/4/70
f 348/4/5 345/4/5 347/4/5
f 349/4/64 345/4/64 346/4/64
f 346/4/71 348/4/71 349/4/71
f 353/4/51 350/4/51 351/4/51
f 351/4/52 352/4/52 353/4/52
f 355/4/1 356/4/1 354/4/1
f 358/4/5 354/4/5 357/4/5
f 359/4/41 354/4/41 356/4/41
f 356/4/72 358/4/72 359/4/72
f 361/4/1 362/4/1 360/4/1
f 364/4/5 360/4/5 363/4/5
f 365/4/41 360/4/41 362/4/41
f 362/4/72 364/4/72 365/4/72
f 369/4/34 366/4/34 367/4/34
f 367/4/35 368/4/35 369/4/35
f 373/4/34 370/4/34 371/4/34
f 371/4/35 372/4/35 373/4/35
f 377/4/20 374/4/20 375/4/20
f 375/4/21 376/4/21 377/4/21
f 380/4/16 382/4/16 379/4/16
f 382/4/73 378/4/73 379/4/73
f 380/4/74 381/4/74 382/4/74
f 2/1/1 4/1/1 3/1/1
f 4/2/2 8/2/2 7/2/2
f 8/1/3 6/1/3 5/1/3
f 6/3/4 2/3/4 1/3/4
f 7/2/5 5/2/5 1/2/5
f 4/4/6 2/4/6 6/4/6
f 12/4/75 11/4/75 9/4/75
f 10/4/76 9/4/76 11/4/76
f 15/4/77 19/4/77 18/4/77
f 19/4/10 17/4/10 16/4/10
f 17/4/11 14/4/11 13/4/11
f 18/4/2 16/4/2 13/4/2
f 15/4/78 14/4/78 17/4/78
f 20/4/1 22/4/1 21/4/1
f 25/4/3 24/4/3 23/4/3
f 25/4/51 23/4/51 20/4/51
f 22/4/79 20/4/79 24/4/79
f 29/4/75 28/4/75 26/4/75
f 27/4/76 26/4/76 28/4/76
f 33/4/75 32/4/75 30/4/75
f 31/4/76 30/4/76 32/4/76
f 34/4/80 36/4/80 35/4/80
f 39/4/81 38/4/81 37/4/81
f 35/4/82 39/4/82 37/4/82
f 36/4/83 34/4/83 38/4/83
f 43/4/84 42/4/84 40/4/84
f 41/4/85 40/4/85 42/4/85
f 44/4/1 46/4/1 45/4/1
f 48/4/22 47/4/22 44/4/22
f 46/4/86 44/4/86 47/4/86
f 49/4/1 51/4/1 50/4/1
f 51/4/6 55/4/6 54/4/6
f 55/4/3 53/4/3 52/4/3
f 54/4/87 52/4/87 49/4/87
f 51/4/88 49/4/88 53/4/88
f 57/4/1 59/4/1 58/4/1
f 59/4/6 62/4/6 61/4/6
f 60/4/5 57/4/5 56/4/5
f 61/4/89 60/4/89 56/4/89
f 59/4/90 57/4/90 60/4/90
f 65/4/6 69/4/6 68/4/6
f 69/4/3 67/4/3 66/4/3
f 67/4/5 64/4/5 63/4/5
f 68/4/2 66/4/2 63/4/2
f 65/4/91 64/4/91 67/4/91
f 72/4/6 75/4/6 74/4/6
f 73/4/5 71/4/5 70/4/5
f 74/4/92 73/4/92 70/4/92
f 72/4/52 71/4/52 73/4/52
f 79/4/22 78/4/22 76/4/22
f 77/4/33 76/4/33 78/4/33
f 82/4/6 85/4/6 84/4/6
f 83/4/5 81/4/5 80/4/5
f 84/4/93 83/4/93 80/4/93
f 82/4/31 81/4/31 83/4/31
f 89/4/94 88/4/94 86/4/94
f 87/4/37 86/4/37 88/4/37
f 91/4/6 94/4/6 93/4/6
f 93/4/95 92/4/95 90/4/95
f 91/4/37 90/4/37 92/4/37
f 96/4/6 99/4/6 98/4/6
f 98/4/96 97/4/96 95/4/96
f 96/4/39 95/4/39 97/4/39
f 101/4/1 103/4/1 102/4/1
f 103/4/6 107/4/6 106/4/6
f 107/4/3 105/4/3 104/4/3
f 105/4/5 101/4/5 100/4/5
f 106/4/2 104/4/2 100/4/2
f 103/4/4 101/4/4 105/4/4
f 109/4/1 111/4/1 110/4/1
f 111/4/6 115/4/6 114/4/6
f 115/4/3 113/4/3 112/4/3
f 113/4/5 109/4/5 108/4/5
f 114/4/2 112/4/2 108/4/2
f 111/4/4 109/4/4 113/4/4
f 118/4/6 122/4/6 121/4/6
f 122/4/3 120/4/3 119/4/3
f 120/4/5 117/4/5 116/4/5
f 121/4/2 119/4/2 116/4/2
f 118/4/97 117/4/97 120/4/97
f 126/4/5 124/4/5 123/4/5
f 127/4/98 126/4/98 123/4/98
f 125/4/31 124/4/31 126/4/31
f 132/4/3 131/4/3 130/4/3
f 132/4/34 130/4/34 128/4/34
f 129/4/99 128/4/99 131/4/99
f 136/4/94 135/4/94 133/4/94
f 134/4/37 133/4/37 135/4/37
f 140/4/75 139/4/75 137/4/75
f 138/4/76 137/4/76 139/4/76
f 144/4/22 143/4/22 141/4/22
f 142/4/33 141/4/33 143/4/33
f 148/4/5 146/4/5 145/4/5
f 149/4/98 148/4/98 145/4/98
f 147/4/31 146/4/31 148/4/31
f 151/4/6 155/4/6 154/4/6
f 155/4/3 153/4/3 152/4/3
f 154/4/100 152/4/100 150/4/100
f 151/4/99 150/4/99 153/4/99
f 157/4/1 159/4/1 158/4/1
f 160/4/5 157/4/5 156/4/5
f 161/4/101 160/4/101 156/4/101
f 159/4/90 157/4/90 160/4/90
f 162/4/1 164/4/1 163/4/1
f 166/4/45 165/4/45 162/4/45
f 164/4/102 162/4/102 165/4/102
f 168/4/6 171/4/6 170/4/6
f 170/4/103 169/4/103 167/4/103
f 168/4/48 167/4/48 169/4/48
f 175/4/45 174/4/45 172/4/45
f 173/4/48 172/4/48 174/4/48
f 179/4/45 178/4/45 176/4/45
f 177/4/48 176/4/48 178/4/48
f 183/4/14 182/4/14 180/4/14
f 181/4/29 180/4/29 182/4/29
f 188/4/3 187/4/3 186/4/3
f 188/4/20 186/4/20 184/4/20
f 185/4/104 184/4/104 187/4/104
f 190/4/1 192/4/1 191/4/1
f 192/4/6 196/4/6 195/4/6
f 196/4/3 194/4/3 193/4/3
f 194/4/5 190/4/5 189/4/5
f 195/4/2 193/4/2 189/4/2
f 192/4/4 190/4/4 194/4/4
f 198/4/1 200/4/1 199/4/1
f 200/4/6 204/4/6 203/4/6
f 204/4/3 202/4/3 201/4/3
f 202/4/5 198/4/5 197/4/5
f 203/4/2 201/4/2 197/4/2
f 200/4/4 198/4/4 202/4/4
f 206/4/1 208/4/1 207/4/1
f 208/4/6 212/4/6 211/4/6
f 212/4/3 210/4/3 209/4/3
f 210/4/5 206/4/5 205/4/5
f 211/4/2 209/4/2 205/4/2
f 208/4/4 206/4/4 210/4/4
f 215/4/77 218/4/77 217/4/77
f 216/4/11 214/4/11 213/4/11
f 217/4/105 216/4/105 213/4/105
f 218/4/106 215/4/106 214/4/106
f 220/4/1 222/4/1 221/4/1
f 222/4/6 226/4/6 225/4/6
f 226/4/3 224/4/3 223/4/3
f 224/4/5 220/4/5 219/4/5
f 225/4/2 223/4/2 219/4/2
f 222/4/4 220/4/4 224/4/4
f 228/4/1 230/4/1 229/4/1
f 230/4/6 234/4/6 233/4/6
f 234/4/3 232/4/3 231/4/3
f 232/4/5 228/4/5 227/4/5
f 233/4/2 231/4/2 227/4/2
f 230/4/4 228/4/4 232/4/4
f 236/4/1 238/4/1 237/4/1
f 238/4/6 242/4/6 241/4/6
f 242/4/3 240/4/3 239/4/3
f 240/4/5 236/4/5 235/4/5
f 241/4/2 239/4/2 235/4/2
f 238/4/4 236/4/4 240/4/4
f 244/4/1 246/4/1 245/4/1
f 246/4/6 250/4/6 249/4/6
f 250/4/3 248/4/3 247/4/3
f 248/4/5 244/4/5 243/4/5
f 249/4/2 247/4/2 243/4/2
f 246/4/4 244/4/4 248/4/4
f 252/4/6 255/4/6 254/4/6
f 254/4/103 253/4/103 251/4/103
f 252/4/48 251/4/48 253/4/48
f 259/4/75 258/4/75 256/4/75
f 257/4/76 256/4/76 258/4/76
f 263/4/73 262/4/73 260/4/73
f 261/4/107 260/4/107 262/4/107
f 265/4/1 267/4/1 266/4/1
f 268/4/5 265/4/5 264/4/5
f 269/4/98 268/4/98 264/4/98
f 267/4/108 265/4/108 268/4/108
f 270/4/1 272/4/1 271/4/1
f 275/4/3 274/4/3 273/4/3
f 275/4/30 273/4/30 270/4/30
f 272/4/88 270/4/88 274/4/88
f 279/4/94 278/4/94 276/4/94
f 277/4/37 276/4/37 278/4/37
f 280/4/1 282/4/1 281/4/1
f 282/4/6 286/4/6 285/4/6
f 286/4/3 284/4/3 283/4/3
f 285/4/100 283/4/100 280/4/100
f 282/4/109 280/4/109 284/4/109
f 287/4/80 289/4/80 288/4/80
f 292/4/81 291/4/81 290/4/81
f 288/4/82 292/4/82 290/4/82
f 289/4/83 287/4/83 291/4/83
f 294/4/1 296/4/1 295/4/1
f 299/4/3 298/4/3 297/4/3
f 298/4/5 294/4/5 293/4/5
f 299/4/110 297/4/110 293/4/110
f 296/4/4 294/4/4 298/4/4
f 304/4/3 303/4/3 302/4/3
f 304/4/62 302/4/62 300/4/62
f 301/4/111 300/4/111 303/4/111
f 308/4/112 307/4/112 305/4/112
f 306/4/113 305/4/113 307/4/113
f 312/4/75 311/4/75 309/4/75
f 310/4/76 309/4/76 311/4/76
f 317/4/10 316/4/10 315/4/10
f 317/4/66 315/4/66 313/4/66
f 314/4/114 313/4/114 316/4/114
f 321/4/14 320/4/14 318/4/14
f 319/4/29 318/4/29 320/4/29
f 325/4/75 324/4/75 322/4/75
f 323/4/76 322/4/76 324/4/76
f 329/4/14 328/4/14 326/4/14
f 327/4/29 326/4/29 328/4/29
f 334/4/3 333/4/3 332/4/3
f 334/4/49 332/4/49 330/4/49
f 331/4/115 330/4/115 333/4/115
f 338/4/45 337/4/45 335/4/45
f 336/4/48 335/4/48 337/4/48
f 339/4/1 341/4/1 340/4/1
f 344/4/3 343/4/3 342/4/3
f 344/4/62 342/4/62 339/4/62
f 341/4/116 339/4/116 343/4/116
f 349/4/3 348/4/3 347/4/3
f 349/4/64 347/4/64 345/4/64
f 346/4/117 345/4/117 348/4/117
f 353/4/14 352/4/14 350/4/14
f 351/4/29 350/4/29 352/4/29
f 359/4/3 358/4/3 357/4/3
f 358/4/5 355/4/5 354/4/5
f 359/4/118 357/4/118 354/4/118
f 356/4/97 355/4/97 358/4/97
f 365/4/3 364/4/3 363/4/3
f 364/4/5 361/4/5 360/4/5
f 365/4/118 363/4/118 360/4/118
f 362/4/97 361/4/97 364/4/97
f 369/4/94 368/4/94 366/4/94
f 367/4/37 366/4/37 368/4/37
f 373/4/94 372/4/94 370/4/94
f 371/4/37 370/4/37 372/4/37
f 377/4/84 376/4/84 374/4/84
f 375/4/85 374/4/85 376/4/85
f 378/4/80 380/4/80 379/4/80
f 382/4/73 381/4/73 378/4/73
f 380/4/119 378/4/119 381/4/119
