# Blender 5.2.2 LTS
# www.blender.org
mtllib ruins_find_traffic.mtl
o piece
v -0.283034 -0.335894 -0.044357
v -0.320796 -0.343069 -0.045195
v -0.357813 -0.338987 -0.042519
v -0.372397 -0.339237 -0.004718
v -0.356006 -0.338206 0.032322
v -0.318243 -0.336498 0.046904
v -0.281227 -0.335113 0.030485
v -0.266641 -0.334863 -0.007317
v -0.310722 0.329803 -0.050633
v -0.348485 0.335501 -0.051471
v -0.385501 0.326709 -0.048795
v -0.400085 0.326459 -0.010994
v -0.383694 0.327490 0.026047
v -0.345931 0.329198 0.040628
v -0.308915 0.330583 0.024209
v -0.294328 0.330833 -0.013593
v -0.288588 -0.336070 -0.038519
v -0.320604 -0.342985 -0.037137
v -0.351982 -0.338692 -0.036961
v -0.364346 -0.338904 -0.004916
v -0.350450 -0.338030 0.026484
v -0.318437 -0.336582 0.038845
v -0.287056 -0.335408 0.024927
v -0.274694 -0.335196 -0.007119
v -0.316588 0.337109 -0.044865
v -0.348603 0.343069 -0.043483
v -0.379980 0.334487 -0.043307
v -0.392346 0.334275 -0.011262
v -0.378448 0.335149 0.020138
v -0.346436 0.336597 0.032499
v -0.315056 0.337771 0.018580
v -0.302693 0.337983 -0.013465
v -0.321743 -0.000590 -0.038826
v -0.290789 0.000810 -0.040617
v -0.277352 0.001655 -0.010256
v -0.289308 0.001450 0.020729
v -0.319649 0.000315 0.034188
v -0.350605 -0.001086 0.022236
v -0.364039 -0.001930 -0.008125
v -0.352084 -0.001725 -0.039110
v -0.318118 0.294901 -0.041022
v -0.346735 0.293607 -0.038330
v -0.323984 0.078904 0.003807
v -0.374789 0.292558 -0.039629
v -0.385840 0.292368 -0.010982
v -0.373420 0.293149 0.017089
v -0.344798 0.294444 0.028139
v -0.316750 0.295493 0.015696
v -0.305693 0.295683 -0.012952
v -0.295583 -0.285900 -0.033841
v -0.322524 -0.287118 -0.030500
v -0.322512 0.043516 0.004141
v -0.348931 -0.288106 -0.032530
v -0.359333 -0.288285 -0.005565
v -0.347642 -0.287550 0.020858
v -0.320700 -0.286331 0.031259
v -0.294296 -0.285343 0.019547
v -0.283893 -0.285164 -0.007419
v -0.286858 0.001057 -0.031734
v -0.305955 0.330102 -0.039863
v -0.278488 -0.335608 -0.034087
v 0.014758 0.012622 -0.024838
v 0.031275 0.341930 -0.030179
v 0.015189 0.012622 -0.033804
v 0.031774 0.341930 -0.040547
v 0.014990 -0.316784 -0.029675
v 0.015513 -0.316784 -0.040547
v 0.311620 0.320651 -0.040598
v 0.349754 0.328059 -0.040542
v 0.386400 0.320651 -0.036996
v 0.400085 0.320651 0.001140
v 0.382797 0.320651 0.037785
v 0.344661 0.320651 0.051471
v 0.308018 0.320651 0.034182
v 0.294329 0.320651 -0.003954
v 0.290578 -0.316291 -0.040598
v 0.328712 -0.321758 -0.040542
v 0.365357 -0.316291 -0.036996
v 0.379042 -0.316291 0.001140
v 0.361755 -0.316291 0.037785
v 0.323619 -0.316291 0.051471
v 0.286976 -0.316291 0.034182
v 0.273287 -0.316291 -0.003954
v 0.317038 0.320651 -0.034631
v 0.349368 0.328059 -0.032490
v 0.380430 0.320651 -0.031577
v 0.392034 0.320651 0.000753
v 0.377377 0.320651 0.031817
v 0.345049 0.320651 0.043419
v 0.313984 0.320651 0.028763
v 0.302383 0.320651 -0.003566
v 0.295995 -0.323781 -0.034631
v 0.328326 -0.329248 -0.032490
v 0.359388 -0.323781 -0.031577
v 0.370992 -0.323781 0.000753
v 0.356335 -0.323781 0.031817
v 0.324007 -0.323781 0.043419
v 0.292941 -0.323781 0.028763
v 0.281341 -0.323781 -0.003566
v 0.328253 0.013115 -0.031007
v 0.296995 0.013115 -0.033531
v 0.282822 0.013115 -0.003495
v 0.294042 0.013115 0.027765
v 0.324079 0.013115 0.041936
v 0.355339 0.013115 0.030718
v 0.369509 0.013115 0.000681
v 0.358290 0.013115 -0.030578
v 0.299196 -0.281638 -0.031108
v 0.328095 -0.281638 -0.027737
v 0.326166 -0.065999 0.012336
v 0.355869 -0.281638 -0.028378
v 0.366238 -0.281638 0.000524
v 0.353138 -0.281638 0.028294
v 0.324234 -0.281638 0.038666
v 0.296468 -0.281638 0.025564
v 0.286092 -0.281638 -0.003337
v 0.321819 0.270280 -0.029364
v 0.349024 0.270280 -0.025384
v 0.326166 -0.030578 0.012336
v 0.375167 0.270280 -0.026794
v 0.384927 0.270280 0.000410
v 0.372597 0.270280 0.026550
v 0.345390 0.270280 0.036313
v 0.319251 0.270280 0.023981
v 0.309488 0.270280 -0.003224
v 0.292849 0.013115 -0.024744
v 0.285550 -0.316291 -0.029944
v 0.306826 0.320651 -0.030438
vn -0.0582 0.0097 -0.9983
vn -0.0701 0.0184 -0.9974
vn -0.9328 0.0195 -0.3598
vn -0.9144 0.0267 0.4039
vn -0.3613 0.0337 0.9318
vn 0.4041 0.0362 0.9140
vn 0.9324 0.0328 0.3600
vn 0.9139 0.0255 -0.4052
vn 0.1270 -0.1034 0.9865
vn -0.0724 -0.1039 0.9919
vn 0.9272 -0.1133 0.3569
vn 0.9117 -0.0895 -0.4009
vn 0.3621 -0.0744 -0.9292
vn -0.4019 -0.0772 -0.9124
vn -0.9284 -0.0965 -0.3588
vn -0.9066 -0.1207 0.4044
vn 0.0828 0.2004 0.9762
vn -0.0524 0.1870 0.9810
vn 0.8942 0.2831 0.3468
vn 0.8877 0.2296 -0.3992
vn 0.3512 0.1385 -0.9260
vn -0.4067 0.0636 -0.9114
vn -0.9318 0.0508 -0.3593
vn -0.9102 0.1077 0.3999
vn 0.2113 -0.9774 0.0051
vn -0.0973 -0.9832 0.1543
vn 0.0416 -0.9991 0.0094
vn 0.0415 -0.9991 0.0094
vn 0.1176 0.6717 -0.7314
vn -0.1980 0.7101 -0.6757
vn -0.6901 0.6746 -0.2618
vn -0.6772 0.6802 0.2807
vn -0.2845 0.7001 0.6549
vn 0.2576 0.7225 0.6416
vn 0.6317 0.7343 0.2486
vn 0.6184 0.7288 -0.2940
vn -0.0562 -0.0338 -0.9978
vn 0.9131 0.0430 -0.4054
vn 0.9316 0.0517 0.3598
vn 0.4050 0.0145 0.9142
vn -0.3580 -0.0469 0.9326
vn -0.9092 -0.0963 0.4050
vn -0.9276 -0.1050 -0.3586
vn -0.0620 -0.0425 -0.9972
vn 0.0625 0.1058 0.9924
vn -0.0225 0.1028 0.9944
vn 0.9227 0.1455 0.3570
vn 0.9043 0.1376 -0.4041
vn 0.3537 0.1098 -0.9289
vn -0.4067 0.0784 -0.9102
vn -0.9313 0.0617 -0.3589
vn -0.9130 0.0696 0.4020
vn 0.0677 -0.1154 0.9910
vn -0.0733 -0.0826 0.9939
vn 0.9296 -0.0875 0.3581
vn 0.9113 -0.0953 -0.4006
vn 0.3623 -0.1232 -0.9239
vn -0.3958 -0.1545 -0.9053
vn -0.9188 -0.1711 -0.3556
vn -0.9005 -0.1631 0.4030
vn 0.6185 0.7287 -0.2941
vn -0.0293 0.0177 0.9994
vn 0.0234 -0.0290 -0.9993
vn -0.0350 0.9993 -0.0123
vn -0.0223 -0.0147 0.9996
vn 0.0640 -0.9979 0.0031
vn 0.0120 0.0114 -0.9999
vn 0.0805 -0.0267 -0.9964
vn 0.0890 -0.0362 -0.9954
vn 0.9372 -0.0927 -0.3363
vn 0.9007 -0.0902 0.4249
vn 0.3373 -0.0517 0.9400
vn -0.4267 0.0005 0.9044
vn -0.9406 0.0357 0.3376
vn -0.9039 0.0332 -0.4265
vn -0.1434 0.1338 0.9806
vn 0.0535 0.1202 0.9913
vn -0.9235 0.1935 0.3313
vn -0.8931 0.1577 -0.4213
vn -0.3362 0.0961 -0.9369
vn 0.4263 0.0448 -0.9035
vn 0.9407 0.0347 -0.3376
vn 0.9021 0.0720 0.4255
vn -0.1139 -0.1825 0.9766
vn 0.0227 -0.1825 0.9830
vn -0.9241 -0.1899 0.3316
vn -0.8951 -0.1432 -0.4223
vn -0.3357 -0.1112 -0.9354
vn 0.4240 -0.1135 -0.8985
vn 0.9307 -0.1487 -0.3341
vn 0.8870 -0.1953 0.4185
vn -0.2227 0.9748 -0.0107
vn 0.1763 0.9650 0.1942
vn -0.0000 1.0000 -0.0000
vn -0.0937 -0.6610 -0.7445
vn 0.1478 -0.7277 -0.6698
vn 0.6673 -0.7052 -0.2395
vn 0.6414 -0.7051 0.3026
vn 0.2395 -0.7051 0.6674
vn -0.3026 -0.7051 0.6413
vn -0.6675 -0.7050 0.2396
vn -0.6412 -0.7052 -0.3026
vn 0.0805 0.0198 -0.9966
vn -0.9041 0.0268 -0.4266
vn -0.9409 0.0268 0.3377
vn -0.4265 0.0268 0.9041
vn 0.3377 0.0268 0.9409
vn 0.9041 0.0268 0.4265
vn 0.9409 0.0268 -0.3376
vn 0.0921 0.0285 -0.9953
vn -0.0825 -0.0994 0.9916
vn -0.0118 -0.0994 0.9950
vn -0.9361 -0.1037 0.3360
vn -0.8995 -0.1037 -0.4244
vn -0.3360 -0.1038 -0.9361
vn 0.4244 -0.1038 -0.8995
vn 0.9362 -0.1037 -0.3359
vn 0.8995 -0.1038 0.4243
vn -0.0934 0.1221 0.9881
vn 0.0536 0.0888 0.9946
vn -0.9333 0.1294 0.3349
vn -0.8968 0.1293 -0.4231
vn -0.3350 0.1294 -0.9333
vn 0.4231 0.1294 -0.8968
vn 0.9333 0.1294 -0.3350
vn 0.8968 0.1294 0.4231
vn -0.6413 -0.7050 -0.3027
vn 0.0010 -0.0147 0.9999
vn 0.0009 0.0214 -0.9998
vn 0.0018 -1.0000 0.0008
vn -0.0004 0.0162 0.9999
vn 0.0770 0.9970 0.0037
vn -0.0019 -0.0229 -0.9997
vn 0.0186 0.0186 -0.9997
vn 0.0090 0.0100 -0.9999
vn 0.9139 0.0256 -0.4052
vn 0.1816 -0.9728 0.1435
vn -0.1355 -0.9907 0.0135
vn 0.0415 -0.9991 0.0095
vn 0.1050 0.7227 -0.6831
vn -0.2087 0.6584 -0.7232
vn -0.6903 0.6745 -0.2618
vn -0.6770 0.6803 0.2807
vn 0.6315 0.7345 0.2485
vn 0.6185 0.7287 -0.2940
vn 0.0167 -0.0363 -0.9992
vn -0.3579 -0.0469 0.9326
vn -0.9276 -0.1049 -0.3586
vn 0.0104 -0.0284 -0.9995
vn 0.0894 0.0871 0.9922
vn -0.0492 0.0812 0.9955
vn 0.9227 0.1456 0.3569
vn 0.9043 0.1377 -0.4040
vn -0.4067 0.0783 -0.9102
vn -0.9313 0.0618 -0.3590
vn -0.9129 0.0697 0.4022
vn 0.1261 -0.0747 0.9892
vn -0.0106 -0.1183 0.9929
vn 0.9296 -0.0874 0.3580
vn 0.9113 -0.0954 -0.4005
vn 0.3623 -0.1231 -0.9239
vn -0.9006 -0.1632 0.4030
vn -0.0237 0.0233 0.9994
vn 0.0302 -0.0220 -0.9993
vn -0.0350 0.9994 -0.0017
vn -0.0146 -0.0073 0.9999
vn 0.0639 -0.9980 -0.0005
vn 0.0215 0.0205 -0.9996
vn 0.0075 -0.0308 -0.9995
vn 0.0143 -0.0222 -0.9997
vn -0.1881 0.9672 0.1708
vn 0.2317 0.9727 0.0111
vn -0.0780 -0.7281 -0.6810
vn 0.1695 -0.6628 -0.7294
vn 0.6675 -0.7051 -0.2395
vn 0.6413 -0.7051 0.3026
vn -0.3026 -0.7051 0.6414
vn -0.6673 -0.7052 0.2394
vn -0.6413 -0.7051 -0.3025
vn 0.0056 0.0285 -0.9996
vn -0.9040 0.0268 -0.4266
vn -0.4266 0.0268 0.9041
vn 0.9409 0.0268 -0.3377
vn 0.0143 0.0198 -0.9997
vn -0.1155 -0.0740 0.9905
vn 0.0230 -0.0738 0.9970
vn -0.9362 -0.1038 0.3359
vn -0.8995 -0.1038 -0.4244
vn -0.3359 -0.1037 -0.9362
vn 0.4244 -0.1037 -0.8995
vn 0.9361 -0.1038 -0.3361
vn 0.8995 -0.1037 0.4245
vn -0.1442 0.0894 0.9855
vn -0.0001 0.1221 0.9925
vn -0.9333 0.1293 0.3350
vn -0.8968 0.1294 -0.4230
vn -0.3349 0.1294 -0.9333
vn 0.9333 0.1294 -0.3349
vn -0.0003 -0.0158 0.9999
vn -0.0002 0.0205 -0.9998
vn 0.0018 -1.0000 0.0001
vn 0.0024 0.0184 0.9998
vn 0.0758 0.9965 0.0358
vn 0.0010 -0.0205 -0.9998
vt 0.625000 0.625000
vt 0.625000 0.375000
s 0
usemtl ruins_find_traffic
f 1/1/1 33/1/1 34/1/1
f 3/1/2 33/1/2 2/1/2
f 3/1/3 39/1/3 40/1/3
f 5/1/4 39/1/4 4/1/4
f 6/1/5 38/1/5 5/1/5
f 7/1/6 37/1/6 6/1/6
f 8/1/7 36/1/7 7/1/7
f 8/1/8 59/1/8 35/1/8
f 51/1/9 50/1/9 52/1/9
f 53/1/10 51/1/10 52/1/10
f 54/1/11 53/1/11 52/1/11
f 55/1/12 54/1/12 52/1/12
f 56/1/13 55/1/13 52/1/13
f 57/1/14 56/1/14 52/1/14
f 58/1/15 57/1/15 52/1/15
f 50/1/16 58/1/16 52/1/16
f 41/1/17 42/1/17 43/1/17
f 42/1/18 44/1/18 43/1/18
f 44/1/19 45/1/19 43/1/19
f 45/1/20 46/1/20 43/1/20
f 46/1/21 47/1/21 43/1/21
f 47/1/22 48/1/22 43/1/22
f 48/1/23 49/1/23 43/1/23
f 49/1/24 41/1/24 43/1/24
f 2/1/25 17/1/25 18/1/25
f 2/1/26 19/1/26 3/1/26
f 3/1/27 20/1/27 4/1/27
f 5/1/28 20/1/28 21/1/28
f 6/1/28 21/1/28 22/1/28
f 7/1/27 22/1/27 23/1/27
f 8/1/28 23/1/28 24/1/28
f 61/1/28 24/1/28 17/1/28
f 10/1/29 25/1/29 9/1/29
f 10/1/30 27/1/30 26/1/30
f 11/1/31 28/1/31 27/1/31
f 13/1/32 28/1/32 12/1/32
f 14/1/33 29/1/33 13/1/33
f 15/1/34 30/1/34 14/1/34
f 16/1/35 31/1/35 15/1/35
f 60/1/36 32/1/36 16/1/36
f 33/1/37 9/1/37 34/1/37
f 59/1/38 16/1/38 35/1/38
f 36/1/39 16/1/39 15/1/39
f 37/1/40 15/1/40 14/1/40
f 38/1/41 14/1/41 13/1/41
f 39/1/42 13/1/42 12/1/42
f 39/1/43 11/1/43 40/1/43
f 33/1/44 11/1/44 10/1/44
f 42/1/45 25/1/45 26/1/45
f 27/1/46 42/1/46 26/1/46
f 28/1/47 44/1/47 27/1/47
f 46/1/48 28/1/48 29/1/48
f 47/1/49 29/1/49 30/1/49
f 48/1/50 30/1/50 31/1/50
f 49/1/51 31/1/51 32/1/51
f 25/1/52 49/1/52 32/1/52
f 17/1/53 51/1/53 18/1/53
f 19/1/54 51/1/54 53/1/54
f 19/1/55 54/1/55 20/1/55
f 20/1/56 55/1/56 21/1/56
f 21/1/57 56/1/57 22/1/57
f 23/1/58 56/1/58 57/1/58
f 24/1/59 57/1/59 58/1/59
f 24/1/60 50/1/60 17/1/60
f 1/1/28 61/1/28 17/1/28
f 25/1/61 60/1/61 9/1/61
f 60/2/62 62/2/62 63/2/62
f 9/1/63 64/1/63 34/1/63
f 60/1/64 65/1/64 9/1/64
f 59/2/65 66/2/65 62/2/65
f 61/1/66 67/1/66 66/1/66
f 34/1/67 67/1/67 1/1/67
f 68/1/68 100/1/68 101/1/68
f 70/1/69 100/1/69 69/1/69
f 70/1/70 106/1/70 107/1/70
f 72/1/71 106/1/71 71/1/71
f 73/1/72 105/1/72 72/1/72
f 74/1/73 104/1/73 73/1/73
f 75/1/74 103/1/74 74/1/74
f 75/1/75 126/1/75 102/1/75
f 118/1/76 117/1/76 119/1/76
f 120/1/77 118/1/77 119/1/77
f 121/1/78 120/1/78 119/1/78
f 122/1/79 121/1/79 119/1/79
f 123/1/80 122/1/80 119/1/80
f 124/1/81 123/1/81 119/1/81
f 125/1/82 124/1/82 119/1/82
f 117/1/83 125/1/83 119/1/83
f 108/1/84 109/1/84 110/1/84
f 109/1/85 111/1/85 110/1/85
f 111/1/86 112/1/86 110/1/86
f 112/1/87 113/1/87 110/1/87
f 113/1/88 114/1/88 110/1/88
f 114/1/89 115/1/89 110/1/89
f 115/1/90 116/1/90 110/1/90
f 116/1/91 108/1/91 110/1/91
f 69/1/92 84/1/92 85/1/92
f 69/1/93 86/1/93 70/1/93
f 70/1/94 87/1/94 71/1/94
f 72/1/94 87/1/94 88/1/94
f 73/1/94 88/1/94 89/1/94
f 74/1/94 89/1/94 90/1/94
f 75/1/94 90/1/94 91/1/94
f 128/1/94 91/1/94 84/1/94
f 77/1/95 92/1/95 76/1/95
f 77/1/96 94/1/96 93/1/96
f 78/1/97 95/1/97 94/1/97
f 80/1/98 95/1/98 79/1/98
f 81/1/99 96/1/99 80/1/99
f 82/1/100 97/1/100 81/1/100
f 83/1/101 98/1/101 82/1/101
f 127/1/102 99/1/102 83/1/102
f 100/1/103 76/1/103 101/1/103
f 102/1/104 127/1/104 83/1/104
f 102/1/105 82/1/105 103/1/105
f 103/1/106 81/1/106 104/1/106
f 104/1/107 80/1/107 105/1/107
f 105/1/108 79/1/108 106/1/108
f 107/1/109 79/1/109 78/1/109
f 100/1/110 78/1/110 77/1/110
f 109/1/111 92/1/111 93/1/111
f 94/1/112 109/1/112 93/1/112
f 95/1/113 111/1/113 94/1/113
f 113/1/114 95/1/114 96/1/114
f 114/1/115 96/1/115 97/1/115
f 115/1/116 97/1/116 98/1/116
f 116/1/117 98/1/117 99/1/117
f 108/1/118 99/1/118 92/1/118
f 84/1/119 118/1/119 85/1/119
f 86/1/120 118/1/120 120/1/120
f 87/1/121 120/1/121 121/1/121
f 87/1/122 122/1/122 88/1/122
f 88/1/123 123/1/123 89/1/123
f 90/1/124 123/1/124 124/1/124
f 91/1/125 124/1/125 125/1/125
f 91/1/126 117/1/126 84/1/126
f 68/1/94 128/1/94 84/1/94
f 92/1/127 127/1/127 76/1/127
f 127/2/128 62/2/128 66/2/128
f 76/1/129 64/1/129 101/1/129
f 127/1/130 67/1/130 76/1/130
f 126/2/131 63/2/131 62/2/131
f 128/1/132 65/1/132 63/1/132
f 101/1/133 65/1/133 68/1/133
f 1/1/134 2/1/134 33/1/134
f 3/1/135 40/1/135 33/1/135
f 3/1/3 4/1/3 39/1/3
f 5/1/4 38/1/4 39/1/4
f 6/1/5 37/1/5 38/1/5
f 7/1/6 36/1/6 37/1/6
f 8/1/7 35/1/7 36/1/7
f 8/1/136 61/1/136 59/1/136
f 2/1/137 1/1/137 17/1/137
f 2/1/138 18/1/138 19/1/138
f 3/1/27 19/1/27 20/1/27
f 5/1/27 4/1/27 20/1/27
f 6/1/139 5/1/139 21/1/139
f 7/1/27 6/1/27 22/1/27
f 8/1/28 7/1/28 23/1/28
f 61/1/28 8/1/28 24/1/28
f 10/1/140 26/1/140 25/1/140
f 10/1/141 11/1/141 27/1/141
f 11/1/142 12/1/142 28/1/142
f 13/1/143 29/1/143 28/1/143
f 14/1/33 30/1/33 29/1/33
f 15/1/34 31/1/34 30/1/34
f 16/1/144 32/1/144 31/1/144
f 60/1/145 25/1/145 32/1/145
f 33/1/146 10/1/146 9/1/146
f 59/1/38 60/1/38 16/1/38
f 36/1/39 35/1/39 16/1/39
f 37/1/40 36/1/40 15/1/40
f 38/1/147 37/1/147 14/1/147
f 39/1/42 38/1/42 13/1/42
f 39/1/148 12/1/148 11/1/148
f 33/1/149 40/1/149 11/1/149
f 42/1/150 41/1/150 25/1/150
f 27/1/151 44/1/151 42/1/151
f 28/1/152 45/1/152 44/1/152
f 46/1/153 45/1/153 28/1/153
f 47/1/49 46/1/49 29/1/49
f 48/1/154 47/1/154 30/1/154
f 49/1/155 48/1/155 31/1/155
f 25/1/156 41/1/156 49/1/156
f 17/1/157 50/1/157 51/1/157
f 19/1/158 18/1/158 51/1/158
f 19/1/159 53/1/159 54/1/159
f 20/1/160 54/1/160 55/1/160
f 21/1/161 55/1/161 56/1/161
f 23/1/58 22/1/58 56/1/58
f 24/1/59 23/1/59 57/1/59
f 24/1/162 58/1/162 50/1/162
f 60/2/163 59/2/163 62/2/163
f 9/1/164 65/1/164 64/1/164
f 60/1/165 63/1/165 65/1/165
f 59/2/166 61/2/166 66/2/166
f 61/1/167 1/1/167 67/1/167
f 34/1/168 64/1/168 67/1/168
f 68/1/169 69/1/169 100/1/169
f 70/1/170 107/1/170 100/1/170
f 70/1/70 71/1/70 106/1/70
f 72/1/71 105/1/71 106/1/71
f 73/1/72 104/1/72 105/1/72
f 74/1/73 103/1/73 104/1/73
f 75/1/74 102/1/74 103/1/74
f 75/1/75 128/1/75 126/1/75
f 69/1/171 68/1/171 84/1/171
f 69/1/172 85/1/172 86/1/172
f 70/1/94 86/1/94 87/1/94
f 72/1/94 71/1/94 87/1/94
f 73/1/94 72/1/94 88/1/94
f 74/1/94 73/1/94 89/1/94
f 75/1/94 74/1/94 90/1/94
f 128/1/94 75/1/94 91/1/94
f 77/1/173 93/1/173 92/1/173
f 77/1/174 78/1/174 94/1/174
f 78/1/175 79/1/175 95/1/175
f 80/1/176 96/1/176 95/1/176
f 81/1/99 97/1/99 96/1/99
f 82/1/177 98/1/177 97/1/177
f 83/1/178 99/1/178 98/1/178
f 127/1/179 92/1/179 99/1/179
f 100/1/180 77/1/180 76/1/180
f 102/1/181 126/1/181 127/1/181
f 102/1/105 83/1/105 82/1/105
f 103/1/182 82/1/182 81/1/182
f 104/1/107 81/1/107 80/1/107
f 105/1/108 80/1/108 79/1/108
f 107/1/183 106/1/183 79/1/183
f 100/1/184 107/1/184 78/1/184
f 109/1/185 108/1/185 92/1/185
f 94/1/186 111/1/186 109/1/186
f 95/1/187 112/1/187 111/1/187
f 113/1/188 112/1/188 95/1/188
f 114/1/189 113/1/189 96/1/189
f 115/1/190 114/1/190 97/1/190
f 116/1/191 115/1/191 98/1/191
f 108/1/192 116/1/192 99/1/192
f 84/1/193 117/1/193 118/1/193
f 86/1/194 85/1/194 118/1/194
f 87/1/195 86/1/195 120/1/195
f 87/1/196 121/1/196 122/1/196
f 88/1/197 122/1/197 123/1/197
f 90/1/124 89/1/124 123/1/124
f 91/1/198 90/1/198 124/1/198
f 91/1/126 125/1/126 117/1/126
f 127/2/199 126/2/199 62/2/199
f 76/1/200 67/1/200 64/1/200
f 127/1/201 66/1/201 67/1/201
f 126/2/202 128/2/202 63/2/202
f 128/1/203 68/1/203 65/1/203
f 101/1/204 64/1/204 65/1/204
