# Blender 5.2.2 LTS
# www.blender.org
mtllib ruins_ch_votive.mtl
o piece
v -1.300901 -1.596908 1.411527
v -1.124019 0.501850 1.234643
v 1.124021 0.501850 1.234643
v -1.124315 0.501179 -1.411527
v -1.300901 -1.596908 -1.411526
v 1.300901 -1.596908 -1.411526
v -0.989851 0.501850 -1.411527
v 0.989854 0.501850 -1.411527
v 0.989854 -0.903689 1.100476
v 0.989854 0.501850 1.100476
v -0.989851 -0.903689 1.100476
v -0.989851 0.501850 1.100476
v 1.124021 0.663288 1.234643
v 1.124021 0.647503 -1.411527
v -1.124019 0.635412 -1.411527
v -1.046039 0.663288 1.156664
v 1.046040 0.663288 1.156664
v 1.046040 0.663288 -1.356587
v -1.046039 0.663288 -1.356587
v -1.046040 0.715027 1.156664
v 1.046042 0.715027 1.156664
v 1.046042 0.723020 -1.356587
v -1.030331 0.715027 -1.356587
v -0.807263 0.989237 0.917890
v 0.807266 0.989237 0.917890
v 0.807266 0.989237 -1.117813
v -0.905147 0.825233 1.015774
v 0.905149 0.825233 1.015774
v 0.905149 0.825233 -1.215697
v -0.905147 0.825233 -1.215697
v -1.124019 0.663288 1.128577
v -1.124019 0.559975 1.234643
v -1.039974 0.663288 1.234643
v 0.137779 0.501850 1.234643
v 0.704395 0.501850 1.234643
v 0.314450 0.501850 1.100476
v 0.485442 0.586901 1.234643
v 1.124462 0.501335 -1.411527
v 0.807265 0.989237 0.468647
v 0.807266 0.989237 -0.170343
v 0.686662 0.989237 0.030013
v 0.840014 0.934369 0.167148
v 1.233556 -1.596908 1.411527
v 1.300901 -1.463017 1.411527
v 1.300901 -1.596908 1.106211
v -0.730976 0.989237 -1.117813
v -0.844395 0.927024 -1.154944
v -0.807263 0.989237 -0.933751
v -1.300901 0.375171 -1.411526
v 0.883895 -0.728488 1.100476
v -0.883892 -0.728488 1.100476
v -0.883892 0.341264 1.100476
v 0.883895 0.341264 1.100476
v 0.807223 -0.664796 1.055821
v -0.807221 -0.664796 1.055821
v -0.807221 0.277572 1.055821
v 0.807223 0.277572 1.055821
v 0.435063 0.501850 1.195031
v -1.300901 -1.148924 1.400283
v -1.258939 -1.082667 1.377357
v 1.300901 -1.192471 1.411527
v 1.181280 -1.127642 1.411010
v 1.234749 0.500173 -1.411526
v 1.300901 0.460217 -1.358280
v 1.300901 0.438670 -1.411526
v 1.258386 0.463066 -1.411526
v -1.253900 0.499930 -1.411526
v -1.300901 0.445409 -1.411526
v 0.022758 -1.070536 1.377586
v 0.060796 -1.175066 1.406168
v 1.215188 -0.444661 0.278854
v 1.300901 -0.563449 0.337579
v -1.207175 -0.641042 0.599116
v -1.300901 -0.723107 0.598324
v 1.130378 -1.060053 1.377784
v 1.300901 -1.075687 1.321459
v 1.248325 -1.023952 1.315249
v 1.198010 -1.027740 1.322104
v -0.625897 0.245092 1.055821
v -0.724882 0.245092 1.055821
v -0.774374 0.159369 1.055821
v -0.724882 0.073645 1.055821
v -0.625897 0.073645 1.055821
v -0.576405 0.159369 1.055821
v -0.642743 0.215915 1.095268
v -0.708036 0.215915 1.095268
v -0.740683 0.159369 1.095268
v -0.708036 0.102823 1.095268
v -0.642743 0.102823 1.095268
v -0.610096 0.159369 1.095268
v -0.656195 0.192614 1.095268
v -0.694584 0.192614 1.095268
v -0.713778 0.159369 1.095268
v -0.694584 0.126123 1.095268
v -0.656195 0.126123 1.095268
v -0.637001 0.159369 1.095268
v -0.661666 0.183138 1.110701
v -0.689112 0.183138 1.110701
v -0.702836 0.159369 1.110701
v -0.689112 0.135599 1.110701
v -0.661666 0.135599 1.110701
v -0.647943 0.159369 1.110701
v 0.630170 -0.367577 1.057558
v 0.664024 -0.342859 1.057561
v 0.704307 -0.242184 1.057561
v 0.662522 -0.139662 1.057563
v 0.558141 -0.099347 1.057559
v 0.450183 -0.111448 1.057564
v 0.321277 -0.268388 1.057558
v 0.390803 -0.322944 1.057559
v 0.495064 -0.183540 1.057563
v 0.554628 -0.176844 1.057561
v 0.595415 -0.204118 1.057559
v 0.619585 -0.246948 1.057563
v 0.600478 -0.284330 1.057561
v 0.563001 -0.293170 1.057559
v 0.539851 -0.283925 1.057561
v 0.536978 -0.274878 1.057550
v 0.541858 -0.269480 1.057556
v 0.540903 -0.264388 1.057570
v 0.524910 -0.290038 1.057574
v 0.581648 -0.319267 1.057555
v 0.633211 -0.261711 1.057566
v 0.594729 -0.201726 1.057557
v 0.496907 -0.201464 1.057563
v 0.455183 -0.270478 1.057561
v 0.478266 -0.334525 1.057560
v 0.584090 -0.384892 1.057564
v 0.237823 -0.339648 1.057575
v 0.278024 -0.420478 1.057594
v 0.016877 -0.381304 1.056957
v 0.004669 -0.465315 1.057074
v 0.561950 -0.257459 1.118744
v 0.613881 -0.260446 1.117045
v 0.577637 -0.300315 1.117050
v 0.543262 -0.284257 1.116908
v 0.538207 -0.248586 1.118372
v 0.506515 -0.218425 1.117167
v 0.585633 -0.218977 1.117182
v 0.516694 -0.268830 1.118356
v 0.474665 -0.272210 1.117231
v 0.561231 -0.313826 1.118124
v 0.584534 -0.365301 1.117266
v 0.492762 -0.321312 1.117286
v 0.523652 -0.297306 1.118280
v 0.620503 -0.350118 1.117584
v 0.613661 -0.300614 1.118248
v 0.648611 -0.330531 1.117395
v 0.640651 -0.246786 1.118306
v 0.684684 -0.242145 1.117294
v 0.610663 -0.190311 1.118025
v 0.648863 -0.153726 1.117274
v 0.559334 -0.156605 1.118150
v 0.555619 -0.118972 1.117442
v 0.484697 -0.165388 1.118221
v 0.459531 -0.128719 1.117304
v 0.335706 -0.282629 1.117827
v 0.376198 -0.309339 1.117588
v 0.270890 -0.402300 1.117217
v 0.244562 -0.359468 1.118254
v 0.004669 -0.449504 1.117807
v 0.016877 -0.395535 1.117348
v -0.630167 -0.367577 1.057558
v -0.664017 -0.342859 1.057561
v -0.704305 -0.242184 1.057561
v -0.662516 -0.139662 1.057563
v -0.558135 -0.099347 1.057559
v -0.450178 -0.111448 1.057564
v -0.321272 -0.268388 1.057558
v -0.390800 -0.322944 1.057559
v -0.495062 -0.183540 1.057563
v -0.554623 -0.176844 1.057561
v -0.595412 -0.204118 1.057559
v -0.619581 -0.246948 1.057563
v -0.600476 -0.284330 1.057561
v -0.562997 -0.293170 1.057559
v -0.539850 -0.283925 1.057560
v -0.536972 -0.274878 1.057550
v -0.541855 -0.269480 1.057556
v -0.540901 -0.264388 1.057570
v -0.524906 -0.290038 1.057574
v -0.581646 -0.319267 1.057555
v -0.633209 -0.261711 1.057566
v -0.594727 -0.201726 1.057557
v -0.496904 -0.201464 1.057563
v -0.455180 -0.270478 1.057561
v -0.478261 -0.334525 1.057560
v -0.584084 -0.384892 1.057564
v -0.237816 -0.339648 1.057575
v -0.278018 -0.420478 1.057594
v -0.561947 -0.257459 1.118744
v -0.613875 -0.260446 1.117045
v -0.577634 -0.300315 1.117050
v -0.543259 -0.284257 1.116908
v -0.538204 -0.248586 1.118372
v -0.506509 -0.218425 1.117167
v -0.585627 -0.218977 1.117182
v -0.516691 -0.268830 1.118356
v -0.474658 -0.272210 1.117231
v -0.561227 -0.313826 1.118124
v -0.584531 -0.365301 1.117266
v -0.492756 -0.321312 1.117286
v -0.523647 -0.297306 1.118280
v -0.620501 -0.350118 1.117584
v -0.613657 -0.300614 1.118248
v -0.648608 -0.330531 1.117395
v -0.640646 -0.246786 1.118306
v -0.684678 -0.242145 1.117294
v -0.610660 -0.190311 1.118025
v -0.648858 -0.153726 1.117274
v -0.559331 -0.156605 1.118150
v -0.555615 -0.118972 1.117442
v -0.484692 -0.165388 1.118221
v -0.459525 -0.128719 1.117304
v -0.335704 -0.282629 1.117827
v -0.376196 -0.309339 1.117588
v -0.270888 -0.402300 1.117217
v -0.244559 -0.359468 1.118254
v -0.625897 -0.458791 1.055821
v -0.724882 -0.458791 1.055821
v -0.774374 -0.544515 1.055821
v -0.724882 -0.630238 1.055821
v -0.625897 -0.630238 1.055821
v -0.576405 -0.544515 1.055821
v -0.642743 -0.487969 1.095268
v -0.708036 -0.487969 1.095268
v -0.740683 -0.544515 1.095268
v -0.708036 -0.601061 1.095268
v -0.642743 -0.601061 1.095268
v -0.610096 -0.544515 1.095268
v -0.656195 -0.511270 1.095268
v -0.694584 -0.511270 1.095268
v -0.713778 -0.544515 1.095268
v -0.694584 -0.577760 1.095268
v -0.656195 -0.577760 1.095268
v -0.637001 -0.544515 1.095268
v -0.661666 -0.520746 1.110701
v -0.689112 -0.520746 1.110701
v -0.702836 -0.544515 1.110701
v -0.689112 -0.568284 1.110701
v -0.661666 -0.568284 1.110701
v -0.647943 -0.544515 1.110701
v -0.197782 -0.281045 1.055269
v -0.274429 -0.164637 1.055634
v -0.396804 -0.079704 1.055485
v -0.397154 0.042003 1.055376
v -0.274150 0.071869 1.055458
v -0.180676 -0.026664 1.055539
v -0.127263 -0.138670 1.055510
v -0.133560 -0.249267 1.055489
v -0.375586 -0.068007 1.112265
v -0.281520 0.048773 1.112265
v -0.377994 0.027078 1.112265
v -0.191488 -0.257527 1.112265
v -0.154288 -0.236727 1.112265
v -0.150958 -0.143665 1.112265
v -0.256861 -0.148060 1.112265
v -0.200759 -0.040164 1.112265
v 0.045298 -0.307555 1.055417
v 0.100022 0.028405 1.055596
v 0.081294 0.158157 1.055593
v 0.000001 0.221612 1.055033
v 0.079687 0.030252 1.112265
v 0.064224 0.142163 1.112265
v 0.032343 -0.284817 1.112265
v 0.000001 0.195463 1.112265
v -0.035686 -0.317198 1.055417
v -0.093488 0.034965 1.055596
v -0.081292 0.158157 1.055593
v -0.073151 0.036813 1.112265
v -0.064221 0.142163 1.112265
v -0.022733 -0.294460 1.112265
v 0.190084 -0.264506 1.055269
v 0.266730 -0.148098 1.055634
v 0.389105 -0.063165 1.055485
v 0.389451 0.058542 1.055376
v 0.271480 0.088408 1.055458
v 0.172977 -0.010125 1.055539
v 0.119564 -0.122131 1.055510
v 0.125859 -0.232728 1.055489
v 0.367887 -0.051468 1.112265
v 0.266543 0.040838 1.112265
v 0.370295 0.043618 1.112265
v 0.183788 -0.240987 1.112265
v 0.146589 -0.220188 1.112265
v 0.143257 -0.127126 1.112265
v 0.249162 -0.131520 1.112265
v 0.193061 -0.023625 1.112265
v 0.727326 0.245092 1.055821
v 0.628341 0.245092 1.055821
v 0.578849 0.159369 1.055821
v 0.628341 0.073645 1.055821
v 0.727326 0.073645 1.055821
v 0.776818 0.159369 1.055821
v 0.710480 0.215915 1.095268
v 0.645187 0.215915 1.095268
v 0.612540 0.159369 1.095268
v 0.645187 0.102823 1.095268
v 0.710480 0.102823 1.095268
v 0.743127 0.159369 1.095268
v 0.697028 0.192614 1.095268
v 0.658639 0.192614 1.095268
v 0.639445 0.159369 1.095268
v 0.658639 0.126123 1.095268
v 0.697028 0.126123 1.095268
v 0.716222 0.159369 1.095268
v 0.691557 0.183138 1.110701
v 0.664111 0.183138 1.110701
v 0.650387 0.159369 1.110701
v 0.664111 0.135599 1.110701
v 0.691557 0.135599 1.110701
v 0.705280 0.159369 1.110701
v 0.727326 -0.458791 1.055821
v 0.628341 -0.458791 1.055821
v 0.578849 -0.544515 1.055821
v 0.628341 -0.630238 1.055821
v 0.727326 -0.630238 1.055821
v 0.776818 -0.544515 1.055821
v 0.710480 -0.487969 1.095268
v 0.645187 -0.487969 1.095268
v 0.612540 -0.544515 1.095268
v 0.645187 -0.601061 1.095268
v 0.710480 -0.601061 1.095268
v 0.743127 -0.544515 1.095268
v 0.697028 -0.511270 1.095268
v 0.658639 -0.511270 1.095268
v 0.639445 -0.544515 1.095268
v 0.658639 -0.577760 1.095268
v 0.697028 -0.577760 1.095268
v 0.716222 -0.544515 1.095268
v 0.691557 -0.520746 1.110701
v 0.664111 -0.520746 1.110701
v 0.650387 -0.544515 1.110701
v 0.664111 -0.568284 1.110701
v 0.691557 -0.568284 1.110701
v 0.705280 -0.544515 1.110701
v -0.070334 1.036235 0.169802
v -0.133127 1.065524 0.055143
v -0.169802 1.036235 0.070335
v 0.133127 1.065524 -0.055143
v 0.070334 1.036235 -0.169802
v 0.055143 1.065524 -0.133126
v 0.101353 1.081874 -0.244688
v 0.142604 1.125377 -0.344263
v 0.244688 1.081874 -0.101352
v 0.080613 0.989092 -0.194616
v 0.169802 1.036235 -0.070334
v 0.194617 0.989092 -0.080613
v -0.080613 0.989092 0.194617
v -0.344257 1.125377 0.142598
v -0.244688 1.081874 0.101353
v -0.142593 1.125377 0.344263
v -0.055143 1.065524 0.133127
v 0.339261 1.148079 -0.140547
v 0.183201 1.255307 -0.442204
v 0.140571 1.148079 -0.339311
v -0.441363 1.198991 0.182829
v -0.182803 1.198991 0.441388
v 0.441414 1.198991 -0.182829
v 0.182855 1.198991 -0.441388
v -0.000003 1.096392 0.000000
v -0.339288 1.148079 0.140548
v -0.140524 1.148079 0.339311
v -0.101353 1.081874 0.244688
v -0.442169 1.255308 0.183167
v -0.183132 1.255308 0.442204
v 0.344269 1.125377 -0.142598
v 0.507530 1.269937 -0.210250
v 0.210292 1.269937 -0.507591
v -0.210214 1.269937 0.507594
v -0.507556 1.269937 0.210252
v 0.070334 1.036235 0.169803
v 0.133126 1.065524 0.055143
v 0.442142 1.255308 -0.183167
v 0.206858 1.324093 -0.499301
v 0.055143 1.065524 0.133127
v 0.539922 1.327191 -0.223668
v 0.223715 1.327191 -0.539986
v 0.080613 0.989092 0.194617
v -0.206777 1.324093 0.499301
v -0.499261 1.324093 0.206817
v 0.169802 1.036235 0.070335
v -0.223629 1.327191 0.539988
v -0.539947 1.327191 0.223671
v 0.194617 0.989092 0.080613
v 0.244688 1.081874 0.101353
v 0.101353 1.081874 0.244688
v 0.339261 1.148079 0.140548
v 0.140571 1.148079 0.339311
v 0.499233 1.324093 -0.206817
v 0.142604 1.125377 0.344263
v 0.344269 1.125377 0.142599
v 0.183201 1.255308 0.442204
v 0.466509 1.218854 -0.112679
v 0.435881 1.212926 -0.106993
v 0.465835 1.219418 -0.090507
v 0.437612 1.212826 -0.084530
v 0.468569 1.238786 -0.124033
v 0.447670 1.236126 -0.120520
v 0.182855 1.198991 0.441388
v 0.441414 1.198991 0.182829
v 0.513838 1.208501 -0.088197
v 0.451105 1.235912 -0.075749
v 0.467152 1.239809 -0.079695
v 0.464328 1.253041 -0.090559
v 0.469218 1.259034 -0.091051
v 0.469960 1.258553 -0.113211
v 0.529166 1.221287 -0.095990
v 0.500515 1.215705 -0.073266
v 0.502454 1.235840 -0.066119
v 0.518278 1.249951 -0.073890
v 0.442142 1.255308 0.183167
v 0.210292 1.269937 0.507591
v 0.531511 1.242048 -0.088834
v 0.532134 1.196033 0.000037
v 0.513744 1.207801 -0.000039
v 0.551143 1.206530 0.000071
v 0.206858 1.324093 0.499302
v 0.533273 1.240342 -0.000040
v 0.551855 1.228709 0.000035
v 0.514161 1.229935 -0.000079
v 0.539922 1.327191 0.223668
v 0.437612 1.212826 0.078529
v 0.465835 1.219418 0.084506
v 0.223715 1.327191 0.539986
v 0.500523 1.215696 0.067225
v 0.502473 1.235829 0.060038
v 0.513829 1.208504 0.082232
v 0.435881 1.212926 0.100992
v 0.466509 1.218854 0.106678
v 0.467152 1.239809 0.073694
v 0.451105 1.235912 0.069747
v 0.518290 1.249948 0.067849
v 0.531505 1.242054 0.082867
v 0.447670 1.236125 0.114519
v 0.468569 1.238786 0.118031
v 0.469218 1.259034 0.085049
v 0.529148 1.221298 0.090061
v 0.464328 1.253041 0.084558
v 0.499233 1.324093 0.206817
v 0.469960 1.258552 0.107210
v 0.507530 1.269937 0.210250
v 0.460034 1.257728 -0.111457
v 0.463212 1.253140 0.104102
v 0.459500 1.255175 0.109591
v -0.080613 0.989092 -0.194617
v -0.194617 0.989092 0.080613
v -0.133126 1.065524 -0.055143
v -0.070334 1.036235 -0.169802
v -0.140524 1.148079 -0.339311
v -0.339289 1.148079 -0.140547
v -0.244687 1.081874 -0.101353
v -0.101353 1.081874 -0.244688
v -0.055143 1.065524 -0.133126
v -0.206777 1.324093 -0.499301
v -0.442170 1.255308 -0.183166
v -0.169802 1.036235 -0.070334
v -0.468569 1.238786 0.118031
v -0.447657 1.236123 0.114516
v -0.466509 1.218854 0.106678
v -0.435849 1.212919 0.100986
v -0.539948 1.327191 -0.223670
v -0.461729 1.257598 0.083122
v -0.469218 1.259034 0.085049
v -0.210214 1.269937 -0.507593
v -0.465835 1.219418 0.084506
v -0.437580 1.212820 0.078522
v -0.451092 1.235910 0.069745
v -0.467152 1.239809 0.073694
v -0.142593 1.125377 -0.344263
v -0.344257 1.125377 -0.142598
v -0.182803 1.198991 -0.441388
v -0.469960 1.258552 0.107210
v -0.529148 1.221298 0.090061
v -0.518290 1.249948 0.067849
v -0.513829 1.208504 0.082232
v -0.441364 1.198991 -0.182829
v -0.502473 1.235829 0.060038
v -0.500523 1.215696 0.067225
v -0.194617 0.989092 -0.080613
v -0.531505 1.242054 0.082867
v -0.499261 1.324093 -0.206817
v -0.460039 1.257729 0.105456
v -0.223629 1.327191 -0.539988
v -0.533273 1.240342 -0.000040
v -0.513744 1.207801 -0.000039
v -0.551855 1.228709 0.000035
v -0.551143 1.206530 0.000071
v -0.532135 1.196033 0.000037
v -0.514161 1.229935 -0.000079
v -0.507556 1.269937 -0.210252
v -0.183132 1.255307 -0.442204
v -0.467152 1.239809 -0.079695
v -0.451092 1.235910 -0.075746
v -0.469218 1.259034 -0.091051
v -0.461729 1.257598 -0.089124
v -0.465835 1.219418 -0.090507
v -0.437580 1.212820 -0.084523
v -0.502454 1.235840 -0.066119
v -0.518278 1.249951 -0.073890
v -0.435849 1.212919 -0.106987
v -0.466509 1.218854 -0.112679
v -0.447657 1.236123 -0.120517
v -0.468569 1.238786 -0.124033
v -0.469960 1.258553 -0.113211
v -0.500515 1.215705 -0.073266
v -0.459504 1.255175 0.109592
v -0.531511 1.242048 -0.088834
v -0.513838 1.208501 -0.088197
v -0.529166 1.221287 -0.095990
v -0.460039 1.257729 -0.111458
v -0.922593 1.065466 0.972593
v -0.777408 1.065466 0.972593
v -0.850825 1.432908 0.899050
v -0.922593 1.065466 0.827408
v -0.777408 1.065466 0.827408
v -0.850000 0.989092 0.900000
v -0.898063 1.241515 0.948790
v -0.898063 1.241515 0.843635
v -0.792908 1.241515 0.843635
v -0.792908 1.241515 0.948790
v 0.777408 1.065466 0.972593
v 0.922593 1.065466 0.972593
v 0.849175 1.432908 0.899050
v 0.777408 1.065466 0.827408
v 0.922593 1.065466 0.827408
v 0.850000 0.989092 0.900000
v 0.801937 1.241515 0.948790
v 0.801937 1.241515 0.843635
v 0.907092 1.241515 0.843635
v 0.907092 1.241515 0.948790
v -0.922593 1.065466 -0.827407
v -0.777408 1.065466 -0.827407
v -0.850825 1.432908 -0.900950
v -0.922593 1.065466 -0.972592
v -0.777408 1.065466 -0.972592
v -0.850000 0.989092 -0.900000
v -0.898063 1.241515 -0.851210
v -0.898063 1.241515 -0.956365
v -0.792908 1.241515 -0.956365
v -0.792908 1.241515 -0.851210
v 0.777408 1.065466 -0.827407
v 0.922593 1.065466 -0.827407
v 0.849175 1.432908 -0.900950
v 0.777408 1.065466 -0.972592
v 0.922593 1.065466 -0.972592
v 0.850000 0.989092 -0.900000
v 0.801937 1.241515 -0.851210
v 0.801937 1.241515 -0.956365
v 0.907092 1.241515 -0.956365
v 0.907092 1.241515 -0.851210
v -0.072592 1.229466 0.072593
v 0.072592 1.229466 0.072593
v -0.000825 1.596908 -0.000950
v -0.072592 1.229466 -0.072592
v 0.072592 1.229466 -0.072592
v 0.000000 1.153092 0.000000
v -0.048063 1.405515 0.048790
v -0.048063 1.405515 -0.056365
v 0.057092 1.405515 -0.056365
v 0.057092 1.405515 0.048790
vn -0.0000 -1.0000 -0.0000
vn 1.0000 -0.0000 -0.0000
vn -0.0000 -0.0000 1.0000
vn -1.0000 0.0001 0.0001
vn 0.0164 -0.0093 0.9998
vn -0.0002 -1.0000 0.0002
vn 0.0060 1.0000 -0.0060
vn -0.0052 0.9591 -0.2829
vn -0.0000 -0.0000 -1.0000
vn -0.9569 0.2905 -0.0060
vn -0.0000 0.5125 0.8587
vn 0.8587 0.5125 -0.0000
vn -0.4280 0.8862 -0.1774
vn -0.0000 0.7877 0.6161
vn 0.6161 0.7877 -0.0000
vn -0.0031 0.8079 -0.5893
vn -0.6582 0.7529 -0.0041
vn -0.3301 0.9439 -0.0104
vn -0.0000 0.0918 -0.9958
vn 1.0000 0.0030 0.0002
vn -0.1363 -0.3508 0.9265
vn 0.1162 -0.4751 0.8722
vn 0.4257 0.8973 -0.1170
vn 0.2245 0.9651 0.1351
vn 0.8765 -0.4409 0.1933
vn -0.6609 0.5376 0.5237
vn -1.0000 -0.0000 -0.0000
vn -0.9904 0.1380 -0.0000
vn -0.0000 0.5741 0.8188
vn 0.5033 -0.0000 0.8641
vn -0.5033 -0.0000 0.8641
vn -0.0000 -0.5741 0.8188
vn -0.7513 0.5829 0.3095
vn 0.1320 0.8646 0.4848
vn -0.0041 0.0020 1.0000
vn 0.3177 0.6001 0.7341
vn -0.0043 0.8696 0.4938
vn 0.0526 0.6589 0.7503
vn 0.7089 0.4516 -0.5418
vn -0.0027 0.2629 0.9648
vn 0.3812 0.4821 0.7889
vn -0.6057 0.6879 0.3999
vn -0.0027 0.2628 0.9648
vn -0.0043 -0.0000 1.0000
vn 0.6720 0.6554 0.3448
vn 0.0027 0.8727 0.4883
vn -0.0000 0.8567 0.5158
vn -0.0000 0.8040 0.5947
vn -0.6963 0.4020 0.5947
vn -0.6963 -0.4020 0.5947
vn -0.0000 -0.8040 0.5947
vn 0.6963 -0.4020 0.5947
vn 0.6963 0.4020 0.5947
vn -0.8587 0.5125 -0.0000
vn -0.0000 0.8522 0.5233
vn -0.7380 0.4261 0.5233
vn -0.7380 -0.4261 0.5233
vn -0.0000 -0.8522 0.5233
vn 0.7380 -0.4261 0.5233
vn 0.7380 0.4261 0.5232
vn 0.0311 -0.0281 0.9991
vn 0.0001 0.0400 0.9992
vn 0.0338 0.0197 0.9992
vn -0.0282 0.0179 0.9994
vn 0.0090 -0.0298 0.9995
vn -0.0257 -0.0083 0.9996
vn -0.0239 -0.0086 0.9997
vn -0.0099 0.0102 0.9999
vn -0.0013 0.0187 0.9998
vn -0.4933 -0.8696 -0.0206
vn 0.5307 0.8476 0.0025
vn 0.7215 -0.6464 0.2482
vn -0.4464 -0.8667 0.2225
vn -0.8303 0.5177 0.2064
vn 0.0026 0.9619 0.2733
vn 0.9829 0.1842 -0.0043
vn 0.8142 0.5223 0.2535
vn -0.8230 0.4975 0.2742
vn 0.7075 -0.6400 0.2997
vn -0.4117 -0.8650 0.2869
vn 0.3525 0.8825 0.3113
vn -0.9018 -0.3250 0.2850
vn 0.9074 0.2885 0.3057
vn 0.3365 -0.8955 0.2913
vn -0.2183 0.9256 0.3093
vn -0.8492 0.4340 0.3009
vn 0.8880 -0.3553 0.2919
vn 0.5619 -0.7696 0.3033
vn -0.8266 -0.4664 0.3150
vn 0.8868 0.3614 0.2880
vn -0.5279 -0.7894 0.3134
vn 0.3449 0.8930 0.2892
vn 0.1063 -0.9456 0.3076
vn -0.1065 0.9506 0.2915
vn -0.7393 0.6072 0.2912
vn 0.7603 -0.5687 0.3139
vn 0.6251 -0.7226 0.2951
vn -0.6157 0.7211 0.3178
vn 0.1536 -0.9399 0.3049
vn -0.1811 0.9572 0.2256
vn 0.0272 -0.0494 0.9984
vn 0.0004 0.0408 0.9992
vn -0.0338 0.0197 0.9992
vn 0.0193 0.0197 0.9996
vn 0.0260 -0.0090 0.9996
vn 0.0099 0.0102 0.9999
vn 0.0037 0.0225 0.9997
vn 0.0045 0.0075 1.0000
vn -0.7215 -0.6464 0.2483
vn 0.4105 -0.8765 0.2515
vn 0.8303 0.5178 0.2064
vn -0.0026 0.9619 0.2733
vn 0.3444 -0.9122 0.2218
vn -0.7944 0.5402 0.2776
vn 0.8250 0.4889 0.2835
vn -0.6578 -0.6993 0.2797
vn 0.4117 -0.8650 0.2869
vn -0.3855 0.8741 0.2955
vn 0.8978 -0.3306 0.2910
vn -0.9305 0.2265 0.2878
vn -0.3669 -0.8757 0.3138
vn 0.2183 0.9256 0.3093
vn 0.8492 0.4340 0.3009
vn -0.8880 -0.3553 0.2920
vn -0.5619 -0.7696 0.3033
vn 0.8448 -0.4471 0.2941
vn -0.8868 0.3615 0.2880
vn 0.5278 -0.7894 0.3134
vn -0.3330 0.8918 0.3063
vn -0.1063 -0.9456 0.3076
vn 0.1065 0.9506 0.2915
vn 0.7383 0.5951 0.3174
vn -0.7607 -0.5746 0.3020
vn -0.6277 -0.7123 0.3141
vn 0.6128 0.7286 0.3061
vn -0.1487 -0.9408 0.3046
vn 0.1578 0.9612 0.2265
vn -0.0000 0.8522 0.5232
vn -0.7380 0.4261 0.5232
vn 0.9961 0.0877 -0.0000
vn -0.2059 0.9155 0.3455
vn -0.9479 -0.0024 0.3186
vn 0.4214 -0.8538 0.3057
vn 0.9342 -0.0533 0.3528
vn -0.7926 -0.4733 0.3844
vn 0.6820 0.6193 0.3889
vn -0.5329 -0.7671 0.3572
vn 0.8338 0.3975 0.3831
vn 0.9375 0.1353 0.3206
vn 0.9481 -0.1546 0.2779
vn 0.5774 0.7426 0.3393
vn -0.9457 0.0936 0.3113
vn 0.1582 -0.9038 0.3976
vn -0.9303 -0.1416 0.3385
vn -0.5774 0.7426 0.3393
vn 0.2328 0.9186 0.3194
vn 0.9479 -0.0024 0.3186
vn -0.4214 -0.8538 0.3058
vn -0.9342 -0.0532 0.3528
vn 0.7952 -0.5245 0.3043
vn -0.6245 0.6247 0.4688
vn 0.5329 -0.7671 0.3572
vn -0.8338 0.3975 0.3831
vn -0.0000 1.0000 -0.0000
vn 0.7380 0.4261 0.5233
vn -0.4412 0.7814 0.4412
vn 0.4413 0.7814 -0.4413
vn 0.2831 -0.9164 -0.2831
vn 0.6257 0.4658 -0.6257
vn 0.1025 -0.9894 -0.1025
vn -0.6257 0.4658 0.6257
vn -0.2831 -0.9164 0.2831
vn -0.5103 0.6924 0.5101
vn -0.4272 -0.7969 0.4272
vn 0.4271 -0.7970 -0.4271
vn -0.1065 0.9886 0.1065
vn 0.1065 0.9886 -0.1065
vn -0.1025 -0.9894 0.1025
vn 0.5102 0.6923 -0.5102
vn 0.5172 -0.6819 -0.5172
vn -0.5170 -0.6822 0.5170
vn -0.0000 0.4658 0.8849
vn 0.6240 0.7814 -0.0000
vn -0.5442 0.6387 0.5440
vn -0.0000 0.7814 0.6240
vn -0.0000 -0.9894 0.1450
vn 0.6155 -0.4925 -0.6153
vn 0.5441 0.6387 -0.5441
vn -0.0537 0.9971 0.0537
vn 0.0537 0.9971 -0.0537
vn 0.4412 0.7814 0.4412
vn 0.1450 -0.9894 -0.0000
vn 0.6257 0.4658 0.6257
vn 0.1025 -0.9894 0.1025
vn 0.8849 0.4658 -0.0000
vn -0.1506 0.9886 -0.0000
vn -0.0000 0.9886 -0.1506
vn -0.0000 -0.9164 0.4003
vn 0.4003 -0.9164 -0.0000
vn -0.1065 0.9886 -0.1065
vn -0.0000 -0.7970 0.6040
vn 0.6040 -0.7970 -0.0000
vn 0.2831 -0.9164 0.2831
vn -0.7216 0.6923 -0.0000
vn -0.6154 -0.4924 0.6154
vn -0.0000 0.6924 -0.7215
vn -0.0842 -0.4866 -0.8696
vn 0.1955 -0.9802 0.0309
vn 0.2879 -0.4829 0.8270
vn -0.1912 0.4817 -0.8552
vn 0.1591 -0.6458 -0.7467
vn 0.0340 0.6385 0.7688
vn -0.2261 -0.9409 0.2522
vn -0.7300 0.6193 0.2889
vn 0.4143 0.2544 -0.8739
vn -0.3719 -0.2785 0.8855
vn -0.1597 0.6076 0.7781
vn 0.3267 0.9239 -0.1993
vn -0.7695 0.6387 -0.0000
vn -0.0000 -0.6822 0.7311
vn 0.4271 -0.7970 0.4271
vn 0.4943 -0.8690 0.0218
vn -0.5103 0.6924 -0.5101
vn -0.9842 0.0189 0.1762
vn 0.4720 -0.8541 -0.2186
vn -0.0000 0.6387 -0.7695
vn 0.9733 -0.0316 -0.2275
vn -0.4723 0.8666 0.1612
vn -0.5307 0.8476 -0.0028
vn 0.8704 -0.4924 -0.0000
vn 0.2231 -0.9746 0.0215
vn -0.0759 0.9971 -0.0000
vn 0.3158 -0.4603 -0.8297
vn -0.0000 0.9971 -0.0759
vn -0.9804 0.0251 -0.1956
vn 0.5359 -0.8024 0.2627
vn -0.0708 -0.4753 0.8770
vn -0.5127 0.4768 -0.7140
vn -0.5787 0.7800 -0.2381
vn -0.3735 -0.2796 -0.8845
vn 0.9701 -0.0265 0.2414
vn -0.2259 -0.9413 -0.2508
vn 0.7604 0.5756 0.3008
vn -0.1597 0.6088 -0.7771
vn -0.6359 0.7709 0.0380
vn 0.1582 -0.6462 0.7466
vn 0.3263 0.9242 0.1986
vn 0.4141 0.2557 0.8736
vn 0.5171 -0.6823 0.5169
vn -0.5442 0.6387 -0.5440
vn 0.6155 -0.4925 0.6153
vn -0.0537 0.9971 -0.0537
vn -0.0000 -0.4924 0.8703
vn 0.0883 0.9961 -0.0000
vn -0.6240 0.7814 -0.0000
vn -0.0000 0.7814 -0.6240
vn -0.0000 0.9886 0.1506
vn 0.1506 0.9886 -0.0000
vn -0.1450 -0.9894 -0.0000
vn -0.0000 -0.9894 -0.1450
vn -0.0000 0.9971 0.0759
vn 0.7695 0.6387 -0.0000
vn 0.7216 0.6923 -0.0000
vn -0.8849 0.4658 -0.0000
vn -0.0000 0.4658 -0.8849
vn -0.0000 -0.9164 -0.4003
vn 0.1595 0.8491 0.5036
vn 0.0842 -0.4866 0.8696
vn -0.4412 0.7814 -0.4412
vn -0.8704 -0.4924 -0.0000
vn 0.1835 0.9828 -0.0196
vn -0.0000 -0.4924 -0.8703
vn -0.1955 -0.9802 -0.0309
vn -0.0946 0.4886 -0.8674
vn -0.2879 -0.4829 -0.8270
vn -0.0000 -0.7970 -0.6040
vn -0.4004 -0.9164 -0.0000
vn -0.1025 -0.9894 -0.1025
vn -0.0000 -0.6822 -0.7311
vn -0.4141 0.2557 0.8736
vn -0.3263 0.9242 0.1986
vn -0.1582 -0.6462 0.7466
vn -0.6041 -0.7969 -0.0000
vn 0.1065 0.9886 0.1065
vn 0.1597 0.6088 -0.7771
vn 0.2259 -0.9413 -0.2508
vn 0.3735 -0.2796 -0.8845
vn -0.6257 0.4658 -0.6257
vn 0.4705 0.8646 -0.1763
vn 0.9811 0.0181 -0.1925
vn -0.0099 -0.0212 0.9997
vn -0.9695 -0.0307 0.2431
vn -0.4697 -0.8513 0.2338
vn -0.2831 -0.9164 -0.2831
vn -0.0000 0.6387 0.7695
vn -0.0000 0.6924 0.7215
vn -0.1264 0.4944 0.8600
vn 0.0871 0.9959 -0.0246
vn 0.0759 0.9971 -0.0000
vn -0.3158 -0.4603 0.8297
vn -0.2230 -0.9746 -0.0215
vn 0.5102 0.6923 0.5102
vn 0.5866 0.7793 0.2205
vn 0.9830 0.0305 0.1809
vn 0.1597 0.6076 0.7781
vn 0.0708 -0.4753 -0.8770
vn 0.2044 0.4758 -0.8554
vn -0.3267 0.9239 -0.1993
vn 0.3719 -0.2785 0.8855
vn 0.5441 0.6387 0.5441
vn -0.9733 -0.0315 -0.2275
vn -0.5434 -0.8022 -0.2475
vn -0.4143 0.2544 -0.8739
vn -0.4272 -0.7969 -0.4272
vn 0.2261 -0.9409 0.2522
vn -0.1591 -0.6458 -0.7467
vn 0.0537 0.9971 0.0537
vn -0.5170 -0.6822 -0.5170
vn -0.6154 -0.4924 -0.6154
vn -0.7312 -0.6822 -0.0000
vn 0.7316 -0.6818 -0.0000
vn -0.0000 0.1340 0.9910
vn -0.0000 -0.6889 -0.7248
vn 0.7248 -0.6889 -0.0000
vn -0.0000 -0.6889 0.7248
vn -0.7248 -0.6889 -0.0000
vn -0.9709 0.2396 -0.0000
vn -0.0000 0.2781 -0.9605
vn 0.9571 0.2896 -0.0000
vn -0.0000 0.2515 0.9678
vn -0.0000 0.2515 0.9679
vn -0.0000 0.5125 -0.8587
vn -1.0000 0.0022 -0.0000
vn 0.0147 -0.0114 0.9998
vn 0.0239 -0.0086 0.9997
vn 0.0003 -1.0000 0.0003
vn 0.0050 -1.0000 -0.0000
vn -0.0038 -1.0000 -0.0000
vn 0.1984 0.9801 -0.0000
vn -0.0000 0.8918 -0.4525
vn 0.5889 0.8082 0.0026
vn -0.0000 0.7877 -0.6161
vn -0.6161 0.7877 -0.0000
vn -0.6171 0.7013 0.3569
vn 0.6398 0.6580 0.3972
vn -0.0000 0.0251 0.9997
vn -0.0084 0.8696 0.4937
vn -0.0758 0.8694 0.4883
vn -0.0716 0.8704 0.4870
vn 0.4696 0.8184 -0.3312
vn 0.0022 0.3258 0.9454
vn 0.3113 0.5804 0.7525
vn -0.7061 0.6087 0.3618
vn -0.0220 0.4277 0.9037
vn 0.6333 0.6865 0.3574
vn 0.0007 0.8729 0.4879
vn 0.0092 0.8728 0.4880
vn 0.0033 0.8727 0.4882
vn -0.0081 0.8434 0.5373
vn -0.0083 0.8692 0.4943
vn -0.0272 -0.0494 0.9984
vn -0.0004 0.0408 0.9992
vn -0.0193 0.0197 0.9996
vn -0.0010 -0.0133 0.9999
vn 0.0015 -0.0174 0.9998
vn 0.0099 -0.0212 0.9997
vn -0.0260 -0.0090 0.9996
vn -0.0147 -0.0114 0.9998
vn -0.0164 -0.0093 0.9998
vn -0.0094 0.0107 0.9999
vn -0.0092 0.0197 0.9998
vn -0.0220 0.0091 0.9997
vn -0.0037 0.0225 0.9997
vn -0.4943 -0.8690 0.0218
vn -0.5390 -0.8423 -0.0071
vn -0.5390 -0.8423 0.0065
vn 0.5307 0.8476 -0.0028
vn 0.5208 0.8536 -0.0096
vn 0.5202 0.8540 0.0091
vn 0.7154 -0.6503 0.2554
vn -0.4105 -0.8765 0.2515
vn -0.8078 0.5486 0.2158
vn 0.0067 0.9603 0.2789
vn -0.3444 -0.9122 0.2218
vn 0.7944 0.5402 0.2775
vn -0.8250 0.4889 0.2835
vn 0.6578 -0.6993 0.2797
vn -0.4135 -0.8627 0.2912
vn 0.3855 0.8741 0.2955
vn -0.8978 -0.3306 0.2910
vn 0.9305 0.2266 0.2879
vn 0.3669 -0.8757 0.3138
vn -0.2338 0.9251 0.2991
vn -0.8542 0.4280 0.2951
vn 0.8829 -0.3600 0.3016
vn 0.5442 -0.7780 0.3139
vn -0.8447 -0.4471 0.2942
vn 0.8867 0.3593 0.2911
vn -0.5220 -0.7960 0.3064
vn 0.3330 0.8918 0.3063
vn 0.1117 -0.9466 0.3024
vn -0.0965 0.9470 0.3063
vn -0.7383 0.5951 0.3174
vn 0.7607 -0.5746 0.3020
vn 0.6277 -0.7123 0.3141
vn -0.6128 0.7286 0.3060
vn 0.1697 -0.9537 0.2483
vn -0.1494 0.9349 0.3220
vn -0.0311 -0.0281 0.9991
vn -0.0001 0.0400 0.9992
vn 0.0282 0.0179 0.9994
vn 0.0257 -0.0083 0.9996
vn 0.0220 0.0091 0.9997
vn 0.0092 0.0197 0.9998
vn 0.0094 0.0107 0.9999
vn 0.0013 0.0187 0.9998
vn -0.0057 -0.0207 0.9998
vn 0.0007 0.0083 1.0000
vn 0.0019 -0.0061 1.0000
vn 0.0020 -0.0059 1.0000
vn 0.0165 -0.0141 0.9998
vn -0.0145 0.0151 0.9998
vn -0.0020 -0.0059 1.0000
vn -0.0019 -0.0061 1.0000
vn -0.0165 -0.0141 0.9998
vn 0.0145 0.0151 0.9998
vn -0.0001 -0.0243 0.9997
vn -0.7155 -0.6503 0.2554
vn 0.4464 -0.8667 0.2225
vn 0.8078 0.5485 0.2158
vn -0.0067 0.9603 0.2789
vn -0.9829 0.1841 -0.0043
vn -0.8142 0.5223 0.2535
vn 0.8230 0.4975 0.2742
vn -0.7074 -0.6402 0.2996
vn 0.4134 -0.8627 0.2912
vn -0.3525 0.8825 0.3113
vn 0.9018 -0.3250 0.2849
vn -0.9072 0.2889 0.3058
vn -0.3365 -0.8955 0.2913
vn 0.2338 0.9251 0.2990
vn 0.8542 0.4280 0.2951
vn -0.8829 -0.3600 0.3015
vn -0.5443 -0.7780 0.3139
vn 0.8266 -0.4664 0.3149
vn -0.8867 0.3593 0.2911
vn 0.5220 -0.7960 0.3065
vn -0.3449 0.8930 0.2892
vn -0.1117 -0.9466 0.3024
vn 0.0965 0.9470 0.3063
vn 0.7393 0.6072 0.2912
vn -0.7603 -0.5687 0.3139
vn -0.6251 -0.7227 0.2951
vn 0.6157 0.7211 0.3178
vn -0.1641 -0.9546 0.2485
vn 0.1305 0.9381 0.3209
vn -0.2240 0.9215 0.3172
vn -0.9349 -0.0237 0.3542
vn 0.4576 -0.8183 0.3478
vn 0.9233 -0.0330 0.3826
vn -0.7952 -0.5245 0.3043
vn 0.6794 0.6448 0.3503
vn -0.5161 -0.7655 0.3842
vn 0.8302 0.3994 0.3890
vn 0.9347 0.1291 0.3312
vn 0.9305 -0.1398 0.3385
vn 0.5910 0.7121 0.3790
vn -0.9391 0.0796 0.3344
vn 0.1109 -0.9312 0.3472
vn -0.9478 -0.1557 0.2782
vn -0.5910 0.7121 0.3790
vn -0.0206 0.7674 0.6408
vn 0.9349 -0.0237 0.3542
vn -0.4576 -0.8183 0.3478
vn -0.9233 -0.0331 0.3826
vn 0.7926 -0.4733 0.3844
vn -0.6097 0.6950 0.3812
vn 0.5161 -0.7655 0.3842
vn -0.8301 0.3995 0.3890
vn -0.4413 0.7814 0.4412
vn 0.4412 0.7814 -0.4413
vn 0.5171 -0.6823 -0.5169
vn -0.0708 -0.4753 -0.8770
vn 0.2231 -0.9746 -0.0215
vn 0.3158 -0.4603 0.8297
vn -0.2044 0.4759 -0.8554
vn 0.3116 -0.4944 -0.8115
vn -0.5127 0.4768 0.7140
vn -0.2226 -0.9748 0.0180
vn -0.0871 0.9959 -0.0246
vn 0.4774 0.3959 -0.7845
vn -0.4422 -0.3977 0.8039
vn -0.2577 0.5118 0.8196
vn 0.1871 0.9822 -0.0151
vn -0.0000 -0.6823 0.7311
vn 0.4933 -0.8696 -0.0206
vn 0.5390 -0.8423 0.0065
vn 0.5390 -0.8423 -0.0071
vn -0.9830 0.0305 0.1809
vn 0.5434 -0.8022 -0.2475
vn 0.9733 -0.0315 -0.2275
vn -0.5866 0.7793 0.2205
vn -0.5307 0.8476 0.0025
vn -0.5202 0.8540 0.0091
vn -0.5208 0.8536 -0.0096
vn 0.1955 -0.9802 -0.0309
vn 0.2879 -0.4829 -0.8270
vn -0.9811 0.0181 -0.1925
vn 0.4697 -0.8513 0.2338
vn -0.0842 -0.4866 0.8696
vn 0.0340 0.6385 -0.7688
vn -0.4705 0.8646 -0.1763
vn -0.4430 -0.3975 -0.8036
vn 0.9695 -0.0307 0.2431
vn -0.2225 -0.9748 -0.0180
vn -0.1990 0.3594 0.9117
vn -0.6305 0.4064 0.6613
vn -0.2591 0.5117 -0.8192
vn -0.7720 0.6338 -0.0473
vn 0.3111 -0.4944 0.8116
vn 0.1872 0.9822 0.0151
vn 0.4767 0.3961 0.7848
vn 0.5172 -0.6819 0.5172
vn -0.0458 0.4772 0.8776
vn 0.1990 0.3594 0.9117
vn 0.0708 -0.4753 0.8770
vn 0.0870 0.9959 0.0246
vn -0.2230 -0.9746 0.0215
vn -0.1264 0.4944 -0.8600
vn -0.3158 -0.4603 -0.8297
vn -0.0000 -0.6823 -0.7311
vn -0.4767 0.3961 0.7848
vn -0.1872 0.9822 0.0151
vn -0.3111 -0.4944 0.8116
vn 0.2591 0.5117 -0.8192
vn 0.2225 -0.9748 -0.0180
vn 0.4430 -0.3975 -0.8036
vn 0.5787 0.7800 -0.2381
vn 0.9804 0.0251 -0.1956
vn -0.0015 -0.0174 0.9998
vn 0.0010 -0.0133 0.9999
vn -0.0090 -0.0298 0.9995
vn -0.9701 -0.0265 0.2414
vn -0.5359 -0.8024 0.2627
vn -0.0946 0.4886 0.8674
vn 0.1834 0.9828 0.0196
vn -0.2879 -0.4829 0.8270
vn -0.1955 -0.9802 0.0309
vn 0.4723 0.8666 0.1612
vn 0.9842 0.0189 0.1762
vn 0.2576 0.5118 0.8196
vn 0.0842 -0.4866 -0.8696
vn 0.1911 0.4817 -0.8553
vn -0.1871 0.9822 -0.0151
vn 0.4422 -0.3977 0.8039
vn -0.9733 -0.0316 -0.2275
vn -0.4721 -0.8540 -0.2186
vn -0.4774 0.3959 -0.7845
vn 0.2226 -0.9748 0.0180
vn -0.3116 -0.4944 -0.8115
vt 0.625000 0.625000
vt 0.625000 0.875000
vt 0.875000 0.875000
vt 0.625000 0.375000
vt 0.125000 0.125000
vt 0.125000 0.875000
s 0
usemtl ruins_ch_votive
f 5/1/1 45/1/1 1/1/1
f 43/2/1 1/2/1 45/2/1
f 6/1/2 65/1/2 64/1/2
f 9/2/2 8/2/2 10/2/2
f 55/1/3 54/1/3 56/1/3
f 56/3/3 54/3/3 57/3/3
f 31/1/4 4/1/4 2/1/4
f 229/4/3 234/4/3 228/4/3
f 148/4/5 149/4/5 147/4/5
f 38/2/6 3/2/6 10/2/6
f 14/2/7 17/2/7 13/2/7
f 15/2/8 18/2/8 14/2/8
f 17/1/3 20/1/3 16/1/3
f 18/2/2 21/2/2 17/2/2
f 18/2/9 23/2/9 22/2/9
f 19/2/10 20/2/10 23/2/10
f 28/1/11 24/1/11 27/1/11
f 29/1/12 40/1/12 42/1/12
f 48/1/13 46/1/13 47/1/13
f 20/1/14 28/1/14 27/1/14
f 21/2/15 29/2/15 28/2/15
f 23/2/16 29/2/16 22/2/16
f 20/2/17 30/2/17 23/2/17
f 31/2/18 19/2/18 15/2/18
f 556/5/19 559/5/19 560/5/19
f 14/1/20 3/1/20 38/1/20
f 92/4/3 91/4/3 85/4/3
f 35/2/21 37/2/21 58/2/21
f 536/5/19 539/5/19 540/5/19
f 37/1/22 34/1/22 58/1/22
f 42/2/23 41/2/23 39/2/23
f 40/3/24 41/3/24 42/3/24
f 43/1/25 45/1/25 44/1/25
f 31/1/26 32/1/26 33/1/26
f 35/1/3 3/1/3 13/1/3
f 281/4/3 283/4/3 282/4/3
f 5/1/27 1/1/27 49/1/27
f 528/5/28 525/5/28 522/5/28
f 51/2/3 52/2/3 12/2/3
f 10/1/3 50/1/3 9/1/3
f 10/3/3 36/3/3 53/3/3
f 51/1/29 54/1/29 55/1/29
f 52/1/30 55/1/30 56/1/30
f 53/1/31 54/1/31 50/1/31
f 57/1/32 52/1/32 56/1/32
f 12/1/27 7/1/27 11/1/27
f 526/5/19 529/5/19 530/5/19
f 15/2/9 7/2/9 4/2/9
f 5/2/9 49/2/9 7/2/9
f 558/5/28 555/5/28 552/5/28
f 6/1/9 7/1/9 38/1/9
f 60/1/33 74/1/33 59/1/33
f 71/1/34 64/1/34 63/1/34
f 59/1/35 43/1/35 44/1/35
f 78/1/36 75/1/36 62/1/36
f 7/1/37 4/1/37 73/1/37
f 62/2/38 77/2/38 78/2/38
f 74/2/27 49/2/27 1/2/27
f 64/2/39 66/2/39 63/2/39
f 60/1/40 70/1/40 69/1/40
f 62/2/41 76/2/41 77/2/41
f 73/1/42 68/1/42 74/1/42
f 70/1/43 75/1/43 69/1/43
f 62/1/44 70/1/44 44/1/44
f 44/2/2 64/2/2 72/2/2
f 77/2/45 72/2/45 71/2/45
f 8/1/46 9/1/46 71/1/46
f 9/1/47 11/1/47 69/1/47
f 80/4/48 85/4/48 79/4/48
f 80/4/49 87/4/49 86/4/49
f 82/4/50 87/4/50 81/4/50
f 83/4/51 88/4/51 82/4/51
f 84/4/52 89/4/52 83/4/52
f 79/4/53 90/4/53 84/4/53
f 33/2/3 32/2/3 2/2/3
f 100/4/3 101/4/3 97/4/3
f 27/2/54 48/2/54 30/2/54
f 89/4/3 94/4/3 88/4/3
f 92/4/55 97/4/55 91/4/55
f 92/4/56 99/4/56 98/4/56
f 94/4/57 99/4/57 93/4/57
f 95/4/58 100/4/58 94/4/58
f 95/4/59 102/4/59 101/4/59
f 91/4/60 102/4/60 96/4/60
f 133/4/61 135/4/61 134/4/61
f 137/4/62 139/4/62 138/4/62
f 133/4/63 134/4/63 139/4/63
f 140/4/64 138/4/64 141/4/64
f 202/4/65 203/4/65 200/4/65
f 145/4/66 141/4/66 144/4/66
f 207/4/67 208/4/67 206/4/67
f 209/4/68 210/4/68 207/4/68
f 154/4/69 155/4/69 153/4/69
f 409/6/70 402/6/70 415/6/70
f 419/6/71 420/6/71 411/6/71
f 134/4/72 122/4/72 123/4/72
f 122/4/73 136/4/73 121/4/73
f 136/4/74 120/4/74 121/4/74
f 138/4/75 124/4/75 125/4/75
f 120/4/76 137/4/76 119/4/76
f 124/4/77 134/4/77 123/4/77
f 126/4/78 138/4/78 125/4/78
f 119/4/79 140/4/79 118/4/79
f 143/4/80 127/4/80 128/4/80
f 117/4/81 142/4/81 116/4/81
f 127/4/82 141/4/82 126/4/82
f 118/4/83 145/4/83 117/4/83
f 103/4/84 143/4/84 128/4/84
f 142/4/85 115/4/85 116/4/85
f 147/4/86 114/4/86 115/4/86
f 150/4/87 104/4/87 105/4/87
f 148/4/88 103/4/88 104/4/88
f 114/4/89 151/4/89 113/4/89
f 152/4/90 105/4/90 106/4/90
f 151/4/91 112/4/91 113/4/91
f 107/4/92 152/4/92 106/4/92
f 153/4/93 111/4/93 112/4/93
f 156/4/94 107/4/94 108/4/94
f 109/4/95 156/4/95 108/4/95
f 111/4/96 158/4/96 110/4/96
f 110/4/97 159/4/97 130/4/97
f 129/4/98 157/4/98 109/4/98
f 159/4/99 132/4/99 130/4/99
f 162/4/100 129/4/100 131/4/100
f 191/4/101 193/4/101 194/4/101
f 195/4/102 197/4/102 191/4/102
f 191/4/103 197/4/103 192/4/103
f 198/4/104 196/4/104 195/4/104
f 203/4/105 199/4/105 198/4/105
f 151/4/106 149/4/106 152/4/106
f 212/4/107 213/4/107 214/4/107
f 161/4/108 162/4/108 218/4/108
f 182/4/109 192/4/109 183/4/109
f 182/4/110 194/4/110 193/4/110
f 180/4/111 194/4/111 181/4/111
f 184/4/112 196/4/112 185/4/112
f 180/4/113 195/4/113 191/4/113
f 184/4/114 192/4/114 197/4/114
f 186/4/115 196/4/115 199/4/115
f 179/4/116 198/4/116 195/4/116
f 187/4/117 201/4/117 188/4/117
f 177/4/118 200/4/118 203/4/118
f 187/4/119 199/4/119 202/4/119
f 178/4/120 203/4/120 198/4/120
f 163/4/121 201/4/121 204/4/121
f 175/4/122 200/4/122 176/4/122
f 174/4/123 205/4/123 175/4/123
f 164/4/124 208/4/124 165/4/124
f 163/4/125 206/4/125 164/4/125
f 174/4/126 209/4/126 207/4/126
f 165/4/127 210/4/127 166/4/127
f 172/4/128 209/4/128 173/4/128
f 167/4/129 210/4/129 212/4/129
f 171/4/130 211/4/130 172/4/130
f 167/4/131 214/4/131 168/4/131
f 169/4/132 214/4/132 215/4/132
f 171/4/133 216/4/133 213/4/133
f 170/4/134 217/4/134 216/4/134
f 189/4/135 215/4/135 218/4/135
f 132/4/136 217/4/136 190/4/136
f 189/4/137 162/4/137 131/4/137
f 220/4/48 225/4/48 219/4/48
f 220/4/49 227/4/49 226/4/49
f 222/4/50 227/4/50 221/4/50
f 223/4/51 228/4/51 222/4/51
f 223/4/52 230/4/52 229/4/52
f 224/4/53 225/4/53 230/4/53
f 255/4/3 256/4/3 257/4/3
f 240/4/3 241/4/3 237/4/3
f 232/4/3 231/4/3 225/4/3
f 67/1/9 49/1/9 68/1/9
f 232/4/138 237/4/138 231/4/138
f 232/4/139 239/4/139 238/4/139
f 234/4/57 239/4/57 233/4/57
f 235/4/58 240/4/58 234/4/58
f 235/4/59 242/4/59 241/4/59
f 231/4/60 242/4/60 236/4/60
f 516/5/140 521/5/140 513/5/140
f 518/5/28 515/5/28 512/5/28
f 247/4/141 253/4/141 252/4/141
f 245/4/142 253/4/142 246/4/142
f 250/4/143 254/4/143 243/4/143
f 249/4/144 255/4/144 250/4/144
f 244/4/145 254/4/145 257/4/145
f 248/4/146 252/4/146 258/4/146
f 244/4/147 251/4/147 245/4/147
f 248/4/148 256/4/148 249/4/148
f 264/4/149 260/4/149 261/4/149
f 260/4/150 265/4/150 259/4/150
f 266/4/151 261/4/151 262/4/151
f 268/4/152 271/4/152 269/4/152
f 272/4/153 259/4/153 265/4/153
f 268/4/154 272/4/154 270/4/154
f 269/4/155 266/4/155 262/4/155
f 546/5/140 551/5/140 543/5/140
f 277/4/156 283/4/156 276/4/156
f 283/4/157 275/4/157 276/4/157
f 284/4/158 280/4/158 273/4/158
f 285/4/159 279/4/159 280/4/159
f 274/4/160 284/4/160 273/4/160
f 278/4/161 282/4/161 277/4/161
f 281/4/162 274/4/162 275/4/162
f 286/4/163 278/4/163 279/4/163
f 290/4/48 295/4/48 289/4/48
f 291/4/49 296/4/49 290/4/49
f 292/4/50 297/4/50 291/4/50
f 293/4/51 298/4/51 292/4/51
f 293/4/52 300/4/52 299/4/52
f 289/4/53 300/4/53 294/4/53
f 33/1/164 17/1/164 16/1/164
f 307/4/3 308/4/3 309/4/3
f 328/4/3 322/4/3 323/4/3
f 306/4/3 305/4/3 300/4/3
f 298/4/3 303/4/3 297/4/3
f 538/5/28 535/5/28 532/5/28
f 302/4/55 307/4/55 301/4/55
f 302/4/56 309/4/56 308/4/56
f 304/4/57 309/4/57 303/4/57
f 305/4/58 310/4/58 304/4/58
f 306/4/59 311/4/59 305/4/59
f 301/4/165 312/4/165 306/4/165
f 314/4/48 319/4/48 313/4/48
f 315/4/49 320/4/49 314/4/49
f 316/4/50 321/4/50 315/4/50
f 317/4/51 322/4/51 316/4/51
f 317/4/52 324/4/52 323/4/52
f 318/4/53 319/4/53 324/4/53
f 320/4/3 326/4/3 319/4/3
f 24/1/164 39/1/164 41/1/164
f 334/4/3 336/4/3 332/4/3
f 326/4/138 331/4/138 325/4/138
f 326/4/56 333/4/56 332/4/56
f 328/4/57 333/4/57 327/4/57
f 329/4/58 334/4/58 328/4/58
f 330/4/59 335/4/59 329/4/59
f 325/4/165 336/4/165 330/4/165
f 338/4/166 337/4/166 353/4/166
f 341/4/167 340/4/167 347/4/167
f 345/6/168 344/6/168 367/6/168
f 348/6/169 341/6/169 347/6/169
f 343/6/170 340/6/170 342/6/170
f 349/6/171 339/6/171 447/6/171
f 350/6/172 364/6/172 352/6/172
f 356/4/173 374/4/173 355/4/173
f 357/4/174 352/4/174 358/4/174
f 360/4/175 367/4/175 344/4/175
f 354/4/176 356/4/176 361/4/176
f 362/4/177 363/4/177 361/4/177
f 338/6/178 364/6/178 351/6/178
f 365/4/179 363/4/179 362/4/179
f 360/4/180 368/4/180 359/4/180
f 371/4/181 358/4/181 370/4/181
f 372/6/182 349/6/182 379/6/182
f 340/4/183 382/4/183 347/4/183
f 355/6/184 390/6/184 375/6/184
f 353/4/185 372/4/185 376/4/185
f 364/6/186 376/6/186 387/6/186
f 369/6/187 377/6/187 368/6/187
f 381/6/188 366/6/188 365/6/188
f 377/6/189 375/6/189 390/6/189
f 384/6/190 380/6/190 381/6/190
f 548/5/28 545/5/28 542/5/28
f 373/4/191 372/4/191 382/4/191
f 340/6/192 386/6/192 373/6/192
f 379/6/193 382/6/193 372/6/193
f 376/6/194 386/6/194 387/6/194
f 385/6/195 347/6/195 382/6/195
f 388/4/196 354/4/196 361/4/196
f 363/4/197 389/4/197 361/4/197
f 352/6/198 387/6/198 391/6/198
f 367/6/199 386/6/199 345/6/199
f 389/4/200 388/4/200 361/4/200
f 358/4/201 391/4/201 400/4/201
f 367/4/202 401/4/202 392/4/202
f 391/6/203 386/6/203 392/6/203
f 354/4/204 412/4/204 374/4/204
f 370/6/205 384/6/205 371/6/205
f 366/4/206 389/4/206 363/4/206
f 394/6/207 399/6/207 398/6/207
f 396/6/208 395/6/208 394/6/208
f 396/6/209 403/6/209 397/6/209
f 398/6/210 443/6/210 407/6/210
f 402/6/211 398/6/211 408/6/211
f 404/6/212 405/6/212 403/6/212
f 396/6/213 402/6/213 409/6/213
f 406/6/214 443/6/214 405/6/214
f 408/6/215 407/6/215 414/6/215
f 404/6/216 409/6/216 410/6/216
f 406/6/217 410/6/217 411/6/217
f 407/6/218 411/6/218 414/6/218
f 374/6/219 440/6/219 390/6/219
f 370/4/220 400/4/220 413/4/220
f 392/4/221 400/4/221 391/4/221
f 479/6/222 476/6/222 489/6/222
f 412/4/223 389/4/223 393/4/223
f 410/6/224 416/6/224 421/6/224
f 402/6/225 417/6/225 415/6/225
f 380/6/226 393/6/226 366/6/226
f 417/6/227 414/6/227 420/6/227
f 419/6/228 410/6/228 421/6/228
f 485/6/229 487/6/229 475/6/229
f 377/6/230 442/6/230 368/6/230
f 424/6/231 429/6/231 423/6/231
f 377/6/232 440/6/232 422/6/232
f 424/6/233 432/6/233 431/6/233
f 383/6/234 418/6/234 380/6/234
f 427/6/235 416/6/235 426/6/235
f 428/6/236 417/6/236 438/6/236
f 430/6/237 435/6/237 429/6/237
f 431/6/238 439/6/238 437/6/238
f 419/6/239 427/6/239 433/6/239
f 426/6/240 431/6/240 427/6/240
f 417/6/241 434/6/241 438/6/241
f 428/6/242 424/6/242 426/6/242
f 436/6/243 444/6/243 445/6/243
f 427/6/244 437/6/244 433/6/244
f 437/6/245 444/6/245 441/6/245
f 436/6/246 428/6/246 438/6/246
f 433/6/247 441/6/247 434/6/247
f 441/6/248 438/6/248 434/6/248
f 400/4/249 442/4/249 413/4/249
f 440/6/250 393/6/250 418/6/250
f 413/6/251 422/6/251 425/6/251
f 422/6/252 418/6/252 425/6/252
f 413/6/253 383/6/253 370/6/253
f 444/4/254 439/4/254 405/4/254
f 338/4/255 457/4/255 339/4/255
f 341/4/256 454/4/256 342/4/256
f 356/4/257 450/4/257 361/4/257
f 451/4/258 362/4/258 361/4/258
f 338/6/259 452/6/259 448/6/259
f 343/6/260 454/6/260 453/6/260
f 375/6/261 484/6/261 455/6/261
f 381/6/262 456/6/262 482/6/262
f 365/4/263 451/4/263 456/4/263
f 447/6/264 457/6/264 480/6/264
f 449/6/265 346/6/265 446/6/265
f 343/6/266 470/6/266 344/6/266
f 507/6/267 483/6/267 473/6/267
f 460/6/268 459/6/268 458/6/268
f 448/4/269 449/4/269 457/4/269
f 384/6/270 491/6/270 371/6/270
f 464/6/271 483/6/271 463/6/271
f 369/6/272 484/6/272 378/6/272
f 466/6/273 461/6/273 460/6/273
f 469/6/274 463/6/274 468/6/274
f 466/6/275 468/6/275 467/6/275
f 344/4/276 472/4/276 360/4/276
f 351/6/277 471/6/277 452/6/277
f 454/6/278 452/6/278 453/6/278
f 360/4/279 465/4/279 369/4/279
f 474/6/280 473/6/280 481/6/280
f 473/6/281 475/6/281 481/6/281
f 476/6/282 458/6/282 474/6/282
f 357/4/283 471/4/283 350/4/283
f 450/4/284 451/4/284 361/4/284
f 464/6/285 478/6/285 475/6/285
f 466/6/286 476/6/286 479/6/286
f 469/6/287 479/6/287 478/6/287
f 480/6/288 449/6/288 446/6/288
f 516/5/19 519/5/19 520/5/19
f 485/6/289 478/6/289 490/6/289
f 478/6/290 486/6/290 490/6/290
f 142/4/291 144/4/291 143/4/291
f 488/6/292 481/6/292 487/6/292
f 476/6/293 488/6/293 489/6/293
f 453/6/294 471/6/294 470/6/294
f 355/6/295 455/6/295 492/6/295
f 492/4/296 356/4/296 355/4/296
f 493/6/297 496/6/297 495/6/297
f 495/6/298 511/6/298 505/6/298
f 381/6/299 462/6/299 384/6/299
f 497/6/300 494/6/300 493/6/300
f 497/6/301 501/6/301 498/6/301
f 456/4/302 450/4/302 492/4/302
f 485/6/303 499/6/303 500/6/303
f 499/6/304 486/6/304 506/6/304
f 499/6/305 495/6/305 500/6/305
f 502/6/306 503/6/306 501/6/306
f 504/6/307 511/6/307 503/6/307
f 500/6/308 505/6/308 508/6/308
f 506/6/309 493/6/309 499/6/309
f 482/6/310 492/6/310 455/6/310
f 488/6/311 508/6/311 510/6/311
f 509/6/312 488/6/312 510/6/312
f 505/6/313 510/6/313 508/6/313
f 470/4/314 477/4/314 472/4/314
f 509/6/315 497/6/315 506/6/315
f 504/6/316 509/6/316 510/6/316
f 462/6/317 455/6/317 484/6/317
f 472/4/318 491/4/318 465/4/318
f 462/6/319 465/6/319 491/6/319
f 371/4/320 477/4/320 357/4/320
f 368/4/321 401/4/321 359/4/321
f 523/5/322 528/5/322 522/5/322
f 556/5/140 561/5/140 553/5/140
f 526/5/140 531/5/140 523/5/140
f 346/6/1 385/6/1 349/6/1
f 515/5/323 516/5/323 517/5/323
f 516/5/324 513/5/324 517/5/324
f 513/5/325 512/5/325 517/5/325
f 512/5/326 515/5/326 517/5/326
f 519/5/327 518/5/327 514/5/327
f 514/5/328 520/5/328 519/5/328
f 521/5/329 520/5/329 514/5/329
f 518/5/330 521/5/330 514/5/330
f 533/5/322 538/5/322 532/5/322
f 264/4/3 266/4/3 271/4/3
f 536/5/140 541/5/140 533/5/140
f 525/5/323 526/5/323 527/5/323
f 526/5/324 523/5/324 527/5/324
f 523/5/325 522/5/325 527/5/325
f 522/5/326 525/5/326 527/5/326
f 529/5/327 528/5/327 524/5/327
f 524/5/328 530/5/328 529/5/328
f 531/5/329 530/5/329 524/5/329
f 528/5/331 531/5/331 524/5/331
f 543/5/322 548/5/322 542/5/322
f 535/5/323 536/5/323 537/5/323
f 536/5/324 533/5/324 537/5/324
f 533/5/325 532/5/325 537/5/325
f 532/5/326 535/5/326 537/5/326
f 539/5/327 538/5/327 534/5/327
f 534/5/328 540/5/328 539/5/328
f 541/5/329 540/5/329 534/5/329
f 538/5/331 541/5/331 534/5/331
f 513/5/322 518/5/322 512/5/322
f 28/2/12 29/2/12 42/2/12
f 545/5/323 546/5/323 547/5/323
f 546/5/324 543/5/324 547/5/324
f 543/5/325 542/5/325 547/5/325
f 542/5/326 545/5/326 547/5/326
f 549/5/327 548/5/327 544/5/327
f 544/5/328 550/5/328 549/5/328
f 551/5/329 550/5/329 544/5/329
f 548/5/331 551/5/331 544/5/331
f 546/5/19 549/5/19 550/5/19
f 553/5/322 558/5/322 552/5/322
f 46/2/332 29/2/332 30/2/332
f 555/5/323 556/5/323 557/5/323
f 556/5/324 553/5/324 557/5/324
f 553/5/325 552/5/325 557/5/325
f 552/5/326 555/5/326 557/5/326
f 559/5/327 558/5/327 554/5/327
f 554/5/328 560/5/328 559/5/328
f 561/5/329 560/5/329 554/5/329
f 558/5/331 561/5/331 554/5/331
f 5/1/1 6/1/1 45/1/1
f 44/1/2 45/1/2 64/1/2
f 45/1/2 6/1/2 64/1/2
f 2/1/27 32/1/27 31/1/27
f 31/1/333 15/1/333 4/1/333
f 229/4/3 230/4/3 235/4/3
f 230/4/3 236/4/3 235/4/3
f 233/4/3 227/4/3 228/4/3
f 229/4/3 235/4/3 234/4/3
f 234/4/3 233/4/3 228/4/3
f 147/4/334 146/4/334 148/4/334
f 148/4/335 150/4/335 149/4/335
f 3/2/1 35/2/1 10/2/1
f 35/2/1 58/2/1 36/2/1
f 10/2/1 35/2/1 36/2/1
f 58/2/1 34/2/1 36/2/1
f 34/2/1 2/2/1 12/2/1
f 2/2/336 4/2/336 12/2/336
f 4/2/337 7/2/337 12/2/337
f 34/2/1 12/2/1 36/2/1
f 8/2/338 38/2/338 10/2/338
f 14/2/339 18/2/339 17/2/339
f 15/2/340 19/2/340 18/2/340
f 17/1/3 21/1/3 20/1/3
f 18/2/2 22/2/2 21/2/2
f 18/2/9 19/2/9 23/2/9
f 19/2/27 16/2/27 20/2/27
f 28/1/11 25/1/11 24/1/11
f 29/1/12 26/1/12 40/1/12
f 20/1/14 21/1/14 28/1/14
f 21/2/341 22/2/341 29/2/341
f 23/2/342 30/2/342 29/2/342
f 20/2/343 27/2/343 30/2/343
f 31/2/164 16/2/164 19/2/164
f 556/5/19 555/5/19 559/5/19
f 14/1/2 13/1/2 3/1/2
f 87/4/3 88/4/3 93/4/3
f 88/4/3 94/4/3 93/4/3
f 95/4/3 89/4/3 90/4/3
f 96/4/3 95/4/3 90/4/3
f 86/4/3 87/4/3 92/4/3
f 87/4/3 93/4/3 92/4/3
f 96/4/3 90/4/3 91/4/3
f 90/4/3 85/4/3 91/4/3
f 86/4/3 92/4/3 85/4/3
f 536/5/19 535/5/19 539/5/19
f 13/1/3 33/1/3 37/1/3
f 37/1/3 35/1/3 13/1/3
f 282/4/3 288/4/3 281/4/3
f 288/4/3 286/4/3 287/4/3
f 286/4/3 285/4/3 287/4/3
f 285/4/3 284/4/3 287/4/3
f 287/4/3 281/4/3 288/4/3
f 528/5/28 529/5/28 525/5/28
f 52/2/3 53/2/3 36/2/3
f 11/2/3 9/2/3 50/2/3
f 11/2/3 50/2/3 51/2/3
f 52/2/3 36/2/3 12/2/3
f 11/2/3 51/2/3 12/2/3
f 10/1/3 53/1/3 50/1/3
f 51/1/29 50/1/29 54/1/29
f 52/1/30 51/1/30 55/1/30
f 53/1/31 57/1/31 54/1/31
f 57/1/32 53/1/32 52/1/32
f 526/5/19 525/5/19 529/5/19
f 15/2/9 14/2/9 7/2/9
f 558/5/28 559/5/28 555/5/28
f 6/1/9 5/1/9 7/1/9
f 7/1/9 14/1/9 38/1/9
f 38/1/9 63/1/9 66/1/9
f 66/1/9 65/1/9 38/1/9
f 65/1/9 6/1/9 38/1/9
f 60/1/344 73/1/344 74/1/344
f 71/1/345 72/1/345 64/1/345
f 59/1/346 1/1/346 43/1/346
f 4/1/347 67/1/347 73/1/347
f 73/1/348 60/1/348 11/1/348
f 11/1/349 7/1/349 73/1/349
f 1/2/27 59/2/27 74/2/27
f 74/2/27 68/2/27 49/2/27
f 64/2/350 65/2/350 66/2/350
f 60/1/351 59/1/351 70/1/351
f 62/2/352 61/2/352 76/2/352
f 73/1/353 67/1/353 68/1/353
f 70/1/354 62/1/354 75/1/354
f 44/1/44 61/1/44 62/1/44
f 70/1/44 59/1/44 44/1/44
f 72/2/2 76/2/2 44/2/2
f 76/2/2 61/2/2 44/2/2
f 77/2/355 76/2/355 72/2/355
f 9/1/356 78/1/356 77/1/356
f 71/1/357 63/1/357 38/1/357
f 9/1/356 77/1/356 71/1/356
f 38/1/358 8/1/358 71/1/358
f 11/1/359 60/1/359 69/1/359
f 69/1/360 75/1/360 9/1/360
f 75/1/360 78/1/360 9/1/360
f 80/4/48 86/4/48 85/4/48
f 80/4/49 81/4/49 87/4/49
f 82/4/50 88/4/50 87/4/50
f 83/4/51 89/4/51 88/4/51
f 84/4/52 90/4/52 89/4/52
f 79/4/53 85/4/53 90/4/53
f 2/2/3 34/2/3 33/2/3
f 34/2/3 37/2/3 33/2/3
f 101/4/3 102/4/3 97/4/3
f 97/4/3 98/4/3 99/4/3
f 99/4/3 100/4/3 97/4/3
f 24/2/54 48/2/54 27/2/54
f 48/2/54 47/2/54 30/2/54
f 89/4/3 95/4/3 94/4/3
f 92/4/55 98/4/55 97/4/55
f 92/4/56 93/4/56 99/4/56
f 94/4/57 100/4/57 99/4/57
f 95/4/58 101/4/58 100/4/58
f 95/4/59 96/4/59 102/4/59
f 91/4/165 97/4/165 102/4/165
f 133/4/361 136/4/361 135/4/361
f 137/4/362 133/4/362 139/4/362
f 140/4/363 137/4/363 138/4/363
f 205/4/364 204/4/364 200/4/364
f 204/4/365 201/4/365 200/4/365
f 201/4/366 202/4/366 200/4/366
f 145/4/367 140/4/367 141/4/367
f 206/4/368 204/4/368 205/4/368
f 205/4/369 207/4/369 206/4/369
f 209/4/370 211/4/370 210/4/370
f 211/4/371 212/4/371 210/4/371
f 210/4/372 208/4/372 207/4/372
f 154/4/373 156/4/373 155/4/373
f 428/6/374 426/6/374 415/6/374
f 426/6/375 416/6/375 415/6/375
f 416/6/376 409/6/376 415/6/376
f 419/6/377 433/6/377 420/6/377
f 433/6/378 434/6/378 420/6/378
f 420/6/379 414/6/379 411/6/379
f 134/4/380 135/4/380 122/4/380
f 122/4/381 135/4/381 136/4/381
f 136/4/382 133/4/382 120/4/382
f 138/4/383 139/4/383 124/4/383
f 120/4/384 133/4/384 137/4/384
f 124/4/385 139/4/385 134/4/385
f 126/4/386 141/4/386 138/4/386
f 119/4/387 137/4/387 140/4/387
f 143/4/388 144/4/388 127/4/388
f 117/4/389 145/4/389 142/4/389
f 127/4/390 144/4/390 141/4/390
f 118/4/391 140/4/391 145/4/391
f 103/4/392 146/4/392 143/4/392
f 142/4/393 147/4/393 115/4/393
f 147/4/394 149/4/394 114/4/394
f 150/4/395 148/4/395 104/4/395
f 148/4/396 146/4/396 103/4/396
f 114/4/397 149/4/397 151/4/397
f 152/4/398 150/4/398 105/4/398
f 151/4/399 153/4/399 112/4/399
f 107/4/400 154/4/400 152/4/400
f 153/4/401 155/4/401 111/4/401
f 156/4/402 154/4/402 107/4/402
f 109/4/403 157/4/403 156/4/403
f 111/4/404 155/4/404 158/4/404
f 110/4/405 158/4/405 159/4/405
f 129/4/406 160/4/406 157/4/406
f 159/4/407 161/4/407 132/4/407
f 162/4/408 160/4/408 129/4/408
f 191/4/409 192/4/409 193/4/409
f 195/4/410 196/4/410 197/4/410
f 198/4/411 199/4/411 196/4/411
f 203/4/412 202/4/412 199/4/412
f 150/4/413 152/4/413 149/4/413
f 152/4/414 154/4/414 153/4/414
f 151/4/415 152/4/415 153/4/415
f 212/4/416 211/4/416 213/4/416
f 217/4/417 161/4/417 218/4/417
f 161/4/418 159/4/418 162/4/418
f 159/4/419 158/4/419 157/4/419
f 158/4/420 155/4/420 157/4/420
f 159/4/421 157/4/421 160/4/421
f 155/4/422 156/4/422 157/4/422
f 213/4/423 216/4/423 215/4/423
f 216/4/424 217/4/424 215/4/424
f 215/4/425 217/4/425 218/4/425
f 215/4/426 214/4/426 213/4/426
f 159/4/427 160/4/427 162/4/427
f 182/4/428 193/4/428 192/4/428
f 182/4/429 181/4/429 194/4/429
f 180/4/430 191/4/430 194/4/430
f 184/4/431 197/4/431 196/4/431
f 180/4/432 179/4/432 195/4/432
f 184/4/433 183/4/433 192/4/433
f 186/4/434 185/4/434 196/4/434
f 179/4/435 178/4/435 198/4/435
f 187/4/436 202/4/436 201/4/436
f 177/4/437 176/4/437 200/4/437
f 187/4/438 186/4/438 199/4/438
f 178/4/439 177/4/439 203/4/439
f 163/4/440 188/4/440 201/4/440
f 175/4/441 205/4/441 200/4/441
f 174/4/442 207/4/442 205/4/442
f 164/4/443 206/4/443 208/4/443
f 163/4/444 204/4/444 206/4/444
f 174/4/445 173/4/445 209/4/445
f 165/4/446 208/4/446 210/4/446
f 172/4/447 211/4/447 209/4/447
f 167/4/448 166/4/448 210/4/448
f 171/4/449 213/4/449 211/4/449
f 167/4/450 212/4/450 214/4/450
f 169/4/451 168/4/451 214/4/451
f 171/4/452 170/4/452 216/4/452
f 170/4/453 190/4/453 217/4/453
f 189/4/454 169/4/454 215/4/454
f 132/4/455 161/4/455 217/4/455
f 189/4/456 218/4/456 162/4/456
f 220/4/48 226/4/48 225/4/48
f 220/4/49 221/4/49 227/4/49
f 222/4/50 228/4/50 227/4/50
f 223/4/51 229/4/51 228/4/51
f 223/4/52 224/4/52 230/4/52
f 224/4/53 219/4/53 225/4/53
f 256/4/3 258/4/3 257/4/3
f 258/4/3 252/4/3 251/4/3
f 257/4/3 258/4/3 251/4/3
f 252/4/3 253/4/3 251/4/3
f 257/4/3 254/4/3 255/4/3
f 241/4/3 242/4/3 237/4/3
f 237/4/3 238/4/3 239/4/3
f 239/4/3 240/4/3 237/4/3
f 226/4/3 227/4/3 232/4/3
f 227/4/3 233/4/3 232/4/3
f 236/4/3 230/4/3 231/4/3
f 230/4/3 225/4/3 231/4/3
f 226/4/3 232/4/3 225/4/3
f 67/1/9 4/1/9 49/1/9
f 4/1/9 7/1/9 49/1/9
f 232/4/138 238/4/138 237/4/138
f 232/4/56 233/4/56 239/4/56
f 234/4/57 240/4/57 239/4/57
f 235/4/58 241/4/58 240/4/58
f 235/4/59 236/4/59 242/4/59
f 231/4/165 237/4/165 242/4/165
f 516/5/140 520/5/140 521/5/140
f 518/5/28 519/5/28 515/5/28
f 247/4/457 246/4/457 253/4/457
f 245/4/458 251/4/458 253/4/458
f 250/4/459 255/4/459 254/4/459
f 249/4/460 256/4/460 255/4/460
f 244/4/461 243/4/461 254/4/461
f 248/4/462 247/4/462 252/4/462
f 244/4/463 257/4/463 251/4/463
f 248/4/464 258/4/464 256/4/464
f 264/4/465 263/4/465 260/4/465
f 260/4/466 263/4/466 265/4/466
f 266/4/467 264/4/467 261/4/467
f 268/4/468 270/4/468 271/4/468
f 272/4/469 267/4/469 259/4/469
f 268/4/470 267/4/470 272/4/470
f 269/4/471 271/4/471 266/4/471
f 546/5/140 550/5/140 551/5/140
f 277/4/472 282/4/472 283/4/472
f 283/4/473 281/4/473 275/4/473
f 284/4/474 285/4/474 280/4/474
f 285/4/475 286/4/475 279/4/475
f 274/4/476 287/4/476 284/4/476
f 278/4/477 288/4/477 282/4/477
f 281/4/478 287/4/478 274/4/478
f 286/4/479 288/4/479 278/4/479
f 290/4/48 296/4/48 295/4/48
f 291/4/49 297/4/49 296/4/49
f 292/4/50 298/4/50 297/4/50
f 293/4/51 299/4/51 298/4/51
f 293/4/52 294/4/52 300/4/52
f 289/4/53 295/4/53 300/4/53
f 33/1/164 13/1/164 17/1/164
f 16/1/164 31/1/164 33/1/164
f 309/4/3 310/4/3 307/4/3
f 310/4/3 311/4/3 307/4/3
f 311/4/3 312/4/3 307/4/3
f 324/4/3 319/4/3 325/4/3
f 324/4/3 325/4/3 330/4/3
f 327/4/3 321/4/3 322/4/3
f 328/4/3 327/4/3 322/4/3
f 323/4/3 324/4/3 329/4/3
f 324/4/3 330/4/3 329/4/3
f 329/4/3 328/4/3 323/4/3
f 296/4/3 297/4/3 303/4/3
f 296/4/3 303/4/3 302/4/3
f 304/4/3 298/4/3 299/4/3
f 305/4/3 304/4/3 299/4/3
f 295/4/3 296/4/3 302/4/3
f 295/4/3 302/4/3 301/4/3
f 305/4/3 299/4/3 300/4/3
f 295/4/3 301/4/3 300/4/3
f 301/4/3 306/4/3 300/4/3
f 298/4/3 304/4/3 303/4/3
f 538/5/28 539/5/28 535/5/28
f 302/4/55 308/4/55 307/4/55
f 302/4/56 303/4/56 309/4/56
f 304/4/57 310/4/57 309/4/57
f 305/4/58 311/4/58 310/4/58
f 306/4/59 312/4/59 311/4/59
f 301/4/165 307/4/165 312/4/165
f 314/4/48 320/4/48 319/4/48
f 315/4/49 321/4/49 320/4/49
f 316/4/50 322/4/50 321/4/50
f 317/4/51 323/4/51 322/4/51
f 317/4/52 318/4/52 324/4/52
f 318/4/53 313/4/53 319/4/53
f 320/4/3 321/4/3 327/4/3
f 326/4/3 325/4/3 319/4/3
f 320/4/3 327/4/3 326/4/3
f 40/1/164 26/1/164 48/1/164
f 26/1/164 46/1/164 48/1/164
f 48/1/164 24/1/164 41/1/164
f 24/1/164 25/1/164 39/1/164
f 41/1/164 40/1/164 48/1/164
f 332/4/3 333/4/3 334/4/3
f 334/4/3 335/4/3 336/4/3
f 336/4/3 331/4/3 332/4/3
f 326/4/138 332/4/138 331/4/138
f 326/4/56 327/4/56 333/4/56
f 328/4/57 334/4/57 333/4/57
f 329/4/58 335/4/58 334/4/58
f 330/4/59 336/4/59 335/4/59
f 325/4/165 331/4/165 336/4/165
f 338/4/480 339/4/480 337/4/480
f 341/4/481 342/4/481 340/4/481
f 345/6/168 343/6/168 344/6/168
f 348/6/169 346/6/169 341/6/169
f 343/6/170 345/6/170 340/6/170
f 349/6/171 337/6/171 339/6/171
f 350/6/172 351/6/172 364/6/172
f 356/4/173 354/4/173 374/4/173
f 357/4/174 350/4/174 352/4/174
f 360/4/175 359/4/175 367/4/175
f 338/6/178 353/6/178 364/6/178
f 365/4/179 366/4/179 363/4/179
f 360/4/482 369/4/482 368/4/482
f 371/4/181 357/4/181 358/4/181
f 372/6/182 337/6/182 349/6/182
f 340/4/183 373/4/183 382/4/183
f 355/6/184 374/6/184 390/6/184
f 353/4/185 337/4/185 372/4/185
f 364/6/186 353/6/186 376/6/186
f 369/6/187 378/6/187 377/6/187
f 381/6/188 380/6/188 366/6/188
f 377/6/189 378/6/189 375/6/189
f 384/6/190 383/6/190 380/6/190
f 548/5/28 549/5/28 545/5/28
f 373/4/191 376/4/191 372/4/191
f 340/6/192 345/6/192 386/6/192
f 379/6/193 385/6/193 382/6/193
f 376/6/194 373/6/194 386/6/194
f 385/6/195 348/6/195 347/6/195
f 352/6/198 364/6/198 387/6/198
f 367/6/199 392/6/199 386/6/199
f 358/4/201 352/4/201 391/4/201
f 367/4/202 359/4/202 401/4/202
f 391/6/203 387/6/203 386/6/203
f 354/4/204 388/4/204 412/4/204
f 370/6/205 383/6/205 384/6/205
f 366/4/206 393/4/206 389/4/206
f 394/6/483 395/6/483 399/6/483
f 396/6/484 397/6/484 395/6/484
f 396/6/485 404/6/485 403/6/485
f 398/6/486 399/6/486 443/6/486
f 402/6/487 394/6/487 398/6/487
f 404/6/488 406/6/488 405/6/488
f 396/6/489 394/6/489 402/6/489
f 406/6/490 407/6/490 443/6/490
f 408/6/491 398/6/491 407/6/491
f 404/6/492 396/6/492 409/6/492
f 406/6/493 404/6/493 410/6/493
f 407/6/494 406/6/494 411/6/494
f 374/6/219 412/6/219 440/6/219
f 370/4/495 358/4/495 400/4/495
f 392/4/221 401/4/221 400/4/221
f 509/6/496 506/6/496 489/6/496
f 506/6/497 486/6/497 489/6/497
f 486/6/498 479/6/498 489/6/498
f 412/4/223 388/4/223 389/4/223
f 410/6/499 409/6/499 416/6/499
f 402/6/500 408/6/500 417/6/500
f 380/6/226 418/6/226 393/6/226
f 417/6/501 408/6/501 414/6/501
f 419/6/502 411/6/502 410/6/502
f 485/6/503 500/6/503 487/6/503
f 500/6/504 508/6/504 487/6/504
f 487/6/505 481/6/505 475/6/505
f 377/6/230 422/6/230 442/6/230
f 424/6/506 430/6/506 429/6/506
f 377/6/232 390/6/232 440/6/232
f 424/6/507 423/6/507 432/6/507
f 383/6/234 425/6/234 418/6/234
f 427/6/508 421/6/508 416/6/508
f 428/6/509 415/6/509 417/6/509
f 430/6/510 436/6/510 435/6/510
f 431/6/511 432/6/511 439/6/511
f 419/6/512 421/6/512 427/6/512
f 426/6/513 424/6/513 431/6/513
f 417/6/514 420/6/514 434/6/514
f 428/6/515 430/6/515 424/6/515
f 445/6/516 435/6/516 436/6/516
f 436/6/517 441/6/517 444/6/517
f 427/6/518 431/6/518 437/6/518
f 437/6/519 439/6/519 444/6/519
f 436/6/520 430/6/520 428/6/520
f 433/6/521 437/6/521 441/6/521
f 441/6/522 436/6/522 438/6/522
f 400/4/523 401/4/523 442/4/523
f 440/6/250 412/6/250 393/6/250
f 413/6/251 442/6/251 422/6/251
f 422/6/252 440/6/252 418/6/252
f 413/6/253 425/6/253 383/6/253
f 338/4/255 448/4/255 457/4/255
f 341/4/256 449/4/256 454/4/256
f 338/6/259 351/6/259 452/6/259
f 343/6/260 342/6/260 454/6/260
f 375/6/261 378/6/261 484/6/261
f 381/6/262 365/6/262 456/6/262
f 365/4/263 362/4/263 451/4/263
f 447/6/264 339/6/264 457/6/264
f 449/6/265 341/6/265 346/6/265
f 343/6/266 453/6/266 470/6/266
f 473/6/524 458/6/524 507/6/524
f 458/6/525 459/6/525 507/6/525
f 460/6/526 461/6/526 459/6/526
f 448/4/269 454/4/269 449/4/269
f 384/6/270 462/6/270 491/6/270
f 464/6/527 473/6/527 483/6/527
f 369/6/272 465/6/272 484/6/272
f 466/6/528 467/6/528 461/6/528
f 469/6/529 464/6/529 463/6/529
f 466/6/530 469/6/530 468/6/530
f 344/4/276 470/4/276 472/4/276
f 351/6/277 350/6/277 471/6/277
f 454/6/278 448/6/278 452/6/278
f 360/4/531 472/4/531 465/4/531
f 474/6/532 458/6/532 473/6/532
f 473/6/533 464/6/533 475/6/533
f 476/6/534 460/6/534 458/6/534
f 357/4/283 477/4/283 471/4/283
f 464/6/535 469/6/535 478/6/535
f 466/6/536 460/6/536 476/6/536
f 469/6/537 466/6/537 479/6/537
f 480/6/288 457/6/288 449/6/288
f 516/5/19 515/5/19 519/5/19
f 485/6/538 475/6/538 478/6/538
f 478/6/539 479/6/539 486/6/539
f 143/4/540 146/4/540 142/4/540
f 146/4/541 147/4/541 142/4/541
f 142/4/542 145/4/542 144/4/542
f 488/6/543 474/6/543 481/6/543
f 476/6/544 474/6/544 488/6/544
f 453/6/294 452/6/294 471/6/294
f 355/6/295 375/6/295 455/6/295
f 492/4/296 450/4/296 356/4/296
f 493/6/545 494/6/545 496/6/545
f 495/6/546 496/6/546 511/6/546
f 381/6/299 482/6/299 462/6/299
f 497/6/547 498/6/547 494/6/547
f 497/6/548 502/6/548 501/6/548
f 456/4/302 451/4/302 450/4/302
f 485/6/549 490/6/549 499/6/549
f 499/6/550 490/6/550 486/6/550
f 499/6/551 493/6/551 495/6/551
f 502/6/552 504/6/552 503/6/552
f 504/6/553 505/6/553 511/6/553
f 500/6/554 495/6/554 505/6/554
f 506/6/555 497/6/555 493/6/555
f 482/6/310 456/6/310 492/6/310
f 488/6/556 487/6/556 508/6/556
f 509/6/557 489/6/557 488/6/557
f 505/6/558 504/6/558 510/6/558
f 470/4/314 471/4/314 477/4/314
f 509/6/559 502/6/559 497/6/559
f 504/6/560 502/6/560 509/6/560
f 462/6/317 482/6/317 455/6/317
f 472/4/318 477/4/318 491/4/318
f 462/6/319 484/6/319 465/6/319
f 371/4/320 491/4/320 477/4/320
f 368/4/321 442/4/321 401/4/321
f 523/5/322 531/5/322 528/5/322
f 556/5/140 560/5/140 561/5/140
f 526/5/140 530/5/140 531/5/140
f 480/6/1 446/6/1 346/6/1
f 346/6/1 348/6/1 385/6/1
f 385/6/1 379/6/1 349/6/1
f 349/6/1 447/6/1 480/6/1
f 480/6/1 346/6/1 349/6/1
f 533/5/322 541/5/322 538/5/322
f 271/4/3 270/4/3 264/4/3
f 270/4/3 272/4/3 265/4/3
f 263/4/3 270/4/3 265/4/3
f 263/4/3 264/4/3 270/4/3
f 536/5/140 540/5/140 541/5/140
f 543/5/322 551/5/322 548/5/322
f 513/5/322 521/5/322 518/5/322
f 42/2/12 39/2/12 28/2/12
f 39/2/12 25/2/12 28/2/12
f 546/5/19 545/5/19 549/5/19
f 553/5/322 561/5/322 558/5/322
f 30/2/332 47/2/332 46/2/332
f 46/2/332 26/2/332 29/2/332
