# Blender 5.2.2 LTS
# www.blender.org
mtllib ruins_find_manifest.mtl
o piece
v 0.164007 0.182397 -0.056233
v 0.114718 0.182397 -0.056233
v 0.090074 0.182397 -0.013548
v 0.114718 0.182397 0.029138
v 0.164007 0.182397 0.029138
v 0.188652 0.182397 -0.013548
v 0.164007 0.252108 -0.056233
v 0.114718 0.252108 -0.056233
v 0.090074 0.252108 -0.013548
v 0.114718 0.252108 0.029138
v 0.164007 0.252108 0.029138
v 0.188652 0.252108 -0.013548
v 0.150011 0.164202 -0.031991
v 0.128715 0.164202 -0.031991
v 0.118066 0.164202 -0.013548
v 0.128715 0.164202 0.004896
v 0.150011 0.164202 0.004896
v 0.160659 0.164202 -0.013548
v 0.175047 0.032820 -0.053093
v 0.154813 0.025914 -0.052496
v 0.146751 0.017983 -0.034343
v 0.158922 0.016957 -0.016786
v 0.179156 0.023863 -0.017382
v 0.187218 0.031794 -0.035536
v 0.159560 -0.128131 -0.064697
v 0.140291 -0.118922 -0.063539
v 0.130497 -0.116959 -0.044627
v 0.139971 -0.124205 -0.026874
v 0.159240 -0.133415 -0.028032
v 0.169035 -0.135378 -0.046944
v 0.032201 -0.231263 -0.013548
v 0.018646 -0.215139 -0.013548
v 0.026180 -0.195458 -0.013548
v 0.047270 -0.191901 -0.013548
v 0.060826 -0.208025 -0.013548
v 0.053292 -0.227706 -0.013548
v 0.045363 -0.178115 -0.037070
v 0.040417 -0.192862 -0.047225
v 0.051735 -0.210685 -0.046476
v 0.068001 -0.213761 -0.035571
v 0.072947 -0.199014 -0.025416
v 0.061628 -0.181191 -0.026165
v -0.028082 -0.275029 0.064699
v 0.065707 -0.275029 0.064699
v -0.028082 -0.249597 0.064699
v 0.065707 -0.249597 0.064699
v -0.028082 -0.230354 0.034643
v 0.065707 -0.230354 0.034643
v -0.028082 -0.275029 0.034643
v 0.065707 -0.275029 0.034643
v 0.164007 0.287132 -0.056233
v 0.139363 0.287132 -0.013548
v 0.114718 0.287132 -0.056233
v 0.090074 0.287132 -0.013548
v 0.114718 0.287132 0.029138
v 0.164007 0.287132 0.029138
v 0.188652 0.287132 -0.013548
v 0.164007 0.272938 -0.056233
v 0.188652 0.272938 -0.013548
v 0.164007 0.272938 0.029138
v 0.114718 0.272938 0.029138
v 0.090074 0.272938 -0.013548
v 0.114718 0.272938 -0.056233
v 0.176787 0.255815 -0.013548
v 0.158075 0.255815 -0.045958
v 0.176787 0.269231 -0.013548
v 0.158075 0.269231 -0.045958
v 0.158075 0.255815 0.018863
v 0.158075 0.269231 0.018863
v 0.120651 0.255815 0.018863
v 0.120651 0.269231 0.018863
v 0.101939 0.255815 -0.013548
v 0.101939 0.269231 -0.013548
v 0.120651 0.255815 -0.045958
v 0.120651 0.269231 -0.045958
v -0.130437 -0.287132 0.051186
v 0.160900 -0.287132 0.051186
v -0.209916 0.211067 0.035598
v 0.240379 0.211067 0.051186
v -0.209916 0.211067 -0.013548
v 0.240379 0.211067 -0.013548
v -0.130437 -0.287132 -0.013548
v 0.160900 -0.287132 -0.013548
v -0.209916 -0.169901 -0.013548
v -0.209916 -0.169901 0.051186
v 0.240379 -0.169901 0.051186
v 0.240379 -0.169901 -0.013548
v -0.169501 0.241647 0.051186
v 0.199964 0.241647 0.051186
v 0.199964 0.241647 -0.013548
v -0.169501 0.241647 -0.013548
v -0.182110 -0.153922 0.051186
v 0.212573 -0.153922 0.051186
v 0.212573 0.185680 0.051186
v -0.182110 0.185680 0.051186
v -0.112447 -0.258424 0.051186
v 0.142910 -0.258424 0.051186
v 0.177149 0.212939 0.051186
v -0.146686 0.212938 0.051186
v -0.171054 -0.146995 0.034642
v 0.201517 -0.146994 0.034642
v 0.201517 0.174673 0.034642
v -0.171054 0.174673 0.034642
v -0.105294 -0.245978 0.034643
v 0.135756 -0.245978 0.034643
v 0.168077 0.200492 0.034642
v -0.137615 0.200492 0.034642
v -0.209916 0.013623 0.051186
v -0.209916 0.013623 -0.013548
v -0.240379 -0.159267 -0.013548
v -0.240379 -0.159267 0.051186
v -0.240379 0.002989 0.051186
v -0.240379 0.002989 -0.013548
v 0.240379 0.047437 0.051186
v 0.240379 0.162745 0.051186
v 0.227396 0.100594 0.051186
v 0.240379 0.114576 0.029689
v 0.212573 -0.084691 0.051186
v 0.212573 0.000344 0.051186
v 0.223813 -0.032903 0.051186
v 0.205632 -0.039522 0.040800
v -0.187234 0.228229 0.051186
v -0.194207 0.196725 0.051186
v -0.209916 0.151175 0.051186
vn -0.0000 -0.0000 -1.0000
vn -0.8660 -0.0000 -0.5000
vn -0.8660 -0.0000 0.5000
vn -0.0000 -0.0000 1.0000
vn 0.8660 -0.0000 0.5000
vn 0.8660 -0.0000 -0.5000
vn -0.0000 1.0000 -0.0000
vn -0.0000 -0.7998 -0.6003
vn -0.5198 -0.7998 -0.3001
vn -0.5198 -0.7998 0.3001
vn -0.0000 -0.7998 0.6003
vn 0.5198 -0.7998 0.3001
vn 0.5198 -0.7998 -0.3001
vn -0.0000 0.1467 -0.9892
vn -0.8618 -0.0983 -0.4976
vn -0.8035 -0.2447 0.5427
vn 0.0771 -0.1407 0.9870
vn 0.8909 0.1054 0.4417
vn 0.8042 0.2405 -0.5435
vn -0.0225 0.0782 -0.9967
vn -0.8731 0.1407 -0.4668
vn -0.8653 0.0808 0.4948
vn 0.0547 -0.0744 0.9957
vn 0.9259 -0.1250 0.3566
vn 0.8202 -0.0378 -0.5708
vn -0.6123 -0.4171 -0.6717
vn -0.8176 0.4864 -0.3081
vn -0.1814 0.8419 0.5082
vn 0.4735 0.3980 0.7857
vn 0.8679 -0.3323 0.3693
vn 0.1477 -0.8757 -0.4597
vn -0.5637 0.7391 -0.3687
vn -0.0891 -0.0983 -0.9912
vn 0.3541 -0.6175 -0.7024
vn 0.5293 -0.5944 0.6054
vn 0.0486 -0.0240 0.9985
vn -0.4915 0.6825 0.5409
vn -0.0000 0.8422 0.5392
vn -0.0000 -1.0000 -0.0000
vn 1.0000 -0.0000 -0.0000
vn -1.0000 -0.0000 -0.0000
vn 0.2939 0.9407 -0.1697
vn 0.2939 -0.9407 -0.1697
vn 0.2939 0.9407 0.1697
vn 0.2939 -0.9407 0.1697
vn -0.0000 0.9407 0.3394
vn -0.0000 -0.9407 0.3394
vn -0.2939 0.9407 0.1697
vn -0.2939 -0.9407 0.1697
vn -0.2939 0.9407 -0.1697
vn -0.2939 -0.9407 -0.1697
vn -0.0000 0.9407 -0.3394
vn -0.0000 -0.9407 -0.3394
vn -0.8277 -0.5612 -0.0000
vn 0.8277 -0.5612 -0.0000
vn 0.6034 0.7975 -0.0000
vn -0.6034 0.7975 -0.0000
vn -0.8314 -0.0000 0.5556
vn 0.8314 -0.0000 0.5556
vn -0.0000 0.7991 0.6012
vn -0.6570 0.4380 0.6136
vn 0.6541 0.4346 0.6191
vn -0.4455 -0.5789 0.6829
vn -0.0000 -0.7991 0.6012
vn 0.4474 -0.5794 0.6812
vn -0.3296 -0.9441 -0.0000
vn -0.3296 0.9441 -0.0000
vn 0.7805 0.1906 0.5954
vn -0.4482 -0.1515 0.8810
vn 0.8899 -0.1859 0.4166
vn -0.5237 0.1137 0.8443
vn -0.6304 0.1395 0.7636
vn -0.5898 0.2034 0.7815
vn -0.0781 0.1436 -0.9866
vn -0.8916 -0.1029 -0.4409
vn -0.8419 -0.2343 0.4861
vn -0.0000 -0.1457 0.9893
vn 0.8617 0.1000 0.4975
vn 0.8388 0.2487 -0.4843
vn -0.0557 0.0771 -0.9955
vn -0.9257 0.1202 -0.3586
vn -0.8191 0.0551 0.5710
vn 0.0243 -0.0745 0.9969
vn 0.8729 -0.1421 0.4668
vn 0.8700 -0.0612 -0.4893
vn -0.5814 -0.4888 -0.6504
vn -0.8767 0.3356 -0.3447
vn -0.1431 0.8487 0.5091
vn 0.4701 0.3329 0.8175
vn 0.7628 -0.5203 0.3840
vn 0.1425 -0.8765 -0.4598
vn -0.5371 0.5932 -0.5997
vn -0.1011 -0.0868 -0.9911
vn 0.4779 -0.6941 -0.5384
vn 0.5691 -0.7338 0.3709
vn -0.0147 0.0327 0.9994
vn -0.3656 0.5972 0.7139
vn -0.6541 0.4346 0.6191
vn 0.6570 0.4380 0.6136
vn -0.4474 -0.5794 0.6812
vn 0.4455 -0.5789 0.6829
vt 0.875000 0.875000
vt 0.125000 0.875000
vt 0.125000 0.125000
vt 0.625000 0.625000
s 0
usemtl ruins_find_manifest
f 2/1/1 7/1/1 1/1/1
f 3/1/2 8/1/2 2/1/2
f 4/1/3 9/1/3 3/1/3
f 5/1/4 10/1/4 4/1/4
f 6/1/5 11/1/5 5/1/5
f 1/1/6 12/1/6 6/1/6
f 51/1/7 53/1/7 52/1/7
f 53/1/7 54/1/7 52/1/7
f 54/1/7 55/1/7 52/1/7
f 55/1/7 56/1/7 52/1/7
f 56/1/7 57/1/7 52/1/7
f 57/1/7 51/1/7 52/1/7
f 1/1/8 14/1/8 2/1/8
f 3/1/9 14/1/9 15/1/9
f 3/1/10 16/1/10 4/1/10
f 4/1/11 17/1/11 5/1/11
f 5/1/12 18/1/12 6/1/12
f 6/1/13 13/1/13 1/1/13
f 13/2/14 20/2/14 14/2/14
f 14/2/15 21/2/15 15/2/15
f 16/2/16 21/2/16 22/2/16
f 17/2/17 22/2/17 23/2/17
f 18/2/18 23/2/18 24/2/18
f 13/2/19 24/2/19 19/2/19
f 20/2/20 25/2/20 26/2/20
f 21/2/21 26/2/21 27/2/21
f 22/2/22 27/2/22 28/2/22
f 22/2/23 29/2/23 23/2/23
f 23/2/24 30/2/24 24/2/24
f 24/2/25 25/2/25 19/2/25
f 39/2/26 32/2/26 38/2/26
f 38/2/27 33/2/27 37/2/27
f 37/2/28 34/2/28 42/2/28
f 41/2/29 34/2/29 35/2/29
f 40/2/30 35/2/30 36/2/30
f 39/2/31 36/2/31 31/2/31
f 26/2/32 37/2/32 27/2/32
f 26/2/33 39/2/33 38/2/33
f 25/2/34 40/2/34 39/2/34
f 30/2/35 41/2/35 40/2/35
f 28/2/36 41/2/36 29/2/36
f 27/2/37 42/2/37 28/2/37
f 44/1/4 45/1/4 43/1/4
f 46/1/38 47/1/38 45/1/38
f 50/1/39 43/1/39 49/1/39
f 50/1/40 46/1/40 44/1/40
f 49/1/41 45/1/41 47/1/41
f 53/1/1 58/1/1 63/1/1
f 54/1/2 63/1/2 62/1/2
f 55/1/3 62/1/3 61/1/3
f 56/1/4 61/1/4 60/1/4
f 59/1/5 56/1/5 60/1/5
f 51/1/6 59/1/6 58/1/6
f 67/2/6 64/2/6 65/2/6
f 66/2/5 68/2/5 64/2/5
f 69/2/4 70/2/4 68/2/4
f 71/2/3 72/2/3 70/2/3
f 73/2/2 74/2/2 72/2/2
f 75/2/1 65/2/1 74/2/1
f 7/1/42 64/1/42 12/1/42
f 66/1/43 58/1/43 59/1/43
f 64/1/44 11/1/44 12/1/44
f 60/1/45 66/1/45 59/1/45
f 68/1/46 10/1/46 11/1/46
f 61/1/47 69/1/47 60/1/47
f 70/1/48 9/1/48 10/1/48
f 62/1/49 71/1/49 61/1/49
f 9/1/50 74/1/50 8/1/50
f 75/1/51 62/1/51 63/1/51
f 8/1/52 65/1/52 7/1/52
f 67/1/53 63/1/53 58/1/53
f 101/3/4 103/3/4 100/3/4
f 89/4/7 91/4/7 88/4/7
f 109/4/1 87/4/1 84/4/1
f 83/4/39 76/4/39 82/4/39
f 87/4/40 114/4/40 86/4/40
f 111/4/41 113/4/41 110/4/41
f 82/4/54 85/4/54 84/4/54
f 104/3/4 101/3/4 100/3/4
f 83/4/55 86/4/55 77/4/55
f 84/4/1 83/4/1 82/4/1
f 103/3/4 106/3/4 107/3/4
f 81/4/56 89/4/56 79/4/56
f 81/4/1 91/4/1 90/4/1
f 122/4/57 88/4/57 91/4/57
f 94/4/4 115/4/4 79/4/4
f 92/4/4 108/4/4 85/4/4
f 77/4/4 96/4/4 76/4/4
f 86/4/4 97/4/4 77/4/4
f 85/4/4 96/4/4 92/4/4
f 89/4/4 94/4/4 79/4/4
f 88/4/4 98/4/4 89/4/4
f 122/4/4 95/4/4 99/4/4
f 101/4/58 121/4/58 102/4/58
f 92/4/59 103/4/59 95/4/59
f 97/4/60 104/4/60 96/4/60
f 93/4/61 105/4/61 97/4/61
f 92/4/62 104/4/62 100/4/62
f 98/4/63 102/4/63 94/4/63
f 99/4/64 106/4/64 98/4/64
f 99/4/65 103/4/65 107/4/65
f 108/4/4 92/4/4 95/4/4
f 124/4/41 78/4/41 80/4/41
f 81/4/1 109/4/1 80/4/1
f 85/4/66 110/4/66 84/4/66
f 108/4/4 111/4/4 85/4/4
f 109/4/67 112/4/67 108/4/67
f 109/4/1 110/4/1 113/4/1
f 114/4/68 117/4/68 116/4/68
f 119/4/69 121/4/69 120/4/69
f 114/4/4 120/4/4 86/4/4
f 116/4/4 119/4/4 120/4/4
f 86/4/4 118/4/4 93/4/4
f 118/4/58 101/4/58 93/4/58
f 102/4/58 119/4/58 94/4/58
f 81/4/40 115/4/40 117/4/40
f 117/4/40 87/4/40 81/4/40
f 116/4/70 117/4/70 115/4/70
f 120/4/71 121/4/71 118/4/71
f 123/4/72 122/4/72 78/4/72
f 78/4/73 124/4/73 123/4/73
f 2/1/1 8/1/1 7/1/1
f 3/1/2 9/1/2 8/1/2
f 4/1/3 10/1/3 9/1/3
f 5/1/4 11/1/4 10/1/4
f 6/1/5 12/1/5 11/1/5
f 1/1/6 7/1/6 12/1/6
f 1/1/8 13/1/8 14/1/8
f 3/1/9 2/1/9 14/1/9
f 3/1/10 15/1/10 16/1/10
f 4/1/11 16/1/11 17/1/11
f 5/1/12 17/1/12 18/1/12
f 6/1/13 18/1/13 13/1/13
f 13/2/74 19/2/74 20/2/74
f 14/2/75 20/2/75 21/2/75
f 16/2/76 15/2/76 21/2/76
f 17/2/77 16/2/77 22/2/77
f 18/2/78 17/2/78 23/2/78
f 13/2/79 18/2/79 24/2/79
f 20/2/80 19/2/80 25/2/80
f 21/2/81 20/2/81 26/2/81
f 22/2/82 21/2/82 27/2/82
f 22/2/83 28/2/83 29/2/83
f 23/2/84 29/2/84 30/2/84
f 24/2/85 30/2/85 25/2/85
f 39/2/86 31/2/86 32/2/86
f 38/2/87 32/2/87 33/2/87
f 37/2/88 33/2/88 34/2/88
f 41/2/89 42/2/89 34/2/89
f 40/2/90 41/2/90 35/2/90
f 39/2/91 40/2/91 36/2/91
f 26/2/92 38/2/92 37/2/92
f 26/2/93 25/2/93 39/2/93
f 25/2/94 30/2/94 40/2/94
f 30/2/95 29/2/95 41/2/95
f 28/2/96 42/2/96 41/2/96
f 27/2/97 37/2/97 42/2/97
f 44/1/4 46/1/4 45/1/4
f 46/1/38 48/1/38 47/1/38
f 50/1/39 44/1/39 43/1/39
f 50/1/40 48/1/40 46/1/40
f 49/1/41 43/1/41 45/1/41
f 53/1/1 51/1/1 58/1/1
f 54/1/2 53/1/2 63/1/2
f 55/1/3 54/1/3 62/1/3
f 56/1/4 55/1/4 61/1/4
f 59/1/5 57/1/5 56/1/5
f 51/1/6 57/1/6 59/1/6
f 67/2/6 66/2/6 64/2/6
f 66/2/5 69/2/5 68/2/5
f 69/2/4 71/2/4 70/2/4
f 71/2/3 73/2/3 72/2/3
f 73/2/2 75/2/2 74/2/2
f 75/2/1 67/2/1 65/2/1
f 7/1/42 65/1/42 64/1/42
f 66/1/43 67/1/43 58/1/43
f 64/1/44 68/1/44 11/1/44
f 60/1/45 69/1/45 66/1/45
f 68/1/46 70/1/46 10/1/46
f 61/1/47 71/1/47 69/1/47
f 70/1/48 72/1/48 9/1/48
f 62/1/49 73/1/49 71/1/49
f 9/1/50 72/1/50 74/1/50
f 75/1/51 73/1/51 62/1/51
f 8/1/52 74/1/52 65/1/52
f 67/1/53 75/1/53 63/1/53
f 101/3/4 102/3/4 103/3/4
f 89/4/7 90/4/7 91/4/7
f 83/4/39 77/4/39 76/4/39
f 87/4/40 117/4/40 114/4/40
f 111/4/41 112/4/41 113/4/41
f 82/4/54 76/4/54 85/4/54
f 104/3/4 105/3/4 101/3/4
f 83/4/55 87/4/55 86/4/55
f 84/4/1 87/4/1 83/4/1
f 103/3/4 102/3/4 106/3/4
f 81/4/56 90/4/56 89/4/56
f 81/4/1 80/4/1 91/4/1
f 91/4/57 80/4/57 78/4/57
f 78/4/57 122/4/57 91/4/57
f 94/4/4 116/4/4 115/4/4
f 77/4/4 97/4/4 96/4/4
f 86/4/4 93/4/4 97/4/4
f 85/4/4 76/4/4 96/4/4
f 89/4/4 98/4/4 94/4/4
f 88/4/4 99/4/4 98/4/4
f 99/4/4 88/4/4 122/4/4
f 122/4/4 123/4/4 95/4/4
f 92/4/59 100/4/59 103/4/59
f 97/4/60 105/4/60 104/4/60
f 93/4/98 101/4/98 105/4/98
f 92/4/99 96/4/99 104/4/99
f 98/4/100 106/4/100 102/4/100
f 99/4/64 107/4/64 106/4/64
f 99/4/101 95/4/101 103/4/101
f 95/4/4 123/4/4 124/4/4
f 124/4/4 108/4/4 95/4/4
f 80/4/41 109/4/41 124/4/41
f 109/4/41 108/4/41 124/4/41
f 81/4/1 87/4/1 109/4/1
f 85/4/66 111/4/66 110/4/66
f 108/4/4 112/4/4 111/4/4
f 109/4/67 113/4/67 112/4/67
f 109/4/1 84/4/1 110/4/1
f 114/4/4 116/4/4 120/4/4
f 116/4/4 94/4/4 119/4/4
f 86/4/4 120/4/4 118/4/4
f 118/4/58 121/4/58 101/4/58
f 102/4/58 121/4/58 119/4/58
f 81/4/40 79/4/40 115/4/40
