# Blender 5.2.2 LTS
# www.blender.org
mtllib ruins_tg_floor_a.mtl
o piece
v -1.666763 -0.018716 0.100791
v -0.185435 -0.018716 0.100791
v -1.666764 -1.645409 0.100791
v -0.185435 -1.645410 0.100791
v -1.666764 -1.682841 0.100791
v -0.185435 -1.682841 0.100791
v -0.225314 -0.059912 0.103531
v -1.635956 -0.059912 0.103531
v -0.225314 -1.604214 0.103531
v -1.627339 -1.604214 0.103531
v -0.375165 -0.148075 0.103531
v -1.486111 -0.148075 0.103531
v -0.375165 -1.516050 0.103531
v -1.479218 -1.516050 0.103531
v -0.388162 -0.162952 0.090523
v -1.473114 -0.162952 0.090522
v -0.388162 -1.501173 0.090523
v -1.466368 -1.501173 0.090523
v -1.666760 0.018716 0.100791
v -0.185435 0.018716 0.100791
v -1.555362 -0.495657 0.106018
v -1.537512 -0.495657 0.090407
v -0.325067 -1.168469 0.090407
v -0.302081 -1.168469 0.106018
v -0.420193 -1.111136 0.090407
v -0.422957 -0.545364 0.090407
v -0.325067 -0.495657 0.090407
v -0.302081 -0.495657 0.106018
v -0.341718 -0.520307 0.076178
v -0.341718 -1.144888 0.076178
v -1.533032 -1.168469 0.090407
v -1.437344 -0.552989 0.090407
v -1.434586 -1.118762 0.090407
v -1.553070 -1.168469 0.106018
v -1.510662 -1.143817 0.076178
v -1.510661 -0.519238 0.076178
v -0.392119 -0.566916 0.076178
v -0.389261 -1.092713 0.076178
v -1.465424 -1.097210 0.076178
v -1.468277 -0.571413 0.076178
v -1.543930 -1.460837 0.103531
v -1.529674 -1.451136 0.090523
v -0.325067 -1.451136 0.090523
v -0.310666 -1.460837 0.103531
v -1.548701 -0.203288 0.103531
v -1.535275 -0.212988 0.090522
v -0.325067 -0.212988 0.090523
v -0.310666 -0.203288 0.103531
v -0.225314 -1.724036 0.103531
v -1.635956 -1.724036 0.103531
v -0.375165 -1.812200 0.103531
v -1.486112 -1.812200 0.103531
v -0.388162 -1.827077 0.090523
v -1.473114 -1.827077 0.090523
v -1.555362 -2.159781 0.106018
v -1.537513 -2.159781 0.090407
v -0.422957 -2.209489 0.090407
v -0.325067 -2.159782 0.090407
v -0.302081 -2.159782 0.106018
v -0.341718 -2.184433 0.076178
v -1.437345 -2.217114 0.090407
v -1.510662 -2.183362 0.076178
v -0.392119 -2.231040 0.076178
v -1.468277 -2.235538 0.076178
v -1.548702 -1.867413 0.103531
v -1.535275 -1.877113 0.090523
v -0.325067 -1.877113 0.090523
v -0.310666 -1.867413 0.103531
v -0.138892 -2.500000 0.002088
v -0.162347 -2.500000 0.059186
v -0.185435 -2.500000 0.100791
v -0.220549 -2.500000 0.103531
v -0.297983 -2.500000 0.106018
v -0.316924 -2.500000 0.090408
v -0.335289 -2.500000 0.076178
v -0.385347 -2.500000 0.076178
v -0.416232 -2.500000 0.090407
v -1.430622 -2.500000 0.090407
v -1.461508 -2.500000 0.076178
v -1.505319 -2.500000 0.076178
v -1.527130 -2.500000 0.090407
v -1.550116 -2.500000 0.106018
v -1.626883 -2.500000 0.103531
v -1.666764 -2.500000 0.100791
v -0.185435 1.645410 0.100791
v -1.666763 1.645410 0.100791
v -0.185435 1.682841 0.100791
v -1.666763 1.682841 0.100791
v -1.626883 0.059911 0.103531
v -0.216240 0.059911 0.103531
v -1.626883 1.604214 0.103531
v -0.224857 1.604214 0.103531
v -1.477032 0.148075 0.103531
v -0.366087 0.148075 0.103531
v -1.477032 1.516050 0.103531
v -0.372978 1.516050 0.103531
v -1.464033 0.162952 0.090523
v -0.379086 0.162952 0.090523
v -1.464033 1.501173 0.090522
v -0.385828 1.501173 0.090522
v -0.296838 0.495656 0.106018
v -0.314683 0.495656 0.090407
v -1.527130 1.168469 0.090407
v -1.550116 1.168469 0.106018
v -1.432002 1.111136 0.090407
v -1.429242 0.545364 0.090407
v -1.527130 0.495656 0.090407
v -1.550116 0.495656 0.106018
v -1.505319 0.520308 0.076178
v -1.505319 1.144888 0.076178
v -0.319164 1.168469 0.090407
v -0.414853 0.552989 0.090407
v -0.417612 1.118762 0.090407
v -0.299127 1.168469 0.106018
v -0.335289 1.143817 0.076178
v -0.335289 0.519238 0.076178
v -1.460080 0.566915 0.076178
v -1.462936 1.092713 0.076178
v -0.386777 1.097210 0.076178
v -0.383920 0.571412 0.076178
v -0.308267 1.460837 0.103531
v -0.322525 1.451136 0.090522
v -1.527130 1.451136 0.090522
v -1.541534 1.460837 0.103531
v -0.303494 0.203288 0.103531
v -0.316924 0.212988 0.090523
v -1.527130 0.212988 0.090523
v -1.541534 0.203288 0.103531
v -1.626883 1.724036 0.103531
v -0.216240 1.724036 0.103531
v -1.477032 1.812200 0.103531
v -0.366087 1.812200 0.103531
v -1.464033 1.827077 0.090523
v -0.379086 1.827077 0.090522
v -0.296838 2.159782 0.106018
v -0.314683 2.159782 0.090407
v -1.429242 2.209489 0.090407
v -1.527130 2.159782 0.090407
v -1.550116 2.159782 0.106018
v -1.505319 2.184433 0.076178
v -0.414853 2.217114 0.090407
v -0.335289 2.183362 0.076178
v -1.460080 2.231040 0.076178
v -0.383920 2.235538 0.076178
v -0.303494 1.867413 0.103531
v -0.316924 1.877114 0.090522
v -1.527130 1.877114 0.090522
v -1.541534 1.867413 0.103531
v -1.666763 2.500000 0.100791
v -1.626883 2.500000 0.103531
v -1.550116 2.500000 0.106018
v -1.527130 2.500000 0.090407
v -1.505319 2.500000 0.076178
v -1.461508 2.500000 0.076178
v -1.430621 2.500000 0.090407
v -0.416232 2.500000 0.090407
v -0.385347 2.500000 0.076178
v -0.335289 2.500000 0.076178
v -0.316924 2.500000 0.090407
v -0.297983 2.500000 0.106018
v -0.220549 2.500000 0.103531
v -0.185435 2.500000 0.100791
v -0.162347 2.500000 0.059186
v -0.138892 2.500000 0.002087
v -2.500000 -1.750007 0.100791
v -2.500000 -1.607978 0.100791
v -2.500000 -0.056147 0.100791
v -2.500000 0.056147 0.100791
v -2.500000 1.607978 0.100791
v -2.500000 1.750007 0.100791
v -1.751117 -2.500000 0.100791
v -1.751117 -1.750007 0.100791
v -1.751117 -1.607978 0.100791
v -1.751117 -0.056147 0.100791
v -1.751115 0.056147 0.100791
v -1.751117 1.607978 0.100791
v -1.751117 1.750007 0.100791
v -1.751117 2.500000 0.100791
v -1.751117 -2.500000 0.076763
v -1.751117 -1.750007 0.076763
v -2.500000 -2.500000 0.076763
v -2.500000 -1.750007 0.076763
v -1.751117 -1.607978 0.076763
v -1.751117 -0.056147 0.076763
v -2.500000 -1.607978 0.076763
v -2.500000 -0.056147 0.076763
v -1.751115 0.056147 0.076763
v -1.751117 1.607978 0.076763
v -2.500000 0.056147 0.076763
v -2.500000 1.607978 0.076763
v -1.751117 1.750007 0.076763
v -1.751117 2.500000 0.076762
v -2.500000 1.750007 0.076763
v -2.500000 2.500000 0.076762
v 1.664530 0.018716 0.100791
v 0.183187 0.018716 0.100791
v 1.664530 1.645410 0.100791
v 0.183187 1.645410 0.100791
v 1.664530 1.682841 0.100791
v 0.183187 1.682841 0.100791
v 0.223065 0.059911 0.103531
v 1.633722 0.059911 0.103531
v 0.223065 1.604214 0.103531
v 1.625104 1.604214 0.103531
v 0.372916 0.148075 0.103531
v 1.483878 0.148075 0.103531
v 0.372916 1.516050 0.103531
v 1.476984 1.516050 0.103531
v 0.385913 0.162952 0.090523
v 1.470879 0.162952 0.090522
v 0.385913 1.501173 0.090522
v 1.464133 1.501173 0.090522
v 1.664526 -0.018716 0.100791
v 0.183187 -0.018716 0.100791
v 1.553127 0.495656 0.106018
v 1.535278 0.495656 0.090407
v 0.322818 1.168469 0.090407
v 0.299832 1.168469 0.106018
v 0.417944 1.111136 0.090407
v 0.420708 0.545364 0.090407
v 0.322818 0.495656 0.090407
v 0.299832 0.495656 0.106018
v 0.339469 0.520308 0.076178
v 0.339469 1.144888 0.076178
v 1.530798 1.168469 0.090407
v 1.435111 0.552989 0.090407
v 1.432350 1.118762 0.090407
v 1.550835 1.168469 0.106018
v 1.507332 1.143817 0.076178
v 1.507332 0.519238 0.076178
v 0.389870 0.566915 0.076178
v 0.387012 1.092712 0.076178
v 1.463188 1.097210 0.076178
v 1.466043 0.571412 0.076178
v 1.541695 1.460837 0.103531
v 1.527438 1.451136 0.090522
v 0.322818 1.451136 0.090522
v 0.308417 1.460837 0.103531
v 1.546466 0.203288 0.103531
v 1.533041 0.212988 0.090522
v 0.322818 0.212988 0.090523
v 0.308417 0.203288 0.103531
v 0.223065 1.724036 0.103531
v 1.633722 1.724036 0.103531
v 0.372916 1.812200 0.103531
v 1.483878 1.812200 0.103531
v 0.385913 1.827077 0.090523
v 1.470879 1.827077 0.090522
v 1.553127 2.159782 0.106018
v 1.535278 2.159782 0.090407
v 0.420708 2.209489 0.090407
v 0.322818 2.159782 0.090407
v 0.299832 2.159782 0.106018
v 0.339469 2.184433 0.076178
v 1.435111 2.217114 0.090407
v 1.507332 2.183362 0.076178
v 0.389870 2.231040 0.076178
v 1.466043 2.235538 0.076178
v 1.546466 1.867413 0.103531
v 1.533041 1.877114 0.090522
v 0.322818 1.877114 0.090522
v 0.308417 1.867413 0.103531
v 0.136642 2.500000 0.002087
v 0.160098 2.500000 0.059186
v 0.183187 2.500000 0.100791
v 0.223065 2.500000 0.103531
v 0.299832 2.500000 0.106018
v 0.322818 2.500000 0.090407
v 0.339469 2.500000 0.076178
v 0.388440 2.500000 0.076178
v 0.419327 2.500000 0.090407
v 1.433731 2.500000 0.090407
v 1.464615 2.500000 0.076178
v 1.507332 2.500000 0.076178
v 1.533038 2.500000 0.090407
v 1.551981 2.500000 0.106018
v 1.629413 2.500000 0.103531
v 1.664530 2.500000 0.100791
v 0.183187 -1.645410 0.100791
v 1.664528 -1.645410 0.100791
v 0.183187 -1.682841 0.100791
v 1.664528 -1.682841 0.100791
v 1.624648 -0.059912 0.103531
v 0.213991 -0.059912 0.103531
v 1.624648 -1.604214 0.103531
v 0.222607 -1.604214 0.103531
v 1.474799 -0.148075 0.103531
v 0.363838 -0.148075 0.103531
v 1.474799 -1.516050 0.103531
v 0.370729 -1.516050 0.103531
v 1.461798 -0.162952 0.090523
v 0.376837 -0.162952 0.090523
v 1.461798 -1.501173 0.090523
v 0.383579 -1.501173 0.090523
v 0.294589 -0.495657 0.106018
v 0.312435 -0.495657 0.090407
v 1.524896 -1.168469 0.090407
v 1.547882 -1.168469 0.106018
v 1.429767 -1.111136 0.090407
v 1.427007 -0.545364 0.090407
v 1.524896 -0.495657 0.090407
v 1.547882 -0.495657 0.106018
v 1.501992 -0.520307 0.076178
v 1.501992 -1.144888 0.076178
v 0.316915 -1.168469 0.090407
v 0.412604 -0.552989 0.090407
v 0.415363 -1.118762 0.090407
v 0.296878 -1.168469 0.106018
v 0.333040 -1.143817 0.076178
v 0.333040 -0.519238 0.076178
v 1.457845 -0.566916 0.076178
v 1.460702 -1.092713 0.076178
v 0.384528 -1.097210 0.076178
v 0.381671 -0.571413 0.076178
v 0.306018 -1.460837 0.103531
v 0.320276 -1.451136 0.090523
v 1.524896 -1.451136 0.090523
v 1.539299 -1.460837 0.103531
v 0.301245 -0.203288 0.103531
v 0.314675 -0.212988 0.090523
v 1.524896 -0.212988 0.090523
v 1.539299 -0.203288 0.103531
v 1.624648 -1.724036 0.103531
v 0.213991 -1.724036 0.103531
v 1.474799 -1.812200 0.103531
v 0.363838 -1.812200 0.103531
v 1.461798 -1.827077 0.090523
v 0.376837 -1.827077 0.090523
v 0.294589 -2.159782 0.106018
v 0.312435 -2.159782 0.090407
v 1.427007 -2.209489 0.090407
v 1.524896 -2.159782 0.090407
v 1.547882 -2.159782 0.106018
v 1.501992 -2.184433 0.076178
v 0.412604 -2.217114 0.090407
v 0.333040 -2.183363 0.076178
v 1.457845 -2.231040 0.076178
v 0.381671 -2.235538 0.076178
v 0.301245 -1.867413 0.103531
v 0.314675 -1.877113 0.090523
v 1.524896 -1.877113 0.090523
v 1.539299 -1.867413 0.103531
v 1.664530 -2.500000 0.100791
v 1.629413 -2.500000 0.103531
v 1.551981 -2.500000 0.106018
v 1.533038 -2.500000 0.090407
v 1.507332 -2.500000 0.076178
v 1.464615 -2.500000 0.076178
v 1.433731 -2.500000 0.090407
v 0.419327 -2.500000 0.090407
v 0.388440 -2.500000 0.076178
v 0.333040 -2.500000 0.076178
v 0.322818 -2.500000 0.090407
v 0.299832 -2.500000 0.106018
v 0.223065 -2.500000 0.103531
v 0.183187 -2.500000 0.100791
v 0.160098 -2.500000 0.059186
v 0.136642 -2.500000 0.059186
v 0.136642 -2.500000 0.002088
v 2.500000 1.750007 0.100791
v 2.500000 1.607977 0.100791
v 2.500000 0.056147 0.100791
v 2.500000 -0.056147 0.100791
v 2.500000 -1.607978 0.100791
v 2.500000 -1.750007 0.100791
v 1.748883 2.500000 0.100791
v 1.748883 1.750007 0.100791
v 1.748883 1.607977 0.100791
v 1.748883 0.056147 0.100791
v 1.748880 -0.056147 0.100791
v 1.748883 -1.607978 0.100791
v 1.748883 -1.750007 0.100791
v 1.748883 -2.500000 0.100791
v 1.748883 2.500000 0.076762
v 1.748883 1.750007 0.076762
v 2.500000 2.500000 0.076762
v 2.500000 1.750007 0.076762
v 1.748883 1.607977 0.076762
v 1.748883 0.056147 0.076763
v 2.500000 1.607977 0.076762
v 2.500000 0.056147 0.076763
v 1.748880 -0.056147 0.076763
v 1.748883 -1.607978 0.076763
v 2.500000 -0.056147 0.076763
v 2.500000 -1.607978 0.076763
v 1.748883 -1.750007 0.076763
v 1.748883 -2.500000 0.076763
v 2.500000 -1.750007 0.076763
v 2.500000 -2.500000 0.076763
v -0.138892 -2.500000 0.059186
v -0.138892 2.500000 0.059186
v 0.136642 2.500000 0.059186
v -0.057523 2.500000 0.045087
v -0.098422 2.500000 0.045087
v -0.118872 2.500000 0.009667
v -0.098422 2.500000 -0.025754
v -0.057523 2.500000 -0.025754
v -0.037073 2.500000 0.009667
v -0.057523 -2.499999 0.045087
v -0.098422 -2.499999 0.045087
v -0.118872 -2.499999 0.009667
v -0.098422 -2.499999 -0.025753
v -0.057523 -2.499999 -0.025753
v -0.037073 -2.499999 0.009667
v 0.045134 -0.994409 0.045087
v 0.014897 -0.964198 0.045087
v -0.000006 -0.950114 0.009667
v 0.014897 -0.964198 -0.025753
v 0.045134 -0.994409 -0.025753
v 0.058716 -1.007474 0.009667
v 0.038266 -2.499999 0.045087
v -0.002634 -2.499999 0.045087
v -0.023083 -2.499999 0.009667
v -0.002634 -2.499999 -0.025753
v 0.038266 -2.499999 -0.025753
v 0.058716 -2.499999 0.009667
v 0.038266 -1.007474 0.045087
v -0.002634 -1.007474 0.045087
v -0.023083 -1.007474 0.009667
v -0.002634 -1.007474 -0.025753
v 0.038266 -1.007474 -0.025753
v 0.336465 -0.946125 0.045087
v 0.336465 -0.987025 0.045087
v 0.336465 -1.007474 0.009667
v 0.336465 -0.987025 -0.025753
v 0.336465 -0.946125 -0.025753
v 0.336465 -0.925675 0.009667
v 0.058716 -0.987025 0.045087
v 0.058716 -0.946125 0.045087
v 0.058716 -0.925675 0.009667
v 0.058716 -0.946125 -0.025753
v 0.058716 -0.987025 -0.025753
v 0.045134 -0.463007 0.045087
v 0.014897 -0.493218 0.045087
v -0.000006 -0.507303 0.009667
v 0.014897 -0.493218 -0.025753
v 0.045134 -0.463007 -0.025753
v 0.058716 -0.449942 0.009667
v 0.038266 2.500000 0.045087
v -0.002634 2.500000 0.045087
v -0.023083 2.500000 0.009667
v -0.002634 2.500000 -0.025754
v 0.038266 2.500000 -0.025754
v 0.058716 2.500000 0.009667
v 0.038266 -0.449942 0.045087
v -0.002634 -0.449942 0.045087
v -0.023083 -0.449942 0.009667
v -0.002634 -0.449942 -0.025753
v 0.038266 -0.449942 -0.025753
v 0.336465 -0.511291 0.045087
v 0.336465 -0.470392 0.045087
v 0.336465 -0.449942 0.009667
v 0.336465 -0.470392 -0.025753
v 0.336465 -0.511291 -0.025753
v 0.336465 -0.531741 0.009667
v 0.058716 -0.470392 0.045087
v 0.058716 -0.511291 0.045087
v 0.058716 -0.531741 0.009667
v 0.058716 -0.511291 -0.025753
v 0.058716 -0.470392 -0.025753
v -2.500000 -2.500000 -0.106018
v -2.500000 2.500000 -0.106018
v 2.500000 2.500000 -0.106018
v 2.500000 -2.500000 -0.106018
vn -0.0000 -0.0000 1.0000
vn -0.0000 0.0664 0.9978
vn 0.0685 -0.0000 0.9976
vn -0.0000 -0.0664 0.9978
vn -0.0689 -0.0004 0.9976
vn 0.0324 -0.0000 0.9995
vn -0.0314 -0.0001 0.9995
vn -0.0000 -0.6583 0.7528
vn -0.3991 0.4662 0.7895
vn -0.0000 0.6583 0.7528
vn -0.6583 -0.0022 0.7527
vn 0.6583 -0.0055 0.7527
vn -0.5618 -0.0000 0.8273
vn -0.0000 0.0003 1.0000
vn -0.6654 -0.0132 0.7464
vn -0.6497 -0.0000 0.7602
vn 0.3999 0.4687 0.7877
vn 0.5339 0.0036 0.8455
vn 0.2451 -0.2650 0.9326
vn 0.4168 0.0023 0.9090
vn 0.2765 0.2520 0.9274
vn -0.2567 0.2492 0.9338
vn -0.4168 -0.0023 0.9090
vn -0.2879 -0.2339 0.9287
vn 1.0000 -0.0000 -0.0000
vn -0.6654 0.0132 0.7464
vn 0.4149 -0.4703 0.7789
vn -0.3991 -0.4662 0.7895
vn -0.0685 -0.0008 0.9976
vn -0.0324 -0.0005 0.9995
vn 0.5617 0.0171 0.8271
vn -0.6365 -0.0152 0.7712
vn 0.4782 0.0146 0.8781
vn 0.4184 0.0105 0.9082
vn -0.4184 -0.0107 0.9082
vn -0.0000 -0.0003 1.0000
vn 0.0321 0.0004 0.9995
vn -0.0685 -0.0000 0.9976
vn 0.0689 0.0004 0.9976
vn -0.0324 -0.0000 0.9995
vn 0.0314 0.0001 0.9995
vn 0.3991 -0.4662 0.7895
vn 0.6584 0.0022 0.7527
vn -0.6584 0.0055 0.7526
vn 0.5618 -0.0000 0.8273
vn 0.6653 0.0132 0.7465
vn 0.5464 -0.0000 0.8375
vn -0.3999 -0.4686 0.7877
vn -0.6579 -0.0044 0.7531
vn -0.6584 -0.0022 0.7527
vn 0.2428 -0.2682 0.9323
vn 0.2742 0.2556 0.9271
vn 0.6653 -0.0132 0.7465
vn -0.4148 0.4703 0.7789
vn 0.3991 0.4662 0.7895
vn 0.0778 0.0004 0.9970
vn 0.0321 0.0001 0.9995
vn -0.6360 -0.0042 0.7717
vn -0.5711 -0.0038 0.8208
vn -0.4184 -0.0022 0.9082
vn 0.4184 0.0023 0.9082
vn 0.8744 -0.0000 0.4852
vn -1.0000 -0.0000 -0.0000
vn -0.0000 -1.0000 -0.0000
vn -0.0000 1.0000 -0.0000
vn -0.6360 -0.0077 0.7717
vn -0.6583 0.0055 0.7527
vn 0.0002 0.0004 1.0000
vn 0.6654 0.0132 0.7464
vn 0.6497 -0.0000 0.7602
vn -0.3999 -0.4687 0.7877
vn -0.5159 -0.0034 0.8567
vn -0.2451 0.2650 0.9326
vn -0.2765 -0.2520 0.9274
vn 0.2593 -0.2456 0.9340
vn 0.2904 0.2298 0.9289
vn 0.6654 -0.0132 0.7464
vn -0.4149 0.4703 0.7789
vn 0.3991 0.4663 0.7895
vn -0.4558 -0.0030 0.8901
vn 0.4185 0.0023 0.9082
vn 0.6583 0.0022 0.7527
vn 0.6584 -0.0055 0.7527
vn -0.5618 -0.0000 0.8272
vn -0.6653 -0.0132 0.7464
vn -0.5277 -0.0000 0.8494
vn 0.3999 0.4686 0.7877
vn 0.6579 0.0044 0.7531
vn -0.2428 0.2682 0.9323
vn -0.2742 -0.2556 0.9271
vn -0.6653 0.0132 0.7464
vn 0.4148 -0.4703 0.7789
vn -0.5180 -0.0124 0.8553
vn -0.8744 -0.0000 0.4852
vn 0.5818 0.0178 0.8131
vn -0.0000 -0.0000 -1.0000
vn -0.8660 -0.0000 0.5000
vn -0.8660 -0.0000 -0.5000
vn 0.8660 -0.0000 -0.5000
vn 0.8660 -0.0000 0.5000
vn 0.7882 -0.4143 0.4551
vn -0.8158 0.3305 0.4746
vn -0.8178 0.3290 -0.4722
vn 0.7882 -0.4143 -0.4551
vn 0.4260 -0.7835 0.4524
vn 0.4260 -0.7835 -0.4524
vn -0.3364 0.8156 -0.4709
vn -0.3397 0.8162 0.4675
vn -0.0000 -0.8660 0.5000
vn -0.0000 0.8660 0.5000
vn -0.0000 0.8660 -0.5000
vn -0.0000 -0.8660 -0.5000
vn 0.7882 0.4143 0.4551
vn -0.8158 -0.3305 0.4747
vn -0.8158 -0.3305 -0.4747
vn 0.7882 0.4143 -0.4551
vn 0.4260 0.7835 0.4524
vn 0.4260 0.7835 -0.4524
vn -0.3397 -0.8162 -0.4675
vn -0.3397 -0.8162 0.4675
vn -0.0886 -0.0000 0.9961
vn -0.0324 -0.0002 0.9995
vn -0.3420 0.4313 0.8349
vn -0.6685 -0.0146 0.7435
vn -0.6146 -0.0076 0.7888
vn -0.6146 -0.0041 0.7888
vn 0.6922 -0.0096 0.7216
vn -0.0002 -0.0003 1.0000
vn 0.0002 -0.0003 1.0000
vn -0.0002 -0.0004 1.0000
vn 0.0002 -0.0004 1.0000
vn -0.0002 0.0004 1.0000
vn -0.0002 0.0003 1.0000
vn 0.0002 0.0003 1.0000
vn -0.5618 -0.0003 0.8273
vn 0.3424 0.4332 0.8337
vn 0.4683 -0.0000 0.8836
vn 0.3178 -0.6258 0.7123
vn 0.4202 0.0021 0.9074
vn 0.4001 0.6638 0.6319
vn -0.3455 0.6842 0.6422
vn -0.4202 -0.0020 0.9075
vn -0.4441 -0.7760 0.4479
vn -0.5618 0.0003 0.8273
vn 0.3451 -0.4287 0.8350
vn -0.3420 -0.4313 0.8349
vn 0.0778 0.0005 0.9970
vn -0.0329 -0.0004 0.9995
vn 0.6583 0.0102 0.7527
vn -0.0136 0.0081 0.9999
vn 0.0135 0.0082 0.9999
vn -0.6124 -0.0125 0.7904
vn 0.5464 0.0092 0.8375
vn 0.4246 0.0098 0.9053
vn -0.4131 -0.0098 0.9106
vn -0.4442 -0.7760 0.4478
vn 0.0136 -0.0081 0.9999
vn -0.0135 -0.0082 0.9999
vn 0.0313 0.0002 0.9995
vn 0.0886 -0.0000 0.9961
vn 0.0324 0.0002 0.9995
vn 0.3420 -0.4312 0.8349
vn 0.6685 0.0146 0.7436
vn 0.6146 0.0076 0.7888
vn 0.6146 0.0041 0.7888
vn -0.6921 0.0096 0.7217
vn 0.5618 0.0003 0.8273
vn -0.3424 -0.4332 0.8337
vn -0.5682 -0.0000 0.8229
vn -0.6685 -0.0146 0.7436
vn -0.3449 0.6791 0.6479
vn -0.4371 -0.7253 0.5319
vn 0.3131 -0.6200 0.7194
vn 0.4202 0.0020 0.9074
vn 0.4033 0.7047 0.5837
vn 0.5618 -0.0003 0.8273
vn -0.3450 0.4287 0.8350
vn 0.3420 0.4312 0.8349
vn 0.0318 0.0002 0.9995
vn -0.6125 -0.0000 0.7905
vn -0.3449 0.6792 0.6479
vn -0.4201 -0.0020 0.9075
vn 0.4169 0.0020 0.9089
vn 0.0139 -0.0081 0.9999
vn -0.0136 -0.0081 0.9999
vn 0.3420 -0.4313 0.8349
vn -0.5618 -0.0134 0.8272
vn -0.6923 0.0096 0.7216
vn -0.4537 -0.0000 0.8911
vn -0.3178 0.6258 0.7123
vn -0.4202 -0.0021 0.9074
vn -0.4001 -0.6638 0.6319
vn 0.3514 -0.6960 0.6262
vn 0.4202 0.0020 0.9075
vn 0.4508 0.7877 0.4199
vn 0.3420 0.4313 0.8349
vn -0.4843 -0.0000 0.8749
vn -0.3450 0.4286 0.8350
vn -0.3420 0.4312 0.8349
vn 0.6685 0.0146 0.7435
vn 0.6145 0.0076 0.7888
vn 0.6146 0.0041 0.7889
vn 0.6921 -0.0096 0.7217
vn 0.5682 -0.0000 0.8229
vn 0.3508 -0.6909 0.6321
vn 0.4449 0.7382 0.5072
vn -0.3131 0.6200 0.7194
vn -0.4202 -0.0020 0.9074
vn -0.4033 -0.7047 0.5837
vn 0.3450 -0.4287 0.8350
vn -0.3420 -0.4312 0.8349
vn 0.6584 0.0101 0.7526
vn -0.0139 0.0081 0.9999
vn 0.0136 0.0081 0.9999
vn -0.4843 -0.0082 0.8749
vn 0.8122 -0.0000 0.5834
vn 0.3508 -0.6909 0.6322
vn -0.8178 0.3290 0.4722
vn -0.8158 0.3305 -0.4746
vn -0.3397 0.8162 -0.4675
vn -0.3364 0.8156 0.4709
vn -0.8178 -0.3290 0.4722
vn -0.8178 -0.3290 -0.4722
vn -0.3364 -0.8156 -0.4709
vn -0.3364 -0.8156 0.4709
vt 0.125000 0.875000
vt 0.625000 0.625000
vt 0.875000 0.625000
vt 0.125000 0.625000
vt 0.625000 0.875000
vt 0.875000 0.375000
s 0
usemtl ruins_tg_floor_a
f 4/1/1 5/1/1 6/1/1
f 1/2/2 7/2/2 2/2/2
f 2/2/3 9/2/3 4/2/3
f 9/2/4 3/2/4 4/2/4
f 8/2/5 3/2/5 10/2/5
f 7/3/6 24/3/6 9/3/6
f 8/3/7 34/3/7 21/3/7
f 16/3/8 11/3/8 12/3/8
f 43/3/9 13/3/9 44/3/9
f 17/3/10 14/3/10 13/3/10
f 216/3/11 215/3/11 228/3/11
f 2/1/1 19/1/1 1/1/1
f 46/3/12 21/3/12 22/3/12
f 23/3/13 28/3/13 27/3/13
f 33/2/14 17/2/14 25/2/14
f 47/3/15 28/3/15 48/3/15
f 29/3/16 23/3/16 27/3/16
f 14/3/17 42/3/17 41/3/17
f 35/3/18 22/3/18 31/3/18
f 29/1/1 38/1/1 30/1/1
f 29/4/19 26/4/19 37/4/19
f 37/4/20 25/4/20 38/4/20
f 25/4/21 30/4/21 38/4/21
f 35/1/1 40/1/1 36/1/1
f 35/4/22 33/4/22 39/4/22
f 39/4/23 32/4/23 40/4/23
f 32/4/24 36/4/24 40/4/24
f 381/5/25 384/5/25 464/5/25
f 24/3/26 43/3/26 44/3/26
f 46/3/27 12/3/27 45/3/27
f 11/3/28 47/3/28 48/3/28
f 5/2/2 49/2/2 6/2/2
f 49/2/3 71/2/3 6/2/3
f 50/2/29 84/2/29 83/2/29
f 55/3/30 83/3/30 82/3/30
f 54/3/8 51/3/8 52/3/8
f 56/3/31 82/3/31 81/3/31
f 66/3/12 55/3/12 56/3/12
f 11/3/1 7/3/1 8/3/1
f 60/3/32 74/3/32 58/3/32
f 81/3/33 62/3/33 56/3/33
f 75/1/1 63/1/1 76/1/1
f 60/4/19 57/4/19 63/4/19
f 63/4/34 77/4/34 76/4/34
f 80/1/1 64/1/1 62/1/1
f 78/4/35 64/4/35 79/4/35
f 61/4/24 62/4/24 64/4/24
f 66/3/27 52/3/27 65/3/27
f 51/3/28 67/3/28 68/3/28
f 57/2/36 54/2/36 61/2/36
f 93/3/1 89/3/1 90/3/1
f 72/3/37 59/3/37 73/3/37
f 86/1/1 87/1/1 88/1/1
f 20/2/4 89/2/4 19/2/4
f 89/2/38 86/2/38 19/2/38
f 91/2/2 85/2/2 86/2/2
f 90/2/39 85/2/39 92/2/39
f 89/3/40 104/3/40 91/3/40
f 90/3/41 114/3/41 101/3/41
f 98/3/10 93/3/10 94/3/10
f 123/3/42 95/3/42 124/3/42
f 99/3/8 96/3/8 95/3/8
f 296/3/43 295/3/43 308/3/43
f 126/3/44 101/3/44 102/3/44
f 103/3/45 108/3/45 107/3/45
f 127/3/46 108/3/46 128/3/46
f 109/3/47 103/3/47 107/3/47
f 96/3/48 122/3/48 121/3/48
f 115/3/49 102/3/49 111/3/49
f 102/3/50 101/3/50 114/3/50
f 109/1/1 118/1/1 110/1/1
f 109/4/22 106/4/22 117/4/22
f 117/4/23 105/4/23 118/4/23
f 105/4/24 110/4/24 118/4/24
f 115/1/1 120/1/1 116/1/1
f 115/4/51 113/4/51 119/4/51
f 119/4/20 112/4/20 120/4/20
f 112/4/52 116/4/52 120/4/52
f 104/3/53 123/3/53 124/3/53
f 126/3/54 94/3/54 125/3/54
f 93/3/55 127/3/55 128/3/55
f 87/2/4 129/2/4 88/2/4
f 129/2/38 149/2/38 88/2/38
f 130/2/56 162/2/56 161/2/56
f 135/3/57 161/3/57 160/3/57
f 132/3/10 133/3/10 131/3/10
f 136/3/58 160/3/58 159/3/58
f 146/3/44 135/3/44 136/3/44
f 152/3/45 139/3/45 138/3/45
f 134/2/14 141/2/14 137/2/14
f 147/3/46 139/3/46 148/3/46
f 325/3/1 323/3/1 324/3/1
f 140/3/47 152/3/47 138/3/47
f 159/3/59 142/3/59 136/3/59
f 153/1/1 143/1/1 154/1/1
f 140/4/22 137/4/22 143/4/22
f 143/4/60 155/4/60 154/4/60
f 158/1/1 144/1/1 142/1/1
f 156/4/61 144/4/61 157/4/61
f 141/4/52 142/4/52 144/4/52
f 146/3/54 132/3/54 145/3/54
f 131/3/55 147/3/55 148/3/55
f 289/3/1 290/3/1 286/3/1
f 164/1/1 359/1/1 263/1/1
f 131/3/1 129/3/1 130/3/1
f 150/3/40 139/3/40 151/3/40
f 2/3/62 4/3/62 70/3/62
f 390/3/1 163/3/1 70/3/1
f 182/2/1 179/2/1 180/2/1
f 186/2/1 183/2/1 184/2/1
f 188/2/1 189/2/1 187/2/1
f 194/2/1 191/2/1 192/2/1
f 180/3/63 171/3/63 172/3/63
f 182/3/64 172/3/64 165/3/64
f 184/3/63 173/3/63 174/3/63
f 183/3/65 166/3/65 173/3/65
f 186/3/64 174/3/64 167/3/64
f 188/3/63 175/3/63 176/3/63
f 187/3/65 168/3/65 175/3/65
f 190/3/64 176/3/64 169/3/64
f 192/3/63 177/3/63 178/3/63
f 191/3/65 170/3/65 177/3/65
f 198/1/1 199/1/1 200/1/1
f 195/2/4 201/2/4 196/2/4
f 201/2/38 198/2/38 196/2/38
f 203/2/2 197/2/2 198/2/2
f 202/2/39 197/2/39 204/2/39
f 203/3/40 222/3/40 218/3/40
f 202/3/41 228/3/41 215/3/41
f 210/3/10 205/3/10 206/3/10
f 237/3/42 207/3/42 238/3/42
f 211/3/8 208/3/8 207/3/8
f 346/3/66 345/3/66 333/3/66
f 196/1/1 213/1/1 195/1/1
f 240/3/67 215/3/67 216/3/67
f 217/3/45 222/3/45 221/3/45
f 240/2/68 216/2/68 226/2/68
f 241/3/69 222/3/69 242/3/69
f 223/3/70 217/3/70 221/3/70
f 208/3/71 236/3/71 235/3/71
f 229/3/72 216/3/72 225/3/72
f 223/1/1 232/1/1 224/1/1
f 223/4/73 220/4/73 231/4/73
f 231/4/23 219/4/23 232/4/23
f 219/4/74 224/4/74 232/4/74
f 229/1/1 234/1/1 230/1/1
f 229/4/75 227/4/75 233/4/75
f 233/4/20 226/4/20 234/4/20
f 226/4/76 230/4/76 234/4/76
f 218/3/77 237/3/77 238/3/77
f 240/3/78 206/3/78 239/3/78
f 112/2/1 105/2/1 106/2/1
f 205/3/79 241/3/79 242/3/79
f 199/2/4 243/2/4 200/2/4
f 243/2/38 265/2/38 200/2/38
f 244/2/56 278/2/56 277/2/56
f 249/3/57 277/3/57 276/3/57
f 248/3/10 245/3/10 246/3/10
f 250/3/58 276/3/58 275/3/58
f 260/3/67 249/3/67 250/3/67
f 268/3/45 253/3/45 252/3/45
f 248/2/14 255/2/14 251/2/14
f 261/3/69 253/3/69 262/3/69
f 51/3/1 49/3/1 50/3/1
f 254/3/70 268/3/70 252/3/70
f 275/3/80 256/3/80 250/3/80
f 269/1/1 257/1/1 270/1/1
f 254/4/73 251/4/73 257/4/73
f 257/4/60 271/4/60 270/4/60
f 274/1/1 258/1/1 256/1/1
f 272/4/81 258/4/81 273/4/81
f 255/4/76 256/4/76 258/4/76
f 260/3/78 246/3/78 259/3/78
f 245/3/55 261/3/55 262/3/55
f 13/3/1 14/3/1 10/3/1
f 287/3/1 283/3/1 284/3/1
f 266/3/40 253/3/40 267/3/40
f 280/1/1 281/1/1 282/1/1
f 214/2/2 283/2/2 213/2/2
f 283/2/3 280/2/3 213/2/3
f 285/2/4 279/2/4 280/2/4
f 284/2/5 279/2/5 286/2/5
f 283/3/6 298/3/6 285/3/6
f 284/3/7 308/3/7 295/3/7
f 288/3/8 291/3/8 287/3/8
f 317/3/9 289/3/9 318/3/9
f 293/3/10 290/3/10 289/3/10
f 22/3/82 21/3/82 34/3/82
f 320/3/83 295/3/83 296/3/83
f 297/3/84 302/3/84 301/3/84
f 321/3/85 302/3/85 322/3/85
f 303/3/86 297/3/86 301/3/86
f 5/3/1 3/3/1 173/3/1
f 290/3/87 316/3/87 315/3/87
f 309/3/88 296/3/88 305/3/88
f 303/1/1 312/1/1 304/1/1
f 303/4/75 300/4/75 311/4/75
f 311/4/20 299/4/20 312/4/20
f 299/4/76 304/4/76 312/4/76
f 309/1/1 314/1/1 310/1/1
f 309/4/89 307/4/89 313/4/89
f 313/4/23 306/4/23 314/4/23
f 306/4/90 310/4/90 314/4/90
f 298/3/91 317/3/91 318/3/91
f 320/3/92 288/3/92 319/3/92
f 287/3/28 321/3/28 322/3/28
f 281/2/2 323/2/2 282/2/2
f 323/2/3 343/2/3 282/2/3
f 324/2/29 356/2/29 355/2/29
f 329/3/30 355/3/30 354/3/30
f 326/3/8 327/3/8 325/3/8
f 330/3/31 354/3/31 353/3/31
f 340/3/83 329/3/83 330/3/83
f 74/3/66 73/3/66 59/3/66
f 372/3/1 371/3/1 282/3/1
f 95/3/1 96/3/1 92/3/1
f 334/3/93 346/3/93 332/3/93
f 198/3/94 200/3/94 264/3/94
f 353/3/95 336/3/95 330/3/95
f 347/1/1 337/1/1 348/1/1
f 334/4/75 331/4/75 337/4/75
f 337/4/34 349/4/34 348/4/34
f 352/1/1 338/1/1 336/1/1
f 350/4/35 338/4/35 351/4/35
f 335/4/90 336/4/90 338/4/90
f 340/3/92 326/3/92 339/3/92
f 325/3/28 341/3/28 342/3/28
f 207/3/1 208/3/1 204/3/1
f 245/3/1 243/3/1 244/3/1
f 205/3/1 201/3/1 202/3/1
f 344/3/37 333/3/37 345/3/37
f 263/3/63 358/3/63 392/3/63
f 377/2/1 374/2/1 375/2/1
f 328/2/36 335/2/36 331/2/36
f 381/2/1 378/2/1 379/2/1
f 383/2/1 384/2/1 382/2/1
f 460/6/96 436/6/96 437/6/96
f 389/2/1 386/2/1 387/2/1
f 375/3/25 366/3/25 367/3/25
f 377/3/65 367/3/65 360/3/65
f 379/3/25 368/3/25 369/3/25
f 378/3/64 361/3/64 368/3/64
f 381/3/65 369/3/65 362/3/65
f 383/3/25 370/3/25 371/3/25
f 382/3/64 363/3/64 370/3/64
f 385/3/65 371/3/65 364/3/65
f 387/3/25 372/3/25 373/3/25
f 372/3/64 388/3/64 365/3/64
f 392/1/1 390/1/1 358/1/1
f 394/6/1 399/6/1 393/6/1
f 395/6/97 400/6/97 394/6/97
f 396/6/98 401/6/98 395/6/98
f 397/6/96 402/6/96 396/6/96
f 398/6/99 403/6/99 397/6/99
f 398/6/100 399/6/100 404/6/100
f 419/6/97 412/6/97 418/6/97
f 420/6/98 413/6/98 419/6/98
f 410/6/99 415/6/99 421/6/99
f 417/6/100 416/6/100 410/6/100
f 410/6/101 405/6/101 417/6/101
f 407/6/102 418/6/102 406/6/102
f 407/6/103 420/6/103 419/6/103
f 409/6/104 410/6/104 421/6/104
f 428/6/1 406/6/1 405/6/1
f 405/6/105 410/6/105 428/6/105
f 410/6/106 409/6/106 432/6/106
f 408/6/107 430/6/107 431/6/107
f 406/6/108 430/6/108 407/6/108
f 410/6/109 423/6/109 428/6/109
f 429/6/110 427/6/110 430/6/110
f 430/6/111 426/6/111 431/6/111
f 432/6/112 424/6/112 410/6/112
f 409/6/96 421/6/96 408/6/96
f 440/6/97 447/6/97 446/6/97
f 441/6/98 448/6/98 447/6/98
f 443/6/99 438/6/99 449/6/99
f 444/6/100 445/6/100 438/6/100
f 438/6/113 445/6/113 433/6/113
f 446/6/114 435/6/114 434/6/114
f 435/6/115 448/6/115 436/6/115
f 437/6/116 449/6/116 438/6/116
f 433/6/117 456/6/117 438/6/117
f 438/6/118 460/6/118 437/6/118
f 436/6/119 458/6/119 435/6/119
f 458/6/120 434/6/120 435/6/120
f 451/6/110 438/6/110 456/6/110
f 455/6/109 457/6/109 458/6/109
f 454/6/112 458/6/112 459/6/112
f 452/6/111 460/6/111 438/6/111
f 190/2/63 170/2/63 193/2/63
f 150/2/65 151/2/65 152/2/65
f 385/2/25 365/2/25 388/2/25
f 189/2/63 167/2/63 168/2/63
f 182/2/63 166/2/63 185/2/63
f 381/2/25 363/2/25 384/2/25
f 380/2/25 360/2/25 361/2/25
f 190/5/63 193/5/63 462/5/63
f 358/3/1 264/3/1 392/3/1
f 164/3/25 390/3/25 69/3/25
f 273/2/65 271/2/65 272/2/65
f 266/2/65 267/2/65 268/2/65
f 159/2/65 161/2/65 163/2/65
f 157/2/65 155/2/65 156/2/65
f 278/2/65 366/2/65 374/2/65
f 433/6/1 445/6/1 434/6/1
f 72/2/64 74/2/64 70/2/64
f 76/2/64 78/2/64 79/2/64
f 352/2/64 355/2/64 357/2/64
f 84/2/64 171/2/64 179/2/64
f 164/5/65 263/5/65 462/5/65
f 348/2/64 350/2/64 351/2/64
f 79/5/64 80/5/64 461/5/64
f 387/2/64 373/2/64 343/2/64
f 70/2/64 69/2/64 390/2/64
f 359/2/64 357/2/64 358/2/64
f 306/2/1 299/2/1 300/2/1
f 461/5/96 463/5/96 464/5/96
f 4/1/1 3/1/1 5/1/1
f 1/2/2 8/2/2 7/2/2
f 2/2/3 7/2/3 9/2/3
f 9/2/4 10/2/4 3/2/4
f 8/2/121 1/2/121 3/2/121
f 7/3/6 28/3/6 24/3/6
f 8/3/122 10/3/122 34/3/122
f 16/3/8 15/3/8 11/3/8
f 43/3/123 17/3/123 13/3/123
f 17/3/10 18/3/10 14/3/10
f 235/3/124 236/3/124 228/3/124
f 236/3/125 225/3/125 228/3/125
f 225/3/126 216/3/126 228/3/126
f 2/1/1 20/1/1 19/1/1
f 46/3/127 45/3/127 21/3/127
f 23/3/13 24/3/13 28/3/13
f 47/2/128 15/2/128 26/2/128
f 15/2/36 16/2/36 26/2/36
f 16/2/129 46/2/129 32/2/129
f 46/2/130 22/2/130 32/2/130
f 27/2/131 47/2/131 26/2/131
f 26/2/36 16/2/36 32/2/36
f 43/2/68 23/2/68 25/2/68
f 25/2/1 26/2/1 32/2/1
f 33/2/132 31/2/132 42/2/132
f 25/2/1 32/2/1 33/2/1
f 17/2/133 43/2/133 25/2/133
f 42/2/134 18/2/134 33/2/134
f 18/2/14 17/2/14 33/2/14
f 47/3/135 27/3/135 28/3/135
f 29/3/16 30/3/16 23/3/16
f 14/3/136 18/3/136 42/3/136
f 35/3/137 36/3/137 22/3/137
f 29/1/1 37/1/1 38/1/1
f 29/4/138 27/4/138 26/4/138
f 37/4/139 26/4/139 25/4/139
f 25/4/140 23/4/140 30/4/140
f 35/1/1 39/1/1 40/1/1
f 35/4/141 31/4/141 33/4/141
f 39/4/142 33/4/142 32/4/142
f 32/4/143 22/4/143 36/4/143
f 464/5/25 463/5/25 381/5/25
f 463/5/25 376/5/25 377/5/25
f 377/5/25 380/5/25 463/5/25
f 380/5/25 381/5/25 463/5/25
f 388/5/25 389/5/25 464/5/25
f 384/5/25 385/5/25 464/5/25
f 385/5/25 388/5/25 464/5/25
f 24/3/144 23/3/144 43/3/144
f 46/3/145 16/3/145 12/3/145
f 11/3/146 15/3/146 47/3/146
f 5/2/2 50/2/2 49/2/2
f 49/2/147 72/2/147 71/2/147
f 50/2/121 5/2/121 84/2/121
f 55/3/148 50/3/148 83/3/148
f 54/3/8 53/3/8 51/3/8
f 56/3/149 55/3/149 82/3/149
f 66/3/127 65/3/127 55/3/127
f 48/3/150 28/3/150 7/3/150
f 8/3/151 21/3/151 45/3/151
f 8/3/1 45/3/1 12/3/1
f 11/3/1 48/3/1 7/3/1
f 8/3/1 12/3/1 11/3/1
f 60/3/152 75/3/152 74/3/152
f 81/3/153 80/3/153 62/3/153
f 75/1/1 60/1/1 63/1/1
f 60/4/138 58/4/138 57/4/138
f 63/4/154 57/4/154 77/4/154
f 80/1/1 79/1/1 64/1/1
f 78/4/155 61/4/155 64/4/155
f 61/4/156 56/4/156 62/4/156
f 66/3/145 54/3/145 52/3/145
f 51/3/146 53/3/146 67/3/146
f 66/2/130 56/2/130 61/2/130
f 61/2/1 78/2/1 57/2/1
f 78/2/1 77/2/1 57/2/1
f 57/2/131 58/2/131 67/2/131
f 54/2/129 66/2/129 61/2/129
f 67/2/128 53/2/128 57/2/128
f 53/2/36 54/2/36 57/2/36
f 128/3/157 108/3/157 89/3/157
f 90/3/158 101/3/158 125/3/158
f 90/3/1 125/3/1 94/3/1
f 93/3/1 128/3/1 89/3/1
f 90/3/1 94/3/1 93/3/1
f 72/3/159 49/3/159 59/3/159
f 86/1/1 85/1/1 87/1/1
f 20/2/4 90/2/4 89/2/4
f 89/2/38 91/2/38 86/2/38
f 91/2/2 92/2/2 85/2/2
f 90/2/160 20/2/160 85/2/160
f 89/3/40 108/3/40 104/3/40
f 90/3/161 92/3/161 114/3/161
f 98/3/10 97/3/10 93/3/10
f 123/3/162 99/3/162 95/3/162
f 99/3/8 100/3/8 96/3/8
f 315/3/163 316/3/163 308/3/163
f 316/3/164 305/3/164 308/3/164
f 305/3/165 296/3/165 308/3/165
f 126/3/166 125/3/166 101/3/166
f 103/3/45 104/3/45 108/3/45
f 127/3/167 107/3/167 108/3/167
f 109/3/47 110/3/47 103/3/47
f 96/3/168 100/3/168 122/3/168
f 115/3/169 116/3/169 102/3/169
f 121/3/170 122/3/170 114/3/170
f 122/3/125 111/3/125 114/3/125
f 111/3/126 102/3/126 114/3/126
f 109/1/1 117/1/1 118/1/1
f 109/4/171 107/4/171 106/4/171
f 117/4/142 106/4/142 105/4/142
f 105/4/172 103/4/172 110/4/172
f 115/1/1 119/1/1 120/1/1
f 115/4/173 111/4/173 113/4/173
f 119/4/174 113/4/174 112/4/174
f 112/4/175 102/4/175 116/4/175
f 104/3/176 103/3/176 123/3/176
f 126/3/177 98/3/177 94/3/177
f 93/3/178 97/3/178 127/3/178
f 87/2/4 130/2/4 129/2/4
f 129/2/38 150/2/38 149/2/38
f 130/2/160 87/2/160 162/2/160
f 135/3/179 130/3/179 161/3/179
f 132/3/10 134/3/10 133/3/10
f 136/3/50 135/3/50 160/3/50
f 146/3/166 145/3/166 135/3/166
f 152/3/45 151/3/45 139/3/45
f 147/2/134 133/2/134 137/2/134
f 133/2/14 134/2/14 137/2/14
f 134/2/133 146/2/133 141/2/133
f 146/2/68 136/2/68 141/2/68
f 141/2/1 156/2/1 137/2/1
f 156/2/1 155/2/1 137/2/1
f 138/2/132 147/2/132 137/2/132
f 147/3/167 138/3/167 139/3/167
f 342/3/150 333/3/150 323/3/150
f 324/3/151 329/3/151 339/3/151
f 324/3/1 339/3/1 326/3/1
f 325/3/1 342/3/1 323/3/1
f 324/3/1 326/3/1 325/3/1
f 140/3/47 153/3/47 152/3/47
f 159/3/180 158/3/180 142/3/180
f 153/1/1 140/1/1 143/1/1
f 140/4/181 138/4/181 137/4/181
f 143/4/182 137/4/182 155/4/182
f 158/1/1 157/1/1 144/1/1
f 156/4/183 141/4/183 144/4/183
f 141/4/175 136/4/175 142/4/175
f 146/3/177 134/3/177 132/3/177
f 131/3/178 133/3/178 147/3/178
f 315/3/184 308/3/184 286/3/184
f 285/3/185 298/3/185 318/3/185
f 285/3/1 318/3/1 289/3/1
f 290/3/1 315/3/1 286/3/1
f 285/3/1 289/3/1 286/3/1
f 164/1/1 69/1/1 359/1/1
f 148/3/157 139/3/157 129/3/157
f 130/3/158 135/3/158 145/3/158
f 130/3/1 145/3/1 132/3/1
f 131/3/1 148/3/1 129/3/1
f 130/3/1 132/3/1 131/3/1
f 150/3/40 129/3/40 139/3/40
f 6/3/62 71/3/62 70/3/62
f 70/3/62 163/3/62 2/3/62
f 163/3/62 162/3/62 87/3/62
f 163/3/62 87/3/62 85/3/62
f 4/3/62 6/3/62 70/3/62
f 85/3/62 20/3/62 163/3/62
f 20/3/62 2/3/62 163/3/62
f 390/3/1 391/3/1 163/3/1
f 182/2/1 181/2/1 179/2/1
f 186/2/1 185/2/1 183/2/1
f 188/2/1 190/2/1 189/2/1
f 194/2/1 193/2/1 191/2/1
f 180/3/63 179/3/63 171/3/63
f 182/3/64 180/3/64 172/3/64
f 184/3/63 183/3/63 173/3/63
f 183/3/65 185/3/65 166/3/65
f 186/3/64 184/3/64 174/3/64
f 188/3/63 187/3/63 175/3/63
f 187/3/65 189/3/65 168/3/65
f 190/3/64 188/3/64 176/3/64
f 192/3/63 191/3/63 177/3/63
f 191/3/65 193/3/65 170/3/65
f 198/1/1 197/1/1 199/1/1
f 195/2/4 202/2/4 201/2/4
f 201/2/38 203/2/38 198/2/38
f 203/2/2 204/2/2 197/2/2
f 202/2/160 195/2/160 197/2/160
f 203/3/40 201/3/40 222/3/40
f 202/3/161 204/3/161 228/3/161
f 210/3/10 209/3/10 205/3/10
f 237/3/186 211/3/186 207/3/186
f 211/3/8 212/3/8 208/3/8
f 333/3/85 342/3/85 341/3/85
f 341/3/135 332/3/135 333/3/135
f 332/3/187 346/3/187 333/3/187
f 196/1/1 214/1/1 213/1/1
f 240/3/188 239/3/188 215/3/188
f 217/3/45 218/3/45 222/3/45
f 237/2/130 217/2/130 219/2/130
f 220/2/132 221/2/132 241/2/132
f 211/2/129 237/2/129 219/2/129
f 220/2/134 241/2/134 209/2/134
f 212/2/36 211/2/36 227/2/36
f 211/2/36 219/2/36 227/2/36
f 220/2/14 209/2/14 210/2/14
f 219/2/1 220/2/1 226/2/1
f 227/2/1 219/2/1 226/2/1
f 225/2/131 236/2/131 227/2/131
f 236/2/128 212/2/128 227/2/128
f 220/2/14 210/2/14 226/2/14
f 210/2/133 240/2/133 226/2/133
f 241/3/167 221/3/167 222/3/167
f 223/3/70 224/3/70 217/3/70
f 208/3/168 212/3/168 236/3/168
f 229/3/189 230/3/189 216/3/189
f 223/1/1 231/1/1 232/1/1
f 223/4/190 221/4/190 220/4/190
f 231/4/191 220/4/191 219/4/191
f 219/4/192 217/4/192 224/4/192
f 229/1/1 233/1/1 234/1/1
f 229/4/193 225/4/193 227/4/193
f 233/4/194 227/4/194 226/4/194
f 226/4/195 216/4/195 230/4/195
f 218/3/176 217/3/176 237/3/176
f 240/3/177 210/3/177 206/3/177
f 99/2/129 123/2/129 105/2/129
f 123/2/130 103/2/130 105/2/130
f 122/2/128 100/2/128 113/2/128
f 100/2/36 99/2/36 113/2/36
f 113/2/131 111/2/131 122/2/131
f 126/2/68 102/2/68 112/2/68
f 98/2/133 126/2/133 112/2/133
f 112/2/1 113/2/1 105/2/1
f 113/2/36 99/2/36 105/2/36
f 97/2/14 98/2/14 106/2/14
f 98/2/14 112/2/14 106/2/14
f 107/2/132 127/2/132 106/2/132
f 127/2/134 97/2/134 106/2/134
f 205/3/196 209/3/196 241/3/196
f 199/2/4 244/2/4 243/2/4
f 243/2/38 266/2/38 265/2/38
f 244/2/160 199/2/160 278/2/160
f 249/3/179 244/3/179 277/3/179
f 248/3/10 247/3/10 245/3/10
f 250/3/11 249/3/11 276/3/11
f 260/3/188 259/3/188 249/3/188
f 268/3/45 267/3/45 253/3/45
f 261/2/134 247/2/134 251/2/134
f 247/2/14 248/2/14 251/2/14
f 248/2/133 260/2/133 255/2/133
f 260/2/68 250/2/68 255/2/68
f 255/2/1 272/2/1 251/2/1
f 272/2/1 271/2/1 251/2/1
f 252/2/132 261/2/132 251/2/132
f 261/3/167 252/3/167 253/3/167
f 68/3/150 59/3/150 49/3/150
f 50/3/151 55/3/151 65/3/151
f 50/3/1 65/3/1 52/3/1
f 51/3/1 68/3/1 49/3/1
f 50/3/1 52/3/1 51/3/1
f 254/3/70 269/3/70 268/3/70
f 275/3/197 274/3/197 256/3/197
f 269/1/1 254/1/1 257/1/1
f 254/4/190 252/4/190 251/4/190
f 257/4/182 251/4/182 271/4/182
f 274/1/1 273/1/1 258/1/1
f 272/4/183 255/4/183 258/4/183
f 255/4/195 250/4/195 256/4/195
f 260/3/198 248/3/198 246/3/198
f 245/3/196 247/3/196 261/3/196
f 41/3/184 34/3/184 10/3/184
f 9/3/185 24/3/185 44/3/185
f 9/3/1 44/3/1 13/3/1
f 14/3/1 41/3/1 10/3/1
f 9/3/1 13/3/1 10/3/1
f 322/3/150 302/3/150 283/3/150
f 284/3/151 295/3/151 319/3/151
f 284/3/1 319/3/1 288/3/1
f 287/3/1 322/3/1 283/3/1
f 284/3/1 288/3/1 287/3/1
f 266/3/40 243/3/40 253/3/40
f 280/1/1 279/1/1 281/1/1
f 214/2/2 284/2/2 283/2/2
f 283/2/3 285/2/3 280/2/3
f 285/2/4 286/2/4 279/2/4
f 284/2/121 214/2/121 279/2/121
f 283/3/6 302/3/6 298/3/6
f 284/3/122 286/3/122 308/3/122
f 288/3/8 292/3/8 291/3/8
f 317/3/199 293/3/199 289/3/199
f 293/3/10 294/3/10 290/3/10
f 41/3/200 42/3/200 34/3/200
f 42/3/201 31/3/201 34/3/201
f 31/3/202 22/3/202 34/3/202
f 320/3/203 319/3/203 295/3/203
f 297/3/13 298/3/13 302/3/13
f 321/3/135 301/3/135 302/3/135
f 303/3/86 304/3/86 297/3/86
f 175/3/1 168/3/1 174/3/1
f 168/3/1 167/3/1 174/3/1
f 170/3/1 169/3/1 176/3/1
f 175/3/1 174/3/1 1/3/1
f 174/3/1 173/3/1 1/3/1
f 177/3/1 170/3/1 176/3/1
f 177/3/1 176/3/1 88/3/1
f 176/3/1 175/3/1 86/3/1
f 88/3/1 176/3/1 86/3/1
f 149/3/1 178/3/1 177/3/1
f 88/3/1 149/3/1 177/3/1
f 1/3/1 19/3/1 175/3/1
f 19/3/1 86/3/1 175/3/1
f 173/3/1 166/3/1 165/3/1
f 171/3/1 84/3/1 172/3/1
f 84/3/1 5/3/1 172/3/1
f 173/3/1 165/3/1 172/3/1
f 3/3/1 1/3/1 173/3/1
f 172/3/1 5/3/1 173/3/1
f 290/3/136 294/3/136 316/3/136
f 309/3/204 310/3/204 296/3/204
f 303/1/1 311/1/1 312/1/1
f 303/4/205 301/4/205 300/4/205
f 311/4/194 300/4/194 299/4/194
f 299/4/206 297/4/206 304/4/206
f 309/1/1 313/1/1 314/1/1
f 309/4/207 305/4/207 307/4/207
f 313/4/208 307/4/208 306/4/208
f 306/4/209 296/4/209 310/4/209
f 298/3/144 297/3/144 317/3/144
f 320/3/210 292/3/210 288/3/210
f 287/3/211 291/3/211 321/3/211
f 281/2/2 324/2/2 323/2/2
f 323/2/147 344/2/147 343/2/147
f 324/2/121 281/2/121 356/2/121
f 329/3/148 324/3/148 355/3/148
f 326/3/8 328/3/8 327/3/8
f 330/3/212 329/3/212 354/3/212
f 340/3/203 339/3/203 329/3/203
f 59/3/15 68/3/15 67/3/15
f 67/3/135 58/3/135 59/3/135
f 58/3/187 74/3/187 59/3/187
f 368/3/1 361/3/1 360/3/1
f 367/3/1 366/3/1 278/3/1
f 368/3/1 360/3/1 367/3/1
f 363/3/1 362/3/1 369/3/1
f 368/3/1 367/3/1 199/3/1
f 367/3/1 278/3/1 199/3/1
f 370/3/1 363/3/1 369/3/1
f 369/3/1 368/3/1 197/3/1
f 368/3/1 199/3/1 197/3/1
f 370/3/1 369/3/1 195/3/1
f 369/3/1 197/3/1 195/3/1
f 365/3/1 364/3/1 371/3/1
f 371/3/1 370/3/1 213/3/1
f 195/3/1 213/3/1 370/3/1
f 213/3/1 280/3/1 371/3/1
f 372/3/1 365/3/1 371/3/1
f 343/3/1 373/3/1 372/3/1
f 280/3/1 282/3/1 371/3/1
f 282/3/1 343/3/1 372/3/1
f 121/3/213 114/3/213 92/3/213
f 91/3/214 104/3/214 124/3/214
f 91/3/1 124/3/1 95/3/1
f 96/3/1 121/3/1 92/3/1
f 91/3/1 95/3/1 92/3/1
f 334/3/215 347/3/215 346/3/215
f 265/3/94 264/3/94 200/3/94
f 264/3/94 357/3/94 214/3/94
f 198/3/94 264/3/94 196/3/94
f 357/3/94 356/3/94 281/3/94
f 281/3/94 279/3/94 357/3/94
f 279/3/94 214/3/94 357/3/94
f 214/3/94 196/3/94 264/3/94
f 353/3/216 352/3/216 336/3/216
f 347/1/1 334/1/1 337/1/1
f 334/4/217 332/4/217 331/4/217
f 337/4/154 331/4/154 349/4/154
f 352/1/1 351/1/1 338/1/1
f 350/4/155 335/4/155 338/4/155
f 335/4/209 330/4/209 336/4/209
f 340/3/210 328/3/210 326/3/210
f 325/3/211 327/3/211 341/3/211
f 235/3/213 228/3/213 204/3/213
f 203/3/214 218/3/214 238/3/214
f 203/3/1 238/3/1 207/3/1
f 208/3/1 235/3/1 204/3/1
f 203/3/1 207/3/1 204/3/1
f 262/3/157 253/3/157 243/3/157
f 244/3/158 249/3/158 259/3/158
f 244/3/1 259/3/1 246/3/1
f 245/3/1 262/3/1 243/3/1
f 244/3/1 246/3/1 245/3/1
f 242/3/157 222/3/157 201/3/157
f 202/3/158 215/3/158 239/3/158
f 202/3/1 239/3/1 206/3/1
f 205/3/1 242/3/1 201/3/1
f 202/3/1 206/3/1 205/3/1
f 344/3/159 323/3/159 333/3/159
f 263/3/63 359/3/63 358/3/63
f 377/2/1 376/2/1 374/2/1
f 341/2/128 327/2/128 331/2/128
f 327/2/36 328/2/36 331/2/36
f 328/2/129 340/2/129 335/2/129
f 340/2/130 330/2/130 335/2/130
f 335/2/1 350/2/1 331/2/1
f 350/2/1 349/2/1 331/2/1
f 332/2/131 341/2/131 331/2/131
f 381/2/1 380/2/1 378/2/1
f 383/2/1 385/2/1 384/2/1
f 460/6/96 453/6/96 454/6/96
f 454/6/96 459/6/96 460/6/96
f 459/6/96 436/6/96 460/6/96
f 436/6/96 448/6/96 449/6/96
f 448/6/96 442/6/96 449/6/96
f 442/6/96 443/6/96 449/6/96
f 436/6/96 449/6/96 437/6/96
f 389/2/1 388/2/1 386/2/1
f 375/3/25 374/3/25 366/3/25
f 377/3/65 375/3/65 367/3/65
f 379/3/25 378/3/25 368/3/25
f 378/3/64 380/3/64 361/3/64
f 381/3/65 379/3/65 369/3/65
f 383/3/25 382/3/25 370/3/25
f 382/3/64 384/3/64 363/3/64
f 385/3/65 383/3/65 371/3/65
f 387/3/25 386/3/25 372/3/25
f 372/3/64 386/3/64 388/3/64
f 392/1/1 391/1/1 390/1/1
f 394/6/1 400/6/1 399/6/1
f 395/6/97 401/6/97 400/6/97
f 396/6/98 402/6/98 401/6/98
f 397/6/96 403/6/96 402/6/96
f 398/6/99 404/6/99 403/6/99
f 398/6/100 393/6/100 399/6/100
f 419/6/97 413/6/97 412/6/97
f 420/6/98 414/6/98 413/6/98
f 410/6/99 416/6/99 415/6/99
f 417/6/100 411/6/100 416/6/100
f 407/6/218 419/6/218 418/6/218
f 407/6/219 408/6/219 420/6/219
f 428/6/1 423/6/1 422/6/1
f 422/6/1 429/6/1 428/6/1
f 429/6/1 406/6/1 428/6/1
f 406/6/1 418/6/1 417/6/1
f 418/6/1 412/6/1 417/6/1
f 412/6/1 411/6/1 417/6/1
f 406/6/1 417/6/1 405/6/1
f 408/6/220 407/6/220 430/6/220
f 406/6/221 429/6/221 430/6/221
f 410/6/109 424/6/109 423/6/109
f 429/6/110 422/6/110 427/6/110
f 430/6/111 427/6/111 426/6/111
f 432/6/112 425/6/112 424/6/112
f 421/6/96 415/6/96 414/6/96
f 414/6/96 420/6/96 421/6/96
f 420/6/96 408/6/96 421/6/96
f 408/6/96 431/6/96 432/6/96
f 431/6/96 426/6/96 432/6/96
f 426/6/96 425/6/96 432/6/96
f 408/6/96 432/6/96 409/6/96
f 440/6/97 441/6/97 447/6/97
f 441/6/98 442/6/98 448/6/98
f 443/6/99 444/6/99 438/6/99
f 444/6/100 439/6/100 445/6/100
f 446/6/222 447/6/222 435/6/222
f 435/6/223 447/6/223 448/6/223
f 436/6/224 459/6/224 458/6/224
f 458/6/225 457/6/225 434/6/225
f 451/6/110 452/6/110 438/6/110
f 455/6/109 450/6/109 457/6/109
f 454/6/112 455/6/112 458/6/112
f 452/6/111 453/6/111 460/6/111
f 190/2/63 169/2/63 170/2/63
f 152/2/65 153/2/65 150/2/65
f 153/2/65 192/2/65 149/2/65
f 192/2/65 178/2/65 149/2/65
f 149/2/65 150/2/65 153/2/65
f 385/2/25 364/2/25 365/2/25
f 189/2/63 186/2/63 167/2/63
f 182/2/63 165/2/63 166/2/63
f 381/2/25 362/2/25 363/2/25
f 380/2/25 377/2/25 360/2/25
f 462/5/63 461/5/63 186/5/63
f 461/5/63 181/5/63 182/5/63
f 182/5/63 185/5/63 461/5/63
f 185/5/63 186/5/63 461/5/63
f 193/5/63 194/5/63 462/5/63
f 186/5/63 189/5/63 462/5/63
f 189/5/63 190/5/63 462/5/63
f 358/3/1 357/3/1 264/3/1
f 164/3/25 391/3/25 390/3/25
f 273/2/65 270/2/65 271/2/65
f 268/2/65 269/2/65 266/2/65
f 269/2/65 264/2/65 266/2/65
f 264/2/65 265/2/65 266/2/65
f 159/2/65 160/2/65 161/2/65
f 161/2/65 162/2/65 163/2/65
f 163/2/65 158/2/65 159/2/65
f 157/2/65 154/2/65 155/2/65
f 374/2/65 274/2/65 278/2/65
f 274/2/65 275/2/65 277/2/65
f 278/2/65 274/2/65 277/2/65
f 275/2/65 276/2/65 277/2/65
f 446/6/1 434/6/1 445/6/1
f 434/6/1 457/6/1 456/6/1
f 457/6/1 450/6/1 451/6/1
f 457/6/1 451/6/1 456/6/1
f 439/6/1 440/6/1 446/6/1
f 445/6/1 439/6/1 446/6/1
f 434/6/1 456/6/1 433/6/1
f 70/2/64 71/2/64 72/2/64
f 72/2/64 73/2/64 74/2/64
f 74/2/64 75/2/64 70/2/64
f 76/2/64 77/2/64 78/2/64
f 352/2/64 353/2/64 354/2/64
f 354/2/64 355/2/64 352/2/64
f 355/2/64 356/2/64 357/2/64
f 179/2/64 80/2/64 84/2/64
f 80/2/64 81/2/64 83/2/64
f 84/2/64 80/2/64 83/2/64
f 81/2/64 82/2/64 83/2/64
f 274/5/65 374/5/65 463/5/65
f 374/5/65 376/5/65 463/5/65
f 463/5/65 462/5/65 263/5/65
f 462/5/65 194/5/65 192/5/65
f 462/5/65 192/5/65 153/5/65
f 270/5/65 273/5/65 263/5/65
f 273/5/65 274/5/65 463/5/65
f 263/5/65 273/5/65 463/5/65
f 264/5/65 269/5/65 263/5/65
f 269/5/65 270/5/65 263/5/65
f 263/5/65 392/5/65 264/5/65
f 163/5/65 391/5/65 164/5/65
f 158/5/65 163/5/65 164/5/65
f 157/5/65 158/5/65 164/5/65
f 154/5/65 157/5/65 164/5/65
f 153/5/65 154/5/65 462/5/65
f 154/5/65 164/5/65 462/5/65
f 348/2/64 349/2/64 350/2/64
f 389/5/64 387/5/64 464/5/64
f 387/5/64 347/5/64 464/5/64
f 347/5/64 348/5/64 464/5/64
f 348/5/64 351/5/64 359/5/64
f 351/5/64 352/5/64 359/5/64
f 352/5/64 357/5/64 359/5/64
f 348/5/64 359/5/64 464/5/64
f 69/5/64 70/5/64 75/5/64
f 69/5/64 75/5/64 76/5/64
f 464/5/64 359/5/64 461/5/64
f 359/5/64 69/5/64 461/5/64
f 181/5/64 461/5/64 179/5/64
f 80/5/64 179/5/64 461/5/64
f 69/5/64 76/5/64 79/5/64
f 69/5/64 79/5/64 461/5/64
f 343/2/64 344/2/64 347/2/64
f 344/2/64 345/2/64 346/2/64
f 346/2/64 347/2/64 344/2/64
f 347/2/64 387/2/64 343/2/64
f 293/2/133 317/2/133 299/2/133
f 317/2/68 297/2/68 299/2/68
f 316/2/134 294/2/134 307/2/134
f 294/2/14 293/2/14 307/2/14
f 307/2/132 305/2/132 316/2/132
f 320/2/130 296/2/130 306/2/130
f 292/2/129 320/2/129 306/2/129
f 306/2/1 307/2/1 299/2/1
f 307/2/14 293/2/14 299/2/14
f 291/2/36 292/2/36 300/2/36
f 292/2/36 306/2/36 300/2/36
f 301/2/131 321/2/131 300/2/131
f 321/2/128 291/2/128 300/2/128
f 461/5/96 462/5/96 463/5/96
