# Blender 5.2.2 LTS
# www.blender.org
mtllib ruins_find_votive.mtl
o piece
v -0.217050 -0.090950 0.023667
v 0.000000 0.300000 -0.029000
v 0.000000 0.300000 0.021000
v 0.092705 0.285317 -0.029000
v 0.092705 0.285317 0.021000
v 0.176336 0.242705 -0.029000
v 0.176336 0.242705 0.021000
v 0.242705 0.176336 -0.029000
v 0.242705 0.176336 0.021000
v 0.285317 0.092705 -0.029000
v 0.285317 0.092705 0.021000
v 0.300000 -0.000000 -0.029000
v 0.300000 0.000000 0.021000
v 0.285317 -0.092705 -0.029000
v 0.285317 -0.092705 0.021000
v 0.242705 -0.176336 -0.029000
v 0.242705 -0.176336 0.021000
v 0.176336 -0.242705 -0.029000
v 0.176336 -0.242705 0.021000
v 0.092705 -0.285317 -0.029000
v 0.092705 -0.285317 0.021000
v 0.000000 -0.300000 -0.029000
v 0.000000 -0.300000 0.021000
v -0.092705 -0.285317 -0.029000
v -0.092705 -0.285317 0.021000
v -0.176336 -0.242705 -0.029000
v -0.176336 -0.242705 0.021000
v -0.242705 -0.176336 -0.029000
v -0.242705 -0.176336 0.021000
v -0.285317 -0.092705 -0.029000
v -0.285317 -0.092705 0.021000
v -0.300000 -0.000000 -0.029000
v -0.300000 0.000000 0.021000
v -0.285317 0.092705 -0.029000
v -0.285317 0.092705 0.021000
v -0.242705 0.176336 -0.029000
v -0.242705 0.176336 0.021000
v -0.176336 0.242705 -0.029000
v -0.176336 0.242705 0.021000
v -0.092705 0.285317 -0.029000
v -0.092705 0.285317 0.021000
v -0.217050 -0.074950 0.026333
v -0.182950 -0.090950 0.026333
v -0.182950 -0.074950 0.023667
v -0.217050 -0.125050 0.023667
v -0.217050 -0.109050 0.021000
v -0.217050 -0.109050 0.029000
v -0.182950 -0.125050 0.026333
v -0.182950 -0.109050 0.023667
v -0.190950 -0.117050 0.023667
v -0.190950 -0.082950 0.026333
v -0.174950 -0.117050 0.026333
v -0.174950 -0.082950 0.021000
v -0.174950 -0.082950 0.029000
v -0.225050 -0.117050 0.021000
v -0.225050 -0.117050 0.029000
v -0.225050 -0.082950 0.021000
v -0.225050 -0.082950 0.029000
v -0.209050 -0.117050 0.021000
v -0.209050 -0.117050 0.029000
v -0.209050 -0.082950 0.023667
v -0.231000 -0.108000 0.021000
v -0.231000 -0.108000 0.029000
v -0.231000 -0.092000 0.021000
v -0.231000 -0.092000 0.029000
v -0.169000 -0.108000 0.021000
v -0.169000 -0.108000 0.029000
v -0.169000 -0.092000 0.021000
v -0.169000 -0.092000 0.029000
v -0.221700 0.010600 0.021000
v -0.221700 0.010600 0.029000
v -0.221700 0.026600 0.026333
v -0.178300 0.010600 0.026333
v -0.178300 0.026600 0.023667
v -0.189400 -0.018600 0.023667
v -0.189400 0.018600 0.026333
v -0.173400 -0.018600 0.026333
v -0.173400 0.018600 0.023667
v -0.231000 -0.026600 0.023667
v -0.231000 -0.010600 0.026333
v -0.169000 -0.026600 0.026333
v -0.169000 -0.010600 0.023667
v -0.218600 0.078360 0.023667
v -0.218600 0.094360 0.026333
v -0.181400 0.078360 0.026333
v -0.181400 0.094360 0.023667
v -0.218600 0.105640 0.023667
v -0.218600 0.121640 0.026333
v -0.181400 0.105640 0.026333
v -0.181400 0.121640 0.023667
v -0.227574 0.088131 0.023667
v -0.227574 0.116931 0.026333
v -0.198774 0.088131 0.026333
v -0.198774 0.116931 0.023667
v -0.105828 -0.213817 0.021000
v -0.105828 -0.213817 0.029000
v -0.105828 -0.185017 0.026333
v -0.077028 -0.213818 0.026333
v -0.077028 -0.185017 0.023667
v -0.121700 -0.189400 0.023667
v -0.121700 -0.173400 0.026333
v -0.078300 -0.189400 0.026333
v -0.078300 -0.173400 0.023667
v -0.089400 -0.218600 0.023667
v -0.089400 -0.181400 0.021000
v -0.089400 -0.181400 0.029000
v -0.073400 -0.218600 0.021000
v -0.073400 -0.218600 0.029000
v -0.073400 -0.181400 0.021000
v -0.073400 -0.181400 0.029000
v -0.131000 -0.126600 0.021000
v -0.131000 -0.126600 0.029000
v -0.131000 -0.110600 0.021000
v -0.131000 -0.110600 0.029000
v -0.069000 -0.126600 0.021000
v -0.069000 -0.126600 0.029000
v -0.069000 -0.110600 0.023667
v -0.121700 -0.089400 0.021000
v -0.121700 -0.089400 0.029000
v -0.121700 -0.073400 0.021000
v -0.121700 -0.073400 0.029000
v -0.078300 -0.089400 0.026333
v -0.078300 -0.073400 0.021000
v -0.078300 -0.073400 0.029000
v -0.089400 -0.118600 0.023667
v -0.089400 -0.081400 0.026333
v -0.073400 -0.118600 0.026333
v -0.073400 -0.081400 0.023667
v -0.121700 0.010600 0.023667
v -0.121700 0.026600 0.026333
v -0.078300 0.010600 0.026333
v -0.078300 0.026600 0.023667
v -0.089400 -0.018600 0.021000
v -0.089400 -0.018600 0.029000
v -0.089400 0.018600 0.026333
v -0.073400 -0.018600 0.026333
v -0.073400 0.018600 0.023667
v -0.121665 -0.018882 0.023667
v -0.121665 0.009918 0.026333
v -0.092865 -0.018882 0.026333
v -0.092865 0.009918 0.023667
v -0.124498 0.091626 0.023667
v -0.124498 0.120426 0.026333
v -0.095698 0.091626 0.026333
v -0.095698 0.120426 0.023667
v -0.121700 0.110600 0.021000
v -0.121700 0.110600 0.029000
v -0.121700 0.126600 0.026333
v -0.078300 0.110600 0.026333
v -0.078300 0.126600 0.023667
v -0.089400 0.081400 0.023667
v -0.089400 0.118600 0.021000
v -0.089400 0.118600 0.029000
v -0.073400 0.081400 0.026333
v -0.073400 0.118600 0.023667
v -0.089400 0.069000 0.023667
v -0.089400 0.131000 0.026333
v -0.073400 0.069000 0.026333
v -0.073400 0.131000 0.023667
v 0.002763 -0.198224 0.023667
v 0.002763 -0.169424 0.026333
v 0.031563 -0.198224 0.026333
v 0.031563 -0.169424 0.023667
v -0.021700 -0.189400 0.023667
v -0.021700 -0.173400 0.026333
v 0.021700 -0.189400 0.026333
v 0.021700 -0.173400 0.023667
v 0.010600 -0.218600 0.023667
v 0.010600 -0.181400 0.026333
v 0.026600 -0.218600 0.021000
v 0.026600 -0.218600 0.029000
v 0.026600 -0.181400 0.021000
v 0.026600 -0.181400 0.029000
v -0.026600 -0.231000 0.023667
v -0.026600 -0.169000 0.026333
v -0.010600 -0.231000 0.026333
v -0.010600 -0.169000 0.023667
v -0.031000 -0.026600 0.023667
v -0.031000 -0.010600 0.026333
v 0.031000 -0.026600 0.026333
v 0.031000 -0.010600 0.023667
v -0.021700 0.010600 0.023667
v -0.021700 0.026600 0.026333
v 0.021700 0.010600 0.021000
v 0.021700 0.010600 0.029000
v 0.021700 0.026600 0.023667
v 0.010600 -0.018600 0.023667
v 0.010600 0.018600 0.026333
v 0.026600 -0.018600 0.026333
v 0.026600 0.018600 0.023667
v -0.018600 -0.021640 0.023667
v -0.018600 -0.005640 0.026333
v 0.018600 -0.021640 0.021000
v 0.018600 -0.021640 0.029000
v 0.018600 -0.005640 0.021000
v 0.018600 -0.005640 0.029000
v -0.018600 0.005640 0.021000
v -0.018600 0.005640 0.029000
v -0.018600 0.021640 0.021000
v -0.018600 0.021640 0.029000
v 0.018600 0.005640 0.021000
v 0.018600 0.005640 0.029000
v 0.018600 0.021640 0.021000
v 0.018600 0.021640 0.029000
v -0.031000 0.110600 0.021000
v -0.031000 0.110600 0.029000
v -0.031000 0.126600 0.021000
v -0.031000 0.126600 0.029000
v 0.031000 0.110600 0.021000
v 0.031000 0.110600 0.029000
v 0.031000 0.126600 0.021000
v 0.031000 0.126600 0.029000
v -0.028651 0.113598 0.025000
v -0.018366 0.125855 0.021000
v -0.018366 0.125855 0.029000
v 0.018366 0.074145 0.021000
v 0.018366 0.074145 0.029000
v 0.028651 0.086402 0.025000
v -0.018600 0.078360 0.021000
v -0.018600 0.078360 0.029000
v -0.018600 0.094360 0.021000
v -0.018600 0.094360 0.029000
v 0.018600 0.078360 0.021000
v 0.018600 0.078360 0.029000
v 0.018600 0.094360 0.021000
v 0.018600 0.094360 0.029000
v -0.018600 0.105640 0.021000
v -0.018600 0.105640 0.029000
v -0.018600 0.121640 0.021000
v -0.018600 0.121640 0.029000
v 0.018600 0.105640 0.021000
v 0.018600 0.105640 0.029000
v 0.018600 0.121640 0.021000
v 0.018600 0.121640 0.029000
v -0.031000 0.173400 0.021000
v -0.031000 0.173400 0.029000
v -0.031000 0.189400 0.021000
v -0.031000 0.189400 0.029000
v 0.031000 0.173400 0.021000
v 0.031000 0.173400 0.029000
v 0.031000 0.189400 0.021000
v 0.031000 0.189400 0.029000
v -0.018600 0.178360 0.023667
v -0.018600 0.194360 0.026333
v 0.018600 0.178360 0.026333
v 0.018600 0.194360 0.021000
v 0.018600 0.194360 0.029000
v -0.018600 0.205640 0.023667
v -0.018600 0.221640 0.026333
v 0.018600 0.205640 0.026333
v 0.018600 0.221640 0.023667
v 0.002911 0.180985 0.023667
v 0.002911 0.209785 0.026333
v 0.031711 0.180985 0.026333
v 0.031711 0.209785 0.023667
v 0.071349 -0.186402 0.023667
v 0.081634 -0.174146 0.026333
v 0.118366 -0.225855 0.021000
v 0.118366 -0.225855 0.029000
v 0.128651 -0.213598 0.023667
v 0.078300 -0.189400 0.021000
v 0.078300 -0.189400 0.029000
v 0.078300 -0.173400 0.026333
v 0.121700 -0.189400 0.026333
v 0.121700 -0.173400 0.023667
v 0.110600 -0.218600 0.021000
v 0.110600 -0.218600 0.029000
v 0.110600 -0.181400 0.026333
v 0.126600 -0.218600 0.026333
v 0.126600 -0.181400 0.023667
v 0.069000 -0.226600 0.023667
v 0.069000 -0.210600 0.026333
v 0.131000 -0.226600 0.026333
v 0.131000 -0.210600 0.023667
v 0.069000 -0.108000 0.023667
v 0.069000 -0.092000 0.026333
v 0.131000 -0.108000 0.026333
v 0.131000 -0.092000 0.023667
v 0.081400 -0.121640 0.021000
v 0.081400 -0.121640 0.029000
v 0.081400 -0.105640 0.026333
v 0.118600 -0.121640 0.026333
v 0.118600 -0.105640 0.023667
v 0.081400 -0.094360 0.023667
v 0.081400 -0.078360 0.026333
v 0.118600 -0.094360 0.026333
v 0.118600 -0.078360 0.023667
v 0.081400 0.078360 0.021000
v 0.081400 0.078360 0.029000
v 0.081400 0.094360 0.026333
v 0.118600 0.078360 0.026333
v 0.118600 0.094360 0.023667
v 0.081400 0.105640 0.023667
v 0.081400 0.121640 0.026333
v 0.118600 0.105640 0.026333
v 0.118600 0.121640 0.023667
v 0.078300 0.110600 0.021000
v 0.078300 0.110600 0.029000
v 0.078300 0.126600 0.026333
v 0.121700 0.110600 0.026333
v 0.121700 0.126600 0.023667
v 0.110600 0.081400 0.021000
v 0.110600 0.081400 0.029000
v 0.110600 0.118600 0.026333
v 0.126600 0.081400 0.026333
v 0.126600 0.118600 0.023667
v 0.081634 0.074145 0.021000
v 0.081634 0.074145 0.029000
v 0.071349 0.086402 0.025000
v 0.128651 0.113598 0.025000
v 0.118366 0.125855 0.021000
v 0.118366 0.125855 0.029000
v 0.082950 0.209050 0.023667
v 0.082950 0.225050 0.026333
v 0.117050 0.209050 0.026333
v 0.117050 0.225050 0.023667
v 0.082950 0.174950 0.021000
v 0.082950 0.174950 0.029000
v 0.082950 0.190950 0.021000
v 0.082950 0.190950 0.029000
v 0.117050 0.174950 0.026333
v 0.117050 0.190950 0.023667
v 0.109050 0.182950 0.021000
v 0.109050 0.182950 0.029000
v 0.109050 0.217050 0.026333
v 0.125050 0.182950 0.021000
v 0.125050 0.182950 0.029000
v 0.125050 0.217050 0.021000
v 0.125050 0.217050 0.029000
v 0.074950 0.182950 0.023667
v 0.074950 0.217050 0.026333
v 0.090950 0.182950 0.026333
v 0.090950 0.217050 0.021000
v 0.090950 0.217050 0.029000
v 0.081400 0.178360 0.023667
v 0.081400 0.194360 0.026333
v 0.118600 0.178360 0.026333
v 0.118600 0.194360 0.023667
v 0.081400 0.205640 0.023667
v 0.081400 0.221640 0.026333
v 0.118600 0.205640 0.026333
v 0.118600 0.221640 0.023667
v 0.073400 0.169000 0.023667
v 0.073400 0.231000 0.026333
v 0.089400 0.169000 0.026333
v 0.089400 0.231000 0.023667
v 0.182950 -0.090950 0.023667
v 0.182950 -0.074950 0.026333
v 0.217050 -0.090950 0.026333
v 0.217050 -0.074950 0.023667
v 0.182950 -0.125050 0.023667
v 0.182950 -0.109050 0.026333
v 0.217050 -0.125050 0.026333
v 0.217050 -0.109050 0.023667
v 0.209050 -0.117050 0.023667
v 0.209050 -0.082950 0.026333
v 0.225050 -0.117050 0.026333
v 0.225050 -0.082950 0.023667
v 0.174950 -0.117050 0.023667
v 0.174950 -0.082950 0.026333
v 0.190950 -0.117050 0.021000
v 0.190950 -0.117050 0.029000
v 0.190950 -0.082950 0.023667
v 0.180571 -0.100594 0.023667
v 0.180571 -0.071794 0.026333
v 0.209371 -0.100594 0.026333
v 0.209371 -0.071794 0.023667
v 0.181400 -0.021640 0.023667
v 0.181400 -0.005640 0.026333
v 0.218600 -0.021640 0.026333
v 0.218600 -0.005640 0.023667
v 0.181400 0.005640 0.023667
v 0.181400 0.021640 0.026333
v 0.218600 0.005640 0.026333
v 0.218600 0.021640 0.023667
v 0.192000 -0.031000 0.023667
v 0.192000 0.031000 0.026333
v 0.208000 -0.031000 0.021000
v 0.208000 -0.031000 0.029000
v 0.208000 0.031000 0.023667
vn -1.0000 -0.0000 -0.0000
vn 0.1564 0.9877 -0.0000
vn -0.1639 -0.0769 0.9835
vn 0.4540 0.8910 -0.0000
vn 0.0605 0.1641 0.9846
vn -0.3154 0.0740 -0.9461
vn 0.7071 0.7071 -0.0000
vn -0.0582 0.3157 -0.9471
vn 0.8910 0.4540 -0.0000
vn 1.0000 -0.0000 -0.0000
vn 0.9877 0.1564 -0.0000
vn 0.9877 -0.1564 -0.0000
vn 0.8910 -0.4540 -0.0000
vn 0.1525 0.1625 0.9749
vn 0.7071 -0.7071 -0.0000
vn -0.0000 -0.0000 1.0000
vn 0.0769 -0.1639 -0.9835
vn 0.4540 -0.8910 -0.0000
vn -0.0000 -0.0000 -1.0000
vn 0.1564 -0.9877 -0.0000
vn -0.0000 -1.0000 -0.0000
vn -0.1564 -0.9877 -0.0000
vn -0.0000 1.0000 -0.0000
vn -0.4540 -0.8910 -0.0000
vn -0.7071 -0.7071 -0.0000
vn 0.0769 0.1639 0.9835
vn -0.8910 -0.4540 -0.0000
vn 0.3128 0.1468 0.9384
vn -0.0769 0.1639 -0.9835
vn -0.9877 -0.1564 -0.0000
vn 0.1644 -0.0000 -0.9864
vn -0.9877 0.1564 -0.0000
vn -0.8910 0.4540 -0.0000
vn -0.7071 0.7071 -0.0000
vn -0.4540 0.8910 -0.0000
vn -0.1564 0.9877 -0.0000
vn -0.1640 0.0705 -0.9839
vn 0.1640 0.0705 0.9839
vn -0.0424 0.1643 -0.9855
vn 0.0424 0.1643 0.9855
vn -0.0705 0.1640 -0.9839
vn 0.0705 0.1640 0.9839
vn -0.0918 0.0918 -0.9915
vn 0.0918 0.0918 0.9915
vn -0.0907 0.1813 -0.9792
vn -0.0605 0.1641 -0.9846
vn -0.0000 -0.0715 -0.9974
vn 0.0430 -0.0000 -0.9991
vn 0.0813 0.3152 0.9455
vn -0.0000 -0.1644 0.9864
vn -0.1628 0.1400 -0.9767
vn 0.1640 -0.0705 -0.9839
vn 0.3155 0.0678 0.9465
vn -0.1643 0.0424 -0.9855
vn 0.1643 0.0424 0.9855
vn -0.3155 0.0678 -0.9465
vn -0.1644 -0.0000 0.9864
vn 0.0582 0.3157 0.9471
vn -0.1400 0.1628 -0.9767
vn -0.0715 -0.0000 0.9974
vn 0.6428 0.7660 -0.0000
vn -0.6428 -0.7660 -0.0000
vn -0.2039 -0.1449 -0.9682
vn 0.2039 0.1449 0.9682
vn -0.0705 -0.1640 0.9839
vn 0.0728 0.1533 -0.9855
vn 0.2346 0.2156 0.9479
vn -0.0678 0.3155 -0.9465
vn -0.7660 -0.6428 -0.0000
vn 0.7660 0.6428 -0.0000
vn -0.2039 0.1449 -0.9682
vn 0.2039 -0.1449 0.9682
vn 0.0780 -0.0000 -0.9970
vn -0.3128 0.1468 -0.9384
vn -0.1639 0.0769 -0.9835
vn 0.1639 0.0769 0.9835
vn 0.1625 0.1525 0.9749
vn 0.1638 0.0845 0.9829
vn 0.1625 -0.1525 -0.9749
vn 0.1203 -0.1632 -0.9792
vn -0.0740 -0.3154 0.9461
vn -0.0769 -0.1639 0.9835
vn -0.0000 0.0780 -0.9970
vn -0.1640 -0.0705 0.9839
vn 0.0424 -0.1643 -0.9855
vn -0.0424 -0.1643 0.9855
vn 0.0705 -0.1640 -0.9839
vn 0.0918 -0.0918 -0.9915
vn -0.0918 -0.0918 0.9915
vn 0.1813 -0.0907 -0.9792
vn 0.0605 -0.1641 -0.9846
vn -0.0605 -0.1641 0.9846
vn -0.1644 -0.0000 -0.9864
vn -0.3133 -0.1348 0.9400
vn -0.0000 0.1644 -0.9864
vn 0.1158 -0.3141 -0.9423
vn 0.0613 -0.0000 0.9981
vn 0.3155 -0.0678 -0.9465
vn -0.1628 -0.1400 0.9767
vn 0.1643 -0.0424 -0.9855
vn -0.1643 -0.0424 0.9855
vn -0.3155 -0.0678 0.9465
vn -0.1203 -0.1632 0.9792
vn -0.0715 -0.0000 -0.9974
vn -0.1400 -0.1628 0.9767
vn -0.7660 0.6428 -0.0000
vn 0.7660 -0.6428 -0.0000
vn 0.2039 0.1449 -0.9682
vn -0.2039 -0.1449 0.9682
vn 0.0678 -0.3155 -0.9465
vn -0.1707 -0.0706 0.9828
vn 0.1400 -0.1628 -0.9767
vn -0.6428 0.7660 -0.0000
vn 0.6428 -0.7660 -0.0000
vn 0.2039 -0.1449 -0.9682
vn -0.2039 0.1449 0.9682
vn 0.1525 -0.1625 -0.9749
vn 0.0780 -0.0000 0.9970
vn -0.0000 0.0780 0.9970
vn 0.1639 -0.0769 -0.9835
vn -0.3154 -0.0740 0.9461
vn -0.3160 -0.0408 0.9479
vt 0.875000 0.375000
vt 0.875000 0.625000
vt 0.125000 0.625000
vt 0.375000 0.875000
vt 0.375000 0.625000
s 0
usemtl ruins_find_votive
f 56/1/1 57/1/1 55/1/1
f 3/2/2 4/2/2 2/2/2
f 51/1/3 52/1/3 54/1/3
f 5/2/4 6/2/4 4/2/4
f 72/1/5 73/1/5 74/1/5
f 53/1/6 50/1/6 51/1/6
f 7/2/7 8/2/7 6/2/7
f 74/1/8 70/1/8 72/1/8
f 9/3/9 10/3/9 8/3/9
f 54/1/10 52/1/10 53/1/10
f 10/3/11 13/3/11 12/3/11
f 13/3/12 14/3/12 12/3/12
f 15/3/13 16/3/13 14/3/13
f 71/1/1 72/1/1 70/1/1
f 47/1/14 48/1/14 49/1/14
f 17/4/15 18/4/15 16/4/15
f 65/1/16 67/1/16 69/1/16
f 49/1/17 45/1/17 46/1/17
f 19/4/18 20/4/18 18/4/18
f 68/1/19 62/1/19 64/1/19
f 21/4/20 22/4/20 20/4/20
f 67/1/21 62/1/21 66/1/21
f 23/4/22 24/4/22 22/4/22
f 69/1/10 66/1/10 68/1/10
f 47/1/23 49/1/23 46/1/23
f 25/4/24 26/4/24 24/4/24
f 65/1/23 68/1/23 64/1/23
f 27/4/25 28/4/25 26/4/25
f 63/1/1 64/1/1 62/1/1
f 42/1/26 43/1/26 44/1/26
f 29/3/27 30/3/27 28/3/27
f 58/1/28 60/1/28 61/1/28
f 44/1/29 1/1/29 42/1/29
f 31/3/30 32/3/30 30/3/30
f 61/1/31 55/1/31 57/1/31
f 32/3/32 35/3/32 34/3/32
f 60/1/21 55/1/21 59/1/21
f 34/3/33 37/3/33 36/3/33
f 37/2/34 38/2/34 36/2/34
f 23/5/16 15/5/16 7/5/16
f 39/2/35 40/2/35 38/2/35
f 58/1/23 61/1/23 57/1/23
f 41/2/36 2/2/36 40/2/36
f 16/4/19 32/4/19 40/4/19
f 78/1/37 75/1/37 76/1/37
f 76/1/38 77/1/38 78/1/38
f 82/1/39 79/1/39 80/1/39
f 80/1/40 81/1/40 82/1/40
f 86/1/41 83/1/41 84/1/41
f 84/1/42 85/1/42 86/1/42
f 90/1/41 87/1/41 88/1/41
f 88/1/42 89/1/42 90/1/42
f 94/1/43 91/1/43 92/1/43
f 92/1/44 93/1/44 94/1/44
f 96/1/1 97/1/1 95/1/1
f 99/1/45 95/1/45 97/1/45
f 97/1/44 98/1/44 99/1/44
f 103/1/46 100/1/46 101/1/46
f 101/1/5 102/1/5 103/1/5
f 106/1/23 109/1/23 105/1/23
f 110/1/10 107/1/10 109/1/10
f 108/1/21 104/1/21 107/1/21
f 109/1/47 104/1/47 105/1/47
f 106/1/16 108/1/16 110/1/16
f 112/1/1 113/1/1 111/1/1
f 114/1/23 117/1/23 113/1/23
f 116/1/21 111/1/21 115/1/21
f 117/1/48 111/1/48 113/1/48
f 114/1/49 116/1/49 117/1/49
f 119/1/1 120/1/1 118/1/1
f 121/1/23 123/1/23 120/1/23
f 124/1/10 122/1/10 123/1/10
f 123/1/19 118/1/19 120/1/19
f 121/1/50 122/1/50 124/1/50
f 128/1/37 125/1/37 126/1/37
f 126/1/38 127/1/38 128/1/38
f 132/1/46 129/1/46 130/1/46
f 130/1/5 131/1/5 132/1/5
f 134/1/1 135/1/1 133/1/1
f 137/1/51 133/1/51 135/1/51
f 135/1/38 136/1/38 137/1/38
f 141/1/43 138/1/43 139/1/43
f 139/1/44 140/1/44 141/1/44
f 145/1/43 142/1/43 143/1/43
f 143/1/44 144/1/44 145/1/44
f 147/1/1 148/1/1 146/1/1
f 150/1/8 146/1/8 148/1/8
f 148/1/5 149/1/5 150/1/5
f 153/1/23 155/1/23 152/1/23
f 155/1/52 151/1/52 152/1/52
f 153/1/53 154/1/53 155/1/53
f 159/1/54 156/1/54 157/1/54
f 157/1/55 158/1/55 159/1/55
f 163/1/43 160/1/43 161/1/43
f 161/1/44 162/1/44 163/1/44
f 167/1/46 164/1/46 165/1/46
f 165/1/5 166/1/5 167/1/5
f 173/1/10 170/1/10 172/1/10
f 171/1/21 168/1/21 170/1/21
f 172/1/56 168/1/56 169/1/56
f 169/1/57 171/1/57 173/1/57
f 177/1/54 174/1/54 175/1/54
f 175/1/55 176/1/55 177/1/55
f 181/1/39 178/1/39 179/1/39
f 179/1/40 180/1/40 181/1/40
f 185/1/21 182/1/21 184/1/21
f 186/1/46 182/1/46 183/1/46
f 183/1/58 185/1/58 186/1/58
f 190/1/37 187/1/37 188/1/37
f 188/1/38 189/1/38 190/1/38
f 196/1/10 193/1/10 195/1/10
f 194/1/21 191/1/21 193/1/21
f 195/1/59 191/1/59 192/1/59
f 192/1/60 194/1/60 196/1/60
f 198/1/1 199/1/1 197/1/1
f 200/1/23 203/1/23 199/1/23
f 204/1/10 201/1/10 203/1/10
f 202/1/21 197/1/21 201/1/21
f 203/1/19 197/1/19 199/1/19
f 200/1/16 202/1/16 204/1/16
f 206/1/1 207/1/1 205/1/1
f 208/1/23 211/1/23 207/1/23
f 212/1/10 209/1/10 211/1/10
f 210/1/21 205/1/21 209/1/21
f 211/1/19 205/1/19 207/1/19
f 208/1/16 210/1/16 212/1/16
f 215/1/61 218/1/61 214/1/61
f 217/1/62 213/1/62 216/1/62
f 214/1/63 216/1/63 213/1/63
f 215/1/64 217/1/64 218/1/64
f 220/1/1 221/1/1 219/1/1
f 222/1/23 225/1/23 221/1/23
f 226/1/10 223/1/10 225/1/10
f 224/1/21 219/1/21 223/1/21
f 225/1/19 219/1/19 221/1/19
f 222/1/16 224/1/16 226/1/16
f 228/1/1 229/1/1 227/1/1
f 230/1/23 233/1/23 229/1/23
f 234/1/10 231/1/10 233/1/10
f 232/1/21 227/1/21 231/1/21
f 233/1/19 227/1/19 229/1/19
f 230/1/16 232/1/16 234/1/16
f 236/1/1 237/1/1 235/1/1
f 238/1/23 241/1/23 237/1/23
f 242/1/10 239/1/10 241/1/10
f 240/1/21 235/1/21 239/1/21
f 241/1/19 235/1/19 237/1/19
f 238/1/16 240/1/16 242/1/16
f 247/1/10 245/1/10 246/1/10
f 246/1/59 243/1/59 244/1/59
f 244/1/65 245/1/65 247/1/65
f 251/1/41 248/1/41 249/1/41
f 249/1/42 250/1/42 251/1/42
f 255/1/43 252/1/43 253/1/43
f 253/1/44 254/1/44 255/1/44
f 259/1/62 256/1/62 258/1/62
f 260/1/66 256/1/66 257/1/66
f 257/1/67 259/1/67 260/1/67
f 262/1/1 263/1/1 261/1/1
f 265/1/8 261/1/8 263/1/8
f 263/1/5 264/1/5 265/1/5
f 267/1/1 268/1/1 266/1/1
f 270/1/51 266/1/51 268/1/51
f 268/1/38 269/1/38 270/1/38
f 274/1/39 271/1/39 272/1/39
f 272/1/40 273/1/40 274/1/40
f 278/1/39 275/1/39 276/1/39
f 276/1/40 277/1/40 278/1/40
f 280/1/1 281/1/1 279/1/1
f 283/1/68 279/1/68 281/1/68
f 281/1/42 282/1/42 283/1/42
f 287/1/41 284/1/41 285/1/41
f 285/1/42 286/1/42 287/1/42
f 289/1/1 290/1/1 288/1/1
f 292/1/68 288/1/68 290/1/68
f 290/1/42 291/1/42 292/1/42
f 296/1/41 293/1/41 294/1/41
f 294/1/42 295/1/42 296/1/42
f 298/1/1 299/1/1 297/1/1
f 301/1/8 297/1/8 299/1/8
f 299/1/5 300/1/5 301/1/5
f 303/1/1 304/1/1 302/1/1
f 306/1/51 302/1/51 304/1/51
f 304/1/38 305/1/38 306/1/38
f 308/1/69 309/1/69 307/1/69
f 312/1/70 310/1/70 311/1/70
f 311/1/71 307/1/71 309/1/71
f 312/1/72 308/1/72 310/1/72
f 316/1/29 313/1/29 314/1/29
f 314/1/26 315/1/26 316/1/26
f 318/1/1 319/1/1 317/1/1
f 320/1/23 322/1/23 319/1/23
f 322/1/73 317/1/73 319/1/73
f 320/1/14 321/1/14 322/1/14
f 324/1/1 325/1/1 323/1/1
f 329/1/10 326/1/10 328/1/10
f 327/1/21 323/1/21 326/1/21
f 328/1/74 323/1/74 325/1/74
f 325/1/57 327/1/57 329/1/57
f 334/1/10 332/1/10 333/1/10
f 333/1/6 330/1/6 331/1/6
f 331/1/3 332/1/3 334/1/3
f 338/1/41 335/1/41 336/1/41
f 336/1/42 337/1/42 338/1/42
f 342/1/41 339/1/41 340/1/41
f 340/1/42 341/1/42 342/1/42
f 346/1/54 343/1/54 344/1/54
f 344/1/55 345/1/55 346/1/55
f 350/1/29 347/1/29 348/1/29
f 348/1/26 349/1/26 350/1/26
f 354/1/29 351/1/29 352/1/29
f 352/1/26 353/1/26 354/1/26
f 358/1/75 355/1/75 356/1/75
f 356/1/76 357/1/76 358/1/76
f 362/1/21 359/1/21 361/1/21
f 363/1/75 359/1/75 360/1/75
f 360/1/77 362/1/77 363/1/77
f 367/1/43 364/1/43 365/1/43
f 365/1/44 366/1/44 367/1/44
f 371/1/41 368/1/41 369/1/41
f 369/1/42 370/1/42 371/1/42
f 375/1/41 372/1/41 373/1/41
f 373/1/42 374/1/42 375/1/42
f 379/1/21 376/1/21 378/1/21
f 380/1/54 376/1/54 377/1/54
f 377/1/78 379/1/78 380/1/78
f 56/1/1 58/1/1 57/1/1
f 3/2/2 5/2/2 4/2/2
f 51/1/3 50/1/3 52/1/3
f 5/2/4 7/2/4 6/2/4
f 72/1/5 71/1/5 73/1/5
f 53/1/79 52/1/79 50/1/79
f 7/2/7 9/2/7 8/2/7
f 74/1/80 73/1/80 70/1/80
f 9/3/9 11/3/9 10/3/9
f 73/1/21 71/1/21 70/1/21
f 10/3/11 11/3/11 13/3/11
f 51/1/23 54/1/23 53/1/23
f 13/3/12 15/3/12 14/3/12
f 15/3/13 17/3/13 16/3/13
f 47/1/81 45/1/81 48/1/81
f 17/4/15 19/4/15 18/4/15
f 65/1/16 63/1/16 67/1/16
f 49/1/17 48/1/17 45/1/17
f 19/4/18 21/4/18 20/4/18
f 68/1/19 66/1/19 62/1/19
f 21/4/20 23/4/20 22/4/20
f 67/1/21 63/1/21 62/1/21
f 23/4/22 25/4/22 24/4/22
f 69/1/10 67/1/10 66/1/10
f 25/4/24 27/4/24 26/4/24
f 65/1/23 69/1/23 68/1/23
f 45/1/1 47/1/1 46/1/1
f 27/4/25 29/4/25 28/4/25
f 63/1/1 65/1/1 64/1/1
f 42/1/82 1/1/82 43/1/82
f 29/3/27 31/3/27 30/3/27
f 58/1/16 56/1/16 60/1/16
f 44/1/17 43/1/17 1/1/17
f 31/3/30 33/3/30 32/3/30
f 61/1/83 59/1/83 55/1/83
f 32/3/32 33/3/32 35/3/32
f 60/1/21 56/1/21 55/1/21
f 34/3/33 35/3/33 37/3/33
f 61/1/10 60/1/10 59/1/10
f 37/2/34 39/2/34 38/2/34
f 7/5/16 5/5/16 3/5/16
f 3/5/16 41/5/16 39/5/16
f 39/5/16 37/5/16 31/5/16
f 37/5/16 35/5/16 31/5/16
f 35/5/16 33/5/16 31/5/16
f 31/5/16 29/5/16 27/5/16
f 27/5/16 25/5/16 23/5/16
f 23/5/16 21/5/16 19/5/16
f 19/5/16 17/5/16 23/5/16
f 17/5/16 15/5/16 23/5/16
f 15/5/16 13/5/16 7/5/16
f 13/5/16 11/5/16 7/5/16
f 11/5/16 9/5/16 7/5/16
f 7/5/16 3/5/16 39/5/16
f 31/5/16 27/5/16 23/5/16
f 7/5/16 39/5/16 31/5/16
f 31/5/16 23/5/16 7/5/16
f 39/2/35 41/2/35 40/2/35
f 41/2/36 3/2/36 2/2/36
f 40/4/19 2/4/19 8/4/19
f 2/4/19 4/4/19 8/4/19
f 4/4/19 6/4/19 8/4/19
f 8/4/19 10/4/19 12/4/19
f 12/4/19 14/4/19 16/4/19
f 16/4/19 18/4/19 24/4/19
f 18/4/19 20/4/19 24/4/19
f 20/4/19 22/4/19 24/4/19
f 24/4/19 26/4/19 28/4/19
f 28/4/19 30/4/19 32/4/19
f 32/4/19 34/4/19 36/4/19
f 36/4/19 38/4/19 32/4/19
f 38/4/19 40/4/19 32/4/19
f 8/4/19 12/4/19 16/4/19
f 24/4/19 28/4/19 32/4/19
f 40/4/19 8/4/19 16/4/19
f 16/4/19 24/4/19 32/4/19
f 78/1/52 77/1/52 75/1/52
f 76/1/84 75/1/84 77/1/84
f 82/1/85 81/1/85 79/1/85
f 80/1/86 79/1/86 81/1/86
f 86/1/87 85/1/87 83/1/87
f 84/1/65 83/1/65 85/1/65
f 90/1/87 89/1/87 87/1/87
f 88/1/65 87/1/65 89/1/65
f 94/1/88 93/1/88 91/1/88
f 92/1/89 91/1/89 93/1/89
f 98/1/21 96/1/21 95/1/21
f 99/1/90 98/1/90 95/1/90
f 97/1/44 96/1/44 98/1/44
f 103/1/91 102/1/91 100/1/91
f 101/1/92 100/1/92 102/1/92
f 104/1/1 106/1/1 105/1/1
f 106/1/23 110/1/23 109/1/23
f 110/1/10 108/1/10 107/1/10
f 109/1/93 107/1/93 104/1/93
f 106/1/94 104/1/94 108/1/94
f 112/1/1 114/1/1 113/1/1
f 117/1/10 116/1/10 115/1/10
f 116/1/21 112/1/21 111/1/21
f 117/1/95 115/1/95 111/1/95
f 114/1/16 112/1/16 116/1/16
f 119/1/1 121/1/1 120/1/1
f 121/1/23 124/1/23 123/1/23
f 122/1/21 119/1/21 118/1/21
f 123/1/96 122/1/96 118/1/96
f 121/1/97 119/1/97 122/1/97
f 128/1/52 127/1/52 125/1/52
f 126/1/84 125/1/84 127/1/84
f 132/1/91 131/1/91 129/1/91
f 130/1/92 129/1/92 131/1/92
f 136/1/21 134/1/21 133/1/21
f 137/1/98 136/1/98 133/1/98
f 135/1/38 134/1/38 136/1/38
f 141/1/88 140/1/88 138/1/88
f 139/1/89 138/1/89 140/1/89
f 145/1/88 144/1/88 142/1/88
f 143/1/89 142/1/89 144/1/89
f 149/1/21 147/1/21 146/1/21
f 150/1/80 149/1/80 146/1/80
f 148/1/5 147/1/5 149/1/5
f 151/1/1 153/1/1 152/1/1
f 155/1/52 154/1/52 151/1/52
f 153/1/99 151/1/99 154/1/99
f 159/1/100 158/1/100 156/1/100
f 157/1/101 156/1/101 158/1/101
f 163/1/88 162/1/88 160/1/88
f 161/1/89 160/1/89 162/1/89
f 167/1/91 166/1/91 164/1/91
f 165/1/92 164/1/92 166/1/92
f 169/1/23 173/1/23 172/1/23
f 173/1/10 171/1/10 170/1/10
f 172/1/93 170/1/93 168/1/93
f 169/1/102 168/1/102 171/1/102
f 177/1/100 176/1/100 174/1/100
f 175/1/101 174/1/101 176/1/101
f 181/1/85 180/1/85 178/1/85
f 179/1/86 178/1/86 180/1/86
f 186/1/10 185/1/10 184/1/10
f 186/1/46 184/1/46 182/1/46
f 183/1/103 182/1/103 185/1/103
f 190/1/52 189/1/52 187/1/52
f 188/1/84 187/1/84 189/1/84
f 192/1/23 196/1/23 195/1/23
f 196/1/10 194/1/10 193/1/10
f 195/1/104 193/1/104 191/1/104
f 192/1/105 191/1/105 194/1/105
f 198/1/1 200/1/1 199/1/1
f 200/1/23 204/1/23 203/1/23
f 204/1/10 202/1/10 201/1/10
f 202/1/21 198/1/21 197/1/21
f 203/1/19 201/1/19 197/1/19
f 200/1/16 198/1/16 202/1/16
f 206/1/1 208/1/1 207/1/1
f 208/1/23 212/1/23 211/1/23
f 212/1/10 210/1/10 209/1/10
f 210/1/21 206/1/21 205/1/21
f 211/1/19 209/1/19 205/1/19
f 208/1/16 206/1/16 210/1/16
f 213/1/106 215/1/106 214/1/106
f 218/1/107 217/1/107 216/1/107
f 214/1/108 218/1/108 216/1/108
f 215/1/109 213/1/109 217/1/109
f 220/1/1 222/1/1 221/1/1
f 222/1/23 226/1/23 225/1/23
f 226/1/10 224/1/10 223/1/10
f 224/1/21 220/1/21 219/1/21
f 225/1/19 223/1/19 219/1/19
f 222/1/16 220/1/16 224/1/16
f 228/1/1 230/1/1 229/1/1
f 230/1/23 234/1/23 233/1/23
f 234/1/10 232/1/10 231/1/10
f 232/1/21 228/1/21 227/1/21
f 233/1/19 231/1/19 227/1/19
f 230/1/16 228/1/16 232/1/16
f 236/1/1 238/1/1 237/1/1
f 238/1/23 242/1/23 241/1/23
f 242/1/10 240/1/10 239/1/10
f 240/1/21 236/1/21 235/1/21
f 241/1/19 239/1/19 235/1/19
f 238/1/16 236/1/16 240/1/16
f 244/1/23 247/1/23 246/1/23
f 246/1/110 245/1/110 243/1/110
f 244/1/65 243/1/65 245/1/65
f 251/1/87 250/1/87 248/1/87
f 249/1/65 248/1/65 250/1/65
f 255/1/88 254/1/88 252/1/88
f 253/1/89 252/1/89 254/1/89
f 260/1/107 259/1/107 258/1/107
f 260/1/66 258/1/66 256/1/66
f 257/1/111 256/1/111 259/1/111
f 264/1/21 262/1/21 261/1/21
f 265/1/80 264/1/80 261/1/80
f 263/1/5 262/1/5 264/1/5
f 269/1/21 267/1/21 266/1/21
f 270/1/98 269/1/98 266/1/98
f 268/1/38 267/1/38 269/1/38
f 274/1/85 273/1/85 271/1/85
f 272/1/86 271/1/86 273/1/86
f 278/1/85 277/1/85 275/1/85
f 276/1/86 275/1/86 277/1/86
f 282/1/21 280/1/21 279/1/21
f 283/1/112 282/1/112 279/1/112
f 281/1/42 280/1/42 282/1/42
f 287/1/87 286/1/87 284/1/87
f 285/1/65 284/1/65 286/1/65
f 291/1/21 289/1/21 288/1/21
f 292/1/112 291/1/112 288/1/112
f 290/1/42 289/1/42 291/1/42
f 296/1/87 295/1/87 293/1/87
f 294/1/65 293/1/65 295/1/65
f 300/1/21 298/1/21 297/1/21
f 301/1/80 300/1/80 297/1/80
f 299/1/5 298/1/5 300/1/5
f 305/1/21 303/1/21 302/1/21
f 306/1/98 305/1/98 302/1/98
f 304/1/38 303/1/38 305/1/38
f 309/1/113 312/1/113 311/1/113
f 310/1/114 308/1/114 307/1/114
f 311/1/115 310/1/115 307/1/115
f 312/1/116 309/1/116 308/1/116
f 316/1/17 315/1/17 313/1/17
f 314/1/82 313/1/82 315/1/82
f 318/1/1 320/1/1 319/1/1
f 321/1/21 318/1/21 317/1/21
f 322/1/117 321/1/117 317/1/117
f 320/1/118 318/1/118 321/1/118
f 325/1/23 329/1/23 328/1/23
f 329/1/10 327/1/10 326/1/10
f 327/1/21 324/1/21 323/1/21
f 328/1/19 326/1/19 323/1/19
f 325/1/119 324/1/119 327/1/119
f 331/1/23 334/1/23 333/1/23
f 333/1/79 332/1/79 330/1/79
f 331/1/3 330/1/3 332/1/3
f 338/1/87 337/1/87 335/1/87
f 336/1/65 335/1/65 337/1/65
f 342/1/87 341/1/87 339/1/87
f 340/1/65 339/1/65 341/1/65
f 346/1/100 345/1/100 343/1/100
f 344/1/101 343/1/101 345/1/101
f 350/1/17 349/1/17 347/1/17
f 348/1/82 347/1/82 349/1/82
f 354/1/17 353/1/17 351/1/17
f 352/1/82 351/1/82 353/1/82
f 358/1/120 357/1/120 355/1/120
f 356/1/3 355/1/3 357/1/3
f 363/1/10 362/1/10 361/1/10
f 363/1/75 361/1/75 359/1/75
f 360/1/121 359/1/121 362/1/121
f 367/1/88 366/1/88 364/1/88
f 365/1/89 364/1/89 366/1/89
f 371/1/87 370/1/87 368/1/87
f 369/1/65 368/1/65 370/1/65
f 375/1/87 374/1/87 372/1/87
f 373/1/65 372/1/65 374/1/65
f 380/1/10 379/1/10 378/1/10
f 380/1/54 378/1/54 376/1/54
f 377/1/122 376/1/122 379/1/122
