# Blender 5.2.2 LTS
# www.blender.org
mtllib ruins_hk_trim_a.mtl
o piece
v -0.833333 -0.097784 0.071708
v 0.833333 -0.097784 0.071708
v -0.833333 0.097784 0.071708
v 0.833333 0.097784 0.071708
v -0.833333 0.097784 -0.071708
v 0.833333 0.097784 -0.071708
v -0.833333 -0.097784 -0.071708
v 0.833333 -0.097784 -0.071708
v -0.833333 0.048887 0.071708
v -0.833333 -0.048887 0.071708
v -0.833333 -0.048887 -0.071708
v -0.833333 0.048887 -0.071708
v 0.833333 -0.048887 -0.071708
v 0.833333 0.048887 -0.071708
v 0.833333 -0.048887 0.071708
v 0.833333 0.048887 0.071708
v -0.833333 0.048887 0.021511
v -0.833333 0.048887 -0.021510
v -0.833333 -0.048887 0.021511
v -0.833333 -0.048887 -0.021510
v 0.833333 -0.048887 0.021511
v 0.833333 -0.048887 -0.021510
v 0.833333 0.048887 0.021511
v 0.833333 0.048887 -0.021510
v -2.500000 -0.097784 0.071708
v -2.500000 0.097784 0.071708
v -2.500000 0.097784 -0.071708
v -2.500000 -0.097784 -0.071708
v -2.500000 0.048887 0.071708
v -2.500000 -0.048887 0.071708
v -2.500000 -0.048887 -0.071708
v -2.500000 0.048887 -0.071708
v -2.500000 0.048887 0.021511
v -2.500000 0.048887 -0.021510
v -2.500000 -0.048887 0.021511
v -2.500000 -0.048887 -0.021510
v 2.500000 -0.097784 0.071708
v 2.500000 0.097784 0.071708
v 2.500000 0.097784 -0.071708
v 2.500000 -0.097784 -0.071708
v 2.500000 -0.048887 -0.071708
v 2.500000 0.048887 -0.071708
v 2.500000 -0.048887 0.071708
v 2.500000 0.048887 0.071708
v 2.500000 -0.048887 0.021511
v 2.500000 -0.048887 -0.021510
v 2.500000 0.048887 0.021511
v 2.500000 0.048887 -0.021510
vn -0.0000 -0.0000 1.0000
vn -0.0000 -0.0000 -1.0000
vn -0.0000 1.0000 -0.0000
vn -1.0000 -0.0000 -0.0000
vn -0.0000 -1.0000 -0.0000
vn 1.0000 -0.0000 -0.0000
vt 0.875000 0.375000
s 0
usemtl ruins_hk_trim_a
f 2/1/1 10/1/1 1/1/1
f 13/1/2 7/1/2 11/1/2
f 6/1/2 12/1/2 5/1/2
f 16/1/1 3/1/1 9/1/1
f 3/1/3 6/1/3 5/1/3
f 17/1/4 18/1/4 20/1/4
f 7/1/5 2/1/5 1/1/5
f 2/1/6 8/1/6 22/1/6
f 17/1/5 16/1/5 9/1/5
f 19/1/1 23/1/1 17/1/1
f 10/1/3 21/1/3 19/1/3
f 20/1/3 13/1/3 11/1/3
f 18/1/2 22/1/2 20/1/2
f 12/1/5 24/1/5 18/1/5
f 1/1/1 30/1/1 25/1/1
f 11/1/2 28/1/2 31/1/2
f 5/1/2 32/1/2 27/1/2
f 9/1/1 26/1/1 29/1/1
f 26/1/3 5/1/3 27/1/3
f 33/1/4 26/1/4 34/1/4
f 28/1/5 1/1/5 25/1/5
f 33/1/5 9/1/5 29/1/5
f 35/1/1 17/1/1 33/1/1
f 30/1/3 19/1/3 35/1/3
f 36/1/3 11/1/3 31/1/3
f 34/1/2 20/1/2 36/1/2
f 32/1/5 18/1/5 34/1/5
f 37/1/1 15/1/1 2/1/1
f 41/1/2 8/1/2 13/1/2
f 39/1/2 14/1/2 6/1/2
f 44/1/1 4/1/1 16/1/1
f 4/1/3 39/1/3 6/1/3
f 8/1/5 37/1/5 2/1/5
f 47/1/6 45/1/6 46/1/6
f 23/1/5 44/1/5 16/1/5
f 21/1/1 47/1/1 23/1/1
f 15/1/3 45/1/3 21/1/3
f 22/1/3 41/1/3 13/1/3
f 24/1/2 46/1/2 22/1/2
f 14/1/5 48/1/5 24/1/5
f 2/1/1 15/1/1 10/1/1
f 13/1/2 8/1/2 7/1/2
f 6/1/2 14/1/2 12/1/2
f 16/1/1 4/1/1 3/1/1
f 3/1/3 4/1/3 6/1/3
f 5/1/4 12/1/4 18/1/4
f 20/1/4 11/1/4 7/1/4
f 3/1/4 5/1/4 18/1/4
f 20/1/4 7/1/4 1/1/4
f 17/1/4 9/1/4 3/1/4
f 1/1/4 10/1/4 19/1/4
f 17/1/4 3/1/4 18/1/4
f 20/1/4 1/1/4 19/1/4
f 19/1/4 17/1/4 20/1/4
f 7/1/5 8/1/5 2/1/5
f 24/1/6 14/1/6 6/1/6
f 6/1/6 4/1/6 23/1/6
f 4/1/6 16/1/6 23/1/6
f 24/1/6 6/1/6 23/1/6
f 21/1/6 15/1/6 2/1/6
f 24/1/6 23/1/6 21/1/6
f 8/1/6 13/1/6 22/1/6
f 22/1/6 24/1/6 21/1/6
f 21/1/6 2/1/6 22/1/6
f 17/1/5 23/1/5 16/1/5
f 19/1/1 21/1/1 23/1/1
f 10/1/3 15/1/3 21/1/3
f 20/1/3 22/1/3 13/1/3
f 18/1/2 24/1/2 22/1/2
f 12/1/5 14/1/5 24/1/5
f 1/1/1 10/1/1 30/1/1
f 11/1/2 7/1/2 28/1/2
f 5/1/2 12/1/2 32/1/2
f 9/1/1 3/1/1 26/1/1
f 26/1/3 3/1/3 5/1/3
f 28/1/4 25/1/4 35/1/4
f 25/1/4 30/1/4 35/1/4
f 36/1/4 31/1/4 28/1/4
f 27/1/4 32/1/4 34/1/4
f 36/1/4 28/1/4 35/1/4
f 26/1/4 27/1/4 34/1/4
f 34/1/4 36/1/4 33/1/4
f 36/1/4 35/1/4 33/1/4
f 33/1/4 29/1/4 26/1/4
f 28/1/5 7/1/5 1/1/5
f 33/1/5 17/1/5 9/1/5
f 35/1/1 19/1/1 17/1/1
f 30/1/3 10/1/3 19/1/3
f 36/1/3 20/1/3 11/1/3
f 34/1/2 18/1/2 20/1/2
f 32/1/5 12/1/5 18/1/5
f 37/1/1 43/1/1 15/1/1
f 41/1/2 40/1/2 8/1/2
f 39/1/2 42/1/2 14/1/2
f 44/1/1 38/1/1 4/1/1
f 4/1/3 38/1/3 39/1/3
f 8/1/5 40/1/5 37/1/5
f 38/1/6 44/1/6 47/1/6
f 45/1/6 43/1/6 37/1/6
f 39/1/6 38/1/6 48/1/6
f 38/1/6 47/1/6 48/1/6
f 45/1/6 37/1/6 46/1/6
f 37/1/6 40/1/6 46/1/6
f 48/1/6 42/1/6 39/1/6
f 40/1/6 41/1/6 46/1/6
f 46/1/6 48/1/6 47/1/6
f 23/1/5 47/1/5 44/1/5
f 21/1/1 45/1/1 47/1/1
f 15/1/3 43/1/3 45/1/3
f 22/1/3 46/1/3 41/1/3
f 24/1/2 48/1/2 46/1/2
f 14/1/5 42/1/5 48/1/5
