# Blender 5.2.2 LTS
# www.blender.org
mtllib ruins_find_relay_salvage.mtl
o piece
v -0.789804 0.250490 0.483813
v -0.822382 0.229039 0.483813
v -0.804485 0.196512 0.483813
v -0.768018 0.218137 0.483813
v -0.776889 0.244402 0.500636
v -0.804068 0.249853 0.500636
v -0.822382 0.229039 0.500636
v -0.813510 0.202774 0.500636
v -0.774598 0.205465 0.500636
v -0.795541 -0.660670 0.483813
v -0.819376 -0.674828 0.483813
v -0.819034 -0.702548 0.483813
v -0.794855 -0.716111 0.483813
v -0.771020 -0.701953 0.483813
v -0.771365 -0.674233 0.483813
v -0.795541 -0.660670 0.500636
v -0.819376 -0.674828 0.500636
v -0.819034 -0.702548 0.500636
v -0.794855 -0.716111 0.500636
v -0.771020 -0.701953 0.500636
v -0.771365 -0.674233 0.500636
v -0.556326 -0.661828 0.483813
v -0.583298 -0.668238 0.483813
v -0.591229 -0.694801 0.483813
v -0.572189 -0.714953 0.483813
v -0.545221 -0.708543 0.483813
v -0.537289 -0.681980 0.483813
v -0.556326 -0.661828 0.500636
v -0.583298 -0.668238 0.500636
v -0.591229 -0.694801 0.500636
v -0.554017 -0.715120 0.500636
v -0.537289 -0.681980 0.500636
v -0.564263 0.251026 0.483813
v -0.591980 0.223588 0.483813
v -0.578122 0.199580 0.483813
v -0.550400 0.199580 0.483813
v -0.536536 0.223588 0.483813
v -0.550400 0.247596 0.500636
v -0.578122 0.247596 0.500636
v -0.586940 0.206126 0.500636
v -0.540496 0.209871 0.500636
v 0.577297 0.250490 0.483813
v 0.544717 0.229039 0.483813
v 0.562618 0.196511 0.483813
v 0.599084 0.218137 0.483813
v 0.590213 0.244402 0.500636
v 0.563031 0.249853 0.500636
v 0.544717 0.229039 0.500636
v 0.553592 0.202774 0.500636
v 0.592504 0.205465 0.500636
v 0.560659 -0.662066 0.483813
v 0.548068 -0.702548 0.483813
v 0.572244 -0.716111 0.483813
v 0.596078 -0.701953 0.483813
v 0.595737 -0.674233 0.483813
v 0.554160 -0.665927 0.500636
v 0.561318 -0.714986 0.500636
v 0.596078 -0.701953 0.500636
v 0.595737 -0.674233 0.500636
v 0.810776 -0.661828 0.483813
v 0.783804 -0.668238 0.483813
v 0.775870 -0.694801 0.483813
v 0.794907 -0.714953 0.483813
v 0.821878 -0.708543 0.483813
v 0.829813 -0.681980 0.483813
v 0.810776 -0.661828 0.500636
v 0.783804 -0.668238 0.500636
v 0.775870 -0.694801 0.500636
v 0.794907 -0.714953 0.500636
v 0.821878 -0.708543 0.500636
v 0.829813 -0.681980 0.500636
v 0.802839 0.251026 0.483813
v 0.775119 0.223588 0.483813
v 0.788977 0.199580 0.483813
v 0.816702 0.199580 0.483813
v 0.830563 0.223588 0.483813
v 0.816702 0.247596 0.500636
v 0.788977 0.247596 0.500636
v 0.780159 0.206126 0.500636
v 0.826603 0.209869 0.500636
v -0.152515 -0.295605 0.258954
v -0.149741 -0.312612 0.258327
v -0.124265 -0.309157 0.260962
v -0.134305 -0.289230 0.261075
v -0.128241 0.093872 0.216364
v -0.106476 0.083384 0.211383
v -0.129829 0.082657 0.204112
v -0.150496 -0.076462 0.397281
v -0.170511 -0.072427 0.393568
v -0.177255 -0.079271 0.380152
v -0.159032 -0.082074 0.366930
v -0.144391 -0.090870 0.384738
v -0.159213 -0.196522 0.432193
v -0.169965 -0.195186 0.450587
v -0.190207 -0.191497 0.448630
v -0.191916 -0.190574 0.429430
v -0.172202 -0.193805 0.419198
v -0.161432 -0.263104 0.420204
v -0.174625 -0.271956 0.435269
v -0.194736 -0.268013 0.432895
v -0.194031 -0.256906 0.416632
v -0.173022 -0.253899 0.408795
v -0.143802 -0.301222 0.361041
v -0.155655 -0.316934 0.365649
v -0.175705 -0.312666 0.363483
v -0.176105 -0.294503 0.357640
v -0.156326 -0.287290 0.356123
v 0.099307 -0.278298 0.261427
v 0.124922 -0.278067 0.250688
v 0.112186 -0.262178 0.255493
v 0.008032 0.071943 0.223603
v 0.025434 0.066868 0.209856
v 0.004313 0.060472 0.213933
v 0.106975 -0.065227 0.375596
v 0.088532 -0.066381 0.381421
v 0.079139 -0.075626 0.373313
v 0.088734 -0.075897 0.354676
v 0.109944 -0.078381 0.362512
v 0.143115 -0.169863 0.405125
v 0.142218 -0.169177 0.424954
v 0.118650 -0.167635 0.426557
v 0.126578 -0.171620 0.400163
v 0.152036 -0.230035 0.395338
v 0.141013 -0.241109 0.418544
v 0.123160 -0.232037 0.406697
v 0.135715 -0.225448 0.391179
v 0.149875 -0.265449 0.339613
v 0.146255 -0.281788 0.348274
v 0.128397 -0.282574 0.355295
v 0.121188 -0.266861 0.350997
v 0.134473 -0.256128 0.341270
v -0.065610 -0.180794 0.262006
v -0.044597 -0.188914 0.268268
v -0.061282 -0.199058 0.264129
v -0.334142 -0.035009 0.215371
v -0.328119 -0.053985 0.215292
v -0.312459 -0.043461 0.216750
v -0.332369 -0.055747 0.282826
v -0.310556 -0.055839 0.280921
v -0.317263 -0.038409 0.288418
v -0.292103 -0.104208 0.345834
v -0.275915 -0.088407 0.337519
v -0.289493 -0.085153 0.352503
v -0.219475 -0.139692 0.362974
v -0.213602 -0.126326 0.379216
v -0.218735 -0.146086 0.385170
v -0.143655 -0.185399 0.373575
v -0.145901 -0.172669 0.357671
v -0.140341 -0.161405 0.366205
v -0.136316 -0.167100 0.379935
v -0.094553 -0.181239 0.320789
v -0.080208 -0.171794 0.331575
v -0.080315 -0.195434 0.329467
v 0.177103 -0.000133 0.263102
v 0.196238 0.002738 0.267865
v 0.184802 -0.017362 0.263997
v 0.036899 -0.200452 0.246363
v 0.042804 -0.217825 0.247279
v 0.058012 -0.205188 0.248145
v 0.066839 -0.214103 0.330702
v 0.044880 -0.207200 0.337049
v 0.052402 -0.224203 0.338701
v 0.099675 -0.204700 0.402893
v 0.083725 -0.191029 0.405652
v 0.085543 -0.205128 0.421029
v 0.121389 -0.154330 0.423036
v 0.102605 -0.143335 0.433265
v 0.115244 -0.154264 0.442395
v 0.136364 -0.085543 0.388435
v 0.123519 -0.066960 0.397160
v 0.139474 -0.074187 0.404254
v 0.158582 -0.026146 0.323964
v 0.158615 -0.007483 0.331716
v 0.177669 -0.019806 0.332098
v 0.237080 -0.025639 0.268881
v 0.228747 -0.003954 0.271526
v 0.247528 -0.010492 0.273163
v 0.302867 -0.327507 0.259647
v 0.313446 -0.310750 0.261558
v 0.295745 -0.305408 0.257519
v 0.298305 -0.308562 0.327497
v 0.285779 -0.291929 0.320714
v 0.274678 -0.307747 0.326333
v 0.292546 -0.242688 0.387221
v 0.273338 -0.240949 0.372770
v 0.274857 -0.252467 0.389638
v 0.270531 -0.163279 0.393356
v 0.252431 -0.166308 0.405199
v 0.268613 -0.157205 0.415571
v 0.256073 -0.075301 0.394311
v 0.252390 -0.086188 0.377343
v 0.238223 -0.088602 0.382249
v 0.236191 -0.080997 0.395486
v 0.238278 -0.043754 0.331840
v 0.219550 -0.038133 0.337222
v 0.237875 -0.023210 0.339415
v -0.855090 -0.756604 0.485862
v 0.855087 -0.756604 0.485862
v -0.855090 0.756604 0.210134
v 0.855087 0.756604 0.210134
v -0.855090 0.756604 -0.500636
v 0.855087 0.756604 -0.500636
v -0.855090 -0.756604 -0.500636
v -0.855090 0.289326 0.485862
v 0.855087 0.289326 0.485862
v 0.855087 0.613002 0.192629
v 0.855087 0.705218 -0.407736
v 0.855087 0.705218 0.132732
v 0.855087 -0.705218 -0.407736
v 0.855087 -0.705218 0.192629
v -0.855090 0.613002 0.192629
v -0.855090 0.705218 0.132732
v -0.855090 0.705218 -0.407736
v -0.855090 -0.705218 -0.407736
v -0.855090 -0.705218 0.192629
v 0.886172 0.687002 0.103300
v 0.886172 0.687002 -0.383026
v 0.886172 0.596167 0.159526
v 0.886172 -0.687241 0.159526
v 0.886172 -0.687242 -0.383026
v -0.886172 0.596167 0.159526
v -0.886172 0.687002 0.103300
v -0.886172 0.687002 -0.383026
v -0.886172 -0.687242 -0.383026
v -0.886172 -0.687241 0.159526
v -0.427548 0.708543 -0.500636
v -0.427548 0.708543 0.210134
v -0.427548 0.289326 0.462136
v -0.427548 -0.756604 0.462136
v 0.855087 -0.756604 -0.500636
v 0.427545 -0.756604 0.462136
v 0.427545 0.289326 0.462136
v 0.427545 0.708543 0.210134
v 0.427545 0.708543 -0.500636
v -0.427548 -0.442825 0.462136
v 0.427545 -0.442825 0.462136
v 0.427545 0.142896 0.462136
v -0.427548 0.142896 0.462136
v -0.513052 0.289326 0.485862
v -0.489917 0.743600 0.210134
v -0.513052 0.756604 -0.500636
v -0.513052 -0.756604 0.485862
v 0.513055 0.756604 0.210134
v 0.513055 0.756604 -0.464206
v 0.513055 -0.756604 0.485862
v -0.391064 -0.387678 0.348873
v 0.391068 -0.387678 0.348873
v 0.391068 0.087749 0.348873
v -0.391064 0.087749 0.348873
v -0.346564 -0.341357 0.348873
v 0.346561 -0.341357 0.348873
v 0.346561 0.041428 0.348873
v -0.346564 0.041428 0.348873
v -0.335196 -0.324625 0.280452
v 0.335196 -0.324625 0.280452
v 0.335196 0.024696 0.280452
v -0.335196 0.024696 0.280452
v -0.513052 0.756604 0.125259
v -0.556931 0.756604 0.210134
v -0.521291 0.715173 0.232796
v 0.588599 0.756604 -0.500636
v 0.484555 0.735812 -0.500274
v 0.512072 0.290650 0.485615
v 0.513889 0.459152 0.384439
v -0.235214 -0.443839 0.458035
v -0.267097 -0.447719 0.460943
v -0.855090 -0.269564 0.485862
v -0.855090 -0.047394 0.485862
v -0.855090 -0.202716 0.453931
v -0.826840 -0.191744 0.485862
v -0.855090 -0.460048 0.485862
v -0.855090 -0.417402 0.463302
v -0.844389 -0.411982 0.483767
v 0.145554 -0.408132 0.373512
v 0.294839 -0.408132 0.373512
v 0.145554 -0.344174 0.373512
v 0.294839 -0.344174 0.373512
v 0.140408 -0.341357 0.348873
v 0.299979 -0.341357 0.348873
v 0.140408 -0.409900 0.348873
v 0.299979 -0.409900 0.348873
v 0.266397 -0.394617 0.376580
v 0.265384 -0.356622 0.379647
v 0.175006 -0.356622 0.379647
v 0.238355 -0.394212 0.378420
v 0.202740 -0.355947 0.376580
v 0.202572 -0.394520 0.377018
v 0.237253 -0.355722 0.375557
v 0.173994 -0.394617 0.376580
vn -0.5044 0.7660 -0.3986
vn -0.8761 -0.4821 -0.0000
vn 0.4654 -0.7849 -0.4091
vn 0.9155 0.0539 0.3987
vn -0.0000 -0.0000 1.0000
vn -0.5107 0.8598 -0.0000
vn -0.9999 -0.0123 -0.0000
vn -0.4892 -0.8722 -0.0000
vn 0.5107 -0.8598 -0.0000
vn 0.9999 0.0124 -0.0000
vn 0.4893 0.8721 -0.0000
vn -0.2312 0.9729 -0.0000
vn -0.9582 0.2861 -0.0000
vn -0.7269 -0.6868 -0.0000
vn 0.2238 -0.9417 -0.2511
vn 0.8930 -0.2666 0.3627
vn 0.7269 0.6867 -0.0000
vn -0.6452 0.6518 -0.3987
vn -0.8383 -0.4839 -0.2511
vn -0.0000 -0.9319 0.3626
vn 0.8485 -0.4900 -0.1998
vn 0.8870 0.2329 0.3987
vn -0.5043 0.7660 -0.3987
vn -0.9144 0.2844 -0.2880
vn -0.4736 -0.8442 -0.2511
vn 0.4759 -0.8012 0.3627
vn 0.9999 0.0123 -0.0000
vn 0.3277 0.9448 -0.0000
vn -0.9582 0.2862 -0.0000
vn -0.7269 -0.6867 -0.0000
vn 0.2312 -0.9729 -0.0000
vn 0.9582 -0.2862 -0.0000
vn 0.8486 -0.4899 -0.1998
vn 0.8871 0.2328 0.3987
vn -0.9622 -0.1485 -0.2283
vn -0.2027 -0.9779 -0.0506
vn 0.8094 -0.5515 0.2017
vn 0.8849 0.4451 0.1375
vn -0.3193 0.9430 -0.0932
vn 0.1884 0.7121 -0.6763
vn 0.0191 0.7268 0.6866
vn -0.9749 0.2120 -0.0677
vn 0.3433 -0.6989 -0.6275
vn 0.9185 0.0475 0.3925
vn -0.0804 0.4293 0.8996
vn -0.9092 0.2628 0.3230
vn -0.5914 -0.2835 -0.7549
vn 0.6072 -0.3949 -0.6895
vn 0.8533 -0.1198 0.5075
vn -0.1291 -0.1924 0.9728
vn -0.9959 0.0145 0.0893
vn -0.3653 0.1636 -0.9164
vn 0.7360 0.0962 -0.6701
vn 0.7942 -0.3884 0.4673
vn -0.2230 -0.8465 0.4834
vn -0.9678 -0.0962 -0.2328
vn -0.3184 0.7517 -0.5775
vn 0.7621 0.6235 -0.1746
vn 0.0233 -0.9983 -0.0527
vn 0.9236 -0.3181 -0.2140
vn 0.7023 0.6504 -0.2894
vn -0.7455 0.6500 0.1478
vn -0.3310 0.6686 -0.6658
vn 0.1438 0.7794 0.6098
vn -0.9167 -0.0381 0.3978
vn 0.1931 -0.6552 -0.7303
vn 0.9489 0.3027 -0.0889
vn 0.2423 0.4542 0.8573
vn -0.7059 0.1025 0.7009
vn -0.7763 -0.4934 -0.3924
vn 0.3033 -0.3098 -0.9011
vn 0.9893 0.1402 0.0399
vn 0.0618 -0.0896 0.9941
vn -0.7719 -0.0250 -0.6352
vn 0.2934 0.1957 -0.9357
vn 0.9016 -0.3418 0.2651
vn -0.9043 -0.3468 0.2488
vn -0.7296 0.5905 -0.3448
vn 0.4081 0.7633 -0.5009
vn 0.3711 0.9277 -0.0421
vn -0.8667 -0.2552 -0.4287
vn -0.0065 -0.9996 -0.0265
vn 0.9380 0.3444 0.0386
vn 0.2890 -0.6607 -0.6928
vn 0.8550 0.4442 -0.2677
vn 0.5455 0.7719 0.3266
vn -0.8611 -0.0588 0.5051
vn -0.2839 0.3435 0.8952
vn -0.3750 -0.7489 -0.5464
vn 0.2225 0.7118 -0.6662
vn 0.4530 0.8626 0.2250
vn -0.0216 -0.3205 0.9470
vn -0.4629 -0.7516 -0.4699
vn -0.1571 0.8371 -0.5240
vn 0.3187 0.9050 0.2819
vn 0.4610 -0.4506 0.7645
vn -0.1631 0.9847 0.0615
vn -0.8218 -0.3889 -0.4163
vn 0.2142 0.9753 0.0537
vn -0.9148 -0.3980 0.0683
vn 0.5263 -0.8426 -0.1140
vn 0.1955 0.9240 -0.3285
vn -0.8524 0.3313 0.4046
vn 0.2091 -0.9678 0.1401
vn -0.1390 0.5368 -0.8322
vn -0.9347 0.1999 0.2938
vn 0.7861 -0.5646 0.2515
vn -0.6912 -0.1454 -0.7079
vn -0.2107 0.4716 0.8563
vn 0.9590 -0.2832 0.0147
vn 0.4592 -0.7266 -0.5112
vn -0.9217 0.1503 -0.3577
vn 0.0741 0.7771 0.6249
vn -0.9048 -0.3124 -0.2892
vn 0.8330 -0.5273 -0.1676
vn 0.7584 0.6336 0.1531
vn -0.8328 0.4999 -0.2380
vn 0.5149 0.6001 -0.6122
vn -0.7711 0.3529 -0.5299
vn -0.9971 -0.0559 0.0516
vn 0.4200 -0.5891 0.6903
vn -0.3380 -0.3802 0.8609
vn 0.9392 0.1577 -0.3050
vn -0.4782 -0.3280 -0.8147
vn -0.9807 -0.1913 -0.0407
vn -0.0142 0.2492 0.9684
vn 0.9726 0.0970 -0.2112
vn -0.3835 -0.6898 -0.6141
vn -0.9475 -0.3176 0.0370
vn -0.1560 0.6902 0.7066
vn -0.0000 0.5152 0.8571
vn -0.0000 1.0000 -0.0000
vn -0.0000 -0.0000 -1.0000
vn -0.0000 -1.0000 -0.0000
vn 1.0000 -0.0000 -0.0000
vn -1.0000 -0.0000 -0.0000
vn 0.5056 0.8628 -0.0000
vn 0.7440 0.3517 0.5681
vn 0.7290 -0.0000 0.6845
vn 0.5006 -0.8657 -0.0000
vn 0.6223 -0.0000 -0.7828
vn -0.7651 0.3507 0.5400
vn -0.5056 0.8628 -0.0000
vn -0.6223 -0.0000 -0.7828
vn -0.5006 -0.8657 -0.0000
vn -0.7290 -0.0000 0.6845
vn 0.6233 0.7125 0.3222
vn -0.0150 -0.0083 0.9999
vn -0.2674 -0.0000 0.9636
vn 0.0074 -0.0000 1.0000
vn 0.2674 -0.0000 0.9636
vn -0.1826 0.9073 -0.3787
vn -0.0007 0.0002 1.0000
vn 0.0306 0.8948 0.4455
vn -0.9519 -0.0000 0.3066
vn -0.0000 -0.8991 0.4378
vn 0.9518 -0.0000 0.3066
vn -0.0000 0.9714 0.2376
vn -0.9865 -0.0000 0.1639
vn -0.0000 -0.9714 0.2376
vn 0.9865 -0.0000 0.1639
vn -0.0000 0.4799 0.8773
vn 0.2367 0.5006 0.8327
vn 0.4900 0.8717 -0.0000
vn -0.4900 0.8717 -0.0000
vn -0.0010 -0.0000 -1.0000
vn 0.0056 0.0016 -1.0000
vn -0.2730 0.4858 0.8303
vn -0.2388 0.5018 0.8314
vn -0.2353 0.5007 0.8330
vn -0.0000 0.5056 0.8628
vn -0.0031 0.5082 0.8612
vn 0.0701 0.1615 0.9844
vn -0.0000 0.0039 1.0000
vn -0.0000 0.8892 0.4575
vn -0.0041 0.8986 0.4388
vn -0.7649 0.2777 0.5813
vn -0.8876 0.2154 0.4071
vn -0.7171 -0.1403 0.6827
vn -0.5332 0.8023 0.2683
vn -0.1414 0.0694 0.9875
vn -0.0000 0.9935 0.1136
vn -0.0000 -0.9974 0.0716
vn 0.9789 -0.0000 0.2042
vn -0.9789 -0.0000 0.2044
vn -0.0313 -0.4429 0.8960
vn 0.1072 -0.0000 0.9942
vn 0.0252 0.3649 0.9307
vn -0.2325 -0.0721 0.9699
vn -0.0397 0.0730 0.9965
vn -0.0150 -0.0801 0.9967
vn 0.1927 0.9607 0.1998
vn -0.7508 0.6606 -0.0000
vn -0.8829 -0.2982 -0.3627
vn 0.0639 -0.9236 0.3781
vn 0.7607 0.5123 -0.3986
vn -0.4271 -0.7822 0.4536
vn 0.8927 -0.4506 -0.0000
vn -0.0000 0.9798 0.1998
vn -0.8717 0.1854 0.4536
vn 0.0701 -0.8688 0.4902
vn 0.6451 0.6519 -0.3987
vn -0.8829 -0.2983 -0.3627
vn 0.7607 0.5123 -0.3987
vn -0.8211 -0.1198 0.5581
vn 0.3511 -0.9363 -0.0000
vn 0.1876 0.9391 0.2880
vn 0.0700 -0.8688 0.4902
vn 0.6451 0.6518 -0.3987
vn -0.9662 -0.0980 -0.2386
vn 0.1376 -0.9900 -0.0323
vn 0.7083 0.6898 0.1500
vn -0.3474 0.9330 -0.0935
vn 0.9392 0.1169 0.3229
vn 0.4471 0.6231 0.6417
vn -0.8703 0.4453 0.2103
vn -0.5480 -0.5369 -0.6415
vn 0.2309 -0.7044 -0.6712
vn 0.8630 0.0823 0.4985
vn -0.0131 0.4113 0.9114
vn -0.9738 0.2057 0.0966
vn -0.4777 -0.3023 -0.8249
vn 0.6043 -0.3949 -0.6920
vn 0.7882 -0.1661 0.5926
vn -0.1508 -0.1846 0.9712
vn -0.9982 0.0596 -0.0026
vn -0.4288 0.1843 -0.8844
vn 0.7144 0.1099 -0.6910
vn 0.7560 -0.4241 0.4985
vn -0.2319 -0.8446 0.4825
vn -0.9728 -0.1693 -0.1578
vn -0.3225 0.7508 -0.5765
vn 0.7201 0.6662 -0.1941
vn -0.9020 -0.3416 0.2640
vn -0.0064 -0.9993 -0.0367
vn 0.4936 0.8491 -0.1882
vn -0.6068 0.7935 0.0469
vn 0.9169 0.3657 -0.1596
vn 0.5147 0.7758 0.3651
vn -0.7602 0.2444 0.6020
vn -0.6283 -0.7121 -0.3131
vn 0.0721 -0.6944 -0.7160
vn 0.9420 0.3341 0.0311
vn 0.0899 0.4519 0.8875
vn -0.8592 -0.4766 -0.1861
vn 0.2970 -0.3115 -0.9026
vn 0.9114 -0.0516 0.4082
vn -0.6239 -0.2699 0.7335
vn -0.9565 0.0227 -0.2907
vn 0.2618 0.2019 -0.9438
vn 0.9812 -0.1777 0.0749
vn 0.2333 -0.8339 0.5001
vn -0.6337 -0.5829 0.5086
vn -0.7321 0.5889 -0.3423
vn 0.3498 0.7942 -0.4969
vn 0.8649 -0.0484 0.4996
vn 0.4762 -0.8594 0.1864
vn -0.6514 -0.7441 -0.1485
vn -0.4270 0.8810 -0.2036
vn 0.5604 -0.8100 -0.1728
vn 0.3652 0.9300 -0.0411
vn -0.7698 0.6042 0.2060
vn -0.9510 -0.3016 -0.0677
vn -0.0454 -0.8776 -0.4772
vn -0.6902 0.4087 0.5972
vn -0.0125 -0.4556 -0.8901
vn 0.6686 0.4372 -0.6015
vn 0.4175 0.8896 0.1851
vn -0.4368 -0.2433 0.8660
vn -0.3784 -0.8927 -0.2446
vn 0.1807 0.5357 -0.8249
vn 0.1262 0.2560 0.9584
vn -0.4791 -0.8476 -0.2282
vn -0.4695 -0.7205 -0.5104
vn -0.3563 0.6696 -0.6517
vn 0.6479 -0.0706 0.7585
vn 0.4892 0.7691 0.4113
vn 0.8609 -0.5037 0.0721
vn 0.3156 -0.9489 -0.0010
vn -0.9630 0.1049 -0.2482
vn 0.3171 0.9459 0.0682
vn -0.9461 -0.3184 0.0596
vn 0.6369 -0.7563 -0.1498
vn 0.5718 0.7390 -0.3563
vn -0.8453 -0.3334 0.4175
vn 0.5205 -0.8444 -0.1268
vn 0.1164 0.3251 -0.9385
vn -0.5850 0.0009 0.8110
vn 0.6865 -0.5051 0.5231
vn -0.5758 -0.2639 -0.7738
vn -0.1784 0.4600 0.8698
vn 0.9516 -0.0551 0.3023
vn -0.7891 -0.2916 -0.5406
vn 0.3633 0.5842 0.7258
vn 0.8880 -0.4381 0.1399
vn -0.6250 0.7249 0.2897
vn 0.3033 0.9267 0.2221
vn 0.9899 -0.0315 0.1382
vn -0.3442 -0.9040 -0.2536
vn 0.3168 0.9366 -0.1498
vn -0.9032 -0.3188 -0.2874
vn -0.0463 -0.9629 0.2658
vn 0.8168 -0.5391 0.2054
vn 0.8175 0.4969 -0.2913
vn -0.0583 -0.7519 0.6567
vn 0.5987 0.2254 -0.7686
vn -0.5596 0.1934 -0.8059
vn -0.9682 -0.2384 -0.0756
vn 0.2009 -0.1232 0.9718
vn 0.9638 0.2664 0.0104
vn -0.2768 -0.2574 -0.9258
vn -0.5372 -0.0062 0.8435
vn 0.9860 0.1616 0.0410
vn 0.9647 0.0694 -0.2540
vn -0.1024 -0.7431 -0.6613
vn -0.5507 0.5895 0.5910
vn 0.7651 0.3508 0.5400
vn 0.6222 -0.0000 -0.7828
vn -0.7440 0.3517 0.5681
vn -0.5007 -0.8656 -0.0000
vn -0.2676 -0.0000 0.9635
vn 0.0014 0.5148 0.8573
vn -0.0564 0.8528 0.5193
vn 0.0046 0.5082 0.8612
vn -0.0000 0.5109 0.8597
vn 0.2408 0.4285 0.8709
vn 0.2315 0.5003 0.8343
vn -0.4237 0.8883 -0.1772
vn -0.0000 -0.0174 -0.9998
vn -0.0062 -0.0000 1.0000
vn -0.8758 -0.0728 0.4772
vn 0.0335 -0.0122 0.9994
vn 0.0316 0.0365 0.9988
vn 0.0642 -0.0786 0.9948
vn -0.0144 -0.1924 0.9812
vn -0.0000 -0.2494 0.9684
vn 0.0639 -0.0911 0.9938
vn 0.2325 -0.0721 0.9699
vn -0.0947 0.6113 0.7857
vn -0.0000 0.1744 0.9847
vn 0.0757 0.5791 0.8117
vn -0.1072 -0.0000 0.9942
vn 0.0295 0.0112 0.9995
vn 0.1097 0.0108 0.9939
vt 0.125000 0.875000
vt 0.875000 0.875000
vt 0.875000 0.625000
vt 0.375000 0.375000
vt 0.125000 0.125000
s 0
usemtl ruins_find_relay_salvage
f 2/1/1 6/1/1 1/1/1
f 3/1/2 7/1/2 2/1/2
f 4/1/3 9/1/3 3/1/3
f 4/1/4 5/1/4 9/1/4
f 7/1/5 8/1/5 6/1/5
f 8/1/5 9/1/5 6/1/5
f 9/1/5 5/1/5 6/1/5
f 11/1/6 16/1/6 10/1/6
f 12/1/7 17/1/7 11/1/7
f 13/1/8 18/1/8 12/1/8
f 14/1/9 19/1/9 13/1/9
f 15/1/10 20/1/10 14/1/10
f 10/1/11 21/1/11 15/1/11
f 18/1/5 19/1/5 17/1/5
f 19/1/5 20/1/5 17/1/5
f 20/1/5 21/1/5 17/1/5
f 21/1/5 16/1/5 17/1/5
f 23/1/12 28/1/12 22/1/12
f 24/1/13 29/1/13 23/1/13
f 25/1/14 30/1/14 24/1/14
f 26/1/15 31/1/15 25/1/15
f 27/1/16 31/1/16 26/1/16
f 22/1/17 32/1/17 27/1/17
f 28/1/5 29/1/5 30/1/5
f 31/1/5 32/1/5 30/1/5
f 32/1/5 28/1/5 30/1/5
f 34/1/18 39/1/18 33/1/18
f 35/1/19 40/1/19 34/1/19
f 36/1/20 40/1/20 35/1/20
f 37/1/21 41/1/21 36/1/21
f 37/1/22 38/1/22 41/1/22
f 38/1/5 39/1/5 40/1/5
f 41/1/5 38/1/5 40/1/5
f 43/1/23 47/1/23 42/1/23
f 44/1/2 48/1/2 43/1/2
f 45/1/3 50/1/3 44/1/3
f 45/1/4 46/1/4 50/1/4
f 46/1/5 47/1/5 49/1/5
f 47/1/5 48/1/5 49/1/5
f 50/1/5 46/1/5 49/1/5
f 52/1/24 56/1/24 51/1/24
f 53/1/25 57/1/25 52/1/25
f 54/1/26 57/1/26 53/1/26
f 55/1/27 58/1/27 54/1/27
f 51/1/28 59/1/28 55/1/28
f 58/1/5 59/1/5 57/1/5
f 59/1/5 56/1/5 57/1/5
f 61/1/12 66/1/12 60/1/12
f 62/1/29 67/1/29 61/1/29
f 63/1/30 68/1/30 62/1/30
f 64/1/31 69/1/31 63/1/31
f 65/1/32 70/1/32 64/1/32
f 60/1/17 71/1/17 65/1/17
f 68/1/5 69/1/5 67/1/5
f 69/1/5 70/1/5 67/1/5
f 70/1/5 71/1/5 67/1/5
f 71/1/5 66/1/5 67/1/5
f 73/1/18 78/1/18 72/1/18
f 74/1/19 79/1/19 73/1/19
f 75/1/20 79/1/20 74/1/20
f 76/1/33 80/1/33 75/1/33
f 76/1/34 77/1/34 80/1/34
f 77/1/5 78/1/5 79/1/5
f 80/1/5 77/1/5 79/1/5
f 82/1/35 106/1/35 81/1/35
f 82/1/36 104/1/36 105/1/36
f 83/1/37 103/1/37 104/1/37
f 84/1/38 103/1/38 83/1/38
f 81/1/39 107/1/39 84/1/39
f 85/1/40 86/1/40 87/1/40
f 88/1/41 85/1/41 89/1/41
f 90/1/42 85/1/42 87/1/42
f 91/1/43 86/1/43 92/1/43
f 88/1/44 93/1/44 92/1/44
f 95/1/45 88/1/45 89/1/45
f 96/1/46 89/1/46 90/1/46
f 97/1/47 90/1/47 91/1/47
f 97/1/48 92/1/48 93/1/48
f 94/1/49 98/1/49 93/1/49
f 100/1/50 94/1/50 95/1/50
f 101/1/51 95/1/51 96/1/51
f 101/1/52 97/1/52 102/1/52
f 102/1/53 93/1/53 98/1/53
f 104/1/54 98/1/54 99/1/54
f 105/1/55 99/1/55 100/1/55
f 105/1/56 101/1/56 106/1/56
f 106/1/57 102/1/57 107/1/57
f 107/1/58 98/1/58 103/1/58
f 108/1/59 128/1/59 129/1/59
f 109/1/60 127/1/60 128/1/60
f 110/1/61 127/1/61 109/1/61
f 108/1/62 131/1/62 110/1/62
f 111/1/63 112/1/63 113/1/63
f 114/1/64 111/1/64 115/1/64
f 116/1/65 111/1/65 113/1/65
f 117/1/66 112/1/66 118/1/66
f 114/1/67 119/1/67 118/1/67
f 121/1/68 114/1/68 115/1/68
f 121/1/69 115/1/69 116/1/69
f 122/1/70 116/1/70 117/1/70
f 122/1/71 118/1/71 119/1/71
f 120/1/72 123/1/72 119/1/72
f 124/1/73 120/1/73 121/1/73
f 125/1/74 122/1/74 126/1/74
f 126/1/75 119/1/75 123/1/75
f 128/1/76 123/1/76 124/1/76
f 129/1/77 125/1/77 130/1/77
f 130/1/78 126/1/78 131/1/78
f 131/1/79 123/1/79 127/1/79
f 152/1/80 133/1/80 132/1/80
f 134/1/81 151/1/81 132/1/81
f 136/1/82 139/1/82 138/1/82
f 139/1/83 137/1/83 140/1/83
f 138/1/84 142/1/84 141/1/84
f 142/1/85 139/1/85 140/1/85
f 142/1/86 140/1/86 143/1/86
f 143/1/87 138/1/87 141/1/87
f 145/1/88 141/1/88 146/1/88
f 144/1/89 148/1/89 147/1/89
f 149/1/90 144/1/90 145/1/90
f 149/1/91 145/1/91 150/1/91
f 150/1/92 146/1/92 147/1/92
f 153/1/93 148/1/93 151/1/93
f 151/1/94 149/1/94 152/1/94
f 152/1/95 149/1/95 150/1/95
f 153/1/96 150/1/96 147/1/96
f 173/1/97 155/1/97 154/1/97
f 172/1/98 154/1/98 156/1/98
f 161/1/99 159/1/99 157/1/99
f 161/1/100 158/1/100 162/1/100
f 158/1/101 160/1/101 162/1/101
f 164/1/102 160/1/102 161/1/102
f 164/1/103 161/1/103 165/1/103
f 162/1/104 163/1/104 165/1/104
f 166/1/105 164/1/105 167/1/105
f 167/1/106 164/1/106 165/1/106
f 165/1/107 166/1/107 168/1/107
f 169/1/108 167/1/108 170/1/108
f 171/1/109 167/1/109 168/1/109
f 168/1/110 169/1/110 171/1/110
f 174/1/111 169/1/111 172/1/111
f 172/1/112 170/1/112 173/1/112
f 174/1/113 170/1/113 171/1/113
f 195/1/114 176/1/114 175/1/114
f 177/1/115 194/1/115 175/1/115
f 179/1/116 182/1/116 181/1/116
f 182/1/117 180/1/117 183/1/117
f 181/1/118 185/1/118 184/1/118
f 185/1/119 182/1/119 183/1/119
f 185/1/120 183/1/120 186/1/120
f 186/1/121 181/1/121 184/1/121
f 188/1/122 184/1/122 189/1/122
f 187/1/123 191/1/123 190/1/123
f 192/1/124 187/1/124 188/1/124
f 192/1/125 188/1/125 193/1/125
f 193/1/126 189/1/126 190/1/126
f 196/1/127 191/1/127 194/1/127
f 194/1/128 192/1/128 195/1/128
f 195/1/129 192/1/129 193/1/129
f 196/1/130 193/1/130 190/1/130
f 233/2/131 228/2/131 232/2/131
f 234/2/132 227/2/132 233/2/132
f 230/2/133 226/2/133 234/2/133
f 231/2/134 203/2/134 230/2/134
f 218/2/135 219/2/135 220/2/135
f 224/2/136 221/2/136 223/2/136
f 255/2/5 257/2/5 254/2/5
f 200/3/135 207/3/135 202/3/135
f 200/3/135 206/3/135 208/3/135
f 230/3/135 210/3/135 198/3/135
f 209/3/135 202/3/135 207/3/135
f 205/3/135 210/3/135 206/3/135
f 199/3/136 211/3/136 204/3/136
f 199/3/136 213/3/136 212/3/136
f 201/3/136 214/3/136 213/3/136
f 203/3/136 215/3/136 214/3/136
f 215/3/136 269/3/136 211/3/136
f 207/2/137 216/2/137 217/2/137
f 208/2/138 218/2/138 216/2/138
f 206/2/139 219/2/139 218/2/139
f 209/2/140 219/2/140 210/2/140
f 209/2/141 217/2/141 220/2/141
f 212/2/142 221/2/142 211/2/142
f 213/2/143 222/2/143 212/2/143
f 214/2/144 223/2/144 213/2/144
f 214/2/145 225/2/145 224/2/145
f 211/2/146 225/2/146 215/2/146
f 258/3/147 259/3/147 260/3/147
f 242/3/148 270/3/148 273/3/148
f 241/3/133 203/3/133 201/3/133
f 231/2/134 230/2/134 245/2/134
f 236/2/149 245/2/149 263/2/149
f 229/2/150 266/2/150 235/2/150
f 232/2/5 238/2/5 237/2/5
f 203/2/134 229/2/134 242/2/134
f 235/2/151 238/2/151 239/2/151
f 261/3/152 262/3/152 244/3/152
f 230/3/134 198/3/134 245/3/134
f 245/3/153 205/3/153 263/3/153
f 266/2/154 246/2/154 235/2/154
f 237/2/155 247/2/155 236/2/155
f 237/2/156 249/2/156 248/2/156
f 238/2/157 246/2/157 249/2/157
f 246/4/5 251/4/5 250/4/5
f 248/4/5 251/4/5 247/4/5
f 249/4/5 252/4/5 248/4/5
f 249/4/5 250/4/5 253/4/5
f 251/4/158 254/4/158 250/4/158
f 252/4/159 255/4/159 251/4/159
f 252/4/160 257/4/160 256/4/160
f 250/4/161 257/4/161 253/4/161
f 258/3/132 241/3/132 201/3/132
f 260/3/162 259/3/162 199/3/162
f 260/2/163 228/2/163 227/2/163
f 258/2/164 227/2/164 226/2/164
f 233/2/165 243/2/165 244/2/165
f 244/3/132 243/3/132 200/3/132
f 262/3/166 202/3/166 230/3/166
f 234/2/167 262/2/167 230/2/167
f 233/2/168 264/2/168 243/2/168
f 232/2/169 263/2/169 264/2/169
f 233/2/170 232/2/170 264/2/170
f 264/3/171 200/3/171 243/3/171
f 200/3/172 264/3/172 205/3/172
f 231/2/173 265/2/173 266/2/173
f 229/2/174 231/2/174 266/2/174
f 246/2/175 265/2/175 247/2/175
f 247/2/176 265/2/176 236/2/176
f 267/3/177 270/3/177 269/3/177
f 273/3/178 272/3/178 271/3/178
f 269/3/179 270/3/179 268/3/179
f 271/3/136 215/3/136 197/3/136
f 272/3/136 267/3/136 269/3/136
f 211/3/136 268/3/136 204/3/136
f 239/3/5 268/3/5 270/3/5
f 242/3/5 271/3/5 197/3/5
f 258/3/180 260/3/180 240/3/180
f 285/5/181 283/5/181 288/5/181
f 276/3/182 279/3/182 278/3/182
f 279/3/133 280/3/133 278/3/133
f 281/3/183 274/3/183 280/3/183
f 281/3/184 277/3/184 275/3/184
f 280/3/185 276/3/185 278/3/185
f 275/3/186 285/3/186 287/3/186
f 277/3/187 282/3/187 275/3/187
f 276/3/188 286/3/188 288/3/188
f 276/3/189 289/3/189 284/3/189
f 288/3/190 287/3/190 285/3/190
f 287/5/191 284/5/191 289/5/191
f 1/1/192 6/1/192 5/1/192
f 2/1/193 7/1/193 6/1/193
f 3/1/194 8/1/194 7/1/194
f 3/1/195 9/1/195 8/1/195
f 4/1/196 1/1/196 5/1/196
f 11/1/6 17/1/6 16/1/6
f 12/1/7 18/1/7 17/1/7
f 13/1/8 19/1/8 18/1/8
f 14/1/9 20/1/9 19/1/9
f 15/1/10 21/1/10 20/1/10
f 10/1/11 16/1/11 21/1/11
f 23/1/12 29/1/12 28/1/12
f 24/1/13 30/1/13 29/1/13
f 25/1/197 31/1/197 30/1/197
f 27/1/198 32/1/198 31/1/198
f 22/1/17 28/1/17 32/1/17
f 33/1/199 39/1/199 38/1/199
f 34/1/200 40/1/200 39/1/200
f 36/1/201 41/1/201 40/1/201
f 37/1/202 33/1/202 38/1/202
f 42/1/192 47/1/192 46/1/192
f 43/1/193 48/1/193 47/1/193
f 44/1/203 49/1/203 48/1/203
f 44/1/195 50/1/195 49/1/195
f 45/1/204 42/1/204 46/1/204
f 52/1/205 57/1/205 56/1/205
f 54/1/206 58/1/206 57/1/206
f 55/1/27 59/1/27 58/1/27
f 51/1/207 56/1/207 59/1/207
f 61/1/12 67/1/12 66/1/12
f 62/1/29 68/1/29 67/1/29
f 63/1/30 69/1/30 68/1/30
f 64/1/31 70/1/31 69/1/31
f 65/1/32 71/1/32 70/1/32
f 60/1/17 66/1/17 71/1/17
f 72/1/199 78/1/199 77/1/199
f 73/1/200 79/1/200 78/1/200
f 75/1/208 80/1/208 79/1/208
f 76/1/209 72/1/209 77/1/209
f 82/1/210 105/1/210 106/1/210
f 82/1/211 83/1/211 104/1/211
f 84/1/212 107/1/212 103/1/212
f 81/1/213 106/1/213 107/1/213
f 86/1/214 88/1/214 92/1/214
f 88/1/215 86/1/215 85/1/215
f 90/1/216 89/1/216 85/1/216
f 91/1/217 90/1/217 87/1/217
f 91/1/218 87/1/218 86/1/218
f 88/1/219 94/1/219 93/1/219
f 95/1/220 94/1/220 88/1/220
f 96/1/221 95/1/221 89/1/221
f 97/1/222 96/1/222 90/1/222
f 97/1/223 91/1/223 92/1/223
f 94/1/224 99/1/224 98/1/224
f 100/1/225 99/1/225 94/1/225
f 101/1/226 100/1/226 95/1/226
f 101/1/227 96/1/227 97/1/227
f 102/1/228 97/1/228 93/1/228
f 104/1/229 103/1/229 98/1/229
f 105/1/230 104/1/230 99/1/230
f 105/1/231 100/1/231 101/1/231
f 106/1/232 101/1/232 102/1/232
f 107/1/233 102/1/233 98/1/233
f 108/1/234 129/1/234 130/1/234
f 108/1/235 109/1/235 128/1/235
f 110/1/236 131/1/236 127/1/236
f 108/1/237 130/1/237 131/1/237
f 112/1/238 114/1/238 118/1/238
f 114/1/239 112/1/239 111/1/239
f 116/1/240 115/1/240 111/1/240
f 117/1/241 116/1/241 113/1/241
f 117/1/242 113/1/242 112/1/242
f 114/1/243 120/1/243 119/1/243
f 121/1/244 120/1/244 114/1/244
f 122/1/245 121/1/245 116/1/245
f 122/1/246 117/1/246 118/1/246
f 120/1/247 124/1/247 123/1/247
f 125/1/248 124/1/248 121/1/248
f 125/1/249 121/1/249 122/1/249
f 126/1/250 122/1/250 119/1/250
f 128/1/251 127/1/251 123/1/251
f 129/1/252 128/1/252 124/1/252
f 129/1/253 124/1/253 125/1/253
f 130/1/254 125/1/254 126/1/254
f 131/1/255 126/1/255 123/1/255
f 133/1/256 152/1/256 153/1/256
f 153/1/257 134/1/257 133/1/257
f 134/1/258 153/1/258 151/1/258
f 151/1/259 152/1/259 132/1/259
f 136/1/260 137/1/260 139/1/260
f 140/1/261 137/1/261 135/1/261
f 138/1/262 140/1/262 135/1/262
f 135/1/263 136/1/263 138/1/263
f 138/1/264 139/1/264 142/1/264
f 143/1/265 140/1/265 138/1/265
f 141/1/266 142/1/266 144/1/266
f 145/1/267 144/1/267 142/1/267
f 145/1/268 142/1/268 143/1/268
f 145/1/269 143/1/269 141/1/269
f 141/1/270 144/1/270 146/1/270
f 149/1/271 148/1/271 144/1/271
f 150/1/272 145/1/272 146/1/272
f 146/1/273 144/1/273 147/1/273
f 153/1/274 147/1/274 148/1/274
f 151/1/275 148/1/275 149/1/275
f 153/1/276 152/1/276 150/1/276
f 155/1/277 173/1/277 174/1/277
f 174/1/278 156/1/278 155/1/278
f 156/1/279 174/1/279 172/1/279
f 172/1/280 173/1/280 154/1/280
f 161/1/281 160/1/281 159/1/281
f 161/1/282 157/1/282 158/1/282
f 158/1/283 159/1/283 160/1/283
f 164/1/284 163/1/284 160/1/284
f 165/1/285 161/1/285 162/1/285
f 162/1/286 160/1/286 163/1/286
f 166/1/287 163/1/287 164/1/287
f 168/1/288 167/1/288 165/1/288
f 165/1/289 163/1/289 166/1/289
f 169/1/290 166/1/290 167/1/290
f 171/1/291 170/1/291 167/1/291
f 168/1/292 166/1/292 169/1/292
f 172/1/293 169/1/293 170/1/293
f 174/1/294 173/1/294 170/1/294
f 171/1/295 169/1/295 174/1/295
f 176/1/296 195/1/296 196/1/296
f 196/1/297 177/1/297 176/1/297
f 177/1/298 196/1/298 194/1/298
f 194/1/299 195/1/299 175/1/299
f 179/1/300 180/1/300 182/1/300
f 183/1/301 180/1/301 178/1/301
f 181/1/302 183/1/302 178/1/302
f 178/1/303 179/1/303 181/1/303
f 181/1/304 182/1/304 185/1/304
f 186/1/305 183/1/305 181/1/305
f 184/1/306 185/1/306 187/1/306
f 188/1/307 187/1/307 185/1/307
f 188/1/308 185/1/308 186/1/308
f 188/1/309 186/1/309 184/1/309
f 184/1/310 187/1/310 189/1/310
f 192/1/311 191/1/311 187/1/311
f 193/1/312 188/1/312 189/1/312
f 189/1/313 187/1/313 190/1/313
f 196/1/314 190/1/314 191/1/314
f 194/1/315 191/1/315 192/1/315
f 196/1/316 195/1/316 193/1/316
f 233/2/131 227/2/131 228/2/131
f 234/2/132 226/2/132 227/2/132
f 230/2/133 203/2/133 226/2/133
f 231/2/134 229/2/134 203/2/134
f 220/2/135 217/2/135 218/2/135
f 217/2/135 216/2/135 218/2/135
f 225/2/136 221/2/136 224/2/136
f 221/2/136 222/2/136 223/2/136
f 255/2/5 256/2/5 257/2/5
f 200/3/135 208/3/135 207/3/135
f 200/3/135 205/3/135 206/3/135
f 230/3/135 209/3/135 210/3/135
f 209/3/135 230/3/135 202/3/135
f 205/3/135 198/3/135 210/3/135
f 199/3/136 212/3/136 211/3/136
f 199/3/136 201/3/136 213/3/136
f 201/3/136 203/3/136 214/3/136
f 203/3/136 197/3/136 215/3/136
f 215/3/136 272/3/136 269/3/136
f 207/2/137 208/2/137 216/2/137
f 208/2/317 206/2/317 218/2/317
f 206/2/139 210/2/139 219/2/139
f 209/2/140 220/2/140 219/2/140
f 209/2/318 207/2/318 217/2/318
f 212/2/319 222/2/319 221/2/319
f 213/2/143 223/2/143 222/2/143
f 214/2/144 224/2/144 223/2/144
f 214/2/320 215/2/320 225/2/320
f 211/2/146 221/2/146 225/2/146
f 242/3/5 239/3/5 270/3/5
f 203/3/134 242/3/134 197/3/134
f 263/2/321 232/2/321 237/2/321
f 236/2/149 231/2/149 245/2/149
f 263/2/321 237/2/321 236/2/321
f 232/2/5 228/2/5 238/2/5
f 203/2/133 241/2/133 226/2/133
f 228/2/151 239/2/151 238/2/151
f 239/2/151 242/2/151 235/2/151
f 242/2/151 229/2/151 235/2/151
f 205/3/322 264/3/322 263/3/322
f 245/3/5 198/3/5 205/3/5
f 266/2/323 265/2/323 246/2/323
f 237/2/155 248/2/155 247/2/155
f 237/2/156 238/2/156 249/2/156
f 238/2/157 235/2/157 246/2/157
f 246/4/5 247/4/5 251/4/5
f 248/4/5 252/4/5 251/4/5
f 249/4/5 253/4/5 252/4/5
f 249/4/5 246/4/5 250/4/5
f 251/4/158 255/4/158 254/4/158
f 252/4/159 256/4/159 255/4/159
f 252/4/160 253/4/160 257/4/160
f 250/4/161 254/4/161 257/4/161
f 201/3/132 199/3/132 258/3/132
f 199/3/132 259/3/132 258/3/132
f 199/3/324 204/3/324 260/3/324
f 204/3/325 239/3/325 260/3/325
f 227/2/326 240/2/326 260/2/326
f 260/2/327 239/2/327 228/2/327
f 226/2/164 241/2/164 258/2/164
f 258/2/164 240/2/164 227/2/164
f 262/2/328 234/2/328 244/2/328
f 234/2/165 233/2/165 244/2/165
f 202/3/132 261/3/132 200/3/132
f 261/3/132 244/3/132 200/3/132
f 262/3/329 261/3/329 202/3/329
f 231/2/330 236/2/330 265/2/330
f 271/3/136 272/3/136 215/3/136
f 272/3/331 273/3/331 267/3/331
f 211/3/136 269/3/136 268/3/136
f 239/3/5 204/3/5 268/3/5
f 273/3/332 270/3/332 267/3/332
f 242/3/333 273/3/333 271/3/333
f 285/5/334 282/5/334 283/5/334
f 276/3/182 277/3/182 279/3/182
f 279/3/133 281/3/133 280/3/133
f 281/3/183 275/3/183 274/3/183
f 281/3/184 279/3/184 277/3/184
f 280/3/185 274/3/185 276/3/185
f 289/3/335 274/3/335 287/3/335
f 274/3/336 275/3/336 287/3/336
f 275/3/337 282/3/337 285/3/337
f 277/3/338 283/3/338 282/3/338
f 283/3/339 277/3/339 288/3/339
f 277/3/340 276/3/340 288/3/340
f 276/3/341 284/3/341 286/3/341
f 276/3/342 274/3/342 289/3/342
f 288/3/343 286/3/343 287/3/343
f 287/5/344 286/5/344 284/5/344
