# Blender 5.2.2 LTS
# www.blender.org
mtllib ruins_hk_ceiling_a.mtl
o piece
v -1.820163 0.239938 -0.320957
v 2.471509 0.239938 -0.315914
v -2.471509 -0.239901 -0.315914
v -1.820163 -0.239901 -0.320957
v -1.224126 -0.239901 0.108420
v 1.224127 -0.239901 0.108420
v 1.820165 -0.239901 -0.320957
v 2.471509 -0.239901 -0.315914
v -2.471509 0.239938 -0.775352
v 2.471509 -0.239901 -0.775352
v -1.192073 -2.325446 0.009089
v -1.801396 -2.335452 -0.393797
v -1.192073 0.000017 0.009089
v -1.788110 0.000017 -0.385073
v -1.253003 -0.550714 -0.023190
v -1.741184 -0.550683 -0.371580
v -1.260622 -1.701418 -0.093241
v -1.669339 -1.701418 -0.387674
v -1.260622 -0.624008 -0.093241
v -1.669339 -0.624008 -0.387674
v -1.251134 -1.774653 -0.025714
v -1.296739 -1.701418 -0.043105
v -1.742285 -1.774742 -0.372414
v -1.705456 -1.701418 -0.337539
v -1.296739 -0.624008 -0.043105
v -1.705456 -0.624008 -0.337539
v -0.936874 1.212749 -0.045123
v 0.936874 1.212749 -0.045123
v -0.850787 1.212749 -0.145123
v 0.850787 1.212749 -0.145123
v -0.936874 1.112750 -0.145123
v 0.936874 1.112750 -0.145123
v -0.936874 1.112750 -0.045123
v 0.936874 1.112750 -0.045123
v -1.192073 2.325480 0.009088
v -1.801351 2.335842 -0.393197
v -1.741269 0.550742 -0.373273
v -1.260622 1.701454 -0.093242
v -1.669339 1.701454 -0.387674
v -1.260622 0.624044 -0.093242
v -1.669339 0.624044 -0.387674
v -1.251134 1.774689 -0.025715
v -1.296739 1.701454 -0.043105
v -1.742008 1.774799 -0.370710
v -1.705456 1.701454 -0.337539
v -1.253003 0.550750 -0.023190
v -1.296739 0.624044 -0.043105
v -1.705456 0.624044 -0.337539
v 2.499469 2.499710 -0.401085
v 2.325769 2.269572 -0.391832
v 2.277020 2.336846 -0.395838
v 2.324285 -2.268449 -0.390488
v -2.499733 -2.499676 -0.401087
v -2.324285 -2.268449 -0.390488
v -2.277019 -2.336811 -0.395838
v -2.499496 2.499452 -0.401222
v -2.325770 2.269573 -0.391832
v -2.277018 2.336846 -0.395838
v 1.192075 2.325480 0.009088
v 1.192075 -2.325446 0.009089
v 1.800593 -2.335826 -0.393282
v 2.499735 -2.498837 -0.401104
v 2.277388 -2.337289 -0.396291
v 1.800203 2.335192 -0.392504
v 0.846112 2.325480 0.009088
v 0.846112 -2.325444 0.009089
v -0.846111 2.325480 0.009088
v -0.846111 -2.325444 0.009089
v -0.846111 2.325480 -0.070651
v -0.846111 -2.325444 -0.070651
v 0.846112 -2.325444 -0.070651
v 0.846112 2.325480 -0.070651
v 1.192075 0.000017 0.009089
v 1.788112 0.000017 -0.385073
v 1.253005 0.550750 -0.023190
v 1.741271 0.550742 -0.373272
v 1.260623 1.701454 -0.093242
v 1.669341 1.701454 -0.387674
v 1.260623 0.624044 -0.093242
v 1.669341 0.624044 -0.387674
v 1.253003 1.774748 -0.023192
v 1.296741 1.701454 -0.043105
v 1.739911 1.774747 -0.372924
v 1.705458 1.701454 -0.337539
v 1.296741 0.624044 -0.043105
v 1.705458 0.624044 -0.337539
v -0.936874 -1.112714 -0.045123
v 0.936874 -1.112714 -0.045123
v -0.850787 -1.112714 -0.145123
v 0.850787 -1.112714 -0.145123
v -0.936874 -1.212714 -0.145123
v 0.936874 -1.212714 -0.145123
v -0.936874 -1.212714 -0.045123
v 0.936874 -1.212714 -0.045123
v 1.739912 -0.550716 -0.372924
v 1.260623 -1.701419 -0.093241
v 1.669341 -1.701419 -0.387674
v 1.260623 -0.624009 -0.093241
v 1.669341 -0.624009 -0.387674
v 1.253003 -1.774713 -0.023192
v 1.296741 -1.701419 -0.043105
v 1.741271 -1.774721 -0.373272
v 1.705458 -1.701419 -0.337539
v 1.253005 -0.550715 -0.023190
v 1.296741 -0.624009 -0.043105
v 1.705458 -0.624009 -0.337539
v -2.471509 -0.239901 -0.775352
v -2.471509 0.239938 -0.315914
v -1.224126 0.239938 0.108419
v 1.224127 0.189579 0.108420
v 1.820164 0.239938 -0.320957
v 2.471509 0.239938 -0.775352
v 1.083743 0.239938 0.108419
v 1.292386 0.239898 0.059160
v 2.500000 2.500000 -0.890540
v -2.500000 -2.499966 -0.890540
v -2.500000 2.500000 -0.890540
v 2.500000 -2.499966 -0.890540
v -0.741406 0.785240 -0.290271
v -0.661206 0.760311 -0.295933
v -0.588928 0.853201 -0.217511
v -0.660230 0.921336 -0.145114
v -0.757886 0.804656 -0.214518
v -0.723770 0.751050 -0.278180
v -0.605714 0.797269 -0.227677
v -0.612485 0.879555 -0.138710
v -0.728051 0.880539 -0.132494
v -0.748863 0.886589 -0.176262
v -0.747260 -1.638778 -0.235213
v -0.664918 -1.639531 -0.185200
v -0.714971 -1.667171 -0.076605
v -0.805780 -1.684881 -0.101167
v -0.829601 -1.639529 -0.185204
v -0.825212 -1.673733 -0.192035
v -0.669307 -1.673734 -0.192031
v -0.713153 -1.702009 -0.080945
v -0.828531 1.659106 -0.200594
v -0.770013 1.667814 -0.176355
v -0.745773 1.656203 -0.117837
v -0.770013 1.644592 -0.059318
v -0.828531 1.667814 -0.035080
v -0.887052 1.644592 -0.059318
v -0.911288 1.667814 -0.117837
v -0.887052 1.644592 -0.176355
v -0.770013 1.632982 -0.176355
v -0.828531 1.632982 -0.035080
v -0.911288 1.632982 -0.117837
v -1.375104 -2.410776 -0.283965
v -1.218460 -2.410776 -0.348849
v -1.061816 -2.410776 -0.283965
v -0.996933 -2.410776 -0.127321
v -1.061816 -2.410776 0.029323
v -1.218460 -2.410776 0.094206
v -1.375104 -2.410776 0.029323
v -1.439987 -2.410776 -0.127321
v -1.375104 -2.500000 -0.283965
v -1.218460 -2.500000 -0.348849
v -1.061816 -2.500000 -0.283965
v -0.996933 -2.500000 -0.127321
v -1.061816 -2.500000 0.029323
v -1.218460 -2.500000 0.094206
v -1.375104 -2.500000 0.029323
v -1.439987 -2.500000 -0.127321
v -0.509973 -2.410776 -0.372146
v -0.417536 -2.410776 -0.410435
v -0.325098 -2.410776 -0.372146
v -0.286810 -2.410776 -0.279709
v -0.325098 -2.410776 -0.187271
v -0.417536 -2.410776 -0.148983
v -0.509973 -2.410776 -0.187271
v -0.548261 -2.410776 -0.279709
v -0.509973 -2.500000 -0.372146
v -0.417536 -2.500000 -0.410435
v -0.325098 -2.500000 -0.372146
v -0.286810 -2.500000 -0.279709
v -0.325098 -2.500000 -0.187271
v -0.417536 -2.500000 -0.148983
v -0.509973 -2.500000 -0.187271
v -0.548261 -2.500000 -0.279709
v -0.316242 -2.410776 -0.219759
v -0.223804 -2.410776 -0.258047
v -0.131366 -2.410776 -0.219759
v -0.093079 -2.410776 -0.127321
v -0.131366 -2.410776 -0.034884
v -0.223804 -2.410776 0.003405
v -0.316242 -2.410776 -0.034884
v -0.354529 -2.410776 -0.127321
v -0.316242 -2.500000 -0.219759
v -0.223804 -2.500000 -0.258047
v -0.131366 -2.500000 -0.219759
v -0.093079 -2.500000 -0.127321
v -0.131366 -2.500000 -0.034884
v -0.223804 -2.500000 0.003405
v -0.316242 -2.500000 -0.034884
v -0.354529 -2.500000 -0.127321
v 0.174164 -2.410776 -0.356889
v 0.266602 -2.410776 -0.395178
v 0.359039 -2.410776 -0.356889
v 0.397327 -2.410776 -0.264452
v 0.359039 -2.410776 -0.172015
v 0.266602 -2.410776 -0.133727
v 0.174164 -2.410776 -0.172015
v 0.135876 -2.410776 -0.264452
v 0.174164 -2.500000 -0.356889
v 0.266602 -2.500000 -0.395178
v 0.359039 -2.500000 -0.356889
v 0.397327 -2.500000 -0.264452
v 0.359039 -2.500000 -0.172015
v 0.266602 -2.500000 -0.133727
v 0.174164 -2.500000 -0.172015
v 0.135876 -2.500000 -0.264452
v 0.685306 -2.410776 -0.320192
v 0.877237 -2.410776 -0.399692
v 1.069165 -2.410776 -0.320192
v 1.148666 -2.410776 -0.128262
v 1.069165 -2.410776 0.063668
v 0.877237 -2.410776 0.143168
v 0.685306 -2.410776 0.063669
v 0.605804 -2.410776 -0.128262
v 0.685306 -2.500000 -0.320192
v 0.877237 -2.500000 -0.399692
v 1.069165 -2.500000 -0.320192
v 1.148666 -2.500000 -0.128262
v 1.069165 -2.500000 0.063668
v 0.877237 -2.500000 0.143168
v 0.685306 -2.500000 0.063669
v 0.605804 -2.500000 -0.128262
v 1.232217 -2.410776 -0.095316
v 1.318280 -2.410776 -0.130964
v 1.404343 -2.410776 -0.095316
v 1.439990 -2.410776 -0.009253
v 1.404343 -2.410776 0.076809
v 1.318280 -2.410776 0.112457
v 1.232217 -2.410776 0.076809
v 1.196570 -2.410776 -0.009253
v 1.232217 -2.500000 -0.095316
v 1.318280 -2.500000 -0.130964
v 1.404343 -2.500000 -0.095316
v 1.439990 -2.500000 -0.009253
v 1.404343 -2.500000 0.076809
v 1.318280 -2.500000 0.112457
v 1.232217 -2.500000 0.076809
v 1.196570 -2.500000 -0.009253
v 1.232217 -0.035781 -0.095316
v 1.318280 -0.035781 -0.130965
v 1.404343 -0.035781 -0.095316
v 1.439990 -0.035781 -0.009253
v 1.404343 -0.035781 0.076809
v 1.318280 -0.035781 0.112457
v 1.232217 -0.035781 0.076809
v 1.196570 -0.035781 -0.009253
v 1.232217 -0.125003 -0.095316
v 1.318280 -0.125003 -0.130965
v 1.404343 -0.125003 -0.095316
v 1.439990 -0.125003 -0.009253
v 1.404343 -0.125003 0.076809
v 1.318280 -0.125003 0.112457
v 1.232217 -0.125003 0.076809
v 1.196570 -0.125003 -0.009253
v 0.685306 -0.035781 -0.320193
v 0.877237 -0.035781 -0.399692
v 1.069165 -0.035781 -0.320193
v 1.148666 -0.035781 -0.128262
v 1.069165 -0.035781 0.063668
v 0.877237 -0.035781 0.143168
v 0.685306 -0.035781 0.063668
v 0.605804 -0.035781 -0.128262
v 0.685306 -0.125003 -0.320193
v 0.877237 -0.125003 -0.399692
v 1.069165 -0.125003 -0.320193
v 1.148666 -0.125003 -0.128262
v 1.069165 -0.125003 0.063668
v 0.877237 -0.125003 0.143168
v 0.685306 -0.125003 0.063668
v 0.605804 -0.125003 -0.128262
v 0.174164 -0.035781 -0.356890
v 0.266602 -0.035781 -0.395178
v 0.359039 -0.035781 -0.356890
v 0.397327 -0.035781 -0.264453
v 0.359039 -0.035781 -0.172016
v 0.266602 -0.035781 -0.133727
v 0.174164 -0.035781 -0.172016
v 0.135876 -0.035781 -0.264453
v 0.174164 -0.125003 -0.356890
v 0.266602 -0.125003 -0.395178
v 0.359039 -0.125003 -0.356890
v 0.397327 -0.125003 -0.264453
v 0.359039 -0.125003 -0.172016
v 0.266602 -0.125003 -0.133727
v 0.174164 -0.125003 -0.172016
v 0.135876 -0.125003 -0.264453
v -0.316242 -0.035781 -0.219759
v -0.223804 -0.035781 -0.258047
v -0.131366 -0.035781 -0.219759
v -0.093079 -0.035781 -0.127322
v -0.131366 -0.035781 -0.034884
v -0.223804 -0.035781 0.003404
v -0.316242 -0.035781 -0.034884
v -0.354529 -0.035781 -0.127322
v -0.316242 -0.125003 -0.219759
v -0.223804 -0.125003 -0.258047
v -0.131366 -0.125003 -0.219759
v -0.093079 -0.125003 -0.127322
v -0.131366 -0.125003 -0.034884
v -0.223804 -0.125003 0.003404
v -0.316242 -0.125003 -0.034884
v -0.354529 -0.125003 -0.127322
v -0.509973 -0.035781 -0.372146
v -0.417536 -0.035781 -0.410435
v -0.325098 -0.035781 -0.372146
v -0.286810 -0.035781 -0.279709
v -0.325098 -0.035781 -0.187272
v -0.417536 -0.035781 -0.148983
v -0.509973 -0.035781 -0.187272
v -0.548261 -0.035781 -0.279709
v -0.509973 -0.125003 -0.372146
v -0.417536 -0.125003 -0.410435
v -0.325098 -0.125003 -0.372146
v -0.286810 -0.125003 -0.279709
v -0.325098 -0.125003 -0.187272
v -0.417536 -0.125003 -0.148983
v -0.509973 -0.125003 -0.187272
v -0.548261 -0.125003 -0.279709
v -1.375104 -0.035781 -0.283965
v -1.218460 -0.035781 -0.348850
v -1.061816 -0.035781 -0.283965
v -0.996933 -0.035781 -0.127322
v -1.061816 -0.035781 0.029323
v -1.218460 -0.035781 0.094206
v -1.375104 -0.035781 0.029323
v -1.439987 -0.035781 -0.127322
v -1.375104 -0.125003 -0.283965
v -1.218460 -0.125003 -0.348850
v -1.061816 -0.125003 -0.283965
v -0.996933 -0.125003 -0.127322
v -1.061816 -0.125003 0.029323
v -1.218460 -0.125003 0.094206
v -1.375104 -0.125003 0.029323
v -1.439987 -0.125003 -0.127322
v 1.232217 2.499983 -0.095316
v 1.318280 2.499983 -0.130965
v 1.404343 2.499983 -0.095316
v 1.439990 2.499983 -0.009254
v 1.404343 2.499983 0.076809
v 1.318280 2.499983 0.112457
v 1.232217 2.499983 0.076809
v 1.196570 2.499983 -0.009254
v 1.232217 2.410761 -0.095316
v 1.318280 2.410761 -0.130965
v 1.404343 2.410761 -0.095316
v 1.439990 2.410761 -0.009254
v 1.404343 2.410761 0.076809
v 1.318280 2.410761 0.112457
v 1.232217 2.410761 0.076809
v 1.196570 2.410761 -0.009254
v 0.685306 2.499983 -0.320193
v 0.877237 2.499983 -0.399693
v 1.069165 2.499983 -0.320193
v 1.148666 2.499983 -0.128263
v 1.069165 2.499983 0.063668
v 0.877237 2.499983 0.143167
v 0.685306 2.499983 0.063668
v 0.605804 2.499983 -0.128263
v 0.685306 2.410761 -0.320193
v 0.877237 2.410761 -0.399693
v 1.069165 2.410761 -0.320193
v 1.148666 2.410761 -0.128263
v 1.069165 2.410761 0.063668
v 0.877237 2.410761 0.143167
v 0.685306 2.410761 0.063668
v 0.605804 2.410761 -0.128263
v 0.174164 2.499983 -0.356890
v 0.266602 2.499983 -0.395179
v 0.359039 2.499983 -0.356890
v 0.397327 2.499983 -0.264453
v 0.359039 2.499983 -0.172016
v 0.266602 2.499983 -0.133727
v 0.174164 2.499983 -0.172016
v 0.135876 2.499983 -0.264453
v 0.174164 2.410761 -0.356890
v 0.266602 2.410761 -0.395179
v 0.359039 2.410761 -0.356890
v 0.397327 2.410761 -0.264453
v 0.359039 2.410761 -0.172016
v 0.266602 2.410761 -0.133727
v 0.174164 2.410761 -0.172016
v 0.135876 2.410761 -0.264453
v -0.316242 2.499983 -0.219759
v -0.223804 2.499983 -0.258048
v -0.131366 2.499983 -0.219759
v -0.093079 2.499983 -0.127322
v -0.131366 2.499983 -0.034885
v -0.223804 2.499983 0.003404
v -0.316242 2.499983 -0.034885
v -0.354529 2.499983 -0.127322
v -0.316242 2.410761 -0.219759
v -0.223804 2.410761 -0.258048
v -0.131366 2.410761 -0.219759
v -0.093079 2.410761 -0.127322
v -0.131366 2.410761 -0.034885
v -0.223804 2.410761 0.003404
v -0.316242 2.410761 -0.034885
v -0.354529 2.410761 -0.127322
v -0.509973 2.499983 -0.372146
v -0.417536 2.499983 -0.410435
v -0.325098 2.499983 -0.372146
v -0.286810 2.499983 -0.279709
v -0.325098 2.499983 -0.187272
v -0.417536 2.499983 -0.148984
v -0.509973 2.499983 -0.187272
v -0.548261 2.499983 -0.279709
v -0.509973 2.410761 -0.372146
v -0.417536 2.410761 -0.410435
v -0.325098 2.410761 -0.372146
v -0.286810 2.410761 -0.279709
v -0.325098 2.410761 -0.187272
v -0.417536 2.410761 -0.148984
v -0.509973 2.410761 -0.187272
v -0.548261 2.410761 -0.279709
v -1.375104 2.499983 -0.283966
v -1.218460 2.499983 -0.348850
v -1.061816 2.499983 -0.283966
v -0.996933 2.499983 -0.127322
v -1.061816 2.499983 0.029322
v -1.218460 2.499983 0.094206
v -1.375104 2.499983 0.029322
v -1.439987 2.499983 -0.127322
v -1.375104 2.410761 -0.283966
v -1.218460 2.410761 -0.348850
v -1.061816 2.410761 -0.283966
v -0.996933 2.410761 -0.127322
v -1.061816 2.410761 0.029322
v -1.218460 2.410761 0.094206
v -1.375104 2.410761 0.029322
v -1.439987 2.410761 -0.127322
v -0.892478 -2.463407 -0.211053
v -0.833957 -2.475605 -0.235293
v -0.775440 -2.463407 -0.211053
v -0.751199 -2.481704 -0.152535
v -0.775440 -2.463407 -0.094017
v -0.833957 -2.487803 -0.069778
v -0.910801 -2.463407 -0.112793
v -0.910801 -2.500000 -0.192278
v -0.775440 -2.500000 -0.211053
v -0.775440 -2.500000 -0.094017
v -0.892478 -2.500000 -0.094017
v -0.833957 2.487785 -0.235293
v -0.775440 2.499983 -0.211054
v -0.751199 2.487785 -0.152536
v -0.794218 2.499983 -0.075692
v -0.892478 2.475587 -0.094018
v -0.916715 2.499983 -0.152536
v -0.892478 2.475587 -0.211054
v -0.775440 2.463390 -0.211054
v -0.807722 2.463390 -0.070099
v -0.916715 2.463390 -0.152536
v -1.345712 2.410759 -0.254580
v -1.218460 2.410759 -0.307289
v -1.091208 2.410759 -0.254580
v -1.038498 2.410759 -0.127328
v -1.091208 2.410759 -0.000076
v -1.218460 2.410759 0.052634
v -1.345712 2.410759 -0.000076
v -1.398422 2.410759 -0.127328
v -1.345712 -2.410776 -0.254579
v -1.218460 -2.410776 -0.307288
v -1.091208 -2.410776 -0.254579
v -1.038498 -2.410776 -0.127327
v -1.091208 -2.410776 -0.000075
v -1.218460 -2.410776 0.052635
v -1.345712 -2.410776 -0.000075
v -1.398422 -2.410776 -0.127327
v -0.492625 2.410759 -0.354807
v -0.417534 2.410759 -0.385912
v -0.342442 2.410759 -0.354807
v -0.311339 2.410759 -0.279715
v -0.342442 2.410759 -0.204623
v -0.417534 2.410759 -0.173518
v -0.492625 2.410759 -0.204623
v -0.523732 2.410759 -0.279715
v -0.492625 -2.410776 -0.354806
v -0.417534 -2.410776 -0.385911
v -0.342442 -2.410776 -0.354806
v -0.311339 -2.410776 -0.279714
v -0.342442 -2.410776 -0.204622
v -0.417534 -2.410776 -0.173517
v -0.492625 -2.410776 -0.204622
v -0.523732 -2.410776 -0.279714
v -0.298895 2.410759 -0.202420
v -0.223802 2.410759 -0.233524
v -0.148709 2.410759 -0.202420
v -0.117606 2.410759 -0.127328
v -0.148709 2.410759 -0.052235
v -0.223802 2.410759 -0.021130
v -0.298895 2.410759 -0.052235
v -0.329999 2.410759 -0.127328
v -0.298895 -2.410776 -0.202419
v -0.223802 -2.410776 -0.233523
v -0.148709 -2.410776 -0.202419
v -0.117606 -2.410776 -0.127327
v -0.148709 -2.410776 -0.052234
v -0.223802 -2.410776 -0.021129
v -0.298895 -2.410776 -0.052234
v -0.329999 -2.410776 -0.127327
v 0.191540 2.410759 -0.340909
v 0.266492 2.410759 -0.371954
v 0.341440 2.410759 -0.340909
v 0.372485 2.410759 -0.265959
v 0.352474 2.410753 -0.199339
v 0.266492 2.410759 -0.159964
v 0.191540 2.410759 -0.191010
v 0.160498 2.410759 -0.265959
v 0.191540 -2.410776 -0.340908
v 0.266492 -2.410776 -0.371954
v 0.341440 -2.410776 -0.340908
v 0.372485 -2.410776 -0.265958
v 0.341440 -2.410776 -0.191009
v 0.266492 -2.410776 -0.159964
v 0.191540 -2.410776 -0.191009
v 0.160498 -2.410776 -0.265958
v 0.703406 2.410759 -0.302396
v 0.878479 2.410759 -0.374914
v 1.053555 2.410759 -0.302396
v 1.126071 2.410759 -0.127322
v 1.053555 2.410759 0.047753
v 0.878479 2.410759 0.120270
v 0.703406 2.410759 0.047753
v 0.630887 2.410759 -0.127322
v 0.703406 -2.410776 -0.302395
v 0.878479 -2.410776 -0.374914
v 1.053555 -2.410776 -0.302395
v 1.126071 -2.410776 -0.127321
v 1.053555 -2.410776 0.047753
v 0.878479 -2.410776 0.120271
v 0.703406 -2.410776 0.047753
v 0.630887 -2.410776 -0.127321
v 1.244034 2.410759 -0.083845
v 1.319125 2.410759 -0.114950
v 1.394220 2.410759 -0.083845
v 1.425323 2.410759 -0.008752
v 1.394220 2.410759 0.066341
v 1.319125 2.410759 0.097445
v 1.244034 2.410759 0.066341
v 1.212930 2.410759 -0.008752
v 1.252847 -2.410842 -0.096369
v 1.319125 -2.410776 -0.114949
v 1.394220 -2.410776 -0.083844
v 1.420014 -2.410788 0.033573
v 1.319125 -2.410776 0.097446
v 1.244034 -2.410776 0.066342
v 1.212930 -2.410776 -0.008752
v -0.856423 2.463439 -0.210650
v -0.828867 2.463340 -0.170022
v -0.883628 2.463416 -0.166086
v -0.857814 -2.463381 -0.214180
v -0.828175 -2.463530 -0.168807
v -0.881276 -2.463573 -0.170715
v -0.798459 -1.671142 -0.218217
v -0.769849 -1.670689 -0.172393
v -0.746671 -1.664961 -0.217289
v -0.766902 -1.524990 -0.115844
v -0.795970 -1.551401 -0.100140
v -0.766817 -1.580614 -0.090598
v -0.741373 -1.544648 -0.088731
v -0.717000 0.734705 0.221659
v -0.705687 0.775535 0.215928
v -0.664113 0.761225 0.261633
v -0.676631 0.725218 0.214881
v -0.704436 0.760266 -0.282383
v -0.731708 0.801550 -0.223422
v -0.676636 0.805980 -0.225612
v -0.885347 1.671205 -0.158258
v -0.857701 1.667297 -0.118236
v -0.830969 1.669681 -0.163111
v -0.851214 2.463439 -0.143673
v -0.823658 2.463340 -0.103045
v -0.878419 2.463416 -0.099109
v -0.852605 -2.463381 -0.147203
v -0.822966 -2.463530 -0.101830
v -0.876067 -2.463573 -0.103738
v -0.764156 -1.663494 -0.165745
v -0.795255 -1.666671 -0.135497
v -0.780204 -1.648536 -0.105944
v -0.749021 -1.649885 -0.104528
v -0.731221 -1.627952 -0.114201
v -0.760235 -1.589558 -0.101247
v -0.793065 -1.620809 -0.097567
v -0.725086 0.789902 0.057292
v -0.713313 0.829272 0.046918
v -0.672640 0.815638 0.068467
v -0.684258 0.778955 0.045871
v -0.699857 0.844464 -0.222848
v -0.726714 0.885132 -0.180434
v -0.671333 0.881060 -0.183175
v -0.879932 1.664653 -0.091081
v -0.852444 1.667292 -0.051241
v -0.825230 1.669996 -0.095864
v -0.794899 2.463439 -0.183865
v -0.767342 2.463340 -0.143239
v -0.822101 2.463416 -0.139301
v -0.796290 -2.463381 -0.187395
v -0.766649 -2.463530 -0.142024
v -0.819750 -2.463573 -0.143930
v -0.737019 -1.671173 -0.191419
v -0.708277 -1.670601 -0.145579
v -0.685274 -1.665094 -0.190548
v -0.730124 -1.565747 -0.105712
v -0.703548 -1.608282 -0.092308
v -0.677167 -1.563499 -0.098326
v -0.667217 0.813694 -0.247319
v -0.640306 0.859689 -0.182948
v -0.617137 0.814683 -0.244151
v -0.823789 1.670666 -0.131438
v -0.796165 1.667323 -0.091447
v -0.769421 1.669682 -0.136313
v 0.703406 -0.000009 0.047753
v 0.878479 -0.000009 0.120271
v 1.053555 -0.000009 0.047753
v 1.126071 -0.000009 -0.127322
v 1.053555 -0.000009 -0.302396
v 0.878479 -0.000009 -0.374914
v 0.703406 -0.000009 -0.302396
v 0.630887 -0.000009 -0.127322
v 0.703406 1.494132 -0.101203
v 0.630887 1.584424 0.048791
v 0.703406 1.674715 0.198785
v 0.882068 1.769313 0.223428
v 1.057144 1.731911 0.161299
v 1.126071 1.584424 0.048791
v 1.053555 1.494132 -0.101203
v 0.878241 1.508540 -0.202536
v 0.703406 0.428179 0.170418
v 0.878479 0.402879 0.238381
v 1.053555 0.428179 0.170418
v 1.126071 0.489254 0.006342
v 1.053555 0.550329 -0.157733
v 0.878479 0.575628 -0.225695
v 0.703406 0.550329 -0.157733
v 0.630887 0.489254 0.006342
v 1.053555 1.962618 0.046740
v 1.126071 1.943810 -0.127322
v 1.053555 1.925002 -0.301383
v 0.878479 1.917210 -0.373481
v 0.703406 1.925002 -0.301383
v 0.630887 1.943810 -0.127322
v 0.703406 1.962618 0.046740
v 0.878479 1.970408 0.118838
v 0.703406 0.597388 0.401727
v 0.878479 0.538447 0.443974
v 1.053555 0.597388 0.401727
v 1.144092 0.714126 0.259633
v 1.053555 0.881981 0.197739
v 0.878479 0.940922 0.155493
v 0.703406 0.881981 0.197739
v 0.617371 0.712777 0.257548
v 0.732715 0.637918 0.400812
v 0.878479 0.588843 0.435986
v 1.024249 0.637918 0.400812
v 1.102646 0.730833 0.275791
v 1.024249 0.874867 0.230972
v 0.878479 0.923942 0.195797
v 0.732715 0.874867 0.230972
v 0.658819 0.729482 0.273706
v 0.759665 0.550397 0.214920
v 0.878479 0.510398 0.243591
v 0.997296 0.550397 0.214920
v 1.046509 0.646970 0.145701
v 0.997296 0.743536 0.076483
v 0.878479 0.783538 0.047812
v 0.759665 0.743536 0.076483
v 0.710449 0.646970 0.145701
v 0.736810 1.495204 -0.060357
v 0.678125 1.568269 0.061019
v 0.736810 1.641333 0.182395
v 1.078833 1.568269 0.061019
v 1.020154 1.495204 -0.060357
v 0.756915 1.583564 -0.092153
v 0.706558 1.646261 0.011998
v 0.756915 1.708956 0.116150
v 0.886185 1.733760 0.188746
v 1.020823 1.702438 0.144100
v 1.050400 1.646261 0.011998
v 1.000049 1.583564 -0.092153
v 0.878250 1.523935 -0.152574
v -0.764722 -1.515052 0.583669
v -0.791646 -1.560141 0.584346
v -0.765826 -1.580160 0.585366
v -0.737944 -1.540076 0.584731
v -0.782584 -1.595989 0.486163
v -0.787843 -1.634099 0.487228
v -0.735699 -1.603984 0.486763
v -0.732075 -1.566802 0.675634
v -0.704290 -1.606933 0.676261
v -0.676978 -1.562477 0.675568
v -0.705255 -1.563751 0.293863
v -0.664118 -1.600250 0.307556
v -0.716088 -1.604552 0.246687
v -0.759963 -1.562598 0.249246
v -0.801302 -1.527013 0.235018
v -0.752306 -1.647978 0.486545
v -0.743294 -1.608101 0.188712
v -0.718400 0.734655 0.595969
v -0.691158 0.779130 0.596895
v -0.663425 0.738941 0.596059
v -0.726027 0.788393 0.889615
v -0.698785 0.832867 0.890540
v -0.671052 0.792679 0.889704
v -0.673271 0.807730 0.725640
v -0.645815 0.846947 0.726403
v -0.617732 0.807227 0.725591
v -0.299352 -0.219993 -0.052167
v -0.223802 -0.000008 -0.233524
v -0.208414 -1.180784 -0.015957
v -0.140955 -1.194933 -0.057996
v -0.110040 -1.171546 -0.127192
v -0.148709 -1.205392 -0.202419
v -0.223802 -1.205392 -0.233523
v -0.298895 -1.205392 -0.202419
v -0.325224 -1.178897 -0.126724
v -0.152026 -0.930681 0.165227
v -0.076755 -0.907243 0.150122
v -0.056658 -0.866004 0.095075
v -0.088875 -0.838945 0.041295
v -0.219733 -0.821592 0.047781
v -0.273233 -0.890759 0.087134
v -0.302628 -0.339674 0.012043
v -0.282078 -1.137694 -0.029042
v -0.114020 -1.012791 -0.123854
v -0.188410 -0.985063 -0.141277
v -0.262883 -0.997462 -0.111165
v -0.224457 -0.205796 -0.023855
v -0.148196 -0.219673 -0.052255
v -0.118553 -0.256364 -0.117043
v -0.145939 -0.292193 -0.179228
v -0.223802 -0.332879 -0.193986
v -0.298877 -0.279507 -0.185562
v -0.329322 -0.253024 -0.118349
v -0.226587 -0.320947 0.045870
v -0.152917 -0.358707 0.028951
v -0.118059 -0.408266 0.000210
v -0.145102 -0.448039 -0.053212
v -0.219178 -0.448720 -0.095500
v -0.285190 -0.437971 -0.079126
v -0.331458 -0.378217 -0.037914
v -0.223264 -0.909481 0.153285
v -0.151822 -0.810789 0.019738
v -0.240608 -0.897161 0.083515
v -0.192209 -0.322024 0.003379
v -0.150369 -0.362539 -0.048466
v -0.194930 -0.403529 -0.103428
v -0.289678 -0.380628 -0.075029
v -0.170012 -0.942972 0.113841
v -0.089140 -0.924332 0.076541
v -0.130304 -0.862021 0.010698
v -0.204666 -0.863948 0.029535
v -0.181273 -1.712386 0.021409
v -0.106180 -1.712386 -0.009696
v -0.075076 -1.712386 -0.084789
v -0.106180 -1.712386 -0.159881
v -0.181273 -1.712386 -0.190985
v -0.256366 -1.712386 -0.159881
v -0.287470 -1.712386 -0.084789
v -0.256366 -1.712386 -0.009696
v 0.266492 -0.000008 -0.159964
v 0.341440 -0.000008 -0.191010
v 0.372485 -0.000008 -0.265959
v 0.341440 -0.000008 -0.340908
v 0.266492 -0.000008 -0.371954
v 0.177510 1.226671 -0.325388
v 0.160498 -0.000008 -0.265959
v 0.191540 -0.000008 -0.191010
v 0.200954 1.152443 -0.131185
v 0.281101 1.151226 -0.143677
v 0.328935 1.150110 -0.209189
v 0.316435 1.149746 -0.289344
v 0.250925 1.150347 -0.337189
v 0.122943 1.152681 -0.259184
v 0.135440 1.153045 -0.179030
v 0.266492 1.808067 -0.371954
v 0.160498 1.808067 -0.265959
v 0.191540 1.808067 -0.191010
v 0.266492 1.808067 -0.159964
v 0.372485 1.808067 -0.265959
v 0.341440 1.808067 -0.340908
v -1.104148 -0.792838 0.000599
v -1.038498 -0.000008 -0.127327
v -1.091208 -0.000008 -0.254579
v -1.218460 -0.000008 -0.307288
v -1.345712 -0.000008 -0.254579
v -1.398422 -0.000008 -0.127327
v -1.345712 -0.000008 -0.000075
v -1.218460 -0.000008 0.052635
v -1.079471 -1.181311 -0.139396
v -1.161887 -1.188807 -0.249500
v -1.297697 -1.201164 -0.268838
v -1.407349 -1.211141 -0.186082
v -1.426608 -1.212896 -0.049710
v -1.344191 -1.205398 0.060394
v -1.208380 -1.193042 0.079733
v 1.407235 -1.194427 0.048321
v 1.433818 -1.146205 -0.027787
v 1.397680 -1.159804 -0.105639
v 1.317870 -1.038692 -0.128121
v 1.223160 -1.045988 -0.017777
v 1.255292 -1.103805 0.053598
v 1.331083 -1.147921 0.082957
vn 0.5844 0.0016 0.8114
vn -0.0000 1.0000 -0.0000
vn -0.5845 -0.0000 0.8114
vn -0.4502 -0.0025 0.8929
vn -0.5764 0.0296 0.8166
vn -0.5516 0.0121 0.8340
vn -0.2807 -0.0004 0.9598
vn -0.5764 0.1245 0.8077
vn -0.8114 -0.0000 -0.5845
vn -0.0000 -1.0000 -0.0000
vn 0.8114 -0.0000 0.5845
vn -0.0000 -0.0000 1.0000
vn -0.3722 -0.0022 0.9282
vn -0.5509 0.0063 0.8345
vn -0.4502 0.0025 0.8929
vn -0.5516 -0.0121 0.8340
vn 0.0069 0.0228 0.9997
vn -0.0829 -0.7954 -0.6004
vn -1.0000 -0.0000 0.0010
vn -0.3598 0.0025 0.9330
vn 0.0042 -0.9998 0.0184
vn 0.5845 -0.0000 0.8114
vn 0.0525 0.9972 -0.0525
vn -0.7044 -0.0019 0.7098
vn -0.0044 -0.9998 0.0191
vn 0.4681 -0.0000 0.8837
vn 0.5830 -0.0344 0.8117
vn 0.5516 -0.0121 0.8340
vn 0.3083 0.0001 0.9513
vn 0.8114 -0.0000 -0.5845
vn -0.8114 -0.0000 0.5845
vn 0.2445 -0.0000 0.9697
vn 0.5514 -0.0121 0.8342
vn 0.5516 0.0121 0.8340
vn 0.5794 0.1171 0.8066
vn 0.5791 -0.1108 0.8077
vn -1.0000 -0.0000 -0.0000
vn 0.0077 -0.0000 1.0000
vn -0.0077 -0.0000 1.0000
vn 1.0000 -0.0000 -0.0000
vn 0.1936 0.5396 0.8194
vn -0.0001 1.0000 0.0011
vn -0.0113 0.0003 0.9999
vn -0.8765 -0.4764 -0.0686
vn -0.1914 -0.4135 -0.8902
vn 0.6616 0.7480 -0.0524
vn -0.4421 0.8357 0.3257
vn -0.9041 -0.0950 0.4167
vn 0.0688 -0.7447 0.6639
vn 0.0202 -0.9998 -0.0077
vn 0.0303 -0.7326 0.6799
vn -0.5170 0.1034 -0.8497
vn 0.9295 -0.1832 0.3202
vn -0.2347 -0.1322 0.9630
vn -0.0000 -0.7772 -0.6292
vn -0.0000 -0.9995 0.0322
vn 0.9239 -0.0000 -0.3827
vn -0.3827 -0.0000 0.9239
vn -0.9239 -0.0000 -0.3827
vn -0.3827 -0.0000 -0.9239
vn 0.3827 -0.0000 -0.9239
vn 0.9239 -0.0000 0.3827
vn 0.3827 -0.0000 0.9239
vn -0.9239 -0.0000 0.3827
vn 0.1443 0.9790 -0.1443
vn 0.7159 0.0006 0.6982
vn 0.4144 -0.0000 0.9101
vn 0.0730 0.9905 -0.1164
vn 0.0060 -0.0881 0.9961
vn -0.0000 0.5826 0.8128
vn -0.0000 -0.0000 -1.0000
vn -0.1666 -0.9836 -0.0690
vn -0.0000 0.9995 0.0321
vn -0.4140 -0.2428 -0.8773
vn -0.9133 0.3699 -0.1703
vn 0.1443 -0.9790 0.1443
vn -0.2334 0.2305 0.9447
vn 0.3827 -0.0014 0.9239
vn -0.3827 -0.0058 -0.9239
vn 0.9239 -0.0023 -0.3827
vn 0.9239 0.0011 0.3827
vn 0.3827 0.0001 0.9239
vn -0.3827 -0.0009 0.9239
vn -0.9110 0.0002 0.4124
vn -0.9239 -0.0015 -0.3827
vn -0.3827 -0.0076 -0.9239
vn 0.9577 -0.0000 0.2877
vn -0.9614 -0.0000 -0.2752
vn -0.3827 -0.0019 -0.9239
vn 0.3809 -0.0027 -0.9246
vn 0.9231 -0.0008 -0.3845
vn 0.9231 -0.0000 0.3846
vn 0.3807 -0.0021 0.9247
vn -0.3827 -0.0030 0.9239
vn -0.9239 -0.0009 0.3827
vn -0.3827 0.0017 -0.9239
vn 0.3827 0.0034 -0.9239
vn 0.9068 0.0035 -0.4215
vn 0.9239 0.0002 0.3827
vn 0.3827 -0.0032 0.9239
vn -0.3827 -0.0050 0.9239
vn -0.9239 -0.0043 0.3827
vn -0.9239 -0.0017 -0.3827
vn -0.0904 -0.0624 -0.9939
vn 0.8276 -0.0071 -0.5613
vn 0.0716 0.0622 0.9955
vn -0.8224 0.0074 0.5688
vn -0.8783 0.0634 -0.4738
vn -0.8427 0.1195 0.5249
vn 0.8901 -0.0634 0.4514
vn 0.8312 -0.1178 -0.5433
vn -0.7163 0.4974 -0.4893
vn -0.6706 -0.4862 0.5603
vn 0.8229 -0.4314 0.3698
vn -0.0548 0.5808 -0.8122
vn -0.9584 0.2758 0.0731
vn 0.2420 0.9668 0.0826
vn 0.8931 -0.4424 -0.0811
vn -0.8169 -0.1852 0.5462
vn 0.0486 -0.1135 0.9923
vn 0.8153 0.1854 -0.5485
vn -0.0850 0.1179 -0.9894
vn -0.0809 -0.0626 -0.9948
vn 0.8276 -0.0067 -0.5613
vn -0.8233 0.0073 0.5676
vn -0.8779 0.0702 -0.4736
vn -0.9111 0.1082 0.3976
vn -0.0451 0.0074 0.9990
vn 0.5186 -0.0443 0.8539
vn 0.8325 -0.1047 -0.5441
vn -0.6239 0.5155 -0.5873
vn 0.4523 0.5725 -0.6838
vn -0.9394 0.3160 0.1330
vn 0.0833 0.9644 0.2511
vn 0.8576 -0.4860 -0.1683
vn -0.3073 -0.9285 -0.2085
vn -0.7958 -0.2210 0.5637
vn 0.0373 -0.1570 0.9869
vn 0.6908 0.2113 -0.6915
vn -0.0995 0.1365 -0.9856
vn -0.0903 -0.0624 -0.9940
vn 0.8275 -0.0071 -0.5614
vn 0.0717 0.0622 0.9955
vn -0.8225 0.0074 0.5688
vn -0.8784 0.0633 -0.4738
vn -0.8418 0.1194 0.5263
vn 0.8916 -0.0636 0.4483
vn 0.8312 -0.1177 -0.5434
vn -0.8035 -0.3504 0.4812
vn 0.8322 -0.4076 0.3758
vn -0.0612 0.6320 -0.7725
vn 0.8913 0.4534 0.0040
vn -0.4820 0.4995 0.7199
vn -0.8114 -0.2180 0.5423
vn 0.9556 0.1373 0.2608
vn -0.0866 0.1179 -0.9892
vn -0.3819 -0.2600 0.8869
vn 0.3699 -0.2559 0.8931
vn 0.9189 -0.1040 0.3806
vn 0.9192 0.1001 -0.3808
vn 0.3722 0.2329 -0.8985
vn -0.3811 0.2350 -0.8942
vn -0.9233 0.1012 -0.3704
vn -0.9235 -0.1057 0.3688
vn 0.9235 0.1688 0.3445
vn 0.9162 -0.1689 -0.3634
vn 0.3690 -0.3588 -0.8573
vn -0.4407 -0.3782 -0.8141
vn -0.9234 -0.1689 -0.3447
vn -0.9237 0.1790 0.3388
vn -0.3608 0.4253 0.8301
vn 0.3616 0.4192 0.8328
vn -0.3268 -0.7628 0.5580
vn 0.3824 -0.7714 0.5086
vn 0.8914 -0.3657 0.2675
vn 0.8700 0.3363 -0.3605
vn 0.3800 0.6763 -0.6310
vn -0.3494 0.6765 -0.6483
vn -0.9074 0.3073 -0.2867
vn -0.8974 -0.3525 0.2654
vn -0.1825 0.1539 0.9711
vn 0.1825 0.1539 0.9711
vn 0.5808 0.4355 0.6878
vn 0.4840 0.5205 0.7034
vn 0.2117 0.9007 0.3794
vn -0.2117 0.9007 0.3794
vn 0.0044 0.9998 0.0191
vn 0.3737 0.8589 -0.3502
vn -0.3737 0.8589 -0.3502
vn -0.8367 0.5321 -0.1292
vn -0.8808 -0.1207 0.4579
vn -0.3796 -0.6711 0.6368
vn 0.3796 -0.6711 0.6368
vn 0.8546 -0.3125 0.4147
vn 0.8767 0.4789 0.0449
vn 1.0000 0.0001 0.0011
vn -0.3813 -0.8618 0.3344
vn -0.3933 -0.6912 0.6062
vn 0.2522 -0.6606 0.7071
vn 0.1403 -0.6223 0.7701
vn 0.3511 -0.3785 0.8564
vn 0.3813 -0.8618 0.3344
vn -0.2414 -0.9274 0.2858
vn 0.1416 -0.9858 -0.0899
vn 0.8902 -0.0392 0.4540
vn 0.8867 -0.4300 -0.1699
vn -0.9277 -0.3699 -0.0504
vn -0.8902 -0.0392 0.4539
vn 0.5098 0.1862 0.8399
vn 0.0002 -1.0000 0.0023
vn -0.0000 -0.8568 0.5157
vn -0.6897 0.7213 -0.0635
vn -0.7137 -0.6993 0.0395
vn 0.3696 -0.9282 0.0418
vn 0.8159 -0.5780 0.0142
vn -0.6904 0.7232 -0.0184
vn 0.9841 -0.1773 0.0060
vn -0.8442 -0.5354 -0.0253
vn -0.0151 0.0263 0.9995
vn -0.9438 0.3243 -0.0637
vn -0.0273 0.9996 -0.0013
vn 0.8497 -0.5207 0.0831
vn 0.8207 -0.5711 -0.0155
vn -0.6106 -0.7902 -0.0519
vn -0.3634 -0.9314 0.0180
vn -0.9073 -0.4204 -0.0015
vn 0.1683 0.9856 -0.0179
vn -0.8527 0.5217 0.0276
vn 0.3470 0.9376 -0.0221
vn 0.9529 -0.3026 -0.0221
vn -0.2289 -0.9734 -0.0010
vn -0.8528 0.5221 0.0125
vn 0.3224 0.9466 -0.0096
vn 0.9551 -0.2962 -0.0101
vn -0.2595 -0.9657 -0.0020
vn -0.0000 -0.0208 0.9998
vn 0.2424 -0.1144 -0.9634
vn -0.3823 0.0454 0.9229
vn 0.3803 0.1113 0.9181
vn 0.8972 0.0919 0.4319
vn 0.8824 0.0347 -0.4692
vn 0.3823 -0.0454 -0.9229
vn -0.3804 -0.1090 -0.9184
vn -0.9197 -0.0950 -0.3809
vn -0.9235 -0.0284 0.3825
vn -0.2891 -0.5180 0.8050
vn 0.3329 -0.6003 0.7272
vn 0.9516 -0.2712 0.1443
vn 0.9833 0.0284 -0.1796
vn 0.3847 0.5815 -0.7168
vn -0.3717 0.6710 -0.6416
vn -0.9148 0.3338 -0.2274
vn -0.8069 -0.2276 0.5451
vn 0.8830 0.0320 -0.4683
vn 0.3639 0.3094 -0.8786
vn -0.3461 0.4266 -0.8356
vn -0.3883 0.4826 0.7851
vn 0.4122 0.4490 0.7928
vn 0.8361 0.3369 0.4330
vn 0.9330 -0.2232 -0.2823
vn 0.4319 -0.5741 -0.6956
vn -0.4532 -0.5237 -0.7214
vn -0.9197 -0.2010 -0.3374
vn -0.9263 0.1975 0.3209
vn 0.2040 0.9715 0.1208
vn 0.1681 -0.9726 0.1606
vn -0.8175 -0.5759 0.0016
vn -0.7431 -0.0826 0.6641
vn 0.2326 -0.0512 0.9712
vn 0.6641 -0.0014 0.7477
vn -0.6876 -0.0000 0.7261
vn 0.3194 0.8903 -0.3247
vn -0.2792 0.9514 -0.1299
vn -0.8780 0.4772 0.0370
vn -0.7728 0.2442 0.5858
vn 0.2466 -0.0670 0.9668
vn 0.8187 0.0446 0.5725
vn 0.1580 0.7027 0.6937
vn 0.3815 -0.0793 0.9210
vn 0.9210 -0.0793 0.3815
vn 0.9234 -0.0329 -0.3825
vn 0.3825 0.0330 -0.9234
vn -0.3815 0.0793 -0.9210
vn -0.9210 0.0793 -0.3815
vn -0.9234 0.0329 0.3825
vn -0.3825 -0.0330 0.9234
vn -0.4404 0.0021 -0.8978
vn 0.3826 -0.0179 0.9237
vn 0.9238 0.0161 0.3826
vn 0.9232 0.0372 -0.3824
vn 0.5897 0.0324 -0.8070
vn -0.7599 -0.0209 -0.6497
vn -0.9228 -0.0489 0.3822
vn -0.3823 -0.0448 0.9230
vn -0.7921 0.0391 -0.6092
vn -0.9205 0.0858 0.3812
vn -0.3815 0.0786 0.9210
vn 0.2386 0.0294 0.9707
vn 0.8925 -0.0202 0.4507
vn 0.9219 -0.0649 -0.3819
vn 0.3821 -0.0578 -0.9223
vn 0.9622 -0.0361 0.2699
vn 0.8012 -0.0502 -0.5963
vn 0.1445 -0.0412 -0.9886
vn -0.6015 -0.0146 -0.7987
vn -0.9901 0.0141 -0.1396
vn -0.8012 0.0290 0.5977
vn -0.3826 0.0177 0.9237
vn 0.9961 0.0340 0.0813
vn 0.9225 0.0549 -0.3821
vn 0.1372 0.0405 -0.9897
vn -0.6032 0.0145 -0.7975
vn -0.9900 -0.0142 -0.1400
vn -0.7993 -0.0291 0.6003
vn -0.1391 -0.0209 0.9901
vn 0.5939 0.0044 0.8045
vn 0.9077 -0.0098 -0.4196
vn 0.2584 -0.0090 -0.9660
vn -0.9238 0.0117 0.3826
vn -0.3826 0.0142 0.9238
vn 0.5349 -0.0046 0.8449
vn 0.0003 1.0000 0.0005
vn -0.5077 -0.0000 0.8615
vn -0.5515 -0.0064 0.8342
vn -0.5806 -0.0295 0.8136
vn -0.3261 -0.0017 0.9453
vn -0.5821 0.0915 0.8080
vn 0.1753 -0.8806 0.4403
vn -0.0102 -0.7948 0.6068
vn -0.0175 -0.7946 0.6068
vn -0.2647 0.0019 0.9643
vn -0.5748 -0.0280 0.8178
vn -0.5824 0.0321 0.8123
vn -0.0539 -0.0000 0.9985
vn -0.0607 0.0003 0.9982
vn 0.0062 -0.0212 0.9998
vn 0.0126 0.0503 0.9987
vn -0.0264 -0.0661 0.9975
vn -0.0000 0.0489 0.9988
vn -0.0055 0.0256 0.9997
vn 0.0608 0.0003 0.9982
vn 0.0532 -0.0000 0.9986
vn -0.0002 0.0529 0.9986
vn -0.0131 0.0500 0.9987
vn 0.5397 -0.8327 0.1236
vn -0.1339 -0.9905 -0.0307
vn 0.0724 -0.9820 0.1747
vn -0.1006 -0.9649 -0.2428
vn -1.0000 -0.0000 0.0005
vn -0.4144 -0.0000 0.9101
vn -0.5674 0.1616 0.8074
vn -0.5828 0.0755 0.8091
vn -0.0522 0.6676 -0.7427
vn 0.1846 0.7405 -0.6462
vn 0.9429 0.0059 0.3330
vn -0.3921 0.7878 -0.4750
vn -0.4891 0.7221 0.4892
vn 0.4681 0.8095 0.3545
vn 0.2318 0.9680 0.0960
vn -0.1258 0.9907 -0.0521
vn -0.5781 -0.1259 0.8062
vn -0.6720 -0.0000 0.7405
vn -0.5810 -0.1093 0.8065
vn -0.0041 0.9998 0.0179
vn 0.4682 -0.0000 0.8836
vn 0.5509 0.0120 0.8345
vn 0.5824 0.0321 0.8123
vn 0.2631 0.0017 0.9648
vn 0.3050 -0.0017 0.9523
vn 0.5824 0.0326 0.8123
vn 0.5831 -0.0331 0.8118
vn 0.7063 -0.0000 0.7079
vn 0.7159 0.0006 0.6983
vn 0.5798 0.1273 0.8048
vn 0.5798 -0.1273 0.8048
vn -0.0000 1.0000 0.0006
vn -0.0040 -0.0808 0.9967
vn 0.0058 -0.0038 1.0000
vn 0.0022 0.0035 1.0000
vn -0.0054 0.0634 0.9980
vn 0.8034 -0.1358 -0.5797
vn 0.8693 -0.3281 0.3696
vn 0.0543 0.2116 0.9758
vn -0.9383 0.2257 -0.2620
vn 0.2872 -0.7117 0.6410
vn -0.1308 -0.8234 0.5522
vn -0.0091 -0.9999 -0.0062
vn -0.0324 0.7117 -0.7017
vn 0.5170 0.1034 -0.8497
vn 0.9086 -0.0046 0.4176
vn -0.9689 -0.1617 0.1874
vn -0.1133 -0.9513 -0.2868
vn -0.0000 -0.9926 -0.1218
vn -0.0001 -0.9995 0.0313
vn -0.0832 0.7957 0.5999
vn 0.6025 0.7981 -0.0000
vn -0.2041 0.9790 -0.0000
vn 0.0724 0.9820 0.1747
vn -0.1006 0.9649 -0.2428
vn -0.3659 0.7954 -0.4831
vn -0.2942 0.8327 0.4690
vn 0.0113 0.0003 0.9999
vn 0.0068 0.0643 0.9979
vn -0.0009 0.0032 1.0000
vn -0.0049 -0.0035 1.0000
vn -0.2965 0.8028 0.5173
vn -0.0000 0.9691 0.2467
vn -0.0000 0.9999 0.0150
vn 0.0690 -0.9836 0.1666
vn -0.0960 -0.9680 -0.2318
vn -0.0758 -0.7642 -0.6406
vn 0.5816 -0.8095 0.0803
vn 0.2318 -0.9680 0.0960
vn 0.0002 0.9995 0.0307
vn -0.4140 0.2428 0.8773
vn -0.9133 -0.3699 0.1703
vn 0.0223 -0.0627 0.9978
vn -0.0000 -0.0444 0.9990
vn -0.0001 -0.0486 0.9988
vn -0.0042 -0.0265 0.9996
vn -0.0832 -0.7957 -0.5999
vn 0.6024 -0.7982 -0.0000
vn -0.2041 -0.9790 -0.0000
vn 0.8330 -0.2305 0.5029
vn 0.8984 -0.0035 0.4391
vn 0.4143 -0.0000 0.9101
vn -0.5384 -0.0000 -0.8427
vn 0.5553 -0.0066 -0.8316
vn 0.9156 -0.0019 -0.4021
vn 0.9094 0.0002 0.4160
vn 0.3488 -0.0011 0.9372
vn -0.3536 0.0001 0.9354
vn -0.9239 0.0011 0.3827
vn -0.9113 -0.0026 -0.4118
vn -0.4637 -0.0000 -0.8860
vn 0.4164 -0.0000 0.9092
vn -0.9239 0.0059 -0.3827
vn -0.3809 -0.0027 -0.9246
vn 0.3827 -0.0019 -0.9239
vn 0.9239 -0.0009 0.3827
vn 0.3827 -0.0030 0.9239
vn -0.3807 -0.0021 0.9247
vn -0.9231 -0.0000 0.3846
vn -0.9231 -0.0008 -0.3845
vn -0.4974 0.0035 -0.8675
vn 0.2797 0.0061 -0.9601
vn 0.9239 0.0043 -0.3827
vn 0.9437 0.0018 0.3307
vn 0.4128 -0.0023 0.9108
vn -0.3635 -0.0045 0.9316
vn -0.9130 -0.0038 0.4080
vn -0.9402 -0.0008 -0.3407
vn 0.8591 0.0022 0.5119
vn -0.8535 -0.0033 -0.5210
vn -0.0359 0.0072 0.9993
vn 0.0187 -0.0065 -0.9998
vn -0.7542 -0.4531 0.4753
vn 0.6774 -0.5069 0.5331
vn 0.7919 0.4293 -0.4344
vn -0.8630 -0.5030 -0.0470
vn -0.0775 0.9950 0.0635
vn 0.9616 -0.2700 -0.0495
vn -0.2372 -0.9699 -0.0551
vn -0.9324 -0.1397 -0.3334
vn 0.8507 0.1149 0.5129
vn 0.8537 0.0030 0.5208
vn -0.8535 -0.0036 -0.5210
vn -0.6991 0.0608 -0.7124
vn -0.0359 0.0069 0.9993
vn 0.8688 -0.1026 -0.4844
vn -0.5889 0.5488 -0.5933
vn -0.6293 -0.4772 0.6134
vn -0.8927 -0.4203 -0.1623
vn 0.2019 0.9538 0.2224
vn 0.9620 -0.2653 -0.0640
vn -0.8877 -0.1236 -0.4436
vn 0.8459 0.1072 0.5224
vn 0.8589 0.0022 0.5121
vn -0.8535 -0.0034 -0.5210
vn -0.0359 0.0071 0.9993
vn 0.0176 -0.0064 -0.9998
vn -0.7902 -0.3547 0.4999
vn 0.8061 -0.4187 0.4182
vn 0.0751 0.6669 -0.7413
vn -0.9100 0.0041 -0.4146
vn 0.8166 0.5771 0.0130
vn -0.8642 0.5031 0.0018
vn -0.8192 0.5735 -0.0016
vn -0.4839 0.5193 0.7044
vn -0.5959 0.4460 0.6678
vn -0.5988 0.4905 0.6331
vn -0.8337 -0.2208 0.5062
vn 0.8517 0.1062 0.5132
vn 0.0599 0.1354 -0.9890
vn -0.3699 -0.2559 0.8931
vn 0.3819 -0.2600 0.8869
vn 0.9235 -0.1057 0.3688
vn 0.9233 0.1012 -0.3704
vn 0.3811 0.2350 -0.8942
vn -0.3722 0.2329 -0.8985
vn -0.9192 0.1001 -0.3808
vn -0.9189 -0.1040 0.3806
vn 0.9130 0.1927 0.3595
vn 0.9234 -0.1689 -0.3447
vn 0.4397 -0.3784 -0.8145
vn -0.3691 -0.3585 -0.8575
vn -0.9162 -0.1689 -0.3635
vn -0.9151 0.1774 0.3621
vn -0.3464 0.4381 0.8295
vn 0.3822 0.4318 0.8170
vn -0.3824 -0.7714 0.5086
vn 0.3268 -0.7628 0.5580
vn 0.8944 -0.3642 0.2597
vn 0.9074 0.3073 -0.2867
vn 0.3494 0.6765 -0.6483
vn -0.3800 0.6763 -0.6310
vn -0.8815 0.3282 -0.3395
vn -0.9006 -0.3508 0.2566
vn 0.4821 0.5009 0.7188
vn 0.5859 0.5139 0.6266
vn -0.2117 0.9007 0.3795
vn -0.8708 0.4877 0.0614
vn -0.8439 -0.3270 0.4252
vn 0.8862 -0.1337 0.4436
vn 0.8476 0.5168 -0.1204
vn 1.0000 -0.0000 0.0005
vn -0.3813 -0.8618 0.3345
vn 0.1515 -0.3093 0.9388
vn 0.0772 -0.6916 0.7181
vn 0.0856 -0.5787 0.8110
vn -0.1413 -0.9859 -0.0897
vn 0.2420 -0.9273 0.2857
vn 0.4507 -0.6895 -0.5670
vn -0.5084 0.1868 0.8406
vn -0.0000 -1.0000 0.0006
vn -0.0000 -0.8567 0.5157
vn -0.0614 -0.7693 0.6360
vn 0.2208 -0.8791 0.4224
vn -0.0914 -0.9236 0.3723
vn -0.0517 -0.9133 0.4041
vn -0.8890 -0.4576 -0.0188
vn 0.6187 0.7855 -0.0131
vn -0.1937 0.9810 -0.0133
vn -0.0434 -0.9991 0.0030
vn 0.7897 -0.6094 0.0714
vn 0.7965 0.6046 -0.0079
vn 0.4813 0.8761 0.0279
vn -0.9798 0.1907 0.0600
vn 0.0668 -0.9977 0.0134
vn 0.8549 -0.5135 -0.0740
vn -0.0421 0.9991 -0.0024
vn -0.0078 0.0290 0.9995
vn 0.0151 -0.0106 0.9998
vn -0.0191 0.0264 0.9995
vn -0.0000 0.0156 0.9999
vn -0.0783 0.9969 0.0025
vn 0.9447 0.3281 -0.0007
vn 0.0918 -0.9957 -0.0080
vn -0.8222 -0.5689 0.0194
vn 0.6829 0.7304 -0.0084
vn 0.7060 -0.7083 0.0012
vn -0.8559 0.5121 0.0722
vn -0.9905 0.1370 0.0120
vn 0.9354 -0.3530 -0.0190
vn -0.9638 0.2665 -0.0036
vn 0.8229 0.5671 0.0361
vn 0.0776 -0.9964 0.0332
vn -0.9581 0.2864 -0.0006
vn 0.8231 0.5677 0.0143
vn 0.0777 -0.9969 0.0150
vn 0.0007 -0.0199 0.9998
vn -0.1917 -0.1158 -0.9746
vn -0.1600 0.0261 0.9868
vn 0.5399 0.0864 0.8373
vn 0.9195 0.0973 0.3809
vn 0.9235 0.0297 -0.3825
vn -0.9501 -0.1044 -0.2939
vn -0.9093 -0.0317 0.4150
vn -0.4246 -0.4958 0.7576
vn 0.3278 -0.6016 0.7284
vn 0.8833 -0.3878 0.2636
vn 0.8806 0.1683 -0.4429
vn 0.4821 0.5657 -0.6689
vn -0.3712 0.6710 -0.6419
vn -0.8296 0.4724 -0.2975
vn -0.8673 -0.1861 0.4616
vn 0.3239 0.3067 -0.8950
vn -0.3998 0.4079 -0.8208
vn -0.8509 0.3276 -0.4106
vn -0.4532 0.4310 0.7803
vn 0.3818 0.4736 0.7937
vn 0.9288 0.1628 0.3328
vn 0.9265 -0.2280 -0.2993
vn 0.4106 -0.5720 -0.7101
vn -0.2822 -0.6279 -0.7253
vn -0.8343 -0.3552 -0.4216
vn -0.9093 0.2358 0.3428
vn 0.1754 0.3808 0.9078
vn -0.4896 -0.7866 -0.3762
vn -0.6870 -0.7265 0.0134
vn -0.8637 -0.0808 0.4974
vn -0.4598 0.3869 0.7993
vn 0.2898 0.0124 0.9570
vn 0.3440 -0.8289 0.4411
vn -0.3598 -0.0025 0.9330
vn -0.6897 0.0001 0.7241
vn -0.5690 -0.1629 0.8061
vn -0.5820 -0.0919 0.8079
vn -0.3229 0.9324 -0.1622
vn -0.6672 0.2860 0.6878
vn -0.4347 -0.3304 0.8378
vn 0.4028 -0.2375 0.8839
vn 0.5399 0.8416 0.0144
vn 0.1406 0.7615 0.6328
vn 0.1683 0.7856 0.5954
vn -0.9239 -0.0019 -0.3827
vn 0.1538 -0.0159 0.9880
vn 0.8076 0.0181 0.5894
vn 0.9870 0.0450 -0.1541
vn 0.3822 0.0497 -0.9227
vn -0.1300 0.0282 -0.9911
vn -0.9875 -0.0331 0.1541
vn -0.5896 -0.0371 0.8068
vn -0.2058 -0.0468 -0.9775
vn -0.9864 0.0581 0.1535
vn -0.5881 0.0651 0.8061
vn 0.1544 0.0279 0.9876
vn 0.8073 -0.0197 0.5898
vn 0.9851 -0.0784 -0.1533
vn 0.5871 -0.0854 -0.8050
vn 0.9235 -0.0281 -0.3825
vn 0.3825 -0.0267 -0.9236
vn -0.3827 -0.0043 -0.9239
vn -0.9236 0.0254 -0.3826
vn -0.9229 0.0459 0.3823
vn -0.1452 0.0494 0.9882
vn 0.5454 0.0236 0.8379
vn 0.9239 0.0072 0.3827
vn 0.7997 0.0208 -0.6000
vn 0.3826 0.0260 -0.9236
vn -0.3827 0.0043 -0.9239
vn -0.9236 -0.0256 -0.3826
vn -0.9229 -0.0465 0.3823
vn -0.3823 -0.0458 0.9229
vn 0.3826 -0.0237 0.9236
vn 0.9765 -0.0211 -0.2145
vn 0.3826 -0.0172 -0.9237
vn -0.2699 -0.0095 -0.9628
vn -0.9089 0.0096 0.4169
vn -0.3550 0.0122 0.9348
vn 0.4173 0.0065 0.9088
vt 0.375000 0.625000
vt 0.125000 0.875000
vt 0.625000 0.625000
vt 0.125000 0.625000
vt 0.625000 0.875000
vt 0.875000 0.875000
vt 0.625000 0.375000
vt 0.875000 0.375000
vt 0.875000 0.625000
s 0
usemtl ruins_hk_ceiling_a
f 114/1/1 110/1/1 111/1/1
f 111/1/2 9/1/2 1/1/2
f 18/2/3 19/2/3 20/2/3
f 21/3/4 13/3/4 15/3/4
f 12/3/5 21/3/5 23/3/5
f 14/3/6 15/3/6 13/3/6
f 14/3/7 23/3/7 16/3/7
f 16/4/8 25/4/8 15/4/8
f 18/4/2 22/4/2 17/4/2
f 25/4/9 17/4/9 22/4/9
f 20/4/10 25/4/10 26/4/10
f 24/4/11 20/4/11 26/4/11
f 27/4/2 30/4/2 29/4/2
f 32/4/10 33/4/10 31/4/10
f 34/4/12 27/4/12 33/4/12
f 40/2/3 39/2/3 41/2/3
f 36/3/13 37/3/13 44/3/13
f 36/3/14 42/3/14 35/3/14
f 13/3/15 42/3/15 46/3/15
f 46/3/16 14/3/16 13/3/16
f 264/2/2 262/2/2 260/2/2
f 38/4/9 47/4/9 43/4/9
f 43/4/10 39/4/10 38/4/10
f 41/4/2 47/4/2 40/4/2
f 48/4/11 39/4/11 45/4/11
f 331/4/2 329/4/2 327/4/2
f 411/2/2 409/2/2 407/2/2
f 64/4/17 51/4/17 49/4/17
f 453/2/18 447/2/18 454/2/18
f 225/2/10 227/2/10 221/2/10
f 117/5/19 53/5/19 56/5/19
f 43/4/20 46/4/20 42/4/20
f 70/3/21 11/3/21 12/3/21
f 66/3/12 60/3/12 73/3/12
f 77/2/22 80/2/22 78/2/22
f 137/2/23 143/2/23 141/2/23
f 48/4/24 44/4/24 37/4/24
f 60/3/25 71/3/25 61/3/25
f 192/2/10 193/2/10 194/2/10
f 81/3/26 73/3/26 75/3/26
f 64/3/27 81/3/27 83/3/27
f 74/3/28 75/3/28 73/3/28
f 76/3/29 64/3/29 83/3/29
f 78/4/10 82/4/10 77/4/10
f 85/4/30 77/4/30 82/4/30
f 80/4/2 85/4/2 86/4/2
f 78/4/31 86/4/31 84/4/31
f 87/4/2 90/4/2 89/4/2
f 92/4/10 93/4/10 91/4/10
f 94/4/12 87/4/12 93/4/12
f 99/2/22 96/2/22 97/2/22
f 102/3/32 74/3/32 95/3/32
f 61/3/33 100/3/33 60/3/33
f 73/3/26 100/3/26 104/3/26
f 104/3/34 74/3/34 73/3/34
f 106/4/35 95/4/35 104/4/35
f 103/4/36 100/4/36 102/4/36
f 101/4/30 98/4/30 105/4/30
f 101/4/2 97/4/2 96/4/2
f 99/4/10 105/4/10 98/4/10
f 103/4/31 99/4/31 97/4/31
f 9/6/37 3/6/37 108/6/37
f 1/6/38 3/6/38 4/6/38
f 5/6/3 1/6/3 4/6/3
f 110/6/12 5/6/12 6/6/12
f 7/6/22 110/6/22 6/6/22
f 2/6/39 7/6/39 8/6/39
f 112/6/40 8/6/40 10/6/40
f 114/1/41 113/1/41 110/1/41
f 49/5/42 117/5/42 56/5/42
f 57/4/43 54/4/43 14/4/43
f 320/2/10 321/2/10 322/2/10
f 303/2/10 304/2/10 300/2/10
f 119/2/44 124/2/44 123/2/44
f 120/2/45 124/2/45 119/2/45
f 122/2/46 126/2/46 121/2/46
f 128/2/47 127/2/47 122/2/47
f 128/2/48 123/2/48 127/2/48
f 127/2/49 123/2/49 124/2/49
f 710/4/50 610/4/50 612/4/50
f 125/2/51 126/2/51 127/2/51
f 133/2/52 129/2/52 134/2/52
f 130/2/53 136/2/53 135/2/53
f 132/2/54 136/2/54 131/2/54
f 299/2/2 297/2/2 295/2/2
f 155/4/2 153/4/2 151/4/2
f 134/2/55 129/2/55 135/2/55
f 70/4/56 61/4/56 71/4/56
f 139/2/57 145/2/57 138/2/57
f 142/2/58 146/2/58 141/2/58
f 144/2/59 147/2/59 143/2/59
f 395/2/2 393/2/2 391/2/2
f 149/4/60 156/4/60 148/4/60
f 150/4/61 157/4/61 149/4/61
f 151/4/57 158/4/57 150/4/57
f 152/4/62 159/4/62 151/4/62
f 153/4/63 160/4/63 152/4/63
f 154/4/58 161/4/58 153/4/58
f 155/4/64 162/4/64 154/4/64
f 148/4/59 163/4/59 155/4/59
f 67/3/12 35/3/12 13/3/12
f 163/4/10 156/4/10 160/4/10
f 437/2/65 436/2/65 440/2/65
f 403/2/10 397/2/10 399/2/10
f 84/4/66 76/4/66 83/4/66
f 75/4/67 85/4/67 81/4/67
f 165/2/60 172/2/60 164/2/60
f 166/2/61 173/2/61 165/2/61
f 167/2/57 174/2/57 166/2/57
f 168/2/62 175/2/62 167/2/62
f 169/2/63 176/2/63 168/2/63
f 170/2/58 177/2/58 169/2/58
f 171/2/64 178/2/64 170/2/64
f 164/2/59 179/2/59 171/2/59
f 450/2/68 449/2/68 452/2/68
f 71/3/37 65/3/37 72/3/37
f 181/2/60 188/2/60 180/2/60
f 182/2/61 189/2/61 181/2/61
f 183/2/57 190/2/57 182/2/57
f 184/2/62 191/2/62 183/2/62
f 185/2/63 192/2/63 184/2/63
f 186/2/58 193/2/58 185/2/58
f 187/2/64 194/2/64 186/2/64
f 180/2/59 195/2/59 187/2/59
f 61/4/69 63/4/69 52/4/69
f 7/1/10 4/1/10 10/1/10
f 175/2/10 176/2/10 172/2/10
f 197/2/60 204/2/60 196/2/60
f 198/2/61 205/2/61 197/2/61
f 199/2/57 206/2/57 198/2/57
f 200/2/62 207/2/62 199/2/62
f 201/2/63 208/2/63 200/2/63
f 202/2/58 209/2/58 201/2/58
f 203/2/64 210/2/64 202/2/64
f 196/2/59 211/2/59 203/2/59
f 199/2/2 197/2/2 203/2/2
f 204/2/10 205/2/10 206/2/10
f 213/2/60 220/2/60 212/2/60
f 214/2/61 221/2/61 213/2/61
f 215/2/57 222/2/57 214/2/57
f 216/2/62 223/2/62 215/2/62
f 216/2/63 225/2/63 224/2/63
f 218/2/58 225/2/58 217/2/58
f 219/2/64 226/2/64 218/2/64
f 212/2/59 227/2/59 219/2/59
f 216/2/2 214/2/2 212/2/2
f 229/2/60 236/2/60 228/2/60
f 230/2/61 237/2/61 229/2/61
f 231/2/57 238/2/57 230/2/57
f 232/2/62 239/2/62 231/2/62
f 232/2/63 241/2/63 240/2/63
f 234/2/58 241/2/58 233/2/58
f 235/2/64 242/2/64 234/2/64
f 228/2/59 243/2/59 235/2/59
f 235/2/2 234/2/2 230/2/2
f 240/2/10 241/2/10 242/2/10
f 245/2/60 252/2/60 244/2/60
f 246/2/61 253/2/61 245/2/61
f 247/2/57 254/2/57 246/2/57
f 248/2/62 255/2/62 247/2/62
f 249/2/63 256/2/63 248/2/63
f 250/2/58 257/2/58 249/2/58
f 251/2/64 258/2/64 250/2/64
f 244/2/59 259/2/59 251/2/59
f 251/2/2 249/2/2 247/2/2
f 256/2/10 257/2/10 258/2/10
f 261/2/60 268/2/60 260/2/60
f 262/2/61 269/2/61 261/2/61
f 263/2/57 270/2/57 262/2/57
f 264/2/62 271/2/62 263/2/62
f 265/2/63 272/2/63 264/2/63
f 266/2/58 273/2/58 265/2/58
f 267/2/64 274/2/64 266/2/64
f 260/2/59 275/2/59 267/2/59
f 268/2/10 270/2/10 272/2/10
f 665/2/70 667/2/70 669/2/70
f 277/2/60 284/2/60 276/2/60
f 278/2/61 285/2/61 277/2/61
f 279/2/57 286/2/57 278/2/57
f 280/2/62 287/2/62 279/2/62
f 281/2/63 288/2/63 280/2/63
f 282/2/58 289/2/58 281/2/58
f 283/2/64 290/2/64 282/2/64
f 276/2/59 291/2/59 283/2/59
f 117/5/71 118/5/71 116/5/71
f 284/2/10 285/2/10 286/2/10
f 293/2/60 300/2/60 292/2/60
f 294/2/61 301/2/61 293/2/61
f 295/2/57 302/2/57 294/2/57
f 296/2/62 303/2/62 295/2/62
f 297/2/63 304/2/63 296/2/63
f 298/2/58 305/2/58 297/2/58
f 299/2/64 306/2/64 298/2/64
f 292/2/59 307/2/59 299/2/59
f 315/2/2 313/2/2 311/2/2
f 309/2/60 316/2/60 308/2/60
f 310/2/61 317/2/61 309/2/61
f 311/2/57 318/2/57 310/2/57
f 312/2/62 319/2/62 311/2/62
f 313/2/63 320/2/63 312/2/63
f 314/2/58 321/2/58 313/2/58
f 315/2/64 322/2/64 314/2/64
f 308/2/59 323/2/59 315/2/59
f 325/4/60 332/4/60 324/4/60
f 326/4/61 333/4/61 325/4/61
f 327/4/57 334/4/57 326/4/57
f 328/4/62 335/4/62 327/4/62
f 329/4/63 336/4/63 328/4/63
f 330/4/58 337/4/58 329/4/58
f 331/4/64 338/4/64 330/4/64
f 324/4/59 339/4/59 331/4/59
f 363/2/2 362/2/2 361/2/2
f 339/4/10 333/4/10 335/4/10
f 341/2/60 348/2/60 340/2/60
f 342/2/61 349/2/61 341/2/61
f 343/2/57 350/2/57 342/2/57
f 344/2/62 351/2/62 343/2/62
f 345/2/63 352/2/63 344/2/63
f 346/2/58 353/2/58 345/2/58
f 347/2/64 354/2/64 346/2/64
f 340/2/59 355/2/59 347/2/59
f 347/2/2 345/2/2 343/2/2
f 352/2/10 353/2/10 354/2/10
f 357/2/60 364/2/60 356/2/60
f 358/2/61 365/2/61 357/2/61
f 359/2/57 366/2/57 358/2/57
f 360/2/62 367/2/62 359/2/62
f 361/2/63 368/2/63 360/2/63
f 362/2/58 369/2/58 361/2/58
f 363/2/64 370/2/64 362/2/64
f 356/2/59 371/2/59 363/2/59
f 368/2/10 370/2/10 364/2/10
f 373/2/60 380/2/60 372/2/60
f 374/2/61 381/2/61 373/2/61
f 375/2/57 382/2/57 374/2/57
f 376/2/62 383/2/62 375/2/62
f 377/2/63 384/2/63 376/2/63
f 378/2/58 385/2/58 377/2/58
f 379/2/64 386/2/64 378/2/64
f 372/2/59 387/2/59 379/2/59
f 375/2/2 373/2/2 379/2/2
f 70/4/12 72/4/12 69/4/12
f 384/2/10 385/2/10 386/2/10
f 389/2/60 396/2/60 388/2/60
f 390/2/61 397/2/61 389/2/61
f 391/2/57 398/2/57 390/2/57
f 392/2/62 399/2/62 391/2/62
f 393/2/63 400/2/63 392/2/63
f 394/2/58 401/2/58 393/2/58
f 395/2/64 402/2/64 394/2/64
f 388/2/59 403/2/59 395/2/59
f 146/2/72 142/2/72 145/2/72
f 68/3/40 69/3/40 67/3/40
f 405/2/60 412/2/60 404/2/60
f 406/2/61 413/2/61 405/2/61
f 407/2/57 414/2/57 406/2/57
f 408/2/62 415/2/62 407/2/62
f 409/2/63 416/2/63 408/2/63
f 410/2/58 417/2/58 409/2/58
f 411/2/64 418/2/64 410/2/64
f 404/2/59 419/2/59 411/2/59
f 416/2/10 417/2/10 418/2/10
f 421/4/60 428/4/60 420/4/60
f 422/4/61 429/4/61 421/4/61
f 423/4/57 430/4/57 422/4/57
f 424/4/62 431/4/62 423/4/62
f 425/4/63 432/4/63 424/4/63
f 426/4/58 433/4/58 425/4/58
f 427/4/64 434/4/64 426/4/64
f 420/4/59 435/4/59 427/4/59
f 72/4/73 36/4/73 69/4/73
f 435/4/10 428/4/10 432/4/10
f 437/2/74 443/2/74 436/2/74
f 439/2/57 444/2/57 438/2/57
f 441/2/63 445/2/63 440/2/63
f 436/2/75 443/2/75 442/2/75
f 441/2/76 446/2/76 444/2/76
f 449/2/57 454/2/57 448/2/57
f 451/2/77 455/2/77 450/2/77
f 453/2/59 456/2/59 452/2/59
f 170/2/2 169/2/2 168/2/2
f 422/4/2 421/4/2 420/4/2
f 187/2/2 185/2/2 183/2/2
f 458/6/60 789/6/60 457/6/60
f 459/6/61 788/6/61 458/6/61
f 460/6/57 787/6/57 459/6/57
f 461/6/62 786/6/62 460/6/62
f 462/6/78 785/6/78 461/6/78
f 463/6/58 792/6/58 462/6/58
f 464/6/64 791/6/64 463/6/64
f 457/6/59 790/6/59 464/6/59
f 474/6/60 481/6/60 473/6/60
f 475/6/61 482/6/61 474/6/61
f 476/6/57 483/6/57 475/6/57
f 477/6/62 484/6/62 476/6/62
f 478/6/63 485/6/63 477/6/63
f 479/6/58 486/6/58 478/6/58
f 480/6/64 487/6/64 479/6/64
f 473/6/59 488/6/59 480/6/59
f 490/1/79 736/1/79 489/1/79
f 491/1/61 712/1/61 490/1/61
f 492/1/80 734/1/80 491/1/80
f 493/1/81 733/1/81 492/1/81
f 494/1/82 732/1/82 493/1/82
f 495/1/83 731/1/83 494/1/83
f 495/1/84 737/1/84 711/1/84
f 489/1/85 737/1/85 496/1/85
f 506/7/86 769/7/86 505/7/86
f 506/7/61 784/7/61 779/7/61
f 508/7/57 784/7/57 507/7/57
f 509/7/87 783/7/87 508/7/87
f 511/7/58 782/7/58 510/7/58
f 512/7/64 781/7/64 511/7/64
f 512/7/88 769/7/88 780/7/88
f 522/8/89 644/8/89 521/8/89
f 522/8/90 642/8/90 643/8/90
f 523/8/91 641/8/91 642/8/91
f 524/8/92 640/8/92 641/8/92
f 525/8/93 647/8/93 640/8/93
f 527/8/94 647/8/94 526/8/94
f 528/8/95 646/8/95 527/8/95
f 521/8/59 645/8/59 528/8/59
f 538/1/96 545/1/96 537/1/96
f 539/1/97 803/1/97 538/1/97
f 539/1/98 801/1/98 802/1/98
f 541/1/99 801/1/99 540/1/99
f 542/1/100 800/1/100 541/1/100
f 543/1/101 806/1/101 542/1/101
f 544/1/102 805/1/102 543/1/102
f 537/1/103 804/1/103 544/1/103
f 552/9/104 574/9/104 572/9/104
f 553/9/105 574/9/105 552/9/105
f 554/9/106 573/9/106 553/9/106
f 554/9/107 572/9/107 573/9/107
f 558/9/108 555/9/108 557/9/108
f 558/9/109 557/9/109 559/9/109
f 559/9/110 556/9/110 560/9/110
f 560/9/111 556/9/111 555/9/111
f 561/9/112 558/9/112 562/9/112
f 562/9/113 559/9/113 563/9/113
f 564/9/114 559/9/114 560/9/114
f 561/9/115 560/9/115 558/9/115
f 570/9/116 565/9/116 566/9/116
f 571/9/117 566/9/117 567/9/117
f 571/9/118 568/9/118 569/9/118
f 572/9/119 570/9/119 573/9/119
f 573/9/120 570/9/120 571/9/120
f 574/9/121 571/9/121 569/9/121
f 574/9/122 569/9/122 572/9/122
f 575/2/123 597/2/123 595/2/123
f 576/2/124 597/2/124 575/2/124
f 577/2/106 596/2/106 576/2/106
f 577/2/125 595/2/125 596/2/125
f 582/2/126 578/2/126 580/2/126
f 582/2/127 580/2/127 583/2/127
f 583/2/128 579/2/128 584/2/128
f 584/2/129 579/2/129 585/2/129
f 581/2/130 579/2/130 578/2/130
f 587/2/131 581/2/131 582/2/131
f 585/2/132 581/2/132 586/2/132
f 593/2/133 588/2/133 589/2/133
f 593/2/134 590/2/134 594/2/134
f 594/2/135 591/2/135 592/2/135
f 592/2/136 591/2/136 588/2/136
f 595/2/137 593/2/137 596/2/137
f 596/2/138 593/2/138 594/2/138
f 597/2/139 594/2/139 592/2/139
f 597/2/140 592/2/140 595/2/140
f 598/4/141 615/4/141 613/4/141
f 599/4/142 615/4/142 598/4/142
f 600/4/143 614/4/143 599/4/143
f 600/4/144 613/4/144 614/4/144
f 604/4/145 601/4/145 603/4/145
f 604/4/146 603/4/146 605/4/146
f 605/4/147 602/4/147 606/4/147
f 606/4/148 602/4/148 601/4/148
f 607/4/149 605/4/149 608/4/149
f 609/4/150 605/4/150 606/4/150
f 607/4/151 606/4/151 604/4/151
f 611/4/152 710/4/152 612/4/152
f 655/8/153 663/8/153 654/8/153
f 613/4/154 611/4/154 614/4/154
f 615/4/155 611/4/155 612/4/155
f 615/4/156 610/4/156 613/4/156
f 616/8/58 534/8/58 617/8/58
f 618/8/63 534/8/63 533/8/63
f 618/8/62 532/8/62 619/8/62
f 619/8/57 531/8/57 620/8/57
f 620/8/61 530/8/61 621/8/61
f 622/8/60 530/8/60 529/8/60
f 622/8/59 536/8/59 623/8/59
f 623/8/64 535/8/64 616/8/64
f 632/8/157 617/8/157 633/8/157
f 634/8/158 617/8/158 618/8/158
f 635/8/159 618/8/159 619/8/159
f 636/8/160 619/8/160 620/8/160
f 637/8/161 620/8/161 621/8/161
f 637/8/162 622/8/162 638/8/162
f 638/8/163 623/8/163 639/8/163
f 639/8/164 616/8/164 632/8/164
f 641/8/165 628/8/165 629/8/165
f 641/8/166 630/8/166 642/8/166
f 642/8/167 631/8/167 643/8/167
f 644/8/168 631/8/168 624/8/168
f 645/8/169 624/8/169 625/8/169
f 646/8/170 625/8/170 626/8/170
f 646/8/171 627/8/171 647/8/171
f 647/8/172 628/8/172 640/8/172
f 633/8/173 648/8/173 632/8/173
f 633/8/174 650/8/174 649/8/174
f 634/8/175 651/8/175 650/8/175
f 635/8/176 652/8/176 651/8/176
f 636/8/177 653/8/177 652/8/177
f 638/8/178 653/8/178 637/8/178
f 639/8/179 654/8/179 638/8/179
f 632/8/180 655/8/180 639/8/180
f 648/8/181 657/8/181 656/8/181
f 650/8/182 657/8/182 649/8/182
f 650/8/183 659/8/183 658/8/183
f 652/8/184 659/8/184 651/8/184
f 653/8/185 660/8/185 652/8/185
f 653/8/186 662/8/186 661/8/186
f 35/3/187 69/3/187 36/3/187
f 656/8/188 665/8/188 664/8/188
f 658/8/189 665/8/189 657/8/189
f 659/8/190 666/8/190 658/8/190
f 659/8/191 668/8/191 667/8/191
f 661/8/192 668/8/192 660/8/192
f 661/8/193 670/8/193 669/8/193
f 663/8/194 670/8/194 662/8/194
f 663/8/195 664/8/195 671/8/195
f 62/5/196 115/5/196 49/5/196
f 625/8/197 672/8/197 673/8/197
f 626/8/198 673/8/198 674/8/198
f 626/8/199 680/8/199 627/8/199
f 627/8/200 681/8/200 628/8/200
f 629/8/201 681/8/201 675/8/201
f 629/8/202 676/8/202 630/8/202
f 630/8/203 684/8/203 631/8/203
f 624/8/204 684/8/204 672/8/204
f 672/8/205 678/8/205 673/8/205
f 673/8/206 679/8/206 674/8/206
f 681/8/207 682/8/207 675/8/207
f 676/8/208 682/8/208 683/8/208
f 684/8/209 677/8/209 672/8/209
f 53/5/210 118/5/210 62/5/210
f 279/2/2 277/2/2 283/2/2
f 679/2/211 678/2/211 682/2/211
f 562/9/212 699/9/212 561/9/212
f 563/9/213 699/9/213 562/9/213
f 563/9/214 698/9/214 686/9/214
f 563/9/215 564/9/215 698/9/215
f 587/2/216 689/2/216 586/2/216
f 584/2/217 701/2/217 700/2/217
f 608/4/218 697/4/218 607/4/218
f 687/9/219 688/9/219 685/9/219
f 697/4/220 692/4/220 695/4/220
f 695/4/221 694/4/221 609/4/221
f 696/4/222 694/4/222 693/4/222
f 698/9/223 688/9/223 687/9/223
f 698/9/224 687/9/224 686/9/224
f 700/2/225 690/2/225 583/2/225
f 583/2/226 690/2/226 587/2/226
f 701/2/227 689/2/227 691/2/227
f 566/9/228 702/9/228 703/9/228
f 566/9/229 703/9/229 567/9/229
f 567/9/230 704/9/230 568/9/230
f 568/9/231 702/9/231 565/9/231
f 589/2/232 705/2/232 706/2/232
f 589/2/233 706/2/233 590/2/233
f 590/2/234 707/2/234 591/2/234
f 591/2/235 705/2/235 588/2/235
f 705/2/236 707/2/236 706/2/236
f 712/1/237 734/1/237 735/1/237
f 713/1/238 763/1/238 756/1/238
f 714/1/239 756/1/239 757/1/239
f 714/1/240 758/1/240 715/1/240
f 715/1/241 759/1/241 716/1/241
f 716/1/242 760/1/242 717/1/242
f 717/1/243 761/1/243 718/1/243
f 719/1/244 761/1/244 762/1/244
f 727/1/245 762/1/245 763/1/245
f 745/1/246 713/1/246 720/1/246
f 720/1/247 714/1/247 721/1/247
f 721/1/248 715/1/248 722/1/248
f 723/1/249 715/1/249 728/1/249
f 746/1/250 728/1/250 729/1/250
f 746/1/251 730/1/251 724/1/251
f 725/1/252 730/1/252 719/1/252
f 725/1/253 727/1/253 745/1/253
f 728/1/254 715/1/254 716/1/254
f 729/1/255 716/1/255 717/1/255
f 730/1/256 717/1/256 718/1/256
f 711/1/257 738/1/257 731/1/257
f 732/1/258 738/1/258 739/1/258
f 733/1/259 739/1/259 740/1/259
f 733/1/260 741/1/260 734/1/260
f 734/1/261 742/1/261 735/1/261
f 735/1/262 743/1/262 736/1/262
f 736/1/263 744/1/263 737/1/263
f 737/1/264 726/1/264 711/1/264
f 745/1/265 747/1/265 725/1/265
f 738/1/266 726/1/266 748/1/266
f 739/1/267 749/1/267 740/1/267
f 741/1/268 749/1/268 750/1/268
f 742/1/269 751/1/269 743/1/269
f 743/1/270 751/1/270 744/1/270
f 24/4/271 26/4/271 23/4/271
f 720/1/272 752/1/272 745/1/272
f 720/1/273 753/1/273 752/1/273
f 722/1/274 753/1/274 721/1/274
f 723/1/275 753/1/275 722/1/275
f 746/1/276 755/1/276 754/1/276
f 724/1/277 747/1/277 755/1/277
f 747/2/278 752/2/278 753/2/278
f 756/1/279 501/1/279 757/1/279
f 758/1/280 501/1/280 500/1/280
f 759/1/281 500/1/281 499/1/281
f 760/1/282 499/1/282 498/1/282
f 761/1/283 498/1/283 497/1/283
f 761/1/284 504/1/284 762/1/284
f 762/1/285 503/1/285 763/1/285
f 763/1/286 502/1/286 756/1/286
f 765/7/63 518/7/63 517/7/63
f 765/7/62 516/7/62 766/7/62
f 766/7/57 515/7/57 767/7/57
f 767/7/61 514/7/61 768/7/61
f 768/7/287 513/7/287 769/7/287
f 769/7/88 520/7/88 770/7/88
f 770/7/64 519/7/64 771/7/64
f 771/7/58 518/7/58 764/7/58
f 773/7/288 764/7/288 765/7/288
f 774/7/289 765/7/289 766/7/289
f 775/7/290 766/7/290 767/7/290
f 775/7/291 768/7/291 776/7/291
f 769/7/292 770/7/292 777/7/292
f 778/7/293 770/7/293 771/7/293
f 772/7/294 771/7/294 764/7/294
f 780/7/295 769/7/295 777/7/295
f 780/7/296 778/7/296 781/7/296
f 781/7/297 772/7/297 782/7/297
f 782/7/298 773/7/298 509/7/298
f 509/7/299 774/7/299 783/7/299
f 783/7/300 775/7/300 784/7/300
f 784/7/301 776/7/301 779/7/301
f 785/6/302 793/6/302 786/6/302
f 787/6/303 793/6/303 794/6/303
f 788/6/304 794/6/304 795/6/304
f 789/6/305 795/6/305 796/6/305
f 790/6/306 796/6/306 797/6/306
f 791/6/307 797/6/307 798/6/307
f 791/6/308 799/6/308 792/6/308
f 785/6/309 468/6/309 793/6/309
f 794/6/310 468/6/310 467/6/310
f 794/6/311 466/6/311 795/6/311
f 795/6/312 465/6/312 796/6/312
f 796/6/313 472/6/313 797/6/313
f 797/6/314 471/6/314 798/6/314
f 798/6/315 470/6/315 799/6/315
f 799/6/316 469/6/316 785/6/316
f 801/1/317 547/1/317 802/1/317
f 802/1/318 546/1/318 803/1/318
f 805/1/319 551/1/319 550/1/319
f 806/1/320 550/1/320 549/1/320
f 800/1/321 549/1/321 548/1/321
f 109/1/12 110/1/12 113/1/12
f 1/1/2 109/1/2 113/1/2
f 1/1/2 113/1/2 111/1/2
f 113/1/322 114/1/322 111/1/322
f 9/1/2 108/1/2 1/1/2
f 2/1/2 112/1/2 111/1/2
f 112/1/2 9/1/2 111/1/2
f 18/2/3 17/2/3 19/2/3
f 21/3/323 11/3/323 13/3/323
f 12/3/324 11/3/324 21/3/324
f 14/3/325 16/3/325 15/3/325
f 14/3/326 12/3/326 23/3/326
f 16/4/327 26/4/327 25/4/327
f 748/2/328 726/2/328 751/2/328
f 751/2/329 750/2/329 748/2/329
f 750/2/330 749/2/330 748/2/330
f 18/4/2 24/4/2 22/4/2
f 25/4/9 19/4/9 17/4/9
f 20/4/10 19/4/10 25/4/10
f 24/4/11 18/4/11 20/4/11
f 27/4/2 28/4/2 30/4/2
f 32/4/10 34/4/10 33/4/10
f 34/4/12 28/4/12 27/4/12
f 40/2/3 38/2/3 39/2/3
f 36/3/331 14/3/331 37/3/331
f 36/3/332 44/3/332 42/3/332
f 13/3/323 35/3/323 42/3/323
f 46/3/333 37/3/333 14/3/333
f 266/2/2 265/2/2 264/2/2
f 264/2/2 263/2/2 262/2/2
f 262/2/2 261/2/2 260/2/2
f 260/2/2 267/2/2 266/2/2
f 266/2/2 264/2/2 260/2/2
f 38/4/9 40/4/9 47/4/9
f 43/4/10 45/4/10 39/4/10
f 41/4/2 48/4/2 47/4/2
f 48/4/11 41/4/11 39/4/11
f 331/4/2 330/4/2 329/4/2
f 329/4/2 328/4/2 327/4/2
f 327/4/2 326/4/2 331/4/2
f 326/4/2 325/4/2 331/4/2
f 325/4/2 324/4/2 331/4/2
f 405/2/2 404/2/2 411/2/2
f 411/2/2 410/2/2 409/2/2
f 409/2/2 408/2/2 407/2/2
f 407/2/2 406/2/2 405/2/2
f 405/2/2 411/2/2 407/2/2
f 56/4/334 53/4/334 57/4/334
f 53/4/335 54/4/335 57/4/335
f 61/4/336 62/4/336 63/4/336
f 56/4/337 57/4/337 58/4/337
f 52/4/338 63/4/338 62/4/338
f 49/4/339 56/4/339 36/4/339
f 56/4/340 58/4/340 36/4/340
f 52/4/341 62/4/341 50/4/341
f 62/4/342 49/4/342 50/4/342
f 49/4/343 36/4/343 64/4/343
f 51/4/344 50/4/344 49/4/344
f 454/2/345 449/2/345 455/2/345
f 455/2/346 451/2/346 454/2/346
f 451/2/347 456/2/347 454/2/347
f 456/2/348 453/2/348 454/2/348
f 223/2/10 224/2/10 225/2/10
f 225/2/10 226/2/10 227/2/10
f 227/2/10 220/2/10 221/2/10
f 221/2/10 222/2/10 223/2/10
f 223/2/10 225/2/10 221/2/10
f 117/5/349 116/5/349 53/5/349
f 43/4/350 47/4/350 46/4/350
f 42/4/351 44/4/351 43/4/351
f 44/4/352 45/4/352 43/4/352
f 70/3/10 68/3/10 11/3/10
f 128/2/353 121/2/353 120/2/353
f 120/2/354 119/2/354 128/2/354
f 59/3/12 65/3/12 73/3/12
f 65/3/12 66/3/12 73/3/12
f 548/1/355 801/1/355 800/1/355
f 77/2/22 79/2/22 80/2/22
f 137/2/356 144/2/356 143/2/356
f 143/2/357 142/2/357 141/2/357
f 141/2/358 140/2/358 139/2/358
f 139/2/359 138/2/359 141/2/359
f 138/2/360 137/2/360 141/2/360
f 37/4/361 46/4/361 47/4/361
f 48/4/362 45/4/362 44/4/362
f 37/4/363 47/4/363 48/4/363
f 65/3/2 59/3/2 72/3/2
f 59/3/364 64/3/364 72/3/364
f 66/3/10 71/3/10 60/3/10
f 194/2/10 195/2/10 190/2/10
f 195/2/10 188/2/10 190/2/10
f 188/2/10 189/2/10 190/2/10
f 190/2/10 191/2/10 194/2/10
f 191/2/10 192/2/10 194/2/10
f 81/3/365 59/3/365 73/3/365
f 64/3/366 59/3/366 81/3/366
f 74/3/367 76/3/367 75/3/367
f 76/3/368 74/3/368 64/3/368
f 78/4/10 84/4/10 82/4/10
f 85/4/30 79/4/30 77/4/30
f 80/4/2 79/4/2 85/4/2
f 78/4/31 80/4/31 86/4/31
f 87/4/2 88/4/2 90/4/2
f 92/4/10 94/4/10 93/4/10
f 94/4/12 88/4/12 87/4/12
f 99/2/22 98/2/22 96/2/22
f 102/3/369 61/3/369 74/3/369
f 61/3/370 102/3/370 100/3/370
f 73/3/365 60/3/365 100/3/365
f 104/3/371 95/3/371 74/3/371
f 106/4/372 103/4/372 102/4/372
f 104/4/67 100/4/67 105/4/67
f 100/4/67 101/4/67 105/4/67
f 106/4/373 102/4/373 95/4/373
f 104/4/374 105/4/374 106/4/374
f 103/4/375 101/4/375 100/4/375
f 101/4/30 96/4/30 98/4/30
f 101/4/2 103/4/2 97/4/2
f 99/4/10 106/4/10 105/4/10
f 103/4/31 106/4/31 99/4/31
f 9/6/37 107/6/37 3/6/37
f 1/6/38 108/6/38 3/6/38
f 5/6/3 109/6/3 1/6/3
f 110/6/12 109/6/12 5/6/12
f 7/6/22 111/6/22 110/6/22
f 2/6/39 111/6/39 7/6/39
f 112/6/40 2/6/40 8/6/40
f 49/5/376 115/5/376 117/5/376
f 55/4/377 12/4/377 54/4/377
f 12/4/378 14/4/378 54/4/378
f 14/4/379 36/4/379 57/4/379
f 36/4/380 58/4/380 57/4/380
f 322/2/10 323/2/10 318/2/10
f 323/2/10 316/2/10 318/2/10
f 316/2/10 317/2/10 318/2/10
f 318/2/10 319/2/10 322/2/10
f 319/2/10 320/2/10 322/2/10
f 304/2/10 305/2/10 306/2/10
f 306/2/10 307/2/10 304/2/10
f 307/2/10 300/2/10 304/2/10
f 300/2/10 301/2/10 302/2/10
f 302/2/10 303/2/10 300/2/10
f 121/2/381 125/2/381 120/2/381
f 121/2/382 126/2/382 125/2/382
f 122/2/383 127/2/383 126/2/383
f 128/2/384 119/2/384 123/2/384
f 124/2/385 120/2/385 127/2/385
f 120/2/386 125/2/386 127/2/386
f 710/4/387 708/4/387 610/4/387
f 122/2/388 121/2/388 128/2/388
f 130/2/389 135/2/389 129/2/389
f 130/2/390 131/2/390 136/2/390
f 133/2/391 134/2/391 132/2/391
f 293/2/2 292/2/2 299/2/2
f 299/2/2 298/2/2 297/2/2
f 297/2/2 296/2/2 295/2/2
f 295/2/2 294/2/2 293/2/2
f 293/2/2 299/2/2 295/2/2
f 155/4/2 154/4/2 153/4/2
f 153/4/2 152/4/2 151/4/2
f 151/4/2 150/4/2 155/4/2
f 150/4/2 149/4/2 155/4/2
f 149/4/2 148/4/2 155/4/2
f 136/2/392 132/2/392 135/2/392
f 132/2/393 134/2/393 135/2/393
f 70/4/394 12/4/394 61/4/394
f 138/2/61 145/2/61 137/2/61
f 141/2/63 146/2/63 140/2/63
f 143/2/64 147/2/64 142/2/64
f 389/2/2 388/2/2 395/2/2
f 395/2/2 394/2/2 393/2/2
f 393/2/2 392/2/2 391/2/2
f 391/2/2 390/2/2 389/2/2
f 389/2/2 395/2/2 391/2/2
f 149/4/60 157/4/60 156/4/60
f 150/4/61 158/4/61 157/4/61
f 151/4/57 159/4/57 158/4/57
f 152/4/62 160/4/62 159/4/62
f 153/4/63 161/4/63 160/4/63
f 154/4/58 162/4/58 161/4/58
f 155/4/64 163/4/64 162/4/64
f 148/4/59 156/4/59 163/4/59
f 13/3/12 11/3/12 68/3/12
f 68/3/12 67/3/12 13/3/12
f 156/4/10 157/4/10 158/4/10
f 158/4/10 159/4/10 156/4/10
f 159/4/10 160/4/10 156/4/10
f 160/4/10 161/4/10 162/4/10
f 162/4/10 163/4/10 160/4/10
f 436/2/2 442/2/2 440/2/2
f 442/2/395 441/2/395 440/2/395
f 440/2/396 439/2/396 438/2/396
f 438/2/397 437/2/397 440/2/397
f 401/2/10 402/2/10 403/2/10
f 403/2/10 396/2/10 397/2/10
f 397/2/10 398/2/10 399/2/10
f 399/2/10 400/2/10 401/2/10
f 401/2/10 403/2/10 399/2/10
f 84/4/372 86/4/372 76/4/372
f 83/4/35 81/4/35 84/4/35
f 81/4/374 82/4/374 84/4/374
f 75/4/36 76/4/36 86/4/36
f 85/4/67 82/4/67 81/4/67
f 75/4/375 86/4/375 85/4/375
f 165/2/60 173/2/60 172/2/60
f 166/2/61 174/2/61 173/2/61
f 167/2/57 175/2/57 174/2/57
f 168/2/62 176/2/62 175/2/62
f 169/2/63 177/2/63 176/2/63
f 170/2/58 178/2/58 177/2/58
f 171/2/64 179/2/64 178/2/64
f 164/2/59 172/2/59 179/2/59
f 449/2/398 448/2/398 452/2/398
f 448/2/399 447/2/399 452/2/399
f 447/2/400 453/2/400 452/2/400
f 452/2/401 451/2/401 450/2/401
f 71/3/37 66/3/37 65/3/37
f 181/2/60 189/2/60 188/2/60
f 182/2/61 190/2/61 189/2/61
f 183/2/57 191/2/57 190/2/57
f 184/2/62 192/2/62 191/2/62
f 185/2/63 193/2/63 192/2/63
f 186/2/58 194/2/58 193/2/58
f 187/2/64 195/2/64 194/2/64
f 180/2/59 188/2/59 195/2/59
f 52/4/402 50/4/402 74/4/402
f 50/4/403 51/4/403 64/4/403
f 74/4/404 50/4/404 64/4/404
f 74/4/405 61/4/405 52/4/405
f 7/1/10 6/1/10 5/1/10
f 4/1/10 3/1/10 107/1/10
f 7/1/10 5/1/10 4/1/10
f 10/1/10 8/1/10 7/1/10
f 4/1/10 107/1/10 10/1/10
f 176/2/10 177/2/10 178/2/10
f 178/2/10 179/2/10 176/2/10
f 179/2/10 172/2/10 176/2/10
f 172/2/10 173/2/10 174/2/10
f 174/2/10 175/2/10 172/2/10
f 197/2/60 205/2/60 204/2/60
f 198/2/61 206/2/61 205/2/61
f 199/2/57 207/2/57 206/2/57
f 200/2/62 208/2/62 207/2/62
f 201/2/63 209/2/63 208/2/63
f 202/2/58 210/2/58 209/2/58
f 203/2/64 211/2/64 210/2/64
f 196/2/59 204/2/59 211/2/59
f 201/2/2 200/2/2 199/2/2
f 199/2/2 198/2/2 197/2/2
f 197/2/2 196/2/2 203/2/2
f 203/2/2 202/2/2 201/2/2
f 201/2/2 199/2/2 203/2/2
f 206/2/10 207/2/10 210/2/10
f 207/2/10 208/2/10 210/2/10
f 208/2/10 209/2/10 210/2/10
f 210/2/10 211/2/10 206/2/10
f 211/2/10 204/2/10 206/2/10
f 213/2/60 221/2/60 220/2/60
f 214/2/61 222/2/61 221/2/61
f 215/2/57 223/2/57 222/2/57
f 216/2/62 224/2/62 223/2/62
f 216/2/63 217/2/63 225/2/63
f 218/2/58 226/2/58 225/2/58
f 219/2/64 227/2/64 226/2/64
f 212/2/59 220/2/59 227/2/59
f 212/2/2 219/2/2 218/2/2
f 218/2/2 217/2/2 216/2/2
f 216/2/2 215/2/2 214/2/2
f 214/2/2 213/2/2 212/2/2
f 212/2/2 218/2/2 216/2/2
f 229/2/60 237/2/60 236/2/60
f 230/2/61 238/2/61 237/2/61
f 231/2/57 239/2/57 238/2/57
f 232/2/62 240/2/62 239/2/62
f 232/2/63 233/2/63 241/2/63
f 234/2/58 242/2/58 241/2/58
f 235/2/64 243/2/64 242/2/64
f 228/2/59 236/2/59 243/2/59
f 234/2/2 233/2/2 232/2/2
f 232/2/2 231/2/2 234/2/2
f 231/2/2 230/2/2 234/2/2
f 230/2/2 229/2/2 228/2/2
f 228/2/2 235/2/2 230/2/2
f 242/2/10 243/2/10 238/2/10
f 243/2/10 236/2/10 238/2/10
f 236/2/10 237/2/10 238/2/10
f 238/2/10 239/2/10 242/2/10
f 239/2/10 240/2/10 242/2/10
f 245/2/60 253/2/60 252/2/60
f 246/2/61 254/2/61 253/2/61
f 247/2/57 255/2/57 254/2/57
f 248/2/62 256/2/62 255/2/62
f 249/2/63 257/2/63 256/2/63
f 250/2/58 258/2/58 257/2/58
f 251/2/64 259/2/64 258/2/64
f 244/2/59 252/2/59 259/2/59
f 245/2/2 244/2/2 251/2/2
f 251/2/2 250/2/2 249/2/2
f 249/2/2 248/2/2 247/2/2
f 247/2/2 246/2/2 245/2/2
f 245/2/2 251/2/2 247/2/2
f 258/2/10 259/2/10 254/2/10
f 259/2/10 252/2/10 254/2/10
f 252/2/10 253/2/10 254/2/10
f 254/2/10 255/2/10 258/2/10
f 255/2/10 256/2/10 258/2/10
f 261/2/60 269/2/60 268/2/60
f 262/2/61 270/2/61 269/2/61
f 263/2/57 271/2/57 270/2/57
f 264/2/62 272/2/62 271/2/62
f 265/2/63 273/2/63 272/2/63
f 266/2/58 274/2/58 273/2/58
f 267/2/64 275/2/64 274/2/64
f 260/2/59 268/2/59 275/2/59
f 274/2/10 275/2/10 268/2/10
f 268/2/10 269/2/10 270/2/10
f 270/2/10 271/2/10 272/2/10
f 272/2/10 273/2/10 274/2/10
f 274/2/10 268/2/10 272/2/10
f 669/2/70 670/2/70 665/2/70
f 670/2/70 671/2/70 665/2/70
f 671/2/70 664/2/70 665/2/70
f 665/2/70 666/2/70 667/2/70
f 667/2/70 668/2/70 669/2/70
f 277/2/60 285/2/60 284/2/60
f 278/2/61 286/2/61 285/2/61
f 279/2/57 287/2/57 286/2/57
f 280/2/62 288/2/62 287/2/62
f 281/2/63 289/2/63 288/2/63
f 282/2/58 290/2/58 289/2/58
f 283/2/64 291/2/64 290/2/64
f 276/2/59 284/2/59 291/2/59
f 117/5/71 115/5/71 118/5/71
f 286/2/10 287/2/10 290/2/10
f 287/2/10 288/2/10 290/2/10
f 288/2/10 289/2/10 290/2/10
f 290/2/10 291/2/10 286/2/10
f 291/2/10 284/2/10 286/2/10
f 293/2/60 301/2/60 300/2/60
f 294/2/61 302/2/61 301/2/61
f 295/2/57 303/2/57 302/2/57
f 296/2/62 304/2/62 303/2/62
f 297/2/63 305/2/63 304/2/63
f 298/2/58 306/2/58 305/2/58
f 299/2/64 307/2/64 306/2/64
f 292/2/59 300/2/59 307/2/59
f 309/2/2 308/2/2 315/2/2
f 315/2/2 314/2/2 313/2/2
f 313/2/2 312/2/2 311/2/2
f 311/2/2 310/2/2 309/2/2
f 309/2/2 315/2/2 311/2/2
f 309/2/60 317/2/60 316/2/60
f 310/2/61 318/2/61 317/2/61
f 311/2/57 319/2/57 318/2/57
f 312/2/62 320/2/62 319/2/62
f 313/2/63 321/2/63 320/2/63
f 314/2/58 322/2/58 321/2/58
f 315/2/64 323/2/64 322/2/64
f 308/2/59 316/2/59 323/2/59
f 325/4/60 333/4/60 332/4/60
f 326/4/61 334/4/61 333/4/61
f 327/4/57 335/4/57 334/4/57
f 328/4/62 336/4/62 335/4/62
f 329/4/63 337/4/63 336/4/63
f 330/4/58 338/4/58 337/4/58
f 331/4/64 339/4/64 338/4/64
f 324/4/59 332/4/59 339/4/59
f 361/2/2 360/2/2 359/2/2
f 359/2/2 358/2/2 361/2/2
f 358/2/2 357/2/2 361/2/2
f 357/2/2 356/2/2 361/2/2
f 356/2/2 363/2/2 361/2/2
f 337/4/10 338/4/10 339/4/10
f 339/4/10 332/4/10 333/4/10
f 333/4/10 334/4/10 335/4/10
f 335/4/10 336/4/10 337/4/10
f 337/4/10 339/4/10 335/4/10
f 341/2/60 349/2/60 348/2/60
f 342/2/61 350/2/61 349/2/61
f 343/2/57 351/2/57 350/2/57
f 344/2/62 352/2/62 351/2/62
f 345/2/63 353/2/63 352/2/63
f 346/2/58 354/2/58 353/2/58
f 347/2/64 355/2/64 354/2/64
f 340/2/59 348/2/59 355/2/59
f 341/2/2 340/2/2 347/2/2
f 347/2/2 346/2/2 345/2/2
f 345/2/2 344/2/2 343/2/2
f 343/2/2 342/2/2 341/2/2
f 341/2/2 347/2/2 343/2/2
f 354/2/10 355/2/10 350/2/10
f 355/2/10 348/2/10 350/2/10
f 348/2/10 349/2/10 350/2/10
f 350/2/10 351/2/10 354/2/10
f 351/2/10 352/2/10 354/2/10
f 357/2/60 365/2/60 364/2/60
f 358/2/61 366/2/61 365/2/61
f 359/2/57 367/2/57 366/2/57
f 360/2/62 368/2/62 367/2/62
f 361/2/63 369/2/63 368/2/63
f 362/2/58 370/2/58 369/2/58
f 363/2/64 371/2/64 370/2/64
f 356/2/59 364/2/59 371/2/59
f 364/2/10 365/2/10 366/2/10
f 366/2/10 367/2/10 368/2/10
f 368/2/10 369/2/10 370/2/10
f 370/2/10 371/2/10 364/2/10
f 364/2/10 366/2/10 368/2/10
f 133/2/406 132/2/406 131/2/406
f 131/2/407 130/2/407 133/2/407
f 130/2/408 129/2/408 133/2/408
f 373/2/60 381/2/60 380/2/60
f 374/2/61 382/2/61 381/2/61
f 375/2/57 383/2/57 382/2/57
f 376/2/62 384/2/62 383/2/62
f 377/2/63 385/2/63 384/2/63
f 378/2/58 386/2/58 385/2/58
f 379/2/64 387/2/64 386/2/64
f 372/2/59 380/2/59 387/2/59
f 377/2/2 376/2/2 375/2/2
f 375/2/2 374/2/2 373/2/2
f 373/2/2 372/2/2 379/2/2
f 379/2/2 378/2/2 377/2/2
f 377/2/2 375/2/2 379/2/2
f 70/4/12 71/4/12 72/4/12
f 386/2/10 387/2/10 382/2/10
f 387/2/10 380/2/10 382/2/10
f 380/2/10 381/2/10 382/2/10
f 382/2/10 383/2/10 386/2/10
f 383/2/10 384/2/10 386/2/10
f 389/2/60 397/2/60 396/2/60
f 390/2/61 398/2/61 397/2/61
f 391/2/57 399/2/57 398/2/57
f 392/2/62 400/2/62 399/2/62
f 393/2/63 401/2/63 400/2/63
f 394/2/58 402/2/58 401/2/58
f 395/2/64 403/2/64 402/2/64
f 388/2/59 396/2/59 403/2/59
f 142/2/409 147/2/409 145/2/409
f 147/2/410 144/2/410 145/2/410
f 144/2/411 137/2/411 145/2/411
f 145/2/412 139/2/412 140/2/412
f 140/2/413 146/2/413 145/2/413
f 68/3/40 70/3/40 69/3/40
f 405/2/60 413/2/60 412/2/60
f 406/2/61 414/2/61 413/2/61
f 407/2/57 415/2/57 414/2/57
f 408/2/62 416/2/62 415/2/62
f 409/2/63 417/2/63 416/2/63
f 410/2/58 418/2/58 417/2/58
f 411/2/64 419/2/64 418/2/64
f 404/2/59 412/2/59 419/2/59
f 418/2/10 419/2/10 414/2/10
f 419/2/10 412/2/10 414/2/10
f 412/2/10 413/2/10 414/2/10
f 414/2/10 415/2/10 418/2/10
f 415/2/10 416/2/10 418/2/10
f 421/4/60 429/4/60 428/4/60
f 422/4/61 430/4/61 429/4/61
f 423/4/57 431/4/57 430/4/57
f 424/4/62 432/4/62 431/4/62
f 425/4/63 433/4/63 432/4/63
f 426/4/58 434/4/58 433/4/58
f 427/4/64 435/4/64 434/4/64
f 420/4/59 428/4/59 435/4/59
f 72/4/414 64/4/414 36/4/414
f 428/4/10 429/4/10 430/4/10
f 430/4/10 431/4/10 428/4/10
f 431/4/10 432/4/10 428/4/10
f 432/4/10 433/4/10 434/4/10
f 434/4/10 435/4/10 432/4/10
f 438/2/61 444/2/61 437/2/61
f 440/2/62 445/2/62 439/2/62
f 442/2/415 446/2/415 441/2/415
f 442/2/416 443/2/416 446/2/416
f 55/4/417 54/4/417 53/4/417
f 53/4/418 62/4/418 12/4/418
f 62/4/419 61/4/419 12/4/419
f 12/4/420 55/4/420 53/4/420
f 446/2/10 443/2/10 444/2/10
f 443/2/421 437/2/421 444/2/421
f 444/2/422 439/2/422 445/2/422
f 445/2/423 441/2/423 444/2/423
f 448/2/61 454/2/61 447/2/61
f 450/2/424 455/2/424 449/2/424
f 452/2/64 456/2/64 451/2/64
f 168/2/2 167/2/2 164/2/2
f 167/2/2 166/2/2 164/2/2
f 166/2/2 165/2/2 164/2/2
f 164/2/2 171/2/2 168/2/2
f 171/2/2 170/2/2 168/2/2
f 420/4/2 427/4/2 424/4/2
f 427/4/2 426/4/2 424/4/2
f 426/4/2 425/4/2 424/4/2
f 424/4/2 423/4/2 420/4/2
f 423/4/2 422/4/2 420/4/2
f 181/2/2 180/2/2 187/2/2
f 187/2/2 186/2/2 185/2/2
f 185/2/2 184/2/2 183/2/2
f 183/2/2 182/2/2 181/2/2
f 181/2/2 187/2/2 183/2/2
f 458/6/60 788/6/60 789/6/60
f 459/6/61 787/6/61 788/6/61
f 460/6/57 786/6/57 787/6/57
f 461/6/425 785/6/425 786/6/425
f 462/6/426 792/6/426 785/6/426
f 463/6/58 791/6/58 792/6/58
f 464/6/64 790/6/64 791/6/64
f 457/6/59 789/6/59 790/6/59
f 474/6/60 482/6/60 481/6/60
f 475/6/61 483/6/61 482/6/61
f 476/6/57 484/6/57 483/6/57
f 477/6/62 485/6/62 484/6/62
f 478/6/63 486/6/63 485/6/63
f 479/6/58 487/6/58 486/6/58
f 480/6/64 488/6/64 487/6/64
f 473/6/59 481/6/59 488/6/59
f 490/1/427 712/1/427 736/1/427
f 491/1/428 734/1/428 712/1/428
f 492/1/429 733/1/429 734/1/429
f 493/1/430 732/1/430 733/1/430
f 494/1/431 731/1/431 732/1/431
f 495/1/432 711/1/432 731/1/432
f 495/1/433 496/1/433 737/1/433
f 489/1/434 736/1/434 737/1/434
f 506/7/435 779/7/435 769/7/435
f 506/7/61 507/7/61 784/7/61
f 508/7/57 783/7/57 784/7/57
f 510/7/436 782/7/436 509/7/436
f 511/7/58 781/7/58 782/7/58
f 512/7/64 780/7/64 781/7/64
f 512/7/437 505/7/437 769/7/437
f 522/8/438 643/8/438 644/8/438
f 522/8/439 523/8/439 642/8/439
f 523/8/57 524/8/57 641/8/57
f 524/8/440 525/8/440 640/8/440
f 525/8/441 526/8/441 647/8/441
f 527/8/442 646/8/442 647/8/442
f 528/8/443 645/8/443 646/8/443
f 521/8/444 644/8/444 645/8/444
f 538/1/445 803/1/445 545/1/445
f 539/1/446 802/1/446 803/1/446
f 539/1/447 540/1/447 801/1/447
f 541/1/448 800/1/448 801/1/448
f 542/1/449 806/1/449 800/1/449
f 543/1/450 805/1/450 806/1/450
f 544/1/451 804/1/451 805/1/451
f 537/1/452 545/1/452 804/1/452
f 553/9/453 573/9/453 574/9/453
f 554/9/454 552/9/454 572/9/454
f 559/9/455 557/9/455 556/9/455
f 558/9/456 560/9/456 555/9/456
f 562/9/457 558/9/457 559/9/457
f 564/9/458 563/9/458 559/9/458
f 561/9/459 564/9/459 560/9/459
f 570/9/460 569/9/460 565/9/460
f 571/9/461 570/9/461 566/9/461
f 571/9/462 567/9/462 568/9/462
f 569/9/463 568/9/463 565/9/463
f 572/9/464 569/9/464 570/9/464
f 574/9/465 573/9/465 571/9/465
f 576/2/466 596/2/466 597/2/466
f 577/2/467 575/2/467 595/2/467
f 582/2/468 581/2/468 578/2/468
f 583/2/469 580/2/469 579/2/469
f 581/2/470 585/2/470 579/2/470
f 587/2/471 586/2/471 581/2/471
f 583/2/472 587/2/472 582/2/472
f 593/2/473 592/2/473 588/2/473
f 593/2/474 589/2/474 590/2/474
f 594/2/475 590/2/475 591/2/475
f 595/2/476 592/2/476 593/2/476
f 597/2/477 596/2/477 594/2/477
f 599/4/478 614/4/478 615/4/478
f 600/4/479 598/4/479 613/4/479
f 605/4/480 603/4/480 602/4/480
f 604/4/481 606/4/481 601/4/481
f 607/4/482 604/4/482 605/4/482
f 609/4/483 608/4/483 605/4/483
f 607/4/484 609/4/484 606/4/484
f 545/1/485 551/1/485 804/1/485
f 611/4/486 709/4/486 710/4/486
f 611/4/487 610/4/487 709/4/487
f 610/4/488 708/4/488 709/4/488
f 655/8/489 648/8/489 663/8/489
f 648/8/490 656/8/490 663/8/490
f 663/8/491 662/8/491 654/8/491
f 613/4/492 610/4/492 611/4/492
f 615/4/493 614/4/493 611/4/493
f 615/4/494 612/4/494 610/4/494
f 616/8/58 535/8/58 534/8/58
f 618/8/63 617/8/63 534/8/63
f 618/8/62 533/8/62 532/8/62
f 619/8/57 532/8/57 531/8/57
f 620/8/61 531/8/61 530/8/61
f 622/8/60 621/8/60 530/8/60
f 622/8/59 529/8/59 536/8/59
f 623/8/64 536/8/64 535/8/64
f 632/8/495 616/8/495 617/8/495
f 634/8/496 633/8/496 617/8/496
f 635/8/497 634/8/497 618/8/497
f 636/8/498 635/8/498 619/8/498
f 637/8/499 636/8/499 620/8/499
f 637/8/500 621/8/500 622/8/500
f 638/8/501 622/8/501 623/8/501
f 639/8/502 623/8/502 616/8/502
f 641/8/503 640/8/503 628/8/503
f 641/8/504 629/8/504 630/8/504
f 642/8/505 630/8/505 631/8/505
f 644/8/506 643/8/506 631/8/506
f 645/8/507 644/8/507 624/8/507
f 646/8/508 645/8/508 625/8/508
f 646/8/509 626/8/509 627/8/509
f 647/8/510 627/8/510 628/8/510
f 633/8/511 649/8/511 648/8/511
f 633/8/512 634/8/512 650/8/512
f 634/8/513 635/8/513 651/8/513
f 635/8/514 636/8/514 652/8/514
f 636/8/515 637/8/515 653/8/515
f 638/8/516 654/8/516 653/8/516
f 639/8/517 655/8/517 654/8/517
f 632/8/518 648/8/518 655/8/518
f 648/8/181 649/8/181 657/8/181
f 650/8/182 658/8/182 657/8/182
f 650/8/519 651/8/519 659/8/519
f 652/8/520 660/8/520 659/8/520
f 653/8/185 661/8/185 660/8/185
f 653/8/521 654/8/521 662/8/521
f 67/3/2 69/3/2 35/3/2
f 656/8/188 657/8/188 665/8/188
f 658/8/189 666/8/189 665/8/189
f 659/8/522 667/8/522 666/8/522
f 659/8/523 660/8/523 668/8/523
f 661/8/192 669/8/192 668/8/192
f 661/8/193 662/8/193 670/8/193
f 663/8/524 671/8/524 670/8/524
f 663/8/525 656/8/525 664/8/525
f 62/5/526 118/5/526 115/5/526
f 625/8/527 624/8/527 672/8/527
f 626/8/198 625/8/198 673/8/198
f 626/8/528 674/8/528 680/8/528
f 627/8/529 680/8/529 681/8/529
f 629/8/530 628/8/530 681/8/530
f 629/8/202 675/8/202 676/8/202
f 630/8/531 676/8/531 684/8/531
f 624/8/532 631/8/532 684/8/532
f 672/8/205 677/8/205 678/8/205
f 673/8/206 678/8/206 679/8/206
f 680/8/533 674/8/533 679/8/533
f 676/8/208 675/8/208 682/8/208
f 684/8/534 676/8/534 683/8/534
f 53/5/535 116/5/535 118/5/535
f 281/2/2 280/2/2 279/2/2
f 279/2/2 278/2/2 277/2/2
f 277/2/2 276/2/2 283/2/2
f 283/2/2 282/2/2 281/2/2
f 281/2/2 279/2/2 283/2/2
f 678/2/536 677/2/536 682/2/536
f 677/2/537 684/2/537 682/2/537
f 684/2/538 683/2/538 682/2/538
f 682/2/539 681/2/539 680/2/539
f 680/2/540 679/2/540 682/2/540
f 563/9/541 686/9/541 699/9/541
f 564/9/542 561/9/542 685/9/542
f 561/9/543 699/9/543 685/9/543
f 583/2/544 584/2/544 700/2/544
f 584/2/545 585/2/545 701/2/545
f 585/2/546 586/2/546 701/2/546
f 586/2/547 689/2/547 701/2/547
f 607/4/548 697/4/548 695/4/548
f 608/4/549 696/4/549 697/4/549
f 608/4/550 609/4/550 696/4/550
f 609/4/551 607/4/551 695/4/551
f 689/2/552 690/2/552 691/2/552
f 690/2/553 700/2/553 691/2/553
f 685/9/554 686/9/554 687/9/554
f 692/4/555 693/4/555 694/4/555
f 695/4/556 692/4/556 694/4/556
f 696/4/557 609/4/557 694/4/557
f 697/4/558 696/4/558 693/4/558
f 697/4/559 693/4/559 692/4/559
f 564/9/560 685/9/560 688/9/560
f 698/9/561 564/9/561 688/9/561
f 699/9/562 686/9/562 685/9/562
f 689/2/563 587/2/563 690/2/563
f 701/2/564 691/2/564 700/2/564
f 566/9/565 565/9/565 702/9/565
f 567/9/566 703/9/566 704/9/566
f 568/9/567 704/9/567 702/9/567
f 589/2/568 588/2/568 705/2/568
f 590/2/569 706/2/569 707/2/569
f 591/2/570 707/2/570 705/2/570
f 703/9/236 702/9/236 704/9/236
f 708/4/571 710/4/571 709/4/571
f 712/1/572 735/1/572 736/1/572
f 713/1/573 727/1/573 763/1/573
f 714/1/574 713/1/574 756/1/574
f 714/1/575 757/1/575 758/1/575
f 715/1/576 758/1/576 759/1/576
f 716/1/242 759/1/242 760/1/242
f 717/1/243 760/1/243 761/1/243
f 719/1/577 718/1/577 761/1/577
f 727/1/578 719/1/578 762/1/578
f 745/1/579 727/1/579 713/1/579
f 720/1/580 713/1/580 714/1/580
f 721/1/581 714/1/581 715/1/581
f 723/1/582 722/1/582 715/1/582
f 746/1/583 723/1/583 728/1/583
f 746/1/584 729/1/584 730/1/584
f 725/1/585 724/1/585 730/1/585
f 725/1/586 719/1/586 727/1/586
f 729/1/587 728/1/587 716/1/587
f 730/1/588 729/1/588 717/1/588
f 730/1/589 718/1/589 719/1/589
f 711/1/590 726/1/590 738/1/590
f 732/1/591 731/1/591 738/1/591
f 733/1/592 732/1/592 739/1/592
f 733/1/593 740/1/593 741/1/593
f 734/1/594 741/1/594 742/1/594
f 735/1/595 742/1/595 743/1/595
f 736/1/596 743/1/596 744/1/596
f 737/1/597 744/1/597 726/1/597
f 724/1/598 725/1/598 747/1/598
f 739/1/599 738/1/599 748/1/599
f 739/1/600 748/1/600 749/1/600
f 741/1/601 740/1/601 749/1/601
f 742/1/602 741/1/602 750/1/602
f 742/1/603 750/1/603 751/1/603
f 726/1/604 744/1/604 751/1/604
f 21/4/605 15/4/605 22/4/605
f 15/4/350 25/4/350 22/4/350
f 26/4/606 16/4/606 23/4/606
f 21/4/607 22/4/607 23/4/607
f 22/4/608 24/4/608 23/4/608
f 720/1/609 721/1/609 753/1/609
f 723/1/610 754/1/610 753/1/610
f 723/1/611 746/1/611 754/1/611
f 746/1/612 724/1/612 755/1/612
f 747/1/613 745/1/613 752/1/613
f 754/2/614 755/2/614 753/2/614
f 755/2/615 747/2/615 753/2/615
f 756/1/279 502/1/279 501/1/279
f 758/1/280 757/1/280 501/1/280
f 759/1/281 758/1/281 500/1/281
f 760/1/282 759/1/282 499/1/282
f 761/1/283 760/1/283 498/1/283
f 761/1/284 497/1/284 504/1/284
f 762/1/285 504/1/285 503/1/285
f 763/1/286 503/1/286 502/1/286
f 765/7/63 764/7/63 518/7/63
f 765/7/62 517/7/62 516/7/62
f 766/7/57 516/7/57 515/7/57
f 767/7/61 515/7/61 514/7/61
f 768/7/60 514/7/60 513/7/60
f 769/7/616 513/7/616 520/7/616
f 770/7/64 520/7/64 519/7/64
f 771/7/58 519/7/58 518/7/58
f 773/7/617 772/7/617 764/7/617
f 774/7/618 773/7/618 765/7/618
f 775/7/619 774/7/619 766/7/619
f 775/7/620 767/7/620 768/7/620
f 776/7/621 768/7/621 769/7/621
f 778/7/622 777/7/622 770/7/622
f 772/7/623 778/7/623 771/7/623
f 769/7/624 779/7/624 776/7/624
f 780/7/625 777/7/625 778/7/625
f 781/7/626 778/7/626 772/7/626
f 782/7/627 772/7/627 773/7/627
f 509/7/628 773/7/628 774/7/628
f 783/7/629 774/7/629 775/7/629
f 784/7/630 775/7/630 776/7/630
f 787/6/631 786/6/631 793/6/631
f 788/6/632 787/6/632 794/6/632
f 789/6/633 788/6/633 795/6/633
f 790/6/634 789/6/634 796/6/634
f 791/6/635 790/6/635 797/6/635
f 791/6/636 798/6/636 799/6/636
f 792/6/637 799/6/637 785/6/637
f 785/6/638 469/6/638 468/6/638
f 794/6/639 793/6/639 468/6/639
f 794/6/640 467/6/640 466/6/640
f 795/6/641 466/6/641 465/6/641
f 796/6/642 465/6/642 472/6/642
f 797/6/643 472/6/643 471/6/643
f 798/6/644 471/6/644 470/6/644
f 799/6/645 470/6/645 469/6/645
f 801/1/646 548/1/646 547/1/646
f 802/1/647 547/1/647 546/1/647
f 803/1/648 546/1/648 545/1/648
f 805/1/649 804/1/649 551/1/649
f 806/1/650 805/1/650 550/1/650
f 800/1/651 806/1/651 549/1/651
