# Blender 5.2.2 LTS
# www.blender.org
mtllib ruins_kr_wall_b.mtl
o piece
v -2.499997 1.616901 0.320039
v -2.499997 1.002514 -0.241972
v -2.499997 -0.543478 -0.241972
v -2.499997 2.500000 0.320039
v -2.499996 1.616901 -0.308188
v -2.499996 2.500000 -0.308188
v -2.213334 -0.540427 -0.241973
v -2.213335 -1.134890 0.367091
v -0.409969 -0.540427 -0.241972
v -0.409967 -1.088909 0.367090
v -1.333424 2.500000 0.281944
v -1.333424 1.616901 0.281944
v -1.789963 -0.373363 -0.241972
v -1.789965 -0.916077 0.367090
v -0.798668 -0.373363 -0.241972
v -0.798669 -0.916077 0.367090
v 0.000004 2.500000 0.281944
v 0.000004 1.616901 0.281944
v -2.213334 -1.157625 -0.241973
v -2.499997 -1.157625 -0.241972
v -2.213336 -1.157625 -0.026790
v -2.500000 -1.157625 -0.026790
v -2.213334 -1.201725 0.179920
v -2.499997 -1.201725 0.179921
v -2.499999 1.156666 -0.201862
v -2.499996 1.090793 -0.143723
v -1.333423 1.117740 -0.160211
v -0.000001 1.117740 -0.160211
v -2.500000 1.077424 -0.286726
v -1.333239 1.156666 -0.201862
v -0.000001 1.156666 -0.201862
v -2.499997 -1.380431 0.179922
v -2.213334 -1.380431 0.179920
v -2.213335 -1.247018 0.367091
v -1.789965 -0.996824 0.367090
v -0.798669 -0.996824 0.367090
v -0.409967 -1.168554 0.367090
v -2.499997 -2.500000 0.114821
v -2.146116 -2.500000 0.147371
v -2.146116 -1.441463 0.147371
v -2.499997 -1.441463 0.114822
v -2.146120 -1.247018 0.318265
v -2.146120 -2.500000 0.318265
v -1.789968 -1.048573 0.318265
v -0.798666 -1.048573 0.318265
v -0.409971 -1.214535 0.318265
v -2.213334 -1.077110 0.333369
v -1.789963 -0.860685 0.333369
v -0.798668 -0.860685 0.333369
v -0.409972 -1.033251 0.333369
v -2.499997 -0.491340 -0.241972
v -2.222367 -0.485568 -0.241972
v -1.805112 -0.322143 -0.241972
v -0.773668 -0.319859 -0.241972
v -0.407815 -0.486191 -0.241972
v -0.035223 2.500000 0.320039
v -0.035223 1.616901 0.320039
v -0.035221 1.090793 -0.143723
v -0.035224 1.156666 -0.201862
v -1.293382 2.500000 0.320039
v -1.293382 1.616901 0.320039
v -1.293386 1.090793 -0.143723
v -1.372911 2.500000 0.320039
v -1.372911 1.616902 0.320039
v -1.372909 1.090793 -0.143723
v -2.499997 1.715161 0.320039
v -1.372911 1.715161 0.320039
v -1.271940 1.701121 0.320039
v -0.035223 1.715161 0.320039
v 0.000001 1.740488 0.284785
v -2.499997 1.740488 0.279103
v -1.333421 1.740488 0.279103
v -2.499997 1.768602 0.320039
v -1.372911 1.768602 0.320039
v -1.293382 1.768602 0.320039
v -0.035223 1.768602 0.320039
v -2.499997 0.391716 -0.241972
v -2.499997 0.213907 -0.241972
v 1.012763 0.190271 -0.241972
v 2.499999 1.616901 0.320039
v 2.499999 1.002514 -0.241972
v 2.499999 -0.543478 -0.241972
v 2.499999 2.500000 0.320039
v 2.500000 1.616901 -0.308188
v 2.500000 2.500000 -0.308188
v 2.213338 -0.540427 -0.241972
v 2.213340 -1.134890 0.367090
v 0.409971 -0.540427 -0.241972
v 0.409973 -1.088909 0.367090
v 1.333426 2.500000 0.281944
v 1.333426 1.616901 0.281944
v 1.789968 -0.373363 -0.241972
v 1.789970 -0.916077 0.367090
v 0.798670 -0.373363 -0.241972
v 0.798668 -0.916077 0.367090
v 2.213338 -1.157625 -0.241972
v 2.499999 -1.157625 -0.241972
v 2.213340 -1.157625 -0.026790
v 2.499998 -1.157625 -0.026790
v 2.213338 -1.201725 0.179921
v 2.499999 -1.201725 0.179921
v 2.499998 1.156666 -0.201862
v 2.500000 1.090793 -0.143723
v 1.333424 1.117740 -0.160211
v 2.499999 1.077424 -0.286726
v 1.333241 1.156666 -0.201862
v 2.499999 -1.380431 0.179921
v 2.213338 -1.380431 0.179921
v 2.213340 -1.247018 0.367090
v 1.789970 -0.996824 0.367090
v 0.798668 -0.996824 0.367090
v 0.409973 -1.168554 0.367090
v 2.499999 -2.500000 0.114821
v 2.146120 -2.500000 0.147371
v 2.146120 -1.441463 0.147371
v 2.499999 -1.441463 0.114821
v 2.146118 -1.247018 0.318265
v 2.146118 -2.500000 0.318265
v 1.789967 -1.048573 0.318265
v 0.798671 -1.048573 0.318265
v 0.409969 -1.214535 0.318265
v 2.213338 -1.077110 0.333369
v 1.789968 -0.860685 0.333369
v 0.798670 -0.860685 0.333369
v 0.409971 -1.033251 0.333369
v 2.499999 -0.491340 -0.241972
v 2.222368 -0.485568 -0.241972
v 1.805117 -0.322143 -0.241972
v 0.773673 -0.319859 -0.241972
v 0.407816 -0.486191 -0.241972
v 0.035224 2.500000 0.320039
v 0.035224 1.616901 0.320039
v 0.035226 1.090793 -0.143723
v 0.035223 1.156666 -0.201862
v 1.293387 2.500000 0.320039
v 1.293387 1.616901 0.320039
v 1.293385 1.090793 -0.143723
v 1.372909 2.500000 0.320039
v 1.372909 1.616902 0.320039
v 1.372907 1.090793 -0.143723
v 2.499999 1.715161 0.320039
v 1.372909 1.715161 0.320039
v 1.293387 1.715161 0.320039
v 0.035224 1.715161 0.320039
v 2.499999 1.740488 0.279103
v 1.333423 1.740488 0.279103
v 2.499999 1.768602 0.320039
v 1.372909 1.768602 0.320039
v 1.293387 1.768602 0.320039
v 0.061549 1.782695 0.320039
v 2.499999 0.391716 -0.241972
v 2.499999 0.213907 -0.241972
v 1.626345 0.213907 -0.241972
v -1.565623 -0.373363 -0.241972
v -1.496411 -0.467893 -0.137341
v -1.565623 -0.145010 -0.241972
v -1.496411 -0.267229 -0.137341
v -1.034807 -0.145010 -0.241972
v -1.104022 -0.267229 -0.137341
v -1.034807 -0.373363 -0.241972
v -1.104022 -0.467893 -0.137341
v 1.027060 -0.373363 -0.241972
v 1.096276 -0.467893 -0.137341
v 1.027060 -0.145010 -0.241972
v 1.096276 -0.267229 -0.137341
v 1.557879 -0.145010 -0.241972
v 1.488664 -0.267229 -0.137341
v 1.557879 -0.373363 -0.241972
v 1.488664 -0.467893 -0.137341
v -1.964284 -2.500000 0.318265
v -1.824714 -2.500000 0.375688
v -1.964284 -1.447301 0.318265
v -1.824714 -1.556626 0.375688
v 1.964289 -1.447301 0.318265
v 1.824716 -1.556626 0.375688
v 1.964289 -2.500000 0.318265
v 1.824716 -2.500000 0.375688
v 1.676013 -1.452451 0.375688
v 1.804210 -1.343126 0.318265
v -1.676014 -1.452451 0.375688
v -1.804208 -1.343126 0.318265
v -0.743967 -2.500000 0.318265
v -0.691103 -2.500000 0.429961
v -0.743967 -1.246248 0.318265
v -0.691103 -1.355573 0.429961
v 0.743965 -1.246248 0.318265
v 0.691105 -1.355573 0.429961
v 0.743965 -2.500000 0.318265
v 0.691105 -2.500000 0.429961
v 1.251279 1.847862 0.320039
v 1.222748 1.847862 0.320039
v 1.208481 1.823130 0.320039
v 1.222748 1.798398 0.320039
v 1.251279 1.798398 0.320039
v 1.265546 1.823130 0.320039
v 1.248491 1.843028 0.335400
v 1.225536 1.843028 0.335400
v 1.214061 1.823130 0.335400
v 1.225536 1.803233 0.335400
v 1.248491 1.803233 0.335400
v 1.259966 1.823130 0.335400
v 0.112202 1.847862 0.320039
v 0.083674 1.847862 0.320039
v 0.069404 1.823130 0.320039
v 0.083674 1.798398 0.320039
v 0.112202 1.798398 0.320039
v 0.126472 1.823130 0.320039
v 0.109417 1.843028 0.335400
v 0.086462 1.843028 0.335400
v 0.074984 1.823130 0.335400
v 0.086462 1.803233 0.335400
v 0.109417 1.803233 0.335400
v 0.120892 1.823130 0.335400
v 1.443890 1.847862 0.320039
v 1.415362 1.847862 0.320039
v 1.401092 1.823130 0.320039
v 1.415362 1.798398 0.320039
v 1.443890 1.798398 0.320039
v 1.458160 1.823130 0.320039
v 1.441106 1.843028 0.335400
v 1.418150 1.843028 0.335400
v 1.406672 1.823130 0.335400
v 1.418150 1.803233 0.335400
v 1.441106 1.803233 0.335400
v 1.452580 1.823130 0.335400
v -0.094897 1.847862 0.320039
v -0.123430 1.847862 0.320039
v -0.137694 1.823130 0.320039
v -0.123430 1.798398 0.320039
v -0.094897 1.798398 0.320039
v -0.080633 1.823130 0.320039
v -0.097687 1.843028 0.335400
v -0.120643 1.843028 0.335400
v -0.132117 1.823130 0.335400
v -0.120643 1.803233 0.335400
v -0.097687 1.803233 0.335400
v -0.086213 1.823130 0.335400
v -1.216014 1.847862 0.320039
v -1.244548 1.847862 0.320039
v -1.258812 1.823130 0.320039
v -1.244548 1.798398 0.320039
v -1.216014 1.798398 0.320039
v -1.201750 1.823130 0.320039
v -1.218805 1.843028 0.335400
v -1.241760 1.843028 0.335400
v -1.253235 1.823130 0.335400
v -1.241760 1.803233 0.335400
v -1.218805 1.803233 0.335400
v -1.207330 1.823130 0.335400
v -1.432951 1.847862 0.320039
v -1.461479 1.847862 0.320039
v -1.475749 1.823130 0.320039
v -1.461479 1.798398 0.320039
v -1.432951 1.798398 0.320039
v -1.418681 1.823130 0.320039
v -1.435736 1.843028 0.335400
v -1.458691 1.843028 0.335400
v -1.470172 1.823130 0.335400
v -1.458691 1.803233 0.335400
v -1.435736 1.803233 0.335400
v -1.424261 1.823130 0.335400
v -1.216014 1.685224 0.320039
v -1.244548 1.685224 0.320039
v -1.258812 1.660492 0.320039
v -1.244548 1.635760 0.320039
v -1.216014 1.635760 0.320039
v -1.201750 1.660492 0.320039
v -1.218805 1.680389 0.335400
v -1.241760 1.680389 0.335400
v -1.253235 1.660492 0.335400
v -1.241760 1.640595 0.335400
v -1.218805 1.640595 0.335400
v -1.207330 1.660492 0.335400
v -1.432951 1.685224 0.320039
v -1.461479 1.685224 0.320039
v -1.475749 1.660492 0.320039
v -1.461479 1.635760 0.320039
v -1.432951 1.635760 0.320039
v -1.418681 1.660492 0.320039
v -1.435736 1.680389 0.335400
v -1.458691 1.680389 0.335400
v -1.470172 1.660492 0.335400
v -1.458691 1.640595 0.335400
v -1.435736 1.640595 0.335400
v -1.424261 1.660492 0.335400
v -0.094897 1.685224 0.320039
v -0.123430 1.685224 0.320039
v -0.137694 1.660492 0.320039
v -0.123430 1.635760 0.320039
v -0.094897 1.635760 0.320039
v -0.080633 1.660492 0.320039
v -0.097687 1.680389 0.335400
v -0.120643 1.680389 0.335400
v -0.132117 1.660492 0.335400
v -0.120643 1.640595 0.335400
v -0.097687 1.640595 0.335400
v -0.086213 1.660492 0.335400
v 0.112202 1.685224 0.320039
v 0.083674 1.685224 0.320039
v 0.069404 1.660492 0.320039
v 0.083674 1.635760 0.320039
v 0.112202 1.635760 0.320039
v 0.126472 1.660492 0.320039
v 0.109417 1.680389 0.335400
v 0.086462 1.680389 0.335400
v 0.074984 1.660492 0.335400
v 0.086462 1.640595 0.335400
v 0.109417 1.640595 0.335400
v 0.120892 1.660492 0.335400
v 1.251279 1.685224 0.320039
v 1.222748 1.685224 0.320039
v 1.208481 1.660492 0.320039
v 1.222748 1.635760 0.320039
v 1.251279 1.635760 0.320039
v 1.265546 1.660492 0.320039
v 1.248491 1.680389 0.335400
v 1.225536 1.680389 0.335400
v 1.214061 1.660492 0.335400
v 1.225536 1.640595 0.335400
v 1.248491 1.640595 0.335400
v 1.259966 1.660492 0.335400
v 1.443890 1.685224 0.320039
v 1.415362 1.685224 0.320039
v 1.401092 1.660492 0.320039
v 1.415362 1.635760 0.320039
v 1.443890 1.635760 0.320039
v 1.458160 1.660492 0.320039
v 1.441106 1.680389 0.335400
v 1.418150 1.680389 0.335400
v 1.406672 1.660492 0.335400
v 1.418150 1.640595 0.335400
v 1.441106 1.640595 0.335400
v 1.452580 1.660492 0.335400
v -2.499997 2.500000 -0.429961
v 2.499999 2.500000 -0.429961
v -2.499997 -2.500000 -0.429960
v 2.499999 -2.500000 -0.429960
vn -0.0000 -0.0000 1.0000
vn 0.3195 0.7197 0.6164
vn -0.0000 1.0000 -0.0000
vn 0.7188 -0.0026 0.6952
vn 0.6076 -0.5266 0.5945
vn -0.3501 0.6850 0.6389
vn -0.0000 0.7631 0.6463
vn 0.7342 -0.0000 0.6789
vn 0.6511 -0.5033 0.5682
vn -0.0000 0.9780 0.2086
vn -0.0000 -0.7309 0.6825
vn 0.2092 -0.7149 -0.6672
vn 0.1534 -0.6539 -0.7409
vn -0.0916 -0.0000 0.9958
vn -1.0000 -0.0000 -0.0000
vn -0.0774 -0.5342 0.8418
vn 0.3885 -0.7503 0.5348
vn 0.3572 -0.6410 0.6794
vn -0.0000 -0.6863 0.7274
vn -0.2968 -0.6952 0.6547
vn -0.2521 0.4878 0.8358
vn -0.0000 0.5200 0.8542
vn 0.2245 0.5050 0.8334
vn -0.0000 -0.6613 0.7502
vn -0.0000 -0.6617 -0.7497
vn -0.7140 -0.0026 0.7001
vn -0.6023 -0.5293 0.5975
vn -0.2055 -0.7145 -0.6687
vn -0.0000 0.8504 0.5261
vn -0.0030 0.7186 0.6955
vn -0.0000 -0.8243 0.5661
vn -0.0024 -0.8232 0.5677
vn 0.6943 -0.0000 0.7197
vn -0.6789 0.1728 0.7136
vn -0.3195 0.7197 0.6164
vn -0.6943 -0.0000 0.7196
vn -0.6077 -0.5266 0.5945
vn 0.2883 0.7307 0.6189
vn -0.4987 0.0032 0.8668
vn -0.6510 -0.5033 0.5682
vn -0.0000 0.7595 0.6505
vn 1.0000 -0.0000 -0.0000
vn -0.0000 -1.0000 -0.0000
vn -0.2092 -0.7149 -0.6672
vn -0.0000 -0.7306 -0.6828
vn 0.0916 -0.0000 0.9958
vn 0.0774 -0.5342 0.8418
vn -0.3885 -0.7504 0.5348
vn -0.4167 -0.7051 0.5737
vn 0.2902 -0.6567 0.6961
vn -0.0000 -0.7280 0.6856
vn 0.2569 0.5025 0.8255
vn -0.2245 0.5049 0.8334
vn -0.0000 0.5182 0.8553
vn 0.6893 -0.0000 0.7245
vn 0.5809 -0.5382 0.6106
vn 0.2055 -0.7145 -0.6687
vn -0.7343 -0.0000 0.6789
vn -0.0000 0.8121 0.5834
vn 0.0033 -0.6438 0.7651
vn -0.7147 0.0161 0.6993
vn 0.7098 0.0162 0.7042
vn -0.8340 -0.0000 0.5517
vn -0.0000 0.6503 0.7596
vn 0.8340 -0.0000 0.5517
vn -0.3805 -0.0000 0.9248
vn -0.1766 0.2714 0.9461
vn 0.3805 -0.0000 0.9248
vn 0.1766 0.2714 0.9461
vn -0.0000 0.4650 0.8853
vn -0.9039 -0.0000 0.4278
vn -0.0000 0.7147 0.6995
vn 0.9039 -0.0000 0.4278
vn -0.0000 0.9539 0.3002
vn -0.8263 0.4767 0.3000
vn -0.8263 -0.4765 0.3002
vn -0.0000 -0.9539 0.3002
vn 0.8263 -0.4767 0.3000
vn 0.8263 0.4765 0.3002
vn -0.8263 -0.4766 0.3002
vn 0.8263 -0.4768 0.2999
vn -0.8263 -0.4767 0.3001
vn 0.8263 -0.4768 0.2998
vn -0.8264 0.4766 0.3000
vn -0.8264 -0.4766 0.3000
vn 0.8263 -0.4766 0.3001
vn -0.8263 -0.4768 0.3000
vn -0.0000 0.9539 0.3003
vn -0.0000 0.5129 0.8585
vn -0.0000 -0.0000 -1.0000
vn 0.3116 0.7251 0.6141
vn 0.5863 -0.5357 0.6077
vn -0.2883 0.7307 0.6189
vn 0.7085 0.0026 0.7057
vn 0.6300 -0.5135 0.5826
vn -0.0000 -0.7295 0.6839
vn -0.2294 -0.6426 0.7311
vn 0.4167 -0.7052 0.5737
vn -0.2902 -0.6567 0.6961
vn -0.2569 0.5025 0.8255
vn 0.2249 0.5067 0.8323
vn -0.6893 -0.0000 0.7245
vn -0.5809 -0.5382 0.6106
vn 0.7131 -0.0161 0.7009
vn -0.0093 0.8165 0.5773
vn -0.0000 -0.7818 0.6235
vn 0.7146 0.0161 0.6993
vn -0.5455 0.0193 0.8379
vn -0.3116 0.7251 0.6141
vn -0.7188 -0.0026 0.6952
vn -0.5863 -0.5357 0.6077
vn 0.3501 0.6850 0.6389
vn -0.7340 -0.0269 0.6786
vn -0.6301 -0.5135 0.5825
vn -0.1534 -0.6539 -0.7409
vn 0.2294 -0.6426 0.7311
vn -0.3572 -0.6410 0.6794
vn 0.2968 -0.6952 0.6547
vn 0.2521 0.4878 0.8358
vn -0.2249 0.5067 0.8323
vn 0.7140 -0.0026 0.7001
vn 0.6023 -0.5293 0.5975
vn -0.7131 -0.0161 0.7009
vn 0.0022 0.8494 0.5277
vn -0.0095 -0.8286 0.5598
vn -0.1906 0.2720 0.9432
vn 0.1906 0.2720 0.9432
vn -0.8263 0.4765 0.3002
vn -0.8263 -0.4767 0.3000
vn 0.8263 -0.4765 0.3002
vn 0.8263 0.4767 0.3000
vn -0.8263 0.4766 0.3002
vn 0.8263 0.4768 0.2998
vn -0.8263 0.4767 0.3001
vn 0.8263 0.4766 0.3001
vn -0.8263 0.4768 0.3000
vn 0.8263 0.4768 0.2999
vn 0.8263 0.4766 0.3002
vn 0.8263 0.4767 0.2999
vn -1.0000 -0.0000 0.0001
vt 0.125000 0.625000
vt 0.875000 0.625000
vt 0.625000 0.625000
vt 0.125000 0.875000
vt 0.375000 0.625000
vt 0.625000 0.875000
vt 0.875000 0.375000
s 0
usemtl ruins_kr_wall_b
f 46/1/1 45/1/1 43/1/1
f 9/2/2 49/2/2 50/2/2
f 6/2/3 11/2/3 17/2/3
f 11/3/4 74/3/4 72/3/4
f 12/3/5 65/3/5 27/3/5
f 48/2/6 7/2/6 47/2/6
f 15/2/7 48/2/7 49/2/7
f 304/1/1 305/1/1 306/1/1
f 76/3/8 17/3/8 56/3/8
f 18/3/9 58/3/9 28/3/9
f 19/2/1 3/2/1 20/2/1
f 21/2/3 20/2/3 22/2/3
f 23/2/1 32/2/1 33/2/1
f 21/2/10 24/2/10 23/2/10
f 105/4/11 134/4/11 31/4/11
f 30/2/12 27/2/12 65/2/12
f 59/2/13 28/2/13 58/2/13
f 77/2/1 81/2/1 2/2/1
f 38/1/14 40/1/14 41/1/14
f 40/1/15 43/1/15 42/1/15
f 33/2/16 41/2/16 40/2/16
f 33/2/17 42/2/17 34/2/17
f 35/2/18 42/2/18 44/2/18
f 36/2/19 44/2/19 45/2/19
f 37/2/20 45/2/20 46/2/20
f 14/2/21 47/2/21 8/2/21
f 16/2/22 48/2/22 14/2/22
f 50/2/23 16/2/23 10/2/23
f 76/2/1 60/2/1 75/2/1
f 58/2/24 61/2/24 62/2/24
f 59/2/25 62/2/25 30/2/25
f 249/1/1 244/1/1 246/1/1
f 75/3/26 11/3/26 72/3/26
f 62/3/27 12/3/27 27/3/27
f 30/2/28 62/2/28 27/2/28
f 74/2/1 4/2/1 73/2/1
f 64/2/24 26/2/24 65/2/24
f 25/2/25 65/2/25 26/2/25
f 1/2/1 67/2/1 66/2/1
f 57/2/1 68/2/1 61/2/1
f 18/3/8 69/3/8 57/3/8
f 67/3/29 71/3/29 66/3/29
f 68/3/30 70/3/30 72/3/30
f 71/3/31 74/3/31 73/3/31
f 70/3/32 75/3/32 72/3/32
f 12/3/33 67/3/33 64/3/33
f 68/3/34 12/3/34 61/3/34
f 124/2/35 88/2/35 125/2/35
f 178/5/1 180/5/1 177/5/1
f 90/3/36 148/3/36 138/3/36
f 140/3/37 91/3/37 104/3/37
f 123/2/38 86/2/38 92/2/38
f 37/2/1 112/2/1 89/2/1
f 135/2/1 150/2/1 149/2/1
f 137/2/24 132/2/24 133/2/24
f 123/2/7 94/2/7 124/2/7
f 150/3/39 17/3/39 70/3/39
f 133/3/40 18/3/40 28/3/40
f 125/2/41 9/2/41 50/2/41
f 96/2/1 82/2/1 86/2/1
f 6/2/15 5/2/15 71/2/15
f 96/2/42 86/2/42 98/2/42
f 99/2/3 96/2/3 98/2/3
f 107/2/1 100/2/1 108/2/1
f 100/2/10 99/2/10 98/2/10
f 39/6/43 336/6/43 114/6/43
f 106/2/44 140/2/44 104/2/44
f 134/2/25 137/2/25 133/2/25
f 134/2/45 28/2/45 31/2/45
f 116/1/46 114/1/46 113/1/46
f 118/1/42 115/1/42 117/1/42
f 116/2/47 108/2/47 115/2/47
f 117/2/48 108/2/48 109/2/48
f 110/2/49 117/2/49 109/2/49
f 119/2/19 111/2/19 120/2/19
f 112/2/50 120/2/50 111/2/50
f 121/2/51 37/2/51 46/2/51
f 93/2/52 122/2/52 123/2/52
f 93/2/22 124/2/22 95/2/22
f 95/2/53 125/2/53 89/2/53
f 10/2/54 125/2/54 50/2/54
f 149/3/55 90/3/55 135/3/55
f 137/3/56 91/3/56 136/3/56
f 106/2/57 104/2/57 137/2/57
f 83/2/1 148/2/1 147/2/1
f 103/2/24 139/2/24 140/2/24
f 102/2/25 140/2/25 106/2/25
f 141/2/1 139/2/1 80/2/1
f 136/2/1 144/2/1 132/2/1
f 144/3/58 18/3/58 132/3/58
f 142/3/29 145/3/29 146/3/29
f 143/3/59 70/3/59 144/3/59
f 145/3/31 148/3/31 146/3/31
f 146/3/60 150/3/60 70/3/60
f 129/2/1 128/2/1 79/2/1
f 91/3/61 142/3/61 146/3/61
f 143/3/62 91/3/62 146/3/62
f 154/3/63 157/3/63 156/3/63
f 156/3/64 159/3/64 158/3/64
f 159/3/65 160/3/65 158/3/65
f 161/3/1 157/3/1 155/3/1
f 162/3/63 165/3/63 164/3/63
f 165/3/64 166/3/64 164/3/64
f 167/3/65 168/3/65 166/3/65
f 169/3/1 165/3/1 163/3/1
f 170/5/66 173/5/66 172/5/66
f 173/5/67 181/5/67 172/5/67
f 175/5/68 176/5/68 174/5/68
f 177/5/43 170/5/43 176/5/43
f 179/5/69 175/5/69 174/5/69
f 181/5/70 178/5/70 179/5/70
f 182/5/71 185/5/71 184/5/71
f 185/5/72 186/5/72 184/5/72
f 187/5/73 188/5/73 186/5/73
f 188/5/43 183/5/43 182/5/43
f 189/5/1 185/5/1 183/5/1
f 190/1/74 197/1/74 196/1/74
f 192/1/75 197/1/75 191/1/75
f 192/1/76 199/1/76 198/1/76
f 194/1/77 199/1/77 193/1/77
f 195/1/78 200/1/78 194/1/78
f 195/1/79 196/1/79 201/1/79
f 198/1/1 199/1/1 200/1/1
f 202/1/74 209/1/74 208/1/74
f 204/1/75 209/1/75 203/1/75
f 204/1/80 211/1/80 210/1/80
f 206/1/77 211/1/77 205/1/77
f 207/1/81 212/1/81 206/1/81
f 207/1/79 208/1/79 213/1/79
f 21/2/15 23/2/15 47/2/15
f 214/1/74 221/1/74 220/1/74
f 216/1/75 221/1/75 215/1/75
f 216/1/82 223/1/82 222/1/82
f 218/1/77 223/1/77 217/1/77
f 219/1/83 224/1/83 218/1/83
f 219/1/79 220/1/79 225/1/79
f 225/1/1 220/1/1 221/1/1
f 227/1/74 232/1/74 226/1/74
f 228/1/84 233/1/84 227/1/84
f 228/1/85 235/1/85 234/1/85
f 229/1/77 236/1/77 235/1/77
f 231/1/86 236/1/86 230/1/86
f 231/1/79 232/1/79 237/1/79
f 234/1/1 235/1/1 236/1/1
f 239/1/74 244/1/74 238/1/74
f 240/1/84 245/1/84 239/1/84
f 240/1/85 247/1/85 246/1/85
f 241/1/77 248/1/77 247/1/77
f 243/1/86 248/1/86 242/1/86
f 243/1/79 244/1/79 249/1/79
f 250/1/74 257/1/74 256/1/74
f 252/1/75 257/1/75 251/1/75
f 252/1/87 259/1/87 258/1/87
f 254/1/77 259/1/77 253/1/77
f 255/1/81 260/1/81 254/1/81
f 255/1/79 256/1/79 261/1/79
f 263/1/88 268/1/88 262/1/88
f 264/1/84 269/1/84 263/1/84
f 264/1/85 271/1/85 270/1/85
f 265/1/77 272/1/77 271/1/77
f 267/1/86 272/1/86 266/1/86
f 267/1/79 268/1/79 273/1/79
f 270/1/1 271/1/1 273/1/1
f 274/1/88 281/1/88 280/1/88
f 276/1/75 281/1/75 275/1/75
f 276/1/87 283/1/87 282/1/87
f 278/1/77 283/1/77 277/1/77
f 279/1/81 284/1/81 278/1/81
f 279/1/79 280/1/79 285/1/79
f 282/1/1 283/1/1 284/1/1
f 287/1/88 292/1/88 286/1/88
f 288/1/84 293/1/84 287/1/84
f 288/1/85 295/1/85 294/1/85
f 289/1/77 296/1/77 295/1/77
f 291/1/86 296/1/86 290/1/86
f 291/1/79 292/1/79 297/1/79
f 294/1/1 295/1/1 296/1/1
f 210/1/1 211/1/1 212/1/1
f 298/1/88 305/1/88 304/1/88
f 300/1/75 305/1/75 299/1/75
f 300/1/80 307/1/80 306/1/80
f 302/1/77 307/1/77 301/1/77
f 303/1/81 308/1/81 302/1/81
f 303/1/79 304/1/79 309/1/79
f 310/1/88 317/1/88 316/1/88
f 312/1/75 317/1/75 311/1/75
f 312/1/76 319/1/76 318/1/76
f 314/1/77 319/1/77 313/1/77
f 315/1/78 320/1/78 314/1/78
f 315/1/79 316/1/79 321/1/79
f 318/1/1 319/1/1 320/1/1
f 322/1/88 329/1/88 328/1/88
f 324/1/75 329/1/75 323/1/75
f 324/1/82 331/1/82 330/1/82
f 326/1/77 331/1/77 325/1/77
f 327/1/83 332/1/83 326/1/83
f 327/1/79 328/1/79 333/1/79
f 153/7/1 152/7/1 151/7/1
f 330/1/1 331/1/1 332/1/1
f 130/4/1 55/4/1 9/4/1
f 2/2/89 105/2/89 29/2/89
f 6/6/3 335/6/3 334/6/3
f 336/6/15 78/6/15 29/6/15
f 337/6/42 105/6/42 152/6/42
f 337/6/90 334/6/90 335/6/90
f 145/2/42 80/2/42 84/2/42
f 256/1/1 257/1/1 258/1/1
f 43/1/1 118/1/1 46/1/1
f 118/1/1 117/1/1 119/1/1
f 46/1/1 118/1/1 121/1/1
f 119/1/1 120/1/1 118/1/1
f 120/1/1 121/1/1 118/1/1
f 42/1/1 43/1/1 44/1/1
f 45/1/1 44/1/1 43/1/1
f 9/2/91 15/2/91 49/2/91
f 6/2/3 4/2/3 63/2/3
f 11/2/3 60/2/3 17/2/3
f 60/2/3 56/2/3 17/2/3
f 6/2/3 63/2/3 11/2/3
f 83/2/3 85/2/3 138/2/3
f 85/2/3 6/2/3 17/2/3
f 90/2/3 85/2/3 17/2/3
f 90/2/3 138/2/3 85/2/3
f 131/2/3 135/2/3 17/2/3
f 135/2/3 90/2/3 17/2/3
f 11/3/33 63/3/33 74/3/33
f 12/3/92 64/3/92 65/3/92
f 48/2/93 13/2/93 7/2/93
f 15/2/7 13/2/7 48/2/7
f 306/1/1 307/1/1 308/1/1
f 308/1/1 309/1/1 306/1/1
f 309/1/1 304/1/1 306/1/1
f 76/3/94 70/3/94 17/3/94
f 18/3/95 57/3/95 58/3/95
f 19/2/1 7/2/1 3/2/1
f 21/2/3 19/2/3 20/2/3
f 23/2/1 24/2/1 32/2/1
f 21/2/10 22/2/10 24/2/10
f 30/4/11 25/4/11 29/4/11
f 29/4/11 105/4/11 31/4/11
f 105/4/11 102/4/11 106/4/11
f 105/4/11 106/4/11 134/4/11
f 59/4/11 30/4/11 29/4/11
f 31/4/11 59/4/11 29/4/11
f 59/2/45 31/2/45 28/2/45
f 77/2/1 151/2/1 81/2/1
f 38/1/14 39/1/14 40/1/14
f 40/1/15 39/1/15 43/1/15
f 33/2/96 32/2/96 41/2/96
f 33/2/97 40/2/97 42/2/97
f 35/2/98 34/2/98 42/2/98
f 36/2/19 35/2/19 44/2/19
f 37/2/99 36/2/99 45/2/99
f 14/2/100 48/2/100 47/2/100
f 16/2/22 49/2/22 48/2/22
f 50/2/101 49/2/101 16/2/101
f 76/2/1 56/2/1 60/2/1
f 58/2/24 57/2/24 61/2/24
f 59/2/25 58/2/25 62/2/25
f 244/1/1 245/1/1 246/1/1
f 246/1/1 247/1/1 248/1/1
f 248/1/1 249/1/1 246/1/1
f 75/3/102 60/3/102 11/3/102
f 62/3/103 61/3/103 12/3/103
f 74/2/1 63/2/1 4/2/1
f 64/2/24 1/2/24 26/2/24
f 25/2/25 30/2/25 65/2/25
f 1/2/1 64/2/1 67/2/1
f 57/2/1 69/2/1 68/2/1
f 18/3/104 70/3/104 69/3/104
f 67/3/29 72/3/29 71/3/29
f 68/3/105 69/3/105 70/3/105
f 71/3/31 72/3/31 74/3/31
f 70/3/106 76/3/106 75/3/106
f 12/3/107 72/3/107 67/3/107
f 68/3/108 72/3/108 12/3/108
f 124/2/109 94/2/109 88/2/109
f 173/5/1 171/5/1 180/5/1
f 171/5/1 177/5/1 180/5/1
f 177/5/1 175/5/1 178/5/1
f 90/3/110 146/3/110 148/3/110
f 140/3/111 139/3/111 91/3/111
f 123/2/112 122/2/112 86/2/112
f 110/2/1 109/2/1 87/2/1
f 14/2/1 8/2/1 35/2/1
f 8/2/1 34/2/1 35/2/1
f 110/2/1 87/2/1 93/2/1
f 111/2/1 110/2/1 93/2/1
f 16/2/1 14/2/1 35/2/1
f 16/2/1 35/2/1 36/2/1
f 10/2/1 16/2/1 36/2/1
f 111/2/1 93/2/1 95/2/1
f 111/2/1 95/2/1 89/2/1
f 10/2/1 36/2/1 37/2/1
f 112/2/1 111/2/1 89/2/1
f 89/2/1 10/2/1 37/2/1
f 135/2/1 131/2/1 150/2/1
f 137/2/24 136/2/24 132/2/24
f 123/2/7 92/2/7 94/2/7
f 150/3/113 131/3/113 17/3/113
f 133/3/114 132/3/114 18/3/114
f 125/2/41 88/2/41 9/2/41
f 96/2/1 97/2/1 82/2/1
f 26/2/15 1/2/15 25/2/15
f 1/2/15 66/2/15 71/2/15
f 71/2/15 73/2/15 4/2/15
f 1/2/15 71/2/15 5/2/15
f 5/2/15 25/2/15 1/2/15
f 4/2/15 6/2/15 71/2/15
f 86/2/42 122/2/42 98/2/42
f 122/2/42 87/2/42 100/2/42
f 98/2/42 122/2/42 100/2/42
f 87/2/42 109/2/42 100/2/42
f 109/2/42 108/2/42 100/2/42
f 99/2/3 97/2/3 96/2/3
f 107/2/1 101/2/1 100/2/1
f 100/2/10 101/2/10 99/2/10
f 118/6/43 43/6/43 39/6/43
f 39/6/43 38/6/43 336/6/43
f 336/6/43 337/6/43 114/6/43
f 337/6/43 113/6/43 114/6/43
f 114/6/43 118/6/43 39/6/43
f 134/2/25 106/2/25 137/2/25
f 134/2/115 133/2/115 28/2/115
f 116/1/46 115/1/46 114/1/46
f 118/1/42 114/1/42 115/1/42
f 116/2/96 107/2/96 108/2/96
f 117/2/116 115/2/116 108/2/116
f 110/2/117 119/2/117 117/2/117
f 119/2/19 110/2/19 111/2/19
f 112/2/118 121/2/118 120/2/118
f 121/2/51 112/2/51 37/2/51
f 93/2/119 87/2/119 122/2/119
f 93/2/22 123/2/22 124/2/22
f 95/2/120 124/2/120 125/2/120
f 10/2/54 89/2/54 125/2/54
f 149/3/121 146/3/121 90/3/121
f 137/3/122 104/3/122 91/3/122
f 83/2/1 138/2/1 148/2/1
f 103/2/24 80/2/24 139/2/24
f 102/2/25 103/2/25 140/2/25
f 141/2/1 142/2/1 139/2/1
f 136/2/1 143/2/1 144/2/1
f 144/3/123 70/3/123 18/3/123
f 142/3/29 141/3/29 145/3/29
f 143/3/124 146/3/124 70/3/124
f 145/3/31 147/3/31 148/3/31
f 146/3/125 149/3/125 150/3/125
f 54/2/1 55/2/1 79/2/1
f 55/2/1 130/2/1 79/2/1
f 130/2/1 129/2/1 79/2/1
f 51/2/1 52/2/1 78/2/1
f 52/2/1 53/2/1 78/2/1
f 152/2/1 153/2/1 128/2/1
f 153/2/1 79/2/1 128/2/1
f 79/2/1 78/2/1 54/2/1
f 78/2/1 53/2/1 54/2/1
f 126/2/1 152/2/1 127/2/1
f 128/2/1 127/2/1 152/2/1
f 91/3/36 139/3/36 142/3/36
f 143/3/55 136/3/55 91/3/55
f 154/3/63 155/3/63 157/3/63
f 156/3/64 157/3/64 159/3/64
f 159/3/65 161/3/65 160/3/65
f 161/3/1 159/3/1 157/3/1
f 162/3/63 163/3/63 165/3/63
f 165/3/64 167/3/64 166/3/64
f 167/3/65 169/3/65 168/3/65
f 169/3/1 167/3/1 165/3/1
f 170/5/66 171/5/66 173/5/66
f 173/5/126 180/5/126 181/5/126
f 175/5/68 177/5/68 176/5/68
f 177/5/43 171/5/43 170/5/43
f 179/5/127 178/5/127 175/5/127
f 181/5/70 180/5/70 178/5/70
f 182/5/71 183/5/71 185/5/71
f 185/5/72 187/5/72 186/5/72
f 187/5/73 189/5/73 188/5/73
f 188/5/43 189/5/43 183/5/43
f 189/5/1 187/5/1 185/5/1
f 190/1/74 191/1/74 197/1/74
f 192/1/128 198/1/128 197/1/128
f 192/1/129 193/1/129 199/1/129
f 194/1/77 200/1/77 199/1/77
f 195/1/130 201/1/130 200/1/130
f 195/1/131 190/1/131 196/1/131
f 200/1/1 201/1/1 198/1/1
f 201/1/1 196/1/1 198/1/1
f 196/1/1 197/1/1 198/1/1
f 202/1/74 203/1/74 209/1/74
f 204/1/132 210/1/132 209/1/132
f 204/1/129 205/1/129 211/1/129
f 206/1/77 212/1/77 211/1/77
f 207/1/130 213/1/130 212/1/130
f 207/1/133 202/1/133 208/1/133
f 23/2/15 33/2/15 34/2/15
f 34/2/15 8/2/15 23/2/15
f 8/2/15 47/2/15 23/2/15
f 47/2/15 7/2/15 21/2/15
f 7/2/15 19/2/15 21/2/15
f 214/1/74 215/1/74 221/1/74
f 216/1/134 222/1/134 221/1/134
f 216/1/129 217/1/129 223/1/129
f 218/1/77 224/1/77 223/1/77
f 219/1/130 225/1/130 224/1/130
f 219/1/133 214/1/133 220/1/133
f 221/1/1 222/1/1 225/1/1
f 222/1/1 223/1/1 225/1/1
f 223/1/1 224/1/1 225/1/1
f 227/1/74 233/1/74 232/1/74
f 228/1/84 234/1/84 233/1/84
f 228/1/85 229/1/85 235/1/85
f 229/1/77 230/1/77 236/1/77
f 231/1/130 237/1/130 236/1/130
f 231/1/135 226/1/135 232/1/135
f 236/1/1 237/1/1 234/1/1
f 237/1/1 232/1/1 234/1/1
f 232/1/1 233/1/1 234/1/1
f 239/1/74 245/1/74 244/1/74
f 240/1/84 246/1/84 245/1/84
f 240/1/85 241/1/85 247/1/85
f 241/1/77 242/1/77 248/1/77
f 243/1/130 249/1/130 248/1/130
f 243/1/135 238/1/135 244/1/135
f 250/1/74 251/1/74 257/1/74
f 252/1/136 258/1/136 257/1/136
f 252/1/129 253/1/129 259/1/129
f 254/1/77 260/1/77 259/1/77
f 255/1/130 261/1/130 260/1/130
f 255/1/133 250/1/133 256/1/133
f 263/1/88 269/1/88 268/1/88
f 264/1/84 270/1/84 269/1/84
f 264/1/85 265/1/85 271/1/85
f 265/1/77 266/1/77 272/1/77
f 267/1/130 273/1/130 272/1/130
f 267/1/135 262/1/135 268/1/135
f 271/1/1 272/1/1 273/1/1
f 273/1/1 268/1/1 269/1/1
f 269/1/1 270/1/1 273/1/1
f 274/1/88 275/1/88 281/1/88
f 276/1/136 282/1/136 281/1/136
f 276/1/129 277/1/129 283/1/129
f 278/1/77 284/1/77 283/1/77
f 279/1/130 285/1/130 284/1/130
f 279/1/137 274/1/137 280/1/137
f 284/1/1 285/1/1 282/1/1
f 285/1/1 280/1/1 282/1/1
f 280/1/1 281/1/1 282/1/1
f 287/1/88 293/1/88 292/1/88
f 288/1/84 294/1/84 293/1/84
f 288/1/85 289/1/85 295/1/85
f 289/1/77 290/1/77 296/1/77
f 291/1/130 297/1/130 296/1/130
f 291/1/138 286/1/138 292/1/138
f 296/1/1 297/1/1 294/1/1
f 297/1/1 292/1/1 294/1/1
f 292/1/1 293/1/1 294/1/1
f 212/1/1 213/1/1 210/1/1
f 213/1/1 208/1/1 210/1/1
f 208/1/1 209/1/1 210/1/1
f 298/1/88 299/1/88 305/1/88
f 300/1/132 306/1/132 305/1/132
f 300/1/129 301/1/129 307/1/129
f 302/1/77 308/1/77 307/1/77
f 303/1/130 309/1/130 308/1/130
f 303/1/139 298/1/139 304/1/139
f 310/1/88 311/1/88 317/1/88
f 312/1/128 318/1/128 317/1/128
f 312/1/129 313/1/129 319/1/129
f 314/1/77 320/1/77 319/1/77
f 315/1/130 321/1/130 320/1/130
f 315/1/131 310/1/131 316/1/131
f 320/1/1 321/1/1 318/1/1
f 321/1/1 316/1/1 318/1/1
f 316/1/1 317/1/1 318/1/1
f 322/1/88 323/1/88 329/1/88
f 324/1/134 330/1/134 329/1/134
f 324/1/129 325/1/129 331/1/129
f 326/1/77 332/1/77 331/1/77
f 327/1/130 333/1/130 332/1/130
f 327/1/137 322/1/137 328/1/137
f 151/7/1 77/7/1 79/7/1
f 77/7/1 78/7/1 79/7/1
f 79/7/1 153/7/1 151/7/1
f 332/1/1 333/1/1 330/1/1
f 333/1/1 328/1/1 330/1/1
f 328/1/1 329/1/1 330/1/1
f 52/4/1 51/4/1 3/4/1
f 86/4/1 82/4/1 127/4/1
f 82/4/1 126/4/1 127/4/1
f 92/4/1 86/4/1 127/4/1
f 52/4/1 3/4/1 7/4/1
f 52/4/1 7/4/1 13/4/1
f 92/4/1 127/4/1 128/4/1
f 94/4/1 92/4/1 128/4/1
f 53/4/1 52/4/1 13/4/1
f 53/4/1 13/4/1 15/4/1
f 94/4/1 128/4/1 129/4/1
f 54/4/1 53/4/1 15/4/1
f 55/4/1 54/4/1 15/4/1
f 88/4/1 94/4/1 130/4/1
f 94/4/1 129/4/1 130/4/1
f 55/4/1 15/4/1 9/4/1
f 88/4/1 130/4/1 9/4/1
f 2/2/89 81/2/89 105/2/89
f 6/6/3 85/6/3 335/6/3
f 3/6/15 51/6/15 336/6/15
f 51/6/15 78/6/15 336/6/15
f 77/6/140 2/6/140 29/6/140
f 20/6/15 3/6/15 336/6/15
f 24/6/15 22/6/15 32/6/15
f 22/6/15 20/6/15 41/6/15
f 41/6/15 32/6/15 22/6/15
f 336/6/15 38/6/15 41/6/15
f 6/6/15 334/6/15 5/6/15
f 334/6/15 336/6/15 29/6/15
f 5/6/140 334/6/140 29/6/140
f 29/6/15 25/6/15 5/6/15
f 336/6/15 41/6/15 20/6/15
f 78/6/140 77/6/140 29/6/140
f 97/6/42 99/6/42 116/6/42
f 99/6/42 101/6/42 107/6/42
f 116/6/42 99/6/42 107/6/42
f 116/6/42 113/6/42 337/6/42
f 337/6/42 335/6/42 105/6/42
f 335/6/42 85/6/42 84/6/42
f 84/6/42 102/6/42 105/6/42
f 335/6/42 84/6/42 105/6/42
f 116/6/42 337/6/42 97/6/42
f 105/6/42 81/6/42 151/6/42
f 152/6/42 126/6/42 337/6/42
f 126/6/42 82/6/42 337/6/42
f 105/6/42 151/6/42 152/6/42
f 97/6/42 337/6/42 82/6/42
f 337/6/90 336/6/90 334/6/90
f 145/2/42 141/2/42 80/2/42
f 80/2/42 103/2/42 102/2/42
f 102/2/42 84/2/42 80/2/42
f 84/2/42 85/2/42 145/2/42
f 85/2/42 83/2/42 145/2/42
f 83/2/42 147/2/42 145/2/42
f 258/1/1 259/1/1 260/1/1
f 260/1/1 261/1/1 258/1/1
f 261/1/1 256/1/1 258/1/1
