# Blender 5.2.2 LTS
# www.blender.org
mtllib ruins_kr_trim_a.mtl
o piece
v 2.285041 0.000000 0.009581
v 2.212734 0.000000 0.081682
v 2.108245 0.000000 0.121683
v -2.108247 0.000000 0.121687
v -2.212733 0.000000 0.081682
v -2.285041 0.000000 0.009581
v -2.310846 0.000000 -0.080324
v 2.310846 0.000000 -0.080324
v 2.315931 -0.047224 0.021406
v 2.234110 -0.047224 0.102991
v 2.115875 -0.047224 0.148268
v -2.115878 -0.047224 0.148268
v -2.234113 -0.047224 0.102991
v -2.315931 -0.047224 0.021406
v -2.345132 -0.047224 -0.080324
v 2.345135 -0.047224 -0.080324
v 2.377715 -0.047224 0.045065
v 2.276868 -0.047224 0.145624
v 2.131135 -0.047224 0.201429
v -2.131135 -0.047224 0.201429
v -2.276866 -0.047224 0.145624
v -2.377716 -0.047224 0.045065
v -2.413708 -0.047224 -0.080324
v 2.413710 -0.047224 -0.080324
v 2.408608 0.000000 0.056894
v 2.298245 0.000000 0.166941
v 2.138766 0.000000 0.228010
v -2.138763 0.000000 0.228010
v -2.298246 0.000000 0.166941
v -2.408608 0.000000 0.056894
v -2.447999 0.000000 -0.080324
v 2.447996 0.000000 -0.080324
v 2.377715 0.047224 0.045065
v 2.276868 0.047224 0.145624
v 2.131135 0.047224 0.201429
v -2.131135 0.047224 0.201429
v -2.276866 0.047224 0.145624
v -2.377716 0.047224 0.045065
v -2.413708 0.047224 -0.080324
v 2.413710 0.047224 -0.080324
v 2.315931 0.047224 0.021406
v 2.234110 0.047224 0.102991
v 2.115875 0.047224 0.148268
v -2.115878 0.047224 0.148268
v -2.234113 0.047224 0.102991
v -2.315931 0.047224 0.021406
v -2.345132 0.047224 -0.080324
v 2.345135 0.047224 -0.080324
v -2.258845 -0.000001 -0.102751
v -2.319133 -0.083035 -0.102758
v 2.258843 0.000000 -0.102758
v 2.319134 -0.083035 -0.102758
v -2.439712 -0.083035 -0.102758
v 2.439709 -0.083035 -0.102758
v -2.500000 -0.000001 -0.102758
v 2.500000 0.000000 -0.102758
v -2.439712 0.083034 -0.102758
v 2.439709 0.083035 -0.102758
v -2.319136 0.083034 -0.102751
v 2.319134 0.083035 -0.102751
v -2.258845 -0.000001 -0.228003
v -2.319133 -0.083035 -0.228003
v 2.258843 0.000000 -0.228003
v 2.319134 -0.083035 -0.228010
v -2.439712 -0.083035 -0.228010
v 2.439709 -0.083035 -0.228003
v -2.500000 -0.000001 -0.228010
v 2.500000 0.000000 -0.228003
v -2.439712 0.083034 -0.228003
v 2.439709 0.083035 -0.228003
v -2.319136 0.083034 -0.228003
v 2.319134 0.083035 -0.228003
vn -0.5950 -0.5385 -0.5967
vn -0.3088 -0.5040 -0.8066
vn -0.0000 -0.4905 -0.8714
vn 0.3089 -0.5038 -0.8067
vn 0.5949 -0.5386 -0.5966
vn 0.7882 -0.5723 -0.2263
vn -0.7882 -0.5723 -0.2262
vn -0.0000 -1.0000 -0.0000
vn 0.5949 -0.5386 0.5966
vn 0.3089 -0.5039 0.8066
vn -0.0000 -0.4905 0.8714
vn -0.3089 -0.5039 0.8066
vn -0.5949 -0.5386 0.5966
vn -0.7882 -0.5723 0.2263
vn 0.7882 -0.5723 0.2263
vn 0.5949 0.5386 0.5966
vn 0.3089 0.5039 0.8066
vn -0.0000 0.4905 0.8714
vn -0.3089 0.5039 0.8066
vn -0.5949 0.5386 0.5966
vn -0.7882 0.5723 0.2263
vn 0.7882 0.5723 0.2263
vn -0.0000 1.0000 -0.0000
vn -0.5950 0.5385 -0.5967
vn -0.3088 0.5040 -0.8066
vn -0.0000 0.4905 -0.8714
vn 0.3089 0.5038 -0.8067
vn 0.5949 0.5386 -0.5966
vn 0.7882 0.5723 -0.2263
vn -0.7882 0.5723 -0.2262
vn 0.3806 -0.2764 0.8825
vn -0.3807 -0.2764 0.8824
vn -0.0000 -0.5309 0.8474
vn 0.3807 -0.2764 0.8824
vn -0.3807 0.2764 0.8824
vn 0.3807 0.2764 0.8824
vn -0.0001 0.5309 0.8475
vn 0.0001 0.5308 0.8475
vn 0.3806 0.2763 0.8825
vn -0.3807 0.2763 0.8824
vn 0.8092 -0.5875 -0.0000
vn -0.8092 -0.5875 -0.0000
vn -0.8092 0.5875 -0.0000
vn 0.8092 0.5875 -0.0000
vn -0.5949 -0.5386 -0.5967
vn -0.3089 -0.5038 -0.8067
vn -0.0000 -0.4906 -0.8714
vn 0.3088 -0.5039 -0.8066
vn 0.7882 -0.5723 -0.2262
vn -0.7882 -0.5723 -0.2263
vn -0.7882 -0.5723 0.2262
vn -0.7882 0.5723 0.2262
vn -0.5949 0.5386 -0.5967
vn -0.3089 0.5038 -0.8067
vn -0.0000 0.4906 -0.8714
vn 0.3088 0.5039 -0.8066
vn 0.7882 0.5723 -0.2262
vn -0.7882 0.5723 -0.2263
vn -0.0000 0.5308 0.8475
vn -0.0000 0.5309 0.8474
vn -0.3806 0.2763 0.8825
vt 0.375000 0.625000
vt 0.375000 0.875000
s 0
usemtl ruins_kr_trim_a
f 1/1/1 10/1/1 2/1/1
f 2/1/2 11/1/2 3/1/2
f 3/1/3 12/1/3 4/1/3
f 5/1/4 12/1/4 13/1/4
f 6/1/5 13/1/5 14/1/5
f 7/1/6 14/1/6 15/1/6
f 8/1/7 9/1/7 1/1/7
f 11/1/8 19/1/8 20/1/8
f 17/1/9 26/1/9 18/1/9
f 18/1/10 27/1/10 19/1/10
f 19/1/11 28/1/11 20/1/11
f 21/1/12 28/1/12 29/1/12
f 22/1/13 29/1/13 30/1/13
f 23/1/14 30/1/14 31/1/14
f 24/1/15 25/1/15 17/1/15
f 26/1/16 33/1/16 34/1/16
f 27/1/17 34/1/17 35/1/17
f 28/1/18 35/1/18 36/1/18
f 28/1/19 37/1/19 29/1/19
f 29/1/20 38/1/20 30/1/20
f 30/1/21 39/1/21 31/1/21
f 25/1/22 40/1/22 33/1/22
f 36/1/23 35/1/23 43/1/23
f 42/1/24 1/1/24 2/1/24
f 43/1/25 2/1/25 3/1/25
f 43/1/26 4/1/26 44/1/26
f 44/1/27 5/1/27 45/1/27
f 45/1/28 6/1/28 46/1/28
f 46/1/29 7/1/29 47/1/29
f 41/1/30 8/1/30 1/1/30
f 7/2/31 50/2/31 49/2/31
f 8/2/32 52/2/32 16/2/32
f 23/2/33 50/2/33 15/2/33
f 16/2/33 54/2/33 24/2/33
f 31/2/32 53/2/32 23/2/32
f 32/2/34 54/2/34 56/2/34
f 31/2/35 57/2/35 55/2/35
f 32/2/36 58/2/36 40/2/36
f 39/2/37 59/2/37 57/2/37
f 48/2/38 58/2/38 60/2/38
f 7/2/39 59/2/39 47/2/39
f 8/2/40 60/2/40 51/2/40
f 50/2/41 61/2/41 49/2/41
f 52/2/42 63/2/42 64/2/42
f 53/2/8 62/2/8 50/2/8
f 52/2/8 66/2/8 54/2/8
f 55/2/42 65/2/42 53/2/42
f 54/2/41 68/2/41 56/2/41
f 55/2/43 69/2/43 67/2/43
f 56/2/44 70/2/44 58/2/44
f 57/2/23 71/2/23 69/2/23
f 58/2/23 72/2/23 60/2/23
f 49/2/44 71/2/44 59/2/44
f 51/2/43 72/2/43 63/2/43
f 1/1/45 9/1/45 10/1/45
f 2/1/46 10/1/46 11/1/46
f 3/1/47 11/1/47 12/1/47
f 5/1/48 4/1/48 12/1/48
f 6/1/5 5/1/5 13/1/5
f 7/1/49 6/1/49 14/1/49
f 8/1/50 16/1/50 9/1/50
f 23/1/8 15/1/8 22/1/8
f 15/1/8 14/1/8 22/1/8
f 20/1/8 21/1/8 13/1/8
f 21/1/8 22/1/8 14/1/8
f 13/1/8 21/1/8 14/1/8
f 17/1/8 18/1/8 9/1/8
f 18/1/8 19/1/8 10/1/8
f 16/1/8 24/1/8 17/1/8
f 9/1/8 16/1/8 17/1/8
f 10/1/8 9/1/8 18/1/8
f 20/1/8 13/1/8 12/1/8
f 11/1/8 10/1/8 19/1/8
f 20/1/8 12/1/8 11/1/8
f 17/1/9 25/1/9 26/1/9
f 18/1/10 26/1/10 27/1/10
f 19/1/11 27/1/11 28/1/11
f 21/1/12 20/1/12 28/1/12
f 22/1/13 21/1/13 29/1/13
f 23/1/51 22/1/51 30/1/51
f 24/1/15 32/1/15 25/1/15
f 26/1/16 25/1/16 33/1/16
f 27/1/17 26/1/17 34/1/17
f 28/1/18 27/1/18 35/1/18
f 28/1/19 36/1/19 37/1/19
f 29/1/20 37/1/20 38/1/20
f 30/1/52 38/1/52 39/1/52
f 25/1/22 32/1/22 40/1/22
f 47/1/23 39/1/23 38/1/23
f 38/1/23 37/1/23 46/1/23
f 37/1/23 36/1/23 45/1/23
f 35/1/23 34/1/23 42/1/23
f 34/1/23 33/1/23 41/1/23
f 42/1/23 34/1/23 41/1/23
f 33/1/23 40/1/23 48/1/23
f 33/1/23 48/1/23 41/1/23
f 46/1/23 47/1/23 38/1/23
f 45/1/23 46/1/23 37/1/23
f 44/1/23 45/1/23 36/1/23
f 35/1/23 42/1/23 43/1/23
f 43/1/23 44/1/23 36/1/23
f 42/1/53 41/1/53 1/1/53
f 43/1/54 42/1/54 2/1/54
f 43/1/55 3/1/55 4/1/55
f 44/1/56 4/1/56 5/1/56
f 45/1/28 5/1/28 6/1/28
f 46/1/57 6/1/57 7/1/57
f 41/1/58 48/1/58 8/1/58
f 7/2/34 15/2/34 50/2/34
f 8/2/32 51/2/32 52/2/32
f 23/2/33 53/2/33 50/2/33
f 16/2/33 52/2/33 54/2/33
f 31/2/32 55/2/32 53/2/32
f 32/2/34 24/2/34 54/2/34
f 31/2/35 39/2/35 57/2/35
f 32/2/36 56/2/36 58/2/36
f 39/2/59 47/2/59 59/2/59
f 48/2/60 40/2/60 58/2/60
f 7/2/39 49/2/39 59/2/39
f 8/2/61 48/2/61 60/2/61
f 50/2/41 62/2/41 61/2/41
f 52/2/42 51/2/42 63/2/42
f 53/2/8 65/2/8 62/2/8
f 52/2/8 64/2/8 66/2/8
f 55/2/42 67/2/42 65/2/42
f 54/2/41 66/2/41 68/2/41
f 55/2/43 57/2/43 69/2/43
f 56/2/44 68/2/44 70/2/44
f 57/2/23 59/2/23 71/2/23
f 58/2/23 70/2/23 72/2/23
f 49/2/44 61/2/44 71/2/44
f 51/2/43 60/2/43 72/2/43
