# Blender 5.2.2 LTS
# www.blender.org
mtllib ruins_ch_floor_b.mtl
o piece
v -2.500000 2.500000 -0.293744
v 2.500000 2.500000 -0.293744
v -2.500000 -2.500000 -0.293744
v 2.500000 -2.500000 -0.293744
v 1.908743 -0.020498 -0.071292
v -0.598480 -1.658243 -0.064307
v -0.082425 -1.914378 -0.089044
v -1.367040 0.950764 -0.024135
v -1.470235 -1.341378 -0.186989
v -0.595247 1.577796 -0.257470
v -1.675480 0.451142 -0.227061
v -1.080302 -1.417678 -0.078929
v 0.581229 -1.801622 -0.075861
v -0.995167 -1.460639 -0.245176
v -0.948707 -1.695033 -0.061856
v -1.055488 1.653992 -0.062726
v -1.061783 1.657758 -0.268125
v -1.753171 -0.065882 -0.071469
v -0.911852 -1.714026 -0.270792
v 0.001878 -2.007734 -0.241810
v -1.839570 0.548946 -0.252281
v -1.559261 -1.209394 -0.251860
v -0.600630 1.869809 -0.052050
v -0.003851 -1.864956 -0.079021
v 0.109085 1.735023 0.018028
v 0.496233 -1.989699 -0.085656
v -0.079806 1.589638 -0.089311
v 1.902772 -0.327594 -0.332338
v -1.785112 0.883209 -0.029168
v 1.582047 -0.957897 -0.294977
v -0.657617 -1.815734 -0.085745
v -0.063860 1.711539 -0.036914
v -1.880248 0.305851 0.055941
v 0.639234 -1.571481 -0.292133
v 1.231529 -1.368013 -0.028785
v -1.901453 -0.076703 -0.026777
v 1.206820 -1.458181 -0.294703
v 0.168036 1.751704 -0.235202
v -1.860476 -0.333761 -0.329364
v 1.614050 -0.957338 -0.028513
v 0.525606 -1.657042 -0.070761
v -1.751153 -1.042410 -0.059948
v 1.072177 -1.605829 -0.057596
v 0.369018 -1.919822 -0.044224
v -0.024839 1.709817 -0.109611
v -1.656900 1.127080 -0.119876
v 1.635985 0.497725 -0.087933
v -0.052699 1.952083 -0.083859
v 1.367736 0.980077 -0.036013
v 1.846475 -0.611863 -0.183316
v -0.582567 -1.854216 -0.055237
v 1.871462 0.362532 -0.148171
v 1.629920 0.520671 -0.288184
v -0.992032 -1.436219 -0.072149
v -1.473431 0.978477 -0.043162
v -1.519312 -1.113689 -0.243520
v -1.077111 1.270237 -0.143800
v -1.895425 0.650406 -0.071407
v 0.519278 1.674805 -0.256529
v -1.954329 -0.427199 -0.214973
v 0.002985 -1.850624 -0.244717
v 1.642544 0.835711 -0.008268
v 1.305030 -1.058774 -0.252571
v 1.541374 0.172216 -0.074529
v 1.495068 -1.163675 -0.069375
v -1.698277 -0.663368 -0.068862
v -1.163998 1.553083 -0.135647
v 1.775240 -0.618909 -0.238828
v -1.574410 1.090418 -0.053987
v 1.296977 0.935889 -0.012869
v 0.855003 1.448513 -0.281503
v -0.641797 -1.824396 -0.252363
v -0.060116 1.975378 -0.289351
v -1.036562 1.401961 -0.100880
v -0.758832 1.802593 -0.063687
v -1.453147 1.189869 -0.245617
v 0.524411 -1.671731 -0.271648
v 0.211835 -1.847912 -0.078561
v 0.163220 1.572185 -0.256441
v 1.431209 1.235597 -0.012864
v 0.509072 -1.968372 -0.249877
v -0.534362 -1.682788 -0.254279
v 1.710744 0.542531 -0.299179
v 0.489157 1.494101 -0.044062
v -1.937347 -0.405919 -0.112444
v -0.363584 -1.693283 -0.040554
v -0.045812 1.635528 -0.266953
v 0.452187 1.566523 -0.277783
v -0.075999 -1.758331 -0.084809
v -1.564883 0.988352 -0.323263
v -1.486433 -1.099603 -0.076367
v 1.401480 -0.795619 -0.110105
v -1.841334 -0.593097 -0.068965
v -1.149322 1.485980 -0.051430
v -0.054347 1.825180 -0.249857
v 1.298718 -1.380834 -0.075286
v -0.533979 -1.682904 -0.077264
v -1.551511 1.058655 -0.245375
v 1.813510 0.020479 -0.055452
v 1.121977 1.506524 -0.042963
v 1.029322 -1.468028 -0.263326
v 1.069968 -1.597836 -0.281718
v 1.618940 0.063686 -0.019519
v 1.559260 0.497057 -0.281163
v 1.713858 -0.192360 -0.300217
v -1.630145 -1.172534 -0.083129
v 0.447162 -1.794256 -0.078796
v 0.974285 -1.366186 -0.278752
v 1.552929 1.144076 -0.038646
v 0.977247 -1.372788 -0.058534
v 1.508375 -1.128887 -0.078065
v 1.321779 0.949105 -0.236218
v 1.567514 1.132496 -0.249190
v -0.589861 -1.842244 -0.259689
v -1.515817 0.875071 -0.266641
v 1.372875 -1.007735 -0.251279
v 0.708755 -1.666667 -0.310324
v 1.362799 -1.012187 -0.060879
v -1.861848 -0.721179 -0.260762
v 0.995753 1.329346 -0.279223
v 0.960152 -1.416801 -0.287417
v 1.741448 0.008353 -0.264718
v -0.321930 -1.813365 -0.013553
v 1.700556 -0.258982 -0.046857
v -0.081350 -1.926709 -0.217316
v 0.832275 -1.442853 -0.257023
v -1.753730 -0.023851 -0.260826
v 0.473167 1.498122 -0.258331
v -1.760322 0.678885 -0.314570
v 1.475828 -1.163706 -0.253087
v -1.134689 1.556555 -0.320223
v 0.932852 1.233409 -0.056988
v 0.468030 1.712848 -0.063107
v 0.586501 -1.841792 -0.250533
v -1.761601 -0.075096 -0.254014
v -0.556866 1.661359 -0.048812
v 1.849656 0.550824 -0.079396
v -0.649203 1.783659 -0.205784
v -1.732673 0.169971 0.028460
v -0.363791 -1.724726 -0.305385
v 1.814880 0.065504 -0.300430
v -1.748837 0.551237 -0.274911
v 1.571074 -0.577693 -0.289327
v 0.927514 1.216632 -0.273743
v 1.097549 1.512296 -0.258914
v 1.696006 -0.023571 -0.244827
v 1.066154 1.379719 -0.172449
v 1.935963 -0.040435 -0.280319
v -0.394978 2.002602 -0.295729
v 0.540862 1.690678 -0.037154
v -1.679232 -0.538275 -0.077212
v 0.740360 -1.484533 -0.073251
v -1.679489 -0.384102 -0.056947
v 0.999440 1.323085 -0.047138
v -0.601213 1.901235 -0.261186
v 1.044095 1.440179 -0.048231
v -1.660137 0.708600 -0.056387
v -1.168619 1.476067 -0.232999
v -1.543851 -1.206587 -0.086763
v 1.960293 -0.303488 -0.077446
v -0.249751 -1.919178 -0.289382
v -1.778503 -1.009613 -0.270469
v -1.090438 -1.584452 -0.084329
v -0.533529 1.711460 -0.274519
v 1.892322 -0.591094 -0.056799
v 1.332535 0.985143 -0.272938
v 1.546517 0.132847 -0.253693
v 1.894613 -0.593154 -0.264392
v -1.658023 1.102397 -0.279200
v 1.837126 -0.326901 -0.015159
v 1.655412 -0.542743 -0.057231
v 1.983614 -0.362817 -0.269857
v -0.606231 1.708362 -0.125522
v 0.439673 -1.801934 -0.253842
v -1.431511 -1.097251 -0.054109
v -0.356523 -1.666744 -0.196732
v -1.846713 -0.717602 -0.085938
v -0.929340 1.751079 -0.131766
v 0.043313 1.739504 -0.289097
v -0.664784 1.784138 0.015729
v -0.787502 1.460883 -0.038874
v 1.686978 -0.912979 -0.124184
v -1.668127 -0.501323 -0.269533
v -1.705645 0.265800 -0.204873
v 1.039760 1.412774 -0.269662
v 0.944076 -1.427366 -0.041131
v 0.769823 1.291245 -0.303360
v -0.050930 1.748943 -0.272295
v 1.667353 0.750201 -0.285477
v -0.399259 -1.958412 -0.177431
v 1.739198 0.565893 -0.079887
v 1.531185 0.775638 0.057079
v -1.933683 0.614117 -0.258415
v 1.476436 0.673663 -0.239205
v -0.340177 1.694910 -0.099456
v -0.626151 -1.635096 -0.270020
v -1.693047 -0.692532 -0.255340
v 1.792458 -0.651035 -0.095462
v -1.838694 0.520696 -0.030617
v 0.059610 1.541644 -0.005540
v -0.453679 -1.886704 -0.292409
v -1.399598 0.941298 -0.274440
v -1.767580 0.383904 0.054923
v -0.076075 1.800505 -0.027422
v 1.169131 1.183210 -0.051735
v 1.524855 -1.138025 -0.247219
v 1.291364 0.993862 -0.039111
v 1.678095 -0.499697 -0.253740
v -1.750486 0.562882 -0.068437
v -1.541407 1.040340 -0.023563
v 1.251452 1.029788 -0.236675
v 0.366317 -1.972394 -0.262208
v -0.355725 1.972638 -0.082235
v -1.205737 -1.572842 -0.239113
v 1.341030 1.397475 -0.088478
v -1.460500 0.991602 -0.275774
v -1.907311 -0.007396 -0.246699
v -1.659576 0.456994 -0.026272
v -1.849625 -0.592503 -0.272054
v -1.122114 -1.410422 -0.263215
v -0.345839 1.903579 -0.338521
v -1.219880 -1.541671 -0.072599
v -1.110407 -1.584152 -0.248424
v -1.915746 -0.075910 -0.230471
v 0.678735 1.464234 0.011827
v -0.925506 1.661732 -0.311817
v 1.265355 1.425372 -0.253578
v -1.642069 -1.199512 -0.253796
v 1.685564 -0.019198 -0.057437
v 1.597296 -0.005900 -0.087124
v 1.395460 1.070354 0.010281
v 0.617537 1.332839 -0.198311
v 1.859856 0.553791 -0.288342
v -0.765847 1.521267 -0.292131
v -1.915152 -0.079755 -0.046560
v -1.028618 1.399652 -0.287089
v -1.421557 -1.116321 -0.243888
v -1.737350 -0.038222 -0.044186
v -1.874933 0.169735 -0.218902
v -0.567910 1.573639 -0.001339
v 1.314535 -1.043010 -0.085812
v 1.568394 -0.535319 -0.108425
v 0.431600 1.571340 -0.040128
v 1.109712 -1.544303 -0.278832
v -0.264530 1.874068 -0.024630
v 1.468000 1.070011 -0.239565
v 1.579602 -0.587179 -0.032971
v -1.465688 1.123001 0.006145
v 1.496036 1.283955 -0.203643
v -1.351359 -1.124262 -0.152988
v 1.596064 0.528242 -0.061824
v -0.560506 1.653130 -0.052043
v -0.083635 -1.749039 -0.247956
v -1.070240 1.341953 -0.037368
v 0.004813 -2.011326 -0.088563
v 1.089997 -1.549517 -0.072222
v 1.597699 0.058173 -0.298262
v 0.497404 1.729772 -0.266668
v 0.799782 -1.543465 -0.009534
v 1.572393 0.719497 -0.311484
v -1.067981 1.318612 -0.242260
v -1.577045 -0.791780 0.191911
v -1.915787 -0.537875 0.094440
v -1.743305 -0.304464 -0.023698
v -1.655986 -0.725093 0.221096
v -1.741593 -0.845170 0.003457
v -1.737389 -0.831342 0.184849
v -1.921749 -0.368172 0.185050
v -1.714503 -0.322915 0.193733
v -1.600238 -0.769706 0.004548
v -1.959150 -0.376059 -0.027006
v -1.691790 -0.482846 -0.006219
v -1.802912 -0.508815 -0.052357
v -1.765537 -0.308979 0.094063
v -1.748314 -0.267170 0.225057
v -1.922473 -0.305687 0.243426
v -1.927190 -0.236673 0.275105
v -1.904909 -0.291070 -0.070073
v -1.906062 -0.064162 0.005299
v -1.740172 -0.253466 -0.054484
v -1.973402 0.027576 0.291266
v -1.777593 0.155865 0.039135
v -1.921243 0.180338 0.038756
v -1.928919 0.226001 0.219727
v -1.759162 0.160074 0.212672
v -1.818808 -0.178774 0.292904
v -1.752624 0.250541 0.032124
v -1.704178 0.448643 0.012902
v -1.933187 0.588365 0.114726
v -1.785989 0.781222 -0.038811
v -1.810431 0.789927 0.136853
v -1.900391 0.525946 0.242289
v -1.614996 0.708074 -0.058565
v -1.726250 0.241786 0.228249
v -1.623872 0.704111 0.151519
v -1.938274 0.267895 0.070076
v -1.802254 0.211505 0.207465
v -1.953438 0.263361 0.238949
v -1.865526 0.668560 -0.013376
v -1.786086 0.776056 0.102031
v -1.457386 1.024756 -0.044930
v -1.767138 0.778423 0.222615
v -1.561472 0.721972 -0.021693
v -1.365246 0.994887 0.230825
v -1.598469 0.712912 0.173791
v -1.325972 1.085422 -0.002186
v -1.694800 0.945929 0.004697
v -1.737020 0.869138 0.291965
v -1.504478 1.196002 -0.005089
v -1.428873 1.115268 0.256405
v -1.727426 0.817734 -0.021851
v -1.500328 1.151762 0.224395
v -0.843751 1.367274 -0.018315
v -0.937598 1.611768 0.000856
v -1.194166 1.144433 0.181761
v -1.311551 1.311059 0.198482
v -1.214812 1.153034 -0.016171
v -1.338306 1.285268 -0.008834
v -1.106621 1.440365 -0.015249
v -0.901588 1.584565 -0.033210
v -0.855000 1.403919 0.185322
v -0.937849 1.579120 0.171160
v -0.936513 1.734474 0.045806
v -0.960809 1.698105 0.082032
v -0.919852 1.736391 0.242106
v -0.820476 1.570645 0.231610
v -0.342774 1.598835 0.003782
v -0.341429 1.829309 0.178501
v -0.424238 1.817721 0.238209
v -0.826605 1.518792 0.013578
v -0.615803 1.840462 0.038184
v -0.883001 1.626689 0.001965
v -0.521776 1.705520 0.262902
v -0.357923 1.825102 -0.036467
v -0.311261 1.613894 0.213438
v -0.309615 1.814950 0.185798
v 0.175665 1.854375 0.316718
v 0.242815 1.766545 0.326843
v 0.199030 1.567942 0.264925
v 0.151271 1.643681 0.338521
v 0.168600 1.592483 0.042787
v 0.021268 1.844495 0.323995
v 0.240387 1.686336 0.147162
v -0.311645 1.843435 -0.005927
v -0.274925 1.592915 0.190781
v 0.235741 1.826550 0.131287
v -0.257164 1.574335 0.014297
v -0.194166 1.884646 -0.008318
v -0.309157 1.731965 -0.050471
v -0.060959 1.579500 -0.025133
v 0.238802 1.823079 0.024841
v 0.683859 1.500643 0.182523
v 0.691481 1.471685 -0.003018
v 0.296468 1.836288 0.018050
v 0.242932 1.648889 -0.028586
v 0.473100 1.555946 0.001327
v 0.532313 1.768354 0.221431
v 0.211720 1.684157 0.234145
v 0.258762 1.830780 0.236207
v 0.777838 1.642077 0.176308
v 0.804958 1.675620 0.004983
v 0.467707 1.662117 0.267201
v 0.229405 1.607147 0.114899
v 0.706714 1.579103 -0.064464
v 0.387322 1.539013 0.224004
v 0.796553 1.611810 0.169669
v 1.156878 1.240081 0.183350
v 1.018939 1.615465 0.018284
v 1.261070 1.332456 -0.030591
v 0.757406 1.428029 -0.072731
v 1.157274 1.212471 -0.009276
v 0.961819 1.346628 0.170519
v 0.686166 1.438212 0.170452
v 0.781235 1.640534 -0.033669
v 0.664987 1.424348 0.009476
v 1.274648 1.422098 -0.044113
v 1.215804 1.502753 0.187015
v 1.124652 1.459598 0.210500
v 1.287924 1.391904 0.203966
v 1.091818 1.531701 -0.082828
v 1.683304 0.868523 0.023399
v 1.408464 1.387647 -0.020643
v 1.332783 0.919684 -0.037523
v 1.524017 1.210189 0.235817
v 1.341323 1.429533 0.146058
v 1.652557 0.872494 0.264913
v 1.476865 1.347533 0.174107
v 1.468614 0.743202 0.014718
v 1.464325 0.765997 0.205399
v 1.321822 1.027901 0.178959
v 1.498325 0.798581 -0.038094
v 1.610092 1.147249 0.067606
v 1.500674 1.208651 -0.057735
v 1.204960 1.287666 0.160890
v 1.213080 1.249528 -0.032535
v 1.927424 0.319536 0.141634
v 1.549179 0.724294 0.024800
v 1.841611 0.550148 -0.024390
v 1.648732 0.483089 0.308787
v 1.653046 0.826383 0.291169
v 1.871101 0.563256 0.166658
v 1.459075 0.735252 0.088959
v 1.594325 0.483470 0.041984
v 1.470004 0.703621 0.323373
v 1.761735 0.233752 0.171767
v 1.706447 0.830264 0.039898
v 1.658700 0.256762 -0.019276
v 1.861160 0.286542 -0.054719
v 1.772964 0.704155 0.246844
v 1.640442 0.286619 0.201521
v 1.850053 0.175610 0.259125
v 1.956564 -0.006576 0.149237
v 1.860527 0.016142 0.250142
v 1.685972 0.221158 0.209456
v 1.920002 0.257107 0.204671
v 1.889905 -0.308769 -0.019543
v 1.646886 -0.300370 0.194205
v 1.650744 -0.277754 -0.003256
v 1.775509 -0.323224 -0.035225
v 1.682784 0.206518 -0.006987
v 1.655348 0.001856 -0.045477
v 1.854089 -0.317623 0.202860
v 1.898650 0.245665 -0.016689
v 1.884409 -0.361731 0.194042
v 1.878487 -0.424371 -0.057466
v 1.661160 -0.340820 0.209520
v 1.675035 -0.344669 -0.012839
v 1.627672 -0.850934 -0.039746
v 1.889653 -0.354460 -0.019156
v 1.785549 -0.923698 -0.030012
v 1.907067 -0.518585 0.193404
v 1.919908 -0.580223 0.010835
v 1.752601 -0.921814 0.166371
v 1.578169 -0.837243 0.003861
v 1.602862 -0.817025 0.181917
v 1.750595 -0.533340 0.235886
v 1.251955 -0.869257 0.072130
v 1.130943 -1.153964 -0.001918
v 1.479487 -1.079844 -0.025795
v 1.633936 -0.911672 -0.047248
v 1.209412 -1.290976 0.010375
v 1.255493 -1.314939 0.200720
v 1.129192 -1.146491 0.167017
v 1.418302 -1.255455 0.098144
v 1.631740 -0.911353 0.185843
v 1.658731 -0.939183 0.010546
v 1.460664 -0.880468 -0.060200
v 1.404937 -0.746249 -0.016370
v 1.304847 -1.345928 -0.017342
v 1.373164 -0.784078 0.188855
v 0.903350 -1.737658 0.168985
v 1.300173 -1.420892 0.214836
v 1.030529 -1.327614 -0.002753
v 0.879745 -1.750231 0.098030
v 1.330526 -1.414294 -0.004082
v 1.056563 -1.326643 0.175825
v 0.971228 -1.476072 -0.064395
v 1.177623 -1.278401 0.181372
v 0.806740 -1.543917 -0.037219
v 0.910671 -1.731382 -0.020629
v 0.825670 -1.559186 0.167379
v 1.221055 -1.278598 -0.015681
v 0.725787 -1.881677 -0.041463
v 0.754147 -1.677929 0.155303
v 0.309353 -1.975064 0.293013
v 0.546699 -1.951194 0.227131
v 0.867828 -1.821026 -0.009137
v 0.776211 -1.666255 -0.065528
v 0.271196 -1.787693 0.291364
v 0.843980 -1.835190 0.132967
v 0.525680 -1.883165 0.278810
v 0.317526 -1.973161 0.084350
v 0.295945 -1.796920 0.046356
v 0.259286 -1.871763 -0.066129
v -0.265368 -1.687456 -0.079448
v 0.254909 -1.655393 -0.045721
v 0.278079 -1.654241 0.152419
v -0.233319 -1.645312 0.135300
v 0.136293 -1.817498 0.177065
v 0.272499 -1.896097 0.115014
v -0.265645 -1.891022 -0.083945
v -0.004216 -1.676971 -0.082449
v -0.022881 -1.913521 0.116625
v -0.257539 -1.869281 0.127559
v -0.096715 -1.667856 0.147108
v -0.754293 -1.581389 0.178956
v -0.577417 -1.845810 -0.026351
v -0.331472 -1.696247 -0.007659
v -0.851090 -1.752124 -0.001671
v -0.560331 -1.884355 0.176436
v -0.828389 -1.764700 0.208865
v -0.716648 -1.589199 -0.006166
v -0.311059 -1.743812 0.210042
v -0.271488 -1.810555 0.085396
v -0.347434 -1.965081 -0.021095
v -0.331813 -1.941818 0.194385
v -0.308058 -1.847963 -0.047478
v -1.303589 -1.360873 0.202686
v -1.073447 -1.381829 0.213527
v -0.834809 -1.602872 0.201541
v -1.320444 -1.400466 -0.003820
v -1.170318 -1.237017 -0.013103
v -0.938717 -1.798468 -0.006433
v -1.321736 -1.419057 0.172058
v -0.834376 -1.625862 0.011253
v -1.101310 -1.689931 0.077343
v -0.940007 -1.758083 0.190664
v -1.165047 -1.244822 0.158995
v -1.290924 -1.217362 -0.018800
v -1.644773 -1.132252 -0.010747
v -1.298626 -1.230244 0.199805
v -1.443639 -1.357493 -0.001732
v -1.591410 -0.837904 0.199989
v -1.717262 -1.092237 0.081540
v -1.753092 -0.939087 -0.005632
v -1.568731 -0.872063 0.008815
v -1.434450 -1.026038 0.203382
v -1.710069 -0.941454 0.197554
v -1.456155 -1.355012 0.187366
vn -0.0000 -0.0000 1.0000
vn 0.3360 -0.1515 0.9296
vn 0.9862 0.1482 0.0738
vn 0.9242 0.3803 -0.0336
vn 0.3302 0.9365 0.1180
vn -0.8962 0.4377 -0.0718
vn 0.6012 -0.0007 0.7991
vn 0.0780 0.9891 0.1245
vn -0.9805 -0.0266 -0.1945
vn 0.9260 -0.3622 0.1067
vn -0.5400 -0.6609 -0.5211
vn -0.2064 0.0086 -0.9784
vn -0.0684 0.3042 0.9502
vn -0.2471 -0.1167 -0.9619
vn 0.1104 0.0177 -0.9937
vn -0.3136 -0.5714 0.7584
vn 0.2446 0.9449 -0.2177
vn -0.1624 -0.1041 0.9812
vn -0.1355 -0.0560 0.9892
vn -0.5982 0.8007 0.0330
vn 0.0701 -0.0599 -0.9957
vn -0.8066 -0.5746 -0.1389
vn 0.7364 0.6719 0.0789
vn 0.4865 0.8632 -0.1347
vn 0.3719 -0.2447 -0.8954
vn 0.0044 0.9997 -0.0231
vn -0.3176 -0.9469 0.0509
vn 0.8134 -0.4530 0.3650
vn 0.0612 -0.0143 -0.9980
vn -0.0039 0.0221 -0.9997
vn 0.7514 -0.6590 0.0325
vn 0.9940 0.0969 0.0499
vn 0.7259 -0.6844 -0.0685
vn -0.5489 -0.8356 -0.0209
vn -0.0230 0.0931 -0.9954
vn -0.0548 0.0598 0.9967
vn -0.9947 0.0447 -0.0922
vn 0.1119 0.4177 -0.9017
vn 0.2288 0.1116 -0.9671
vn 0.9851 -0.0948 -0.1432
vn 0.9394 0.3422 -0.0215
vn -0.8612 -0.2772 -0.4260
vn 0.9880 0.0287 -0.1516
vn -0.0708 0.1191 -0.9904
vn 0.0804 0.9932 0.0841
vn 0.0221 0.1673 0.9857
vn 0.9991 -0.0415 0.0124
vn 0.9989 0.0048 -0.0465
vn 0.8233 -0.4030 -0.3998
vn 0.9830 -0.1687 -0.0729
vn -0.0541 -0.0181 -0.9984
vn -0.1683 -0.7112 0.6825
vn 0.5183 0.8526 -0.0659
vn 0.1622 -0.1433 -0.9763
vn -0.9942 0.0872 -0.0624
vn 0.0950 -0.0961 -0.9908
vn 0.9653 0.2386 0.1065
vn -0.1076 0.9870 0.1191
vn -0.7044 0.7077 0.0537
vn -0.1673 -0.1204 0.9785
vn 0.5592 0.8217 -0.1096
vn -0.8734 -0.1763 0.4540
vn -0.5027 -0.8236 0.2627
vn -0.1951 -0.9541 0.2273
vn -0.8012 0.5960 -0.0537
vn 0.1449 0.0786 0.9863
vn -0.9940 0.1094 0.0055
vn 0.1740 0.3083 0.9352
vn -0.2821 0.2592 -0.9237
vn 0.5749 -0.8170 -0.0442
vn 0.8783 0.4301 -0.2090
vn 0.4285 0.5672 0.7033
vn 0.4405 0.4427 -0.7810
vn 0.2958 -0.9514 0.0856
vn -0.2023 -0.1614 0.9659
vn 0.9328 -0.3601 0.0139
vn -0.5100 -0.8596 -0.0321
vn -0.2005 0.1028 -0.9743
vn 0.3031 0.9437 0.1327
vn -0.6929 0.7202 0.0344
vn 0.0864 -0.9833 -0.1600
vn -0.3587 0.1634 -0.9190
vn -0.0786 0.1582 0.9843
vn 0.3140 0.9336 0.1728
vn 0.1719 0.8643 -0.4727
vn -0.1967 0.1797 0.9638
vn 0.1448 -0.0328 0.9889
vn 0.6284 0.0677 -0.7749
vn -0.7607 -0.6239 0.1790
vn -0.6362 -0.7715 -0.0107
vn -0.1117 -0.1678 0.9795
vn -0.2769 0.0391 0.9601
vn -0.6267 -0.7790 -0.0190
vn -0.9791 0.2013 0.0295
vn 0.1907 0.5898 0.7847
vn -0.8127 -0.5826 0.0148
vn 0.3714 -0.9278 -0.0367
vn -0.1523 -0.2078 -0.9662
vn 0.0219 -0.1429 0.9895
vn 0.1854 -0.0663 -0.9804
vn 0.0382 -0.9702 -0.2394
vn -0.6207 -0.7805 0.0741
vn 0.9782 0.1758 0.1106
vn 0.1826 0.0404 0.9824
vn -0.0120 -0.2107 0.9775
vn -0.2723 0.4044 0.8731
vn -0.1032 -0.1275 0.9865
vn 0.0358 0.2128 -0.9764
vn -0.1965 -0.1912 -0.9617
vn -0.3667 -0.8574 -0.3612
vn -0.7354 0.6631 0.1395
vn -0.0901 0.9959 0.0008
vn 0.0740 0.8778 -0.4734
vn -0.1122 -0.1477 0.9827
vn -0.1176 0.2007 0.9726
vn -0.0927 0.0846 -0.9921
vn -0.1830 0.9549 0.2340
vn 0.9695 -0.2447 0.0118
vn 0.8775 0.4775 -0.0447
vn -0.1876 -0.3068 -0.9331
vn 0.4605 0.8872 -0.0284
vn -0.5007 -0.8638 -0.0559
vn -0.0290 0.1942 -0.9805
vn -0.0151 -0.0458 0.9988
vn -0.7089 -0.6874 0.1582
vn 0.9741 0.2161 -0.0671
vn -0.1291 0.0413 0.9908
vn 0.8083 -0.4548 -0.3741
vn 0.3874 0.1183 -0.9143
vn 0.3281 0.5615 -0.7597
vn 0.0731 0.0605 -0.9955
vn 0.7773 -0.6196 0.1092
vn -0.2644 -0.9203 -0.2883
vn -0.7781 0.6181 -0.1119
vn -0.0350 -0.1627 0.9861
vn -0.1671 0.8818 -0.4411
vn -0.2631 0.5846 -0.7675
vn -0.8664 0.4926 0.0817
vn -0.6289 0.7555 -0.1836
vn 0.0622 0.0479 0.9969
vn -0.8392 -0.5428 0.0327
vn 0.3345 0.0509 0.9410
vn -0.0366 0.1822 -0.9826
vn 0.1194 -0.1190 0.9857
vn -0.5763 -0.5745 -0.5813
vn 0.5361 0.8377 -0.1042
vn -0.9934 0.1122 -0.0227
vn -0.7971 0.5977 0.0857
vn -0.1207 0.0886 -0.9887
vn 0.1550 -0.0843 0.9843
vn -0.0243 0.1108 -0.9935
vn 0.6212 0.6603 -0.4221
vn -0.8278 0.5505 0.1084
vn 0.5325 -0.2251 -0.8159
vn 0.9180 -0.3490 -0.1885
vn 0.3899 -0.2710 -0.8801
vn 0.2486 0.1048 0.9629
vn 0.0441 -0.9987 -0.0243
vn 0.6612 -0.7452 0.0868
vn 0.4892 0.2707 -0.8291
vn 0.6622 -0.7492 -0.0133
vn 0.9929 0.1166 -0.0226
vn -0.1778 -0.9840 0.0054
vn 0.7447 0.6518 -0.1433
vn 0.8555 -0.4720 -0.2127
vn 0.3817 -0.9242 0.0134
vn -0.0145 -0.0932 0.9955
vn 0.2035 0.1784 0.9627
vn -0.7604 -0.6480 0.0446
vn -0.3326 -0.9396 0.0809
vn 0.7558 0.3007 0.5817
vn 0.9813 -0.1599 -0.1073
vn 0.9661 0.2116 -0.1479
vn 0.3867 0.0981 -0.9170
vn -0.6048 0.0594 -0.7941
vn 0.1057 0.2681 -0.9576
vn 0.4161 0.8993 -0.1345
vn -0.7276 0.6810 -0.0829
vn 0.2795 0.1857 -0.9420
vn 0.0120 0.1069 0.9942
vn -0.0212 -0.1688 0.9854
vn -0.0241 -0.6345 0.7725
vn 0.9220 0.3831 -0.0562
vn -0.2853 0.3682 -0.8849
vn -0.2806 0.9568 0.0767
vn -0.0315 0.3738 0.9270
vn -0.0787 0.9935 0.0827
vn -0.9947 -0.0877 -0.0534
vn 0.7572 -0.5633 0.3307
vn 0.9907 -0.1337 0.0262
vn 0.9767 -0.0851 -0.1970
vn 0.7948 0.6044 0.0546
vn 0.1838 0.9829 0.0108
vn 0.5622 -0.8139 -0.1464
vn -0.9954 -0.0653 -0.0694
vn 0.5831 -0.5206 0.6236
vn 0.0028 0.0402 0.9992
vn -0.3869 -0.8991 -0.2049
vn 0.0843 -0.1088 0.9905
vn 0.3622 -0.8023 -0.4744
vn -0.1286 -0.9468 -0.2950
vn 0.7415 -0.6664 -0.0775
vn 0.0488 -0.9976 0.0498
vn -0.9578 0.2809 0.0612
vn -0.1278 0.0001 0.9918
vn 0.4556 -0.4331 0.7777
vn 0.7407 -0.6677 -0.0749
vn -0.1311 -0.8679 -0.4792
vn -0.8820 -0.3710 0.2907
vn 0.2039 0.0391 -0.9782
vn -0.2698 0.0728 -0.9602
vn 0.8393 0.5361 -0.0903
vn -0.1444 0.3272 -0.9339
vn 0.4511 -0.8667 0.2129
vn 0.8762 0.4759 -0.0761
vn -0.7558 0.4818 0.4434
vn -0.2259 0.0003 0.9741
vn 0.6472 0.6832 0.3380
vn -0.2672 0.0299 0.9632
vn -0.0322 0.0457 0.9984
vn -0.6154 -0.7874 -0.0370
vn 0.0140 0.1302 -0.9914
vn 0.0290 -0.0952 -0.9950
vn 0.2251 -0.9741 0.0217
vn 0.2619 -0.9627 0.0686
vn -0.0209 -0.6933 0.7203
vn -0.0030 -0.0652 0.9979
vn 0.3196 -0.9474 -0.0158
vn -0.1802 0.9472 -0.2653
vn -0.9401 -0.3395 0.0304
vn 0.8342 -0.5299 0.1531
vn -0.1798 0.1560 0.9713
vn -0.2222 0.9744 -0.0332
vn 0.5639 0.5860 0.5820
vn 0.0388 -0.9913 -0.1257
vn -0.6620 0.7478 -0.0507
vn -0.7928 -0.6027 -0.0909
vn 0.0589 -0.1680 -0.9840
vn -0.2062 0.0363 -0.9778
vn 0.4412 0.0609 0.8953
vn -0.7424 0.6552 0.1397
vn -0.8557 0.3617 -0.3700
vn 0.3846 -0.9110 -0.1489
vn 0.4645 -0.8833 -0.0639
vn -0.5575 -0.2247 0.7992
vn -0.2555 -0.0523 0.9654
vn -0.1451 0.0151 0.9893
vn -0.5762 -0.0769 -0.8137
vn -0.4944 -0.2686 -0.8267
vn -0.1189 -0.2376 0.9641
vn -0.7873 -0.2858 0.5463
vn 0.8127 -0.3761 0.4451
vn -0.2550 -0.9251 -0.2812
vn 0.4083 0.3328 0.8500
vn 0.0753 -0.1007 0.9921
vn 0.0770 -0.9810 -0.1778
vn 0.1978 0.0291 -0.9798
vn 0.5226 0.8508 -0.0549
vn -0.0292 -0.9907 -0.1327
vn 0.0821 -0.9963 0.0273
vn -0.0725 0.1675 -0.9832
vn -0.2722 0.1452 -0.9512
vn -0.9737 0.1962 -0.1160
vn -0.9981 0.0464 0.0412
vn 0.0679 0.9916 0.1100
vn -0.8334 0.5353 -0.1377
vn 0.0940 -0.1296 0.9871
vn 0.7624 -0.5622 0.3205
vn 0.0406 0.5319 0.8458
vn -0.0813 -0.0016 0.9967
vn 0.4458 -0.8835 -0.1440
vn 0.9732 0.2228 -0.0562
vn 0.0019 -0.0809 -0.9967
vn -0.0785 -0.1301 -0.9884
vn 0.9544 0.2987 0.0012
vn -0.4151 0.1575 0.8960
vn -0.0738 0.0266 0.9969
vn -0.8651 -0.4556 0.2099
vn 0.0291 -0.1490 0.9884
vn -0.8552 -0.4955 -0.1520
vn 0.8038 0.5580 0.2063
vn -0.0557 -0.7995 0.5981
vn 0.8335 0.5397 -0.1181
vn 0.6999 0.6454 0.3058
vn 0.9082 0.4166 0.0400
vn 0.9842 -0.1718 0.0435
vn 0.4906 0.8708 0.0320
vn 0.2922 0.0387 0.9556
vn 0.2213 0.9714 -0.0860
vn -0.4186 0.8979 0.1361
vn -0.9437 0.3267 0.0528
vn 0.4404 0.8899 -0.1188
vn 0.1688 -0.9786 -0.1175
vn 0.3831 -0.1522 -0.9111
vn -0.1191 0.2982 -0.9470
vn 0.1190 -0.2100 -0.9704
vn -0.6492 -0.7589 -0.0521
vn 0.1496 -0.4114 -0.8991
vn 0.0961 -0.0183 -0.9952
vn -0.9851 0.1650 -0.0483
vn -0.4503 -0.8607 -0.2376
vn 0.8310 -0.3732 -0.4124
vn -0.1928 0.9808 0.0295
vn 0.0098 -0.5389 -0.8423
vn -0.3818 -0.9241 0.0167
vn -0.3790 -0.9253 0.0121
vn -0.3967 0.4959 0.7725
vn -0.0511 -0.0508 0.9974
vn -0.0590 0.0812 -0.9950
vn -0.0755 -0.1082 -0.9913
vn -0.9871 0.0356 0.1561
vn 0.0534 0.0918 -0.9943
vn -0.0849 -0.9919 0.0946
vn -0.4443 -0.7782 0.4438
vn 0.0080 0.0736 -0.9973
vn -0.7542 0.6430 0.1332
vn 0.5358 -0.8387 -0.0975
vn -0.0278 0.1092 -0.9936
vn -0.0971 -0.0734 -0.9926
vn 0.1027 -0.9733 -0.2054
vn -0.2079 -0.9570 -0.2023
vn -0.1226 0.2065 0.9707
vn 0.8106 -0.5843 0.0394
vn 0.2441 0.0215 -0.9695
vn 0.9844 -0.1740 -0.0265
vn 0.4915 0.8601 -0.1367
vn 0.9984 -0.0058 0.0565
vn 0.5771 0.8134 0.0726
vn -0.2801 0.5603 0.7795
vn 0.1530 -0.1238 0.9804
vn -0.1762 -0.1023 0.9790
vn -0.3442 0.9388 0.0106
vn -0.1603 0.9745 -0.1569
vn 0.9659 -0.2291 0.1203
vn -0.5520 0.8263 -0.1120
vn 0.3549 0.3038 0.8841
vn -0.1426 0.9898 0.0071
vn 0.6828 0.7034 0.1973
vn 0.2194 -0.9723 -0.0811
vn 0.0577 -0.0140 0.9982
vn -0.0090 0.0530 -0.9986
vn -0.3177 0.0709 -0.9455
vn -0.0111 -0.1992 -0.9799
vn -0.3591 0.7208 0.5928
vn -0.8453 -0.5270 0.0879
vn -0.0886 0.0921 -0.9918
vn 0.4575 -0.0444 0.8881
vn -0.9526 -0.3018 0.0390
vn 0.4064 -0.2615 -0.8754
vn -0.0541 -0.0797 0.9953
vn -0.4385 -0.1666 0.8831
vn 0.2130 -0.3773 0.9013
vn -0.9995 0.0313 0.0075
vn -0.5944 -0.1202 0.7952
vn -0.9980 -0.0602 0.0177
vn -0.0276 0.0609 -0.9978
vn -0.6799 -0.1857 -0.7094
vn 0.9597 -0.2137 0.1822
vn 0.0237 0.9854 0.1685
vn -0.9579 -0.2753 0.0816
vn 0.0761 0.0148 -0.9970
vn -0.1511 -0.2407 -0.9588
vn 0.1144 0.2751 -0.9546
vn -0.7615 -0.6477 -0.0245
vn -0.1214 0.0418 -0.9917
vn 0.5215 -0.0395 0.8524
vn -0.0108 0.0257 -0.9996
vn -0.6431 -0.6403 -0.4201
vn 0.1040 -0.9742 -0.2004
vn 0.0650 0.0144 0.9978
vn 0.0695 0.0498 -0.9963
vn -0.2171 0.8726 -0.4376
vn 0.9972 0.0038 -0.0751
vn 0.8150 -0.5692 0.1088
vn 0.0690 0.0721 -0.9950
vn 0.6284 -0.7768 0.0404
vn -0.9313 -0.3602 0.0547
vn -0.0736 -0.2346 0.9693
vn -0.3756 0.4790 0.7934
vn 0.0251 0.0409 -0.9988
vn -0.5633 -0.6665 -0.4883
vn -0.3947 -0.8870 -0.2398
vn -0.6362 0.2773 0.7199
vn 0.0512 0.4175 -0.9072
vn -0.6263 0.7793 -0.0202
vn -0.5423 0.8362 -0.0816
vn 0.0426 0.1202 0.9918
vn 0.0310 -0.3430 -0.9388
vn -0.9561 -0.2793 0.0885
vn 0.4475 0.8826 0.1440
vn 0.3789 0.7880 0.4853
vn -0.2439 0.9626 0.1177
vn -0.8432 -0.5376 -0.0048
vn -0.5977 -0.7176 0.3574
vn -0.8657 -0.4847 -0.1248
vn -0.2893 -0.0360 -0.9565
vn -0.9992 0.0063 -0.0407
vn 0.6566 -0.7293 0.1923
vn -0.9841 0.1594 -0.0787
vn 0.4457 -0.8885 0.1093
vn 0.7392 -0.6291 -0.2406
vn 0.0929 -0.3208 0.9426
vn 0.9584 -0.2715 0.0885
vn -0.6792 0.7333 -0.0306
vn 0.1187 -0.9928 0.0167
vn 0.2560 0.6283 -0.7347
vn 0.2252 0.0994 0.9692
vn -0.0783 0.4480 0.8906
vn -0.9620 0.2731 0.0023
vn 0.9116 -0.0437 0.4087
vn 0.9039 -0.4270 0.0262
vn 0.8804 0.0511 0.4714
vn -0.6776 -0.6398 0.3627
vn -0.9764 0.2035 -0.0727
vn -0.8326 0.5443 0.1023
vn 0.0857 0.0120 -0.9962
vn 0.9137 0.3065 -0.2669
vn -0.8748 0.4838 0.0269
vn 0.2269 0.9729 0.0448
vn 0.3010 0.9442 0.1341
vn -0.4547 -0.8858 0.0926
vn 0.1032 -0.1463 0.9838
vn -0.8866 -0.4013 0.2301
vn -0.3593 0.9128 0.1942
vn -0.8928 0.4460 -0.0628
vn -0.4086 0.8183 0.4042
vn 0.4222 -0.5088 0.7503
vn 0.0750 0.9928 0.0934
vn 0.3796 0.0190 -0.9250
vn -0.2165 0.9700 0.1110
vn -0.3150 0.9489 0.0203
vn -0.9758 -0.1287 0.1769
vn -0.8723 -0.4207 -0.2491
vn 0.9582 0.2665 -0.1043
vn 0.0462 -0.3541 0.9341
vn -0.3300 -0.2128 -0.9197
vn -0.0341 0.1486 -0.9883
vn -0.7853 -0.3128 0.5342
vn 0.4345 0.1239 0.8921
vn -0.2791 -0.1115 0.9538
vn 0.0237 -0.0299 -0.9993
vn -0.8609 -0.5053 0.0585
vn 0.3980 -0.0791 -0.9140
vn 0.2361 -0.9693 0.0684
vn 0.4658 -0.8703 -0.1602
vn 0.9531 0.2799 -0.1156
vn 0.9503 0.3002 -0.0823
vn 0.0178 0.3153 -0.9488
vn 0.1983 -0.4924 0.8475
vn 0.1570 0.3036 0.9398
vn 0.0260 0.1371 -0.9902
vn -0.9976 0.0172 -0.0671
vn -0.9975 -0.0416 -0.0578
vn -0.0688 -0.9964 -0.0503
vn 0.2393 -0.9222 -0.3038
vn -0.1191 -0.0813 0.9895
vn 0.0710 -0.4121 0.9084
vn 0.3592 0.9313 -0.0607
vn -0.9712 -0.1590 -0.1777
vn -0.9751 -0.0305 -0.2198
vn 0.9166 -0.3998 0.0071
vn -0.1078 0.2123 -0.9712
vn 0.9960 0.0835 0.0331
vn 0.1639 0.9581 -0.2348
vn 0.9941 0.0222 -0.1061
vn 0.2349 -0.9345 0.2674
vn -0.9783 0.1873 -0.0888
vn 0.7175 0.0384 0.6955
vn 0.2360 0.1844 0.9541
vn 0.9480 -0.3165 0.0341
vn -0.3342 -0.9409 -0.0553
vn -0.7952 0.4383 0.4189
vn 0.0228 -0.1021 -0.9945
vn -0.9268 0.1831 0.3279
vn 0.4170 0.9088 0.0130
vn 0.0450 -0.0218 0.9988
vn -0.0122 -0.5448 0.8385
vn -0.8235 0.5493 -0.1418
vn 0.0850 0.3445 0.9349
vn -0.1598 -0.1087 -0.9811
vn -0.8426 0.5259 -0.1158
vn -0.9957 0.0282 -0.0886
vn -0.1398 -0.2180 -0.9659
vn 0.9586 -0.2480 -0.1400
vn 0.9639 -0.2344 -0.1264
vn -0.9002 0.0741 -0.4291
vn 0.3964 0.9174 0.0341
vn 0.3904 -0.9159 -0.0934
vn -0.1412 -0.9571 -0.2530
vn -0.2122 -0.1622 -0.9637
vn -0.9649 0.2511 0.0768
vn 0.3859 -0.2018 -0.9002
vn -0.2836 -0.9539 -0.0979
vn 0.1955 -0.1039 0.9752
vn -0.0052 -0.6062 0.7953
vn -0.2052 0.3868 0.8990
vn -0.0361 -0.0641 -0.9973
vn -0.3429 -0.9366 0.0723
vn -0.9669 0.2080 0.1479
vn 0.7543 -0.6467 0.1128
vn 0.2809 -0.4080 0.8687
vn -0.7941 0.6061 0.0453
vn -0.2507 0.1534 -0.9558
vn 0.1827 0.2702 -0.9453
vn 0.8683 0.3952 0.2999
vn -0.4417 -0.7661 -0.4669
vn 0.8389 -0.5399 -0.0684
vn -0.8817 0.4718 -0.0035
vn -0.2802 0.2625 -0.9234
vn -0.8980 0.2960 -0.3256
vn 0.3878 0.9064 0.1677
vn 0.5221 0.8457 0.1102
vn 0.5972 -0.7830 0.1739
vn -0.7288 -0.6832 0.0463
vn 0.8857 0.4325 0.1687
vn -0.0331 -0.0771 -0.9965
vn -0.3967 0.4656 -0.7911
vn -0.0097 0.0069 -0.9999
vn 0.6775 0.7222 0.1394
vn 0.9662 0.2577 0.0070
vn -0.7966 -0.5787 0.1748
vn 0.0429 -0.0698 0.9966
vn 0.0113 0.0858 0.9962
vn 0.4976 -0.8628 -0.0894
vn -0.0399 0.0182 -0.9990
vn -0.5566 0.8302 -0.0314
vn -0.6813 0.6938 -0.2335
vn -0.5684 0.8082 0.1541
vn 0.9890 0.1258 -0.0783
vn -0.2567 0.2399 -0.9362
vn 0.9877 0.0392 -0.1513
vn 0.2333 0.0112 0.9723
vn 0.0526 0.9983 -0.0236
vn -0.3134 0.9495 0.0173
vn -0.1546 0.9541 0.2565
vn -0.0595 -0.0986 0.9933
vn -0.8002 0.5965 0.0621
vn -0.1276 0.3187 -0.9392
vn -0.8019 -0.5014 0.3251
vn -0.8873 -0.4589 0.0452
vn 0.5527 0.2083 0.8069
vn -0.0320 0.2412 0.9699
vn 0.0089 -0.1745 -0.9846
vn -0.6767 -0.2409 -0.6957
vn 0.1544 -0.0256 -0.9877
vn 0.1635 -0.9608 0.2239
vn -0.0339 0.9889 0.1449
vn -0.7562 -0.6314 0.1714
vn 0.0636 -0.3570 0.9319
vn 0.0866 -0.9945 0.0584
vn 0.1634 0.9820 -0.0944
vn 0.3294 0.2498 -0.9105
vn 0.9992 0.0301 -0.0269
vn -0.9405 -0.3346 -0.0594
vn 0.5726 -0.3564 0.7383
vn -0.3821 -0.0390 0.9233
vn 0.0406 0.0982 0.9943
vn 0.8375 -0.0340 -0.5454
vn 0.0919 -0.9883 -0.1218
vn 0.9655 -0.2425 0.0952
vn 0.8650 -0.4719 -0.1706
vn -0.0133 0.1044 0.9944
vn -0.9869 -0.1530 0.0518
vn -0.1465 0.3643 -0.9197
vn 0.2707 0.1704 -0.9475
vn 0.7753 0.6111 0.1595
vn 0.0155 -0.9984 -0.0537
vn -0.0676 -0.9929 0.0977
vn -0.1425 -0.7345 0.6634
vn -0.3105 -0.1329 0.9413
vn -0.9997 -0.0250 0.0069
vn 0.1810 0.1327 -0.9745
vn -0.0558 0.9863 0.1553
vn -0.1680 -0.4216 -0.8911
vn 0.1317 0.4871 -0.8633
vn 0.1253 0.3273 0.9366
vn -0.2598 -0.1064 -0.9598
vn 0.4374 0.1181 0.8915
vn -0.1258 0.0264 0.9917
vn -0.5757 -0.7231 0.3816
vn 0.0804 -0.3764 0.9230
vn -0.1447 -0.2421 0.9594
vn 0.8665 -0.4865 0.1115
vn 0.4785 0.8443 0.2411
vn -0.1968 -0.4656 -0.8628
vn -0.3252 -0.8994 -0.2923
vn -0.2820 -0.9423 -0.1803
vn -0.1064 -0.9831 0.1491
vn 0.1989 0.1828 -0.9628
vn 0.2253 0.9722 0.0635
vn -0.3558 -0.9115 -0.2064
vn -0.9496 0.3035 0.0786
vn -0.9923 -0.0572 -0.1102
vn -0.9927 0.0132 -0.1197
vn -0.2249 0.9743 -0.0143
vn 0.1518 -0.0575 0.9867
vn 0.3005 0.9533 -0.0300
vn -0.1762 0.2848 -0.9422
vn 0.8331 -0.5526 0.0237
vn 0.7579 -0.4016 -0.5141
vn 0.2224 0.9105 0.3487
vn 0.0749 0.9882 0.1339
vn 0.7491 -0.6575 0.0809
vn 0.0505 -0.2568 -0.9652
vn 0.7611 -0.6418 0.0936
vn -0.4820 -0.8675 0.1233
vn -0.0945 -0.0534 0.9941
vn 0.8365 0.5476 0.0219
vn 0.0520 -0.1920 -0.9800
vn -0.0939 0.0642 0.9935
vn 0.1363 0.2358 0.9622
vn 0.9845 -0.1600 -0.0722
vn -0.3130 -0.9419 0.1223
vn -0.0773 -0.2318 0.9697
vn 0.0598 0.3768 0.9244
vn -0.0883 0.1897 -0.9779
vn 0.2032 0.8209 -0.5336
vn -0.3675 -0.8141 -0.4496
vn -0.3736 -0.8908 0.2586
vn -0.6548 0.2070 -0.7269
vn 0.5766 0.8059 -0.1344
vn 0.5365 0.7980 -0.2744
vn -0.0371 -0.1436 -0.9889
vn -0.0645 -0.2490 0.9664
vn -0.8355 0.5319 0.1381
vn -0.8722 0.4836 0.0731
vn -0.9323 -0.3402 0.1229
vn -0.7198 0.6748 -0.1633
vn -0.8711 -0.4555 0.1836
vn 0.7868 0.2928 -0.5434
vn 0.2042 0.2836 -0.9369
vn 0.5185 0.8550 -0.0060
vn -0.1619 0.2553 0.9532
vn 0.0737 0.4297 0.9000
vn 0.1473 -0.1539 -0.9770
vn 0.5002 -0.8624 0.0779
vn -0.0617 0.1719 -0.9832
vn -0.2741 -0.0522 0.9603
vn -0.2375 -0.0393 0.9706
vn -0.5133 0.7604 -0.3978
vn -0.7989 -0.5990 0.0536
vn 0.4612 -0.8797 0.1155
vn -0.9122 -0.4075 0.0420
vn -0.2581 -0.0150 0.9660
vn 0.4476 -0.7311 -0.5149
vn 0.9648 0.2346 0.1190
vn -0.3838 -0.5211 -0.7623
vn 0.8612 0.4226 0.2825
vn 0.7840 0.6020 -0.1514
vn 0.8780 0.3613 0.3141
vn 0.7632 0.4823 -0.4300
vn -0.0897 -0.0175 -0.9958
vn -0.1032 0.1061 -0.9890
vn 0.0063 -0.4794 0.8776
vn 0.9363 0.1079 -0.3341
vn 0.1125 -0.9775 -0.1784
vn 0.7333 0.6593 0.1660
vn -0.3816 0.6587 -0.6484
vn 0.8726 0.4592 -0.1662
vn -0.8825 -0.4699 -0.0223
vn -0.5853 -0.1664 -0.7936
vn 0.4590 -0.8884 -0.0056
vn -0.9641 -0.2618 -0.0443
vn -0.4464 -0.4142 0.7932
vn 0.8356 0.5456 0.0639
vn -0.3785 -0.9209 0.0932
vn 0.1411 0.0490 0.9888
vn -0.5349 0.8336 0.1374
vn 0.9573 0.2381 -0.1641
vn -0.1977 0.2030 -0.9590
vn -0.4295 -0.1441 -0.8915
vn 0.5575 -0.0818 0.8261
vn -0.3689 0.9273 -0.0641
vn -0.0433 0.2036 -0.9781
vn -0.9299 -0.3371 -0.1471
vn 0.3842 0.0425 0.9223
vn 0.3331 -0.3336 0.8819
vn 0.5292 0.0352 0.8478
vn 0.1142 0.0033 -0.9934
vn -0.1808 0.9814 -0.0637
vn -0.9997 0.0137 -0.0180
vn -0.3656 -0.9239 -0.1130
vn 0.6170 -0.0038 0.7869
vn -0.9913 0.1318 0.0057
vn -0.9957 0.0730 0.0568
vn -0.2913 -0.0061 0.9566
vn 0.7184 -0.0463 0.6941
vn 0.1336 0.0181 -0.9909
vn -0.1524 0.9876 -0.0363
vn 0.9821 0.1578 -0.1029
vn -0.0792 0.1945 -0.9777
vn 0.7070 -0.1125 0.6982
vn 0.9473 -0.2877 0.1411
vn -0.1601 -0.0660 0.9849
vn 0.9377 -0.0130 -0.3471
vn -0.0755 0.5980 0.7979
vn -0.0850 -0.9951 0.0515
vn -0.2928 -0.1381 -0.9462
vn -0.0529 -0.1391 0.9889
vn 0.1279 -0.9916 -0.0189
vn -0.3151 -0.0164 0.9489
vn -0.9858 0.1135 0.1238
vn -0.2190 -0.0129 -0.9756
vn -0.9796 0.1905 -0.0644
vn 0.9062 -0.3772 0.1911
vn 0.9893 0.1428 0.0292
vn 0.6385 -0.1602 -0.7528
vn 0.0447 -0.0839 0.9955
vn 0.9186 -0.3624 0.1576
vn 0.0843 0.1735 0.9812
vn -0.6419 0.1005 -0.7602
vn 0.2589 0.0335 0.9653
vn -0.5532 -0.8156 0.1693
vn -0.0039 0.4810 -0.8767
vn 0.0822 0.0452 -0.9956
vn 0.9904 0.1359 0.0238
vn 0.2762 -0.3165 0.9075
vn 0.0466 0.9983 0.0352
vn 0.9159 0.0703 -0.3952
vn 0.0925 0.9957 -0.0115
vn -0.4031 -0.8981 -0.1756
vn -0.3921 -0.9182 -0.0570
vn -0.3110 0.1759 -0.9340
vn -0.0307 -0.1728 -0.9845
vn 0.7365 0.6764 0.0060
vn -0.7591 0.4848 0.4344
vn 0.1334 0.3573 -0.9244
vn 0.0438 -0.1659 -0.9852
vn 0.5848 -0.6059 -0.5393
vn -0.9174 0.3970 -0.0271
vn -0.8057 -0.5797 0.1221
vn -0.1796 0.0618 0.9818
vn -0.8682 -0.4961 0.0129
vn -0.4304 -0.3221 -0.8432
vn 0.0204 0.0178 0.9996
vn -0.0716 0.0153 -0.9973
vn 0.8054 -0.5536 0.2119
vn 0.4566 -0.8606 0.2256
vn -0.4966 -0.8679 0.0109
vn 0.4321 0.8726 0.2277
vn -0.6073 0.7928 0.0521
vn 0.4062 -0.2941 -0.8652
vn 0.5860 0.8103 0.0044
vn 0.7411 -0.6287 -0.2356
vn -0.6882 0.4421 -0.5752
vn 0.7295 0.6650 0.1601
vn -0.0821 0.9964 0.0211
vn -0.9535 -0.2940 0.0663
vn 0.7669 0.6294 0.1253
vn -0.3717 0.9271 0.0491
vn -0.8595 -0.3709 0.3517
vn -0.6995 0.7050 0.1173
vn -0.1720 0.4356 -0.8836
vn 0.1970 -0.2109 -0.9575
vn 0.6027 -0.7979 -0.0031
vn 0.6183 -0.7835 0.0621
vn -0.0907 -0.0305 0.9954
vn 0.1582 0.0433 -0.9865
vn 0.4928 -0.8701 -0.0098
vn -0.1022 0.1433 0.9844
vn -0.1244 0.0876 0.9884
vn -0.3296 0.4713 -0.8181
vn -0.7079 0.6993 0.0994
vn -0.8253 -0.4834 -0.2919
vn -0.2524 0.9660 -0.0566
vn 0.3640 -0.9314 0.0016
vn 0.8367 0.5361 0.1119
vn 0.1782 0.3542 0.9181
vn 0.2762 -0.5258 0.8045
vn 0.0986 -0.9951 -0.0052
vn 0.8637 0.4662 0.1914
vn -0.2385 -0.2325 -0.9429
vn 0.4019 0.1003 0.9102
vn 0.4262 -0.4600 0.7789
vn 0.3973 -0.9173 -0.0248
vn -0.9790 -0.1997 -0.0402
vn -0.2111 -0.0596 -0.9757
vn 0.2881 -0.1727 -0.9419
vn 0.1771 -0.9750 -0.1343
vn 0.0569 0.0204 0.9982
vn -0.2134 0.9765 0.0303
vn -0.9855 -0.1410 -0.0942
vn -0.1794 -0.9779 0.1074
vn -0.0200 0.1662 0.9859
vn -0.2452 -0.1916 0.9503
vn -0.9993 0.0005 0.0382
vn 0.1319 0.0957 -0.9866
vn 0.0244 -0.1159 0.9930
vn -0.0901 -0.0247 0.9956
vn -0.0124 0.0221 -0.9997
vn -0.9866 0.1023 0.1272
vn -0.0835 0.9965 0.0040
vn 0.0385 -0.5772 0.8157
vn -0.0355 0.9979 -0.0539
vn 0.0416 -0.9861 -0.1610
vn 0.9972 -0.0115 -0.0743
vn 0.0576 -0.9889 -0.1370
vn 0.0352 -0.0360 -0.9987
vn 0.1606 0.9867 0.0255
vn 0.9927 0.0310 -0.1163
vn -0.3323 -0.9313 -0.1490
vn -0.4086 -0.9126 -0.0105
vn -0.2510 -0.9603 0.1219
vn 0.9024 -0.4305 -0.0189
vn -0.9132 0.3890 0.1217
vn 0.0077 -0.2455 0.9694
vn -0.0952 -0.0685 0.9931
vn -0.0089 0.1645 0.9863
vn 0.3283 0.9288 0.1721
vn 0.0211 0.0898 -0.9957
vn -0.7610 0.6230 -0.1810
vn 0.2678 0.9634 0.0138
vn -0.0783 -0.1940 -0.9779
vn 0.9249 -0.3463 -0.1570
vn 0.8777 0.4787 0.0223
vn -0.0739 0.2425 -0.9673
vn 0.9243 -0.1254 0.3606
vn -0.4542 -0.8815 -0.1293
vn -0.0774 0.0364 -0.9963
vn 0.9213 0.2254 -0.3170
vn -0.0337 -0.0258 -0.9991
vn -0.6446 -0.6152 -0.4539
vn 0.1117 0.0343 -0.9932
vn -0.3514 -0.3479 0.8692
vn -0.4838 -0.8580 0.1726
vn 0.7568 0.6491 -0.0767
vn -0.7857 -0.6146 -0.0707
vn -0.9578 0.2865 0.0232
vn 0.5885 0.6063 0.5348
vn 0.7346 0.6785 0.0083
vn -0.0108 0.3636 0.9315
vn -0.6009 -0.6511 0.4637
vn -0.7339 0.6771 0.0532
vn -0.6561 0.7493 -0.0901
vn 0.6748 -0.7378 -0.0197
vn 0.8452 -0.5225 0.1126
vn -0.9725 -0.1111 0.2046
vn 0.7770 0.6283 -0.0391
vn 0.0569 0.0583 -0.9967
vn -0.3204 0.9252 -0.2033
vn -0.7907 -0.4319 -0.4338
vn -0.0044 0.0762 -0.9971
vn -0.6521 0.7438 0.1467
vn 0.6176 -0.7848 0.0512
vn -0.7014 -0.7118 -0.0371
vn -0.7109 -0.6459 -0.2783
vn -0.0399 -0.0491 0.9980
vn 0.8315 0.5520 0.0618
vn -0.0411 -0.0766 -0.9962
vn -0.2033 -0.1521 0.9672
vn 0.7679 0.6402 -0.0233
vn -0.0122 -0.0096 0.9999
vn -0.6975 0.7159 0.0308
vn 0.0570 0.9945 -0.0874
vn -0.3251 0.9349 0.1423
vn 0.4370 0.8981 -0.0486
vn 0.4449 0.8891 -0.1081
vn -0.7095 0.7037 0.0370
vn -0.0416 0.9816 -0.1864
vn 0.1883 0.0315 0.9816
vn -0.0090 -0.0638 0.9979
vn -0.2758 0.9591 -0.0640
vn -0.6752 -0.4293 0.5998
vn -0.9649 0.2510 0.0767
vn -0.6463 -0.7581 0.0870
vn -0.7954 0.0608 -0.6030
vn -0.0129 0.9987 -0.0498
vn 0.1754 -0.3279 0.9283
vn -0.8402 -0.5376 0.0720
vn -0.1031 -0.1443 -0.9842
vn 0.8235 -0.5630 0.0699
vt 0.625000 0.625000
vt 0.625000 0.875000
vt 0.375000 0.875000
s 0
usemtl ruins_ch_floor_b
f 4/1/1 1/1/1 3/1/1
f 477/2/2 479/2/2 480/2/2
f 160/3/3 172/3/3 148/3/3
f 56/2/4 197/2/4 66/2/4
f 199/2/5 218/2/5 21/2/5
f 58/2/6 29/2/6 169/2/6
f 203/2/7 139/2/7 218/2/7
f 149/3/8 213/3/8 73/3/8
f 27/2/9 95/2/9 87/2/9
f 72/2/10 6/2/10 31/2/10
f 187/3/11 232/3/11 128/3/11
f 30/3/12 116/3/12 143/3/12
f 107/2/13 78/2/13 44/2/13
f 28/3/14 208/3/14 105/3/14
f 56/3/15 162/3/15 197/3/15
f 132/2/16 225/2/16 84/2/16
f 242/2/17 68/2/17 143/2/17
f 181/2/18 180/2/18 16/2/18
f 49/2/19 80/2/19 205/2/19
f 16/2/20 178/2/20 17/2/20
f 131/3/21 226/3/21 234/3/21
f 131/3/22 236/3/22 67/3/22
f 216/2/23 69/2/23 55/2/23
f 69/3/24 216/3/24 169/3/24
f 115/3/25 142/3/25 129/3/25
f 5/2/26 146/2/26 229/2/26
f 209/3/27 193/3/27 142/3/27
f 156/2/28 132/2/28 147/2/28
f 71/3/29 185/3/29 144/3/29
f 233/3/30 257/3/30 53/3/30
f 144/2/31 147/2/31 132/2/31
f 233/2/32 137/2/32 52/2/32
f 8/2/33 202/2/33 57/2/33
f 223/3/34 19/3/34 15/3/34
f 19/3/35 14/3/35 196/3/35
f 269/2/36 268/2/36 265/2/36
f 204/2/37 95/2/37 27/2/37
f 189/3/38 260/3/38 112/3/38
f 260/3/39 189/3/39 83/3/39
f 72/2/40 196/2/40 6/2/40
f 191/2/41 189/2/41 62/2/41
f 173/3/42 155/3/42 164/3/42
f 73/3/43 45/3/43 188/3/43
f 38/3/44 88/3/44 79/3/44
f 133/2/45 38/2/45 25/2/45
f 241/2/46 35/2/46 65/2/46
f 89/2/47 7/2/47 125/2/47
f 89/2/48 125/2/48 253/2/48
f 30/2/49 68/2/49 182/2/49
f 11/2/50 218/2/50 184/2/50
f 212/2/51 20/2/51 61/2/51
f 44/2/52 24/2/52 26/2/52
f 11/2/53 21/2/53 218/2/53
f 184/2/54 239/2/54 11/2/54
f 33/2/55 21/2/55 239/2/55
f 11/3/56 239/3/56 21/3/56
f 26/2/57 81/2/57 107/2/57
f 61/2/58 78/2/58 174/2/58
f 159/2/59 175/2/59 22/2/59
f 175/2/60 159/2/60 222/2/60
f 241/2/61 65/2/61 63/2/61
f 173/2/62 136/2/62 23/2/62
f 209/2/63 58/2/63 193/2/63
f 171/2/64 50/2/64 165/2/64
f 231/2/65 112/2/65 70/2/65
f 153/2/66 18/2/66 235/2/66
f 235/2/67 224/2/67 60/2/67
f 156/2/68 150/2/68 225/2/68
f 149/3/69 221/3/69 155/3/69
f 228/2/70 56/2/70 91/2/70
f 56/2/71 66/2/71 91/2/71
f 80/2/72 215/2/72 100/2/72
f 227/3/73 249/3/73 113/3/73
f 251/3/74 104/3/74 83/3/74
f 181/2/75 16/2/75 74/2/75
f 165/3/76 168/3/76 172/3/76
f 51/2/77 114/2/77 190/2/77
f 82/3/78 201/3/78 114/3/78
f 25/2/79 38/2/79 95/2/79
f 16/2/80 17/2/80 67/2/80
f 26/2/81 20/2/81 212/2/81
f 193/3/82 169/3/82 129/3/82
f 47/2/83 103/2/83 137/2/83
f 253/2/84 176/2/84 86/2/84
f 140/3/85 176/3/85 253/3/85
f 86/2/86 97/2/86 51/2/86
f 89/2/87 86/2/87 7/2/87
f 172/3/88 28/3/88 148/3/88
f 211/3/89 205/3/89 120/3/89
f 154/2/90 120/2/90 205/2/90
f 205/2/91 80/2/91 154/2/91
f 150/2/92 84/2/92 225/2/92
f 118/2/93 206/2/93 111/2/93
f 33/2/94 199/2/94 21/2/94
f 203/2/95 218/2/95 199/2/95
f 228/3/96 42/3/96 162/3/96
f 43/2/97 13/2/97 102/2/97
f 206/3/98 116/3/98 30/3/98
f 6/2/99 15/2/99 31/2/99
f 73/3/100 188/3/100 221/3/100
f 195/2/101 188/2/101 45/2/101
f 163/2/102 223/2/102 15/2/102
f 5/2/103 160/2/103 148/2/103
f 259/2/104 43/2/104 186/2/104
f 36/2/105 139/2/105 33/2/105
f 203/2/106 199/2/106 33/2/106
f 240/2/107 180/2/107 181/2/107
f 117/3/108 34/3/108 126/3/108
f 117/3/109 134/3/109 77/3/109
f 114/3/110 201/3/110 190/3/110
f 94/2/111 76/2/111 248/2/111
f 82/2/112 97/2/112 176/2/112
f 140/3/113 82/3/113 176/3/113
f 110/2/114 256/2/114 35/2/114
f 35/2/115 241/2/115 110/2/115
f 246/3/116 189/3/116 112/3/116
f 348/2/117 336/2/117 342/2/117
f 139/2/118 184/2/118 218/2/118
f 254/2/119 261/2/119 94/2/119
f 193/3/120 129/3/120 142/3/120
f 100/2/121 227/2/121 145/2/121
f 166/2/122 207/2/122 211/2/122
f 127/2/123 239/2/123 184/2/123
f 153/2/124 235/2/124 93/2/124
f 106/2/125 42/2/125 228/2/125
f 183/3/126 135/3/126 153/3/126
f 42/2/127 66/2/127 177/2/127
f 185/3/128 147/3/128 144/3/128
f 135/3/129 183/3/129 39/3/129
f 169/3/130 216/3/130 90/3/130
f 227/3/131 113/3/131 120/3/131
f 182/2/132 111/2/132 206/2/132
f 79/3/133 27/3/133 87/3/133
f 17/3/134 131/3/134 67/3/134
f 170/2/135 171/2/135 165/2/135
f 178/3/136 226/3/136 17/3/136
f 131/3/137 17/3/137 226/3/137
f 193/3/138 58/3/138 169/3/138
f 246/2/139 112/2/139 231/2/139
f 229/2/140 124/2/140 5/2/140
f 93/2/141 60/2/141 219/2/141
f 107/2/142 44/2/142 26/2/142
f 148/3/143 28/3/143 105/3/143
f 80/2/144 49/2/144 109/2/144
f 166/3/145 211/3/145 120/3/145
f 249/2/146 227/2/146 215/2/146
f 208/3/147 124/3/147 105/3/147
f 210/2/148 76/2/148 98/2/148
f 76/3/149 202/3/149 98/3/149
f 248/2/150 8/2/150 254/2/150
f 63/3/151 37/3/151 108/3/151
f 250/2/152 220/2/152 237/2/152
f 154/2/153 100/2/153 145/2/153
f 168/3/154 28/3/154 172/3/154
f 198/2/155 182/2/155 68/2/155
f 90/3/156 115/3/156 129/3/156
f 295/2/157 292/2/157 294/2/157
f 26/2/158 255/2/158 20/2/158
f 109/2/159 49/2/159 113/2/159
f 101/3/160 102/3/160 121/3/160
f 96/3/161 244/3/161 37/3/161
f 48/2/162 45/2/162 73/2/162
f 49/2/163 207/2/163 166/2/163
f 220/2/164 250/2/164 12/2/164
f 12/2/165 214/2/165 220/2/165
f 165/2/166 50/2/166 168/2/166
f 136/2/167 32/2/167 245/2/167
f 245/2/168 32/2/168 48/2/168
f 232/2/169 84/2/169 128/2/169
f 144/2/170 132/2/170 232/2/170
f 240/2/171 252/2/171 180/2/171
f 252/2/172 240/2/172 10/2/172
f 189/2/173 191/2/173 83/2/173
f 179/3/174 38/3/174 79/3/174
f 167/3/175 53/3/175 257/3/175
f 138/3/176 10/3/176 234/3/176
f 196/2/177 14/2/177 54/2/177
f 54/2/178 14/2/178 223/2/178
f 226/3/179 138/3/179 234/3/179
f 29/2/180 55/2/180 69/2/180
f 157/2/181 29/2/181 58/2/181
f 123/2/182 51/2/182 7/2/182
f 81/3/183 174/3/183 107/3/183
f 126/3/184 121/3/184 117/3/184
f 152/2/185 186/2/185 126/2/185
f 44/2/186 78/2/186 24/2/186
f 61/2/187 24/2/187 78/2/187
f 229/2/188 146/2/188 105/2/188
f 254/2/189 8/2/189 57/2/189
f 261/2/190 254/2/190 57/2/190
f 233/3/191 52/3/191 141/3/191
f 138/2/192 180/2/192 252/2/192
f 75/2/193 180/2/193 138/2/193
f 141/3/194 99/3/194 122/3/194
f 105/2/195 124/2/195 229/2/195
f 444/2/196 445/2/196 442/2/196
f 54/2/197 15/2/197 6/2/197
f 144/3/198 232/3/198 187/3/198
f 139/2/199 203/2/199 33/2/199
f 10/3/200 236/3/200 234/3/200
f 36/2/201 217/2/201 127/2/201
f 65/3/202 37/3/202 130/3/202
f 195/2/203 45/2/203 32/2/203
f 64/2/204 47/2/204 53/2/204
f 247/2/205 118/2/205 40/2/205
f 35/2/206 96/2/206 65/2/206
f 65/2/207 96/2/207 37/2/207
f 190/3/208 201/3/208 161/3/208
f 251/2/209 192/2/209 194/2/209
f 253/3/210 161/3/210 140/3/210
f 201/3/211 82/3/211 140/3/211
f 246/2/212 62/2/212 189/2/212
f 224/3/213 135/3/213 39/3/213
f 13/2/214 134/2/214 102/2/214
f 156/2/215 147/2/215 185/2/215
f 92/2/216 247/2/216 242/2/216
f 171/2/217 170/2/217 124/2/217
f 250/2/218 175/2/218 12/2/218
f 192/2/219 231/2/219 70/2/219
f 49/2/220 205/2/220 207/2/220
f 98/2/221 202/2/221 210/2/221
f 71/3/222 187/3/222 59/3/222
f 72/3/223 19/3/223 196/3/223
f 236/2/224 181/2/224 74/2/224
f 191/2/225 251/2/225 83/2/225
f 99/2/226 103/2/226 230/2/226
f 24/2/227 255/2/227 26/2/227
f 151/2/228 93/2/228 219/2/228
f 75/2/229 138/2/229 178/2/229
f 134/3/230 41/3/230 77/3/230
f 115/2/231 157/2/231 209/2/231
f 86/2/232 51/2/232 123/2/232
f 174/2/233 78/2/233 107/2/233
f 215/2/234 80/2/234 109/2/234
f 81/3/235 26/3/235 212/3/235
f 41/3/236 34/3/236 77/3/236
f 244/3/237 256/3/237 108/3/237
f 131/3/238 234/3/238 236/3/238
f 117/3/239 77/3/239 34/3/239
f 160/2/240 5/2/240 170/2/240
f 308/2/241 312/2/241 309/2/241
f 116/3/242 92/3/242 143/3/242
f 10/2/243 181/2/243 236/2/243
f 181/2/244 10/2/244 240/2/244
f 27/2/245 200/2/245 204/2/245
f 200/2/246 25/2/246 204/2/246
f 163/2/247 15/2/247 54/2/247
f 104/3/248 194/3/248 260/3/248
f 112/3/249 260/3/249 194/3/249
f 210/2/250 8/2/250 248/2/250
f 230/2/251 103/2/251 64/2/251
f 40/2/252 182/2/252 198/2/252
f 122/3/253 230/3/253 257/3/253
f 86/2/254 123/2/254 7/2/254
f 157/2/255 55/2/255 29/2/255
f 164/3/256 188/3/256 195/3/256
f 71/3/257 144/3/257 187/3/257
f 65/3/258 130/3/258 63/3/258
f 88/2/259 200/2/259 79/2/259
f 243/2/260 200/2/260 88/2/260
f 217/2/261 239/2/261 127/2/261
f 169/3/262 90/3/262 129/3/262
f 33/2/263 239/2/263 217/2/263
f 36/2/264 33/2/264 217/2/264
f 213/2/265 48/2/265 73/2/265
f 92/2/266 242/2/266 143/2/266
f 151/2/267 153/2/267 93/2/267
f 111/2/268 182/2/268 40/2/268
f 245/2/269 48/2/269 213/2/269
f 136/2/270 245/2/270 23/2/270
f 219/2/271 183/2/271 151/2/271
f 18/2/272 153/2/272 135/2/272
f 161/3/273 201/3/273 140/3/273
f 83/3/274 104/3/274 260/3/274
f 101/3/275 43/3/275 102/3/275
f 64/2/276 103/2/276 47/2/276
f 154/2/277 80/2/277 100/2/277
f 104/2/278 251/2/278 194/2/278
f 91/2/279 42/2/279 106/2/279
f 230/2/280 167/2/280 257/2/280
f 186/2/281 43/2/281 101/2/281
f 51/2/282 190/2/282 7/2/282
f 158/2/283 94/2/283 261/2/283
f 215/2/284 109/2/284 249/2/284
f 109/2/285 113/2/285 249/2/285
f 127/2/286 184/2/286 139/2/286
f 196/2/287 54/2/287 6/2/287
f 198/2/288 247/2/288 40/2/288
f 237/2/289 175/2/289 250/2/289
f 23/3/290 149/3/290 155/3/290
f 114/3/291 51/3/291 82/3/291
f 156/2/292 185/2/292 150/2/292
f 7/2/293 190/2/293 161/2/293
f 125/3/294 161/3/294 253/3/294
f 148/3/295 105/3/295 146/3/295
f 219/3/296 39/3/296 183/3/296
f 118/2/297 116/2/297 206/2/297
f 134/3/298 117/3/298 102/3/298
f 228/3/299 162/3/299 56/3/299
f 118/2/300 92/2/300 116/2/300
f 136/2/301 173/2/301 164/2/301
f 30/2/302 182/2/302 206/2/302
f 126/2/303 186/2/303 121/2/303
f 141/3/304 122/3/304 257/3/304
f 15/2/305 19/2/305 31/2/305
f 31/3/306 19/3/306 72/3/306
f 29/2/307 69/2/307 46/2/307
f 157/2/308 58/2/308 209/2/308
f 223/3/309 14/3/309 19/3/309
f 22/3/310 220/3/310 214/3/310
f 85/2/311 235/2/311 60/2/311
f 37/3/312 63/3/312 130/3/312
f 7/2/313 161/2/313 125/2/313
f 132/2/314 84/2/314 232/2/314
f 220/3/315 22/3/315 237/3/315
f 248/2/316 76/2/316 210/2/316
f 113/2/317 49/2/317 166/2/317
f 76/2/318 261/2/318 202/2/318
f 37/3/319 244/3/319 108/3/319
f 164/2/320 195/2/320 136/2/320
f 27/2/321 79/2/321 200/2/321
f 5/2/322 124/2/322 170/2/322
f 115/2/323 209/2/323 142/2/323
f 30/3/324 143/3/324 68/3/324
f 141/2/325 52/2/325 99/2/325
f 46/2/326 69/2/326 169/2/326
f 183/2/327 153/2/327 151/2/327
f 186/3/328 101/3/328 121/3/328
f 152/2/329 259/2/329 186/2/329
f 225/2/330 132/2/330 156/2/330
f 259/2/331 41/2/331 13/2/331
f 177/2/332 66/2/332 119/2/332
f 66/3/333 197/3/333 119/3/333
f 133/2/334 243/2/334 258/2/334
f 175/2/335 237/2/335 22/2/335
f 62/2/336 231/2/336 192/2/336
f 233/3/337 53/3/337 137/3/337
f 231/2/338 62/2/338 246/2/338
f 238/2/339 36/2/339 127/2/339
f 12/2/340 175/2/340 222/2/340
f 76/2/341 158/2/341 261/2/341
f 95/3/342 179/3/342 87/3/342
f 179/3/343 79/3/343 87/3/343
f 180/2/344 75/2/344 16/2/344
f 159/2/345 22/2/345 9/2/345
f 258/3/346 88/3/346 38/3/346
f 170/2/347 165/2/347 160/2/347
f 230/2/348 64/2/348 167/2/348
f 216/3/349 115/3/349 90/3/349
f 507/2/350 499/2/350 498/2/350
f 74/2/351 16/2/351 67/2/351
f 192/2/352 251/2/352 191/2/352
f 173/2/353 23/2/353 155/2/353
f 235/2/354 85/2/354 93/2/354
f 255/2/355 24/2/355 20/2/355
f 61/3/356 174/3/356 212/3/356
f 39/3/357 219/3/357 60/3/357
f 160/2/358 165/2/358 172/2/358
f 97/2/359 86/2/359 176/2/359
f 177/2/360 162/2/360 42/2/360
f 102/3/361 117/3/361 121/3/361
f 208/3/362 28/3/362 168/3/362
f 185/2/363 71/2/363 59/2/363
f 67/2/364 236/2/364 74/2/364
f 128/3/365 59/3/365 187/3/365
f 192/2/366 191/2/366 62/2/366
f 233/3/367 141/3/367 257/3/367
f 22/3/368 214/3/368 9/3/368
f 195/2/369 32/2/369 136/2/369
f 66/2/370 42/2/370 91/2/370
f 113/3/371 166/3/371 120/3/371
f 178/2/372 138/2/372 226/2/372
f 127/2/373 139/2/373 238/2/373
f 55/2/374 157/2/374 115/2/374
f 227/3/375 120/3/375 145/3/375
f 244/2/376 96/2/376 256/2/376
f 41/2/377 134/2/377 13/2/377
f 118/2/378 111/2/378 40/2/378
f 41/2/379 259/2/379 152/2/379
f 162/3/380 119/3/380 197/3/380
f 168/2/381 50/2/381 171/2/381
f 168/3/382 171/3/382 208/3/382
f 118/2/383 247/2/383 92/2/383
f 149/3/384 73/3/384 221/3/384
f 152/2/385 34/2/385 41/2/385
f 126/2/386 34/2/386 152/2/386
f 254/2/387 94/2/387 248/2/387
f 188/3/388 164/3/388 221/3/388
f 162/3/389 177/3/389 119/3/389
f 198/2/390 68/2/390 242/2/390
f 242/2/391 247/2/391 198/2/391
f 47/2/392 137/2/392 53/2/392
f 110/2/393 108/2/393 256/2/393
f 194/2/394 192/2/394 70/2/394
f 194/2/395 70/2/395 112/2/395
f 221/3/396 164/3/396 155/3/396
f 24/2/397 61/2/397 20/2/397
f 214/2/398 12/2/398 222/2/398
f 208/2/399 171/2/399 124/2/399
f 106/2/400 228/2/400 91/2/400
f 57/2/401 202/2/401 261/2/401
f 259/2/402 13/2/402 43/2/402
f 258/2/403 243/2/403 88/2/403
f 108/3/404 241/3/404 63/3/404
f 230/2/405 122/2/405 99/2/405
f 38/3/406 179/3/406 95/3/406
f 25/2/407 243/2/407 133/2/407
f 213/2/408 23/2/408 245/2/408
f 97/2/409 82/2/409 51/2/409
f 99/2/410 52/2/410 137/2/410
f 216/3/411 55/3/411 115/3/411
f 32/2/412 45/2/412 48/2/412
f 222/2/413 159/2/413 9/2/413
f 53/3/414 167/3/414 64/3/414
f 163/2/415 54/2/415 223/2/415
f 212/3/416 174/3/416 81/3/416
f 10/2/417 138/2/417 252/2/417
f 145/2/418 120/2/418 154/2/418
f 89/2/419 253/2/419 86/2/419
f 25/2/420 95/2/420 204/2/420
f 8/2/421 210/2/421 202/2/421
f 200/2/422 243/2/422 25/2/422
f 85/2/423 60/2/423 93/2/423
f 23/2/424 213/2/424 149/2/424
f 29/2/425 46/2/425 169/2/425
f 75/2/426 178/2/426 16/2/426
f 256/2/427 96/2/427 35/2/427
f 38/2/428 133/2/428 258/2/428
f 273/3/429 264/3/429 272/3/429
f 268/2/430 269/2/430 264/2/430
f 271/3/431 268/3/431 264/3/431
f 263/2/432 268/2/432 271/2/432
f 263/3/433 271/3/433 266/3/433
f 269/2/434 272/2/434 264/2/434
f 262/2/435 265/2/435 267/2/435
f 271/3/436 273/3/436 266/3/436
f 273/3/437 271/3/437 264/3/437
f 267/2/438 268/2/438 263/2/438
f 269/2/439 265/2/439 262/2/439
f 265/2/440 268/2/440 267/2/440
f 266/3/441 272/3/441 270/3/441
f 267/2/442 263/2/442 266/2/442
f 266/3/443 273/3/443 272/3/443
f 262/2/444 267/2/444 266/2/444
f 266/3/445 270/3/445 262/3/445
f 262/2/446 272/2/446 269/2/446
f 270/3/447 272/3/447 262/3/447
f 278/3/448 279/3/448 280/3/448
f 275/2/449 286/2/449 276/2/449
f 285/2/450 284/2/450 281/2/450
f 283/2/451 282/2/451 279/2/451
f 277/3/452 279/3/452 278/3/452
f 277/2/453 278/2/453 276/2/453
f 276/2/454 278/2/454 274/2/454
f 278/3/455 280/3/455 274/3/455
f 286/2/456 281/2/456 277/2/456
f 276/2/457 286/2/457 277/2/457
f 282/2/458 284/2/458 285/2/458
f 277/2/459 281/2/459 279/2/459
f 281/2/460 283/2/460 279/2/460
f 274/2/461 280/2/461 275/2/461
f 279/3/462 282/3/462 280/3/462
f 280/3/463 282/3/463 275/3/463
f 283/2/464 284/2/464 282/2/464
f 285/2/465 275/2/465 282/2/465
f 276/2/466 274/2/466 275/2/466
f 283/2/467 281/2/467 284/2/467
f 285/2/468 286/2/468 275/2/468
f 285/2/469 281/2/469 286/2/469
f 293/2/470 295/2/470 288/2/470
f 296/2/471 297/2/471 298/2/471
f 291/2/472 289/2/472 292/2/472
f 299/3/473 288/3/473 287/3/473
f 292/2/474 289/2/474 298/2/474
f 291/2/475 295/2/475 290/2/475
f 294/2/476 292/2/476 298/2/476
f 297/2/477 294/2/477 298/2/477
f 291/3/478 290/3/478 299/3/478
f 292/2/479 295/2/479 291/2/479
f 293/3/480 299/3/480 290/3/480
f 289/2/481 291/2/481 299/2/481
f 298/2/482 289/2/482 296/2/482
f 299/3/483 293/3/483 288/3/483
f 294/2/484 287/2/484 288/2/484
f 294/2/485 288/2/485 295/2/485
f 289/2/486 299/2/486 296/2/486
f 290/3/487 295/3/487 293/3/487
f 297/2/488 287/2/488 294/2/488
f 296/2/489 287/2/489 297/2/489
f 296/2/490 299/2/490 287/2/490
f 59/2/491 84/2/491 150/2/491
f 306/3/492 303/3/492 301/3/492
f 300/2/493 303/2/493 305/2/493
f 308/2/494 304/2/494 310/2/494
f 305/2/495 308/2/495 302/2/495
f 312/2/496 308/2/496 310/2/496
f 311/3/497 301/3/497 303/3/497
f 305/2/498 302/2/498 300/2/498
f 302/2/499 308/2/499 300/2/499
f 303/2/500 304/2/500 305/2/500
f 304/2/501 308/2/501 305/2/501
f 309/2/502 307/2/502 308/2/502
f 309/3/503 301/3/503 307/3/503
f 301/3/504 309/3/504 306/3/504
f 306/2/505 310/2/505 304/2/505
f 300/3/506 311/3/506 303/3/506
f 306/2/507 304/2/507 303/2/507
f 300/2/508 308/2/508 307/2/508
f 311/3/509 307/3/509 301/3/509
f 307/3/510 311/3/510 300/3/510
f 312/2/511 310/2/511 309/2/511
f 310/3/512 306/3/512 309/3/512
f 313/2/513 321/2/513 315/2/513
f 318/3/514 317/3/514 315/3/514
f 322/2/515 321/2/515 320/2/515
f 319/3/516 320/3/516 313/3/516
f 320/3/517 319/3/517 314/3/517
f 319/3/518 313/3/518 317/3/518
f 314/3/519 322/3/519 320/3/519
f 320/3/520 321/3/520 313/3/520
f 318/2/521 315/2/521 316/2/521
f 315/2/522 321/2/522 316/2/522
f 322/2/523 316/2/523 321/2/523
f 317/2/524 313/2/524 315/2/524
f 319/3/525 317/3/525 318/3/525
f 316/3/526 319/3/526 318/3/526
f 314/2/527 319/2/527 316/2/527
f 322/2/528 314/2/528 316/2/528
f 335/2/529 334/2/529 328/2/529
f 331/3/530 334/3/530 330/3/530
f 335/3/531 327/3/531 334/3/531
f 335/2/532 329/2/532 333/2/532
f 328/2/533 334/2/533 331/2/533
f 323/2/534 325/2/534 331/2/534
f 329/2/535 331/2/535 325/2/535
f 325/2/536 326/2/536 333/2/536
f 325/2/537 323/2/537 324/2/537
f 331/3/538 332/3/538 323/3/538
f 325/2/539 324/2/539 326/2/539
f 323/3/540 332/3/540 330/3/540
f 329/2/541 335/2/541 328/2/541
f 333/2/542 329/2/542 325/2/542
f 330/3/543 334/3/543 327/3/543
f 324/2/544 323/2/544 330/2/544
f 332/3/545 331/3/545 330/3/545
f 330/2/546 327/2/546 326/2/546
f 331/2/547 329/2/547 328/2/547
f 324/2/548 330/2/548 326/2/548
f 335/2/549 333/2/549 326/2/549
f 335/2/550 326/2/550 327/2/550
f 348/2/551 337/2/551 346/2/551
f 346/2/552 341/2/552 348/2/552
f 338/2/553 343/2/553 346/2/553
f 345/3/554 349/3/554 347/3/554
f 339/2/555 338/2/555 340/2/555
f 336/2/556 345/2/556 342/2/556
f 342/2/557 340/2/557 337/2/557
f 343/2/558 341/2/558 346/2/558
f 341/2/559 339/2/559 350/2/559
f 339/2/560 343/2/560 338/2/560
f 343/2/561 339/2/561 341/2/561
f 337/2/562 340/2/562 338/2/562
f 336/2/563 349/2/563 345/2/563
f 348/3/564 349/3/564 344/3/564
f 348/3/565 341/3/565 350/3/565
f 337/2/566 338/2/566 346/2/566
f 350/2/567 339/2/567 347/2/567
f 347/2/568 339/2/568 345/2/568
f 339/2/569 340/2/569 345/2/569
f 340/2/570 342/2/570 345/2/570
f 336/3/571 344/3/571 349/3/571
f 349/3/572 348/3/572 350/3/572
f 342/2/573 337/2/573 348/2/573
f 350/3/574 347/3/574 349/3/574
f 361/3/575 364/3/575 354/3/575
f 362/2/576 357/2/576 359/2/576
f 354/3/577 364/3/577 356/3/577
f 362/2/578 352/2/578 357/2/578
f 358/2/579 362/2/579 359/2/579
f 363/2/580 365/2/580 358/2/580
f 352/2/581 362/2/581 365/2/581
f 365/2/582 362/2/582 358/2/582
f 361/3/583 352/3/583 353/3/583
f 361/2/584 357/2/584 360/2/584
f 356/3/585 364/3/585 353/3/585
f 363/3/586 355/3/586 356/3/586
f 365/2/587 363/2/587 356/2/587
f 353/2/588 352/2/588 365/2/588
f 354/3/589 356/3/589 355/3/589
f 357/2/590 354/2/590 359/2/590
f 353/2/591 365/2/591 356/2/591
f 359/2/592 351/2/592 358/2/592
f 358/2/593 355/2/593 363/2/593
f 358/3/594 351/3/594 355/3/594
f 359/2/595 354/2/595 351/2/595
f 352/2/596 360/2/596 357/2/596
f 357/3/597 361/3/597 354/3/597
f 355/3/598 351/3/598 354/3/598
f 360/2/599 352/2/599 361/2/599
f 361/3/600 353/3/600 364/3/600
f 366/2/601 377/2/601 368/2/601
f 366/3/602 368/3/602 374/3/602
f 379/2/603 367/2/603 369/2/603
f 380/3/604 376/3/604 370/3/604
f 367/3/605 371/3/605 369/3/605
f 371/2/606 367/2/606 372/2/606
f 379/2/607 372/2/607 367/2/607
f 376/2/608 377/2/608 379/2/608
f 376/3/609 371/3/609 370/3/609
f 373/2/610 378/2/610 366/2/610
f 377/2/611 378/2/611 379/2/611
f 379/3/612 369/3/612 376/3/612
f 372/2/613 373/2/613 375/2/613
f 372/2/614 378/2/614 373/2/614
f 377/2/615 366/2/615 378/2/615
f 374/3/616 380/3/616 370/3/616
f 368/3/617 380/3/617 374/3/617
f 375/3/618 370/3/618 371/3/618
f 375/2/619 371/2/619 372/2/619
f 374/3/620 370/3/620 375/3/620
f 377/3/621 376/3/621 368/3/621
f 376/3/622 380/3/622 368/3/622
f 376/3/623 369/3/623 371/3/623
f 372/2/624 379/2/624 378/2/624
f 373/2/625 366/2/625 374/2/625
f 375/3/626 373/3/626 374/3/626
f 395/2/627 383/2/627 390/2/627
f 394/2/628 385/2/628 395/2/628
f 383/2/629 389/2/629 390/2/629
f 392/2/630 381/2/630 393/2/630
f 383/3/631 381/3/631 391/3/631
f 387/2/632 382/2/632 385/2/632
f 394/2/633 384/2/633 385/2/633
f 384/2/634 387/2/634 385/2/634
f 393/3/635 381/3/635 383/3/635
f 386/2/636 388/2/636 381/2/636
f 382/3/637 393/3/637 395/3/637
f 390/2/638 389/2/638 386/2/638
f 390/2/639 384/2/639 394/2/639
f 385/3/640 382/3/640 395/3/640
f 389/3/641 383/3/641 388/3/641
f 386/2/642 389/2/642 388/2/642
f 390/2/643 394/2/643 395/2/643
f 386/2/644 384/2/644 390/2/644
f 381/3/645 388/3/645 391/3/645
f 381/2/646 392/2/646 386/2/646
f 388/3/647 383/3/647 391/3/647
f 384/2/648 392/2/648 387/2/648
f 387/2/649 392/2/649 382/2/649
f 386/2/650 392/2/650 384/2/650
f 392/3/651 393/3/651 382/3/651
f 393/3/652 383/3/652 395/3/652
f 398/3/653 408/3/653 397/3/653
f 410/2/654 405/2/654 399/2/654
f 398/3/655 396/3/655 408/3/655
f 405/3/656 407/3/656 408/3/656
f 400/2/657 409/2/657 406/2/657
f 402/2/658 406/2/658 397/2/658
f 406/2/659 401/2/659 398/2/659
f 402/2/660 403/2/660 404/2/660
f 403/2/661 402/2/661 397/2/661
f 396/2/662 405/2/662 408/2/662
f 403/2/663 407/2/663 410/2/663
f 410/2/664 399/2/664 404/2/664
f 409/2/665 401/2/665 406/2/665
f 407/2/666 405/2/666 410/2/666
f 404/2/667 399/2/667 400/2/667
f 404/2/668 400/2/668 402/2/668
f 401/2/669 396/2/669 398/2/669
f 408/3/670 407/3/670 403/3/670
f 397/2/671 408/2/671 403/2/671
f 399/2/672 401/2/672 409/2/672
f 400/2/673 406/2/673 402/2/673
f 398/2/674 397/2/674 406/2/674
f 403/2/675 410/2/675 404/2/675
f 399/2/676 409/2/676 400/2/676
f 399/2/677 405/2/677 396/2/677
f 399/2/678 396/2/678 401/2/678
f 423/3/679 416/3/679 421/3/679
f 414/3/680 423/3/680 420/3/680
f 417/3/681 421/3/681 418/3/681
f 419/3/682 417/3/682 418/3/682
f 415/2/683 411/2/683 413/2/683
f 421/3/684 414/3/684 420/3/684
f 421/2/685 417/2/685 414/2/685
f 414/2/686 417/2/686 411/2/686
f 413/2/687 412/2/687 415/2/687
f 416/3/688 419/3/688 421/3/688
f 415/2/689 423/2/689 414/2/689
f 415/2/690 412/2/690 423/2/690
f 421/3/691 420/3/691 423/3/691
f 413/2/692 422/2/692 412/2/692
f 422/2/693 416/2/693 412/2/693
f 417/2/694 413/2/694 411/2/694
f 412/3/695 416/3/695 423/3/695
f 414/2/696 411/2/696 415/2/696
f 422/2/697 417/2/697 419/2/697
f 421/3/698 419/3/698 418/3/698
f 417/2/699 422/2/699 413/2/699
f 416/3/700 422/3/700 419/3/700
f 426/2/701 435/2/701 436/2/701
f 426/2/702 434/2/702 435/2/702
f 427/3/703 425/3/703 430/3/703
f 434/2/704 426/2/704 427/2/704
f 431/3/705 430/3/705 432/3/705
f 424/2/706 431/2/706 429/2/706
f 430/3/707 425/3/707 432/3/707
f 435/2/708 433/2/708 431/2/708
f 431/2/709 433/2/709 430/2/709
f 426/2/710 436/2/710 424/2/710
f 428/3/711 434/3/711 427/3/711
f 424/2/712 436/2/712 431/2/712
f 435/2/713 434/2/713 433/2/713
f 429/3/714 425/3/714 427/3/714
f 430/3/715 428/3/715 427/3/715
f 431/3/716 432/3/716 429/3/716
f 436/2/717 435/2/717 431/2/717
f 429/2/718 427/2/718 424/2/718
f 432/3/719 425/3/719 429/3/719
f 426/2/720 424/2/720 427/2/720
f 428/3/721 430/3/721 434/3/721
f 430/3/722 433/3/722 434/3/722
f 438/3/723 448/3/723 447/3/723
f 447/3/724 439/3/724 438/3/724
f 445/3/725 446/3/725 440/3/725
f 443/2/726 450/2/726 437/2/726
f 448/3/727 440/3/727 447/3/727
f 447/3/728 440/3/728 439/3/728
f 446/3/729 439/3/729 440/3/729
f 438/2/730 443/2/730 437/2/730
f 442/2/731 443/2/731 441/2/731
f 443/2/732 442/2/732 450/2/732
f 443/3/733 438/3/733 441/3/733
f 438/3/734 449/3/734 441/3/734
f 445/2/735 450/2/735 442/2/735
f 449/3/736 438/3/736 439/3/736
f 444/2/737 446/2/737 445/2/737
f 444/2/738 442/2/738 449/2/738
f 442/3/739 441/3/739 449/3/739
f 450/2/740 445/2/740 448/2/740
f 450/2/741 448/2/741 437/2/741
f 449/3/742 439/3/742 446/3/742
f 440/3/743 448/3/743 445/3/743
f 444/2/744 449/2/744 446/2/744
f 438/3/745 437/3/745 448/3/745
f 452/2/746 462/2/746 458/2/746
f 18/2/747 224/2/747 235/2/747
f 461/2/748 459/2/748 454/2/748
f 452/2/749 455/2/749 462/2/749
f 456/2/750 458/2/750 453/2/750
f 461/2/751 454/2/751 451/2/751
f 461/3/752 453/3/752 459/3/752
f 457/3/753 453/3/753 462/3/753
f 460/3/754 457/3/754 455/3/754
f 460/3/755 455/3/755 451/3/755
f 451/2/756 455/2/756 452/2/756
f 452/2/757 461/2/757 451/2/757
f 462/3/758 455/3/758 457/3/758
f 451/2/759 454/2/759 460/2/759
f 452/2/760 458/2/760 456/2/760
f 461/2/761 452/2/761 456/2/761
f 457/3/762 459/3/762 453/3/762
f 453/2/763 461/2/763 456/2/763
f 459/3/764 460/3/764 454/3/764
f 458/3/765 462/3/765 453/3/765
f 470/2/766 466/2/766 463/2/766
f 464/2/767 467/2/767 468/2/767
f 469/2/768 471/2/768 464/2/768
f 466/2/769 471/2/769 465/2/769
f 472/2/770 466/2/770 465/2/770
f 470/2/771 467/2/771 464/2/771
f 463/3/772 472/3/772 473/3/772
f 464/2/773 471/2/773 470/2/773
f 466/2/774 470/2/774 471/2/774
f 467/3/775 470/3/775 463/3/775
f 472/2/776 465/2/776 469/2/776
f 463/3/777 473/3/777 468/3/777
f 467/3/778 463/3/778 468/3/778
f 466/2/779 472/2/779 463/2/779
f 471/2/780 469/2/780 465/2/780
f 469/2/781 464/2/781 468/2/781
f 472/2/782 469/2/782 473/2/782
f 484/2/783 481/2/783 483/2/783
f 485/2/784 479/2/784 477/2/784
f 479/2/785 485/2/785 483/2/785
f 481/3/786 484/3/786 475/3/786
f 474/3/787 482/3/787 476/3/787
f 485/2/788 484/2/788 483/2/788
f 485/2/789 478/2/789 484/2/789
f 482/3/790 481/3/790 475/3/790
f 484/2/791 478/2/791 475/2/791
f 476/3/792 482/3/792 477/3/792
f 480/2/793 479/2/793 483/2/793
f 485/2/794 477/2/794 482/2/794
f 483/3/795 481/3/795 474/3/795
f 474/2/796 477/2/796 480/2/796
f 474/2/797 480/2/797 483/2/797
f 481/3/798 482/3/798 474/3/798
f 482/2/799 478/2/799 485/2/799
f 474/3/800 476/3/800 477/3/800
f 490/3/801 489/3/801 487/3/801
f 491/2/802 489/2/802 490/2/802
f 496/2/803 490/2/803 495/2/803
f 496/2/804 495/2/804 494/2/804
f 486/2/805 489/2/805 491/2/805
f 493/2/806 491/2/806 490/2/806
f 493/2/807 490/2/807 496/2/807
f 486/2/808 491/2/808 493/2/808
f 488/2/809 486/2/809 493/2/809
f 487/3/810 492/3/810 488/3/810
f 489/2/811 486/2/811 492/2/811
f 492/3/812 486/3/812 488/3/812
f 497/3/813 495/3/813 487/3/813
f 495/3/814 497/3/814 494/3/814
f 494/2/815 488/2/815 493/2/815
f 497/3/816 487/3/816 488/3/816
f 496/2/817 494/2/817 493/2/817
f 490/3/818 487/3/818 495/3/818
f 487/3/819 489/3/819 492/3/819
f 488/2/820 494/2/820 497/2/820
f 501/3/821 502/3/821 503/3/821
f 506/3/822 501/3/822 503/3/822
f 505/3/823 503/3/823 502/3/823
f 507/2/824 498/2/824 504/2/824
f 506/2/825 503/2/825 507/2/825
f 500/3/826 505/3/826 502/3/826
f 506/2/827 504/2/827 501/2/827
f 498/2/828 501/2/828 504/2/828
f 499/2/829 500/2/829 508/2/829
f 508/2/830 500/2/830 502/2/830
f 498/2/831 499/2/831 508/2/831
f 504/2/832 506/2/832 507/2/832
f 501/3/833 508/3/833 502/3/833
f 498/2/834 508/2/834 501/2/834
f 511/3/835 512/3/835 509/3/835
f 505/2/836 507/2/836 503/2/836
f 518/2/837 515/2/837 514/2/837
f 516/2/838 517/2/838 509/2/838
f 515/3/839 516/3/839 510/3/839
f 515/3/840 513/3/840 516/3/840
f 510/3/841 514/3/841 515/3/841
f 516/3/842 509/3/842 510/3/842
f 518/2/843 513/2/843 515/2/843
f 519/2/844 512/2/844 511/2/844
f 519/2/845 514/2/845 512/2/845
f 514/3/846 510/3/846 512/3/846
f 511/2/847 518/2/847 519/2/847
f 509/2/848 517/2/848 511/2/848
f 512/3/849 510/3/849 509/3/849
f 517/2/850 513/2/850 511/2/850
f 513/2/851 517/2/851 516/2/851
f 513/2/852 518/2/852 511/2/852
f 4/1/1 2/1/1 1/1/1
f 110/2/853 241/2/853 108/2/853
f 5/2/854 148/2/854 146/2/854
f 348/2/855 344/2/855 336/2/855
f 100/2/856 215/2/856 227/2/856
f 150/2/857 185/2/857 59/2/857
f 76/2/858 94/2/858 158/2/858
f 475/3/859 478/3/859 482/3/859
f 99/2/860 137/2/860 103/2/860
f 507/2/861 500/2/861 499/2/861
f 469/2/862 468/2/862 473/2/862
f 514/2/863 519/2/863 518/2/863
f 59/2/864 128/2/864 84/2/864
f 222/2/865 9/2/865 214/2/865
f 60/2/866 224/2/866 39/2/866
f 18/2/867 135/2/867 224/2/867
f 238/2/868 139/2/868 36/2/868
f 211/2/869 207/2/869 205/2/869
f 460/3/870 459/3/870 457/3/870
f 505/2/871 500/2/871 507/2/871
