# Blender 5.2.2 LTS
# www.blender.org
mtllib ruins_find_order.mtl
o piece
v 0.063635 0.152902 -0.016503
v -0.063635 0.152902 -0.016503
v 0.037856 0.200222 -0.016532
v -0.037857 0.200222 -0.016532
v 0.037856 0.200222 -0.006977
v -0.037857 0.200222 -0.006977
v 0.063635 0.152902 0.002097
v -0.063635 0.152902 0.002097
v 0.037856 0.186615 -0.016532
v -0.037857 0.186615 -0.016532
v -0.037857 0.186615 -0.006977
v 0.037856 0.186615 -0.006977
v 0.063635 0.180013 -0.016503
v -0.063635 0.180013 -0.016503
v -0.063635 0.180013 0.002097
v 0.063635 0.180013 0.002097
v 0.010199 0.200222 -0.016532
v -0.010199 0.200222 -0.016532
v 0.010199 0.200222 -0.006977
v -0.010199 0.200222 -0.006977
v 0.010199 0.211606 -0.006977
v 0.010199 0.211606 -0.016532
v -0.010199 0.211606 -0.016532
v -0.010199 0.211606 -0.006977
v 0.005268 0.216105 -0.006977
v 0.005268 0.216105 -0.016532
v -0.005267 0.216105 -0.016532
v -0.005267 0.216105 -0.006977
v -0.106844 -0.160299 0.024786
v 0.125240 -0.141226 0.023823
v 0.116389 0.169414 -0.005491
v -0.116389 0.169414 -0.005491
v -0.118623 -0.179290 -0.014503
v 0.118623 -0.179290 -0.014503
v 0.118623 0.172446 -0.014503
v -0.118623 0.172446 -0.014503
v -0.137893 -0.216105 -0.024786
v 0.137893 -0.216105 -0.024786
v 0.137893 -0.216105 -0.014503
v -0.137893 -0.216105 -0.014503
v 0.137893 0.200836 -0.024786
v 0.137893 0.200836 -0.014503
v -0.137893 0.200836 -0.024786
v -0.137893 0.200836 -0.014503
v -0.116389 0.011447 -0.005491
v 0.116389 0.027115 -0.005491
v -0.117506 -0.177774 -0.005311
v 0.117506 -0.177774 -0.005311
v 0.125993 -0.144150 0.017116
v -0.107204 -0.163315 0.018084
v -0.117226 -0.064485 -0.003774
v 0.117226 -0.064485 -0.003774
vn -0.0000 -0.0000 -1.0000
vn -0.0000 1.0000 -0.0000
vn -0.0000 -0.0000 1.0000
vn -0.0000 -1.0000 -0.0000
vn -1.0000 -0.0000 -0.0000
vn 1.0000 -0.0000 -0.0000
vn -0.0000 -0.0043 -1.0000
vn -0.2481 0.9687 -0.0000
vn -0.0000 0.8086 0.5883
vn 0.2481 0.9687 -0.0000
vn 0.6740 0.7387 -0.0000
vn -0.6740 0.7387 -0.0000
vn -0.0000 -0.2160 -0.9764
vn 0.9631 0.0038 -0.2692
vn -0.0000 0.9478 0.3189
vn -0.9706 -0.0000 0.2406
vn -0.0101 0.1731 0.9849
vn -0.0000 -0.9867 0.1627
vn 0.0765 -0.9108 0.4057
vn -0.0000 -0.0136 0.9999
vn 0.9706 -0.0000 0.2406
vn -0.9174 0.0191 0.3975
vn 0.0167 -0.2519 -0.9676
vn 0.9906 0.1240 0.0572
vn -0.9927 0.0008 0.1205
vn -0.9999 0.0112 0.0099
vn -0.0115 0.1710 0.9852
vn 0.9996 0.0096 0.0270
vn 0.9927 0.0008 0.1205
vn -0.9927 -0.0808 0.0897
vt 0.375000 0.875000
vt 0.875000 0.625000
vt 0.125000 0.375000
vt 0.375000 0.375000
vt 0.125000 0.625000
s 0
usemtl ruins_find_order
f 10/1/1 18/1/1 17/1/1
f 26/1/2 28/1/2 25/1/2
f 20/1/3 11/1/3 12/1/3
f 8/1/4 1/1/4 7/1/4
f 10/1/5 6/1/5 4/1/5
f 9/1/6 5/1/6 12/1/6
f 14/1/7 9/1/7 13/1/7
f 14/1/8 11/1/8 10/1/8
f 12/1/9 15/1/9 16/1/9
f 13/1/10 12/1/10 16/1/10
f 2/1/1 13/1/1 1/1/1
f 8/1/5 14/1/5 2/1/5
f 15/1/3 7/1/3 16/1/3
f 7/1/6 13/1/6 16/1/6
f 18/1/2 6/1/2 20/1/2
f 17/1/2 5/1/2 3/1/2
f 17/1/6 21/1/6 19/1/6
f 18/1/1 22/1/1 17/1/1
f 20/1/5 23/1/5 18/1/5
f 19/1/3 24/1/3 20/1/3
f 22/1/11 25/1/11 21/1/11
f 22/1/1 27/1/1 26/1/1
f 24/1/12 27/1/12 23/1/12
f 21/1/3 28/1/3 24/1/3
f 46/2/3 32/2/3 45/2/3
f 52/3/13 50/3/13 51/3/13
f 30/3/14 52/3/14 46/3/14
f 36/4/15 31/4/15 35/4/15
f 45/4/16 36/4/16 33/4/16
f 38/5/4 40/5/4 37/5/4
f 41/5/6 39/5/6 38/5/6
f 43/5/2 42/5/2 41/5/2
f 37/5/5 44/5/5 43/5/5
f 34/5/3 40/5/3 39/5/3
f 34/5/3 42/5/3 35/5/3
f 36/5/3 42/5/3 44/5/3
f 38/5/1 43/5/1 41/5/1
f 33/5/3 44/5/3 40/5/3
f 30/1/17 45/1/17 29/1/17
f 34/3/18 47/3/18 33/3/18
f 49/3/19 29/3/19 50/3/19
f 48/3/20 51/3/20 47/3/20
f 35/3/21 31/3/21 46/3/21
f 51/2/22 29/2/22 45/2/22
f 3/1/1 9/1/1 17/1/1
f 9/1/1 10/1/1 17/1/1
f 10/1/1 4/1/1 18/1/1
f 26/1/2 27/1/2 28/1/2
f 12/1/3 5/1/3 19/1/3
f 20/1/3 6/1/3 11/1/3
f 12/1/3 19/1/3 20/1/3
f 8/1/4 2/1/4 1/1/4
f 10/1/5 11/1/5 6/1/5
f 9/1/6 3/1/6 5/1/6
f 14/1/7 10/1/7 9/1/7
f 14/1/8 15/1/8 11/1/8
f 12/1/9 11/1/9 15/1/9
f 13/1/10 9/1/10 12/1/10
f 2/1/1 14/1/1 13/1/1
f 8/1/5 15/1/5 14/1/5
f 15/1/3 8/1/3 7/1/3
f 7/1/6 1/1/6 13/1/6
f 18/1/2 4/1/2 6/1/2
f 17/1/2 19/1/2 5/1/2
f 17/1/6 22/1/6 21/1/6
f 18/1/1 23/1/1 22/1/1
f 20/1/5 24/1/5 23/1/5
f 19/1/3 21/1/3 24/1/3
f 22/1/11 26/1/11 25/1/11
f 22/1/1 23/1/1 27/1/1
f 24/1/12 28/1/12 27/1/12
f 21/1/3 25/1/3 28/1/3
f 46/2/3 31/2/3 32/2/3
f 52/3/23 49/3/23 50/3/23
f 30/3/24 49/3/24 52/3/24
f 36/4/15 32/4/15 31/4/15
f 33/4/25 47/4/25 51/4/25
f 45/4/16 32/4/16 36/4/16
f 33/4/26 51/4/26 45/4/26
f 38/5/4 39/5/4 40/5/4
f 41/5/6 42/5/6 39/5/6
f 43/5/2 44/5/2 42/5/2
f 37/5/5 40/5/5 44/5/5
f 34/5/3 33/5/3 40/5/3
f 34/5/3 39/5/3 42/5/3
f 36/5/3 35/5/3 42/5/3
f 38/5/1 37/5/1 43/5/1
f 33/5/3 36/5/3 44/5/3
f 30/1/27 46/1/27 45/1/27
f 34/3/18 48/3/18 47/3/18
f 49/3/19 30/3/19 29/3/19
f 48/3/20 52/3/20 51/3/20
f 46/3/28 52/3/28 34/3/28
f 52/3/29 48/3/29 34/3/29
f 34/3/21 35/3/21 46/3/21
f 51/2/30 50/2/30 29/2/30
