# Blender 5.2.2 LTS
# www.blender.org
mtllib ruins_cv_trim_a.mtl
o piece
v -1.339718 -0.205343 0.724085
v -1.184376 -0.233278 0.898937
v -1.272439 -0.098829 0.724582
v -1.114373 -0.147168 0.769092
v -1.064861 -0.227257 0.806398
v -1.347018 -0.146791 0.700872
v -1.215582 -0.136623 0.611080
v -1.058760 -0.221957 0.696537
v -1.142224 -0.099582 0.698239
v -1.266872 -0.135463 0.847954
v -1.213573 -0.199805 0.624383
v -1.269676 -0.247742 0.852455
v -1.516172 0.065290 -0.034982
v -1.298051 0.123919 0.011909
v -1.475558 0.159170 -0.059863
v -1.501839 0.119342 -0.146123
v -1.299724 0.136065 -0.083334
v -1.278536 0.091097 -0.075287
v -1.549560 0.099710 -0.058078
v -1.380131 0.067158 0.020249
v -1.341282 0.078945 -0.137203
v -1.413602 0.126693 0.006635
v -1.493888 0.054244 -0.127131
v -0.201749 -0.247312 -0.003991
v -0.079088 -0.203658 -0.007586
v -0.197643 -0.147654 -0.033190
v -0.149551 -0.136404 -0.093139
v -0.207094 -0.247312 -0.089386
v -0.079059 -0.205033 -0.088049
v -0.221952 -0.196342 -0.009233
v -0.217868 -0.191652 -0.092231
v -0.123118 -0.247312 0.013952
v -0.140998 -0.145118 0.002135
v -0.161026 -0.247312 -0.101531
v -0.121016 -0.224586 -0.126590
v -0.120152 -0.247312 -0.056677
v -2.026301 -0.151212 -0.362754
v -1.708948 -0.247312 -0.472870
v -1.713426 -0.247312 -0.630116
v -1.673716 -0.221073 -0.542253
v -2.045194 -0.189948 -0.760536
v -1.683200 -0.156636 -0.546095
v -2.044895 -0.247312 -0.241576
v -2.045107 -0.162796 -0.478902
v -2.087064 -0.212472 -0.283224
v -2.056331 -0.247312 -0.794663
v -2.174333 -0.202530 -0.714662
v -2.198677 -0.245839 -0.297180
v -2.185479 -0.247312 -0.748790
v -2.243817 -0.245099 -0.442041
v -2.086794 -0.210382 -0.449913
v -2.413321 -0.247312 -0.212211
v -2.308553 -0.219688 -0.219643
v -2.428640 -0.193770 -0.226285
v -2.372458 -0.159977 -0.313056
v -2.420297 -0.248017 -0.321829
v -2.345623 -0.247312 -0.190799
v -2.329807 -0.224607 -0.355808
v -2.360971 -0.172502 -0.202255
v -2.343276 -0.246937 -0.349491
v -2.175799 -0.247312 -0.053970
v -1.864628 -0.168426 -0.061089
v -2.131698 -0.110190 -0.116094
v -1.906486 -0.132200 -0.205735
v -2.166468 -0.247312 -0.221208
v -1.844305 -0.192999 -0.213018
v -2.201710 -0.176094 -0.069142
v -2.174494 -0.177057 -0.230411
v -1.976460 -0.247312 -0.018745
v -1.980806 -0.247417 -0.296701
v -2.032439 -0.096196 -0.236903
v -2.027220 -0.152179 -0.020696
v -1.947929 -0.166504 -0.316143
v -1.901883 -0.247312 -0.162689
v -1.996789 -0.106303 -0.142722
v -0.727231 -0.247312 -0.651237
v -1.042389 -0.247487 -0.892080
v -0.976601 -0.247312 -0.418340
v -1.205986 -0.247294 -0.743295
v -0.623348 -0.247312 -0.368965
v -0.774158 -0.247312 -0.231584
v -0.786152 -0.117643 -0.226586
v -0.649544 -0.123621 -0.350472
v -1.034027 -0.083396 -0.450539
v -0.922689 -0.069756 -0.534887
v -1.190581 -0.229173 -0.609048
v -0.677301 -0.130971 -0.561482
v -0.670907 -0.153097 -0.096965
v -0.621097 -0.247312 -0.300170
v -0.684586 -0.247312 -0.016051
v -0.524467 -0.247312 0.040092
v -0.446928 -0.247312 -0.457743
v -0.292735 -0.247312 -0.403675
v -0.516957 0.017955 -0.200054
v -0.291833 -0.026386 -0.403818
v -0.418517 -0.035059 -0.448852
v -0.404088 0.041589 -0.187588
v -0.450234 0.032729 -0.297968
v -0.431842 -0.247133 -0.025278
v -0.432871 -0.154790 -0.015405
v -0.577176 -0.067614 -0.366381
v -0.561543 -0.151511 -0.020058
v -0.305946 -0.081742 -0.239540
v -1.833012 -0.247312 -0.126280
v -1.903039 -0.085454 -0.192917
v -1.826638 -0.247312 -0.270727
v -1.384999 -0.247312 0.266898
v -1.318096 0.211141 0.232788
v -0.972265 0.211141 0.117260
v -1.317218 -0.155584 0.399458
v -1.048243 -0.000334 0.607760
v -1.207180 -0.247312 0.330673
v -1.004753 0.257344 0.487687
v -1.596038 -0.247312 -0.505573
v -1.903039 0.022028 -0.192917
v -1.629507 -0.040301 -0.471490
v -1.048533 -0.155746 0.620166
v -1.156116 -0.247312 0.470133
v -0.958804 -0.247312 0.528784
v -1.392224 0.132892 0.266886
v -0.958077 0.132892 0.050962
v -1.309025 0.147286 0.120861
v -1.324865 0.002930 -0.407199
v -0.784220 0.062676 -0.087664
v -0.829556 0.179721 0.170043
v -0.817105 -0.247312 0.384477
v -0.760554 -0.247312 -0.047496
v -0.953091 -0.015560 -0.324023
v -0.877167 0.229678 0.361829
v -0.982073 -0.247312 -0.369913
v -1.214894 0.255425 0.461870
v -1.325297 0.051443 0.439119
v -0.699572 -0.006054 0.602743
v -0.638403 0.008092 0.223662
v -0.850251 -0.025930 0.513906
v -0.627733 -0.247312 0.225867
v -0.918445 -0.185188 0.540357
v -0.346896 -0.090440 0.044159
v -0.342501 -0.247313 0.047656
v -0.259454 -0.109185 0.730519
v -0.034625 -0.247312 0.394179
v -0.047938 -0.105557 0.379498
v -0.223149 -0.246296 0.735559
v -0.132210 -0.119054 0.636268
v -0.834131 -0.247312 0.441441
v -0.692716 -0.247312 0.603932
v -0.249766 0.006441 0.452885
v -0.735922 -0.126274 0.644373
v -1.538420 -0.247312 -0.549646
v -1.341421 -0.194485 -0.480490
v -1.508037 -0.093494 -0.590155
v -1.401422 -0.072157 -0.651097
v -1.289147 -0.197278 -0.602068
v -1.564484 -0.175080 -0.569870
v -1.503039 -0.166523 -0.696917
v -1.427172 -0.247312 -0.471325
v -1.441414 -0.092390 -0.498400
v -1.491093 -0.247293 -0.683276
v -1.348574 -0.162593 -0.687362
v -1.335510 -0.246760 -0.675691
v -1.917094 -0.247312 0.066355
v -2.072224 -0.247312 0.122933
v -1.953542 -0.195793 0.037226
v -1.693012 -0.247312 0.231341
v -2.037635 -0.247312 0.471687
v -1.681038 -0.247312 0.339545
v -1.664633 -0.247312 0.562745
v -1.620126 -0.197669 0.282894
v -1.950866 -0.039545 0.032275
v -2.095894 -0.247312 0.224980
v -2.059982 -0.055886 0.176041
v -1.588984 -0.247312 0.307205
v -1.544997 -0.248886 0.443159
v -1.548711 -0.247312 0.336861
v -2.012755 -0.247312 0.405676
v -1.861394 -0.039324 0.515960
v -1.911568 -0.147328 0.491859
v -1.850939 -0.045507 0.602489
v -1.774748 0.094162 0.490627
v -1.782984 -0.011350 0.624310
v -1.485294 -0.121643 0.374874
v -1.594643 0.078720 0.289423
v -1.857946 0.114652 0.355296
v -1.771192 -0.131281 0.705006
v -1.746192 0.116349 0.184138
v -1.851615 -0.247312 0.656372
v -1.346799 -0.257238 -0.898937
v -2.241941 -0.257344 -0.692539
v -2.009392 -0.257344 0.569387
v -1.164110 -0.257344 0.800724
v -0.304473 -0.257344 0.691816
v -0.008574 -0.257044 -0.118385
v -1.148141 -0.056653 0.409150
v -2.051777 -0.138125 -0.029582
v -1.546199 -0.124919 0.552296
v -2.490403 -0.255519 -0.123926
v 1.159259 -0.205343 0.724085
v 1.314601 -0.233278 0.898937
v 1.226538 -0.098829 0.724582
v 1.384604 -0.147169 0.769092
v 1.434115 -0.227257 0.806398
v 1.151959 -0.146791 0.700872
v 1.283394 -0.136623 0.611080
v 1.440216 -0.221957 0.696537
v 1.356753 -0.099582 0.698239
v 1.232104 -0.135463 0.847954
v 1.285403 -0.199805 0.624383
v 1.229301 -0.247742 0.852455
v 0.982804 0.065290 -0.034982
v 1.200925 0.123919 0.011909
v 1.023419 0.159170 -0.059863
v 0.997137 0.119342 -0.146123
v 1.199253 0.136065 -0.083334
v 1.220440 0.091097 -0.075287
v 0.949417 0.099710 -0.058078
v 1.118845 0.067158 0.020249
v 1.157694 0.078945 -0.137203
v 1.085375 0.126693 0.006635
v 1.005089 0.054244 -0.127131
v 2.297227 -0.247312 -0.003991
v 2.419889 -0.203658 -0.007586
v 2.301334 -0.147654 -0.033191
v 2.349425 -0.136404 -0.093139
v 2.291883 -0.247312 -0.089386
v 2.419917 -0.205033 -0.088049
v 2.277024 -0.196342 -0.009232
v 2.281109 -0.191652 -0.092231
v 2.375858 -0.247312 0.013952
v 2.357978 -0.145118 0.002135
v 2.337950 -0.247312 -0.101531
v 2.377961 -0.224586 -0.126590
v 2.378825 -0.247312 -0.056677
v 0.472676 -0.151212 -0.362754
v 0.790029 -0.247312 -0.472870
v 0.785550 -0.247312 -0.630116
v 0.825260 -0.221073 -0.542253
v 0.453783 -0.189948 -0.760536
v 0.815777 -0.156636 -0.546095
v 0.454082 -0.247312 -0.241576
v 0.453869 -0.162796 -0.478902
v 0.411913 -0.212472 -0.283224
v 0.442646 -0.247312 -0.794663
v 0.324644 -0.202530 -0.714662
v 0.300299 -0.245839 -0.297180
v 0.313498 -0.247312 -0.748790
v 0.255160 -0.245099 -0.442041
v 0.412182 -0.210382 -0.449913
v 0.085656 -0.247312 -0.212211
v 0.190424 -0.219688 -0.219643
v 0.070337 -0.193770 -0.226285
v 0.126518 -0.159977 -0.313056
v 0.078679 -0.248017 -0.321829
v 0.153354 -0.247312 -0.190799
v 0.169169 -0.224607 -0.355808
v 0.138006 -0.172502 -0.202255
v 0.155701 -0.246937 -0.349491
v 0.323178 -0.247312 -0.053970
v 0.634349 -0.168426 -0.061090
v 0.367279 -0.110190 -0.116094
v 0.592491 -0.132200 -0.205735
v 0.332509 -0.247312 -0.221208
v 0.654672 -0.192999 -0.213018
v 0.297266 -0.176095 -0.069142
v 0.324482 -0.177057 -0.230411
v 0.522516 -0.247312 -0.018745
v 0.518171 -0.247417 -0.296701
v 0.466538 -0.096196 -0.236903
v 0.471756 -0.152179 -0.020696
v 0.551048 -0.166504 -0.316143
v 0.597094 -0.247312 -0.162689
v 0.502188 -0.106302 -0.142722
v 1.771745 -0.247312 -0.651237
v 1.456587 -0.247487 -0.892080
v 1.522376 -0.247312 -0.418340
v 1.292990 -0.247294 -0.743295
v 1.875629 -0.247312 -0.368965
v 1.724819 -0.247312 -0.231584
v 1.712824 -0.117643 -0.226586
v 1.849432 -0.123621 -0.350472
v 1.464950 -0.083396 -0.450539
v 1.576288 -0.069756 -0.534887
v 1.308396 -0.229173 -0.609048
v 1.821676 -0.130971 -0.561482
v 1.828069 -0.153097 -0.096965
v 1.877880 -0.247312 -0.300170
v 1.814390 -0.247312 -0.016051
v 1.974510 -0.247312 0.040092
v 2.052048 -0.247312 -0.457743
v 2.206242 -0.247312 -0.403675
v 1.982020 0.017955 -0.200054
v 2.207143 -0.026386 -0.403818
v 2.080460 -0.035059 -0.448852
v 2.094889 0.041589 -0.187588
v 2.048742 0.032729 -0.297968
v 2.067135 -0.247133 -0.025278
v 2.066105 -0.154790 -0.015405
v 1.921800 -0.067614 -0.366381
v 1.937434 -0.151511 -0.020058
v 2.193031 -0.081742 -0.239540
v 0.665965 -0.247312 -0.126280
v 0.595938 -0.085454 -0.192917
v 0.672338 -0.247312 -0.270727
v 1.113977 -0.247312 0.266898
v 1.180880 0.211141 0.232788
v 1.526711 0.211141 0.117260
v 1.181759 -0.155584 0.399458
v 1.450734 -0.000334 0.607760
v 1.291797 -0.247312 0.330673
v 1.494223 0.257344 0.487687
v 0.902938 -0.247312 -0.505573
v 0.595938 0.022028 -0.192917
v 0.869469 -0.040301 -0.471490
v 1.450444 -0.155746 0.620166
v 1.342861 -0.247312 0.470133
v 1.540173 -0.247312 0.528784
v 1.106753 0.132892 0.266886
v 1.540899 0.132892 0.050962
v 1.189951 0.147286 0.120861
v 1.174111 0.002930 -0.407199
v 1.714756 0.062676 -0.087664
v 1.669420 0.179721 0.170043
v 1.681871 -0.247312 0.384477
v 1.738423 -0.247312 -0.047496
v 1.545886 -0.015560 -0.324023
v 1.621809 0.229678 0.361829
v 1.516904 -0.247312 -0.369913
v 1.284083 0.255425 0.461870
v 1.173679 0.051443 0.439119
v 1.799404 -0.006054 0.602743
v 1.860573 0.008092 0.223662
v 1.648725 -0.025930 0.513906
v 1.871244 -0.247312 0.225867
v 1.580532 -0.185188 0.540357
v 2.152081 -0.090440 0.044159
v 2.156476 -0.247313 0.047656
v 2.239523 -0.109185 0.730519
v 2.464352 -0.247312 0.394179
v 2.451039 -0.105557 0.379498
v 2.275828 -0.246296 0.735559
v 2.366766 -0.119054 0.636268
v 1.664846 -0.247312 0.441441
v 1.806261 -0.247312 0.603932
v 2.249210 0.006441 0.452885
v 1.763055 -0.126274 0.644373
v 0.960557 -0.247312 -0.549646
v 1.157556 -0.194485 -0.480490
v 0.990940 -0.093494 -0.590155
v 1.097555 -0.072157 -0.651097
v 1.209830 -0.197278 -0.602068
v 0.934493 -0.175080 -0.569870
v 0.995938 -0.166523 -0.696917
v 1.071805 -0.247312 -0.471325
v 1.057563 -0.092390 -0.498400
v 1.007883 -0.247293 -0.683276
v 1.150403 -0.162593 -0.687362
v 1.163466 -0.246760 -0.675690
v 0.581883 -0.247312 0.066355
v 0.426752 -0.247312 0.122933
v 0.545435 -0.195793 0.037226
v 0.805964 -0.247312 0.231341
v 0.461341 -0.247312 0.471687
v 0.817938 -0.247312 0.339545
v 0.834344 -0.247312 0.562745
v 0.878850 -0.197669 0.282894
v 0.548111 -0.039545 0.032275
v 0.403083 -0.247312 0.224980
v 0.438995 -0.055886 0.176041
v 0.909993 -0.247312 0.307205
v 0.953980 -0.248886 0.443159
v 0.950266 -0.247312 0.336861
v 0.486221 -0.247312 0.405676
v 0.637583 -0.039324 0.515960
v 0.587409 -0.147328 0.491859
v 0.648038 -0.045507 0.602489
v 0.724229 0.094162 0.490627
v 0.715992 -0.011350 0.624310
v 1.013683 -0.121643 0.374874
v 0.904333 0.078720 0.289423
v 0.641030 0.114652 0.355296
v 0.727784 -0.131281 0.705006
v 0.752785 0.116349 0.184138
v 0.647361 -0.247312 0.656372
v 1.152178 -0.257238 -0.898937
v 0.257035 -0.257344 -0.692539
v 0.489584 -0.257344 0.569387
v 1.334867 -0.257344 0.800724
v 2.194503 -0.257344 0.691816
v 2.490403 -0.257044 -0.118385
v 1.350836 -0.056653 0.409150
v 0.447200 -0.138125 -0.029582
v 0.952778 -0.124919 0.552296
v 0.008574 -0.255519 -0.123926
vn 0.2970 0.8426 0.4492
vn 0.3843 0.6604 0.6451
vn 0.4731 0.5951 0.6497
vn 0.8328 0.5487 0.0727
vn -0.5439 -0.1894 -0.8175
vn -0.8779 0.0778 0.4724
vn -0.0642 0.9367 -0.3441
vn 0.5995 0.4184 -0.6824
vn -0.0395 -0.9759 -0.2148
vn -0.5678 -0.3636 -0.7385
vn 0.0016 0.8991 0.4376
vn 0.2103 -0.9774 -0.0213
vn 0.1454 0.9817 0.1226
vn 0.9012 0.4316 0.0392
vn 0.6712 0.1879 -0.7171
vn -0.8274 -0.2481 -0.5038
vn -0.0177 -0.2820 -0.9592
vn -0.4494 0.1544 0.8799
vn 0.1574 -0.9869 -0.0350
vn 0.5486 -0.7346 0.3993
vn -0.6881 -0.7212 -0.0800
vn 0.5914 -0.7647 -0.2559
vn 0.6874 0.7262 0.0047
vn 0.6980 0.7160 -0.0120
vn 0.4857 0.4430 -0.7535
vn -0.9795 -0.1926 -0.0591
vn -0.1620 0.0372 0.9861
vn -0.2169 -0.5254 -0.8228
vn -0.5941 0.7291 -0.3398
vn -0.2363 0.2769 -0.9314
vn 0.7215 -0.6923 0.0121
vn -0.9301 -0.3627 0.0582
vn 0.5762 -0.8171 -0.0164
vn -0.0347 0.9948 -0.0959
vn 0.3857 0.5546 -0.7373
vn 0.0291 0.7810 0.6238
vn 0.4150 0.4974 0.7618
vn 0.3942 0.4122 -0.8214
vn -0.9151 0.3624 -0.1767
vn -0.2612 0.6254 -0.7353
vn -0.7354 0.6757 0.0517
vn -0.7689 0.6364 -0.0611
vn 0.6716 0.7408 0.0141
vn 0.7796 0.6095 -0.1437
vn -0.4029 0.3049 -0.8629
vn -0.3419 0.9292 0.1405
vn -0.3692 0.1360 0.9193
vn -0.8115 0.4749 -0.3405
vn 0.8368 -0.5362 -0.1112
vn -0.9638 -0.2592 0.0630
vn 0.3414 0.8537 -0.3934
vn 0.5051 -0.8105 -0.2968
vn 0.6032 0.6690 -0.4343
vn -0.9774 -0.1332 -0.1642
vn -0.0071 0.9940 0.1093
vn 0.0445 0.9314 0.3613
vn -0.2791 0.1019 0.9548
vn -0.3718 -0.1622 -0.9140
vn -0.4821 0.8228 -0.3008
vn -0.3255 0.5078 -0.7976
vn 0.7596 -0.6184 0.2016
vn -0.9348 -0.3512 -0.0522
vn 0.3555 0.9257 0.1290
vn 0.2751 0.9614 -0.0010
vn 0.5898 -0.4072 -0.6973
vn 0.1862 0.9035 0.3861
vn -0.2733 0.7336 0.6222
vn 0.9299 -0.1351 -0.3422
vn 0.6731 0.0321 0.7389
vn 0.2349 0.9699 -0.0647
vn 0.6722 0.0337 0.7396
vn -0.0036 0.9879 0.1550
vn 0.1624 0.8606 -0.4826
vn 0.5810 -0.0474 -0.8125
vn -0.3075 0.8890 -0.3393
vn -0.4982 0.8650 -0.0596
vn 0.5725 0.3325 -0.7494
vn -0.9749 -0.0456 -0.2179
vn -0.6669 -0.1086 -0.7372
vn 0.3309 -0.0048 -0.9437
vn -0.3959 0.8037 -0.4443
vn -0.3001 0.4212 0.8559
vn 0.5748 -0.0807 0.8143
vn 0.0350 0.9584 -0.2831
vn -0.7872 0.4629 -0.4076
vn -0.5229 0.8201 -0.2326
vn 0.8062 0.5363 0.2500
vn -0.0173 0.5269 0.8498
vn -0.4105 0.7125 0.5691
vn -0.0062 0.7288 0.6847
vn 0.8752 -0.0418 0.4820
vn 0.9067 -0.2582 0.3335
vn -0.9109 -0.4106 -0.0402
vn -0.6901 -0.1621 0.7053
vn -0.1272 0.6277 -0.7680
vn -0.4946 0.6956 0.5211
vn -0.6833 0.5208 0.5118
vn -0.2259 -0.7432 0.6298
vn -0.5499 -0.8106 0.2013
vn -0.1792 -0.7774 0.6030
vn 0.3870 0.6359 -0.6677
vn -0.5633 -0.4613 0.6855
vn 0.0061 0.9924 -0.1232
vn -0.1981 0.9801 -0.0162
vn 0.1772 0.1877 -0.9661
vn 0.7555 0.1257 0.6430
vn -0.7493 0.5473 -0.3729
vn 0.1338 0.9083 -0.3963
vn -0.0129 0.9646 -0.2633
vn 0.1015 0.9882 -0.1144
vn 0.0443 0.9125 -0.4067
vn 0.2134 0.1484 -0.9656
vn 0.8156 -0.0127 -0.5785
vn 0.9872 0.0937 0.1292
vn -0.6335 0.0627 0.7712
vn -0.1137 0.4353 0.8931
vn 0.7383 0.0523 0.6725
vn -0.4892 0.1693 0.8556
vn 0.1012 0.9329 -0.3456
vn -0.5659 -0.5137 0.6448
vn -0.0650 0.9631 -0.2613
vn -0.1392 0.9902 0.0145
vn -0.7218 -0.0361 -0.6911
vn -0.6903 0.1792 -0.7010
vn 0.1594 0.9514 -0.2634
vn -0.5296 -0.0337 -0.8476
vn 0.7466 0.0061 -0.6653
vn 0.5329 0.8176 0.2179
vn -0.5469 0.3597 0.7560
vn -0.3282 -0.9004 0.2857
vn 0.8494 -0.2405 0.4698
vn -0.0162 0.9993 0.0347
vn 0.3421 0.8632 0.3714
vn -0.3497 -0.4068 0.8440
vn -0.1781 0.3697 0.9119
vn -0.1533 -0.3619 0.9195
vn 0.6648 0.6979 0.2666
vn 0.6622 0.6995 0.2687
vn 0.7653 0.5684 -0.3021
vn -0.8760 -0.2034 -0.4374
vn 0.0487 -0.1298 -0.9903
vn -0.5256 0.0482 0.8494
vn -0.4434 0.7300 -0.5201
vn 0.0467 0.3952 -0.9174
vn 0.5074 -0.8284 0.2372
vn -0.8648 -0.3978 -0.3063
vn -0.2710 -0.6119 -0.7431
vn 0.5927 -0.0346 -0.8047
vn -0.9097 0.3918 0.1379
vn -0.9666 0.1240 -0.2242
vn 0.5930 -0.8025 -0.0656
vn -0.2754 -0.5566 -0.7838
vn 0.6889 -0.2158 0.6920
vn -0.0384 0.9853 -0.1662
vn 0.5648 -0.0326 -0.8246
vn 0.8967 -0.4410 -0.0379
vn -0.4763 0.8711 0.1198
vn 0.5927 -0.0356 -0.8046
vn -0.6926 0.1882 0.6963
vn -0.7435 0.2032 0.6372
vn -0.4742 0.8398 -0.2645
vn 0.7560 -0.0034 0.6546
vn -0.5843 0.7811 -0.2202
vn -0.6919 0.1884 0.6969
vn -0.7739 0.4654 0.4295
vn -0.6803 0.5364 0.4995
vn -0.7962 -0.0055 -0.6050
vn -0.7366 0.5522 0.3905
vn -0.4416 0.8524 -0.2799
vn 0.1492 0.9871 0.0578
vn 0.6338 0.5692 0.5237
vn 0.3694 -0.5652 0.7376
vn 0.0579 0.8875 0.4572
vn -0.2942 0.9332 0.2066
vn -0.1350 0.9863 0.0949
vn -0.2357 0.9660 -0.1061
vn 0.2066 0.9755 0.0758
vn -0.2101 0.9727 0.0983
vn 0.0962 0.9816 -0.1651
vn 0.0116 0.8897 0.4565
vn -0.2619 0.9428 0.2062
vn -0.1823 0.7234 0.6659
vn -0.6745 -0.0906 0.7327
vn 0.8367 -0.5362 -0.1112
vn -0.7135 -0.0000 -0.7006
vn -0.0022 -1.0000 -0.0011
vn 0.8253 0.5622 0.0531
vn -0.3742 0.8074 -0.4563
vn -0.4841 0.0471 0.8737
vn 0.0625 0.9575 0.2815
vn -0.5791 0.7740 0.2560
vn -0.8713 0.0414 0.4891
vn 0.3948 -0.1773 -0.9015
vn -0.1457 -0.9603 -0.2377
vn 0.0603 0.8991 -0.4335
vn 0.1931 0.5952 -0.7801
vn -0.6202 0.7669 -0.1651
vn -0.0398 0.2014 0.9787
vn -0.4424 0.5714 0.6912
vn -0.3762 0.0004 0.9265
vn -0.0316 -0.9933 0.1114
vn -0.8983 0.4390 -0.0194
vn 0.3001 0.1612 0.9402
vn -0.1067 0.9892 0.1001
vn -0.4545 0.5656 0.6882
vn -0.2219 0.0736 0.9723
vn -0.3675 -0.1183 -0.9225
vn 0.7111 -0.7025 0.0299
vn 0.8558 0.1554 0.4933
vn 0.4155 0.6806 0.6035
vn -0.0343 0.9950 -0.0937
vn -0.3293 0.5292 -0.7820
vn -0.2706 0.5857 0.7640
vn -0.7049 0.7093 0.0078
vn 0.8939 0.1056 -0.4356
vn 0.4858 0.2289 0.8436
vn -0.3366 -0.0628 -0.9396
vn -0.3005 0.0838 0.9501
vn 0.6010 -0.7992 0.0070
vn -0.7235 0.6787 -0.1261
vn 0.2527 0.1544 0.9551
vn 0.6976 0.7161 -0.0225
vn -0.1736 -0.0725 0.9822
vn -0.3494 -0.0823 -0.9334
vn 0.6241 -0.7112 0.3234
vn 0.9651 0.2245 -0.1348
vn 0.1300 0.9869 0.0957
vn 0.5928 -0.0224 -0.8050
vn 0.5762 -0.0338 -0.8166
vn -0.3921 0.8367 -0.3823
vn -0.4750 0.1002 -0.8743
vn 0.3351 -0.0020 -0.9422
vn -0.4590 0.6163 0.6400
vn -0.2057 0.9786 0.0075
vn 0.4876 0.8301 -0.2705
vn -0.9364 0.2974 0.1860
vn 0.7523 0.3686 0.5461
vn -0.2178 0.6613 0.7178
vn 0.9964 -0.0040 0.0842
vn -0.7335 -0.0379 0.6787
vn -0.1666 0.8506 -0.4988
vn -0.8523 0.4277 0.3013
vn -0.6690 -0.0000 0.7432
vn -0.0553 0.9847 -0.1654
vn 0.7099 0.1955 0.6767
vn -0.0749 0.9549 -0.2872
vn 0.2740 0.9451 -0.1782
vn 0.2231 0.1624 -0.9612
vn 0.8242 0.0091 -0.5663
vn 0.9870 0.0924 0.1317
vn -0.5357 -0.1790 0.8252
vn 0.7131 0.0343 0.7002
vn 0.9696 0.1319 0.2063
vn -0.8081 0.1293 -0.5747
vn 0.3782 0.8766 -0.2976
vn -0.5313 -0.0295 -0.8467
vn 0.7476 0.0014 -0.6642
vn -0.5021 0.4146 0.7589
vn 0.5941 0.1861 0.7826
vn 0.9412 0.1211 0.3153
vn 0.1030 0.9170 0.3855
vn -0.2697 -0.0360 0.9623
vn -0.8070 0.4692 -0.3587
vn -0.0007 0.1721 0.9851
vn 0.8291 0.0515 -0.5567
vn -0.1441 0.9852 0.0928
vn -0.6639 0.5775 0.4751
vn -0.5734 0.0896 0.8144
vn 0.0650 -0.1568 -0.9855
vn 0.5279 -0.8163 0.2346
vn 0.5925 -0.0358 -0.8048
vn -0.0168 0.9887 -0.1491
vn 0.6008 -0.0102 -0.7993
vn -0.8317 0.4023 0.3827
vn -0.5299 0.7486 -0.3985
vn -0.8353 0.2780 0.4744
vn -0.6351 0.2439 -0.7329
vn -0.4725 0.4596 0.7520
vn 0.1627 0.9798 0.1160
vn 0.6370 0.5855 0.5014
vn 0.6640 0.4613 0.5885
vn -0.2119 0.9747 0.0710
vn -0.2877 0.9576 0.0115
vn -0.0774 0.9955 0.0551
vn -0.6669 -0.0883 0.7399
vn -0.6751 -0.0928 0.7318
vn 0.0010 -1.0000 0.0036
vn 0.0002 -1.0000 -0.0001
vn -0.0000 -1.0000 -0.0004
vn -0.0000 -1.0000 -0.0001
vt 0.875000 0.875000
vt 0.875000 0.625000
vt 0.125000 0.375000
vt 0.125000 0.875000
s 0
usemtl ruins_cv_trim_a
f 9/1/1 10/1/1 4/1/1
f 2/1/2 4/1/2 10/1/2
f 2/2/3 5/2/3 4/2/3
f 8/3/4 4/3/4 5/3/4
f 11/1/5 6/1/5 7/1/5
f 1/3/6 10/3/6 6/3/6
f 3/1/7 9/1/7 7/1/7
f 7/1/8 9/1/8 8/1/8
f 12/3/9 11/3/9 8/3/9
f 11/3/10 1/3/10 6/3/10
f 15/2/11 22/2/11 14/2/11
f 18/3/12 20/3/12 21/3/12
f 14/1/13 17/1/13 15/1/13
f 14/2/14 18/2/14 17/2/14
f 21/3/15 17/3/15 18/3/15
f 23/1/16 19/1/16 16/1/16
f 23/1/17 16/1/17 21/1/17
f 13/3/18 22/3/18 19/3/18
f 20/3/19 23/3/19 21/3/19
f 14/1/20 20/1/20 18/1/20
f 23/3/21 13/3/21 19/3/21
f 29/3/22 36/3/22 35/3/22
f 25/1/23 27/1/23 33/1/23
f 25/2/24 29/2/24 27/2/24
f 35/3/25 27/3/25 29/3/25
f 28/1/26 30/1/26 31/1/26
f 24/3/27 33/3/27 30/3/27
f 28/1/28 35/1/28 34/1/28
f 26/1/29 27/1/29 31/1/29
f 31/1/30 27/1/30 35/1/30
f 25/1/31 36/1/31 29/1/31
f 28/3/32 24/3/32 30/3/32
f 40/3/33 38/3/33 39/3/33
f 41/3/34 44/3/34 42/3/34
f 42/3/35 39/3/35 41/3/35
f 43/3/36 37/3/36 45/3/36
f 37/3/37 38/3/37 42/3/37
f 41/3/38 39/3/38 46/3/38
f 50/3/39 47/3/39 49/3/39
f 47/3/40 46/3/40 49/3/40
f 51/3/41 37/3/41 44/3/41
f 51/3/42 44/3/42 41/3/42
f 53/1/43 55/1/43 59/1/43
f 53/2/44 58/2/44 55/2/44
f 55/1/45 58/1/45 56/1/45
f 54/1/46 59/1/46 55/1/46
f 52/3/47 59/3/47 54/3/47
f 54/1/48 55/1/48 56/1/48
f 53/1/49 60/1/49 58/1/49
f 56/3/50 52/3/50 54/3/50
f 73/3/51 71/3/51 64/3/51
f 66/3/52 74/3/52 70/3/52
f 66/1/53 73/1/53 64/1/53
f 65/3/54 67/3/54 68/3/54
f 63/1/55 75/1/55 71/1/55
f 63/3/56 72/3/56 75/3/56
f 61/3/57 72/3/57 67/3/57
f 68/1/58 70/1/58 65/1/58
f 63/1/59 71/1/59 68/1/59
f 68/1/60 71/1/60 73/1/60
f 62/1/61 74/1/61 66/1/61
f 65/1/62 61/1/62 67/1/62
f 62/1/63 64/1/63 75/1/63
f 71/3/64 75/3/64 64/3/64
f 70/3/65 73/3/65 66/3/65
f 75/1/66 72/1/66 62/1/66
f 67/3/67 72/3/67 63/3/67
f 87/3/68 80/3/68 76/3/68
f 81/3/69 80/3/69 83/3/69
f 83/1/70 87/1/70 85/1/70
f 81/4/71 83/4/71 82/4/71
f 82/1/72 85/1/72 84/1/72
f 85/3/73 87/3/73 77/3/73
f 377/1/74 370/1/74 364/1/74
f 79/1/75 85/1/75 77/1/75
f 86/2/76 85/2/76 79/2/76
f 77/3/77 87/3/77 76/3/77
f 88/3/78 89/3/78 90/3/78
f 101/3/79 92/3/79 89/3/79
f 93/3/80 92/3/80 96/3/80
f 96/1/81 101/1/81 98/1/81
f 102/1/82 90/1/82 91/1/82
f 91/3/83 99/3/83 100/3/83
f 96/1/84 97/1/84 95/1/84
f 94/3/85 89/3/85 88/3/85
f 94/1/86 98/1/86 101/1/86
f 97/1/87 103/1/87 95/1/87
f 100/3/88 102/3/88 91/3/88
f 102/1/89 94/1/89 88/1/89
f 100/2/90 94/2/90 102/2/90
f 100/3/91 99/3/91 103/3/91
f 93/1/92 103/1/92 99/1/92
f 104/3/93 105/3/93 106/3/93
f 132/1/94 104/1/94 110/1/94
f 122/3/95 109/3/95 121/3/95
f 132/3/96 108/3/96 120/3/96
f 120/3/97 105/3/97 132/3/97
f 107/3/98 112/3/98 110/3/98
f 110/1/99 112/1/99 118/1/99
f 119/1/100 117/1/100 118/1/100
f 109/3/101 125/3/101 121/3/101
f 117/1/102 110/1/102 118/1/102
f 109/3/103 131/3/103 113/3/103
f 115/4/104 120/4/104 122/4/104
f 123/3/105 114/3/105 116/3/105
f 129/3/106 111/3/106 126/3/106
f 108/1/107 122/1/107 120/1/107
f 128/1/108 123/1/108 124/1/108
f 121/1/109 123/1/109 122/1/109
f 129/1/110 109/1/110 113/1/110
f 125/3/111 124/3/111 121/3/111
f 123/3/112 130/3/112 114/3/112
f 127/2/113 128/2/113 124/2/113
f 127/3/114 125/3/114 126/3/114
f 111/3/115 110/3/115 117/3/115
f 111/3/116 113/3/116 131/3/116
f 119/1/117 111/1/117 117/1/117
f 111/3/118 131/3/118 132/3/118
f 124/3/119 123/3/119 121/3/119
f 110/3/120 104/3/120 107/3/120
f 115/1/121 122/1/121 123/1/121
f 133/3/122 134/3/122 135/3/122
f 145/3/123 134/3/123 136/3/123
f 137/2/124 135/2/124 145/2/124
f 147/3/125 138/3/125 134/3/125
f 136/3/126 138/3/126 139/3/126
f 139/3/127 138/3/127 142/3/127
f 142/1/128 147/1/128 144/1/128
f 148/1/129 135/1/129 137/1/129
f 137/3/130 145/3/130 146/3/130
f 141/1/131 144/1/131 143/1/131
f 133/3/132 147/3/132 134/3/132
f 140/1/133 144/1/133 147/1/133
f 146/3/134 148/3/134 137/3/134
f 148/1/135 140/1/135 133/1/135
f 146/2/136 140/2/136 148/2/136
f 150/1/137 152/1/137 157/1/137
f 150/2/138 153/2/138 152/2/138
f 153/3/139 159/3/139 152/3/139
f 158/1/140 154/1/140 155/1/140
f 158/1/141 159/1/141 160/1/141
f 149/3/142 157/3/142 154/3/142
f 151/1/143 152/1/143 155/1/143
f 155/1/144 152/1/144 159/1/144
f 150/1/145 160/1/145 153/1/145
f 158/3/146 149/3/146 154/3/146
f 161/1/147 162/1/147 163/1/147
f 164/2/148 163/2/148 168/2/148
f 177/3/149 178/3/149 176/3/149
f 162/3/150 170/3/150 171/3/150
f 164/3/151 168/3/151 166/3/151
f 166/1/152 168/1/152 172/1/152
f 184/3/153 167/3/153 173/3/153
f 383/1/154 384/1/154 390/1/154
f 168/3/155 185/3/155 182/3/155
f 181/1/156 173/1/156 174/1/156
f 178/1/157 180/1/157 176/1/157
f 169/1/158 168/1/158 163/1/158
f 184/3/159 178/3/159 186/3/159
f 176/4/160 175/4/160 177/4/160
f 183/1/161 169/1/161 171/1/161
f 184/3/162 173/3/162 181/3/162
f 165/3/163 177/3/163 175/3/163
f 186/3/164 178/3/164 165/3/164
f 171/2/165 176/2/165 183/2/165
f 183/1/166 176/1/166 179/1/166
f 163/3/167 171/3/167 169/3/167
f 180/1/168 179/1/168 176/1/168
f 183/3/169 185/3/169 169/3/169
f 182/3/170 183/3/170 179/3/170
f 179/3/171 181/3/171 182/3/171
f 167/3/172 184/3/172 186/3/172
f 191/1/173 193/1/173 190/1/173
f 194/1/174 196/1/174 189/1/174
f 193/1/175 194/1/175 195/1/175
f 194/1/176 188/1/176 196/1/176
f 192/1/177 193/1/177 191/1/177
f 247/3/178 243/3/178 246/3/178
f 193/1/179 192/1/179 187/1/179
f 190/1/180 193/1/180 195/1/180
f 195/1/181 194/1/181 189/1/181
f 190/1/182 195/1/182 189/1/182
f 277/1/183 278/1/183 280/1/183
f 205/1/1 206/1/1 200/1/1
f 198/1/2 200/1/2 206/1/2
f 198/2/3 201/2/3 200/2/3
f 204/3/4 200/3/4 201/3/4
f 207/1/5 202/1/5 203/1/5
f 197/3/6 206/3/6 202/3/6
f 199/1/7 205/1/7 203/1/7
f 203/1/8 205/1/8 204/1/8
f 208/3/9 207/3/9 204/3/9
f 207/3/10 197/3/10 202/3/10
f 211/2/11 218/2/11 210/2/11
f 214/3/12 216/3/12 217/3/12
f 210/1/13 213/1/13 211/1/13
f 210/2/14 214/2/14 213/2/14
f 217/3/15 213/3/15 214/3/15
f 219/1/16 215/1/16 212/1/16
f 219/1/17 212/1/17 217/1/17
f 209/3/18 218/3/18 215/3/18
f 216/3/19 219/3/19 217/3/19
f 210/1/20 216/1/20 214/1/20
f 219/3/21 209/3/21 215/3/21
f 225/3/22 232/3/22 231/3/22
f 221/1/23 223/1/23 229/1/23
f 221/2/24 225/2/24 223/2/24
f 231/3/25 223/3/25 225/3/25
f 224/1/26 226/1/26 227/1/26
f 220/3/27 229/3/27 226/3/27
f 224/1/28 231/1/28 230/1/28
f 222/1/29 223/1/29 227/1/29
f 227/1/30 223/1/30 231/1/30
f 221/1/31 232/1/31 225/1/31
f 224/3/32 220/3/32 226/3/32
f 236/3/33 234/3/33 235/3/33
f 237/3/34 240/3/34 238/3/34
f 238/3/35 235/3/35 237/3/35
f 239/3/36 233/3/36 241/3/36
f 233/3/37 234/3/37 238/3/37
f 237/3/38 235/3/38 242/3/38
f 246/3/39 243/3/39 245/3/39
f 51/3/178 47/3/178 50/3/178
f 243/3/40 242/3/40 245/3/40
f 247/3/41 233/3/41 240/3/41
f 247/3/42 240/3/42 237/3/42
f 249/1/43 251/1/43 255/1/43
f 249/2/44 254/2/44 251/2/44
f 251/1/45 254/1/45 252/1/45
f 250/1/46 255/1/46 251/1/46
f 248/3/47 255/3/47 250/3/47
f 250/1/48 251/1/48 252/1/48
f 249/1/184 256/1/184 254/1/184
f 252/3/50 248/3/50 250/3/50
f 269/3/51 267/3/51 260/3/51
f 262/3/52 270/3/52 266/3/52
f 262/1/53 269/1/53 260/1/53
f 261/3/54 263/3/54 264/3/54
f 259/1/55 271/1/55 267/1/55
f 259/3/56 268/3/56 271/3/56
f 257/3/57 268/3/57 263/3/57
f 264/1/58 266/1/58 261/1/58
f 259/1/59 267/1/59 264/1/59
f 264/1/60 267/1/60 269/1/60
f 258/1/61 270/1/61 262/1/61
f 261/1/62 257/1/62 263/1/62
f 258/1/63 260/1/63 271/1/63
f 267/3/64 271/3/64 260/3/64
f 266/3/65 269/3/65 262/3/65
f 271/1/66 268/1/66 258/1/66
f 263/3/67 268/3/67 259/3/67
f 283/3/68 276/3/68 272/3/68
f 277/3/69 276/3/69 279/3/69
f 279/1/70 283/1/70 281/1/70
f 277/4/71 279/4/71 278/4/71
f 278/1/72 281/1/72 280/1/72
f 281/3/73 283/3/73 273/3/73
f 81/1/183 82/1/183 84/1/183
f 275/1/75 281/1/75 273/1/75
f 282/2/76 281/2/76 275/2/76
f 273/3/77 283/3/77 272/3/77
f 284/3/78 285/3/78 286/3/78
f 297/3/79 288/3/79 285/3/79
f 289/3/80 288/3/80 292/3/80
f 292/1/81 297/1/81 294/1/81
f 298/1/82 286/1/82 287/1/82
f 287/3/83 295/3/83 296/3/83
f 292/1/84 293/1/84 291/1/84
f 290/3/85 285/3/85 284/3/85
f 290/1/86 294/1/86 297/1/86
f 293/1/87 299/1/87 291/1/87
f 296/3/88 298/3/88 287/3/88
f 298/1/89 290/1/89 284/1/89
f 296/2/90 290/2/90 298/2/90
f 296/3/91 295/3/91 299/3/91
f 289/1/92 299/1/92 295/1/92
f 300/3/93 301/3/93 302/3/93
f 328/1/94 300/1/94 306/1/94
f 318/3/95 305/3/95 317/3/95
f 328/3/96 304/3/96 316/3/96
f 316/3/97 301/3/97 328/3/97
f 105/3/185 115/3/185 116/3/185
f 303/3/98 308/3/98 306/3/98
f 306/1/99 308/1/99 314/1/99
f 315/1/100 313/1/100 314/1/100
f 305/3/101 321/3/101 317/3/101
f 313/1/102 306/1/102 314/1/102
f 305/3/103 327/3/103 309/3/103
f 311/4/104 316/4/104 318/4/104
f 319/3/105 310/3/105 312/3/105
f 325/3/106 307/3/106 322/3/106
f 304/1/107 318/1/107 316/1/107
f 324/1/108 319/1/108 320/1/108
f 317/1/109 319/1/109 318/1/109
f 325/1/110 305/1/110 309/1/110
f 321/3/111 320/3/111 317/3/111
f 319/3/112 326/3/112 310/3/112
f 323/2/113 324/2/113 320/2/113
f 323/3/114 321/3/114 322/3/114
f 307/3/115 306/3/115 313/3/115
f 307/3/116 309/3/116 327/3/116
f 315/1/117 307/1/117 313/1/117
f 307/3/118 327/3/118 328/3/118
f 320/3/119 319/3/119 317/3/119
f 306/3/120 300/3/120 303/3/120
f 311/1/121 318/1/121 319/1/121
f 329/3/122 330/3/122 331/3/122
f 341/3/123 330/3/123 332/3/123
f 333/2/124 331/2/124 341/2/124
f 343/3/125 334/3/125 330/3/125
f 332/3/126 334/3/126 335/3/126
f 335/3/127 334/3/127 338/3/127
f 338/1/128 343/1/128 340/1/128
f 344/1/129 331/1/129 333/1/129
f 333/3/130 341/3/130 342/3/130
f 337/1/131 340/1/131 339/1/131
f 329/3/132 343/3/132 330/3/132
f 336/1/133 340/1/133 343/1/133
f 342/3/134 344/3/134 333/3/134
f 344/1/135 336/1/135 329/1/135
f 342/2/136 336/2/136 344/2/136
f 346/1/137 348/1/137 353/1/137
f 346/2/138 349/2/138 348/2/138
f 349/3/139 355/3/139 348/3/139
f 354/1/140 350/1/140 351/1/140
f 354/1/141 355/1/141 356/1/141
f 345/3/142 353/3/142 350/3/142
f 347/1/143 348/1/143 351/1/143
f 351/1/144 348/1/144 355/1/144
f 346/1/145 356/1/145 349/1/145
f 354/3/146 345/3/146 350/3/146
f 357/1/147 358/1/147 359/1/147
f 360/2/148 359/2/148 364/2/148
f 373/3/149 374/3/149 372/3/149
f 358/3/150 366/3/150 367/3/150
f 360/3/151 364/3/151 362/3/151
f 362/1/152 364/1/152 368/1/152
f 380/3/153 363/3/153 369/3/153
f 181/1/74 174/1/74 168/1/74
f 364/3/155 381/3/155 378/3/155
f 377/1/156 369/1/156 370/1/156
f 374/1/157 376/1/157 372/1/157
f 365/1/158 364/1/158 359/1/158
f 380/3/159 374/3/159 382/3/159
f 372/4/160 371/4/160 373/4/160
f 379/1/161 365/1/161 367/1/161
f 380/3/162 369/3/162 377/3/162
f 361/3/163 373/3/163 371/3/163
f 382/3/164 374/3/164 361/3/164
f 367/2/165 372/2/165 379/2/165
f 379/1/166 372/1/166 375/1/166
f 359/3/167 367/3/167 365/3/167
f 376/1/168 375/1/168 372/1/168
f 379/3/169 381/3/169 365/3/169
f 378/3/170 379/3/170 375/3/170
f 375/3/171 377/3/171 378/3/171
f 363/3/172 380/3/172 382/3/172
f 387/1/173 389/1/173 386/1/173
f 390/1/174 392/1/174 385/1/174
f 389/1/175 390/1/175 391/1/175
f 390/1/176 384/1/176 392/1/176
f 388/1/177 389/1/177 387/1/177
f 187/1/154 188/1/154 194/1/154
f 389/1/179 388/1/179 383/1/179
f 386/1/180 389/1/180 391/1/180
f 391/1/181 390/1/181 385/1/181
f 386/1/182 391/1/182 385/1/182
f 189/1/186 196/1/186 187/1/186
f 385/1/186 392/1/186 383/1/186
f 301/3/185 311/3/185 312/3/185
f 4/3/187 8/3/187 9/3/187
f 3/2/188 7/2/188 6/2/188
f 2/1/189 10/1/189 12/1/189
f 10/1/190 9/1/190 3/1/190
f 3/3/191 6/3/191 10/3/191
f 1/3/192 12/3/192 10/3/192
f 11/1/193 7/1/193 8/1/193
f 1/3/194 11/3/194 12/3/194
f 15/1/195 17/1/195 16/1/195
f 21/1/196 16/1/196 17/1/196
f 16/1/197 19/1/197 15/1/197
f 14/1/198 22/1/198 20/1/198
f 15/3/199 19/3/199 22/3/199
f 13/3/200 20/3/200 22/3/200
f 13/3/201 23/3/201 20/3/201
f 26/2/202 31/2/202 30/2/202
f 33/1/203 32/1/203 25/1/203
f 33/1/204 27/1/204 26/1/204
f 26/3/205 30/3/205 33/3/205
f 24/3/206 32/3/206 33/3/206
f 28/1/207 31/1/207 35/1/207
f 25/1/208 32/1/208 36/1/208
f 38/3/209 40/3/209 42/3/209
f 43/3/210 38/3/210 37/3/210
f 37/3/211 42/3/211 44/3/211
f 47/3/212 41/3/212 46/3/212
f 48/3/213 43/3/213 45/3/213
f 51/3/214 45/3/214 37/3/214
f 40/3/215 39/3/215 42/3/215
f 53/1/216 59/1/216 57/1/216
f 58/1/217 60/1/217 56/1/217
f 52/3/218 57/3/218 59/3/218
f 53/1/219 57/1/219 60/1/219
f 63/3/220 68/3/220 67/3/220
f 62/3/221 72/3/221 69/3/221
f 62/3/222 66/3/222 64/3/222
f 61/3/223 69/3/223 72/3/223
f 68/1/224 73/1/224 70/1/224
f 62/1/225 69/1/225 74/1/225
f 87/3/226 83/3/226 80/3/226
f 82/1/227 83/1/227 85/1/227
f 368/1/228 364/1/228 370/1/228
f 364/1/229 378/1/229 377/1/229
f 86/2/230 84/2/230 85/2/230
f 101/3/231 96/3/231 92/3/231
f 95/4/232 93/4/232 96/4/232
f 102/1/233 88/1/233 90/1/233
f 97/3/234 98/3/234 94/3/234
f 96/1/235 98/1/235 97/1/235
f 94/3/236 101/3/236 89/3/236
f 97/1/237 100/1/237 103/1/237
f 100/2/238 97/2/238 94/2/238
f 93/1/239 95/1/239 103/1/239
f 132/1/240 105/1/240 104/1/240
f 122/3/241 108/3/241 109/3/241
f 132/3/242 131/3/242 108/3/242
f 120/3/243 115/3/243 105/3/243
f 109/3/244 108/3/244 131/3/244
f 129/3/245 113/3/245 111/3/245
f 116/1/246 115/1/246 123/1/246
f 129/1/247 125/1/247 109/1/247
f 123/3/248 128/3/248 130/3/248
f 127/2/249 130/2/249 128/2/249
f 127/3/250 124/3/250 125/3/250
f 111/3/251 132/3/251 110/3/251
f 119/1/252 126/1/252 111/1/252
f 129/1/253 126/1/253 125/1/253
f 145/3/254 135/3/254 134/3/254
f 147/3/255 142/3/255 138/3/255
f 136/3/256 134/3/256 138/3/256
f 141/4/257 139/4/257 142/4/257
f 148/1/258 133/1/258 135/1/258
f 143/3/259 144/3/259 140/3/259
f 141/1/260 142/1/260 144/1/260
f 133/3/261 140/3/261 147/3/261
f 146/2/262 143/2/262 140/2/262
f 151/2/263 155/2/263 154/2/263
f 150/1/264 157/1/264 156/1/264
f 153/3/265 160/3/265 159/3/265
f 157/1/266 152/1/266 151/1/266
f 151/3/267 154/3/267 157/3/267
f 149/3/268 156/3/268 157/3/268
f 158/1/269 155/1/269 159/1/269
f 150/1/270 156/1/270 160/1/270
f 164/2/271 161/2/271 163/2/271
f 389/1/272 383/1/272 390/1/272
f 168/3/273 169/3/273 185/3/273
f 176/4/274 170/4/274 175/4/274
f 165/3/275 178/3/275 177/3/275
f 171/2/276 170/2/276 176/2/276
f 163/3/277 162/3/277 171/3/277
f 184/3/278 180/3/278 178/3/278
f 182/3/279 185/3/279 183/3/279
f 179/3/280 180/3/280 181/3/280
f 184/3/281 181/3/281 180/3/281
f 246/3/282 244/3/282 247/3/282
f 244/3/283 241/3/283 247/3/283
f 247/3/284 237/3/284 243/3/284
f 280/1/285 282/1/285 274/1/285
f 274/1/286 277/1/286 280/1/286
f 200/3/187 204/3/187 205/3/187
f 199/2/188 203/2/188 202/2/188
f 198/1/189 206/1/189 208/1/189
f 206/1/190 205/1/190 199/1/190
f 199/3/191 202/3/191 206/3/191
f 197/3/192 208/3/192 206/3/192
f 207/1/193 203/1/193 204/1/193
f 197/3/194 207/3/194 208/3/194
f 211/1/195 213/1/195 212/1/195
f 217/1/196 212/1/196 213/1/196
f 212/1/197 215/1/197 211/1/197
f 210/1/198 218/1/198 216/1/198
f 211/3/199 215/3/199 218/3/199
f 209/3/200 216/3/200 218/3/200
f 209/3/201 219/3/201 216/3/201
f 222/2/202 227/2/202 226/2/202
f 229/1/203 228/1/203 221/1/203
f 229/1/204 223/1/204 222/1/204
f 222/3/205 226/3/205 229/3/205
f 220/3/206 228/3/206 229/3/206
f 224/1/207 227/1/207 231/1/207
f 221/1/208 228/1/208 232/1/208
f 234/3/209 236/3/209 238/3/209
f 239/3/210 234/3/210 233/3/210
f 233/3/211 238/3/211 240/3/211
f 50/3/282 48/3/282 51/3/282
f 48/3/283 45/3/283 51/3/283
f 51/3/284 41/3/284 47/3/284
f 243/3/212 237/3/212 242/3/212
f 244/3/213 239/3/213 241/3/213
f 247/3/214 241/3/214 233/3/214
f 236/3/215 235/3/215 238/3/215
f 249/1/216 255/1/216 253/1/216
f 254/1/217 256/1/217 252/1/217
f 248/3/218 253/3/218 255/3/218
f 249/1/219 253/1/219 256/1/219
f 259/3/220 264/3/220 263/3/220
f 258/3/221 268/3/221 265/3/221
f 258/3/222 262/3/222 260/3/222
f 257/3/223 265/3/223 268/3/223
f 264/1/224 269/1/224 266/1/224
f 258/1/225 265/1/225 270/1/225
f 283/3/226 279/3/226 276/3/226
f 278/1/227 279/1/227 281/1/227
f 84/1/285 86/1/285 78/1/285
f 78/1/286 81/1/286 84/1/286
f 282/2/230 280/2/230 281/2/230
f 297/3/231 292/3/231 288/3/231
f 291/4/232 289/4/232 292/4/232
f 298/1/233 284/1/233 286/1/233
f 293/3/234 294/3/234 290/3/234
f 292/1/235 294/1/235 293/1/235
f 290/3/236 297/3/236 285/3/236
f 293/1/237 296/1/237 299/1/237
f 296/2/238 293/2/238 290/2/238
f 289/1/239 291/1/239 299/1/239
f 328/1/240 301/1/240 300/1/240
f 318/3/241 304/3/241 305/3/241
f 328/3/242 327/3/242 304/3/242
f 316/3/243 311/3/243 301/3/243
f 114/3/185 106/3/185 116/3/185
f 106/3/185 105/3/185 116/3/185
f 305/3/244 304/3/244 327/3/244
f 325/3/245 309/3/245 307/3/245
f 312/1/246 311/1/246 319/1/246
f 325/1/247 321/1/247 305/1/247
f 319/3/248 324/3/248 326/3/248
f 323/2/249 326/2/249 324/2/249
f 323/3/250 320/3/250 321/3/250
f 307/3/251 328/3/251 306/3/251
f 315/1/252 322/1/252 307/1/252
f 325/1/253 322/1/253 321/1/253
f 341/3/254 331/3/254 330/3/254
f 343/3/255 338/3/255 334/3/255
f 332/3/256 330/3/256 334/3/256
f 337/4/257 335/4/257 338/4/257
f 344/1/258 329/1/258 331/1/258
f 339/3/259 340/3/259 336/3/259
f 337/1/260 338/1/260 340/1/260
f 329/3/261 336/3/261 343/3/261
f 342/2/262 339/2/262 336/2/262
f 347/2/263 351/2/263 350/2/263
f 346/1/264 353/1/264 352/1/264
f 349/3/265 356/3/265 355/3/265
f 353/1/266 348/1/266 347/1/266
f 347/3/267 350/3/267 353/3/267
f 345/3/268 352/3/268 353/3/268
f 354/1/269 351/1/269 355/1/269
f 346/1/270 352/1/270 356/1/270
f 360/2/271 357/2/271 359/2/271
f 172/1/228 168/1/228 174/1/228
f 168/1/229 182/1/229 181/1/229
f 364/3/273 365/3/273 381/3/273
f 372/4/274 366/4/274 371/4/274
f 361/3/275 374/3/275 373/3/275
f 367/2/276 366/2/276 372/2/276
f 359/3/277 358/3/277 367/3/277
f 380/3/278 376/3/278 374/3/278
f 378/3/279 381/3/279 379/3/279
f 375/3/280 376/3/280 377/3/280
f 380/3/281 377/3/281 376/3/281
f 193/1/272 187/1/272 194/1/272
f 188/1/287 187/1/287 196/1/287
f 187/1/288 192/1/288 190/1/288
f 190/1/289 192/1/289 191/1/289
f 190/1/290 189/1/290 187/1/290
f 384/1/287 383/1/287 392/1/287
f 383/1/288 388/1/288 386/1/288
f 386/1/289 388/1/289 387/1/289
f 386/1/290 385/1/290 383/1/290
f 310/3/185 302/3/185 312/3/185
f 302/3/185 301/3/185 312/3/185
