# Blender 5.2.2 LTS
# www.blender.org
mtllib ruins_find_torgoth_salvage.mtl
o piece
v -0.597435 0.097930 0.205578
v -0.596958 0.187435 0.237705
v -0.596958 0.187435 0.212766
v -0.597435 0.097930 0.244892
v -0.607358 0.135906 0.242027
v -0.596912 0.140459 0.209546
v -0.586870 0.135324 0.243251
v -0.597435 0.097930 -0.244877
v -0.596958 0.187435 -0.212751
v -0.596958 0.187435 -0.237690
v -0.597435 0.097930 -0.205563
v -0.608383 0.135446 -0.208262
v -0.606504 0.135803 -0.243069
v -0.587931 0.136373 -0.241844
v -0.585967 0.134873 -0.207047
v 0.592967 0.097930 0.244892
v 0.596956 0.188071 0.225235
v 0.601902 0.097930 0.205578
v 0.587708 0.135741 0.243106
v 0.607357 0.135906 0.242027
v 0.595073 0.140436 0.209538
v 0.592967 0.097930 -0.205563
v 0.596956 0.188070 -0.225220
v 0.601902 0.097930 -0.244877
v 0.598897 0.140481 -0.209538
v 0.606501 0.135803 -0.243069
v 0.587040 0.135924 -0.242006
v -0.608716 -0.140972 0.080282
v -0.597264 -0.031143 0.082549
v -0.587367 -0.032946 0.082549
v -0.597264 -0.031143 -0.082533
v -0.587367 -0.032946 -0.082533
v -0.604647 -0.141647 -0.080238
v -0.591873 -0.032147 -0.069163
v -0.611119 -0.112345 -0.068044
v -0.611064 -0.113066 0.067893
v -0.591873 -0.032147 0.069178
v -0.594601 -0.115936 -0.067383
v -0.601176 -0.099611 -0.085864
v -0.594329 -0.115460 0.067544
v -0.601176 -0.099611 0.085879
v 0.608716 -0.140971 0.080281
v 0.597264 -0.031143 0.082549
v 0.587368 -0.032946 0.082549
v 0.597264 -0.031143 -0.082533
v 0.587368 -0.032946 -0.082533
v 0.604647 -0.141646 -0.080237
v 0.594600 -0.115935 -0.067384
v 0.594328 -0.115460 0.067544
v 0.591873 -0.032147 0.069178
v 0.591873 -0.032147 -0.069163
v 0.611117 -0.112344 -0.068044
v 0.601175 -0.099607 -0.085864
v 0.611063 -0.113065 0.067893
v 0.601175 -0.099607 0.085879
v 0.582005 0.000678 -0.088862
v 0.581946 -0.052027 -0.088746
v 0.581683 -0.001317 0.088199
v 0.581416 -0.048615 0.087749
v 0.595998 -0.025748 -0.086054
v 0.602426 -0.023693 0.085505
v -0.581683 -0.001317 0.088199
v -0.582006 0.000678 -0.088862
v -0.581946 -0.052027 -0.088746
v -0.581417 -0.048615 0.087749
v -0.602426 -0.023694 0.085505
v -0.595999 -0.025748 -0.086054
v -0.448700 -0.264214 -0.325720
v -0.516202 -0.263792 0.326688
v -0.454850 0.141686 -0.316108
v -0.503360 0.141843 -0.315220
v -0.503360 0.141843 0.315233
v -0.454783 0.142136 0.316053
v 0.446886 -0.261804 0.328087
v 0.512864 -0.269857 -0.321919
v 0.453795 0.142562 -0.316856
v 0.503156 0.141929 -0.315030
v 0.503156 0.141930 0.315043
v 0.453848 0.142188 0.316930
v -0.613197 -0.260978 0.336363
v 0.613198 -0.260978 0.336363
v -0.613197 -0.260978 -0.336348
v 0.613198 -0.260978 -0.336348
v -0.583031 -0.309560 -0.294074
v 0.583030 -0.309560 0.294089
v -0.514003 -0.267791 -0.323539
v -0.482011 -0.306215 0.295890
v -0.448700 -0.264215 0.325734
v -0.482011 -0.306215 -0.295875
v 0.512864 -0.269859 0.321933
v 0.481999 -0.306215 -0.295874
v 0.446886 -0.261804 -0.328073
v 0.481999 -0.306215 0.295890
v -0.583031 -0.309560 0.294089
v -0.602552 -0.269218 0.257085
v 0.603804 -0.261571 0.195765
v 0.602552 -0.269219 -0.257069
v 0.583030 -0.309561 -0.294073
v -0.588461 -0.306259 -0.146923
v -0.603804 -0.261571 -0.195749
v 0.588460 -0.306259 -0.146923
v 0.606752 -0.264104 0.260758
v -0.605398 -0.259438 0.194425
v 0.605398 -0.259438 -0.194410
v -0.604432 -0.266929 -0.258714
v -0.523549 0.141454 -0.334591
v -0.611375 0.137687 -0.334889
v -0.613197 0.126374 -0.267717
v -0.595609 0.141393 -0.249452
v -0.596041 0.140530 -0.200771
v -0.613197 0.126374 -0.184462
v -0.613197 0.126374 0.184477
v -0.595707 0.140840 0.200637
v -0.595417 0.141457 0.249248
v -0.613197 0.126374 0.267733
v -0.611383 0.137636 0.335051
v -0.523341 0.141547 0.334407
v -0.438495 0.126374 0.336363
v 0.438491 0.126374 0.336363
v 0.523549 0.141454 0.334606
v 0.611572 0.137607 0.334915
v 0.613198 0.126374 0.267733
v 0.595608 0.141393 0.249467
v 0.595664 0.140204 0.201352
v 0.613198 0.126374 0.184477
v 0.613198 0.126374 -0.184462
v 0.596031 0.141117 -0.200128
v 0.595417 0.141457 -0.249232
v 0.613198 0.126374 -0.267717
v 0.611377 0.137687 -0.334889
v 0.523549 0.141454 -0.334591
v 0.438491 0.126374 -0.336348
v -0.355616 -0.304545 0.309395
v 0.363416 -0.302310 0.312240
v -0.589660 -0.305669 0.147116
v -0.356545 -0.303725 -0.311704
v 0.362402 -0.303495 -0.309687
v 0.589660 -0.305669 0.147116
v 0.446799 -0.307339 0.213713
v 0.446799 -0.307339 -0.213698
v -0.446806 -0.307339 0.213713
v -0.446806 -0.307339 -0.213698
v -0.613197 0.050048 0.149894
v -0.605365 0.043712 -0.148046
v 0.600667 0.039910 0.146877
v -0.363942 0.044978 0.329385
v 0.373105 0.050048 0.336363
v 0.369918 0.043711 -0.327625
v -0.366444 0.050048 -0.336348
v 0.359633 0.024706 0.301479
v -0.352972 0.024705 -0.301462
v -0.581871 0.024705 0.142143
v 0.606932 0.044979 -0.148440
v 0.413720 -0.268264 0.181866
v 0.413720 -0.268264 -0.181852
v -0.413725 -0.268264 0.181866
v -0.413725 -0.268264 -0.181851
v -0.569699 0.139935 -0.288993
v 0.569784 0.140138 -0.288200
v 0.569669 0.142091 0.289155
v -0.536538 -0.221935 0.253502
v -0.568958 0.140191 0.289146
v -0.536482 0.116614 0.255501
v 0.537824 0.117335 0.254583
v 0.536548 0.116635 -0.255408
v -0.537233 0.115497 -0.254027
v 0.534839 -0.220050 0.253463
v -0.534840 -0.220050 -0.253448
v 0.536537 -0.221936 -0.253487
v -0.438495 0.126374 -0.336348
v 0.569638 0.143809 -0.289339
v 0.569638 0.143896 0.289352
v -0.569636 0.143896 0.289352
v -0.569636 0.143811 -0.289338
v -0.553379 0.176613 0.271371
v 0.553596 0.175705 0.271072
v 0.553931 0.176508 -0.270818
v -0.553879 0.177307 -0.271286
v 0.519123 0.132266 0.236940
v -0.519120 0.132266 0.236940
v 0.519123 0.132194 -0.236926
v -0.519120 0.132194 -0.236926
v -0.509884 0.145487 0.321738
v -0.605021 0.147756 -0.331816
v 0.607066 0.148341 0.330710
v 0.434569 0.148435 0.332734
v 0.594113 0.143840 0.187157
v -0.594117 0.143846 0.187158
v 0.509883 0.145390 -0.321727
v 0.449822 0.300070 -0.309533
v 0.515469 0.277791 0.325324
v -0.449056 0.274965 0.325736
v -0.517834 0.275369 -0.328346
v -0.613198 0.273482 0.336347
v 0.613198 0.273482 0.336347
v -0.613198 0.273381 -0.336363
v 0.613198 0.273381 -0.336363
v -0.582911 0.308118 0.293056
v -0.513566 0.277209 0.323680
v -0.482012 0.304468 0.296447
v -0.449823 0.300070 -0.309533
v -0.438497 0.273381 -0.336363
v 0.577870 0.309561 -0.300798
v 0.515469 0.277693 -0.325341
v 0.438496 0.273381 -0.336363
v 0.482012 0.304468 0.296447
v 0.450578 0.273193 0.324834
v 0.582910 0.308118 0.293056
v 0.605646 0.274058 0.258715
v -0.589648 0.304170 0.146570
v -0.604614 0.274706 0.194492
v -0.577872 0.309560 -0.300799
v -0.602478 0.278656 -0.256520
v 0.605564 0.271497 -0.194461
v 0.604613 0.274706 0.194492
v -0.605647 0.274057 0.258715
v 0.602477 0.278657 -0.256520
v -0.605564 0.271496 -0.194461
v 0.450837 0.145083 -0.314064
v 0.604817 0.147224 -0.330423
v 0.599309 0.147854 -0.256345
v 0.599042 0.147730 -0.191090
v 0.608057 0.175657 0.193092
v 0.596870 0.146815 0.253674
v 0.509883 0.145487 0.321738
v 0.453544 0.145338 0.310948
v -0.443499 0.147100 0.322687
v -0.607066 0.148341 0.330710
v -0.596871 0.146816 0.253674
v -0.608058 0.175657 0.193092
v -0.599228 0.148369 -0.191183
v -0.599310 0.147854 -0.256345
v -0.507848 0.144596 -0.319785
v -0.443499 0.146999 -0.322676
v 0.438496 0.169038 -0.336352
v -0.357219 0.301958 0.313476
v 0.362796 0.302021 0.310716
v -0.589213 0.304404 -0.146508
v -0.357219 0.301863 -0.313499
v 0.362797 0.301927 -0.310739
v 0.589212 0.304404 -0.146508
v 0.589648 0.304170 0.146571
v 0.446805 0.305842 0.213694
v 0.439465 0.300207 -0.206644
v -0.437343 0.298668 0.204590
v -0.446806 0.305780 -0.213714
v -0.366445 0.221310 0.336353
v 0.369890 0.225271 0.327630
v -0.366445 0.221210 -0.336357
v 0.606933 0.224407 -0.148429
v -0.600668 0.227620 0.146852
v 0.369890 0.225173 -0.327635
v -0.352973 0.237056 -0.301473
v -0.352973 0.237147 0.301465
v -0.606933 0.224407 -0.148429
v 0.600667 0.227620 0.146851
v 0.413725 0.280744 0.181850
v -0.413725 0.280690 -0.181868
v 0.390592 0.286955 -0.103153
v -0.388321 0.289457 -0.100504
v -0.390595 0.287001 0.103130
v 0.388309 0.289507 0.100478
v 0.342171 0.289476 -0.050798
v -0.343149 0.291664 -0.052717
v -0.342173 0.289507 0.050783
v 0.343148 0.291695 0.052700
vn -0.0222 0.9997 -0.0076
vn 0.0120 0.9991 -0.0417
vn 0.0803 0.9968 0.0023
vn 0.0258 0.9997 0.0027
vn -0.0001 1.0000 -0.0037
vn 0.0434 0.9974 0.0580
vn 0.0199 0.9998 -0.0008
vn -0.0150 0.9990 0.0417
vn -0.0009 0.9982 0.0606
vn -0.0428 0.9990 -0.0100
vn -0.0018 1.0000 0.0037
vn -0.0010 0.8185 -0.5745
vn -0.6119 0.7910 -0.0028
vn -0.0006 0.8131 0.5822
vn 0.6032 0.7976 -0.0026
vn -0.0009 0.0059 -1.0000
vn -1.0000 0.0088 0.0025
vn 0.0013 0.0057 1.0000
vn 1.0000 0.0071 -0.0015
vn -0.9526 0.0199 -0.3036
vn -0.0567 0.0948 0.9939
vn -0.9675 -0.2528 -0.0000
vn -0.9763 0.2102 -0.0506
vn 0.0627 0.0919 -0.9938
vn -0.0514 0.0971 0.9939
vn -0.9600 -0.2801 -0.0000
vn 0.0494 0.3149 0.9478
vn 0.9196 -0.3327 0.2090
vn 0.9727 0.1074 0.2056
vn -0.0498 0.3146 -0.9479
vn 0.9687 -0.1144 0.2202
vn 0.9590 0.0203 -0.2826
vn 0.9847 0.1741 -0.0000
vn 0.9589 0.0146 -0.2834
vn 0.9699 -0.2347 -0.0649
vn -0.9342 0.1600 0.3187
vn -0.9621 -0.1447 -0.2313
vn 0.0088 0.0481 0.9988
vn 0.8759 -0.4818 0.0242
vn 0.8915 -0.1316 -0.4334
vn 0.9470 -0.0216 -0.3205
vn -0.9782 -0.2061 -0.0239
vn -0.8991 0.2192 -0.3790
vn 0.1415 0.9899 -0.0038
vn -0.8987 0.2209 0.3789
vn 0.0088 0.0481 -0.9988
vn 0.9469 -0.0240 0.3206
vn -0.9031 0.1084 0.4154
vn -0.8759 -0.4819 0.0242
vn -0.8915 -0.1316 -0.4335
vn -0.8726 -0.1577 0.4622
vn 0.9783 -0.2060 -0.0239
vn 0.8959 0.0725 0.4383
vn -0.1416 0.9899 -0.0038
vn 0.0179 0.0201 -0.9996
vn 0.0351 0.0224 0.9991
vn 0.8922 0.0727 -0.4458
vn -0.0088 0.0481 -0.9988
vn -0.8773 -0.1591 -0.4527
vn 0.9032 0.1084 0.4154
vn 0.1925 -0.0024 -0.9813
vn 0.8834 0.4685 0.0069
vn 0.8813 -0.4725 0.0118
vn 0.1180 -0.0101 0.9930
vn 0.7308 0.6817 -0.0355
vn -0.8834 0.4685 0.0069
vn -0.8813 -0.4725 0.0118
vn -0.1181 -0.0101 0.9930
vn -0.7308 0.6817 -0.0355
vn 0.0117 -0.9999 -0.0087
vn 0.9404 -0.3385 0.0335
vn -0.9354 -0.3521 0.0329
vn 0.0049 -0.5849 0.8111
vn 0.0558 -0.6355 -0.7701
vn -0.0544 -0.6360 0.7697
vn -0.0047 -0.5797 -0.8148
vn -0.0041 0.0328 0.9995
vn -0.0348 -0.0508 -0.9981
vn -0.9362 -0.3506 -0.0267
vn -0.0335 -0.9992 0.0237
vn 0.9312 -0.3635 -0.0262
vn -0.8727 -0.4836 -0.0669
vn 0.8727 -0.4837 0.0669
vn 0.0336 -0.9990 -0.0280
vn -0.6364 0.7713 -0.0000
vn -0.0006 0.7898 0.6134
vn 0.6515 0.7587 -0.0000
vn -0.7766 0.0031 -0.6299
vn -0.0345 0.0212 -0.9992
vn 0.0032 0.0036 -1.0000
vn -0.9996 0.0047 -0.0263
vn -0.7203 -0.0002 0.6937
vn -0.9998 0.0192 -0.0085
vn -0.9636 -0.0617 -0.2602
vn -0.6809 0.0051 0.7324
vn -0.9998 0.0175 0.0057
vn -0.9996 0.0046 0.0262
vn 0.0993 0.0028 0.9951
vn 0.6924 -0.0015 0.7215
vn -0.0170 0.0236 0.9996
vn -0.0095 0.0082 0.9999
vn 0.7831 0.0037 0.6219
vn 0.0383 0.0176 0.9991
vn -0.0034 0.0036 1.0000
vn 0.9964 0.0038 -0.0851
vn 0.7205 0.0005 -0.6934
vn 0.9998 0.0202 0.0007
vn 0.9883 -0.1512 0.0184
vn 0.6765 0.0053 -0.7364
vn 0.9998 0.0176 -0.0124
vn 0.9996 0.0047 -0.0263
vn -0.1400 -0.0269 -0.9898
vn -0.6923 -0.0042 -0.7216
vn 0.0960 0.0260 -0.9950
vn -0.0963 -0.5247 -0.8458
vn 0.0108 -0.1138 -0.9934
vn -0.0000 0.7693 -0.6389
vn -0.6290 -0.7774 -0.0000
vn -0.9997 0.0235 -0.0041
vn -0.9642 -0.0457 0.2611
vn 0.0844 -0.5403 -0.8372
vn 0.9995 -0.0318 -0.0040
vn -0.0293 -0.9992 0.0262
vn 0.0126 -0.9999 0.0020
vn -0.0000 -0.9996 0.0292
vn -0.0000 -1.0000 -0.0000
vn 0.0004 -0.9992 -0.0404
vn -0.0151 -0.9999 0.0072
vn -0.0076 -1.0000 -0.0000
vn -0.0117 -0.9999 -0.0087
vn -0.9942 -0.1047 -0.0239
vn 0.9670 -0.0310 -0.2531
vn 0.9925 -0.0232 0.1203
vn 0.1504 -0.0529 0.9872
vn -0.0000 -0.8090 0.5878
vn -0.1565 -0.0632 0.9857
vn -0.1904 -0.0465 -0.9806
vn -0.0000 -0.8091 -0.5877
vn -0.0280 -0.0265 -0.9993
vn -0.9331 0.0010 0.3596
vn 0.9331 0.0011 -0.3596
vn -0.2468 -0.0088 -0.9690
vn -0.7632 -0.6461 -0.0000
vn -0.0000 -0.6318 -0.7752
vn 0.7632 -0.6461 -0.0000
vn -0.0000 -0.6318 0.7752
vn 0.1164 -0.9931 0.0171
vn -0.0478 -0.9988 -0.0109
vn -0.0001 -0.9901 0.1406
vn -0.0007 -0.9952 0.0982
vn 0.0211 -0.9959 0.0879
vn -0.1823 -0.9832 -0.0093
vn -0.1128 -0.9936 0.0047
vn -0.0009 -0.9989 -0.0471
vn -0.0234 -0.9970 -0.0731
vn -0.0000 -1.0000 0.0002
vn -0.0000 -0.4817 -0.8764
vn -0.9014 -0.4330 0.0001
vn -0.0000 -0.4744 0.8803
vn 0.9049 -0.4257 0.0001
vn -0.0003 -0.6177 0.7864
vn 0.7835 -0.6214 -0.0004
vn -0.0001 -0.6075 -0.7944
vn -0.7914 -0.6113 -0.0001
vn -0.0371 0.9989 -0.0286
vn 0.9171 -0.3982 -0.0202
vn 0.8426 0.5380 0.0243
vn -0.8426 0.5380 0.0243
vn 0.0537 0.7610 0.6465
vn -0.0036 0.7324 0.6808
vn -0.0535 0.6730 -0.7377
vn 0.0038 -0.1822 -0.9833
vn -0.0319 0.2123 0.9767
vn 0.8656 0.4985 -0.0470
vn -0.8656 0.4985 -0.0470
vn 0.7941 0.6034 -0.0728
vn -0.7410 0.6692 0.0553
vn 0.0507 0.9980 -0.0384
vn -0.0765 0.9963 0.0389
vn -0.2394 -0.0164 -0.9708
vn -0.0904 -0.0409 -0.9951
vn 0.9906 -0.0238 0.1346
vn 0.9970 -0.0541 -0.0558
vn 0.9948 -0.0548 -0.0856
vn 0.9975 -0.0681 -0.0167
vn 0.9943 -0.0444 -0.0971
vn -0.1130 -0.0221 0.9933
vn -0.0056 -0.0269 0.9996
vn -0.0000 0.9106 0.4133
vn -0.0324 -0.0156 0.9994
vn 0.0907 -0.0404 0.9951
vn -0.9943 -0.0444 -0.0970
vn -0.9975 -0.0681 -0.0167
vn -0.9664 0.1383 -0.2168
vn -0.9971 -0.0528 -0.0557
vn -0.9952 -0.0621 0.0754
vn 0.0844 -0.0306 -0.9960
vn -0.0478 0.0835 -0.9954
vn -0.9231 -0.0051 -0.3846
vn -0.0000 0.9105 -0.4136
vn 0.9147 0.0178 -0.4038
vn 0.0056 -0.6796 -0.7336
vn 0.1804 0.2490 -0.9515
vn -0.0900 0.6492 0.7552
vn -0.1465 -0.0299 0.9888
vn -0.0889 0.2065 0.9744
vn 0.0802 0.6246 0.7769
vn -0.9763 0.2158 0.0184
vn -0.9950 -0.0535 -0.0843
vn -0.2514 0.1859 -0.9499
vn 0.9763 0.2158 0.0184
vn 0.9924 0.0362 -0.1179
vn -0.0218 0.9980 -0.0588
vn 0.0299 0.9994 0.0163
vn 0.0163 0.9998 0.0097
vn -0.0284 0.9996 0.0008
vn -0.0264 0.9996 -0.0040
vn 0.0001 0.9992 0.0394
vn -0.0031 0.9998 -0.0214
vn -0.0002 0.9999 0.0166
vn -0.0110 -0.1700 0.9854
vn 0.0108 0.1663 -0.9860
vn 0.9873 0.1575 0.0192
vn -0.9957 -0.0917 -0.0164
vn 0.9337 -0.0053 -0.3581
vn 0.9337 -0.0052 0.3581
vn -0.6043 0.7967 -0.0001
vn 0.6044 0.7967 -0.0001
vn 0.3483 0.9374 -0.0078
vn -0.0193 0.9928 0.1180
vn -0.3474 0.9377 0.0074
vn 0.0181 0.9942 -0.1060
vn 0.0609 0.9981 -0.0118
vn 0.0031 0.9990 -0.0453
vn -0.0608 0.9981 0.0114
vn -0.0031 0.9990 0.0450
vn -0.0443 0.9989 0.0147
vn -0.0077 0.9991 -0.0419
vn 0.0734 0.9968 0.0305
vn -0.0631 0.9980 0.0077
vn -0.0259 0.9997 -0.0034
vn -0.0109 0.9996 -0.0247
vn 0.0428 0.9990 -0.0143
vn 0.0061 0.9997 0.0218
vn -0.0017 0.9979 -0.0651
vn -0.0052 0.9987 -0.0503
vn 0.0050 0.9998 0.0191
vn 0.0674 0.9976 -0.0131
vn 0.0259 0.9997 -0.0005
vn 0.0842 0.9963 0.0184
vn 0.0048 0.9964 0.0845
vn -0.0002 0.9964 0.0853
vn 0.0114 0.9992 0.0384
vn -0.0260 0.9996 0.0070
vn 0.0018 1.0000 -0.0037
vn -0.0014 0.8136 -0.5814
vn -0.5771 0.8166 0.0003
vn -0.0001 0.8196 0.5729
vn 0.5867 0.8098 -0.0011
vn -0.0000 0.0033 -1.0000
vn -1.0000 -0.0000 -0.0034
vn -0.0000 0.0017 1.0000
vn 1.0000 -0.0002 0.0033
vn -0.9802 0.1979 -0.0000
vn -0.0578 0.0601 0.9965
vn -0.9528 0.0398 -0.3009
vn -0.9833 0.1818 -0.0000
vn -0.0526 0.0564 0.9970
vn -0.9716 -0.2300 -0.0548
vn 0.0638 0.0628 -0.9960
vn 0.9361 0.0761 -0.3433
vn 0.0543 0.0547 0.9970
vn 0.9282 0.1795 -0.3259
vn 0.9632 -0.1282 0.2363
vn -0.0541 0.0542 -0.9971
vn 0.9818 0.1901 -0.0000
vn 0.9788 0.1996 -0.0467
vn -0.9744 0.1042 -0.1992
vn -0.9401 0.0715 0.3333
vn 0.9623 -0.2719 -0.0000
vn 0.9550 -0.2965 -0.0000
vn -0.9161 -0.3426 -0.2082
vn -0.9662 -0.1348 -0.2196
vn 0.9315 -0.3637 -0.0006
vn 0.8727 -0.1577 0.4622
vn -0.9965 -0.0839 -0.0000
vn -0.8959 0.0725 0.4383
vn -0.8756 0.0077 -0.4831
vn 0.2122 0.9772 0.0051
vn -0.0180 0.0201 -0.9996
vn -0.0351 0.0224 0.9991
vn -0.8921 0.0727 -0.4459
vn 0.8774 -0.1591 -0.4527
vn 0.8359 -0.2204 0.5027
vn -0.0088 0.0481 0.9988
vn -0.9315 -0.3637 -0.0006
vn -0.9470 -0.0216 -0.3204
vn 0.9965 -0.0838 -0.0001
vn 0.8991 0.2192 -0.3789
vn 0.8756 0.0077 -0.4830
vn -0.2123 0.9772 0.0051
vn 0.8987 0.2209 0.3789
vn -0.9470 -0.0240 0.3205
vn -0.8359 -0.2204 0.5027
vn 0.7635 -0.6455 -0.0209
vn -0.1925 -0.0024 -0.9813
vn -0.7635 -0.6455 -0.0209
vn -0.0202 -0.9995 -0.0223
vn 0.0043 -0.5847 -0.8112
vn 0.8667 -0.4953 -0.0586
vn 0.0043 -0.5847 0.8112
vn -0.8882 -0.4584 -0.0312
vn 0.0078 -0.5833 0.8122
vn 0.0047 -0.5817 -0.8134
vn 0.0585 -0.6344 0.7708
vn 0.0048 -0.5817 -0.8134
vn -0.0047 -0.5797 0.8148
vn -0.0544 -0.6360 -0.7697
vn 0.0369 -0.0562 0.9977
vn 0.0028 0.0311 -0.9995
vn -0.8755 -0.4807 0.0496
vn 0.8882 -0.4584 0.0312
vn 0.8686 -0.4926 -0.0537
vn -0.8709 -0.4877 0.0609
vn -0.0336 -0.9990 -0.0280
vn 0.0335 -0.9992 0.0237
vn -0.7038 0.7034 0.0994
vn -0.6373 0.7706 -0.0001
vn -0.7017 0.7056 -0.0991
vn -0.0000 0.7756 0.6312
vn 0.7043 0.7027 -0.1004
vn 0.6207 0.7841 0.0023
vn 0.7019 0.7052 0.0997
vn -0.0182 0.0234 -0.9996
vn 0.6924 -0.0033 -0.7215
vn 0.1264 -0.0238 -0.9917
vn -0.9937 -0.0196 0.1107
vn -0.9997 0.0214 0.0081
vn -0.6908 0.0043 -0.7230
vn -0.9989 -0.0191 0.0422
vn -0.9985 0.0234 0.0490
vn -0.7204 -0.0007 -0.6935
vn -0.9912 -0.0232 -0.1307
vn 0.0082 -0.0189 0.9998
vn 0.0143 0.0278 0.9995
vn -0.7789 0.0033 0.6272
vn -0.0000 -0.0854 0.9963
vn 0.0960 0.0258 0.9950
vn -0.6923 -0.0042 0.7216
vn -0.1400 -0.0269 0.9898
vn 0.9995 -0.0170 0.0270
vn 0.9987 0.0262 -0.0443
vn 0.6951 0.0041 0.7189
vn 0.9970 -0.0768 -0.0000
vn 0.9985 0.0227 -0.0489
vn 0.7204 -0.0007 0.6936
vn 0.9912 -0.0232 0.1307
vn -0.0032 0.0036 -1.0000
vn 0.0372 0.0176 -0.9992
vn 0.7850 0.0038 -0.6195
vn -0.0000 -0.0000 -1.0000
vn -0.0013 0.7970 -0.6040
vn -0.0830 -0.5327 0.8422
vn 0.0984 -0.5319 0.8410
vn -0.9958 -0.0479 0.0775
vn -0.9885 -0.0283 0.1485
vn 0.9984 -0.0524 0.0203
vn 0.0151 -0.9999 0.0072
vn 0.0076 -1.0000 -0.0000
vn 0.0029 -0.9986 0.0534
vn -0.0000 -0.9993 -0.0369
vn 0.0112 -0.9998 0.0185
vn -0.0126 -0.9999 0.0020
vn 0.0172 -0.9996 -0.0210
vn -1.0000 -0.0000 -0.0000
vn 0.9673 -0.0307 -0.2517
vn 0.9550 -0.0490 0.2924
vn 0.0620 -0.0288 0.9977
vn 0.0243 -0.0208 0.9995
vn -0.0984 -0.0233 -0.9949
vn 0.1225 -0.0656 -0.9903
vn -0.0211 -0.9959 0.0879
vn -0.1234 -0.9923 0.0106
vn 0.1127 -0.9936 0.0048
vn 0.1317 -0.9913 0.0001
vn 0.1365 -0.9906 -0.0013
vn 0.1552 -0.9872 0.0377
vn 0.0127 -0.9973 -0.0721
vn 0.0242 -0.9997 0.0044
vn -0.0000 -0.9978 0.0666
vn -0.0050 -0.9992 0.0399
vn 0.0014 -1.0000 0.0001
vn -0.1552 -0.9872 0.0377
vn -0.1263 -0.9920 0.0080
vn -0.0000 -0.9987 -0.0515
vn 0.0397 -0.9977 0.0549
vn -0.0012 -0.9950 -0.0996
vn -0.0006 -0.4985 -0.8669
vn -0.8926 -0.4508 -0.0012
vn -0.0007 -0.4931 0.8700
vn 0.8952 -0.4456 -0.0014
vn -0.0000 -0.6133 0.7899
vn 0.7864 -0.6177 0.0001
vn -0.0000 -0.6059 -0.7955
vn -0.7922 -0.6103 0.0001
vn -0.9171 -0.3982 -0.0202
vn -0.0550 0.7008 0.7112
vn 0.8980 0.4398 -0.0100
vn 0.0104 0.5972 -0.8020
vn -0.8980 0.4399 -0.0100
vn -0.0077 0.6192 -0.7852
vn 0.0020 0.7056 0.7086
vn 0.0477 0.6761 -0.7352
vn 0.0017 0.7058 0.7084
vn -0.0384 0.7670 0.6405
vn -0.0319 0.2121 -0.9767
vn 0.0038 -0.1820 0.9833
vn 0.7544 0.6553 0.0381
vn -0.7544 0.6553 0.0381
vn -0.7941 0.6034 -0.0728
vn 0.9153 -0.4026 0.0078
vn -0.9154 -0.4026 0.0076
vn 0.7410 0.6692 0.0553
vn 0.0765 0.9963 0.0389
vn 0.0371 0.9989 -0.0286
vn 0.0269 0.9984 -0.0500
vn -0.1288 0.0281 -0.9913
vn -0.1130 -0.0224 -0.9933
vn 0.9953 -0.0626 0.0745
vn 0.9997 -0.0242 0.0041
vn 0.9605 0.2083 0.1845
vn 0.9801 0.0313 0.1959
vn 0.9895 -0.0631 -0.1297
vn -0.0907 -0.0404 0.9951
vn -0.1867 -0.1104 0.9762
vn 0.7491 -0.0543 0.6602
vn -0.0137 -0.0244 0.9996
vn 0.1265 -0.0111 0.9919
vn -0.9895 -0.0631 -0.1297
vn -0.9801 0.0313 0.1959
vn -0.9924 0.0362 -0.1180
vn -0.9997 -0.0242 0.0015
vn -0.9906 -0.0238 0.1346
vn 0.1209 -0.0556 -0.9911
vn 0.2803 -0.0414 -0.9590
vn 0.8748 -0.0001 -0.4845
vn -0.0755 -0.1044 -0.9917
vn -0.0441 0.6989 -0.7138
vn 0.0499 0.2673 0.9623
vn -0.0032 0.0636 0.9980
vn -0.9898 0.1425 -0.0014
vn -0.9605 0.2083 0.1846
vn 0.0249 0.7035 -0.7103
vn -0.1261 -0.0001 -0.9920
vn 0.9898 0.1425 -0.0014
vn 0.9664 0.1383 -0.2167
vn -0.0371 0.9976 -0.0583
vn -0.0093 1.0000 0.0008
vn -0.0176 0.9996 0.0241
vn 0.0054 0.9999 -0.0135
vn 0.0213 0.9998 0.0008
vn -0.0079 0.9997 -0.0244
vn 0.0031 0.9998 0.0208
vn 0.0065 0.9994 -0.0333
vn 0.0114 0.0758 0.9971
vn -0.0110 -0.1702 -0.9853
vn 0.9955 -0.0932 -0.0166
vn -0.9873 0.1575 0.0192
vn -0.0000 0.7855 0.6189
vn -0.0000 0.7854 -0.6190
vn -0.1884 0.9814 0.0367
vn 0.0028 0.9941 -0.1080
vn 0.1688 0.9850 -0.0355
vn -0.0028 0.9942 0.1079
vn 0.0286 0.9994 -0.0217
vn 0.0033 0.9988 -0.0493
vn -0.0289 0.9994 0.0211
vn -0.0033 0.9988 0.0489
vt 0.875000 0.875000
vt 0.625000 0.625000
vt 0.125000 0.375000
vt 0.125000 0.875000
vt 0.375000 0.875000
vt 0.875000 0.375000
vt 0.875000 0.625000
s 0
usemtl ruins_find_torgoth_salvage
f 162/1/1 117/1/1 72/1/1
f 159/1/2 128/1/2 130/1/2
f 160/1/3 124/1/3 127/1/3
f 159/1/4 131/1/4 77/1/4
f 73/1/5 79/1/5 160/1/5
f 160/1/6 120/1/6 121/1/6
f 158/1/7 110/1/7 113/1/7
f 162/1/8 114/1/8 116/1/8
f 76/1/9 70/1/9 158/1/9
f 158/1/10 106/1/10 107/1/10
f 167/2/11 168/2/11 161/2/11
f 162/2/12 164/2/12 163/2/12
f 159/2/13 164/2/13 160/2/13
f 158/2/14 165/2/14 159/2/14
f 158/2/15 163/2/15 166/2/15
f 164/2/16 161/2/16 163/2/16
f 165/2/17 167/2/17 164/2/17
f 166/2/18 169/2/18 165/2/18
f 163/2/19 168/2/19 166/2/19
f 5/3/20 3/3/20 6/3/20
f 2/3/21 5/3/21 7/3/21
f 5/3/22 1/3/22 4/3/22
f 9/3/23 13/3/23 12/3/23
f 10/3/24 14/3/24 13/3/24
f 9/3/25 12/3/25 15/3/25
f 12/3/26 8/3/26 11/3/26
f 20/3/27 17/3/27 19/3/27
f 18/3/28 20/3/28 16/3/28
f 26/3/29 23/3/29 25/3/29
f 27/3/30 23/3/30 26/3/30
f 24/3/31 25/3/31 22/3/31
f 3/3/32 7/3/32 6/3/32
f 9/3/33 14/3/33 10/3/33
f 7/3/34 1/3/34 6/3/34
f 15/3/35 8/3/35 14/3/35
f 27/3/36 22/3/36 25/3/36
f 21/3/37 16/3/37 19/3/37
f 41/3/38 30/3/38 29/3/38
f 33/4/39 40/4/39 28/4/39
f 39/4/40 38/4/40 33/4/40
f 30/3/41 40/3/41 37/3/41
f 28/4/42 35/4/42 33/4/42
f 36/3/43 29/3/43 37/3/43
f 38/4/44 36/4/44 40/4/44
f 31/3/45 35/3/45 34/3/45
f 32/3/46 39/3/46 31/3/46
f 38/3/47 32/3/47 34/3/47
f 41/4/48 36/4/48 28/4/48
f 49/4/49 47/4/49 42/4/49
f 48/4/50 53/4/50 47/4/50
f 44/3/51 49/3/51 55/3/51
f 52/4/52 42/4/52 47/4/52
f 54/3/53 43/3/53 55/3/53
f 54/4/54 48/4/54 49/4/54
f 50/3/55 54/3/55 49/3/55
f 52/3/56 51/3/56 48/3/56
f 45/3/57 52/3/57 53/3/57
f 53/3/58 46/3/58 45/3/58
f 48/3/59 46/3/59 53/3/59
f 54/4/60 55/4/60 42/4/60
f 56/3/61 60/3/61 57/3/61
f 56/3/62 58/3/62 60/3/62
f 60/3/63 59/3/63 57/3/63
f 61/3/64 58/3/64 59/3/64
f 61/3/65 60/3/65 58/3/65
f 62/3/66 63/3/66 67/3/66
f 65/3/67 67/3/67 64/3/67
f 62/3/68 66/3/68 65/3/68
f 67/3/69 66/3/69 62/3/69
f 140/1/70 91/1/70 101/1/70
f 96/5/71 85/5/71 138/5/71
f 94/5/72 103/5/72 135/5/72
f 69/1/73 94/1/73 87/1/73
f 86/1/74 84/1/74 82/1/74
f 90/1/75 85/1/75 81/1/75
f 75/1/76 98/1/76 91/1/76
f 150/5/77 133/5/77 134/5/77
f 137/5/78 151/5/78 148/5/78
f 100/5/79 84/5/79 99/5/79
f 101/1/80 91/1/80 98/1/80
f 98/5/81 104/5/81 101/5/81
f 95/1/82 94/1/82 80/1/82
f 97/1/83 98/1/83 83/1/83
f 135/1/84 87/1/84 94/1/84
f 112/1/85 110/1/85 111/1/85
f 118/1/86 79/1/86 73/1/86
f 127/1/87 125/1/87 126/1/87
f 170/1/88 68/1/88 70/1/88
f 71/5/89 68/5/89 86/5/89
f 106/1/90 82/1/90 107/1/90
f 82/1/91 108/1/91 107/1/91
f 108/1/92 105/1/92 109/1/92
f 109/5/93 100/5/93 110/5/93
f 103/1/94 143/1/94 135/1/94
f 112/1/95 103/1/95 113/1/95
f 113/5/96 95/5/96 114/5/96
f 115/1/97 80/1/97 116/1/97
f 69/1/98 116/1/98 80/1/98
f 117/1/99 69/1/99 72/1/99
f 72/5/100 88/5/100 73/5/100
f 119/1/101 146/1/101 147/1/101
f 119/1/102 74/1/102 79/1/102
f 79/5/103 90/5/103 78/5/103
f 120/1/104 81/1/104 121/1/104
f 102/1/105 121/1/105 81/1/105
f 122/1/106 102/1/106 123/1/106
f 123/5/107 96/5/107 124/5/107
f 153/1/108 125/1/108 145/1/108
f 126/1/109 104/1/109 127/1/109
f 127/5/110 97/5/110 128/5/110
f 129/1/111 83/1/111 130/1/111
f 131/1/112 83/1/112 75/1/112
f 131/1/113 75/1/113 77/1/113
f 76/5/114 75/5/114 92/5/114
f 136/1/115 89/1/115 68/1/115
f 149/1/116 132/1/116 148/1/116
f 170/1/117 76/1/117 132/1/117
f 143/1/118 144/1/118 152/1/118
f 152/5/119 99/5/119 135/5/119
f 144/1/120 100/1/120 99/1/120
f 91/1/121 137/1/121 92/1/121
f 101/5/122 145/5/122 138/5/122
f 93/1/123 134/1/123 139/1/123
f 139/1/124 101/1/124 138/1/124
f 139/1/125 133/1/125 141/1/125
f 154/5/126 157/5/126 155/5/126
f 140/1/127 136/1/127 137/1/127
f 135/1/128 141/1/128 87/1/128
f 141/1/129 99/1/129 142/1/129
f 142/1/130 99/1/130 89/1/130
f 143/1/131 111/1/131 144/1/131
f 145/1/132 96/1/132 138/1/132
f 153/1/133 104/1/133 126/1/133
f 146/1/134 88/1/134 133/1/134
f 147/1/135 146/1/135 150/1/135
f 74/1/136 147/1/136 134/1/136
f 148/1/137 92/1/137 137/1/137
f 148/1/138 151/1/138 149/1/138
f 149/1/139 68/1/139 170/1/139
f 134/1/140 147/1/140 150/1/140
f 136/1/141 149/1/141 151/1/141
f 135/1/142 143/1/142 152/1/142
f 140/1/143 154/1/143 155/1/143
f 139/1/144 156/1/144 154/1/144
f 142/1/145 156/1/145 141/1/145
f 140/1/146 157/1/146 142/1/146
f 221/1/147 171/1/147 220/1/147
f 222/1/148 187/1/148 172/1/148
f 186/1/149 227/1/149 226/1/149
f 226/1/150 227/1/150 173/1/150
f 225/1/151 172/1/151 185/1/151
f 188/1/152 231/1/152 174/1/152
f 229/1/153 173/1/153 228/1/153
f 219/1/154 189/1/154 171/1/154
f 233/1/155 174/1/155 184/1/155
f 182/2/156 179/2/156 180/2/156
f 175/1/157 172/1/157 173/1/157
f 172/1/158 177/1/158 171/1/158
f 171/1/159 178/1/159 174/1/159
f 178/1/160 173/1/160 174/1/160
f 175/2/161 179/2/161 176/2/161
f 179/2/162 177/2/162 176/2/162
f 181/2/163 178/2/163 177/2/163
f 178/2/164 180/2/164 175/2/164
f 242/6/165 206/6/165 208/6/165
f 223/1/166 224/1/166 187/1/166
f 209/6/167 242/6/167 208/6/167
f 210/6/168 216/6/168 198/6/168
f 199/6/169 198/6/169 194/6/169
f 191/6/170 208/6/170 206/6/170
f 204/6/171 203/6/171 197/6/171
f 240/6/172 253/6/172 239/6/172
f 237/6/173 254/6/173 248/6/173
f 214/6/174 203/6/174 241/6/174
f 212/6/175 218/6/175 238/6/175
f 209/6/176 208/6/176 195/6/176
f 213/6/177 212/6/177 196/6/177
f 245/6/178 210/6/178 200/6/178
f 241/6/179 203/6/179 190/6/179
f 189/1/180 190/1/180 204/1/180
f 189/6/181 197/6/181 220/6/181
f 221/6/182 197/6/182 217/6/182
f 222/1/183 217/1/183 214/1/183
f 214/6/184 250/6/184 222/6/184
f 224/1/185 215/1/185 209/1/185
f 185/6/186 209/6/186 195/6/186
f 225/6/187 195/6/187 191/6/187
f 207/1/188 225/1/188 191/1/188
f 247/6/189 248/6/189 254/6/189
f 183/1/190 192/1/190 199/1/190
f 183/6/191 194/6/191 228/6/191
f 216/6/192 228/6/192 194/6/192
f 211/1/193 229/1/193 216/1/193
f 251/6/194 211/6/194 210/6/194
f 213/1/195 231/1/195 218/1/195
f 232/6/196 196/6/196 184/6/196
f 193/6/197 184/6/197 196/6/197
f 233/1/198 201/1/198 234/1/198
f 202/6/199 234/6/199 201/6/199
f 252/6/200 249/6/200 253/6/200
f 219/6/201 205/6/201 190/6/201
f 234/6/202 235/6/202 219/6/202
f 249/6/203 202/6/203 239/6/203
f 236/6/204 200/6/204 192/6/204
f 247/6/205 192/6/205 227/6/205
f 248/6/206 207/6/206 237/6/206
f 206/6/207 237/6/207 207/6/207
f 251/6/208 238/6/208 255/6/208
f 255/6/209 218/6/209 231/6/209
f 205/6/210 252/6/210 240/6/210
f 241/6/211 256/6/211 250/6/211
f 256/6/212 215/6/212 223/6/212
f 246/6/213 239/6/213 201/6/213
f 246/6/214 210/6/214 245/6/214
f 243/6/215 206/6/215 242/6/215
f 244/6/216 242/6/216 241/6/216
f 244/6/217 241/6/217 190/6/217
f 243/6/218 236/6/218 237/6/218
f 263/1/219 265/1/219 266/1/219
f 239/6/220 244/6/220 240/6/220
f 186/6/221 247/6/221 227/6/221
f 235/6/222 249/6/222 252/6/222
f 223/6/223 250/6/223 256/6/223
f 230/6/224 255/6/224 231/6/224
f 249/6/225 239/6/225 253/6/225
f 236/6/226 247/6/226 254/6/226
f 244/6/227 257/6/227 243/6/227
f 246/6/228 245/6/228 258/6/228
f 257/1/229 259/1/229 262/1/229
f 258/1/230 259/1/230 244/1/230
f 258/1/231 261/1/231 260/1/231
f 257/1/232 261/1/232 245/1/232
f 259/7/233 266/7/233 262/7/233
f 260/7/234 263/7/234 259/7/234
f 261/7/235 264/7/235 260/7/235
f 262/7/236 265/7/236 261/7/236
f 162/1/237 116/1/237 117/1/237
f 158/1/238 107/1/238 109/1/238
f 160/1/239 121/1/239 123/1/239
f 128/1/240 159/1/240 127/1/240
f 159/1/241 160/1/241 127/1/241
f 160/1/242 123/1/242 124/1/242
f 159/1/243 130/1/243 131/1/243
f 79/1/244 78/1/244 160/1/244
f 160/1/245 162/1/245 73/1/245
f 162/1/246 72/1/246 73/1/246
f 160/1/247 78/1/247 120/1/247
f 114/1/248 162/1/248 113/1/248
f 162/1/249 158/1/249 113/1/249
f 158/1/250 109/1/250 110/1/250
f 71/1/251 158/1/251 70/1/251
f 158/1/252 159/1/252 76/1/252
f 159/1/253 77/1/253 76/1/253
f 158/1/254 71/1/254 106/1/254
f 167/2/255 169/2/255 168/2/255
f 162/2/256 160/2/256 164/2/256
f 159/2/257 165/2/257 164/2/257
f 158/2/258 166/2/258 165/2/258
f 158/2/259 162/2/259 163/2/259
f 164/2/260 167/2/260 161/2/260
f 165/2/261 169/2/261 167/2/261
f 166/2/262 168/2/262 169/2/262
f 163/2/263 161/2/263 168/2/263
f 5/3/264 2/3/264 3/3/264
f 7/3/265 5/3/265 4/3/265
f 5/3/266 6/3/266 1/3/266
f 9/3/267 10/3/267 13/3/267
f 15/3/268 12/3/268 11/3/268
f 12/3/269 13/3/269 8/3/269
f 13/3/270 14/3/270 8/3/270
f 20/3/271 21/3/271 17/3/271
f 16/3/272 20/3/272 19/3/272
f 18/3/273 21/3/273 20/3/273
f 24/3/274 26/3/274 25/3/274
f 24/3/275 27/3/275 26/3/275
f 3/3/276 2/3/276 7/3/276
f 9/3/277 15/3/277 14/3/277
f 17/3/278 21/3/278 19/3/278
f 27/3/279 25/3/279 23/3/279
f 7/3/280 4/3/280 1/3/280
f 15/3/281 11/3/281 8/3/281
f 27/3/282 24/3/282 22/3/282
f 21/3/283 18/3/283 16/3/283
f 33/4/284 38/4/284 40/4/284
f 30/3/285 41/3/285 40/3/285
f 28/4/286 36/4/286 35/4/286
f 36/3/287 41/3/287 29/3/287
f 39/4/288 33/4/288 35/4/288
f 38/4/289 35/4/289 36/4/289
f 37/3/290 40/3/290 36/3/290
f 35/3/291 38/3/291 34/3/291
f 31/3/292 39/3/292 35/3/292
f 38/3/293 39/3/293 32/3/293
f 41/4/294 28/4/294 40/4/294
f 55/3/295 43/3/295 44/3/295
f 49/4/296 48/4/296 47/4/296
f 44/3/297 50/3/297 49/3/297
f 52/4/298 54/4/298 42/4/298
f 54/3/299 50/3/299 43/3/299
f 52/4/300 47/4/300 53/4/300
f 54/4/301 52/4/301 48/4/301
f 45/3/302 51/3/302 52/3/302
f 48/3/303 51/3/303 46/3/303
f 49/4/304 42/4/304 55/4/304
f 60/3/305 61/3/305 59/3/305
f 63/3/306 64/3/306 67/3/306
f 65/3/307 66/3/307 67/3/307
f 140/1/308 137/1/308 91/1/308
f 91/5/309 92/5/309 75/5/309
f 96/5/310 102/5/310 85/5/310
f 90/5/311 74/5/311 93/5/311
f 94/5/312 95/5/312 103/5/312
f 87/5/313 88/5/313 69/5/313
f 86/5/314 68/5/314 89/5/314
f 69/1/315 80/1/315 94/1/315
f 86/1/316 89/1/316 84/1/316
f 90/1/317 93/1/317 85/1/317
f 75/1/318 83/1/318 98/1/318
f 150/5/319 146/5/319 133/5/319
f 137/5/320 136/5/320 151/5/320
f 100/5/321 105/5/321 84/5/321
f 98/5/322 97/5/322 104/5/322
f 102/1/323 81/1/323 85/1/323
f 105/1/324 82/1/324 84/1/324
f 138/1/325 85/1/325 93/1/325
f 99/1/326 84/1/326 89/1/326
f 108/1/327 109/1/327 107/1/327
f 112/1/328 113/1/328 110/1/328
f 116/1/329 114/1/329 115/1/329
f 118/1/330 119/1/330 79/1/330
f 122/1/331 123/1/331 121/1/331
f 127/1/332 124/1/332 125/1/332
f 130/1/333 128/1/333 129/1/333
f 71/5/334 70/5/334 68/5/334
f 106/1/335 71/1/335 86/1/335
f 106/1/336 86/1/336 82/1/336
f 82/1/337 105/1/337 108/1/337
f 109/5/338 105/5/338 100/5/338
f 100/1/339 111/1/339 110/1/339
f 103/1/340 112/1/340 143/1/340
f 113/5/341 103/5/341 95/5/341
f 115/1/342 114/1/342 95/1/342
f 115/1/343 95/1/343 80/1/343
f 69/1/344 117/1/344 116/1/344
f 72/5/345 69/5/345 88/5/345
f 118/1/346 73/1/346 88/1/346
f 119/1/347 118/1/347 146/1/347
f 79/5/348 74/5/348 90/5/348
f 120/1/349 78/1/349 90/1/349
f 120/1/350 90/1/350 81/1/350
f 102/1/351 122/1/351 121/1/351
f 123/5/352 102/5/352 96/5/352
f 96/1/353 125/1/353 124/1/353
f 153/1/354 126/1/354 125/1/354
f 127/5/355 104/5/355 97/5/355
f 129/1/356 128/1/356 97/1/356
f 129/1/357 97/1/357 83/1/357
f 131/1/358 130/1/358 83/1/358
f 76/5/359 77/5/359 75/5/359
f 132/1/360 76/1/360 92/1/360
f 149/1/361 170/1/361 132/1/361
f 170/1/362 70/1/362 76/1/362
f 133/1/363 88/1/363 87/1/363
f 93/1/364 74/1/364 134/1/364
f 152/5/365 144/5/365 99/5/365
f 144/1/366 111/1/366 100/1/366
f 101/5/367 153/5/367 145/5/367
f 138/1/368 93/1/368 139/1/368
f 139/1/369 140/1/369 101/1/369
f 139/1/370 134/1/370 133/1/370
f 154/5/126 156/5/126 157/5/126
f 140/1/371 142/1/371 136/1/371
f 141/1/372 133/1/372 87/1/372
f 141/1/373 135/1/373 99/1/373
f 89/1/374 136/1/374 142/1/374
f 143/1/375 112/1/375 111/1/375
f 145/1/376 125/1/376 96/1/376
f 153/1/377 101/1/377 104/1/377
f 146/1/378 118/1/378 88/1/378
f 74/1/379 119/1/379 147/1/379
f 148/1/380 132/1/380 92/1/380
f 149/1/381 136/1/381 68/1/381
f 140/1/143 139/1/143 154/1/143
f 139/1/144 141/1/144 156/1/144
f 142/1/145 157/1/145 156/1/145
f 140/1/146 155/1/146 157/1/146
f 183/1/382 228/1/382 173/1/382
f 232/1/383 184/1/383 174/1/383
f 224/1/384 185/1/384 172/1/384
f 172/1/385 171/1/385 222/1/385
f 171/1/386 221/1/386 222/1/386
f 187/1/387 224/1/387 172/1/387
f 189/1/388 220/1/388 171/1/388
f 227/1/389 183/1/389 173/1/389
f 173/1/390 172/1/390 226/1/390
f 172/1/391 225/1/391 226/1/391
f 174/1/392 173/1/392 188/1/392
f 173/1/393 229/1/393 188/1/393
f 231/1/394 232/1/394 174/1/394
f 171/1/395 174/1/395 219/1/395
f 174/1/396 233/1/396 234/1/396
f 219/1/397 174/1/397 234/1/397
f 182/2/156 181/2/156 179/2/156
f 175/1/398 176/1/398 172/1/398
f 172/1/399 176/1/399 177/1/399
f 171/1/400 177/1/400 178/1/400
f 178/1/401 175/1/401 173/1/401
f 175/2/402 180/2/402 179/2/402
f 179/2/403 181/2/403 177/2/403
f 181/2/404 182/2/404 178/2/404
f 178/2/405 182/2/405 180/2/405
f 230/1/406 188/1/406 229/1/406
f 207/6/407 191/6/407 206/6/407
f 209/6/408 215/6/408 242/6/408
f 203/6/409 204/6/409 190/6/409
f 210/6/410 211/6/410 216/6/410
f 201/6/411 193/6/411 212/6/411
f 199/6/412 192/6/412 200/6/412
f 193/6/413 196/6/413 212/6/413
f 199/6/414 200/6/414 198/6/414
f 191/6/415 195/6/415 208/6/415
f 240/6/416 252/6/416 253/6/416
f 237/6/417 236/6/417 254/6/417
f 214/6/418 217/6/418 203/6/418
f 212/6/419 213/6/419 218/6/419
f 216/6/420 194/6/420 198/6/420
f 222/6/421 223/6/421 187/6/421
f 188/6/422 230/6/422 231/6/422
f 217/6/423 197/6/423 203/6/423
f 238/6/424 201/6/424 212/6/424
f 210/6/425 198/6/425 200/6/425
f 200/6/426 236/6/426 245/6/426
f 189/1/427 219/1/427 190/1/427
f 189/6/428 204/6/428 197/6/428
f 221/6/429 220/6/429 197/6/429
f 222/1/430 221/1/430 217/1/430
f 214/6/431 241/6/431 250/6/431
f 224/1/432 223/1/432 215/1/432
f 185/6/433 224/6/433 209/6/433
f 225/6/434 185/6/434 195/6/434
f 207/1/435 226/1/435 225/1/435
f 186/6/436 226/6/436 207/6/436
f 183/1/437 227/1/437 192/1/437
f 183/6/438 199/6/438 194/6/438
f 216/6/439 229/6/439 228/6/439
f 211/1/440 230/1/440 229/1/440
f 251/6/441 230/6/441 211/6/441
f 213/1/442 232/1/442 231/1/442
f 232/6/443 213/6/443 196/6/443
f 193/6/444 233/6/444 184/6/444
f 233/1/445 193/1/445 201/1/445
f 219/6/446 235/6/446 205/6/446
f 249/6/447 234/6/447 202/6/447
f 239/6/448 202/6/448 201/6/448
f 247/6/449 236/6/449 192/6/449
f 248/6/450 186/6/450 207/6/450
f 251/6/451 210/6/451 238/6/451
f 255/6/452 238/6/452 218/6/452
f 190/6/453 205/6/453 240/6/453
f 205/6/454 235/6/454 252/6/454
f 241/6/455 242/6/455 256/6/455
f 256/6/456 242/6/456 215/6/456
f 201/6/457 238/6/457 246/6/457
f 246/6/458 238/6/458 210/6/458
f 243/6/459 237/6/459 206/6/459
f 244/6/460 243/6/460 242/6/460
f 190/6/461 240/6/461 244/6/461
f 243/6/462 245/6/462 236/6/462
f 263/1/463 264/1/463 265/1/463
f 239/6/464 246/6/464 244/6/464
f 186/6/465 248/6/465 247/6/465
f 235/6/466 234/6/466 249/6/466
f 223/6/467 222/6/467 250/6/467
f 230/6/468 251/6/468 255/6/468
f 244/6/469 246/6/469 258/6/469
f 243/6/470 257/6/470 245/6/470
f 257/1/471 244/1/471 259/1/471
f 258/1/472 260/1/472 259/1/472
f 258/1/473 245/1/473 261/1/473
f 257/1/474 262/1/474 261/1/474
f 259/7/475 263/7/475 266/7/475
f 260/7/476 264/7/476 263/7/476
f 261/7/477 265/7/477 264/7/477
f 262/7/478 266/7/478 265/7/478
