# Blender 5.2.2 LTS
# www.blender.org
mtllib ruins_hk_plate_stack.mtl
o piece
v -1.106191 -0.058398 1.889383
v 1.111858 -0.058398 1.898250
v -1.106191 0.076340 1.889383
v 1.111858 0.076340 1.898250
v -1.104684 0.076340 1.512533
v 1.113034 0.076340 1.604101
v -1.104684 -0.058398 1.512533
v 1.113366 -0.058398 1.521399
v -0.379606 -0.045991 1.878793
v -0.349297 0.063932 1.795896
v -0.372300 0.063932 1.528957
v -0.407975 -0.045991 1.528814
v 0.951201 0.076340 1.520750
v 1.113366 0.010729 1.521399
v -0.500911 0.069216 1.867740
v -0.130289 0.069216 1.869221
v -0.355726 0.027576 1.878887
v -1.137445 0.076339 -1.897531
v 1.080604 0.076339 -1.888663
v -1.137445 -0.004563 -1.897531
v 1.080604 -0.058399 -1.888663
v -1.138952 -0.058399 -1.520680
v 1.079429 -0.058399 -1.594515
v -1.138952 0.076339 -1.520680
v 1.079097 0.076339 -1.511812
v -0.351839 0.063932 -1.880891
v -0.322192 -0.045991 -1.797762
v -0.347324 -0.045991 -1.531016
v -0.383003 0.063932 -1.531157
v -1.137784 -0.058399 -1.812912
v -1.019415 -0.058399 -1.897059
v 0.916934 -0.058399 -1.512460
v 1.079097 0.007212 -1.511812
v -0.473225 -0.051275 -1.870810
v -0.102606 -0.051275 -1.869329
v -0.327959 -0.009635 -1.880797
v 1.104207 -0.058397 -0.181192
v -1.113838 -0.058397 -0.190058
v 1.104207 0.022504 -0.181192
v -1.113838 0.076341 -0.190058
v 1.102702 0.076341 0.195661
v -1.115013 0.076341 0.104088
v 1.102702 -0.058397 0.195661
v -1.115343 -0.058397 0.186795
v 0.688863 -0.049180 -0.176855
v 0.656802 0.067121 -0.090410
v 0.681152 0.067124 0.187977
v 0.718901 -0.049180 0.188129
v 1.103869 0.076341 -0.096573
v 0.986179 0.076341 -0.181665
v -0.953183 0.076341 0.187443
v -1.115343 0.010729 0.186795
v 0.810185 0.069214 -0.171272
v 0.439508 0.069217 -0.159786
v 0.663596 0.028655 -0.176956
v -0.701774 -0.387721 -2.101075
v -0.718422 -0.387721 2.063591
v -0.806950 -0.387721 -2.101494
v -0.893590 -0.387721 2.062893
v -0.876942 -0.040704 -2.101773
v -0.893590 -0.116861 2.062893
v -0.701774 -0.040704 -2.101075
v -0.718422 -0.040703 2.063591
v -0.724559 -0.352291 -0.435901
v -0.867744 -0.286765 -0.367766
v -0.867522 -0.076135 -0.422927
v -0.724285 -0.076135 -0.504131
v -0.876942 -0.309799 -2.101773
v -0.878023 -0.387721 -1.831253
v -0.892105 -0.040703 1.691210
v -0.808288 -0.040703 2.063233
v -0.873226 -0.365563 -0.714629
v -0.876623 -0.365563 0.134852
v -0.820417 -0.352291 -0.381550
v 0.728290 -0.387721 2.072367
v 0.744939 -0.387721 -2.092303
v 0.833476 -0.387721 2.072787
v 0.920116 -0.387721 -2.091605
v 0.903467 -0.040703 2.073066
v 0.920116 -0.116861 -2.091605
v 0.728290 -0.040703 2.072367
v 0.744939 -0.040704 -2.092303
v 0.744084 -0.360304 1.120483
v 0.895575 -0.290975 1.048393
v 0.895346 -0.068123 1.106757
v 0.743792 -0.068123 1.192674
v 0.903467 -0.309799 2.073066
v 0.904548 -0.387721 1.802545
v 0.918631 -0.040704 -1.719918
v 0.834816 -0.040704 -2.091945
v 0.896895 -0.365563 1.399211
v 0.900290 -0.365563 0.549728
v 0.845510 -0.360304 1.062979
v -1.151473 0.098922 -2.529364
v 1.249330 0.098922 -2.533226
v -1.167653 0.175115 -2.529627
v 1.249330 0.175115 -2.533226
v -1.249866 0.175116 2.516006
v 1.167091 0.175116 2.513422
v -1.249866 0.098923 2.516006
v 1.167091 0.098923 2.513422
v 0.757608 0.175116 2.472773
v 0.888627 0.175115 -2.498303
v 0.898501 0.098922 -2.529909
v 0.754264 0.098923 2.501493
v 0.854490 0.175116 2.516942
v 0.857931 0.098923 2.517017
v 0.659254 0.098923 2.555742
v 0.639817 0.175116 2.555425
v 1.205683 0.197699 0.145278
v 1.190764 0.197699 1.061271
v 1.026343 0.179784 0.450913
v 1.201153 0.143871 0.423715
v -1.240453 0.076339 1.938189
v -1.189472 0.076339 1.334490
v -1.237241 0.142728 1.741224
v -1.085941 0.076339 1.749488
v -1.173876 0.197699 -2.147738
v -1.194354 0.197699 -0.890935
v -1.184832 0.162183 -1.475226
v -1.024704 0.197699 -1.315212
v -1.023596 0.179784 -1.747082
v 1.414270 -0.829198 2.383129
v -0.972303 -0.829198 2.643804
v 1.430402 -0.753005 2.381665
v -0.972303 -0.753005 2.643804
v 0.972417 -0.753006 -2.643804
v -1.430402 -0.753006 -2.382685
v 0.972417 -0.829199 -2.643804
v -1.430402 -0.829199 -2.382685
v -1.018894 -0.753006 -2.386082
v -0.617432 -0.753005 2.570463
v -0.623883 -0.829198 2.602979
v -1.018661 -0.829199 -2.414972
v -1.120012 -0.753006 -2.419639
v -1.123396 -0.829199 -2.419324
v -0.929997 -0.829199 -2.479101
v -0.910670 -0.753006 -2.480868
v -1.215439 -0.730422 -0.024017
v -1.298588 -0.730422 -0.936368
v -1.069857 -0.748337 -0.347075
v -1.240717 -0.784251 -0.301343
v 1.024866 -0.851782 -2.068296
v 1.038779 -0.851782 -1.462611
v 1.042717 -0.785394 -1.872115
v 0.891413 -0.851782 -1.864166
v 1.395756 -0.730422 2.001308
v 1.281674 -0.730422 0.749526
v 1.334711 -0.765938 1.331480
v 1.158381 -0.730422 1.189499
v 1.203477 -0.748337 1.619027
v 1.000672 0.504438 -1.967626
v -1.213881 0.504438 -1.842844
v 1.000672 0.639176 -1.967626
v -1.213881 0.639176 -1.842844
v 1.021874 0.639176 -1.591371
v -1.197334 0.639176 -1.549159
v 1.021874 0.504438 -1.591371
v -1.192680 0.504438 -1.466588
v 0.276047 0.516845 -1.913279
v 0.250785 0.626769 -1.828711
v 0.289828 0.626769 -1.563641
v 0.325446 0.516845 -1.565647
v -1.030772 0.639176 -1.475711
v -1.192680 0.573565 -1.466588
v 0.397795 0.632052 -1.909555
v 0.027758 0.632052 -1.888705
v 0.252204 0.590412 -1.911937
v 1.260024 0.639177 1.810526
v -0.954532 0.639177 1.935308
v 1.260024 0.558274 1.810526
v -0.954532 0.504439 1.935308
v 1.238825 0.504439 1.434266
v -0.971079 0.504439 1.641624
v 1.238825 0.639177 1.434266
v -0.975731 0.639177 1.559049
v 0.474842 0.626769 1.841248
v 0.440240 0.516846 1.760055
v 0.449255 0.516846 1.492278
v 0.484879 0.626769 1.490272
v 1.255265 0.504439 1.726039
v 1.142180 0.504439 1.817166
v -0.813821 0.504439 1.549926
v -0.975731 0.570049 1.559049
v 0.595402 0.511563 1.823872
v 0.225365 0.511563 1.844722
v 0.451000 0.553202 1.842590
v -1.080964 0.504440 0.232360
v 1.133587 0.504440 0.107579
v -1.080964 0.585341 0.232360
v 1.133587 0.639178 0.107579
v -1.102164 0.639178 -0.143900
v 1.117039 0.639178 -0.186105
v -1.102164 0.504440 -0.143900
v 1.112388 0.504440 -0.268681
v -0.666635 0.513657 0.203008
v -0.639841 0.629958 0.114788
v -0.680917 0.629961 -0.161628
v -0.718607 0.513657 -0.159503
v -1.085724 0.639178 0.147872
v -0.963123 0.639178 0.225719
v 0.950482 0.639178 -0.259560
v 1.112388 0.573566 -0.268681
v -0.788073 0.632051 0.204742
v -0.418761 0.632054 0.170946
v -0.641408 0.591491 0.201589
v 0.837404 0.175116 2.039949
v 0.603112 0.175116 -2.118159
v 0.942416 0.175116 2.034031
v 0.778006 0.175116 -2.128014
v 1.012298 0.522134 2.030094
v 0.778006 0.445976 -2.128014
v 0.837404 0.522134 2.039949
v 0.603112 0.522133 -2.118159
v 0.759828 0.210545 0.376425
v 0.898647 0.276072 0.299787
v 0.901751 0.486702 0.354861
v 0.763666 0.486702 0.444549
v 1.012298 0.253038 2.030094
v 0.997080 0.175116 1.760000
v 0.798915 0.522133 -1.756913
v 0.692837 0.522133 -2.123215
v 0.925020 0.197274 0.645689
v 0.877230 0.197274 -0.202451
v 0.852238 0.210545 0.316396
v -0.841500 0.175116 -2.039754
v -0.607206 0.175116 2.118354
v -0.946518 0.175116 -2.033836
v -0.782106 0.175116 2.128209
v -1.016400 0.522133 -2.029899
v -0.782106 0.445976 2.128209
v -0.841500 0.522133 -2.039754
v -0.607206 0.522134 2.118354
v -0.799914 0.202533 -1.088650
v -0.946786 0.271862 -1.007562
v -0.950073 0.494714 -1.065833
v -0.803975 0.494714 -1.160724
v -1.016400 0.253037 -2.029899
v -1.001182 0.175116 -1.759804
v -0.803017 0.522134 1.757108
v -0.696940 0.522134 2.123410
v -0.969240 0.197274 -1.357663
v -0.921450 0.197274 -0.509519
v -0.897691 0.202533 -1.025136
v 1.109402 -0.986520 -1.921651
v -1.108665 -0.986520 -1.921651
v 1.109402 -0.851782 -1.921651
v -1.108665 -0.851782 -1.921651
v 1.109402 -0.851782 -1.544797
v -1.108665 -0.851782 -1.627500
v 1.109402 -0.986520 -1.544797
v -1.108665 -0.986520 -1.544797
v 0.382865 -0.974113 -1.908155
v 0.352887 -0.864189 -1.825140
v 0.376956 -0.864189 -1.558295
v 0.412631 -0.974113 -1.558295
v -0.946501 -0.851782 -1.544797
v -1.108665 -0.917392 -1.544797
v 0.504213 -0.858906 -1.897588
v 0.133587 -0.858906 -1.897588
v 0.358985 -0.900546 -1.908155
v 1.155795 -0.851782 1.865108
v -1.062272 -0.851782 1.865108
v 1.155795 -0.932684 1.865108
v -1.062272 -0.986520 1.865108
v 1.155795 -0.986520 1.488253
v -1.062272 -0.986520 1.570958
v 1.155795 -0.851782 1.488253
v -1.062272 -0.851782 1.488253
v 0.370127 -0.864189 1.851610
v 0.340148 -0.974113 1.768598
v 0.364214 -0.974113 1.501753
v 0.399894 -0.864189 1.501753
v 1.155795 -0.986520 1.780487
v 1.037764 -0.986520 1.865108
v -0.900108 -0.986520 1.488253
v -1.062272 -0.920909 1.488253
v 0.491473 -0.979396 1.841044
v 0.120850 -0.979396 1.841044
v 0.346247 -0.937756 1.851610
v -1.092702 -0.986518 0.157745
v 1.125360 -0.986518 0.157745
v -1.092702 -0.905618 0.157745
v 1.125360 -0.851780 0.157745
v -1.092702 -0.851780 -0.219113
v 1.125360 -0.851780 -0.136405
v -1.092702 -0.986518 -0.219113
v 1.125360 -0.986518 -0.219113
v -0.677380 -0.977301 0.151749
v -0.645664 -0.861000 0.065174
v -0.671126 -0.860997 -0.213114
v -0.708875 -0.977301 -0.213114
v -1.092702 -0.851780 0.073124
v -0.974674 -0.851780 0.157745
v 0.963198 -0.851780 -0.219113
v 1.125360 -0.917392 -0.219113
v -0.798721 -0.858907 0.146649
v -0.428093 -0.858904 0.133680
v -0.652113 -0.899467 0.151749
v 0.720938 -1.315842 2.070392
v 0.720938 -1.315843 -2.094309
v 0.826117 -1.315842 2.070392
v 0.896109 -1.315843 -2.094309
v 0.896109 -0.968825 2.070392
v 0.896109 -1.044982 -2.094309
v 0.720938 -0.968825 2.070392
v 0.720938 -0.968825 -2.094309
v 0.737066 -1.280413 0.405139
v 0.879979 -1.214886 0.336433
v 0.879979 -1.004256 0.391593
v 0.737066 -1.004256 0.473371
v 0.896109 -1.237920 2.070392
v 0.896109 -1.315842 1.799869
v 0.896109 -0.968825 -1.722622
v 0.810806 -0.968825 -2.094309
v 0.886849 -1.293684 0.683272
v 0.886849 -1.293684 -0.166216
v 0.832709 -1.280413 0.350406
v -0.725796 -1.315843 -2.097300
v -0.725796 -1.315842 2.067404
v -0.830982 -1.315843 -2.097300
v -0.900973 -1.315842 2.067404
v -0.900973 -0.968825 -2.097300
v -0.900973 -1.044982 2.067404
v -0.725796 -0.968825 -2.097300
v -0.725796 -0.968825 2.067404
v -0.737785 -1.288425 -1.145361
v -0.888985 -1.219096 -1.072664
v -0.888989 -0.996244 -1.131028
v -0.737782 -0.996244 -1.217552
v -0.900973 -1.237921 -2.097300
v -0.900973 -1.315843 -1.826777
v -0.900973 -0.968825 1.695714
v -0.815673 -0.968825 2.067404
v -0.891707 -1.293684 -1.423476
v -0.891707 -1.293684 -0.573986
v -0.838980 -1.288425 -1.087450
v 1.224167 -0.522459 -1.864977
v -0.989771 -0.522459 -2.000262
v 1.224167 -0.387721 -1.864977
v -0.989771 -0.387721 -2.000262
v 1.201179 -0.387721 -1.488827
v -1.007710 -0.387721 -1.706661
v 1.201179 -0.522459 -1.488827
v -1.012755 -0.522459 -1.624112
v 0.498155 -0.510052 -1.895822
v 0.463175 -0.400129 -1.814789
v 0.470922 -0.400129 -1.546973
v 0.506531 -0.510052 -1.544795
v -0.850891 -0.387721 -1.614220
v -1.012755 -0.453332 -1.624112
v 0.618636 -0.394845 -1.877872
v 0.248700 -0.394845 -1.900478
v 0.474319 -0.436485 -1.897278
v 1.039509 -0.387721 1.917559
v -1.174425 -0.387721 1.782275
v 1.039509 -0.468623 1.917559
v -1.174425 -0.522459 1.782275
v 1.062497 -0.522459 1.541405
v -1.156482 -0.522459 1.488672
v 1.062497 -0.387721 1.541405
v -1.151442 -0.387721 1.406121
v 0.256131 -0.400128 1.856167
v 0.231267 -0.510052 1.771483
v 0.271564 -0.510052 1.506602
v 0.307178 -0.400128 1.508777
v 1.044672 -0.522459 1.833096
v 0.921700 -0.522459 1.910361
v -0.989578 -0.522459 1.416013
v -1.151442 -0.456849 1.406121
v 0.377895 -0.515335 1.853021
v 0.007959 -0.515335 1.830415
v 0.232295 -0.473695 1.854711
v -1.100663 -0.522458 0.076237
v 1.113267 -0.522458 0.211521
v -1.100663 -0.441557 0.076237
v 1.113267 -0.387720 0.211521
v -1.077680 -0.387720 -0.299919
v 1.131209 -0.387720 -0.082082
v -1.077680 -0.522458 -0.299919
v 1.136254 -0.522458 -0.164638
v -0.685749 -0.513241 0.095582
v -0.648813 -0.396940 0.011102
v -0.657255 -0.396937 -0.268219
v -0.694934 -0.513241 -0.270522
v -1.095504 -0.387720 -0.008228
v -0.982854 -0.387720 0.083436
v 0.974395 -0.387720 -0.174528
v 1.136254 -0.453332 -0.164638
v -0.806555 -0.394847 0.083091
v -0.435828 -0.394844 0.092752
v -0.660529 -0.435406 0.097122
v 0.592945 -0.851782 2.095940
v 0.846958 -0.851782 -2.061008
v 0.697926 -0.851782 2.102354
v 1.021799 -0.851782 -2.050324
v 0.767786 -0.504764 2.106623
v 1.021799 -0.580921 -2.050324
v 0.592945 -0.504764 2.095940
v 0.846958 -0.504764 -2.061008
v 0.710609 -0.816352 0.434770
v 0.857443 -0.750826 0.374907
v 0.854082 -0.540195 0.429966
v 0.706447 -0.540195 0.502874
v 0.767786 -0.773860 2.106623
v 0.784288 -0.851782 1.836603
v 0.999127 -0.504764 -1.679330
v 0.936659 -0.504764 -2.055528
v 0.843148 -0.829623 0.721519
v 0.894960 -0.829623 -0.126386
v 0.809411 -0.816352 0.385970
v -0.596900 -0.851782 -2.152234
v -0.850913 -0.851782 2.004718
v -0.701890 -0.851782 -2.158650
v -1.025767 -0.851782 1.994035
v -0.771754 -0.504764 -2.162917
v -1.025767 -0.580921 1.994035
v -0.596900 -0.504764 -2.152234
v -0.850913 -0.504764 2.004718
v -0.666927 -0.824365 -1.202798
v -0.822283 -0.755036 -1.139459
v -0.818727 -0.532183 -1.197713
v -0.662524 -0.532183 -1.274855
v -0.771754 -0.773860 -2.162917
v -0.788251 -0.851782 -1.892897
v -1.003096 -0.504764 1.623037
v -0.940623 -0.504764 1.999236
v -0.803601 -0.829624 -1.489782
v -0.855413 -0.829623 -0.641873
v -0.771464 -0.824365 -1.151166
v -0.501482 0.639580 -2.338786
v -1.221038 0.639580 -1.848014
v -0.496712 0.699924 -2.342243
v -1.221038 0.699924 -1.848014
v 1.195345 0.699924 0.049510
v 0.471362 0.699924 0.544224
v 1.195345 0.639580 0.049510
v 0.471362 0.639580 0.544224
v 0.580441 0.699924 0.440796
v -1.101577 0.699924 -1.905340
v -1.114987 0.639580 -1.918410
v 0.590937 0.639580 0.453815
v 0.566051 0.699924 0.481773
v 0.565049 0.639580 0.482498
v 0.637291 0.639580 0.460218
v 0.643001 0.699924 0.456078
v -0.322791 0.707566 -0.578328
v -0.015614 0.707566 -0.144124
v -0.168137 0.701504 -0.469238
v -0.229419 0.672547 -0.446341
v 1.001573 0.623016 -0.224388
v 0.786810 0.623016 -0.502114
v 0.935521 0.671708 -0.317757
v 0.892989 0.623016 -0.282756
v -0.368646 0.707566 -2.161216
v 0.052825 0.707566 -1.565463
v -0.143119 0.685977 -1.842428
v -0.138142 0.707566 -1.733176
v -0.281202 0.701504 -1.939119
v -0.155339 0.786836 2.361691
v -0.156502 0.864518 2.364770
v -0.832093 0.905602 -2.264984
v -0.834208 0.821422 -2.260906
v -0.314643 0.758430 2.385278
v -0.993690 0.823408 -2.220602
v -0.995740 0.738077 -2.213762
v -0.312868 0.672956 2.385755
v -0.030942 0.919385 -2.377324
v 0.636075 0.869344 2.264278
v 0.638176 0.773407 2.260250
v -0.033027 0.835429 -2.372560
v 0.476300 0.987384 2.289788
v -0.188362 1.009843 -2.345932
v -0.190471 0.925706 -2.341721
v 0.477502 0.903735 2.284467
v 0.320634 0.903289 2.307278
v -0.351504 0.890089 -2.316972
v -0.353974 0.790780 -2.311451
v 0.322174 0.819305 2.303009
v 0.167048 0.896487 2.359064
v -0.509504 0.972689 -2.296211
v -0.511616 0.888537 -2.292049
v 0.167989 0.838214 2.357282
v 0.008819 0.820108 2.376818
v -0.672983 0.848768 -2.273721
v -0.675300 0.755293 -2.268293
v 0.010034 0.735953 2.373116
v 1.279561 0.795721 2.146365
v 0.607298 0.771897 -2.422134
v 0.605203 0.687863 -2.417608
v 1.281271 0.711336 2.143363
v 1.115664 0.872469 2.176353
v 0.449308 0.858095 -2.403830
v 0.447304 0.774745 -2.397202
v 1.117187 0.788066 2.173425
v 0.954973 0.826094 2.203662
v 0.287206 0.781639 -2.378353
v 0.285431 0.699993 -2.366493
v 0.957090 0.731633 2.199987
v 0.792639 0.960857 2.238068
v 0.128162 0.896097 -2.412086
v 0.126572 0.827204 -2.404699
v 0.794199 0.876488 2.235025
v -0.475453 0.835606 2.413662
v -1.151339 0.905404 -2.189235
v -1.153458 0.821190 -2.185261
v -0.474151 0.751246 2.410610
v -0.635150 0.753302 2.425728
v -1.313372 0.829456 -2.162199
v -1.315488 0.745270 -2.158142
v -0.633890 0.669042 2.422360
v 0.004044 0.717007 0.935402
v -0.143943 0.797481 0.962952
v -0.277749 0.714287 0.992447
v -0.453097 0.775642 0.904343
v -0.603259 0.678757 0.851267
v -0.716802 0.764302 0.907628
v -0.850335 0.690265 0.998765
v -0.852841 0.774704 0.993998
v -0.718119 0.851217 0.918353
v -0.613842 0.758837 0.820194
v -0.454085 0.862505 0.914750
v -0.277592 0.800661 0.999424
v -0.150071 0.880936 0.952818
v 0.008618 0.801985 0.932232
v 0.122701 0.867102 0.791705
v 0.306791 0.802653 0.857659
v 0.464024 0.898535 0.903552
v 0.711815 0.836289 0.973659
v 0.876891 0.904169 0.837414
v 1.064910 0.818857 0.768164
v 1.070417 0.734251 0.771064
v 0.882243 0.821547 0.853106
v 0.714135 0.747378 0.949717
v 0.469885 0.816353 0.921938
v 0.308904 0.724107 0.900420
v 0.134368 0.786892 0.821244
v -0.159791 0.711980 -0.951967
v -0.001829 0.776305 -0.953689
v 0.137712 0.664447 -1.010370
v 0.287968 0.735491 -0.996701
v 0.416499 0.640832 -0.971864
v 0.597736 0.730022 -1.063135
v 0.747920 0.655930 -1.153524
v 0.751330 0.740198 -1.148203
v 0.602900 0.817407 -1.074806
v 0.411272 0.720154 -0.935772
v 0.295040 0.822903 -1.009103
v 0.148571 0.743694 -0.971906
v 0.003453 0.851443 -0.939706
v -0.142471 0.800704 -0.885386
v -0.320814 0.852094 -0.973715
v -0.472997 0.798402 -1.078765
v -0.631627 0.859863 -0.919103
v -0.800910 0.791829 -0.943183
v -1.010550 0.926852 -1.156135
v -1.149937 0.841758 -1.099359
v -1.116314 0.743386 -1.041623
v -1.001285 0.829438 -1.095964
v -0.792153 0.694021 -0.880778
v -0.637616 0.779330 -0.943348
v -0.479163 0.707672 -1.049127
v -0.327465 0.772760 -1.004084
v -0.542069 1.092836 2.073959
v -0.543943 1.170518 2.076665
v -0.079428 1.211602 -2.579006
v -0.082466 1.127422 -2.575562
v -0.702348 1.064430 2.058306
v -0.246962 1.129408 -2.575037
v -0.250605 1.044077 -2.568895
v -0.700741 0.978956 2.059198
v 0.725104 1.225385 -2.494194
v 0.249402 1.175344 2.170900
v 0.252416 1.079407 2.167500
v 0.721928 1.141428 -2.490075
v 0.088202 1.293384 2.157000
v 0.564765 1.315843 -2.501817
v 0.561700 1.231706 -2.498241
v 0.090655 1.209735 2.152127
v -0.067071 1.209289 2.136311
v 0.399464 1.196089 -2.513185
v 0.395732 1.096780 -2.508426
v -0.064544 1.125305 2.132541
v -0.228624 1.202487 2.149403
v 0.241134 1.278689 -2.531264
v 0.238078 1.194536 -2.527737
v -0.227280 1.144214 2.147902
v -0.386447 1.126108 2.128351
v 0.077071 1.154768 -2.548992
v 0.073509 1.061293 -2.544286
v -0.384373 1.041953 2.125051
v 0.902300 1.101721 2.212163
v 1.355226 1.077897 -2.383268
v 1.352098 0.993863 -2.379384
v 0.904686 1.017336 2.209664
v 0.736016 1.178469 2.201610
v 1.197500 1.164095 -2.403728
v 1.193953 1.080745 -2.397783
v 0.738202 1.094066 2.199138
v 0.573492 1.132094 2.189232
v 1.034051 1.087639 -2.418225
v 1.029459 1.005993 -2.407147
v 0.576435 1.037633 2.186179
v 0.407657 1.266857 2.183344
v 0.887891 1.202097 -2.489432
v 0.884561 1.133204 -2.482649
v 0.409906 1.182488 2.180769
v -0.865248 1.141606 2.046944
v -0.407515 1.211404 -2.582739
v -0.410533 1.127190 -2.579397
v -0.863246 1.057246 2.044298
v -1.023120 1.059301 2.020017
v -0.571276 1.135456 -2.595706
v -0.574311 1.051270 -2.592281
v -1.021083 0.975042 2.017054
v -0.042371 1.023007 0.728595
v -0.192627 1.103481 0.719526
v -0.329594 1.020287 0.715773
v -0.478419 1.081642 0.587866
v -0.611280 0.984757 0.500040
v -0.735086 1.070302 0.527258
v -0.886700 0.996265 0.583383
v -0.887979 1.080704 0.578152
v -0.738958 1.157217 0.537345
v -0.614032 1.064837 0.467329
v -0.481895 1.168505 0.597725
v -0.331129 1.106661 0.722581
v -0.196121 1.186936 0.708210
v -0.037165 1.107985 0.726626
v 0.107526 1.173102 0.617872
v 0.270191 1.108653 0.726403
v 0.411652 1.204535 0.808970
v 0.635122 1.142289 0.936941
v 0.828255 1.210169 0.844678
v 1.027442 1.124857 0.822972
v 1.032084 1.040251 0.827117
v 0.829652 1.127547 0.861199
v 0.643164 1.053378 0.914271
v 0.412891 1.122353 0.828228
v 0.261897 1.030107 0.768405
v 0.111700 1.092892 0.649356
v 0.255257 1.017980 -1.142347
v 0.408943 1.082305 -1.105803
v 0.558052 0.970447 -1.127042
v 0.700537 1.041491 -1.077429
v 0.819242 0.946832 -1.022236
v 1.017176 1.036022 -1.066950
v 1.184767 0.961930 -1.118322
v 1.186788 1.046198 -1.112334
v 1.025010 1.123407 -1.077025
v 0.805439 1.026154 -0.988480
v 0.710400 1.128904 -1.087752
v 0.559283 1.049694 -1.087093
v 0.410685 1.157443 -1.090958
v 0.255955 1.106704 -1.073553
v 0.104278 1.158094 -1.202404
v -0.017970 1.104402 -1.341149
v -0.210514 1.165863 -1.224607
v -0.368944 1.097829 -1.288924
v -0.520839 1.232852 -1.546267
v -0.669820 1.147758 -1.524899
v -0.651164 1.049386 -1.460743
v -0.526405 1.135438 -1.485643
v -0.375543 1.000021 -1.226254
v -0.210460 1.085330 -1.249580
v -0.031124 1.013672 -1.313884
v 0.105172 1.078759 -1.233480
vn -0.0704 0.0216 0.9973
vn 0.0171 0.9998 -0.0091
vn 0.0234 -0.0000 -0.9997
vn 0.0178 -0.9998 0.0001
vn 1.0000 -0.0000 0.0040
vn -1.0000 -0.0000 -0.0040
vn -0.0121 0.1087 0.9940
vn -0.0000 1.0000 -0.0000
vn 0.0040 -0.0000 -1.0000
vn -0.0083 -1.0000 -0.0000
vn 0.3045 0.7468 -0.5912
vn -0.1514 0.9097 0.3868
vn 0.2231 0.8864 0.4056
vn 0.0475 0.0381 -0.9981
vn 0.0158 -0.9998 0.0097
vn 0.0139 -0.0000 0.9999
vn 0.0164 0.9999 0.0001
vn -0.0044 -0.1094 -0.9940
vn -0.0000 -1.0000 -0.0000
vn -0.0040 -0.0000 1.0000
vn -0.0087 1.0000 -0.0000
vn -0.3571 -0.7874 -0.5024
vn 0.2998 -0.7468 0.5937
vn -0.1483 -0.9096 -0.3880
vn 0.2263 -0.8864 -0.4038
vn -0.0567 -0.0532 -0.9970
vn -0.0218 0.9998 -0.0020
vn -0.0196 -0.0000 0.9998
vn -0.0240 -0.9997 -0.0001
vn 0.0064 0.1560 -0.9877
vn 0.0051 -1.0000 -0.0000
vn 0.3612 0.7874 -0.4995
vn -0.3045 0.7468 0.5912
vn 0.1344 0.9094 -0.3936
vn -0.2284 0.8829 -0.4103
vn 0.0302 -0.9994 0.0197
vn -0.9999 0.0138 0.0059
vn -0.0001 0.9998 0.0222
vn -0.9989 -0.0000 0.0462
vn 0.0337 -0.9993 -0.0142
vn -0.7298 -0.6562 -0.1919
vn -0.6589 0.7374 0.1485
vn -0.8165 -0.5680 -0.1035
vn -0.7866 -0.5994 0.1486
vn -0.0813 -0.9953 -0.0531
vn -0.9980 0.0019 0.0636
vn 0.0001 0.9995 -0.0312
vn -0.0025 -1.0000 0.0085
vn 0.7298 -0.6562 0.1919
vn 0.6589 0.7374 -0.1485
vn 0.8164 -0.5700 0.0930
vn 0.7906 -0.5983 -0.1302
vn -0.3902 0.3397 0.8558
vn -0.9999 -0.0000 -0.0163
vn 0.4917 0.1290 0.8612
vn 0.0113 0.0015 0.9999
vn -0.0209 -0.0000 0.9998
vn -0.0002 0.3831 -0.9237
vn -0.0895 0.3717 -0.9240
vn 0.2257 0.9558 0.1885
vn 0.1887 0.9788 -0.0796
vn -0.3691 -0.8789 -0.3022
vn -0.4044 -0.9090 0.1009
vn -0.0946 0.9955 0.0028
vn -0.0785 0.9969 -0.0081
vn 0.9999 0.0001 0.0163
vn 0.9959 -0.0000 -0.0908
vn -0.8583 -0.5129 -0.0171
vn 0.0072 -0.9999 0.0125
vn -0.0207 0.9984 0.0524
vn -0.1562 0.9857 -0.0625
vn -0.1769 0.9834 -0.0412
vn -0.0067 1.0000 -0.0019
vn 0.0065 1.0000 0.0026
vn 0.2963 0.3394 -0.8928
vn 0.9959 -0.0004 -0.0907
vn -0.5812 0.1288 -0.8035
vn -0.1182 0.0012 -0.9930
vn -0.0862 -0.0000 -0.9963
vn 0.0990 0.3835 0.9182
vn 0.1879 0.3720 0.9090
vn -0.2446 0.9558 -0.1632
vn -0.1792 0.9788 0.0993
vn 0.3993 -0.8788 0.2611
vn 0.3913 -0.9090 -0.1436
vn 0.0938 0.9955 -0.0129
vn 0.0789 0.9969 -0.0003
vn 0.8164 -0.0000 -0.5775
vn 0.8554 -0.5125 -0.0749
vn -0.0085 -0.9999 -0.0117
vn 0.0149 0.9984 -0.0543
vn 0.1620 0.9857 0.0454
vn 0.1803 0.9834 0.0221
vn 0.3435 0.9378 0.0498
vn 0.0102 0.0215 -0.9997
vn -0.0166 0.9998 0.0101
vn 0.0369 -0.0000 0.9993
vn -0.0178 -0.9998 0.0010
vn -0.9984 -0.0000 0.0563
vn 0.9984 -0.0000 -0.0563
vn -0.0478 0.1087 -0.9929
vn 0.0563 -0.0000 0.9984
vn 0.0083 -1.0000 -0.0005
vn -0.2683 0.7468 0.6085
vn 0.1279 0.9097 -0.3952
vn -0.2471 0.8864 -0.3914
vn 0.0128 0.0381 0.9992
vn -0.0164 -0.9998 -0.0087
vn -0.0741 -0.0000 -0.9973
vn -0.0164 0.9999 0.0009
vn -0.9984 -0.0000 0.0562
vn 0.9984 -0.0000 -0.0562
vn 0.0643 -0.1094 0.9919
vn -0.0563 -0.0000 -0.9984
vn 0.0086 1.0000 -0.0005
vn 0.3868 -0.7874 0.4800
vn -0.3350 -0.7468 -0.5745
vn 0.1714 -0.9096 0.3783
vn -0.2016 -0.8864 0.4167
vn 0.1167 -0.0532 0.9917
vn 0.0219 0.9998 0.0007
vn -0.0406 -0.0000 -0.9992
vn 0.0240 -0.9997 -0.0014
vn 0.0531 0.1560 0.9863
vn -0.0562 -0.0000 -0.9984
vn -0.0051 -1.0000 0.0003
vn -0.3304 0.7874 0.5204
vn 0.2684 0.7468 -0.6085
vn -0.1105 0.9094 0.4010
vn 0.2527 0.8829 0.3958
vn -0.0313 -0.9994 -0.0178
vn 0.9977 0.0138 -0.0661
vn -0.0012 0.9998 -0.0221
vn -1.0000 0.0019 0.0074
vn -0.0328 -0.9993 0.0163
vn 0.7400 -0.6562 0.1476
vn 0.6488 0.7374 -0.1879
vn 0.8213 -0.5680 0.0541
vn 0.7762 -0.5993 -0.1957
vn 0.0844 -0.9953 0.0481
vn 0.0155 -0.9997 0.0205
vn 0.0018 0.9995 0.0311
vn 0.9999 -0.0000 0.0136
vn 0.0020 -1.0000 -0.0087
vn -0.7400 -0.6562 -0.1476
vn -0.6488 0.7374 0.1879
vn -0.8205 -0.5700 -0.0436
vn -0.7813 -0.5983 0.1776
vn 0.0664 0.0216 -0.9976
vn -0.0171 0.9998 0.0092
vn -0.0194 -0.0000 0.9998
vn -0.0178 -0.9998 -0.0000
vn -1.0000 -0.0000 -0.0000
vn 1.0000 -0.0000 -0.0000
vn 0.0081 0.1087 -0.9940
vn -0.0000 -0.0000 1.0000
vn 0.0083 -1.0000 -0.0000
vn -0.3021 0.7468 0.5925
vn 0.1499 0.9097 -0.3874
vn -0.2247 0.8864 -0.4047
vn -0.0435 0.0381 0.9983
vn -0.0158 -0.9998 -0.0096
vn -0.0179 -0.0000 -0.9998
vn -0.0164 0.9999 -0.0000
vn 0.0084 -0.1094 0.9940
vn -0.0000 -0.0000 -1.0000
vn 0.0087 1.0000 -0.0000
vn 0.3592 -0.7874 0.5010
vn -0.3022 -0.7468 -0.5924
vn 0.1499 -0.9097 0.3874
vn -0.2247 -0.8864 0.4047
vn 0.0607 -0.0532 0.9967
vn 0.0218 0.9998 0.0019
vn 0.0156 -0.0000 -0.9999
vn 0.0240 -0.9997 -0.0000
vn -0.0025 0.1560 0.9878
vn -0.0051 -1.0000 -0.0000
vn -0.3592 0.7874 0.5010
vn 0.3022 0.7468 -0.5924
vn -0.1329 0.9094 0.3942
vn 0.2300 0.8829 0.4094
vn -0.0302 -0.9994 -0.0196
vn 0.9999 0.0138 -0.0099
vn -0.0000 0.9998 -0.0222
vn 0.9999 -0.0000 0.0141
vn -0.0337 -0.9993 0.0144
vn 0.7305 -0.6562 0.1890
vn 0.6583 0.7374 -0.1511
vn 0.8169 -0.5680 0.1002
vn 0.7860 -0.5993 -0.1517
vn 0.0816 -0.9953 0.0528
vn -0.9986 0.0019 -0.0537
vn -0.0000 0.9995 0.0312
vn -0.9998 -0.0000 -0.0176
vn 0.0025 -1.0000 -0.0085
vn -0.7305 -0.6562 -0.1890
vn -0.6584 0.7374 0.1511
vn -0.8168 -0.5700 -0.0897
vn -0.7901 -0.5983 0.1333
vn 0.1271 0.0216 -0.9917
vn -0.0176 0.9998 0.0081
vn -0.0803 -0.0000 0.9968
vn -0.0178 -0.9998 -0.0011
vn -0.9981 -0.0000 -0.0610
vn 0.9981 -0.0000 0.0610
vn 0.0687 0.1087 -0.9917
vn -0.0610 -0.0000 0.9981
vn 0.0083 -1.0000 0.0005
vn -0.3377 0.7468 0.5729
vn 0.1732 0.9097 -0.3775
vn -0.1996 0.8864 -0.4176
vn -0.1043 0.0381 0.9938
vn -0.0152 -0.9998 -0.0106
vn 0.0432 -0.0000 -0.9991
vn -0.0164 0.9999 -0.0010
vn -0.9981 -0.0000 -0.0609
vn -0.0522 -0.1094 0.9926
vn 0.0610 -0.0000 -0.9981
vn 0.0086 1.0000 0.0005
vn 0.3279 -0.7874 0.5219
vn -0.2655 -0.7468 -0.6098
vn 0.1260 -0.9097 0.3958
vn -0.2490 -0.8864 0.3903
vn -0.0002 -0.0532 0.9986
vn 0.0217 0.9998 0.0033
vn 0.0766 -0.0000 -0.9971
vn 0.0240 -0.9997 0.0015
vn -0.0627 0.1560 0.9858
vn -0.0051 -1.0000 -0.0003
vn -0.3891 0.7874 0.4781
vn 0.3377 0.7468 -0.5729
vn -0.1567 0.9094 0.3853
vn 0.2046 0.8829 0.4227
vn -0.0290 -0.9994 -0.0214
vn 0.9986 0.0138 0.0511
vn 0.0014 0.9998 -0.0221
vn -0.9999 -0.0000 -0.0101
vn -0.0345 -0.9993 0.0123
vn 0.7177 -0.6562 0.2332
vn 0.6663 0.7374 -0.1106
vn 0.8093 -0.5679 0.1498
vn 0.7938 -0.5993 -0.1035
vn 0.0782 -0.9953 0.0577
vn 1.0000 0.0019 -0.0034
vn -0.0019 0.9995 0.0311
vn 0.9991 -0.0000 -0.0427
vn 0.0030 -1.0000 -0.0084
vn -0.7176 -0.6562 -0.2332
vn -0.6663 0.7374 0.1107
vn -0.8097 -0.5700 -0.1394
vn -0.7967 -0.5983 0.0849
vn 0.7423 -0.0043 0.6700
vn 0.8164 0.0001 -0.5775
vn -0.1364 0.0806 0.9874
vn 0.5502 -0.0000 0.8351
vn 0.5928 -0.0000 0.8053
vn -0.5408 0.2911 -0.7892
vn 0.9972 -0.0000 0.0746
vn -0.4154 0.2798 -0.8656
vn -0.2578 0.8730 0.4140
vn -0.3730 0.9143 0.1579
vn 0.3271 -0.7231 -0.6085
vn 0.6056 -0.7398 -0.2932
vn 0.0735 0.9961 -0.0489
vn 0.0063 1.0000 0.0066
vn -0.9959 -0.0000 0.0908
vn -0.8164 -0.0000 0.5775
vn 0.8072 -0.1619 -0.5676
vn -0.0101 -0.9998 0.0188
vn 0.1278 0.9915 -0.0232
vn 0.1743 0.9645 -0.1985
vn 0.2458 0.9487 -0.1987
vn 0.1565 0.0088 0.9876
vn -0.0008 0.9996 0.0276
vn -0.5657 0.8229 0.0536
vn -0.2452 -0.0716 -0.9668
vn 0.5554 -0.8296 -0.0571
vn -0.0871 0.0088 0.9962
vn 0.1817 -0.0321 0.9828
vn -0.5233 0.8521 0.0125
vn -0.2014 -0.0998 -0.9744
vn 0.4982 -0.8670 -0.0107
vn -0.9975 -0.0000 -0.0711
vn -0.0835 -0.0407 0.9957
vn -0.3910 -0.9196 0.0372
vn -0.0713 -0.0465 -0.9964
vn 0.5886 0.8070 -0.0478
vn -0.2194 -0.0498 -0.9744
vn -0.3624 -0.9300 0.0615
vn 0.1129 -0.0615 0.9917
vn -0.4600 0.8871 0.0376
vn -0.1406 -0.0515 -0.9887
vn 0.3768 -0.9260 -0.0234
vn 0.1438 -0.0608 0.9877
vn 0.2951 0.9546 -0.0404
vn -0.1531 -0.0510 -0.9869
vn -0.4711 -0.8810 0.0432
vn 0.3204 -0.0238 0.9470
vn -0.3522 0.9354 0.0321
vn -0.0992 -0.0552 -0.9935
vn 0.5216 -0.8524 -0.0380
vn 0.1249 -0.0283 0.9918
vn 0.4174 0.9026 -0.1053
vn -0.1546 -0.0493 -0.9867
vn -0.3898 -0.9152 0.1026
vn 0.1657 -0.0312 0.9857
vn -0.4396 0.8979 0.0222
vn -0.1217 -0.1401 -0.9826
vn 0.4328 -0.9012 -0.0212
vn -0.0615 -0.0321 0.9976
vn 0.2691 0.9578 -0.1006
vn 0.1199 -0.1453 -0.9821
vn -0.2806 -0.9550 0.0964
vn 0.6339 0.7716 -0.0528
vn -0.2144 -0.0729 -0.9740
vn -0.5828 -0.8107 0.0564
vn -0.4883 0.8669 0.1004
vn -0.1448 -0.0440 -0.9885
vn 0.5628 -0.8197 -0.1066
vn 0.0930 -0.0346 0.9951
vn 0.9860 -0.0295 -0.1640
vn -0.9591 -0.2527 0.1280
vn -0.1035 -0.9933 0.0522
vn 0.5343 -0.8400 -0.0950
vn -0.3655 -0.9272 0.0818
vn 0.5711 -0.8134 -0.1104
vn -0.4282 -0.9016 0.0613
vn 0.4513 -0.8886 -0.0819
vn -0.9885 -0.0209 0.1500
vn -0.4563 0.8859 0.0833
vn 0.5966 0.7944 -0.1138
vn -0.5438 0.8319 0.1104
vn 0.3618 0.9292 -0.0755
vn -0.4265 0.9013 0.0760
vn -0.0446 0.9990 -0.0010
vn -0.4712 0.8810 0.0420
vn 0.3773 0.9118 -0.1623
vn -0.4928 0.8663 0.0809
vn 0.6197 0.7762 -0.1161
vn -0.3221 0.9433 0.0798
vn 0.3984 0.9160 -0.0467
vn 0.9881 0.0254 -0.1514
vn -0.4154 -0.9082 0.0509
vn 0.3206 -0.9443 -0.0742
vn -0.6460 -0.7545 0.1160
vn 0.5381 -0.8376 -0.0945
vn -0.6043 -0.7774 0.1745
vn 0.4730 -0.8799 -0.0442
vn 0.3715 -0.9164 -0.1491
vn -0.5036 -0.8628 -0.0452
vn 0.4330 -0.8949 -0.1079
vn -0.5956 -0.8030 0.0219
vn 0.4061 -0.9107 -0.0763
vn -0.4787 -0.8774 0.0319
vn 0.9931 -0.0309 -0.1130
vn 0.4758 0.8789 -0.0319
vn -0.4156 0.9064 0.0758
vn 0.5878 0.8086 -0.0277
vn 0.1519 0.9878 0.0335
vn 0.5974 0.8019 0.0088
vn -0.2926 0.9508 0.1021
vn 0.4647 0.8853 0.0144
vn -0.5872 0.7986 0.1319
vn -0.4324 0.8974 0.0874
vn 0.4475 0.8908 -0.0795
vn -0.4189 0.9072 0.0382
vn -0.9879 0.0321 0.1515
vn 0.4167 -0.9076 -0.0513
vn -0.5873 -0.8069 0.0630
vn 0.4348 -0.8956 -0.0935
vn -0.3954 -0.9180 0.0297
vn 0.4255 -0.8939 -0.1412
vn -0.3391 -0.9407 -0.0061
vn -0.5618 0.8229 -0.0849
vn -0.0040 -0.0716 -0.9974
vn 0.5528 -0.8296 0.0789
vn -0.5108 0.8521 -0.1144
vn 0.0403 -0.0998 -0.9942
vn 0.4860 -0.8670 0.1101
vn 0.3453 0.9378 -0.0348
vn -0.3219 -0.0407 0.9459
vn -0.3884 -0.9196 -0.0585
vn 0.1718 -0.0465 -0.9840
vn 0.5827 0.8070 0.0960
vn 0.0228 -0.0498 -0.9985
vn -0.3666 -0.9300 -0.0280
vn -0.1303 -0.0615 0.9896
vn -0.4555 0.8871 -0.0748
vn 0.1028 -0.0515 -0.9934
vn 0.3713 -0.9260 0.0685
vn -0.0994 -0.0608 0.9932
vn 0.2961 0.9546 0.0321
vn 0.0902 -0.0511 -0.9946
vn -0.4675 -0.8810 -0.0720
vn 0.0817 -0.0238 0.9964
vn -0.3495 0.9354 -0.0541
vn 0.1441 -0.0552 -0.9880
vn 0.5153 -0.8524 0.0894
vn -0.1187 -0.0283 0.9925
vn 0.4305 0.9026 -0.0012
vn 0.0887 -0.0493 -0.9948
vn -0.4030 -0.9152 0.0052
vn -0.0776 -0.0312 0.9965
vn -0.4319 0.8979 -0.0848
vn 0.1196 -0.1401 -0.9829
vn 0.4251 -0.9012 0.0841
vn 0.2854 0.9578 -0.0325
vn 0.3539 -0.1453 -0.9239
vn -0.2956 -0.9550 0.0257
vn 0.6278 0.7716 0.1021
vn 0.0276 -0.0729 -0.9970
vn -0.5791 -0.8107 -0.0862
vn -0.4981 0.8669 -0.0207
vn 0.0986 -0.0440 -0.9942
vn 0.5719 -0.8197 0.0328
vn -0.1505 -0.0346 0.9880
vn 0.9964 -0.0295 0.0794
vn -0.9615 -0.2527 -0.1078
vn -0.1130 -0.9933 0.0256
vn 0.5414 -0.8400 0.0371
vn -0.3745 -0.9272 -0.0091
vn 0.5809 -0.8134 0.0310
vn -0.4303 -0.9016 -0.0441
vn 0.4577 -0.8886 0.0297
vn -0.9954 -0.0209 -0.0936
vn -0.4629 0.8859 -0.0296
vn 0.6064 0.7944 0.0339
vn -0.5543 0.8319 -0.0244
vn 0.3694 0.9292 0.0142
vn -0.4322 0.9013 -0.0295
vn -0.0430 0.9990 -0.0118
vn -0.4674 0.8810 -0.0732
vn 0.4054 0.9118 -0.0662
vn -0.4978 0.8663 -0.0407
vn 0.6294 0.7762 0.0373
vn -0.3318 0.9433 -0.0005
vn 0.3979 0.9160 0.0511
vn 0.9954 0.0254 0.0921
vn -0.4154 -0.9082 -0.0511
vn 0.3290 -0.9443 0.0056
vn -0.6549 -0.7545 -0.0437
vn 0.5450 -0.8376 0.0384
vn -0.6286 -0.7774 0.0231
vn 0.4697 -0.8799 0.0715
vn 0.3966 -0.9164 -0.0548
vn -0.4777 -0.8628 -0.1657
vn 0.4462 -0.8949 -0.0000
vn -0.5832 -0.8030 -0.1228
vn 0.4125 -0.9107 0.0242
vn -0.4722 -0.8774 -0.0849
vn 0.9910 -0.0309 0.1306
vn 0.4694 0.8789 0.0841
vn -0.4216 0.9064 -0.0270
vn 0.5770 0.8086 0.1153
vn 0.1393 0.9878 0.0692
vn 0.5775 0.8019 0.1531
vn -0.3086 0.9508 0.0283
vn 0.4474 0.8853 0.1264
vn -0.6017 0.7986 -0.0140
vn -0.4408 0.8974 -0.0198
vn 0.4534 0.8908 0.0311
vn -0.4157 0.9072 -0.0642
vn -0.9952 0.0321 -0.0920
vn 0.4167 -0.9076 0.0510
vn -0.5851 -0.8069 -0.0809
vn 0.4445 -0.8956 0.0145
vn -0.3908 -0.9180 -0.0669
vn 0.4470 -0.8939 -0.0341
vn -0.3276 -0.9407 -0.0879
vn 0.0357 -0.0000 0.9994
vn 0.0126 0.1087 0.9940
vn 0.0118 0.9999 -0.0000
vn 0.0335 0.9994 -0.0029
vn 0.0223 -0.0059 -0.9997
vn 0.0171 -0.9999 -0.0014
vn -0.0234 -0.0000 0.9997
vn 0.0458 -0.0162 0.9988
vn -0.0094 0.9999 -0.0088
vn -0.0248 0.9997 0.0021
vn -0.0058 1.0000 0.0025
vn -0.0050 -0.0108 -0.9999
vn -0.0062 0.0033 -1.0000
vn -0.0082 -1.0000 0.0007
vn 0.0194 -0.1074 -0.9940
vn -0.0624 -0.0215 -0.9978
vn 0.0128 -0.9999 0.0041
vn 0.0334 -0.9994 0.0032
vn 0.0130 0.0055 0.9999
vn 0.0158 0.9999 0.0014
vn -0.0163 -0.0000 -0.9999
vn 0.0538 0.0162 -0.9984
vn -0.0099 -0.9999 0.0084
vn -0.0248 -0.9997 -0.0023
vn -0.0061 -1.0000 -0.0026
vn -0.0133 0.0112 0.9998
vn -0.0147 -0.0035 0.9999
vn -0.0085 1.0000 -0.0008
vn -0.0092 0.0565 -0.9984
vn 0.0359 0.0104 -0.9993
vn -0.0242 0.9997 -0.0001
vn -0.0374 0.9980 0.0517
vn -0.0130 0.9999 0.0011
vn -0.0181 -0.0046 0.9998
vn -0.0222 -0.9998 0.0018
vn 0.0195 -0.0000 -0.9998
vn -0.0813 -0.0277 -0.9963
vn 0.0056 1.0000 0.0021
vn 0.0099 1.0000 -0.0009
vn 0.0046 1.0000 -0.0020
vn -0.0007 -0.0040 1.0000
vn -0.0003 0.0012 1.0000
vn 0.0050 -1.0000 -0.0004
vn 0.0481 -0.9986 0.0219
vn 0.0207 -0.9991 0.0365
vn -1.0000 0.0064 0.0042
vn -0.9999 0.0049 0.0147
vn 0.0119 0.9997 0.0210
vn -0.9980 -0.0015 0.0625
vn -0.9980 -0.0000 0.0627
vn -0.9989 0.0024 0.0466
vn -0.0000 -0.9999 -0.0115
vn -0.0155 -0.9995 -0.0274
vn -0.9999 0.0088 -0.0118
vn -0.9998 -0.0037 -0.0182
vn -0.9999 -0.0052 -0.0089
vn 0.0297 0.9995 -0.0139
vn -0.0096 0.9998 -0.0169
vn 0.0176 -0.9994 -0.0285
vn -0.0082 -0.9999 -0.0144
vn -0.9987 -0.0015 0.0506
vn -0.9986 -0.0038 0.0527
vn -0.9986 0.0012 0.0520
vn -0.9976 -0.0030 0.0686
vn -0.9968 0.0172 0.0782
vn -0.0160 0.9995 -0.0282
vn -0.0000 -1.0000 0.0084
vn 0.0062 -0.9999 0.0109
vn -0.0179 0.9998 0.0083
vn 0.0055 0.9999 0.0097
vn -0.1481 -0.0057 0.9890
vn -0.9999 -0.0001 -0.0163
vn 0.5526 0.2726 0.7876
vn 0.0116 -0.0000 0.9999
vn -0.0208 -0.0012 0.9998
vn 0.0152 -0.0002 -0.9999
vn -0.0132 -0.9999 0.0049
vn 0.0006 -1.0000 0.0058
vn -0.0114 -0.9999 0.0009
vn -0.0095 -0.0000 -1.0000
vn -0.0008 1.0000 -0.0084
vn -0.0015 0.9999 0.0155
vn 0.9999 -0.0000 0.0163
vn 0.9999 -0.0002 0.0163
vn 0.9959 -0.0008 -0.0908
vn 0.9959 -0.0001 -0.0908
vn 0.9959 0.0003 -0.0907
vn -0.9780 -0.2078 -0.0185
vn -0.9492 -0.3144 -0.0112
vn -0.0006 -0.9996 0.0293
vn 0.0486 -0.9980 0.0398
vn -0.0021 1.0000 -0.0023
vn -0.0102 0.9999 0.0032
vn -0.0002 1.0000 -0.0022
vn 0.0054 0.9983 0.0588
vn -0.0214 0.9991 -0.0361
vn -0.0047 1.0000 -0.0062
vn 0.0182 0.9990 0.0398
vn 0.0018 1.0000 0.0025
vn 0.0105 0.9999 -0.0021
vn -0.0000 1.0000 0.0022
vn 0.0009 0.9983 -0.0590
vn 0.0174 0.9991 0.0381
vn 0.0040 1.0000 0.0067
vn -0.0139 0.9990 -0.0415
vn 0.0415 -0.0060 -0.9991
vn -0.6339 0.2725 -0.7238
vn -0.1185 -0.0000 -0.9930
vn -0.0863 -0.0012 -0.9963
vn 0.0918 -0.0003 0.9958
vn 0.1164 -0.0000 0.9932
vn 0.0017 1.0000 0.0083
vn -0.0001 0.9999 -0.0156
vn 0.8164 -0.0001 -0.5775
vn 0.9743 -0.2080 -0.0862
vn 0.9449 -0.3147 -0.0904
vn -0.0025 -0.9996 -0.0292
vn -0.0526 -0.9980 -0.0344
vn 0.3306 0.9425 0.0491
vn 0.3296 0.9419 0.0652
vn 0.3387 0.9387 0.0645
vn -0.0959 -0.0000 -0.9954
vn -0.0725 0.1087 -0.9914
vn -0.0118 0.9999 0.0007
vn -0.0332 0.9994 0.0049
vn 0.0380 -0.0059 0.9993
vn -0.0169 -0.9999 0.0024
vn -0.0369 -0.0000 -0.9993
vn -0.1059 -0.0162 -0.9942
vn 0.0099 0.9999 0.0082
vn 0.0247 0.9997 -0.0036
vn 0.0056 1.0000 -0.0028
vn 0.0652 -0.0108 0.9978
vn 0.0665 0.0033 0.9978
vn 0.0081 -1.0000 -0.0012
vn 0.0406 -0.1074 0.9934
vn 0.1224 -0.0216 0.9922
vn -0.0131 -0.9999 -0.0033
vn -0.0336 -0.9994 -0.0011
vn -0.0732 0.0055 -0.9973
vn -0.0158 0.9999 -0.0005
vn 0.0765 -0.0000 0.9971
vn 0.0065 0.0162 0.9998
vn 0.0094 -0.9999 -0.0090
vn 0.0249 -0.9997 0.0008
vn 0.0062 -1.0000 0.0023
vn -0.0469 0.0112 -0.9988
vn -0.0456 -0.0035 -0.9990
vn 0.0085 1.0000 0.0002
vn 0.0693 0.0565 0.9960
vn 0.0243 0.0103 0.9997
vn 0.0242 0.9997 -0.0014
vn 0.0342 0.9980 -0.0538
vn 0.0130 0.9999 -0.0019
vn -0.0421 -0.0046 -0.9991
vn 0.0220 -0.9998 -0.0032
vn 0.0408 -0.0000 0.9992
vn 0.1412 -0.0277 0.9896
vn -0.0058 1.0000 -0.0018
vn -0.0099 1.0000 0.0015
vn -0.0045 1.0000 0.0022
vn -0.0595 -0.0040 -0.9982
vn -0.0599 0.0012 -0.9982
vn -0.0050 -1.0000 0.0007
vn -0.0493 -0.9986 -0.0190
vn -0.0229 -0.9991 -0.0352
vn 0.9979 0.0064 -0.0644
vn 0.9972 0.0049 -0.0749
vn -0.0132 0.9997 -0.0203
vn -1.0000 -0.0015 -0.0057
vn -1.0000 -0.0038 -0.0035
vn -1.0000 0.0012 -0.0043
vn -0.9999 -0.0030 0.0123
vn -0.9996 0.0172 0.0220
vn 0.0006 -0.9999 0.0115
vn 0.0171 -0.9995 0.0264
vn 0.9988 0.0088 -0.0485
vn 0.9991 -0.0037 -0.0420
vn 0.9987 -0.0052 -0.0514
vn -0.0288 0.9995 0.0156
vn 0.0106 0.9998 0.0163
vn -0.0158 -0.9994 0.0295
vn 0.0090 -0.9999 0.0139
vn -0.0042 -1.0000 -0.0061
vn -0.0251 -0.9996 0.0122
vn -0.0157 -0.9998 0.0111
vn -0.0041 -1.0000 -0.0062
vn 0.0177 0.9995 0.0272
vn 1.0000 -0.0009 -0.0036
vn 1.0000 -0.0000 -0.0037
vn 0.9999 0.0031 0.0125
vn -0.0005 -1.0000 -0.0084
vn -0.0068 -0.9999 -0.0105
vn 0.0173 0.9998 -0.0094
vn -0.0061 0.9999 -0.0094
vn -0.0397 -0.0000 -0.9992
vn -0.0166 0.1087 -0.9939
vn -0.0118 0.9999 -0.0000
vn -0.0334 0.9994 0.0030
vn -0.0183 -0.0059 0.9998
vn -0.0170 -0.9999 0.0015
vn 0.0194 -0.0000 -0.9998
vn -0.0498 -0.0162 -0.9986
vn 0.0095 0.9999 0.0088
vn 0.0248 0.9997 -0.0022
vn 0.0058 1.0000 -0.0025
vn 0.0090 -0.0108 0.9999
vn 0.0102 0.0033 0.9999
vn 0.0081 -1.0000 -0.0007
vn -0.0154 -0.1074 0.9941
vn 0.0664 -0.0216 0.9976
vn -0.0129 -0.9999 -0.0040
vn -0.0334 -0.9994 -0.0030
vn -0.0170 0.0055 -0.9998
vn -0.0158 0.9999 -0.0013
vn 0.0203 -0.0000 0.9998
vn -0.0498 0.0162 0.9986
vn 0.0099 -0.9999 -0.0085
vn 0.0248 -0.9997 0.0022
vn 0.0061 -1.0000 0.0026
vn 0.0093 0.0112 -0.9999
vn 0.0107 -0.0035 -0.9999
vn 0.0085 1.0000 0.0007
vn 0.0132 0.0565 0.9983
vn -0.0319 0.0104 0.9994
vn 0.0242 0.9997 -0.0000
vn 0.0372 0.9980 -0.0518
vn 0.0130 0.9999 -0.0012
vn 0.0141 -0.0046 -0.9999
vn 0.0222 -0.9998 -0.0019
vn -0.0155 -0.0000 0.9999
vn 0.0853 -0.0277 0.9960
vn -0.0056 1.0000 -0.0021
vn -0.0099 1.0000 0.0009
vn -0.0046 1.0000 0.0020
vn -0.0033 -0.0040 -1.0000
vn -0.0037 0.0012 -1.0000
vn -0.0050 -1.0000 0.0004
vn -0.0482 -0.9986 -0.0217
vn -0.0209 -0.9991 -0.0364
vn 0.9999 0.0064 -0.0082
vn 0.9998 0.0049 -0.0187
vn -0.0120 0.9997 -0.0210
vn 1.0000 -0.0016 -0.0023
vn 1.0000 -0.0000 -0.0025
vn 0.9999 0.0024 0.0136
vn -0.0000 -0.9999 0.0115
vn 0.0156 -0.9995 0.0273
vn 0.9999 0.0088 0.0078
vn 0.9999 -0.0037 0.0143
vn 1.0000 -0.0052 0.0049
vn -0.0297 0.9995 0.0140
vn 0.0096 0.9998 0.0168
vn -0.0175 -0.9994 0.0286
vn 0.0082 -0.9999 0.0144
vn -0.9978 -0.0015 -0.0667
vn -0.9979 -0.0038 -0.0645
vn -0.9979 0.0012 -0.0652
vn -0.9988 -0.0030 -0.0487
vn -0.9991 0.0172 -0.0390
vn 0.0161 0.9995 0.0282
vn -1.0000 -0.0009 -0.0004
vn -1.0000 -0.0000 -0.0003
vn -0.9999 0.0031 -0.0165
vn -0.0000 -1.0000 -0.0084
vn -0.0062 -0.9999 -0.0109
vn 0.0178 0.9998 -0.0084
vn -0.0056 0.9999 -0.0097
vn 0.0213 -0.0000 -0.9998
vn 0.0440 0.1087 -0.9931
vn -0.0117 0.9999 -0.0007
vn -0.0336 0.9994 0.0010
vn -0.0793 -0.0059 0.9968
vn -0.0171 -0.9999 0.0004
vn 0.0803 -0.0000 -0.9968
vn 0.0112 -0.0162 -0.9998
vn 0.0089 0.9999 0.0093
vn 0.0249 0.9997 -0.0007
vn 0.0059 1.0000 -0.0021
vn -0.0520 -0.0108 0.9986
vn -0.0508 0.0033 0.9987
vn 0.0082 -1.0000 -0.0002
vn -0.0760 -0.1074 0.9913
vn 0.0054 -0.0216 0.9998
vn -0.0126 -0.9999 -0.0048
vn -0.0332 -0.9994 -0.0051
vn 0.0440 0.0055 -0.9990
vn -0.0157 0.9999 -0.0023
vn -0.0407 -0.0000 0.9992
vn -0.1106 0.0162 0.9937
vn 0.0104 -0.9999 -0.0078
vn 0.0246 -0.9997 0.0037
vn 0.0059 -1.0000 0.0030
vn 0.0703 0.0112 -0.9975
vn 0.0717 -0.0035 -0.9974
vn 0.0084 1.0000 0.0012
vn -0.0478 0.0565 0.9973
vn -0.0928 0.0104 0.9956
vn 0.0242 0.9997 0.0015
vn 0.0402 0.9980 -0.0495
vn 0.0131 0.9999 -0.0004
vn 0.0751 -0.0046 -0.9972
vn 0.0222 -0.9998 -0.0006
vn -0.0764 -0.0000 0.9971
vn 0.0244 -0.0277 0.9993
vn -0.0055 1.0000 -0.0024
vn -0.0100 1.0000 0.0003
vn -0.0047 1.0000 0.0017
vn 0.0577 -0.0040 -0.9983
vn 0.0573 0.0012 -0.9984
vn -0.0050 -1.0000 0.0001
vn -0.0467 -0.9986 -0.0246
vn -0.0186 -0.9991 -0.0376
vn 0.9986 0.0064 0.0528
vn 0.9991 0.0049 0.0423
vn -0.0107 0.9997 -0.0217
vn -1.0000 -0.0015 0.0063
vn -1.0000 -0.0000 0.0065
vn -1.0000 0.0024 -0.0096
vn -0.0007 -0.9999 0.0115
vn 0.0139 -0.9995 0.0282
vn 0.9976 0.0087 0.0687
vn 0.9972 -0.0037 0.0752
vn 0.9978 -0.0052 0.0658
vn -0.0305 0.9995 0.0121
vn 0.0086 0.9998 0.0174
vn -0.0192 -0.9994 0.0274
vn 0.0073 -0.9999 0.0148
vn 1.0000 -0.0015 0.0097
vn 1.0000 -0.0038 0.0075
vn 1.0000 0.0012 0.0082
vn 1.0000 -0.0030 -0.0083
vn 0.9997 0.0172 -0.0180
vn 0.0144 0.9995 0.0291
vn 0.9982 -0.0009 -0.0599
vn 0.9982 -0.0000 -0.0600
vn 0.9990 0.0031 -0.0438
vn 0.0005 -1.0000 -0.0084
vn -0.0056 -0.9999 -0.0112
vn 0.0183 0.9998 -0.0073
vn -0.0050 0.9999 -0.0100
vn 0.9184 0.2293 0.3225
vn -0.2340 0.1660 0.9580
vn 0.5506 0.0009 0.8348
vn 0.5927 -0.0008 0.8054
vn -0.5855 -0.0001 -0.8106
vn 0.9984 -0.0009 0.0574
vn 0.9984 -0.0000 0.0573
vn 0.9973 0.0031 0.0735
vn -0.5530 -0.0000 -0.8332
vn -0.0022 1.0000 -0.0045
vn 0.0575 0.9973 -0.0456
vn -0.8164 0.0001 0.5775
vn 0.8112 -0.0972 -0.5766
vn 0.7816 -0.2835 -0.5556
vn 0.0292 -0.9988 0.0397
vn -0.0029 -0.9998 0.0213
vn 0.1582 -0.0333 0.9868
vn 0.1450 0.0085 0.9894
vn 0.1528 -0.0369 0.9876
vn -0.0202 0.9994 -0.0279
vn -0.0088 1.0000 0.0046
vn -0.0030 0.9996 -0.0273
vn 0.0007 1.0000 0.0011
vn -0.0009 1.0000 0.0054
vn -0.0041 1.0000 0.0047
vn -0.3793 0.9235 0.0575
vn -0.2453 -0.0408 -0.9686
vn 0.4642 -0.8838 -0.0584
vn -0.0852 -0.0333 0.9958
vn -0.0987 0.0085 0.9951
vn -0.0907 -0.0369 0.9952
vn 0.1753 -0.0343 0.9839
vn 0.1761 -0.0310 0.9839
vn 0.1834 -0.0372 0.9823
vn 0.1810 -0.0342 0.9829
vn 0.1832 -0.0321 0.9825
vn -0.4732 0.8809 0.0125
vn -0.2201 -0.0498 -0.9742
vn 0.4282 -0.9036 -0.0101
vn -0.9985 -0.0015 -0.0547
vn -0.9985 -0.0000 -0.0546
vn -0.9975 0.0024 -0.0706
vn -0.0826 -0.0450 0.9956
vn -0.3467 -0.9373 0.0372
vn -0.0696 -0.0561 -0.9960
vn 0.3490 0.9352 -0.0603
vn -0.2192 -0.0433 -0.9747
vn -0.6118 -0.7893 0.0517
vn 0.1179 -0.0391 0.9923
vn -0.3238 0.9460 0.0137
vn -0.1418 -0.0459 -0.9888
vn 0.4473 -0.8936 -0.0364
vn 0.1439 -0.0476 0.9885
vn 0.4412 0.8966 -0.0373
vn -0.1532 -0.0450 -0.9872
vn -0.3527 -0.9347 0.0447
vn 0.3272 -0.0420 0.9440
vn -0.5236 0.8513 0.0337
vn -0.1014 -0.0466 -0.9938
vn 0.4032 -0.9144 -0.0368
vn 0.1264 -0.0418 0.9911
vn 0.3816 0.9193 -0.0964
vn -0.1548 -0.0746 -0.9851
vn -0.3823 -0.9186 0.1006
vn 0.1658 -0.0317 0.9857
vn -0.3780 0.9258 0.0032
vn -0.1198 -0.0758 -0.9899
vn 0.3984 -0.9171 -0.0109
vn -0.0679 -0.0343 0.9971
vn -0.0671 -0.0310 0.9973
vn -0.0597 -0.0372 0.9975
vn -0.0621 -0.0342 0.9975
vn -0.0599 -0.0321 0.9977
vn 0.6907 0.7176 -0.0894
vn 0.1308 -0.1087 -0.9854
vn -0.6018 -0.7935 0.0905
vn 0.5773 0.8149 -0.0517
vn -0.2153 -0.0406 -0.9757
vn -0.5829 -0.8106 0.0564
vn -0.4519 0.8872 0.0926
vn -0.1448 -0.0430 -0.9885
vn 0.4406 -0.8941 -0.0807
vn 0.0929 -0.0384 0.9949
vn 0.9848 0.0585 -0.1635
vn -0.9914 -0.0222 0.1287
vn -0.4463 -0.8787 0.1695
vn 0.5108 -0.8546 -0.0931
vn -0.2981 -0.9514 0.0771
vn 0.5661 -0.8170 -0.1102
vn -0.5651 -0.8185 0.1038
vn 0.4416 -0.8937 -0.0791
vn -0.9885 -0.0208 0.1500
vn -0.4517 0.8884 0.0820
vn 0.4234 0.9040 -0.0593
vn -0.5869 0.8019 0.1124
vn 0.2635 0.9622 -0.0684
vn -0.5024 0.8584 0.1038
vn 0.4227 0.8917 -0.1616
vn -0.4602 0.8870 0.0374
vn 0.5676 0.8053 -0.1711
vn -0.5369 0.8393 0.0859
vn 0.2717 0.9559 -0.1115
vn -0.2672 0.9617 0.0608
vn 0.4156 0.9080 -0.0526
vn 0.9865 0.0590 -0.1527
vn -0.4035 -0.9138 0.0467
vn 0.3596 -0.9290 -0.0875
vn -0.2819 -0.9527 0.1133
vn 0.5042 -0.8588 -0.0910
vn -0.3995 -0.9016 0.1657
vn 0.4490 -0.8929 -0.0340
vn 0.6161 -0.7764 -0.1330
vn -0.6252 -0.7804 0.0010
vn -0.0742 -0.9906 -0.1150
vn -0.6280 -0.7779 0.0213
vn 0.4088 -0.9094 -0.0770
vn -0.4333 -0.9011 0.0187
vn 0.9931 -0.0330 -0.1130
vn 0.4516 0.8919 -0.0249
vn -0.4082 0.9099 0.0739
vn 0.6713 0.7407 -0.0262
vn -0.4361 0.8844 0.1663
vn 0.5043 0.8625 0.0434
vn -0.5638 0.8087 0.1680
vn 0.2671 0.9634 0.0211
vn -0.4146 0.8990 0.1411
vn -0.3822 0.9198 0.0882
vn 0.5887 0.8054 -0.0689
vn -0.4999 0.8635 0.0669
vn -0.9587 -0.2275 0.1706
vn 0.5645 -0.8191 -0.1021
vn -0.4551 -0.8877 0.0703
vn 0.4502 -0.8875 -0.0981
vn -0.3831 -0.9234 0.0256
vn 0.6147 -0.7781 -0.1293
vn -0.5271 -0.8498 -0.0010
vn -0.3820 0.9235 -0.0360
vn -0.0037 -0.0408 -0.9992
vn 0.4646 -0.8838 0.0556
vn 0.0137 -0.9999 -0.0034
vn -0.0000 -1.0000 -0.0058
vn 0.0114 -0.9999 0.0003
vn -0.4622 0.8809 -0.1023
vn 0.0221 -0.0498 -0.9985
vn 0.4179 -0.9036 0.0937
vn 0.3327 0.9425 -0.0323
vn 0.3355 0.9419 -0.0165
vn 0.3442 0.9387 -0.0194
vn -0.3210 -0.0450 0.9460
vn -0.3454 -0.9373 -0.0477
vn 0.1734 -0.0561 -0.9833
vn 0.3532 0.9352 0.0259
vn 0.0231 -0.0433 -0.9988
vn -0.6061 -0.7893 -0.0979
vn -0.1257 -0.0391 0.9913
vn -0.3175 0.9460 -0.0650
vn 0.1016 -0.0459 -0.9938
vn 0.4428 -0.8936 0.0728
vn -0.0995 -0.0476 0.9939
vn 0.4372 0.8966 0.0705
vn 0.0901 -0.0450 -0.9949
vn -0.3530 -0.9347 -0.0420
vn 0.0891 -0.0420 0.9951
vn -0.5162 0.8513 -0.0940
vn 0.1420 -0.0466 -0.9888
vn 0.4002 -0.9144 0.0618
vn -0.1171 -0.0418 0.9922
vn 0.3936 0.9193 -0.0012
vn 0.0881 -0.0746 -0.9933
vn -0.3952 -0.9186 0.0052
vn -0.0776 -0.0317 0.9965
vn -0.3676 0.9258 -0.0884
vn 0.1232 -0.0758 -0.9895
vn 0.3892 -0.9171 0.0858
vn 0.6918 0.7176 0.0804
vn 0.3653 -0.1087 -0.9245
vn -0.6059 -0.7935 -0.0578
vn 0.5727 0.8149 0.0895
vn 0.0272 -0.0406 -0.9988
vn -0.5792 -0.8106 -0.0863
vn -0.4609 0.8872 -0.0195
vn 0.0987 -0.0430 -0.9942
vn 0.4471 -0.8941 0.0283
vn -0.1505 -0.0384 0.9879
vn 0.9951 0.0585 0.0796
vn -0.9931 -0.0222 -0.1150
vn -0.4740 -0.8787 0.0565
vn 0.5182 -0.8546 0.0333
vn -0.3079 -0.9514 0.0027
vn 0.5759 -0.8170 0.0300
vn -0.5734 -0.8185 -0.0359
vn 0.4476 -0.8937 0.0301
vn -0.9954 -0.0208 -0.0936
vn -0.4581 0.8884 -0.0297
vn 0.4252 0.9040 0.0449
vn -0.5966 0.8019 -0.0329
vn 0.2722 0.9622 -0.0026
vn -0.5126 0.8584 -0.0208
vn 0.4492 0.8917 -0.0546
vn -0.4556 0.8870 -0.0750
vn 0.5922 0.8053 -0.0287
vn -0.5417 0.8393 -0.0465
vn 0.2906 0.9559 -0.0425
vn -0.2740 0.9617 -0.0057
vn 0.4160 0.9080 0.0495
vn 0.9941 0.0590 0.0905
vn -0.4028 -0.9138 -0.0523
vn 0.3701 -0.9290 0.0020
vn -0.3010 -0.9527 0.0417
vn 0.5113 -0.8588 0.0337
vn -0.4277 -0.9016 0.0641
vn 0.4439 -0.8929 0.0756
vn 0.6299 -0.7764 0.0200
vn -0.6069 -0.7804 -0.1503
vn -0.0442 -0.9906 -0.1296
vn -0.6145 -0.7779 -0.1312
vn 0.4152 -0.9094 0.0242
vn -0.4249 -0.9011 -0.0867
vn 0.9909 -0.0330 0.1306
vn 0.4442 0.8919 0.0851
vn -0.4139 0.9099 -0.0271
vn 0.6577 0.7407 0.1370
vn -0.4633 0.8844 0.0558
vn 0.4788 0.8625 0.1641
vn -0.5877 0.8087 0.0266
vn 0.2541 0.9634 0.0851
vn -0.4364 0.8990 0.0366
vn -0.3922 0.9198 -0.0069
vn 0.5879 0.8054 0.0755
vn -0.5012 0.8635 -0.0560
vn -0.9715 -0.2275 -0.0664
vn 0.5724 -0.8191 0.0375
vn -0.4586 -0.8877 -0.0419
vn 0.4606 -0.8875 0.0137
vn -0.3779 -0.9234 -0.0679
vn 0.6277 -0.7781 0.0233
vn -0.5112 -0.8498 -0.1285
vt 0.875000 0.625000
vt 0.375000 0.375000
vt 0.625000 0.625000
vt 0.375000 0.875000
vt 0.375000 0.625000
vt 0.875000 0.875000
vt 0.625000 0.375000
s 0
usemtl ruins_hk_plate_stack
f 9/1/1 17/1/1 15/1/1
f 15/1/2 11/1/2 5/1/2
f 5/1/3 12/1/3 7/1/3
f 12/1/4 1/1/4 7/1/4
f 8/2/5 14/2/5 6/2/5
f 1/2/6 5/2/6 7/2/6
f 2/1/7 16/1/7 9/1/7
f 4/1/8 6/1/8 13/1/8
f 13/1/9 14/1/9 8/1/9
f 9/1/10 8/1/10 2/1/10
f 14/1/11 13/1/11 6/1/11
f 10/1/12 17/1/12 16/1/12
f 15/1/13 17/1/13 10/1/13
f 34/1/14 31/1/14 18/1/14
f 22/1/15 34/1/15 28/1/15
f 22/1/16 29/1/16 24/1/16
f 29/1/17 18/1/17 24/1/17
f 25/2/5 33/2/5 23/2/5
f 18/2/6 20/2/6 30/2/6
f 19/1/18 35/1/18 26/1/18
f 21/1/19 23/1/19 32/1/19
f 32/1/20 33/1/20 25/1/20
f 26/1/21 25/1/21 19/1/21
f 20/1/22 31/1/22 30/1/22
f 33/1/23 32/1/23 23/1/23
f 27/1/24 36/1/24 35/1/24
f 34/1/25 36/1/25 27/1/25
f 53/1/26 50/1/26 37/1/26
f 41/1/27 53/1/27 47/1/27
f 41/1/28 48/1/28 43/1/28
f 48/1/29 37/1/29 43/1/29
f 44/2/6 52/2/6 42/2/6
f 37/2/5 39/2/5 49/2/5
f 38/1/30 54/1/30 45/1/30
f 40/1/8 42/1/8 51/1/8
f 51/1/20 52/1/20 44/1/20
f 45/1/31 44/1/31 38/1/31
f 39/1/32 50/1/32 49/1/32
f 52/1/33 51/1/33 42/1/33
f 46/1/34 55/1/34 54/1/34
f 53/1/35 55/1/35 46/1/35
f 72/1/36 69/1/36 56/1/36
f 60/1/37 72/1/37 66/1/37
f 60/1/38 67/1/38 62/1/38
f 207/1/39 213/1/39 218/1/39
f 63/2/20 71/2/20 61/2/20
f 56/2/9 58/2/9 68/2/9
f 57/1/40 73/1/40 64/1/40
f 59/1/6 61/1/6 70/1/6
f 70/1/8 71/1/8 63/1/8
f 58/1/41 69/1/41 68/1/41
f 71/1/42 70/1/42 61/1/42
f 65/1/43 74/1/43 73/1/43
f 72/1/44 74/1/44 65/1/44
f 91/1/45 88/1/45 75/1/45
f 242/1/46 235/1/46 236/1/46
f 79/1/47 86/1/47 81/1/47
f 82/2/9 90/2/9 80/2/9
f 75/2/20 77/2/20 87/2/20
f 76/1/48 92/1/48 83/1/48
f 89/1/8 90/1/8 82/1/8
f 77/1/49 88/1/49 87/1/49
f 90/1/50 89/1/50 80/1/50
f 84/1/51 93/1/51 92/1/51
f 91/1/52 93/1/52 84/1/52
f 105/3/53 106/3/53 102/3/53
f 114/3/54 100/3/54 98/3/54
f 118/3/54 96/3/54 120/3/54
f 105/3/55 109/3/55 108/3/55
f 107/3/56 99/3/56 106/3/56
f 100/3/57 109/3/57 98/3/57
f 94/3/58 103/3/58 104/3/58
f 133/4/19 130/4/19 134/4/19
f 97/3/59 104/3/59 103/3/59
f 110/4/60 112/4/60 113/4/60
f 112/4/61 111/4/61 113/4/61
f 114/4/62 116/4/62 117/4/62
f 116/4/63 115/4/63 117/4/63
f 110/4/64 103/4/64 112/4/64
f 111/4/65 112/4/65 102/4/65
f 113/3/66 95/3/66 110/3/66
f 143/3/67 129/3/67 127/3/67
f 115/3/68 116/3/68 120/3/68
f 117/4/69 105/4/69 108/4/69
f 118/4/70 120/4/70 122/4/70
f 120/4/71 119/4/71 121/4/71
f 120/4/72 121/4/72 122/4/72
f 150/4/73 148/4/73 141/4/73
f 121/4/74 119/4/74 112/4/74
f 134/3/75 135/3/75 131/3/75
f 147/3/76 125/3/76 149/3/76
f 134/3/77 138/3/77 137/3/77
f 136/3/78 128/3/78 135/3/78
f 129/3/79 138/3/79 127/3/79
f 123/3/80 132/3/80 133/3/80
f 126/3/81 133/3/81 132/3/81
f 139/4/82 141/4/82 142/4/82
f 141/4/83 140/4/83 142/4/83
f 143/4/84 145/4/84 146/4/84
f 145/4/85 144/4/85 146/4/85
f 139/4/86 132/4/86 141/4/86
f 140/4/87 141/4/87 131/4/87
f 453/3/88 435/3/88 451/3/88
f 144/3/89 145/3/89 149/3/89
f 146/4/90 134/4/90 137/4/90
f 147/4/91 149/4/91 151/4/91
f 149/4/92 148/4/92 150/4/92
f 149/4/93 150/4/93 151/4/93
f 658/5/94 626/5/94 627/5/94
f 160/1/95 168/1/95 166/1/95
f 166/1/96 162/1/96 156/1/96
f 156/1/97 163/1/97 158/1/97
f 163/1/98 152/1/98 158/1/98
f 159/2/99 165/2/99 157/2/99
f 152/2/100 156/2/100 158/2/100
f 153/1/101 167/1/101 160/1/101
f 155/1/8 157/1/8 164/1/8
f 164/1/102 165/1/102 159/1/102
f 160/1/103 159/1/103 153/1/103
f 165/1/104 164/1/104 157/1/104
f 161/1/105 168/1/105 167/1/105
f 166/1/106 168/1/106 161/1/106
f 185/1/107 182/1/107 169/1/107
f 173/1/108 185/1/108 179/1/108
f 173/1/109 180/1/109 175/1/109
f 180/1/110 169/1/110 175/1/110
f 176/2/111 184/2/111 174/2/111
f 169/2/112 171/2/112 181/2/112
f 170/1/113 186/1/113 177/1/113
f 172/1/19 174/1/19 183/1/19
f 183/1/114 184/1/114 176/1/114
f 177/1/115 176/1/115 170/1/115
f 171/1/116 182/1/116 181/1/116
f 184/1/117 183/1/117 174/1/117
f 178/1/118 187/1/118 186/1/118
f 185/1/119 187/1/119 178/1/119
f 204/1/120 201/1/120 188/1/120
f 192/1/121 204/1/121 198/1/121
f 192/1/122 199/1/122 194/1/122
f 199/1/123 188/1/123 194/1/123
f 195/2/112 203/2/112 193/2/112
f 188/2/111 190/2/111 200/2/111
f 189/1/124 205/1/124 196/1/124
f 191/1/8 193/1/8 202/1/8
f 202/1/125 203/1/125 195/1/125
f 196/1/126 195/1/126 189/1/126
f 190/1/127 201/1/127 200/1/127
f 203/1/128 202/1/128 193/1/128
f 197/1/129 206/1/129 205/1/129
f 204/1/130 206/1/130 197/1/130
f 223/1/131 220/1/131 207/1/131
f 211/1/132 223/1/132 217/1/132
f 211/1/133 218/1/133 213/1/133
f 335/1/134 328/1/134 329/1/134
f 214/2/114 222/2/114 212/2/114
f 207/2/102 209/2/102 219/2/102
f 208/1/135 224/1/135 215/1/135
f 210/1/100 212/1/100 221/1/100
f 221/1/8 222/1/8 214/1/8
f 209/1/136 220/1/136 219/1/136
f 222/1/137 221/1/137 212/1/137
f 216/1/138 225/1/138 224/1/138
f 223/1/139 225/1/139 216/1/139
f 242/1/140 239/1/140 226/1/140
f 452/4/141 442/4/141 438/4/141
f 230/1/142 237/1/142 232/1/142
f 319/1/143 325/1/143 330/1/143
f 233/2/102 241/2/102 231/2/102
f 226/2/114 228/2/114 238/2/114
f 227/1/144 243/1/144 234/1/144
f 240/1/8 241/1/8 233/1/8
f 228/1/145 239/1/145 238/1/145
f 241/1/146 240/1/146 231/1/146
f 235/1/147 244/1/147 243/1/147
f 242/1/148 244/1/148 235/1/148
f 253/1/149 261/1/149 259/1/149
f 259/1/150 255/1/150 249/1/150
f 249/1/151 256/1/151 251/1/151
f 256/1/152 245/1/152 251/1/152
f 252/2/153 258/2/153 250/2/153
f 251/2/154 247/2/154 249/2/154
f 246/1/155 260/1/155 253/1/155
f 248/1/8 250/1/8 257/1/8
f 257/1/156 258/1/156 252/1/156
f 253/1/157 252/1/157 246/1/157
f 258/1/158 257/1/158 250/1/158
f 254/1/159 261/1/159 260/1/159
f 259/1/160 261/1/160 254/1/160
f 278/1/161 275/1/161 262/1/161
f 266/1/162 278/1/162 272/1/162
f 266/1/163 273/1/163 268/1/163
f 273/1/164 262/1/164 268/1/164
f 269/2/153 277/2/153 267/2/153
f 262/2/154 264/2/154 274/2/154
f 263/1/165 279/1/165 270/1/165
f 265/1/19 267/1/19 276/1/19
f 276/1/166 277/1/166 269/1/166
f 270/1/167 269/1/167 263/1/167
f 264/1/168 275/1/168 274/1/168
f 277/1/169 276/1/169 267/1/169
f 271/1/170 280/1/170 279/1/170
f 278/1/171 280/1/171 271/1/171
f 297/1/172 294/1/172 281/1/172
f 285/1/173 297/1/173 291/1/173
f 285/1/174 292/1/174 287/1/174
f 292/1/175 281/1/175 287/1/175
f 288/2/154 296/2/154 286/2/154
f 281/2/153 283/2/153 293/2/153
f 282/1/176 298/1/176 289/1/176
f 284/1/8 286/1/8 295/1/8
f 295/1/166 296/1/166 288/1/166
f 289/1/177 288/1/177 282/1/177
f 283/1/178 294/1/178 293/1/178
f 296/1/179 295/1/179 286/1/179
f 290/1/180 299/1/180 298/1/180
f 297/1/181 299/1/181 290/1/181
f 316/1/182 313/1/182 300/1/182
f 304/1/183 316/1/183 310/1/183
f 304/1/184 311/1/184 306/1/184
f 56/1/185 62/1/185 67/1/185
f 307/2/166 315/2/166 305/2/166
f 300/2/156 302/2/156 312/2/156
f 301/1/186 317/1/186 308/1/186
f 303/1/154 305/1/154 314/1/154
f 314/1/8 315/1/8 307/1/8
f 302/1/187 313/1/187 312/1/187
f 315/1/188 314/1/188 305/1/188
f 309/1/189 318/1/189 317/1/189
f 316/1/190 318/1/190 309/1/190
f 335/1/191 332/1/191 319/1/191
f 428/1/192 421/1/192 422/1/192
f 323/1/193 330/1/193 325/1/193
f 75/1/194 81/1/194 86/1/194
f 326/2/156 334/2/156 324/2/156
f 319/2/166 321/2/166 331/2/166
f 320/1/195 336/1/195 327/1/195
f 333/1/8 334/1/8 326/1/8
f 321/1/196 332/1/196 331/1/196
f 334/1/197 333/1/197 324/1/197
f 328/1/198 337/1/198 336/1/198
f 335/1/199 337/1/199 328/1/199
f 346/1/200 354/1/200 352/1/200
f 352/1/201 348/1/201 342/1/201
f 342/1/202 349/1/202 344/1/202
f 349/1/203 338/1/203 344/1/203
f 345/2/204 351/2/204 343/2/204
f 338/2/205 342/2/205 344/2/205
f 339/1/206 353/1/206 346/1/206
f 341/1/8 343/1/8 350/1/8
f 350/1/207 351/1/207 345/1/207
f 346/1/208 345/1/208 339/1/208
f 351/1/209 350/1/209 343/1/209
f 347/1/210 354/1/210 353/1/210
f 352/1/211 354/1/211 347/1/211
f 371/1/212 368/1/212 355/1/212
f 359/1/213 371/1/213 365/1/213
f 359/1/214 366/1/214 361/1/214
f 366/1/215 355/1/215 361/1/215
f 362/2/216 370/2/216 360/2/216
f 355/2/205 357/2/205 367/2/205
f 356/1/217 372/1/217 363/1/217
f 358/1/19 360/1/19 369/1/19
f 369/1/218 370/1/218 362/1/218
f 363/1/219 362/1/219 356/1/219
f 357/1/220 368/1/220 367/1/220
f 370/1/221 369/1/221 360/1/221
f 364/1/222 373/1/222 372/1/222
f 371/1/223 373/1/223 364/1/223
f 390/1/224 387/1/224 374/1/224
f 378/1/225 390/1/225 384/1/225
f 378/1/226 385/1/226 380/1/226
f 385/1/227 374/1/227 380/1/227
f 381/2/205 389/2/205 379/2/205
f 374/2/204 376/2/204 386/2/204
f 375/1/228 391/1/228 382/1/228
f 377/1/8 379/1/8 388/1/8
f 388/1/218 389/1/218 381/1/218
f 382/1/229 381/1/229 375/1/229
f 376/1/230 387/1/230 386/1/230
f 389/1/231 388/1/231 379/1/231
f 383/1/232 392/1/232 391/1/232
f 390/1/233 392/1/233 383/1/233
f 409/1/234 406/1/234 393/1/234
f 397/1/235 409/1/235 403/1/235
f 397/1/236 404/1/236 399/1/236
f 300/1/237 306/1/237 311/1/237
f 400/2/218 408/2/218 398/2/218
f 393/2/207 395/2/207 405/2/207
f 394/1/238 410/1/238 401/1/238
f 396/1/205 398/1/205 407/1/205
f 407/1/8 408/1/8 400/1/8
f 395/1/239 406/1/239 405/1/239
f 408/1/240 407/1/240 398/1/240
f 402/1/241 411/1/241 410/1/241
f 409/1/242 411/1/242 402/1/242
f 428/1/243 425/1/243 412/1/243
f 91/1/244 84/1/244 85/1/244
f 416/1/245 423/1/245 418/1/245
f 226/1/246 232/1/246 237/1/246
f 419/2/207 427/2/207 417/2/207
f 412/2/218 414/2/218 424/2/218
f 413/1/247 429/1/247 420/1/247
f 426/1/8 427/1/8 419/1/8
f 414/1/248 425/1/248 424/1/248
f 427/1/249 426/1/249 417/1/249
f 421/1/250 430/1/250 429/1/250
f 428/1/251 430/1/251 421/1/251
f 442/3/252 443/3/252 444/3/252
f 455/3/253 457/3/253 433/3/253
f 446/3/254 442/3/254 445/3/254
f 444/3/255 436/3/255 438/3/255
f 446/3/256 437/3/256 435/3/256
f 440/3/257 431/3/257 441/3/257
f 412/1/258 418/1/258 423/1/258
f 441/3/259 434/3/259 440/3/259
f 447/4/260 450/4/260 449/4/260
f 449/4/261 450/4/261 448/4/261
f 451/4/262 454/4/262 453/4/262
f 453/4/263 454/4/263 452/4/263
f 440/6/264 447/6/264 449/6/264
f 439/6/265 448/6/265 436/6/265
f 142/3/266 124/3/266 139/3/266
f 438/3/267 448/3/267 450/3/267
f 457/3/268 452/3/268 431/3/268
f 445/4/269 454/4/269 451/4/269
f 455/4/270 459/4/270 457/4/270
f 457/4/271 458/4/271 456/4/271
f 457/4/272 459/4/272 458/4/272
f 464/7/273 507/7/273 467/7/273
f 440/6/274 459/6/274 455/6/274
f 554/7/275 521/7/275 522/7/275
f 465/5/276 463/5/276 466/5/276
f 516/7/277 561/7/277 515/7/277
f 568/7/278 611/7/278 571/7/278
f 503/5/279 496/5/279 500/5/279
f 548/7/280 527/7/280 528/7/280
f 471/7/281 501/7/281 502/7/281
f 536/7/282 541/7/282 535/7/282
f 393/1/283 399/1/283 404/1/283
f 460/7/284 484/7/284 461/7/284
f 562/5/285 515/5/285 561/5/285
f 485/5/286 463/5/286 462/5/286
f 526/5/287 549/5/287 550/5/287
f 474/5/288 468/5/288 471/5/288
f 537/5/289 540/5/289 536/5/289
f 475/5/290 469/5/290 472/5/290
f 526/5/291 551/5/291 525/5/291
f 477/5/292 474/5/292 478/5/292
f 537/5/293 538/5/293 539/5/293
f 476/5/294 475/5/294 472/5/294
f 524/5/295 551/5/295 552/5/295
f 482/7/296 477/7/296 478/7/296
f 513/5/297 538/5/297 512/5/297
f 483/5/298 476/5/298 480/5/298
f 523/5/299 552/5/299 553/5/299
f 485/7/300 482/7/300 486/7/300
f 514/5/301 563/5/301 513/5/301
f 484/5/302 483/5/302 480/5/302
f 546/5/303 531/5/303 545/5/303
f 494/7/304 489/7/304 490/7/304
f 532/5/305 543/5/305 544/5/305
f 495/7/306 488/7/306 492/7/306
f 547/5/307 530/5/307 546/5/307
f 497/7/308 494/7/308 498/7/308
f 533/5/309 542/5/309 543/5/309
f 607/5/310 600/5/310 604/5/310
f 547/7/311 528/7/311 529/7/311
f 502/7/312 497/7/312 498/7/312
f 535/7/313 542/7/313 534/7/313
f 555/5/314 520/5/314 521/5/314
f 506/5/315 465/5/315 466/5/315
f 517/5/316 560/5/316 516/5/316
f 557/5/317 520/5/317 556/5/317
f 509/5/318 506/5/318 510/5/318
f 517/5/319 558/5/319 559/5/319
f 508/7/320 507/7/320 504/7/320
f 545/5/321 532/5/321 544/5/321
f 558/5/322 519/5/322 557/5/322
f 513/5/323 479/5/323 483/5/323
f 487/5/324 513/5/324 483/5/324
f 514/7/325 460/7/325 515/7/325
f 467/7/326 515/7/326 460/7/326
f 517/7/327 467/7/327 507/7/327
f 518/7/328 507/7/328 511/7/328
f 518/7/329 508/7/329 519/7/329
f 519/7/330 504/7/330 520/7/330
f 520/7/331 464/7/331 521/7/331
f 522/7/332 464/7/332 461/7/332
f 461/7/333 523/7/333 522/7/333
f 480/5/334 523/5/334 484/5/334
f 476/5/335 524/5/335 480/5/335
f 472/5/336 525/5/336 476/5/336
f 472/5/337 527/5/337 526/5/337
f 528/5/338 469/5/338 500/5/338
f 529/5/339 500/5/339 496/5/339
f 529/5/340 492/5/340 530/5/340
f 530/7/341 488/7/341 531/7/341
f 532/7/342 488/7/342 491/7/342
f 533/7/343 491/7/343 495/7/343
f 534/5/344 495/5/344 499/5/344
f 503/5/345 534/5/345 499/5/345
f 470/5/346 535/5/346 503/5/346
f 475/5/347 536/5/347 470/5/347
f 512/5/348 475/5/348 479/5/348
f 538/5/349 474/5/349 539/5/349
f 540/5/350 474/5/350 471/5/350
f 540/7/351 502/7/351 541/7/351
f 541/7/352 498/7/352 542/7/352
f 543/7/353 498/7/353 494/7/353
f 544/7/354 494/7/354 490/7/354
f 545/7/355 490/7/355 489/7/355
f 493/7/356 545/7/356 489/7/356
f 497/7/357 546/7/357 493/7/357
f 548/7/358 497/7/358 501/7/358
f 468/7/359 548/7/359 501/7/359
f 549/5/360 473/5/360 550/5/360
f 550/5/361 477/5/361 551/5/361
f 552/7/362 477/7/362 481/7/362
f 553/7/363 481/7/363 485/7/363
f 555/5/364 462/5/364 465/5/364
f 556/5/365 465/5/365 505/5/365
f 509/5/366 556/5/366 505/5/366
f 510/5/367 557/5/367 509/5/367
f 559/5/368 510/5/368 506/5/368
f 559/5/369 466/5/369 560/5/369
f 561/5/370 466/5/370 463/5/370
f 463/5/371 562/5/371 561/5/371
f 562/7/372 482/7/372 563/7/372
f 563/7/373 478/7/373 538/7/373
f 658/7/374 625/7/374 626/7/374
f 569/5/375 567/5/375 570/5/375
f 620/7/376 665/7/376 619/7/376
f 104/4/19 101/4/19 105/4/19
f 652/7/377 631/7/377 632/7/377
f 575/7/378 605/7/378 606/7/378
f 640/7/379 645/7/379 639/7/379
f 554/5/380 522/5/380 523/5/380
f 564/7/381 588/7/381 565/7/381
f 666/5/382 619/5/382 665/5/382
f 589/5/383 567/5/383 566/5/383
f 630/5/384 653/5/384 654/5/384
f 578/5/385 572/5/385 575/5/385
f 641/5/386 644/5/386 640/5/386
f 579/5/387 573/5/387 576/5/387
f 630/5/388 655/5/388 629/5/388
f 581/5/389 578/5/389 582/5/389
f 641/5/390 642/5/390 643/5/390
f 580/5/391 579/5/391 576/5/391
f 628/5/392 655/5/392 656/5/392
f 586/7/393 581/7/393 582/7/393
f 617/5/394 642/5/394 616/5/394
f 587/5/395 580/5/395 584/5/395
f 627/5/396 656/5/396 657/5/396
f 589/7/397 586/7/397 590/7/397
f 618/5/398 667/5/398 617/5/398
f 588/5/399 587/5/399 584/5/399
f 650/5/400 635/5/400 649/5/400
f 598/7/401 593/7/401 594/7/401
f 636/5/402 647/5/402 648/5/402
f 599/7/403 592/7/403 596/7/403
f 651/5/404 634/5/404 650/5/404
f 601/7/405 598/7/405 602/7/405
f 637/5/406 646/5/406 647/5/406
f 651/7/407 632/7/407 633/7/407
f 606/7/408 601/7/408 602/7/408
f 639/7/409 646/7/409 638/7/409
f 659/5/410 624/5/410 625/5/410
f 610/5/411 569/5/411 570/5/411
f 621/5/412 664/5/412 620/5/412
f 661/5/413 624/5/413 660/5/413
f 613/5/414 610/5/414 614/5/414
f 621/5/415 662/5/415 663/5/415
f 612/7/416 611/7/416 608/7/416
f 649/5/417 636/5/417 648/5/417
f 662/5/418 623/5/418 661/5/418
f 617/5/419 583/5/419 587/5/419
f 591/5/420 617/5/420 587/5/420
f 618/7/421 564/7/421 619/7/421
f 571/7/422 619/7/422 564/7/422
f 621/7/423 571/7/423 611/7/423
f 622/7/424 611/7/424 615/7/424
f 622/7/425 612/7/425 623/7/425
f 623/7/426 608/7/426 624/7/426
f 624/7/427 568/7/427 625/7/427
f 626/7/428 568/7/428 565/7/428
f 565/7/429 627/7/429 626/7/429
f 584/5/430 627/5/430 588/5/430
f 580/5/431 628/5/431 584/5/431
f 576/5/432 629/5/432 580/5/432
f 576/5/433 631/5/433 630/5/433
f 632/5/434 573/5/434 604/5/434
f 633/5/435 604/5/435 600/5/435
f 633/5/436 596/5/436 634/5/436
f 634/7/437 592/7/437 635/7/437
f 636/7/438 592/7/438 595/7/438
f 637/7/439 595/7/439 599/7/439
f 638/5/440 599/5/440 603/5/440
f 607/5/441 638/5/441 603/5/441
f 574/5/442 639/5/442 607/5/442
f 579/5/443 640/5/443 574/5/443
f 616/5/444 579/5/444 583/5/444
f 642/5/445 578/5/445 643/5/445
f 644/5/446 578/5/446 575/5/446
f 644/7/447 606/7/447 645/7/447
f 645/7/448 602/7/448 646/7/448
f 647/7/449 602/7/449 598/7/449
f 648/7/450 598/7/450 594/7/450
f 649/7/451 594/7/451 593/7/451
f 597/7/452 649/7/452 593/7/452
f 601/7/453 650/7/453 597/7/453
f 652/7/454 601/7/454 605/7/454
f 572/7/455 652/7/455 605/7/455
f 653/5/456 577/5/456 654/5/456
f 654/5/457 581/5/457 655/5/457
f 656/7/458 581/7/458 585/7/458
f 657/7/459 585/7/459 589/7/459
f 659/5/460 566/5/460 569/5/460
f 660/5/461 569/5/461 609/5/461
f 613/5/462 660/5/462 609/5/462
f 614/5/463 661/5/463 613/5/463
f 663/5/464 614/5/464 610/5/464
f 663/5/465 570/5/465 664/5/465
f 665/5/466 570/5/466 567/5/466
f 567/5/467 666/5/467 665/5/467
f 666/7/468 586/7/468 667/7/468
f 667/7/469 582/7/469 642/7/469
f 3/1/470 1/1/470 15/1/470
f 1/1/471 9/1/471 15/1/471
f 5/1/472 3/1/472 15/1/472
f 15/1/473 10/1/473 11/1/473
f 5/1/474 11/1/474 12/1/474
f 12/1/475 9/1/475 1/1/475
f 4/2/5 2/2/5 6/2/5
f 2/2/5 8/2/5 6/2/5
f 1/2/6 3/2/6 5/2/6
f 4/1/476 16/1/476 2/1/476
f 16/1/477 17/1/477 9/1/477
f 13/1/478 11/1/478 16/1/478
f 11/1/479 10/1/479 16/1/479
f 16/1/480 4/1/480 13/1/480
f 8/1/481 12/1/481 13/1/481
f 12/1/482 11/1/482 13/1/482
f 9/1/483 12/1/483 8/1/483
f 20/1/9 18/1/9 31/1/9
f 18/1/484 26/1/484 34/1/484
f 26/1/485 36/1/485 34/1/485
f 22/1/19 30/1/19 31/1/19
f 31/1/486 34/1/486 22/1/486
f 34/1/487 27/1/487 28/1/487
f 22/1/488 28/1/488 29/1/488
f 29/1/489 26/1/489 18/1/489
f 21/2/5 19/2/5 23/2/5
f 19/2/5 25/2/5 23/2/5
f 22/2/6 24/2/6 30/2/6
f 24/2/6 18/2/6 30/2/6
f 21/1/490 35/1/490 19/1/490
f 35/1/491 36/1/491 26/1/491
f 32/1/492 28/1/492 35/1/492
f 28/1/493 27/1/493 35/1/493
f 35/1/494 21/1/494 32/1/494
f 25/1/495 29/1/495 32/1/495
f 29/1/496 28/1/496 32/1/496
f 26/1/497 29/1/497 25/1/497
f 39/1/9 37/1/9 50/1/9
f 37/1/498 45/1/498 53/1/498
f 45/1/499 55/1/499 53/1/499
f 41/1/500 49/1/500 53/1/500
f 49/1/501 50/1/501 53/1/501
f 53/1/502 46/1/502 47/1/502
f 41/1/503 47/1/503 48/1/503
f 48/1/504 45/1/504 37/1/504
f 40/2/6 38/2/6 42/2/6
f 38/2/6 44/2/6 42/2/6
f 41/2/5 43/2/5 49/2/5
f 43/2/5 37/2/5 49/2/5
f 40/1/505 54/1/505 38/1/505
f 54/1/506 55/1/506 45/1/506
f 51/1/507 47/1/507 54/1/507
f 47/1/508 46/1/508 54/1/508
f 54/1/509 40/1/509 51/1/509
f 44/1/510 48/1/510 51/1/510
f 48/1/511 47/1/511 51/1/511
f 45/1/512 48/1/512 44/1/512
f 58/1/19 56/1/19 69/1/19
f 56/1/513 64/1/513 72/1/513
f 64/1/514 74/1/514 72/1/514
f 60/1/6 68/1/6 69/1/6
f 69/1/515 72/1/515 60/1/515
f 72/1/516 65/1/516 66/1/516
f 60/1/517 66/1/517 67/1/517
f 218/1/518 214/1/518 215/1/518
f 214/1/519 208/1/519 215/1/519
f 215/1/520 207/1/520 218/1/520
f 59/2/20 57/2/20 61/2/20
f 57/2/20 63/2/20 61/2/20
f 60/2/9 62/2/9 68/2/9
f 62/2/9 56/2/9 68/2/9
f 59/1/521 73/1/521 57/1/521
f 73/1/522 74/1/522 64/1/522
f 70/1/523 66/1/523 73/1/523
f 66/1/524 65/1/524 73/1/524
f 73/1/525 59/1/525 70/1/525
f 63/1/526 67/1/526 70/1/526
f 67/1/527 66/1/527 70/1/527
f 77/1/19 75/1/19 88/1/19
f 75/1/528 83/1/528 91/1/528
f 83/1/529 93/1/529 91/1/529
f 235/1/530 243/1/530 236/1/530
f 243/1/531 229/1/531 240/1/531
f 236/1/532 243/1/532 240/1/532
f 229/1/99 231/1/99 240/1/99
f 236/1/533 230/1/533 242/1/533
f 230/1/99 238/1/99 239/1/99
f 239/1/534 242/1/534 230/1/534
f 79/1/535 85/1/535 86/1/535
f 78/2/9 76/2/9 80/2/9
f 76/2/9 82/2/9 80/2/9
f 79/2/20 81/2/20 87/2/20
f 81/2/20 75/2/20 87/2/20
f 78/1/536 92/1/536 76/1/536
f 92/1/537 93/1/537 83/1/537
f 82/1/538 86/1/538 89/1/538
f 86/1/539 85/1/539 89/1/539
f 105/3/540 107/3/540 106/3/540
f 98/3/54 119/3/54 116/3/54
f 119/3/541 120/3/541 116/3/541
f 116/3/54 114/3/54 98/3/54
f 105/3/542 102/3/542 109/3/542
f 107/3/543 101/3/543 99/3/543
f 100/3/544 108/3/544 109/3/544
f 94/3/545 96/3/545 103/3/545
f 134/4/546 146/4/546 144/4/546
f 144/4/547 123/4/547 133/4/547
f 133/4/19 124/4/19 130/4/19
f 130/4/19 136/4/19 134/4/19
f 134/4/548 144/4/548 133/4/548
f 97/3/549 95/3/549 104/3/549
f 110/4/550 97/4/550 103/4/550
f 102/4/8 106/4/8 99/4/8
f 99/4/551 111/4/551 102/4/551
f 113/3/552 111/3/552 101/3/552
f 111/3/552 99/3/552 101/3/552
f 101/3/553 95/3/553 113/3/553
f 95/3/552 97/3/552 110/3/552
f 127/3/554 148/3/554 145/3/554
f 148/3/555 149/3/555 145/3/555
f 145/3/556 143/3/556 127/3/556
f 120/3/557 96/3/557 94/3/557
f 94/3/558 115/3/558 120/3/558
f 108/4/559 100/4/559 117/4/559
f 100/4/560 114/4/560 117/4/560
f 131/4/561 141/4/561 138/4/561
f 141/4/562 132/4/562 150/4/562
f 138/4/563 141/4/563 127/4/563
f 132/4/564 125/4/564 147/4/564
f 132/4/565 147/4/565 151/4/565
f 148/4/566 127/4/566 141/4/566
f 132/4/567 151/4/567 150/4/567
f 102/4/568 112/4/568 109/4/568
f 112/4/569 103/4/569 121/4/569
f 109/4/570 112/4/570 98/4/570
f 103/4/571 96/4/571 118/4/571
f 103/4/572 118/4/572 122/4/572
f 119/4/573 98/4/573 112/4/573
f 103/4/574 122/4/574 121/4/574
f 134/3/575 136/3/575 135/3/575
f 134/3/576 131/3/576 138/3/576
f 136/3/577 130/3/577 128/3/577
f 129/3/578 137/3/578 138/3/578
f 123/3/579 125/3/579 132/3/579
f 126/3/580 124/3/580 133/3/580
f 139/4/581 126/4/581 132/4/581
f 131/4/8 135/4/8 128/4/8
f 128/4/582 140/4/582 131/4/582
f 453/3/583 457/3/583 456/3/583
f 435/3/88 437/3/88 451/3/88
f 453/3/88 456/3/88 435/3/88
f 149/3/584 125/3/584 123/3/584
f 123/3/585 144/3/585 149/3/585
f 137/4/586 129/4/586 146/4/586
f 129/4/587 143/4/587 146/4/587
f 627/5/588 657/5/588 658/5/588
f 657/5/589 589/5/589 566/5/589
f 658/5/590 657/5/590 566/5/590
f 154/1/591 152/1/591 166/1/591
f 152/1/592 160/1/592 166/1/592
f 156/1/593 154/1/593 166/1/593
f 166/1/594 161/1/594 162/1/594
f 156/1/595 162/1/595 163/1/595
f 163/1/596 160/1/596 152/1/596
f 155/2/99 153/2/99 157/2/99
f 153/2/99 159/2/99 157/2/99
f 152/2/100 154/2/100 156/2/100
f 155/1/597 167/1/597 153/1/597
f 167/1/598 168/1/598 160/1/598
f 164/1/599 162/1/599 167/1/599
f 162/1/600 161/1/600 167/1/600
f 167/1/601 155/1/601 164/1/601
f 159/1/602 163/1/602 164/1/602
f 163/1/603 162/1/603 164/1/603
f 160/1/604 163/1/604 159/1/604
f 171/1/102 169/1/102 182/1/102
f 169/1/605 177/1/605 185/1/605
f 177/1/606 187/1/606 185/1/606
f 173/1/19 181/1/19 182/1/19
f 182/1/607 185/1/607 173/1/607
f 185/1/608 178/1/608 179/1/608
f 173/1/609 179/1/609 180/1/609
f 180/1/610 177/1/610 169/1/610
f 172/2/99 170/2/99 174/2/99
f 170/2/99 176/2/99 174/2/99
f 173/2/100 175/2/100 181/2/100
f 175/2/100 169/2/100 181/2/100
f 172/1/611 186/1/611 170/1/611
f 186/1/612 187/1/612 177/1/612
f 183/1/613 179/1/613 186/1/613
f 179/1/614 178/1/614 186/1/614
f 186/1/615 172/1/615 183/1/615
f 176/1/616 180/1/616 183/1/616
f 180/1/617 179/1/617 183/1/617
f 177/1/618 180/1/618 176/1/618
f 190/1/102 188/1/102 201/1/102
f 188/1/619 196/1/619 204/1/619
f 196/1/620 206/1/620 204/1/620
f 192/1/621 200/1/621 204/1/621
f 200/1/622 201/1/622 204/1/622
f 204/1/623 197/1/623 198/1/623
f 192/1/624 198/1/624 199/1/624
f 199/1/625 196/1/625 188/1/625
f 191/2/100 189/2/100 193/2/100
f 189/2/100 195/2/100 193/2/100
f 192/2/99 194/2/99 200/2/99
f 194/2/99 188/2/99 200/2/99
f 191/1/626 205/1/626 189/1/626
f 205/1/627 206/1/627 196/1/627
f 202/1/628 198/1/628 205/1/628
f 198/1/629 197/1/629 205/1/629
f 205/1/630 191/1/630 202/1/630
f 195/1/631 199/1/631 202/1/631
f 199/1/632 198/1/632 202/1/632
f 196/1/633 199/1/633 195/1/633
f 209/1/19 207/1/19 220/1/19
f 207/1/634 215/1/634 223/1/634
f 215/1/635 225/1/635 223/1/635
f 211/1/100 219/1/100 220/1/100
f 220/1/636 223/1/636 211/1/636
f 223/1/637 216/1/637 217/1/637
f 211/1/638 217/1/638 218/1/638
f 328/1/639 336/1/639 329/1/639
f 336/1/640 322/1/640 333/1/640
f 329/1/641 336/1/641 333/1/641
f 322/1/153 324/1/153 333/1/153
f 329/1/642 323/1/642 335/1/642
f 323/1/153 331/1/153 332/1/153
f 332/1/643 335/1/643 323/1/643
f 210/2/114 208/2/114 212/2/114
f 208/2/114 214/2/114 212/2/114
f 211/2/102 213/2/102 219/2/102
f 213/2/102 207/2/102 219/2/102
f 210/1/644 224/1/644 208/1/644
f 224/1/645 225/1/645 215/1/645
f 221/1/646 217/1/646 224/1/646
f 217/1/647 216/1/647 224/1/647
f 224/1/648 210/1/648 221/1/648
f 214/1/649 218/1/649 221/1/649
f 218/1/650 217/1/650 221/1/650
f 228/1/19 226/1/19 239/1/19
f 226/1/651 234/1/651 242/1/651
f 234/1/652 244/1/652 242/1/652
f 441/4/653 431/4/653 452/4/653
f 452/4/654 454/4/654 442/4/654
f 442/4/19 444/4/19 438/4/19
f 438/4/655 432/4/655 452/4/655
f 432/4/656 441/4/656 452/4/656
f 230/1/657 236/1/657 237/1/657
f 330/1/658 326/1/658 327/1/658
f 326/1/659 320/1/659 327/1/659
f 327/1/660 319/1/660 330/1/660
f 229/2/102 227/2/102 231/2/102
f 227/2/102 233/2/102 231/2/102
f 230/2/114 232/2/114 238/2/114
f 232/2/114 226/2/114 238/2/114
f 229/1/661 243/1/661 227/1/661
f 243/1/662 244/1/662 234/1/662
f 233/1/663 237/1/663 240/1/663
f 237/1/664 236/1/664 240/1/664
f 247/1/665 245/1/665 259/1/665
f 245/1/666 253/1/666 259/1/666
f 249/1/667 247/1/667 259/1/667
f 259/1/668 254/1/668 255/1/668
f 249/1/669 255/1/669 256/1/669
f 256/1/670 253/1/670 245/1/670
f 248/2/153 246/2/153 250/2/153
f 246/2/153 252/2/153 250/2/153
f 251/2/154 245/2/154 247/2/154
f 248/1/671 260/1/671 246/1/671
f 260/1/672 261/1/672 253/1/672
f 257/1/673 255/1/673 260/1/673
f 255/1/674 254/1/674 260/1/674
f 260/1/675 248/1/675 257/1/675
f 252/1/676 256/1/676 257/1/676
f 256/1/677 255/1/677 257/1/677
f 253/1/678 256/1/678 252/1/678
f 264/1/156 262/1/156 275/1/156
f 262/1/679 270/1/679 278/1/679
f 270/1/680 280/1/680 278/1/680
f 266/1/19 274/1/19 275/1/19
f 275/1/681 278/1/681 266/1/681
f 278/1/682 271/1/682 272/1/682
f 266/1/683 272/1/683 273/1/683
f 273/1/684 270/1/684 262/1/684
f 265/2/153 263/2/153 267/2/153
f 263/2/153 269/2/153 267/2/153
f 266/2/154 268/2/154 274/2/154
f 268/2/154 262/2/154 274/2/154
f 265/1/685 279/1/685 263/1/685
f 279/1/686 280/1/686 270/1/686
f 276/1/687 272/1/687 279/1/687
f 272/1/688 271/1/688 279/1/688
f 279/1/689 265/1/689 276/1/689
f 269/1/690 273/1/690 276/1/690
f 273/1/691 272/1/691 276/1/691
f 270/1/692 273/1/692 269/1/692
f 283/1/156 281/1/156 294/1/156
f 281/1/693 289/1/693 297/1/693
f 289/1/694 299/1/694 297/1/694
f 285/1/695 293/1/695 297/1/695
f 293/1/696 294/1/696 297/1/696
f 297/1/697 290/1/697 291/1/697
f 285/1/698 291/1/698 292/1/698
f 292/1/699 289/1/699 281/1/699
f 284/2/154 282/2/154 286/2/154
f 282/2/154 288/2/154 286/2/154
f 285/2/153 287/2/153 293/2/153
f 287/2/153 281/2/153 293/2/153
f 284/1/700 298/1/700 282/1/700
f 298/1/701 299/1/701 289/1/701
f 295/1/702 291/1/702 298/1/702
f 291/1/703 290/1/703 298/1/703
f 298/1/704 284/1/704 295/1/704
f 288/1/705 292/1/705 295/1/705
f 292/1/706 291/1/706 295/1/706
f 289/1/707 292/1/707 288/1/707
f 302/1/19 300/1/19 313/1/19
f 300/1/708 308/1/708 316/1/708
f 308/1/709 318/1/709 316/1/709
f 304/1/154 312/1/154 313/1/154
f 313/1/710 316/1/710 304/1/710
f 316/1/711 309/1/711 310/1/711
f 304/1/712 310/1/712 311/1/712
f 67/1/713 63/1/713 64/1/713
f 63/1/714 57/1/714 64/1/714
f 64/1/715 56/1/715 67/1/715
f 303/2/166 301/2/166 305/2/166
f 301/2/166 307/2/166 305/2/166
f 304/2/156 306/2/156 312/2/156
f 306/2/156 300/2/156 312/2/156
f 303/1/716 317/1/716 301/1/716
f 317/1/717 318/1/717 308/1/717
f 314/1/718 310/1/718 317/1/718
f 310/1/719 309/1/719 317/1/719
f 317/1/720 303/1/720 314/1/720
f 307/1/721 311/1/721 314/1/721
f 311/1/722 310/1/722 314/1/722
f 321/1/19 319/1/19 332/1/19
f 319/1/723 327/1/723 335/1/723
f 327/1/724 337/1/724 335/1/724
f 421/1/725 429/1/725 422/1/725
f 429/1/726 415/1/726 426/1/726
f 422/1/727 429/1/727 426/1/727
f 415/1/204 417/1/204 426/1/204
f 422/1/728 416/1/728 428/1/728
f 416/1/204 424/1/204 425/1/204
f 425/1/729 428/1/729 416/1/729
f 323/1/730 329/1/730 330/1/730
f 86/1/731 82/1/731 83/1/731
f 82/1/732 76/1/732 83/1/732
f 83/1/733 75/1/733 86/1/733
f 322/2/156 320/2/156 324/2/156
f 320/2/156 326/2/156 324/2/156
f 323/2/166 325/2/166 331/2/166
f 325/2/166 319/2/166 331/2/166
f 322/1/734 336/1/734 320/1/734
f 336/1/735 337/1/735 327/1/735
f 326/1/736 330/1/736 333/1/736
f 330/1/737 329/1/737 333/1/737
f 340/1/738 338/1/738 352/1/738
f 338/1/739 346/1/739 352/1/739
f 342/1/740 340/1/740 352/1/740
f 352/1/741 347/1/741 348/1/741
f 342/1/742 348/1/742 349/1/742
f 349/1/743 346/1/743 338/1/743
f 341/2/204 339/2/204 343/2/204
f 339/2/204 345/2/204 343/2/204
f 338/2/205 340/2/205 342/2/205
f 341/1/744 353/1/744 339/1/744
f 353/1/745 354/1/745 346/1/745
f 350/1/746 348/1/746 353/1/746
f 348/1/747 347/1/747 353/1/747
f 353/1/748 341/1/748 350/1/748
f 345/1/749 349/1/749 350/1/749
f 349/1/750 348/1/750 350/1/750
f 346/1/751 349/1/751 345/1/751
f 357/1/207 355/1/207 368/1/207
f 355/1/752 363/1/752 371/1/752
f 363/1/753 373/1/753 371/1/753
f 359/1/19 367/1/19 368/1/19
f 368/1/754 371/1/754 359/1/754
f 371/1/755 364/1/755 365/1/755
f 359/1/756 365/1/756 366/1/756
f 366/1/757 363/1/757 355/1/757
f 358/2/204 356/2/204 360/2/204
f 356/2/204 362/2/204 360/2/204
f 359/2/205 361/2/205 367/2/205
f 361/2/205 355/2/205 367/2/205
f 358/1/758 372/1/758 356/1/758
f 372/1/759 373/1/759 363/1/759
f 369/1/760 365/1/760 372/1/760
f 365/1/761 364/1/761 372/1/761
f 372/1/762 358/1/762 369/1/762
f 362/1/763 366/1/763 369/1/763
f 366/1/764 365/1/764 369/1/764
f 363/1/765 366/1/765 362/1/765
f 376/1/207 374/1/207 387/1/207
f 374/1/766 382/1/766 390/1/766
f 382/1/767 392/1/767 390/1/767
f 378/1/768 386/1/768 390/1/768
f 386/1/769 387/1/769 390/1/769
f 390/1/770 383/1/770 384/1/770
f 378/1/771 384/1/771 385/1/771
f 385/1/772 382/1/772 374/1/772
f 377/2/205 375/2/205 379/2/205
f 375/2/205 381/2/205 379/2/205
f 378/2/204 380/2/204 386/2/204
f 380/2/204 374/2/204 386/2/204
f 377/1/773 391/1/773 375/1/773
f 391/1/774 392/1/774 382/1/774
f 388/1/775 384/1/775 391/1/775
f 384/1/776 383/1/776 391/1/776
f 391/1/777 377/1/777 388/1/777
f 381/1/778 385/1/778 388/1/778
f 385/1/779 384/1/779 388/1/779
f 382/1/780 385/1/780 381/1/780
f 395/1/19 393/1/19 406/1/19
f 393/1/781 401/1/781 409/1/781
f 401/1/782 411/1/782 409/1/782
f 397/1/205 405/1/205 406/1/205
f 406/1/783 409/1/783 397/1/783
f 409/1/784 402/1/784 403/1/784
f 397/1/785 403/1/785 404/1/785
f 311/1/786 307/1/786 308/1/786
f 307/1/787 301/1/787 308/1/787
f 308/1/788 300/1/788 311/1/788
f 396/2/218 394/2/218 398/2/218
f 394/2/218 400/2/218 398/2/218
f 397/2/207 399/2/207 405/2/207
f 399/2/207 393/2/207 405/2/207
f 396/1/789 410/1/789 394/1/789
f 410/1/790 411/1/790 401/1/790
f 407/1/791 403/1/791 410/1/791
f 403/1/792 402/1/792 410/1/792
f 410/1/793 396/1/793 407/1/793
f 400/1/794 404/1/794 407/1/794
f 404/1/795 403/1/795 407/1/795
f 414/1/19 412/1/19 425/1/19
f 412/1/796 420/1/796 428/1/796
f 420/1/797 430/1/797 428/1/797
f 84/1/798 92/1/798 85/1/798
f 92/1/799 78/1/799 89/1/799
f 85/1/800 92/1/800 89/1/800
f 78/1/5 80/1/5 89/1/5
f 85/1/801 79/1/801 91/1/801
f 79/1/5 87/1/5 88/1/5
f 88/1/802 91/1/802 79/1/802
f 416/1/803 422/1/803 423/1/803
f 237/1/804 233/1/804 234/1/804
f 233/1/805 227/1/805 234/1/805
f 234/1/806 226/1/806 237/1/806
f 415/2/207 413/2/207 417/2/207
f 413/2/207 419/2/207 417/2/207
f 416/2/218 418/2/218 424/2/218
f 418/2/218 412/2/218 424/2/218
f 415/1/807 429/1/807 413/1/807
f 429/1/808 430/1/808 420/1/808
f 419/1/809 423/1/809 426/1/809
f 423/1/810 422/1/810 426/1/810
f 442/3/811 439/3/811 443/3/811
f 446/3/812 439/3/812 442/3/812
f 444/3/813 443/3/813 436/3/813
f 446/3/814 445/3/814 437/3/814
f 440/3/815 433/3/815 431/3/815
f 423/1/816 419/1/816 420/1/816
f 419/1/817 413/1/817 420/1/817
f 420/1/818 412/1/818 423/1/818
f 441/3/819 432/3/819 434/3/819
f 440/6/820 434/6/820 447/6/820
f 436/6/8 443/6/8 439/6/8
f 439/6/821 449/6/821 448/6/821
f 142/3/266 140/3/266 130/3/266
f 140/3/266 128/3/266 130/3/266
f 130/3/266 124/3/266 142/3/266
f 124/3/266 126/3/266 139/3/266
f 434/3/267 432/3/267 447/3/267
f 432/3/267 438/3/267 450/3/267
f 438/3/267 436/3/267 448/3/267
f 450/3/822 447/3/822 432/3/822
f 431/3/823 433/3/823 457/3/823
f 457/3/824 453/3/824 452/3/824
f 451/4/825 437/4/825 445/4/825
f 445/4/826 442/4/826 454/4/826
f 464/7/827 504/7/827 507/7/827
f 467/7/828 460/7/828 464/7/828
f 460/7/829 461/7/829 464/7/829
f 433/6/830 440/6/830 455/6/830
f 440/6/831 449/6/831 458/6/831
f 459/6/832 440/6/832 458/6/832
f 449/6/833 439/6/833 435/6/833
f 439/6/8 446/6/8 435/6/8
f 435/6/834 456/6/834 449/6/834
f 456/6/835 458/6/835 449/6/835
f 554/7/836 555/7/836 521/7/836
f 465/5/837 462/5/837 463/5/837
f 516/7/838 560/7/838 561/7/838
f 568/7/839 608/7/839 611/7/839
f 571/7/840 564/7/840 568/7/840
f 564/7/841 565/7/841 568/7/841
f 499/5/842 495/5/842 496/5/842
f 495/5/843 492/5/843 496/5/843
f 469/5/844 470/5/844 503/5/844
f 503/5/845 499/5/845 496/5/845
f 500/5/846 469/5/846 503/5/846
f 548/7/847 549/7/847 527/7/847
f 471/7/848 468/7/848 501/7/848
f 536/7/849 540/7/849 541/7/849
f 404/1/850 400/1/850 401/1/850
f 400/1/851 394/1/851 401/1/851
f 401/1/852 393/1/852 404/1/852
f 460/7/853 487/7/853 484/7/853
f 562/5/854 514/5/854 515/5/854
f 485/5/855 486/5/855 463/5/855
f 526/5/856 527/5/856 549/5/856
f 474/5/857 473/5/857 468/5/857
f 537/5/858 539/5/858 540/5/858
f 475/5/859 470/5/859 469/5/859
f 526/5/860 550/5/860 551/5/860
f 477/5/861 473/5/861 474/5/861
f 537/5/862 512/5/862 538/5/862
f 476/5/863 479/5/863 475/5/863
f 524/5/864 525/5/864 551/5/864
f 482/7/865 481/7/865 477/7/865
f 513/5/866 563/5/866 538/5/866
f 483/5/867 479/5/867 476/5/867
f 523/5/868 524/5/868 552/5/868
f 485/7/869 481/7/869 482/7/869
f 514/5/870 562/5/870 563/5/870
f 484/5/871 487/5/871 483/5/871
f 546/5/872 530/5/872 531/5/872
f 494/7/873 493/7/873 489/7/873
f 532/5/874 533/5/874 543/5/874
f 495/7/875 491/7/875 488/7/875
f 547/5/876 529/5/876 530/5/876
f 497/7/877 493/7/877 494/7/877
f 533/5/878 534/5/878 542/5/878
f 603/5/879 599/5/879 600/5/879
f 599/5/880 596/5/880 600/5/880
f 573/5/881 574/5/881 607/5/881
f 607/5/882 603/5/882 600/5/882
f 604/5/883 573/5/883 607/5/883
f 547/7/884 548/7/884 528/7/884
f 502/7/885 501/7/885 497/7/885
f 535/7/886 541/7/886 542/7/886
f 555/5/887 556/5/887 520/5/887
f 506/5/888 505/5/888 465/5/888
f 517/5/889 559/5/889 560/5/889
f 557/5/890 519/5/890 520/5/890
f 509/5/891 505/5/891 506/5/891
f 517/5/892 518/5/892 558/5/892
f 508/7/893 511/7/893 507/7/893
f 545/5/894 531/5/894 532/5/894
f 558/5/895 518/5/895 519/5/895
f 513/5/896 512/5/896 479/5/896
f 487/5/897 514/5/897 513/5/897
f 514/7/898 487/7/898 460/7/898
f 467/7/899 516/7/899 515/7/899
f 517/7/900 516/7/900 467/7/900
f 518/7/901 517/7/901 507/7/901
f 518/7/902 511/7/902 508/7/902
f 519/7/903 508/7/903 504/7/903
f 520/7/904 504/7/904 464/7/904
f 522/7/905 521/7/905 464/7/905
f 461/7/906 484/7/906 523/7/906
f 480/5/907 524/5/907 523/5/907
f 476/5/908 525/5/908 524/5/908
f 472/5/909 526/5/909 525/5/909
f 472/5/910 469/5/910 527/5/910
f 528/5/911 527/5/911 469/5/911
f 529/5/912 528/5/912 500/5/912
f 529/5/913 496/5/913 492/5/913
f 530/7/914 492/7/914 488/7/914
f 532/7/915 531/7/915 488/7/915
f 533/7/916 532/7/916 491/7/916
f 534/5/917 533/5/917 495/5/917
f 503/5/918 535/5/918 534/5/918
f 470/5/919 536/5/919 535/5/919
f 475/5/920 537/5/920 536/5/920
f 512/5/921 537/5/921 475/5/921
f 538/5/922 478/5/922 474/5/922
f 540/5/923 539/5/923 474/5/923
f 540/7/924 471/7/924 502/7/924
f 541/7/925 502/7/925 498/7/925
f 543/7/926 542/7/926 498/7/926
f 544/7/927 543/7/927 494/7/927
f 545/7/928 544/7/928 490/7/928
f 493/7/929 546/7/929 545/7/929
f 497/7/930 547/7/930 546/7/930
f 548/7/931 547/7/931 497/7/931
f 468/7/932 549/7/932 548/7/932
f 549/5/933 468/5/933 473/5/933
f 550/5/934 473/5/934 477/5/934
f 552/7/935 551/7/935 477/7/935
f 553/7/936 552/7/936 481/7/936
f 555/5/937 554/5/937 462/5/937
f 556/5/938 555/5/938 465/5/938
f 509/5/939 557/5/939 556/5/939
f 510/5/940 558/5/940 557/5/940
f 559/5/941 558/5/941 510/5/941
f 559/5/942 506/5/942 466/5/942
f 561/5/943 560/5/943 466/5/943
f 463/5/944 486/5/944 562/5/944
f 562/7/945 486/7/945 482/7/945
f 563/7/946 482/7/946 478/7/946
f 658/7/947 659/7/947 625/7/947
f 569/5/948 566/5/948 567/5/948
f 620/7/949 664/7/949 665/7/949
f 105/4/950 117/4/950 115/4/950
f 115/4/951 94/4/951 104/4/951
f 104/4/19 95/4/19 101/4/19
f 101/4/19 107/4/19 105/4/19
f 105/4/952 115/4/952 104/4/952
f 652/7/953 653/7/953 631/7/953
f 575/7/954 572/7/954 605/7/954
f 640/7/955 644/7/955 645/7/955
f 523/5/956 553/5/956 554/5/956
f 553/5/957 485/5/957 462/5/957
f 554/5/958 553/5/958 462/5/958
f 564/7/959 591/7/959 588/7/959
f 666/5/960 618/5/960 619/5/960
f 589/5/961 590/5/961 567/5/961
f 630/5/962 631/5/962 653/5/962
f 578/5/963 577/5/963 572/5/963
f 641/5/964 643/5/964 644/5/964
f 579/5/965 574/5/965 573/5/965
f 630/5/966 654/5/966 655/5/966
f 581/5/967 577/5/967 578/5/967
f 641/5/968 616/5/968 642/5/968
f 580/5/969 583/5/969 579/5/969
f 628/5/970 629/5/970 655/5/970
f 586/7/971 585/7/971 581/7/971
f 617/5/972 667/5/972 642/5/972
f 587/5/973 583/5/973 580/5/973
f 627/5/974 628/5/974 656/5/974
f 589/7/975 585/7/975 586/7/975
f 618/5/976 666/5/976 667/5/976
f 588/5/977 591/5/977 587/5/977
f 650/5/978 634/5/978 635/5/978
f 598/7/979 597/7/979 593/7/979
f 636/5/980 637/5/980 647/5/980
f 599/7/981 595/7/981 592/7/981
f 651/5/982 633/5/982 634/5/982
f 601/7/983 597/7/983 598/7/983
f 637/5/984 638/5/984 646/5/984
f 651/7/985 652/7/985 632/7/985
f 606/7/986 605/7/986 601/7/986
f 639/7/987 645/7/987 646/7/987
f 659/5/988 660/5/988 624/5/988
f 610/5/989 609/5/989 569/5/989
f 621/5/990 663/5/990 664/5/990
f 661/5/991 623/5/991 624/5/991
f 613/5/992 609/5/992 610/5/992
f 621/5/993 622/5/993 662/5/993
f 612/7/994 615/7/994 611/7/994
f 649/5/995 635/5/995 636/5/995
f 662/5/996 622/5/996 623/5/996
f 617/5/997 616/5/997 583/5/997
f 591/5/998 618/5/998 617/5/998
f 618/7/999 591/7/999 564/7/999
f 571/7/1000 620/7/1000 619/7/1000
f 621/7/1001 620/7/1001 571/7/1001
f 622/7/1002 621/7/1002 611/7/1002
f 622/7/1003 615/7/1003 612/7/1003
f 623/7/1004 612/7/1004 608/7/1004
f 624/7/1005 608/7/1005 568/7/1005
f 626/7/1006 625/7/1006 568/7/1006
f 565/7/1007 588/7/1007 627/7/1007
f 584/5/1008 628/5/1008 627/5/1008
f 580/5/1009 629/5/1009 628/5/1009
f 576/5/1010 630/5/1010 629/5/1010
f 576/5/1011 573/5/1011 631/5/1011
f 632/5/1012 631/5/1012 573/5/1012
f 633/5/1013 632/5/1013 604/5/1013
f 633/5/1014 600/5/1014 596/5/1014
f 634/7/1015 596/7/1015 592/7/1015
f 636/7/1016 635/7/1016 592/7/1016
f 637/7/1017 636/7/1017 595/7/1017
f 638/5/1018 637/5/1018 599/5/1018
f 607/5/1019 639/5/1019 638/5/1019
f 574/5/1020 640/5/1020 639/5/1020
f 579/5/1021 641/5/1021 640/5/1021
f 616/5/1022 641/5/1022 579/5/1022
f 642/5/1023 582/5/1023 578/5/1023
f 644/5/1024 643/5/1024 578/5/1024
f 644/7/1025 575/7/1025 606/7/1025
f 645/7/1026 606/7/1026 602/7/1026
f 647/7/1027 646/7/1027 602/7/1027
f 648/7/1028 647/7/1028 598/7/1028
f 649/7/1029 648/7/1029 594/7/1029
f 597/7/1030 650/7/1030 649/7/1030
f 601/7/1031 651/7/1031 650/7/1031
f 652/7/1032 651/7/1032 601/7/1032
f 572/7/1033 653/7/1033 652/7/1033
f 653/5/1034 572/5/1034 577/5/1034
f 654/5/1035 577/5/1035 581/5/1035
f 656/7/1036 655/7/1036 581/7/1036
f 657/7/1037 656/7/1037 585/7/1037
f 659/5/1038 658/5/1038 566/5/1038
f 660/5/1039 659/5/1039 569/5/1039
f 613/5/1040 661/5/1040 660/5/1040
f 614/5/1041 662/5/1041 661/5/1041
f 663/5/1042 662/5/1042 614/5/1042
f 663/5/1043 610/5/1043 570/5/1043
f 665/5/1044 664/5/1044 570/5/1044
f 567/5/1045 590/5/1045 666/5/1045
f 666/7/1046 590/7/1046 586/7/1046
f 667/7/1047 586/7/1047 582/7/1047
