# Blender 5.2.2 LTS
# www.blender.org
mtllib ruins_cv_wall_a.mtl
o piece
v 0.640669 0.686372 0.172652
v 0.875977 0.806404 0.239414
v 2.236682 -0.270173 -0.005219
v -0.267153 2.393352 -0.228580
v 0.454930 1.155995 0.359018
v 0.745217 1.442982 0.099310
v 0.830940 1.785530 -0.093948
v -0.950275 2.259367 -0.116728
v -0.588953 -2.301038 -0.603862
v -0.397103 1.337385 0.331048
v 1.092149 0.844928 0.288906
v 2.355391 -0.815785 -0.604601
v -2.110138 -1.454750 -0.603058
v -1.140897 -2.244524 -0.603561
v 1.520423 -0.786047 -0.060691
v 2.084591 0.444165 -0.603506
v -1.493414 1.631962 -0.603752
v -1.286972 1.022952 0.096032
v 0.434041 -2.074531 0.036141
v 1.429302 -0.176192 0.265128
v -1.474232 -0.055231 0.439513
v 0.014413 0.908904 0.560438
v -1.294010 0.231457 0.479842
v 0.055093 -2.329293 -0.187932
v 1.995735 -0.267684 -0.006065
v 0.843045 1.257332 0.025368
v -1.802652 -1.869647 -0.245876
v -2.402883 -0.147713 -0.603800
v -2.491776 -0.435142 -0.603735
v 1.336577 -1.091338 -0.016898
v -1.024963 -1.016227 0.200884
v 0.823104 -0.744193 0.096941
v -0.609570 1.198341 0.263334
v 1.696623 0.543492 0.113521
v 1.631445 -1.449981 -0.603130
v -1.046504 2.056945 -0.603802
v -0.085403 -0.600749 0.170595
v -1.613720 -2.042073 -0.267884
v -0.729429 -0.821708 0.381516
v -0.581816 2.322641 -0.603803
v 1.486553 -1.627928 -0.603794
v -1.032636 0.763117 0.416131
v -0.813368 2.282303 -0.603802
v -0.597234 0.532995 0.437106
v -0.183078 0.796428 0.393181
v -1.987213 0.740347 -0.604559
v -1.172390 -2.166107 -0.208739
v 0.981761 -0.699010 0.001132
v -1.366865 1.730935 -0.603772
v -0.706512 0.280116 0.533071
v -0.847708 1.277062 0.258803
v -1.537108 1.328125 -0.007030
v 2.322382 -0.684590 -0.603803
v -1.480072 -1.412381 0.076197
v -1.451872 0.644670 0.336145
v 0.005134 0.112196 0.459419
v -1.996311 -0.135469 0.192148
v -1.963273 0.581220 -0.603803
v 0.345369 -0.628275 0.099667
v 0.908641 -0.980165 -0.027850
v -2.421250 -0.019558 -0.604138
v -0.216242 -0.913733 0.016728
v -1.409502 1.707698 0.169421
v -0.198947 -0.415397 0.259495
v -1.100574 -1.068956 0.131648
v 0.883299 -0.095357 0.410643
v 0.418392 -1.656912 0.260481
v -1.050307 -1.676420 0.057271
v 0.710231 -2.127217 -0.604893
v -0.219557 -1.715567 0.034636
v -1.841457 0.589332 0.227710
v 2.318501 0.272913 -0.603777
v -1.803998 -1.475163 0.029562
v -1.819567 0.042742 0.310938
v -0.462023 -0.087707 0.286254
v 0.544906 -2.276948 -0.081894
v 1.164225 -0.769302 -0.045879
v -1.766377 1.218434 -0.116148
v -1.885015 -0.346171 0.215750
v -0.266281 0.032852 0.424683
v -1.307596 -0.922569 0.266251
v 0.824928 0.389179 0.315475
v 1.855404 -1.158846 -0.608202
v -1.590506 -1.489538 0.020666
v 0.844817 1.472485 -0.034168
v -1.958021 -0.202573 0.242433
v -1.293476 1.285352 0.240382
v 1.522335 0.476302 0.129045
v -1.572305 1.008355 -0.030421
v -0.829340 -0.320342 0.332280
v -1.793536 0.771463 0.060412
v 1.688253 0.739184 -0.015954
v 1.029176 -0.873659 0.007039
v 2.407699 -0.505918 -0.141537
v -1.365175 -0.160959 0.499020
v 0.157200 -2.363975 -0.605953
v -1.122123 -0.774054 0.260003
v -0.874746 -1.824517 0.018212
v 0.566253 -0.836020 0.059958
v 1.323954 -1.294944 -0.017922
v -1.471014 -1.861287 -0.142743
v 1.192569 -0.071759 0.294025
v -0.531395 -0.391379 0.203928
v -0.520084 0.688732 0.302510
v 0.997116 1.760835 -0.101879
v 0.568487 1.080240 0.322077
v 1.023878 -0.656620 0.062136
v -1.164425 0.261559 0.587161
v 0.578334 0.758980 0.378543
v -1.047230 -0.508477 0.270064
v -1.738249 -1.345522 0.135501
v 0.274199 2.451555 -0.315136
v 1.073208 -1.484576 0.108414
v -1.429819 1.225296 0.005282
v -1.367063 -0.569878 0.299543
v -0.052178 -0.721415 0.055652
v -1.143630 1.108174 0.227915
v 0.940878 1.669545 -0.603915
v -1.367110 1.554636 0.288944
v 0.008075 -2.001893 -0.070328
v 0.955081 1.511405 0.058955
v -2.004503 -0.788691 0.292683
v -0.931293 -2.289576 -0.605415
v -1.231991 -0.639867 0.253474
v -1.196829 0.695200 0.458874
v 0.141563 -1.223746 -0.015406
v 0.159474 -1.985820 0.000305
v -1.518107 1.426596 0.119399
v -0.909696 -0.177687 0.360909
v -1.864516 -1.728190 -0.602574
v -1.508175 -1.438558 0.096591
v -1.543238 -0.903064 0.186351
v -0.133738 -0.833631 0.087452
v 0.218575 0.730720 0.511161
v 0.079445 2.000020 -0.027471
v 0.478494 2.113839 -0.137830
v -0.672118 1.489215 0.146796
v -1.081918 1.320777 0.340844
v 1.627073 1.243716 -0.115750
v 0.194709 -0.645682 0.134902
v -1.450615 0.053219 0.480496
v -2.332864 0.236176 -0.603391
v 1.059432 0.064413 0.411860
v -1.090889 1.246821 0.241722
v 0.593810 1.674095 0.048379
v 0.317074 -0.438525 0.346141
v 0.368627 0.268795 0.369091
v 0.020819 -1.400642 0.026816
v -0.299172 -1.353007 0.094180
v 1.451903 -1.500844 -0.256015
v 0.593959 -2.130827 -0.044231
v 0.096227 -1.716611 0.154042
v -0.548967 -1.246050 0.208447
v 0.976166 1.229483 -0.017296
v 2.330313 -0.771507 -0.095427
v 2.141189 -1.067693 -0.176182
v 1.486678 1.412525 -0.192538
v 1.174811 -1.065344 -0.048764
v -1.817276 1.031113 -0.604498
v 1.642005 -1.145095 -0.012161
v 0.748587 -0.322383 0.363281
v -0.340173 0.555026 0.372499
v -2.246626 -1.275538 -0.007704
v -0.564752 0.990829 0.423235
v -0.404418 2.203571 -0.195999
v 1.856361 -0.640844 0.035654
v 1.989824 -0.196919 0.152007
v 0.682947 -1.873167 0.184697
v -2.321520 -0.458687 0.167145
v -1.986879 0.718721 -0.082298
v 0.232948 1.236242 0.461144
v 0.949831 0.220031 0.451973
v -1.867151 -1.497228 -0.047779
v -2.007045 -0.602043 0.259624
v 0.658130 0.866523 0.238419
v 1.377610 -1.685506 -0.320320
v 1.042211 -0.762075 0.058388
v 0.822561 -0.315871 0.414220
v 2.289509 -0.589829 -0.027542
v -1.289315 0.985097 0.194921
v 0.669958 1.129399 0.303116
v 0.311218 -1.899523 0.098591
v -0.416027 -2.418676 -0.603803
v -2.051143 -1.229504 0.174965
v -1.141185 -1.535490 0.055579
v -2.490643 -0.408422 0.128734
v 1.922604 0.764256 -0.067943
v -1.909574 -0.605139 0.183125
v -0.533274 -0.923135 0.289858
v 0.405596 2.194612 -0.607805
v -0.937461 -0.647243 0.398209
v -1.866746 0.650594 0.035695
v -0.327945 -0.361582 0.379467
v -0.571179 2.225862 -0.112014
v -0.421736 -0.767687 0.242238
v 1.626206 0.009921 0.341249
v -0.621111 0.253048 0.535366
v 0.701309 0.093361 0.480532
v 0.456272 2.254315 -0.222580
v 0.232019 2.152029 -0.078791
v -1.223593 -0.558373 0.360633
v -0.722363 0.863888 0.357438
v -0.053015 -2.069036 -0.079250
v -1.328115 -0.742099 0.307730
v 2.158070 0.405736 -0.066720
v -0.179788 -1.051287 0.056649
v -2.448974 -0.804182 0.109973
v 2.033880 -0.648789 -0.057607
v -2.233169 -0.544464 0.239405
v 0.508915 -0.039181 0.548005
v 1.734149 -0.738786 -0.121467
v 0.820520 -1.384668 0.238673
v -1.838242 -0.525091 0.177843
v 1.928461 -0.314245 0.052396
v 1.866590 -0.974090 0.009058
v -1.857210 1.217564 -0.269483
v 2.491776 -0.385756 -0.084564
v -0.059674 -0.039141 0.456965
v -1.527928 -1.988736 -0.196934
v -2.125244 0.408229 -0.005490
v -0.607147 -0.107659 0.292109
v -2.480200 -0.203337 0.113973
v -1.094768 -1.296747 0.146623
v -0.904488 0.616292 0.513916
v 0.844137 -1.700065 0.214104
v 1.518165 1.292870 -0.604094
v -0.138917 -2.482777 -0.174547
v -1.320222 0.641267 0.379828
v 2.437717 -0.266471 -0.602806
v -2.385095 -1.014746 -0.603887
v -2.238783 -0.210799 0.197783
v 0.871105 -1.459651 0.176080
v -0.697827 0.549454 0.515702
v -0.101690 0.108360 0.398668
v -0.359856 0.380468 0.509520
v -1.239756 -1.994557 -0.012667
v -0.619916 2.304800 -0.215032
v 0.826592 -0.161242 0.452396
v -0.440594 2.294031 -0.100157
v -1.768597 1.414833 -0.605399
v 1.619872 -1.436388 -0.276032
v 0.313557 0.016104 0.440355
v 0.569003 -0.228334 0.410590
v 1.881273 0.719124 -0.603188
v 1.266229 -0.553189 0.038142
v -0.977973 -0.757652 0.379000
v -0.505516 1.850290 0.008505
v 0.580290 1.950603 -0.039396
v -0.420052 -2.148702 -0.098402
v 0.710827 -1.065792 0.084873
v 1.117994 1.242129 -0.040962
v -1.643517 0.765576 0.137431
v 0.435678 0.646719 0.286939
v -1.555133 -1.154789 0.209914
v -0.665060 -1.901202 0.038240
v 0.617411 -1.166315 0.236685
v -0.279464 1.799047 0.064700
v -0.219802 0.951430 0.452479
v 0.015043 -0.889686 0.133804
v -0.877469 -1.431410 0.181969
v 0.403011 0.179728 0.451087
v 1.217599 1.614606 -0.133585
v 1.310516 1.407932 0.006704
v 0.784454 -1.804482 0.156452
v 1.192576 -1.133851 0.004602
v -0.138120 1.976476 0.025661
v 0.865774 0.509968 0.320896
v -2.120875 -1.472224 -0.052626
v -2.393797 -0.600429 0.204432
v -0.061615 1.151351 0.496648
v 0.951859 0.678542 0.346284
v -1.690358 0.288463 0.437030
v -1.411953 1.500107 0.177692
v 0.745018 1.062508 0.210748
v -0.261023 2.482777 -0.378975
v -2.214858 -1.361456 0.075118
v -2.260973 -0.598464 0.186285
v 0.587252 2.072019 -0.604680
v 0.846459 1.149589 0.124545
v -0.809679 -0.901945 0.332608
v 1.503131 -0.422864 0.079715
v -1.467893 1.040862 0.080596
v 1.736267 -0.266892 0.121405
v 0.847262 -0.482550 0.266766
v 0.811217 -1.054381 0.147197
v -0.827446 0.318305 0.555814
v 0.217610 -0.310206 0.340354
v -0.374184 2.438909 -0.157840
v -1.029907 1.547371 0.225643
v 1.265249 -0.372641 0.222824
v 2.413719 -0.052262 -0.011952
v -2.163375 -0.858890 0.284338
v -0.740794 1.018182 0.331421
v 0.846056 -2.018938 0.021074
v 1.200240 -0.463039 0.172225
v -1.939808 -1.118917 0.263783
v 0.273052 0.594436 0.511307
v -2.152921 -0.086044 0.251058
v -0.999234 1.392010 0.297507
v -1.018895 1.830787 0.279854
v 2.038041 -0.865335 -0.034068
v 1.835234 0.009942 0.210587
v 1.670808 -0.827772 -0.111853
v -1.546352 1.166706 -0.021033
v -2.441395 -0.706472 -0.603800
v -1.186035 -0.870619 0.205012
v -2.420447 -0.402905 0.220099
v 0.076543 -2.170143 -0.028296
v -0.149573 -1.576034 0.097970
v 1.499015 0.868580 0.179101
v 0.787085 1.753555 -0.116012
v -1.763011 1.078481 -0.184024
v 1.399107 1.020394 0.134990
v 0.123017 2.267207 -0.076040
v 1.654474 -0.353087 0.063829
v -1.459918 -1.055668 0.242380
v -1.969033 0.309869 0.302937
v 1.454996 -0.898625 -0.024308
v 2.263759 -0.156119 0.060342
v 1.897357 0.583237 0.096717
v 2.165752 -0.323916 0.066249
v -0.418872 0.871447 0.372594
v -0.256377 -1.254307 0.133385
v -0.138532 2.380624 -0.603883
v -1.686952 0.857658 -0.015919
v 0.228892 -1.629094 0.252824
v -2.290625 -0.199386 0.133722
v -0.670045 1.669539 0.179550
v 0.592035 -1.599620 0.330785
v -1.663646 -1.850121 -0.145438
v 0.292681 1.091305 0.513144
v 1.809542 -0.104087 0.172575
v 0.640542 2.066918 -0.242865
v 0.687318 0.230489 0.393244
v 0.313346 -1.311096 0.259596
v -1.142646 -0.355113 0.315961
v 0.628333 -1.384010 0.211271
v -1.389730 -2.065915 -0.604030
v -1.546578 -1.714263 -0.027887
v 1.978814 0.412444 0.100367
v -1.746185 0.138343 0.422389
v -0.014318 0.716237 0.528190
v -1.543358 -1.340546 0.076030
v -0.992528 -1.323345 0.241247
v 1.287927 0.060279 0.444709
v -1.339734 1.844604 0.206741
v -1.210905 -1.102992 0.254415
v 1.685650 -1.215857 -0.212055
v 0.455500 -0.773664 0.037232
v -0.857933 0.792706 0.448085
v 0.107115 -0.481873 0.299783
v 1.209241 0.461705 0.389505
v 0.345216 -0.077169 0.342940
v -0.425383 1.987990 -0.109591
v -0.560166 2.431714 -0.214653
v 0.847473 -1.216100 0.218493
v 0.915297 1.812270 -0.188615
v -0.965630 1.691164 0.209516
v 1.841445 -1.165226 -0.198545
v -0.472753 1.114600 0.456921
v 1.602696 0.711338 0.197640
v -0.386473 0.010869 0.460716
v -0.376037 -0.543088 0.293468
v 1.662893 0.386239 0.218851
v -0.483127 -1.869838 0.011501
v 0.795657 0.764126 0.297295
v 0.001135 0.309754 0.526972
v -0.521714 -2.279299 -0.174713
v -2.243606 0.314569 0.036831
v 0.998684 -0.327769 0.288251
v 1.036444 -1.002686 0.036545
v -0.430790 -2.457306 -0.237666
v 0.713601 -2.143256 0.009235
v 2.329233 0.232793 0.073856
v -1.722481 -1.776363 -0.148398
v -0.113927 -1.950269 0.030624
v -0.813247 -1.772806 0.110631
v 0.664903 -0.665678 0.195399
v 0.594214 1.381561 0.244306
v 1.228308 -1.421364 -0.086692
v -0.019799 -2.429369 -0.603555
v 1.249749 1.427413 0.115084
v -2.441944 -0.931985 0.142922
v 0.833878 2.003192 -0.206620
v 2.055255 0.030643 0.146999
v -1.259234 -2.219133 -0.239354
v -1.621548 -1.975034 -0.603800
v -2.057490 -1.432458 0.076619
v -0.575632 1.581909 0.076826
v 0.185301 -0.207339 0.287464
v -0.222095 1.425176 0.318909
v 2.223065 -0.545594 0.020702
v 1.285632 -1.180231 -0.067250
v -2.041628 0.462774 0.098116
v 0.941195 1.740305 0.022910
v -1.396998 0.305207 0.446437
v 0.732533 2.008384 -0.171471
v -1.011362 0.134054 0.596379
v -1.572318 1.447535 0.002854
v -2.140998 0.195676 0.168691
v 1.316507 -0.693910 0.039027
v 1.186883 1.090514 -0.012792
v 1.268658 1.246685 0.052567
v 0.256498 0.280434 0.455086
v 1.850912 0.740070 0.018039
v -0.545470 0.065120 0.531132
v 0.429190 -1.241659 0.236511
v -1.248259 1.798324 0.343048
v -0.013379 0.556044 0.544000
v -0.364119 -0.840377 0.220705
v 1.402769 -1.407251 -0.088650
v -1.505432 1.631589 0.152741
v -0.166826 2.378957 -0.145632
v -0.932402 -2.319994 -0.128611
v -0.965650 -0.431625 0.299176
v -1.882991 -1.715440 -0.101567
v 0.162039 -1.696189 0.135864
v 2.447740 -0.288741 -0.083014
v 0.442654 0.462858 0.299711
v 0.389175 -2.208259 0.009844
v -1.696912 1.491350 -0.139324
v 2.116408 0.565534 0.023355
v 1.888407 -0.719930 -0.057975
v 1.993688 -1.010936 -0.003654
v 0.683791 -0.859136 0.159215
v -1.133495 1.400085 0.298684
v -0.152600 0.197294 0.539917
v -0.916987 1.098520 0.255016
v -0.309085 -1.655434 0.132950
v 0.543830 0.336363 0.306836
v 0.300404 -2.046809 0.008788
v -0.922280 0.426937 0.608202
v -1.827786 -0.265955 0.301739
v -0.673776 0.087985 0.530203
v -0.253204 -2.284054 -0.117660
v -0.633701 -2.314931 -0.106720
v -0.871786 -0.874454 0.231056
v -0.343935 -0.220711 -0.603803
vn 0.5198 0.3355 0.7856
vn 0.2876 -0.2652 0.9203
vn 0.0061 0.7963 0.6049
vn 0.3926 0.1509 0.9073
vn 0.1120 0.1425 0.9834
vn 0.3502 -0.0771 0.9335
vn -0.0906 -0.2303 0.9689
vn 0.2900 0.4316 0.8542
vn 0.5624 0.8045 -0.1909
vn -0.9025 0.4251 -0.0689
vn 0.0640 0.8065 0.5877
vn 0.0189 -0.9995 -0.0262
vn 0.3409 -0.0014 0.9401
vn 0.2510 -0.5397 0.8035
vn -0.3133 -0.5254 0.7911
vn 0.5172 0.2187 0.8274
vn -0.9826 -0.1824 -0.0354
vn -0.4611 0.4883 0.7409
vn 0.5265 0.3356 0.7812
vn 0.7335 0.0632 0.6767
vn -0.1625 0.5442 0.8231
vn -0.2317 -0.4671 0.8533
vn -0.2243 -0.6184 0.7532
vn -0.3514 -0.1797 0.9188
vn -0.4416 -0.4664 0.7665
vn 0.3201 -0.6501 0.6891
vn 0.6853 -0.7279 -0.0228
vn -0.0229 -0.3460 0.9380
vn -0.0604 -0.0761 0.9953
vn -0.1281 0.5205 0.8442
vn -0.0331 -0.9974 -0.0637
vn -0.2754 0.4619 0.8431
vn 0.2459 -0.6191 0.7458
vn 0.2942 -0.3381 0.8939
vn -0.2709 -0.4865 0.8306
vn -0.4555 0.8894 0.0370
vn 0.3887 0.3475 0.8533
vn 0.1959 0.1623 0.9671
vn 0.4018 -0.0773 0.9125
vn 0.0711 -0.6594 0.7484
vn 0.0116 -0.9938 0.1102
vn 0.0617 0.9316 0.3581
vn -0.1118 -0.4968 0.8606
vn -0.5356 -0.4095 0.7385
vn 0.5034 0.4680 0.7263
vn -0.1988 -0.0216 0.9798
vn 0.7763 -0.1213 0.6186
vn -0.1239 0.5283 0.8399
vn -0.4422 -0.4100 0.7978
vn 0.2590 -0.3768 0.8893
vn -0.4901 0.1961 0.8493
vn 0.6011 0.5823 0.5474
vn -0.5245 0.2983 0.7974
vn 0.8538 0.4904 0.1746
vn -0.6204 0.7842 -0.0106
vn -0.3874 0.9216 -0.0240
vn 0.5211 0.4409 0.7308
vn 0.1053 0.0642 0.9924
vn -0.6784 0.5617 0.4736
vn 0.0937 0.1536 0.9837
vn -0.6343 -0.0347 0.7723
vn 0.4717 0.1963 0.8596
vn -0.6277 0.5640 0.5366
vn 0.3423 0.2480 0.9063
vn -0.6076 0.3398 0.7179
vn -0.0274 -0.2115 0.9770
vn 0.5216 -0.6951 0.4948
vn 0.2535 0.2455 0.9357
vn -0.4259 -0.3073 0.8510
vn 0.0675 0.6877 0.7229
vn 0.1951 0.0211 0.9806
vn 0.4363 -0.2836 0.8539
vn 0.7246 -0.3602 0.5875
vn 0.3440 -0.9251 0.1608
vn -0.7325 0.3945 0.5548
vn 0.1302 0.1896 0.9732
vn 0.7837 0.0103 0.6210
vn 0.8697 -0.2756 0.4095
vn 0.1648 0.0526 0.9849
vn -0.4724 -0.5154 0.7150
vn -0.6113 0.1720 0.7725
vn -0.1476 0.3675 0.9182
vn -0.0496 -0.1535 0.9869
vn -0.7127 0.0667 0.6983
vn -0.9075 -0.0122 0.4199
vn -0.1219 0.3102 0.9428
vn 0.2913 0.4229 0.8581
vn -0.6570 0.7091 0.2559
vn -0.2335 -0.5230 0.8197
vn 0.0855 0.4945 0.8650
vn 0.5210 -0.0202 0.8533
vn 0.4597 -0.0674 0.8855
vn 0.6179 0.5323 0.5787
vn 0.6383 0.1315 0.7585
vn -0.7854 -0.3113 0.5350
vn -0.3762 0.7891 0.4856
vn -0.3934 -0.8445 0.3634
vn -0.1487 0.5721 0.8066
vn -0.7257 0.2212 0.6515
vn 0.0540 0.9473 0.3157
vn 0.3279 0.5695 0.7537
vn 0.0144 0.3429 0.9393
vn -0.9831 -0.1412 -0.1168
vn -0.1156 0.6669 0.7361
vn 0.6720 -0.0426 0.7394
vn -0.0456 0.9687 0.2442
vn 0.3297 -0.2811 0.9013
vn 0.0768 -0.2772 0.9577
vn 0.1737 0.7480 0.6405
vn -0.0334 -0.0206 0.9992
vn -0.1242 -0.8507 0.5108
vn 0.3036 -0.9528 0.0007
vn 0.0566 0.3923 0.9181
vn -0.1208 0.4967 0.8594
vn -0.4584 -0.1591 0.8744
vn -0.0270 0.9257 0.3774
vn 0.5493 0.8356 -0.0013
vn 0.1807 -0.2442 0.9527
vn -0.3468 0.7356 0.5820
vn 0.6801 0.2946 0.6713
vn -0.2619 -0.7790 0.5697
vn -0.6190 0.7847 -0.0336
vn -0.0192 0.3628 0.9317
vn -0.8948 -0.4459 -0.0216
vn -0.5312 0.0400 0.8463
vn -0.3919 0.3700 0.8423
vn -0.7181 -0.6951 -0.0361
vn -0.1265 0.9914 0.0331
vn 0.4841 -0.4761 0.7341
vn 0.0985 -0.6177 0.7802
vn 0.2937 -0.1064 0.9500
vn -0.3217 -0.7188 0.6163
vn -0.9889 -0.1488 -0.0055
vn 0.7331 0.0655 0.6770
vn 0.0663 0.1509 0.9863
vn 0.3086 -0.6907 0.6539
vn 0.6865 0.5248 0.5033
vn 0.2242 -0.3112 0.9235
vn -0.5120 0.4913 0.7046
vn 0.6815 -0.3862 0.6217
vn -0.0401 0.0500 0.9979
vn -0.2070 -0.6672 0.7156
vn -0.7233 0.3387 0.6017
vn -0.6473 -0.0582 0.7600
vn -0.9750 0.1233 -0.1848
vn -0.2029 -0.3914 0.8976
vn 0.5702 -0.6221 0.5365
vn 0.6578 -0.3871 0.6461
vn -0.7256 0.6872 0.0350
vn -0.0328 0.4908 0.8706
vn 0.4974 0.6182 0.6087
vn 0.1918 -0.3220 0.9271
vn 0.0281 -0.7905 0.6118
vn -0.1949 -0.7733 0.6034
vn 0.2556 0.2546 0.9326
vn -0.2641 -0.4219 0.8673
vn -0.6745 0.0313 0.7376
vn -0.0998 0.9625 0.2522
vn -0.1042 0.8509 0.5150
vn 0.0006 0.5370 0.8436
vn 0.3962 -0.5058 0.7663
vn 0.1640 -0.6190 0.7681
vn 0.4918 -0.3731 0.7867
vn -0.2990 0.2508 0.9207
vn -0.0348 -0.3778 0.9252
vn 0.4286 -0.5428 0.7223
vn -0.1441 -0.7840 0.6039
vn 0.0977 0.9251 -0.3669
vn -0.7155 0.4738 0.5135
vn -0.4072 -0.0558 0.9116
vn -0.0070 -0.7415 0.6709
vn -0.5980 0.5026 0.6244
vn -0.0307 -0.8141 0.5799
vn 0.1419 -0.3267 0.9344
vn -0.6279 -0.3149 0.7117
vn 0.7889 0.6037 -0.1152
vn 0.1410 0.6014 0.7864
vn 0.3460 -0.6305 0.6948
vn 0.3180 -0.2837 0.9047
vn 0.1211 -0.6283 0.7685
vn -0.0815 -0.1531 0.9848
vn 0.2799 -0.6464 0.7098
vn 0.5257 0.4301 0.7339
vn -0.3376 -0.3590 0.8701
vn 0.5104 0.3557 0.7829
vn -0.9945 -0.1050 0.0054
vn -0.6021 0.7956 0.0670
vn 0.2651 -0.8763 0.4022
vn 0.9535 -0.2978 0.0461
vn -0.4118 -0.1214 0.9031
vn 0.0723 0.0558 0.9958
vn 0.2270 0.1686 0.9592
vn -0.9523 0.2945 -0.0798
vn 0.7944 0.5876 -0.1541
vn -0.5797 -0.5251 0.6231
vn -0.5998 0.0879 0.7953
vn -0.0212 -0.2026 0.9790
vn 0.5906 0.8067 -0.0231
vn -0.9831 -0.1795 -0.0350
vn -0.2857 -0.8062 0.5180
vn 0.2861 -0.1216 0.9504
vn -0.3160 0.4998 0.8064
vn -0.9167 0.3161 0.2444
vn 0.1279 -0.0609 0.9899
vn 0.5801 0.6895 0.4336
vn -0.4781 0.1468 0.8659
vn -0.5932 0.0479 0.8036
vn 0.0786 -0.5844 0.8076
vn 0.8682 -0.0635 0.4922
vn -0.3911 0.3434 0.8539
vn 0.1288 0.3077 0.9427
vn -0.2222 -0.1158 0.9681
vn -0.9061 -0.4149 -0.0828
vn 0.0058 -0.4405 0.8978
vn -0.2509 0.7969 0.5496
vn 0.0795 0.6219 0.7791
vn 0.3846 -0.5700 0.7261
vn 0.4063 -0.0407 0.9128
vn -0.1991 -0.3743 0.9057
vn 0.4040 -0.5529 0.7287
vn -0.2098 -0.0010 0.9778
vn 0.0832 0.0360 0.9959
vn 0.9456 0.3071 -0.1075
vn 0.6306 -0.4938 0.5987
vn 0.3210 -0.0282 0.9467
vn -0.1318 -0.0938 0.9868
vn -0.1270 0.1713 0.9770
vn 0.4247 -0.4878 0.7627
vn 0.4721 -0.7028 0.5322
vn -0.2187 0.2570 0.9413
vn 0.0861 0.2607 0.9616
vn -0.6438 0.1550 0.7494
vn 0.7642 -0.6229 0.1672
vn 0.9156 -0.3557 0.1876
vn 0.8283 -0.5532 0.0889
vn 0.7090 0.6223 -0.3317
vn -0.5892 -0.6706 0.4506
vn 0.3705 0.0186 0.9286
vn 0.1885 0.2813 0.9409
vn 0.3738 0.1979 0.9062
vn -0.0129 -0.0584 0.9982
vn -0.5591 -0.8219 -0.1093
vn 0.1748 0.1740 0.9691
vn 0.0786 -0.5159 0.8530
vn 0.1220 -0.6824 0.7207
vn -0.3027 0.1785 0.9362
vn -0.3054 0.4379 0.8455
vn 0.4967 0.3730 0.7837
vn -0.6280 -0.5073 0.5901
vn -0.3179 -0.6060 0.7292
vn 0.0905 0.9892 0.1149
vn -0.2017 -0.0444 0.9784
vn -0.0920 -0.9954 -0.0255
vn 0.2492 0.0606 0.9665
vn -0.1393 0.1396 0.9804
vn -0.2206 -0.8363 0.5019
vn 0.2618 -0.4071 0.8751
vn 0.6110 0.0494 0.7901
vn 0.4148 -0.0752 0.9068
vn -0.2403 -0.5776 0.7802
vn -0.1880 -0.2239 0.9563
vn 0.9695 0.2438 0.0266
vn 0.3188 -0.2758 0.9068
vn 0.7103 -0.0294 0.7033
vn 0.3554 -0.6853 0.6357
vn 0.2771 0.2463 0.9287
vn 0.9550 -0.2894 -0.0644
vn 0.2171 -0.6086 0.7632
vn 0.2618 0.0152 0.9650
vn 0.1295 0.7440 0.6555
vn 0.3795 0.1294 0.9161
vn -0.1850 0.1752 0.9670
vn -0.0362 0.6258 0.7792
vn -0.3350 -0.8894 0.3111
vn 0.4364 0.7868 0.4366
vn 0.6170 0.4385 0.6535
vn 0.4583 -0.3998 0.7938
vn -0.0908 0.2942 0.9514
vn -0.0359 -0.7145 0.6987
vn 0.1695 -0.5578 0.8125
vn -0.0074 -0.7113 0.7028
vn -0.9951 -0.0722 -0.0677
vn 0.0198 -0.4646 0.8853
vn -0.7926 0.0838 0.6039
vn 0.1835 -0.2478 0.9513
vn -0.4387 0.5150 0.7364
vn 0.4726 -0.3694 0.8002
vn 0.3097 -0.1559 0.9380
vn 0.8726 -0.3683 0.3209
vn -0.4171 0.1802 0.8908
vn 0.0456 -0.1817 0.9823
vn 0.5433 0.6774 0.4959
vn 0.1320 0.4319 0.8922
vn -0.0963 -0.8699 0.4836
vn -0.4280 0.0713 0.9009
vn -0.0654 -0.8564 0.5122
vn 0.0846 0.0665 0.9942
vn 0.7602 0.5625 0.3251
vn -0.1839 -0.0745 0.9801
vn -0.3997 -0.4645 0.7902
vn 0.4690 0.3431 0.8138
vn -0.3563 -0.3428 0.8692
vn 0.9206 0.1754 0.3489
vn 0.3274 -0.9018 0.2821
vn 0.2439 -0.1839 0.9522
vn 0.3743 -0.4830 0.7916
vn 0.5215 0.0554 0.8514
vn 0.5352 0.6552 0.5331
vn 0.3877 -0.8262 0.4087
vn -0.2792 0.4741 0.8350
vn 0.2871 -0.5914 0.7536
vn 0.2613 -0.8892 0.3756
vn 0.2943 -0.8043 0.5162
vn 0.2479 -0.4875 0.8372
vn 0.3179 0.2651 0.9103
vn -0.1854 -0.2593 0.9478
vn -0.2562 0.2566 0.9320
vn 0.7731 0.1632 0.6129
vn 0.1092 0.6656 0.7382
vn -0.0082 -0.4969 0.8678
vn -0.1478 0.5377 0.8301
vn -0.7113 0.6990 -0.0742
vn 0.3186 -0.2305 0.9194
vn -0.1587 0.3943 0.9052
vn -0.2845 0.3326 0.8991
vn -0.2675 -0.3683 0.8904
vn -0.2294 0.3929 0.8905
vn 0.3279 0.1116 0.9381
vn -0.3688 -0.2069 0.9062
vn -0.2212 0.8999 0.3759
vn 0.0733 -0.3122 0.9472
vn -0.0596 0.6038 0.7949
vn 0.7928 0.1867 0.5801
vn 0.5480 0.5759 0.6067
vn -0.9400 0.1722 0.2945
vn 0.9892 0.1462 -0.0128
vn -0.2266 -0.4256 0.8761
vn -0.0620 -0.3866 0.9202
vn -0.8608 -0.4814 0.1653
vn 0.4784 -0.0341 0.8775
vn 0.0174 -0.1715 0.9850
vn 0.1636 0.1298 0.9779
vn 0.8173 -0.4529 0.3564
vn -0.7351 0.0849 0.6726
vn 0.5220 -0.1120 0.8456
vn -0.1020 0.4431 0.8907
vn 0.5405 -0.8405 0.0370
vn -0.1651 0.0654 0.9841
vn 0.3420 -0.0181 0.9395
vn 0.6674 0.7160 -0.2050
vn 0.3165 -0.4111 0.8549
vn 0.7385 -0.0622 0.6714
vn -0.0634 -0.9922 -0.1072
vn -0.5755 0.3147 0.7548
vn 0.1351 -0.8192 0.5573
vn 0.3494 -0.1918 0.9171
vn -0.2704 -0.3226 0.9071
vn 0.2587 -0.3766 0.8895
vn -0.0373 -0.4628 0.8857
vn 0.1120 -0.5455 0.8306
vn 0.5780 -0.5807 0.5733
vn -0.5086 -0.6059 0.6117
vn -0.3680 0.1379 0.9195
vn -0.2142 0.3695 0.9042
vn -0.2180 -0.3625 0.9061
vn 0.1941 -0.2399 0.9512
vn 0.0500 -0.0376 0.9980
vn -0.8621 0.5038 0.0545
vn 0.6024 -0.4676 0.6469
vn 0.2396 0.2445 0.9396
vn -0.6035 0.2064 0.7702
vn -0.0444 0.3712 0.9275
vn -0.8581 0.5116 -0.0431
vn 0.0719 -0.6615 0.7465
vn 0.3451 -0.2101 0.9148
vn -0.3375 0.6238 0.7050
vn -0.1364 -0.3354 0.9321
vn -0.5258 -0.8488 -0.0554
vn -0.1542 -0.7802 0.6062
vn 0.5517 -0.5283 0.6454
vn -0.6918 0.3410 0.6365
vn 0.0692 0.1673 0.9835
vn 0.2117 -0.4387 0.8734
vn -0.5204 -0.3261 0.7892
vn 0.4178 0.1934 0.8877
vn 0.3457 -0.2914 0.8920
vn 0.9198 0.3851 -0.0757
vn 0.5352 0.7067 0.4628
vn -0.0474 -0.6299 0.7752
vn -0.0398 0.1422 0.9890
vn 0.0338 0.4233 0.9054
vn -0.0005 -0.4946 0.8691
vn -0.8136 0.2893 0.5043
vn -0.7420 -0.2355 0.6277
vn -0.1151 0.8793 -0.4621
vn 0.0067 -0.1996 0.9799
vn 0.4727 -0.0584 0.8793
vn -0.1729 0.0462 0.9839
vn -0.8553 -0.4931 0.1590
vn -0.6629 0.0977 0.7423
vn -0.6202 -0.6555 0.4310
vn 0.3097 -0.9508 -0.0043
vn -0.6107 -0.7721 0.1759
vn -0.5031 -0.2753 0.8192
vn -0.2510 -0.8404 0.4804
vn -0.5854 -0.6991 0.4106
vn -0.6942 0.2345 0.6806
vn -0.7388 0.0424 0.6726
vn 0.5789 -0.6429 0.5016
vn -0.1585 0.0619 0.9854
vn 0.8449 -0.4953 -0.2021
vn -0.8343 -0.2394 0.4966
vn 0.7647 0.6140 -0.1957
vn 0.5752 0.8147 -0.0732
vn 0.0041 -0.2038 0.9790
vn -0.0020 0.2539 0.9672
vn 0.5050 0.4030 0.7633
vn 0.0172 0.0699 0.9974
vn -0.5962 -0.0904 0.7977
vn 0.6378 0.4225 0.6439
vn -0.3678 0.2668 0.8908
vn -0.0478 0.3017 0.9522
vn -0.8865 0.4613 -0.0350
vn -0.4195 -0.0126 0.9077
vn 0.9589 0.2837 0.0016
vn -0.5778 0.3305 0.7463
vn 0.5832 -0.3948 0.7099
vn 0.0506 -0.5065 0.8607
vn -0.5239 -0.0805 0.8479
vn -0.0297 -0.5691 0.8217
vn 0.3317 0.6340 0.6986
vn -0.6429 0.7011 0.3084
vn -0.1699 -0.6864 0.7071
vn 0.9105 -0.2168 0.3521
vn 0.2481 -0.5310 0.8102
vn -0.8303 -0.2592 0.4933
vn 0.4191 0.7968 0.4352
vn 0.5589 -0.2125 0.8015
vn -0.3394 0.3162 0.8859
vn -0.1296 -0.7627 0.6337
vn 0.1523 0.6855 0.7120
vn -0.6246 -0.1930 0.7567
vn 0.1487 0.6034 0.7834
vn 0.4552 -0.8657 0.2082
vn -0.6225 0.7826 -0.0090
vn -0.2836 0.6881 0.6679
vn 0.2509 -0.0982 0.9630
vn -0.1313 -0.3255 0.9364
vn 0.0240 -0.2283 0.9733
vn -0.6352 -0.0193 0.7721
vn 0.0585 0.5674 0.8213
vn -0.2294 0.2350 0.9445
vn 0.1843 0.3353 0.9239
vn -0.1103 -0.5175 0.8485
vn 0.3716 -0.2309 0.8992
vn -0.7375 -0.1092 0.6664
vn 0.5053 0.5303 0.6808
vn -0.5838 0.3402 0.7372
vn 0.0915 0.0144 0.9957
vn -0.3286 0.4450 0.8331
vn -0.7816 -0.6228 -0.0350
vn 0.4598 0.1603 0.8734
vn -0.0127 -0.0896 0.9959
vn -0.2915 0.9252 -0.2431
vn 0.2269 -0.3835 0.8952
vn -0.3595 -0.9167 -0.1746
vn 0.3254 0.1750 0.9292
vn -0.8715 -0.4902 -0.0120
vn -0.4459 0.3700 0.8150
vn 0.0692 -0.2375 0.9689
vn -0.4032 -0.4683 0.7862
vn -0.5526 -0.2778 0.7858
vn 0.5506 0.8109 -0.1981
vn 0.2961 0.8653 0.4044
vn 0.1406 0.5534 0.8209
vn 0.2660 -0.7894 0.5533
vn 0.6269 -0.1848 0.7569
vn 0.1638 0.1796 0.9700
vn -0.2029 0.0414 0.9783
vn 0.3745 -0.4749 0.7964
vn 0.3856 0.6072 0.6947
vn 0.3288 0.1650 0.9299
vn -0.6620 -0.5059 0.5530
vn -0.6160 0.7877 -0.0094
vn -0.1239 0.5212 0.8444
vn -0.0834 -0.0141 0.9964
vn 0.3305 -0.4313 0.8395
vn -0.2300 0.6270 0.7443
vn 0.0685 -0.7904 0.6087
vn 0.6212 0.4471 0.6437
vn -0.2737 0.2806 0.9200
vn -0.0079 0.0433 0.9990
vn -0.2957 0.0071 0.9553
vn 0.4398 0.3189 0.8396
vn -0.8487 0.4611 0.2589
vn 0.4824 0.6670 0.5678
vn 0.2188 -0.5436 0.8103
vn 0.3981 -0.7399 0.5422
vn -0.2224 -0.4006 0.8889
vn -0.6001 -0.1676 0.7822
vn 0.7100 -0.5937 0.3787
vn 0.0827 -0.1765 0.9808
vn -0.0530 -0.4242 0.9040
vn 0.1356 -0.4031 0.9050
vn -0.1763 -0.3141 0.9329
vn -0.2653 0.2511 0.9309
vn -0.4753 0.2167 0.8527
vn -0.3987 0.1144 0.9099
vn 0.2265 -0.7846 0.5771
vn -0.1399 0.1043 0.9847
vn -0.7659 0.2413 0.5959
vn 0.8260 0.3307 0.4565
vn -0.0213 -0.0031 0.9998
vn 0.0237 0.3560 0.9342
vn 0.3233 -0.7913 0.5190
vn 0.3664 0.2522 0.8956
vn 0.0918 0.4808 0.8720
vn 0.7540 0.5411 0.3725
vn -0.1936 -0.4699 0.8612
vn -0.4413 -0.4002 0.8032
vn 0.0753 -0.8607 0.5034
vn 0.4863 0.6860 0.5412
vn -0.5352 0.1832 0.8247
vn -0.3250 0.5322 0.7817
vn 0.6155 0.3183 0.7210
vn -0.3929 0.4196 0.8183
vn 0.0545 -0.0765 0.9956
vn 0.3843 -0.7293 0.5660
vn -0.6337 0.5486 0.5454
vn -0.3295 0.8678 0.3719
vn 0.2253 -0.5310 0.8169
vn 0.1068 -0.5245 0.8447
vn -0.5300 -0.2450 0.8118
vn 0.4488 0.5136 0.7313
vn -0.4906 -0.3303 0.8064
vn -0.3501 0.1161 0.9295
vn 0.1282 -0.4136 0.9014
vn 0.5942 -0.2040 0.7780
vn 0.1902 0.0178 0.9816
vn 0.5984 0.7032 0.3839
vn -0.0750 -0.0347 0.9966
vn 0.0663 -0.2347 0.9698
vn -0.8588 -0.3703 0.3540
vn -0.0987 -0.9365 0.3365
vn 0.0224 0.1544 0.9878
vn 0.8219 0.0955 0.5615
vn -0.1399 -0.3384 0.9305
vn 0.1318 -0.3652 0.9216
vn -0.0316 0.4807 0.8763
vn 0.9757 0.2156 -0.0385
vn -0.3394 0.5474 0.7649
vn 0.2881 0.3233 0.9014
vn -0.8012 0.0660 0.5948
vn 0.4939 -0.1131 0.8621
vn -0.7047 -0.6929 -0.1526
vn -0.2620 0.2860 0.9217
vn 0.4958 0.4837 0.7212
vn -0.9316 0.2434 0.2700
vn -0.6726 0.5347 0.5116
vn -0.0839 -0.0164 0.9963
vn -0.4302 0.2773 0.8591
vn 0.2004 0.5406 0.8171
vn -0.0042 0.7846 0.6200
vn 0.6494 -0.1431 0.7469
vn -0.9987 0.0508 -0.0003
vn -0.8475 -0.5297 -0.0349
vn 0.3157 -0.0860 0.9449
vn 0.7245 -0.0925 0.6831
vn 0.0540 -0.2895 0.9557
vn -0.3738 0.5984 0.7087
vn 0.1989 -0.3827 0.9022
vn 0.9106 0.4133 0.0002
vn 0.1462 0.1681 0.9749
vn -0.4951 0.0822 0.8649
vn 0.1965 -0.0458 0.9794
vn 0.8185 0.1237 0.5610
vn -0.8311 -0.2023 0.5180
vn 0.1234 0.4916 0.8620
vn -0.5672 -0.5315 0.6291
vn 0.1642 0.1019 0.9812
vn -0.3194 -0.0662 0.9453
vn 0.3237 -0.6653 0.6728
vn 0.3681 0.1373 0.9196
vn 0.5556 -0.8077 -0.1971
vn -0.3527 0.0907 0.9313
vn -0.1137 0.0768 0.9905
vn 0.0213 -0.3683 0.9295
vn -0.2254 -0.6218 0.7501
vn 0.5665 0.1595 0.8085
vn 0.0722 -0.6836 0.7263
vn -0.6822 0.7307 0.0266
vn 0.4558 -0.0806 0.8864
vn 0.2983 0.4850 0.8221
vn -0.5300 -0.4390 0.7255
vn -0.8864 -0.2912 0.3600
vn 0.0847 0.2267 0.9703
vn -0.0234 0.4573 0.8890
vn -0.4352 0.1800 0.8822
vn 0.1277 -0.4454 0.8862
vn -0.2974 -0.5580 0.7747
vn -0.2612 0.9324 0.2500
vn 0.7303 0.0749 0.6790
vn -0.2227 -0.5291 0.8188
vn 0.0296 0.4599 0.8875
vn 0.0051 0.9144 0.4048
vn -0.1700 -0.9400 0.2956
vn -0.6719 -0.5146 0.5327
vn -0.3909 -0.5322 0.7510
vn -0.1127 -0.7109 0.6942
vn 0.6590 -0.3830 0.6474
vn 0.2740 0.4786 0.8342
vn -0.9614 0.2537 0.1062
vn 0.3901 -0.9105 -0.1374
vn 0.2827 0.9181 0.2777
vn 0.5847 -0.1911 0.7884
vn -0.1909 0.1713 0.9666
vn -0.2193 0.1093 0.9695
vn -0.1450 0.1453 0.9787
vn -0.2862 -0.5671 0.7723
vn 0.0878 0.0362 0.9955
vn -0.1184 -0.9928 -0.0195
vn -0.4867 -0.5678 0.6639
vn -0.2112 0.4963 0.8421
vn 0.4383 0.3182 0.8406
vn 0.2641 0.8361 0.4808
vn -0.3868 0.4416 0.8095
vn 0.5459 -0.4394 0.7134
vn 0.9435 0.2674 0.1958
vn -0.2161 -0.3837 0.8978
vn -0.0315 -0.8055 0.5917
vn -0.1889 0.4938 0.8488
vn 0.4959 -0.1861 0.8482
vn 0.4669 -0.7211 0.5118
vn -0.6861 0.7098 -0.1594
vn 0.0719 0.9582 0.2770
vn 0.5332 0.8173 -0.2183
vn 0.1294 -0.2483 0.9600
vn 0.8492 0.5097 -0.1381
vn -0.4051 -0.1938 0.8935
vn 0.0039 0.9566 0.2914
vn -0.3673 -0.5023 0.7828
vn 0.1392 0.4539 0.8801
vn 0.2824 -0.2795 0.9177
vn 0.3527 0.6398 0.6829
vn 0.4313 0.1720 0.8856
vn -0.0121 -0.0274 0.9996
vn -0.4635 0.3803 0.8003
vn 0.8734 0.2942 0.3882
vn 0.3013 -0.6502 0.6975
vn -0.0490 -0.3059 0.9508
vn -0.3005 0.5451 -0.7827
vn 0.0541 0.5480 0.8347
vn -0.0614 -0.0447 0.9971
vn -0.4304 0.2539 0.8662
vn 0.5741 -0.3814 0.7245
vn -0.3558 0.0151 0.9345
vn 0.9613 -0.2650 -0.0750
vn -0.0507 -0.6961 0.7161
vn -0.3507 0.1148 0.9294
vn -0.5793 -0.0374 0.8142
vn -0.8572 -0.2325 0.4595
vn 0.2032 -0.2524 0.9461
vn -0.0469 0.4488 0.8924
vn -0.5496 -0.1405 0.8235
vn 0.2726 -0.6462 0.7128
vn 0.5694 0.0653 0.8195
vn -0.4643 -0.2950 0.8351
vn -0.7506 0.1717 0.6380
vn -0.6156 0.5540 0.5605
vn 0.5438 0.3411 0.7667
vn 0.1159 -0.2582 0.9591
vn 0.7067 -0.3110 0.6356
vn 0.3122 0.4410 0.8415
vn -0.2054 -0.9629 0.1749
vn -0.0520 0.6550 0.7538
vn 0.1946 -0.8633 0.4656
vn -0.1900 0.3947 0.8989
vn -0.0267 -0.9911 -0.1308
vn -0.0565 -0.6977 0.7141
vn -0.5031 -0.4356 0.7464
vn 0.1580 0.1515 0.9757
vn -0.3127 0.4967 0.8096
vn 0.3454 0.1008 0.9330
vn 0.3720 -0.9269 0.0494
vn -0.3737 -0.8191 0.4353
vn 0.7116 -0.1494 0.6865
vn 0.4943 0.0529 0.8677
vn 0.0475 -0.0453 0.9978
vn -0.1188 -0.3825 0.9163
vn -0.7378 0.0812 0.6701
vn -0.9359 0.3521 -0.0147
vn -0.2206 -0.9226 0.3164
vn -0.7439 -0.6682 -0.0104
vn -0.8070 -0.1778 0.5632
vn -0.0093 0.5486 0.8360
vn 0.1178 -0.4175 0.9010
vn 0.4611 0.2911 0.8382
vn -0.5531 0.2006 0.8086
vn -0.1302 0.3768 0.9171
vn -0.0574 0.1226 0.9908
vn -0.0418 -0.2363 0.9708
vn -0.6174 0.2195 0.7554
vn 0.2772 -0.2699 0.9221
vn 0.1690 -0.8643 0.4737
vn 0.3401 -0.2291 0.9120
vn 0.0203 0.6485 0.7609
vn -0.5402 0.7801 0.3156
vn 0.2127 -0.3401 0.9160
vn -0.5779 -0.8054 -0.1316
vn 0.3394 -0.0923 0.9361
vn -0.0242 0.0582 0.9980
vn -0.6561 -0.7504 -0.0805
vn 0.2991 0.1206 0.9466
vn -0.4485 0.0963 0.8886
vn 0.2367 0.2662 0.9344
vn -0.1008 -0.9942 0.0377
vn -0.2794 -0.4050 0.8706
vn -0.1687 -0.2701 0.9479
vn -0.0213 -0.2610 0.9651
vn 0.1815 0.5763 0.7968
vn -0.1747 -0.0912 0.9804
vn 0.0998 0.0983 0.9901
vn 0.5651 -0.1287 0.8149
vn 0.8400 0.5314 -0.1097
vn -0.6766 -0.7250 -0.1289
vn 0.2674 0.1014 0.9582
vn 0.3347 -0.4144 0.8463
vn 0.5809 0.6195 0.5279
vn -0.6023 0.2854 0.7455
vn 0.4599 0.6635 0.5901
vn -0.1716 0.9852 -0.0018
vn -0.5756 0.0917 0.8126
vn -0.8459 0.5328 0.0226
vn 0.0711 0.0295 0.9970
vn -0.6709 0.0371 0.7406
vn -0.1991 -0.3738 0.9059
vn -0.0301 -0.8155 0.5780
vn 0.1702 -0.4838 0.8585
vn -0.1721 0.4634 0.8693
vn 0.5731 0.3455 0.7431
vn -0.0372 0.4928 0.8694
vn -0.2126 -0.0584 0.9754
vn 0.1213 -0.0613 0.9907
vn 0.0891 -0.3070 0.9475
vn -0.3541 0.4666 0.8105
vn -0.0632 -0.3343 0.9404
vn -0.2660 0.4750 0.8388
vn 0.2630 0.9645 -0.0251
vn 0.1387 0.2415 0.9604
vn -0.0224 0.3677 0.9297
vn -0.4080 0.0905 0.9085
vn -0.6144 -0.6862 0.3893
vn 0.8629 -0.0822 0.4986
vn 0.4121 -0.0841 0.9073
vn 0.2341 -0.2484 0.9399
vn 0.0900 0.0816 0.9926
vn -0.1145 -0.2334 0.9656
vn 0.2339 -0.0421 0.9713
vn 0.6976 0.7158 0.0313
vn 0.3737 -0.7182 0.5869
vn 0.3234 0.8368 0.4417
vn -0.6918 -0.1360 0.7092
vn -0.1260 -0.3584 0.9250
vn -0.0177 -0.4133 0.9104
vn 0.1115 -0.4939 0.8624
vn 0.0406 -0.5101 0.8592
vn -0.0719 0.3862 0.9196
vn 0.3151 0.4329 0.8446
vn 0.2258 0.1005 0.9690
vn -0.1694 0.1416 0.9753
vn 0.1506 0.1495 0.9772
vn 0.3505 -0.3929 0.8501
vn -0.0391 0.5502 0.8341
vn -0.8346 -0.5206 0.1801
vn -0.7257 -0.2689 0.6333
vn 0.2146 -0.5285 0.8214
vn 0.6586 -0.2318 0.7159
vn 0.3113 0.4982 0.8093
vn 0.0962 0.4335 0.8960
vn 0.2329 -0.6323 0.7389
vn 0.1946 0.7646 0.6144
vn 0.1172 -0.4264 0.8969
vn -0.2615 -0.4884 0.8325
vn -0.6010 0.0750 0.7957
vn 0.6219 -0.7795 0.0756
vn -0.2796 0.8302 0.4823
vn -0.1080 -0.4989 0.8599
vn 0.2947 -0.5872 0.7539
vn 0.1163 -0.4591 0.8808
vn 0.5273 -0.4645 0.7115
vn 0.5386 0.0730 0.8394
vn 0.5195 0.8286 -0.2089
vn 0.2743 0.5282 0.8036
vn 0.6516 0.3418 0.6772
vn 0.3592 -0.3442 0.8675
vn -0.0937 -0.9346 0.3432
vn -0.0672 -0.1011 0.9926
vn 0.7991 -0.1174 0.5896
vn 0.2769 0.3877 0.8792
vn -0.1935 -0.1060 0.9754
vn -0.1163 -0.7997 0.5890
vn -0.3454 -0.3603 0.8665
vn 0.2975 0.3672 0.8813
vn 0.2552 -0.3881 0.8856
vn 0.2049 -0.3098 0.9285
vn 0.5436 -0.8389 0.0271
vn 0.7704 -0.5884 0.2455
vn 0.2612 -0.9546 0.1430
vn 0.2350 -0.0623 0.9700
vn 0.4149 0.5217 0.7454
vn -0.1396 -0.1493 0.9789
vn -0.0846 0.9847 0.1521
vn 0.4711 -0.3817 0.7952
vn -0.2976 0.3725 0.8790
vn -0.6690 0.4621 0.5821
vn -0.5018 0.2656 0.8232
vn -0.0419 -0.0102 0.9991
vn -0.5284 -0.3983 0.7498
vn 0.0095 -0.4200 0.9075
vn -0.0548 0.1069 0.9928
vn 0.0616 -0.4353 0.8982
vn 0.5114 -0.6320 0.5823
vn -0.1344 -0.7678 0.6264
vn 0.2627 0.7805 -0.5673
vn 0.0003 -0.0000 -1.0000
vn 0.0045 -0.0005 -1.0000
vn -0.0082 0.0031 -1.0000
vn 0.0014 -0.0007 -1.0000
vn -0.0008 0.0006 -1.0000
vn -0.0029 0.0021 -1.0000
vn 0.0005 -0.0013 -1.0000
vn 0.0006 -0.0015 -1.0000
vn -0.0001 0.0002 -1.0000
vn 0.0004 0.0028 -1.0000
vn -0.0004 -0.0008 -1.0000
vn -0.0014 -0.0022 -1.0000
vn -0.0001 -0.0000 -1.0000
vn -0.0000 -0.0000 -1.0000
vn -0.0002 -0.0000 -1.0000
vn -0.0070 0.0005 -1.0000
vn 0.0012 -0.0009 -1.0000
vn 0.0040 0.0025 -1.0000
vn -0.0002 0.0013 -1.0000
vn 0.0003 -0.0017 -1.0000
vn 0.0004 0.0023 -1.0000
vn 0.0011 0.0064 -1.0000
vn 0.0015 0.0083 -1.0000
vn -0.0071 -0.0120 -0.9999
vn 0.0014 0.0013 -1.0000
vn 0.0008 0.0010 -1.0000
vn -0.1030 -0.5578 0.8236
vn 0.5542 0.2763 0.7852
vn -0.6402 0.1024 0.7614
vn 0.0624 0.2444 0.9677
vn 0.1696 -0.1943 0.9662
vn -0.2949 -0.4841 0.8238
vn 0.0006 -0.0000 -1.0000
vn 0.4555 0.7144 0.5312
vn 0.4598 0.4132 0.7860
vn 0.0007 -0.0011 -1.0000
vn -0.0002 0.0001 -1.0000
vn -0.0128 -0.0020 -0.9999
vn 0.0004 -0.0000 -1.0000
vn 0.0133 -0.0058 -0.9999
vn -0.0000 -0.0002 -1.0000
vn -0.0025 -0.0051 -1.0000
vn -0.0001 0.0003 -1.0000
vn -0.0001 -0.0027 -1.0000
vn -0.0002 0.0010 -1.0000
vn 0.0018 0.0023 -1.0000
vt 0.375000 0.625000
vt 0.625000 0.875000
vt 0.625000 0.625000
vt 0.875000 0.875000
vt 0.125000 0.625000
s 0
usemtl ruins_cv_wall_a
f 85/1/1 154/1/1 311/1/1
f 296/2/2 111/2/2 343/2/2
f 25/2/3 321/2/3 3/2/3
f 81/2/4 347/2/4 306/2/4
f 385/3/5 340/3/5 34/3/5
f 109/4/6 331/4/6 134/4/6
f 316/4/7 254/4/7 347/4/7
f 404/4/8 419/4/8 367/4/8
f 262/4/9 157/4/9 226/4/9
f 40/4/10 237/4/10 355/4/10
f 194/4/11 237/4/11 8/4/11
f 9/2/12 436/2/12 414/2/12
f 79/4/13 86/4/13 174/4/13
f 158/1/14 318/1/14 371/1/14
f 152/5/15 120/5/15 127/5/15
f 302/2/16 364/2/16 196/2/16
f 305/2/17 207/2/17 29/2/17
f 67/4/18 329/4/18 337/4/18
f 311/5/19 145/5/19 85/5/19
f 347/5/20 223/5/20 65/5/20
f 82/5/21 334/5/21 172/5/21
f 182/2/22 19/2/22 67/2/22
f 178/2/23 210/2/23 243/2/23
f 399/5/24 78/5/24 52/5/24
f 309/3/25 120/3/25 152/3/25
f 70/4/26 429/4/26 365/4/26
f 373/5/27 69/5/27 294/5/27
f 299/1/28 144/1/28 51/1/28
f 51/3/29 144/3/29 117/3/29
f 270/2/30 10/2/30 360/2/30
f 414/1/31 123/1/31 9/1/31
f 355/2/32 239/2/32 288/2/32
f 351/2/33 140/2/33 59/2/33
f 358/5/34 300/5/34 408/5/34
f 431/2/35 19/2/35 182/2/35
f 304/5/36 87/5/36 114/5/36
f 200/2/37 199/2/37 314/2/37
f 314/4/38 266/4/38 200/4/38
f 358/2/39 408/2/39 289/2/39
f 97/5/40 204/5/40 132/5/40
f 178/3/41 161/3/41 370/3/41
f 18/4/42 282/4/42 180/4/42
f 19/3/43 168/3/43 329/3/43
f 86/3/44 79/3/44 433/3/44
f 331/3/45 5/3/45 171/3/45
f 272/1/46 341/1/46 141/1/46
f 247/5/47 328/5/47 137/5/47
f 215/2/48 301/2/48 303/2/48
f 258/4/49 45/4/49 22/4/49
f 284/5/50 295/5/50 370/5/50
f 218/5/51 56/5/51 234/5/51
f 371/2/52 265/2/52 158/2/52
f 57/1/53 86/1/53 141/1/53
f 261/5/54 210/5/54 147/5/54
f 63/4/55 49/4/55 412/4/55
f 228/1/56 125/1/56 42/1/56
f 299/1/57 51/1/57 289/1/57
f 289/2/58 328/2/58 358/2/58
f 325/3/59 282/3/59 89/3/59
f 345/3/60 352/3/60 172/3/60
f 342/2/61 22/2/61 45/2/61
f 224/1/62 202/1/62 350/1/62
f 31/5/63 280/5/63 437/5/63
f 26/4/64 154/4/64 85/4/64
f 349/1/65 126/1/65 407/1/65
f 336/3/66 90/3/66 129/3/66
f 368/4/67 249/4/67 436/4/67
f 44/3/68 286/3/68 50/3/68
f 97/2/69 191/2/69 124/2/69
f 303/5/70 318/5/70 215/5/70
f 398/4/71 434/4/71 286/4/71
f 363/1/72 39/1/72 195/1/72
f 37/3/73 133/3/73 116/3/73
f 96/3/74 24/3/74 381/3/74
f 39/1/75 437/1/75 280/1/75
f 269/3/76 277/3/76 169/3/76
f 212/5/77 225/5/77 232/5/77
f 35/2/78 411/2/78 150/2/78
f 335/4/79 67/4/79 407/4/79
f 23/2/80 398/2/80 108/2/80
f 82/3/81 172/3/81 267/3/81
f 259/5/82 116/5/82 133/5/82
f 191/1/83 246/1/83 39/1/83
f 7/4/84 121/4/84 395/4/84
f 128/4/85 412/4/85 399/4/85
f 186/3/86 269/3/86 169/3/86
f 102/1/87 66/1/87 20/1/87
f 117/2/88 18/2/88 180/2/88
f 152/1/89 127/1/89 182/1/89
f 152/1/90 417/1/90 309/1/90
f 32/4/91 48/4/91 378/4/91
f 213/2/92 79/2/92 174/2/92
f 145/1/93 6/1/93 85/1/93
f 94/2/94 392/2/94 179/2/94
f 114/5/95 87/5/95 119/5/95
f 126/3/96 335/3/96 407/3/96
f 167/2/97 332/2/97 25/2/97
f 88/5/98 364/5/98 34/5/98
f 400/4/99 231/4/99 298/4/99
f 357/1/100 7/1/100 395/1/100
f 321/4/101 418/4/101 3/4/101
f 331/4/102 171/4/102 270/4/102
f 28/1/103 222/1/103 61/1/103
f 276/3/104 111/3/104 163/3/104
f 214/4/105 25/4/105 332/4/105
f 222/3/106 327/3/106 61/3/106
f 177/5/107 425/5/107 250/5/107
f 221/1/108 103/1/108 75/1/108
f 48/5/109 32/5/109 177/5/109
f 50/2/110 434/2/110 197/2/110
f 166/3/111 295/3/111 245/3/111
f 436/5/112 9/5/112 368/5/112
f 15/3/113 77/3/113 93/3/113
f 329/5/114 212/5/114 337/5/114
f 409/5/115 104/5/115 162/5/115
f 60/1/116 285/1/116 371/1/116
f 405/3/117 422/3/117 244/3/117
f 154/3/118 251/3/118 121/3/118
f 425/4/119 32/4/119 99/4/119
f 120/2/120 70/2/120 376/2/120
f 146/3/121 59/3/121 378/3/121
f 421/5/122 17/5/122 240/5/122
f 234/4/123 80/4/123 218/4/123
f 416/2/124 130/2/124 27/2/124
f 273/5/125 346/5/125 63/5/125
f 303/4/126 423/4/126 211/4/126
f 268/5/127 13/5/127 416/5/127
f 237/4/128 40/4/128 8/4/128
f 193/3/129 363/3/129 64/3/129
f 74/1/130 298/1/130 57/1/130
f 211/1/131 15/1/131 303/1/131
f 255/4/132 377/4/132 98/4/132
f 170/3/133 46/3/133 58/3/133
f 347/5/134 65/5/134 306/5/134
f 398/4/135 286/4/135 108/4/135
f 434/2/136 129/2/136 221/2/136
f 333/1/137 248/1/137 311/1/137
f 56/4/138 404/4/138 367/4/138
f 4/3/139 165/3/139 413/3/139
f 239/1/140 165/1/140 4/1/140
f 430/3/141 82/3/141 253/3/141
f 20/5/142 345/5/142 102/5/142
f 237/4/143 194/4/143 355/4/143
f 75/2/144 103/2/144 193/2/144
f 159/3/145 216/3/145 240/3/145
f 258/3/146 322/3/146 45/3/146
f 225/4/147 168/4/147 264/4/147
f 225/3/148 294/3/148 176/3/148
f 192/1/149 58/1/149 394/1/149
f 147/4/150 210/4/150 198/4/150
f 188/3/151 174/3/151 132/3/151
f 255/5/152 249/5/152 365/5/152
f 351/1/153 59/1/153 146/1/153
f 124/3/154 201/3/154 115/3/154
f 204/4/155 97/4/155 124/4/155
f 115/3/156 95/3/156 213/3/156
f 223/2/157 344/2/157 65/2/157
f 61/5/158 327/5/158 231/5/158
f 132/2/159 81/2/159 306/2/159
f 334/1/160 147/1/160 198/1/160
f 203/1/161 376/1/161 435/1/161
f 282/1/162 426/1/162 87/1/162
f 302/3/163 196/3/163 332/3/163
f 55/2/164 396/2/164 228/2/164
f 330/1/165 219/1/165 101/1/165
f 309/2/166 429/2/166 70/2/166
f 434/5/167 221/5/167 406/5/167
f 324/1/168 275/1/168 112/1/168
f 400/2/169 317/2/169 220/2/169
f 78/2/170 304/2/170 52/2/170
f 401/2/171 77/2/171 15/2/171
f 170/5/172 91/5/172 304/5/172
f 131/2/173 73/2/173 84/2/173
f 432/2/174 108/2/174 286/2/174
f 213/5/175 433/5/175 79/5/175
f 157/3/176 139/3/176 226/3/176
f 162/1/177 104/1/177 235/1/177
f 90/1/178 415/1/178 110/1/178
f 126/1/179 59/1/179 259/1/179
f 283/5/180 315/5/180 214/5/180
f 360/2/181 258/2/181 270/2/181
f 353/3/182 242/3/182 390/3/182
f 331/3/183 106/3/183 5/3/183
f 184/4/184 296/4/184 292/4/184
f 153/2/185 309/2/185 149/2/185
f 29/1/186 207/1/186 186/1/186
f 394/4/187 58/4/187 220/4/187
f 319/2/188 167/2/188 25/2/188
f 348/3/189 241/3/189 35/3/189
f 412/5/190 128/5/190 273/5/190
f 34/3/191 340/3/191 320/3/191
f 148/4/192 149/4/192 309/4/192
f 28/4/193 29/4/193 222/4/193
f 422/4/194 16/4/194 244/4/194
f 375/3/195 73/3/195 173/3/195
f 280/3/196 65/3/196 344/3/196
f 131/2/197 236/2/197 68/2/197
f 205/4/198 72/4/198 16/4/198
f 230/2/199 207/2/199 305/2/199
f 178/2/200 243/2/200 161/2/200
f 302/1/201 319/1/201 385/1/201
f 354/4/202 391/4/202 257/4/202
f 142/1/203 61/1/203 400/1/203
f 409/3/204 427/3/204 367/3/204
f 288/3/205 4/3/205 275/3/205
f 277/2/206 383/2/206 292/2/206
f 333/2/207 311/2/207 397/2/207
f 398/1/208 129/1/208 434/1/208
f 256/1/209 250/1/209 425/1/209
f 336/4/210 115/4/210 201/4/210
f 323/4/211 206/4/211 62/4/211
f 420/1/212 19/1/212 431/1/212
f 13/2/213 276/2/213 163/2/213
f 243/5/214 378/5/214 161/5/214
f 91/4/215 252/4/215 325/4/215
f 354/2/216 247/2/216 391/2/216
f 437/3/217 246/3/217 31/3/217
f 225/3/218 212/3/218 329/3/218
f 368/4/219 435/4/219 249/4/219
f 181/5/220 106/5/220 274/5/220
f 188/1/221 204/1/221 115/1/221
f 401/3/222 245/3/222 107/3/222
f 16/3/223 422/3/223 205/3/223
f 291/5/224 319/5/224 3/5/224
f 302/4/225 167/4/225 319/4/225
f 308/1/226 420/1/226 127/1/226
f 292/3/227 122/3/227 174/3/227
f 120/2/228 376/2/228 203/2/228
f 110/5/229 415/5/229 201/5/229
f 188/2/230 115/2/230 213/2/230
f 93/3/231 318/3/231 15/3/231
f 326/2/232 335/2/232 148/2/232
f 35/4/233 176/4/233 41/4/233
f 151/2/234 76/2/234 69/2/234
f 156/3/235 12/3/235 155/3/235
f 384/5/236 118/5/236 278/5/236
f 243/5/237 242/5/237 353/5/237
f 189/4/238 410/4/238 195/4/238
f 425/1/239 177/1/239 32/1/239
f 352/3/240 345/3/240 364/3/240
f 242/3/241 261/3/241 404/3/241
f 372/1/242 9/1/242 183/1/242
f 122/4/243 316/4/243 174/4/243
f 264/2/244 294/2/244 225/2/244
f 19/1/245 151/1/245 168/1/245
f 81/4/246 132/4/246 316/4/246
f 355/4/247 194/4/247 239/4/247
f 313/1/248 139/1/248 263/1/248
f 203/3/249 24/3/249 308/3/249
f 341/5/250 74/5/250 141/5/250
f 278/1/251 397/1/251 384/1/251
f 271/3/252 267/3/252 352/3/252
f 151/4/253 69/4/253 373/4/253
f 126/1/254 206/1/254 148/1/254
f 337/4/255 212/4/255 356/4/255
f 246/4/256 437/4/256 39/4/256
f 290/3/257 20/3/257 238/3/257
f 404/5/258 147/5/258 419/5/258
f 233/2/259 432/2/259 286/2/259
f 254/3/260 343/3/260 185/3/260
f 426/4/261 119/4/261 87/4/261
f 53/5/262 155/5/262 12/5/262
f 401/4/263 15/4/263 211/4/263
f 371/1/264 356/1/264 212/1/264
f 245/2/265 295/2/265 107/2/265
f 111/4/266 54/4/266 343/4/266
f 155/4/267 53/4/267 94/4/267
f 365/2/268 429/2/268 255/2/268
f 152/5/269 182/5/269 417/5/269
f 413/5/270 314/5/270 112/5/270
f 204/5/271 124/5/271 115/5/271
f 409/2/272 235/2/272 406/2/272
f 389/4/273 137/4/273 360/4/273
f 169/4/274 307/4/274 186/4/274
f 340/2/275 374/2/275 205/2/275
f 145/2/276 136/2/276 379/2/276
f 21/1/277 23/1/277 141/1/277
f 403/1/278 313/1/278 263/1/278
f 401/5/279 107/5/279 77/5/279
f 427/3/280 406/3/280 362/3/280
f 351/5/281 116/5/281 140/5/281
f 383/2/282 207/2/282 230/2/282
f 260/5/283 344/5/283 68/5/283
f 222/3/284 186/3/284 307/3/284
f 416/5/285 375/5/285 173/5/285
f 252/5/286 55/5/286 180/5/286
f 168/3/287 294/3/287 264/3/287
f 193/2/288 80/2/288 362/2/288
f 160/2/289 348/2/289 83/2/289
f 371/1/290 93/1/290 60/1/290
f 424/4/291 215/4/291 160/4/291
f 139/4/292 157/4/292 263/4/292
f 432/5/293 233/5/293 224/5/293
f 92/5/294 405/5/294 310/5/294
f 317/1/295 341/1/295 272/1/295
f 362/4/296 406/4/296 75/4/296
f 68/4/297 185/4/297 54/4/297
f 262/1/298 382/1/298 263/1/298
f 52/1/299 304/1/299 114/1/299
f 306/4/300 65/4/300 31/4/300
f 194/1/301 328/1/301 247/1/301
f 339/5/302 236/5/302 131/5/302
f 358/2/303 8/2/303 300/2/303
f 219/4/304 38/4/304 338/4/304
f 140/5/305 259/5/305 59/5/305
f 290/1/306 281/1/306 20/1/306
f 408/3/307 426/3/307 289/3/307
f 136/4/308 248/4/308 333/4/308
f 253/5/309 1/5/309 109/5/309
f 180/1/310 228/1/310 428/1/310
f 30/3/311 265/3/311 393/3/311
f 160/4/312 359/4/312 156/4/312
f 160/5/313 156/5/313 424/5/313
f 283/1/314 345/1/314 20/1/314
f 345/2/315 196/2/315 364/2/315
f 255/1/316 98/1/316 414/1/316
f 125/5/317 108/5/317 432/5/317
f 6/2/318 26/2/318 85/2/318
f 300/5/319 8/5/319 408/5/319
f 25/3/320 3/3/320 319/3/320
f 231/1/321 86/1/321 57/1/321
f 36/4/322 49/4/322 346/4/322
f 418/3/323 291/3/323 3/3/323
f 256/5/324 349/5/324 407/5/324
f 285/3/325 337/3/325 356/3/325
f 218/1/326 80/1/326 64/1/326
f 350/2/327 42/2/327 224/2/327
f 232/2/328 225/2/328 113/2/328
f 282/4/329 117/4/329 426/4/329
f 42/5/330 350/5/330 202/5/330
f 360/3/331 164/3/331 322/3/331
f 158/1/332 265/1/332 30/1/332
f 6/3/333 181/3/333 26/3/333
f 181/1/334 279/1/334 26/1/334
f 119/5/335 346/5/335 273/5/335
f 291/2/336 418/2/336 229/2/336
f 368/1/337 372/1/337 227/1/337
f 120/4/338 309/4/338 70/4/338
f 216/4/339 159/4/339 312/4/339
f 30/3/340 100/3/340 348/3/340
f 429/5/341 153/5/341 260/5/341
f 155/5/342 301/5/342 215/5/342
f 150/5/343 176/5/343 35/5/343
f 304/1/344 282/1/344 87/1/344
f 274/4/345 106/4/345 175/4/345
f 307/3/346 327/3/346 222/3/346
f 69/4/347 41/4/347 176/4/347
f 32/5/348 349/5/348 99/5/348
f 198/4/349 210/4/349 66/4/349
f 118/2/350 357/2/350 105/2/350
f 332/1/351 345/1/351 283/1/351
f 371/1/352 212/1/352 232/1/352
f 227/4/353 372/4/353 183/4/353
f 99/3/354 256/3/354 425/3/354
f 406/4/355 221/4/355 75/4/355
f 221/1/356 90/1/356 103/1/356
f 188/5/357 132/5/357 204/5/357
f 284/4/358 370/4/358 161/4/358
f 388/5/359 131/5/359 111/5/359
f 290/5/360 370/5/360 295/5/360
f 250/4/361 60/4/361 177/4/361
f 210/1/362 242/1/362 243/1/362
f 21/3/363 95/3/363 398/3/363
f 266/4/364 413/4/364 257/4/364
f 360/1/365 322/1/365 258/1/365
f 178/2/366 238/2/366 210/2/366
f 218/2/367 242/2/367 56/2/367
f 46/1/368 312/1/368 159/1/368
f 176/5/369 150/5/369 113/5/369
f 419/1/370 147/1/370 430/1/370
f 351/4/371 287/4/371 390/4/371
f 44/1/372 50/1/372 235/1/372
f 408/5/373 8/5/373 36/5/373
f 290/5/374 238/5/374 370/5/374
f 410/2/375 37/2/375 363/2/375
f 91/3/376 55/3/376 252/3/376
f 219/2/377 47/2/377 101/2/377
f 414/1/378 47/1/378 123/1/378
f 423/5/379 166/5/379 211/5/379
f 155/4/380 424/4/380 156/4/380
f 33/3/381 164/3/381 360/3/381
f 51/3/382 328/3/382 289/3/382
f 149/5/383 323/5/383 153/5/383
f 344/1/384 185/1/384 68/1/384
f 106/2/385 379/2/385 5/2/385
f 420/3/386 151/3/386 19/3/386
f 118/3/387 384/3/387 357/3/387
f 262/4/388 105/4/388 382/4/388
f 101/2/389 339/2/389 330/2/389
f 396/4/390 272/4/390 141/4/390
f 428/2/391 42/2/391 202/2/391
f 97/2/392 132/2/392 306/2/392
f 220/1/393 317/1/393 394/1/393
f 169/1/394 277/1/394 209/1/394
f 40/4/395 275/4/395 324/4/395
f 392/5/396 321/5/396 315/5/396
f 418/1/397 321/1/397 392/1/397
f 428/2/398 51/2/398 180/2/398
f 9/4/399 372/4/399 368/4/399
f 380/1/400 100/1/400 393/1/400
f 236/5/401 339/5/401 101/5/401
f 359/5/402 83/5/402 156/5/402
f 170/1/403 58/1/403 192/1/403
f 330/1/404 339/1/404 84/1/404
f 184/4/405 163/4/405 111/4/405
f 236/4/406 47/4/406 414/4/406
f 421/2/407 78/2/407 399/2/407
f 393/2/408 100/2/408 30/2/408
f 217/2/409 392/2/409 94/2/409
f 231/2/410 174/2/410 86/2/410
f 94/4/411 229/4/411 217/4/411
f 193/3/412 362/3/412 75/3/412
f 112/5/413 199/5/413 190/5/413
f 397/4/414 278/4/414 333/4/414
f 260/4/415 377/4/415 429/4/415
f 22/2/416 331/2/416 270/2/416
f 385/2/417 34/2/417 364/2/417
f 430/5/418 253/5/418 419/5/418
f 1/5/419 267/5/419 366/5/419
f 113/1/420 150/1/420 380/1/420
f 116/1/421 259/1/421 140/1/421
f 272/4/422 396/4/422 55/4/422
f 49/1/423 63/1/423 346/1/423
f 86/2/424 433/2/424 141/2/424
f 291/1/425 72/1/425 374/1/425
f 164/4/426 202/4/426 233/4/426
f 77/3/427 177/3/427 93/3/427
f 100/1/428 380/1/428 411/1/428
f 251/4/429 402/4/429 403/4/429
f 392/2/430 281/2/430 208/2/430
f 314/4/431 199/4/431 112/4/431
f 394/5/432 71/5/432 192/5/432
f 420/1/433 308/1/433 24/1/433
f 109/4/434 1/4/434 175/4/434
f 398/5/435 336/5/435 129/5/435
f 216/3/436 312/3/436 78/3/436
f 177/1/437 77/1/437 48/1/437
f 238/1/438 178/1/438 370/1/438
f 45/2/439 104/2/439 409/2/439
f 282/3/440 18/3/440 117/3/440
f 2/2/441 366/2/441 271/2/441
f 363/1/442 193/1/442 103/1/442
f 44/1/443 235/1/443 104/1/443
f 14/4/444 47/4/444 386/4/444
f 369/4/445 220/4/445 142/4/445
f 55/4/446 91/4/446 71/4/446
f 304/5/447 325/5/447 89/5/447
f 219/2/448 386/2/448 47/2/448
f 236/4/449 98/4/449 68/4/449
f 306/3/450 246/3/450 97/3/450
f 270/2/451 257/2/451 391/2/451
f 175/1/452 366/1/452 274/1/452
f 293/4/453 137/4/453 51/4/453
f 67/2/454 326/2/454 182/2/454
f 426/3/455 117/3/455 144/3/455
f 207/4/456 269/4/456 186/4/456
f 310/1/457 405/1/457 313/1/457
f 247/3/458 389/3/458 10/3/458
f 406/1/459 235/1/459 197/1/459
f 257/1/460 270/1/460 266/1/460
f 268/3/461 276/3/461 13/3/461
f 379/5/462 171/5/462 5/5/462
f 292/1/463 296/1/463 122/1/463
f 355/2/464 275/2/464 40/2/464
f 283/1/465 214/1/465 332/1/465
f 38/2/466 387/2/466 338/2/466
f 340/1/467 422/1/467 320/1/467
f 230/3/468 163/3/468 383/3/468
f 165/2/469 354/2/469 413/2/469
f 227/3/470 203/3/470 435/3/470
f 306/1/471 31/1/471 246/1/471
f 131/2/472 84/2/472 339/2/472
f 190/2/473 199/2/473 278/2/473
f 352/5/474 364/5/474 88/5/474
f 135/2/475 266/2/475 171/2/475
f 253/1/476 109/1/476 134/1/476
f 193/5/477 64/5/477 80/5/477
f 195/4/478 280/4/478 189/4/478
f 63/4/479 412/4/479 273/4/479
f 168/1/480 373/1/480 294/1/480
f 279/5/481 402/5/481 154/5/481
f 232/4/482 265/4/482 371/4/482
f 375/3/483 330/3/483 73/3/483
f 412/1/484 49/1/484 17/1/484
f 82/1/485 430/1/485 334/1/485
f 160/3/486 215/3/486 318/3/486
f 80/2/487 234/2/487 362/2/487
f 220/5/488 369/5/488 400/5/488
f 332/4/489 196/4/489 345/4/489
f 405/1/490 187/1/490 139/1/490
f 298/3/491 74/3/491 400/3/491
f 30/3/492 160/3/492 318/3/492
f 366/5/493 267/5/493 271/5/493
f 2/2/494 279/2/494 274/2/494
f 192/1/495 71/1/495 91/1/495
f 290/2/496 166/2/496 281/2/496
f 281/5/497 283/5/497 20/5/497
f 315/3/498 283/3/498 281/3/498
f 365/3/499 249/3/499 435/3/499
f 402/1/500 310/1/500 313/1/500
f 138/1/501 144/1/501 299/1/501
f 342/3/502 134/3/502 22/3/502
f 185/4/503 347/4/503 254/4/503
f 180/2/504 51/2/504 117/2/504
f 21/2/505 141/2/505 433/2/505
f 277/2/506 292/2/506 174/2/506
f 396/4/507 108/4/507 125/4/507
f 270/3/508 258/3/508 22/3/508
f 273/1/509 128/1/509 52/1/509
f 208/4/510 301/4/510 179/4/510
f 346/1/511 119/1/511 408/1/511
f 297/5/512 419/5/512 134/5/512
f 406/2/513 427/2/513 409/2/513
f 309/1/514 417/1/514 148/1/514
f 62/1/515 133/1/515 410/1/515
f 210/4/516 238/4/516 66/4/516
f 349/1/517 256/1/517 99/1/517
f 92/5/518 310/5/518 361/5/518
f 329/4/519 67/4/519 19/4/519
f 304/3/520 78/3/520 312/3/520
f 411/1/521 380/1/521 150/1/521
f 261/3/522 147/3/522 404/3/522
f 277/2/523 207/2/523 383/2/523
f 293/5/524 164/5/524 33/5/524
f 233/5/525 44/5/525 104/5/525
f 252/3/526 180/3/526 282/3/526
f 296/5/527 316/5/527 122/5/527
f 280/2/528 195/2/528 39/2/528
f 312/5/529 170/5/529 304/5/529
f 256/2/530 285/2/530 250/2/530
f 90/4/531 110/4/531 103/4/531
f 296/3/532 343/3/532 316/3/532
f 1/2/533 366/2/533 175/2/533
f 132/5/534 174/5/534 316/5/534
f 382/2/535 251/2/535 403/2/535
f 428/3/536 293/3/536 51/3/536
f 323/4/537 149/4/537 148/4/537
f 232/4/538 380/4/538 393/4/538
f 50/2/539 286/2/539 434/2/539
f 105/2/540 395/2/540 382/2/540
f 420/2/541 431/2/541 127/2/541
f 195/1/542 410/1/542 363/1/542
f 144/4/543 138/4/543 426/4/543
f 173/1/544 388/1/544 268/1/544
f 50/1/545 197/1/545 235/1/545
f 410/3/546 323/3/546 62/3/546
f 345/1/547 172/1/547 143/1/547
f 344/3/548 260/3/548 153/3/548
f 214/2/549 315/2/549 321/2/549
f 291/3/550 229/3/550 72/3/550
f 360/1/551 10/1/551 389/1/551
f 66/4/552 238/4/552 20/4/552
f 33/3/553 360/3/553 137/3/553
f 374/2/554 319/2/554 291/2/554
f 130/4/555 387/4/555 27/4/555
f 279/1/556 2/1/556 11/1/556
f 145/3/557 379/3/557 6/3/557
f 61/2/558 231/2/558 400/2/558
f 252/2/559 282/2/559 325/2/559
f 267/2/560 253/2/560 82/2/560
f 120/2/561 203/2/561 127/2/561
f 198/2/562 143/2/562 334/2/562
f 214/1/563 321/1/563 25/1/563
f 137/2/564 328/2/564 51/2/564
f 29/5/565 186/5/565 222/5/565
f 230/5/566 13/5/566 163/5/566
f 374/1/567 385/1/567 319/1/567
f 179/4/568 155/4/568 94/4/568
f 236/2/569 414/2/569 98/2/569
f 162/3/570 235/3/570 409/3/570
f 223/3/571 347/3/571 185/3/571
f 418/4/572 217/4/572 229/4/572
f 215/4/573 424/4/573 155/4/573
f 397/1/574 311/1/574 7/1/574
f 134/4/575 331/4/575 22/4/575
f 106/2/576 109/2/576 175/2/576
f 311/1/577 154/1/577 121/1/577
f 328/4/578 8/4/578 358/4/578
f 326/4/579 417/4/579 182/4/579
f 191/3/580 39/3/580 363/3/580
f 206/1/581 259/1/581 133/1/581
f 423/3/582 208/3/582 166/3/582
f 401/3/583 211/3/583 245/3/583
f 12/5/584 156/5/584 83/5/584
f 398/1/585 23/1/585 21/1/585
f 390/5/586 64/5/586 351/5/586
f 104/3/587 322/3/587 164/3/587
f 209/4/588 277/4/588 174/4/588
f 331/5/589 109/5/589 106/5/589
f 179/3/590 392/3/590 208/3/590
f 220/2/591 58/2/591 142/2/591
f 337/2/592 285/2/592 256/2/592
f 171/4/593 379/4/593 200/4/593
f 341/4/594 400/4/594 74/4/594
f 399/4/595 52/4/595 128/4/595
f 371/3/596 318/3/596 93/3/596
f 138/4/597 289/4/597 426/4/597
f 242/5/598 210/5/598 261/5/598
f 269/2/599 207/2/599 277/2/599
f 349/5/600 378/5/600 59/5/600
f 285/3/601 60/3/601 250/3/601
f 134/4/602 419/4/602 253/4/602
f 64/2/603 37/2/603 351/2/603
f 328/4/604 194/4/604 8/4/604
f 413/2/605 112/2/605 275/2/605
f 348/3/606 160/3/606 30/3/606
f 38/2/607 330/2/607 375/2/607
f 373/5/608 168/5/608 151/5/608
f 102/2/609 345/2/609 143/2/609
f 225/2/610 176/2/610 113/2/610
f 200/5/611 379/5/611 136/5/611
f 421/1/612 240/1/612 78/1/612
f 69/2/613 76/2/613 96/2/613
f 395/2/614 105/2/614 357/2/614
f 44/4/615 233/4/615 286/4/615
f 396/5/616 141/5/616 23/5/616
f 287/5/617 243/5/617 353/5/617
f 395/5/618 121/5/618 382/5/618
f 219/3/619 330/3/619 38/3/619
f 281/5/620 392/5/620 315/5/620
f 160/2/621 83/2/621 359/2/621
f 383/4/622 163/4/622 184/4/622
f 135/2/623 171/2/623 200/2/623
f 274/1/624 366/1/624 2/1/624
f 113/3/625 380/3/625 232/3/625
f 110/3/626 124/3/626 191/3/626
f 174/4/627 188/4/627 213/4/627
f 199/5/628 136/5/628 278/5/628
f 334/1/629 143/1/629 172/1/629
f 32/3/630 378/3/630 349/3/630
f 10/5/631 391/5/631 247/5/631
f 348/3/632 100/3/632 411/3/632
f 110/2/633 201/2/633 124/2/633
f 8/1/634 43/1/634 36/1/634
f 408/2/635 36/2/635 346/2/635
f 262/2/636 226/2/636 118/2/636
f 280/1/637 153/1/637 189/1/637
f 139/2/638 187/2/638 226/2/638
f 74/1/639 57/1/639 141/1/639
f 17/1/640 421/1/640 399/1/640
f 27/4/641 38/4/641 375/4/641
f 202/5/642 224/5/642 233/5/642
f 301/4/643 155/4/643 179/4/643
f 26/3/644 279/3/644 154/3/644
f 323/1/645 148/1/645 206/1/645
f 406/1/646 197/1/646 434/1/646
f 354/1/647 257/1/647 413/1/647
f 34/3/648 92/3/648 361/3/648
f 242/2/649 64/2/649 390/2/649
f 332/4/650 167/4/650 302/4/650
f 316/1/651 343/1/651 254/1/651
f 191/2/652 363/2/652 103/2/652
f 365/4/653 376/4/653 70/4/653
f 136/1/654 145/1/654 248/1/654
f 241/2/655 348/2/655 411/2/655
f 308/1/656 127/1/656 203/1/656
f 94/4/657 53/4/657 229/4/657
f 37/5/658 116/5/658 351/5/658
f 428/2/659 202/2/659 293/2/659
f 403/4/660 402/4/660 313/4/660
f 119/3/661 273/3/661 114/3/661
f 126/4/662 349/4/662 59/4/662
f 432/3/663 224/3/663 125/3/663
f 341/2/664 317/2/664 400/2/664
f 239/4/665 194/4/665 165/4/665
f 239/2/666 4/2/666 288/2/666
f 367/1/667 234/1/667 56/1/667
f 327/2/668 169/2/668 231/2/668
f 148/4/669 335/4/669 126/4/669
f 247/4/670 354/4/670 194/4/670
f 344/5/671 153/5/671 280/5/671
f 304/2/672 91/2/672 325/2/672
f 356/5/673 371/5/673 285/5/673
f 47/2/674 14/2/674 123/2/674
f 191/1/675 103/1/675 110/1/675
f 48/5/676 107/5/676 378/5/676
f 405/3/677 92/3/677 320/3/677
f 381/1/678 227/1/678 183/1/678
f 375/3/679 416/3/679 27/3/679
f 273/4/680 52/4/680 114/4/680
f 201/3/681 415/3/681 336/3/681
f 428/3/682 228/3/682 42/3/682
f 15/5/683 318/5/683 303/5/683
f 187/3/684 405/3/684 244/3/684
f 276/1/685 268/1/685 388/1/685
f 181/1/686 274/1/686 279/1/686
f 307/5/687 169/5/687 327/5/687
f 56/5/688 242/5/688 404/5/688
f 98/1/689 260/1/689 68/1/689
f 304/3/690 89/3/690 282/3/690
f 399/2/691 412/2/691 17/2/691
f 420/5/692 96/5/692 76/5/692
f 13/5/693 130/5/693 416/5/693
f 326/3/694 148/3/694 417/3/694
f 42/5/695 125/5/695 224/5/695
f 146/2/696 378/2/696 243/2/696
f 194/2/697 354/2/697 165/2/697
f 311/3/698 121/3/698 7/3/698
f 352/3/699 267/3/699 172/3/699
f 209/2/700 174/2/700 231/2/700
f 416/2/701 173/2/701 268/2/701
f 91/2/702 170/2/702 192/2/702
f 203/2/703 227/2/703 24/2/703
f 65/5/704 280/5/704 31/5/704
f 363/1/705 37/1/705 64/1/705
f 147/1/706 334/1/706 430/1/706
f 240/2/707 216/2/707 78/2/707
f 361/3/708 88/3/708 34/3/708
f 386/4/709 338/4/709 14/4/709
f 67/3/710 337/3/710 256/3/710
f 256/2/711 407/2/711 67/2/711
f 386/1/712 219/1/712 338/1/712
f 392/5/713 217/5/713 418/5/713
f 293/5/714 202/5/714 164/5/714
f 11/4/715 361/4/715 310/4/715
f 241/1/716 411/1/716 35/1/716
f 433/5/717 213/5/717 95/5/717
f 104/4/718 45/4/718 322/4/718
f 90/1/719 336/1/719 415/1/719
f 11/1/720 310/1/720 279/1/720
f 146/2/721 243/2/721 287/2/721
f 409/1/722 297/1/722 342/1/722
f 393/2/723 265/2/723 232/2/723
f 226/3/724 187/3/724 244/3/724
f 38/3/725 27/3/725 387/3/725
f 302/5/726 385/5/726 364/5/726
f 115/3/727 336/3/727 95/3/727
f 262/4/728 263/4/728 157/4/728
f 228/4/729 396/4/729 125/4/729
f 88/1/730 271/1/730 352/1/730
f 43/2/731 8/2/731 40/2/731
f 169/3/732 209/3/732 231/3/732
f 46/1/733 170/1/733 312/1/733
f 342/3/734 297/3/734 134/3/734
f 206/4/735 133/4/735 62/4/735
f 368/3/736 227/3/736 435/3/736
f 131/1/737 388/1/737 73/1/737
f 57/5/738 298/5/738 231/5/738
f 391/3/739 10/3/739 270/3/739
f 379/4/740 181/4/740 6/4/740
f 266/5/741 270/5/741 171/5/741
f 303/1/742 301/1/742 423/1/742
f 367/2/743 297/2/743 409/2/743
f 361/1/744 11/1/744 88/1/744
f 317/5/745 272/5/745 55/5/745
f 255/1/746 414/1/746 436/1/746
f 55/1/747 228/1/747 180/1/747
f 136/3/748 333/3/748 278/3/748
f 154/5/749 402/5/749 251/5/749
f 293/4/750 33/4/750 137/4/750
f 21/2/751 433/2/751 95/2/751
f 236/1/752 101/1/752 47/1/752
f 263/4/753 382/4/753 403/4/753
f 189/1/754 323/1/754 410/1/754
f 153/1/755 323/1/755 189/1/755
f 54/3/756 185/3/756 343/3/756
f 276/5/757 388/5/757 111/5/757
f 429/1/758 309/1/758 153/1/758
f 205/4/759 374/4/759 72/4/759
f 234/4/760 427/4/760 362/4/760
f 279/1/761 310/1/761 402/1/761
f 344/2/762 223/2/762 185/2/762
f 365/5/763 435/5/763 376/5/763
f 259/4/764 206/4/764 126/4/764
f 218/1/765 64/1/765 242/1/765
f 295/3/766 166/3/766 290/3/766
f 266/2/767 314/2/767 413/2/767
f 7/1/768 384/1/768 397/1/768
f 135/3/769 200/3/769 266/3/769
f 158/3/770 30/3/770 318/3/770
f 385/5/771 374/5/771 340/5/771
f 143/1/772 66/1/772 102/1/772
f 320/2/773 92/2/773 34/2/773
f 142/4/774 400/4/774 369/4/774
f 260/3/775 98/3/775 377/3/775
f 398/2/776 95/2/776 336/2/776
f 422/1/777 340/1/777 205/1/777
f 422/4/778 405/4/778 320/4/778
f 138/4/779 299/4/779 289/4/779
f 284/5/780 107/5/780 295/5/780
f 253/1/781 267/1/781 1/1/781
f 93/3/782 177/3/782 60/3/782
f 127/3/783 431/3/783 182/3/783
f 45/4/784 409/4/784 342/4/784
f 24/3/785 227/3/785 381/3/785
f 4/4/786 413/4/786 275/4/786
f 88/3/787 11/3/787 2/3/787
f 107/5/788 284/5/788 378/5/788
f 378/2/789 284/2/789 161/2/789
f 367/2/790 419/2/790 297/2/790
f 247/5/791 137/5/791 389/5/791
f 262/3/792 118/3/792 105/3/792
f 200/1/793 136/1/793 199/1/793
f 7/2/794 357/2/794 384/2/794
f 420/2/795 76/2/795 151/2/795
f 388/1/796 173/1/796 73/1/796
f 316/5/797 347/5/797 81/5/797
f 164/2/798 233/2/798 104/2/798
f 131/4/799 68/4/799 54/4/799
f 287/5/800 351/5/800 146/5/800
f 166/3/801 245/3/801 211/3/801
f 383/2/802 184/2/802 292/2/802
f 131/1/803 54/1/803 111/1/803
f 168/3/804 225/3/804 329/3/804
f 436/4/805 249/4/805 255/4/805
f 294/5/806 69/5/806 176/5/806
f 348/2/807 35/2/807 83/2/807
f 420/1/808 24/1/808 96/1/808
f 129/5/809 90/5/809 221/5/809
f 166/3/810 208/3/810 281/3/810
f 119/5/811 426/5/811 408/5/811
f 288/2/812 275/2/812 355/2/812
f 410/3/813 133/3/813 37/3/813
f 317/5/814 55/5/814 71/5/814
f 394/5/815 317/5/815 71/5/815
f 390/1/816 287/1/816 353/1/816
f 335/3/817 326/3/817 67/3/817
f 396/5/818 23/5/818 108/5/818
f 73/3/819 330/3/819 84/3/819
f 423/1/820 301/1/820 208/1/820
f 255/4/821 429/4/821 377/4/821
f 234/5/822 367/5/822 427/5/822
f 48/3/823 77/3/823 107/3/823
f 324/1/824 112/1/824 190/1/824
f 183/4/825 9/4/825 438/4/825
f 9/4/826 123/4/826 438/4/826
f 123/2/827 14/2/827 438/2/827
f 14/5/828 338/5/828 438/5/828
f 338/4/829 387/4/829 438/4/829
f 387/2/830 130/2/830 438/2/830
f 130/4/831 13/4/831 438/4/831
f 13/3/832 230/3/832 438/3/832
f 29/3/833 438/3/833 305/3/833
f 61/2/834 142/2/834 438/2/834
f 58/2/835 438/2/835 142/2/835
f 159/2/836 240/2/836 438/2/836
f 49/1/837 36/1/837 438/1/837
f 36/2/838 43/2/838 438/2/838
f 43/5/838 40/5/838 438/5/838
f 40/1/839 324/1/839 438/1/839
f 324/3/840 190/3/840 438/3/840
f 278/2/841 118/2/841 438/2/841
f 17/3/842 438/3/842 240/3/842
f 16/4/843 72/4/843 438/4/843
f 72/3/844 229/3/844 438/3/844
f 229/1/845 53/1/845 438/1/845
f 53/4/846 12/4/846 438/4/846
f 12/3/847 83/3/847 438/3/847
f 83/2/848 35/2/848 438/2/848
f 69/2/849 96/2/849 438/2/849
f 69/5/850 438/5/850 41/5/850
f 296/2/851 184/2/851 111/2/851
f 311/5/852 248/5/852 145/5/852
f 97/2/853 246/2/853 191/2/853
f 106/2/854 181/2/854 379/2/854
f 66/2/855 143/2/855 198/2/855
f 382/2/856 121/2/856 251/2/856
f 381/5/857 183/5/857 438/5/857
f 88/1/858 2/1/858 271/1/858
f 139/2/859 313/2/859 405/2/859
f 226/3/860 244/3/860 438/3/860
f 438/3/861 118/3/861 226/3/861
f 96/3/862 381/3/862 438/3/862
f 46/5/863 159/5/863 438/5/863
f 190/5/864 278/5/864 438/5/864
f 28/2/865 438/2/865 29/2/865
f 58/2/866 46/2/866 438/2/866
f 230/1/867 305/1/867 438/1/867
f 61/5/868 438/5/868 28/5/868
f 49/5/837 438/5/837 17/5/837
f 16/1/869 438/1/869 244/1/869
f 41/1/870 438/1/870 35/1/870
