# Blender 5.2.2 LTS
# www.blender.org
mtllib ruins_kr_wall_a.mtl
o piece
v 2.382228 2.500000 -0.311735
v -2.382228 2.500000 -0.311735
v 2.382228 -2.500000 -0.311735
v -2.382228 -2.500000 -0.311735
v 2.382228 -1.814484 -0.311735
v -2.382228 -1.814484 -0.311735
v 2.382228 1.843607 -0.311735
v -2.382228 1.843607 -0.311735
v 2.382228 1.524884 -0.311735
v -2.382228 1.524884 -0.311735
v -2.382228 -1.970091 -0.121693
v 2.382228 -1.970091 -0.121693
v -2.382228 -2.500000 -0.121693
v 2.382228 -2.500000 -0.121693
v -2.382228 1.774518 -0.214666
v 2.382228 1.774518 -0.214666
v -2.382228 1.524884 -0.214666
v 2.382228 1.524884 -0.214666
v -2.264456 -2.500000 -0.311737
v -2.500000 -2.500000 -0.311737
v -2.264456 2.500000 -0.311737
v -2.500000 2.500000 -0.311737
v -2.264456 2.500000 -0.073587
v -2.500000 2.500000 -0.073587
v -2.264456 -2.500000 0.218920
v -2.500000 -2.500000 0.218920
v -2.290228 2.500000 0.019232
v -2.474228 2.500000 0.019232
v -2.474228 -2.500000 0.311737
v -2.290228 -2.500000 0.311737
v 2.500000 -2.500000 -0.311737
v 2.264457 -2.500000 -0.311737
v 2.500000 2.500000 -0.311737
v 2.264457 2.500000 -0.311737
v 2.500000 2.500000 -0.073587
v 2.264457 2.500000 -0.073587
v 2.500000 -2.500000 0.218920
v 2.264457 -2.500000 0.218920
v 2.474228 2.500000 0.019232
v 2.290228 2.500000 0.019232
v 2.290228 -2.500000 0.311737
v 2.474228 -2.500000 0.311737
v 1.547109 -2.500000 -0.311737
v 1.311566 -2.500000 -0.311737
v 1.547109 2.500000 -0.311737
v 1.311566 2.500000 -0.311737
v 1.547109 2.500000 -0.073587
v 1.311566 2.500000 -0.073587
v 1.547109 -2.500000 0.218920
v 1.311566 -2.500000 0.218920
v 1.521337 2.500000 0.019232
v 1.337337 2.500000 0.019232
v 1.337337 -2.500000 0.311737
v 1.521337 -2.500000 0.311737
v 0.594218 -2.500000 -0.311737
v 0.358675 -2.500000 -0.311737
v 0.594218 2.500000 -0.311737
v 0.358675 2.500000 -0.311737
v 0.594218 2.500000 -0.073587
v 0.358675 2.500000 -0.073587
v 0.594218 -2.500000 0.218920
v 0.358675 -2.500000 0.218920
v 0.568446 2.500000 0.019232
v 0.384446 2.500000 0.019232
v 0.384446 -2.500000 0.311737
v 0.568446 -2.500000 0.311737
v -0.358674 -2.500000 -0.311737
v -0.594217 -2.500000 -0.311737
v -0.358674 2.500000 -0.311737
v -0.594217 2.500000 -0.311737
v -0.358674 2.500000 -0.073587
v -0.594217 2.500000 -0.073587
v -0.358674 -2.500000 0.218920
v -0.594217 -2.500000 0.218920
v -0.384445 2.500000 0.019232
v -0.568445 2.500000 0.019232
v -0.568445 -2.500000 0.311737
v -0.384445 -2.500000 0.311737
v -1.311565 -2.500000 -0.311737
v -1.547109 -2.500000 -0.311737
v -1.311565 2.500000 -0.311737
v -1.547109 2.500000 -0.311737
v -1.311565 2.500000 -0.073587
v -1.547109 2.500000 -0.073587
v -1.311565 -2.500000 0.218920
v -1.547109 -2.500000 0.218920
v -1.337337 2.500000 0.019232
v -1.521337 2.500000 0.019232
v -1.521337 -2.500000 0.311737
v -1.337337 -2.500000 0.311737
v 0.667206 -1.970091 -0.121693
v 1.216661 -1.970091 -0.121693
v 1.032697 -1.893375 -0.215385
v 0.960381 -2.125945 -0.121693
v -1.379601 -1.019338 0.222527
v -1.311565 -0.975051 0.129707
v 0.358675 -1.370734 0.152857
v 0.384446 -1.370734 0.245674
v 0.568447 -1.370734 0.245674
v 0.594218 -1.370734 0.152857
v 0.358675 -0.526572 -0.004459
v 0.384446 -0.526572 0.166023
v 0.538605 -0.526572 0.166023
v 0.594218 -0.526572 0.073206
v 2.328692 -1.082088 0.228788
vn -0.0000 -0.0000 1.0000
vn -0.0000 1.0000 -0.0000
vn -0.0000 -1.0000 -0.0000
vn -0.0000 0.7737 0.6335
vn -1.0000 -0.0000 -0.0000
vn 1.0000 -0.0000 -0.0000
vn -0.0000 0.8147 0.5799
vn -0.0000 0.0584 0.9983
vn -0.9634 0.0156 0.2675
vn 0.9634 0.0156 0.2675
vn -0.0000 -0.0000 -1.0000
vn -0.0000 0.0484 0.9988
vn -0.0000 0.0601 0.9982
vn -0.9635 0.0061 0.2675
vn 0.8577 0.0165 0.5139
vn -0.9627 0.0418 0.2673
vn 0.8006 0.0250 0.5987
vn -0.2612 0.4295 0.8645
vn 0.1711 0.3219 0.9312
vn 0.9626 0.0436 0.2673
vn -0.9632 0.0252 0.2674
vn -0.0000 0.0939 0.9956
vn 0.9619 0.0592 0.2671
vn -0.0000 0.0577 0.9983
vn 0.0182 0.0584 0.9981
vn -0.9887 0.0072 0.1495
vn 0.9635 0.0130 0.2675
vn -0.9635 0.0053 0.2675
vn -0.8218 0.0333 0.5687
vn 0.7980 0.0352 0.6017
vn -0.9884 0.0278 0.1494
vn 0.8568 0.0484 0.5134
vt 0.125000 0.375000
vt 0.875000 0.875000
s 0
usemtl ruins_kr_wall_a
f 2/1/1 7/1/1 1/1/1
f 83/2/2 81/2/2 82/2/2
f 14/2/1 92/2/1 94/2/1
f 26/2/3 20/2/3 19/2/3
f 93/2/4 6/2/4 91/2/4
f 15/2/1 18/2/1 16/2/1
f 10/1/1 5/1/1 9/1/1
f 38/2/3 32/2/3 31/2/3
f 32/2/5 36/2/5 34/2/5
f 59/2/2 57/2/2 58/2/2
f 4/2/5 11/2/5 6/2/5
f 3/2/3 13/2/3 4/2/3
f 3/2/6 12/2/6 14/2/6
f 8/2/7 16/2/7 7/2/7
f 10/2/5 15/2/5 8/2/5
f 9/2/3 17/2/3 10/2/3
f 9/2/6 16/2/6 18/2/6
f 28/2/8 30/2/8 27/2/8
f 20/2/5 24/2/5 22/2/5
f 19/2/6 23/2/6 25/2/6
f 26/2/9 28/2/9 24/2/9
f 25/2/10 27/2/10 30/2/10
f 22/2/11 19/2/11 20/2/11
f 80/2/5 84/2/5 82/2/5
f 81/2/6 83/2/6 96/2/6
f 35/2/2 33/2/2 34/2/2
f 31/2/6 35/2/6 37/2/6
f 74/2/3 68/2/3 67/2/3
f 52/2/8 54/2/8 51/2/8
f 44/2/5 48/2/5 46/2/5
f 43/2/6 47/2/6 49/2/6
f 50/2/9 52/2/9 48/2/9
f 49/2/10 51/2/10 54/2/10
f 64/2/12 103/2/12 63/2/12
f 50/2/3 44/2/3 43/2/3
f 104/2/6 100/2/6 55/2/6
f 89/2/13 90/2/13 95/2/13
f 101/2/14 64/2/14 60/2/14
f 104/2/15 63/2/15 103/2/15
f 47/2/2 45/2/2 46/2/2
f 76/2/8 78/2/8 75/2/8
f 37/2/10 39/2/10 42/2/10
f 68/2/5 72/2/5 70/2/5
f 67/2/6 71/2/6 73/2/6
f 74/2/9 76/2/9 72/2/9
f 73/2/10 75/2/10 78/2/10
f 23/2/2 21/2/2 22/2/2
f 86/2/9 88/2/9 84/2/9
f 34/2/11 31/2/11 32/2/11
f 86/2/3 80/2/3 79/2/3
f 71/2/2 69/2/2 70/2/2
f 38/2/16 41/2/16 105/2/16
f 96/2/17 87/2/17 95/2/17
f 93/2/18 94/2/18 92/2/18
f 91/2/19 94/2/19 93/2/19
f 85/2/20 95/2/20 90/2/20
f 101/2/5 58/2/5 56/2/5
f 98/2/9 62/2/9 65/2/9
f 98/2/8 66/2/8 99/2/8
f 61/2/10 99/2/10 66/2/10
f 62/2/3 56/2/3 55/2/3
f 102/2/21 97/2/21 98/2/21
f 103/2/22 98/2/22 99/2/22
f 100/2/23 103/2/23 99/2/23
f 39/2/8 40/2/8 105/2/8
f 2/1/1 8/1/1 7/1/1
f 82/2/2 84/2/2 83/2/2
f 84/2/2 88/2/2 83/2/2
f 88/2/2 87/2/2 83/2/2
f 11/2/1 13/2/1 91/2/1
f 13/2/1 14/2/1 94/2/1
f 14/2/1 12/2/1 92/2/1
f 94/2/1 91/2/1 13/2/1
f 19/2/3 25/2/3 26/2/3
f 25/2/3 30/2/3 26/2/3
f 30/2/3 29/2/3 26/2/3
f 93/2/4 92/2/4 5/2/4
f 92/2/4 12/2/4 5/2/4
f 5/2/4 6/2/4 93/2/4
f 6/2/4 11/2/4 91/2/4
f 15/2/1 17/2/1 18/2/1
f 10/1/1 6/1/1 5/1/1
f 31/2/3 37/2/3 38/2/3
f 37/2/3 42/2/3 38/2/3
f 42/2/3 41/2/3 38/2/3
f 32/2/5 38/2/5 36/2/5
f 58/2/2 60/2/2 59/2/2
f 60/2/2 64/2/2 59/2/2
f 64/2/2 63/2/2 59/2/2
f 4/2/5 13/2/5 11/2/5
f 3/2/3 14/2/3 13/2/3
f 3/2/6 5/2/6 12/2/6
f 8/2/7 15/2/7 16/2/7
f 10/2/5 17/2/5 15/2/5
f 9/2/3 18/2/3 17/2/3
f 9/2/6 7/2/6 16/2/6
f 28/2/8 29/2/8 30/2/8
f 20/2/5 26/2/5 24/2/5
f 19/2/6 21/2/6 23/2/6
f 26/2/9 29/2/9 28/2/9
f 25/2/10 23/2/10 27/2/10
f 22/2/11 21/2/11 19/2/11
f 80/2/5 86/2/5 84/2/5
f 96/2/6 85/2/6 79/2/6
f 79/2/6 81/2/6 96/2/6
f 34/2/2 36/2/2 35/2/2
f 36/2/2 40/2/2 35/2/2
f 40/2/2 39/2/2 35/2/2
f 31/2/6 33/2/6 35/2/6
f 67/2/3 73/2/3 74/2/3
f 73/2/3 78/2/3 74/2/3
f 78/2/3 77/2/3 74/2/3
f 52/2/8 53/2/8 54/2/8
f 44/2/5 50/2/5 48/2/5
f 43/2/6 45/2/6 47/2/6
f 50/2/9 53/2/9 52/2/9
f 49/2/10 47/2/10 51/2/10
f 64/2/12 102/2/12 103/2/12
f 43/2/3 49/2/3 50/2/3
f 49/2/3 54/2/3 50/2/3
f 54/2/3 53/2/3 50/2/3
f 61/2/6 55/2/6 100/2/6
f 55/2/6 57/2/6 104/2/6
f 57/2/6 59/2/6 104/2/6
f 87/2/24 88/2/24 95/2/24
f 88/2/25 89/2/25 95/2/25
f 101/2/26 102/2/26 64/2/26
f 104/2/27 59/2/27 63/2/27
f 46/2/2 48/2/2 47/2/2
f 48/2/2 52/2/2 47/2/2
f 52/2/2 51/2/2 47/2/2
f 76/2/8 77/2/8 78/2/8
f 37/2/10 35/2/10 39/2/10
f 68/2/5 74/2/5 72/2/5
f 67/2/6 69/2/6 71/2/6
f 74/2/9 77/2/9 76/2/9
f 73/2/10 71/2/10 75/2/10
f 22/2/2 24/2/2 23/2/2
f 24/2/2 28/2/2 23/2/2
f 28/2/2 27/2/2 23/2/2
f 86/2/9 89/2/9 88/2/9
f 34/2/11 33/2/11 31/2/11
f 79/2/3 85/2/3 86/2/3
f 85/2/3 90/2/3 86/2/3
f 90/2/3 89/2/3 86/2/3
f 70/2/2 72/2/2 71/2/2
f 72/2/2 76/2/2 71/2/2
f 76/2/2 75/2/2 71/2/2
f 40/2/28 36/2/28 105/2/28
f 36/2/29 38/2/29 105/2/29
f 96/2/10 83/2/10 87/2/10
f 85/2/30 96/2/30 95/2/30
f 62/2/5 97/2/5 56/2/5
f 97/2/5 101/2/5 56/2/5
f 101/2/5 60/2/5 58/2/5
f 98/2/9 97/2/9 62/2/9
f 98/2/8 65/2/8 66/2/8
f 61/2/10 100/2/10 99/2/10
f 55/2/3 61/2/3 62/2/3
f 61/2/3 66/2/3 62/2/3
f 66/2/3 65/2/3 62/2/3
f 102/2/31 101/2/31 97/2/31
f 103/2/22 102/2/22 98/2/22
f 100/2/32 104/2/32 103/2/32
f 105/2/8 41/2/8 42/2/8
f 42/2/8 39/2/8 105/2/8
