# Blender 5.2.2 LTS
# www.blender.org
mtllib ruins_kr_pillar_a.mtl
o piece
v 0.731205 -3.783866 -0.627057
v -0.731205 -3.783866 -0.627057
v 0.731205 -2.321451 -0.627057
v -0.731205 -2.321451 -0.627057
v 0.731205 -2.321451 0.546616
v -0.731205 -2.321451 0.546616
v 0.731205 -3.783866 0.546616
v -0.731205 -3.783866 0.546616
v 0.394996 -1.833008 -0.627057
v -0.394992 -1.833008 -0.627057
v -0.394992 -1.833008 0.546616
v 0.394996 -1.833008 0.546616
v 0.394996 1.902032 -0.627058
v -0.394992 1.902032 -0.627058
v -0.394992 1.902032 0.546616
v 0.394996 1.902032 0.546616
v 0.644253 2.363234 -0.627058
v -0.644253 2.363234 -0.627058
v -0.644253 2.363234 0.546616
v 0.644253 2.363234 0.546616
v 0.644253 3.783866 -0.627058
v -0.644253 3.783866 -0.627058
v -0.644253 3.783866 0.546615
v 0.644253 3.783866 0.546615
v 0.603247 -2.368242 0.546616
v -0.603243 -2.368242 0.546616
v -0.603243 -3.655905 0.546616
v 0.603247 -3.655905 0.546616
v 0.282771 -1.971327 0.546616
v -0.282767 -1.971327 0.546616
v 0.282771 2.038198 0.546616
v -0.282767 2.038198 0.546616
v 0.531511 2.408426 0.546616
v -0.531507 2.408426 0.546616
v 0.531511 3.659560 0.546615
v -0.531507 3.659560 0.546615
v 0.573120 -2.247607 -0.454066
v -0.573116 -2.247607 -0.454066
v 0.573120 2.720542 -0.454066
v -0.573116 2.720542 -0.454066
v 0.573120 2.720542 0.373627
v -0.573116 2.720542 0.373627
v 0.573120 -2.247607 0.373628
v -0.573116 -2.247607 0.373628
v 0.496531 -2.432395 0.627058
v -0.496521 -2.432395 0.627058
v -0.496521 -3.565933 0.627058
v 0.496524 -3.565933 0.627058
v 0.186755 -2.040034 0.627058
v -0.186751 -2.040034 0.627058
v 0.186755 2.105311 0.627057
v -0.186751 2.105311 0.627057
v 0.437483 2.471555 0.627057
v -0.437479 2.471555 0.627057
v 0.437483 3.572938 0.627057
v -0.437479 3.572938 0.627057
vn -0.0000 1.0000 -0.0000
vn -0.0000 -1.0000 -0.0000
vn -1.0000 -0.0000 -0.0000
vn 1.0000 -0.0000 -0.0000
vn -0.8237 0.5670 -0.0000
vn 0.8237 0.5670 -0.0000
vn -0.0000 -0.0000 -1.0000
vn -0.8797 -0.4755 -0.0000
vn -0.0000 -0.0000 1.0000
vn 0.8797 -0.4755 -0.0000
vn -0.6019 -0.0000 0.7986
vn -0.0000 -0.6665 0.7455
vn 0.6019 -0.0000 0.7986
vn 0.4251 0.3432 0.8376
vn -0.4423 0.3492 0.8261
vn 0.6422 -0.0000 0.7665
vn -0.6422 -0.0000 0.7665
vn 0.4699 -0.3157 0.8243
vn -0.4778 -0.3271 0.8153
vn 0.6501 -0.0000 0.7599
vn -0.0000 0.6805 0.7328
vn -0.6501 -0.0000 0.7599
vn 0.6019 -0.0000 0.7985
vn 0.4423 0.3492 0.8261
vn -0.4250 0.3432 0.8376
vn 0.4778 -0.3271 0.8153
vn -0.4699 -0.3157 0.8243
vt 0.625000 0.875000
vt 0.875000 0.625000
s 0
usemtl ruins_kr_pillar_a
f 22/1/1 24/1/1 21/1/1
f 8/1/2 1/1/2 7/1/2
f 2/1/3 6/1/3 4/1/3
f 1/1/4 5/1/4 7/1/4
f 6/1/5 10/1/5 4/1/5
f 3/1/6 12/1/6 5/1/6
f 10/1/3 15/1/3 14/1/3
f 9/1/4 16/1/4 12/1/4
f 10/1/7 14/1/7 9/1/7
f 14/1/8 19/1/8 18/1/8
f 49/2/9 51/2/9 50/2/9
f 13/1/10 20/1/10 16/1/10
f 18/1/3 23/1/3 22/1/3
f 17/1/4 24/1/4 20/1/4
f 28/1/9 7/1/9 5/1/9
f 19/1/9 36/1/9 23/1/9
f 38/2/7 39/2/7 37/2/7
f 40/2/1 41/2/1 39/2/1
f 42/2/9 43/2/9 41/2/9
f 44/2/2 37/2/2 43/2/2
f 38/2/3 42/2/3 40/2/3
f 37/2/4 41/2/4 43/2/4
f 26/2/11 47/2/11 46/2/11
f 27/2/12 48/2/12 47/2/12
f 25/2/13 48/2/13 28/2/13
f 29/2/14 45/2/14 25/2/14
f 30/2/15 46/2/15 50/2/15
f 29/2/16 51/2/16 49/2/16
f 30/2/17 52/2/17 32/2/17
f 33/2/18 51/2/18 31/2/18
f 34/2/19 52/2/19 54/2/19
f 33/2/20 55/2/20 53/2/20
f 36/2/21 55/2/21 35/2/21
f 34/2/22 56/2/22 36/2/22
f 22/1/1 23/1/1 24/1/1
f 8/1/2 2/1/2 1/1/2
f 2/1/3 8/1/3 6/1/3
f 1/1/4 3/1/4 5/1/4
f 6/1/5 11/1/5 10/1/5
f 3/1/6 9/1/6 12/1/6
f 10/1/3 11/1/3 15/1/3
f 9/1/4 13/1/4 16/1/4
f 14/1/7 18/1/7 13/1/7
f 18/1/7 22/1/7 17/1/7
f 13/1/7 18/1/7 17/1/7
f 22/1/7 21/1/7 17/1/7
f 9/1/7 3/1/7 4/1/7
f 3/1/7 1/1/7 2/1/7
f 14/1/7 13/1/7 9/1/7
f 2/1/7 4/1/7 3/1/7
f 4/1/7 10/1/7 9/1/7
f 14/1/8 15/1/8 19/1/8
f 51/2/9 53/2/9 52/2/9
f 53/2/9 55/2/9 54/2/9
f 52/2/9 53/2/9 54/2/9
f 55/2/9 56/2/9 54/2/9
f 50/2/9 46/2/9 45/2/9
f 46/2/9 47/2/9 48/2/9
f 51/2/9 52/2/9 50/2/9
f 48/2/9 45/2/9 46/2/9
f 45/2/9 49/2/9 50/2/9
f 13/1/10 17/1/10 20/1/10
f 18/1/3 19/1/3 23/1/3
f 17/1/4 21/1/4 24/1/4
f 34/1/9 19/1/9 32/1/9
f 19/1/9 15/1/9 32/1/9
f 23/1/9 36/1/9 24/1/9
f 36/1/9 35/1/9 24/1/9
f 32/1/9 15/1/9 11/1/9
f 30/1/9 32/1/9 11/1/9
f 26/1/9 30/1/9 11/1/9
f 20/1/9 24/1/9 35/1/9
f 20/1/9 35/1/9 33/1/9
f 16/1/9 20/1/9 31/1/9
f 20/1/9 33/1/9 31/1/9
f 26/1/9 11/1/9 6/1/9
f 27/1/9 26/1/9 6/1/9
f 12/1/9 16/1/9 31/1/9
f 27/1/9 6/1/9 8/1/9
f 12/1/9 31/1/9 29/1/9
f 12/1/9 29/1/9 25/1/9
f 27/1/9 8/1/9 7/1/9
f 28/1/9 27/1/9 7/1/9
f 5/1/9 12/1/9 25/1/9
f 25/1/9 28/1/9 5/1/9
f 19/1/9 34/1/9 36/1/9
f 38/2/7 40/2/7 39/2/7
f 40/2/1 42/2/1 41/2/1
f 42/2/9 44/2/9 43/2/9
f 44/2/2 38/2/2 37/2/2
f 38/2/3 44/2/3 42/2/3
f 37/2/4 39/2/4 41/2/4
f 26/2/11 27/2/11 47/2/11
f 27/2/12 28/2/12 48/2/12
f 25/2/23 45/2/23 48/2/23
f 29/2/24 49/2/24 45/2/24
f 30/2/25 26/2/25 46/2/25
f 29/2/16 31/2/16 51/2/16
f 30/2/17 50/2/17 52/2/17
f 33/2/26 53/2/26 51/2/26
f 34/2/27 32/2/27 52/2/27
f 33/2/20 35/2/20 55/2/20
f 36/2/21 56/2/21 55/2/21
f 34/2/22 54/2/22 56/2/22
