# Blender 5.2.2 LTS
# www.blender.org
mtllib ruins_ch_brazier.mtl
o piece
v 0.434730 -0.831712 0.270449
v 0.434730 -0.831712 -0.270449
v 0.434730 -0.331165 0.270449
v 0.434730 -0.331165 -0.270449
v -0.434729 -0.331165 0.270449
v -0.434729 -0.331165 -0.270449
v -0.434729 -0.831712 0.270449
v -0.434729 -0.831712 -0.270449
v -0.270449 -0.831712 0.434729
v 0.270449 -0.831712 0.434729
v -0.270449 -0.331165 0.434729
v 0.270449 -0.331165 0.434729
v -0.270449 -0.331165 -0.434729
v 0.270449 -0.331165 -0.434729
v -0.270449 -0.831712 -0.434729
v 0.270449 -0.831712 -0.434729
v -0.395193 -0.188097 0.395193
v 0.395193 -0.188097 0.395193
v -0.395193 -0.188097 -0.395193
v 0.395193 -0.188097 -0.395193
v -0.500000 -0.889497 0.500000
v 0.500000 -0.889497 0.500000
v -0.500000 -0.889497 -0.500000
v 0.500000 -0.889497 -0.500000
v -0.403470 -0.889495 -0.403470
v 0.403470 -0.889495 -0.403470
v -0.403470 -0.889495 0.403471
v 0.403470 -0.889495 0.403471
v -0.545193 -1.007916 0.545193
v 0.545193 -1.007916 0.545193
v 0.545193 -0.911814 0.545193
v -0.545193 -0.911814 0.545193
v 0.545193 -1.007916 -0.545192
v 0.545193 -0.911814 -0.545192
v -0.545193 -1.007916 -0.545192
v -0.545193 -0.911814 -0.545192
v -0.565262 -0.959427 0.565262
v -0.565262 -0.959427 -0.565262
v 0.565262 -0.959427 -0.565262
v 0.565262 -0.959427 0.565262
v -0.395193 -0.297144 -0.395193
v 0.395193 -0.297144 -0.395193
v -0.395193 -0.297144 0.395193
v 0.395193 -0.297144 0.395193
v -0.452286 -0.218031 -0.452286
v 0.452286 -0.218031 -0.452286
v 0.452286 -0.278291 -0.452286
v -0.452286 -0.278291 -0.452286
v 0.452286 -0.278291 0.452286
v -0.452286 -0.278291 0.452286
v 0.452286 -0.218031 0.452286
v -0.452286 -0.218031 0.452286
v -0.464414 -0.248161 0.464414
v -0.464414 -0.248161 -0.464414
v 0.464414 -0.248161 -0.464414
v 0.464414 -0.248161 0.464414
v 0.205491 0.020467 -0.205491
v 0.000000 0.020467 -0.290609
v -0.205491 0.020467 -0.205491
v -0.205491 0.020467 0.205491
v 0.000000 0.020467 0.290609
v 0.205491 0.020467 0.205491
v 0.168819 0.259616 -0.168819
v 0.000000 0.259616 -0.238747
v -0.168820 0.259616 -0.168819
v -0.238747 0.259616 0.000000
v -0.168820 0.259616 0.168819
v 0.000000 0.259616 0.238747
v 0.168819 0.259616 0.168819
v 0.238746 0.259616 0.000000
v 0.000000 0.084213 -0.217004
v 0.153445 0.084213 -0.153445
v -0.153445 0.084213 -0.153445
v -0.217004 0.084213 0.000000
v -0.153445 0.084213 0.153445
v 0.000000 0.084213 0.217004
v 0.153445 0.084213 0.153445
v 0.217004 0.084213 0.000000
v 0.000000 -0.114956 -0.344725
v 0.243757 -0.114956 -0.243757
v -0.243757 -0.114956 -0.243757
v -0.344725 -0.114956 0.000000
v -0.243757 -0.114956 0.243757
v 0.000000 -0.114956 0.344725
v 0.243757 -0.114956 0.243757
v 0.344725 -0.114956 0.000000
v 0.212323 -0.045438 -0.212323
v 0.000000 -0.045438 -0.300270
v -0.212324 -0.045438 -0.212323
v -0.300271 -0.045438 0.000000
v -0.212324 -0.045438 0.212323
v 0.000000 -0.045438 0.300271
v 0.212323 -0.045438 0.212323
v 0.300270 -0.045438 0.000000
v 0.205491 0.298159 -0.205491
v 0.000000 0.298159 -0.290609
v -0.205492 0.298159 -0.205491
v -0.290609 0.298159 0.000000
v -0.205492 0.298159 0.205491
v 0.000000 0.298159 0.290609
v 0.205491 0.298159 0.205491
v 0.290609 0.298159 0.000000
v 0.280170 -0.134812 0.280170
v 0.000000 -0.134812 0.396221
v -0.280171 -0.134812 0.280171
v -0.396221 -0.134812 0.000000
v -0.280171 -0.134812 -0.280170
v 0.000000 -0.134812 -0.396221
v 0.280170 -0.134812 -0.280170
v 0.396221 -0.134812 0.000000
v 0.280170 -0.170070 0.280170
v 0.000000 -0.170070 0.396221
v -0.280171 -0.170070 0.280171
v -0.396221 -0.170070 0.000000
v -0.280171 -0.170070 -0.280170
v 0.000000 -0.170070 -0.396221
v 0.280170 -0.170070 -0.280170
v 0.396221 -0.170070 0.000000
v 0.000000 0.190338 -0.203165
v 0.143659 0.190338 -0.143659
v -0.143660 0.190338 -0.143659
v -0.203165 0.190338 0.000000
v -0.143660 0.190338 0.143659
v 0.000000 0.190338 0.203165
v 0.143659 0.190338 0.143659
v 0.203165 0.190338 0.000000
v 0.000000 -0.199014 -0.355380
v 0.251291 -0.199014 -0.251291
v -0.251291 -0.199014 -0.251291
v -0.355380 -0.199014 0.000000
v -0.251291 -0.199014 0.251291
v 0.000000 -0.199014 0.355380
v 0.251291 -0.199014 0.251291
v 0.355380 -0.199014 0.000000
v 0.000000 0.282570 -0.377260
v -0.326718 0.282570 -0.188630
v -0.326718 0.282570 0.188630
v 0.000000 0.282570 0.377261
v 0.326717 0.282570 0.188630
v 0.326717 0.282570 -0.188630
v 0.390569 0.391795 -0.390569
v 0.142958 0.391795 -0.533527
v -0.142958 0.391795 -0.533527
v -0.390569 0.391795 -0.390569
v -0.533527 0.391795 -0.142958
v -0.533527 0.391795 0.142958
v -0.390569 0.391795 0.390569
v -0.142958 0.391795 0.533527
v 0.142958 0.391795 0.533527
v 0.390569 0.391795 0.390569
v 0.533527 0.391795 0.142958
v 0.533527 0.391795 -0.142958
v 0.482922 0.488816 -0.482922
v 0.176761 0.488816 -0.659684
v -0.482922 0.488816 -0.482922
v -0.659684 0.488816 -0.176762
v -0.659684 0.488816 0.176762
v -0.482922 0.488816 0.482922
v -0.169296 0.497423 0.644893
v 0.176761 0.488816 0.659684
v 0.482922 0.488816 0.482922
v 0.659684 0.488816 0.176762
v 0.659684 0.488816 -0.176762
v 0.313647 0.335305 -0.178063
v 0.000000 0.333306 -0.357797
v -0.309861 0.333306 -0.178899
v 0.311030 0.335305 0.182595
v -0.309861 0.333306 0.178899
v 0.134799 0.435351 -0.503077
v 0.368222 0.433138 -0.363471
v -0.134142 0.433138 -0.500625
v -0.368278 0.435351 -0.368278
v -0.500625 0.433138 -0.134142
v -0.503077 0.435351 0.134799
v -0.366483 0.433138 0.366483
v 0.000000 0.333306 0.357797
v -0.134799 0.435351 0.503077
v 0.134142 0.433138 0.500625
v 0.368278 0.435351 0.368278
v 0.500626 0.433138 0.134142
v 0.503077 0.435351 -0.134799
v 0.192345 0.721251 -0.717842
v 0.525497 0.721251 -0.525497
v -0.192345 0.721251 -0.717842
v -0.525497 0.721251 -0.525497
v -0.717842 0.721251 -0.192345
v -0.717842 0.721251 0.192345
v -0.525497 0.721251 0.525497
v -0.192345 0.721251 0.717842
v 0.192345 0.721251 0.717842
v 0.525497 0.721251 0.525497
v 0.717842 0.721251 0.192345
v 0.717842 0.721251 -0.192345
v 0.209073 0.835044 -0.780270
v 0.571198 0.835044 -0.571197
v -0.209073 0.835044 -0.780270
v -0.571198 0.835043 -0.571197
v -0.780270 0.835044 -0.209073
v -0.780270 0.835044 0.209073
v -0.571198 0.835044 0.571197
v -0.209072 0.835044 0.780270
v 0.209073 0.835044 0.780270
v 0.571198 0.835043 0.571197
v 0.780270 0.835044 0.209073
v 0.780270 0.835044 -0.209073
v 0.600008 0.805411 -0.600008
v 0.219618 0.805410 -0.819626
v -0.219618 0.805410 -0.819626
v -0.600008 0.805411 -0.600008
v -0.819626 0.805411 -0.219618
v -0.819626 0.805411 0.219618
v -0.600008 0.805411 0.600008
v -0.219618 0.805411 0.819626
v 0.219618 0.805411 0.819626
v 0.600008 0.805411 0.600008
v 0.819626 0.805411 0.219618
v 0.819626 0.805411 -0.219618
v 0.654806 0.812396 -0.654806
v 0.239676 0.812396 -0.894481
v 0.657536 0.846156 -0.657536
v 0.240675 0.846156 -0.898211
v -0.239675 0.812396 -0.894482
v -0.240675 0.846156 -0.898211
v -0.654806 0.812396 -0.654806
v -0.657535 0.846156 -0.657536
v -0.894481 0.812396 -0.239676
v -0.898210 0.846156 -0.240675
v -0.894482 0.812396 0.239676
v -0.898210 0.846156 0.240675
v -0.654806 0.812396 0.654806
v -0.657535 0.846156 0.657536
v -0.239675 0.812397 0.894481
v -0.240675 0.846156 0.898211
v 0.239676 0.812397 0.894482
v 0.240675 0.846156 0.898211
v 0.654806 0.812396 0.654806
v 0.657536 0.846156 0.657536
v 0.894481 0.812396 0.239676
v 0.898210 0.846156 0.240675
v 0.894482 0.812396 -0.239676
v 0.898210 0.846156 -0.240675
v 0.552968 0.598695 -0.552968
v 0.568860 0.667523 -0.568860
v 0.202401 0.598695 -0.755368
v 0.208217 0.667523 -0.777078
v -0.202400 0.598695 -0.755368
v -0.208218 0.667523 -0.777078
v -0.552967 0.598695 -0.552968
v -0.568860 0.667523 -0.568860
v -0.755369 0.598695 -0.202400
v -0.777078 0.667523 -0.208217
v -0.755369 0.598695 0.202400
v -0.777078 0.667523 0.208217
v -0.552967 0.598695 0.552968
v -0.568860 0.667523 0.568860
v -0.202400 0.598695 0.755368
v -0.208218 0.667523 0.777078
v 0.202401 0.598695 0.755368
v 0.208217 0.667523 0.777078
v 0.552968 0.598695 0.552968
v 0.568860 0.667523 0.568860
v 0.755369 0.598695 0.202400
v 0.777078 0.667523 0.208217
v 0.755369 0.598695 -0.202400
v 0.777078 0.667523 -0.208217
v -0.808993 0.637517 -0.216769
v -0.216769 0.637516 -0.808993
v 0.216769 0.637516 -0.808993
v 0.592224 0.637517 -0.592224
v 0.808993 0.637516 -0.216769
v 0.808993 0.637517 0.216769
v 0.592224 0.637517 0.592224
v 0.216769 0.637517 0.808993
v -0.216769 0.637517 0.808993
v -0.592224 0.637517 0.592224
v -0.808993 0.637517 0.216769
v -0.798138 0.613122 -0.213860
v -0.213860 0.613122 -0.798138
v 0.213860 0.613122 -0.798138
v 0.798138 0.613122 -0.213860
v 0.798138 0.613122 0.213860
v 0.584277 0.613122 0.584278
v 0.213860 0.613122 0.798138
v -0.213860 0.613122 0.798138
v -0.584277 0.613122 0.584278
v 0.297349 -0.025508 0.000000
v 0.250427 0.020467 0.097007
v 0.260921 0.046178 0.000000
v 0.242774 0.020467 -0.115482
v -0.158591 0.436665 0.591872
v -0.137961 0.488816 0.659684
v -0.190808 0.549016 0.712107
v -0.204146 0.488816 0.643873
v -0.742730 0.613122 0.309830
v -0.804289 0.626945 0.215509
v -0.798138 0.613122 0.147847
v -0.162142 0.446857 -0.605124
v -0.276793 0.488816 -0.601930
v -0.183027 0.515670 -0.683069
v -0.080530 0.488816 -0.659684
v 0.555121 0.613122 -0.601111
v 0.599449 0.613122 -0.558000
v 0.659684 0.488816 0.099308
v 0.659684 0.488816 -0.101915
v 0.681905 0.514333 0.013454
v 0.633475 0.468660 0.012776
v 0.636908 0.500621 0.012614
v -0.326718 0.282570 -0.125989
v -0.326718 0.282570 -0.066061
v -0.409436 0.326257 -0.119521
v -0.252986 0.282570 -0.075878
v -0.326718 0.306611 -0.096237
v -0.619650 0.637517 -0.544720
v -0.542583 0.637517 -0.620884
v -0.553734 0.613122 -0.601911
v -0.606308 0.613122 -0.546119
v -0.491607 0.846156 0.753335
v -0.387765 0.846156 0.813288
v -0.440611 0.829870 0.780700
v -0.408731 0.839366 0.717970
v -0.296880 -0.022307 0.000000
v -0.275824 0.020467 0.035694
v -0.226805 0.075725 0.000000
v -0.280048 0.020467 -0.025498
v -0.311657 -0.218031 -0.452286
v -0.101810 -0.218031 -0.452286
v -0.204313 -0.248161 -0.464414
v -0.201210 -0.199654 -0.417235
v 0.192672 -0.188097 0.395193
v 0.285434 -0.188097 0.395193
v 0.245570 -0.218031 0.452286
v 0.213051 -0.188097 0.315879
v -0.402403 -0.813100 0.402403
v -0.397184 -0.439629 0.397184
v -0.356134 -0.590147 0.399287
v -0.399361 -0.595382 0.344615
v -0.157108 0.848713 0.185514
v -0.089105 0.640993 0.192668
v -0.114541 0.591080 0.102967
v -0.139706 0.778427 0.033378
v -0.229618 0.731264 0.298986
v -0.247101 0.566073 0.247861
v -0.232327 0.744951 -0.021071
v -0.302970 0.871041 0.084100
v -0.363651 0.774548 0.193379
v -0.073352 0.728097 0.122132
v -0.157814 0.581958 0.253105
v 0.102612 0.883225 -0.037137
v 0.050605 0.688182 0.034521
v -0.050165 0.683436 0.053672
v -0.056068 0.848153 -0.058104
v 0.158676 0.822263 0.121085
v 0.056737 0.721586 0.213272
v -0.127942 0.890775 0.012904
v -0.000590 1.007916 0.026301
v 0.059913 0.955667 0.162249
v 0.016625 0.754535 -0.050119
v 0.077828 0.676925 0.139193
v 0.063619 0.776516 -0.179877
v -0.030202 0.677688 -0.350914
v -0.123529 0.722556 -0.372399
v -0.051913 0.871587 -0.257351
v 0.006469 0.607540 -0.169446
v -0.137298 0.562816 -0.256273
v -0.153221 0.882352 -0.209553
v -0.055300 0.844870 -0.064789
v -0.094484 0.692371 -0.052812
v -0.001690 0.784274 -0.325668
v -0.074957 0.583696 -0.318962
v -0.343340 0.688426 0.019717
v -0.204586 0.768185 -0.129310
v -0.253669 0.838784 -0.190883
v -0.390635 0.837404 -0.043189
v -0.277887 0.585225 -0.110641
v -0.250399 0.656048 -0.266963
v -0.472631 0.839418 -0.120238
v -0.513205 0.686600 -0.036868
v -0.450815 0.588231 -0.143478
v -0.271544 0.813220 -0.049941
v -0.192078 0.696178 -0.210038
v 0.267753 0.776516 -0.397339
v 0.173932 0.677688 -0.568376
v 0.080605 0.722556 -0.589862
v 0.152220 0.871587 -0.474813
v 0.210602 0.607540 -0.386909
v 0.066836 0.562816 -0.473736
v 0.050913 0.882352 -0.427016
v 0.148834 0.844870 -0.282251
v 0.109650 0.692371 -0.270274
v 0.202444 0.784274 -0.543130
v 0.129177 0.583696 -0.536423
v 0.270245 0.737940 -0.052209
v 0.295154 0.614886 -0.231263
v 0.276443 0.672375 -0.318036
v 0.299766 0.827587 -0.191781
v 0.158307 0.603515 -0.088645
v 0.118692 0.570909 -0.254703
v 0.213203 0.879818 -0.241202
v 0.150913 0.869643 -0.073971
v 0.055123 0.745980 -0.095570
v 0.339083 0.712431 -0.194305
v 0.207122 0.552347 -0.245337
v 0.332068 0.783778 -0.195589
v 0.374096 0.588734 -0.117659
v 0.347667 0.583989 -0.018548
v 0.244382 0.748706 -0.061686
v 0.498953 0.722815 -0.177519
v 0.537835 0.622138 -0.045692
v 0.277212 0.791328 0.033867
v 0.344494 0.908468 -0.075088
v 0.493232 0.856219 -0.070673
v 0.283092 0.655087 -0.123731
v 0.480221 0.577478 -0.096812
v 0.340151 0.876288 0.077512
v 0.289271 0.672053 0.037754
v 0.191011 0.654877 0.062123
v 0.179010 0.853627 0.058310
v 0.410584 0.741157 0.170638
v 0.315582 0.603811 0.204356
v 0.116649 0.849114 0.148397
v 0.248731 0.944016 0.208959
v 0.321506 0.828366 0.287707
v 0.248813 0.772613 0.006574
v 0.327080 0.606836 0.116119
v 0.255574 0.783778 0.232739
v 0.203567 0.588735 0.304397
v 0.102797 0.583989 0.323548
v 0.096894 0.748706 0.211772
v 0.311638 0.722815 0.390961
v 0.209700 0.622138 0.483148
v 0.025020 0.791328 0.282780
v 0.152372 0.908468 0.296177
v 0.212875 0.856219 0.432125
v 0.169588 0.655087 0.219757
v 0.230790 0.577478 0.409069
v 0.005880 0.838411 0.238445
v -0.042173 0.631880 0.268728
v -0.140250 0.622436 0.297636
v -0.154900 0.808515 0.228205
v 0.077901 0.742730 0.370928
v -0.015331 0.623060 0.448470
v -0.217400 0.833274 0.314839
v -0.086738 0.944641 0.340229
v -0.012602 0.862606 0.452685
v -0.083901 0.715875 0.206079
v -0.003674 0.596827 0.364190
v 0.116051 0.647540 0.674882
v 0.668678 0.603626 0.233643
v -0.616579 0.616533 0.093835
v -0.157129 0.600568 -0.612799
v 0.443527 0.641761 0.598864
v 0.227987 0.732056 -0.479284
v -0.403187 0.578621 -0.488775
v -0.131179 0.699122 0.033148
v 0.055110 0.935929 -0.137410
v -0.199665 0.872847 0.364227
v -0.366359 0.784370 -0.004871
v -0.406993 0.635720 0.565694
v -0.405552 0.846178 0.241610
v 0.260707 0.587919 -0.649627
v 0.292759 0.775390 -0.152186
v 0.453627 0.730417 0.003040
v 0.614537 0.617399 -0.338764
v 0.233516 0.751380 0.165203
v 0.183730 0.762613 0.443527
v -0.216093 0.896769 -0.059312
vn 1.0000 -0.0000 -0.0000
vn -0.0000 1.0000 -0.0000
vn -1.0000 -0.0000 -0.0000
vn -0.0000 -1.0000 -0.0000
vn -0.0000 -0.0000 -1.0000
vn -0.0000 -0.0000 1.0000
vn -0.0000 -0.3824 0.9240
vn -0.9155 0.1342 -0.3792
vn 0.9240 -0.3824 -0.0000
vn -0.9240 -0.3824 -0.0000
vn -0.0000 -0.3824 -0.9240
vn -0.0000 0.0140 0.9999
vn -0.0000 -0.7927 0.6096
vn 0.9999 0.0140 -0.0000
vn -0.3048 -0.7927 -0.5279
vn -0.0000 0.8857 -0.4644
vn 0.6318 0.7296 -0.2617
vn -0.0000 0.8966 0.4428
vn 0.4428 0.8966 -0.0000
vn -0.4428 0.8966 -0.0000
vn -0.0000 0.8966 -0.4428
vn -0.9215 0.3884 -0.0000
vn -0.0000 0.3884 -0.9215
vn 0.9215 0.3884 -0.0000
vn -0.0000 0.3884 0.9215
vn -0.0000 0.0140 -0.9999
vn -0.0000 -0.3734 0.9277
vn 0.9277 -0.3734 -0.0000
vn -0.9277 -0.3734 -0.0000
vn -0.4970 -0.1098 0.8608
vn -0.0000 -0.9496 -0.3136
vn -0.0000 -0.9496 0.3136
vn 0.3136 -0.9496 -0.0000
vn 0.4644 0.8857 -0.0000
vn -0.3136 -0.9496 -0.0000
vn -0.4644 0.8857 -0.0000
vn -0.9277 0.3734 -0.0000
vn -0.1209 0.6961 -0.7077
vn 0.9277 0.3734 -0.0000
vn 0.2329 -0.7934 -0.5623
vn -0.2329 -0.7934 -0.5623
vn -0.5623 -0.7934 -0.2329
vn -0.5623 -0.7934 0.2329
vn -0.2329 -0.7934 0.5623
vn 0.2329 -0.7934 0.5623
vn 0.5623 -0.7934 0.2329
vn 0.3799 0.1196 -0.9172
vn -0.3457 -0.4287 -0.8347
vn -0.8347 -0.4287 -0.3457
vn -0.8347 -0.4287 0.3457
vn -0.3457 -0.4287 0.8347
vn 0.3457 -0.4287 0.8347
vn 0.8347 -0.4287 0.3457
vn 0.8347 -0.4287 -0.3457
vn 0.2399 -0.7792 -0.5791
vn -0.2399 -0.7792 -0.5791
vn -0.5791 -0.7792 -0.2399
vn -0.5791 -0.7792 0.2399
vn -0.2399 -0.7792 0.5791
vn 0.2399 -0.7792 0.5791
vn 0.5791 -0.7792 0.2399
vn 0.5791 -0.7792 -0.2399
vn 0.2617 0.7296 -0.6318
vn -0.2617 0.7296 -0.6318
vn -0.2617 0.7296 0.6318
vn 0.2617 0.7296 0.6318
vn 0.9155 0.1342 0.3792
vn 0.3792 0.1342 -0.9155
vn -0.3792 0.1342 -0.9155
vn -0.7450 0.5326 0.4016
vn -0.7950 0.5683 -0.2120
vn -0.3792 0.1342 0.9155
vn 0.3792 0.1342 0.9155
vn -0.7912 -0.4065 0.4568
vn 0.3295 0.5087 -0.7954
vn -0.3295 0.5087 -0.7954
vn -0.7954 0.5087 -0.3295
vn -0.7954 0.5087 0.3295
vn -0.3295 0.5087 0.7954
vn 0.3295 0.5087 0.7954
vn 0.7954 0.5087 0.3295
vn 0.7954 0.5087 -0.3295
vn 0.1474 0.9229 0.3558
vn -0.1474 0.9229 0.3558
vn -0.3558 0.9229 0.1474
vn -0.3558 0.9229 -0.1474
vn -0.1474 0.9229 -0.3558
vn 0.1474 0.9229 -0.3558
vn 0.3558 0.9229 -0.1474
vn 0.3558 0.9229 0.1474
vn 0.3827 -0.0000 0.9239
vn -0.3827 -0.0000 0.9239
vn -0.9239 -0.0000 0.3827
vn -0.9239 -0.0000 -0.3827
vn -0.3827 -0.0000 -0.9239
vn 0.3827 -0.0000 -0.9239
vn 0.9239 -0.0000 -0.3827
vn 0.9239 -0.0000 0.3827
vn 0.3457 -0.4287 -0.8347
vn -0.3799 0.1196 -0.9172
vn -0.9172 0.1196 -0.3799
vn -0.9172 0.1196 0.3799
vn -0.3799 0.1196 0.9172
vn 0.3799 0.1196 0.9172
vn 0.9172 0.1196 0.3799
vn 0.9172 0.1196 -0.3799
vn 0.5623 -0.7934 -0.2329
vn -0.2342 0.8866 0.3989
vn -0.0015 0.8190 0.5738
vn 0.2318 0.8860 0.4016
vn 0.4962 0.8190 0.2882
vn 0.4637 0.8860 -0.0000
vn 0.4977 0.8190 -0.2856
vn 0.2318 0.8860 -0.4016
vn 0.0015 0.8190 -0.5738
vn -0.2319 0.8860 -0.4015
vn -0.4962 0.8189 -0.2882
vn -0.4592 0.8883 -0.0033
vn -0.4977 0.8189 0.2856
vn -0.4041 0.6059 0.6852
vn 0.0023 0.6023 0.7983
vn 0.3971 0.6023 0.6925
vn 0.6925 0.6023 0.3971
vn 0.7983 0.6023 0.0023
vn 0.6902 0.6023 -0.4011
vn 0.4011 0.6023 -0.6902
vn -0.0023 0.6023 -0.7983
vn -0.3971 0.6023 -0.6925
vn -0.6925 0.6023 -0.3971
vn -0.7983 0.6023 -0.0023
vn -0.6901 0.6023 0.4012
vn -0.6087 0.7413 -0.2827
vn -0.6318 0.7296 -0.2617
vn -0.0000 -0.6567 -0.7541
vn 0.2335 -0.8843 -0.4044
vn -0.0000 -0.8196 -0.5729
vn -0.2335 -0.8843 -0.4044
vn -0.4961 -0.8196 -0.2864
vn -0.3048 -0.7927 0.5279
vn -0.0000 -0.3734 -0.9277
vn -0.4961 -0.8196 0.2864
vn -0.2335 -0.8843 0.4044
vn -0.0000 -0.8196 0.5729
vn 0.2335 -0.8843 0.4044
vn 0.4961 -0.8196 0.2864
vn 0.4670 -0.8843 -0.0000
vn 0.4961 -0.8196 -0.2864
vn 0.3048 -0.7927 -0.5279
vn -0.2314 -0.5725 -0.7865
vn -0.5279 -0.7927 -0.3048
vn -0.6096 -0.7927 -0.0000
vn -0.5279 -0.7927 0.3048
vn 0.1353 -0.6378 0.7582
vn -0.4667 -0.6268 0.6240
vn 0.3048 -0.7927 0.5279
vn 0.5279 -0.7927 0.3048
vn -0.0000 -0.6567 0.7541
vn 0.5279 -0.7927 -0.3048
vn -0.0469 0.9956 0.0812
vn -0.0000 0.9956 0.0938
vn 0.0469 0.9956 0.0812
vn 0.0812 0.9956 0.0469
vn 0.0938 0.9956 -0.0000
vn 0.0812 0.9956 -0.0469
vn 0.0469 0.9956 -0.0812
vn -0.0000 0.9956 -0.0938
vn -0.0469 0.9956 -0.0812
vn -0.0812 0.9956 -0.0469
vn -0.0938 0.9956 -0.0000
vn -0.0812 0.9956 0.0469
vn -0.4384 0.4810 0.7593
vn -0.0000 0.4810 0.8767
vn 0.4384 0.4810 0.7593
vn 0.7593 0.4810 0.4384
vn 0.8767 0.4810 -0.0000
vn 0.7593 0.4810 -0.4384
vn 0.4384 0.4810 -0.7593
vn -0.0000 0.4810 -0.8767
vn -0.4384 0.4810 -0.7593
vn -0.7593 0.4810 -0.4384
vn -0.8767 0.4810 -0.0000
vn -0.7593 0.4810 0.4384
vn 0.4970 -0.1098 -0.8608
vn -0.0000 -0.1098 -0.9940
vn -0.4970 -0.1098 -0.8608
vn -0.8608 -0.1098 -0.4970
vn -0.9940 -0.1098 -0.0000
vn -0.8608 -0.1098 0.4970
vn 0.6096 -0.7927 -0.0000
vn -0.0000 0.3734 0.9277
vn -0.0000 -0.1098 0.9940
vn 0.4970 -0.1098 0.8608
vn 0.8608 -0.1098 0.4970
vn 0.9940 -0.1098 -0.0000
vn 0.8608 -0.1098 -0.4970
vn 0.0465 -0.9957 -0.0805
vn -0.0000 -0.9957 -0.0929
vn -0.0465 -0.9957 -0.0805
vn -0.0805 -0.9957 -0.0465
vn -0.0929 -0.9957 -0.0000
vn -0.0805 -0.9957 0.0465
vn -0.0465 -0.9957 0.0805
vn -0.0000 -0.9957 0.0929
vn 0.0465 -0.9957 0.0805
vn 0.0805 -0.9957 0.0465
vn 0.0929 -0.9957 -0.0000
vn 0.0805 -0.9957 -0.0465
vn 0.1785 -0.7830 -0.5958
vn 0.5718 -0.7925 -0.2119
vn -0.0000 -0.9475 -0.3196
vn -0.8826 0.0392 -0.4684
vn -0.3555 -0.1415 -0.9239
vn -0.4679 -0.8733 0.1359
vn -0.4579 -0.8724 0.1710
vn -0.1598 -0.9475 0.2768
vn -0.0000 -0.9475 0.3196
vn 0.1598 -0.9475 0.2768
vn 0.2768 -0.9475 0.1598
vn 0.3196 -0.9475 -0.0000
vn 0.3771 -0.6567 -0.6531
vn -0.1308 -0.8862 -0.4444
vn -0.6531 -0.6567 -0.3771
vn -0.7541 -0.6567 -0.0000
vn -0.6531 -0.6567 0.3771
vn 0.1680 -0.7553 0.6335
vn -0.4302 -0.7773 0.4590
vn 0.3771 -0.6567 0.6531
vn 0.6531 -0.6567 0.3771
vn 0.7541 -0.6567 -0.0000
vn 0.6531 -0.6567 -0.3771
vn 0.4778 -0.2949 -0.8275
vn -0.0000 -0.2949 -0.9555
vn -0.4778 -0.2949 -0.8275
vn -0.8275 -0.2949 -0.4778
vn -0.9555 -0.2949 -0.0000
vn -0.8275 -0.2949 0.4778
vn -0.4778 -0.2949 0.8275
vn -0.0000 -0.2949 0.9555
vn 0.4778 -0.2949 0.8275
vn 0.8275 -0.2949 0.4778
vn 0.9555 -0.2949 -0.0000
vn 0.8275 -0.2949 -0.4778
vn -0.0000 0.7286 -0.6850
vn 0.3425 0.7286 -0.5932
vn 0.5932 0.7286 -0.3425
vn 0.6850 0.7286 -0.0000
vn 0.5932 0.7286 0.3425
vn 0.3425 0.7286 0.5932
vn -0.0000 0.7286 0.6850
vn -0.3425 0.7286 0.5932
vn -0.5932 0.7286 0.3425
vn -0.6850 0.7286 -0.0000
vn -0.0000 -0.4065 -0.9136
vn 0.9136 -0.4065 -0.0000
vn 0.7912 -0.4065 0.4568
vn 0.4568 -0.4066 0.7912
vn -0.0000 -0.4065 0.9136
vn -0.4568 -0.4066 0.7912
vn 0.6736 0.7387 -0.0243
vn 0.8780 -0.4776 -0.0316
vn 0.9155 0.1342 -0.3792
vn -0.2768 -0.9475 0.1598
vn -0.0000 -0.7927 -0.6096
vn -0.3771 -0.6567 0.6531
vn -0.3196 -0.9475 -0.0000
vn -0.9999 0.0140 -0.0000
vn -0.3771 -0.6567 -0.6531
vn 0.1598 -0.9475 -0.2768
vn 0.4568 -0.4065 -0.7912
vn 0.7912 -0.4065 -0.4568
vn 0.2768 -0.9475 -0.1598
vn 0.2889 -0.9355 -0.2033
vn 0.9583 -0.1043 -0.2660
vn 0.9734 -0.1035 0.2043
vn 0.2854 -0.9459 0.1543
vn 0.6318 0.7296 0.2617
vn -0.3401 -0.7314 0.5910
vn -0.3928 -0.7153 0.5780
vn -0.0827 -0.7795 -0.6210
vn -0.0104 -0.7821 -0.6231
vn -0.5932 0.7286 -0.3425
vn -0.3425 0.7286 -0.5932
vn -0.4568 -0.4065 -0.7912
vn -0.1598 -0.9475 -0.2768
vn -0.2768 -0.9475 -0.1598
vn -0.7912 -0.4065 -0.4568
vn 0.1787 0.9553 0.2355
vn -0.2924 0.9563 -0.0038
vn -0.9136 -0.4065 -0.0000
vn -0.4670 -0.8843 -0.0000
vn -0.6318 0.7296 0.2617
vn -0.0000 0.3734 -0.9277
vn 0.1125 0.6891 -0.7159
vn 0.4029 0.9094 0.1035
vn -0.0000 0.8857 0.4644
vn -0.2979 0.9151 0.2718
vn -0.7595 -0.1985 0.6195
vn -0.7808 0.1704 0.6010
vn 0.7504 0.6286 -0.2046
vn 0.8027 0.2809 0.5261
vn 0.9552 -0.2703 -0.1205
vn 0.6278 0.0635 0.7758
vn -0.0036 -0.2953 0.9554
vn 0.1757 -0.9844 -0.0092
vn -0.4253 -0.7426 -0.5173
vn 0.1687 0.6854 -0.7084
vn -0.8548 -0.0478 -0.5168
vn -0.7562 -0.5249 -0.3907
vn 0.3764 0.8567 -0.3527
vn -0.2630 0.7910 0.5524
vn -0.6426 -0.1636 0.7485
vn 0.5528 -0.2239 -0.8027
vn 0.7545 -0.1370 -0.6418
vn 0.1278 0.0146 -0.9917
vn 0.6945 -0.4039 -0.5955
vn -0.0757 -0.7993 -0.5962
vn 0.8273 -0.4936 -0.2682
vn 0.7988 -0.3869 0.4607
vn -0.3234 -0.8483 0.4193
vn -0.7955 -0.1849 0.5770
vn -0.4130 0.5334 -0.7382
vn -0.6122 0.6077 0.5060
vn -0.6486 0.1705 0.7418
vn 0.0147 0.4631 -0.8862
vn 0.7477 0.6593 -0.0794
vn 0.5644 0.1685 0.8081
vn -0.7539 -0.3872 -0.5307
vn -0.5473 -0.4833 -0.6833
vn 0.7161 0.6364 -0.2869
vn 0.9003 -0.1435 -0.4109
vn 0.2885 0.1469 -0.9461
vn 0.7928 -0.4973 -0.3524
vn 0.3048 -0.9523 -0.0141
vn -0.5480 -0.4604 -0.6983
vn -0.9877 -0.0267 -0.1539
vn 0.1690 0.9759 0.1384
vn -0.7726 0.2445 0.5859
vn -0.9626 -0.0856 0.2570
vn 0.5807 0.8050 0.1219
vn 0.6577 -0.1105 0.7452
vn -0.0703 -0.8347 0.5463
vn -0.2596 0.6652 -0.7001
vn -0.0078 0.6134 -0.7897
vn 0.1365 0.4218 0.8964
vn 0.7462 -0.0592 0.6631
vn 0.7059 0.6758 0.2121
vn 0.8623 -0.3042 0.4049
vn 0.6803 -0.7052 -0.1999
vn 0.5307 0.3338 -0.7791
vn -0.2850 0.3641 -0.8867
vn -0.5855 0.5025 0.6362
vn -0.8750 -0.0313 -0.4832
vn -0.5321 0.0321 -0.8461
vn -0.3056 0.2864 0.9081
vn -0.1923 -0.7747 0.6023
vn 0.0607 -0.9132 -0.4031
vn 0.0084 0.9998 0.0172
vn 0.2059 0.9580 0.1999
vn 0.8802 0.2923 0.3739
vn 0.7391 -0.5027 0.4483
vn 0.8924 -0.2630 -0.3667
vn 0.4858 -0.7749 0.4044
vn -0.2236 -0.9449 0.2389
vn -0.0163 -0.5111 -0.8594
vn -0.4639 0.1799 -0.8674
vn 0.4152 0.8855 0.2085
vn -0.7466 0.6203 -0.2404
vn -0.7640 0.2596 -0.5907
vn 0.5876 0.6186 0.5216
vn -0.1982 -0.0176 0.9800
vn -0.7807 -0.5511 0.2945
vn 0.6293 0.4313 -0.6465
vn 0.8133 0.2887 -0.5052
vn -0.8383 0.0147 -0.5451
vn -0.2355 -0.4039 -0.8839
vn -0.5701 -0.7993 -0.1903
vn 0.1169 -0.4936 -0.8618
vn 0.7614 -0.3869 -0.5201
vn 0.2377 -0.8483 0.4732
vn 0.1751 -0.1850 0.9670
vn -0.8443 0.5334 0.0521
vn 0.1906 0.6077 0.7710
vn 0.3873 0.1705 0.9061
vn -0.7922 0.4631 -0.3975
vn 0.2526 0.6593 -0.7082
vn 0.9729 0.1685 -0.1583
vn -0.8051 -0.3872 0.4493
vn -0.8530 -0.4833 0.1970
vn 0.0218 0.5514 -0.8340
vn 0.6125 0.0013 -0.7905
vn -0.1667 -0.3526 -0.9208
vn 0.7762 -0.2471 -0.5801
vn 0.8293 -0.5517 0.0891
vn -0.3064 -0.9492 -0.0725
vn -0.7355 -0.4896 0.4684
vn -0.4703 0.8356 -0.2837
vn -0.5331 0.2207 0.8168
vn -0.5595 -0.2754 0.7817
vn -0.0635 0.8685 -0.4917
vn 0.7576 0.6186 0.2082
vn 0.6529 -0.2787 0.7044
vn -0.8193 -0.0604 -0.5702
vn -0.6336 -0.0531 -0.7718
vn -0.3233 -0.8483 0.4193
vn 0.0164 0.2441 -0.9696
vn 0.6142 -0.2525 -0.7477
vn -0.1599 -0.6400 -0.7516
vn 0.7807 -0.4149 -0.4672
vn 0.8364 -0.4799 0.2650
vn -0.2935 -0.9235 0.2469
vn -0.7299 -0.3165 0.6058
vn -0.4808 0.6880 -0.5435
vn -0.5378 0.4717 0.6987
vn -0.5575 -0.0083 0.8301
vn -0.0740 0.6555 -0.7515
vn 0.7488 0.6627 -0.0102
vn 0.6549 -0.0208 0.7554
vn -0.8171 -0.2569 -0.5161
vn -0.6311 -0.3143 -0.7092
vn -0.1581 0.7160 0.6800
vn 0.9210 0.3893 -0.0137
vn 0.1714 0.9795 0.1061
vn -0.3123 0.8233 -0.4739
vn 0.3314 0.9312 -0.1519
vn -0.2587 0.8399 -0.4771
vn -0.1644 0.9844 0.0620
vn 0.4138 0.7326 -0.5404
vn 0.5312 0.8467 -0.0299
vn 0.3570 0.9259 0.1234
vn 0.3691 0.9156 0.1592
vn 0.1509 0.8668 0.4753
vn 0.1247 0.8733 0.4709
vn -0.0342 0.7597 -0.6494
vn -0.0955 0.8330 -0.5450
vn 0.0752 0.9968 -0.0268
vn -0.6370 0.7257 -0.2601
vn -0.1197 0.9909 -0.0614
vn 0.3118 0.3815 0.8702
vn 0.1784 0.4788 0.8596
vn 0.3277 0.8628 -0.3849
vn -0.7913 0.5144 0.3305
vn -0.3968 0.7706 0.4987
vn -0.6381 0.7168 -0.2812
vn -0.1577 0.9865 0.0452
vn 0.5376 0.8155 -0.2145
vn 0.4404 0.8745 -0.2031
vn -0.9155 0.1342 0.3792
vn -0.7912 -0.4066 0.4568
vn -0.0065 1.0000 -0.0000
vn -0.0064 1.0000 -0.0000
vn -0.2335 0.8843 0.4044
vn 0.2364 0.8840 0.4034
vn 0.4675 0.8840 -0.0030
vn 0.2312 0.8840 -0.4064
vn -0.2364 0.8840 -0.4034
vn -0.4675 0.8840 0.0030
vn -0.3998 0.6006 0.6924
vn -0.0000 0.6006 0.7995
vn 0.3998 0.6006 0.6924
vn 0.6924 0.6006 0.3998
vn 0.7995 0.6006 -0.0000
vn 0.6924 0.6006 -0.3998
vn 0.3998 0.6006 -0.6924
vn -0.0000 0.6006 -0.7995
vn -0.3998 0.6006 -0.6924
vn -0.6924 0.6006 -0.3998
vn -0.7995 0.6006 -0.0000
vn -0.6924 0.6006 0.3998
vn -0.6077 0.7465 -0.2711
vn -0.9701 -0.2366 -0.0545
vn -0.1925 -0.2628 -0.9455
vn 0.7912 -0.4066 0.4568
vn 0.4568 -0.4065 0.7912
vn -0.4568 -0.4065 0.7912
vn 0.7912 -0.4066 -0.4568
vn -0.3425 0.7285 -0.5932
vn -0.7912 -0.4066 -0.4568
vn 0.6805 0.2465 0.6900
vn 0.7232 -0.6700 0.1677
vn -0.2449 0.7476 0.6173
vn 0.8173 -0.3778 -0.4351
vn 0.0252 -0.9932 -0.1134
vn 0.7954 0.6040 -0.0491
vn 0.8961 -0.3219 -0.3055
vn 0.0510 -0.3431 -0.9379
vn 0.6733 -0.1835 0.7162
vn 0.7717 -0.2495 0.5850
vn 0.8816 0.4117 -0.2307
vn -0.1236 -0.8073 0.5771
vn 0.5864 -0.6272 0.5126
vn 0.5425 -0.6417 -0.5421
vn -0.2002 -0.0976 0.9749
vn -0.0378 -0.3778 -0.9251
vn -0.0912 -0.9932 -0.0719
vn 0.3006 0.6040 -0.7381
vn 0.7525 -0.0598 -0.6559
vn -0.0218 -0.7736 -0.6333
vn 0.8064 0.5571 0.1985
vn 0.7547 -0.2637 -0.6007
vn -0.0100 -0.9400 -0.3411
vn 0.7984 0.6022 0.0009
vt 0.875000 0.375000
vt 0.375000 0.875000
vt 0.625000 0.375000
vt 0.125000 0.125000
vt 0.375000 0.625000
s 0
usemtl ruins_ch_brazier
f 2/1/1 3/1/1 1/1/1
f 4/2/2 5/2/2 3/2/2
f 5/1/3 8/1/3 7/1/3
f 8/2/4 1/2/4 7/2/4
f 8/2/5 4/2/5 2/2/5
f 1/2/6 5/2/6 7/2/6
f 10/1/6 11/1/6 9/1/6
f 12/2/2 13/2/2 11/2/2
f 14/1/5 15/1/5 13/1/5
f 16/2/4 9/2/4 15/2/4
f 16/2/1 12/2/1 10/2/1
f 9/2/3 13/2/3 15/2/3
f 30/3/7 37/3/7 29/3/7
f 324/1/8 89/1/8 90/1/8
f 33/3/9 40/3/9 30/3/9
f 29/3/10 38/3/10 35/3/10
f 22/3/2 24/3/2 28/3/2
f 39/3/11 35/3/11 38/3/11
f 21/3/2 25/3/2 23/3/2
f 44/1/12 334/1/12 335/1/12
f 149/1/13 291/1/13 290/1/13
f 44/1/14 26/1/14 42/1/14
f 144/1/15 155/1/15 298/1/15
f 325/3/16 45/3/16 19/3/16
f 78/1/17 288/1/17 289/1/17
f 21/3/18 31/3/18 22/3/18
f 22/3/19 34/3/19 24/3/19
f 29/3/4 33/3/4 30/3/4
f 23/3/20 32/3/20 21/3/20
f 24/3/21 36/3/21 23/3/21
f 37/3/22 36/3/22 38/3/22
f 34/3/23 38/3/23 36/3/23
f 39/3/24 31/3/24 40/3/24
f 40/3/25 32/3/25 37/3/25
f 41/1/26 26/1/26 25/1/26
f 49/3/27 53/3/27 50/3/27
f 47/3/28 56/3/28 49/3/28
f 50/3/29 54/3/29 48/3/29
f 232/1/30 318/1/30 319/1/30
f 41/3/31 47/3/31 42/3/31
f 43/3/32 49/3/32 50/3/32
f 42/3/33 49/3/33 44/3/33
f 18/3/34 46/3/34 20/3/34
f 43/3/35 48/3/35 41/3/35
f 19/3/36 52/3/36 17/3/36
f 53/3/37 45/3/37 54/3/37
f 326/3/38 327/3/38 328/3/38
f 55/3/39 51/3/39 56/3/39
f 116/1/40 128/1/40 127/1/40
f 116/1/41 129/1/41 115/1/41
f 115/1/42 130/1/42 114/1/42
f 113/1/43 130/1/43 131/1/43
f 112/1/44 131/1/44 132/1/44
f 112/1/45 133/1/45 111/1/45
f 111/1/46 134/1/46 118/1/46
f 71/1/47 120/1/47 72/1/47
f 119/1/48 65/1/48 64/1/48
f 121/1/49 66/1/49 65/1/49
f 66/1/50 123/1/50 67/1/50
f 67/1/51 124/1/51 68/1/51
f 124/1/52 69/1/52 68/1/52
f 125/1/53 70/1/53 69/1/53
f 70/1/54 120/1/54 63/1/54
f 63/1/55 96/1/55 95/1/55
f 65/1/56 96/1/56 64/1/56
f 66/1/57 97/1/57 65/1/57
f 66/1/58 99/1/58 98/1/58
f 67/1/59 100/1/59 99/1/59
f 69/1/60 100/1/60 68/1/60
f 70/1/61 101/1/61 69/1/61
f 70/1/62 95/1/62 102/1/62
f 58/1/63 72/1/63 57/1/63
f 58/1/64 73/1/64 71/1/64
f 61/1/65 75/1/65 60/1/65
f 61/1/66 77/1/66 76/1/66
f 287/1/67 93/1/67 94/1/67
f 87/1/68 58/1/68 57/1/68
f 88/1/69 59/1/69 58/1/69
f 324/1/70 321/1/70 323/1/70
f 323/1/71 321/1/71 322/1/71
f 92/1/72 60/1/72 91/1/72
f 93/1/73 61/1/73 92/1/73
f 137/1/4 309/1/4 311/1/4
f 294/1/74 275/1/74 276/1/74
f 87/1/75 79/1/75 88/1/75
f 88/1/76 81/1/76 89/1/76
f 89/1/77 82/1/77 90/1/77
f 91/1/78 82/1/78 83/1/78
f 92/1/79 83/1/79 84/1/79
f 93/1/80 84/1/80 85/1/80
f 94/1/81 85/1/81 86/1/81
f 94/1/82 80/1/82 87/1/82
f 84/1/83 103/1/83 85/1/83
f 83/1/84 104/1/84 84/1/84
f 82/1/85 105/1/85 83/1/85
f 107/1/86 82/1/86 81/1/86
f 108/1/87 81/1/87 79/1/87
f 109/1/88 79/1/88 80/1/88
f 110/1/89 80/1/89 86/1/89
f 85/1/90 110/1/90 86/1/90
f 112/1/91 103/1/91 104/1/91
f 113/1/92 104/1/92 105/1/92
f 114/1/93 105/1/93 106/1/93
f 115/1/94 106/1/94 107/1/94
f 116/1/95 107/1/95 108/1/95
f 117/1/96 108/1/96 109/1/96
f 118/1/97 109/1/97 110/1/97
f 111/1/98 110/1/98 103/1/98
f 119/1/99 63/1/99 120/1/99
f 119/1/100 73/1/100 121/1/100
f 121/1/101 74/1/101 122/1/101
f 123/1/102 74/1/102 75/1/102
f 124/1/103 75/1/103 76/1/103
f 125/1/104 76/1/104 77/1/104
f 125/1/105 78/1/105 126/1/105
f 126/1/106 72/1/106 120/1/106
f 134/1/107 117/1/107 118/1/107
f 166/1/2 168/1/2 176/1/2
f 170/1/108 165/1/108 164/1/108
f 165/1/109 169/1/109 171/1/109
f 171/1/110 166/1/110 165/1/110
f 166/1/111 172/1/111 173/1/111
f 173/1/112 168/1/112 166/1/112
f 168/1/113 174/1/113 175/1/113
f 175/1/114 176/1/114 168/1/114
f 176/1/115 177/1/115 178/1/115
f 178/1/116 167/1/116 176/1/116
f 167/1/117 179/1/117 180/1/117
f 180/1/118 164/1/118 167/1/118
f 164/1/119 181/1/119 170/1/119
f 183/1/120 169/1/120 170/1/120
f 169/1/121 184/1/121 171/1/121
f 184/1/122 172/1/122 171/1/122
f 172/1/123 186/1/123 173/1/123
f 186/1/124 174/1/124 173/1/124
f 174/1/125 188/1/125 175/1/125
f 188/1/126 177/1/126 175/1/126
f 177/1/127 190/1/127 178/1/127
f 190/1/128 179/1/128 178/1/128
f 179/1/129 192/1/129 180/1/129
f 192/1/130 181/1/130 180/1/130
f 181/1/131 183/1/131 170/1/131
f 457/4/132 449/4/132 459/4/132
f 73/1/133 324/1/133 323/1/133
f 244/1/134 154/1/134 300/1/134
f 140/1/135 142/1/135 141/1/135
f 135/1/136 143/1/136 142/1/136
f 135/1/137 144/1/137 143/1/137
f 136/1/138 145/1/138 144/1/138
f 293/1/139 147/1/139 290/1/139
f 48/3/140 54/3/140 327/3/140
f 137/1/141 147/1/141 146/1/141
f 138/1/142 147/1/142 137/1/142
f 138/1/143 149/1/143 148/1/143
f 139/1/144 149/1/144 138/1/144
f 139/1/145 151/1/145 150/1/145
f 140/1/146 151/1/146 139/1/146
f 140/1/147 141/1/147 152/1/147
f 141/1/148 154/1/148 153/1/148
f 298/1/149 300/1/149 297/1/149
f 145/1/150 155/1/150 144/1/150
f 146/1/151 156/1/151 145/1/151
f 146/1/152 158/1/152 157/1/152
f 293/1/153 290/1/153 159/1/153
f 290/1/154 291/1/154 159/1/154
f 149/1/155 161/1/155 160/1/155
f 151/1/156 161/1/156 150/1/156
f 291/1/157 258/1/157 256/1/157
f 152/1/158 153/1/158 163/1/158
f 195/1/159 221/1/159 194/1/159
f 194/1/160 223/1/160 196/1/160
f 196/1/161 225/1/161 197/1/161
f 197/1/162 227/1/162 198/1/162
f 198/1/163 229/1/163 199/1/163
f 200/1/164 229/1/164 231/1/164
f 201/1/165 200/1/165 320/1/165
f 201/1/166 235/1/166 202/1/166
f 202/1/167 237/1/167 203/1/167
f 203/1/168 239/1/168 204/1/168
f 204/1/169 241/1/169 205/1/169
f 195/1/170 241/1/170 220/1/170
f 194/1/171 183/1/171 195/1/171
f 194/1/172 184/1/172 182/1/172
f 196/1/173 185/1/173 184/1/173
f 185/1/174 198/1/174 186/1/174
f 198/1/175 187/1/175 186/1/175
f 199/1/176 188/1/176 187/1/176
f 200/1/177 189/1/177 188/1/177
f 201/1/178 190/1/178 189/1/178
f 202/1/179 191/1/179 190/1/179
f 191/1/180 204/1/180 192/1/180
f 204/1/181 193/1/181 192/1/181
f 205/1/182 183/1/182 193/1/182
f 221/1/183 218/1/183 219/1/183
f 222/1/184 221/1/184 219/1/184
f 224/1/185 223/1/185 222/1/185
f 227/1/186 224/1/186 226/1/186
f 229/1/187 226/1/187 228/1/187
f 230/1/188 229/1/188 228/1/188
f 151/1/189 152/1/189 306/1/189
f 331/3/190 52/3/190 53/3/190
f 235/1/191 232/1/191 234/1/191
f 236/1/192 235/1/192 234/1/192
f 238/1/193 237/1/193 236/1/193
f 241/1/194 238/1/194 240/1/194
f 218/1/195 241/1/195 240/1/195
f 219/1/196 206/1/196 207/1/196
f 222/1/197 207/1/197 208/1/197
f 224/1/198 208/1/198 209/1/198
f 226/1/199 209/1/199 210/1/199
f 211/1/200 226/1/200 210/1/200
f 230/1/201 211/1/201 212/1/201
f 232/1/202 212/1/202 213/1/202
f 214/1/203 232/1/203 213/1/203
f 215/1/204 234/1/204 214/1/204
f 238/1/205 215/1/205 216/1/205
f 217/1/206 238/1/206 216/1/206
f 218/1/207 217/1/207 206/1/207
f 302/1/208 242/1/208 269/1/208
f 269/1/209 242/1/209 301/1/209
f 279/1/210 246/1/210 278/1/210
f 315/1/211 249/1/211 314/1/211
f 249/1/212 316/1/212 313/1/212
f 296/1/213 252/1/213 295/1/213
f 295/1/214 252/1/214 294/1/214
f 284/1/215 254/1/215 256/1/215
f 283/1/216 256/1/216 258/1/216
f 282/1/217 258/1/217 260/1/217
f 281/1/218 260/1/218 262/1/218
f 280/1/219 262/1/219 264/1/219
f 153/1/220 244/1/220 242/1/220
f 299/1/221 300/1/221 298/1/221
f 156/1/222 248/1/222 155/1/222
f 157/1/223 250/1/223 156/1/223
f 157/1/224 254/1/224 252/1/224
f 292/1/225 293/1/225 159/1/225
f 159/1/226 291/1/226 292/1/226
f 161/1/227 258/1/227 160/1/227
f 162/1/228 260/1/228 161/1/228
f 264/1/229 262/1/229 305/1/229
f 163/1/230 242/1/230 264/1/230
f 243/5/231 207/5/231 206/5/231
f 245/5/232 208/5/232 207/5/232
f 247/5/233 209/5/233 208/5/233
f 251/5/234 209/5/234 249/5/234
f 253/5/235 210/5/235 251/5/235
f 255/5/236 211/5/236 253/5/236
f 257/5/237 212/5/237 255/5/237
f 259/5/238 213/5/238 257/5/238
f 261/5/239 214/5/239 259/5/239
f 261/5/240 216/5/240 215/5/240
f 265/5/241 216/5/241 263/5/241
f 243/5/242 217/5/242 265/5/242
f 245/1/243 267/1/243 247/1/243
f 243/1/244 268/1/244 245/1/244
f 269/1/245 265/1/245 270/1/245
f 271/1/246 265/1/246 263/1/246
f 272/1/247 263/1/247 261/1/247
f 273/1/248 261/1/248 259/1/248
f 274/1/249 259/1/249 257/1/249
f 275/1/250 257/1/250 255/1/250
f 276/1/251 255/1/251 253/1/251
f 266/1/252 253/1/252 251/1/252
f 279/1/253 267/1/253 268/1/253
f 281/1/254 270/1/254 271/1/254
f 272/1/255 281/1/255 271/1/255
f 273/1/256 282/1/256 272/1/256
f 284/1/257 273/1/257 274/1/257
f 285/1/258 274/1/258 275/1/258
f 287/1/259 286/1/259 289/1/259
f 288/1/260 287/1/260 289/1/260
f 289/1/261 286/1/261 94/1/261
f 294/1/262 254/1/262 285/1/262
f 300/1/263 142/1/263 143/1/263
f 292/1/264 256/1/264 254/1/264
f 296/1/265 250/1/265 252/1/265
f 41/1/266 25/1/266 336/1/266
f 298/1/267 248/1/267 246/1/267
f 301/1/268 244/1/268 279/1/268
f 301/1/269 268/1/269 269/1/269
f 302/1/270 270/1/270 280/1/270
f 302/1/271 264/1/271 242/1/271
f 307/1/272 305/1/272 303/1/272
f 303/1/273 306/1/273 307/1/273
f 307/1/274 306/1/274 304/1/274
f 304/1/275 305/1/275 307/1/275
f 332/1/2 330/1/2 18/1/2
f 77/1/276 62/1/276 287/1/276
f 312/1/277 310/1/277 308/1/277
f 308/1/278 311/1/278 312/1/278
f 312/1/279 311/1/279 309/1/279
f 309/1/280 310/1/280 312/1/280
f 313/1/281 251/1/281 249/1/281
f 247/1/282 314/1/282 249/1/282
f 278/1/283 314/1/283 267/1/283
f 315/1/284 246/1/284 248/1/284
f 316/1/285 250/1/285 277/1/285
f 313/1/286 277/1/286 266/1/286
f 319/1/287 320/1/287 317/1/287
f 318/1/288 320/1/288 319/1/288
f 296/1/289 276/1/289 266/1/289
f 146/1/290 145/1/290 310/1/290
f 322/1/291 60/1/291 75/1/291
f 326/3/292 55/3/292 327/3/292
f 325/3/292 54/3/292 45/3/292
f 327/3/293 325/3/293 328/3/293
f 331/3/294 332/3/294 329/3/294
f 331/3/295 17/3/295 52/3/295
f 18/3/295 331/3/295 51/3/295
f 330/1/296 332/1/296 331/1/296
f 334/1/297 336/1/297 335/1/297
f 336/1/298 333/1/298 335/1/298
f 340/4/299 337/4/299 346/4/299
f 337/4/300 338/4/300 346/4/300
f 338/4/301 339/4/301 346/4/301
f 338/4/302 341/4/302 347/4/302
f 341/4/303 342/4/303 347/4/303
f 339/4/304 347/4/304 342/4/304
f 339/4/305 342/4/305 343/4/305
f 344/4/306 340/4/306 343/4/306
f 343/4/307 345/4/307 344/4/307
f 343/4/308 342/4/308 345/4/308
f 337/4/309 340/4/309 344/4/309
f 345/4/310 337/4/310 344/4/310
f 345/4/311 342/4/311 341/4/311
f 340/4/312 339/4/312 343/4/312
f 346/4/313 339/4/313 340/4/313
f 351/4/314 348/4/314 357/4/314
f 348/4/315 349/4/315 357/4/315
f 349/4/316 350/4/316 357/4/316
f 349/4/317 352/4/317 358/4/317
f 352/4/318 353/4/318 358/4/318
f 350/4/319 358/4/319 353/4/319
f 350/4/320 353/4/320 354/4/320
f 355/4/321 351/4/321 354/4/321
f 354/4/322 356/4/322 355/4/322
f 354/4/323 353/4/323 356/4/323
f 348/4/324 351/4/324 355/4/324
f 356/4/325 348/4/325 355/4/325
f 356/4/326 353/4/326 352/4/326
f 351/4/327 350/4/327 354/4/327
f 357/4/328 350/4/328 351/4/328
f 362/4/329 359/4/329 368/4/329
f 359/4/330 360/4/330 368/4/330
f 360/4/331 361/4/331 368/4/331
f 360/4/332 363/4/332 369/4/332
f 363/4/333 364/4/333 369/4/333
f 361/4/334 369/4/334 364/4/334
f 361/4/335 364/4/335 365/4/335
f 366/4/336 362/4/336 365/4/336
f 365/4/337 367/4/337 366/4/337
f 365/4/338 364/4/338 367/4/338
f 359/4/339 362/4/339 366/4/339
f 367/4/340 359/4/340 366/4/340
f 367/4/341 364/4/341 363/4/341
f 362/4/342 361/4/342 365/4/342
f 368/4/343 361/4/343 362/4/343
f 373/4/344 370/4/344 379/4/344
f 370/4/345 371/4/345 379/4/345
f 371/4/346 372/4/346 379/4/346
f 371/4/347 374/4/347 380/4/347
f 374/4/348 375/4/348 380/4/348
f 372/4/349 380/4/349 375/4/349
f 372/4/350 375/4/350 376/4/350
f 377/4/351 373/4/351 376/4/351
f 376/4/352 378/4/352 377/4/352
f 376/4/353 375/4/353 378/4/353
f 370/4/354 373/4/354 377/4/354
f 378/4/355 370/4/355 377/4/355
f 378/4/356 375/4/356 374/4/356
f 373/4/357 372/4/357 376/4/357
f 379/4/358 372/4/358 373/4/358
f 384/4/329 381/4/329 390/4/329
f 381/4/330 382/4/330 390/4/330
f 382/4/331 383/4/331 390/4/331
f 382/4/332 385/4/332 391/4/332
f 385/4/333 386/4/333 391/4/333
f 383/4/334 391/4/334 386/4/334
f 383/4/335 386/4/335 387/4/335
f 388/4/336 384/4/336 387/4/336
f 387/4/337 389/4/337 388/4/337
f 387/4/338 386/4/338 389/4/338
f 381/4/339 384/4/339 388/4/339
f 389/4/340 381/4/340 388/4/340
f 389/4/341 386/4/341 385/4/341
f 384/4/342 383/4/342 387/4/342
f 390/4/343 383/4/343 384/4/343
f 395/4/359 392/4/359 401/4/359
f 392/4/360 393/4/360 401/4/360
f 393/4/361 394/4/361 401/4/361
f 393/4/362 396/4/362 402/4/362
f 396/4/363 397/4/363 402/4/363
f 394/4/364 402/4/364 397/4/364
f 394/4/365 397/4/365 398/4/365
f 399/4/366 395/4/366 398/4/366
f 398/4/367 400/4/367 399/4/367
f 398/4/368 397/4/368 400/4/368
f 392/4/369 395/4/369 399/4/369
f 400/4/370 392/4/370 399/4/370
f 400/4/371 397/4/371 396/4/371
f 395/4/372 394/4/372 398/4/372
f 401/4/373 394/4/373 395/4/373
f 406/4/374 403/4/374 412/4/374
f 403/4/375 404/4/375 412/4/375
f 404/4/376 405/4/376 412/4/376
f 404/4/377 407/4/377 413/4/377
f 407/4/378 408/4/378 413/4/378
f 405/4/379 413/4/379 408/4/379
f 405/4/380 408/4/380 409/4/380
f 410/4/381 406/4/381 409/4/381
f 409/4/382 411/4/382 410/4/382
f 409/4/383 408/4/383 411/4/383
f 403/4/384 406/4/384 410/4/384
f 411/4/385 403/4/385 410/4/385
f 411/4/386 408/4/386 407/4/386
f 406/4/387 405/4/387 409/4/387
f 412/4/388 405/4/388 406/4/388
f 417/4/389 414/4/389 423/4/389
f 414/4/390 415/4/390 423/4/390
f 415/4/391 416/4/391 423/4/391
f 415/4/392 418/4/392 424/4/392
f 418/4/393 419/4/393 424/4/393
f 416/4/394 424/4/394 419/4/394
f 416/4/395 419/4/395 420/4/395
f 421/4/396 417/4/396 420/4/396
f 420/4/397 422/4/397 421/4/397
f 420/4/398 419/4/398 422/4/398
f 414/4/399 417/4/399 421/4/399
f 422/4/400 414/4/400 421/4/400
f 422/4/401 419/4/401 418/4/401
f 417/4/402 416/4/402 420/4/402
f 423/4/403 416/4/403 417/4/403
f 428/4/314 425/4/314 434/4/314
f 425/4/315 426/4/315 434/4/315
f 426/4/316 427/4/316 434/4/316
f 426/4/317 429/4/317 435/4/317
f 429/4/318 430/4/318 435/4/318
f 427/4/404 435/4/404 430/4/404
f 427/4/320 430/4/320 431/4/320
f 432/4/321 428/4/321 431/4/321
f 431/4/322 433/4/322 432/4/322
f 431/4/323 430/4/323 433/4/323
f 425/4/324 428/4/324 432/4/324
f 433/4/325 425/4/325 432/4/325
f 433/4/326 430/4/326 429/4/326
f 428/4/327 427/4/327 431/4/327
f 434/4/328 427/4/328 428/4/328
f 439/4/405 436/4/405 445/4/405
f 436/4/406 437/4/406 445/4/406
f 437/4/407 438/4/407 445/4/407
f 437/4/408 440/4/408 446/4/408
f 440/4/409 441/4/409 446/4/409
f 438/4/410 446/4/410 441/4/410
f 438/4/411 441/4/411 442/4/411
f 443/4/412 439/4/412 442/4/412
f 442/4/413 444/4/413 443/4/413
f 442/4/414 441/4/414 444/4/414
f 436/4/415 439/4/415 443/4/415
f 444/4/416 436/4/416 443/4/416
f 444/4/417 441/4/417 440/4/417
f 439/4/418 438/4/418 442/4/418
f 445/4/419 438/4/419 439/4/419
f 458/4/420 447/4/420 456/4/420
f 466/4/421 456/4/421 454/4/421
f 461/4/422 464/4/422 462/4/422
f 453/4/423 466/4/423 450/4/423
f 463/4/424 452/4/424 462/4/424
f 455/4/425 450/4/425 466/4/425
f 466/4/426 459/4/426 456/4/426
f 463/4/427 460/4/427 452/4/427
f 448/4/428 463/4/428 462/4/428
f 448/4/429 465/4/429 451/4/429
f 448/4/430 462/4/430 465/4/430
f 447/4/431 465/4/431 456/4/431
f 447/4/432 451/4/432 465/4/432
f 452/4/433 460/4/433 450/4/433
f 455/4/434 452/4/434 450/4/434
f 462/4/435 464/4/435 465/4/435
f 453/4/436 457/4/436 466/4/436
f 454/4/437 465/4/437 464/4/437
f 454/4/438 461/4/438 455/4/438
f 455/4/439 466/4/439 454/4/439
f 454/4/440 456/4/440 465/4/440
f 459/4/441 449/4/441 458/4/441
f 459/4/442 458/4/442 456/4/442
f 459/4/443 466/4/443 457/4/443
f 454/4/444 464/4/444 461/4/444
f 452/4/445 455/4/445 461/4/445
f 452/4/446 461/4/446 462/4/446
f 91/1/447 322/1/447 90/1/447
f 2/1/1 4/1/1 3/1/1
f 4/2/2 6/2/2 5/2/2
f 5/1/3 6/1/3 8/1/3
f 8/2/4 2/2/4 1/2/4
f 8/2/5 6/2/5 4/2/5
f 1/2/6 3/2/6 5/2/6
f 10/1/6 12/1/6 11/1/6
f 12/2/2 14/2/2 13/2/2
f 14/1/5 16/1/5 15/1/5
f 16/2/4 10/2/4 9/2/4
f 16/2/1 14/2/1 12/2/1
f 9/2/3 11/2/3 13/2/3
f 30/3/7 40/3/7 37/3/7
f 90/1/8 321/1/8 324/1/8
f 324/1/8 59/1/8 89/1/8
f 33/3/9 39/3/9 40/3/9
f 29/3/10 37/3/10 38/3/10
f 24/3/2 23/3/2 25/3/2
f 24/3/2 25/3/2 26/3/2
f 27/3/2 21/3/2 28/3/2
f 21/3/2 22/3/2 28/3/2
f 24/3/2 26/3/2 28/3/2
f 39/3/11 33/3/11 35/3/11
f 21/3/2 27/3/2 25/3/2
f 27/1/12 28/1/12 333/1/12
f 28/1/12 44/1/12 335/1/12
f 44/1/12 43/1/12 334/1/12
f 335/1/12 333/1/12 28/1/12
f 290/1/13 148/1/13 149/1/13
f 149/1/13 160/1/13 291/1/13
f 44/1/14 28/1/14 26/1/14
f 298/1/15 297/1/15 143/1/15
f 143/1/15 144/1/15 298/1/15
f 19/3/16 20/3/16 328/3/16
f 20/3/16 46/3/16 326/3/16
f 328/3/16 20/3/16 326/3/16
f 328/3/16 325/3/16 19/3/16
f 57/1/17 72/1/17 289/1/17
f 72/1/17 78/1/17 289/1/17
f 21/3/18 32/3/18 31/3/18
f 22/3/19 31/3/19 34/3/19
f 29/3/4 35/3/4 33/3/4
f 23/3/20 36/3/20 32/3/20
f 24/3/21 34/3/21 36/3/21
f 37/3/22 32/3/22 36/3/22
f 34/3/23 39/3/23 38/3/23
f 39/3/24 34/3/24 31/3/24
f 40/3/25 31/3/25 32/3/25
f 41/1/26 42/1/26 26/1/26
f 49/3/27 56/3/27 53/3/27
f 47/3/28 55/3/28 56/3/28
f 50/3/29 53/3/29 54/3/29
f 319/1/30 317/1/30 230/1/30
f 317/1/30 231/1/30 230/1/30
f 230/1/30 232/1/30 319/1/30
f 232/1/30 233/1/30 318/1/30
f 41/3/31 48/3/31 47/3/31
f 43/3/32 44/3/32 49/3/32
f 42/3/33 47/3/33 49/3/33
f 18/3/34 51/3/34 46/3/34
f 43/3/35 50/3/35 48/3/35
f 19/3/36 45/3/36 52/3/36
f 53/3/37 52/3/37 45/3/37
f 55/3/39 46/3/39 51/3/39
f 116/1/40 117/1/40 128/1/40
f 116/1/41 127/1/41 129/1/41
f 115/1/42 129/1/42 130/1/42
f 113/1/43 114/1/43 130/1/43
f 112/1/44 113/1/44 131/1/44
f 112/1/45 132/1/45 133/1/45
f 111/1/46 133/1/46 134/1/46
f 71/1/47 119/1/47 120/1/47
f 119/1/48 121/1/48 65/1/48
f 121/1/49 122/1/49 66/1/49
f 66/1/50 122/1/50 123/1/50
f 67/1/51 123/1/51 124/1/51
f 124/1/52 125/1/52 69/1/52
f 125/1/53 126/1/53 70/1/53
f 70/1/54 126/1/54 120/1/54
f 63/1/55 64/1/55 96/1/55
f 65/1/56 97/1/56 96/1/56
f 66/1/57 98/1/57 97/1/57
f 66/1/58 67/1/58 99/1/58
f 67/1/59 68/1/59 100/1/59
f 69/1/60 101/1/60 100/1/60
f 70/1/61 102/1/61 101/1/61
f 70/1/62 63/1/62 95/1/62
f 58/1/63 71/1/63 72/1/63
f 58/1/64 59/1/64 73/1/64
f 61/1/65 76/1/65 75/1/65
f 61/1/66 62/1/66 77/1/66
f 94/1/67 286/1/67 287/1/67
f 287/1/67 62/1/67 93/1/67
f 87/1/68 88/1/68 58/1/68
f 88/1/69 89/1/69 59/1/69
f 92/1/72 61/1/72 60/1/72
f 93/1/73 62/1/73 61/1/73
f 311/1/4 308/1/4 136/1/4
f 136/1/4 135/1/4 311/1/4
f 135/1/4 140/1/4 311/1/4
f 140/1/4 139/1/4 311/1/4
f 139/1/4 138/1/4 311/1/4
f 138/1/4 137/1/4 311/1/4
f 276/1/74 295/1/74 294/1/74
f 294/1/448 285/1/448 275/1/448
f 87/1/75 80/1/75 79/1/75
f 88/1/76 79/1/76 81/1/76
f 89/1/77 81/1/77 82/1/77
f 91/1/78 90/1/78 82/1/78
f 92/1/79 91/1/79 83/1/79
f 93/1/80 92/1/80 84/1/80
f 94/1/81 93/1/81 85/1/81
f 94/1/82 86/1/82 80/1/82
f 84/1/83 104/1/83 103/1/83
f 83/1/84 105/1/84 104/1/84
f 82/1/85 106/1/85 105/1/85
f 107/1/86 106/1/86 82/1/86
f 108/1/87 107/1/87 81/1/87
f 109/1/88 108/1/88 79/1/88
f 110/1/89 109/1/89 80/1/89
f 85/1/90 103/1/90 110/1/90
f 112/1/91 111/1/91 103/1/91
f 113/1/92 112/1/92 104/1/92
f 114/1/93 113/1/93 105/1/93
f 115/1/94 114/1/94 106/1/94
f 116/1/95 115/1/95 107/1/95
f 117/1/96 116/1/96 108/1/96
f 118/1/97 117/1/97 109/1/97
f 111/1/98 118/1/98 110/1/98
f 119/1/99 64/1/99 63/1/99
f 119/1/100 71/1/100 73/1/100
f 121/1/101 73/1/101 74/1/101
f 123/1/102 122/1/102 74/1/102
f 124/1/103 123/1/103 75/1/103
f 125/1/104 124/1/104 76/1/104
f 125/1/105 77/1/105 78/1/105
f 126/1/106 78/1/106 72/1/106
f 134/1/107 128/1/107 117/1/107
f 176/1/449 167/1/449 164/1/449
f 164/1/450 165/1/450 176/1/450
f 165/1/2 166/1/2 176/1/2
f 170/1/451 169/1/451 165/1/451
f 171/1/452 172/1/452 166/1/452
f 173/1/453 174/1/453 168/1/453
f 175/1/454 177/1/454 176/1/454
f 178/1/455 179/1/455 167/1/455
f 180/1/456 181/1/456 164/1/456
f 183/1/457 182/1/457 169/1/457
f 169/1/458 182/1/458 184/1/458
f 184/1/459 185/1/459 172/1/459
f 172/1/460 185/1/460 186/1/460
f 186/1/461 187/1/461 174/1/461
f 174/1/462 187/1/462 188/1/462
f 188/1/463 189/1/463 177/1/463
f 177/1/464 189/1/464 190/1/464
f 190/1/465 191/1/465 179/1/465
f 179/1/466 191/1/466 192/1/466
f 192/1/467 193/1/467 181/1/467
f 181/1/468 193/1/468 183/1/468
f 457/4/469 453/4/469 449/4/469
f 323/1/133 74/1/133 73/1/133
f 73/1/133 59/1/133 324/1/133
f 300/1/134 299/1/134 246/1/134
f 246/1/134 244/1/134 300/1/134
f 140/1/135 135/1/135 142/1/135
f 135/1/137 136/1/137 144/1/137
f 158/1/139 147/1/139 293/1/139
f 147/1/139 148/1/139 290/1/139
f 55/3/140 47/3/140 327/3/140
f 47/3/140 48/3/140 327/3/140
f 138/1/142 148/1/142 147/1/142
f 139/1/144 150/1/144 149/1/144
f 140/1/146 152/1/146 151/1/146
f 141/1/148 142/1/148 154/1/148
f 145/1/150 156/1/150 155/1/150
f 146/1/151 157/1/151 156/1/151
f 146/1/152 147/1/152 158/1/152
f 149/1/155 150/1/155 161/1/155
f 151/1/156 162/1/156 161/1/156
f 256/1/157 292/1/157 291/1/157
f 291/1/157 160/1/157 258/1/157
f 152/1/158 141/1/158 153/1/158
f 195/1/159 220/1/159 221/1/159
f 194/1/160 221/1/160 223/1/160
f 196/1/161 223/1/161 225/1/161
f 197/1/162 225/1/162 227/1/162
f 198/1/163 227/1/163 229/1/163
f 200/1/164 199/1/164 229/1/164
f 318/1/165 233/1/165 201/1/165
f 200/1/165 231/1/165 317/1/165
f 320/1/165 318/1/165 201/1/165
f 200/1/165 317/1/165 320/1/165
f 201/1/166 233/1/166 235/1/166
f 202/1/167 235/1/167 237/1/167
f 203/1/168 237/1/168 239/1/168
f 204/1/169 239/1/169 241/1/169
f 195/1/170 205/1/170 241/1/170
f 194/1/171 182/1/171 183/1/171
f 194/1/172 196/1/172 184/1/172
f 196/1/173 197/1/173 185/1/173
f 185/1/174 197/1/174 198/1/174
f 198/1/175 199/1/175 187/1/175
f 199/1/176 200/1/176 188/1/176
f 200/1/177 201/1/177 189/1/177
f 201/1/178 202/1/178 190/1/178
f 202/1/179 203/1/179 191/1/179
f 191/1/180 203/1/180 204/1/180
f 204/1/181 205/1/181 193/1/181
f 205/1/182 195/1/182 183/1/182
f 221/1/183 220/1/183 218/1/183
f 222/1/184 223/1/184 221/1/184
f 224/1/185 225/1/185 223/1/185
f 227/1/186 225/1/186 224/1/186
f 229/1/187 227/1/187 226/1/187
f 230/1/188 231/1/188 229/1/188
f 163/1/189 304/1/189 152/1/189
f 304/1/189 306/1/189 152/1/189
f 306/1/189 303/1/189 151/1/189
f 303/1/189 162/1/189 151/1/189
f 53/3/190 56/3/190 331/3/190
f 56/3/190 51/3/190 331/3/190
f 235/1/191 233/1/191 232/1/191
f 236/1/192 237/1/192 235/1/192
f 238/1/193 239/1/193 237/1/193
f 241/1/194 239/1/194 238/1/194
f 218/1/195 220/1/195 241/1/195
f 219/1/196 218/1/196 206/1/196
f 222/1/197 219/1/197 207/1/197
f 224/1/198 222/1/198 208/1/198
f 226/1/199 224/1/199 209/1/199
f 211/1/200 228/1/200 226/1/200
f 230/1/201 228/1/201 211/1/201
f 232/1/202 230/1/202 212/1/202
f 214/1/203 234/1/203 232/1/203
f 215/1/204 236/1/204 234/1/204
f 238/1/205 236/1/205 215/1/205
f 217/1/206 240/1/206 238/1/206
f 218/1/207 240/1/207 217/1/207
f 279/1/210 244/1/210 246/1/210
f 315/1/470 248/1/470 249/1/470
f 249/1/471 248/1/471 316/1/471
f 284/1/215 285/1/215 254/1/215
f 283/1/216 284/1/216 256/1/216
f 282/1/217 283/1/217 258/1/217
f 281/1/218 282/1/218 260/1/218
f 280/1/219 281/1/219 262/1/219
f 153/1/220 154/1/220 244/1/220
f 156/1/222 250/1/222 248/1/222
f 157/1/223 252/1/223 250/1/223
f 157/1/224 158/1/224 254/1/224
f 161/1/227 260/1/227 258/1/227
f 162/1/228 262/1/228 260/1/228
f 162/1/229 303/1/229 262/1/229
f 303/1/229 305/1/229 262/1/229
f 305/1/229 304/1/229 264/1/229
f 304/1/229 163/1/229 264/1/229
f 163/1/230 153/1/230 242/1/230
f 243/5/231 245/5/231 207/5/231
f 245/5/232 247/5/232 208/5/232
f 247/5/233 249/5/233 209/5/233
f 251/5/234 210/5/234 209/5/234
f 253/5/235 211/5/235 210/5/235
f 255/5/236 212/5/236 211/5/236
f 257/5/237 213/5/237 212/5/237
f 259/5/238 214/5/238 213/5/238
f 261/5/239 215/5/239 214/5/239
f 261/5/240 263/5/240 216/5/240
f 265/5/241 217/5/241 216/5/241
f 243/5/242 206/5/242 217/5/242
f 245/1/243 268/1/243 267/1/243
f 243/1/244 269/1/244 268/1/244
f 269/1/245 243/1/245 265/1/245
f 271/1/246 270/1/246 265/1/246
f 272/1/247 271/1/247 263/1/247
f 273/1/248 272/1/248 261/1/248
f 274/1/249 273/1/249 259/1/249
f 275/1/250 274/1/250 257/1/250
f 276/1/251 275/1/251 255/1/251
f 266/1/252 276/1/252 253/1/252
f 279/1/253 278/1/253 267/1/253
f 281/1/254 280/1/254 270/1/254
f 272/1/472 282/1/472 281/1/472
f 273/1/473 283/1/473 282/1/473
f 284/1/257 283/1/257 273/1/257
f 285/1/474 284/1/474 274/1/474
f 94/1/261 87/1/261 289/1/261
f 87/1/261 57/1/261 289/1/261
f 294/1/262 252/1/262 254/1/262
f 143/1/263 297/1/263 300/1/263
f 300/1/263 154/1/263 142/1/263
f 158/1/264 293/1/264 254/1/264
f 293/1/264 292/1/264 254/1/264
f 296/1/265 277/1/265 250/1/265
f 27/1/266 333/1/266 25/1/266
f 333/1/266 336/1/266 25/1/266
f 336/1/266 334/1/266 41/1/266
f 334/1/266 43/1/266 41/1/266
f 246/1/267 299/1/267 298/1/267
f 298/1/267 155/1/267 248/1/267
f 301/1/268 242/1/268 244/1/268
f 301/1/269 279/1/269 268/1/269
f 302/1/475 269/1/475 270/1/475
f 302/1/271 280/1/271 264/1/271
f 18/1/2 20/1/2 332/1/2
f 20/1/2 19/1/2 332/1/2
f 19/1/2 17/1/2 332/1/2
f 17/1/2 329/1/2 332/1/2
f 288/1/276 78/1/276 287/1/276
f 78/1/276 77/1/276 287/1/276
f 313/1/281 266/1/281 251/1/281
f 247/1/476 267/1/476 314/1/476
f 278/1/283 315/1/283 314/1/283
f 315/1/284 278/1/284 246/1/284
f 316/1/285 248/1/285 250/1/285
f 313/1/477 316/1/477 277/1/477
f 266/1/289 277/1/289 296/1/289
f 296/1/289 295/1/289 276/1/289
f 309/1/290 137/1/290 146/1/290
f 145/1/290 136/1/290 310/1/290
f 136/1/290 308/1/290 310/1/290
f 310/1/290 309/1/290 146/1/290
f 75/1/291 74/1/291 323/1/291
f 323/1/291 322/1/291 75/1/291
f 326/3/292 46/3/292 55/3/292
f 325/3/292 327/3/292 54/3/292
f 331/3/295 329/3/295 17/3/295
f 18/3/295 330/3/295 331/3/295
f 337/4/478 341/4/478 338/4/478
f 339/4/479 338/4/479 347/4/479
f 345/4/480 341/4/480 337/4/480
f 348/4/481 352/4/481 349/4/481
f 350/4/482 349/4/482 358/4/482
f 356/4/483 352/4/483 348/4/483
f 359/4/484 363/4/484 360/4/484
f 361/4/485 360/4/485 369/4/485
f 367/4/486 363/4/486 359/4/486
f 370/4/487 374/4/487 371/4/487
f 372/4/488 371/4/488 380/4/488
f 378/4/489 374/4/489 370/4/489
f 381/4/484 385/4/484 382/4/484
f 383/4/485 382/4/485 391/4/485
f 389/4/486 385/4/486 381/4/486
f 392/4/490 396/4/490 393/4/490
f 394/4/491 393/4/491 402/4/491
f 400/4/492 396/4/492 392/4/492
f 403/4/493 407/4/493 404/4/493
f 405/4/494 404/4/494 413/4/494
f 411/4/495 407/4/495 403/4/495
f 414/4/496 418/4/496 415/4/496
f 416/4/497 415/4/497 424/4/497
f 422/4/498 418/4/498 414/4/498
f 425/4/481 429/4/481 426/4/481
f 427/4/482 426/4/482 435/4/482
f 433/4/483 429/4/483 425/4/483
f 436/4/499 440/4/499 437/4/499
f 438/4/500 437/4/500 446/4/500
f 444/4/501 440/4/501 436/4/501
f 60/1/447 322/1/447 91/1/447
f 322/1/447 321/1/447 90/1/447
