# Blender 5.2.2 LTS
# www.blender.org
mtllib ruins_find_chart.mtl
o piece
v -0.304110 -0.197098 0.023333
v -0.153073 0.369552 -0.030000
v -0.153073 0.369552 0.020000
v 0.153073 0.369552 -0.030000
v 0.153073 0.369552 0.020000
v 0.369552 0.153073 -0.030000
v 0.369552 0.153073 0.020000
v 0.369552 -0.153073 -0.030000
v 0.369552 -0.153073 0.020000
v 0.153073 -0.369552 -0.030000
v 0.153073 -0.369552 0.020000
v -0.153073 -0.369552 -0.030000
v -0.153073 -0.369552 0.020000
v -0.369552 -0.153073 -0.030000
v -0.369552 -0.153073 0.020000
v -0.369552 0.153073 -0.030000
v -0.369552 0.153073 0.020000
v -0.304110 -0.164458 0.026667
v -0.271470 -0.197098 0.026667
v -0.271470 -0.164458 0.023333
v -0.318467 -0.179067 0.023333
v -0.318467 -0.160933 0.026667
v -0.248200 -0.179067 0.026667
v -0.248200 -0.160933 0.023333
v -0.304149 -0.085968 0.023333
v -0.315804 -0.072077 0.026667
v -0.250862 -0.041256 0.020000
v -0.250862 -0.041256 0.030000
v -0.262518 -0.027365 0.023333
v -0.318467 -0.086813 0.023333
v -0.318467 -0.068680 0.026667
v -0.248200 -0.086813 0.026667
v -0.248200 -0.068680 0.023333
v -0.302657 -0.046410 0.023333
v -0.302657 -0.028277 0.026667
v -0.264010 -0.046410 0.026667
v -0.264010 -0.028277 0.023333
v -0.302657 -0.085057 0.023333
v -0.302657 -0.066923 0.026667
v -0.264010 -0.085057 0.026667
v -0.264010 -0.066923 0.023333
v -0.273077 -0.075990 0.023333
v -0.273077 -0.037343 0.026667
v -0.254943 -0.075990 0.026667
v -0.254943 -0.037343 0.023333
v -0.311723 -0.075990 0.023333
v -0.311723 -0.037343 0.026667
v -0.293590 -0.075990 0.026667
v -0.293590 -0.037343 0.023333
v -0.304149 0.027365 0.020000
v -0.304149 0.027365 0.030000
v -0.315804 0.041256 0.025000
v -0.250862 0.072077 0.025000
v -0.262518 0.085968 0.020000
v -0.262518 0.085968 0.030000
v -0.304413 0.032141 0.023333
v -0.304413 0.050275 0.026667
v -0.262253 0.032141 0.026667
v -0.262253 0.050275 0.023333
v -0.304413 0.063059 0.023333
v -0.304413 0.081192 0.026667
v -0.262253 0.063059 0.026667
v -0.262253 0.081192 0.023333
v -0.302657 0.066923 0.023333
v -0.302657 0.085057 0.026667
v -0.264010 0.066923 0.026667
v -0.264010 0.085057 0.023333
v -0.302657 0.028277 0.023333
v -0.302657 0.046410 0.026667
v -0.264010 0.028277 0.026667
v -0.264010 0.046410 0.023333
v -0.273077 0.037343 0.023333
v -0.273077 0.075990 0.026667
v -0.254943 0.037343 0.026667
v -0.254943 0.075990 0.023333
v -0.311723 0.037343 0.023333
v -0.311723 0.075990 0.026667
v -0.293590 0.037343 0.026667
v -0.293590 0.075990 0.023333
v -0.205133 -0.271320 0.023333
v -0.205133 -0.253187 0.026667
v -0.134867 -0.271320 0.026667
v -0.134867 -0.253187 0.023333
v -0.189323 -0.273077 0.023333
v -0.189323 -0.254943 0.026667
v -0.150677 -0.273077 0.026667
v -0.150677 -0.254943 0.023333
v -0.189323 -0.311723 0.023333
v -0.189323 -0.293590 0.026667
v -0.150677 -0.311723 0.020000
v -0.150677 -0.311723 0.030000
v -0.150677 -0.293590 0.023333
v -0.159743 -0.302657 0.023333
v -0.159743 -0.264010 0.026667
v -0.141610 -0.302657 0.026667
v -0.141610 -0.264010 0.023333
v -0.198390 -0.302657 0.023333
v -0.198390 -0.264010 0.026667
v -0.180257 -0.302657 0.026667
v -0.180257 -0.264010 0.023333
v -0.200147 -0.318467 0.023333
v -0.200147 -0.248200 0.026667
v -0.182013 -0.318467 0.026667
v -0.182013 -0.248200 0.023333
v -0.194593 -0.157987 0.023333
v -0.194593 -0.139853 0.026667
v -0.145407 -0.157987 0.026667
v -0.145407 -0.139853 0.023333
v -0.157987 -0.191080 0.023333
v -0.157987 -0.148920 0.026667
v -0.139853 -0.191080 0.026667
v -0.139853 -0.148920 0.023333
v -0.191080 -0.194525 0.023333
v -0.191080 -0.176392 0.026667
v -0.148920 -0.194525 0.026667
v -0.148920 -0.176392 0.023333
v -0.191080 -0.163608 0.023333
v -0.191080 -0.145475 0.026667
v -0.148920 -0.163608 0.026667
v -0.148920 -0.145475 0.023333
v -0.169963 -0.189107 0.023333
v -0.169963 -0.156467 0.026667
v -0.137323 -0.189107 0.026667
v -0.137323 -0.156467 0.023333
v -0.202471 0.072077 0.023333
v -0.190815 0.085968 0.026667
v -0.149185 0.027365 0.026667
v -0.137529 0.041256 0.023333
v -0.191080 0.032141 0.023333
v -0.191080 0.050275 0.026667
v -0.148920 0.032141 0.026667
v -0.148920 0.050275 0.023333
v -0.191080 0.063059 0.023333
v -0.191080 0.081192 0.026667
v -0.148920 0.063059 0.026667
v -0.148920 0.081192 0.023333
v -0.178792 0.145301 0.023333
v -0.178792 0.177941 0.026667
v -0.146152 0.145301 0.026667
v -0.146152 0.177941 0.023333
v -0.179067 0.134867 0.020000
v -0.179067 0.134867 0.030000
v -0.179067 0.205133 0.026667
v -0.160933 0.134867 0.026667
v -0.160933 0.205133 0.023333
v -0.191080 0.258808 0.023333
v -0.191080 0.276941 0.026667
v -0.148920 0.258808 0.026667
v -0.148920 0.276941 0.023333
v -0.191080 0.289725 0.023333
v -0.191080 0.307859 0.026667
v -0.148920 0.289725 0.026667
v -0.148920 0.307859 0.023333
v -0.175492 0.267148 0.023333
v -0.175492 0.299788 0.026667
v -0.142852 0.267148 0.026667
v -0.142852 0.299788 0.023333
v -0.091800 -0.271320 0.023333
v -0.091800 -0.253187 0.026667
v -0.021533 -0.271320 0.026667
v -0.021533 -0.253187 0.023333
v -0.081260 -0.271320 0.023333
v -0.081260 -0.253187 0.026667
v -0.032073 -0.271320 0.026667
v -0.032073 -0.253187 0.023333
v -0.044653 -0.304413 0.023333
v -0.044653 -0.262253 0.026667
v -0.026520 -0.304413 0.026667
v -0.026520 -0.262253 0.023333
v -0.089138 -0.267922 0.023333
v -0.077482 -0.254032 0.026667
v -0.035851 -0.312635 0.026667
v -0.024196 -0.298744 0.023333
v -0.075990 -0.159743 0.023333
v -0.075990 -0.141610 0.026667
v -0.037343 -0.159743 0.026667
v -0.037343 -0.141610 0.023333
v -0.075990 -0.198390 0.023333
v -0.075990 -0.180257 0.026667
v -0.037343 -0.198390 0.026667
v -0.037343 -0.180257 0.020000
v -0.037343 -0.180257 0.030000
v -0.046410 -0.189323 0.020000
v -0.046410 -0.189323 0.030000
v -0.046410 -0.150677 0.020000
v -0.046410 -0.150677 0.030000
v -0.028277 -0.189323 0.026667
v -0.028277 -0.150677 0.020000
v -0.028277 -0.150677 0.030000
v -0.085057 -0.189323 0.023333
v -0.085057 -0.150677 0.026667
v -0.066923 -0.189323 0.026667
v -0.066923 -0.150677 0.023333
v -0.077482 -0.199302 0.025000
v -0.089138 -0.185411 0.020000
v -0.089138 -0.185411 0.030000
v -0.024196 -0.154589 0.020000
v -0.024196 -0.154589 0.030000
v -0.035851 -0.140698 0.025000
v -0.081260 -0.044653 0.023333
v -0.081260 -0.026520 0.026667
v -0.032073 -0.044653 0.026667
v -0.032073 -0.026520 0.023333
v -0.044653 -0.077747 0.023333
v -0.044653 -0.035587 0.026667
v -0.026520 -0.077747 0.026667
v -0.026520 -0.035587 0.023333
v -0.091800 -0.065733 0.023333
v -0.091800 -0.047600 0.026667
v -0.021533 -0.065733 0.026667
v -0.021533 -0.047600 0.023333
v -0.075990 0.066923 0.023333
v -0.075990 0.085057 0.026667
v -0.037343 0.066923 0.026667
v -0.037343 0.085057 0.023333
v -0.075990 0.028277 0.023333
v -0.075990 0.046410 0.026667
v -0.037343 0.028277 0.026667
v -0.037343 0.046410 0.023333
v -0.046410 0.037343 0.023333
v -0.046410 0.075990 0.026667
v -0.028277 0.037343 0.026667
v -0.028277 0.075990 0.023333
v -0.085057 0.037343 0.023333
v -0.085057 0.075990 0.026667
v -0.066923 0.037343 0.026667
v -0.066923 0.075990 0.023333
v -0.054487 0.024610 0.023333
v -0.054487 0.057250 0.026667
v -0.021847 0.024610 0.026667
v -0.021847 0.057250 0.023333
v 0.048378 -0.306206 0.023333
v 0.048378 -0.273566 0.026667
v 0.081018 -0.306206 0.026667
v 0.081018 -0.273566 0.023333
v 0.037343 -0.273077 0.023333
v 0.037343 -0.254943 0.026667
v 0.075990 -0.273077 0.026667
v 0.075990 -0.254943 0.023333
v 0.037343 -0.311723 0.023333
v 0.037343 -0.293590 0.026667
v 0.075990 -0.311723 0.026667
v 0.075990 -0.293590 0.023333
v 0.066923 -0.302657 0.023333
v 0.066923 -0.264010 0.026667
v 0.085057 -0.302657 0.026667
v 0.085057 -0.264010 0.023333
v 0.028277 -0.302657 0.023333
v 0.028277 -0.264010 0.026667
v 0.046410 -0.302657 0.026667
v 0.046410 -0.264010 0.023333
v 0.032073 -0.271320 0.023333
v 0.032073 -0.253187 0.026667
v 0.081260 -0.271320 0.026667
v 0.081260 -0.253187 0.023333
v 0.068680 -0.304413 0.023333
v 0.068680 -0.262253 0.026667
v 0.086813 -0.304413 0.026667
v 0.086813 -0.262253 0.023333
v 0.032073 -0.157987 0.023333
v 0.032073 -0.139853 0.026667
v 0.081260 -0.157987 0.026667
v 0.081260 -0.139853 0.023333
v 0.068680 -0.191080 0.023333
v 0.068680 -0.148920 0.026667
v 0.086813 -0.191080 0.026667
v 0.086813 -0.148920 0.023333
v 0.021533 -0.200147 0.023333
v 0.021533 -0.182013 0.026667
v 0.091800 -0.200147 0.026667
v 0.091800 -0.182013 0.023333
v 0.024196 -0.154589 0.020000
v 0.024196 -0.154589 0.030000
v 0.035851 -0.140698 0.025000
v 0.077482 -0.199302 0.025000
v 0.089138 -0.185411 0.020000
v 0.089138 -0.185411 0.030000
v 0.019342 0.133101 0.023333
v 0.019342 0.165741 0.026667
v 0.051982 0.133101 0.026667
v 0.051982 0.165741 0.023333
v 0.037343 0.180257 0.023333
v 0.037343 0.198390 0.026667
v 0.075990 0.180257 0.026667
v 0.075990 0.198390 0.023333
v 0.037343 0.141610 0.023333
v 0.037343 0.159743 0.026667
v 0.075990 0.141610 0.026667
v 0.075990 0.159743 0.023333
v 0.066923 0.150677 0.023333
v 0.066923 0.189323 0.026667
v 0.085057 0.150677 0.026667
v 0.085057 0.189323 0.023333
v 0.028277 0.150677 0.023333
v 0.028277 0.189323 0.026667
v 0.046410 0.150677 0.026667
v 0.046410 0.189323 0.023333
v 0.024196 0.185411 0.020000
v 0.024196 0.185411 0.030000
v 0.035851 0.199302 0.025000
v 0.077482 0.140698 0.025000
v 0.089138 0.154589 0.020000
v 0.089138 0.154589 0.030000
v 0.047600 0.248200 0.023333
v 0.047600 0.318467 0.026667
v 0.065733 0.248200 0.026667
v 0.065733 0.318467 0.023333
v 0.024196 0.298744 0.023333
v 0.035851 0.312635 0.026667
v 0.077482 0.254032 0.026667
v 0.089138 0.267922 0.023333
v 0.145407 -0.157987 0.023333
v 0.145407 -0.139853 0.026667
v 0.194593 -0.157987 0.026667
v 0.194593 -0.139853 0.023333
v 0.182013 -0.191080 0.023333
v 0.182013 -0.148920 0.026667
v 0.200147 -0.191080 0.026667
v 0.200147 -0.148920 0.023333
v 0.149185 -0.199302 0.025000
v 0.137529 -0.185411 0.020000
v 0.137529 -0.185411 0.030000
v 0.202471 -0.154589 0.020000
v 0.202471 -0.154589 0.030000
v 0.190815 -0.140698 0.025000
v 0.144060 0.055478 0.023333
v 0.144060 0.088118 0.026667
v 0.176700 0.055478 0.020000
v 0.176700 0.055478 0.030000
v 0.176700 0.088118 0.023333
v 0.137529 0.072077 0.023333
v 0.149185 0.085968 0.026667
v 0.190815 0.027365 0.026667
v 0.202471 0.041256 0.023333
v 0.150677 0.066923 0.023333
v 0.150677 0.085057 0.026667
v 0.189323 0.066923 0.026667
v 0.189323 0.085057 0.023333
v 0.150677 0.028277 0.023333
v 0.150677 0.046410 0.026667
v 0.189323 0.028277 0.026667
v 0.189323 0.046410 0.023333
v 0.180257 0.037343 0.023333
v 0.180257 0.075990 0.026667
v 0.198390 0.037343 0.026667
v 0.198390 0.075990 0.023333
v 0.141610 0.037343 0.023333
v 0.141610 0.075990 0.026667
v 0.159743 0.037343 0.026667
v 0.159743 0.075990 0.023333
v 0.145407 0.182013 0.023333
v 0.145407 0.200147 0.026667
v 0.194593 0.182013 0.026667
v 0.194593 0.200147 0.023333
v 0.182013 0.148920 0.023333
v 0.182013 0.191080 0.026667
v 0.200147 0.148920 0.020000
v 0.200147 0.148920 0.030000
v 0.200147 0.191080 0.023333
v 0.148920 0.145475 0.020000
v 0.148920 0.145475 0.030000
v 0.148920 0.163608 0.020000
v 0.148920 0.163608 0.030000
v 0.191080 0.145475 0.020000
v 0.191080 0.145475 0.030000
v 0.191080 0.163608 0.020000
v 0.191080 0.163608 0.030000
v 0.148920 0.176392 0.020000
v 0.148920 0.176392 0.030000
v 0.148920 0.194525 0.020000
v 0.148920 0.194525 0.030000
v 0.191080 0.176392 0.020000
v 0.191080 0.176392 0.030000
v 0.191080 0.194525 0.020000
v 0.191080 0.194525 0.030000
v 0.150677 0.293590 0.020000
v 0.150677 0.293590 0.030000
v 0.150677 0.311723 0.026667
v 0.189323 0.293590 0.026667
v 0.189323 0.311723 0.023333
v 0.150677 0.254943 0.023333
v 0.150677 0.273077 0.026667
v 0.189323 0.254943 0.026667
v 0.189323 0.273077 0.023333
v 0.180257 0.264010 0.023333
v 0.180257 0.302657 0.026667
v 0.198390 0.264010 0.026667
v 0.198390 0.302657 0.023333
v 0.141610 0.264010 0.023333
v 0.141610 0.302657 0.026667
v 0.159743 0.264010 0.026667
v 0.159743 0.302657 0.023333
v 0.174402 0.287964 0.023333
v 0.174402 0.320604 0.026667
v 0.207042 0.287964 0.026667
v 0.207042 0.320604 0.023333
v 0.264010 -0.159743 0.023333
v 0.264010 -0.141610 0.026667
v 0.302657 -0.159743 0.026667
v 0.302657 -0.141610 0.023333
v 0.264010 -0.198390 0.023333
v 0.264010 -0.180257 0.026667
v 0.302657 -0.198390 0.026667
v 0.302657 -0.180257 0.023333
v 0.293590 -0.189323 0.023333
v 0.293590 -0.150677 0.026667
v 0.311723 -0.189323 0.026667
v 0.311723 -0.150677 0.023333
v 0.254943 -0.189323 0.023333
v 0.254943 -0.150677 0.026667
v 0.273077 -0.189323 0.026667
v 0.273077 -0.150677 0.023333
v 0.254861 -0.194889 0.023333
v 0.254861 -0.162249 0.026667
v 0.287501 -0.194889 0.026667
v 0.287501 -0.162249 0.023333
v 0.258740 -0.044653 0.023333
v 0.258740 -0.026520 0.026667
v 0.307927 -0.044653 0.026667
v 0.307927 -0.026520 0.023333
v 0.295347 -0.077747 0.023333
v 0.295347 -0.035587 0.026667
v 0.313480 -0.077747 0.026667
v 0.313480 -0.035587 0.023333
v 0.248200 -0.044653 0.023333
v 0.248200 -0.026520 0.026667
v 0.318467 -0.044653 0.026667
v 0.318467 -0.026520 0.023333
v 0.253187 -0.091800 0.023333
v 0.253187 -0.021533 0.026667
v 0.271320 -0.091800 0.026667
v 0.271320 -0.021533 0.023333
v 0.295347 0.021533 0.023333
v 0.295347 0.091800 0.026667
v 0.313480 0.021533 0.026667
v 0.313480 0.091800 0.023333
v 0.262518 0.027365 0.020000
v 0.262518 0.027365 0.030000
v 0.250862 0.041256 0.025000
v 0.315804 0.072077 0.025000
v 0.304149 0.085968 0.020000
v 0.304149 0.085968 0.030000
vn -0.0000 1.0000 -0.0000
vn 0.1011 0.1011 0.9897
vn 0.7071 0.7071 -0.0000
vn 0.0466 0.1806 0.9825
vn -0.1011 0.1011 -0.9897
vn 1.0000 -0.0000 -0.0000
vn -0.0466 0.1806 -0.9825
vn 0.7071 -0.7071 -0.0000
vn -0.0000 -1.0000 -0.0000
vn -0.7071 -0.7071 -0.0000
vn -0.0000 -0.0000 1.0000
vn -1.0000 -0.0000 -0.0000
vn -0.7071 0.7071 -0.0000
vn -0.0000 -0.0000 -1.0000
vn 0.6428 -0.7660 -0.0000
vn -0.1521 0.1081 -0.9824
vn -0.1872 0.2929 0.9376
vn -0.0845 0.1801 -0.9800
vn 0.0845 0.1801 0.9800
vn -0.1801 0.0845 -0.9800
vn 0.1801 0.0845 0.9800
vn -0.7660 -0.6428 -0.0000
vn 0.7660 0.6428 -0.0000
vn -0.2234 0.1587 -0.9617
vn 0.2234 -0.1587 0.9617
vn -0.0775 0.1803 -0.9806
vn 0.0775 0.1803 0.9806
vn 0.0807 0.3439 0.9355
vn -0.1806 0.0466 -0.9825
vn 0.1806 0.0466 0.9825
vn -0.0665 0.1804 -0.9813
vn 0.0665 0.1804 0.9813
vn -0.1803 0.0775 -0.9806
vn 0.1803 0.0775 0.9806
vn 0.0775 0.1802 0.9806
vn 0.0800 0.1686 -0.9824
vn 0.1521 0.1081 0.9824
vn -0.1800 0.0929 -0.9793
vn -0.0775 0.1802 -0.9806
vn -0.1673 0.1782 -0.9697
vn -0.0845 -0.1801 0.9800
vn -0.0000 -0.0859 0.9963
vn -0.6428 0.7660 -0.0000
vn 0.1175 -0.2476 -0.9617
vn -0.1175 0.2476 0.9617
vn -0.7660 0.6428 -0.0000
vn 0.7660 -0.6428 -0.0000
vn 0.1175 0.2476 -0.9617
vn -0.1175 -0.2476 0.9617
vn 0.0996 0.1991 0.9749
vn -0.1802 0.0775 -0.9806
vn 0.1786 0.1537 0.9718
vn -0.0807 0.3439 -0.9355
vn 0.1802 0.0775 0.9806
vn -0.1011 -0.1011 0.9897
vn -0.0466 -0.1806 0.9825
vn 0.1011 -0.1011 -0.9897
vn 0.0466 -0.1806 -0.9825
vn 0.0438 -0.1982 0.9792
vn 0.0845 -0.1801 -0.9800
vn 0.1801 -0.0845 -0.9800
vn -0.1801 -0.0845 0.9800
vn 0.2234 -0.1587 -0.9617
vn -0.2234 0.1587 0.9617
vn 0.0775 -0.1803 -0.9806
vn -0.0775 -0.1803 0.9806
vn -0.1673 -0.1782 0.9697
vn 0.1806 -0.0466 -0.9825
vn -0.1806 -0.0466 0.9825
vn 0.0665 -0.1804 -0.9813
vn -0.0665 -0.1804 0.9813
vn 0.1802 -0.0775 -0.9806
vn -0.1802 -0.0775 0.9806
vn -0.0800 -0.1686 -0.9824
vn -0.1521 -0.1081 0.9824
vn 0.3447 -0.0445 -0.9376
vn 0.0775 -0.1802 -0.9806
vn -0.0775 -0.1802 0.9806
vn 0.1803 -0.0775 -0.9806
vn -0.1803 -0.0775 0.9806
vn 0.0807 -0.3439 -0.9355
vn 0.3406 -0.1598 -0.9265
vn 0.1808 -0.0000 0.9835
vn -0.1175 0.2476 -0.9617
vn 0.1175 -0.2476 0.9617
vn 0.6428 0.7660 -0.0000
vn -0.6428 -0.7660 -0.0000
vn -0.1175 -0.2476 -0.9617
vn 0.1175 0.2476 0.9617
vn -0.1991 -0.0996 0.9749
vn -0.3441 -0.0740 0.9360
vn 0.1673 -0.1782 -0.9697
vt 0.875000 0.625000
vt 0.875000 0.375000
vt 0.125000 0.625000
vt 0.375000 0.875000
vt 0.375000 0.625000
s 0
usemtl ruins_find_chart
f 3/1/1 4/1/1 2/1/1
f 18/2/2 19/2/2 20/2/2
f 5/1/3 6/1/3 4/1/3
f 22/2/4 23/2/4 24/2/4
f 20/2/5 1/2/5 18/2/5
f 7/3/6 8/3/6 6/3/6
f 24/2/7 21/2/7 22/2/7
f 9/4/8 10/4/8 8/4/8
f 11/4/9 12/4/9 10/4/9
f 12/4/10 15/4/10 14/4/10
f 11/5/11 9/5/11 7/5/11
f 15/3/12 16/3/12 14/3/12
f 16/1/13 3/1/13 2/1/13
f 12/4/14 14/4/14 16/4/14
f 28/2/15 25/2/15 27/2/15
f 29/2/16 25/2/16 26/2/16
f 26/2/17 28/2/17 29/2/17
f 33/2/7 30/2/7 31/2/7
f 31/2/4 32/2/4 33/2/4
f 37/2/18 34/2/18 35/2/18
f 35/2/19 36/2/19 37/2/19
f 41/2/18 38/2/18 39/2/18
f 39/2/19 40/2/19 41/2/19
f 45/2/20 42/2/20 43/2/20
f 43/2/21 44/2/21 45/2/21
f 49/2/20 46/2/20 47/2/20
f 47/2/21 48/2/21 49/2/21
f 51/2/22 52/2/22 50/2/22
f 55/2/23 53/2/23 54/2/23
f 54/2/24 50/2/24 52/2/24
f 55/2/25 51/2/25 53/2/25
f 59/2/26 56/2/26 57/2/26
f 57/2/27 58/2/27 59/2/27
f 63/2/26 60/2/26 61/2/26
f 61/2/27 62/2/27 63/2/27
f 67/2/18 64/2/18 65/2/18
f 65/2/19 66/2/19 67/2/19
f 71/2/18 68/2/18 69/2/18
f 69/2/19 70/2/19 71/2/19
f 75/2/20 72/2/20 73/2/20
f 73/2/21 74/2/21 75/2/21
f 79/2/20 76/2/20 77/2/20
f 77/2/21 78/2/21 79/2/21
f 83/2/7 80/2/7 81/2/7
f 81/2/4 82/2/4 83/2/4
f 87/2/18 84/2/18 85/2/18
f 85/2/19 86/2/19 87/2/19
f 91/2/9 88/2/9 90/2/9
f 92/2/18 88/2/18 89/2/18
f 89/2/28 91/2/28 92/2/28
f 96/2/20 93/2/20 94/2/20
f 94/2/21 95/2/21 96/2/21
f 100/2/20 97/2/20 98/2/20
f 98/2/21 99/2/21 100/2/21
f 104/2/29 101/2/29 102/2/29
f 102/2/30 103/2/30 104/2/30
f 108/2/31 105/2/31 106/2/31
f 106/2/32 107/2/32 108/2/32
f 112/2/33 109/2/33 110/2/33
f 110/2/34 111/2/34 112/2/34
f 116/2/26 113/2/26 114/2/26
f 114/2/35 115/2/35 116/2/35
f 120/2/26 117/2/26 118/2/26
f 118/2/35 119/2/35 120/2/35
f 124/2/5 121/2/5 122/2/5
f 122/2/2 123/2/2 124/2/2
f 128/2/36 125/2/36 126/2/36
f 126/2/37 127/2/37 128/2/37
f 132/2/26 129/2/26 130/2/26
f 130/2/35 131/2/35 132/2/35
f 136/2/26 133/2/26 134/2/26
f 134/2/27 135/2/27 136/2/27
f 140/2/5 137/2/5 138/2/5
f 138/2/2 139/2/2 140/2/2
f 142/2/12 143/2/12 141/2/12
f 145/2/38 141/2/38 143/2/38
f 143/2/30 144/2/30 145/2/30
f 149/2/39 146/2/39 147/2/39
f 147/2/35 148/2/35 149/2/35
f 153/2/26 150/2/26 151/2/26
f 151/2/27 152/2/27 153/2/27
f 157/2/5 154/2/5 155/2/5
f 155/2/2 156/2/2 157/2/2
f 161/2/7 158/2/7 159/2/7
f 159/2/4 160/2/4 161/2/4
f 165/2/31 162/2/31 163/2/31
f 163/2/32 164/2/32 165/2/32
f 169/2/33 166/2/33 167/2/33
f 167/2/34 168/2/34 169/2/34
f 173/2/36 170/2/36 171/2/36
f 171/2/37 172/2/37 173/2/37
f 177/2/18 174/2/18 175/2/18
f 175/2/19 176/2/19 177/2/19
f 182/2/6 180/2/6 181/2/6
f 181/2/40 178/2/40 179/2/40
f 179/2/41 180/2/41 182/2/41
f 184/2/12 185/2/12 183/2/12
f 186/2/1 188/2/1 185/2/1
f 189/2/6 187/2/6 188/2/6
f 188/2/14 183/2/14 185/2/14
f 186/2/42 187/2/42 189/2/42
f 193/2/20 190/2/20 191/2/20
f 191/2/21 192/2/21 193/2/21
f 196/2/43 199/2/43 195/2/43
f 198/2/15 194/2/15 197/2/15
f 195/2/44 197/2/44 194/2/44
f 196/2/45 198/2/45 199/2/45
f 203/2/31 200/2/31 201/2/31
f 201/2/32 202/2/32 203/2/32
f 207/2/33 204/2/33 205/2/33
f 205/2/34 206/2/34 207/2/34
f 211/2/7 208/2/7 209/2/7
f 209/2/4 210/2/4 211/2/4
f 215/2/18 212/2/18 213/2/18
f 213/2/19 214/2/19 215/2/19
f 219/2/18 216/2/18 217/2/18
f 217/2/19 218/2/19 219/2/19
f 223/2/20 220/2/20 221/2/20
f 221/2/21 222/2/21 223/2/21
f 227/2/20 224/2/20 225/2/20
f 225/2/21 226/2/21 227/2/21
f 231/2/5 228/2/5 229/2/5
f 229/2/2 230/2/2 231/2/2
f 235/2/5 232/2/5 233/2/5
f 233/2/2 234/2/2 235/2/2
f 239/2/18 236/2/18 237/2/18
f 237/2/19 238/2/19 239/2/19
f 243/2/18 240/2/18 241/2/18
f 241/2/19 242/2/19 243/2/19
f 247/2/20 244/2/20 245/2/20
f 245/2/21 246/2/21 247/2/21
f 251/2/20 248/2/20 249/2/20
f 249/2/21 250/2/21 251/2/21
f 255/2/31 252/2/31 253/2/31
f 253/2/32 254/2/32 255/2/32
f 259/2/33 256/2/33 257/2/33
f 257/2/34 258/2/34 259/2/34
f 263/2/31 260/2/31 261/2/31
f 261/2/32 262/2/32 263/2/32
f 267/2/33 264/2/33 265/2/33
f 265/2/34 266/2/34 267/2/34
f 271/2/7 268/2/7 269/2/7
f 269/2/4 270/2/4 271/2/4
f 273/2/46 274/2/46 272/2/46
f 277/2/47 275/2/47 276/2/47
f 276/2/48 272/2/48 274/2/48
f 277/2/49 273/2/49 275/2/49
f 281/2/5 278/2/5 279/2/5
f 279/2/2 280/2/2 281/2/2
f 285/2/18 282/2/18 283/2/18
f 283/2/19 284/2/19 285/2/19
f 289/2/18 286/2/18 287/2/18
f 287/2/19 288/2/19 289/2/19
f 293/2/20 290/2/20 291/2/20
f 291/2/21 292/2/21 293/2/21
f 297/2/20 294/2/20 295/2/20
f 295/2/21 296/2/21 297/2/21
f 299/2/46 300/2/46 298/2/46
f 303/2/47 301/2/47 302/2/47
f 302/2/48 298/2/48 300/2/48
f 303/2/49 299/2/49 301/2/49
f 307/2/29 304/2/29 305/2/29
f 305/2/30 306/2/30 307/2/30
f 311/2/36 308/2/36 309/2/36
f 309/2/37 310/2/37 311/2/37
f 315/2/31 312/2/31 313/2/31
f 313/2/32 314/2/32 315/2/32
f 319/2/33 316/2/33 317/2/33
f 317/2/34 318/2/34 319/2/34
f 322/2/43 325/2/43 321/2/43
f 324/2/15 320/2/15 323/2/15
f 321/2/44 323/2/44 320/2/44
f 322/2/45 324/2/45 325/2/45
f 329/2/9 326/2/9 328/2/9
f 330/2/5 326/2/5 327/2/5
f 327/2/50 329/2/50 330/2/50
f 334/2/36 331/2/36 332/2/36
f 332/2/37 333/2/37 334/2/37
f 338/2/18 335/2/18 336/2/18
f 336/2/19 337/2/19 338/2/19
f 342/2/18 339/2/18 340/2/18
f 340/2/19 341/2/19 342/2/19
f 346/2/20 343/2/20 344/2/20
f 344/2/21 345/2/21 346/2/21
f 350/2/20 347/2/20 348/2/20
f 348/2/21 349/2/21 350/2/21
f 354/2/31 351/2/31 352/2/31
f 352/2/32 353/2/32 354/2/32
f 358/2/9 355/2/9 357/2/9
f 359/2/51 355/2/51 356/2/51
f 356/2/52 358/2/52 359/2/52
f 361/2/12 362/2/12 360/2/12
f 363/2/1 366/2/1 362/2/1
f 367/2/6 364/2/6 366/2/6
f 365/2/9 360/2/9 364/2/9
f 366/2/14 360/2/14 362/2/14
f 363/2/11 365/2/11 367/2/11
f 369/2/12 370/2/12 368/2/12
f 371/2/1 374/2/1 370/2/1
f 375/2/6 372/2/6 374/2/6
f 373/2/9 368/2/9 372/2/9
f 374/2/14 368/2/14 370/2/14
f 371/2/11 373/2/11 375/2/11
f 377/2/12 378/2/12 376/2/12
f 380/2/53 376/2/53 378/2/53
f 378/2/19 379/2/19 380/2/19
f 384/2/18 381/2/18 382/2/18
f 382/2/19 383/2/19 384/2/19
f 388/2/20 385/2/20 386/2/20
f 386/2/21 387/2/21 388/2/21
f 392/2/20 389/2/20 390/2/20
f 390/2/21 391/2/21 392/2/21
f 396/2/5 393/2/5 394/2/5
f 394/2/2 395/2/2 396/2/2
f 400/2/18 397/2/18 398/2/18
f 398/2/19 399/2/19 400/2/19
f 404/2/18 401/2/18 402/2/18
f 402/2/19 403/2/19 404/2/19
f 408/2/20 405/2/20 406/2/20
f 406/2/21 407/2/21 408/2/21
f 412/2/20 409/2/20 410/2/20
f 410/2/21 411/2/21 412/2/21
f 416/2/5 413/2/5 414/2/5
f 414/2/2 415/2/2 416/2/2
f 420/2/31 417/2/31 418/2/31
f 418/2/32 419/2/32 420/2/32
f 424/2/33 421/2/33 422/2/33
f 422/2/54 423/2/54 424/2/54
f 428/2/7 425/2/7 426/2/7
f 426/2/4 427/2/4 428/2/4
f 432/2/29 429/2/29 430/2/29
f 430/2/30 431/2/30 432/2/30
f 436/2/29 433/2/29 434/2/29
f 434/2/30 435/2/30 436/2/30
f 438/2/22 439/2/22 437/2/22
f 442/2/23 440/2/23 441/2/23
f 441/2/24 437/2/24 439/2/24
f 442/2/25 438/2/25 440/2/25
f 3/1/1 5/1/1 4/1/1
f 29/2/23 28/2/23 27/2/23
f 18/2/55 1/2/55 19/2/55
f 5/1/3 7/1/3 6/1/3
f 22/2/56 21/2/56 23/2/56
f 20/2/57 19/2/57 1/2/57
f 7/3/6 9/3/6 8/3/6
f 24/2/58 23/2/58 21/2/58
f 9/4/8 11/4/8 10/4/8
f 11/4/9 13/4/9 12/4/9
f 12/4/10 13/4/10 15/4/10
f 7/5/11 5/5/11 15/5/11
f 5/5/11 3/5/11 15/5/11
f 3/5/11 17/5/11 15/5/11
f 15/5/11 13/5/11 7/5/11
f 13/5/11 11/5/11 7/5/11
f 15/3/12 17/3/12 16/3/12
f 16/1/13 17/1/13 3/1/13
f 16/4/14 2/4/14 8/4/14
f 2/4/14 4/4/14 8/4/14
f 4/4/14 6/4/14 8/4/14
f 8/4/14 10/4/14 16/4/14
f 10/4/14 12/4/14 16/4/14
f 29/2/16 27/2/16 25/2/16
f 26/2/59 25/2/59 28/2/59
f 33/2/58 32/2/58 30/2/58
f 31/2/56 30/2/56 32/2/56
f 37/2/60 36/2/60 34/2/60
f 35/2/41 34/2/41 36/2/41
f 41/2/60 40/2/60 38/2/60
f 39/2/41 38/2/41 40/2/41
f 45/2/61 44/2/61 42/2/61
f 43/2/62 42/2/62 44/2/62
f 49/2/61 48/2/61 46/2/61
f 47/2/62 46/2/62 48/2/62
f 52/2/43 55/2/43 54/2/43
f 53/2/15 51/2/15 50/2/15
f 54/2/63 53/2/63 50/2/63
f 55/2/64 52/2/64 51/2/64
f 59/2/65 58/2/65 56/2/65
f 57/2/66 56/2/66 58/2/66
f 63/2/65 62/2/65 60/2/65
f 61/2/66 60/2/66 62/2/66
f 67/2/60 66/2/60 64/2/60
f 65/2/41 64/2/41 66/2/41
f 71/2/60 70/2/60 68/2/60
f 69/2/41 68/2/41 70/2/41
f 75/2/61 74/2/61 72/2/61
f 73/2/62 72/2/62 74/2/62
f 79/2/61 78/2/61 76/2/61
f 77/2/62 76/2/62 78/2/62
f 83/2/58 82/2/58 80/2/58
f 81/2/56 80/2/56 82/2/56
f 87/2/60 86/2/60 84/2/60
f 85/2/41 84/2/41 86/2/41
f 92/2/6 91/2/6 90/2/6
f 92/2/18 90/2/18 88/2/18
f 89/2/67 88/2/67 91/2/67
f 96/2/61 95/2/61 93/2/61
f 94/2/62 93/2/62 95/2/62
f 100/2/61 99/2/61 97/2/61
f 98/2/62 97/2/62 99/2/62
f 104/2/68 103/2/68 101/2/68
f 102/2/69 101/2/69 103/2/69
f 108/2/70 107/2/70 105/2/70
f 106/2/71 105/2/71 107/2/71
f 112/2/72 111/2/72 109/2/72
f 110/2/73 109/2/73 111/2/73
f 116/2/65 115/2/65 113/2/65
f 114/2/66 113/2/66 115/2/66
f 120/2/65 119/2/65 117/2/65
f 118/2/66 117/2/66 119/2/66
f 124/2/57 123/2/57 121/2/57
f 122/2/55 121/2/55 123/2/55
f 128/2/74 127/2/74 125/2/74
f 126/2/75 125/2/75 127/2/75
f 132/2/65 131/2/65 129/2/65
f 130/2/66 129/2/66 131/2/66
f 136/2/65 135/2/65 133/2/65
f 134/2/66 133/2/66 135/2/66
f 140/2/57 139/2/57 137/2/57
f 138/2/55 137/2/55 139/2/55
f 144/2/9 142/2/9 141/2/9
f 145/2/76 144/2/76 141/2/76
f 143/2/30 142/2/30 144/2/30
f 149/2/77 148/2/77 146/2/77
f 147/2/78 146/2/78 148/2/78
f 153/2/65 152/2/65 150/2/65
f 151/2/66 150/2/66 152/2/66
f 157/2/57 156/2/57 154/2/57
f 155/2/55 154/2/55 156/2/55
f 161/2/58 160/2/58 158/2/58
f 159/2/56 158/2/56 160/2/56
f 165/2/70 164/2/70 162/2/70
f 163/2/71 162/2/71 164/2/71
f 169/2/79 168/2/79 166/2/79
f 167/2/80 166/2/80 168/2/80
f 173/2/74 172/2/74 170/2/74
f 171/2/75 170/2/75 172/2/75
f 177/2/60 176/2/60 174/2/60
f 175/2/41 174/2/41 176/2/41
f 179/2/1 182/2/1 181/2/1
f 181/2/81 180/2/81 178/2/81
f 179/2/41 178/2/41 180/2/41
f 184/2/12 186/2/12 185/2/12
f 186/2/1 189/2/1 188/2/1
f 187/2/9 184/2/9 183/2/9
f 188/2/82 187/2/82 183/2/82
f 186/2/83 184/2/83 187/2/83
f 193/2/61 192/2/61 190/2/61
f 191/2/62 190/2/62 192/2/62
f 194/2/22 196/2/22 195/2/22
f 199/2/23 198/2/23 197/2/23
f 195/2/84 199/2/84 197/2/84
f 196/2/85 194/2/85 198/2/85
f 203/2/70 202/2/70 200/2/70
f 201/2/71 200/2/71 202/2/71
f 207/2/79 206/2/79 204/2/79
f 205/2/80 204/2/80 206/2/80
f 211/2/58 210/2/58 208/2/58
f 209/2/56 208/2/56 210/2/56
f 215/2/60 214/2/60 212/2/60
f 213/2/41 212/2/41 214/2/41
f 219/2/60 218/2/60 216/2/60
f 217/2/41 216/2/41 218/2/41
f 223/2/61 222/2/61 220/2/61
f 221/2/62 220/2/62 222/2/62
f 227/2/61 226/2/61 224/2/61
f 225/2/62 224/2/62 226/2/62
f 231/2/57 230/2/57 228/2/57
f 229/2/55 228/2/55 230/2/55
f 235/2/57 234/2/57 232/2/57
f 233/2/55 232/2/55 234/2/55
f 239/2/60 238/2/60 236/2/60
f 237/2/41 236/2/41 238/2/41
f 243/2/60 242/2/60 240/2/60
f 241/2/41 240/2/41 242/2/41
f 247/2/61 246/2/61 244/2/61
f 245/2/62 244/2/62 246/2/62
f 251/2/61 250/2/61 248/2/61
f 249/2/62 248/2/62 250/2/62
f 255/2/70 254/2/70 252/2/70
f 253/2/71 252/2/71 254/2/71
f 259/2/79 258/2/79 256/2/79
f 257/2/80 256/2/80 258/2/80
f 263/2/70 262/2/70 260/2/70
f 261/2/71 260/2/71 262/2/71
f 267/2/79 266/2/79 264/2/79
f 265/2/80 264/2/80 266/2/80
f 271/2/58 270/2/58 268/2/58
f 269/2/56 268/2/56 270/2/56
f 274/2/86 277/2/86 276/2/86
f 275/2/87 273/2/87 272/2/87
f 276/2/88 275/2/88 272/2/88
f 277/2/89 274/2/89 273/2/89
f 281/2/57 280/2/57 278/2/57
f 279/2/55 278/2/55 280/2/55
f 285/2/60 284/2/60 282/2/60
f 283/2/41 282/2/41 284/2/41
f 289/2/60 288/2/60 286/2/60
f 287/2/41 286/2/41 288/2/41
f 293/2/61 292/2/61 290/2/61
f 291/2/62 290/2/62 292/2/62
f 297/2/61 296/2/61 294/2/61
f 295/2/62 294/2/62 296/2/62
f 300/2/86 303/2/86 302/2/86
f 301/2/87 299/2/87 298/2/87
f 302/2/88 301/2/88 298/2/88
f 303/2/89 300/2/89 299/2/89
f 307/2/68 306/2/68 304/2/68
f 305/2/69 304/2/69 306/2/69
f 311/2/74 310/2/74 308/2/74
f 309/2/75 308/2/75 310/2/75
f 315/2/70 314/2/70 312/2/70
f 313/2/71 312/2/71 314/2/71
f 319/2/72 318/2/72 316/2/72
f 317/2/73 316/2/73 318/2/73
f 320/2/22 322/2/22 321/2/22
f 325/2/23 324/2/23 323/2/23
f 321/2/84 325/2/84 323/2/84
f 322/2/85 320/2/85 324/2/85
f 330/2/6 329/2/6 328/2/6
f 330/2/5 328/2/5 326/2/5
f 327/2/90 326/2/90 329/2/90
f 334/2/74 333/2/74 331/2/74
f 332/2/75 331/2/75 333/2/75
f 338/2/60 337/2/60 335/2/60
f 336/2/41 335/2/41 337/2/41
f 342/2/60 341/2/60 339/2/60
f 340/2/41 339/2/41 341/2/41
f 346/2/61 345/2/61 343/2/61
f 344/2/62 343/2/62 345/2/62
f 350/2/61 349/2/61 347/2/61
f 348/2/62 347/2/62 349/2/62
f 354/2/70 353/2/70 351/2/70
f 352/2/71 351/2/71 353/2/71
f 359/2/6 358/2/6 357/2/6
f 359/2/51 357/2/51 355/2/51
f 356/2/91 355/2/91 358/2/91
f 361/2/12 363/2/12 362/2/12
f 363/2/1 367/2/1 366/2/1
f 367/2/6 365/2/6 364/2/6
f 365/2/9 361/2/9 360/2/9
f 366/2/14 364/2/14 360/2/14
f 363/2/11 361/2/11 365/2/11
f 369/2/12 371/2/12 370/2/12
f 371/2/1 375/2/1 374/2/1
f 375/2/6 373/2/6 372/2/6
f 373/2/9 369/2/9 368/2/9
f 374/2/14 372/2/14 368/2/14
f 371/2/11 369/2/11 373/2/11
f 379/2/9 377/2/9 376/2/9
f 380/2/92 379/2/92 376/2/92
f 378/2/19 377/2/19 379/2/19
f 384/2/60 383/2/60 381/2/60
f 382/2/41 381/2/41 383/2/41
f 388/2/61 387/2/61 385/2/61
f 386/2/62 385/2/62 387/2/62
f 392/2/61 391/2/61 389/2/61
f 390/2/62 389/2/62 391/2/62
f 396/2/57 395/2/57 393/2/57
f 394/2/55 393/2/55 395/2/55
f 400/2/60 399/2/60 397/2/60
f 398/2/41 397/2/41 399/2/41
f 404/2/60 403/2/60 401/2/60
f 402/2/41 401/2/41 403/2/41
f 408/2/61 407/2/61 405/2/61
f 406/2/62 405/2/62 407/2/62
f 412/2/61 411/2/61 409/2/61
f 410/2/62 409/2/62 411/2/62
f 416/2/57 415/2/57 413/2/57
f 414/2/55 413/2/55 415/2/55
f 420/2/70 419/2/70 417/2/70
f 418/2/71 417/2/71 419/2/71
f 424/2/72 423/2/72 421/2/72
f 422/2/80 421/2/80 423/2/80
f 428/2/58 427/2/58 425/2/58
f 426/2/56 425/2/56 427/2/56
f 432/2/68 431/2/68 429/2/68
f 430/2/69 429/2/69 431/2/69
f 436/2/68 435/2/68 433/2/68
f 434/2/69 433/2/69 435/2/69
f 439/2/43 442/2/43 441/2/43
f 440/2/15 438/2/15 437/2/15
f 441/2/63 440/2/63 437/2/63
f 442/2/64 439/2/64 438/2/64
