# Blender 5.2.2 LTS
# www.blender.org
mtllib ruins_hk_floor_b.mtl
o piece
v -0.091516 0.121217 -0.039105
v -2.408487 0.121217 -0.039105
v -0.142658 0.170610 0.007930
v -2.358072 0.170610 0.007930
v -0.091513 2.378781 -0.039105
v -2.408487 2.378777 -0.039105
v -0.142658 2.329391 0.007930
v -2.358072 2.329391 0.007930
v -2.462570 2.462567 -0.002619
v -2.500000 2.500000 -0.002619
v -2.462567 0.037430 -0.002619
v -2.500000 0.000000 -0.002619
v -0.037430 2.462567 -0.002619
v 0.000000 2.500000 -0.002619
v -0.037433 0.037430 -0.002619
v 0.000000 0.000000 -0.002619
v -2.438193 2.438190 -0.039105
v -2.438190 0.061809 -0.039105
v -0.061807 2.438190 -0.039105
v -0.061813 0.061809 -0.039105
v -1.250000 0.121217 -0.039105
v -1.250000 0.061809 -0.039105
v -1.250365 2.329391 0.007930
v -1.250365 0.170610 0.007930
v -2.500000 1.250000 -0.002619
v -2.462569 1.249998 -0.002619
v -2.358072 1.249637 0.007930
v -1.250365 1.249637 0.007930
v -0.142658 1.249637 0.007930
v -0.998695 1.276506 0.007930
v -0.707465 2.329391 0.007930
v -0.998695 1.819391 0.007930
v -0.707465 2.082611 0.007930
v -0.142658 0.763078 0.007930
v -0.998695 0.170610 0.007930
v -0.974306 0.643285 0.007930
v -1.023085 0.696689 0.007930
v -0.567361 0.669987 0.007930
v -0.444627 0.763078 0.007930
v -1.277234 1.597047 0.007930
v -1.801842 1.424953 0.007930
v -1.830990 1.276506 0.007930
v -1.558064 1.597047 0.007930
v -1.860138 1.448601 0.007930
v -2.358072 0.491646 0.007930
v -1.991197 0.170610 0.007930
v -2.268210 0.579520 0.007930
v -2.215512 0.279091 0.007930
v -1.513062 1.222768 0.007930
v -1.277234 1.074287 0.007930
v -1.347685 1.170439 0.007930
v -0.142658 1.904735 0.007930
v -0.331380 2.174957 0.007930
v -0.468326 2.329391 0.007930
v -0.217439 2.107951 0.007930
v -0.315973 2.293098 0.007930
v -2.500000 2.500000 -0.209428
v -2.500000 0.000000 -0.209428
v 0.000000 2.500000 -0.209428
v 0.000000 0.000000 -0.209428
v 2.408484 0.121217 -0.039105
v 0.091513 0.121217 -0.039105
v 2.357343 0.170610 0.007930
v 0.141928 0.170610 0.007930
v 2.408487 2.378781 -0.039105
v 0.091513 2.378777 -0.039105
v 2.357343 2.329391 0.007930
v 0.141928 2.329391 0.007930
v 0.037430 2.462567 -0.002619
v 0.037433 0.037430 -0.002619
v 2.462570 2.462567 -0.002619
v 2.500000 2.500000 -0.002619
v 2.462567 0.037430 -0.002619
v 2.500000 0.000000 -0.002619
v 0.061807 2.438190 -0.039105
v 0.061810 0.061809 -0.039105
v 2.438192 2.438190 -0.039105
v 2.438187 0.061809 -0.039105
v 1.249635 2.329391 0.007930
v 1.249635 0.170610 0.007930
v 0.061809 1.249998 -0.039105
v 0.091513 1.249997 -0.039105
v 2.462568 1.249998 -0.002619
v 2.500000 1.250000 -0.002619
v 0.141928 1.249637 0.007930
v 1.249635 1.249637 0.007930
v 2.357343 1.249637 0.007930
v 1.501305 1.276506 0.007930
v 1.792535 2.329391 0.007930
v 1.501305 1.819391 0.007930
v 1.792535 2.082611 0.007930
v 2.357343 0.763078 0.007930
v 1.501305 0.170610 0.007930
v 1.525694 0.643285 0.007930
v 1.476915 0.696689 0.007930
v 1.917130 0.696689 0.007930
v 1.948148 0.643285 0.007930
v 2.039864 0.789780 0.007930
v 2.070882 0.736375 0.007930
v 1.222766 1.597047 0.007930
v 0.698158 1.424953 0.007930
v 0.669010 1.276506 0.007930
v 0.941936 1.597047 0.007930
v 0.639862 1.448601 0.007930
v 0.141928 0.491646 0.007930
v 0.508803 0.170610 0.007930
v 0.231790 0.579520 0.007930
v 0.284488 0.279091 0.007930
v 0.986938 1.222768 0.007930
v 1.222766 1.074287 0.007930
v 1.152315 1.170439 0.007930
v 2.357343 1.904735 0.007930
v 2.168620 2.174957 0.007930
v 2.031674 2.329391 0.007930
v 2.282560 2.107951 0.007930
v 2.184027 2.293098 0.007930
v 2.500000 2.500000 -0.209428
v 2.500000 0.000000 -0.209428
v -0.091516 -2.378782 -0.039105
v -2.408487 -2.378782 -0.039105
v -0.142658 -2.329390 0.007930
v -2.358072 -2.329390 0.007930
v -0.091513 -0.121219 -0.039105
v -2.408487 -0.121223 -0.039105
v -0.142658 -0.170609 0.007930
v -2.358072 -0.170609 0.007930
v -2.462570 -0.037433 -0.002619
v -2.462567 -2.462570 -0.002619
v -2.500000 -2.500000 -0.002619
v -0.037430 -0.037433 -0.002619
v -0.037433 -2.462570 -0.002619
v 0.000000 -2.500000 -0.002619
v -2.438193 -0.061810 -0.039105
v -2.438190 -2.438191 -0.039105
v -0.061807 -0.061810 -0.039105
v -0.061813 -2.438191 -0.039105
v -1.250000 -0.061810 -0.039105
v -1.250000 -0.121220 -0.039105
v -1.250000 -2.462570 -0.002619
v -1.250000 -2.500000 -0.002619
v -1.250365 -0.170609 0.007930
v -1.250365 -2.329390 0.007930
v -0.091515 -1.250001 -0.039105
v -0.061810 -1.250001 -0.039105
v -0.037431 -1.250001 -0.002619
v 0.000000 -1.250000 -0.002619
v -2.358072 -1.250363 0.007930
v -1.250365 -1.250363 0.007930
v -0.142658 -1.250363 0.007930
v -0.998695 -1.223494 0.007930
v -0.707465 -0.170609 0.007930
v -0.998695 -0.680609 0.007930
v -0.707465 -0.417389 0.007930
v -0.142658 -1.736923 0.007930
v -0.998695 -2.329390 0.007930
v -0.974306 -1.856715 0.007930
v -1.023085 -1.803311 0.007930
v -0.567361 -1.830013 0.007930
v -0.444627 -1.736923 0.007930
v -1.277234 -0.902953 0.007930
v -1.801842 -1.075047 0.007930
v -1.830990 -1.223494 0.007930
v -1.558064 -0.902953 0.007930
v -1.860138 -1.051399 0.007930
v -2.358072 -2.008354 0.007930
v -1.991197 -2.329390 0.007930
v -2.268210 -1.920480 0.007930
v -2.215512 -2.220909 0.007930
v -1.513062 -1.277232 0.007930
v -1.277234 -1.425713 0.007930
v -1.347685 -1.329561 0.007930
v -0.142658 -0.595265 0.007930
v -0.331380 -0.325043 0.007930
v -0.468326 -0.170609 0.007930
v -0.217439 -0.392049 0.007930
v -0.315973 -0.206902 0.007930
v -2.500000 -2.500000 -0.209429
v 0.000000 -2.500000 -0.209429
v 2.408484 -2.378782 -0.039105
v 0.091513 -2.378782 -0.039105
v 2.357343 -2.329390 0.007930
v 0.141928 -2.329390 0.007930
v 2.408487 -0.121219 -0.039105
v 0.091513 -0.121223 -0.039105
v 2.357343 -0.170609 0.007930
v 0.141928 -0.170609 0.007930
v 0.037430 -0.037433 -0.002619
v 0.037433 -2.462570 -0.002619
v 2.462570 -0.037433 -0.002619
v 2.462567 -2.462570 -0.002619
v 2.500000 -2.500000 -0.002619
v 0.061807 -0.061810 -0.039105
v 0.061810 -2.438191 -0.039105
v 2.438192 -0.061810 -0.039105
v 2.438187 -2.438191 -0.039105
v 1.249635 -0.170609 0.007930
v 1.249635 -2.329390 0.007930
v 0.037431 -1.250001 -0.002619
v 0.141928 -1.250363 0.007930
v 1.249635 -1.250363 0.007930
v 2.357343 -1.250363 0.007930
v 1.501305 -1.223494 0.007930
v 1.792535 -0.170609 0.007930
v 1.501305 -0.680609 0.007930
v 1.792535 -0.417389 0.007930
v 2.357343 -1.736923 0.007930
v 1.501305 -2.329390 0.007930
v 1.525694 -1.856715 0.007930
v 1.476915 -1.803311 0.007930
v 1.932639 -1.830013 0.007930
v 2.039864 -1.710220 0.007930
v 2.070882 -1.763625 0.007930
v 1.222766 -0.902953 0.007930
v 0.698158 -1.075047 0.007930
v 0.669010 -1.223494 0.007930
v 0.941936 -0.902953 0.007930
v 0.639862 -1.051399 0.007930
v 0.141928 -2.008354 0.007930
v 0.508803 -2.329390 0.007930
v 0.231790 -1.920480 0.007930
v 0.284488 -2.220909 0.007930
v 0.986938 -1.277232 0.007930
v 1.222766 -1.425713 0.007930
v 1.152315 -1.329561 0.007930
v 2.357343 -0.595265 0.007930
v 2.168620 -0.325043 0.007930
v 2.031674 -0.170609 0.007930
v 2.282560 -0.392049 0.007930
v 2.184027 -0.206902 0.007930
v 2.500000 -2.500000 -0.209429
v -1.111623 -0.801322 0.085535
v -1.111899 -0.803129 0.128692
v -2.013793 1.634714 0.151517
v -2.014471 1.632254 0.104751
v -1.195467 -0.832540 0.069754
v -2.096480 1.591931 0.105854
v -2.096804 1.587977 0.058448
v -1.194447 -0.832594 0.022268
v -1.591411 1.788300 0.159174
v -0.692808 -0.656973 0.131373
v -0.692132 -0.654541 0.078075
v -1.591994 1.785470 0.112532
v -0.776686 -0.689291 0.196951
v -1.673329 1.753058 0.209429
v -1.673989 1.750526 0.162686
v -0.776647 -0.686260 0.150479
v -0.859257 -0.716775 0.150231
v -1.758638 1.718477 0.142899
v -1.759342 1.715192 0.087727
v -0.858913 -0.714277 0.103573
v -0.936736 -0.762657 0.146453
v -1.842100 1.688945 0.188788
v -1.842766 1.686439 0.142036
v -0.936431 -0.761580 0.114078
v -1.020669 -0.790581 0.104019
v -1.928339 1.657841 0.119943
v -1.928971 1.654624 0.068012
v -1.020437 -0.788428 0.057267
v -0.356748 -0.518570 0.090471
v -1.249757 1.886371 0.077237
v -1.250373 1.883670 0.030551
v -0.356165 -0.516741 0.043591
v -0.442348 -0.553797 0.133109
v -1.333497 1.858176 0.125124
v -1.333821 1.854343 0.078819
v -0.441859 -0.552031 0.086218
v -0.526516 -0.587198 0.107345
v -1.418643 1.825607 0.082649
v -1.418238 1.818958 0.037290
v -0.525790 -0.584957 0.054867
v -0.610756 -0.624645 0.182213
v -1.508967 1.825567 0.146236
v -1.508977 1.821370 0.107963
v -0.610260 -0.622812 0.135342
v -1.279574 -0.866539 0.112629
v -2.178526 1.556676 0.151407
v -2.179219 1.554272 0.104622
v -1.279220 -0.864730 0.065763
v -1.364963 -0.891541 0.066905
v -2.263454 1.523268 0.109214
v -2.264135 1.520819 0.062444
v -1.364667 -0.889566 0.020094
v -1.189757 -0.007845 0.046741
v -1.266994 -0.039909 0.091449
v -1.336299 -0.071393 0.045230
v -1.441762 -0.043770 0.079316
v -1.529493 -0.032272 0.025491
v -1.584684 -0.076015 0.073017
v -1.646721 -0.140964 0.031885
v -1.648634 -0.138663 0.078795
v -1.584161 -0.081995 0.121302
v -1.538833 -0.016609 0.069980
v -1.441097 -0.049539 0.127574
v -1.335408 -0.075166 0.093216
v -1.271494 -0.035110 0.137813
v -1.187638 -0.005594 0.093951
v -1.141875 0.083948 0.130127
v -1.034220 0.069371 0.094323
v -0.943476 0.062594 0.147591
v -0.800725 0.053118 0.113009
v -0.726757 0.146223 0.150720
v -0.632584 0.205571 0.103325
v -0.629256 0.204632 0.056321
v -0.722036 0.138314 0.104819
v -0.802230 0.066396 0.063614
v -0.938167 0.053279 0.101933
v -1.028132 0.046378 0.050686
v -1.132123 0.069244 0.085567
v -1.496791 0.998856 0.043949
v -1.411151 1.018038 0.079685
v -1.341869 1.064957 0.017542
v -1.258639 1.074884 0.057011
v -1.185925 1.076234 0.004423
v -1.097980 1.146766 0.053973
v -1.026808 1.213232 0.012810
v -1.024341 1.210735 0.059626
v -1.096522 1.153705 0.102520
v -1.184596 1.056017 0.048490
v -1.256229 1.082441 0.105573
v -1.331526 1.045309 0.061568
v -1.406666 1.011049 0.121429
v -1.479689 0.964676 0.093240
v -1.586806 0.992075 0.121790
v -1.681638 1.031583 0.091961
v -1.749398 0.926497 0.126106
v -1.844171 0.920029 0.088309
v -1.982689 1.011536 0.163323
v -2.051876 0.964583 0.116048
v -2.026936 0.937092 0.061397
v -1.970704 0.979909 0.109204
v -1.832203 0.887129 0.033972
v -1.755453 0.938981 0.081366
v -1.681566 1.014765 0.041556
v -1.593928 1.007810 0.077716
v -0.057931 -1.700717 0.085536
v -0.059571 -1.701527 0.128692
v 1.420089 0.435550 0.151517
v 1.417685 0.434695 0.104750
v -0.131595 -1.649942 0.069754
v 1.337615 0.478745 0.105853
v 1.334191 0.476742 0.058447
v -0.131054 -1.650809 0.022269
v 1.788167 0.177649 0.159174
v 0.300534 -1.960995 0.131373
v 0.302914 -1.960154 0.078075
v 1.785515 0.176503 0.112532
v 0.225951 -1.910823 0.196951
v 1.712312 0.224538 0.209428
v 1.709860 0.223626 0.162686
v 0.228455 -1.909116 0.150479
v 0.156076 -1.858949 0.150232
v 1.635054 0.274584 0.142898
v 1.631959 0.273277 0.087727
v 0.158319 -1.857798 0.103573
v 0.074052 -1.821798 0.146453
v 1.562991 0.326013 0.188787
v 1.560556 0.325122 0.142036
v 0.075109 -1.821431 0.114078
v 0.003035 -1.769061 0.104020
v 1.488048 0.378815 0.119942
v 1.485049 0.377488 0.068012
v 0.004932 -1.768017 0.057267
v 0.606664 -2.156895 0.090471
v 2.064467 -0.045967 0.077236
v 2.061901 -0.047011 0.030551
v 0.608496 -2.156323 0.043591
v 0.528709 -2.106980 0.133109
v 1.993340 0.006457 0.125124
v 1.990014 0.004523 0.078819
v 0.530437 -2.106368 0.086218
v 0.453072 -2.057192 0.107345
v 1.917824 0.057524 0.082649
v 1.912609 0.053378 0.037290
v 0.455324 -2.056501 0.054867
v 0.374078 -2.009665 0.182213
v 1.865983 0.131490 0.146236
v 1.862538 0.129091 0.107963
v 0.375865 -2.009020 0.135342
v -0.207688 -1.600546 0.112630
v 1.261677 0.525731 0.151407
v 1.259310 0.524920 0.104621
v -0.206002 -1.599799 0.065763
v -0.277145 -1.544941 0.066905
v 1.185598 0.576138 0.109213
v 1.183201 0.575292 0.062443
v -0.275357 -1.544050 0.020094
v 0.547230 -1.181593 0.046741
v 0.476664 -1.136717 0.091450
v 0.411122 -1.098003 0.045230
v 0.373258 -0.995769 0.079317
v 0.332356 -0.917309 0.025492
v 0.264868 -0.897188 0.073017
v 0.176082 -0.883624 0.031885
v 0.176870 -0.880738 0.078795
v 0.260270 -0.901047 0.121302
v 0.339829 -0.900674 0.069981
v 0.368914 -0.999623 0.127574
v 0.408542 -1.100897 0.093216
v 0.478014 -1.130277 0.137813
v 0.550290 -1.182038 0.093951
v 0.649887 -1.168166 0.130127
v 0.699695 -1.264713 0.094323
v 0.746192 -1.342933 0.147591
v 0.820308 -1.465303 0.113009
v 0.939001 -1.472491 0.150720
v 1.041633 -1.515593 0.103325
v 1.042772 -1.518857 0.056321
v 0.935231 -1.480895 0.104819
v 0.830322 -1.456454 0.063614
v 0.741607 -1.352624 0.101933
v 0.684351 -1.282888 0.050686
v 0.643435 -1.184588 0.085567
v 1.195765 -0.352666 0.043949
v 1.260598 -0.411816 0.079685
v 1.338770 -0.441656 0.017542
v 1.394641 -0.504140 0.057011
v 1.437454 -0.562931 0.004422
v 1.545673 -0.594515 0.053972
v 1.640942 -0.614692 0.012810
v 1.640311 -0.618146 0.059626
v 1.552194 -0.591730 0.102520
v 1.421656 -0.575615 0.048490
v 1.402214 -0.501781 0.105573
v 1.328609 -0.461399 0.061568
v 1.257446 -0.419498 0.121428
v 1.177575 -0.386281 0.093240
v 1.138580 -0.282820 0.121790
v 1.116549 -0.182477 0.091961
v 0.991602 -0.187246 0.126106
v 0.931945 -0.113322 0.088309
v 0.927451 0.052632 0.163322
v 0.849306 0.082375 0.116048
v 0.841091 0.046177 0.061396
v 0.908418 0.024673 0.109204
v 0.911858 -0.141996 0.033972
v 0.998355 -0.175126 0.081366
v 1.102814 -0.192183 0.041555
v 1.147384 -0.267961 0.077715
vn -0.6822 -0.0000 0.7312
vn -1.0000 -0.0000 -0.0000
vn -0.0000 -0.8315 0.5555
vn 1.0000 -0.0000 -0.0000
vn -0.0000 -0.0000 1.0000
vn -0.0000 1.0000 -0.0000
vn -0.0000 0.8315 0.5556
vn -0.0000 -0.6896 0.7242
vn 0.8315 -0.0000 0.5555
vn -0.0000 0.6896 0.7242
vn 0.6769 -0.0000 0.7360
vn -0.8315 -0.0000 0.5555
vn 0.6769 -0.0000 0.7361
vn -0.0000 -0.0000 -1.0000
vn -0.0000 -1.0000 -0.0000
vn -0.8315 -0.0000 0.5556
vn -0.5422 -0.1700 0.8229
vn -0.4409 0.8947 -0.0716
vn 0.5314 0.1714 -0.8296
vn -0.5591 -0.8290 0.0088
vn -0.5092 -0.1211 0.8521
vn -0.3996 0.9113 -0.0998
vn 0.4851 0.1141 -0.8670
vn 0.2763 -0.2101 0.9378
vn 0.1253 -0.9913 -0.0407
vn -0.3748 -0.1177 -0.9196
vn -0.2769 0.9598 -0.0465
vn 0.5658 0.1692 0.8070
vn -0.4172 0.9074 -0.0498
vn -0.3417 -0.1355 -0.9300
vn 0.3166 -0.9465 -0.0615
vn -0.4421 -0.1324 0.8871
vn -0.3431 0.9379 -0.0515
vn 0.3637 0.1012 -0.9260
vn 0.3460 -0.9363 -0.0608
vn 0.2802 0.1009 0.9546
vn -0.3550 0.9335 -0.0511
vn -0.4518 -0.1402 -0.8810
vn 0.5103 -0.8597 -0.0238
vn -0.3378 -0.1046 0.9354
vn -0.3036 0.9512 -0.0552
vn 0.5023 0.1456 -0.8524
vn 0.3284 -0.9441 -0.0283
vn 0.3864 0.1898 0.9026
vn -0.3564 0.9330 -0.0493
vn -0.3599 -0.1814 -0.9152
vn 0.3671 -0.9297 -0.0312
vn -0.4253 -0.1131 0.8979
vn -0.3234 0.9358 -0.1401
vn 0.4190 0.1107 -0.9012
vn -0.5374 -0.8427 -0.0321
vn 0.2423 0.1544 0.9578
vn -0.0869 0.9856 -0.1453
vn -0.2545 -0.1527 -0.9550
vn 0.6090 0.1834 0.7716
vn -0.4123 0.9081 -0.0729
vn -0.5583 -0.1763 -0.8107
vn -0.4568 -0.1998 0.8669
vn -0.3472 0.9368 -0.0440
vn 0.5284 0.2213 -0.8197
vn 0.2978 -0.9540 -0.0346
vn 0.9304 0.3654 -0.0295
vn -0.9115 -0.3246 -0.2527
vn -0.0903 -0.0725 -0.9933
vn 0.5028 0.2040 -0.8400
vn -0.3405 -0.1560 -0.9272
vn 0.5357 0.2268 -0.8134
vn -0.4061 -0.1490 -0.9016
vn 0.4244 0.1739 -0.8886
vn -0.9357 -0.3522 -0.0209
vn -0.4291 -0.1764 0.8859
vn 0.5599 0.2354 0.7944
vn -0.5089 -0.2211 0.8319
vn 0.3382 0.1491 0.9292
vn -0.4014 -0.1630 0.9013
vn -0.0438 -0.0083 0.9990
vn -0.4522 -0.1391 0.8810
vn 0.3354 0.2372 0.9117
vn -0.4653 -0.1816 0.8663
vn 0.5821 0.2424 0.7762
vn -0.2985 -0.1450 0.9433
vn 0.3800 0.1285 0.9160
vn 0.9351 0.3535 0.0254
vn -0.3957 -0.1361 -0.9082
vn 0.2981 0.1392 -0.9443
vn -0.6077 -0.2478 -0.7545
vn 0.5067 0.2043 -0.8376
vn -0.5548 -0.2963 -0.7774
vn 0.4535 0.1416 -0.8799
vn 0.3324 0.2231 -0.9164
vn -0.5020 -0.0605 -0.8628
vn 0.4011 0.1956 -0.8949
vn -0.5780 -0.1453 -0.8030
vn 0.3813 0.1591 -0.9107
vn -0.4616 -0.1307 -0.8774
vn 0.9479 0.3171 -0.0309
vn 0.4588 0.1302 0.8789
vn -0.3908 -0.1605 0.9064
vn 0.5692 0.1493 0.8086
vn 0.1555 -0.0012 0.9878
vn 0.5862 0.1156 0.8019
vn -0.2650 -0.1607 0.9508
vn 0.4576 0.0825 0.8853
vn -0.5470 -0.2511 0.7986
vn -0.4048 -0.1754 0.8974
vn 0.4212 0.1708 0.8908
vn -0.4018 -0.1245 0.9072
vn -0.9348 -0.3536 0.0321
vn 0.3969 0.1368 -0.9076
vn -0.5614 -0.1838 -0.8069
vn 0.4059 0.1819 -0.8956
vn -0.3806 -0.1112 -0.9180
vn 0.3868 0.2266 -0.8939
vn -0.3330 -0.0645 -0.9407
vn -0.4503 0.3466 0.8229
vn 0.4800 0.8743 -0.0716
vn 0.4452 -0.3370 -0.8296
vn 0.3305 0.1058 0.9378
vn 0.3820 -0.9236 -0.0321
vn -0.3912 0.3477 0.8521
vn 0.5173 0.8500 -0.0998
vn 0.3717 -0.3320 -0.8670
vn -0.7401 -0.6712 -0.0407
vn -0.3114 0.2395 -0.9196
vn 0.6274 0.7773 -0.0465
vn 0.4631 -0.3664 0.8070
vn 0.5040 0.8622 -0.0498
vn -0.3070 0.2022 -0.9300
vn -0.5937 -0.8023 -0.0615
vn -0.3621 0.2862 0.8871
vn 0.5715 0.8190 -0.0515
vn 0.2915 -0.2399 -0.9260
vn -0.5685 -0.8205 -0.0608
vn 0.2434 -0.1717 0.9546
vn 0.5611 0.8262 -0.0511
vn -0.3740 0.2896 -0.8810
vn -0.4116 -0.9111 -0.0238
vn -0.2795 0.2167 0.9354
vn 0.6050 0.7943 -0.0552
vn 0.4073 -0.3280 -0.8524
vn -0.5850 -0.8105 -0.0283
vn 0.3771 -0.2076 0.9026
vn 0.5599 0.8271 -0.0493
vn -0.3550 0.1908 -0.9152
vn -0.5510 -0.8339 -0.0312
vn -0.3367 0.2835 0.8979
vn 0.5811 0.8017 -0.1401
vn 0.3310 -0.2797 -0.9012
vn 0.3584 -0.9335 0.0088
vn 0.2654 -0.1099 0.9578
vn 0.7575 0.6365 -0.1453
vn -0.2710 0.1209 -0.9550
vn 0.4996 -0.3937 0.7716
vn 0.5074 0.8586 -0.0729
vn -0.4647 0.3562 -0.8107
vn -0.4256 0.2596 0.8669
vn 0.5682 0.8217 -0.0440
vn 0.4843 -0.3059 -0.8197
vn -0.6106 -0.7912 -0.0346
vn 0.8330 -0.5525 -0.0295
vn -0.7887 0.5604 -0.2527
vn -0.1112 0.0324 -0.9933
vn 0.4555 -0.2949 -0.8400
vn -0.3231 0.1895 -0.9272
vn 0.4930 -0.3087 -0.8134
vn -0.3550 0.2472 -0.9016
vn 0.3859 -0.2479 -0.8886
vn -0.8252 0.5644 -0.0209
vn -0.3906 0.2503 0.8859
vn 0.5140 -0.3236 0.7944
vn -0.4730 0.2901 0.8319
vn 0.3162 -0.1915 0.9292
vn -0.3638 0.2353 0.9013
vn -0.0319 0.0311 0.9990
vn -0.3733 0.2906 0.8810
vn 0.3866 -0.1387 0.9117
vn -0.4156 0.2770 0.8663
vn 0.5324 -0.3378 0.7762
vn -0.2900 0.1613 0.9433
vn 0.3232 -0.2376 0.9160
vn 0.8259 -0.5632 0.0254
vn -0.3385 0.2461 -0.9082
vn 0.2850 -0.1644 -0.9443
vn -0.5516 0.3557 -0.7545
vn 0.4580 -0.2978 -0.8376
vn -0.5610 0.2845 -0.7774
vn 0.3761 -0.2903 -0.8799
vn 0.3734 -0.1443 -0.9164
vn -0.3375 0.3765 -0.8628
vn 0.3903 -0.2163 -0.8949
vn -0.4505 0.3902 -0.8030
vn 0.3490 -0.2211 -0.9107
vn -0.3718 0.3031 -0.8774
vn 0.8034 -0.5946 -0.0309
vn 0.3698 -0.3012 0.8789
vn -0.3556 0.2280 0.9064
vn 0.4488 -0.3806 0.8086
vn 0.0883 -0.1281 0.9878
vn 0.4309 -0.4139 0.8019
vn -0.2836 0.1249 0.9508
vn 0.3300 -0.3275 0.8853
vn -0.5194 0.3040 0.7986
vn -0.3759 0.2310 0.8974
vn 0.3815 -0.2471 0.8908
vn -0.3324 0.2577 0.9072
vn -0.8259 0.5629 0.0321
vn 0.3397 -0.2466 -0.9076
vn -0.4725 0.3545 -0.8069
vn 0.3818 -0.2282 -0.8956
vn -0.3094 0.2479 -0.9180
vn 0.4074 -0.1869 -0.8939
vn -0.2439 0.2357 -0.9407
vn -0.0000 0.6897 0.7241
vn -0.0000 0.6896 0.7241
vn 0.8315 -0.0000 0.5556
vn -0.3591 -0.1351 0.9235
vn -0.4413 0.8964 -0.0407
vn 0.4419 0.1537 -0.8838
vn -0.5573 -0.8296 -0.0333
vn -0.5687 -0.8225 0.0085
vn -0.5618 -0.8265 -0.0369
vn -0.4602 -0.1106 0.8809
vn -0.4179 0.9071 -0.0498
vn 0.4167 0.0990 -0.9036
vn 0.2653 -0.2032 0.9425
vn 0.2566 -0.2168 0.9419
vn 0.2649 -0.2206 0.9387
vn 0.1262 -0.9910 -0.0450
vn -0.3313 -0.1085 -0.9373
vn -0.2752 0.9597 -0.0561
vn 0.3288 0.1316 0.9352
vn -0.4171 0.9078 -0.0433
vn -0.5877 -0.1777 -0.7893
vn 0.3216 -0.9461 -0.0391
vn -0.3139 -0.0808 0.9460
vn -0.3443 0.9377 -0.0459
vn 0.4299 0.1286 -0.8936
vn 0.3462 -0.9369 -0.0476
vn 0.4238 0.1282 0.8966
vn -0.3551 0.9337 -0.0450
vn -0.3357 -0.1170 -0.9347
vn 0.5163 -0.8554 -0.0420
vn -0.5052 -0.1418 0.8513
vn -0.3058 0.9510 -0.0466
vn 0.3868 0.1199 -0.9144
vn 0.3297 -0.9432 -0.0418
vn 0.3532 0.1736 0.9193
vn -0.3563 0.9314 -0.0746
vn -0.3530 -0.1779 -0.9186
vn 0.3671 -0.9297 -0.0317
vn -0.3691 -0.0817 0.9258
vn -0.3230 0.9434 -0.0758
vn 0.3874 0.0935 -0.9171
vn -0.5428 -0.8392 -0.0343
vn -0.5422 -0.8397 -0.0309
vn -0.5358 -0.8435 -0.0372
vn -0.5379 -0.8423 -0.0342
vn -0.5361 -0.8435 -0.0321
vn 0.6571 0.2311 0.7176
vn -0.0769 0.9911 -0.1087
vn -0.5699 -0.2137 -0.7935
vn 0.5540 0.1706 0.8149
vn -0.4134 0.9096 -0.0406
vn -0.5584 -0.1764 -0.8106
vn -0.4228 -0.1845 0.8872
vn -0.3471 0.9368 -0.0430
vn 0.4142 0.1706 -0.8941
vn 0.2978 -0.9539 -0.0384
vn 0.9293 0.3647 0.0585
vn -0.9430 -0.3320 -0.0222
vn -0.4013 -0.2586 -0.8787
vn 0.4803 0.1972 -0.8546
vn -0.2755 -0.1373 -0.9514
vn 0.5308 0.2255 -0.8170
vn -0.5312 -0.2191 -0.8185
vn 0.4155 0.1691 -0.8937
vn -0.9357 -0.3522 -0.0208
vn -0.4248 -0.1741 0.8884
vn 0.4018 0.1460 0.9040
vn -0.5507 -0.2320 0.8019
vn 0.2435 0.1217 0.9622
vn -0.4699 -0.2060 0.8584
vn 0.3799 0.2460 0.8917
vn -0.4424 -0.1323 0.8870
vn 0.5197 0.2853 0.8053
vn -0.5073 -0.1956 0.8393
vn 0.2426 0.1656 0.9559
vn -0.2487 -0.1150 0.9617
vn 0.3956 0.1379 0.9080
vn 0.9332 0.3544 0.0590
vn -0.3850 -0.1296 -0.9138
vn 0.3335 0.1604 -0.9290
vn -0.2522 -0.1694 -0.9527
vn 0.4743 0.1938 -0.8588
vn -0.3563 -0.2451 -0.9016
vn 0.4321 0.1266 -0.8929
vn 0.5750 0.2582 -0.7764
vn -0.6114 -0.1309 -0.7804
vn -0.0965 0.0971 -0.9906
vn -0.6099 -0.1514 -0.7779
vn 0.3838 0.1603 -0.9094
vn -0.4200 -0.1083 -0.9011
vn 0.9479 0.3170 -0.0330
vn 0.4366 0.1182 0.8919
vn -0.3839 -0.1571 0.9099
vn 0.6512 0.1652 0.7407
vn -0.3920 -0.2533 0.8844
vn 0.5023 0.0624 0.8625
vn -0.5165 -0.2815 0.8087
vn 0.2657 0.0349 0.9634
vn -0.3762 -0.2242 0.8990
vn -0.3555 -0.1657 0.9198
vn 0.5615 0.1898 0.8054
vn -0.4751 -0.1694 0.8635
vn -0.9023 -0.3662 -0.2275
vn 0.5310 0.2172 -0.8191
vn -0.4305 -0.1634 -0.8877
vn 0.4200 0.1896 -0.8875
vn -0.3694 -0.1046 -0.9234
vn 0.5743 0.2542 -0.7781
vn -0.5158 -0.1086 -0.8498
vn -0.3166 0.2166 0.9235
vn 0.4812 0.8757 -0.0408
vn 0.3794 -0.2739 -0.8838
vn 0.3187 0.1008 0.9425
vn 0.3248 0.0859 0.9419
vn 0.3327 0.0905 0.9387
vn 0.3761 -0.9260 -0.0343
vn 0.3768 -0.9258 -0.0309
vn 0.3836 -0.9227 -0.0372
vn 0.3814 -0.9238 -0.0342
vn 0.3835 -0.9230 -0.0320
vn -0.3546 0.3135 0.8809
vn 0.5034 0.8626 -0.0498
vn 0.3201 -0.2846 -0.9036
vn -0.7394 -0.6718 -0.0450
vn -0.2789 0.2092 -0.9373
vn 0.6283 0.7759 -0.0561
vn 0.2964 -0.1939 0.9352
vn 0.5044 0.8624 -0.0433
vn -0.4826 0.3795 -0.7893
vn -0.5905 -0.8061 -0.0391
vn -0.2462 0.2108 0.9460
vn 0.5707 0.8199 -0.0459
vn 0.3520 -0.2784 -0.8936
vn -0.5689 -0.8210 -0.0476
vn 0.3481 -0.2736 0.8966
vn 0.5612 0.8265 -0.0450
vn -0.2884 0.2079 -0.9347
vn -0.4046 -0.9135 -0.0420
vn -0.4059 0.3325 0.8513
vn 0.6036 0.7959 -0.0466
vn 0.3200 -0.2481 -0.9144
vn -0.5835 -0.8110 -0.0418
vn 0.3448 -0.1898 0.9193
vn 0.5586 0.8261 -0.0746
vn -0.3482 0.1871 -0.9186
vn -0.5510 -0.8339 -0.0317
vn -0.2787 0.2555 0.9258
vn 0.5875 0.8057 -0.0758
vn 0.2988 -0.2638 -0.9171
vn 0.3599 -0.9324 -0.0333
vn 0.3475 -0.9376 0.0085
vn 0.3548 -0.9342 -0.0369
vn 0.5661 -0.4057 0.7176
vn 0.7677 0.6315 -0.1087
vn -0.5019 0.3443 -0.7935
vn 0.4575 -0.3559 0.8149
vn 0.5080 0.8604 -0.0406
vn -0.4648 0.3563 -0.8106
vn -0.3936 0.2405 0.8872
vn 0.5683 0.8217 -0.0430
vn 0.3773 -0.2415 -0.8941
vn -0.6106 -0.7910 -0.0384
vn 0.8318 -0.5520 0.0585
vn -0.8128 0.5821 -0.0222
vn -0.4420 0.1804 -0.8787
vn 0.4371 -0.2803 -0.8546
vn -0.2705 0.1469 -0.9514
vn 0.4892 -0.3054 -0.8170
vn -0.4841 0.3094 -0.8185
vn 0.3769 -0.2433 -0.8937
vn -0.8252 0.5644 -0.0208
vn -0.3862 0.2481 0.8884
vn 0.3501 -0.2454 0.9040
vn -0.5059 0.3180 0.8019
vn 0.2393 -0.1297 0.9622
vn -0.4382 0.2667 0.8584
vn 0.4194 -0.1701 0.8917
vn -0.3621 0.2865 0.8870
vn 0.5318 -0.2620 0.8053
vn -0.4512 0.3033 0.8393
vn 0.2748 -0.1037 0.9559
vn -0.2369 0.1378 0.9617
vn 0.3398 -0.2449 0.9080
vn 0.8256 -0.5612 0.0590
vn -0.3270 0.2410 -0.9138
vn 0.3227 -0.1812 -0.9290
vn -0.2834 0.1094 -0.9527
vn 0.4308 -0.2774 -0.8588
vn -0.4052 0.1513 -0.9016
vn 0.3516 -0.2814 -0.8929
vn 0.5413 -0.3229 -0.7764
vn -0.4579 0.4257 -0.7804
vn 0.0242 0.1347 -0.9906
vn -0.4739 0.4127 -0.7779
vn 0.3515 -0.2225 -0.9094
vn -0.3296 0.2819 -0.9011
vn 0.8033 -0.5947 -0.0330
vn 0.3473 -0.2898 0.8919
vn -0.3489 0.2243 0.9099
vn 0.5088 -0.4387 0.7407
vn -0.4323 0.1758 0.8844
vn 0.3392 -0.3756 0.8625
vn -0.5269 0.2616 0.8087
vn 0.1809 -0.1977 0.9634
vn -0.3995 0.1795 0.8990
vn -0.3397 0.1962 0.9198
vn 0.4776 -0.3511 0.8054
vn -0.4112 0.2920 0.8635
vn -0.8175 0.5290 -0.2275
vn 0.4825 -0.3103 -0.8191
vn -0.3808 0.2590 -0.8877
vn 0.3962 -0.2353 -0.8875
vn -0.2976 0.2426 -0.9234
vn 0.5377 -0.3246 -0.7781
vn -0.3848 0.3602 -0.8498
vt 0.125000 0.625000
vt 0.625000 0.875000
vt 0.125000 0.875000
vt 0.875000 0.625000
vt 0.875000 0.375000
vt 0.375000 0.625000
s 0
usemtl ruins_hk_floor_b
f 45/1/1 27/1/1 2/1/1
f 12/2/2 177/2/2 129/2/2
f 187/1/3 194/1/3 189/1/3
f 16/2/4 59/2/4 14/2/4
f 9/1/3 19/1/3 13/1/3
f 1/3/5 22/3/5 20/3/5
f 104/4/5 103/4/5 68/4/5
f 72/2/6 59/2/6 14/2/6
f 25/3/5 11/3/5 26/3/5
f 139/1/7 131/1/7 136/1/7
f 148/4/5 150/4/5 152/4/5
f 158/4/5 159/4/5 148/4/5
f 119/1/8 155/1/8 142/1/8
f 191/3/5 189/3/5 190/3/5
f 17/1/9 9/1/9 26/1/9
f 43/4/5 42/4/5 28/4/5
f 89/1/10 114/1/10 65/1/10
f 206/1/11 179/1/11 201/1/11
f 174/1/10 125/1/10 123/1/10
f 15/1/7 20/1/7 22/1/7
f 210/1/5 212/1/5 211/1/5
f 29/4/5 28/4/5 39/4/5
f 61/1/8 93/1/8 80/1/8
f 117/2/4 84/2/4 118/2/4
f 58/2/2 25/2/2 57/2/2
f 20/1/12 13/1/12 19/1/12
f 59/2/6 10/2/6 14/2/6
f 55/1/5 7/1/5 56/1/5
f 120/3/5 133/3/5 134/3/5
f 82/1/1 105/1/1 85/1/1
f 173/4/5 174/4/5 153/4/5
f 70/1/9 76/1/9 81/1/9
f 83/1/12 71/1/12 77/1/12
f 69/1/3 77/1/3 71/1/3
f 28/4/5 30/4/5 32/4/5
f 16/3/5 14/3/5 13/3/5
f 5/1/13 7/1/13 52/1/13
f 53/4/5 54/4/5 33/4/5
f 86/2/5 79/2/5 100/2/5
f 84/3/5 73/3/5 74/3/5
f 44/4/5 43/4/5 8/4/5
f 178/2/14 118/2/14 230/2/14
f 113/4/5 114/4/5 91/4/5
f 48/1/5 45/1/5 4/1/5
f 224/1/5 200/1/5 222/1/5
f 217/4/5 216/4/5 186/4/5
f 103/4/5 102/4/5 86/4/5
f 132/2/15 230/2/15 191/2/15
f 47/4/5 46/4/5 50/4/5
f 86/4/5 88/4/5 90/4/5
f 107/4/5 110/4/5 109/4/5
f 98/4/5 87/4/5 86/4/5
f 58/2/14 59/2/14 60/2/14
f 93/4/5 63/4/5 97/4/5
f 117/2/14 60/2/14 59/2/14
f 12/2/15 60/2/15 16/2/15
f 35/4/5 3/4/5 38/4/5
f 16/3/5 12/3/5 127/3/5
f 180/1/1 218/1/1 199/1/1
f 51/1/5 28/1/5 49/1/5
f 145/1/16 135/1/16 144/1/16
f 127/1/3 133/1/3 137/1/3
f 132/3/5 131/3/5 140/3/5
f 123/3/5 144/3/5 135/3/5
f 188/1/7 195/1/7 193/1/7
f 171/1/5 148/1/5 169/1/5
f 5/3/5 19/3/5 17/3/5
f 24/1/8 21/1/8 35/1/8
f 65/3/5 77/3/5 75/3/5
f 16/2/15 118/2/15 74/2/15
f 164/4/5 163/4/5 126/4/5
f 70/1/7 78/1/7 76/1/7
f 62/3/5 76/3/5 61/3/5
f 163/4/5 162/4/5 148/4/5
f 155/4/5 121/4/5 158/4/5
f 168/1/5 165/1/5 122/1/5
f 69/3/5 72/3/5 14/3/5
f 178/2/15 132/2/15 140/2/15
f 176/1/5 175/1/5 125/1/5
f 146/2/4 178/2/4 60/2/4
f 167/4/5 170/4/5 169/4/5
f 58/2/14 178/2/14 177/2/14
f 146/3/5 187/3/5 16/3/5
f 127/1/9 134/1/9 133/1/9
f 195/1/12 189/1/12 194/1/12
f 179/3/5 193/3/5 195/3/5
f 183/3/5 194/3/5 192/3/5
f 111/1/5 86/1/5 109/1/5
f 226/4/5 227/4/5 205/4/5
f 179/1/8 207/1/8 197/1/8
f 98/1/5 96/1/5 99/1/5
f 216/4/5 215/4/5 200/4/5
f 115/1/5 67/1/5 116/1/5
f 221/1/5 218/1/5 182/1/5
f 220/4/5 219/4/5 223/4/5
f 229/1/5 228/1/5 185/1/5
f 108/1/5 105/1/5 64/1/5
f 201/4/5 200/4/5 211/4/5
f 205/4/5 203/4/5 196/4/5
f 191/2/4 118/2/4 74/2/4
f 192/1/9 198/1/9 193/1/9
f 207/4/5 181/4/5 210/4/5
f 325/5/17 292/5/17 293/5/17
f 236/6/18 234/6/18 237/6/18
f 287/5/19 332/5/19 286/5/19
f 339/5/20 382/5/20 342/5/20
f 319/5/21 298/5/21 299/5/21
f 242/5/22 272/5/22 273/5/22
f 307/5/23 312/5/23 306/5/23
f 429/6/24 397/6/24 398/6/24
f 231/5/25 255/5/25 232/5/25
f 333/6/26 286/6/26 332/6/26
f 256/6/27 234/6/27 233/6/27
f 297/6/28 320/6/28 321/6/28
f 245/6/29 239/6/29 242/6/29
f 308/6/30 311/6/30 307/6/30
f 246/6/31 240/6/31 243/6/31
f 297/6/32 322/6/32 296/6/32
f 248/6/33 245/6/33 249/6/33
f 308/6/34 309/6/34 310/6/34
f 247/6/35 246/6/35 243/6/35
f 295/6/36 322/6/36 323/6/36
f 253/5/37 248/5/37 249/5/37
f 284/6/38 309/6/38 283/6/38
f 254/6/39 247/6/39 251/6/39
f 294/6/40 323/6/40 324/6/40
f 256/5/41 253/5/41 257/5/41
f 285/6/42 334/6/42 284/6/42
f 255/6/43 254/6/43 251/6/43
f 317/6/44 302/6/44 316/6/44
f 265/5/45 260/5/45 261/5/45
f 303/6/46 314/6/46 315/6/46
f 266/5/47 259/5/47 263/5/47
f 318/6/48 301/6/48 317/6/48
f 268/5/49 265/5/49 269/5/49
f 304/6/50 313/6/50 314/6/50
f 378/6/51 371/6/51 375/6/51
f 318/5/52 299/5/52 300/5/52
f 273/5/53 268/5/53 269/5/53
f 306/5/54 313/5/54 305/5/54
f 326/6/55 291/6/55 292/6/55
f 277/6/56 236/6/56 237/6/56
f 288/6/57 331/6/57 287/6/57
f 328/6/58 291/6/58 327/6/58
f 280/6/59 277/6/59 281/6/59
f 288/6/60 329/6/60 330/6/60
f 279/5/61 278/5/61 275/5/61
f 316/6/62 303/6/62 315/6/62
f 329/6/63 290/6/63 328/6/63
f 284/6/64 250/6/64 254/6/64
f 258/6/65 284/6/65 254/6/65
f 285/5/66 231/5/66 286/5/66
f 238/5/67 286/5/67 231/5/67
f 288/5/68 238/5/68 278/5/68
f 289/5/69 278/5/69 282/5/69
f 289/5/70 279/5/70 290/5/70
f 290/5/71 275/5/71 291/5/71
f 291/5/72 235/5/72 292/5/72
f 293/5/73 235/5/73 232/5/73
f 232/5/74 294/5/74 293/5/74
f 251/6/75 294/6/75 255/6/75
f 247/6/76 295/6/76 251/6/76
f 243/6/77 296/6/77 247/6/77
f 243/6/78 298/6/78 297/6/78
f 299/6/79 240/6/79 271/6/79
f 300/6/80 271/6/80 267/6/80
f 300/6/81 263/6/81 301/6/81
f 301/5/82 259/5/82 302/5/82
f 303/5/83 259/5/83 262/5/83
f 304/5/84 262/5/84 266/5/84
f 305/6/85 266/6/85 270/6/85
f 274/6/86 305/6/86 270/6/86
f 241/6/87 306/6/87 274/6/87
f 246/6/88 307/6/88 241/6/88
f 283/6/89 246/6/89 250/6/89
f 309/6/90 245/6/90 310/6/90
f 311/6/91 245/6/91 242/6/91
f 311/5/92 273/5/92 312/5/92
f 312/5/93 269/5/93 313/5/93
f 314/5/94 269/5/94 265/5/94
f 315/5/95 265/5/95 261/5/95
f 316/5/96 261/5/96 260/5/96
f 264/5/97 316/5/97 260/5/97
f 268/5/98 317/5/98 264/5/98
f 319/5/99 268/5/99 272/5/99
f 239/5/100 319/5/100 272/5/100
f 320/6/101 244/6/101 321/6/101
f 321/6/102 248/6/102 322/6/102
f 323/5/103 248/5/103 252/5/103
f 324/5/104 252/5/104 256/5/104
f 326/6/105 233/6/105 236/6/105
f 327/6/106 236/6/106 276/6/106
f 280/6/107 327/6/107 276/6/107
f 281/6/108 328/6/108 280/6/108
f 330/6/109 281/6/109 277/6/109
f 330/6/110 237/6/110 331/6/110
f 332/6/111 237/6/111 234/6/111
f 234/6/112 333/6/112 332/6/112
f 333/5/113 253/5/113 334/5/113
f 334/5/114 249/5/114 309/5/114
f 429/5/115 396/5/115 397/5/115
f 340/6/116 338/6/116 341/6/116
f 391/5/117 436/5/117 390/5/117
f 325/6/118 293/6/118 294/6/118
f 274/6/119 267/6/119 271/6/119
f 423/5/120 402/5/120 403/5/120
f 346/5/121 376/5/121 377/5/121
f 411/5/122 416/5/122 410/5/122
f 335/5/123 359/5/123 336/5/123
f 437/6/124 390/6/124 436/6/124
f 360/6/125 338/6/125 337/6/125
f 401/6/126 424/6/126 425/6/126
f 349/6/127 343/6/127 346/6/127
f 412/6/128 415/6/128 411/6/128
f 350/6/129 344/6/129 347/6/129
f 401/6/130 426/6/130 400/6/130
f 352/6/131 349/6/131 353/6/131
f 412/6/132 413/6/132 414/6/132
f 351/6/133 350/6/133 347/6/133
f 399/6/134 426/6/134 427/6/134
f 357/5/135 352/5/135 353/5/135
f 388/6/136 413/6/136 387/6/136
f 358/6/137 351/6/137 355/6/137
f 398/6/138 427/6/138 428/6/138
f 360/5/139 357/5/139 361/5/139
f 389/6/140 438/6/140 388/6/140
f 359/6/141 358/6/141 355/6/141
f 421/6/142 406/6/142 420/6/142
f 369/5/143 364/5/143 365/5/143
f 407/6/144 418/6/144 419/6/144
f 370/5/145 363/5/145 367/5/145
f 422/6/146 405/6/146 421/6/146
f 372/5/147 369/5/147 373/5/147
f 408/6/148 417/6/148 418/6/148
f 235/5/149 278/5/149 238/5/149
f 422/5/150 403/5/150 404/5/150
f 377/5/151 372/5/151 373/5/151
f 410/5/152 417/5/152 409/5/152
f 430/6/153 395/6/153 396/6/153
f 381/6/154 340/6/154 341/6/154
f 392/6/155 435/6/155 391/6/155
f 432/6/156 395/6/156 431/6/156
f 384/6/157 381/6/157 385/6/157
f 392/6/158 433/6/158 434/6/158
f 383/5/159 382/5/159 379/5/159
f 420/6/160 407/6/160 419/6/160
f 433/6/161 394/6/161 432/6/161
f 388/6/162 354/6/162 358/6/162
f 362/6/163 388/6/163 358/6/163
f 389/5/164 335/5/164 390/5/164
f 342/5/165 390/5/165 335/5/165
f 392/5/166 342/5/166 382/5/166
f 393/5/167 382/5/167 386/5/167
f 393/5/168 383/5/168 394/5/168
f 394/5/169 379/5/169 395/5/169
f 395/5/170 339/5/170 396/5/170
f 397/5/171 339/5/171 336/5/171
f 336/5/172 398/5/172 397/5/172
f 355/6/173 398/6/173 359/6/173
f 351/6/174 399/6/174 355/6/174
f 347/6/175 400/6/175 351/6/175
f 347/6/176 402/6/176 401/6/176
f 403/6/177 344/6/177 375/6/177
f 404/6/178 375/6/178 371/6/178
f 404/6/179 367/6/179 405/6/179
f 405/5/180 363/5/180 406/5/180
f 407/5/181 363/5/181 366/5/181
f 408/5/182 366/5/182 370/5/182
f 409/6/183 370/6/183 374/6/183
f 378/6/184 409/6/184 374/6/184
f 345/6/185 410/6/185 378/6/185
f 350/6/186 411/6/186 345/6/186
f 387/6/187 350/6/187 354/6/187
f 413/6/188 349/6/188 414/6/188
f 415/6/189 349/6/189 346/6/189
f 415/5/190 377/5/190 416/5/190
f 416/5/191 373/5/191 417/5/191
f 418/5/192 373/5/192 369/5/192
f 419/5/193 369/5/193 365/5/193
f 420/5/194 365/5/194 364/5/194
f 368/5/195 420/5/195 364/5/195
f 372/5/196 421/5/196 368/5/196
f 423/5/197 372/5/197 376/5/197
f 343/5/198 423/5/198 376/5/198
f 424/6/199 348/6/199 425/6/199
f 425/6/200 352/6/200 426/6/200
f 427/5/201 352/5/201 356/5/201
f 428/5/202 356/5/202 360/5/202
f 430/6/203 337/6/203 340/6/203
f 431/6/204 340/6/204 380/6/204
f 384/6/205 431/6/205 380/6/205
f 385/6/206 432/6/206 384/6/206
f 434/6/207 385/6/207 381/6/207
f 434/6/208 341/6/208 435/6/208
f 436/6/209 341/6/209 338/6/209
f 338/6/210 437/6/210 436/6/210
f 437/5/211 357/5/211 438/5/211
f 438/5/212 353/5/212 413/5/212
f 27/1/1 8/1/1 6/1/1
f 6/1/1 2/1/1 27/1/1
f 2/1/1 4/1/1 45/1/1
f 12/2/2 58/2/2 177/2/2
f 187/1/3 192/1/3 194/1/3
f 16/2/4 60/2/4 59/2/4
f 9/1/3 17/1/3 19/1/3
f 1/3/5 21/3/5 22/3/5
f 104/1/5 102/1/5 101/1/5
f 104/1/5 101/1/5 103/1/5
f 103/4/5 100/4/5 79/4/5
f 79/4/5 68/4/5 103/4/5
f 68/4/5 85/4/5 104/4/5
f 85/4/5 102/4/5 104/4/5
f 72/2/6 117/2/6 59/2/6
f 25/3/5 12/3/5 11/3/5
f 136/1/7 134/1/7 139/1/7
f 134/1/7 128/1/7 139/1/7
f 92/1/11 63/1/11 61/1/11
f 61/1/11 65/1/11 87/1/11
f 65/1/13 67/1/13 112/1/13
f 65/1/13 112/1/13 87/1/13
f 87/1/11 92/1/11 61/1/11
f 152/4/5 153/4/5 141/4/5
f 153/4/5 151/4/5 141/4/5
f 141/4/5 148/4/5 152/4/5
f 154/4/5 149/4/5 159/4/5
f 149/4/5 148/4/5 159/4/5
f 148/4/5 142/4/5 157/4/5
f 142/4/5 155/4/5 157/4/5
f 157/4/5 158/4/5 148/4/5
f 166/1/8 122/1/8 120/1/8
f 120/1/8 119/1/8 142/1/8
f 119/1/8 121/1/8 155/1/8
f 142/1/8 166/1/8 120/1/8
f 74/3/5 16/3/5 187/3/5
f 74/3/5 187/3/5 189/3/5
f 198/3/5 146/3/5 188/3/5
f 146/3/5 132/3/5 188/3/5
f 191/3/5 74/3/5 189/3/5
f 190/3/5 188/3/5 191/3/5
f 188/3/5 132/3/5 191/3/5
f 26/1/9 11/1/9 18/1/9
f 18/1/9 17/1/9 26/1/9
f 28/4/5 40/4/5 43/4/5
f 43/4/5 41/4/5 42/4/5
f 67/1/10 65/1/10 114/1/10
f 65/1/213 66/1/213 79/1/213
f 66/1/213 68/1/213 79/1/213
f 79/1/10 89/1/10 65/1/10
f 225/1/13 201/1/13 183/1/13
f 183/1/13 185/1/13 225/1/13
f 181/1/11 179/1/11 206/1/11
f 179/1/11 183/1/11 201/1/11
f 123/1/10 138/1/10 151/1/10
f 138/1/213 124/1/213 126/1/213
f 141/1/214 138/1/214 126/1/214
f 141/1/214 151/1/214 138/1/214
f 151/1/10 174/1/10 123/1/10
f 22/1/7 18/1/7 11/1/7
f 11/1/7 15/1/7 22/1/7
f 209/1/5 207/1/5 208/1/5
f 210/1/5 209/1/5 208/1/5
f 212/1/5 206/1/5 211/1/5
f 28/4/5 24/4/5 37/4/5
f 24/4/5 35/4/5 37/4/5
f 37/4/5 38/4/5 28/4/5
f 38/4/5 39/4/5 28/4/5
f 34/4/5 29/4/5 39/4/5
f 106/1/8 64/1/8 62/1/8
f 62/1/8 61/1/8 80/1/8
f 61/1/8 63/1/8 93/1/8
f 80/1/8 106/1/8 62/1/8
f 72/2/4 84/2/4 117/2/4
f 84/2/4 74/2/4 118/2/4
f 12/2/2 25/2/2 58/2/2
f 25/2/2 10/2/2 57/2/2
f 20/1/16 15/1/16 13/1/16
f 59/2/6 57/2/6 10/2/6
f 55/1/5 52/1/5 7/1/5
f 7/1/5 54/1/5 56/1/5
f 56/1/5 53/1/5 55/1/5
f 7/1/10 5/1/10 54/1/10
f 5/1/213 6/1/213 23/1/213
f 54/1/10 5/1/10 31/1/10
f 6/1/213 8/1/213 23/1/213
f 31/1/10 5/1/10 23/1/10
f 124/3/5 138/3/5 137/3/5
f 136/3/5 144/3/5 119/3/5
f 144/3/5 143/3/5 119/3/5
f 124/3/5 137/3/5 133/3/5
f 136/3/5 119/3/5 120/3/5
f 120/3/5 124/3/5 133/3/5
f 134/3/5 136/3/5 120/3/5
f 85/1/1 68/1/1 82/1/1
f 68/1/1 66/1/1 82/1/1
f 82/1/1 62/1/1 105/1/1
f 62/1/1 64/1/1 105/1/1
f 153/4/5 152/4/5 172/4/5
f 152/4/5 150/4/5 149/4/5
f 172/4/5 152/4/5 149/4/5
f 172/4/5 175/4/5 173/4/5
f 173/4/5 176/4/5 174/4/5
f 174/4/5 151/4/5 153/4/5
f 172/4/5 173/4/5 153/4/5
f 75/1/9 69/1/9 81/1/9
f 69/1/9 70/1/9 81/1/9
f 77/1/16 78/1/16 83/1/16
f 78/1/16 73/1/16 83/1/16
f 69/1/3 75/1/3 77/1/3
f 32/4/5 33/4/5 23/4/5
f 33/4/5 31/4/5 23/4/5
f 23/4/5 28/4/5 32/4/5
f 11/3/5 12/3/5 16/3/5
f 10/3/5 25/3/5 9/3/5
f 25/3/5 26/3/5 9/3/5
f 15/3/5 11/3/5 16/3/5
f 10/3/5 9/3/5 13/3/5
f 13/3/5 15/3/5 16/3/5
f 14/3/5 10/3/5 13/3/5
f 52/1/13 29/1/13 5/1/13
f 29/1/11 34/1/11 1/1/11
f 34/1/11 3/1/11 1/1/11
f 1/1/11 5/1/11 29/1/11
f 37/1/5 35/1/5 36/1/5
f 38/1/5 37/1/5 36/1/5
f 33/4/5 32/4/5 52/4/5
f 32/4/5 30/4/5 29/4/5
f 52/4/5 32/4/5 29/4/5
f 52/4/5 55/4/5 53/4/5
f 53/4/5 56/4/5 54/4/5
f 54/4/5 31/4/5 33/4/5
f 52/4/5 53/4/5 33/4/5
f 102/2/5 85/2/5 109/2/5
f 102/2/5 109/2/5 86/2/5
f 110/2/5 80/2/5 86/2/5
f 86/2/5 87/2/5 88/2/5
f 84/3/5 83/3/5 73/3/5
f 43/4/5 40/4/5 23/4/5
f 23/4/5 8/4/5 43/4/5
f 8/4/5 27/4/5 44/4/5
f 27/4/5 42/4/5 44/4/5
f 178/2/14 60/2/14 118/2/14
f 91/4/5 90/4/5 112/4/5
f 90/4/5 88/4/5 87/4/5
f 112/4/5 90/4/5 87/4/5
f 112/4/5 115/4/5 113/4/5
f 113/4/5 116/4/5 114/4/5
f 114/4/5 89/4/5 91/4/5
f 112/4/5 113/4/5 91/4/5
f 48/1/5 47/1/5 45/1/5
f 4/1/5 46/1/5 48/1/5
f 224/1/5 223/1/5 200/1/5
f 216/4/5 213/4/5 196/4/5
f 196/4/5 186/4/5 216/4/5
f 186/4/5 199/4/5 217/4/5
f 199/4/5 215/4/5 217/4/5
f 86/4/5 100/4/5 103/4/5
f 103/4/5 101/4/5 102/4/5
f 217/1/5 215/1/5 214/1/5
f 217/1/5 214/1/5 216/1/5
f 132/2/15 178/2/15 230/2/15
f 50/4/5 51/4/5 49/4/5
f 27/4/5 45/4/5 47/4/5
f 47/4/5 48/4/5 46/4/5
f 46/4/5 24/4/5 50/4/5
f 50/4/5 49/4/5 47/4/5
f 49/4/5 27/4/5 47/4/5
f 90/4/5 91/4/5 79/4/5
f 91/4/5 89/4/5 79/4/5
f 79/4/5 86/4/5 90/4/5
f 172/1/11 149/1/11 143/1/11
f 154/1/11 121/1/11 119/1/11
f 119/1/11 143/1/11 154/1/11
f 143/1/13 123/1/13 172/1/13
f 123/1/13 125/1/13 172/1/13
f 149/1/11 154/1/11 143/1/11
f 80/4/5 110/4/5 106/4/5
f 110/4/5 111/4/5 109/4/5
f 106/4/5 110/4/5 107/4/5
f 109/4/5 85/4/5 107/4/5
f 85/4/5 105/4/5 107/4/5
f 107/4/5 108/4/5 106/4/5
f 98/4/5 92/4/5 87/4/5
f 86/4/5 80/4/5 95/4/5
f 80/4/5 93/4/5 95/4/5
f 95/4/5 96/4/5 86/4/5
f 96/4/5 98/4/5 86/4/5
f 58/2/14 57/2/14 59/2/14
f 92/4/5 99/4/5 63/4/5
f 99/4/5 97/4/5 63/4/5
f 97/4/5 94/4/5 93/4/5
f 117/2/14 118/2/14 60/2/14
f 12/2/15 58/2/15 60/2/15
f 34/4/5 39/4/5 3/4/5
f 39/4/5 38/4/5 3/4/5
f 38/4/5 36/4/5 35/4/5
f 129/3/5 140/3/5 128/3/5
f 140/3/5 139/3/5 128/3/5
f 145/3/5 146/3/5 130/3/5
f 146/3/5 16/3/5 130/3/5
f 12/3/5 129/3/5 127/3/5
f 129/3/5 128/3/5 127/3/5
f 127/3/5 130/3/5 16/3/5
f 199/1/1 186/1/1 184/1/1
f 184/1/1 180/1/1 199/1/1
f 180/1/1 182/1/1 218/1/1
f 51/1/5 50/1/5 28/1/5
f 144/1/16 136/1/16 145/1/16
f 136/1/16 131/1/16 145/1/16
f 145/1/12 130/1/12 135/1/12
f 135/1/3 130/1/3 137/1/3
f 130/1/3 127/1/3 137/1/3
f 132/3/5 146/3/5 131/3/5
f 146/3/5 145/3/5 131/3/5
f 131/3/5 139/3/5 140/3/5
f 123/3/5 143/3/5 144/3/5
f 135/3/5 137/3/5 123/3/5
f 137/3/5 138/3/5 123/3/5
f 188/1/7 190/1/7 195/1/7
f 148/2/5 141/2/5 160/2/5
f 162/2/5 147/2/5 169/2/5
f 162/2/5 169/2/5 148/2/5
f 170/2/5 142/2/5 148/2/5
f 148/2/5 149/2/5 150/2/5
f 171/1/5 170/1/5 148/1/5
f 5/3/5 1/3/5 19/3/5
f 1/3/5 20/3/5 19/3/5
f 18/3/5 22/3/5 2/3/5
f 22/3/5 21/3/5 2/3/5
f 18/3/5 2/3/5 17/3/5
f 2/3/5 6/3/5 17/3/5
f 6/3/5 5/3/5 17/3/5
f 46/1/8 4/1/8 2/1/8
f 21/1/8 1/1/8 35/1/8
f 1/1/8 3/1/8 35/1/8
f 46/1/8 2/1/8 21/1/8
f 24/1/8 46/1/8 21/1/8
f 28/2/5 23/2/5 40/2/5
f 42/2/5 27/2/5 49/2/5
f 42/2/5 49/2/5 28/2/5
f 50/2/5 24/2/5 28/2/5
f 28/2/5 29/2/5 30/2/5
f 65/3/5 61/3/5 77/3/5
f 61/3/5 78/3/5 77/3/5
f 75/3/5 81/3/5 66/3/5
f 81/3/5 82/3/5 66/3/5
f 75/3/5 66/3/5 65/3/5
f 16/2/15 60/2/15 118/2/15
f 164/1/5 162/1/5 161/1/5
f 164/1/5 161/1/5 163/1/5
f 163/4/5 160/4/5 141/4/5
f 141/4/5 126/4/5 163/4/5
f 126/4/5 147/4/5 164/4/5
f 147/4/5 162/4/5 164/4/5
f 157/1/5 155/1/5 156/1/5
f 158/1/5 157/1/5 156/1/5
f 70/1/7 73/1/7 78/1/7
f 62/3/5 82/3/5 81/3/5
f 76/3/5 78/3/5 61/3/5
f 62/3/5 81/3/5 76/3/5
f 148/4/5 160/4/5 163/4/5
f 163/4/5 161/4/5 162/4/5
f 154/4/5 159/4/5 121/4/5
f 159/4/5 158/4/5 121/4/5
f 158/4/5 156/4/5 155/4/5
f 168/1/5 167/1/5 165/1/5
f 122/1/5 166/1/5 168/1/5
f 16/3/5 74/3/5 70/3/5
f 74/3/5 73/3/5 70/3/5
f 83/3/5 84/3/5 71/3/5
f 84/3/5 72/3/5 71/3/5
f 14/3/5 16/3/5 69/3/5
f 16/3/5 70/3/5 69/3/5
f 69/3/5 71/3/5 72/3/5
f 140/2/15 129/2/15 177/2/15
f 177/2/15 178/2/15 140/2/15
f 176/1/5 173/1/5 175/1/5
f 175/1/5 172/1/5 125/1/5
f 125/1/5 174/1/5 176/1/5
f 60/2/4 16/2/4 146/2/4
f 146/2/4 132/2/4 178/2/4
f 142/4/5 170/4/5 166/4/5
f 170/4/5 171/4/5 169/4/5
f 166/4/5 170/4/5 167/4/5
f 169/4/5 147/4/5 167/4/5
f 147/4/5 165/4/5 167/4/5
f 167/4/5 168/4/5 166/4/5
f 124/1/1 120/1/1 147/1/1
f 120/1/1 122/1/1 165/1/1
f 120/1/1 165/1/1 147/1/1
f 147/1/1 126/1/1 124/1/1
f 58/2/14 60/2/14 178/2/14
f 185/1/10 183/1/10 227/1/10
f 183/1/213 184/1/213 196/1/213
f 227/1/10 183/1/10 203/1/10
f 184/1/213 186/1/213 196/1/213
f 196/1/10 203/1/10 183/1/10
f 146/3/5 198/3/5 187/3/5
f 127/1/215 128/1/215 134/1/215
f 44/1/5 42/1/5 41/1/5
f 44/1/5 41/1/5 43/1/5
f 195/1/16 190/1/16 189/1/16
f 194/3/5 183/3/5 179/3/5
f 179/3/5 180/3/5 193/3/5
f 195/3/5 194/3/5 179/3/5
f 193/3/5 180/3/5 192/3/5
f 180/3/5 184/3/5 192/3/5
f 184/3/5 183/3/5 192/3/5
f 111/1/5 110/1/5 86/1/5
f 205/4/5 204/4/5 225/4/5
f 204/4/5 202/4/5 201/4/5
f 225/4/5 204/4/5 201/4/5
f 225/4/5 228/4/5 226/4/5
f 226/4/5 229/4/5 227/4/5
f 227/4/5 203/4/5 205/4/5
f 225/4/5 226/4/5 205/4/5
f 219/1/8 182/1/8 180/1/8
f 180/1/8 179/1/8 197/1/8
f 179/1/8 181/1/8 207/1/8
f 197/1/8 219/1/8 180/1/8
f 200/2/5 196/2/5 213/2/5
f 215/2/5 199/2/5 222/2/5
f 215/2/5 222/2/5 200/2/5
f 223/2/5 197/2/5 200/2/5
f 200/2/5 201/2/5 202/2/5
f 95/1/5 93/1/5 94/1/5
f 96/1/5 95/1/5 94/1/5
f 96/1/5 94/1/5 97/1/5
f 99/1/5 92/1/5 98/1/5
f 96/1/5 97/1/5 99/1/5
f 200/4/5 213/4/5 216/4/5
f 216/4/5 214/4/5 215/4/5
f 115/1/5 112/1/5 67/1/5
f 67/1/5 114/1/5 116/1/5
f 116/1/5 113/1/5 115/1/5
f 221/1/5 220/1/5 218/1/5
f 182/1/5 219/1/5 221/1/5
f 224/4/5 222/4/5 223/4/5
f 222/4/5 199/4/5 220/4/5
f 223/4/5 222/4/5 220/4/5
f 199/4/5 218/4/5 220/4/5
f 220/4/5 221/4/5 219/4/5
f 219/4/5 197/4/5 223/4/5
f 229/1/5 226/1/5 228/1/5
f 228/1/5 225/1/5 185/1/5
f 185/1/5 227/1/5 229/1/5
f 108/1/5 107/1/5 105/1/5
f 64/1/5 106/1/5 108/1/5
f 200/4/5 197/4/5 209/4/5
f 197/4/5 207/4/5 209/4/5
f 209/4/5 210/4/5 200/4/5
f 210/4/5 211/4/5 200/4/5
f 206/4/5 201/4/5 211/4/5
f 196/4/5 200/4/5 204/4/5
f 200/4/5 202/4/5 204/4/5
f 204/4/5 205/4/5 196/4/5
f 191/2/4 230/2/4 118/2/4
f 187/1/9 198/1/9 192/1/9
f 198/1/9 188/1/9 193/1/9
f 206/4/5 212/4/5 181/4/5
f 212/4/5 210/4/5 181/4/5
f 210/4/5 208/4/5 207/4/5
f 325/5/216 326/5/216 292/5/216
f 236/6/217 233/6/217 234/6/217
f 287/5/218 331/5/218 332/5/218
f 339/5/219 379/5/219 382/5/219
f 342/5/220 335/5/220 339/5/220
f 335/5/221 336/5/221 339/5/221
f 319/5/222 320/5/222 298/5/222
f 242/5/223 239/5/223 272/5/223
f 307/5/224 311/5/224 312/5/224
f 398/6/225 428/6/225 429/6/225
f 428/6/226 360/6/226 337/6/226
f 429/6/227 428/6/227 337/6/227
f 231/5/228 258/5/228 255/5/228
f 333/6/229 285/6/229 286/6/229
f 256/6/230 257/6/230 234/6/230
f 297/6/231 298/6/231 320/6/231
f 245/6/232 244/6/232 239/6/232
f 308/6/233 310/6/233 311/6/233
f 246/6/234 241/6/234 240/6/234
f 297/6/235 321/6/235 322/6/235
f 248/6/236 244/6/236 245/6/236
f 308/6/237 283/6/237 309/6/237
f 247/6/238 250/6/238 246/6/238
f 295/6/239 296/6/239 322/6/239
f 253/5/240 252/5/240 248/5/240
f 284/6/241 334/6/241 309/6/241
f 254/6/242 250/6/242 247/6/242
f 294/6/243 295/6/243 323/6/243
f 256/5/244 252/5/244 253/5/244
f 285/6/245 333/6/245 334/6/245
f 255/6/246 258/6/246 254/6/246
f 317/6/247 301/6/247 302/6/247
f 265/5/248 264/5/248 260/5/248
f 303/6/249 304/6/249 314/6/249
f 266/5/250 262/5/250 259/5/250
f 318/6/251 300/6/251 301/6/251
f 268/5/252 264/5/252 265/5/252
f 304/6/253 305/6/253 313/6/253
f 374/6/254 370/6/254 371/6/254
f 370/6/255 367/6/255 371/6/255
f 344/6/256 345/6/256 378/6/256
f 378/6/257 374/6/257 371/6/257
f 375/6/258 344/6/258 378/6/258
f 318/5/259 319/5/259 299/5/259
f 273/5/260 272/5/260 268/5/260
f 306/5/261 312/5/261 313/5/261
f 326/6/262 327/6/262 291/6/262
f 277/6/263 276/6/263 236/6/263
f 288/6/264 330/6/264 331/6/264
f 328/6/265 290/6/265 291/6/265
f 280/6/266 276/6/266 277/6/266
f 288/6/267 289/6/267 329/6/267
f 279/5/268 282/5/268 278/5/268
f 316/6/269 302/6/269 303/6/269
f 329/6/270 289/6/270 290/6/270
f 284/6/271 283/6/271 250/6/271
f 258/6/272 285/6/272 284/6/272
f 285/5/273 258/5/273 231/5/273
f 238/5/274 287/5/274 286/5/274
f 288/5/275 287/5/275 238/5/275
f 289/5/276 288/5/276 278/5/276
f 289/5/277 282/5/277 279/5/277
f 290/5/278 279/5/278 275/5/278
f 291/5/279 275/5/279 235/5/279
f 293/5/280 292/5/280 235/5/280
f 232/5/281 255/5/281 294/5/281
f 251/6/282 295/6/282 294/6/282
f 247/6/283 296/6/283 295/6/283
f 243/6/284 297/6/284 296/6/284
f 243/6/285 240/6/285 298/6/285
f 299/6/286 298/6/286 240/6/286
f 300/6/287 299/6/287 271/6/287
f 300/6/288 267/6/288 263/6/288
f 301/5/289 263/5/289 259/5/289
f 303/5/290 302/5/290 259/5/290
f 304/5/291 303/5/291 262/5/291
f 305/6/292 304/6/292 266/6/292
f 274/6/293 306/6/293 305/6/293
f 241/6/294 307/6/294 306/6/294
f 246/6/295 308/6/295 307/6/295
f 283/6/296 308/6/296 246/6/296
f 309/6/297 249/6/297 245/6/297
f 311/6/298 310/6/298 245/6/298
f 311/5/299 242/5/299 273/5/299
f 312/5/300 273/5/300 269/5/300
f 314/5/301 313/5/301 269/5/301
f 315/5/302 314/5/302 265/5/302
f 316/5/303 315/5/303 261/5/303
f 264/5/304 317/5/304 316/5/304
f 268/5/305 318/5/305 317/5/305
f 319/5/306 318/5/306 268/5/306
f 239/5/307 320/5/307 319/5/307
f 320/6/308 239/6/308 244/6/308
f 321/6/309 244/6/309 248/6/309
f 323/5/310 322/5/310 248/5/310
f 324/5/311 323/5/311 252/5/311
f 326/6/312 325/6/312 233/6/312
f 327/6/313 326/6/313 236/6/313
f 280/6/314 328/6/314 327/6/314
f 281/6/315 329/6/315 328/6/315
f 330/6/316 329/6/316 281/6/316
f 330/6/317 277/6/317 237/6/317
f 332/6/318 331/6/318 237/6/318
f 234/6/319 257/6/319 333/6/319
f 333/5/320 257/5/320 253/5/320
f 334/5/321 253/5/321 249/5/321
f 429/5/322 430/5/322 396/5/322
f 340/6/323 337/6/323 338/6/323
f 391/5/324 435/5/324 436/5/324
f 294/6/325 324/6/325 325/6/325
f 324/6/326 256/6/326 233/6/326
f 325/6/327 324/6/327 233/6/327
f 270/6/328 266/6/328 267/6/328
f 266/6/329 263/6/329 267/6/329
f 240/6/330 241/6/330 274/6/330
f 274/6/331 270/6/331 267/6/331
f 271/6/332 240/6/332 274/6/332
f 423/5/333 424/5/333 402/5/333
f 346/5/334 343/5/334 376/5/334
f 411/5/335 415/5/335 416/5/335
f 335/5/336 362/5/336 359/5/336
f 437/6/337 389/6/337 390/6/337
f 360/6/338 361/6/338 338/6/338
f 401/6/339 402/6/339 424/6/339
f 349/6/340 348/6/340 343/6/340
f 412/6/341 414/6/341 415/6/341
f 350/6/342 345/6/342 344/6/342
f 401/6/343 425/6/343 426/6/343
f 352/6/344 348/6/344 349/6/344
f 412/6/345 387/6/345 413/6/345
f 351/6/346 354/6/346 350/6/346
f 399/6/347 400/6/347 426/6/347
f 357/5/348 356/5/348 352/5/348
f 388/6/349 438/6/349 413/6/349
f 358/6/350 354/6/350 351/6/350
f 398/6/351 399/6/351 427/6/351
f 360/5/352 356/5/352 357/5/352
f 389/6/353 437/6/353 438/6/353
f 359/6/354 362/6/354 358/6/354
f 421/6/355 405/6/355 406/6/355
f 369/5/356 368/5/356 364/5/356
f 407/6/357 408/6/357 418/6/357
f 370/5/358 366/5/358 363/5/358
f 422/6/359 404/6/359 405/6/359
f 372/5/360 368/5/360 369/5/360
f 408/6/361 409/6/361 417/6/361
f 235/5/362 275/5/362 278/5/362
f 238/5/363 231/5/363 235/5/363
f 231/5/364 232/5/364 235/5/364
f 422/5/365 423/5/365 403/5/365
f 377/5/366 376/5/366 372/5/366
f 410/5/367 416/5/367 417/5/367
f 430/6/368 431/6/368 395/6/368
f 381/6/369 380/6/369 340/6/369
f 392/6/370 434/6/370 435/6/370
f 432/6/371 394/6/371 395/6/371
f 384/6/372 380/6/372 381/6/372
f 392/6/373 393/6/373 433/6/373
f 383/5/374 386/5/374 382/5/374
f 420/6/375 406/6/375 407/6/375
f 433/6/376 393/6/376 394/6/376
f 388/6/377 387/6/377 354/6/377
f 362/6/378 389/6/378 388/6/378
f 389/5/379 362/5/379 335/5/379
f 342/5/380 391/5/380 390/5/380
f 392/5/381 391/5/381 342/5/381
f 393/5/382 392/5/382 382/5/382
f 393/5/383 386/5/383 383/5/383
f 394/5/384 383/5/384 379/5/384
f 395/5/385 379/5/385 339/5/385
f 397/5/386 396/5/386 339/5/386
f 336/5/387 359/5/387 398/5/387
f 355/6/388 399/6/388 398/6/388
f 351/6/389 400/6/389 399/6/389
f 347/6/390 401/6/390 400/6/390
f 347/6/391 344/6/391 402/6/391
f 403/6/392 402/6/392 344/6/392
f 404/6/393 403/6/393 375/6/393
f 404/6/394 371/6/394 367/6/394
f 405/5/395 367/5/395 363/5/395
f 407/5/396 406/5/396 363/5/396
f 408/5/397 407/5/397 366/5/397
f 409/6/398 408/6/398 370/6/398
f 378/6/399 410/6/399 409/6/399
f 345/6/400 411/6/400 410/6/400
f 350/6/401 412/6/401 411/6/401
f 387/6/402 412/6/402 350/6/402
f 413/6/403 353/6/403 349/6/403
f 415/6/404 414/6/404 349/6/404
f 415/5/405 346/5/405 377/5/405
f 416/5/406 377/5/406 373/5/406
f 418/5/407 417/5/407 373/5/407
f 419/5/408 418/5/408 369/5/408
f 420/5/409 419/5/409 365/5/409
f 368/5/410 421/5/410 420/5/410
f 372/5/411 422/5/411 421/5/411
f 423/5/412 422/5/412 372/5/412
f 343/5/413 424/5/413 423/5/413
f 424/6/414 343/6/414 348/6/414
f 425/6/415 348/6/415 352/6/415
f 427/5/416 426/5/416 352/5/416
f 428/5/417 427/5/417 356/5/417
f 430/6/418 429/6/418 337/6/418
f 431/6/419 430/6/419 340/6/419
f 384/6/420 432/6/420 431/6/420
f 385/6/421 433/6/421 432/6/421
f 434/6/422 433/6/422 385/6/422
f 434/6/423 381/6/423 341/6/423
f 436/6/424 435/6/424 341/6/424
f 338/6/425 361/6/425 437/6/425
f 437/5/426 361/5/426 357/5/426
f 438/5/427 357/5/427 353/5/427
