# Blender 5.2.2 LTS
# www.blender.org
mtllib ruins_find_sink_salvage.mtl
o piece
v -0.298067 -0.270239 0.329872
v 0.256117 -0.270239 0.329872
v -0.298067 0.073484 0.329872
v 0.256117 -0.017752 0.329872
v -0.298067 0.001939 -0.224312
v 0.256117 0.025882 -0.224312
v -0.298067 -0.280297 -0.224312
v 0.256117 -0.270239 -0.224312
v -0.267233 0.089292 0.299038
v 0.225283 0.002980 0.299038
v 0.225283 0.046615 -0.193478
v -0.267233 0.017747 -0.193478
v -0.267233 -0.193931 0.299038
v 0.225283 -0.193931 0.299038
v 0.225283 -0.193931 -0.193478
v -0.267233 -0.193931 -0.193478
v -0.048302 0.002980 0.299038
v -0.051724 0.002980 0.329872
v -0.051724 0.017746 -0.224312
v -0.048302 0.017747 -0.193478
v 0.225283 0.046615 0.057454
v 0.256117 0.025882 0.058040
v -0.298067 0.073484 0.058040
v -0.267234 0.089292 0.057454
v 0.167869 0.212308 0.122643
v 0.099226 0.276130 0.023249
v 0.009581 0.272523 -0.079780
v -0.077048 0.202453 -0.158834
v -0.137448 0.084696 -0.192735
v -0.155435 -0.049196 -0.172397
v -0.126189 -0.163346 -0.103269
v -0.057547 -0.227167 -0.003875
v 0.032099 -0.223560 0.099153
v 0.118728 -0.153490 0.178208
v 0.179129 -0.035733 0.212109
v 0.197115 0.098159 0.191771
v 0.103240 0.229442 0.178278
v 0.034597 0.293264 0.078884
v -0.055049 0.289656 -0.024144
v -0.141678 0.219587 -0.103199
v -0.202078 0.101829 -0.137099
v -0.220065 -0.032063 -0.116761
v -0.190819 -0.146213 -0.047633
v -0.122176 -0.210034 0.051761
v -0.032530 -0.206427 0.154788
v 0.054099 -0.136357 0.233844
v 0.114499 -0.018600 0.267744
v 0.132485 0.115292 0.247406
v 0.194021 0.263295 0.137321
v 0.125379 0.327116 0.037927
v 0.060749 0.344250 0.093562
v 0.129392 0.280428 0.192956
v -0.003082 0.321948 -0.109710
v -0.089711 0.251878 -0.188766
v -0.154341 0.269012 -0.133130
v -0.067712 0.339081 -0.054075
v -0.176264 0.083134 -0.237345
v -0.194250 -0.050758 -0.217006
v -0.258880 -0.033624 -0.161370
v -0.240893 0.100267 -0.181709
v -0.152341 -0.214332 -0.117947
v -0.083698 -0.278154 -0.018553
v -0.148328 -0.261021 0.037082
v -0.216970 -0.197199 -0.062312
v 0.044763 -0.272985 0.129084
v 0.131391 -0.202915 0.208139
v 0.066761 -0.185782 0.263775
v -0.019867 -0.255852 0.184719
v 0.217944 -0.034171 0.256718
v 0.235930 0.099721 0.236380
v 0.171300 0.116854 0.292015
v 0.153314 -0.017038 0.312353
v 0.105876 0.133114 0.075016
v 0.066176 0.170026 0.017530
v 0.014328 0.167939 -0.042058
v -0.035775 0.127413 -0.087780
v -0.070708 0.059307 -0.107387
v -0.081111 -0.018131 -0.095623
v -0.064196 -0.084151 -0.055643
v -0.024496 -0.121063 0.001843
v 0.027352 -0.118976 0.061430
v 0.077455 -0.078451 0.107153
v 0.112389 -0.010344 0.126760
v 0.122791 0.067094 0.114997
v 0.041247 0.150247 0.130651
v 0.001546 0.187159 0.073165
v -0.050302 0.185073 0.013578
v -0.100405 0.144547 -0.032145
v -0.135338 0.076441 -0.051752
v -0.145740 -0.000997 -0.039988
v -0.128826 -0.067018 -0.000008
v -0.089126 -0.103929 0.057478
v -0.037278 -0.101843 0.117065
v 0.012825 -0.061317 0.162788
v 0.047759 0.006789 0.182396
v 0.058161 0.084227 0.170632
v -0.070417 -0.029485 -0.021049
v -0.196986 0.033471 -0.042969
v -0.290573 0.103791 0.039252
v -0.296357 0.140283 0.177451
v -0.210946 0.121569 0.290671
v -0.084377 0.058613 0.312591
v 0.009210 -0.011707 0.230370
v 0.014991 -0.048198 0.092171
v -0.031714 0.042291 -0.038382
v -0.158284 0.105247 -0.060301
v -0.251870 0.175566 0.021920
v -0.257654 0.212059 0.160119
v -0.172243 0.193344 0.273338
v -0.045674 0.130388 0.295258
v 0.047913 0.060069 0.213037
v 0.053694 0.023577 0.074839
v -0.234693 0.041733 -0.092952
v -0.328280 0.112053 -0.010731
v -0.289577 0.183829 -0.028064
v -0.195990 0.113509 -0.110285
v -0.337671 0.171327 0.213750
v -0.252263 0.152614 0.326970
v -0.213560 0.224389 0.309637
v -0.298968 0.243102 0.196417
v -0.046670 0.050351 0.362575
v 0.046916 -0.019968 0.280354
v 0.085618 0.051807 0.263021
v -0.007967 0.122127 0.345243
v 0.056308 -0.079243 0.055872
v -0.029101 -0.060530 -0.057348
v 0.009601 0.011246 -0.074681
v 0.095011 -0.007467 0.038539
v -0.105304 0.008014 0.056335
v -0.169032 0.039713 0.045298
v -0.216154 0.075120 0.086697
v -0.219065 0.093493 0.156281
v -0.176060 0.084071 0.213287
v -0.112332 0.052371 0.224324
v -0.065211 0.016966 0.182925
v -0.062300 -0.001408 0.113342
v -0.066600 0.079789 0.039001
v -0.130328 0.111488 0.027965
v -0.177451 0.146895 0.069365
v -0.180362 0.165269 0.138948
v -0.137358 0.155846 0.195954
v -0.073629 0.124147 0.206991
v -0.026507 0.088740 0.165592
v -0.023597 0.070367 0.096009
v 0.264318 0.178602 -0.248380
v 0.184520 0.189397 -0.272207
v 0.253792 0.206785 -0.200361
v 0.173994 0.217581 -0.224189
v 0.146035 -0.162923 -0.006988
v 0.066236 -0.152128 -0.030816
v 0.156560 -0.191107 -0.055006
v 0.076762 -0.180311 -0.078834
v 0.321416 0.213927 -0.256598
v 0.151565 0.236906 -0.307315
v 0.141040 0.265089 -0.259296
v 0.310890 0.242111 -0.208579
v 0.178989 -0.210432 0.028120
v 0.009138 -0.187454 -0.022598
v 0.019664 -0.215637 -0.070616
v 0.189514 -0.238615 -0.019898
v 0.347515 0.303472 -0.303433
v 0.177665 0.326451 -0.354151
v 0.167139 0.354634 -0.306132
v 0.336990 0.331656 -0.255415
v 0.152889 -0.299977 0.074956
v -0.016961 -0.276999 0.024238
v -0.006436 -0.305182 -0.023780
v 0.163415 -0.328161 0.026938
v 0.319730 0.347094 -0.335126
v 0.227806 0.359530 -0.362575
v 0.217280 0.387713 -0.314557
v 0.309204 0.375277 -0.287108
v 0.102748 -0.333056 0.083380
v 0.010824 -0.320620 0.055931
v 0.021350 -0.348804 0.007913
v 0.113274 -0.361240 0.035362
v 0.137386 -0.210430 0.018999
v 0.047586 -0.198281 -0.007815
v 0.024642 -0.277001 0.033359
v 0.114442 -0.289150 0.060173
v 0.147912 -0.238613 -0.029019
v 0.058111 -0.226464 -0.055834
v 0.124967 -0.317334 0.012155
v 0.035167 -0.305185 -0.014659
v 0.292502 0.337350 -0.335376
v 0.247503 0.343438 -0.348813
v 0.236978 0.371622 -0.300795
v 0.281977 0.365534 -0.287358
v 0.278876 0.231129 -0.276018
v 0.200524 0.241728 -0.299414
v 0.219649 0.307344 -0.333734
v 0.298000 0.296744 -0.310338
v 0.268350 0.259312 -0.228000
v 0.189999 0.269912 -0.251396
v 0.287475 0.324928 -0.262320
v 0.209124 0.335527 -0.285715
v 0.378011 0.121798 0.047039
v 0.400262 0.096750 0.047676
v 0.400262 0.096750 -0.259132
v 0.378011 0.121798 -0.225628
v 0.364814 0.065262 0.343053
v 0.342563 0.090310 0.309548
v -0.400262 0.108375 0.058040
v -0.373028 0.042216 -0.224312
v -0.389622 0.131636 0.057454
v -0.362388 0.065477 -0.193478
v -0.400262 0.108375 0.329872
v -0.389622 0.131637 0.299038
v -0.298067 -0.387713 -0.224312
v 0.256117 -0.387713 -0.224312
v -0.298067 -0.387713 0.329872
v 0.256117 -0.387713 0.329872
v -0.020975 -0.213594 0.329872
v 0.256117 -0.307587 0.052780
v -0.020975 -0.228800 -0.224312
v -0.298067 -0.242382 0.006302
vn -0.0000 -0.0000 1.0000
vn -0.0000 -0.0000 -1.0000
vn 1.0000 -0.0000 -0.0000
vn -1.0000 -0.0000 -0.0000
vn -0.0000 1.0000 -0.0000
vn 0.7476 0.6641 -0.0000
vn -0.0217 0.8195 -0.5727
vn -0.7437 0.6314 -0.2197
vn 0.2182 0.7625 0.6091
vn -0.0000 -1.0000 -0.0000
vn 0.6251 0.7647 0.1565
vn -0.9094 0.4160 -0.0000
vn 0.4421 0.8620 0.2481
vn 0.1317 0.9801 -0.1489
vn -0.2141 0.8355 -0.5060
vn -0.5024 0.4672 -0.7275
vn -0.6562 -0.0264 -0.7541
vn -0.6341 -0.5129 -0.5787
vn -0.4421 -0.8620 -0.2481
vn -0.1317 -0.9801 0.1489
vn 0.2141 -0.8355 0.5060
vn 0.5024 -0.4672 0.7275
vn 0.6562 0.0264 0.7541
vn 0.6341 0.5129 0.5787
vn 0.7430 -0.1970 -0.6396
vn -0.7430 0.1970 0.6396
vn 0.0404 -0.2551 -0.9661
vn -0.5971 0.1308 -0.7915
vn -0.8848 0.4401 -0.1532
vn -0.6542 0.4916 0.5748
vn -0.0404 0.2551 0.9661
vn 0.5971 -0.1308 0.7915
vn 0.8848 -0.4401 0.1532
vn 0.6542 -0.4916 -0.5748
vn -0.4642 -0.8610 0.2079
vn 0.4642 0.8610 -0.2079
vn -0.4643 -0.8610 0.2079
vn 0.5970 -0.1308 0.7915
vn 0.4643 0.8610 -0.2079
vn 0.4643 0.8609 -0.2079
vn -0.5970 0.1308 -0.7915
vn -0.1857 0.4974 0.8474
vn -0.2501 -0.8580 0.4487
vn 0.1857 -0.4974 -0.8474
vn -0.9502 0.1286 -0.2837
vn 0.9502 -0.1286 0.2837
vn 0.1858 -0.4974 -0.8474
vn -0.8533 -0.5093 0.1119
vn 0.5030 -0.6927 0.5168
vn -0.1858 0.4974 0.8474
vn -0.5030 0.6927 -0.5168
vn 0.8533 0.5092 -0.1119
vn -0.5312 0.6747 -0.5124
vn 0.8693 0.4852 -0.0943
vn -0.8693 -0.4852 0.0943
vn 0.5312 -0.6747 0.5124
vn -0.1858 0.4973 0.8474
vn 0.1858 -0.4973 -0.8474
vn 0.2501 0.8580 -0.4488
vn 0.7082 0.6656 -0.2354
vn -0.2812 0.7994 -0.5309
vn 0.2501 0.8580 -0.4487
vn 0.7931 -0.4332 0.4281
vn -0.9759 -0.1939 -0.1001
vn 0.4412 -0.8974 -0.0000
vn -0.4423 0.5523 -0.7066
vn -0.4417 0.8972 -0.0000
vn 0.6117 -0.7811 -0.1254
vn -0.4385 0.8974 0.0484
vn -0.4312 0.4877 0.7591
vn -0.4619 -0.8597 0.2178
vn 0.3198 0.9242 -0.2090
vn 0.3322 0.6622 -0.6717
vn -0.3231 -0.9464 -0.0000
vn 0.2492 0.7298 0.6366
vn 0.3270 0.9450 -0.0000
vn 0.0575 0.8542 0.5168
vn -0.1049 0.9944 0.0116
vn -0.8924 0.4030 -0.2031
vn 0.3665 0.9295 0.0407
vn -0.0585 0.9109 -0.4085
vn 0.7335 0.6561 0.1777
vn -0.8533 -0.5093 0.1118
vn -0.4107 0.5116 -0.7547
vn 0.4383 -0.8978 -0.0431
vn -0.5993 0.7878 0.1423
vn -0.4814 0.5181 0.7070
vn -0.3174 -0.9296 0.1872
vn 0.4345 0.8662 -0.2470
vn 0.3646 0.6785 -0.6377
vn 0.2539 0.7338 0.6301
vt 0.875000 0.625000
vt 0.625000 0.875000
vt 0.375000 0.625000
s 0
usemtl ruins_find_sink_salvage
f 18/1/1 213/1/1 4/1/1
f 8/1/2 19/1/2 6/1/2
f 22/1/3 8/1/3 6/1/3
f 216/1/4 5/1/4 7/1/4
f 18/1/5 10/1/5 17/1/5
f 198/1/6 200/1/6 197/1/6
f 19/1/7 11/1/7 6/1/7
f 203/1/8 206/1/8 204/1/8
f 17/1/2 14/1/2 13/1/2
f 15/1/4 21/1/4 11/1/4
f 11/1/1 20/1/1 15/1/1
f 24/1/3 16/1/3 12/1/3
f 13/2/5 15/2/5 16/2/5
f 9/1/2 17/1/2 13/1/2
f 18/1/9 9/1/9 3/1/9
f 1/1/1 18/1/1 3/1/1
f 209/3/10 210/3/10 211/3/10
f 215/1/2 19/1/2 8/1/2
f 19/1/5 12/1/5 20/1/5
f 20/1/1 16/1/1 15/1/1
f 15/2/5 13/2/5 14/2/5
f 21/1/4 14/1/4 10/1/4
f 198/1/11 202/1/11 201/1/11
f 214/1/3 4/1/3 2/1/3
f 211/3/10 210/3/10 212/3/10
f 23/1/4 1/1/4 3/1/4
f 203/1/12 208/1/12 205/1/12
f 13/1/3 24/1/3 9/1/3
f 49/2/13 51/2/13 52/2/13
f 26/2/14 39/2/14 38/2/14
f 53/2/15 55/2/15 56/2/15
f 28/2/16 41/2/16 40/2/16
f 58/2/17 60/2/17 57/2/17
f 31/2/18 42/2/18 30/2/18
f 62/2/19 64/2/19 61/2/19
f 33/2/20 44/2/20 32/2/20
f 66/2/21 68/2/21 65/2/21
f 34/2/22 47/2/22 46/2/22
f 70/2/23 72/2/23 69/2/23
f 36/2/24 37/2/24 48/2/24
f 25/2/25 50/2/25 49/2/25
f 26/2/16 51/2/16 50/2/16
f 37/2/26 51/2/26 38/2/26
f 25/2/22 52/2/22 37/2/22
f 27/2/25 54/2/25 53/2/25
f 28/2/18 55/2/18 54/2/18
f 39/2/26 55/2/26 40/2/26
f 27/2/24 56/2/24 39/2/24
f 29/2/25 58/2/25 57/2/25
f 30/2/20 59/2/20 58/2/20
f 41/2/26 59/2/26 42/2/26
f 29/2/14 60/2/14 41/2/14
f 31/2/25 62/2/25 61/2/25
f 32/2/22 63/2/22 62/2/22
f 43/2/26 63/2/26 44/2/26
f 31/2/16 64/2/16 43/2/16
f 34/2/25 65/2/25 33/2/25
f 46/2/24 66/2/24 34/2/24
f 45/2/26 67/2/26 46/2/26
f 33/2/18 68/2/18 45/2/18
f 36/2/25 69/2/25 35/2/25
f 48/2/14 70/2/14 36/2/14
f 48/2/26 72/2/26 71/2/26
f 47/2/20 69/2/20 72/2/20
f 26/2/25 73/2/25 74/2/25
f 26/2/25 75/2/25 27/2/25
f 28/2/25 75/2/25 76/2/25
f 28/2/25 77/2/25 29/2/25
f 29/2/25 78/2/25 30/2/25
f 30/2/25 79/2/25 31/2/25
f 31/2/25 80/2/25 32/2/25
f 32/2/25 81/2/25 33/2/25
f 33/2/25 82/2/25 34/2/25
f 34/2/25 83/2/25 35/2/25
f 36/2/25 83/2/25 84/2/25
f 25/2/25 84/2/25 73/2/25
f 38/2/26 85/2/26 37/2/26
f 39/2/26 86/2/26 38/2/26
f 40/2/26 87/2/26 39/2/26
f 40/2/26 89/2/26 88/2/26
f 42/2/26 89/2/26 41/2/26
f 42/2/26 91/2/26 90/2/26
f 43/2/26 92/2/26 91/2/26
f 44/2/26 93/2/26 92/2/26
f 45/2/26 94/2/26 93/2/26
f 46/2/26 95/2/26 94/2/26
f 48/2/26 95/2/26 47/2/26
f 37/2/26 96/2/26 48/2/26
f 73/2/19 86/2/19 74/2/19
f 74/2/20 87/2/20 75/2/20
f 76/2/21 87/2/21 88/2/21
f 76/2/22 89/2/22 77/2/22
f 78/2/23 89/2/23 90/2/23
f 78/2/24 91/2/24 79/2/24
f 80/2/13 91/2/13 92/2/13
f 80/2/14 93/2/14 81/2/14
f 82/2/15 93/2/15 94/2/15
f 83/2/16 94/2/16 95/2/16
f 84/2/17 95/2/17 96/2/17
f 84/2/18 85/2/18 73/2/18
f 98/2/27 105/2/27 97/2/27
f 114/2/28 116/2/28 113/2/28
f 100/2/29 107/2/29 99/2/29
f 117/2/30 119/2/30 120/2/30
f 101/2/31 110/2/31 109/2/31
f 121/2/32 123/2/32 124/2/32
f 103/2/33 112/2/33 111/2/33
f 125/2/34 127/2/34 128/2/34
f 99/2/35 113/2/35 98/2/35
f 99/2/30 115/2/30 114/2/30
f 107/2/36 116/2/36 115/2/36
f 106/2/34 113/2/34 116/2/34
f 101/2/37 117/2/37 100/2/37
f 109/2/38 118/2/38 101/2/38
f 109/2/39 120/2/39 119/2/39
f 108/2/28 117/2/28 120/2/28
f 103/2/35 121/2/35 102/2/35
f 103/2/34 123/2/34 122/2/34
f 110/2/39 123/2/39 111/2/39
f 110/2/30 121/2/30 124/2/30
f 97/2/35 125/2/35 104/2/35
f 97/2/28 127/2/28 126/2/28
f 105/2/40 128/2/40 127/2/40
f 112/2/32 125/2/32 128/2/32
f 98/2/35 129/2/35 130/2/35
f 99/2/37 130/2/37 131/2/37
f 100/2/37 131/2/37 132/2/37
f 101/2/35 132/2/35 133/2/35
f 101/2/37 134/2/37 102/2/37
f 103/2/35 134/2/35 135/2/35
f 104/2/35 135/2/35 136/2/35
f 104/2/35 129/2/35 97/2/35
f 105/2/39 138/2/39 137/2/39
f 107/2/36 138/2/36 106/2/36
f 108/2/36 139/2/36 107/2/36
f 108/2/36 141/2/36 140/2/36
f 109/2/39 142/2/39 141/2/39
f 111/2/36 142/2/36 110/2/36
f 112/2/36 143/2/36 111/2/36
f 112/2/36 137/2/36 144/2/36
f 129/2/31 138/2/31 130/2/31
f 130/2/32 139/2/32 131/2/32
f 132/2/33 139/2/33 140/2/33
f 133/2/34 140/2/34 141/2/34
f 133/2/27 142/2/27 134/2/27
f 135/2/41 142/2/41 143/2/41
f 135/2/29 144/2/29 136/2/29
f 136/2/30 137/2/30 129/2/30
f 148/2/42 149/2/42 147/2/42
f 173/2/43 175/2/43 176/2/43
f 151/2/44 146/2/44 145/2/44
f 152/2/45 148/2/45 146/2/45
f 151/2/46 147/2/46 149/2/46
f 145/2/47 154/2/47 153/2/47
f 146/2/48 155/2/48 154/2/48
f 147/2/42 155/2/42 148/2/42
f 145/2/49 156/2/49 147/2/49
f 150/2/50 157/2/50 149/2/50
f 150/2/51 159/2/51 158/2/51
f 151/2/47 159/2/47 152/2/47
f 149/2/52 160/2/52 151/2/52
f 154/2/45 163/2/45 162/2/45
f 153/2/46 164/2/46 156/2/46
f 159/2/45 166/2/45 158/2/45
f 157/2/46 168/2/46 160/2/46
f 162/2/53 171/2/53 170/2/53
f 164/2/54 169/2/54 172/2/54
f 166/2/50 173/2/50 165/2/50
f 167/2/55 174/2/55 166/2/55
f 168/2/47 175/2/47 167/2/47
f 165/2/56 176/2/56 168/2/56
f 158/2/57 177/2/57 157/2/57
f 166/2/42 178/2/42 158/2/42
f 165/2/42 179/2/42 166/2/42
f 157/2/50 180/2/50 165/2/50
f 159/2/58 181/2/58 182/2/58
f 168/2/47 181/2/47 160/2/47
f 167/2/44 183/2/44 168/2/44
f 159/2/44 184/2/44 167/2/44
f 181/2/43 178/2/43 182/2/43
f 181/2/45 180/2/45 177/2/45
f 183/2/59 179/2/59 180/2/59
f 182/2/46 179/2/46 184/2/46
f 171/2/60 186/2/60 170/2/60
f 172/2/61 185/2/61 188/2/61
f 153/2/44 190/2/44 189/2/44
f 154/2/47 191/2/47 190/2/47
f 153/2/47 192/2/47 161/2/47
f 155/2/42 193/2/42 194/2/42
f 156/2/42 195/2/42 193/2/42
f 155/2/50 196/2/50 163/2/50
f 170/2/47 191/2/47 162/2/47
f 169/2/44 192/2/44 185/2/44
f 172/2/50 195/2/50 164/2/50
f 171/2/42 196/2/42 187/2/42
f 189/2/62 194/2/62 193/2/62
f 191/2/46 194/2/46 190/2/46
f 189/2/45 195/2/45 192/2/45
f 186/2/63 196/2/63 191/2/63
f 185/2/64 195/2/64 188/2/64
f 6/1/65 198/1/65 22/1/65
f 6/1/66 200/1/66 199/1/66
f 11/1/67 197/1/67 200/1/67
f 22/1/68 201/1/68 4/1/68
f 21/1/69 202/1/69 197/1/69
f 4/1/70 202/1/70 10/1/70
f 23/1/71 204/1/71 5/1/71
f 24/1/72 206/1/72 205/1/72
f 5/1/73 206/1/73 12/1/73
f 3/1/74 203/1/74 23/1/74
f 3/1/75 208/1/75 207/1/75
f 24/1/76 208/1/76 9/1/76
f 215/3/2 210/3/2 209/3/2
f 209/3/4 216/3/4 7/3/4
f 212/3/3 214/3/3 2/3/3
f 211/3/1 213/3/1 1/3/1
f 213/3/1 212/3/1 2/3/1
f 4/1/1 213/1/1 2/1/1
f 214/3/3 210/3/3 8/3/3
f 22/1/3 214/1/3 8/1/3
f 7/3/2 215/3/2 209/3/2
f 5/1/2 215/1/2 7/1/2
f 216/3/4 211/3/4 1/3/4
f 23/1/4 216/1/4 1/1/4
f 18/1/1 1/1/1 213/1/1
f 216/1/4 23/1/4 5/1/4
f 18/1/77 4/1/77 10/1/77
f 198/1/6 199/1/6 200/1/6
f 19/1/78 20/1/78 11/1/78
f 203/1/79 205/1/79 206/1/79
f 17/1/2 10/1/2 14/1/2
f 24/1/3 13/1/3 16/1/3
f 18/1/80 17/1/80 9/1/80
f 19/1/81 5/1/81 12/1/81
f 20/1/1 12/1/1 16/1/1
f 21/1/4 15/1/4 14/1/4
f 198/1/82 197/1/82 202/1/82
f 214/1/3 22/1/3 4/1/3
f 203/1/12 207/1/12 208/1/12
f 49/2/13 50/2/13 51/2/13
f 26/2/14 27/2/14 39/2/14
f 53/2/15 54/2/15 55/2/15
f 28/2/16 29/2/16 41/2/16
f 58/2/17 59/2/17 60/2/17
f 31/2/18 43/2/18 42/2/18
f 62/2/19 63/2/19 64/2/19
f 33/2/20 45/2/20 44/2/20
f 66/2/21 67/2/21 68/2/21
f 34/2/22 35/2/22 47/2/22
f 70/2/23 71/2/23 72/2/23
f 36/2/24 25/2/24 37/2/24
f 25/2/25 26/2/25 50/2/25
f 26/2/16 38/2/16 51/2/16
f 37/2/26 52/2/26 51/2/26
f 25/2/22 49/2/22 52/2/22
f 27/2/25 28/2/25 54/2/25
f 28/2/18 40/2/18 55/2/18
f 39/2/26 56/2/26 55/2/26
f 27/2/24 53/2/24 56/2/24
f 29/2/25 30/2/25 58/2/25
f 30/2/20 42/2/20 59/2/20
f 41/2/26 60/2/26 59/2/26
f 29/2/14 57/2/14 60/2/14
f 31/2/25 32/2/25 62/2/25
f 32/2/22 44/2/22 63/2/22
f 43/2/26 64/2/26 63/2/26
f 31/2/16 61/2/16 64/2/16
f 34/2/25 66/2/25 65/2/25
f 46/2/24 67/2/24 66/2/24
f 45/2/26 68/2/26 67/2/26
f 33/2/18 65/2/18 68/2/18
f 36/2/25 70/2/25 69/2/25
f 48/2/14 71/2/14 70/2/14
f 48/2/26 47/2/26 72/2/26
f 47/2/20 35/2/20 69/2/20
f 26/2/25 25/2/25 73/2/25
f 26/2/25 74/2/25 75/2/25
f 28/2/25 27/2/25 75/2/25
f 28/2/25 76/2/25 77/2/25
f 29/2/25 77/2/25 78/2/25
f 30/2/25 78/2/25 79/2/25
f 31/2/25 79/2/25 80/2/25
f 32/2/25 80/2/25 81/2/25
f 33/2/25 81/2/25 82/2/25
f 34/2/25 82/2/25 83/2/25
f 36/2/25 35/2/25 83/2/25
f 25/2/25 36/2/25 84/2/25
f 38/2/26 86/2/26 85/2/26
f 39/2/26 87/2/26 86/2/26
f 40/2/26 88/2/26 87/2/26
f 40/2/26 41/2/26 89/2/26
f 42/2/26 90/2/26 89/2/26
f 42/2/26 43/2/26 91/2/26
f 43/2/26 44/2/26 92/2/26
f 44/2/26 45/2/26 93/2/26
f 45/2/26 46/2/26 94/2/26
f 46/2/26 47/2/26 95/2/26
f 48/2/26 96/2/26 95/2/26
f 37/2/26 85/2/26 96/2/26
f 73/2/19 85/2/19 86/2/19
f 74/2/20 86/2/20 87/2/20
f 76/2/21 75/2/21 87/2/21
f 76/2/22 88/2/22 89/2/22
f 78/2/23 77/2/23 89/2/23
f 78/2/24 90/2/24 91/2/24
f 80/2/13 79/2/13 91/2/13
f 80/2/14 92/2/14 93/2/14
f 82/2/15 81/2/15 93/2/15
f 83/2/16 82/2/16 94/2/16
f 84/2/17 83/2/17 95/2/17
f 84/2/18 96/2/18 85/2/18
f 98/2/27 106/2/27 105/2/27
f 114/2/28 115/2/28 116/2/28
f 100/2/29 108/2/29 107/2/29
f 117/2/30 118/2/30 119/2/30
f 101/2/31 102/2/31 110/2/31
f 121/2/32 122/2/32 123/2/32
f 103/2/33 104/2/33 112/2/33
f 125/2/34 126/2/34 127/2/34
f 99/2/35 114/2/35 113/2/35
f 99/2/30 107/2/30 115/2/30
f 107/2/39 106/2/39 116/2/39
f 106/2/34 98/2/34 113/2/34
f 101/2/37 118/2/37 117/2/37
f 109/2/38 119/2/38 118/2/38
f 109/2/39 108/2/39 120/2/39
f 108/2/28 100/2/28 117/2/28
f 103/2/35 122/2/35 121/2/35
f 103/2/34 111/2/34 123/2/34
f 110/2/36 124/2/36 123/2/36
f 110/2/30 102/2/30 121/2/30
f 97/2/37 126/2/37 125/2/37
f 97/2/28 105/2/28 127/2/28
f 105/2/36 112/2/36 128/2/36
f 112/2/32 104/2/32 125/2/32
f 98/2/35 97/2/35 129/2/35
f 99/2/37 98/2/37 130/2/37
f 100/2/35 99/2/35 131/2/35
f 101/2/37 100/2/37 132/2/37
f 101/2/37 133/2/37 134/2/37
f 103/2/35 102/2/35 134/2/35
f 104/2/35 103/2/35 135/2/35
f 104/2/37 136/2/37 129/2/37
f 105/2/36 106/2/36 138/2/36
f 107/2/36 139/2/36 138/2/36
f 108/2/39 140/2/39 139/2/39
f 108/2/36 109/2/36 141/2/36
f 109/2/39 110/2/39 142/2/39
f 111/2/36 143/2/36 142/2/36
f 112/2/39 144/2/39 143/2/39
f 112/2/36 105/2/36 137/2/36
f 129/2/31 137/2/31 138/2/31
f 130/2/38 138/2/38 139/2/38
f 132/2/33 131/2/33 139/2/33
f 133/2/34 132/2/34 140/2/34
f 133/2/27 141/2/27 142/2/27
f 135/2/28 134/2/28 142/2/28
f 135/2/29 143/2/29 144/2/29
f 136/2/30 144/2/30 137/2/30
f 148/2/50 150/2/50 149/2/50
f 173/2/43 174/2/43 175/2/43
f 151/2/47 152/2/47 146/2/47
f 152/2/45 150/2/45 148/2/45
f 151/2/46 145/2/46 147/2/46
f 145/2/44 146/2/44 154/2/44
f 146/2/83 148/2/83 155/2/83
f 147/2/50 156/2/50 155/2/50
f 145/2/49 153/2/49 156/2/49
f 150/2/50 158/2/50 157/2/50
f 150/2/51 152/2/51 159/2/51
f 151/2/47 160/2/47 159/2/47
f 149/2/52 157/2/52 160/2/52
f 154/2/45 155/2/45 163/2/45
f 153/2/46 161/2/46 164/2/46
f 159/2/45 167/2/45 166/2/45
f 157/2/46 165/2/46 168/2/46
f 162/2/53 163/2/53 171/2/53
f 164/2/54 161/2/54 169/2/54
f 166/2/50 174/2/50 173/2/50
f 167/2/55 175/2/55 174/2/55
f 168/2/47 176/2/47 175/2/47
f 165/2/56 173/2/56 176/2/56
f 158/2/50 178/2/50 177/2/50
f 166/2/42 179/2/42 178/2/42
f 165/2/42 180/2/42 179/2/42
f 157/2/50 177/2/50 180/2/50
f 159/2/58 160/2/58 181/2/58
f 168/2/44 183/2/44 181/2/44
f 167/2/44 184/2/44 183/2/44
f 159/2/44 182/2/44 184/2/44
f 181/2/43 177/2/43 178/2/43
f 181/2/45 183/2/45 180/2/45
f 183/2/59 184/2/59 179/2/59
f 182/2/46 178/2/46 179/2/46
f 171/2/60 187/2/60 186/2/60
f 172/2/61 169/2/61 185/2/61
f 153/2/47 154/2/47 190/2/47
f 154/2/47 162/2/47 191/2/47
f 153/2/44 189/2/44 192/2/44
f 155/2/50 156/2/50 193/2/50
f 156/2/50 164/2/50 195/2/50
f 155/2/42 194/2/42 196/2/42
f 170/2/47 186/2/47 191/2/47
f 169/2/47 161/2/47 192/2/47
f 172/2/42 188/2/42 195/2/42
f 171/2/42 163/2/42 196/2/42
f 189/2/59 190/2/59 194/2/59
f 191/2/46 196/2/46 194/2/46
f 189/2/45 193/2/45 195/2/45
f 186/2/63 187/2/63 196/2/63
f 185/2/64 192/2/64 195/2/64
f 6/1/65 199/1/65 198/1/65
f 6/1/84 11/1/84 200/1/84
f 11/1/67 21/1/67 197/1/67
f 22/1/85 198/1/85 201/1/85
f 21/1/86 10/1/86 202/1/86
f 4/1/87 201/1/87 202/1/87
f 23/1/88 203/1/88 204/1/88
f 24/1/89 12/1/89 206/1/89
f 5/1/90 204/1/90 206/1/90
f 3/1/74 207/1/74 203/1/74
f 3/1/91 9/1/91 208/1/91
f 24/1/76 205/1/76 208/1/76
f 215/3/2 8/3/2 210/3/2
f 213/3/1 211/3/1 212/3/1
f 214/3/3 212/3/3 210/3/3
f 5/1/2 19/1/2 215/1/2
f 216/3/4 209/3/4 211/3/4
