# Blender 5.2.2 LTS
# www.blender.org
mtllib ruins_cv_wall_c.mtl
o piece
v -2.500000 -2.500000 0.375000
v -2.500000 2.500000 0.375000
v -2.500000 -2.500000 -0.425000
v -2.500000 2.500000 -0.425000
v 2.500000 -2.500000 0.375000
v 2.500000 2.500000 0.375000
v 2.500000 -2.500000 -0.425000
v 2.500000 2.500000 -0.425000
v -1.819086 -2.080571 0.375000
v -1.819086 -2.080571 0.425000
v -1.819086 -1.690857 0.375000
v -1.819086 -1.690857 0.425000
v -1.718514 -2.080571 0.375000
v -1.718514 -2.080571 0.425000
v -1.718514 -1.690857 0.375000
v -1.718514 -1.690857 0.425000
v -2.001160 -2.048228 0.375000
v -2.001160 -2.048228 0.425000
v -2.065806 -1.971186 0.400000
v -1.705622 -1.800243 0.400000
v -1.770268 -1.723200 0.375000
v -1.770268 -1.723200 0.425000
v -2.065806 -0.543100 0.400000
v -2.001160 -0.466057 0.375000
v -2.001160 -0.466057 0.425000
v -1.770268 -0.791085 0.375000
v -1.770268 -0.791085 0.425000
v -1.705622 -0.714043 0.400000
v -1.819086 -0.823429 0.375000
v -1.819086 -0.823429 0.425000
v -1.819086 -0.433714 0.375000
v -1.819086 -0.433714 0.425000
v -1.718514 -0.823429 0.375000
v -1.718514 -0.823429 0.425000
v -1.718514 -0.433714 0.375000
v -1.718514 -0.433714 0.425000
v -0.107171 -1.200257 0.375000
v -0.107171 -1.200257 0.425000
v -0.107171 -1.099686 0.375000
v -0.107171 -1.099686 0.425000
v 0.107171 -1.200257 0.408333
v 0.107171 -1.099686 0.391667
v -0.107171 -1.414600 0.391667
v -0.107171 -1.314029 0.375000
v -0.107171 -1.314029 0.425000
v 0.107171 -1.414600 0.408333
v 0.107171 -1.314029 0.391667
v 0.056886 -1.364314 0.375000
v 0.056886 -1.364314 0.425000
v 0.056886 -1.149971 0.375000
v 0.056886 -1.149971 0.425000
v 0.157457 -1.364314 0.375000
v 0.157457 -1.364314 0.425000
v 0.157457 -1.149971 0.375000
v 0.157457 -1.149971 0.425000
v -0.157457 -1.364314 0.375000
v -0.157457 -1.364314 0.425000
v -0.157457 -1.149971 0.375000
v -0.157457 -1.149971 0.425000
v -0.056886 -1.364314 0.375000
v -0.056886 -1.364314 0.425000
v -0.056886 -1.149971 0.375000
v -0.056886 -1.149971 0.425000
v -0.115446 -1.419657 0.375000
v -0.115446 -1.419657 0.425000
v -0.180092 -1.342615 0.375000
v -0.180092 -1.342615 0.425000
v 0.180092 -1.171671 0.375000
v 0.180092 -1.171671 0.425000
v 0.115446 -1.094629 0.375000
v 0.115446 -1.094629 0.425000
v -0.077112 -1.245099 0.375000
v -0.077112 -1.245099 0.425000
v -0.077112 -1.064071 0.375000
v -0.077112 -1.064071 0.425000
v 0.103916 -1.245099 0.375000
v 0.103916 -1.245099 0.425000
v 0.103916 -1.064071 0.375000
v 0.103916 -1.064071 0.425000
v -0.194857 -0.561943 0.375000
v -0.194857 -0.561943 0.425000
v -0.194857 -0.461371 0.375000
v -0.194857 -0.461371 0.425000
v 0.194857 -0.561943 0.375000
v 0.194857 -0.561943 0.425000
v 0.194857 -0.461371 0.375000
v 0.194857 -0.461371 0.425000
v -0.116914 -0.764594 0.375000
v -0.116914 -0.764594 0.425000
v -0.116914 -0.664023 0.375000
v -0.116914 -0.664023 0.425000
v 0.116914 -0.764594 0.375000
v 0.116914 -0.764594 0.425000
v 0.116914 -0.664023 0.375000
v 0.116914 -0.664023 0.425000
v -0.116914 -0.593120 0.375000
v -0.116914 -0.593120 0.425000
v -0.116914 -0.492549 0.375000
v -0.116914 -0.492549 0.425000
v 0.116914 -0.593120 0.375000
v 0.116914 -0.593120 0.425000
v 0.116914 -0.492549 0.375000
v 0.116914 -0.492549 0.425000
v -0.107171 0.056886 0.375000
v -0.107171 0.056886 0.425000
v -0.107171 0.157457 0.375000
v -0.107171 0.157457 0.425000
v 0.107171 0.056886 0.375000
v 0.107171 0.056886 0.425000
v 0.107171 0.157457 0.375000
v 0.107171 0.157457 0.425000
v -0.107171 -0.157457 0.375000
v -0.107171 -0.157457 0.425000
v -0.107171 -0.056886 0.375000
v -0.107171 -0.056886 0.425000
v 0.107171 -0.157457 0.375000
v 0.107171 -0.157457 0.425000
v 0.107171 -0.056886 0.375000
v 0.107171 -0.056886 0.425000
v 0.056886 -0.107171 0.375000
v 0.056886 -0.107171 0.425000
v 0.056886 0.107171 0.375000
v 0.056886 0.107171 0.425000
v 0.157457 -0.107171 0.375000
v 0.157457 -0.107171 0.425000
v 0.157457 0.107171 0.375000
v 0.157457 0.107171 0.425000
v -0.157457 -0.107171 0.375000
v -0.157457 -0.107171 0.425000
v -0.157457 0.107171 0.375000
v -0.157457 0.107171 0.425000
v -0.056886 -0.107171 0.375000
v -0.056886 -0.107171 0.425000
v -0.056886 0.107171 0.375000
v -0.056886 0.107171 0.425000
v -0.180092 0.085472 0.375000
v -0.180092 0.085472 0.425000
v -0.115446 0.162514 0.375000
v -0.115446 0.162514 0.425000
v 0.115446 -0.162514 0.375000
v 0.115446 -0.162514 0.425000
v 0.180092 -0.085472 0.375000
v 0.180092 -0.085472 0.425000
v -0.116914 -0.136023 0.375000
v -0.116914 -0.136023 0.425000
v -0.116914 -0.035451 0.375000
v -0.116914 -0.035451 0.425000
v 0.116914 -0.136023 0.375000
v 0.116914 -0.136023 0.425000
v 0.116914 -0.035451 0.375000
v 0.116914 -0.035451 0.425000
v -0.116914 0.035451 0.375000
v -0.116914 0.035451 0.425000
v -0.116914 0.136023 0.375000
v -0.116914 0.136023 0.425000
v 0.116914 0.035451 0.375000
v 0.116914 0.035451 0.425000
v 0.116914 0.136023 0.391667
v -0.011931 0.535163 0.375000
v -0.011931 0.535163 0.425000
v -0.011931 0.716192 0.375000
v -0.011931 0.716192 0.425000
v 0.169098 0.535163 0.375000
v 0.169098 0.535163 0.425000
v 0.169098 0.716192 0.375000
v 0.169098 0.716192 0.425000
v -0.107171 0.685457 0.391667
v -0.107171 0.786029 0.408333
v 0.107171 0.685457 0.408333
v 0.107171 0.786029 0.391667
v -0.107171 0.471114 0.375000
v -0.107171 0.471114 0.425000
v -0.107171 0.571686 0.375000
v -0.107171 0.571686 0.425000
v 0.107171 0.471114 0.375000
v 0.107171 0.471114 0.425000
v 0.107171 0.571686 0.375000
v 0.107171 0.571686 0.425000
v 0.056886 0.521400 0.375000
v 0.056886 0.521400 0.425000
v 0.056886 0.735743 0.375000
v 0.056886 0.735743 0.425000
v 0.157457 0.521400 0.375000
v 0.157457 0.521400 0.425000
v 0.157457 0.735743 0.375000
v 0.157457 0.735743 0.425000
v -0.157457 0.521400 0.375000
v -0.157457 0.521400 0.425000
v -0.157457 0.735743 0.375000
v -0.157457 0.735743 0.425000
v -0.056886 0.521400 0.375000
v -0.056886 0.521400 0.425000
v -0.056886 0.735743 0.375000
v -0.056886 0.735743 0.425000
v -0.115446 1.094629 0.375000
v -0.115446 1.094629 0.425000
v -0.180092 1.171671 0.375000
v -0.180092 1.171671 0.425000
v 0.180092 1.342615 0.375000
v 0.180092 1.342615 0.425000
v 0.115446 1.419657 0.375000
v 0.115446 1.419657 0.425000
v -0.116914 1.121120 0.375000
v -0.116914 1.121120 0.425000
v -0.116914 1.221691 0.375000
v -0.116914 1.221691 0.425000
v 0.116914 1.121120 0.375000
v 0.116914 1.121120 0.425000
v 0.116914 1.221691 0.375000
v 0.116914 1.221691 0.425000
v -0.116914 1.292594 0.375000
v -0.116914 1.292594 0.425000
v -0.116914 1.393166 0.375000
v -0.116914 1.393166 0.425000
v 0.116914 1.292594 0.375000
v 0.116914 1.292594 0.425000
v 0.116914 1.393166 0.375000
v 0.116914 1.393166 0.425000
v -0.194857 1.718514 0.375000
v -0.194857 1.718514 0.425000
v -0.194857 1.819086 0.375000
v -0.194857 1.819086 0.425000
v 0.194857 1.718514 0.375000
v 0.194857 1.718514 0.425000
v 0.194857 1.819086 0.375000
v 0.194857 1.819086 0.425000
v -0.136400 1.952343 0.375000
v -0.136400 1.952343 0.425000
v -0.136400 2.052914 0.375000
v -0.136400 2.052914 0.425000
v 0.136400 1.952343 0.375000
v 0.136400 1.952343 0.425000
v 0.136400 2.052914 0.375000
v 0.136400 2.052914 0.425000
v 0.066629 1.768800 0.375000
v 0.066629 1.768800 0.425000
v 0.066629 2.002629 0.375000
v 0.066629 2.002629 0.425000
v 0.167200 1.768800 0.375000
v 0.167200 1.768800 0.425000
v 0.167200 2.002629 0.375000
v 0.167200 2.002629 0.425000
v 0.492171 -1.819086 0.375000
v 0.492171 -1.819086 0.425000
v 0.492171 -1.718514 0.375000
v 0.492171 -1.718514 0.425000
v 0.764971 -1.819086 0.375000
v 0.764971 -1.819086 0.425000
v 0.764971 -1.718514 0.375000
v 0.764971 -1.718514 0.425000
v 0.695200 -2.002629 0.375000
v 0.695200 -2.002629 0.425000
v 0.695200 -1.768800 0.375000
v 0.695200 -1.768800 0.425000
v 0.795771 -2.002629 0.375000
v 0.795771 -2.002629 0.425000
v 0.795771 -1.768800 0.375000
v 0.795771 -1.768800 0.425000
v 0.511657 -2.021737 0.375000
v 0.511657 -2.021737 0.425000
v 0.511657 -1.921166 0.375000
v 0.511657 -1.921166 0.425000
v 0.745486 -2.021737 0.375000
v 0.745486 -2.021737 0.425000
v 0.745486 -1.921166 0.375000
v 0.745486 -1.921166 0.425000
v 0.511657 -1.850263 0.375000
v 0.511657 -1.850263 0.425000
v 0.511657 -1.749691 0.375000
v 0.511657 -1.749691 0.425000
v 0.745486 -1.850263 0.375000
v 0.745486 -1.850263 0.425000
v 0.745486 -1.749691 0.375000
v 0.745486 -1.749691 0.425000
v 0.492171 0.066629 0.375000
v 0.492171 0.066629 0.425000
v 0.492171 0.167200 0.375000
v 0.492171 0.167200 0.425000
v 0.764971 0.066629 0.375000
v 0.764971 0.066629 0.425000
v 0.764971 0.167200 0.375000
v 0.764971 0.167200 0.425000
v 0.695200 -0.116914 0.375000
v 0.695200 -0.116914 0.425000
v 0.695200 0.116914 0.375000
v 0.695200 0.116914 0.425000
v 0.795771 -0.116914 0.375000
v 0.795771 -0.116914 0.425000
v 0.795771 0.116914 0.375000
v 0.795771 0.116914 0.425000
v 0.461371 -0.194857 0.375000
v 0.461371 -0.194857 0.425000
v 0.461371 0.194857 0.375000
v 0.461371 0.194857 0.425000
v 0.561943 -0.194857 0.375000
v 0.561943 -0.194857 0.425000
v 0.561943 0.194857 0.375000
v 0.561943 0.194857 0.425000
v 0.433714 -0.050286 0.375000
v 0.433714 -0.050286 0.425000
v 0.433714 0.050286 0.375000
v 0.433714 0.050286 0.425000
v 0.823429 -0.050286 0.375000
v 0.823429 -0.050286 0.425000
v 0.823429 0.050286 0.375000
v 0.823429 0.050286 0.425000
v 0.511657 1.121120 0.375000
v 0.511657 1.121120 0.425000
v 0.511657 1.221691 0.375000
v 0.511657 1.221691 0.425000
v 0.745486 1.121120 0.375000
v 0.745486 1.121120 0.425000
v 0.745486 1.221691 0.375000
v 0.745486 1.221691 0.425000
v 0.511657 1.292594 0.375000
v 0.511657 1.292594 0.425000
v 0.511657 1.393166 0.375000
v 0.511657 1.393166 0.425000
v 0.745486 1.292594 0.375000
v 0.745486 1.292594 0.425000
v 0.745486 1.393166 0.375000
v 0.745486 1.393166 0.425000
v 0.521400 1.314029 0.375000
v 0.521400 1.314029 0.425000
v 0.521400 1.414600 0.375000
v 0.521400 1.414600 0.425000
v 0.735743 1.314029 0.375000
v 0.735743 1.314029 0.425000
v 0.735743 1.414600 0.375000
v 0.735743 1.414600 0.425000
v 0.521400 1.099686 0.375000
v 0.521400 1.099686 0.425000
v 0.521400 1.200257 0.375000
v 0.521400 1.200257 0.425000
v 0.735743 1.099686 0.375000
v 0.735743 1.099686 0.425000
v 0.735743 1.200257 0.375000
v 0.735743 1.200257 0.425000
v 0.685457 1.149971 0.375000
v 0.685457 1.149971 0.425000
v 0.685457 1.364314 0.375000
v 0.685457 1.364314 0.425000
v 0.786029 1.149971 0.375000
v 0.786029 1.149971 0.425000
v 0.786029 1.364314 0.375000
v 0.786029 1.364314 0.425000
v 0.471114 1.149971 0.391667
v 0.471114 1.364314 0.408333
v 0.571686 1.149971 0.375000
v 0.571686 1.149971 0.425000
v 0.571686 1.364314 0.375000
v 0.571686 1.364314 0.425000
v 1.140229 -0.136023 0.375000
v 1.140229 -0.136023 0.425000
v 1.140229 -0.035451 0.375000
v 1.140229 -0.035451 0.425000
v 1.374057 -0.136023 0.375000
v 1.374057 -0.136023 0.425000
v 1.374057 -0.035451 0.375000
v 1.374057 -0.035451 0.425000
v 1.140229 0.035451 0.375000
v 1.140229 0.035451 0.425000
v 1.140229 0.136023 0.375000
v 1.140229 0.136023 0.425000
v 1.374057 0.035451 0.375000
v 1.374057 0.035451 0.425000
v 1.374057 0.136023 0.375000
v 1.374057 0.136023 0.425000
v 1.149971 0.056886 0.375000
v 1.149971 0.056886 0.425000
v 1.149971 0.157457 0.375000
v 1.149971 0.157457 0.425000
v 1.364314 0.056886 0.375000
v 1.364314 0.056886 0.425000
v 1.364314 0.157457 0.375000
v 1.364314 0.157457 0.425000
v 1.149971 -0.157457 0.375000
v 1.149971 -0.157457 0.425000
v 1.149971 -0.056886 0.375000
v 1.149971 -0.056886 0.425000
v 1.364314 -0.157457 0.375000
v 1.364314 -0.157457 0.425000
v 1.364314 -0.056886 0.375000
v 1.364314 -0.056886 0.425000
v 1.314029 -0.107171 0.391667
v 1.314029 0.107171 0.408333
v 1.414600 -0.107171 0.408333
v 1.414600 0.107171 0.391667
v 1.099686 -0.107171 0.391667
v 1.099686 0.107171 0.408333
v 1.200257 -0.107171 0.408333
v 1.200257 0.107171 0.391667
v 1.120743 0.066629 0.375000
v 1.120743 0.066629 0.425000
v 1.120743 0.167200 0.375000
v 1.120743 0.167200 0.425000
v 1.393543 0.066629 0.375000
v 1.393543 0.066629 0.425000
v 1.393543 0.167200 0.375000
v 1.393543 0.167200 0.425000
v 1.323771 -0.116914 0.375000
v 1.323771 -0.116914 0.425000
v 1.323771 0.116914 0.375000
v 1.323771 0.116914 0.425000
v 1.424343 -0.116914 0.375000
v 1.424343 -0.116914 0.425000
v 1.424343 0.116914 0.375000
v 1.424343 0.116914 0.425000
v 1.120743 1.323771 0.375000
v 1.120743 1.323771 0.425000
v 1.120743 1.424343 0.375000
v 1.120743 1.424343 0.425000
v 1.393543 1.323771 0.375000
v 1.393543 1.323771 0.425000
v 1.393543 1.424343 0.375000
v 1.393543 1.424343 0.425000
v 1.323771 1.140229 0.375000
v 1.323771 1.140229 0.425000
v 1.323771 1.374057 0.375000
v 1.323771 1.374057 0.425000
v 1.424343 1.140229 0.375000
v 1.424343 1.140229 0.425000
v 1.424343 1.374057 0.375000
v 1.424343 1.374057 0.425000
v 1.077051 1.342615 0.375000
v 1.077051 1.342615 0.425000
v 1.141697 1.419657 0.400000
v 1.372589 1.094629 0.400000
v 1.437235 1.171671 0.375000
v 1.437235 1.171671 0.425000
v 1.149971 1.942600 0.375000
v 1.149971 1.942600 0.425000
v 1.149971 2.043171 0.375000
v 1.149971 2.043171 0.425000
v 1.364314 1.942600 0.375000
v 1.364314 1.942600 0.425000
v 1.364314 2.043171 0.375000
v 1.364314 2.043171 0.425000
v 1.149971 1.728257 0.375000
v 1.149971 1.728257 0.425000
v 1.149971 1.828829 0.375000
v 1.149971 1.828829 0.425000
v 1.364314 1.728257 0.375000
v 1.364314 1.728257 0.425000
v 1.364314 1.828829 0.375000
v 1.364314 1.828829 0.425000
v 1.314029 1.778543 0.375000
v 1.314029 1.778543 0.425000
v 1.314029 1.992886 0.375000
v 1.314029 1.992886 0.425000
v 1.414600 1.778543 0.375000
v 1.414600 1.778543 0.425000
v 1.414600 1.992886 0.375000
v 1.414600 1.992886 0.425000
v 1.099686 1.778543 0.375000
v 1.099686 1.778543 0.425000
v 1.099686 1.992886 0.375000
v 1.099686 1.992886 0.425000
v 1.200257 1.778543 0.375000
v 1.200257 1.778543 0.425000
v 1.200257 1.992886 0.375000
v 1.200257 1.992886 0.425000
v 1.120743 1.952343 0.375000
v 1.120743 1.952343 0.425000
v 1.120743 2.052914 0.375000
v 1.120743 2.052914 0.425000
v 1.393543 1.952343 0.375000
v 1.393543 1.952343 0.425000
v 1.393543 2.052914 0.375000
v 1.393543 2.052914 0.425000
v 1.323771 1.768800 0.375000
v 1.323771 1.768800 0.425000
v 1.323771 2.002629 0.375000
v 1.323771 2.002629 0.425000
v 1.424343 1.768800 0.375000
v 1.424343 1.768800 0.425000
v 1.424343 2.002629 0.375000
v 1.424343 2.002629 0.425000
v 1.062286 1.718514 0.375000
v 1.062286 1.718514 0.425000
v 1.062286 1.819086 0.375000
v 1.062286 1.819086 0.425000
v 1.452000 1.718514 0.375000
v 1.452000 1.718514 0.425000
v 1.452000 1.819086 0.375000
v 1.452000 1.819086 0.425000
v 1.778543 -0.571686 0.391667
v 1.778543 -0.471114 0.408333
v 1.992886 -0.571686 0.408333
v 1.992886 -0.471114 0.391667
v 1.778543 -0.786029 0.375000
v 1.778543 -0.786029 0.425000
v 1.778543 -0.685457 0.375000
v 1.778543 -0.685457 0.425000
v 1.992886 -0.786029 0.375000
v 1.992886 -0.786029 0.425000
v 1.992886 -0.685457 0.375000
v 1.992886 -0.685457 0.425000
v 1.942600 -0.735743 0.375000
v 1.942600 -0.735743 0.425000
v 1.942600 -0.521400 0.375000
v 1.942600 -0.521400 0.425000
v 2.043171 -0.735743 0.375000
v 2.043171 -0.735743 0.425000
v 2.043171 -0.521400 0.375000
v 2.043171 -0.521400 0.425000
v 1.728257 -0.735743 0.375000
v 1.728257 -0.735743 0.425000
v 1.728257 -0.521400 0.375000
v 1.728257 -0.521400 0.425000
v 1.828829 -0.735743 0.375000
v 1.828829 -0.735743 0.425000
v 1.828829 -0.521400 0.375000
v 1.828829 -0.521400 0.425000
v 1.749314 -0.561943 0.375000
v 1.749314 -0.561943 0.425000
v 1.749314 -0.461371 0.375000
v 1.749314 -0.461371 0.425000
v 2.022114 -0.561943 0.375000
v 2.022114 -0.561943 0.425000
v 2.022114 -0.461371 0.375000
v 2.022114 -0.461371 0.425000
v 1.952343 -0.745486 0.375000
v 1.952343 -0.745486 0.425000
v 1.952343 -0.511657 0.375000
v 1.952343 -0.511657 0.425000
v 2.052914 -0.745486 0.375000
v 2.052914 -0.745486 0.425000
v 2.052914 -0.511657 0.375000
v 2.052914 -0.511657 0.425000
v 1.768800 0.492549 0.375000
v 1.768800 0.492549 0.425000
v 1.768800 0.593120 0.375000
v 1.768800 0.593120 0.425000
v 2.002629 0.492549 0.375000
v 2.002629 0.492549 0.425000
v 2.002629 0.593120 0.375000
v 2.002629 0.593120 0.425000
v 1.768800 0.664023 0.375000
v 1.768800 0.664023 0.425000
v 1.768800 0.764594 0.375000
v 1.768800 0.764594 0.425000
v 2.002629 0.664023 0.375000
v 2.002629 0.664023 0.425000
v 2.002629 0.764594 0.375000
v 2.002629 0.764594 0.425000
v 1.705622 0.714043 0.400000
v 1.770268 0.791085 0.375000
v 1.770268 0.791085 0.425000
v 2.001160 0.466057 0.375000
v 2.001160 0.466057 0.425000
v 2.065806 0.543100 0.400000
v 1.690857 0.578286 0.375000
v 1.690857 0.578286 0.425000
v 1.690857 0.678857 0.375000
v 1.690857 0.678857 0.425000
v 2.080571 0.578286 0.375000
v 2.080571 0.578286 0.425000
v 2.080571 0.678857 0.375000
v 2.080571 0.678857 0.425000
v 1.749314 1.323771 0.375000
v 1.749314 1.323771 0.425000
v 1.749314 1.424343 0.375000
v 1.749314 1.424343 0.425000
v 2.022114 1.323771 0.375000
v 2.022114 1.323771 0.425000
v 2.022114 1.424343 0.375000
v 2.022114 1.424343 0.425000
v 1.952343 1.140229 0.375000
v 1.952343 1.140229 0.425000
v 1.952343 1.374057 0.375000
v 1.952343 1.374057 0.425000
v 2.052914 1.140229 0.375000
v 2.052914 1.140229 0.425000
v 2.052914 1.374057 0.375000
v 2.052914 1.374057 0.425000
v 1.768800 1.121120 0.375000
v 1.768800 1.121120 0.425000
v 1.768800 1.221691 0.375000
v 1.768800 1.221691 0.425000
v 2.002629 1.121120 0.375000
v 2.002629 1.121120 0.425000
v 2.002629 1.221691 0.375000
v 2.002629 1.221691 0.425000
v 1.768800 1.292594 0.375000
v 1.768800 1.292594 0.425000
v 1.768800 1.393166 0.375000
v 1.768800 1.393166 0.425000
v 2.002629 1.292594 0.375000
v 2.002629 1.292594 0.425000
v 2.002629 1.393166 0.375000
v 2.002629 1.393166 0.425000
vn -1.0000 -0.0000 -0.0000
vn -0.0000 -0.0000 -1.0000
vn 1.0000 -0.0000 -0.0000
vn -0.0000 -0.0000 1.0000
vn -0.0000 -1.0000 -0.0000
vn -0.0000 1.0000 -0.0000
vn -0.7660 -0.6428 -0.0000
vn 0.7660 0.6428 -0.0000
vn -0.2028 0.1441 -0.9686
vn 0.2028 -0.1441 0.9686
vn 0.6428 0.7660 -0.0000
vn -0.6428 -0.7660 -0.0000
vn -0.2028 -0.1441 -0.9686
vn 0.2028 0.1441 0.9686
vn 0.0775 -0.0000 -0.9970
vn 0.1516 0.1616 0.9751
vn 0.0765 -0.1630 -0.9837
vn -0.6428 0.7660 -0.0000
vn 0.6428 -0.7660 -0.0000
vn -0.7660 0.6428 -0.0000
vn 0.7660 -0.6428 -0.0000
vn 0.0711 -0.0000 -0.9975
vn 0.1341 0.3118 0.9406
vn -0.0765 0.1630 -0.9837
vn 0.0765 0.1630 0.9837
vn -0.3138 0.0736 -0.9466
vn -0.1635 -0.0000 0.9865
vn -0.1630 0.0765 -0.9837
vn 0.1630 0.0765 0.9837
vn 0.1067 0.2248 -0.9686
vn -0.1067 -0.2248 0.9686
vn 0.2028 -0.1441 -0.9686
vn -0.2028 0.1441 0.9686
vn 0.2028 0.1441 -0.9686
vn -0.2028 -0.1441 0.9686
vn 0.1516 -0.1616 -0.9751
vn 0.0775 -0.0000 0.9970
vn -0.0736 -0.3138 0.9466
vn -0.0000 0.1635 -0.9865
vn -0.0765 -0.1630 0.9837
vn -0.1635 -0.0000 -0.9865
vn -0.3138 -0.0736 0.9466
vn 0.1630 -0.0765 -0.9837
vn -0.1630 -0.0765 0.9837
vn -0.1067 -0.2248 -0.9686
vn 0.1067 0.2248 0.9686
vt 0.125000 0.625000
vt 0.375000 0.875000
vt 0.375000 0.625000
vt 0.875000 0.625000
vt 0.125000 0.125000
s 0
usemtl ruins_cv_wall_c
f 2/1/1 3/1/1 1/1/1
f 4/2/2 7/2/2 3/2/2
f 8/1/3 5/1/3 7/1/3
f 6/3/4 1/3/4 5/3/4
f 7/2/5 1/2/5 3/2/5
f 4/4/6 6/4/6 8/4/6
f 10/5/1 11/5/1 9/5/1
f 12/5/6 15/5/6 11/5/6
f 16/5/3 13/5/3 15/5/3
f 14/5/5 9/5/5 13/5/5
f 15/5/2 9/5/2 11/5/2
f 12/5/4 14/5/4 16/5/4
f 18/5/7 19/5/7 17/5/7
f 22/5/8 20/5/8 21/5/8
f 21/5/9 17/5/9 19/5/9
f 22/5/10 18/5/10 20/5/10
f 25/5/11 28/5/11 24/5/11
f 27/5/12 23/5/12 26/5/12
f 24/5/13 26/5/13 23/5/13
f 25/5/14 27/5/14 28/5/14
f 30/5/1 31/5/1 29/5/1
f 32/5/6 35/5/6 31/5/6
f 36/5/3 33/5/3 35/5/3
f 34/5/5 29/5/5 33/5/5
f 35/5/2 29/5/2 31/5/2
f 32/5/4 34/5/4 36/5/4
f 38/5/1 39/5/1 37/5/1
f 40/5/6 42/5/6 39/5/6
f 42/5/15 37/5/15 39/5/15
f 40/5/16 41/5/16 42/5/16
f 45/5/6 47/5/6 44/5/6
f 47/5/17 43/5/17 44/5/17
f 45/5/16 46/5/16 47/5/16
f 49/5/1 50/5/1 48/5/1
f 51/5/6 54/5/6 50/5/6
f 55/5/3 52/5/3 54/5/3
f 53/5/5 48/5/5 52/5/5
f 54/5/2 48/5/2 50/5/2
f 51/5/4 53/5/4 55/5/4
f 57/5/1 58/5/1 56/5/1
f 59/5/6 62/5/6 58/5/6
f 63/5/3 60/5/3 62/5/3
f 61/5/5 56/5/5 60/5/5
f 62/5/2 56/5/2 58/5/2
f 59/5/4 61/5/4 63/5/4
f 65/5/7 66/5/7 64/5/7
f 67/5/18 70/5/18 66/5/18
f 71/5/8 68/5/8 70/5/8
f 69/5/19 64/5/19 68/5/19
f 70/5/2 64/5/2 66/5/2
f 67/5/4 69/5/4 71/5/4
f 73/5/1 74/5/1 72/5/1
f 75/5/6 78/5/6 74/5/6
f 79/5/3 76/5/3 78/5/3
f 77/5/5 72/5/5 76/5/5
f 78/5/2 72/5/2 74/5/2
f 75/5/4 77/5/4 79/5/4
f 81/5/1 82/5/1 80/5/1
f 83/5/6 86/5/6 82/5/6
f 87/5/3 84/5/3 86/5/3
f 85/5/5 80/5/5 84/5/5
f 86/5/2 80/5/2 82/5/2
f 83/5/4 85/5/4 87/5/4
f 89/5/1 90/5/1 88/5/1
f 91/5/6 94/5/6 90/5/6
f 95/5/3 92/5/3 94/5/3
f 93/5/5 88/5/5 92/5/5
f 94/5/2 88/5/2 90/5/2
f 91/5/4 93/5/4 95/5/4
f 97/5/1 98/5/1 96/5/1
f 99/5/6 102/5/6 98/5/6
f 103/5/3 100/5/3 102/5/3
f 101/5/5 96/5/5 100/5/5
f 102/5/2 96/5/2 98/5/2
f 99/5/4 101/5/4 103/5/4
f 105/5/1 106/5/1 104/5/1
f 107/5/6 110/5/6 106/5/6
f 111/5/3 108/5/3 110/5/3
f 109/5/5 104/5/5 108/5/5
f 110/5/2 104/5/2 106/5/2
f 107/5/4 109/5/4 111/5/4
f 113/5/1 114/5/1 112/5/1
f 115/5/6 118/5/6 114/5/6
f 119/5/3 116/5/3 118/5/3
f 117/5/5 112/5/5 116/5/5
f 118/5/2 112/5/2 114/5/2
f 115/5/4 117/5/4 119/5/4
f 121/5/1 122/5/1 120/5/1
f 123/5/6 126/5/6 122/5/6
f 127/5/3 124/5/3 126/5/3
f 125/5/5 120/5/5 124/5/5
f 126/5/2 120/5/2 122/5/2
f 123/5/4 125/5/4 127/5/4
f 129/5/1 130/5/1 128/5/1
f 131/5/6 134/5/6 130/5/6
f 135/5/3 132/5/3 134/5/3
f 133/5/5 128/5/5 132/5/5
f 134/5/2 128/5/2 130/5/2
f 131/5/4 133/5/4 135/5/4
f 137/5/20 138/5/20 136/5/20
f 139/5/11 142/5/11 138/5/11
f 143/5/21 140/5/21 142/5/21
f 141/5/12 136/5/12 140/5/12
f 142/5/2 136/5/2 138/5/2
f 139/5/4 141/5/4 143/5/4
f 145/5/1 146/5/1 144/5/1
f 147/5/6 150/5/6 146/5/6
f 151/5/3 148/5/3 150/5/3
f 149/5/5 144/5/5 148/5/5
f 150/5/2 144/5/2 146/5/2
f 147/5/4 149/5/4 151/5/4
f 153/5/1 154/5/1 152/5/1
f 155/5/6 158/5/6 154/5/6
f 157/5/5 152/5/5 156/5/5
f 158/5/22 152/5/22 154/5/22
f 155/5/23 157/5/23 158/5/23
f 160/5/1 161/5/1 159/5/1
f 162/5/6 165/5/6 161/5/6
f 166/5/3 163/5/3 165/5/3
f 164/5/5 159/5/5 163/5/5
f 165/5/2 159/5/2 161/5/2
f 162/5/4 164/5/4 166/5/4
f 170/5/24 167/5/24 168/5/24
f 168/5/25 169/5/25 170/5/25
f 172/5/1 173/5/1 171/5/1
f 174/5/6 177/5/6 173/5/6
f 178/5/3 175/5/3 177/5/3
f 176/5/5 171/5/5 175/5/5
f 177/5/2 171/5/2 173/5/2
f 174/5/4 176/5/4 178/5/4
f 180/5/1 181/5/1 179/5/1
f 182/5/6 185/5/6 181/5/6
f 186/5/3 183/5/3 185/5/3
f 184/5/5 179/5/5 183/5/5
f 185/5/2 179/5/2 181/5/2
f 182/5/4 184/5/4 186/5/4
f 188/5/1 189/5/1 187/5/1
f 190/5/6 193/5/6 189/5/6
f 194/5/3 191/5/3 193/5/3
f 192/5/5 187/5/5 191/5/5
f 193/5/2 187/5/2 189/5/2
f 190/5/4 192/5/4 194/5/4
f 196/5/7 197/5/7 195/5/7
f 198/5/18 201/5/18 197/5/18
f 202/5/8 199/5/8 201/5/8
f 200/5/19 195/5/19 199/5/19
f 201/5/2 195/5/2 197/5/2
f 198/5/4 200/5/4 202/5/4
f 204/5/1 205/5/1 203/5/1
f 206/5/6 209/5/6 205/5/6
f 210/5/3 207/5/3 209/5/3
f 208/5/5 203/5/5 207/5/5
f 209/5/2 203/5/2 205/5/2
f 206/5/4 208/5/4 210/5/4
f 212/5/1 213/5/1 211/5/1
f 214/5/6 217/5/6 213/5/6
f 218/5/3 215/5/3 217/5/3
f 216/5/5 211/5/5 215/5/5
f 217/5/2 211/5/2 213/5/2
f 214/5/4 216/5/4 218/5/4
f 220/5/1 221/5/1 219/5/1
f 222/5/6 225/5/6 221/5/6
f 226/5/3 223/5/3 225/5/3
f 224/5/5 219/5/5 223/5/5
f 225/5/2 219/5/2 221/5/2
f 222/5/4 224/5/4 226/5/4
f 228/5/1 229/5/1 227/5/1
f 230/5/6 233/5/6 229/5/6
f 234/5/3 231/5/3 233/5/3
f 232/5/5 227/5/5 231/5/5
f 233/5/2 227/5/2 229/5/2
f 230/5/4 232/5/4 234/5/4
f 236/5/1 237/5/1 235/5/1
f 238/5/6 241/5/6 237/5/6
f 242/5/3 239/5/3 241/5/3
f 240/5/5 235/5/5 239/5/5
f 241/5/2 235/5/2 237/5/2
f 238/5/4 240/5/4 242/5/4
f 244/5/1 245/5/1 243/5/1
f 246/5/6 249/5/6 245/5/6
f 250/5/3 247/5/3 249/5/3
f 248/5/5 243/5/5 247/5/5
f 249/5/2 243/5/2 245/5/2
f 246/5/4 248/5/4 250/5/4
f 252/5/1 253/5/1 251/5/1
f 254/5/6 257/5/6 253/5/6
f 258/5/3 255/5/3 257/5/3
f 256/5/5 251/5/5 255/5/5
f 257/5/2 251/5/2 253/5/2
f 254/5/4 256/5/4 258/5/4
f 260/5/1 261/5/1 259/5/1
f 262/5/6 265/5/6 261/5/6
f 266/5/3 263/5/3 265/5/3
f 264/5/5 259/5/5 263/5/5
f 265/5/2 259/5/2 261/5/2
f 262/5/4 264/5/4 266/5/4
f 268/5/1 269/5/1 267/5/1
f 270/5/6 273/5/6 269/5/6
f 274/5/3 271/5/3 273/5/3
f 272/5/5 267/5/5 271/5/5
f 273/5/2 267/5/2 269/5/2
f 270/5/4 272/5/4 274/5/4
f 276/5/1 277/5/1 275/5/1
f 278/5/6 281/5/6 277/5/6
f 282/5/3 279/5/3 281/5/3
f 280/5/5 275/5/5 279/5/5
f 281/5/2 275/5/2 277/5/2
f 278/5/4 280/5/4 282/5/4
f 284/5/1 285/5/1 283/5/1
f 286/5/6 289/5/6 285/5/6
f 290/5/3 287/5/3 289/5/3
f 288/5/5 283/5/5 287/5/5
f 289/5/2 283/5/2 285/5/2
f 286/5/4 288/5/4 290/5/4
f 292/5/1 293/5/1 291/5/1
f 294/5/6 297/5/6 293/5/6
f 298/5/3 295/5/3 297/5/3
f 296/5/5 291/5/5 295/5/5
f 297/5/2 291/5/2 293/5/2
f 294/5/4 296/5/4 298/5/4
f 300/5/1 301/5/1 299/5/1
f 302/5/6 305/5/6 301/5/6
f 306/5/3 303/5/3 305/5/3
f 304/5/5 299/5/5 303/5/5
f 305/5/2 299/5/2 301/5/2
f 302/5/4 304/5/4 306/5/4
f 308/5/1 309/5/1 307/5/1
f 310/5/6 313/5/6 309/5/6
f 314/5/3 311/5/3 313/5/3
f 312/5/5 307/5/5 311/5/5
f 313/5/2 307/5/2 309/5/2
f 310/5/4 312/5/4 314/5/4
f 316/5/1 317/5/1 315/5/1
f 318/5/6 321/5/6 317/5/6
f 322/5/3 319/5/3 321/5/3
f 320/5/5 315/5/5 319/5/5
f 321/5/2 315/5/2 317/5/2
f 318/5/4 320/5/4 322/5/4
f 324/5/1 325/5/1 323/5/1
f 326/5/6 329/5/6 325/5/6
f 330/5/3 327/5/3 329/5/3
f 328/5/5 323/5/5 327/5/5
f 329/5/2 323/5/2 325/5/2
f 326/5/4 328/5/4 330/5/4
f 332/5/1 333/5/1 331/5/1
f 334/5/6 337/5/6 333/5/6
f 338/5/3 335/5/3 337/5/3
f 336/5/5 331/5/5 335/5/5
f 337/5/2 331/5/2 333/5/2
f 334/5/4 336/5/4 338/5/4
f 340/5/1 341/5/1 339/5/1
f 342/5/6 345/5/6 341/5/6
f 346/5/3 343/5/3 345/5/3
f 344/5/5 339/5/5 343/5/5
f 345/5/2 339/5/2 341/5/2
f 342/5/4 344/5/4 346/5/4
f 352/5/3 349/5/3 351/5/3
f 350/5/5 347/5/5 349/5/5
f 351/5/26 347/5/26 348/5/26
f 348/5/27 350/5/27 352/5/27
f 354/5/1 355/5/1 353/5/1
f 356/5/6 359/5/6 355/5/6
f 360/5/3 357/5/3 359/5/3
f 358/5/5 353/5/5 357/5/5
f 359/5/2 353/5/2 355/5/2
f 356/5/4 358/5/4 360/5/4
f 362/5/1 363/5/1 361/5/1
f 364/5/6 367/5/6 363/5/6
f 368/5/3 365/5/3 367/5/3
f 366/5/5 361/5/5 365/5/5
f 367/5/2 361/5/2 363/5/2
f 364/5/4 366/5/4 368/5/4
f 370/5/1 371/5/1 369/5/1
f 372/5/6 375/5/6 371/5/6
f 376/5/3 373/5/3 375/5/3
f 374/5/5 369/5/5 373/5/5
f 375/5/2 369/5/2 371/5/2
f 372/5/4 374/5/4 376/5/4
f 378/5/1 379/5/1 377/5/1
f 380/5/6 383/5/6 379/5/6
f 384/5/3 381/5/3 383/5/3
f 382/5/5 377/5/5 381/5/5
f 383/5/2 377/5/2 379/5/2
f 380/5/4 382/5/4 384/5/4
f 388/5/28 385/5/28 386/5/28
f 386/5/29 387/5/29 388/5/29
f 392/5/28 389/5/28 390/5/28
f 390/5/29 391/5/29 392/5/29
f 394/5/1 395/5/1 393/5/1
f 396/5/6 399/5/6 395/5/6
f 400/5/3 397/5/3 399/5/3
f 398/5/5 393/5/5 397/5/5
f 399/5/2 393/5/2 395/5/2
f 396/5/4 398/5/4 400/5/4
f 402/5/1 403/5/1 401/5/1
f 404/5/6 407/5/6 403/5/6
f 408/5/3 405/5/3 407/5/3
f 406/5/5 401/5/5 405/5/5
f 407/5/2 401/5/2 403/5/2
f 404/5/4 406/5/4 408/5/4
f 410/5/1 411/5/1 409/5/1
f 412/5/6 415/5/6 411/5/6
f 416/5/3 413/5/3 415/5/3
f 414/5/5 409/5/5 413/5/5
f 415/5/2 409/5/2 411/5/2
f 412/5/4 414/5/4 416/5/4
f 418/5/1 419/5/1 417/5/1
f 420/5/6 423/5/6 419/5/6
f 424/5/3 421/5/3 423/5/3
f 422/5/5 417/5/5 421/5/5
f 423/5/2 417/5/2 419/5/2
f 420/5/4 422/5/4 424/5/4
f 426/5/20 427/5/20 425/5/20
f 430/5/21 428/5/21 429/5/21
f 429/5/30 425/5/30 427/5/30
f 430/5/31 426/5/31 428/5/31
f 432/5/1 433/5/1 431/5/1
f 434/5/6 437/5/6 433/5/6
f 438/5/3 435/5/3 437/5/3
f 436/5/5 431/5/5 435/5/5
f 437/5/2 431/5/2 433/5/2
f 434/5/4 436/5/4 438/5/4
f 440/5/1 441/5/1 439/5/1
f 442/5/6 445/5/6 441/5/6
f 446/5/3 443/5/3 445/5/3
f 444/5/5 439/5/5 443/5/5
f 445/5/2 439/5/2 441/5/2
f 442/5/4 444/5/4 446/5/4
f 448/5/1 449/5/1 447/5/1
f 450/5/6 453/5/6 449/5/6
f 454/5/3 451/5/3 453/5/3
f 452/5/5 447/5/5 451/5/5
f 453/5/2 447/5/2 449/5/2
f 450/5/4 452/5/4 454/5/4
f 456/5/1 457/5/1 455/5/1
f 458/5/6 461/5/6 457/5/6
f 462/5/3 459/5/3 461/5/3
f 460/5/5 455/5/5 459/5/5
f 461/5/2 455/5/2 457/5/2
f 458/5/4 460/5/4 462/5/4
f 464/5/1 465/5/1 463/5/1
f 466/5/6 469/5/6 465/5/6
f 470/5/3 467/5/3 469/5/3
f 468/5/5 463/5/5 467/5/5
f 469/5/2 463/5/2 465/5/2
f 466/5/4 468/5/4 470/5/4
f 472/5/1 473/5/1 471/5/1
f 474/5/6 477/5/6 473/5/6
f 478/5/3 475/5/3 477/5/3
f 476/5/5 471/5/5 475/5/5
f 477/5/2 471/5/2 473/5/2
f 474/5/4 476/5/4 478/5/4
f 480/5/1 481/5/1 479/5/1
f 482/5/6 485/5/6 481/5/6
f 486/5/3 483/5/3 485/5/3
f 484/5/5 479/5/5 483/5/5
f 485/5/2 479/5/2 481/5/2
f 482/5/4 484/5/4 486/5/4
f 490/5/24 487/5/24 488/5/24
f 488/5/25 489/5/25 490/5/25
f 492/5/1 493/5/1 491/5/1
f 494/5/6 497/5/6 493/5/6
f 498/5/3 495/5/3 497/5/3
f 496/5/5 491/5/5 495/5/5
f 497/5/2 491/5/2 493/5/2
f 494/5/4 496/5/4 498/5/4
f 500/5/1 501/5/1 499/5/1
f 502/5/6 505/5/6 501/5/6
f 506/5/3 503/5/3 505/5/3
f 504/5/5 499/5/5 503/5/5
f 505/5/2 499/5/2 501/5/2
f 502/5/4 504/5/4 506/5/4
f 508/5/1 509/5/1 507/5/1
f 510/5/6 513/5/6 509/5/6
f 514/5/3 511/5/3 513/5/3
f 512/5/5 507/5/5 511/5/5
f 513/5/2 507/5/2 509/5/2
f 510/5/4 512/5/4 514/5/4
f 516/5/1 517/5/1 515/5/1
f 518/5/6 521/5/6 517/5/6
f 522/5/3 519/5/3 521/5/3
f 520/5/5 515/5/5 519/5/5
f 521/5/2 515/5/2 517/5/2
f 518/5/4 520/5/4 522/5/4
f 524/5/1 525/5/1 523/5/1
f 526/5/6 529/5/6 525/5/6
f 530/5/3 527/5/3 529/5/3
f 528/5/5 523/5/5 527/5/5
f 529/5/2 523/5/2 525/5/2
f 526/5/4 528/5/4 530/5/4
f 532/5/1 533/5/1 531/5/1
f 534/5/6 537/5/6 533/5/6
f 538/5/3 535/5/3 537/5/3
f 536/5/5 531/5/5 535/5/5
f 537/5/2 531/5/2 533/5/2
f 534/5/4 536/5/4 538/5/4
f 540/5/1 541/5/1 539/5/1
f 542/5/6 545/5/6 541/5/6
f 546/5/3 543/5/3 545/5/3
f 544/5/5 539/5/5 543/5/5
f 545/5/2 539/5/2 541/5/2
f 542/5/4 544/5/4 546/5/4
f 549/5/11 552/5/11 548/5/11
f 551/5/12 547/5/12 550/5/12
f 548/5/13 550/5/13 547/5/13
f 549/5/14 551/5/14 552/5/14
f 554/5/1 555/5/1 553/5/1
f 556/5/6 559/5/6 555/5/6
f 560/5/3 557/5/3 559/5/3
f 558/5/5 553/5/5 557/5/5
f 559/5/2 553/5/2 555/5/2
f 556/5/4 558/5/4 560/5/4
f 562/5/1 563/5/1 561/5/1
f 564/5/6 567/5/6 563/5/6
f 568/5/3 565/5/3 567/5/3
f 566/5/5 561/5/5 565/5/5
f 567/5/2 561/5/2 563/5/2
f 564/5/4 566/5/4 568/5/4
f 570/5/1 571/5/1 569/5/1
f 572/5/6 575/5/6 571/5/6
f 576/5/3 573/5/3 575/5/3
f 574/5/5 569/5/5 573/5/5
f 575/5/2 569/5/2 571/5/2
f 572/5/4 574/5/4 576/5/4
f 578/5/1 579/5/1 577/5/1
f 580/5/6 583/5/6 579/5/6
f 584/5/3 581/5/3 583/5/3
f 582/5/5 577/5/5 581/5/5
f 583/5/2 577/5/2 579/5/2
f 580/5/4 582/5/4 584/5/4
f 586/5/1 587/5/1 585/5/1
f 588/5/6 591/5/6 587/5/6
f 592/5/3 589/5/3 591/5/3
f 590/5/5 585/5/5 589/5/5
f 591/5/2 585/5/2 587/5/2
f 588/5/4 590/5/4 592/5/4
f 2/1/1 4/1/1 3/1/1
f 4/2/2 8/2/2 7/2/2
f 8/1/3 6/1/3 5/1/3
f 6/3/4 2/3/4 1/3/4
f 7/2/5 5/2/5 1/2/5
f 4/4/6 2/4/6 6/4/6
f 10/5/1 12/5/1 11/5/1
f 12/5/6 16/5/6 15/5/6
f 16/5/3 14/5/3 13/5/3
f 14/5/5 10/5/5 9/5/5
f 15/5/2 13/5/2 9/5/2
f 12/5/4 10/5/4 14/5/4
f 19/5/18 22/5/18 21/5/18
f 20/5/19 18/5/19 17/5/19
f 21/5/32 20/5/32 17/5/32
f 22/5/33 19/5/33 18/5/33
f 23/5/20 25/5/20 24/5/20
f 28/5/21 27/5/21 26/5/21
f 24/5/34 28/5/34 26/5/34
f 25/5/35 23/5/35 27/5/35
f 30/5/1 32/5/1 31/5/1
f 32/5/6 36/5/6 35/5/6
f 36/5/3 34/5/3 33/5/3
f 34/5/5 30/5/5 29/5/5
f 35/5/2 33/5/2 29/5/2
f 32/5/4 30/5/4 34/5/4
f 38/5/1 40/5/1 39/5/1
f 41/5/5 38/5/5 37/5/5
f 42/5/36 41/5/36 37/5/36
f 40/5/37 38/5/37 41/5/37
f 43/5/1 45/5/1 44/5/1
f 47/5/17 46/5/17 43/5/17
f 45/5/38 43/5/38 46/5/38
f 49/5/1 51/5/1 50/5/1
f 51/5/6 55/5/6 54/5/6
f 55/5/3 53/5/3 52/5/3
f 53/5/5 49/5/5 48/5/5
f 54/5/2 52/5/2 48/5/2
f 51/5/4 49/5/4 53/5/4
f 57/5/1 59/5/1 58/5/1
f 59/5/6 63/5/6 62/5/6
f 63/5/3 61/5/3 60/5/3
f 61/5/5 57/5/5 56/5/5
f 62/5/2 60/5/2 56/5/2
f 59/5/4 57/5/4 61/5/4
f 65/5/7 67/5/7 66/5/7
f 67/5/18 71/5/18 70/5/18
f 71/5/8 69/5/8 68/5/8
f 69/5/19 65/5/19 64/5/19
f 70/5/2 68/5/2 64/5/2
f 67/5/4 65/5/4 69/5/4
f 73/5/1 75/5/1 74/5/1
f 75/5/6 79/5/6 78/5/6
f 79/5/3 77/5/3 76/5/3
f 77/5/5 73/5/5 72/5/5
f 78/5/2 76/5/2 72/5/2
f 75/5/4 73/5/4 77/5/4
f 81/5/1 83/5/1 82/5/1
f 83/5/6 87/5/6 86/5/6
f 87/5/3 85/5/3 84/5/3
f 85/5/5 81/5/5 80/5/5
f 86/5/2 84/5/2 80/5/2
f 83/5/4 81/5/4 85/5/4
f 89/5/1 91/5/1 90/5/1
f 91/5/6 95/5/6 94/5/6
f 95/5/3 93/5/3 92/5/3
f 93/5/5 89/5/5 88/5/5
f 94/5/2 92/5/2 88/5/2
f 91/5/4 89/5/4 93/5/4
f 97/5/1 99/5/1 98/5/1
f 99/5/6 103/5/6 102/5/6
f 103/5/3 101/5/3 100/5/3
f 101/5/5 97/5/5 96/5/5
f 102/5/2 100/5/2 96/5/2
f 99/5/4 97/5/4 101/5/4
f 105/5/1 107/5/1 106/5/1
f 107/5/6 111/5/6 110/5/6
f 111/5/3 109/5/3 108/5/3
f 109/5/5 105/5/5 104/5/5
f 110/5/2 108/5/2 104/5/2
f 107/5/4 105/5/4 109/5/4
f 113/5/1 115/5/1 114/5/1
f 115/5/6 119/5/6 118/5/6
f 119/5/3 117/5/3 116/5/3
f 117/5/5 113/5/5 112/5/5
f 118/5/2 116/5/2 112/5/2
f 115/5/4 113/5/4 117/5/4
f 121/5/1 123/5/1 122/5/1
f 123/5/6 127/5/6 126/5/6
f 127/5/3 125/5/3 124/5/3
f 125/5/5 121/5/5 120/5/5
f 126/5/2 124/5/2 120/5/2
f 123/5/4 121/5/4 125/5/4
f 129/5/1 131/5/1 130/5/1
f 131/5/6 135/5/6 134/5/6
f 135/5/3 133/5/3 132/5/3
f 133/5/5 129/5/5 128/5/5
f 134/5/2 132/5/2 128/5/2
f 131/5/4 129/5/4 133/5/4
f 137/5/20 139/5/20 138/5/20
f 139/5/11 143/5/11 142/5/11
f 143/5/21 141/5/21 140/5/21
f 141/5/12 137/5/12 136/5/12
f 142/5/2 140/5/2 136/5/2
f 139/5/4 137/5/4 141/5/4
f 145/5/1 147/5/1 146/5/1
f 147/5/6 151/5/6 150/5/6
f 151/5/3 149/5/3 148/5/3
f 149/5/5 145/5/5 144/5/5
f 150/5/2 148/5/2 144/5/2
f 147/5/4 145/5/4 149/5/4
f 153/5/1 155/5/1 154/5/1
f 158/5/3 157/5/3 156/5/3
f 157/5/5 153/5/5 152/5/5
f 158/5/39 156/5/39 152/5/39
f 155/5/4 153/5/4 157/5/4
f 160/5/1 162/5/1 161/5/1
f 162/5/6 166/5/6 165/5/6
f 166/5/3 164/5/3 163/5/3
f 164/5/5 160/5/5 159/5/5
f 165/5/2 163/5/2 159/5/2
f 162/5/4 160/5/4 164/5/4
f 170/5/17 169/5/17 167/5/17
f 168/5/40 167/5/40 169/5/40
f 172/5/1 174/5/1 173/5/1
f 174/5/6 178/5/6 177/5/6
f 178/5/3 176/5/3 175/5/3
f 176/5/5 172/5/5 171/5/5
f 177/5/2 175/5/2 171/5/2
f 174/5/4 172/5/4 176/5/4
f 180/5/1 182/5/1 181/5/1
f 182/5/6 186/5/6 185/5/6
f 186/5/3 184/5/3 183/5/3
f 184/5/5 180/5/5 179/5/5
f 185/5/2 183/5/2 179/5/2
f 182/5/4 180/5/4 184/5/4
f 188/5/1 190/5/1 189/5/1
f 190/5/6 194/5/6 193/5/6
f 194/5/3 192/5/3 191/5/3
f 192/5/5 188/5/5 187/5/5
f 193/5/2 191/5/2 187/5/2
f 190/5/4 188/5/4 192/5/4
f 196/5/7 198/5/7 197/5/7
f 198/5/18 202/5/18 201/5/18
f 202/5/8 200/5/8 199/5/8
f 200/5/19 196/5/19 195/5/19
f 201/5/2 199/5/2 195/5/2
f 198/5/4 196/5/4 200/5/4
f 204/5/1 206/5/1 205/5/1
f 206/5/6 210/5/6 209/5/6
f 210/5/3 208/5/3 207/5/3
f 208/5/5 204/5/5 203/5/5
f 209/5/2 207/5/2 203/5/2
f 206/5/4 204/5/4 208/5/4
f 212/5/1 214/5/1 213/5/1
f 214/5/6 218/5/6 217/5/6
f 218/5/3 216/5/3 215/5/3
f 216/5/5 212/5/5 211/5/5
f 217/5/2 215/5/2 211/5/2
f 214/5/4 212/5/4 216/5/4
f 220/5/1 222/5/1 221/5/1
f 222/5/6 226/5/6 225/5/6
f 226/5/3 224/5/3 223/5/3
f 224/5/5 220/5/5 219/5/5
f 225/5/2 223/5/2 219/5/2
f 222/5/4 220/5/4 224/5/4
f 228/5/1 230/5/1 229/5/1
f 230/5/6 234/5/6 233/5/6
f 234/5/3 232/5/3 231/5/3
f 232/5/5 228/5/5 227/5/5
f 233/5/2 231/5/2 227/5/2
f 230/5/4 228/5/4 232/5/4
f 236/5/1 238/5/1 237/5/1
f 238/5/6 242/5/6 241/5/6
f 242/5/3 240/5/3 239/5/3
f 240/5/5 236/5/5 235/5/5
f 241/5/2 239/5/2 235/5/2
f 238/5/4 236/5/4 240/5/4
f 244/5/1 246/5/1 245/5/1
f 246/5/6 250/5/6 249/5/6
f 250/5/3 248/5/3 247/5/3
f 248/5/5 244/5/5 243/5/5
f 249/5/2 247/5/2 243/5/2
f 246/5/4 244/5/4 248/5/4
f 252/5/1 254/5/1 253/5/1
f 254/5/6 258/5/6 257/5/6
f 258/5/3 256/5/3 255/5/3
f 256/5/5 252/5/5 251/5/5
f 257/5/2 255/5/2 251/5/2
f 254/5/4 252/5/4 256/5/4
f 260/5/1 262/5/1 261/5/1
f 262/5/6 266/5/6 265/5/6
f 266/5/3 264/5/3 263/5/3
f 264/5/5 260/5/5 259/5/5
f 265/5/2 263/5/2 259/5/2
f 262/5/4 260/5/4 264/5/4
f 268/5/1 270/5/1 269/5/1
f 270/5/6 274/5/6 273/5/6
f 274/5/3 272/5/3 271/5/3
f 272/5/5 268/5/5 267/5/5
f 273/5/2 271/5/2 267/5/2
f 270/5/4 268/5/4 272/5/4
f 276/5/1 278/5/1 277/5/1
f 278/5/6 282/5/6 281/5/6
f 282/5/3 280/5/3 279/5/3
f 280/5/5 276/5/5 275/5/5
f 281/5/2 279/5/2 275/5/2
f 278/5/4 276/5/4 280/5/4
f 284/5/1 286/5/1 285/5/1
f 286/5/6 290/5/6 289/5/6
f 290/5/3 288/5/3 287/5/3
f 288/5/5 284/5/5 283/5/5
f 289/5/2 287/5/2 283/5/2
f 286/5/4 284/5/4 288/5/4
f 292/5/1 294/5/1 293/5/1
f 294/5/6 298/5/6 297/5/6
f 298/5/3 296/5/3 295/5/3
f 296/5/5 292/5/5 291/5/5
f 297/5/2 295/5/2 291/5/2
f 294/5/4 292/5/4 296/5/4
f 300/5/1 302/5/1 301/5/1
f 302/5/6 306/5/6 305/5/6
f 306/5/3 304/5/3 303/5/3
f 304/5/5 300/5/5 299/5/5
f 305/5/2 303/5/2 299/5/2
f 302/5/4 300/5/4 304/5/4
f 308/5/1 310/5/1 309/5/1
f 310/5/6 314/5/6 313/5/6
f 314/5/3 312/5/3 311/5/3
f 312/5/5 308/5/5 307/5/5
f 313/5/2 311/5/2 307/5/2
f 310/5/4 308/5/4 312/5/4
f 316/5/1 318/5/1 317/5/1
f 318/5/6 322/5/6 321/5/6
f 322/5/3 320/5/3 319/5/3
f 320/5/5 316/5/5 315/5/5
f 321/5/2 319/5/2 315/5/2
f 318/5/4 316/5/4 320/5/4
f 324/5/1 326/5/1 325/5/1
f 326/5/6 330/5/6 329/5/6
f 330/5/3 328/5/3 327/5/3
f 328/5/5 324/5/5 323/5/5
f 329/5/2 327/5/2 323/5/2
f 326/5/4 324/5/4 328/5/4
f 332/5/1 334/5/1 333/5/1
f 334/5/6 338/5/6 337/5/6
f 338/5/3 336/5/3 335/5/3
f 336/5/5 332/5/5 331/5/5
f 337/5/2 335/5/2 331/5/2
f 334/5/4 332/5/4 336/5/4
f 340/5/1 342/5/1 341/5/1
f 342/5/6 346/5/6 345/5/6
f 346/5/3 344/5/3 343/5/3
f 344/5/5 340/5/5 339/5/5
f 345/5/2 343/5/2 339/5/2
f 342/5/4 340/5/4 344/5/4
f 348/5/6 352/5/6 351/5/6
f 352/5/3 350/5/3 349/5/3
f 351/5/41 349/5/41 347/5/41
f 348/5/42 347/5/42 350/5/42
f 354/5/1 356/5/1 355/5/1
f 356/5/6 360/5/6 359/5/6
f 360/5/3 358/5/3 357/5/3
f 358/5/5 354/5/5 353/5/5
f 359/5/2 357/5/2 353/5/2
f 356/5/4 354/5/4 358/5/4
f 362/5/1 364/5/1 363/5/1
f 364/5/6 368/5/6 367/5/6
f 368/5/3 366/5/3 365/5/3
f 366/5/5 362/5/5 361/5/5
f 367/5/2 365/5/2 361/5/2
f 364/5/4 362/5/4 366/5/4
f 370/5/1 372/5/1 371/5/1
f 372/5/6 376/5/6 375/5/6
f 376/5/3 374/5/3 373/5/3
f 374/5/5 370/5/5 369/5/5
f 375/5/2 373/5/2 369/5/2
f 372/5/4 370/5/4 374/5/4
f 378/5/1 380/5/1 379/5/1
f 380/5/6 384/5/6 383/5/6
f 384/5/3 382/5/3 381/5/3
f 382/5/5 378/5/5 377/5/5
f 383/5/2 381/5/2 377/5/2
f 380/5/4 378/5/4 382/5/4
f 388/5/43 387/5/43 385/5/43
f 386/5/44 385/5/44 387/5/44
f 392/5/43 391/5/43 389/5/43
f 390/5/44 389/5/44 391/5/44
f 394/5/1 396/5/1 395/5/1
f 396/5/6 400/5/6 399/5/6
f 400/5/3 398/5/3 397/5/3
f 398/5/5 394/5/5 393/5/5
f 399/5/2 397/5/2 393/5/2
f 396/5/4 394/5/4 398/5/4
f 402/5/1 404/5/1 403/5/1
f 404/5/6 408/5/6 407/5/6
f 408/5/3 406/5/3 405/5/3
f 406/5/5 402/5/5 401/5/5
f 407/5/2 405/5/2 401/5/2
f 404/5/4 402/5/4 406/5/4
f 410/5/1 412/5/1 411/5/1
f 412/5/6 416/5/6 415/5/6
f 416/5/3 414/5/3 413/5/3
f 414/5/5 410/5/5 409/5/5
f 415/5/2 413/5/2 409/5/2
f 412/5/4 410/5/4 414/5/4
f 418/5/1 420/5/1 419/5/1
f 420/5/6 424/5/6 423/5/6
f 424/5/3 422/5/3 421/5/3
f 422/5/5 418/5/5 417/5/5
f 423/5/2 421/5/2 417/5/2
f 420/5/4 418/5/4 422/5/4
f 427/5/11 430/5/11 429/5/11
f 428/5/12 426/5/12 425/5/12
f 429/5/45 428/5/45 425/5/45
f 430/5/46 427/5/46 426/5/46
f 432/5/1 434/5/1 433/5/1
f 434/5/6 438/5/6 437/5/6
f 438/5/3 436/5/3 435/5/3
f 436/5/5 432/5/5 431/5/5
f 437/5/2 435/5/2 431/5/2
f 434/5/4 432/5/4 436/5/4
f 440/5/1 442/5/1 441/5/1
f 442/5/6 446/5/6 445/5/6
f 446/5/3 444/5/3 443/5/3
f 444/5/5 440/5/5 439/5/5
f 445/5/2 443/5/2 439/5/2
f 442/5/4 440/5/4 444/5/4
f 448/5/1 450/5/1 449/5/1
f 450/5/6 454/5/6 453/5/6
f 454/5/3 452/5/3 451/5/3
f 452/5/5 448/5/5 447/5/5
f 453/5/2 451/5/2 447/5/2
f 450/5/4 448/5/4 452/5/4
f 456/5/1 458/5/1 457/5/1
f 458/5/6 462/5/6 461/5/6
f 462/5/3 460/5/3 459/5/3
f 460/5/5 456/5/5 455/5/5
f 461/5/2 459/5/2 455/5/2
f 458/5/4 456/5/4 460/5/4
f 464/5/1 466/5/1 465/5/1
f 466/5/6 470/5/6 469/5/6
f 470/5/3 468/5/3 467/5/3
f 468/5/5 464/5/5 463/5/5
f 469/5/2 467/5/2 463/5/2
f 466/5/4 464/5/4 468/5/4
f 472/5/1 474/5/1 473/5/1
f 474/5/6 478/5/6 477/5/6
f 478/5/3 476/5/3 475/5/3
f 476/5/5 472/5/5 471/5/5
f 477/5/2 475/5/2 471/5/2
f 474/5/4 472/5/4 476/5/4
f 480/5/1 482/5/1 481/5/1
f 482/5/6 486/5/6 485/5/6
f 486/5/3 484/5/3 483/5/3
f 484/5/5 480/5/5 479/5/5
f 485/5/2 483/5/2 479/5/2
f 482/5/4 480/5/4 484/5/4
f 490/5/17 489/5/17 487/5/17
f 488/5/40 487/5/40 489/5/40
f 492/5/1 494/5/1 493/5/1
f 494/5/6 498/5/6 497/5/6
f 498/5/3 496/5/3 495/5/3
f 496/5/5 492/5/5 491/5/5
f 497/5/2 495/5/2 491/5/2
f 494/5/4 492/5/4 496/5/4
f 500/5/1 502/5/1 501/5/1
f 502/5/6 506/5/6 505/5/6
f 506/5/3 504/5/3 503/5/3
f 504/5/5 500/5/5 499/5/5
f 505/5/2 503/5/2 499/5/2
f 502/5/4 500/5/4 504/5/4
f 508/5/1 510/5/1 509/5/1
f 510/5/6 514/5/6 513/5/6
f 514/5/3 512/5/3 511/5/3
f 512/5/5 508/5/5 507/5/5
f 513/5/2 511/5/2 507/5/2
f 510/5/4 508/5/4 512/5/4
f 516/5/1 518/5/1 517/5/1
f 518/5/6 522/5/6 521/5/6
f 522/5/3 520/5/3 519/5/3
f 520/5/5 516/5/5 515/5/5
f 521/5/2 519/5/2 515/5/2
f 518/5/4 516/5/4 520/5/4
f 524/5/1 526/5/1 525/5/1
f 526/5/6 530/5/6 529/5/6
f 530/5/3 528/5/3 527/5/3
f 528/5/5 524/5/5 523/5/5
f 529/5/2 527/5/2 523/5/2
f 526/5/4 524/5/4 528/5/4
f 532/5/1 534/5/1 533/5/1
f 534/5/6 538/5/6 537/5/6
f 538/5/3 536/5/3 535/5/3
f 536/5/5 532/5/5 531/5/5
f 537/5/2 535/5/2 531/5/2
f 534/5/4 532/5/4 536/5/4
f 540/5/1 542/5/1 541/5/1
f 542/5/6 546/5/6 545/5/6
f 546/5/3 544/5/3 543/5/3
f 544/5/5 540/5/5 539/5/5
f 545/5/2 543/5/2 539/5/2
f 542/5/4 540/5/4 544/5/4
f 547/5/20 549/5/20 548/5/20
f 552/5/21 551/5/21 550/5/21
f 548/5/34 552/5/34 550/5/34
f 549/5/35 547/5/35 551/5/35
f 554/5/1 556/5/1 555/5/1
f 556/5/6 560/5/6 559/5/6
f 560/5/3 558/5/3 557/5/3
f 558/5/5 554/5/5 553/5/5
f 559/5/2 557/5/2 553/5/2
f 556/5/4 554/5/4 558/5/4
f 562/5/1 564/5/1 563/5/1
f 564/5/6 568/5/6 567/5/6
f 568/5/3 566/5/3 565/5/3
f 566/5/5 562/5/5 561/5/5
f 567/5/2 565/5/2 561/5/2
f 564/5/4 562/5/4 566/5/4
f 570/5/1 572/5/1 571/5/1
f 572/5/6 576/5/6 575/5/6
f 576/5/3 574/5/3 573/5/3
f 574/5/5 570/5/5 569/5/5
f 575/5/2 573/5/2 569/5/2
f 572/5/4 570/5/4 574/5/4
f 578/5/1 580/5/1 579/5/1
f 580/5/6 584/5/6 583/5/6
f 584/5/3 582/5/3 581/5/3
f 582/5/5 578/5/5 577/5/5
f 583/5/2 581/5/2 577/5/2
f 580/5/4 578/5/4 582/5/4
f 586/5/1 588/5/1 587/5/1
f 588/5/6 592/5/6 591/5/6
f 592/5/3 590/5/3 589/5/3
f 590/5/5 586/5/5 585/5/5
f 591/5/2 589/5/2 585/5/2
f 588/5/4 586/5/4 590/5/4
