# Blender 5.2.2 LTS
# www.blender.org
mtllib ruins_hk_pillar_a.mtl
o piece
v -1.000000 -2.500000 1.000000
v -0.743162 -2.500000 1.000000
v -1.000000 2.500000 1.000000
v -0.743162 2.500000 1.000000
v -1.000000 2.500000 0.743153
v -0.743162 2.500000 0.743153
v -1.000000 -2.500000 0.743154
v -0.743162 -2.500000 0.743154
v -1.000000 2.500000 -0.743154
v -0.743162 2.500000 -0.743154
v -1.000000 2.500000 -1.000000
v -0.743162 2.500000 -1.000000
v -1.000000 -2.500000 -0.743153
v -0.743162 -2.500000 -0.743153
v -0.743162 -2.500000 -1.000000
v -1.000000 -2.500000 -1.000000
v 0.743162 -2.500000 -0.743153
v 1.000000 -2.500000 -0.743153
v 0.743162 2.500000 -0.743154
v 1.000000 2.500000 -0.743154
v 0.743162 2.500000 -1.000000
v 1.000000 2.500000 -1.000000
v 0.743162 -2.500000 -1.000000
v 1.000000 -2.500000 -1.000000
v 0.743162 -2.500000 1.000000
v 1.000000 -2.500000 1.000000
v 0.743162 2.500000 1.000000
v 1.000000 2.500000 1.000000
v 0.743162 2.500000 0.743153
v 1.000000 2.500000 0.743153
v 0.743162 -2.500000 0.743154
v 1.000000 -2.500000 0.743154
v 0.743162 -0.789530 1.000000
v 1.000000 -0.789530 1.000000
v 1.000000 -0.789530 0.743153
v 0.743162 -0.789530 0.743153
v 0.743152 0.800166 0.743153
v 1.000000 0.800166 0.743153
v 1.000000 0.800166 1.000000
v 0.743152 0.800166 1.000000
v 0.834090 -0.178338 0.968964
v 0.972452 -0.178338 0.968964
v 0.972452 -0.178338 0.726198
v 0.729686 -0.178338 0.726198
v 0.729686 -0.178338 0.879120
v 0.734233 0.151884 0.979439
v 0.734906 -0.415012 0.980981
v -0.902690 0.690053 0.779483
v 0.845780 0.690053 -0.825108
v -0.902690 0.806216 0.895865
v 0.845780 0.806216 -0.941490
v -0.902690 2.491324 -0.825108
v 0.845780 2.491324 0.779483
v -0.902690 2.375159 -0.941490
v 0.845780 2.375159 0.895865
v -0.845800 0.876122 0.826918
v 0.902681 0.876122 -0.872543
v 0.902681 2.421425 0.710541
v -0.845800 2.421425 -0.756161
v -0.845800 2.305257 -0.872543
v 0.902681 2.305257 0.826923
v 0.902681 0.759957 -0.756161
v -0.845800 0.759957 0.710536
v -0.925076 2.321558 0.925067
v 0.925066 2.321558 0.925067
v -0.925076 2.486487 0.925067
v 0.925066 2.486487 0.925067
v -0.925076 2.486487 -0.925067
v 0.925066 2.486487 -0.925067
v -0.925076 2.321558 -0.925067
v 0.925066 2.321558 -0.925067
v -0.827190 2.486487 0.827177
v 0.827181 2.486487 0.827177
v 0.827181 2.486487 -0.827182
v -0.827190 2.486487 -0.827182
v -0.827190 2.321558 -0.827182
v 0.827181 2.321558 -0.827182
v 0.827181 2.321558 0.827177
v -0.827190 2.321558 0.827177
v 0.831367 0.690053 -0.838794
v -0.773227 0.690053 0.909678
v 0.947744 0.806216 -0.838794
v -0.889614 0.806216 0.909678
v -0.773227 2.491324 -0.838794
v 0.831367 2.491324 0.909678
v -0.889614 2.375159 -0.838794
v 0.947744 2.375159 0.909678
v 0.878802 0.876122 -0.895689
v -0.820662 0.876122 0.852777
v 0.762425 2.421425 0.852777
v -0.704285 2.421425 -0.895689
v -0.820672 2.305257 -0.895689
v 0.878802 2.305257 0.852777
v -0.704285 0.759957 0.852777
v 0.762425 0.759957 -0.895689
v -0.902690 -0.891019 0.779483
v 0.845780 -0.891019 -0.825108
v -0.902690 -0.774851 0.895865
v 0.845780 -0.774852 -0.941489
v -0.902690 0.848788 -0.825108
v 0.845780 0.848788 0.779483
v -0.902690 0.732620 -0.941490
v 0.845780 0.732620 0.895865
v -0.845800 -0.704952 0.826918
v 0.902681 -0.704952 -0.872543
v 0.902681 0.778884 0.710541
v -0.845800 0.778884 -0.756161
v -0.845800 0.662719 -0.872543
v 0.902681 0.662719 0.826923
v 0.902681 -0.821115 -0.756161
v -0.845800 -0.821115 0.710536
v -0.925076 0.662144 0.925066
v 0.925066 0.662144 0.925066
v -0.925076 0.827074 0.925066
v 0.925066 0.827074 0.925066
v -0.925076 0.827074 -0.925066
v 0.925066 0.827074 -0.925066
v -0.925076 0.662144 -0.925066
v 0.925066 0.662144 -0.925066
v -0.827190 0.827074 0.827176
v 0.827181 0.827074 0.827176
v 0.827181 0.827074 -0.827182
v -0.827190 0.827074 -0.827182
v -0.827190 0.662144 -0.827182
v 0.827181 0.662144 -0.827182
v 0.827181 0.662144 0.827176
v -0.827190 0.662144 0.827176
v 0.831367 -0.891019 -0.838794
v -0.773227 -0.891019 0.909678
v 0.947744 -0.774852 -0.838794
v -0.889614 -0.774851 0.909678
v -0.773227 0.848788 -0.838794
v 0.831367 0.848788 0.909678
v -0.889614 0.732620 -0.838794
v 0.947744 0.732620 0.909678
v 0.878802 -0.704952 -0.895689
v -0.820662 -0.704952 0.852777
v 0.762425 0.778884 0.852777
v -0.704285 0.778884 -0.895689
v -0.820672 0.662719 -0.895689
v 0.878802 0.662719 0.852777
v -0.704285 -0.821115 0.852777
v 0.762425 -0.821115 -0.895689
v -0.902690 -2.472091 0.779483
v 0.845780 -2.472091 -0.825108
v -0.902690 -2.355926 0.895865
v 0.845780 -2.355926 -0.941489
v -0.902690 -0.732282 -0.825108
v 0.845780 -0.732282 0.779483
v -0.902690 -0.848447 -0.941489
v 0.845780 -0.848447 0.895865
v -0.845800 -2.286021 0.826918
v 0.902681 -2.286022 -0.872543
v 0.902681 -0.802186 0.710541
v -0.845800 -0.802186 -0.756161
v -0.845800 -0.918351 -0.872543
v 0.902681 -0.918351 0.826923
v 0.902681 -2.402187 -0.756161
v -0.845800 -2.402187 0.710537
v -0.925076 -0.918928 0.925066
v 0.925066 -0.918928 0.925066
v -0.925076 -0.754001 0.925066
v 0.925066 -0.754001 0.925066
v -0.925076 -0.754001 -0.925066
v 0.925066 -0.754001 -0.925066
v -0.925076 -0.918928 -0.925066
v 0.925066 -0.918928 -0.925066
v -0.827190 -0.754001 0.827177
v 0.827181 -0.754001 0.827177
v 0.827181 -0.754001 -0.827181
v -0.827190 -0.754001 -0.827181
v -0.827190 -0.918928 -0.827181
v 0.827181 -0.918928 -0.827181
v 0.827181 -0.918928 0.827177
v -0.827190 -0.918928 0.827177
v 0.831367 -2.472091 -0.838794
v -0.773227 -2.472091 0.909678
v 0.947744 -2.355926 -0.838794
v -0.889614 -2.355926 0.909678
v -0.773227 -0.732282 -0.838794
v 0.831367 -0.732281 0.909678
v -0.889614 -0.848447 -0.838794
v 0.947744 -0.848447 0.909678
v 0.878802 -2.286022 -0.895689
v -0.820662 -2.286021 0.852778
v 0.762425 -0.802186 0.852777
v -0.704285 -0.802186 -0.895689
v -0.820672 -0.918351 -0.895689
v 0.878802 -0.918351 0.852777
v -0.704285 -2.402187 0.852778
v 0.762425 -2.402187 -0.895689
vn -0.0000 -0.0000 1.0000
vn -0.0000 1.0000 -0.0000
vn -0.0000 -0.0000 -1.0000
vn 1.0000 -0.0000 -0.0000
vn -1.0000 -0.0000 -0.0000
vn -0.0000 -0.0317 0.9995
vn 0.9996 -0.0281 -0.0000
vn -0.0000 0.0173 -0.9998
vn -0.0000 0.0507 0.9987
vn 0.9990 0.0450 -0.0000
vn -0.0000 -0.0277 -0.9996
vn -0.9998 -0.0221 -0.0000
vn -0.6369 -0.2161 0.7401
vn -0.6227 0.2977 0.7236
vn -0.0301 0.7142 -0.6993
vn 0.0327 0.7152 0.6981
vn -0.0327 -0.7152 0.6981
vn 0.0301 -0.7142 -0.6993
vn -0.9999 0.0138 -0.0000
vn -0.0000 -1.0000 -0.0000
vn -0.6993 0.7142 0.0300
vn 0.6981 0.7152 -0.0327
vn 0.6981 -0.7152 0.0327
vn -0.6993 -0.7142 -0.0301
vn -0.0619 0.7260 -0.6849
vn 0.0620 0.7260 0.6849
vn -0.0676 -0.7279 0.6823
vn 0.0620 -0.7260 -0.6849
vn -0.6849 0.7260 0.0618
vn 0.6849 0.7260 -0.0620
vn 0.6823 -0.7279 0.0676
vn -0.6849 -0.7260 -0.0620
vn -0.0620 0.7260 -0.6849
vn 0.0676 0.7279 0.6823
vn 0.0676 -0.7279 -0.6823
vn -0.6849 0.7260 0.0619
vn 0.6849 -0.7260 0.0620
vn -0.9998 -0.0220 -0.0000
vn 0.0327 0.7152 -0.6981
vn -0.0301 0.7142 0.6993
vn 0.0301 -0.7142 0.6993
vn -0.0327 -0.7152 -0.6981
vn -0.6981 0.7152 -0.0327
vn 0.6993 0.7142 0.0301
vn 0.6993 -0.7142 -0.0301
vn -0.6981 -0.7152 0.0328
vn 0.0676 0.7279 -0.6823
vn -0.0675 0.7279 0.6823
vn 0.0620 -0.7260 0.6849
vn -0.0675 -0.7279 -0.6823
vn -0.6823 0.7279 -0.0676
vn 0.6823 0.7279 0.0675
vn 0.6849 -0.7260 -0.0620
vn -0.6823 -0.7279 0.0676
vn -0.0620 0.7260 0.6849
vn -0.0620 -0.7260 -0.6849
vn 0.6823 0.7279 0.0676
vn 0.6823 -0.7279 -0.0676
vt 0.875000 0.375000
s 0
usemtl ruins_hk_pillar_a
f 2/1/1 3/1/1 1/1/1
f 4/1/2 5/1/2 3/1/2
f 6/1/3 7/1/3 5/1/3
f 8/1/4 4/1/4 2/1/4
f 1/1/5 5/1/5 7/1/5
f 14/1/1 9/1/1 13/1/1
f 10/1/2 11/1/2 9/1/2
f 15/1/4 10/1/4 14/1/4
f 12/1/3 16/1/3 11/1/3
f 13/1/5 11/1/5 16/1/5
f 18/1/1 19/1/1 17/1/1
f 20/1/2 21/1/2 19/1/2
f 22/1/3 23/1/3 21/1/3
f 24/1/4 20/1/4 18/1/4
f 17/1/5 21/1/5 23/1/5
f 39/1/6 46/1/6 42/1/6
f 28/1/2 29/1/2 27/1/2
f 42/1/7 38/1/7 39/1/7
f 43/1/8 44/1/8 37/1/8
f 26/1/1 33/1/1 25/1/1
f 26/1/4 35/1/4 34/1/4
f 35/1/3 31/1/3 36/1/3
f 25/1/5 36/1/5 31/1/5
f 38/1/4 28/1/4 39/1/4
f 39/1/1 27/1/1 40/1/1
f 42/1/9 41/1/9 47/1/9
f 35/1/10 42/1/10 34/1/10
f 43/1/11 36/1/11 44/1/11
f 47/1/12 45/1/12 44/1/12
f 46/1/13 45/1/13 41/1/13
f 45/1/14 47/1/14 41/1/14
f 49/1/5 53/1/5 51/1/5
f 48/1/5 52/1/5 54/1/5
f 53/1/15 57/1/15 51/1/15
f 52/1/16 56/1/16 59/1/16
f 55/1/17 62/1/17 61/1/17
f 54/1/18 63/1/18 48/1/18
f 62/1/4 58/1/4 61/1/4
f 63/1/4 59/1/4 56/1/4
f 65/1/1 66/1/1 64/1/1
f 69/1/3 70/1/3 68/1/3
f 71/1/4 67/1/4 65/1/4
f 64/1/5 68/1/5 70/1/5
f 68/1/2 75/1/2 69/1/2
f 44/1/19 45/1/19 46/1/19
f 71/1/20 76/1/20 70/1/20
f 67/1/2 73/1/2 66/1/2
f 64/1/20 78/1/20 65/1/20
f 77/1/1 75/1/1 76/1/1
f 78/1/5 74/1/5 77/1/5
f 79/1/3 73/1/3 78/1/3
f 76/1/4 72/1/4 79/1/4
f 81/1/1 85/1/1 83/1/1
f 80/1/1 84/1/1 86/1/1
f 85/1/21 89/1/21 83/1/21
f 84/1/22 88/1/22 91/1/22
f 87/1/23 94/1/23 93/1/23
f 86/1/24 95/1/24 80/1/24
f 94/1/3 90/1/3 93/1/3
f 95/1/3 91/1/3 88/1/3
f 97/1/5 101/1/5 99/1/5
f 96/1/5 100/1/5 102/1/5
f 101/1/25 105/1/25 99/1/25
f 98/1/26 107/1/26 100/1/26
f 103/1/27 110/1/27 109/1/27
f 102/1/28 111/1/28 96/1/28
f 110/1/4 106/1/4 109/1/4
f 111/1/4 107/1/4 104/1/4
f 113/1/1 114/1/1 112/1/1
f 117/1/3 118/1/3 116/1/3
f 119/1/4 115/1/4 113/1/4
f 112/1/5 116/1/5 118/1/5
f 117/1/2 121/1/2 115/1/2
f 116/1/2 120/1/2 123/1/2
f 125/1/20 124/1/20 119/1/20
f 118/1/20 127/1/20 112/1/20
f 125/1/1 123/1/1 124/1/1
f 126/1/5 122/1/5 125/1/5
f 127/1/3 121/1/3 126/1/3
f 124/1/4 120/1/4 127/1/4
f 129/1/1 133/1/1 131/1/1
f 128/1/1 132/1/1 134/1/1
f 133/1/29 137/1/29 131/1/29
f 130/1/30 139/1/30 132/1/30
f 135/1/31 142/1/31 141/1/31
f 134/1/32 143/1/32 128/1/32
f 142/1/3 138/1/3 141/1/3
f 143/1/3 139/1/3 136/1/3
f 145/1/5 149/1/5 147/1/5
f 144/1/5 148/1/5 150/1/5
f 149/1/33 153/1/33 147/1/33
f 148/1/34 152/1/34 155/1/34
f 151/1/27 158/1/27 157/1/27
f 144/1/35 156/1/35 159/1/35
f 158/1/4 154/1/4 157/1/4
f 159/1/4 155/1/4 152/1/4
f 161/1/1 162/1/1 160/1/1
f 165/1/3 166/1/3 164/1/3
f 167/1/4 163/1/4 161/1/4
f 160/1/5 164/1/5 166/1/5
f 165/1/2 169/1/2 163/1/2
f 164/1/2 168/1/2 171/1/2
f 173/1/20 172/1/20 167/1/20
f 166/1/20 175/1/20 160/1/20
f 173/1/1 171/1/1 172/1/1
f 174/1/5 170/1/5 173/1/5
f 175/1/3 169/1/3 174/1/3
f 172/1/4 168/1/4 175/1/4
f 177/1/1 181/1/1 179/1/1
f 176/1/1 180/1/1 182/1/1
f 181/1/36 185/1/36 179/1/36
f 178/1/30 187/1/30 180/1/30
f 177/1/37 189/1/37 183/1/37
f 182/1/32 191/1/32 176/1/32
f 190/1/3 186/1/3 189/1/3
f 191/1/3 187/1/3 184/1/3
f 1/1/20 8/1/20 2/1/20
f 13/1/20 15/1/20 14/1/20
f 17/1/20 24/1/20 18/1/20
f 25/1/20 32/1/20 26/1/20
f 2/1/1 4/1/1 3/1/1
f 4/1/2 6/1/2 5/1/2
f 6/1/3 8/1/3 7/1/3
f 8/1/4 6/1/4 4/1/4
f 1/1/5 3/1/5 5/1/5
f 14/1/1 10/1/1 9/1/1
f 10/1/2 12/1/2 11/1/2
f 15/1/4 12/1/4 10/1/4
f 12/1/3 15/1/3 16/1/3
f 13/1/5 9/1/5 11/1/5
f 18/1/1 20/1/1 19/1/1
f 20/1/2 22/1/2 21/1/2
f 22/1/3 24/1/3 23/1/3
f 24/1/4 22/1/4 20/1/4
f 17/1/5 19/1/5 21/1/5
f 40/1/6 46/1/6 39/1/6
f 46/1/6 41/1/6 42/1/6
f 28/1/2 30/1/2 29/1/2
f 42/1/7 43/1/7 38/1/7
f 37/1/3 29/1/3 30/1/3
f 30/1/3 38/1/3 37/1/3
f 38/1/8 43/1/8 37/1/8
f 26/1/1 34/1/1 33/1/1
f 26/1/4 32/1/4 35/1/4
f 35/1/3 32/1/3 31/1/3
f 25/1/5 33/1/5 36/1/5
f 38/1/4 30/1/4 28/1/4
f 39/1/1 28/1/1 27/1/1
f 47/1/9 33/1/9 34/1/9
f 34/1/9 42/1/9 47/1/9
f 35/1/10 43/1/10 42/1/10
f 43/1/11 35/1/11 36/1/11
f 44/1/38 36/1/38 47/1/38
f 36/1/38 33/1/38 47/1/38
f 49/1/5 55/1/5 53/1/5
f 48/1/5 50/1/5 52/1/5
f 53/1/39 58/1/39 57/1/39
f 52/1/40 50/1/40 56/1/40
f 55/1/41 49/1/41 62/1/41
f 54/1/42 60/1/42 63/1/42
f 62/1/4 57/1/4 58/1/4
f 63/1/4 60/1/4 59/1/4
f 65/1/1 67/1/1 66/1/1
f 69/1/3 71/1/3 70/1/3
f 71/1/4 69/1/4 67/1/4
f 64/1/5 66/1/5 68/1/5
f 68/1/2 66/1/2 72/1/2
f 75/1/2 74/1/2 69/1/2
f 68/1/2 72/1/2 75/1/2
f 46/1/19 40/1/19 37/1/19
f 40/1/5 27/1/5 37/1/5
f 27/1/5 29/1/5 37/1/5
f 37/1/19 44/1/19 46/1/19
f 71/1/20 77/1/20 76/1/20
f 67/1/2 69/1/2 73/1/2
f 69/1/2 74/1/2 73/1/2
f 73/1/2 72/1/2 66/1/2
f 64/1/20 70/1/20 79/1/20
f 70/1/20 76/1/20 79/1/20
f 77/1/20 71/1/20 78/1/20
f 71/1/20 65/1/20 78/1/20
f 64/1/20 79/1/20 78/1/20
f 77/1/1 74/1/1 75/1/1
f 78/1/5 73/1/5 74/1/5
f 79/1/3 72/1/3 73/1/3
f 76/1/4 75/1/4 72/1/4
f 81/1/1 87/1/1 85/1/1
f 80/1/1 82/1/1 84/1/1
f 85/1/43 90/1/43 89/1/43
f 84/1/44 82/1/44 88/1/44
f 87/1/45 81/1/45 94/1/45
f 86/1/46 92/1/46 95/1/46
f 94/1/3 89/1/3 90/1/3
f 95/1/3 92/1/3 91/1/3
f 97/1/5 103/1/5 101/1/5
f 96/1/5 98/1/5 100/1/5
f 101/1/47 106/1/47 105/1/47
f 98/1/48 104/1/48 107/1/48
f 103/1/49 97/1/49 110/1/49
f 102/1/50 108/1/50 111/1/50
f 110/1/4 105/1/4 106/1/4
f 111/1/4 108/1/4 107/1/4
f 113/1/1 115/1/1 114/1/1
f 117/1/3 119/1/3 118/1/3
f 119/1/4 117/1/4 115/1/4
f 112/1/5 114/1/5 116/1/5
f 117/1/2 116/1/2 122/1/2
f 116/1/2 123/1/2 122/1/2
f 120/1/2 114/1/2 115/1/2
f 117/1/2 122/1/2 121/1/2
f 121/1/2 120/1/2 115/1/2
f 116/1/2 114/1/2 120/1/2
f 113/1/20 112/1/20 127/1/20
f 113/1/20 127/1/20 126/1/20
f 124/1/20 118/1/20 119/1/20
f 113/1/20 126/1/20 119/1/20
f 126/1/20 125/1/20 119/1/20
f 118/1/20 124/1/20 127/1/20
f 125/1/1 122/1/1 123/1/1
f 126/1/5 121/1/5 122/1/5
f 127/1/3 120/1/3 121/1/3
f 124/1/4 123/1/4 120/1/4
f 129/1/1 135/1/1 133/1/1
f 128/1/1 130/1/1 132/1/1
f 133/1/51 138/1/51 137/1/51
f 130/1/52 136/1/52 139/1/52
f 135/1/53 129/1/53 142/1/53
f 134/1/54 140/1/54 143/1/54
f 142/1/3 137/1/3 138/1/3
f 143/1/3 140/1/3 139/1/3
f 145/1/5 151/1/5 149/1/5
f 144/1/5 146/1/5 148/1/5
f 149/1/47 154/1/47 153/1/47
f 148/1/55 146/1/55 152/1/55
f 151/1/49 145/1/49 158/1/49
f 144/1/56 150/1/56 156/1/56
f 158/1/4 153/1/4 154/1/4
f 159/1/4 156/1/4 155/1/4
f 161/1/1 163/1/1 162/1/1
f 165/1/3 167/1/3 166/1/3
f 167/1/4 165/1/4 163/1/4
f 160/1/5 162/1/5 164/1/5
f 165/1/2 164/1/2 171/1/2
f 165/1/2 171/1/2 170/1/2
f 168/1/2 162/1/2 163/1/2
f 165/1/2 170/1/2 169/1/2
f 169/1/2 168/1/2 163/1/2
f 164/1/2 162/1/2 168/1/2
f 161/1/20 160/1/20 175/1/20
f 161/1/20 175/1/20 174/1/20
f 172/1/20 166/1/20 167/1/20
f 161/1/20 174/1/20 167/1/20
f 174/1/20 173/1/20 167/1/20
f 166/1/20 172/1/20 175/1/20
f 173/1/1 170/1/1 171/1/1
f 174/1/5 169/1/5 170/1/5
f 175/1/3 168/1/3 169/1/3
f 172/1/4 171/1/4 168/1/4
f 177/1/1 183/1/1 181/1/1
f 176/1/1 178/1/1 180/1/1
f 181/1/51 186/1/51 185/1/51
f 178/1/57 184/1/57 187/1/57
f 177/1/58 190/1/58 189/1/58
f 182/1/54 188/1/54 191/1/54
f 190/1/3 185/1/3 186/1/3
f 191/1/3 188/1/3 187/1/3
f 1/1/20 7/1/20 8/1/20
f 13/1/20 16/1/20 15/1/20
f 17/1/20 23/1/20 24/1/20
f 25/1/20 31/1/20 32/1/20
