# Blender 5.2.2 LTS
# www.blender.org
mtllib ruins_kr_ceiling_a.mtl
o piece
v -0.037433 2.462569 0.102035
v 0.000000 2.500000 0.102035
v -0.076855 2.421373 0.104775
v -0.224977 2.333209 0.104775
v -0.237827 2.318332 0.091766
v -0.160266 2.277995 0.104775
v -0.174521 2.268295 0.091766
v -0.037433 0.037431 0.102035
v 0.000000 0.000000 0.102035
v -0.076855 0.078627 0.104775
v -0.224977 0.166791 0.104775
v -0.237827 0.181668 0.091766
v -0.160266 0.222005 0.104775
v -0.174521 0.231705 0.091766
v -0.936479 2.333209 0.104775
v -0.918959 2.318332 0.091766
v -0.918959 0.181668 0.091766
v -0.936479 0.166791 0.104775
v -0.918959 0.740852 0.091766
v -0.936479 0.740852 0.104775
v -0.918959 1.759148 0.091766
v -0.936479 1.759148 0.104775
v -1.041074 1.504573 0.091766
v -1.058594 1.504573 0.104775
v -1.041074 0.995427 0.091766
v -1.058594 0.995427 0.104775
v -1.174002 2.421373 0.104775
v -1.174002 1.759148 0.104775
v -1.174002 0.740852 0.104775
v -1.174002 0.078627 0.104775
v -1.174002 0.037431 0.102035
v -1.174002 0.000000 0.102035
v -1.190451 1.787910 0.104775
v -1.190451 2.392610 0.104775
v -1.190451 0.712090 0.104775
v -1.190451 0.107390 0.104775
v -2.462567 2.462569 0.102035
v -2.500000 2.500000 0.102035
v -2.423145 2.421373 0.104775
v -2.275023 2.333209 0.104775
v -2.262173 2.318332 0.091766
v -2.339734 2.277995 0.104775
v -2.325479 2.268295 0.091766
v -2.462567 0.037431 0.102035
v -2.500000 0.000000 0.102035
v -2.423145 0.078627 0.104775
v -2.275023 0.166791 0.104775
v -2.262173 0.181668 0.091766
v -2.339734 0.222005 0.104775
v -2.325479 0.231705 0.091766
v -1.563521 2.333209 0.104775
v -1.581041 2.318332 0.091766
v -1.581041 0.181668 0.091766
v -1.563521 0.166791 0.104775
v -1.581041 0.740852 0.091766
v -1.563521 0.740852 0.104775
v -2.423145 1.835686 0.104775
v -2.339734 1.763997 0.104775
v -1.581041 1.759148 0.091766
v -1.563521 1.759148 0.104775
v -1.458926 1.504573 0.091766
v -1.441406 1.504573 0.104775
v -1.458926 0.995427 0.091766
v -1.441406 0.995427 0.104775
v -1.325998 2.421373 0.104775
v -1.325998 1.759148 0.104775
v -1.325998 0.740852 0.104775
v -1.325998 0.078627 0.104775
v -1.325998 0.037431 0.102035
v -1.325998 0.000000 0.102035
v -1.309549 1.787910 0.104775
v -1.309549 2.392610 0.104775
v -1.309549 0.712090 0.104775
v -1.309549 0.107390 0.104775
v 0.000000 2.500000 -0.104775
v 0.000000 0.000000 -0.104775
v -2.500000 2.500000 -0.104775
v -2.500000 0.000000 -0.104775
v 2.462567 2.462569 0.102035
v 2.500000 2.500000 0.102035
v 2.423144 2.421373 0.104775
v 2.275023 2.333209 0.104775
v 2.262174 2.318332 0.091766
v 2.339734 2.277995 0.104775
v 2.325479 2.268295 0.091766
v 2.462567 0.037431 0.102035
v 2.500000 0.000000 0.102035
v 2.423144 0.078627 0.104775
v 2.275023 0.166791 0.104775
v 2.262174 0.181668 0.091766
v 2.339734 0.222005 0.104775
v 2.325479 0.231705 0.091766
v 1.563521 2.333209 0.104775
v 1.581041 2.318332 0.091766
v 1.581041 0.181668 0.091766
v 1.563521 0.166791 0.104775
v 1.581041 0.740852 0.091766
v 1.563521 0.740852 0.104775
v 1.581041 1.759148 0.091766
v 1.563521 1.759148 0.104775
v 1.458926 1.504573 0.091766
v 1.441406 1.504573 0.104775
v 2.423144 0.957158 0.104775
v 2.339734 0.993001 0.104775
v 1.458926 0.995427 0.091766
v 1.441406 0.995427 0.104775
v 1.325998 2.421373 0.104775
v 1.325998 1.759148 0.104775
v 1.325998 0.740852 0.104775
v 1.325998 0.078627 0.104775
v 1.309549 1.787910 0.104775
v 1.309549 2.392610 0.104775
v 1.309549 0.712090 0.104775
v 1.309549 0.107390 0.104775
v 0.037433 2.462569 0.102035
v 0.076855 2.421373 0.104775
v 0.224977 2.333209 0.104775
v 0.237827 2.318332 0.091766
v 0.160266 2.277995 0.104775
v 0.174521 2.268295 0.091766
v 0.037433 0.037431 0.102035
v 0.076855 0.078627 0.104775
v 0.224977 0.166791 0.104775
v 0.237827 0.181668 0.091766
v 0.160266 0.222005 0.104775
v 0.174521 0.231705 0.091766
v 0.936479 2.333209 0.104775
v 0.918959 2.318332 0.091766
v 0.918959 0.181668 0.091766
v 0.936479 0.166791 0.104775
v 0.936479 0.078627 0.104775
v 0.936479 0.037431 0.102035
v 0.936479 0.000000 0.102035
v 0.918959 0.740852 0.091766
v 0.936479 0.740852 0.104775
v 0.918959 1.759148 0.091766
v 0.936479 1.759148 0.104775
v 1.041074 1.504573 0.091766
v 1.058594 1.504573 0.104775
v 1.041074 0.995427 0.091766
v 1.058594 0.995427 0.104775
v 1.174002 2.421373 0.104775
v 1.174002 1.759148 0.104775
v 1.174002 0.740852 0.104775
v 1.174002 0.078627 0.104775
v 1.190451 1.787910 0.104775
v 1.190451 2.392610 0.104775
v 1.190451 0.712090 0.104775
v 1.190451 0.107390 0.104775
v 2.500000 2.500000 -0.104775
v 2.500000 0.000000 -0.104775
v -0.037433 -0.037431 0.102035
v -0.076855 -0.078627 0.104775
v -0.224977 -0.166791 0.104775
v -0.237827 -0.181668 0.091766
v -0.160266 -0.222005 0.104775
v -0.174521 -0.231705 0.091766
v -0.037433 -2.462568 0.102035
v 0.000000 -2.500000 0.102035
v -0.076855 -2.421373 0.104775
v -0.224977 -2.333209 0.104775
v -0.237827 -2.318332 0.091766
v -0.160266 -2.277995 0.104775
v -0.174521 -2.268295 0.091766
v -0.936479 -0.078627 0.104775
v -0.936479 -0.166791 0.104775
v -0.918959 -0.181668 0.091766
v -0.918959 -2.318332 0.091766
v -0.936479 -2.333209 0.104775
v 0.000000 -1.875000 0.102035
v -0.037433 -1.856285 0.102035
v -0.918959 -1.759148 0.091766
v -0.936479 -1.759148 0.104775
v -0.918959 -0.740852 0.091766
v -0.936479 -0.740852 0.104775
v -1.041074 -0.995427 0.091766
v -1.058594 -0.995427 0.104775
v -1.041074 -1.504573 0.091766
v -1.058594 -1.504573 0.104775
v -1.174002 -0.078627 0.104775
v -1.174002 -0.740852 0.104775
v -1.174002 -1.759148 0.104775
v -1.174002 -2.421373 0.104775
v -1.190451 -0.712090 0.104775
v -1.190451 -0.107390 0.104775
v -1.190451 -1.787910 0.104775
v -1.190451 -2.392610 0.104775
v -2.462567 -0.037431 0.102035
v -2.423145 -0.078627 0.104775
v -2.275023 -0.166791 0.104775
v -2.262173 -0.181668 0.091766
v -2.339734 -0.222005 0.104775
v -2.325479 -0.231705 0.091766
v -2.462567 -2.462568 0.102035
v -2.500000 -2.500000 0.102035
v -2.423145 -2.421373 0.104775
v -2.275023 -2.333209 0.104775
v -2.262173 -2.318332 0.091766
v -2.339734 -2.277995 0.104775
v -2.325479 -2.268295 0.091766
v -1.563521 -0.166791 0.104775
v -1.581041 -0.181668 0.091766
v -1.581041 -2.318332 0.091766
v -1.563521 -2.333209 0.104775
v -2.423145 -1.835686 0.104775
v -2.339734 -1.763997 0.104775
v -1.581041 -1.759148 0.091766
v -1.563521 -1.759148 0.104775
v -1.581041 -0.740852 0.091766
v -1.563521 -0.740852 0.104775
v -1.458926 -0.995427 0.091766
v -1.441406 -0.995427 0.104775
v -2.423145 -1.542842 0.104775
v -2.339734 -1.506999 0.104775
v -1.458926 -1.504573 0.091766
v -1.441406 -1.504573 0.104775
v -1.325998 -0.078627 0.104775
v -1.325998 -0.740852 0.104775
v -1.325998 -1.759148 0.104775
v -1.325998 -2.421373 0.104775
v -1.309549 -0.712090 0.104775
v -1.309549 -0.107390 0.104775
v -1.309549 -1.787910 0.104775
v -1.309549 -2.392610 0.104775
v 0.000000 -2.500000 -0.104775
v -2.500000 -2.500000 -0.104775
v 2.462567 -0.037431 0.102035
v 2.423144 -0.078627 0.104775
v 2.275023 -0.166791 0.104775
v 2.262174 -0.181668 0.091766
v 2.339734 -0.222005 0.104775
v 2.325479 -0.231705 0.091766
v 2.462567 -2.462568 0.102035
v 2.500000 -2.500000 0.102035
v 2.423144 -2.421373 0.104775
v 2.275023 -2.333209 0.104775
v 2.262174 -2.318332 0.091766
v 2.339734 -2.277995 0.104775
v 2.325479 -2.268295 0.091766
v 1.563521 -0.166791 0.104775
v 1.581041 -0.181668 0.091766
v 1.581041 -2.318332 0.091766
v 1.563521 -2.333209 0.104775
v 1.563521 -2.421373 0.104775
v 1.563521 -2.462568 0.102035
v 1.563521 -2.500000 0.102035
v 1.581041 -1.759148 0.091766
v 1.563521 -1.759148 0.104775
v 1.581041 -0.740852 0.091766
v 1.563521 -0.740852 0.104775
v 1.458926 -0.995427 0.091766
v 1.441406 -0.995427 0.104775
v 1.458926 -1.504573 0.091766
v 1.441406 -1.504573 0.104775
v 1.325998 -0.078627 0.104775
v 1.325998 -0.740852 0.104775
v 1.325998 -1.759148 0.104775
v 1.325998 -2.421373 0.104775
v 1.325998 -2.462568 0.102035
v 1.325998 -2.500000 0.102035
v 1.309549 -0.712090 0.104775
v 1.309549 -0.107390 0.104775
v 1.309549 -1.787910 0.104775
v 1.309549 -2.392610 0.104775
v 0.037433 -0.037431 0.102035
v 0.076855 -0.078627 0.104775
v 0.224977 -0.166791 0.104775
v 0.237827 -0.181668 0.091766
v 0.160266 -0.222005 0.104775
v 0.174521 -0.231705 0.091766
v 0.037433 -2.462568 0.102035
v 0.076855 -2.421373 0.104775
v 0.224977 -2.333209 0.104775
v 0.237827 -2.318332 0.091766
v 0.160266 -2.277995 0.104775
v 0.174521 -2.268295 0.091766
v 0.936479 -0.166791 0.104775
v 0.918959 -0.181668 0.091766
v 0.918959 -2.318332 0.091766
v 0.936479 -2.333209 0.104775
v 0.918959 -1.759148 0.091766
v 0.936479 -1.759148 0.104775
v 0.918959 -0.740852 0.091766
v 0.936479 -0.740852 0.104775
v 1.041074 -0.995427 0.091766
v 1.058594 -0.995427 0.104775
v 1.041074 -1.504573 0.091766
v 1.058594 -1.504573 0.104775
v 1.174002 -0.078627 0.104775
v 1.174002 -0.740852 0.104775
v 1.154297 -0.995427 0.104775
v 1.174002 -1.759148 0.104775
v 1.174002 -2.421373 0.104775
v 1.190451 -0.712090 0.104775
v 1.190451 -0.107390 0.104775
v 1.190451 -1.787910 0.104775
v 1.190451 -2.392610 0.104775
v 2.500000 -2.500000 -0.104775
vn -0.3999 -0.4687 0.7877
vn -0.3424 0.4332 0.8337
vn -0.0000 -0.0000 1.0000
vn -0.0000 0.6583 0.7528
vn -0.0000 -0.6583 0.7528
vn 1.0000 -0.0000 -0.0000
vn -0.0000 0.0664 0.9978
vn 0.5961 -0.0000 0.8029
vn 0.5732 0.2749 0.7719
vn 0.5732 -0.2749 0.7719
vn 0.3424 -0.4332 0.8337
vn 0.3999 0.4687 0.7877
vn 0.0693 -0.0000 0.9976
vn -0.5961 -0.0000 0.8029
vn -0.5732 0.2749 0.7719
vn -0.0693 -0.0000 0.9976
vn -0.0000 -0.0664 0.9978
vn -0.5732 -0.2749 0.7719
vn -0.6741 -0.0000 0.7387
vn -0.0000 -1.0000 -0.0000
vn 0.6741 -0.0000 0.7387
vn -0.0000 -0.0000 -1.0000
vn 0.5962 -0.0000 0.8029
vn -0.0000 1.0000 -0.0000
vn -1.0000 -0.0000 -0.0000
vn 0.6741 -0.0000 0.7386
vn -0.3424 -0.4332 0.8337
vn -0.3999 0.4687 0.7877
vn 0.3999 -0.4687 0.7877
vn 0.3424 0.4332 0.8337
vn -0.5962 -0.0000 0.8029
vt 0.625000 0.625000
vt 0.375000 0.625000
vt 0.625000 0.875000
vt 0.125000 0.625000
vt 0.125000 0.125000
vt 0.125000 0.875000
s 0
usemtl ruins_kr_ceiling_a
f 4/1/1 7/1/1 6/1/1
f 11/1/2 14/1/2 12/1/2
f 281/2/3 283/2/3 270/2/3
f 182/1/3 183/1/3 169/1/3
f 17/1/4 11/1/4 12/1/4
f 4/1/5 16/1/5 5/1/5
f 151/3/6 80/3/6 87/3/6
f 65/2/7 27/2/7 1/2/7
f 17/1/8 20/1/8 18/1/8
f 20/1/9 25/1/9 26/1/9
f 19/2/3 7/2/3 21/2/3
f 22/1/8 16/1/8 15/1/8
f 23/1/10 22/1/10 24/1/10
f 25/1/8 24/1/8 26/1/8
f 27/4/3 72/4/3 34/4/3
f 35/5/3 74/5/3 36/5/3
f 40/1/11 43/1/11 41/1/11
f 47/1/12 50/1/12 49/1/12
f 53/1/4 47/1/4 54/1/4
f 52/1/5 40/1/5 41/1/5
f 10/2/13 1/2/13 3/2/13
f 53/1/14 56/1/14 55/1/14
f 56/1/15 63/1/15 55/1/15
f 271/2/16 266/2/16 265/2/16
f 55/2/3 59/2/3 43/2/3
f 60/1/14 52/1/14 59/1/14
f 213/2/16 189/2/16 188/2/16
f 69/2/17 31/2/17 30/2/17
f 60/1/18 61/1/18 62/1/18
f 62/1/14 63/1/14 64/1/14
f 232/1/19 238/1/19 231/1/19
f 72/5/3 33/5/3 34/5/3
f 27/1/3 28/1/3 15/1/3
f 69/6/3 32/6/3 31/6/3
f 71/4/3 66/4/3 28/4/3
f 32/3/20 70/3/20 78/3/20
f 275/1/21 270/1/21 269/1/21
f 76/3/22 77/3/22 75/3/22
f 82/1/1 85/1/1 84/1/1
f 103/2/13 86/2/13 79/2/13
f 89/1/2 92/1/2 90/1/2
f 95/1/4 89/1/4 90/1/4
f 82/1/5 94/1/5 83/1/5
f 95/1/23 98/1/23 96/1/23
f 92/1/19 91/1/19 104/1/19
f 98/1/9 105/1/9 106/1/9
f 246/3/20 260/3/20 298/3/20
f 100/1/8 94/1/8 93/1/8
f 145/2/17 131/2/17 132/2/17
f 101/1/10 100/1/10 102/1/10
f 105/1/8 102/1/8 106/1/8
f 2/3/24 77/3/24 38/3/24
f 107/4/3 147/4/3 112/4/3
f 113/5/3 149/5/3 114/5/3
f 109/4/3 148/4/3 113/4/3
f 117/1/11 120/1/11 118/1/11
f 123/1/12 126/1/12 125/1/12
f 129/1/4 123/1/4 130/1/4
f 247/2/3 232/2/3 249/2/3
f 128/1/5 117/1/5 118/1/5
f 115/2/7 142/2/7 107/2/7
f 129/1/14 135/1/14 134/1/14
f 115/6/3 2/6/3 9/6/3
f 135/1/15 140/1/15 134/1/15
f 119/1/21 126/1/21 120/1/21
f 137/1/14 128/1/14 136/1/14
f 136/2/3 118/2/3 120/2/3
f 137/1/18 138/1/18 139/1/18
f 139/1/14 140/1/14 141/1/14
f 147/5/3 111/5/3 112/5/3
f 109/1/3 110/1/3 96/1/3
f 234/3/6 151/3/6 87/3/6
f 146/4/3 143/4/3 108/4/3
f 149/4/3 145/4/3 110/4/3
f 36/4/3 30/4/3 35/4/3
f 195/3/20 225/3/20 159/3/20
f 76/3/22 150/3/22 151/3/22
f 133/3/20 76/3/20 151/3/20
f 154/1/1 157/1/1 156/1/1
f 161/1/2 164/1/2 162/1/2
f 158/6/3 170/6/3 171/6/3
f 164/1/19 156/1/19 157/1/19
f 168/1/4 161/1/4 162/1/4
f 183/2/17 220/2/17 194/2/17
f 154/1/5 167/1/5 155/1/5
f 154/1/3 165/1/3 166/1/3
f 168/1/8 173/1/8 169/1/8
f 173/1/9 178/1/9 179/1/9
f 235/2/13 227/2/13 228/2/13
f 175/1/8 167/1/8 166/1/8
f 9/3/6 75/3/6 2/3/6
f 176/1/10 175/1/10 177/1/10
f 160/2/13 158/2/13 171/2/13
f 172/2/3 157/2/3 174/2/3
f 178/1/8 177/1/8 179/1/8
f 180/4/3 217/4/3 185/4/3
f 186/5/3 224/5/3 187/5/3
f 186/4/3 182/4/3 219/4/3
f 190/1/11 193/1/11 191/1/11
f 197/1/12 200/1/12 199/1/12
f 70/6/3 45/6/3 188/6/3
f 203/1/4 197/1/4 204/1/4
f 200/2/3 207/2/3 209/2/3
f 202/1/5 190/1/5 191/1/5
f 203/1/14 208/1/14 207/1/14
f 213/1/3 206/1/3 214/1/3
f 208/1/15 215/1/15 207/1/15
f 210/1/14 202/1/14 209/1/14
f 14/1/19 6/1/19 7/1/19
f 210/1/18 211/1/18 212/1/18
f 212/1/14 215/1/14 216/1/14
f 222/5/3 184/5/3 185/5/3
f 221/4/3 181/4/3 184/4/3
f 224/4/3 183/4/3 187/4/3
f 76/3/6 9/3/6 170/3/6
f 255/1/3 256/1/3 240/1/3
f 10/1/3 18/1/3 30/1/3
f 121/2/16 116/2/16 115/2/16
f 45/3/25 226/3/25 195/3/25
f 225/3/22 78/3/22 76/3/22
f 229/1/1 232/1/1 231/1/1
f 236/1/2 239/1/2 237/1/2
f 245/2/17 244/2/17 258/2/17
f 244/1/3 236/1/3 243/1/3
f 242/1/4 236/1/4 237/1/4
f 214/1/26 206/1/26 200/1/26
f 229/1/5 241/1/5 230/1/5
f 127/1/3 143/1/3 142/1/3
f 165/2/7 152/2/7 180/2/7
f 85/2/3 99/2/3 97/2/3
f 260/6/3 245/6/3 259/6/3
f 242/1/23 248/1/23 243/1/23
f 248/1/9 253/1/9 254/1/9
f 250/1/8 241/1/8 240/1/8
f 43/1/21 42/1/21 58/1/21
f 251/1/10 250/1/10 252/1/10
f 87/6/3 86/6/3 133/6/3
f 253/1/8 252/1/8 254/1/8
f 255/4/3 289/4/3 262/4/3
f 263/5/3 297/5/3 264/5/3
f 257/4/3 296/4/3 263/4/3
f 297/4/3 293/4/3 258/4/3
f 267/1/11 270/1/11 268/1/11
f 273/1/12 276/1/12 275/1/12
f 227/6/3 233/6/3 87/6/3
f 279/1/4 273/1/4 280/1/4
f 278/1/5 267/1/5 268/1/5
f 279/1/14 282/1/14 281/1/14
f 266/1/3 272/1/3 275/1/3
f 282/1/15 287/1/15 281/1/15
f 284/1/14 278/1/14 283/1/14
f 284/1/18 285/1/18 286/1/18
f 57/2/16 39/2/16 37/2/16
f 286/1/14 287/1/14 288/1/14
f 289/2/7 255/2/7 227/2/7
f 295/5/3 261/5/3 262/5/3
f 51/1/3 65/1/3 39/1/3
f 294/4/3 256/4/3 261/4/3
f 67/4/3 73/4/3 29/4/3
f 80/3/24 75/3/24 2/3/24
f 38/3/25 78/3/25 45/3/25
f 2/6/3 38/6/3 1/6/3
f 225/3/22 151/3/22 298/3/22
f 4/1/27 5/1/27 7/1/27
f 11/1/28 13/1/28 14/1/28
f 270/2/3 276/2/3 281/2/3
f 276/2/3 274/2/3 281/2/3
f 274/2/3 279/2/3 281/2/3
f 281/2/3 287/2/3 283/2/3
f 287/2/3 285/2/3 283/2/3
f 283/2/3 278/2/3 268/2/3
f 283/2/3 268/2/3 270/2/3
f 189/1/3 213/1/3 192/1/3
f 213/1/3 214/1/3 192/1/3
f 165/1/3 180/1/3 166/1/3
f 180/1/3 181/1/3 166/1/3
f 177/1/3 175/1/3 181/1/3
f 175/1/3 166/1/3 181/1/3
f 169/1/3 173/1/3 182/1/3
f 173/1/3 179/1/3 182/1/3
f 179/1/3 177/1/3 212/1/3
f 177/1/3 181/1/3 218/1/3
f 177/1/3 218/1/3 212/1/3
f 182/1/3 179/1/3 216/1/3
f 189/1/3 192/1/3 190/1/3
f 201/1/3 210/1/3 218/1/3
f 210/1/3 212/1/3 218/1/3
f 189/1/3 190/1/3 201/1/3
f 153/1/3 154/1/3 156/1/3
f 206/1/3 205/1/3 199/1/3
f 205/1/3 196/1/3 199/1/3
f 160/1/3 153/1/3 156/1/3
f 160/1/3 156/1/3 163/1/3
f 197/1/3 199/1/3 196/1/3
f 216/1/3 208/1/3 219/1/3
f 208/1/3 204/1/3 219/1/3
f 204/1/3 197/1/3 196/1/3
f 160/1/3 163/1/3 161/1/3
f 160/1/3 161/1/3 169/1/3
f 204/1/3 196/1/3 220/1/3
f 204/1/3 220/1/3 219/1/3
f 212/1/3 216/1/3 179/1/3
f 216/1/3 219/1/3 182/1/3
f 217/1/3 189/1/3 201/1/3
f 183/1/3 160/1/3 169/1/3
f 218/1/3 217/1/3 201/1/3
f 17/1/4 18/1/4 11/1/4
f 4/1/5 15/1/5 16/1/5
f 151/3/6 150/3/6 80/3/6
f 37/2/7 39/2/7 65/2/7
f 27/2/7 3/2/7 1/2/7
f 37/2/7 65/2/7 1/2/7
f 17/1/8 19/1/8 20/1/8
f 20/1/9 19/1/9 25/1/9
f 19/2/3 17/2/3 12/2/3
f 12/2/3 14/2/3 19/2/3
f 14/2/3 7/2/3 19/2/3
f 7/2/3 5/2/3 21/2/3
f 5/2/3 16/2/3 21/2/3
f 21/2/3 23/2/3 25/2/3
f 21/2/3 25/2/3 19/2/3
f 22/1/8 21/1/8 16/1/8
f 23/1/10 21/1/10 22/1/10
f 25/1/8 23/1/8 24/1/8
f 27/4/3 65/4/3 72/4/3
f 35/5/3 73/5/3 74/5/3
f 40/1/29 42/1/29 43/1/29
f 47/1/30 48/1/30 50/1/30
f 53/1/4 48/1/4 47/1/4
f 52/1/5 51/1/5 40/1/5
f 10/2/13 8/2/13 1/2/13
f 53/1/31 54/1/31 56/1/31
f 56/1/15 64/1/15 63/1/15
f 271/2/16 272/2/16 266/2/16
f 43/2/3 50/2/3 55/2/3
f 50/2/3 48/2/3 55/2/3
f 48/2/3 53/2/3 55/2/3
f 55/2/3 63/2/3 59/2/3
f 63/2/3 61/2/3 59/2/3
f 59/2/3 52/2/3 41/2/3
f 59/2/3 41/2/3 43/2/3
f 60/1/14 51/1/14 52/1/14
f 188/2/16 194/2/16 213/2/16
f 194/2/16 196/2/16 205/2/16
f 194/2/16 205/2/16 213/2/16
f 68/2/17 46/2/17 69/2/17
f 46/2/17 44/2/17 69/2/17
f 8/2/17 10/2/17 31/2/17
f 10/2/17 30/2/17 31/2/17
f 30/2/17 68/2/17 69/2/17
f 60/1/18 59/1/18 61/1/18
f 62/1/14 61/1/14 63/1/14
f 232/1/19 239/1/19 238/1/19
f 72/5/3 71/5/3 33/5/3
f 13/1/3 11/1/3 10/1/3
f 66/1/3 60/1/3 62/1/3
f 64/1/3 56/1/3 67/1/3
f 56/1/3 54/1/3 67/1/3
f 66/1/3 62/1/3 28/1/3
f 62/1/3 64/1/3 24/1/3
f 28/1/3 62/1/3 24/1/3
f 13/1/3 10/1/3 3/1/3
f 6/1/3 13/1/3 3/1/3
f 49/1/3 58/1/3 57/1/3
f 29/1/3 30/1/3 18/1/3
f 18/1/3 20/1/3 29/1/3
f 20/1/3 26/1/3 29/1/3
f 24/1/3 22/1/3 28/1/3
f 22/1/3 15/1/3 28/1/3
f 29/1/3 26/1/3 67/1/3
f 26/1/3 24/1/3 64/1/3
f 67/1/3 26/1/3 64/1/3
f 49/1/3 57/1/3 46/1/3
f 47/1/3 49/1/3 46/1/3
f 4/1/3 6/1/3 3/1/3
f 54/1/3 47/1/3 46/1/3
f 15/1/3 4/1/3 3/1/3
f 54/1/3 46/1/3 68/1/3
f 54/1/3 68/1/3 67/1/3
f 15/1/3 3/1/3 27/1/3
f 69/6/3 70/6/3 32/6/3
f 71/4/3 72/4/3 65/4/3
f 28/4/3 27/4/3 34/4/3
f 28/4/3 34/4/3 33/4/3
f 71/4/3 65/4/3 66/4/3
f 28/4/3 33/4/3 71/4/3
f 70/3/20 45/3/20 78/3/20
f 78/3/20 76/3/20 32/3/20
f 76/3/20 9/3/20 32/3/20
f 275/1/21 276/1/21 270/1/21
f 76/3/22 78/3/22 77/3/22
f 82/1/27 83/1/27 85/1/27
f 79/2/13 81/2/13 103/2/13
f 103/2/13 88/2/13 86/2/13
f 89/1/28 91/1/28 92/1/28
f 95/1/4 96/1/4 89/1/4
f 82/1/5 93/1/5 94/1/5
f 95/1/8 97/1/8 98/1/8
f 84/1/19 85/1/19 104/1/19
f 85/1/19 92/1/19 104/1/19
f 98/1/9 97/1/9 105/1/9
f 260/3/20 159/3/20 225/3/20
f 225/3/20 298/3/20 260/3/20
f 298/3/20 234/3/20 246/3/20
f 100/1/8 99/1/8 94/1/8
f 132/2/17 86/2/17 110/2/17
f 86/2/17 88/2/17 110/2/17
f 122/2/17 121/2/17 132/2/17
f 131/2/17 122/2/17 132/2/17
f 132/2/17 110/2/17 145/2/17
f 101/1/10 99/1/10 100/1/10
f 105/1/8 101/1/8 102/1/8
f 2/3/24 75/3/24 77/3/24
f 107/4/3 142/4/3 147/4/3
f 113/5/3 148/5/3 149/5/3
f 109/4/3 144/4/3 148/4/3
f 117/1/29 119/1/29 120/1/29
f 123/1/30 124/1/30 126/1/30
f 129/1/4 124/1/4 123/1/4
f 251/2/3 253/2/3 249/2/3
f 253/2/3 247/2/3 249/2/3
f 247/2/3 242/2/3 237/2/3
f 237/2/3 239/2/3 247/2/3
f 239/2/3 232/2/3 247/2/3
f 232/2/3 230/2/3 249/2/3
f 230/2/3 241/2/3 249/2/3
f 128/1/5 127/1/5 117/1/5
f 81/2/7 79/2/7 107/2/7
f 79/2/7 115/2/7 107/2/7
f 115/2/7 116/2/7 142/2/7
f 129/1/31 130/1/31 135/1/31
f 115/6/3 79/6/3 80/6/3
f 9/6/3 133/6/3 121/6/3
f 133/6/3 132/6/3 121/6/3
f 115/6/3 80/6/3 2/6/3
f 9/6/3 121/6/3 115/6/3
f 135/1/15 141/1/15 140/1/15
f 119/1/21 125/1/21 126/1/21
f 137/1/14 127/1/14 128/1/14
f 134/2/3 140/2/3 136/2/3
f 140/2/3 138/2/3 136/2/3
f 136/2/3 128/2/3 118/2/3
f 124/2/3 129/2/3 134/2/3
f 120/2/3 126/2/3 136/2/3
f 126/2/3 124/2/3 134/2/3
f 136/2/3 126/2/3 134/2/3
f 137/1/18 136/1/18 138/1/18
f 139/1/14 138/1/14 140/1/14
f 147/5/3 146/5/3 111/5/3
f 88/1/3 103/1/3 91/1/3
f 103/1/3 104/1/3 91/1/3
f 131/1/3 145/1/3 130/1/3
f 145/1/3 144/1/3 130/1/3
f 141/1/3 135/1/3 144/1/3
f 135/1/3 130/1/3 144/1/3
f 106/1/3 102/1/3 141/1/3
f 96/1/3 98/1/3 109/1/3
f 98/1/3 106/1/3 109/1/3
f 88/1/3 91/1/3 89/1/3
f 88/1/3 89/1/3 96/1/3
f 141/1/3 144/1/3 109/1/3
f 110/1/3 88/1/3 96/1/3
f 106/1/3 141/1/3 109/1/3
f 234/3/6 298/3/6 151/3/6
f 146/4/3 147/4/3 142/4/3
f 108/4/3 107/4/3 112/4/3
f 108/4/3 112/4/3 111/4/3
f 146/4/3 142/4/3 143/4/3
f 108/4/3 111/4/3 146/4/3
f 149/4/3 148/4/3 144/4/3
f 110/4/3 109/4/3 113/4/3
f 110/4/3 113/4/3 114/4/3
f 149/4/3 144/4/3 145/4/3
f 110/4/3 114/4/3 149/4/3
f 36/4/3 74/4/3 68/4/3
f 30/4/3 29/4/3 35/4/3
f 36/4/3 68/4/3 30/4/3
f 195/3/20 226/3/20 225/3/20
f 76/3/22 75/3/22 150/3/22
f 151/3/20 87/3/20 133/3/20
f 133/3/20 9/3/20 76/3/20
f 154/1/27 155/1/27 157/1/27
f 161/1/28 163/1/28 164/1/28
f 158/6/3 159/6/3 170/6/3
f 164/1/19 163/1/19 156/1/19
f 168/1/4 169/1/4 161/1/4
f 220/2/17 196/2/17 194/2/17
f 194/2/17 158/2/17 183/2/17
f 158/2/17 160/2/17 183/2/17
f 154/1/5 166/1/5 167/1/5
f 154/1/3 153/1/3 165/1/3
f 168/1/8 172/1/8 173/1/8
f 173/1/9 172/1/9 178/1/9
f 235/2/13 233/2/13 227/2/13
f 175/1/8 174/1/8 167/1/8
f 9/3/6 76/3/6 75/3/6
f 176/1/10 174/1/10 175/1/10
f 152/2/13 153/2/13 171/2/13
f 153/2/13 160/2/13 171/2/13
f 176/2/3 178/2/3 174/2/3
f 178/2/3 172/2/3 174/2/3
f 172/2/3 168/2/3 162/2/3
f 162/2/3 164/2/3 172/2/3
f 164/2/3 157/2/3 172/2/3
f 157/2/3 155/2/3 174/2/3
f 155/2/3 167/2/3 174/2/3
f 178/1/8 176/1/8 177/1/8
f 217/4/3 218/4/3 221/4/3
f 217/4/3 221/4/3 222/4/3
f 184/4/3 181/4/3 180/4/3
f 217/4/3 222/4/3 185/4/3
f 185/4/3 184/4/3 180/4/3
f 186/5/3 223/5/3 224/5/3
f 186/4/3 187/4/3 183/4/3
f 219/4/3 220/4/3 224/4/3
f 219/4/3 224/4/3 223/4/3
f 186/4/3 183/4/3 182/4/3
f 219/4/3 223/4/3 186/4/3
f 190/1/29 192/1/29 193/1/29
f 197/1/30 198/1/30 200/1/30
f 152/6/3 171/6/3 170/6/3
f 195/6/3 159/6/3 158/6/3
f 195/6/3 158/6/3 194/6/3
f 152/6/3 170/6/3 9/6/3
f 195/6/3 194/6/3 45/6/3
f 194/6/3 188/6/3 45/6/3
f 188/6/3 152/6/3 32/6/3
f 152/6/3 9/6/3 32/6/3
f 188/6/3 32/6/3 70/6/3
f 203/1/4 198/1/4 197/1/4
f 191/2/3 193/2/3 209/2/3
f 193/2/3 200/2/3 209/2/3
f 200/2/3 198/2/3 207/2/3
f 198/2/3 203/2/3 207/2/3
f 207/2/3 215/2/3 209/2/3
f 215/2/3 211/2/3 209/2/3
f 202/2/3 191/2/3 209/2/3
f 202/1/5 201/1/5 190/1/5
f 203/1/31 204/1/31 208/1/31
f 213/1/3 205/1/3 206/1/3
f 208/1/15 216/1/15 215/1/15
f 210/1/14 201/1/14 202/1/14
f 14/1/19 13/1/19 6/1/19
f 210/1/18 209/1/18 211/1/18
f 212/1/14 211/1/14 215/1/14
f 222/5/3 221/5/3 184/5/3
f 221/4/3 218/4/3 181/4/3
f 224/4/3 220/4/3 183/4/3
f 170/3/6 159/3/6 225/3/6
f 225/3/6 76/3/6 170/3/6
f 238/1/3 236/1/3 235/1/3
f 290/1/3 284/1/3 286/1/3
f 291/1/3 292/1/3 254/1/3
f 292/1/3 257/1/3 254/1/3
f 290/1/3 286/1/3 291/1/3
f 256/1/3 290/1/3 291/1/3
f 257/1/3 258/1/3 243/1/3
f 258/1/3 244/1/3 243/1/3
f 256/1/3 291/1/3 252/1/3
f 238/1/3 235/1/3 228/1/3
f 231/1/3 238/1/3 228/1/3
f 291/1/3 254/1/3 252/1/3
f 243/1/3 248/1/3 257/1/3
f 248/1/3 254/1/3 257/1/3
f 229/1/3 231/1/3 228/1/3
f 252/1/3 250/1/3 256/1/3
f 250/1/3 240/1/3 256/1/3
f 240/1/3 229/1/3 228/1/3
f 240/1/3 228/1/3 255/1/3
f 10/1/3 11/1/3 18/1/3
f 121/2/16 122/2/16 116/2/16
f 45/3/25 78/3/25 226/3/25
f 225/3/22 226/3/22 78/3/22
f 229/1/27 230/1/27 232/1/27
f 236/1/28 238/1/28 239/1/28
f 293/2/17 272/2/17 271/2/17
f 293/2/17 271/2/17 259/2/17
f 258/2/17 293/2/17 259/2/17
f 245/2/17 233/2/17 235/2/17
f 258/2/17 259/2/17 245/2/17
f 245/2/17 235/2/17 244/2/17
f 244/1/3 235/1/3 236/1/3
f 242/1/4 243/1/4 236/1/4
f 193/1/21 192/1/21 214/1/21
f 206/1/21 199/1/21 200/1/21
f 193/1/26 214/1/26 200/1/26
f 229/1/5 240/1/5 241/1/5
f 122/1/3 131/1/3 123/1/3
f 131/1/3 130/1/3 123/1/3
f 104/1/3 103/1/3 84/1/3
f 103/1/3 81/1/3 84/1/3
f 122/1/3 123/1/3 125/1/3
f 122/1/3 125/1/3 119/1/3
f 82/1/3 84/1/3 81/1/3
f 102/1/3 100/1/3 108/1/3
f 100/1/3 93/1/3 108/1/3
f 93/1/3 82/1/3 81/1/3
f 116/1/3 122/1/3 119/1/3
f 116/1/3 119/1/3 117/1/3
f 93/1/3 81/1/3 107/1/3
f 141/1/3 102/1/3 139/1/3
f 127/1/3 137/1/3 143/1/3
f 137/1/3 139/1/3 143/1/3
f 93/1/3 107/1/3 108/1/3
f 102/1/3 108/1/3 139/1/3
f 139/1/3 108/1/3 143/1/3
f 116/1/3 117/1/3 127/1/3
f 142/1/3 116/1/3 127/1/3
f 188/2/7 189/2/7 217/2/7
f 188/2/7 217/2/7 180/2/7
f 153/2/7 152/2/7 165/2/7
f 152/2/7 188/2/7 180/2/7
f 90/2/3 92/2/3 97/2/3
f 92/2/3 85/2/3 97/2/3
f 85/2/3 83/2/3 99/2/3
f 83/2/3 94/2/3 99/2/3
f 99/2/3 101/2/3 105/2/3
f 95/2/3 90/2/3 97/2/3
f 99/2/3 105/2/3 97/2/3
f 260/6/3 246/6/3 245/6/3
f 242/1/8 247/1/8 248/1/8
f 248/1/9 247/1/9 253/1/9
f 250/1/8 249/1/8 241/1/8
f 58/1/21 49/1/21 50/1/21
f 50/1/26 43/1/26 58/1/26
f 251/1/10 249/1/10 250/1/10
f 87/6/3 80/6/3 86/6/3
f 80/6/3 79/6/3 86/6/3
f 86/6/3 132/6/3 133/6/3
f 253/1/8 251/1/8 252/1/8
f 289/4/3 290/4/3 294/4/3
f 289/4/3 294/4/3 295/4/3
f 261/4/3 256/4/3 255/4/3
f 289/4/3 295/4/3 262/4/3
f 262/4/3 261/4/3 255/4/3
f 263/5/3 296/5/3 297/5/3
f 257/4/3 292/4/3 296/4/3
f 297/4/3 296/4/3 292/4/3
f 258/4/3 257/4/3 263/4/3
f 258/4/3 263/4/3 264/4/3
f 297/4/3 292/4/3 293/4/3
f 258/4/3 264/4/3 297/4/3
f 267/1/29 269/1/29 270/1/29
f 273/1/30 274/1/30 276/1/30
f 9/6/3 170/6/3 265/6/3
f 170/6/3 159/6/3 271/6/3
f 159/6/3 260/6/3 271/6/3
f 260/6/3 259/6/3 271/6/3
f 87/6/3 133/6/3 227/6/3
f 133/6/3 9/6/3 265/6/3
f 227/6/3 133/6/3 265/6/3
f 245/6/3 246/6/3 233/6/3
f 246/6/3 234/6/3 233/6/3
f 170/6/3 271/6/3 265/6/3
f 233/6/3 234/6/3 87/6/3
f 279/1/4 274/1/4 273/1/4
f 278/1/5 277/1/5 267/1/5
f 279/1/31 280/1/31 282/1/31
f 284/1/3 290/1/3 277/1/3
f 290/1/3 289/1/3 277/1/3
f 293/1/3 292/1/3 280/1/3
f 292/1/3 291/1/3 288/1/3
f 280/1/3 292/1/3 282/1/3
f 291/1/3 286/1/3 288/1/3
f 288/1/3 282/1/3 292/1/3
f 267/1/3 277/1/3 266/1/3
f 277/1/3 289/1/3 266/1/3
f 293/1/3 280/1/3 272/1/3
f 280/1/3 273/1/3 272/1/3
f 269/1/3 267/1/3 266/1/3
f 275/1/3 269/1/3 266/1/3
f 272/1/3 273/1/3 275/1/3
f 282/1/15 288/1/15 287/1/15
f 284/1/14 277/1/14 278/1/14
f 284/1/18 283/1/18 285/1/18
f 37/2/16 44/2/16 57/2/16
f 44/2/16 46/2/16 57/2/16
f 286/1/14 285/1/14 287/1/14
f 265/2/7 266/2/7 289/2/7
f 255/2/7 228/2/7 227/2/7
f 265/2/7 289/2/7 227/2/7
f 295/5/3 294/5/3 261/5/3
f 60/1/3 66/1/3 51/1/3
f 66/1/3 65/1/3 51/1/3
f 39/1/3 57/1/3 42/1/3
f 57/1/3 58/1/3 42/1/3
f 39/1/3 42/1/3 40/1/3
f 40/1/3 51/1/3 39/1/3
f 294/4/3 290/4/3 256/4/3
f 67/4/3 68/4/3 74/4/3
f 73/4/3 35/4/3 29/4/3
f 67/4/3 74/4/3 73/4/3
f 80/3/24 150/3/24 75/3/24
f 38/3/25 77/3/25 78/3/25
f 8/6/3 31/6/3 32/6/3
f 45/6/3 70/6/3 44/6/3
f 70/6/3 69/6/3 44/6/3
f 8/6/3 32/6/3 9/6/3
f 1/6/3 8/6/3 9/6/3
f 38/6/3 45/6/3 44/6/3
f 38/6/3 44/6/3 37/6/3
f 1/6/3 9/6/3 2/6/3
f 38/6/3 37/6/3 1/6/3
f 225/3/22 76/3/22 151/3/22
