# Blender 5.2.2 LTS
# www.blender.org
mtllib ruins_tg_cache.mtl
o piece
v 0.190987 0.132003 0.085559
v 0.234953 0.055851 0.066266
v 0.217156 0.147064 0.085559
v 0.261123 0.070960 0.066266
v 0.217156 0.147064 -0.081278
v 0.261123 0.070960 -0.061985
v 0.190987 0.132003 -0.081278
v 0.234953 0.055851 -0.061985
v 0.217156 0.147064 0.058445
v 0.248499 0.092825 0.045423
v 0.248499 0.092825 -0.041142
v 0.217156 0.147064 -0.054165
v 0.190987 0.132003 -0.054165
v 0.222329 0.077716 -0.041142
v 0.222329 0.077716 0.045423
v 0.190987 0.132003 0.058445
v 0.187066 0.167315 0.085559
v 0.232163 0.167315 0.085559
v 0.232163 0.167315 0.058445
v 0.187066 0.167315 0.058445
v 0.232163 0.167315 -0.081278
v 0.187066 0.167315 -0.081278
v 0.187066 0.167315 -0.054165
v 0.232163 0.167315 -0.054165
v 0.232100 0.147064 0.085559
v 0.232100 0.147064 0.058445
v 0.232100 0.147064 -0.081278
v 0.232100 0.147064 -0.054165
v -0.191004 0.132003 0.085559
v -0.234960 0.055851 0.066266
v -0.217167 0.147064 0.085559
v -0.261123 0.070960 0.066266
v -0.217167 0.147064 -0.081278
v -0.261123 0.070960 -0.061985
v -0.191004 0.132003 -0.081278
v -0.234960 0.055851 -0.061985
v -0.217167 0.147064 0.058445
v -0.248502 0.092825 0.045423
v -0.248502 0.092825 -0.041142
v -0.217167 0.147064 -0.054165
v -0.191004 0.132003 -0.054165
v -0.222339 0.077716 -0.041142
v -0.222339 0.077716 0.045423
v -0.191004 0.132003 0.058445
v -0.187084 0.167315 0.085559
v -0.232170 0.167315 0.085559
v -0.232170 0.167315 0.058445
v -0.187084 0.167315 0.058445
v -0.232170 0.167315 -0.081278
v -0.187084 0.167315 -0.081278
v -0.187084 0.167315 -0.054165
v -0.232170 0.167315 -0.054165
v -0.232107 0.147064 0.085559
v -0.232107 0.147064 0.058445
v -0.232107 0.147064 -0.081278
v -0.232107 0.147064 -0.054165
v -0.202192 -0.138877 0.128637
v 0.202175 -0.138877 0.128637
v -0.202192 0.153584 0.128637
v 0.202175 0.153584 0.128637
v -0.202192 0.153584 -0.128637
v 0.202175 0.153584 -0.128637
v -0.202192 -0.138877 -0.128637
v 0.202175 -0.138877 -0.128637
v -0.109184 -0.063942 0.128637
v 0.109168 -0.063942 0.128637
v 0.109168 0.121734 0.128637
v -0.109184 0.121734 0.128637
v -0.109184 0.121734 -0.128637
v 0.109168 0.121734 -0.128637
v 0.109168 -0.063942 -0.128637
v -0.109184 -0.063942 -0.128637
v -0.142687 -0.029623 0.128637
v -0.142687 0.087416 0.128637
v 0.142671 -0.029623 0.128637
v 0.142671 0.087416 0.128637
v 0.142671 0.087416 -0.128637
v 0.142671 -0.029623 -0.128637
v -0.142687 0.087416 -0.128637
v -0.142687 -0.029623 -0.128637
v -0.097947 -0.051724 0.159440
v 0.097931 -0.051724 0.159440
v 0.127985 -0.021922 0.159440
v 0.127985 0.079715 0.159440
v 0.097931 0.109517 0.159440
v -0.097947 0.109517 0.159440
v -0.128002 0.079715 0.159440
v -0.128002 -0.021922 0.159440
v -0.097947 0.109517 -0.159440
v 0.103483 0.115553 -0.144221
v 0.127985 0.079715 -0.159440
v 0.127985 -0.021922 -0.159440
v 0.097931 -0.051724 -0.159440
v -0.097947 -0.051724 -0.159440
v -0.128002 -0.021922 -0.159440
v -0.128002 0.079715 -0.159440
v 0.085975 -0.006775 0.159440
v -0.085992 -0.006775 0.159440
v 0.085975 0.064568 0.159440
v -0.085992 0.064568 0.159440
v 0.085975 0.064568 -0.159440
v -0.085992 0.064568 -0.159440
v 0.085975 -0.006775 -0.159440
v -0.085992 -0.006775 -0.159440
v 0.202175 -0.034402 -0.094146
v 0.202175 -0.034402 0.094146
v 0.202175 0.119863 -0.094146
v 0.202175 0.119863 0.094146
v -0.202192 -0.034402 -0.094146
v -0.202192 -0.034402 0.094146
v -0.202192 0.119863 0.094146
v -0.202192 0.119863 -0.094146
v 0.188578 -0.019048 -0.082680
v 0.188578 -0.019048 0.082681
v 0.188578 0.104509 -0.082680
v 0.188578 0.104509 0.082681
v -0.188595 -0.019048 -0.082680
v -0.188595 -0.019048 0.082681
v -0.188595 0.104509 0.082681
v -0.188595 0.104509 -0.082680
v 0.077192 0.001203 0.145900
v -0.077209 0.001203 0.145900
v 0.077192 0.056590 0.145900
v -0.077209 0.056590 0.145900
v 0.077192 0.056590 -0.145900
v -0.077209 0.056590 -0.145900
v 0.077192 0.001203 -0.145900
v -0.077209 0.001203 -0.145900
v -0.156221 0.199252 0.085405
v 0.123707 0.199252 0.085405
v 0.156205 0.199252 -0.085404
v -0.156221 0.199252 -0.085404
v -0.193340 0.175610 0.118112
v 0.193323 0.175610 0.118112
v 0.167722 0.175610 0.095195
v -0.167738 0.175610 0.095195
v 0.193323 0.175610 -0.118112
v 0.167722 0.175610 -0.095195
v -0.193340 0.175610 -0.118112
v -0.167738 0.175610 -0.095195
v -0.202192 -0.062137 -0.102249
v -0.202192 -0.062137 0.102249
v 0.202175 -0.062137 0.102249
v 0.202175 -0.062137 -0.102249
v 0.202175 -0.165996 0.117543
v 0.202175 -0.165996 -0.117542
v -0.202192 -0.165996 0.117543
v -0.202192 -0.165996 -0.117542
v 0.232542 -0.178777 0.113381
v 0.232542 -0.199252 -0.116699
v 0.232542 -0.070940 -0.095900
v 0.232542 -0.070940 0.095900
v -0.232559 -0.199252 0.116699
v -0.232559 -0.199252 -0.116699
v -0.232559 -0.070940 0.095900
v -0.232559 -0.089054 -0.098837
v -0.093736 0.199252 0.085405
v 0.093720 0.199252 0.085405
v -0.093736 0.199252 -0.069367
v 0.093720 0.199252 -0.085404
v 0.162959 0.185387 0.091147
v 0.156205 0.199252 0.039001
v -0.067866 0.199252 -0.085404
v -0.137170 0.199252 -0.085404
v -0.103818 0.191642 -0.088556
v -0.090926 0.175610 0.118112
v 0.009255 0.175610 0.118112
v -0.044722 0.175610 0.102661
v -0.052867 0.168375 0.121569
v -0.213181 -0.065323 -0.099952
v -0.232559 -0.070940 -0.055699
v 0.232542 -0.199252 0.086812
v 0.206654 -0.199252 0.116699
v 0.109492 0.098052 -0.159440
v 0.062460 0.109517 -0.159440
v -0.071375 -0.006775 -0.159440
v -0.019207 -0.006775 -0.159440
v -0.044942 -0.001291 -0.150133
v -0.046812 -0.012406 -0.159440
v -0.128002 0.052376 0.159440
v -0.114733 -0.001743 0.159440
v -0.132913 0.002695 0.149139
vn 0.1069 -0.1857 0.9768
vn 0.1069 -0.1857 -0.9768
vn 0.5000 -0.8660 -0.0000
vn 0.8658 0.5003 -0.0000
vn 0.8660 0.5000 -0.0000
vn 0.8659 0.5002 -0.0003
vn -0.8660 -0.5000 -0.0000
vn -0.0000 1.0000 -0.0000
vn -0.1015 0.1763 0.9791
vn -0.5000 0.8660 -0.0000
vn -0.1018 0.1763 -0.9791
vn -0.0000 -0.0000 1.0000
vn 1.0000 -0.0032 -0.0000
vn -0.0000 -0.0000 -1.0000
vn -0.9939 -0.1104 -0.0000
vn 1.0000 -0.0031 -0.0000
vn -0.0000 -1.0000 -0.0000
vn -0.1069 -0.1857 0.9768
vn -0.1072 -0.1857 -0.9767
vn -0.5001 -0.8660 -0.0000
vn -0.8660 0.5001 0.0003
vn -0.8661 0.4999 -0.0000
vn -0.8660 0.5001 -0.0003
vn 0.8661 -0.4999 -0.0000
vn 0.1015 0.1763 0.9791
vn 0.5001 0.8660 -0.0000
vn 0.1015 0.1763 -0.9791
vn -1.0000 -0.0032 -0.0000
vn 0.9939 -0.1103 -0.0000
vn -1.0000 -0.0031 -0.0000
vn 0.1655 0.6789 -0.7153
vn -0.0000 -0.3786 -0.9255
vn 1.0000 -0.0000 -0.0000
vn -1.0000 -0.0000 -0.0000
vn -0.0000 0.3826 0.9239
vn 0.2984 0.9313 0.2090
vn -0.0000 0.3826 -0.9239
vn -0.8990 0.4380 -0.0000
vn -0.0000 -0.9295 0.3687
vn 0.6199 -0.6252 0.4741
vn 0.9027 -0.0000 0.4303
vn 0.6359 0.6208 0.4584
vn -0.0000 0.9295 0.3687
vn -0.6199 0.6252 0.4741
vn -0.9027 -0.0000 0.4303
vn -0.6359 -0.6208 0.4584
vn 0.9027 -0.0000 -0.4303
vn 0.6359 -0.6208 -0.4584
vn -0.0000 -0.9296 -0.3687
vn -0.6199 -0.6252 -0.4741
vn -0.9027 -0.0000 -0.4303
vn -0.6359 0.6208 -0.4584
vn 0.7486 0.6630 -0.0000
vn 0.6447 -0.0000 0.7645
vn 0.7486 -0.6630 -0.0000
vn 0.6446 -0.0000 -0.7645
vn -0.7486 0.6630 -0.0000
vn -0.6446 -0.0000 -0.7645
vn -0.7486 -0.6630 -0.0000
vn -0.6447 -0.0000 0.7645
vn -0.0000 0.8615 0.5077
vn -0.8389 -0.0000 0.5442
vn -0.0000 -0.8615 0.5077
vn 0.8389 -0.0000 0.5442
vn -0.0000 -0.8615 -0.5077
vn -0.8389 -0.0000 -0.5442
vn -0.0000 0.8615 -0.5077
vn 0.8389 -0.0000 -0.5442
vn -0.0000 0.4312 0.9023
vn 0.9279 0.3729 -0.0000
vn -0.0000 0.4311 -0.9023
vn -0.9279 0.3729 -0.0000
vn -0.0000 -0.3786 0.9255
vn 0.1986 0.1568 -0.9675
vn 0.2784 0.9605 -0.0000
vn 0.2417 0.1414 0.9600
vn -0.1986 0.1568 0.9674
vn -0.2784 0.9605 -0.0000
vn -0.1986 0.1568 -0.9675
vn -0.0000 -0.0253 -0.9997
vn 0.1328 -0.0073 0.9911
vn 0.8990 0.4380 -0.0000
vn 0.1609 0.8856 -0.4357
vn -0.1749 0.9433 -0.2822
vn -0.0919 0.9426 0.3211
vn 0.1352 0.9045 0.4044
vn -0.7550 0.6046 -0.2539
vn 0.5760 -0.6475 0.4990
vn -0.0000 -0.0254 0.9997
vn 0.6309 0.6211 -0.4651
vn -0.0000 0.9296 -0.3687
vn 0.1424 0.6213 -0.7706
vn -0.0000 0.8616 -0.5077
vn -0.1324 0.6493 -0.7489
vn -0.4216 0.2772 0.8634
vn -0.9027 -0.0000 0.4304
vn -0.5121 -0.1256 0.8497
vn 0.1072 -0.1857 0.9767
vn 0.1072 -0.1857 -0.9767
vn 0.8659 0.5002 0.0003
vn -0.1018 0.1763 0.9791
vn -0.1015 0.1763 -0.9791
vn -0.1072 -0.1857 0.9767
vn -0.1069 -0.1857 -0.9768
vn -0.8659 0.5002 -0.0000
vn 0.1018 0.1763 0.9791
vn 0.1018 0.1763 -0.9791
vn 0.6359 -0.6208 0.4584
vn 0.6199 0.6252 0.4741
vn -0.6359 0.6208 0.4584
vn -0.6199 -0.6252 0.4741
vn 0.6199 -0.6252 -0.4741
vn -0.6359 -0.6208 -0.4584
vn -0.6199 0.6252 -0.4741
vn 0.2417 0.1414 -0.9600
vn 0.1986 0.1568 0.9674
vn -0.2417 0.1414 0.9600
vn -0.2450 0.1551 -0.9570
vn -0.2336 0.1416 -0.9619
vn 0.6301 0.6151 -0.4739
vn 0.6264 0.6317 -0.4566
vn -0.0000 -0.0001 -1.0000
vt 0.625000 0.625000
vt 0.625000 0.875000
vt 0.125000 0.875000
vt 0.875000 0.875000
vt 0.125000 0.125000
vt 0.625000 0.375000
s 0
usemtl ruins_tg_cache
f 2/1/1 3/1/1 1/1/1
f 5/1/2 8/1/2 7/1/2
f 8/1/3 4/1/3 2/1/3
f 3/1/4 10/1/4 9/1/4
f 6/1/5 10/1/5 4/1/5
f 5/1/6 11/1/6 6/1/6
f 7/1/7 14/1/7 13/1/7
f 2/1/7 14/1/7 8/1/7
f 1/1/7 15/1/7 2/1/7
f 18/1/8 20/1/8 17/1/8
f 22/1/8 24/1/8 21/1/8
f 14/1/9 12/1/9 13/1/9
f 15/1/10 11/1/10 14/1/10
f 15/1/11 9/1/11 10/1/11
f 3/1/12 17/1/12 1/1/12
f 26/1/13 18/1/13 25/1/13
f 9/1/14 20/1/14 19/1/14
f 1/1/15 20/1/15 16/1/15
f 5/1/14 22/1/14 21/1/14
f 13/1/15 22/1/15 7/1/15
f 12/1/12 23/1/12 13/1/12
f 27/1/16 24/1/16 28/1/16
f 9/1/17 25/1/17 3/1/17
f 9/1/14 19/1/14 26/1/14
f 18/1/12 3/1/12 25/1/12
f 5/1/17 28/1/17 12/1/17
f 5/1/14 21/1/14 27/1/14
f 24/1/12 12/1/12 28/1/12
f 31/1/18 30/1/18 29/1/18
f 33/1/19 36/1/19 34/1/19
f 32/1/20 36/1/20 30/1/20
f 31/1/21 38/1/21 32/1/21
f 38/1/22 34/1/22 32/1/22
f 39/1/23 33/1/23 34/1/23
f 35/1/24 42/1/24 36/1/24
f 36/1/24 43/1/24 30/1/24
f 43/1/24 29/1/24 30/1/24
f 48/1/8 46/1/8 45/1/8
f 52/1/8 50/1/8 49/1/8
f 40/1/25 42/1/25 41/1/25
f 39/1/26 43/1/26 42/1/26
f 43/1/27 37/1/27 44/1/27
f 45/1/12 31/1/12 29/1/12
f 46/1/28 54/1/28 53/1/28
f 37/1/14 48/1/14 44/1/14
f 48/1/29 29/1/29 44/1/29
f 33/1/14 50/1/14 35/1/14
f 50/1/29 41/1/29 35/1/29
f 51/1/12 40/1/12 41/1/12
f 52/1/30 55/1/30 56/1/30
f 53/1/17 37/1/17 31/1/17
f 37/1/14 54/1/14 47/1/14
f 46/1/12 53/1/12 31/1/12
f 56/1/17 33/1/17 40/1/17
f 33/1/14 55/1/14 49/1/14
f 52/1/12 56/1/12 40/1/12
f 84/1/12 86/1/12 87/1/12
f 174/1/31 175/1/31 90/1/31
f 64/2/32 148/2/32 63/2/32
f 113/3/33 116/3/33 114/3/33
f 118/3/34 120/3/34 117/3/34
f 136/1/8 168/1/8 135/1/8
f 137/1/8 135/1/8 134/1/8
f 139/1/8 138/1/8 137/1/8
f 139/1/8 136/1/8 140/1/8
f 136/4/35 157/4/35 129/4/35
f 161/4/36 162/4/36 130/4/36
f 138/4/37 160/4/37 131/4/37
f 136/4/38 132/4/38 140/4/38
f 58/2/12 65/2/12 57/2/12
f 60/2/12 75/2/12 58/2/12
f 59/2/12 67/2/12 60/2/12
f 59/2/12 73/2/12 74/2/12
f 62/2/14 69/2/14 61/2/14
f 62/2/14 77/2/14 70/2/14
f 63/2/14 71/2/14 64/2/14
f 61/2/14 80/2/14 63/2/14
f 73/2/12 57/2/12 65/2/12
f 59/2/12 74/2/12 68/2/12
f 76/2/12 60/2/12 67/2/12
f 58/2/12 75/2/12 66/2/12
f 78/2/14 64/2/14 71/2/14
f 62/2/14 78/2/14 77/2/14
f 79/2/14 61/2/14 69/2/14
f 63/2/14 80/2/14 72/2/14
f 66/1/39 81/1/39 65/1/39
f 66/1/40 83/1/40 82/1/40
f 76/1/41 83/1/41 75/1/41
f 67/1/42 84/1/42 76/1/42
f 68/1/43 85/1/43 67/1/43
f 68/1/44 87/1/44 86/1/44
f 74/1/45 180/1/45 87/1/45
f 65/1/46 88/1/46 73/1/46
f 77/1/47 92/1/47 91/1/47
f 71/1/48 92/1/48 78/1/48
f 72/1/49 93/1/49 71/1/49
f 72/1/50 95/1/50 94/1/50
f 79/1/51 95/1/51 80/1/51
f 69/1/52 96/1/52 79/1/52
f 81/1/12 83/1/12 88/1/12
f 121/5/12 124/5/12 122/5/12
f 92/1/14 94/1/14 95/1/14
f 125/5/14 128/5/14 126/5/14
f 83/1/12 98/1/12 88/1/12
f 83/1/12 99/1/12 97/1/12
f 87/1/12 99/1/12 84/1/12
f 98/1/12 181/1/12 88/1/12
f 91/1/14 102/1/14 96/1/14
f 92/1/14 101/1/14 91/1/14
f 92/1/14 177/1/14 103/1/14
f 95/1/14 102/1/14 104/1/14
f 144/2/33 106/2/33 143/2/33
f 62/2/33 105/2/33 144/2/33
f 62/2/33 108/2/33 107/2/33
f 58/2/33 143/2/33 60/2/33
f 142/2/34 109/2/34 141/2/34
f 59/2/34 110/2/34 142/2/34
f 61/2/34 111/2/34 59/2/34
f 63/2/34 141/2/34 61/2/34
f 106/2/53 113/2/53 114/2/53
f 105/2/54 115/2/54 113/2/54
f 108/2/55 115/2/55 107/2/55
f 106/2/56 116/2/56 108/2/56
f 110/2/57 117/2/57 109/2/57
f 110/2/58 119/2/58 118/2/58
f 111/2/59 120/2/59 119/2/59
f 109/2/60 120/2/60 112/2/60
f 97/1/61 122/1/61 98/1/61
f 97/1/62 123/1/62 121/1/62
f 100/1/63 123/1/63 99/1/63
f 98/1/64 124/1/64 100/1/64
f 102/1/65 125/1/65 126/1/65
f 103/1/66 125/1/66 101/1/66
f 128/1/67 176/1/67 104/1/67
f 104/1/68 126/1/68 128/1/68
f 59/1/69 166/1/69 133/1/69
f 62/1/70 134/1/70 60/1/70
f 139/1/71 62/1/71 61/1/71
f 133/1/72 61/1/72 59/1/72
f 153/1/34 155/1/34 171/1/34
f 150/1/17 172/1/17 173/1/17
f 145/2/73 57/2/73 147/2/73
f 146/1/74 151/1/74 150/1/74
f 143/1/75 151/1/75 144/1/75
f 145/1/76 152/1/76 143/1/76
f 147/1/77 155/1/77 153/1/77
f 141/1/78 170/1/78 171/1/78
f 148/1/79 154/1/79 156/1/79
f 146/1/80 154/1/80 148/1/80
f 145/1/81 173/1/81 149/1/81
f 57/2/34 142/2/34 147/2/34
f 61/2/34 109/2/34 112/2/34
f 60/2/33 106/2/33 108/2/33
f 64/2/33 144/2/33 146/2/33
f 135/4/35 157/4/35 136/4/35
f 164/4/37 140/4/37 132/4/37
f 163/4/37 138/4/37 165/4/37
f 164/4/8 129/4/8 159/4/8
f 158/6/8 163/6/8 157/6/8
f 135/4/35 130/4/35 158/4/35
f 138/4/82 131/4/82 162/4/82
f 158/4/8 130/4/8 162/4/8
f 159/4/83 165/4/83 164/4/83
f 163/4/84 165/4/84 159/4/84
f 168/1/85 169/1/85 167/1/85
f 166/1/8 136/1/8 133/1/8
f 135/1/8 167/1/8 134/1/8
f 166/1/86 169/1/86 168/1/86
f 60/1/69 167/1/69 169/1/69
f 60/1/69 169/1/69 59/1/69
f 171/1/87 170/1/87 156/1/87
f 172/1/33 151/1/33 152/1/33
f 173/1/88 172/1/88 149/1/88
f 147/1/89 173/1/89 145/1/89
f 77/1/90 174/1/90 90/1/90
f 175/1/14 91/1/14 96/1/14
f 70/1/91 90/1/91 175/1/91
f 176/1/92 178/1/92 179/1/92
f 95/1/14 176/1/14 179/1/14
f 92/1/14 95/1/14 179/1/14
f 177/1/67 127/1/67 103/1/67
f 127/1/93 178/1/93 128/1/93
f 179/1/94 178/1/94 177/1/94
f 88/1/95 181/1/95 182/1/95
f 182/1/45 73/1/45 88/1/45
f 74/1/96 73/1/96 182/1/96
f 180/1/12 100/1/12 87/1/12
f 100/1/12 181/1/12 98/1/12
f 182/1/97 181/1/97 180/1/97
f 2/1/98 4/1/98 3/1/98
f 5/1/99 6/1/99 8/1/99
f 8/1/3 6/1/3 4/1/3
f 3/1/100 4/1/100 10/1/100
f 6/1/5 11/1/5 10/1/5
f 5/1/4 12/1/4 11/1/4
f 7/1/7 8/1/7 14/1/7
f 2/1/7 15/1/7 14/1/7
f 1/1/7 16/1/7 15/1/7
f 18/1/8 19/1/8 20/1/8
f 22/1/8 23/1/8 24/1/8
f 14/1/101 11/1/101 12/1/101
f 15/1/10 10/1/10 11/1/10
f 15/1/102 16/1/102 9/1/102
f 3/1/12 18/1/12 17/1/12
f 26/1/13 19/1/13 18/1/13
f 9/1/14 16/1/14 20/1/14
f 1/1/15 17/1/15 20/1/15
f 5/1/14 7/1/14 22/1/14
f 13/1/15 23/1/15 22/1/15
f 12/1/12 24/1/12 23/1/12
f 27/1/16 21/1/16 24/1/16
f 9/1/17 26/1/17 25/1/17
f 5/1/17 27/1/17 28/1/17
f 31/1/103 32/1/103 30/1/103
f 33/1/104 35/1/104 36/1/104
f 32/1/20 34/1/20 36/1/20
f 31/1/105 37/1/105 38/1/105
f 38/1/22 39/1/22 34/1/22
f 39/1/105 40/1/105 33/1/105
f 35/1/24 41/1/24 42/1/24
f 36/1/24 42/1/24 43/1/24
f 43/1/24 44/1/24 29/1/24
f 48/1/8 47/1/8 46/1/8
f 52/1/8 51/1/8 50/1/8
f 40/1/106 39/1/106 42/1/106
f 39/1/26 38/1/26 43/1/26
f 43/1/107 38/1/107 37/1/107
f 45/1/12 46/1/12 31/1/12
f 46/1/28 47/1/28 54/1/28
f 37/1/14 47/1/14 48/1/14
f 48/1/29 45/1/29 29/1/29
f 33/1/14 49/1/14 50/1/14
f 50/1/29 51/1/29 41/1/29
f 51/1/12 52/1/12 40/1/12
f 52/1/30 49/1/30 55/1/30
f 53/1/17 54/1/17 37/1/17
f 56/1/17 55/1/17 33/1/17
f 84/1/12 85/1/12 86/1/12
f 64/2/32 146/2/32 148/2/32
f 113/3/33 115/3/33 116/3/33
f 118/3/34 119/3/34 120/3/34
f 137/1/8 138/1/8 135/1/8
f 139/1/8 140/1/8 138/1/8
f 139/1/8 133/1/8 136/1/8
f 136/4/38 129/4/38 132/4/38
f 58/2/12 66/2/12 65/2/12
f 60/2/12 76/2/12 75/2/12
f 59/2/12 68/2/12 67/2/12
f 59/2/12 57/2/12 73/2/12
f 62/2/14 70/2/14 69/2/14
f 63/2/14 72/2/14 71/2/14
f 61/2/14 79/2/14 80/2/14
f 62/2/14 64/2/14 78/2/14
f 66/1/39 82/1/39 81/1/39
f 66/1/108 75/1/108 83/1/108
f 76/1/41 84/1/41 83/1/41
f 67/1/109 85/1/109 84/1/109
f 68/1/43 86/1/43 85/1/43
f 68/1/110 74/1/110 87/1/110
f 74/1/45 182/1/45 180/1/45
f 65/1/111 81/1/111 88/1/111
f 77/1/47 78/1/47 92/1/47
f 71/1/112 93/1/112 92/1/112
f 72/1/49 94/1/49 93/1/49
f 72/1/113 80/1/113 95/1/113
f 79/1/51 96/1/51 95/1/51
f 69/1/114 89/1/114 96/1/114
f 81/1/12 82/1/12 83/1/12
f 121/5/12 123/5/12 124/5/12
f 92/1/14 93/1/14 94/1/14
f 125/5/14 127/5/14 128/5/14
f 83/1/12 97/1/12 98/1/12
f 83/1/12 84/1/12 99/1/12
f 87/1/12 100/1/12 99/1/12
f 91/1/14 101/1/14 102/1/14
f 92/1/14 103/1/14 101/1/14
f 92/1/14 179/1/14 177/1/14
f 95/1/14 96/1/14 102/1/14
f 144/2/33 105/2/33 106/2/33
f 62/2/33 107/2/33 105/2/33
f 62/2/33 60/2/33 108/2/33
f 58/2/33 145/2/33 143/2/33
f 142/2/34 110/2/34 109/2/34
f 59/2/34 111/2/34 110/2/34
f 61/2/34 112/2/34 111/2/34
f 63/2/34 148/2/34 141/2/34
f 106/2/53 105/2/53 113/2/53
f 105/2/54 107/2/54 115/2/54
f 108/2/55 116/2/55 115/2/55
f 106/2/56 114/2/56 116/2/56
f 110/2/57 118/2/57 117/2/57
f 110/2/58 111/2/58 119/2/58
f 111/2/59 112/2/59 120/2/59
f 109/2/60 117/2/60 120/2/60
f 97/1/61 121/1/61 122/1/61
f 97/1/62 99/1/62 123/1/62
f 100/1/63 124/1/63 123/1/63
f 98/1/64 122/1/64 124/1/64
f 102/1/65 101/1/65 125/1/65
f 103/1/66 127/1/66 125/1/66
f 128/1/67 178/1/67 176/1/67
f 104/1/68 102/1/68 126/1/68
f 59/1/69 169/1/69 166/1/69
f 62/1/70 137/1/70 134/1/70
f 139/1/71 137/1/71 62/1/71
f 133/1/72 139/1/72 61/1/72
f 156/1/34 154/1/34 171/1/34
f 154/1/34 153/1/34 171/1/34
f 153/1/17 154/1/17 173/1/17
f 154/1/17 150/1/17 173/1/17
f 145/2/73 58/2/73 57/2/73
f 146/1/115 144/1/115 151/1/115
f 143/1/75 152/1/75 151/1/75
f 145/1/116 149/1/116 152/1/116
f 147/1/117 142/1/117 155/1/117
f 155/1/78 142/1/78 171/1/78
f 142/1/78 141/1/78 171/1/78
f 170/1/118 141/1/118 156/1/118
f 141/1/119 148/1/119 156/1/119
f 146/1/80 150/1/80 154/1/80
f 57/2/34 59/2/34 142/2/34
f 61/2/34 141/2/34 109/2/34
f 60/2/33 143/2/33 106/2/33
f 64/2/33 62/2/33 144/2/33
f 135/4/35 158/4/35 157/4/35
f 164/4/37 165/4/37 140/4/37
f 160/4/37 138/4/37 163/4/37
f 138/4/37 140/4/37 165/4/37
f 132/4/8 129/4/8 164/4/8
f 129/4/8 157/4/8 159/4/8
f 160/6/8 163/6/8 158/6/8
f 163/6/8 159/6/8 157/6/8
f 135/4/35 161/4/35 130/4/35
f 161/4/82 135/4/82 162/4/82
f 135/4/82 138/4/82 162/4/82
f 131/4/8 160/4/8 162/4/8
f 160/4/8 158/4/8 162/4/8
f 166/1/8 168/1/8 136/1/8
f 135/1/8 168/1/8 167/1/8
f 60/1/69 134/1/69 167/1/69
f 152/1/33 149/1/33 172/1/33
f 172/1/33 150/1/33 151/1/33
f 147/1/89 153/1/89 173/1/89
f 90/1/120 70/1/120 77/1/120
f 77/1/121 91/1/121 174/1/121
f 96/1/14 89/1/14 175/1/14
f 175/1/14 174/1/14 91/1/14
f 89/1/91 69/1/91 175/1/91
f 69/1/91 70/1/91 175/1/91
f 95/1/122 104/1/122 176/1/122
f 177/1/67 178/1/67 127/1/67
f 180/1/12 181/1/12 100/1/12
