# Blender 5.2.2 LTS
# www.blender.org
mtllib ruins_tg_wall_b.mtl
o piece
v 2.499999 1.492131 0.282182
v 2.500000 0.968039 -0.213608
v 2.500000 -0.843993 -0.213608
v 2.500000 -1.425672 0.304090
v -2.500000 1.492131 0.282182
v -2.499995 0.968039 -0.213608
v -2.499995 -0.843993 -0.213608
v -2.499999 -1.425672 0.304090
v 2.500000 -2.500000 0.304090
v -2.499999 -2.500000 0.304090
v 2.500000 1.633688 -0.445911
v 2.500000 -2.500000 -0.445910
v -2.499999 1.633688 -0.445911
v -2.499999 -2.500000 -0.445910
v -2.499999 2.500000 -0.445911
v 2.500000 2.500000 -0.445911
v -1.907050 1.492131 0.282182
v -1.907051 -0.843993 -0.213608
v -1.907048 -1.425672 0.304090
v -1.907048 -2.500000 0.304090
v 1.907051 1.492131 0.282182
v 1.907053 0.968039 -0.213608
v 1.907053 -0.843993 -0.213608
v 1.907050 -1.425672 0.304090
v 1.907050 -2.500000 0.304090
v -1.813683 -1.181695 0.087122
v -1.813683 -2.500000 0.087122
v 1.813684 -1.181695 0.087122
v 1.813684 -2.500000 0.087122
v -2.499995 0.968039 -0.138876
v 2.500000 0.968039 -0.138876
v -2.499999 1.633688 0.304089
v 2.500000 1.633688 0.304089
v 2.499999 1.633688 0.356651
v -2.500000 1.633688 0.356651
v 2.500000 1.686653 0.394864
v -2.499995 1.686653 0.394864
v -2.500000 1.366545 0.177428
v -1.828150 1.366545 0.177428
v 1.828148 1.366545 0.177428
v 2.499999 1.366545 0.177428
v 0.562171 -2.500000 0.087122
v 0.562171 -1.181695 0.087122
v 0.947643 1.366545 0.177428
v 0.865889 1.492131 0.282182
v 0.029224 1.633688 0.304089
v -0.562170 -2.500000 0.087122
v -0.562170 -1.181695 0.087122
v -0.947645 1.366545 0.177428
v -0.865888 1.492131 0.282182
v -0.029223 1.633688 0.304089
v -0.997870 1.416468 0.170628
v -0.952653 1.489916 0.231892
v -1.820291 1.489916 0.231892
v -1.776612 1.416468 0.170628
v 1.820289 1.489916 0.231892
v 1.776610 1.416468 0.170628
v 0.952651 1.489916 0.231892
v 0.997869 1.416468 0.170628
v 2.500000 1.549840 0.304089
v -2.499999 1.549840 0.304089
v 1.457318 -0.755888 -0.213608
v 1.457318 -0.525607 -0.213608
v -1.457345 -0.525607 -0.213608
v -1.457345 -0.755888 -0.213608
v 1.332877 0.584355 -0.213608
v -1.333602 0.584355 -0.213608
v 1.457318 0.662006 -0.213608
v -1.457345 0.662006 -0.213608
v 1.332877 -0.434530 -0.213608
v -1.333602 -0.434530 -0.213608
v 1.457318 0.886051 -0.213608
v -1.457345 0.886051 -0.213608
v 1.947519 -0.750670 -0.213608
v 2.376971 -0.750670 -0.213608
v 1.570230 -0.446641 -0.213608
v 1.578528 -0.750670 -0.213608
v 1.433847 0.510007 -0.213608
v 1.570126 0.584093 -0.213608
v 1.433728 -0.360227 -0.213608
v 2.376971 0.881767 -0.213608
v 1.947516 0.881767 -0.213608
v 1.578528 0.881767 -0.213608
v -1.947518 -0.750670 -0.213608
v -2.376967 -0.750670 -0.213608
v -1.577871 -0.750670 -0.213608
v -1.569619 -0.446641 -0.213608
v -1.433999 0.510007 -0.213608
v -1.569515 0.584093 -0.213608
v -1.433883 -0.360227 -0.213608
v -1.577871 0.881767 -0.213608
v -2.376967 0.881767 -0.213608
v 2.309885 -0.698307 -0.159964
v 1.630493 -0.419873 -0.159964
v 1.640067 -0.697590 -0.159964
v 1.493482 0.473715 -0.159964
v 1.668139 0.550486 -0.159964
v 1.493408 -0.325108 -0.159964
v 2.309882 0.829499 -0.159964
v 1.640067 0.828785 -0.159964
v -2.309889 -0.698307 -0.159964
v -1.639064 -0.697590 -0.159964
v -1.629543 -0.419873 -0.159964
v -1.493300 0.473715 -0.159964
v -1.629403 0.557020 -0.159964
v -1.493233 -0.325108 -0.159964
v -1.639064 0.828785 -0.159964
v -2.309877 0.829499 -0.159964
v 1.401099 -0.703716 -0.159964
v 1.401102 -0.544587 -0.159964
v -1.401442 -0.544587 -0.159964
v -1.401442 -0.703716 -0.159964
v 1.282880 0.612804 -0.159964
v -1.283883 0.612804 -0.159964
v 1.401102 0.680733 -0.159964
v -1.401442 0.680733 -0.159964
v 1.282880 -0.464206 -0.159964
v -1.283883 -0.464206 -0.159964
v 1.401099 0.834035 -0.159964
v -1.401442 0.834035 -0.159964
v 0.000001 -0.843993 -0.213608
v 0.000001 -0.755888 -0.213608
v 0.029224 0.968039 -0.213608
v 0.029224 0.968039 -0.138876
v 0.029226 1.366545 0.177428
v 0.029226 1.492131 0.282182
v 0.029224 1.549840 0.304089
v -0.029223 0.968039 -0.213608
v -0.029223 0.968039 -0.138876
v -0.029222 1.366545 0.177428
v -0.029224 1.492131 0.282182
v -0.029223 1.549840 0.304089
v 2.500000 1.866575 -0.445911
v 2.500000 1.777666 0.394864
v 1.907053 1.777666 0.394864
v 1.814554 1.873551 0.394864
v -1.814559 1.873551 0.394864
v -1.907051 1.777666 0.394864
v -2.499995 1.777666 0.394864
v -2.499999 1.866575 -0.445911
v 2.500000 1.807084 0.445911
v 1.907050 1.807084 0.445911
v 2.500000 2.500000 0.445911
v 1.814551 1.902969 0.445911
v -1.814556 1.902969 0.445911
v -1.907048 1.807084 0.445911
v -2.499999 2.500000 0.445911
v -2.499999 1.807084 0.445911
v -0.454003 -1.305071 0.172492
v -0.454003 -2.500000 0.172492
v 0.454004 -2.500000 0.172492
v 0.454004 -1.305071 0.172492
v -1.087026 -0.437647 -0.159964
v -1.087026 0.576072 -0.159964
v 1.086539 -0.437647 -0.159964
v 1.086539 0.576073 -0.159964
v -0.886733 0.676591 -0.159964
v 0.880942 0.676591 -0.159964
v 0.870981 -0.538166 -0.159964
v -0.906771 -0.538166 -0.159964
v 0.193198 -0.008075 -0.159964
v 0.082059 -0.153700 -0.159964
v 0.193198 0.146500 -0.159964
v 0.083012 0.292125 -0.159964
v -0.086092 0.292125 -0.159964
v -0.193685 0.146500 -0.159964
v -0.088009 -0.153700 -0.159964
v -0.193685 -0.008075 -0.159964
v 0.061674 0.360349 -0.208273
v -0.065157 0.360349 -0.208273
v 0.659995 0.648699 -0.208273
v -0.665762 0.648699 -0.208273
v -0.303375 0.127178 -0.208273
v -0.303375 0.011247 -0.208273
v -1.010726 0.449357 -0.208273
v -1.010726 -0.310932 -0.208273
v -0.069491 -0.221934 -0.208273
v 0.058064 -0.221934 -0.208273
v -0.684371 -0.510284 -0.208273
v 0.648945 -0.510284 -0.208273
v 0.302891 0.011247 -0.208273
v 0.302891 0.127178 -0.208273
v 1.010236 -0.310932 -0.208273
v 1.010236 0.449357 -0.208273
vn -0.0000 -0.6405 0.7679
vn -0.0000 0.6650 0.7468
vn -0.0000 -0.0000 1.0000
vn 1.0000 -0.0000 -0.0000
vn -1.0000 -0.0000 -0.0000
vn 0.0008 0.7110 0.7031
vn -0.0000 1.0000 -0.0000
vn -0.9186 -0.0000 0.3953
vn 0.9186 -0.0000 0.3953
vn -0.0000 -0.0000 -1.0000
vn -0.0000 -0.5851 0.8110
vn -0.0000 -0.6217 0.7833
vn -0.4768 -0.3711 0.7968
vn -0.0000 -0.9990 0.0440
vn 0.4558 -0.3836 0.8032
vn -0.0000 0.1349 0.9909
vn -0.4736 -0.3808 0.7942
vn 0.4578 -0.3745 0.8063
vn -0.0000 -1.0000 -0.0000
vn -0.0000 0.7179 0.6961
vn -0.0000 -0.3549 0.9349
vn -0.0008 0.7137 0.7005
vn 0.6245 -0.0000 0.7810
vn -0.6591 -0.0227 0.7517
vn -0.2443 0.5558 0.7946
vn -0.6687 0.0001 0.7435
vn -0.6480 0.0183 0.7614
vn -0.3513 -0.5549 0.7541
vn -0.0008 -0.7130 0.7012
vn 0.6504 -0.0177 0.7594
vn 0.3189 0.5833 0.7471
vn 0.6706 0.0001 0.7419
vn 0.6611 0.0235 0.7499
vn 0.0008 -0.7130 0.7011
vn -0.6245 -0.0000 0.7810
vn 0.3942 -0.5670 0.7233
vn 0.6903 -0.0000 0.7235
vn -0.6924 -0.0000 0.7215
vn 0.3659 -0.6368 0.6787
vn -0.4051 -0.6455 0.6475
vn 0.7315 -0.0000 0.6818
vn -0.7334 -0.0000 0.6798
vn 0.6904 -0.0000 0.7235
vn 0.4380 0.5985 0.6708
vn -0.4032 0.5896 0.6999
vn -0.0000 -0.8664 0.4993
vn -0.6682 -0.6446 0.3715
vn 0.6682 -0.6446 0.3714
vn -0.0000 0.5690 0.8223
vn -0.6195 -0.0000 0.7850
vn 0.6195 -0.0000 0.7850
vn -0.0000 -0.7169 0.6972
vn -0.0000 0.5779 0.8161
vn -0.2449 0.5081 0.8257
vn -0.0000 -0.8660 0.5000
vn 0.2447 0.5095 0.8249
vn -0.4031 -0.0000 0.9152
vn -0.2521 -0.5535 0.7938
vn 0.5349 -0.0000 0.8449
vn -0.2217 0.4611 0.8592
vn -0.0000 -0.5778 0.8162
vn 0.2420 -0.5161 0.8217
vn -0.0000 0.8661 0.4999
vn -0.2436 -0.4999 0.8311
vn 0.4031 -0.0000 0.9152
vn 0.2521 0.5535 0.7938
vn -0.5349 -0.0000 0.8449
vn 0.2217 -0.4611 0.8592
vn -0.0000 0.6645 0.7473
vn 0.0002 0.6648 0.7470
vn -0.0002 0.6648 0.7470
vn -1.0000 -0.0000 0.0001
vn -0.0000 0.7162 0.6979
vn -0.4578 -0.3745 0.8063
vn 0.4736 -0.3808 0.7942
vn -0.4558 -0.3836 0.8032
vn 0.4768 -0.3711 0.7968
vn -0.0000 0.7115 0.7027
vn -0.6483 -0.0177 0.7612
vn -0.3173 0.5836 0.7475
vn -0.6685 0.0001 0.7437
vn -0.4926 -0.0497 0.8689
vn -0.3923 -0.5675 0.7239
vn -0.0000 -0.7108 0.7034
vn -0.0000 -0.7156 0.6985
vn 0.6612 -0.0227 0.7499
vn 0.3667 0.5991 0.7118
vn 0.6708 0.0001 0.7416
vn 0.6501 0.0182 0.7596
vn -0.6246 -0.0000 0.7810
vn 0.3530 -0.5545 0.7536
vn 0.4032 -0.6461 0.6481
vn -0.3677 -0.6363 0.6782
vn 0.4013 0.5902 0.7005
vn -0.4400 0.5978 0.6701
vn -1.0000 -0.0000 -0.0001
vn -0.6682 -0.6446 0.3714
vn -0.2447 0.5079 0.8260
vn 0.2445 0.5093 0.8252
vn -0.2217 -0.4611 0.8592
vn -0.2521 0.5535 0.7938
vn 0.2431 -0.5177 0.8203
vn -0.2447 -0.5015 0.8298
vn 0.2217 0.4611 0.8592
vn 0.2521 -0.5535 0.7938
vn -1.0000 0.0001 -0.0000
vt 0.375000 0.625000
vt 0.875000 0.625000
vt 0.125000 0.375000
vt 0.125000 0.125000
vt 0.625000 0.875000
vt 0.125000 0.625000
vt 0.125000 0.875000
vt 0.625000 0.625000
s 0
usemtl ruins_tg_wall_b
f 21/1/1 41/1/1 1/1/1
f 48/1/2 121/1/2 18/1/2
f 24/1/3 9/1/3 4/1/3
f 11/1/4 41/1/4 2/1/4
f 118/2/3 153/2/3 154/2/3
f 6/1/5 38/1/5 13/1/5
f 17/1/1 38/1/1 39/1/1
f 91/3/6 108/3/6 107/3/6
f 19/1/3 10/1/3 20/1/3
f 147/3/7 16/3/7 15/3/7
f 52/4/1 54/4/1 55/4/1
f 24/1/8 29/1/8 25/1/8
f 27/1/9 19/1/9 20/1/9
f 152/1/3 150/1/3 151/1/3
f 48/1/3 27/1/3 47/1/3
f 119/2/3 158/2/3 156/2/3
f 134/2/4 36/2/4 33/2/4
f 140/5/10 133/5/10 11/5/10
f 34/2/11 37/2/11 35/2/11
f 28/1/3 42/1/3 29/1/3
f 56/4/1 59/4/1 57/4/1
f 143/3/3 147/3/3 144/3/3
f 40/1/12 44/1/12 31/1/12
f 130/1/1 50/1/1 49/1/1
f 18/5/3 121/5/3 65/5/3
f 49/6/13 53/6/13 52/6/13
f 17/6/14 53/6/14 50/6/14
f 39/6/15 54/6/15 17/6/15
f 49/6/16 55/6/16 39/6/16
f 40/6/17 56/6/17 57/6/17
f 45/6/14 56/6/14 21/6/14
f 44/6/18 58/6/18 45/6/18
f 44/6/16 57/6/16 59/6/16
f 124/1/19 123/1/19 22/1/19
f 129/1/19 6/1/19 128/1/19
f 132/1/3 32/1/3 61/1/3
f 73/2/20 119/2/20 72/2/20
f 2/5/3 75/5/3 3/5/3
f 49/1/12 39/1/12 30/1/12
f 50/1/21 131/1/21 132/1/21
f 99/3/22 82/3/22 100/3/22
f 93/3/23 81/3/23 99/3/23
f 76/3/24 95/3/24 94/3/24
f 79/3/25 96/3/25 97/3/25
f 80/3/26 96/3/26 78/3/26
f 79/3/27 100/3/27 83/3/27
f 76/3/28 98/3/28 80/3/28
f 74/3/29 93/3/29 95/3/29
f 87/3/30 102/3/30 86/3/30
f 89/3/31 104/3/31 88/3/31
f 90/3/32 104/3/32 106/3/32
f 89/3/33 107/3/33 105/3/33
f 101/3/34 84/3/34 102/3/34
f 92/3/35 101/3/35 108/3/35
f 87/3/36 106/3/36 103/3/36
f 63/2/37 109/2/37 62/2/37
f 64/2/38 112/2/38 111/2/38
f 66/2/39 115/2/39 113/2/39
f 67/2/40 116/2/40 69/2/40
f 70/2/41 113/2/41 117/2/41
f 71/2/42 114/2/42 67/2/42
f 68/2/43 119/2/43 115/2/43
f 69/2/38 120/2/38 73/2/38
f 70/2/44 110/2/44 63/2/44
f 71/2/45 111/2/45 118/2/45
f 45/1/1 125/1/1 44/1/1
f 51/2/19 46/2/19 34/2/19
f 124/7/19 128/7/19 123/7/19
f 124/7/12 130/7/12 129/7/12
f 126/7/1 130/7/1 125/7/1
f 127/7/21 131/7/21 126/7/21
f 132/7/3 46/7/3 51/7/3
f 136/3/46 145/3/46 137/3/46
f 127/1/21 126/1/21 45/1/21
f 139/3/5 147/3/5 140/3/5
f 135/3/46 141/3/46 142/3/46
f 143/3/4 134/3/4 133/3/4
f 136/3/47 142/3/47 144/3/47
f 97/3/3 94/3/3 93/3/3
f 137/3/48 146/3/48 138/3/48
f 139/3/46 146/3/46 148/3/46
f 105/3/3 108/3/3 103/3/3
f 48/1/49 152/1/49 43/1/49
f 47/1/50 149/1/50 48/1/50
f 42/1/51 152/1/51 151/1/51
f 42/1/19 47/1/19 14/1/19
f 37/2/3 36/2/3 135/2/3
f 127/1/3 33/1/3 46/1/3
f 112/2/52 65/2/52 122/2/52
f 166/2/3 161/2/3 163/2/3
f 170/8/3 171/8/3 172/8/3
f 173/8/3 176/8/3 174/8/3
f 177/8/3 180/8/3 178/8/3
f 181/8/3 184/8/3 182/8/3
f 165/2/53 169/2/53 170/2/53
f 164/2/54 171/2/54 169/2/54
f 158/2/55 172/2/55 171/2/55
f 165/2/56 172/2/56 157/2/56
f 168/2/57 173/2/57 174/2/57
f 166/2/58 175/2/58 173/2/58
f 153/2/59 175/2/59 154/2/59
f 168/2/60 176/2/60 153/2/60
f 167/2/61 178/2/61 162/2/61
f 167/2/62 179/2/62 177/2/62
f 159/2/63 179/2/63 160/2/63
f 162/2/64 180/2/64 159/2/64
f 161/2/65 182/2/65 163/2/65
f 161/2/66 183/2/66 181/2/66
f 155/2/67 184/2/67 183/2/67
f 163/2/68 184/2/68 156/2/68
f 139/2/5 32/2/5 37/2/5
f 72/5/3 68/5/3 83/5/3
f 21/1/1 40/1/1 41/1/1
f 28/1/69 24/1/69 4/1/69
f 4/1/70 3/1/70 28/1/70
f 3/1/2 23/1/2 28/1/2
f 26/1/2 48/1/2 18/1/2
f 48/1/2 43/1/2 121/1/2
f 8/1/69 19/1/69 26/1/69
f 18/1/2 7/1/2 26/1/2
f 7/1/71 8/1/71 26/1/71
f 28/1/2 23/1/2 43/1/2
f 23/1/2 121/1/2 43/1/2
f 24/1/3 25/1/3 9/1/3
f 33/1/4 60/1/4 1/1/4
f 41/1/4 31/1/4 2/1/4
f 33/1/4 1/1/4 41/1/4
f 4/1/4 9/1/4 12/1/4
f 3/1/4 4/1/4 12/1/4
f 11/1/4 33/1/4 41/1/4
f 2/1/4 3/1/4 11/1/4
f 3/1/4 12/1/4 11/1/4
f 154/2/3 166/2/3 157/2/3
f 166/2/3 165/2/3 157/2/3
f 157/2/3 120/2/3 154/2/3
f 120/2/3 116/2/3 114/2/3
f 118/2/3 111/2/3 112/2/3
f 118/2/3 112/2/3 153/2/3
f 112/2/3 160/2/3 153/2/3
f 160/2/3 167/2/3 168/2/3
f 160/2/3 168/2/3 153/2/3
f 154/2/3 120/2/3 114/2/3
f 114/2/3 118/2/3 154/2/3
f 38/1/5 5/1/5 32/1/5
f 5/1/72 61/1/72 32/1/72
f 32/1/5 13/1/5 38/1/5
f 14/1/5 10/1/5 8/1/5
f 14/1/5 8/1/5 7/1/5
f 6/1/5 30/1/5 38/1/5
f 14/1/5 7/1/5 13/1/5
f 7/1/5 6/1/5 13/1/5
f 17/1/1 5/1/1 38/1/1
f 91/3/73 92/3/73 108/3/73
f 19/1/3 8/1/3 10/1/3
f 147/3/7 143/3/7 16/3/7
f 52/4/1 53/4/1 54/4/1
f 24/1/8 28/1/8 29/1/8
f 27/1/9 26/1/9 19/1/9
f 152/1/3 149/1/3 150/1/3
f 48/1/3 26/1/3 27/1/3
f 155/2/3 161/2/3 159/2/3
f 161/2/3 168/2/3 162/2/3
f 159/2/3 161/2/3 162/2/3
f 168/2/3 167/2/3 162/2/3
f 159/2/3 160/2/3 112/2/3
f 159/2/3 112/2/3 109/2/3
f 109/2/3 110/2/3 117/2/3
f 113/2/3 115/2/3 119/2/3
f 159/2/3 109/2/3 155/2/3
f 109/2/3 117/2/3 155/2/3
f 166/2/3 163/2/3 164/2/3
f 163/2/3 156/2/3 158/2/3
f 156/2/3 155/2/3 117/2/3
f 156/2/3 117/2/3 113/2/3
f 164/2/3 165/2/3 166/2/3
f 120/2/3 157/2/3 158/2/3
f 158/2/3 164/2/3 163/2/3
f 156/2/3 113/2/3 119/2/3
f 119/2/3 120/2/3 158/2/3
f 34/2/4 33/2/4 36/2/4
f 33/2/4 11/2/4 133/2/4
f 134/2/4 33/2/4 133/2/4
f 12/5/10 14/5/10 13/5/10
f 140/5/10 15/5/10 16/5/10
f 12/5/10 13/5/10 11/5/10
f 13/5/10 140/5/10 11/5/10
f 140/5/10 16/5/10 133/5/10
f 34/2/11 36/2/11 37/2/11
f 28/1/3 43/1/3 42/1/3
f 56/4/1 58/4/1 59/4/1
f 147/3/3 148/3/3 146/3/3
f 147/3/3 146/3/3 145/3/3
f 142/3/3 141/3/3 143/3/3
f 147/3/3 145/3/3 144/3/3
f 144/3/3 142/3/3 143/3/3
f 44/1/12 125/1/12 124/1/12
f 124/1/12 31/1/12 44/1/12
f 31/1/12 41/1/12 40/1/12
f 130/1/1 131/1/1 50/1/1
f 65/5/3 64/5/3 86/5/3
f 64/5/3 87/5/3 86/5/3
f 86/5/3 84/5/3 18/5/3
f 121/5/3 122/5/3 65/5/3
f 86/5/3 18/5/3 65/5/3
f 49/6/74 50/6/74 53/6/74
f 17/6/14 54/6/14 53/6/14
f 39/6/75 55/6/75 54/6/75
f 49/6/16 52/6/16 55/6/16
f 40/6/76 21/6/76 56/6/76
f 45/6/14 58/6/14 56/6/14
f 44/6/77 59/6/77 58/6/77
f 44/6/16 40/6/16 57/6/16
f 2/1/19 31/1/19 22/1/19
f 31/1/19 124/1/19 22/1/19
f 129/1/19 30/1/19 6/1/19
f 132/1/3 51/1/3 32/1/3
f 73/2/20 120/2/20 119/2/20
f 2/5/3 22/5/3 81/5/3
f 22/5/3 82/5/3 81/5/3
f 74/5/3 23/5/3 75/5/3
f 23/5/3 3/5/3 75/5/3
f 2/5/3 81/5/3 75/5/3
f 39/1/12 38/1/12 30/1/12
f 30/1/12 129/1/12 49/1/12
f 129/1/12 130/1/12 49/1/12
f 132/1/21 61/1/21 50/1/21
f 61/1/21 5/1/21 17/1/21
f 61/1/21 17/1/21 50/1/21
f 81/3/73 82/3/73 99/3/73
f 82/3/78 83/3/78 100/3/78
f 93/3/23 75/3/23 81/3/23
f 76/3/79 77/3/79 95/3/79
f 79/3/80 78/3/80 96/3/80
f 80/3/81 98/3/81 96/3/81
f 79/3/82 97/3/82 100/3/82
f 76/3/83 94/3/83 98/3/83
f 95/3/84 77/3/84 74/3/84
f 74/3/85 75/3/85 93/3/85
f 87/3/86 103/3/86 102/3/86
f 89/3/87 105/3/87 104/3/87
f 90/3/88 88/3/88 104/3/88
f 89/3/89 91/3/89 107/3/89
f 85/3/85 84/3/85 101/3/85
f 84/3/84 86/3/84 102/3/84
f 92/3/90 85/3/90 101/3/90
f 87/3/91 90/3/91 106/3/91
f 63/2/43 110/2/43 109/2/43
f 64/2/38 65/2/38 112/2/38
f 66/2/92 68/2/92 115/2/92
f 67/2/93 114/2/93 116/2/93
f 70/2/41 66/2/41 113/2/41
f 71/2/42 118/2/42 114/2/42
f 68/2/37 72/2/37 119/2/37
f 69/2/38 116/2/38 120/2/38
f 70/2/94 117/2/94 110/2/94
f 71/2/95 64/2/95 111/2/95
f 45/1/1 126/1/1 125/1/1
f 46/2/19 33/2/19 34/2/19
f 34/2/19 35/2/19 51/2/19
f 35/2/19 32/2/19 51/2/19
f 124/7/19 129/7/19 128/7/19
f 124/7/12 125/7/12 130/7/12
f 126/7/1 131/7/1 130/7/1
f 127/7/21 132/7/21 131/7/21
f 132/7/3 127/7/3 46/7/3
f 136/3/46 144/3/46 145/3/46
f 1/1/21 60/1/21 21/1/21
f 60/1/21 127/1/21 45/1/21
f 21/1/21 60/1/21 45/1/21
f 148/3/96 147/3/96 139/3/96
f 147/3/5 15/3/5 140/3/5
f 135/3/46 134/3/46 141/3/46
f 133/3/4 16/3/4 143/3/4
f 143/3/4 141/3/4 134/3/4
f 136/3/97 135/3/97 142/3/97
f 93/3/3 99/3/3 97/3/3
f 99/3/3 100/3/3 97/3/3
f 97/3/3 96/3/3 98/3/3
f 94/3/3 95/3/3 93/3/3
f 97/3/3 98/3/3 94/3/3
f 137/3/48 145/3/48 146/3/48
f 139/3/46 138/3/46 146/3/46
f 105/3/3 107/3/3 108/3/3
f 108/3/3 101/3/3 103/3/3
f 101/3/3 102/3/3 103/3/3
f 103/3/3 106/3/3 105/3/3
f 106/3/3 104/3/3 105/3/3
f 48/1/49 149/1/49 152/1/49
f 47/1/50 150/1/50 149/1/50
f 42/1/51 43/1/51 152/1/51
f 9/1/19 25/1/19 29/1/19
f 42/1/19 151/1/19 150/1/19
f 12/1/19 9/1/19 29/1/19
f 42/1/19 150/1/19 47/1/19
f 12/1/19 29/1/19 42/1/19
f 20/1/19 10/1/19 27/1/19
f 10/1/19 14/1/19 27/1/19
f 14/1/19 12/1/19 42/1/19
f 47/1/19 27/1/19 14/1/19
f 135/2/3 136/2/3 138/2/3
f 136/2/3 137/2/3 138/2/3
f 138/2/3 139/2/3 37/2/3
f 36/2/3 134/2/3 135/2/3
f 138/2/3 37/2/3 135/2/3
f 127/1/3 60/1/3 33/1/3
f 122/2/52 62/2/52 109/2/52
f 109/2/52 112/2/52 122/2/52
f 166/2/3 168/2/3 161/2/3
f 170/8/3 169/8/3 171/8/3
f 173/8/3 175/8/3 176/8/3
f 177/8/3 179/8/3 180/8/3
f 181/8/3 183/8/3 184/8/3
f 165/2/53 164/2/53 169/2/53
f 164/2/98 158/2/98 171/2/98
f 158/2/55 157/2/55 172/2/55
f 165/2/99 170/2/99 172/2/99
f 168/2/57 166/2/57 173/2/57
f 166/2/100 154/2/100 175/2/100
f 153/2/59 176/2/59 175/2/59
f 168/2/101 174/2/101 176/2/101
f 167/2/61 177/2/61 178/2/61
f 167/2/102 160/2/102 179/2/102
f 159/2/63 180/2/63 179/2/63
f 162/2/103 178/2/103 180/2/103
f 161/2/65 181/2/65 182/2/65
f 161/2/104 155/2/104 183/2/104
f 155/2/67 156/2/67 184/2/67
f 163/2/105 182/2/105 184/2/105
f 139/2/5 140/2/5 32/2/5
f 140/2/5 13/2/5 32/2/5
f 32/2/106 35/2/106 37/2/106
f 90/5/3 87/5/3 64/5/3
f 62/5/3 122/5/3 121/5/3
f 121/5/3 23/5/3 62/5/3
f 23/5/3 74/5/3 77/5/3
f 77/5/3 76/5/3 63/5/3
f 76/5/3 80/5/3 63/5/3
f 23/5/3 77/5/3 62/5/3
f 63/5/3 62/5/3 77/5/3
f 90/5/3 64/5/3 71/5/3
f 91/5/3 89/5/3 69/5/3
f 89/5/3 88/5/3 69/5/3
f 88/5/3 90/5/3 67/5/3
f 90/5/3 71/5/3 67/5/3
f 78/5/3 79/5/3 68/5/3
f 79/5/3 83/5/3 68/5/3
f 70/5/3 63/5/3 80/5/3
f 70/5/3 80/5/3 66/5/3
f 80/5/3 78/5/3 66/5/3
f 88/5/3 67/5/3 69/5/3
f 91/5/3 69/5/3 73/5/3
f 92/5/3 91/5/3 6/5/3
f 91/5/3 73/5/3 6/5/3
f 18/5/3 84/5/3 85/5/3
f 7/5/3 18/5/3 85/5/3
f 123/5/3 128/5/3 73/5/3
f 128/5/3 6/5/3 73/5/3
f 82/5/3 22/5/3 83/5/3
f 22/5/3 123/5/3 72/5/3
f 83/5/3 22/5/3 72/5/3
f 6/5/3 7/5/3 85/5/3
f 6/5/3 85/5/3 92/5/3
f 68/5/3 66/5/3 78/5/3
f 123/5/3 73/5/3 72/5/3
