# Blender 5.2.2 LTS
# www.blender.org
mtllib ruins_hk_wall_c.mtl
o piece
v 2.500000 1.465383 0.097784
v 2.497588 1.327557 -0.401014
v 2.497178 -1.070603 -0.401415
v -2.497581 1.327547 -0.400912
v -2.495885 -1.068908 -0.397913
v -2.500000 -1.074401 -0.149140
v 2.500000 2.500000 -0.641880
v 2.500000 -2.500000 -0.641879
v -2.500000 -2.500000 -0.641879
v -2.500000 2.500000 -0.641880
v 2.500000 -1.277789 0.108118
v -2.500000 -1.277789 0.108120
v -2.500000 -2.500000 0.108121
v 2.500000 -1.074401 -0.149143
v 2.500000 -2.500000 0.108118
v 0.019501 -1.074217 -0.408651
v -2.500000 1.715643 0.108120
v 2.500000 1.715643 0.108120
v 2.500000 1.849827 0.255319
v 2.500000 2.500000 0.255319
v -2.500000 1.849827 0.255319
v -2.500000 2.500000 0.255319
v -2.496552 -0.154023 -0.397403
v 2.495432 -0.161262 -0.403098
v -2.498552 0.344264 -0.390729
v 0.006574 -0.147077 -0.413988
v 0.009349 1.331824 -0.409974
v -2.500000 -0.099743 -0.349805
v 2.500000 0.308917 -0.349805
v 2.500000 -0.099743 -0.349805
v 2.495641 0.363330 -0.397177
v -0.007693 0.355918 -0.410995
v -0.080524 1.281104 -0.376365
v -2.433441 0.444578 -0.376365
v -0.078861 -1.009531 -0.378065
v -0.080524 -0.199429 -0.376364
v 2.500000 0.181312 -0.389653
v -2.500000 0.185619 -0.379691
v 2.500000 0.036477 -0.409577
v 2.500000 0.007376 -0.349805
v -2.499148 -0.001520 -0.349805
v -2.499659 0.022270 -0.409577
v -2.500000 1.339886 -0.039985
v 2.500000 1.339886 -0.039985
v -2.500000 1.458645 0.098930
v 1.190695 1.741742 0.130113
v -2.129315 1.819873 0.204483
v -2.134860 1.757034 0.144538
v -1.193999 1.759194 0.143911
v -0.462722 1.818882 0.206988
v -0.467468 1.744833 0.133542
v 0.462719 1.760922 0.143406
v 1.195475 1.818882 0.206988
v 2.131530 1.760923 0.143406
v -1.183017 1.825915 0.234906
v 0.473891 1.823914 0.230825
v 2.135966 1.816900 0.212005
v -0.154445 -1.365124 0.138841
v -0.178410 -1.362359 0.212125
v 0.077707 0.919409 0.124807
v 0.026698 0.924569 0.162245
v 0.077423 0.919541 0.200073
v 0.098989 0.913763 0.162539
v 0.274227 -0.588561 0.432711
v 0.281036 -0.537854 0.385581
v -2.318634 -0.296400 0.345210
v 0.282955 -0.494890 0.338356
v 0.236648 -1.074192 0.442480
v -2.356119 -0.828406 0.404006
v -2.328173 -0.739593 0.493535
v 0.231053 -0.951025 0.461686
v -2.331760 -0.712862 0.447937
v 0.247142 -0.847290 0.400765
v -2.339372 -0.652391 0.401942
v -2.342743 -0.552907 0.433095
v 0.247608 -0.765914 0.445303
v -2.319268 -0.402579 0.402596
v 0.267704 -0.675110 0.375028
v -2.349347 -0.473534 0.360688
v 0.195049 -1.388708 0.332100
v -2.384283 -1.190633 0.356414
v -2.362069 -1.085078 0.427694
v 0.196489 -1.300259 0.379596
v -2.372685 -1.087718 0.381822
v -2.369530 -1.008908 0.378956
v 0.208926 -1.209531 0.337767
v 0.240584 -1.109986 0.384378
v -2.348529 -0.917441 0.455753
v -2.302324 -0.206384 0.387522
v 0.273049 -0.406111 0.430162
v 0.279280 -0.402951 0.382910
v -2.299073 -0.107815 0.335745
v 0.288852 -0.314265 0.368523
v -1.557170 -0.641746 0.282953
v -1.553589 -0.558119 0.327661
v -1.552833 -0.481932 0.281442
v -1.483227 -0.397947 0.315528
v -1.005076 -0.371271 0.249674
v -1.452050 -0.254658 0.309228
v -1.046173 -0.216571 0.262746
v -1.457690 -0.252603 0.357514
v -0.936399 -0.454338 0.345361
v -1.556630 -0.481145 0.329428
v -1.547338 -0.556067 0.374025
v -1.556026 -0.644621 0.330163
v -1.494214 -0.724011 0.366339
v -1.552922 -0.815502 0.330534
v -1.597414 -0.894953 0.383802
v -1.666332 -1.020439 0.349221
v -1.653661 -1.024691 0.299826
v -1.608099 -0.895828 0.338145
v -1.576333 -0.811298 0.286898
v -1.511661 -0.726637 0.321778
v -0.515031 -0.789064 0.280161
v -0.533839 -0.874865 0.315897
v -0.520596 -0.957560 0.253753
v -0.546773 -1.037260 0.293222
v -0.576280 -1.103793 0.240634
v -0.549524 -1.213405 0.290184
v -0.519364 -1.306084 0.249022
v -0.522671 -1.307265 0.295837
v -0.543852 -1.217664 0.338731
v -0.595165 -1.096446 0.284701
v -0.540943 -1.042643 0.341785
v -0.542775 -0.958632 0.297779
v -0.579571 -0.840035 0.339410
v -0.508601 -0.662537 0.338563
v -0.991693 -0.376390 0.294894
v -0.459982 -0.529095 0.317577
v -0.422524 -0.628178 0.277767
v -0.465865 -0.704735 0.313927
v 0.197432 -0.036711 0.323547
v -2.273021 0.179645 0.359623
v -2.271799 0.176737 0.313063
v 0.189591 -0.124816 0.219060
v -2.271922 0.081459 0.279276
v -2.267923 0.079787 0.227593
v 0.241687 0.406023 0.278176
v -2.235130 0.617790 0.311856
v 0.235030 0.315965 0.389975
v -2.238316 0.520411 0.399107
v 0.225716 0.228461 0.301131
v -2.242836 0.431665 0.289659
v 0.234448 0.138861 0.347400
v -2.251603 0.343902 0.381995
v -2.258414 0.259945 0.279000
v 0.223937 0.051963 0.254630
v 0.261503 0.792776 0.276621
v -2.178751 0.973369 0.231752
v 0.257182 0.773202 0.233539
v 0.254960 0.676954 0.326859
v -2.190293 0.876090 0.319317
v 0.248741 0.588941 0.257032
v -2.195592 0.785321 0.232909
v -2.233017 0.704425 0.343685
v 0.247504 0.493622 0.375272
v 0.182349 -0.223122 0.289788
v -2.275071 -0.017275 0.378698
v -2.273795 -0.020756 0.331280
v 0.170069 -0.307673 0.211597
v -2.280777 -0.108266 0.289259
v -2.276882 -0.099193 0.241759
v -0.520614 0.225748 0.219848
v -0.524362 0.142136 0.307480
v -0.525383 0.065972 0.218337
v -0.592203 -0.018257 0.295347
v -0.637867 -0.093138 0.198599
v -0.617166 -0.163651 0.337333
v -0.655206 -0.095055 0.243088
v -0.586946 -0.020072 0.343604
v -0.521759 0.065199 0.266323
v -0.530342 0.140059 0.353843
v -0.521696 0.228618 0.267058
v -0.580433 0.307738 0.346158
v -0.523993 0.399428 0.267430
v -0.481181 0.479025 0.363621
v -0.414855 0.604739 0.286116
v -1.007369 0.755720 0.295715
v -0.470970 0.479943 0.317963
v -0.501646 0.395317 0.223793
v -0.563756 0.310432 0.301597
v -1.515560 0.368933 0.217056
v -1.497256 0.454778 0.295715
v -1.509584 0.537393 0.190649
v -1.484267 0.617168 0.273041
v -1.455819 0.683794 0.177529
v -1.509399 0.885793 0.185917
v -0.975051 0.754641 0.343918
v -1.437808 0.676524 0.221597
v -1.489815 0.622527 0.321603
v -1.488393 0.538551 0.234675
v -1.489391 0.455923 0.337458
v -1.479059 0.370138 0.266347
v -1.546359 0.284313 0.337820
v -1.604557 0.207740 0.214662
v -1.562856 0.284441 0.293745
v -2.211983 -1.184240 0.135432
v -2.219579 -1.183784 0.207364
v -2.158423 -1.187452 0.171903
v -2.064039 1.244957 0.131613
v -2.040240 1.243529 0.204991
v 2.043550 -0.015218 0.138841
v 2.019448 -0.016239 0.212125
v 1.915795 2.277329 0.124811
v 1.864602 2.274649 0.162246
v 1.915484 2.277834 0.200074
v 1.937693 2.275295 0.162540
v 2.345573 0.818905 0.432711
v 2.344374 0.870054 0.385581
v -0.261027 0.701486 0.345210
v 2.339554 0.912790 0.338357
v 2.384357 0.333369 0.442479
v -0.214902 0.170160 0.404006
v -0.201181 0.262256 0.493535
v 2.359581 0.454143 0.461686
v -0.208902 0.288097 0.447937
v 2.359259 0.559121 0.400765
v -0.225871 0.346631 0.401942
v -0.244749 0.444362 0.433095
v 2.347001 0.639567 0.445303
v -0.245058 0.596515 0.402596
v 2.352658 0.732400 0.375028
v -0.263678 0.521724 0.360688
v 2.392427 0.016212 0.332100
v -0.186107 -0.192016 0.356414
v -0.180664 -0.084283 0.427694
v 2.380026 0.103797 0.379596
v -0.190736 -0.088553 0.381822
v -0.199937 -0.010219 0.378956
v 2.378129 0.195355 0.337767
v 2.393839 0.298633 0.384378
v -0.193491 0.083411 0.455753
v -0.258986 0.792948 0.387522
v 2.315895 0.998925 0.430162
v 2.321555 1.003021 0.382910
v -0.271181 0.890812 0.335745
v 2.317149 1.092114 0.368523
v 0.545037 0.479620 0.282953
v 0.535503 0.562778 0.327661
v 0.524343 0.638145 0.281442
v 0.579965 0.731995 0.315528
v 1.048061 0.833210 0.249674
v 0.588364 0.878401 0.309228
v 0.983283 0.979571 0.262746
v 0.582472 0.879548 0.357514
v 1.128875 0.761919 0.345361
v 0.520470 0.638329 0.329428
v 0.541357 0.565784 0.374025
v 0.546616 0.476959 0.330163
v 0.620075 0.408225 0.366339
v 0.576389 0.308668 0.330535
v 0.544862 0.223229 0.383802
v 0.496406 0.088497 0.349221
v 0.509585 0.086282 0.299826
v 0.534445 0.220691 0.338145
v 0.552609 0.309154 0.286898
v 0.603253 0.402900 0.321778
v 1.597370 0.497291 0.280161
v 1.592203 0.409602 0.315897
v 1.618208 0.329998 0.253753
v 1.604809 0.247181 0.293223
v 1.586064 0.176847 0.240634
v 1.629622 0.072773 0.290184
v 1.673896 -0.014042 0.249022
v 1.670815 -0.015727 0.295837
v 1.635890 0.069455 0.338731
v 1.566263 0.181146 0.284702
v 1.611409 0.242776 0.341785
v 1.596469 0.325467 0.297779
v 1.541589 0.436841 0.339410
v 1.583944 0.623266 0.338563
v 1.062080 0.830250 0.294895
v 1.611110 0.762679 0.317578
v 1.663593 0.670681 0.277767
v 1.632751 0.588280 0.313927
v 2.183474 1.351937 0.323548
v -0.290378 1.178813 0.359623
v -0.288716 1.176132 0.313062
v 2.189501 1.263689 0.219060
v -0.273946 1.082008 0.279276
v -0.269736 1.080982 0.227593
v 2.157989 1.796149 0.278177
v -0.321432 1.617496 0.311856
v 2.165489 1.706157 0.389975
v -0.309358 1.520817 0.399107
v 2.169966 1.618273 0.301131
v -0.299952 1.432456 0.289660
v 2.192595 1.531143 0.347400
v -0.294895 1.344401 0.381995
v -0.288500 1.260411 0.279000
v 2.195794 1.443668 0.254630
v 2.117115 2.181243 0.276621
v -0.321321 1.977525 0.231753
v 2.115907 2.161233 0.233539
v 2.128755 2.065823 0.326859
v -0.317517 1.879636 0.319317
v 2.136367 1.977919 0.257032
v -0.308564 1.789155 0.232909
v -0.332885 1.703395 0.343685
v 2.150043 1.883580 0.375272
v 2.197712 1.165459 0.289788
v -0.261626 0.983996 0.378698
v -0.259821 0.980757 0.331280
v 2.198798 1.080026 0.211597
v -0.253040 0.893232 0.289260
v -0.250611 0.902803 0.241759
v 1.433249 1.498735 0.219849
v 1.442614 1.415565 0.307480
v 1.453511 1.340179 0.218337
v 1.400677 1.246525 0.295347
v 1.367278 1.165416 0.198599
v 1.398746 1.099012 0.337333
v 1.350453 1.160807 0.243088
v 1.406152 1.245555 0.343604
v 1.457211 1.339983 0.266323
v 1.437033 1.412577 0.353843
v 1.431731 1.501400 0.267059
v 1.361352 1.570349 0.346158
v 1.402766 1.669747 0.267430
v 1.432611 1.755068 0.363621
v 1.478472 1.889619 0.286117
v 0.869649 1.945966 0.295715
v 1.442553 1.757573 0.317964
v 1.425481 1.669186 0.223793
v 1.377403 1.575621 0.301597
v 0.428173 1.484371 0.217056
v 0.432835 1.572025 0.295715
v 0.407747 1.651692 0.190649
v 0.420285 1.734450 0.273041
v 0.437969 1.804710 0.177530
v 0.353478 1.995832 0.185917
v 0.901742 1.949961 0.343918
v 0.456894 1.800349 0.221597
v 0.413967 1.738874 0.321603
v 0.428496 1.656155 0.234675
v 0.440424 1.574387 0.337459
v 0.464037 1.491276 0.266347
v 0.410979 1.395970 0.337820
v 0.365466 1.311227 0.214663
v 0.394665 1.393514 0.293746
v -0.033146 -0.160307 0.151454
v 0.028978 -0.154242 0.196804
v -0.202812 2.268383 0.171903
v -0.279602 2.260885 0.171903
v 1.080470 2.219272 0.473693
v 1.080470 1.379450 0.416305
v 1.919528 2.219272 0.416305
v 1.080470 1.379450 0.473980
v 1.919528 2.219272 0.473980
v 1.919528 1.379450 0.473693
v 1.475344 2.048634 0.497074
v 1.749358 2.053818 0.546878
v 1.846787 1.885749 0.502847
v 1.592351 1.548524 0.533851
v 1.243180 2.073857 0.500964
v 1.785235 1.775275 0.508612
v 1.471154 1.501254 0.486234
v 1.182974 1.756015 0.525007
v 1.777075 2.125876 0.501739
v 1.766917 1.510411 0.516044
v 1.228555 1.512430 0.500554
v 1.147443 1.630243 0.497810
v 1.353720 1.447885 0.506912
v 1.018864 2.271754 0.308120
v 1.034990 2.274169 0.486586
v 1.028058 1.317771 0.308121
v 1.016950 1.375437 0.492386
v 1.978397 2.278213 0.308120
v 1.979628 1.322015 0.469468
v 1.975129 1.323783 0.308121
v 1.004688 1.967225 0.498607
v 1.050127 1.321109 0.489345
v 1.947499 1.342486 0.499337
v 1.966957 2.266761 0.491664
v 1.371181 2.114709 0.506805
v 1.899692 1.888581 0.394019
v 1.829935 1.750560 0.393488
v 1.761853 2.089138 0.396583
v 1.472420 2.089854 0.394019
v 1.597198 1.533257 0.395431
v 1.458843 1.448034 0.399398
v 1.646033 1.495803 0.394644
v 1.093080 1.605837 0.394019
v 1.151292 1.745283 0.394835
v 1.182150 1.471210 0.394019
v 1.358658 2.151252 0.394289
v 1.200235 2.115419 0.398287
v 1.805114 1.471471 0.391938
v 1.817988 1.640188 0.510908
v 1.919020 2.071491 0.400967
v 1.906192 2.063055 0.428805
v 1.909315 2.042335 0.407866
v 1.847710 2.097688 0.373655
v 1.798050 2.072278 0.371166
v 1.804238 2.084089 0.398809
v 1.902801 2.047157 0.427777
v 1.889971 2.038718 0.455615
v 1.893092 2.017997 0.434680
v 1.823684 2.064603 0.395940
v 1.808594 2.051433 0.422501
v 1.909188 2.086639 0.436233
v 1.896360 2.078205 0.464072
v 1.899481 2.057483 0.443135
v 1.795092 2.120073 0.415672
v 1.791973 2.087202 0.407627
v 1.800615 2.098737 0.434733
v 1.624689 1.889949 0.471199
v 1.733716 1.906329 0.492260
v 1.722887 1.932954 0.509890
v 1.649412 1.929068 0.612610
v 1.618358 1.954351 0.628990
v 1.691787 1.978095 0.511214
v 1.688125 1.998873 0.535330
v 1.689324 1.978645 0.480737
v 1.699285 1.968961 0.454005
v 1.723818 2.057065 0.423773
v 1.764880 2.066059 0.422610
v 1.096918 1.499384 0.426236
v 1.117306 1.486418 0.424760
v 1.114501 1.505697 0.446261
v 1.187504 1.623384 0.433305
v 1.192736 1.602670 0.447615
v 1.112630 1.513312 0.456681
v 1.136465 1.505242 0.466821
v 1.129860 1.519571 0.475973
v 1.184178 1.603347 0.466218
v 1.195087 1.578189 0.462488
v 1.202345 1.607633 0.447530
v 1.129211 1.486021 0.437388
v 1.153039 1.477954 0.447524
v 1.146434 1.492282 0.456678
v 1.204415 1.587936 0.447805
v 1.226113 1.570259 0.446583
v 1.220952 1.587697 0.425719
v 1.251758 1.768487 0.573839
v 1.199586 1.680224 0.600101
v 1.232655 1.667943 0.587927
v 1.334706 1.683163 0.641880
v 1.357211 1.686284 0.627713
v 1.269475 1.664534 0.552634
v 1.253746 1.676604 0.532972
v 1.228760 1.684176 0.524327
v 1.231613 1.633576 0.452534
v 1.927351 2.180883 0.499203
v 1.931858 2.214052 0.501198
v 1.899020 2.230963 0.499658
v 1.866183 2.214052 0.501198
v 1.888217 2.177544 0.494118
v 1.909826 1.430290 0.494119
v 1.866183 1.427375 0.501198
v 1.888214 1.390868 0.494120
v 1.931858 1.393782 0.501198
v 1.104472 1.430290 0.494119
v 1.060829 1.427375 0.501198
v 1.082860 1.390868 0.494119
v 1.126503 1.393782 0.501198
v 1.121997 2.180883 0.499203
v 1.126503 2.214052 0.501198
v 1.093665 2.230963 0.499658
v 1.060829 2.214052 0.501198
v 1.082863 2.177544 0.494118
v 1.848520 1.516989 0.471904
v 1.841901 1.547977 0.474834
v 1.841294 1.531062 0.499116
v 1.731705 1.514535 0.441858
v 1.727974 1.513564 0.475601
v 1.741621 1.535700 0.459270
v 1.634120 1.771794 0.591441
v 1.607241 1.786955 0.562634
v 1.654329 1.654144 0.562199
v 1.655058 1.674219 0.537239
v 1.539282 1.652590 0.481168
v 1.459995 1.652590 0.464303
v 1.505898 1.652590 0.384797
v 1.560147 1.591542 0.445029
v 1.479667 1.591542 0.483233
v 1.477208 1.591542 0.388110
v 1.525185 2.111937 0.471207
v 1.466008 2.111937 0.443115
v 1.526993 2.111937 0.401263
v 1.525185 1.480048 0.404395
v 1.526993 1.480048 0.474339
v 1.466008 1.480048 0.432486
v 1.560146 1.982133 0.430573
v 1.505897 1.951609 0.490805
v 1.451648 1.982133 0.445029
v 1.505897 1.982133 0.384797
v 1.560146 1.921085 0.445029
v 1.451648 1.921085 0.430573
v 1.505897 1.921085 0.384797
v 1.390402 1.652590 0.481168
v 1.299639 1.652590 0.437801
v 1.383248 1.652590 0.392369
v 1.385707 1.591542 0.388110
v 1.377883 1.591542 0.488395
v 1.304557 1.591542 0.437801
v 1.376305 2.111937 0.471207
v 1.317128 2.111937 0.443115
v 1.378113 2.111937 0.401263
v 1.376305 1.480048 0.404395
v 1.378113 1.480048 0.474339
v 1.317128 1.480048 0.432486
v 1.411266 1.982133 0.430573
v 1.357017 1.982133 0.490805
v 1.302768 1.982133 0.445029
v 1.357017 1.951609 0.384797
v 1.411266 1.921085 0.445029
v 1.357017 1.921085 0.490805
v 1.302768 1.921085 0.430573
vn -0.0036 0.0040 1.0000
vn -0.0015 0.9999 0.0151
vn -0.0096 0.0271 0.9996
vn -0.9998 -0.0007 0.0212
vn -0.0000 -0.0000 1.0000
vn 0.0022 0.9998 0.0221
vn 0.0018 -0.1327 0.9912
vn -0.0000 1.0000 -0.0000
vn -0.0139 -0.8056 0.5923
vn 1.0000 -0.0000 -0.0000
vn -0.9999 0.0087 0.0120
vn 0.9981 -0.0249 -0.0568
vn -0.0077 0.0695 0.9976
vn 0.3027 0.0097 0.9530
vn 0.0030 -0.4238 0.9058
vn -0.0026 0.8991 0.4377
vn -0.0000 -0.7601 0.6498
vn 0.0004 -0.1363 0.9907
vn -0.0105 -0.8106 0.5855
vn -0.0050 -0.7746 0.6324
vn -0.0090 -0.8890 0.4579
vn -1.0000 -0.0000 -0.0000
vn 0.0997 0.9950 -0.0014
vn -0.9467 0.0781 -0.3125
vn 0.8570 -0.0934 0.5068
vn -0.0757 -0.6031 -0.7940
vn 0.1055 0.5123 0.8523
vn -0.1017 -0.4875 -0.8672
vn 0.0517 0.3891 -0.9197
vn 0.9944 -0.0994 0.0367
vn -0.0148 -0.3353 0.9420
vn 0.9983 0.0385 0.0439
vn 0.0216 0.3667 -0.9301
vn -0.9763 0.1444 0.1615
vn 0.0852 0.4673 0.8800
vn -0.0620 -0.3721 -0.9261
vn 0.0332 -0.0085 0.9994
vn 0.0638 0.4684 -0.8812
vn -0.0804 -0.5164 -0.8526
vn 0.0023 -0.4313 0.9022
vn -0.0282 0.3981 -0.9169
vn -0.9735 0.0549 0.2221
vn 0.0755 0.4324 0.8985
vn -0.0747 -0.4258 -0.9017
vn -0.9738 0.0471 0.2226
vn 0.0375 -0.2846 0.9579
vn -0.0308 0.2949 -0.9550
vn 0.9985 0.0141 0.0534
vn 0.0144 0.5555 0.8314
vn -0.0244 -0.6584 -0.7523
vn -0.0635 -0.9975 -0.0297
vn 0.0804 0.9919 -0.0983
vn -0.1247 0.2927 -0.9480
vn -0.1021 -0.6750 -0.7307
vn -0.0954 0.4412 -0.8923
vn -0.0887 -0.4732 -0.8765
vn -0.0582 0.4333 -0.8994
vn -0.0914 -0.4607 -0.8828
vn 0.0568 0.4628 0.8846
vn 0.0087 -0.4251 0.9051
vn 0.0541 0.4745 0.8786
vn 0.0079 -0.6394 0.7688
vn 0.1124 0.1807 0.9771
vn 0.0741 0.0972 0.9925
vn 0.0009 0.8627 0.5057
vn 0.1435 -0.4391 0.8869
vn 0.0673 0.5056 0.8601
vn 0.0217 -0.6458 0.7632
vn -0.1105 -0.0317 -0.9934
vn -0.0692 0.6508 -0.7561
vn -0.1208 -0.5065 -0.8537
vn -0.1456 0.3783 -0.9142
vn -0.1110 -0.6105 -0.7842
vn 0.1320 -0.4056 -0.9045
vn 0.2364 0.4364 -0.8682
vn 0.0603 -0.4588 -0.8865
vn 0.1756 0.5613 -0.8087
vn 0.0588 -0.4246 -0.9035
vn 0.1552 0.4654 -0.8714
vn -0.0976 -0.4696 0.8775
vn -0.0034 0.4191 0.9079
vn -0.1272 -0.5905 0.7969
vn -0.1884 -0.3768 0.9069
vn -0.1861 -0.4709 0.8623
vn -0.0270 0.6156 0.7876
vn -0.0951 -0.2271 0.9692
vn 0.0337 0.6780 0.7343
vn 0.1035 0.4371 -0.8934
vn 0.0528 -0.7397 -0.6708
vn 0.0884 0.4000 -0.9123
vn 0.1192 -0.4784 -0.8700
vn 0.1708 0.2788 -0.9450
vn -0.0852 -0.7700 0.6323
vn -0.9965 0.0290 -0.0780
vn 0.0826 0.7689 -0.6341
vn -0.1322 -0.7340 0.6662
vn 0.1275 0.7167 -0.6856
vn -0.0826 -0.6420 -0.7622
vn -0.9888 0.1448 -0.0350
vn 0.1201 0.7732 0.6227
vn -0.0663 -0.6474 -0.7593
vn -0.1102 -0.7424 0.6608
vn 0.1066 0.6593 -0.7443
vn 0.0732 0.6037 0.7938
vn -0.1013 -0.7176 -0.6890
vn -0.0524 -0.5227 0.8509
vn 0.1120 0.7549 -0.6462
vn 0.0271 0.5702 0.8211
vn -0.0254 -0.7003 -0.7134
vn -0.0162 0.5309 0.8473
vn 0.0096 -0.5354 -0.8445
vn 0.1024 0.8235 0.5580
vn -0.9969 -0.0206 -0.0764
vn -0.1044 -0.9214 -0.3743
vn -0.0439 -0.6989 0.7139
vn -0.9923 0.1083 -0.0607
vn 0.0507 0.7503 -0.6591
vn 0.0675 0.8162 -0.5739
vn -0.0857 -0.9773 -0.1937
vn 0.0448 -0.4549 -0.8894
vn 0.0392 0.7270 -0.6855
vn 0.0103 -0.6792 -0.7339
vn 0.0409 0.7623 -0.6459
vn -0.0068 -0.6784 0.7347
vn 0.0451 0.8163 0.5759
vn 0.0003 -0.7645 0.6446
vn 0.0332 0.6571 0.7531
vn -0.0033 -0.7601 0.6498
vn 0.0082 0.4594 0.8882
vn -0.0322 -0.7104 0.7031
vn -0.0467 0.6671 0.7435
vn 0.0042 -0.7426 0.6697
vn 0.0460 0.7775 0.6272
vn -0.0126 -0.4003 0.9163
vn -0.0257 -0.6956 -0.7180
vn 0.0394 0.7407 -0.6706
vn 0.0569 -0.7792 -0.6242
vn 0.0741 0.7066 -0.7037
vn -0.0190 0.7770 -0.6292
vn -0.1947 -0.6510 -0.7337
vn -0.0482 0.3455 -0.9372
vn -0.1528 -0.7886 -0.5956
vn 0.0554 0.6867 -0.7248
vn -0.1365 -0.6538 -0.7443
vn -0.0831 -0.6846 0.7242
vn 0.1047 0.7860 0.6093
vn -0.0101 -0.3446 0.9387
vn 0.1179 0.6605 0.7415
vn -0.0281 -0.6399 0.7679
vn 0.1037 0.7160 0.6904
vn -0.0257 0.7243 -0.6890
vn -0.1307 -0.6252 -0.7694
vn -0.9926 0.0603 -0.1052
vn 0.4997 -0.0361 0.8655
vn 0.9501 -0.0420 -0.3090
vn 0.2374 -0.0409 0.9705
vn 0.0024 -0.0434 0.9991
vn -0.9473 -0.0708 -0.3125
vn 0.8611 0.0417 0.5067
vn 0.0197 -0.6075 -0.7940
vn -0.0179 0.6390 0.7690
vn 0.0240 0.5225 0.8523
vn -0.0241 -0.4974 -0.8672
vn -0.0098 0.3924 -0.9197
vn 0.9977 0.0572 0.0367
vn 0.0379 -0.3334 0.9420
vn 0.9800 0.1941 0.0439
vn -0.0361 0.3656 -0.9301
vn -0.9868 -0.0099 0.1615
vn 0.0110 0.4749 0.8800
vn -0.0030 -0.3772 -0.9261
vn 0.0342 -0.0032 0.9994
vn -0.0103 0.4726 -0.8812
vn 0.0015 -0.5226 -0.8526
vn 0.0698 -0.4257 0.9022
vn -0.0901 0.3888 -0.9169
vn -0.9701 -0.0979 0.2221
vn 0.0069 0.4389 0.8985
vn -0.0071 -0.4323 -0.9017
vn -0.9692 -0.1057 0.2226
vn 0.0816 -0.2752 0.9579
vn -0.0766 0.2864 -0.9550
vn 0.9840 0.1699 0.0534
vn -0.0728 0.5509 0.8314
vn 0.0790 -0.6541 -0.7523
vn 0.0935 -0.9952 -0.0297
vn -0.0759 0.9923 -0.0983
vn -0.1690 0.2696 -0.9480
vn 0.0049 -0.6827 -0.7307
vn -0.1633 0.4209 -0.8923
vn -0.0135 -0.4812 -0.8765
vn -0.1253 0.4189 -0.8994
vn -0.0182 -0.4693 -0.8828
vn -0.0164 0.4660 0.8846
vn 0.0752 -0.4185 0.9051
vn -0.0208 0.4771 0.8786
vn 0.1079 -0.6303 0.7688
vn 0.0827 0.1960 0.9771
vn 0.0580 0.1076 0.9925
vn -0.1342 0.8522 0.5057
vn 0.2105 -0.4113 0.8869
vn -0.0127 0.5099 0.8601
vn 0.1225 -0.6344 0.7632
vn -0.1042 -0.0486 -0.9934
vn -0.1703 0.6319 -0.7561
vn -0.0400 -0.5191 -0.8537
vn -0.2030 0.3508 -0.9142
vn -0.0140 -0.6203 -0.7842
vn 0.1939 -0.3800 -0.9044
vn 0.1651 0.4680 -0.8682
vn 0.1313 -0.4437 -0.8865
vn 0.0856 0.5819 -0.8088
vn 0.1246 -0.4102 -0.9035
vn 0.0804 0.4839 -0.8714
vn -0.0229 -0.4791 0.8775
vn -0.0689 0.4134 0.9079
vn -0.0331 -0.6031 0.7969
vn -0.1271 -0.4016 0.9069
vn -0.1101 -0.4942 0.8623
vn -0.1231 0.6037 0.7876
vn -0.0584 -0.2391 0.9692
vn -0.0729 0.6749 0.7343
vn 0.0338 0.4479 -0.8935
vn 0.1680 -0.7223 -0.6708
vn 0.0247 0.4089 -0.9123
vn 0.1926 -0.4539 -0.8700
vn 0.1251 0.3021 -0.9450
vn 0.0364 -0.7739 0.6323
vn -0.9888 -0.1272 -0.0780
vn -0.0388 0.7723 -0.6341
vn -0.0156 -0.7456 0.6662
vn 0.0137 0.7278 -0.6856
vn 0.0824 0.6339 0.7690
vn 0.0190 -0.6470 -0.7622
vn -0.9993 -0.0116 -0.0350
vn -0.0025 0.7824 0.6227
vn 0.0359 -0.6498 -0.7593
vn 0.0074 -0.7505 0.6608
vn 0.0021 0.6678 -0.7443
vn -0.0222 0.6077 0.7938
vn 0.0123 -0.7246 -0.6890
vn 0.0301 -0.5244 0.8509
vn -0.0076 0.7631 -0.6463
vn -0.0625 0.5674 0.8211
vn 0.0846 -0.6956 -0.7134
vn -0.0991 0.5218 0.8473
vn 0.0933 -0.5273 -0.8445
vn -0.0278 0.8293 0.5580
vn -0.9814 -0.1762 -0.0765
vn 0.0412 -0.9264 -0.3743
vn 0.0661 -0.6972 0.7138
vn -0.9970 -0.0481 -0.0607
vn -0.0674 0.7490 -0.6591
vn -0.0611 0.8167 -0.5739
vn 0.0684 -0.9787 -0.1937
vn 0.1155 -0.4423 -0.8894
vn -0.0751 0.7242 -0.6855
vn 0.1166 -0.6692 -0.7339
vn -0.0790 0.7593 -0.6459
vn 0.0995 -0.6711 0.7346
vn -0.0832 0.8133 0.5759
vn 0.1200 -0.7550 0.6446
vn -0.0701 0.6542 0.7531
vn 0.1157 -0.7512 0.6498
vn -0.0638 0.4551 0.8882
vn 0.0794 -0.7067 0.7031
vn -0.1506 0.6516 0.7435
vn 0.1204 -0.7328 0.6697
vn -0.0763 0.7751 0.6272
vn 0.0503 -0.3974 0.9163
vn 0.0835 -0.6910 -0.7180
vn -0.0771 0.7378 -0.6706
vn 0.1782 -0.7606 -0.6242
vn -0.0375 0.7095 -0.7037
vn -0.1404 0.7644 -0.6292
vn -0.0904 -0.6734 -0.7337
vn -0.1017 0.3337 -0.9372
vn -0.0275 -0.8028 -0.5956
vn -0.0528 0.6869 -0.7248
vn -0.0325 -0.6671 -0.7443
vn 0.0251 -0.6891 0.7242
vn -0.0196 0.7927 0.6094
vn 0.0440 -0.3420 0.9387
vn 0.0130 0.6708 0.7415
vn 0.0724 -0.6365 0.7679
vn -0.0096 0.7234 0.6904
vn -0.1388 0.7114 -0.6889
vn -0.0312 -0.6379 -0.7695
vn -0.0008 0.0084 -1.0000
vn -0.5841 -0.0663 0.8090
vn 0.0681 -0.0680 0.9954
vn 0.0943 0.0023 0.9955
vn 0.0440 0.0276 0.9987
vn -0.1008 0.5444 0.8327
vn -0.1577 0.5671 0.8084
vn -0.9958 0.0206 0.0897
vn 0.9996 -0.0034 -0.0279
vn 0.0014 -0.9998 0.0182
vn 0.0076 0.9980 0.0627
vn -0.0514 0.0183 0.9985
vn -0.3840 0.0017 -0.9233
vn 0.6781 -0.0082 0.7350
vn -0.8073 0.4287 -0.4055
vn -0.7631 -0.5195 -0.3845
vn -0.0004 -0.9735 -0.2288
vn -0.4880 0.7733 -0.4048
vn 0.1760 0.9411 -0.2885
vn -0.9959 0.0887 -0.0180
vn 0.9513 -0.2227 -0.2132
vn 0.7222 0.4857 -0.4925
vn 0.3010 -0.8966 -0.3247
vn 0.8990 -0.1149 -0.4225
vn 0.0844 0.9164 -0.3913
vn -0.5306 -0.7921 -0.3018
vn 0.2267 -0.2951 -0.9282
vn -0.3022 -0.8503 0.4309
vn 0.0785 0.8139 0.5757
vn -0.3400 0.9369 -0.0810
vn 0.2947 -0.3119 -0.9032
vn -0.2924 -0.8767 0.3819
vn 0.1243 0.9673 0.2212
vn 0.2252 -0.2948 -0.9286
vn -0.3179 -0.8317 0.4553
vn 0.0649 0.6741 0.7358
vn 0.7594 -0.6422 0.1044
vn 0.7742 -0.0990 0.6251
vn 0.1702 0.5022 0.8478
vn 0.7540 -0.6557 0.0386
vn -0.1107 0.7645 0.6351
vn -0.8452 0.3346 -0.4166
vn -0.6860 -0.5001 -0.5285
vn 0.6514 0.3713 0.6617
vn -0.7910 0.5470 0.2740
vn 0.1727 -0.3624 -0.9159
vn -0.5079 0.3991 0.7634
vn 0.0597 -0.2297 0.9714
vn -0.0246 0.0748 -0.9969
vn -0.6506 0.5701 -0.5017
vn 0.4581 -0.3188 0.8298
vn 0.2675 -0.3419 -0.9009
vn -0.6683 0.5449 -0.5063
vn 0.0879 0.0391 0.9954
vn 0.4335 -0.3347 0.8367
vn 0.2666 -0.3439 -0.9004
vn -0.9195 0.0381 0.3913
vn 0.9562 -0.2796 -0.0864
vn -0.4381 0.8334 -0.3371
vn -0.4726 -0.6232 0.6231
vn 0.3296 -0.8852 0.3285
vn 0.3047 0.7587 -0.5758
vn -0.1814 0.9808 -0.0721
vn 0.9216 0.1742 -0.3467
vn -0.8416 0.4252 -0.3331
vn -0.5531 0.7484 -0.3661
vn 1.0000 0.0027 -0.0068
vn -0.0000 0.0907 0.9959
vn -0.0043 0.0057 1.0000
vn 0.0394 -0.8832 0.4673
vn -0.1935 0.6569 0.7287
vn 0.1939 0.5675 -0.8002
vn 0.7648 0.0038 0.6443
vn -0.0157 0.4830 -0.8755
vn -0.9220 -0.2881 -0.2586
vn -0.7709 -0.2752 0.5745
vn 0.7615 0.4319 -0.4833
vn 0.8395 0.4591 -0.2908
vn -0.2025 0.2299 0.9519
vn -0.9537 -0.2997 0.0247
vn -1.0000 0.0027 -0.0068
vn -0.0082 -0.0006 1.0000
vn 0.9997 -0.0030 -0.0258
vn -0.4288 0.0033 0.9034
vn -0.5658 0.0139 -0.8244
vn 0.6890 0.1670 0.7052
vn -0.7339 0.1565 -0.6610
vn 0.6449 -0.0000 -0.7643
vn 0.9957 0.0457 -0.0802
vn -0.4231 0.1916 0.8856
vn -0.5217 -0.0420 -0.8521
vn 0.0012 -0.6086 0.7935
vn 1.0000 0.0019 0.0003
vn 0.7339 0.1565 0.6610
vn -0.6449 -0.0000 0.7643
vn -0.6890 0.1670 -0.7052
vn -0.0000 0.7845 0.6202
vn -0.0055 -0.0010 1.0000
vn -0.0000 -1.0000 -0.0000
vn -0.0000 -0.0000 -1.0000
vn 0.0129 -0.0364 0.9993
vn -0.9786 0.0232 0.2044
vn -0.9999 0.0011 0.0156
vn -0.9999 -0.0000 0.0141
vn -1.0000 -0.0008 -0.0070
vn -0.9996 -0.0215 -0.0170
vn -1.0000 0.0040 -0.0065
vn -0.8149 -0.0542 -0.5770
vn -0.2937 0.9186 -0.2645
vn 0.2274 0.9358 -0.2694
vn -0.0120 -0.0357 0.9993
vn 0.0004 -0.1144 0.9934
vn 0.0160 -0.0413 0.9990
vn 0.0021 -0.6903 0.7235
vn -0.9986 -0.0209 -0.0484
vn -0.0075 -0.8060 0.5919
vn 0.0007 -0.5516 0.8341
vn -0.0006 -0.9733 0.2295
vn 0.0206 -0.7047 0.7092
vn 0.0016 -0.2981 0.9545
vn 0.3538 -0.0072 0.9353
vn 0.0021 0.5498 0.8353
vn -0.2305 0.0103 0.9730
vn 0.0087 -0.1473 0.9891
vn 0.3971 -0.0011 0.9178
vn 0.0038 0.5794 0.8150
vn 0.0010 0.8116 0.5842
vn -0.0061 0.6563 0.7544
vn 0.9975 0.0211 -0.0676
vn -0.0070 -0.6544 0.7561
vn -0.0000 -0.8048 0.5935
vn 0.0068 -0.6591 0.7521
vn -0.0017 0.9291 0.3698
vn -0.5886 -0.0377 -0.8076
vn -0.1368 -0.2675 0.9538
vn 0.1368 0.2675 0.9538
vn 0.0012 -0.7393 0.6734
vn 0.0018 -0.1800 0.9837
vn 0.0047 -0.7044 0.7098
vn 0.2937 0.9186 0.2645
vn -0.2274 0.9358 0.2695
vn 0.0044 -0.7060 0.7082
vn -0.0010 -0.6173 0.7867
vn 0.0020 -0.6706 0.7418
vn 0.0166 -0.7389 0.6736
vn 0.0430 -0.6916 0.7210
vn -0.0018 -0.9994 0.0341
vn -0.0000 -0.9998 0.0218
vn 0.0018 -0.9994 0.0342
vn -0.0599 -0.9982 -0.0000
vn -0.5956 -0.0228 0.8030
vn -0.5872 0.0547 -0.8076
vn -0.0107 -0.8106 0.5855
vn -0.0028 -0.9921 0.1258
vn 0.0032 -0.8090 0.5878
vn 0.0185 -0.7063 0.7076
vn 0.2576 0.9662 -0.0007
vn 0.9437 -0.1082 0.3127
vn 0.8616 -0.0906 -0.4995
vn 0.0943 0.4635 0.8810
vn -0.0864 -0.4192 -0.9038
vn -0.0222 -0.0782 0.9967
vn 0.0417 0.3459 -0.9374
vn -0.0197 -0.3534 0.9353
vn 0.0873 0.6074 -0.7896
vn -0.0651 -0.4437 -0.8938
vn -0.0954 -0.4343 0.8957
vn 0.0358 0.3534 -0.9348
vn -0.9945 -0.0604 0.0852
vn 0.0821 0.5173 0.8519
vn -0.0548 -0.4009 -0.9145
vn -0.9268 0.2082 0.3127
vn -0.0003 -0.5596 0.8288
vn -0.0320 0.2430 -0.9695
vn 0.0788 0.3045 0.9493
vn -0.0766 -0.3434 -0.9361
vn -0.0683 -0.6928 0.7179
vn 0.8516 -0.4186 0.3156
vn 0.0472 0.6064 -0.7937
vn -0.0920 -0.7029 0.7053
vn 0.9912 0.0155 0.1317
vn 0.0903 0.7053 -0.7031
vn -0.0012 0.1416 0.9899
vn 0.9884 -0.0865 0.1246
vn -0.1389 0.4715 -0.8709
vn -0.0902 -0.5159 -0.8519
vn -0.0783 0.5314 -0.8435
vn -0.0911 -0.4972 -0.8628
vn -0.0534 0.2841 -0.9573
vn -0.0990 -0.1467 -0.9842
vn 0.0088 -0.4267 0.9044
vn 0.0656 0.5747 0.8158
vn 0.0655 0.5164 0.8539
vn 0.1726 -0.4507 0.8758
vn 0.1226 0.4890 0.8636
vn 0.0747 -0.7195 0.6904
vn 0.0689 0.5286 0.8460
vn 0.0998 -0.3149 0.9438
vn 0.0444 0.5415 0.8395
vn -0.1574 0.3322 -0.9300
vn -0.1198 -0.4814 -0.8683
vn -0.1275 0.4595 -0.8790
vn -0.1417 -0.4735 -0.8693
vn 0.0954 -0.5151 -0.8518
vn 0.2066 0.6087 -0.7660
vn 0.1411 0.3827 -0.9131
vn 0.0594 -0.3991 -0.9150
vn 0.1574 0.4432 -0.8825
vn -0.1110 -0.9933 -0.0329
vn -0.0991 -0.4486 0.8882
vn -0.0032 0.4060 0.9139
vn -0.1407 -0.6503 0.7466
vn -0.0956 0.4602 0.8826
vn -0.2030 -0.1599 0.9660
vn -0.0591 0.5123 0.8568
vn -0.0737 0.0342 0.9967
vn -0.0481 -0.5514 0.8328
vn -0.0003 0.5433 0.8395
vn -0.1081 -0.3245 0.9397
vn 0.0658 -0.1667 -0.9838
vn 0.0396 -0.2764 -0.9602
vn 0.1434 0.0620 -0.9877
vn 0.0680 -0.6200 -0.7817
vn 0.1987 0.4697 -0.8602
vn -0.0518 -0.6328 0.7726
vn -0.9996 0.0108 -0.0269
vn 0.0569 0.6615 -0.7478
vn -0.1264 -0.7145 0.6881
vn 0.1212 0.6943 -0.7094
vn -0.0810 -0.6368 -0.7668
vn 0.0641 0.6271 0.7763
vn -0.1179 -0.7873 -0.6052
vn -0.1119 -0.6421 0.7584
vn 0.1052 0.7179 -0.6881
vn 0.1016 0.6912 0.7155
vn -0.0784 -0.6456 -0.7596
vn -0.1180 -0.7603 0.6388
vn 0.0931 0.6897 -0.7180
vn 0.9946 -0.0831 -0.0620
vn -0.0930 -0.6414 0.7616
vn 0.0722 0.7067 -0.7039
vn 0.1000 0.8529 0.5125
vn -0.0831 -0.8056 -0.5867
vn 0.0799 0.7060 0.7037
vn -0.9996 0.0045 -0.0272
vn -0.0706 -0.7141 -0.6965
vn -0.0440 -0.7826 0.6210
vn -0.9948 0.0956 -0.0338
vn 0.0484 0.6744 -0.7368
vn 0.0747 0.9050 -0.4187
vn 0.0774 -0.7230 -0.6865
vn 0.0456 0.7592 -0.6492
vn 0.0265 -0.6184 -0.7854
vn 0.0453 0.7795 -0.6247
vn -0.0023 -0.5839 -0.8118
vn 0.0912 0.5772 0.8115
vn -0.0110 -0.7979 0.6027
vn 0.0232 0.6092 0.7927
vn 0.0046 -0.7301 0.6833
vn -0.0323 0.7012 0.7123
vn -0.0301 -0.7178 0.6956
vn -0.0155 0.7791 0.6267
vn -0.0023 -0.7699 0.6381
vn -0.0242 0.5339 0.8452
vn 0.0195 -0.6223 0.7826
vn 0.0377 0.3959 0.9175
vn 0.0579 0.6180 -0.7841
vn 0.0647 -0.7772 -0.6259
vn 0.0388 0.7369 -0.6749
vn 0.0828 -0.7056 -0.7038
vn 0.0724 0.7116 -0.6989
vn -0.0150 0.6772 -0.7356
vn -0.1532 -0.7855 -0.5996
vn -0.0350 0.7233 -0.6896
vn -0.1483 -0.7741 -0.6154
vn 0.0535 0.7498 -0.6595
vn -0.0955 -0.8311 -0.5479
vn 0.0513 0.6648 0.7453
vn -0.0843 -0.6641 0.7429
vn 0.1288 0.8430 0.5222
vn -0.0045 -0.7192 0.6947
vn 0.1459 0.7703 0.6207
vn -0.0150 -0.7764 0.6301
vn 0.0729 0.6039 0.7937
vn -0.0258 -0.7740 0.6326
vn -0.1198 -0.3596 -0.9254
vn -0.0003 0.7751 -0.6318
vn -0.1495 -0.7096 -0.6886
vn -0.9485 0.0704 0.3090
vn 0.5610 -0.0355 -0.8270
vn -0.5918 0.0706 0.8030
vn -0.0121 -0.0000 0.9999
vn 0.0135 -0.1040 0.9945
vn 0.9490 0.0406 0.3127
vn 0.8651 0.0451 -0.4996
vn -0.0269 0.7029 0.7108
vn 0.0205 0.4726 0.8811
vn -0.0197 -0.4275 -0.9038
vn -0.0097 -0.0807 0.9967
vn -0.0130 0.3481 -0.9374
vn 0.0358 -0.3521 0.9353
vn -0.0089 0.6135 -0.7896
vn 0.0052 -0.4484 -0.8938
vn -0.0262 -0.4439 0.8957
vn -0.0199 0.3547 -0.9348
vn -0.9729 -0.2151 0.0852
vn 0.0001 0.5237 0.8519
vn 0.0086 -0.4045 -0.9145
vn -0.9479 0.0608 0.3127
vn 0.0874 -0.5527 0.8288
vn -0.0696 0.2350 -0.9695
vn 0.0301 0.3130 0.9493
vn -0.0219 -0.3512 -0.9361
vn 0.0410 -0.6950 0.7179
vn 0.9066 -0.2803 0.3155
vn -0.0483 0.6063 -0.7937
vn 0.0192 -0.7087 0.7053
vn 0.9766 0.1702 0.1317
vn -0.0212 0.7108 -0.7031
vn -0.0234 0.1397 0.9899
vn 0.9898 0.0691 0.1246
vn -0.2110 0.4440 -0.8708
vn -0.0083 -0.5237 -0.8519
vn -0.1606 0.5126 -0.8435
vn -0.0121 -0.5053 -0.8628
vn -0.0973 0.2722 -0.9573
vn -0.0748 -0.1603 -0.9842
vn 0.0755 -0.4201 0.9044
vn -0.0252 0.5778 0.8158
vn -0.0162 0.5203 0.8539
vn 0.2411 -0.4182 0.8758
vn 0.0445 0.5021 0.8636
vn 0.1865 -0.6990 0.6904
vn -0.0147 0.5329 0.8460
vn 0.1479 -0.2955 0.9438
vn -0.0410 0.5418 0.8395
vn -0.2075 0.3035 -0.9300
vn -0.0430 -0.4942 -0.8683
vn -0.1979 0.4339 -0.8789
vn -0.0658 -0.4899 -0.8693
vn 0.1749 -0.4938 -0.8518
vn 0.1088 0.6335 -0.7660
vn 0.0794 0.4000 -0.9131
vn 0.1212 -0.3849 -0.9150
vn 0.0860 0.4623 -0.8825
vn 0.0458 -0.9984 -0.0329
vn -0.0276 -0.4586 0.8882
vn -0.0667 0.4005 0.9139
vn -0.0372 -0.6643 0.7466
vn -0.1665 0.4396 0.8826
vn -0.1755 -0.1896 0.9660
vn -0.1386 0.4968 0.8568
vn -0.0781 0.0223 0.9967
vn 0.0389 -0.5522 0.8328
vn -0.0854 0.5366 0.8395
vn -0.0560 -0.3374 0.9397
vn 0.0910 -0.1544 -0.9838
vn 0.0824 -0.2668 -0.9602
vn 0.1319 0.0837 -0.9877
vn 0.1642 -0.6017 -0.7816
vn 0.1227 0.4949 -0.8602
vn 0.0479 -0.6331 0.7726
vn -0.9890 -0.1455 -0.0269
vn -0.0474 0.6622 -0.7478
vn -0.0130 -0.7255 0.6881
vn 0.0110 0.7047 -0.7095
vn 0.0835 0.6984 0.7108
vn 0.0197 -0.6416 -0.7668
vn -0.0349 0.6294 0.7763
vn 0.0068 -0.7960 -0.6052
vn -0.0100 -0.6517 0.7584
vn -0.0085 0.7255 -0.6881
vn -0.0078 0.6986 0.7155
vn 0.0236 -0.6499 -0.7596
vn 0.0025 -0.7694 0.6388
vn -0.0161 0.6958 -0.7180
vn 0.9954 0.0734 -0.0620
vn 0.0085 -0.6480 0.7616
vn -0.0394 0.7093 -0.7039
vn -0.0348 0.8580 0.5125
vn 0.0441 -0.8086 -0.5867
vn -0.0316 0.7098 0.7037
vn -0.9880 -0.1518 -0.0272
vn 0.0421 -0.7164 -0.6965
vn 0.0791 -0.7799 0.6210
vn -0.9976 -0.0611 -0.0338
vn -0.0578 0.6736 -0.7368
vn -0.0680 0.9056 -0.4187
vn 0.1896 -0.7020 -0.6865
vn -0.0738 0.7570 -0.6492
vn 0.1230 -0.6066 -0.7854
vn -0.0773 0.7770 -0.6247
vn 0.0892 -0.5771 -0.8118
vn -0.0003 0.5843 0.8115
vn 0.1141 -0.7898 0.6027
vn -0.0724 0.6053 0.7927
vn 0.1189 -0.7204 0.6833
vn -0.1417 0.6875 0.7123
vn 0.0826 -0.7137 0.6956
vn -0.1373 0.7671 0.6267
vn 0.1183 -0.7608 0.6381
vn -0.1075 0.5235 0.8452
vn 0.1167 -0.6115 0.7826
vn -0.0247 0.3969 0.9175
vn -0.0396 0.6194 -0.7841
vn 0.1856 -0.7575 -0.6259
vn -0.0771 0.7339 -0.6749
vn 0.1922 -0.6840 -0.7037
vn -0.0399 0.7141 -0.6989
vn -0.1209 0.6665 -0.7356
vn -0.0284 -0.7998 -0.5997
vn -0.1479 0.7089 -0.6896
vn -0.0252 -0.7878 -0.6154
vn -0.0645 0.7490 -0.6595
vn 0.0358 -0.8358 -0.5479
vn -0.0534 0.6646 0.7453
vn 0.0208 -0.6691 0.7429
vn -0.0048 0.8528 0.5222
vn 0.1082 -0.7111 0.6947
vn 0.0235 0.7837 0.6207
vn 0.1068 -0.7691 0.6301
vn -0.0226 0.6078 0.7937
vn 0.0957 -0.7685 0.6326
vn -0.0620 -0.3739 -0.9254
vn -0.1216 0.7655 -0.6318
vn -0.0365 -0.7242 -0.6886
vn -0.0010 0.0102 0.9999
vn 0.5859 0.0477 -0.8090
vn -0.0681 0.0680 0.9954
vn -0.0000 1.0000 0.0007
vn -0.0060 -0.1054 0.9944
vn 0.0713 0.0068 0.9974
vn 0.1287 0.0175 0.9915
vn 0.6644 0.1962 0.7212
vn -0.0475 0.0843 0.9953
vn -0.2876 -0.1241 0.9497
vn -0.0585 -0.6300 0.7744
vn 0.0157 -0.1214 0.9925
vn 0.1032 0.9946 -0.0062
vn -0.0573 0.9983 -0.0069
vn 0.0678 0.2272 0.9715
vn -0.9983 -0.0096 -0.0572
vn 0.9979 0.0119 0.0629
vn 0.0063 -0.9999 -0.0111
vn -0.0067 0.9999 -0.0129
vn -0.8452 -0.5224 0.1125
vn -0.0045 0.1165 0.9932
vn -0.0082 -0.1178 0.9930
vn -0.0546 -0.0076 0.9985
vn 0.0408 0.0165 0.9990
vn -0.0017 -0.0569 0.9984
vn -0.0371 -0.0023 0.9993
vn -0.0202 -0.0109 0.9997
vn 0.0109 0.0567 0.9983
vn -0.0286 0.0419 0.9987
vn 0.0131 -0.8182 0.5748
vn -0.8217 0.4168 -0.3886
vn -0.8707 -0.4576 -0.1799
vn 0.0851 -0.9243 -0.3721
vn -0.3214 0.9399 -0.1149
vn 0.6066 0.7923 -0.0661
vn 0.1419 0.9561 -0.2563
vn -0.9230 -0.2290 -0.3092
vn 0.8594 -0.3566 -0.3663
vn 0.7224 0.4780 -0.4996
vn 0.1882 -0.8805 -0.4351
vn 0.9561 -0.1975 -0.2164
vn 0.0084 0.8521 -0.5234
vn -0.4630 -0.8569 -0.2268
vn -0.8693 0.3274 -0.3703
vn 0.2224 -0.3453 -0.9118
vn -0.3879 -0.6834 0.6184
vn 0.0969 0.9393 0.3293
vn -0.4146 0.8437 -0.3411
vn -0.2420 -0.8075 -0.5379
vn -0.3630 -0.6887 0.6276
vn 0.1155 0.9346 0.3365
vn 0.2327 0.2103 -0.9495
vn -0.3923 -0.6823 0.6168
vn 0.1000 0.9385 0.3304
vn -0.5561 -0.1270 -0.8214
vn 0.7562 -0.4723 0.4529
vn 0.0639 0.5680 0.8206
vn -0.4002 -0.2996 -0.8661
vn 0.8874 -0.2830 0.3638
vn 0.7362 -0.6764 -0.0194
vn 0.0606 0.6737 0.7365
vn -0.8045 0.2121 -0.5547
vn -0.8214 0.3644 -0.4387
vn 0.6936 -0.5548 0.4594
vn -0.8763 -0.0384 -0.4802
vn -0.7226 0.5007 0.4767
vn 0.6431 -0.5266 0.5560
vn 0.4256 -0.1626 -0.8902
vn -0.7146 0.5180 0.4701
vn 0.5495 -0.4821 -0.6824
vn -0.7247 0.4847 0.4897
vn 0.6347 -0.5084 -0.5819
vn 0.0612 0.8170 -0.5734
vn -0.4157 -0.5191 0.7468
vn 0.5822 -0.7726 0.2531
vn -0.7557 -0.4041 0.5155
vn -0.7796 -0.1647 0.6042
vn 0.8539 -0.2755 -0.4415
vn -0.4031 -0.3792 0.8329
vn -0.1309 -0.8532 0.5050
vn 0.1758 0.8902 -0.4203
vn -0.1252 -0.0426 0.9912
vn 1.0000 -0.0026 -0.0027
vn -0.0000 -0.1904 0.9817
vn -0.0029 0.0018 1.0000
vn 0.0276 -0.9993 -0.0257
vn -0.2379 0.7998 0.5512
vn 0.1376 0.1223 -0.9829
vn 0.7386 -0.0404 0.6729
vn 0.1901 0.5691 -0.8000
vn -0.9069 -0.4061 -0.1120
vn -0.9041 -0.3196 -0.2835
vn 0.3998 -0.3619 0.8421
vn -0.8096 0.3551 -0.4674
vn 0.5404 -0.2967 -0.7874
vn -1.0000 -0.0026 -0.0027
vn -0.0087 -0.0021 1.0000
vn 0.9997 0.0030 0.0258
vn -0.5658 -0.0139 0.8244
vn -0.4288 -0.0033 -0.9034
vn -0.6890 -0.1670 0.7052
vn -0.6449 -0.0000 -0.7643
vn 0.7339 -0.1565 -0.6610
vn 0.9785 -0.1916 0.0763
vn -0.5673 -0.0457 0.8222
vn -0.4770 0.0420 -0.8779
vn -0.2937 -0.9186 0.2645
vn 0.2274 -0.9358 0.2695
vn -0.0133 -0.7390 0.6736
vn -0.0344 -0.7732 0.6332
vn 1.0000 -0.0020 0.0002
vn 0.9417 0.0364 0.3344
vn 0.9998 -0.0144 -0.0114
vn 1.0000 0.0027 -0.0044
vn 0.9998 -0.0000 0.0191
vn 0.9357 -0.0331 -0.3513
vn 0.6449 -0.0000 0.7643
vn -0.7339 -0.1565 0.6610
vn 0.6890 -0.1670 -0.7052
vn 0.2937 -0.9186 -0.2645
vn -0.2274 -0.9358 -0.2695
vt 0.375000 0.375000
vt 0.375000 0.625000
vt 0.125000 0.375000
vt 0.875000 0.875000
vt 0.125000 0.125000
vt 0.125000 0.875000
vt 0.625000 0.375000
vt 0.125000 0.625000
vt 0.625000 0.625000
vt 0.875000 0.625000
vt 0.875000 0.375000
vt 0.375000 0.875000
s 0
usemtl ruins_hk_wall_c
f 27/1/1 31/1/1 2/1/1
f 14/2/2 3/2/2 16/2/2
f 34/1/3 33/1/3 4/1/3
f 9/3/4 5/3/4 23/3/4
f 12/3/5 15/3/5 11/3/5
f 6/2/6 16/2/6 5/2/6
f 46/4/7 51/4/7 45/4/7
f 20/2/8 10/2/8 22/2/8
f 47/5/9 49/5/9 55/5/9
f 20/3/10 18/3/10 7/3/10
f 42/4/11 28/4/11 41/4/11
f 39/4/12 30/4/12 24/4/12
f 38/4/13 29/4/13 25/4/13
f 26/1/14 35/1/14 16/1/14
f 5/1/15 16/1/15 35/1/15
f 42/4/16 40/4/16 39/4/16
f 44/4/17 45/4/17 43/4/17
f 42/6/18 39/6/18 37/6/18
f 50/5/19 52/5/19 56/5/19
f 53/5/20 54/5/20 57/5/20
f 47/3/21 55/3/21 21/3/21
f 20/2/5 22/2/5 21/2/5
f 10/2/22 21/2/22 22/2/22
f 60/4/23 61/4/23 62/4/23
f 59/4/24 61/4/24 58/4/24
f 59/4/25 63/4/25 62/4/25
f 98/7/26 129/7/26 97/7/26
f 124/7/27 107/7/27 108/7/27
f 112/7/28 117/7/28 111/7/28
f 130/8/29 97/8/29 129/8/29
f 78/8/30 65/8/30 64/8/30
f 106/8/31 125/8/31 126/8/31
f 71/8/32 68/8/32 87/8/32
f 113/8/33 116/8/33 112/8/33
f 72/4/34 69/4/34 70/4/34
f 106/8/35 126/8/35 105/8/35
f 113/8/36 114/8/36 115/8/36
f 104/8/37 126/8/37 127/8/37
f 95/8/38 114/8/38 94/8/38
f 96/8/39 131/8/39 95/8/39
f 122/8/40 81/8/40 121/8/40
f 81/8/41 119/8/41 120/8/41
f 84/7/42 81/7/42 82/7/42
f 123/8/43 82/8/43 122/8/43
f 84/8/44 118/8/44 119/8/44
f 85/8/45 84/8/45 82/8/45
f 123/7/46 108/7/46 109/7/46
f 111/7/47 118/7/47 110/7/47
f 91/4/48 65/4/48 67/4/48
f 93/8/49 101/8/49 90/8/49
f 99/8/50 100/8/50 91/8/50
f 121/8/51 81/8/51 120/8/51
f 100/8/52 92/8/52 93/8/52
f 95/8/53 74/8/53 75/8/53
f 79/8/54 95/8/54 75/8/54
f 96/7/55 77/7/55 97/7/55
f 66/7/56 97/7/56 77/7/56
f 99/7/57 66/7/57 89/7/57
f 100/7/58 89/7/58 92/7/58
f 92/7/59 89/7/59 101/7/59
f 101/7/60 66/7/60 128/7/60
f 102/7/61 66/7/61 77/7/61
f 77/7/62 103/7/62 102/7/62
f 75/8/63 103/8/63 77/8/63
f 72/8/64 104/8/64 75/8/64
f 70/8/65 105/8/65 72/8/65
f 70/8/66 107/8/66 106/8/66
f 108/8/67 69/8/67 88/8/67
f 109/8/68 88/8/68 85/8/68
f 110/8/69 84/8/69 85/8/69
f 88/8/70 110/8/70 85/8/70
f 69/8/71 111/8/71 88/8/71
f 72/8/72 112/8/72 69/8/72
f 94/8/73 72/8/73 74/8/73
f 114/8/74 71/8/74 115/8/74
f 116/8/75 71/8/75 87/8/75
f 116/7/76 87/7/76 117/7/76
f 117/7/77 86/7/77 118/7/77
f 119/7/78 86/7/78 83/7/78
f 120/7/79 83/7/79 80/7/79
f 83/7/80 121/7/80 80/7/80
f 86/7/81 122/7/81 83/7/81
f 124/7/82 86/7/82 68/7/82
f 125/8/83 71/8/83 126/8/83
f 127/7/84 73/7/84 76/7/84
f 127/7/85 76/7/85 78/7/85
f 127/8/86 64/8/86 102/8/86
f 128/8/87 64/8/87 65/8/87
f 91/8/88 67/8/88 98/8/88
f 129/8/89 67/8/89 65/8/89
f 65/8/90 130/8/90 129/8/90
f 130/7/91 76/7/91 131/7/91
f 131/7/92 73/7/92 114/7/92
f 133/9/93 169/9/93 170/9/93
f 136/9/94 134/9/94 137/9/94
f 167/9/95 134/9/95 166/9/95
f 190/10/96 175/10/96 176/10/96
f 180/10/97 185/10/97 179/10/97
f 195/9/98 166/9/98 134/9/98
f 146/9/99 134/9/99 133/9/99
f 174/10/100 191/10/100 192/10/100
f 181/10/101 184/10/101 180/10/101
f 174/10/102 193/10/102 173/10/102
f 181/10/103 182/10/103 183/10/103
f 172/9/104 193/9/104 194/9/104
f 164/9/105 182/9/105 163/9/105
f 171/9/106 194/9/106 146/9/106
f 165/9/107 196/9/107 164/9/107
f 188/10/108 148/10/108 149/10/108
f 150/10/109 178/10/109 187/10/109
f 189/10/110 176/10/110 177/10/110
f 179/10/111 186/10/111 153/10/111
f 136/9/112 168/9/112 169/9/112
f 159/9/113 136/9/113 137/9/113
f 157/9/114 137/9/114 167/9/114
f 161/9/115 168/9/115 158/9/115
f 161/9/116 159/9/116 162/9/116
f 157/9/117 162/9/117 159/9/117
f 149/10/118 150/10/118 187/10/118
f 162/9/119 160/9/119 161/9/119
f 164/9/120 142/9/120 144/9/120
f 147/9/121 164/9/121 144/9/121
f 165/9/122 132/9/122 166/9/122
f 135/9/123 166/9/123 132/9/123
f 160/10/124 157/10/124 168/10/124
f 168/10/125 135/10/125 169/10/125
f 170/9/126 135/9/126 132/9/126
f 132/9/127 171/9/127 170/9/127
f 147/9/128 172/9/128 171/9/128
f 142/9/129 172/9/129 144/9/129
f 140/10/130 173/10/130 142/10/130
f 140/10/131 175/10/131 174/10/131
f 176/10/132 138/10/132 156/10/132
f 177/10/133 156/10/133 153/10/133
f 177/10/134 151/10/134 188/10/134
f 178/10/135 150/10/135 151/10/135
f 138/10/136 179/10/136 156/10/136
f 140/10/137 180/10/137 138/10/137
f 163/10/138 140/10/138 142/10/138
f 183/9/139 143/9/139 141/9/139
f 184/10/140 141/10/140 139/10/140
f 185/10/141 139/10/141 155/10/141
f 185/10/142 154/10/142 186/10/142
f 178/10/143 154/10/143 152/10/143
f 187/10/144 152/10/144 149/10/144
f 154/10/145 188/10/145 152/10/145
f 190/10/146 154/10/146 155/10/146
f 139/10/147 190/10/147 155/10/147
f 192/10/148 139/10/148 141/10/148
f 192/9/149 143/9/149 193/9/149
f 194/9/150 143/9/150 145/9/150
f 195/9/151 145/9/151 196/9/151
f 196/10/152 143/10/152 182/10/152
f 198/4/153 200/4/153 197/4/153
f 199/4/154 201/4/154 198/4/154
f 199/4/155 200/4/155 201/4/155
f 427/11/156 426/11/156 425/11/156
f 55/3/157 56/3/157 20/3/157
f 203/4/158 205/4/158 202/4/158
f 203/4/159 207/4/159 206/4/159
f 242/7/160 273/7/160 241/7/160
f 277/9/161 314/9/161 315/9/161
f 268/7/162 251/7/162 252/7/162
f 256/7/163 261/7/163 255/7/163
f 274/8/164 241/8/164 273/8/164
f 222/8/165 209/8/165 208/8/165
f 250/8/166 269/8/166 270/8/166
f 215/8/167 212/8/167 231/8/167
f 257/8/168 260/8/168 256/8/168
f 216/4/169 213/4/169 214/4/169
f 250/8/170 270/8/170 249/8/170
f 257/8/171 258/8/171 259/8/171
f 248/8/172 270/8/172 271/8/172
f 239/8/173 258/8/173 238/8/173
f 240/8/174 275/8/174 239/8/174
f 266/8/175 225/8/175 265/8/175
f 225/8/176 263/8/176 264/8/176
f 228/7/177 225/7/177 226/7/177
f 267/8/178 226/8/178 266/8/178
f 228/8/179 262/8/179 263/8/179
f 229/8/180 228/8/180 226/8/180
f 267/7/181 252/7/181 253/7/181
f 255/7/182 262/7/182 254/7/182
f 235/4/183 209/4/183 211/4/183
f 237/8/184 245/8/184 234/8/184
f 243/8/185 244/8/185 235/8/185
f 265/8/186 225/8/186 264/8/186
f 244/8/187 236/8/187 237/8/187
f 239/8/188 218/8/188 219/8/188
f 223/8/189 239/8/189 219/8/189
f 240/7/190 221/7/190 241/7/190
f 210/7/191 241/7/191 221/7/191
f 243/7/192 210/7/192 233/7/192
f 244/7/193 233/7/193 236/7/193
f 236/7/194 233/7/194 245/7/194
f 245/7/195 210/7/195 272/7/195
f 246/7/196 210/7/196 221/7/196
f 221/7/197 247/7/197 246/7/197
f 219/8/198 247/8/198 221/8/198
f 216/8/199 248/8/199 219/8/199
f 214/8/200 249/8/200 216/8/200
f 214/8/201 251/8/201 250/8/201
f 252/8/202 213/8/202 232/8/202
f 253/8/203 232/8/203 229/8/203
f 254/8/204 228/8/204 229/8/204
f 232/8/205 254/8/205 229/8/205
f 213/8/206 255/8/206 232/8/206
f 216/8/207 256/8/207 213/8/207
f 238/8/208 216/8/208 218/8/208
f 258/8/209 215/8/209 259/8/209
f 260/8/210 215/8/210 231/8/210
f 260/7/211 231/7/211 261/7/211
f 261/7/212 230/7/212 262/7/212
f 263/7/213 230/7/213 227/7/213
f 264/7/214 227/7/214 224/7/214
f 227/7/215 265/7/215 224/7/215
f 230/7/216 266/7/216 227/7/216
f 268/7/217 230/7/217 212/7/217
f 269/8/218 215/8/218 270/8/218
f 271/7/219 217/7/219 220/7/219
f 271/7/220 220/7/220 222/7/220
f 271/8/221 208/8/221 246/8/221
f 272/8/222 208/8/222 209/8/222
f 235/8/223 211/8/223 242/8/223
f 273/8/224 211/8/224 209/8/224
f 209/8/225 274/8/225 273/8/225
f 274/7/226 220/7/226 275/7/226
f 275/7/227 217/7/227 258/7/227
f 277/9/228 313/9/228 314/9/228
f 280/9/229 278/9/229 281/9/229
f 311/9/230 278/9/230 310/9/230
f 334/10/231 319/10/231 320/10/231
f 324/10/232 329/10/232 323/10/232
f 133/9/233 170/9/233 171/9/233
f 339/9/234 310/9/234 278/9/234
f 290/9/235 278/9/235 277/9/235
f 318/10/236 335/10/236 336/10/236
f 325/10/237 328/10/237 324/10/237
f 318/10/238 337/10/238 317/10/238
f 325/10/239 326/10/239 327/10/239
f 316/9/240 337/9/240 338/9/240
f 308/9/241 326/9/241 307/9/241
f 315/9/242 338/9/242 290/9/242
f 309/9/243 340/9/243 308/9/243
f 332/10/244 292/10/244 293/10/244
f 294/10/245 322/10/245 331/10/245
f 333/10/246 320/10/246 321/10/246
f 323/10/247 330/10/247 297/10/247
f 280/9/248 312/9/248 313/9/248
f 303/9/249 280/9/249 281/9/249
f 301/9/250 281/9/250 311/9/250
f 305/9/251 312/9/251 302/9/251
f 305/9/252 303/9/252 306/9/252
f 301/9/253 306/9/253 303/9/253
f 293/10/254 294/10/254 331/10/254
f 306/9/255 304/9/255 305/9/255
f 308/9/256 286/9/256 288/9/256
f 291/9/257 308/9/257 288/9/257
f 309/9/258 276/9/258 310/9/258
f 279/9/259 310/9/259 276/9/259
f 304/10/260 301/10/260 312/10/260
f 312/10/261 279/10/261 313/10/261
f 314/9/262 279/9/262 276/9/262
f 276/9/263 315/9/263 314/9/263
f 291/9/264 316/9/264 315/9/264
f 286/9/265 316/9/265 288/9/265
f 284/10/266 317/10/266 286/10/266
f 284/10/267 319/10/267 318/10/267
f 320/10/268 282/10/268 300/10/268
f 321/10/269 300/10/269 297/10/269
f 321/10/270 295/10/270 332/10/270
f 322/10/271 294/10/271 295/10/271
f 282/10/272 323/10/272 300/10/272
f 284/10/273 324/10/273 282/10/273
f 307/10/274 284/10/274 286/10/274
f 327/9/275 287/9/275 285/9/275
f 328/10/276 285/10/276 283/10/276
f 329/10/277 283/10/277 299/10/277
f 329/10/278 298/10/278 330/10/278
f 322/10/279 298/10/279 296/10/279
f 331/10/280 296/10/280 293/10/280
f 298/10/281 332/10/281 296/10/281
f 334/10/282 298/10/282 299/10/282
f 283/10/283 334/10/283 299/10/283
f 336/10/284 283/10/284 285/10/284
f 336/9/285 287/9/285 337/9/285
f 338/9/286 287/9/286 289/9/286
f 339/9/287 289/9/287 340/9/287
f 340/10/288 287/10/288 326/10/288
f 341/4/289 344/4/289 343/4/289
f 342/4/290 344/4/290 341/4/290
f 346/4/291 347/4/291 345/4/291
f 345/4/10 348/4/10 346/4/10
f 350/4/22 349/4/22 347/4/22
f 389/3/292 360/3/292 373/3/292
f 356/3/293 389/3/293 353/3/293
f 360/3/294 357/3/294 363/3/294
f 359/3/295 351/3/295 352/3/295
f 364/3/296 367/3/296 365/3/296
f 368/3/297 369/3/297 370/3/297
f 366/3/298 369/3/298 372/3/298
f 368/3/299 365/3/299 374/3/299
f 365/3/300 355/3/300 375/3/300
f 367/3/301 371/3/301 365/3/301
f 369/3/302 374/3/302 373/3/302
f 353/4/303 377/4/303 356/4/303
f 353/4/304 378/4/304 376/4/304
f 352/4/305 379/4/305 378/4/305
f 357/4/306 380/4/306 381/4/306
f 360/4/307 382/4/307 354/4/307
f 389/4/308 377/4/308 388/4/308
f 362/4/309 384/4/309 358/4/309
f 361/4/310 383/4/310 362/4/310
f 355/4/311 386/4/311 375/4/311
f 355/4/312 384/4/312 387/4/312
f 361/4/313 381/4/313 385/4/313
f 375/4/314 379/4/314 351/4/314
f 394/1/315 390/1/315 392/1/315
f 394/1/316 391/1/316 395/1/316
f 395/1/317 390/1/317 393/1/317
f 416/1/318 395/1/318 393/1/318
f 399/6/319 396/6/319 398/6/319
f 400/6/320 397/6/320 417/6/320
f 417/6/321 396/6/321 399/6/321
f 405/2/322 401/2/322 403/2/322
f 405/2/323 402/2/323 406/2/323
f 406/2/324 401/2/324 404/2/324
f 395/1/325 415/1/325 394/1/325
f 400/6/326 409/6/326 408/6/326
f 417/6/327 409/6/327 400/6/327
f 406/2/328 412/2/328 405/2/328
f 406/2/329 413/2/329 410/2/329
f 404/2/330 412/2/330 413/2/330
f 412/2/331 410/2/331 411/2/331
f 413/2/332 411/2/332 410/2/332
f 416/1/333 407/1/333 414/1/333
f 415/1/334 407/1/334 416/1/334
f 421/7/335 420/7/335 422/7/335
f 443/7/336 422/7/336 419/7/336
f 421/7/337 419/7/337 418/7/337
f 428/11/338 423/11/338 426/11/338
f 427/11/339 425/11/339 424/11/339
f 428/11/340 424/11/340 423/11/340
f 434/2/341 429/2/341 432/2/341
f 432/2/342 431/2/342 433/2/342
f 433/2/343 431/2/343 430/2/343
f 434/2/344 430/2/344 429/2/344
f 422/7/345 442/7/345 421/7/345
f 428/11/346 437/11/346 427/11/346
f 432/2/347 440/2/347 434/2/347
f 433/2/348 438/2/348 432/2/348
f 433/2/349 439/2/349 438/2/349
f 434/2/350 440/2/350 439/2/350
f 440/2/351 438/2/351 439/2/351
f 443/7/352 435/7/352 441/7/352
f 442/7/353 435/7/353 443/7/353
f 426/11/354 436/11/354 428/11/354
f 44/4/355 2/4/355 18/4/355
f 445/4/356 446/4/356 447/4/356
f 10/3/22 17/3/22 21/3/22
f 458/4/356 459/4/356 460/4/356
f 16/1/357 24/1/357 26/1/357
f 466/2/358 462/2/358 464/2/358
f 466/2/359 463/2/359 467/2/359
f 467/2/360 462/2/360 465/2/360
f 467/2/361 470/2/361 466/2/361
f 467/2/362 471/2/362 468/2/362
f 465/2/363 470/2/363 471/2/363
f 470/2/364 468/2/364 469/2/364
f 471/2/365 469/2/365 468/2/365
f 472/4/366 475/4/366 474/4/366
f 473/4/367 476/4/367 472/4/367
f 473/4/368 477/4/368 476/4/368
f 4/4/369 43/4/369 17/4/369
f 23/1/370 5/1/370 35/1/370
f 480/4/371 482/4/371 481/4/371
f 479/4/372 482/4/372 478/4/372
f 480/4/373 483/4/373 479/4/373
f 485/4/374 488/4/374 484/4/374
f 487/4/375 489/4/375 486/4/375
f 484/4/376 490/4/376 487/4/376
f 491/4/377 494/4/377 493/4/377
f 492/4/378 495/4/378 491/4/378
f 492/4/379 494/4/379 496/4/379
f 18/3/380 54/3/380 46/3/380
f 24/3/381 3/3/381 8/3/381
f 499/4/371 501/4/371 500/4/371
f 498/4/372 501/4/372 497/4/372
f 499/4/373 502/4/373 498/4/373
f 504/4/382 507/4/382 503/4/382
f 505/4/383 508/4/383 504/4/383
f 506/4/384 509/4/384 505/4/384
f 11/3/385 6/3/385 12/3/385
f 27/1/386 32/1/386 31/1/386
f 477/4/387 475/4/387 476/4/387
f 15/12/387 13/12/387 8/12/387
f 8/12/387 13/12/387 9/12/387
f 7/12/388 8/12/388 9/12/388
f 7/12/388 9/12/388 10/12/388
f 34/1/389 32/1/389 33/1/389
f 38/3/390 25/3/390 10/3/390
f 25/3/391 4/3/391 10/3/391
f 10/3/392 9/3/392 23/3/392
f 38/3/393 10/3/393 42/3/393
f 9/3/22 13/3/22 12/3/22
f 12/3/394 6/3/394 5/3/394
f 9/3/395 12/3/395 5/3/395
f 42/3/396 10/3/396 23/3/396
f 503/4/397 506/4/397 504/4/397
f 506/4/398 505/4/398 504/4/398
f 12/3/5 13/3/5 15/3/5
f 51/4/399 17/4/399 45/4/399
f 45/4/400 1/4/400 46/4/400
f 1/4/401 18/4/401 46/4/401
f 20/2/8 7/2/8 10/2/8
f 47/5/402 48/5/402 49/5/402
f 19/3/10 18/3/10 20/3/10
f 42/4/403 23/4/403 28/4/403
f 49/3/404 51/3/404 55/3/404
f 46/3/405 52/3/405 51/3/405
f 50/3/406 56/3/406 55/3/406
f 51/3/407 50/3/407 55/3/407
f 39/4/10 40/4/10 30/4/10
f 38/4/408 37/4/408 29/4/408
f 32/1/409 27/1/409 33/1/409
f 4/1/410 33/1/410 27/1/410
f 4/1/411 25/1/411 34/1/411
f 34/1/412 25/1/412 32/1/412
f 26/1/413 36/1/413 35/1/413
f 23/1/414 36/1/414 26/1/414
f 25/4/415 29/4/415 32/4/415
f 29/4/416 31/4/416 32/4/416
f 37/4/417 31/4/417 29/4/417
f 26/4/418 24/4/418 30/4/418
f 30/4/419 28/4/419 26/4/419
f 28/4/420 23/4/420 26/4/420
f 42/4/421 41/4/421 40/4/421
f 202/4/422 205/4/422 204/4/422
f 454/4/423 455/4/423 456/4/423
f 456/4/424 453/4/424 454/4/424
f 44/4/425 1/4/425 45/4/425
f 37/6/426 38/6/426 42/6/426
f 50/5/427 51/5/427 52/5/427
f 486/4/428 485/4/428 487/4/428
f 485/4/429 484/4/429 487/4/429
f 53/5/430 46/5/430 54/5/430
f 17/3/431 51/3/431 49/3/431
f 17/3/432 49/3/432 48/3/432
f 17/3/433 48/3/433 21/3/433
f 48/3/434 47/3/434 21/3/434
f 473/4/8 472/4/8 474/4/8
f 27/4/435 2/4/435 44/4/435
f 44/4/436 43/4/436 27/4/436
f 43/4/437 4/4/437 27/4/437
f 28/4/5 30/4/5 41/4/5
f 30/4/5 40/4/5 41/4/5
f 199/4/438 198/4/438 197/4/438
f 205/4/439 203/4/439 206/4/439
f 58/4/440 61/4/440 60/4/440
f 52/3/441 46/3/441 56/3/441
f 53/3/442 57/3/442 56/3/442
f 57/3/443 19/3/443 56/3/443
f 46/3/444 53/3/444 56/3/444
f 62/4/445 63/4/445 60/4/445
f 59/4/446 58/4/446 63/4/446
f 58/4/447 60/4/447 63/4/447
f 124/7/448 125/7/448 107/7/448
f 112/7/449 116/7/449 117/7/449
f 103/8/450 127/8/450 102/8/450
f 130/8/451 96/8/451 97/8/451
f 106/8/452 107/8/452 125/8/452
f 113/8/453 115/8/453 116/8/453
f 113/8/454 94/8/454 114/8/454
f 104/8/455 105/8/455 126/8/455
f 95/8/456 131/8/456 114/8/456
f 75/8/457 74/8/457 72/8/457
f 103/8/458 104/8/458 127/8/458
f 96/8/459 130/8/459 131/8/459
f 77/8/460 79/8/460 75/8/460
f 122/8/461 82/8/461 81/8/461
f 81/8/462 84/8/462 119/8/462
f 123/8/463 109/8/463 82/8/463
f 84/8/464 110/8/464 118/8/464
f 123/7/465 124/7/465 108/7/465
f 87/7/466 68/7/466 86/7/466
f 111/7/467 117/7/467 118/7/467
f 128/8/468 90/8/468 101/8/468
f 91/4/469 90/4/469 65/4/469
f 99/8/470 91/8/470 98/8/470
f 93/8/471 92/8/471 101/8/471
f 93/4/472 90/4/472 91/4/472
f 95/8/473 94/8/473 74/8/473
f 79/8/474 96/8/474 95/8/474
f 96/7/475 79/7/475 77/7/475
f 66/7/476 98/7/476 97/7/476
f 99/7/477 98/7/477 66/7/477
f 100/7/478 99/7/478 89/7/478
f 101/7/479 89/7/479 66/7/479
f 102/7/480 128/7/480 66/7/480
f 75/8/481 104/8/481 103/8/481
f 72/8/482 105/8/482 104/8/482
f 70/8/483 106/8/483 105/8/483
f 70/8/484 69/8/484 107/8/484
f 108/8/485 107/8/485 69/8/485
f 109/8/486 108/8/486 88/8/486
f 109/8/487 85/8/487 82/8/487
f 88/8/488 111/8/488 110/8/488
f 69/8/489 112/8/489 111/8/489
f 72/8/490 113/8/490 112/8/490
f 94/8/491 113/8/491 72/8/491
f 114/8/492 73/8/492 71/8/492
f 116/8/493 115/8/493 71/8/493
f 117/7/494 87/7/494 86/7/494
f 119/7/495 118/7/495 86/7/495
f 120/7/496 119/7/496 83/7/496
f 80/7/497 121/7/497 120/7/497
f 83/7/498 122/7/498 121/7/498
f 86/7/499 123/7/499 122/7/499
f 124/7/500 123/7/500 86/7/500
f 68/7/501 125/7/501 124/7/501
f 125/8/502 68/8/502 71/8/502
f 126/8/503 71/8/503 73/8/503
f 127/7/504 126/7/504 73/7/504
f 127/8/505 78/8/505 64/8/505
f 128/8/506 102/8/506 64/8/506
f 90/8/507 128/8/507 65/8/507
f 91/8/508 100/8/508 93/8/508
f 129/8/509 98/8/509 67/8/509
f 65/8/510 78/8/510 130/8/510
f 130/7/511 78/7/511 76/7/511
f 131/7/512 76/7/512 73/7/512
f 133/9/513 136/9/513 169/9/513
f 136/9/514 133/9/514 134/9/514
f 167/9/515 137/9/515 134/9/515
f 190/10/516 191/10/516 175/10/516
f 180/10/517 184/10/517 185/10/517
f 195/9/518 165/9/518 166/9/518
f 174/10/519 175/10/519 191/10/519
f 181/10/520 183/10/520 184/10/520
f 174/10/521 192/10/521 193/10/521
f 181/10/522 163/10/522 182/10/522
f 172/9/523 173/9/523 193/9/523
f 164/9/524 196/9/524 182/9/524
f 171/9/525 172/9/525 194/9/525
f 165/9/526 195/9/526 196/9/526
f 151/10/527 150/10/527 148/10/527
f 189/10/528 177/10/528 188/10/528
f 178/10/529 153/10/529 186/10/529
f 189/10/530 190/10/530 176/10/530
f 179/10/531 185/10/531 186/10/531
f 136/9/532 158/9/532 168/9/532
f 159/9/533 158/9/533 136/9/533
f 157/9/534 159/9/534 137/9/534
f 161/9/535 160/9/535 168/9/535
f 161/9/536 158/9/536 159/9/536
f 157/9/537 160/9/537 162/9/537
f 149/10/538 148/10/538 150/10/538
f 164/9/539 163/9/539 142/9/539
f 147/9/540 165/9/540 164/9/540
f 165/9/541 147/9/541 132/9/541
f 135/9/542 167/9/542 166/9/542
f 157/10/543 167/10/543 135/10/543
f 168/10/544 157/10/544 135/10/544
f 170/9/545 169/9/545 135/9/545
f 132/9/546 147/9/546 171/9/546
f 147/9/547 144/9/547 172/9/547
f 142/9/548 173/9/548 172/9/548
f 140/10/549 174/10/549 173/10/549
f 140/10/550 138/10/550 175/10/550
f 176/10/551 175/10/551 138/10/551
f 177/10/552 176/10/552 156/10/552
f 177/10/553 153/10/553 151/10/553
f 188/10/554 151/10/554 148/10/554
f 153/10/555 178/10/555 151/10/555
f 156/10/556 179/10/556 153/10/556
f 138/10/557 180/10/557 179/10/557
f 140/10/558 181/10/558 180/10/558
f 163/10/559 181/10/559 140/10/559
f 183/9/560 182/9/560 143/9/560
f 184/10/561 183/10/561 141/10/561
f 185/10/562 184/10/562 139/10/562
f 185/10/563 155/10/563 154/10/563
f 178/10/564 186/10/564 154/10/564
f 187/10/565 178/10/565 152/10/565
f 152/10/566 188/10/566 149/10/566
f 154/10/567 189/10/567 188/10/567
f 190/10/568 189/10/568 154/10/568
f 139/10/569 191/10/569 190/10/569
f 192/10/570 191/10/570 139/10/570
f 192/9/571 141/9/571 143/9/571
f 194/9/572 193/9/572 143/9/572
f 146/9/573 194/9/573 145/9/573
f 134/9/574 146/9/574 195/9/574
f 195/9/575 146/9/575 145/9/575
f 196/10/576 145/10/576 143/10/576
f 198/4/577 201/4/577 200/4/577
f 199/4/578 197/4/578 200/4/578
f 61/4/579 59/4/579 62/4/579
f 56/3/580 19/3/580 20/3/580
f 20/3/581 21/3/581 55/3/581
f 203/4/582 202/4/582 207/4/582
f 202/4/583 204/4/583 207/4/583
f 315/9/584 290/9/584 277/9/584
f 268/7/585 269/7/585 251/7/585
f 256/7/586 260/7/586 261/7/586
f 247/8/587 271/8/587 246/8/587
f 274/8/588 240/8/588 241/8/588
f 250/8/589 251/8/589 269/8/589
f 257/8/590 259/8/590 260/8/590
f 257/8/591 238/8/591 258/8/591
f 248/8/592 249/8/592 270/8/592
f 239/8/593 275/8/593 258/8/593
f 219/8/594 218/8/594 216/8/594
f 247/8/595 248/8/595 271/8/595
f 240/8/596 274/8/596 275/8/596
f 221/8/597 223/8/597 219/8/597
f 266/8/598 226/8/598 225/8/598
f 225/8/599 228/8/599 263/8/599
f 267/8/600 253/8/600 226/8/600
f 228/8/601 254/8/601 262/8/601
f 267/7/602 268/7/602 252/7/602
f 231/7/603 212/7/603 230/7/603
f 255/7/604 261/7/604 262/7/604
f 272/8/605 234/8/605 245/8/605
f 235/4/606 234/4/606 209/4/606
f 243/8/607 235/8/607 242/8/607
f 237/8/608 236/8/608 245/8/608
f 237/4/609 234/4/609 235/4/609
f 239/8/610 238/8/610 218/8/610
f 223/8/611 240/8/611 239/8/611
f 240/7/612 223/7/612 221/7/612
f 210/7/613 242/7/613 241/7/613
f 243/7/614 242/7/614 210/7/614
f 244/7/615 243/7/615 233/7/615
f 245/7/616 233/7/616 210/7/616
f 246/7/617 272/7/617 210/7/617
f 219/8/618 248/8/618 247/8/618
f 216/8/619 249/8/619 248/8/619
f 214/8/620 250/8/620 249/8/620
f 214/8/621 213/8/621 251/8/621
f 252/8/622 251/8/622 213/8/622
f 253/8/623 252/8/623 232/8/623
f 253/8/624 229/8/624 226/8/624
f 232/8/625 255/8/625 254/8/625
f 213/8/626 256/8/626 255/8/626
f 216/8/627 257/8/627 256/8/627
f 238/8/628 257/8/628 216/8/628
f 258/8/629 217/8/629 215/8/629
f 260/8/630 259/8/630 215/8/630
f 261/7/631 231/7/631 230/7/631
f 263/7/632 262/7/632 230/7/632
f 264/7/633 263/7/633 227/7/633
f 224/7/634 265/7/634 264/7/634
f 227/7/635 266/7/635 265/7/635
f 230/7/636 267/7/636 266/7/636
f 268/7/637 267/7/637 230/7/637
f 212/7/638 269/7/638 268/7/638
f 269/8/639 212/8/639 215/8/639
f 270/8/640 215/8/640 217/8/640
f 271/7/641 270/7/641 217/7/641
f 271/8/642 222/8/642 208/8/642
f 272/8/643 246/8/643 208/8/643
f 234/8/644 272/8/644 209/8/644
f 235/8/645 244/8/645 237/8/645
f 273/8/646 242/8/646 211/8/646
f 209/8/647 222/8/647 274/8/647
f 274/7/648 222/7/648 220/7/648
f 275/7/649 220/7/649 217/7/649
f 277/9/650 280/9/650 313/9/650
f 280/9/651 277/9/651 278/9/651
f 311/9/652 281/9/652 278/9/652
f 334/10/653 335/10/653 319/10/653
f 324/10/654 328/10/654 329/10/654
f 171/9/655 146/9/655 133/9/655
f 339/9/656 309/9/656 310/9/656
f 318/10/657 319/10/657 335/10/657
f 325/10/658 327/10/658 328/10/658
f 318/10/659 336/10/659 337/10/659
f 325/10/660 307/10/660 326/10/660
f 316/9/661 317/9/661 337/9/661
f 308/9/662 340/9/662 326/9/662
f 315/9/663 316/9/663 338/9/663
f 309/9/664 339/9/664 340/9/664
f 295/10/665 294/10/665 292/10/665
f 333/10/666 321/10/666 332/10/666
f 322/10/667 297/10/667 330/10/667
f 333/10/668 334/10/668 320/10/668
f 323/10/669 329/10/669 330/10/669
f 280/9/670 302/9/670 312/9/670
f 303/9/671 302/9/671 280/9/671
f 301/9/672 303/9/672 281/9/672
f 305/9/673 304/9/673 312/9/673
f 305/9/674 302/9/674 303/9/674
f 301/9/675 304/9/675 306/9/675
f 293/10/676 292/10/676 294/10/676
f 308/9/677 307/9/677 286/9/677
f 291/9/678 309/9/678 308/9/678
f 309/9/679 291/9/679 276/9/679
f 279/9/680 311/9/680 310/9/680
f 301/10/681 311/10/681 279/10/681
f 312/10/682 301/10/682 279/10/682
f 314/9/683 313/9/683 279/9/683
f 276/9/684 291/9/684 315/9/684
f 291/9/685 288/9/685 316/9/685
f 286/9/686 317/9/686 316/9/686
f 284/10/687 318/10/687 317/10/687
f 284/10/688 282/10/688 319/10/688
f 320/10/689 319/10/689 282/10/689
f 321/10/690 320/10/690 300/10/690
f 321/10/691 297/10/691 295/10/691
f 332/10/692 295/10/692 292/10/692
f 297/10/693 322/10/693 295/10/693
f 300/10/694 323/10/694 297/10/694
f 282/10/695 324/10/695 323/10/695
f 284/10/696 325/10/696 324/10/696
f 307/10/697 325/10/697 284/10/697
f 327/9/698 326/9/698 287/9/698
f 328/10/699 327/10/699 285/10/699
f 329/10/700 328/10/700 283/10/700
f 329/10/701 299/10/701 298/10/701
f 322/10/702 330/10/702 298/10/702
f 331/10/703 322/10/703 296/10/703
f 296/10/704 332/10/704 293/10/704
f 298/10/705 333/10/705 332/10/705
f 334/10/706 333/10/706 298/10/706
f 283/10/707 335/10/707 334/10/707
f 336/10/708 335/10/708 283/10/708
f 336/9/709 285/9/709 287/9/709
f 338/9/710 337/9/710 287/9/710
f 290/9/711 338/9/711 289/9/711
f 278/9/712 290/9/712 339/9/712
f 339/9/713 290/9/713 289/9/713
f 340/10/714 289/10/714 287/10/714
f 342/4/715 343/4/715 344/4/715
f 342/4/716 341/4/716 343/4/716
f 346/4/717 350/4/717 347/4/717
f 347/4/387 349/4/387 345/4/387
f 346/4/8 348/4/8 350/4/8
f 6/3/718 14/3/718 16/3/718
f 360/3/719 363/3/719 373/3/719
f 373/3/720 374/3/720 353/3/720
f 353/3/721 389/3/721 373/3/721
f 353/3/722 359/3/722 352/3/722
f 355/3/723 371/3/723 358/3/723
f 362/3/724 358/3/724 371/3/724
f 360/3/725 354/3/725 357/3/725
f 359/3/726 375/3/726 351/3/726
f 206/4/727 207/4/727 204/4/727
f 204/4/728 205/4/728 206/4/728
f 361/1/729 363/1/729 357/1/729
f 364/3/730 366/3/730 367/3/730
f 368/3/731 374/3/731 369/3/731
f 366/3/732 370/3/732 369/3/732
f 368/3/733 364/3/733 365/3/733
f 366/3/734 372/3/734 367/3/734
f 374/3/735 365/3/735 375/3/735
f 372/3/736 373/3/736 363/3/736
f 372/3/737 363/3/737 361/3/737
f 359/3/738 353/3/738 374/3/738
f 367/3/739 372/3/739 361/3/739
f 367/3/740 361/3/740 362/3/740
f 367/3/741 362/3/741 371/3/741
f 375/3/742 359/3/742 374/3/742
f 365/3/743 371/3/743 355/3/743
f 366/3/388 364/3/388 370/3/388
f 368/3/388 370/3/388 364/3/388
f 372/3/744 369/3/744 373/3/744
f 353/4/745 376/4/745 377/4/745
f 353/4/746 352/4/746 378/4/746
f 352/4/747 351/4/747 379/4/747
f 357/4/748 354/4/748 380/4/748
f 354/4/749 382/4/749 380/4/749
f 360/4/750 388/4/750 382/4/750
f 389/4/751 356/4/751 377/4/751
f 362/4/752 383/4/752 384/4/752
f 361/4/753 385/4/753 383/4/753
f 355/4/754 387/4/754 386/4/754
f 355/4/755 358/4/755 384/4/755
f 361/4/756 357/4/756 381/4/756
f 375/4/757 386/4/757 379/4/757
f 360/4/758 389/4/758 388/4/758
f 394/1/759 393/1/759 390/1/759
f 394/1/760 392/1/760 391/1/760
f 395/1/761 391/1/761 390/1/761
f 394/1/762 416/1/762 393/1/762
f 400/6/763 399/6/763 398/6/763
f 400/6/764 398/6/764 397/6/764
f 417/6/765 397/6/765 396/6/765
f 405/2/766 404/2/766 401/2/766
f 405/2/767 403/2/767 402/2/767
f 406/2/768 402/2/768 401/2/768
f 394/1/769 415/1/769 416/1/769
f 395/1/770 414/1/770 415/1/770
f 395/1/771 416/1/771 414/1/771
f 417/6/772 399/6/772 408/6/772
f 399/6/773 400/6/773 408/6/773
f 406/2/774 410/2/774 412/2/774
f 406/2/775 404/2/775 413/2/775
f 404/2/776 405/2/776 412/2/776
f 413/2/777 412/2/777 411/2/777
f 415/1/778 414/1/778 407/1/778
f 417/6/779 408/6/779 409/6/779
f 421/7/780 418/7/780 420/7/780
f 419/7/781 422/7/781 420/7/781
f 421/7/782 443/7/782 419/7/782
f 426/11/783 423/11/783 425/11/783
f 428/11/784 427/11/784 424/11/784
f 432/2/785 429/2/785 431/2/785
f 434/2/786 433/2/786 430/2/786
f 421/7/787 442/7/787 443/7/787
f 422/7/788 441/7/788 442/7/788
f 422/7/789 443/7/789 441/7/789
f 426/11/790 427/11/790 437/11/790
f 432/2/791 438/2/791 440/2/791
f 433/2/792 434/2/792 439/2/792
f 442/7/793 441/7/793 435/7/793
f 426/11/794 437/11/794 436/11/794
f 428/11/795 436/11/795 437/11/795
f 444/4/796 445/4/796 448/4/796
f 7/4/797 18/4/797 2/4/797
f 18/4/10 1/4/10 44/4/10
f 447/4/798 448/4/798 445/4/798
f 450/4/423 451/4/423 452/4/423
f 452/4/424 449/4/424 450/4/424
f 457/4/796 458/4/796 461/4/796
f 460/4/798 461/4/798 458/4/798
f 16/1/799 3/1/799 24/1/799
f 466/2/800 465/2/800 462/2/800
f 466/2/801 464/2/801 463/2/801
f 467/2/802 463/2/802 462/2/802
f 467/2/803 468/2/803 470/2/803
f 467/2/804 465/2/804 471/2/804
f 465/2/805 466/2/805 470/2/805
f 471/2/806 470/2/806 469/2/806
f 472/4/807 476/4/807 475/4/807
f 473/4/808 474/4/808 477/4/808
f 474/4/809 475/4/809 477/4/809
f 45/4/22 17/4/22 43/4/22
f 17/4/810 10/4/810 4/4/810
f 36/1/811 23/1/811 35/1/811
f 480/4/812 478/4/812 482/4/812
f 479/4/813 483/4/813 482/4/813
f 480/4/814 481/4/814 483/4/814
f 486/4/815 489/4/815 485/4/815
f 487/4/816 490/4/816 489/4/816
f 484/4/817 488/4/817 490/4/817
f 496/4/387 494/4/387 495/4/387
f 491/4/818 495/4/818 494/4/818
f 492/4/819 496/4/819 495/4/819
f 492/4/820 493/4/820 494/4/820
f 488/4/821 485/4/821 490/4/821
f 485/4/822 489/4/822 490/4/822
f 18/3/823 19/3/823 57/3/823
f 18/3/824 57/3/824 54/3/824
f 492/4/8 491/4/8 493/4/8
f 2/3/825 31/3/825 7/3/825
f 31/3/826 37/3/826 7/3/826
f 11/3/10 15/3/10 8/3/10
f 3/3/827 14/3/827 11/3/827
f 3/3/828 11/3/828 8/3/828
f 8/3/829 7/3/829 24/3/829
f 7/3/10 37/3/10 39/3/10
f 7/3/830 39/3/830 24/3/830
f 499/4/812 497/4/812 501/4/812
f 498/4/813 502/4/813 501/4/813
f 499/4/814 500/4/814 502/4/814
f 504/4/831 508/4/831 507/4/831
f 505/4/832 509/4/832 508/4/832
f 503/4/833 507/4/833 506/4/833
f 11/3/385 14/3/385 6/3/385
f 509/4/834 506/4/834 508/4/834
f 506/4/835 507/4/835 508/4/835
