# Blender 5.2.2 LTS
# www.blender.org
mtllib ruins_tg_wall_c.mtl
o piece
v 2.137311 -1.006755 0.030960
v 2.137311 1.652491 0.030960
v 0.911401 -1.006755 0.030960
v 0.911401 1.652491 0.030960
v 1.941406 1.445061 0.030960
v 1.120338 1.445061 0.030958
v 1.941406 -0.801894 0.030960
v 1.120338 -0.801894 0.030959
v 1.038922 1.282539 0.030960
v 1.038922 -0.635063 0.030960
v 2.022824 -0.626980 0.030960
v 2.022824 1.298795 0.030960
v 1.593472 0.167400 0.030960
v 1.711422 0.257583 0.030960
v 1.468274 0.167400 0.030960
v 1.350323 0.256811 0.030960
v 1.350323 0.394027 0.030960
v 1.468274 0.481333 0.030960
v 1.711422 0.395584 0.030960
v 1.593472 0.481333 0.030960
v 1.295065 0.274124 -0.008203
v 1.295065 0.377039 -0.008203
v 1.061514 -0.455781 -0.008203
v 1.061514 1.103232 -0.008203
v 1.483923 0.570339 -0.008203
v 1.577823 0.570339 -0.008203
v 1.222972 1.383146 -0.008205
v 1.838772 1.383146 -0.008203
v 1.766690 0.380557 -0.008203
v 1.766690 0.277056 -0.008203
v 2.000241 1.118330 -0.008203
v 2.000241 -0.446812 -0.008203
v 1.577823 0.078394 -0.008203
v 1.483923 0.078394 -0.008203
v 1.838772 -0.739977 -0.008203
v 1.222972 -0.739977 -0.008205
v 0.633023 -1.006755 0.030960
v 0.633023 1.652491 0.030960
v -0.633026 -1.006755 0.030960
v -0.633026 1.652491 0.030960
v 0.411111 1.445061 0.030960
v -0.409958 1.445061 0.030960
v 0.411111 -0.801894 0.030960
v -0.409958 -0.801894 0.030960
v -0.491373 1.282539 0.030958
v -0.491373 -0.635063 0.030959
v 0.492526 -0.626980 0.030960
v 0.492526 1.298795 0.030960
v 0.063174 0.167400 0.030962
v 0.181125 0.257583 0.030960
v -0.062024 0.167400 0.030960
v -0.179971 0.256811 0.030959
v -0.179971 0.394027 0.030959
v -0.062024 0.481333 0.030960
v 0.181125 0.395584 0.030960
v 0.063174 0.481333 0.030962
v -0.235233 0.274124 -0.008203
v -0.235233 0.377039 -0.008203
v -0.468784 -0.455781 -0.008203
v -0.468784 1.103232 -0.008203
v -0.046375 0.570339 -0.008202
v 0.047525 0.570339 -0.008203
v -0.307324 1.383146 -0.008203
v 0.308478 1.383146 -0.008203
v 0.236392 0.380557 -0.008203
v 0.236392 0.277056 -0.008203
v 0.469943 1.118330 -0.008203
v 0.469943 -0.446812 -0.008203
v 0.047525 0.078394 -0.008203
v -0.046375 0.078394 -0.008202
v 0.308478 -0.739977 -0.008203
v -0.307324 -0.739977 -0.008203
v -0.903128 -1.006755 0.030960
v -0.903128 1.652491 0.030960
v -2.145587 -1.006755 0.030960
v -2.145587 1.652491 0.030960
v -1.115579 1.445061 0.030960
v -1.936649 1.445061 0.030960
v -1.115579 -0.801894 0.030960
v -1.936649 -0.801894 0.030960
v -2.018063 1.282539 0.030958
v -2.018063 -0.635063 0.030959
v -1.034164 -0.626980 0.030962
v -1.034164 1.298795 0.030962
v -1.463516 0.167400 0.030962
v -1.345566 0.257583 0.030962
v -1.588712 0.167400 0.030959
v -1.706662 0.256811 0.030959
v -1.706662 0.394027 0.030959
v -1.588712 0.481333 0.030959
v -1.345566 0.395584 0.030962
v -1.463516 0.481333 0.030962
v -1.761920 0.274124 -0.008205
v -1.761920 0.377039 -0.008205
v -1.995471 -0.455781 -0.008205
v -1.995471 1.103232 -0.008205
v -1.573065 0.570339 -0.008202
v -1.479163 0.570339 -0.008205
v -1.834015 1.383146 -0.008203
v -1.218213 1.383146 -0.008203
v -1.290295 0.380557 -0.008205
v -1.290295 0.277056 -0.008205
v -1.056747 1.118330 -0.008203
v -1.056747 -0.446812 -0.008203
v -1.479163 0.078394 -0.008205
v -1.573065 0.078394 -0.008202
v -1.218213 -0.739977 -0.008203
v -1.834015 -0.739977 -0.008203
v -2.500000 2.129000 -0.068253
v -2.500000 1.950016 0.113769
v -2.500000 -1.193708 0.113770
v -2.500000 -1.342214 0.272424
v 2.500000 2.129000 -0.068253
v 2.500000 1.950016 0.113769
v 2.500000 -1.193708 0.113770
v 2.500000 -1.342214 0.272424
v -2.500000 -2.500000 0.300556
v 2.500000 -2.500000 0.300556
v 2.500000 2.500000 -0.068253
v -2.500000 2.500000 -0.068253
v -2.500000 -2.500000 -0.300555
v 2.500000 -2.500000 -0.300555
v 2.500000 2.500000 -0.300556
v -2.500000 2.500000 -0.300556
v 0.762178 1.950016 0.113771
v 0.762178 -1.193708 0.113771
v -2.209711 1.734654 0.113771
v -0.839008 1.734654 0.113769
v -0.839008 -1.088917 0.113770
v -2.209711 -1.088917 0.113771
v 0.839005 1.734654 0.113769
v 0.839005 -1.088917 0.113770
v 2.209704 1.734654 0.113769
v 2.209704 -1.088917 0.113770
v -0.685352 1.734654 0.113769
v -0.685352 -1.088917 0.113770
v 0.685352 1.734654 0.113769
v 0.685352 -1.088917 0.113770
v 2.500000 -1.437353 0.300556
v -2.500000 -1.437353 0.300556
v 2.500000 -1.193707 -0.300555
v -2.500000 -1.193707 -0.300555
vn -0.0000 -0.0000 1.0000
vn -0.5782 -0.0000 0.8159
vn -0.6796 0.2373 0.6942
vn 0.8662 -0.0000 0.4997
vn -0.6774 -0.2374 0.6962
vn -0.0000 0.4027 0.9153
vn 0.6179 0.2231 0.7539
vn -0.0000 -0.5346 0.8451
vn -0.6179 0.2231 0.7539
vn 0.5782 -0.0000 0.8159
vn 0.6831 -0.2355 0.6913
vn -0.8663 -0.0000 0.4995
vn 0.6724 0.2367 0.7013
vn -0.0000 -0.4027 0.9153
vn -0.6195 -0.2224 0.7529
vn -0.0000 0.5346 0.8451
vn 0.6195 -0.2224 0.7529
vn -0.0000 -1.0000 -0.0000
vn -0.6795 0.2373 0.6942
vn -0.6774 -0.2374 0.6963
vn 0.6194 -0.2224 0.7529
vn -0.0000 -0.0000 -1.0000
vn -0.6180 0.2231 0.7539
vn -0.6195 -0.2224 0.7528
vn -1.0000 -0.0000 -0.0000
vn -0.0000 1.0000 -0.0000
vn -0.0000 0.7301 0.6834
vn -0.0000 0.7130 0.7011
vn -0.0000 -0.7099 0.7043
vn -0.7907 -0.0000 0.6122
vn -0.0000 0.7099 0.7043
vn 0.7907 -0.0000 0.6122
vn 0.7529 -0.0000 0.6582
vn -0.7529 -0.0000 0.6582
vn 0.8454 -0.0000 0.5342
vn -0.8454 -0.0000 0.5342
vn 1.0000 -0.0000 -0.0000
vn -0.0000 0.2835 0.9590
vn -0.5336 0.1707 0.8283
vn -0.5340 -0.1717 0.8279
vn 0.4238 0.1361 0.8955
vn -0.4238 0.1361 0.8955
vn 0.5384 -0.1704 0.8252
vn 0.5290 0.1707 0.8313
vn -0.4233 -0.1350 0.8959
vn 0.4233 -0.1350 0.8959
vn -0.5335 0.1707 0.8284
vn -0.5339 -0.1717 0.8279
vn -0.0000 0.4028 0.9153
vn -0.0000 -0.4028 0.9153
vn 0.5384 -0.1705 0.8252
vt 0.125000 0.375000
vt 0.875000 0.625000
vt 0.375000 0.625000
vt 0.625000 0.875000
s 0
usemtl ruins_tg_wall_c
f 11/1/1 13/1/1 7/1/1
f 24/2/1 21/2/1 22/2/1
f 28/2/1 25/2/1 26/2/1
f 32/2/1 29/2/1 30/2/1
f 34/2/1 35/2/1 33/2/1
f 17/1/2 21/1/2 16/1/2
f 16/1/3 23/1/3 10/1/3
f 10/1/4 24/1/4 9/1/4
f 24/1/5 17/1/5 9/1/5
f 26/1/6 18/1/6 20/1/6
f 25/1/7 6/1/7 18/1/7
f 6/1/8 28/1/8 5/1/8
f 5/1/9 26/1/9 20/1/9
f 30/1/10 19/1/10 14/1/10
f 19/1/11 31/1/11 12/1/11
f 31/1/12 11/1/12 12/1/12
f 32/1/13 14/1/13 11/1/13
f 34/1/14 13/1/14 15/1/14
f 33/1/15 7/1/15 13/1/15
f 35/1/16 8/1/16 7/1/16
f 8/1/17 34/1/17 15/1/17
f 53/1/1 52/1/1 54/1/1
f 119/2/1 109/2/1 113/2/1
f 76/1/1 81/1/1 78/1/1
f 44/1/1 39/1/1 37/1/1
f 122/3/18 117/3/18 121/3/18
f 60/2/1 57/2/1 58/2/1
f 62/2/1 63/2/1 61/2/1
f 68/2/1 65/2/1 66/2/1
f 72/2/1 69/2/1 70/2/1
f 53/1/2 57/1/2 52/1/2
f 52/1/19 59/1/19 46/1/19
f 46/1/4 60/1/4 45/1/4
f 60/1/20 53/1/20 45/1/20
f 56/1/6 61/1/6 54/1/6
f 61/1/7 42/1/7 54/1/7
f 63/1/8 41/1/8 42/1/8
f 41/1/9 62/1/9 56/1/9
f 66/1/10 55/1/10 50/1/10
f 55/1/11 67/1/11 48/1/11
f 67/1/12 47/1/12 48/1/12
f 68/1/13 50/1/13 47/1/13
f 70/1/14 49/1/14 51/1/14
f 69/1/15 43/1/15 49/1/15
f 71/1/16 44/1/16 43/1/16
f 44/1/21 70/1/21 51/1/21
f 92/1/1 85/1/1 86/1/1
f 141/4/22 121/4/22 142/4/22
f 42/1/1 41/1/1 38/1/1
f 96/2/1 93/2/1 94/2/1
f 100/2/1 97/2/1 98/2/1
f 104/2/1 101/2/1 102/2/1
f 108/2/1 105/2/1 106/2/1
f 89/1/2 93/1/2 88/1/2
f 88/1/3 95/1/3 82/1/3
f 82/1/4 96/1/4 81/1/4
f 96/1/5 89/1/5 81/1/5
f 92/1/6 97/1/6 90/1/6
f 97/1/7 78/1/7 90/1/7
f 99/1/8 77/1/8 78/1/8
f 77/1/23 98/1/23 92/1/23
f 102/1/10 91/1/10 86/1/10
f 91/1/11 103/1/11 84/1/11
f 103/1/12 83/1/12 84/1/12
f 104/1/13 86/1/13 83/1/13
f 106/1/14 85/1/14 87/1/14
f 105/1/24 79/1/24 85/1/24
f 107/1/16 80/1/16 79/1/16
f 80/1/17 106/1/17 87/1/17
f 19/1/1 12/1/1 20/1/1
f 109/2/25 120/2/25 124/2/25
f 123/2/26 120/2/26 119/2/26
f 10/1/1 4/1/1 3/1/1
f 116/3/27 115/3/27 126/3/27
f 125/2/1 131/2/1 133/2/1
f 111/2/1 127/2/1 110/2/1
f 125/2/28 113/2/28 109/2/28
f 134/2/1 126/2/1 115/2/1
f 76/2/29 128/2/29 127/2/29
f 74/2/30 129/2/30 128/2/30
f 129/2/31 75/2/31 130/2/31
f 130/2/32 76/2/32 127/2/32
f 3/2/33 131/2/33 132/2/33
f 4/2/29 133/2/29 131/2/29
f 2/2/34 134/2/34 133/2/34
f 134/2/31 3/2/31 132/2/31
f 39/2/35 135/2/35 136/2/35
f 135/2/29 38/2/29 137/2/29
f 38/2/36 138/2/36 137/2/36
f 37/2/31 136/2/31 138/2/31
f 115/3/37 116/3/37 139/3/37
f 111/3/25 142/3/25 140/3/25
f 114/2/37 115/2/37 141/2/37
f 117/3/1 139/3/1 140/3/1
f 125/2/1 110/2/1 128/2/1
f 139/3/38 112/3/38 140/3/38
f 11/1/1 14/1/1 13/1/1
f 24/2/1 23/2/1 21/2/1
f 28/2/1 27/2/1 25/2/1
f 32/2/1 31/2/1 29/2/1
f 34/2/1 36/2/1 35/2/1
f 17/1/2 22/1/2 21/1/2
f 16/1/39 21/1/39 23/1/39
f 10/1/4 23/1/4 24/1/4
f 24/1/40 22/1/40 17/1/40
f 26/1/6 25/1/6 18/1/6
f 25/1/41 27/1/41 6/1/41
f 6/1/8 27/1/8 28/1/8
f 5/1/42 28/1/42 26/1/42
f 30/1/10 29/1/10 19/1/10
f 19/1/43 29/1/43 31/1/43
f 31/1/12 32/1/12 11/1/12
f 32/1/44 30/1/44 14/1/44
f 34/1/14 33/1/14 13/1/14
f 33/1/45 35/1/45 7/1/45
f 35/1/16 36/1/16 8/1/16
f 8/1/46 36/1/46 34/1/46
f 52/1/1 46/1/1 51/1/1
f 46/1/1 44/1/1 51/1/1
f 51/1/1 54/1/1 52/1/1
f 54/1/1 42/1/1 45/1/1
f 54/1/1 45/1/1 53/1/1
f 119/2/1 120/2/1 109/2/1
f 84/1/1 83/1/1 74/1/1
f 83/1/1 73/1/1 74/1/1
f 75/1/1 80/1/1 82/1/1
f 80/1/1 87/1/1 82/1/1
f 87/1/1 88/1/1 82/1/1
f 81/1/1 89/1/1 90/1/1
f 81/1/1 90/1/1 78/1/1
f 75/1/1 82/1/1 76/1/1
f 82/1/1 81/1/1 76/1/1
f 77/1/1 84/1/1 74/1/1
f 78/1/1 77/1/1 76/1/1
f 77/1/1 74/1/1 76/1/1
f 46/1/1 45/1/1 40/1/1
f 37/1/1 38/1/1 47/1/1
f 38/1/1 48/1/1 47/1/1
f 46/1/1 40/1/1 39/1/1
f 44/1/1 46/1/1 39/1/1
f 37/1/1 47/1/1 43/1/1
f 43/1/1 44/1/1 37/1/1
f 122/3/18 118/3/18 117/3/18
f 60/2/1 59/2/1 57/2/1
f 62/2/1 64/2/1 63/2/1
f 68/2/1 67/2/1 65/2/1
f 72/2/1 71/2/1 69/2/1
f 53/1/2 58/1/2 57/1/2
f 52/1/47 57/1/47 59/1/47
f 46/1/4 59/1/4 60/1/4
f 60/1/48 58/1/48 53/1/48
f 56/1/49 62/1/49 61/1/49
f 61/1/41 63/1/41 42/1/41
f 63/1/8 64/1/8 41/1/8
f 41/1/42 64/1/42 62/1/42
f 66/1/10 65/1/10 55/1/10
f 55/1/43 65/1/43 67/1/43
f 67/1/12 68/1/12 47/1/12
f 68/1/44 66/1/44 50/1/44
f 70/1/50 69/1/50 49/1/50
f 69/1/45 71/1/45 43/1/45
f 71/1/16 72/1/16 44/1/16
f 44/1/46 72/1/46 70/1/46
f 91/1/1 84/1/1 92/1/1
f 84/1/1 77/1/1 92/1/1
f 92/1/1 90/1/1 87/1/1
f 90/1/1 89/1/1 88/1/1
f 73/1/1 83/1/1 79/1/1
f 83/1/1 86/1/1 85/1/1
f 79/1/1 83/1/1 85/1/1
f 86/1/1 91/1/1 92/1/1
f 90/1/1 88/1/1 87/1/1
f 87/1/1 85/1/1 92/1/1
f 79/1/1 80/1/1 75/1/1
f 79/1/1 75/1/1 73/1/1
f 124/4/22 123/4/22 141/4/22
f 141/4/22 122/4/22 121/4/22
f 142/4/22 124/4/22 141/4/22
f 54/1/1 51/1/1 49/1/1
f 49/1/1 43/1/1 47/1/1
f 49/1/1 47/1/1 50/1/1
f 56/1/1 54/1/1 49/1/1
f 41/1/1 56/1/1 48/1/1
f 56/1/1 49/1/1 50/1/1
f 48/1/1 56/1/1 55/1/1
f 50/1/1 55/1/1 56/1/1
f 40/1/1 45/1/1 42/1/1
f 41/1/1 48/1/1 38/1/1
f 40/1/1 42/1/1 38/1/1
f 96/2/1 95/2/1 93/2/1
f 100/2/1 99/2/1 97/2/1
f 104/2/1 103/2/1 101/2/1
f 108/2/1 107/2/1 105/2/1
f 89/1/2 94/1/2 93/1/2
f 88/1/39 93/1/39 95/1/39
f 82/1/4 95/1/4 96/1/4
f 96/1/40 94/1/40 89/1/40
f 92/1/49 98/1/49 97/1/49
f 97/1/41 99/1/41 78/1/41
f 99/1/8 100/1/8 77/1/8
f 77/1/42 100/1/42 98/1/42
f 102/1/10 101/1/10 91/1/10
f 91/1/51 101/1/51 103/1/51
f 103/1/12 104/1/12 83/1/12
f 104/1/44 102/1/44 86/1/44
f 106/1/50 105/1/50 85/1/50
f 105/1/45 107/1/45 79/1/45
f 107/1/16 108/1/16 80/1/16
f 80/1/46 108/1/46 106/1/46
f 20/1/1 18/1/1 15/1/1
f 18/1/1 17/1/1 16/1/1
f 16/1/1 10/1/1 15/1/1
f 10/1/1 8/1/1 15/1/1
f 18/1/1 16/1/1 15/1/1
f 4/1/1 6/1/1 2/1/1
f 6/1/1 5/1/1 2/1/1
f 11/1/1 7/1/1 1/1/1
f 12/1/1 11/1/1 2/1/1
f 11/1/1 1/1/1 2/1/1
f 2/1/1 5/1/1 12/1/1
f 5/1/1 20/1/1 12/1/1
f 15/1/1 13/1/1 20/1/1
f 13/1/1 14/1/1 20/1/1
f 20/1/1 14/1/1 19/1/1
f 124/2/25 142/2/25 109/2/25
f 142/2/25 111/2/25 110/2/25
f 109/2/25 142/2/25 110/2/25
f 123/2/26 124/2/26 120/2/26
f 9/1/1 17/1/1 18/1/1
f 18/1/1 6/1/1 9/1/1
f 6/1/1 4/1/1 9/1/1
f 3/1/1 1/1/1 8/1/1
f 1/1/1 7/1/1 8/1/1
f 3/1/1 8/1/1 10/1/1
f 10/1/1 9/1/1 4/1/1
f 126/3/27 111/3/27 112/3/27
f 112/3/27 116/3/27 126/3/27
f 114/2/1 125/2/1 133/2/1
f 125/2/1 137/2/1 131/2/1
f 137/2/1 138/2/1 132/2/1
f 138/2/1 126/2/1 132/2/1
f 132/2/1 131/2/1 137/2/1
f 133/2/1 134/2/1 115/2/1
f 133/2/1 115/2/1 114/2/1
f 111/2/1 130/2/1 127/2/1
f 109/2/28 110/2/28 125/2/28
f 125/2/28 114/2/28 113/2/28
f 134/2/1 132/2/1 126/2/1
f 76/2/29 74/2/29 128/2/29
f 74/2/30 73/2/30 129/2/30
f 129/2/31 73/2/31 75/2/31
f 130/2/32 75/2/32 76/2/32
f 3/2/33 4/2/33 131/2/33
f 4/2/29 2/2/29 133/2/29
f 2/2/34 1/2/34 134/2/34
f 134/2/31 1/2/31 3/2/31
f 39/2/35 40/2/35 135/2/35
f 135/2/29 40/2/29 38/2/29
f 38/2/36 37/2/36 138/2/36
f 37/2/31 39/2/31 136/2/31
f 118/3/37 122/3/37 139/3/37
f 122/3/37 141/3/37 139/3/37
f 139/3/37 141/3/37 115/3/37
f 117/3/25 140/3/25 121/3/25
f 140/3/25 112/3/25 111/3/25
f 121/3/25 140/3/25 142/3/25
f 141/2/37 123/2/37 113/2/37
f 123/2/37 119/2/37 113/2/37
f 113/2/37 114/2/37 141/2/37
f 117/3/1 118/3/1 139/3/1
f 129/2/1 130/2/1 111/2/1
f 111/2/1 126/2/1 129/2/1
f 126/2/1 138/2/1 136/2/1
f 126/2/1 136/2/1 129/2/1
f 135/2/1 137/2/1 125/2/1
f 129/2/1 136/2/1 135/2/1
f 110/2/1 127/2/1 128/2/1
f 128/2/1 129/2/1 135/2/1
f 135/2/1 125/2/1 128/2/1
f 139/3/38 116/3/38 112/3/38
