# Blender 5.2.2 LTS
# www.blender.org
mtllib ruins_kr_wall_c.mtl
o piece
v -2.026192 -1.850416 -0.661785
v -1.935705 -1.850416 -0.324089
v -1.688494 -1.850416 -0.076874
v -1.350796 -1.850416 0.013611
v -1.013100 -1.850416 -0.076874
v -0.765886 -1.850416 -0.324089
v -0.675400 -1.850416 -0.647709
v -0.584915 -1.850416 -0.324089
v -0.337702 -1.850416 -0.076874
v -0.000004 -1.850416 0.013611
v 0.337694 -1.850416 -0.076874
v 0.584906 -1.850416 -0.324089
v 0.675390 -1.850416 -0.647709
v 0.765877 -1.850416 -0.324089
v 1.013088 -1.850416 -0.076874
v 1.350786 -1.850416 0.013611
v 1.688484 -1.850416 -0.076874
v 1.935696 -1.850416 -0.324089
v 2.026180 -1.850416 -0.661785
v -2.026192 1.584453 -0.661785
v -1.935705 1.584453 -0.324089
v -1.688494 1.584453 -0.076874
v -1.350796 1.584453 0.013611
v -1.013100 1.584453 -0.076874
v -0.765886 1.584453 -0.324089
v -0.675400 1.584453 -0.647709
v -0.584913 1.584453 -0.324089
v -0.337702 1.584453 -0.076874
v -0.000004 1.584453 0.013611
v 0.337694 1.584453 -0.076874
v 0.584906 1.584453 -0.324089
v 0.675392 1.584453 -0.647709
v 0.765877 1.584453 -0.324089
v 1.013088 1.584453 -0.076874
v 1.350786 1.584453 0.013611
v 1.688484 1.584453 -0.076874
v 1.935696 1.584453 -0.324089
v 2.026180 1.584453 -0.661785
v -2.026192 -0.006812 -0.661785
v -1.935705 -0.006812 -0.324089
v -1.688494 -0.006812 -0.076874
v -1.350796 -0.006812 0.013611
v -1.013100 -0.006812 -0.076874
v -0.765886 -0.006812 -0.324089
v -0.675400 -0.006812 -0.647709
v -0.584915 -0.006812 -0.324089
v -0.337702 -0.006812 -0.076874
v -0.000004 -0.006812 0.013611
v 0.337694 -0.006812 -0.076874
v 0.584906 -0.006812 -0.324089
v 0.675392 -0.006813 -0.647709
v 0.765877 -0.006812 -0.324089
v 1.013088 -0.006812 -0.076874
v 1.350785 -0.006812 0.013611
v 1.688484 -0.006812 -0.076874
v 1.935696 -0.006812 -0.324089
v 2.026180 -0.006812 -0.661785
v -2.026192 -0.296594 -0.661785
v -1.935707 -0.296594 -0.324089
v -1.688494 -0.296594 -0.076874
v -1.350796 -0.296594 0.013611
v -1.013100 -0.296594 -0.076874
v -0.765886 -0.296594 -0.324089
v -0.675400 -0.296594 -0.647709
v -0.584915 -0.296594 -0.324089
v -0.337702 -0.296594 -0.076874
v -0.000004 -0.296594 0.013611
v 0.337694 -0.296594 -0.076874
v 0.584906 -0.296594 -0.324089
v 0.675390 -0.296595 -0.647709
v 0.765877 -0.296594 -0.324089
v 1.013088 -0.296594 -0.076874
v 1.350785 -0.296594 0.013611
v 1.688484 -0.296594 -0.076874
v 1.935696 -0.296594 -0.324089
v 2.026180 -0.296594 -0.661785
v 0.675392 1.584453 -0.271561
v 0.675392 1.960693 -0.271561
v 0.960560 1.584453 0.014107
v 0.960560 1.960693 0.014107
v 1.350786 1.584453 0.118668
v 1.350786 1.960693 0.118668
v 1.741013 1.584453 0.014107
v 1.741013 1.960693 0.014107
v 2.026676 1.584453 -0.271561
v 2.026676 1.960693 -0.271561
v -0.675400 1.584453 -0.271561
v -0.675400 1.960693 -0.271561
v -0.390230 1.584453 0.014107
v -0.390230 1.960693 0.014107
v -0.000004 1.584453 0.118668
v -0.000004 1.960693 0.118668
v 0.390222 1.584453 0.014107
v 0.390222 1.960693 0.014107
v -2.026688 1.584453 -0.271561
v -2.026688 1.960693 -0.271561
v -1.741022 1.584453 0.014107
v -1.741022 1.960693 0.014107
v -1.350796 1.584452 0.118668
v -1.350796 1.960692 0.118668
v -0.960571 1.584452 0.014107
v -0.960570 1.960692 0.014107
v -2.026688 -2.241072 -0.271561
v -2.026688 -1.850416 -0.271561
v -1.741022 -2.241072 0.014107
v -1.741022 -1.850416 0.014107
v -1.350796 -2.241072 0.118668
v -1.350796 -1.850416 0.118668
v -0.960570 -2.241072 0.014107
v -0.960571 -1.850416 0.014107
v -0.675400 -2.241072 -0.271561
v -0.675400 -1.850416 -0.271561
v -0.390230 -2.241072 0.014107
v -0.390230 -1.850416 0.014107
v -0.000004 -2.241072 0.118668
v -0.000004 -1.850416 0.118668
v 0.390222 -2.241072 0.014107
v 0.390222 -1.850416 0.014107
v 0.675392 -2.241072 -0.271561
v 0.675392 -1.850416 -0.271561
v 0.960560 -2.241072 0.014107
v 0.960560 -1.850416 0.014107
v 1.350786 -2.241072 0.118668
v 1.350786 -1.850416 0.118668
v 1.741013 -2.241072 0.014107
v 1.741013 -1.850416 0.014107
v 2.026676 -2.241072 -0.271561
v 2.026676 -1.850416 -0.271561
v -2.026690 -0.296594 -0.271561
v -2.026688 -0.006812 -0.271561
v -1.741022 -0.296594 0.014107
v -1.741022 -0.006812 0.014107
v -1.350796 -0.296594 0.118668
v -1.350796 -0.006812 0.118668
v -0.960571 -0.296594 0.014107
v -0.960571 -0.006812 0.014107
v -0.675400 -0.296594 -0.271561
v -0.675400 -0.006812 -0.271561
v -0.390230 -0.296594 0.014107
v -0.390230 -0.006812 0.014107
v -0.000004 -0.296594 0.118668
v -0.000004 -0.006812 0.118668
v 0.390222 -0.296594 0.014107
v 0.390222 -0.006812 0.014107
v 0.675392 -0.296595 -0.271561
v 0.675392 -0.006813 -0.271561
v 0.960560 -0.296594 0.014107
v 0.960560 -0.006812 0.014107
v 1.350785 -0.296594 0.118668
v 1.350785 -0.006812 0.118668
v 1.741013 -0.296594 0.014107
v 1.741013 -0.006812 0.014107
v 2.026676 -0.296594 -0.271561
v 2.026676 -0.006812 -0.271561
v -2.500000 -2.500000 0.744648
v 2.500000 -2.500000 0.744648
v -2.500000 2.500000 0.744648
v 2.500000 2.500000 0.744648
v -2.012951 -2.241072 0.744648
v 2.012959 -2.241072 0.744648
v 2.012959 1.960693 0.744648
v -2.012951 1.960693 0.744648
v -2.012951 -2.241072 -0.812382
v 2.012959 -2.241072 -0.812382
v 2.012959 1.960693 -0.812382
v -2.012951 1.960693 -0.812382
v -2.012951 1.960693 0.464935
v -2.012951 -2.241072 0.464935
v 2.012959 -2.241072 0.464935
v 2.012959 1.960693 0.464935
v -1.920382 -2.086790 0.801037
v -1.920382 1.806410 0.801037
v -1.920382 -2.086790 0.476280
v -1.920382 1.806410 0.476280
v 1.920395 -2.086790 0.801037
v 1.920395 -2.086790 0.476280
v 1.920395 1.806410 0.801037
v 1.920395 1.806410 0.476280
v 2.500000 0.361930 0.744648
v 2.500000 1.727069 0.744648
v 2.400265 1.096275 0.744648
v 2.500000 1.112760 0.649895
v 2.500000 -0.524527 0.744648
v 2.500000 -0.021096 0.744648
v 2.428127 -0.326794 0.744648
v 2.500000 -0.328940 0.647881
v 1.920395 -1.553348 0.801037
v 1.920395 -0.660127 0.801037
v 2.012959 -0.998821 0.744648
v 1.920395 -1.032114 0.759331
v -1.920382 1.239689 0.476280
v -1.920383 0.354877 0.476280
v -2.012951 0.799800 0.464935
v -1.920382 0.727695 0.528763
v -1.920383 -1.127498 0.801037
v -1.920382 -0.304331 0.801037
v -1.920382 -0.619449 0.731819
v -2.500000 -0.707900 0.744648
v -2.430443 0.158122 0.744648
v -2.500000 0.654205 0.744648
v -2.500000 0.138047 0.652046
v -2.012951 -2.241072 0.812382
v 2.012959 -2.241072 0.812382
v 2.012959 -0.998821 0.812382
v -2.012951 -0.653532 0.812382
v -2.012951 1.960693 0.812382
v 2.012959 1.960693 0.812382
v -1.420486 1.960693 0.812382
v -0.911026 1.960693 0.812382
v -1.221951 1.960693 0.744648
v -1.219696 1.861463 0.805084
v 0.032663 1.806410 0.801037
v 0.513485 1.806410 0.801037
v 0.268244 1.886320 0.806911
v 0.209818 1.806411 0.731098
v 0.420937 -2.086790 0.801037
v 1.284658 -2.086790 0.801037
v 0.907383 -2.086790 0.698383
v 0.894608 -2.139130 0.804886
v -1.180176 -2.086790 0.476276
v -0.591135 -2.086790 0.476280
v -0.745556 -2.086790 0.540012
v -0.825004 -2.154644 0.471291
v -1.114893 2.500000 0.744648
v -0.174393 2.500000 0.744648
v -0.672680 2.500000 0.625126
v -0.768850 2.403036 0.744648
vn -0.7077 -0.0000 0.7065
vn -0.2588 -0.0000 0.9659
vn 0.2588 -0.0000 0.9659
vn 0.7071 -0.0000 0.7071
vn 0.7077 -0.0000 0.7065
vn -0.7071 -0.0000 0.7071
vn 0.9631 -0.0000 0.2693
vn -0.9631 -0.0000 0.2693
vn -0.0000 -1.0000 -0.0000
vn -0.0000 1.0000 -0.0000
vn 1.0000 -0.0000 -0.0000
vn -0.8046 0.0646 0.5903
vn -1.0000 -0.0000 -0.0000
vn -0.0000 0.0733 -0.9973
vn 0.6206 0.1093 -0.7765
vn -0.2235 0.8103 -0.5417
vn -0.1217 -0.0000 -0.9926
vn -0.0000 -0.0734 0.9973
vn -0.0000 -0.0733 -0.9973
vn 0.6778 0.0921 0.7295
vn 0.7734 0.2811 0.5682
vn 0.7870 -0.1850 0.5886
vn 0.6941 -0.1097 0.7115
vn -0.5145 0.0684 0.8548
vn -0.1217 -0.0000 0.9926
vn 0.1216 -0.0000 -0.9926
vn 0.5186 -0.0872 -0.8506
vn 0.1216 -0.0000 0.9926
vn 0.6806 -0.1572 0.7156
vn -0.0000 -0.0000 1.0000
vn -0.7831 -0.1098 0.6121
vn -0.0000 0.0733 0.9973
vn 0.6307 0.1048 0.7690
vn -0.4679 -0.0985 0.8783
vn 0.2789 0.5041 0.8174
vn -0.1833 0.5083 0.8414
vn 0.2408 -0.7549 0.6100
vn -0.1787 -0.6053 0.7757
vn 0.0946 0.8889 0.4482
vn -0.1161 0.8968 0.4268
vn 0.1115 0.6397 -0.7605
vn 0.1910 0.6815 0.7065
vn -0.1337 0.8195 0.5573
vn -0.0000 -0.0733 0.9973
vt 0.625000 0.875000
vt 0.125000 0.625000
vt 0.375000 0.875000
vt 0.125000 0.375000
vt 0.625000 0.625000
vt 0.875000 0.375000
s 0
usemtl ruins_kr_wall_c
f 79/1/1 78/1/1 77/1/1
f 81/1/2 80/1/2 79/1/2
f 83/1/3 82/1/3 81/1/3
f 85/1/4 84/1/4 83/1/4
f 89/1/1 88/1/1 87/1/1
f 91/1/2 90/1/2 89/1/2
f 93/1/3 92/1/3 91/1/3
f 77/1/5 94/1/5 93/1/5
f 97/1/6 96/1/6 95/1/6
f 97/1/2 100/1/2 98/1/2
f 101/1/3 100/1/3 99/1/3
f 87/1/5 102/1/5 101/1/5
f 105/1/6 104/1/6 103/1/6
f 107/1/2 106/1/2 105/1/2
f 107/1/3 110/1/3 108/1/3
f 109/1/5 112/1/5 110/1/5
f 113/1/1 112/1/1 111/1/1
f 115/1/2 114/1/2 113/1/2
f 117/1/3 116/1/3 115/1/3
f 119/1/5 118/1/5 117/1/5
f 119/1/1 122/1/1 120/1/1
f 123/1/2 122/1/2 121/1/2
f 125/1/3 124/1/3 123/1/3
f 125/1/4 128/1/4 126/1/4
f 41/2/6 21/2/6 40/2/6
f 42/2/2 22/2/2 41/2/2
f 43/2/3 23/2/3 42/2/3
f 44/2/4 24/2/4 43/2/4
f 45/2/7 25/2/7 44/2/7
f 46/2/8 26/2/8 45/2/8
f 47/2/6 27/2/6 46/2/6
f 47/2/2 29/2/2 28/2/2
f 48/2/3 30/2/3 29/2/3
f 50/2/4 30/2/4 49/2/4
f 50/2/7 32/2/7 31/2/7
f 52/2/8 32/2/8 51/2/8
f 52/2/6 34/2/6 33/2/6
f 54/2/2 34/2/2 53/2/2
f 55/2/3 35/2/3 54/2/3
f 56/2/4 36/2/4 55/2/4
f 131/1/6 130/1/6 129/1/6
f 133/1/2 132/1/2 131/1/2
f 135/1/3 134/1/3 133/1/3
f 135/1/5 138/1/5 136/1/5
f 139/1/1 138/1/1 137/1/1
f 141/1/2 140/1/2 139/1/2
f 143/1/3 142/1/3 141/1/3
f 143/1/5 146/1/5 144/1/5
f 147/1/1 146/1/1 145/1/1
f 149/1/2 148/1/2 147/1/2
f 151/1/3 150/1/3 149/1/3
f 151/1/4 154/1/4 152/1/4
f 3/2/6 59/2/6 2/2/6
f 4/2/2 60/2/2 3/2/2
f 4/2/3 62/2/3 61/2/3
f 6/2/4 62/2/4 5/2/4
f 6/2/7 64/2/7 63/2/7
f 8/2/8 64/2/8 7/2/8
f 9/2/6 65/2/6 8/2/6
f 10/2/2 66/2/2 9/2/2
f 10/2/3 68/2/3 67/2/3
f 11/2/4 69/2/4 68/2/4
f 13/2/7 69/2/7 12/2/7
f 14/2/8 70/2/8 13/2/8
f 15/2/6 71/2/6 14/2/6
f 16/2/2 72/2/2 15/2/2
f 16/2/3 74/2/3 73/2/3
f 17/2/4 75/2/4 74/2/4
f 91/1/9 28/1/9 29/1/9
f 176/3/10 221/3/10 218/3/10
f 116/1/10 11/1/10 10/1/10
f 66/1/9 67/1/9 141/1/9
f 48/1/10 142/1/10 49/1/10
f 173/3/11 192/3/11 197/3/11
f 199/4/12 201/4/12 198/4/12
f 169/5/10 163/5/10 168/5/10
f 170/5/13 164/5/13 169/5/13
f 167/5/9 165/5/9 170/5/9
f 193/5/11 163/5/11 166/5/11
f 169/3/14 168/3/14 223/3/14
f 190/3/13 176/3/13 187/3/13
f 192/3/15 193/3/15 194/3/15
f 221/3/16 223/3/16 222/3/16
f 169/3/17 178/3/17 170/3/17
f 207/3/18 209/3/18 214/3/18
f 170/3/19 174/3/19 167/3/19
f 182/4/20 181/4/20 179/4/20
f 186/4/21 185/4/21 183/4/21
f 184/4/22 185/4/22 186/4/22
f 180/4/23 181/4/23 182/4/23
f 204/3/24 190/3/24 187/3/24
f 203/3/25 187/3/25 175/3/25
f 188/3/25 207/3/25 177/3/25
f 168/3/26 192/3/26 173/3/26
f 191/3/26 167/3/26 174/3/26
f 194/3/27 193/3/27 191/3/27
f 206/3/28 196/3/28 172/3/28
f 195/3/28 202/3/28 171/3/28
f 205/3/29 197/3/29 196/3/29
f 159/4/30 162/4/30 199/4/30
f 200/4/31 201/4/31 199/4/31
f 215/3/9 178/3/9 213/3/9
f 202/3/32 203/3/32 219/3/32
f 160/3/9 202/3/9 159/3/9
f 208/3/10 162/3/10 206/3/10
f 161/3/11 204/3/11 189/3/11
f 197/3/33 205/3/33 195/3/33
f 204/6/11 160/6/11 189/6/11
f 188/3/34 190/3/34 204/3/34
f 161/3/10 209/3/10 207/3/10
f 208/3/35 211/3/35 210/3/35
f 210/3/36 211/3/36 209/3/36
f 212/3/37 215/3/37 214/3/37
f 214/3/38 215/3/38 213/3/38
f 159/3/13 202/3/13 205/3/13
f 185/4/30 184/4/30 179/4/30
f 216/3/39 219/3/39 218/3/39
f 218/3/40 219/3/40 217/3/40
f 222/3/41 223/3/41 220/3/41
f 224/4/42 227/4/42 226/4/42
f 226/4/43 227/4/43 225/4/43
f 79/1/1 80/1/1 78/1/1
f 81/1/2 82/1/2 80/1/2
f 83/1/3 84/1/3 82/1/3
f 85/1/4 86/1/4 84/1/4
f 89/1/1 90/1/1 88/1/1
f 91/1/2 92/1/2 90/1/2
f 93/1/3 94/1/3 92/1/3
f 77/1/5 78/1/5 94/1/5
f 97/1/6 98/1/6 96/1/6
f 97/1/2 99/1/2 100/1/2
f 101/1/3 102/1/3 100/1/3
f 87/1/5 88/1/5 102/1/5
f 105/1/6 106/1/6 104/1/6
f 107/1/2 108/1/2 106/1/2
f 107/1/3 109/1/3 110/1/3
f 109/1/5 111/1/5 112/1/5
f 113/1/1 114/1/1 112/1/1
f 115/1/2 116/1/2 114/1/2
f 117/1/3 118/1/3 116/1/3
f 119/1/5 120/1/5 118/1/5
f 119/1/1 121/1/1 122/1/1
f 123/1/2 124/1/2 122/1/2
f 125/1/3 126/1/3 124/1/3
f 125/1/4 127/1/4 128/1/4
f 41/2/6 22/2/6 21/2/6
f 42/2/2 23/2/2 22/2/2
f 43/2/3 24/2/3 23/2/3
f 44/2/4 25/2/4 24/2/4
f 45/2/7 26/2/7 25/2/7
f 46/2/8 27/2/8 26/2/8
f 47/2/6 28/2/6 27/2/6
f 47/2/2 48/2/2 29/2/2
f 48/2/3 49/2/3 30/2/3
f 50/2/4 31/2/4 30/2/4
f 50/2/7 51/2/7 32/2/7
f 52/2/8 33/2/8 32/2/8
f 52/2/6 53/2/6 34/2/6
f 54/2/2 35/2/2 34/2/2
f 55/2/3 36/2/3 35/2/3
f 56/2/4 37/2/4 36/2/4
f 131/1/6 132/1/6 130/1/6
f 133/1/2 134/1/2 132/1/2
f 135/1/3 136/1/3 134/1/3
f 135/1/5 137/1/5 138/1/5
f 139/1/1 140/1/1 138/1/1
f 141/1/2 142/1/2 140/1/2
f 143/1/3 144/1/3 142/1/3
f 143/1/5 145/1/5 146/1/5
f 147/1/1 148/1/1 146/1/1
f 149/1/2 150/1/2 148/1/2
f 151/1/3 152/1/3 150/1/3
f 151/1/4 153/1/4 154/1/4
f 3/2/6 60/2/6 59/2/6
f 4/2/2 61/2/2 60/2/2
f 4/2/3 5/2/3 62/2/3
f 6/2/4 63/2/4 62/2/4
f 6/2/7 7/2/7 64/2/7
f 8/2/8 65/2/8 64/2/8
f 9/2/6 66/2/6 65/2/6
f 10/2/2 67/2/2 66/2/2
f 10/2/3 11/2/3 68/2/3
f 11/2/4 12/2/4 69/2/4
f 13/2/7 70/2/7 69/2/7
f 14/2/8 71/2/8 70/2/8
f 15/2/6 72/2/6 71/2/6
f 16/2/2 73/2/2 72/2/2
f 16/2/3 17/2/3 74/2/3
f 17/2/4 18/2/4 75/2/4
f 31/1/9 32/1/9 33/1/9
f 31/1/9 33/1/9 77/1/9
f 33/1/9 34/1/9 77/1/9
f 37/1/9 38/1/9 85/1/9
f 85/1/9 83/1/9 36/1/9
f 83/1/9 81/1/9 36/1/9
f 81/1/9 79/1/9 34/1/9
f 79/1/9 77/1/9 34/1/9
f 77/1/9 93/1/9 30/1/9
f 93/1/9 91/1/9 30/1/9
f 91/1/9 89/1/9 28/1/9
f 89/1/9 87/1/9 28/1/9
f 87/1/9 101/1/9 24/1/9
f 101/1/9 99/1/9 24/1/9
f 99/1/9 97/1/9 22/1/9
f 97/1/9 95/1/9 22/1/9
f 95/1/9 20/1/9 21/1/9
f 95/1/9 21/1/9 22/1/9
f 36/1/9 37/1/9 85/1/9
f 35/1/9 36/1/9 81/1/9
f 34/1/9 35/1/9 81/1/9
f 25/1/9 26/1/9 27/1/9
f 24/1/9 25/1/9 87/1/9
f 25/1/9 27/1/9 87/1/9
f 99/1/9 22/1/9 23/1/9
f 99/1/9 23/1/9 24/1/9
f 87/1/9 27/1/9 28/1/9
f 30/1/9 31/1/9 77/1/9
f 29/1/9 30/1/9 91/1/9
f 173/3/10 171/3/10 220/3/10
f 171/3/10 216/3/10 222/3/10
f 218/3/10 217/3/10 176/3/10
f 217/3/10 175/3/10 176/3/10
f 171/3/10 222/3/10 220/3/10
f 216/3/10 218/3/10 221/3/10
f 222/3/10 216/3/10 221/3/10
f 2/1/10 1/1/10 104/1/10
f 104/1/10 106/1/10 3/1/10
f 106/1/10 108/1/10 3/1/10
f 108/1/10 110/1/10 5/1/10
f 110/1/10 112/1/10 5/1/10
f 112/1/10 114/1/10 9/1/10
f 114/1/10 116/1/10 9/1/10
f 116/1/10 118/1/10 11/1/10
f 118/1/10 120/1/10 11/1/10
f 120/1/10 122/1/10 15/1/10
f 122/1/10 124/1/10 15/1/10
f 124/1/10 126/1/10 17/1/10
f 126/1/10 128/1/10 17/1/10
f 128/1/10 19/1/10 18/1/10
f 128/1/10 18/1/10 17/1/10
f 3/1/10 2/1/10 104/1/10
f 4/1/10 3/1/10 108/1/10
f 5/1/10 4/1/10 108/1/10
f 8/1/10 7/1/10 6/1/10
f 6/1/10 5/1/10 112/1/10
f 124/1/10 17/1/10 16/1/10
f 124/1/10 16/1/10 15/1/10
f 14/1/10 13/1/10 12/1/10
f 15/1/10 14/1/10 120/1/10
f 14/1/10 12/1/10 120/1/10
f 6/1/10 112/1/10 8/1/10
f 9/1/10 8/1/10 112/1/10
f 120/1/10 12/1/10 11/1/10
f 10/1/10 9/1/10 116/1/10
f 63/1/9 64/1/9 65/1/9
f 63/1/9 65/1/9 137/1/9
f 65/1/9 66/1/9 137/1/9
f 69/1/9 70/1/9 71/1/9
f 69/1/9 71/1/9 145/1/9
f 71/1/9 72/1/9 145/1/9
f 75/1/9 76/1/9 153/1/9
f 153/1/9 151/1/9 74/1/9
f 151/1/9 149/1/9 74/1/9
f 149/1/9 147/1/9 72/1/9
f 147/1/9 145/1/9 72/1/9
f 145/1/9 143/1/9 68/1/9
f 143/1/9 141/1/9 68/1/9
f 141/1/9 139/1/9 66/1/9
f 139/1/9 137/1/9 66/1/9
f 137/1/9 135/1/9 62/1/9
f 135/1/9 133/1/9 62/1/9
f 133/1/9 131/1/9 60/1/9
f 131/1/9 129/1/9 60/1/9
f 129/1/9 58/1/9 59/1/9
f 129/1/9 59/1/9 60/1/9
f 74/1/9 75/1/9 153/1/9
f 73/1/9 74/1/9 149/1/9
f 72/1/9 73/1/9 149/1/9
f 133/1/9 60/1/9 61/1/9
f 133/1/9 61/1/9 62/1/9
f 137/1/9 62/1/9 63/1/9
f 68/1/9 69/1/9 145/1/9
f 67/1/9 68/1/9 141/1/9
f 46/1/10 45/1/10 44/1/10
f 46/1/10 44/1/10 138/1/10
f 44/1/10 43/1/10 138/1/10
f 40/1/10 39/1/10 130/1/10
f 130/1/10 132/1/10 41/1/10
f 132/1/10 134/1/10 41/1/10
f 134/1/10 136/1/10 43/1/10
f 136/1/10 138/1/10 43/1/10
f 138/1/10 140/1/10 47/1/10
f 140/1/10 142/1/10 47/1/10
f 142/1/10 144/1/10 49/1/10
f 144/1/10 146/1/10 49/1/10
f 146/1/10 148/1/10 53/1/10
f 148/1/10 150/1/10 53/1/10
f 150/1/10 152/1/10 55/1/10
f 152/1/10 154/1/10 55/1/10
f 154/1/10 57/1/10 56/1/10
f 154/1/10 56/1/10 55/1/10
f 41/1/10 40/1/10 130/1/10
f 42/1/10 41/1/10 134/1/10
f 43/1/10 42/1/10 134/1/10
f 52/1/10 51/1/10 50/1/10
f 53/1/10 52/1/10 146/1/10
f 52/1/10 50/1/10 146/1/10
f 150/1/10 55/1/10 54/1/10
f 150/1/10 54/1/10 53/1/10
f 146/1/10 50/1/10 49/1/10
f 47/1/10 46/1/10 138/1/10
f 48/1/10 47/1/10 142/1/10
f 194/3/11 191/3/11 172/3/11
f 191/3/11 174/3/11 172/3/11
f 172/3/11 196/3/11 194/3/11
f 197/3/11 195/3/11 173/3/11
f 195/3/11 171/3/11 173/3/11
f 196/3/11 197/3/11 192/3/11
f 194/3/11 196/3/11 192/3/11
f 169/5/10 164/5/10 163/5/10
f 170/5/13 165/5/13 164/5/13
f 167/5/9 166/5/9 165/5/9
f 166/5/11 167/5/11 193/5/11
f 193/5/11 168/5/11 163/5/11
f 168/3/14 173/3/14 220/3/14
f 223/3/14 221/3/14 169/3/14
f 221/3/14 176/3/14 169/3/14
f 168/3/14 220/3/14 223/3/14
f 190/3/13 188/3/13 176/3/13
f 188/3/13 177/3/13 178/3/13
f 178/3/13 176/3/13 188/3/13
f 176/3/13 175/3/13 187/3/13
f 169/3/17 176/3/17 178/3/17
f 211/3/44 208/3/44 172/3/44
f 208/3/44 206/3/44 172/3/44
f 172/3/44 212/3/44 211/3/44
f 212/3/44 214/3/44 209/3/44
f 211/3/44 212/3/44 209/3/44
f 214/3/44 213/3/44 207/3/44
f 213/3/44 177/3/44 207/3/44
f 170/3/19 178/3/19 174/3/19
f 203/3/25 204/3/25 187/3/25
f 188/3/25 204/3/25 207/3/25
f 168/3/26 193/3/26 192/3/26
f 191/3/26 193/3/26 167/3/26
f 206/3/28 205/3/28 196/3/28
f 195/3/28 205/3/28 202/3/28
f 162/4/30 210/4/30 224/4/30
f 210/4/30 158/4/30 225/4/30
f 227/4/30 210/4/30 225/4/30
f 227/4/30 224/4/30 210/4/30
f 224/4/30 157/4/30 162/4/30
f 157/4/30 200/4/30 162/4/30
f 200/4/30 199/4/30 162/4/30
f 199/4/30 198/4/30 159/4/30
f 198/4/30 155/4/30 159/4/30
f 156/4/30 183/4/30 189/4/30
f 183/4/30 185/4/30 189/4/30
f 189/4/30 160/4/30 156/4/30
f 156/4/30 160/4/30 159/4/30
f 155/4/30 156/4/30 159/4/30
f 215/3/9 212/3/9 174/3/9
f 212/3/9 172/3/9 174/3/9
f 174/3/9 178/3/9 215/3/9
f 178/3/9 177/3/9 213/3/9
f 203/3/32 175/3/32 217/3/32
f 219/3/32 216/3/32 202/3/32
f 216/3/32 171/3/32 202/3/32
f 203/3/32 217/3/32 219/3/32
f 160/3/9 203/3/9 202/3/9
f 208/3/10 210/3/10 162/3/10
f 161/3/11 207/3/11 204/3/11
f 204/6/11 203/6/11 160/6/11
f 161/3/10 210/3/10 209/3/10
f 206/3/13 162/3/13 205/3/13
f 162/3/13 159/3/13 205/3/13
f 181/4/30 180/4/30 161/4/30
f 180/4/30 158/4/30 161/4/30
f 158/4/30 210/4/30 161/4/30
f 161/4/30 189/4/30 181/4/30
f 189/4/30 185/4/30 179/4/30
f 181/4/30 189/4/30 179/4/30
