# Blender 5.2.2 LTS
# www.blender.org
mtllib ruins_hk_floor_a.mtl
o piece
v -0.127257 0.156043 0.062733
v -2.372743 0.156043 0.062733
v -0.242117 0.267540 0.108317
v -2.258588 0.267540 0.108317
v -0.127254 2.343956 0.062732
v -2.372743 2.343952 0.062732
v -0.242117 2.232462 0.108317
v -2.258588 2.232462 0.108317
v -2.462570 2.462567 0.098493
v -2.500000 2.500000 -0.108317
v -2.462567 0.037430 0.098493
v -2.500000 0.000000 -0.108316
v -0.037430 2.462567 0.098493
v 0.000000 2.500000 -0.108317
v -0.037433 0.037430 0.098493
v 0.000000 0.000000 -0.108316
v -2.401535 2.401532 0.062732
v -2.401531 0.098467 0.062733
v -0.098465 2.401532 0.062732
v -0.098469 0.098467 0.062733
v -0.270470 0.295168 0.082923
v -2.230235 0.295168 0.082923
v -0.270470 2.204834 0.082923
v -2.230235 2.204834 0.082923
v 2.372743 0.156043 0.062733
v 0.127257 0.156043 0.062733
v 2.257883 0.267540 0.108317
v 0.241412 0.267540 0.108317
v 2.372746 2.343956 0.062732
v 0.127257 2.343952 0.062732
v 2.257883 2.232462 0.108317
v 0.241412 2.232462 0.108317
v 0.037430 2.462567 0.098493
v 0.037433 0.037430 0.098493
v 2.462570 2.462567 0.098493
v 2.500000 2.500000 -0.108317
v 2.462567 0.037430 0.098493
v 2.500000 0.000000 -0.108316
v 0.098465 2.401532 0.062732
v 0.098469 0.098467 0.062733
v 2.401535 2.401532 0.062732
v 2.401530 0.098467 0.062733
v 2.229530 0.295168 0.082923
v 0.269765 0.295168 0.082923
v 2.229530 2.204834 0.082923
v 0.269765 2.204834 0.082923
v -0.127257 -2.343957 0.062732
v -2.372743 -2.343957 0.062732
v -0.242117 -2.232460 0.108317
v -2.258588 -2.232460 0.108317
v -0.127254 -0.156044 0.062732
v -2.372743 -0.156048 0.062732
v -0.242117 -0.267538 0.108316
v -2.258588 -0.267538 0.108316
v -2.462570 -0.037433 0.098493
v -2.462567 -2.462570 0.098493
v -2.500000 -2.500000 -0.108317
v -0.037430 -0.037433 0.098493
v -0.037433 -2.462570 0.098493
v 0.000000 -2.500000 -0.108317
v -2.401535 -0.098468 0.062732
v -2.401531 -2.401533 0.062732
v -0.098465 -0.098468 0.062732
v -0.098469 -2.401533 0.062732
v -0.270470 -2.204832 0.082923
v -2.230235 -2.204832 0.082923
v -0.270470 -0.295166 0.082923
v -2.230235 -0.295166 0.082923
v 2.372743 -2.343957 0.062732
v 0.127257 -2.343957 0.062732
v 2.257883 -2.232460 0.108317
v 0.241412 -2.232460 0.108317
v 2.372746 -0.156044 0.062732
v 0.127257 -0.156048 0.062732
v 2.257883 -0.267538 0.108316
v 0.241412 -0.267538 0.108316
v 0.037430 -0.037433 0.098493
v 0.037433 -2.462570 0.098493
v 2.462570 -0.037433 0.098493
v 2.462567 -2.462570 0.098493
v 2.500000 -2.500000 -0.108317
v 0.098465 -0.098468 0.062732
v 0.098469 -2.401533 0.062732
v 2.401535 -0.098468 0.062732
v 2.401530 -2.401533 0.062732
v 2.229530 -2.204832 0.082923
v 0.269765 -2.204832 0.082923
v 2.229530 -0.295166 0.082923
v 0.269765 -0.295166 0.082923
vn -0.0000 -0.3784 0.9256
vn 0.3689 -0.0000 0.9295
vn -0.0000 0.3785 0.9256
vn -0.0000 0.9840 0.1781
vn 0.9840 -0.0000 0.1781
vn -0.0000 -0.9840 0.1781
vn -0.0000 0.5055 0.8628
vn -0.0000 -0.5055 0.8628
vn -0.5055 -0.0000 0.8628
vn -0.0000 -0.0000 1.0000
vn -0.0000 -0.6767 0.7362
vn -0.3708 -0.0000 0.9287
vn 0.5055 -0.0000 0.8628
vn -0.9840 -0.0000 0.1781
vn -0.6672 -0.0000 0.7449
vn -0.0000 -0.0000 -1.0000
vn 0.6672 -0.0000 0.7449
vn -0.0000 0.6767 0.7362
vn -0.0000 0.3784 0.9256
vt 0.375000 0.625000
vt 0.625000 0.875000
vt 0.125000 0.875000
vt 0.875000 0.625000
s 0
usemtl ruins_hk_floor_a
f 3/1/1 2/1/1 1/1/1
f 5/1/2 3/1/2 1/1/2
f 7/1/3 6/1/3 8/1/3
f 14/2/4 9/2/4 13/2/4
f 16/2/5 13/2/5 15/2/5
f 16/2/6 11/2/6 12/2/6
f 20/1/7 11/1/7 15/1/7
f 13/1/8 17/1/8 19/1/8
f 13/1/9 20/1/9 15/1/9
f 19/3/10 6/3/10 5/3/10
f 18/3/10 20/3/10 2/3/10
f 67/1/11 54/1/11 68/1/11
f 4/1/12 6/1/12 2/1/12
f 9/1/13 18/1/13 17/1/13
f 9/2/14 12/2/14 11/2/14
f 7/1/15 21/1/15 3/1/15
f 16/2/16 10/2/16 14/2/16
f 27/1/1 26/1/1 25/1/1
f 29/1/2 27/1/2 25/1/2
f 31/1/3 30/1/3 32/1/3
f 36/2/4 33/2/4 35/2/4
f 38/2/5 35/2/5 37/2/5
f 38/2/6 34/2/6 16/2/6
f 42/1/7 34/1/7 37/1/7
f 35/1/8 39/1/8 41/1/8
f 35/1/9 42/1/9 37/1/9
f 65/4/10 68/4/10 66/4/10
f 29/3/10 41/3/10 30/3/10
f 66/1/17 54/1/17 50/1/17
f 45/4/10 44/4/10 43/4/10
f 28/1/12 30/1/12 26/1/12
f 33/1/13 40/1/13 39/1/13
f 33/2/14 16/2/14 34/2/14
f 27/1/15 45/1/15 43/1/15
f 22/1/18 3/1/18 21/1/18
f 45/1/11 32/1/11 46/1/11
f 38/2/16 14/2/16 36/2/16
f 49/1/1 48/1/1 47/1/1
f 51/1/2 49/1/2 47/1/2
f 53/1/3 52/1/3 54/1/3
f 16/2/4 55/2/4 58/2/4
f 60/2/5 58/2/5 59/2/5
f 60/2/6 56/2/6 57/2/6
f 64/1/7 56/1/7 59/1/7
f 63/1/8 55/1/8 61/1/8
f 58/1/9 64/1/9 59/1/9
f 47/3/10 64/3/10 63/3/10
f 66/1/18 49/1/18 65/1/18
f 26/3/10 39/3/10 40/3/10
f 65/1/15 53/1/15 67/1/15
f 50/1/12 52/1/12 48/1/12
f 61/3/10 48/3/10 52/3/10
f 55/1/13 62/1/13 61/1/13
f 55/2/14 57/2/14 56/2/14
f 44/1/17 32/1/17 28/1/17
f 60/2/16 12/2/16 16/2/16
f 71/1/1 70/1/1 69/1/1
f 73/1/2 71/1/2 69/1/2
f 75/1/3 74/1/3 76/1/3
f 38/2/4 77/2/4 79/2/4
f 81/2/5 79/2/5 80/2/5
f 81/2/6 78/2/6 60/2/6
f 85/1/7 78/1/7 80/1/7
f 84/1/8 77/1/8 82/1/8
f 79/1/9 85/1/9 80/1/9
f 24/1/17 4/1/17 22/1/17
f 88/1/11 76/1/11 89/1/11
f 72/1/12 74/1/12 70/1/12
f 82/3/10 70/3/10 74/3/10
f 77/1/13 83/1/13 82/1/13
f 77/2/14 60/2/14 78/2/14
f 23/1/11 8/1/11 24/1/11
f 69/3/10 85/3/10 84/3/10
f 89/4/10 86/4/10 88/4/10
f 21/4/10 24/4/10 22/4/10
f 86/1/15 75/1/15 88/1/15
f 72/1/18 86/1/18 87/1/18
f 87/1/17 76/1/17 72/1/17
f 81/2/16 16/2/16 38/2/16
f 44/1/18 27/1/18 43/1/18
f 3/1/1 4/1/1 2/1/1
f 5/1/2 7/1/2 3/1/2
f 7/1/19 5/1/19 6/1/19
f 14/2/4 10/2/4 9/2/4
f 16/2/5 14/2/5 13/2/5
f 16/2/6 15/2/6 11/2/6
f 20/1/7 18/1/7 11/1/7
f 13/1/8 9/1/8 17/1/8
f 13/1/9 19/1/9 20/1/9
f 19/3/10 17/3/10 6/3/10
f 2/3/10 6/3/10 17/3/10
f 20/3/10 19/3/10 1/3/10
f 19/3/10 5/3/10 1/3/10
f 2/3/10 17/3/10 18/3/10
f 20/3/10 1/3/10 2/3/10
f 67/1/11 53/1/11 54/1/11
f 4/1/12 8/1/12 6/1/12
f 9/1/13 11/1/13 18/1/13
f 9/2/14 10/2/14 12/2/14
f 7/1/15 23/1/15 21/1/15
f 16/2/16 12/2/16 10/2/16
f 27/1/1 28/1/1 26/1/1
f 29/1/2 31/1/2 27/1/2
f 31/1/19 29/1/19 30/1/19
f 36/2/4 14/2/4 33/2/4
f 38/2/5 36/2/5 35/2/5
f 38/2/6 37/2/6 34/2/6
f 42/1/7 40/1/7 34/1/7
f 35/1/8 33/1/8 39/1/8
f 35/1/9 41/1/9 42/1/9
f 65/4/10 67/4/10 68/4/10
f 29/3/10 25/3/10 41/3/10
f 25/3/10 42/3/10 41/3/10
f 41/3/10 39/3/10 30/3/10
f 66/1/17 68/1/17 54/1/17
f 45/4/10 46/4/10 44/4/10
f 28/1/12 32/1/12 30/1/12
f 33/1/13 34/1/13 40/1/13
f 33/2/14 14/2/14 16/2/14
f 27/1/15 31/1/15 45/1/15
f 22/1/18 4/1/18 3/1/18
f 45/1/11 31/1/11 32/1/11
f 38/2/16 16/2/16 14/2/16
f 49/1/1 50/1/1 48/1/1
f 51/1/2 53/1/2 49/1/2
f 53/1/19 51/1/19 52/1/19
f 16/2/4 12/2/4 55/2/4
f 60/2/5 16/2/5 58/2/5
f 60/2/6 59/2/6 56/2/6
f 64/1/7 62/1/7 56/1/7
f 63/1/8 58/1/8 55/1/8
f 58/1/9 63/1/9 64/1/9
f 47/3/10 48/3/10 62/3/10
f 63/3/10 61/3/10 52/3/10
f 63/3/10 52/3/10 51/3/10
f 47/3/10 62/3/10 64/3/10
f 63/3/10 51/3/10 47/3/10
f 66/1/18 50/1/18 49/1/18
f 26/3/10 30/3/10 39/3/10
f 40/3/10 42/3/10 26/3/10
f 42/3/10 25/3/10 26/3/10
f 65/1/15 49/1/15 53/1/15
f 50/1/12 54/1/12 52/1/12
f 61/3/10 62/3/10 48/3/10
f 55/1/13 56/1/13 62/1/13
f 55/2/14 12/2/14 57/2/14
f 44/1/17 46/1/17 32/1/17
f 60/2/16 57/2/16 12/2/16
f 71/1/1 72/1/1 70/1/1
f 73/1/2 75/1/2 71/1/2
f 75/1/19 73/1/19 74/1/19
f 38/2/4 16/2/4 77/2/4
f 81/2/5 38/2/5 79/2/5
f 81/2/6 80/2/6 78/2/6
f 85/1/7 83/1/7 78/1/7
f 84/1/8 79/1/8 77/1/8
f 79/1/9 84/1/9 85/1/9
f 24/1/17 8/1/17 4/1/17
f 88/1/11 75/1/11 76/1/11
f 72/1/12 76/1/12 74/1/12
f 82/3/10 83/3/10 70/3/10
f 77/1/13 78/1/13 83/1/13
f 77/2/14 16/2/14 60/2/14
f 23/1/11 7/1/11 8/1/11
f 69/3/10 70/3/10 85/3/10
f 70/3/10 83/3/10 85/3/10
f 84/3/10 82/3/10 74/3/10
f 84/3/10 74/3/10 73/3/10
f 84/3/10 73/3/10 69/3/10
f 89/4/10 87/4/10 86/4/10
f 21/4/10 23/4/10 24/4/10
f 86/1/15 71/1/15 75/1/15
f 72/1/18 71/1/18 86/1/18
f 87/1/17 89/1/17 76/1/17
f 81/2/16 60/2/16 16/2/16
f 44/1/18 28/1/18 27/1/18
