# Blender 5.2.2 LTS
# www.blender.org
mtllib ruins_cv_floor_a.mtl
o piece
v -1.430215 1.978180 -0.096134
v -1.410493 2.433896 -0.096134
v -1.439074 2.370306 0.206073
v -1.928288 1.960558 0.206073
v -1.959875 1.935671 -0.096134
v -1.938194 2.393361 -0.096134
v -1.522564 1.964961 0.206734
v -1.879969 2.390667 0.207113
v -1.777453 2.500000 -0.096134
v -1.685423 1.885266 -0.096134
v -2.238907 1.863366 -0.088137
v -2.204532 1.366698 -0.092130
v -2.205312 1.833330 0.204463
v -2.183212 1.404500 0.235204
v -1.780828 1.851087 0.236343
v -1.742244 1.418812 0.198505
v -1.721838 1.881425 -0.092924
v -1.709030 1.389043 -0.094953
v -1.958018 1.925906 -0.066407
v -2.035600 2.479935 -0.076764
v -1.995456 1.957059 0.231464
v -2.009955 2.415842 0.230720
v -2.338999 1.968082 0.192549
v -2.378989 2.388913 0.180055
v -2.401141 1.983962 -0.125233
v -2.401141 2.420068 -0.125233
v -2.238338 1.864415 -0.092746
v -0.000402 1.961812 -0.096134
v -0.047685 2.371316 -0.096134
v -0.046103 2.033348 0.206073
v -0.116404 2.360271 0.206067
v -0.251000 1.940831 0.208448
v -0.308498 2.379813 0.206073
v -0.289363 1.924607 -0.097409
v -0.207055 2.436969 -0.102631
v -1.692455 1.874182 -0.096134
v -1.682047 1.380166 -0.096134
v -1.649110 1.412261 0.206073
v -1.159582 1.879454 -0.096134
v -1.149175 1.395241 -0.096134
v -1.607601 1.878668 0.208383
v -1.218714 1.388306 0.207408
v -1.359100 1.314322 -0.096134
v -1.455166 1.981989 -0.096134
v -1.427624 1.983090 -0.090007
v -1.356221 1.983651 0.233902
v -0.885755 2.391502 0.200140
v -0.906778 2.091383 0.198430
v -0.849502 2.419127 -0.093083
v -0.873554 2.029187 -0.095039
v -1.305114 2.449440 0.247701
v -1.224747 1.901927 -0.092504
v -1.371277 2.493286 -0.088983
v -0.749255 1.965496 -0.086812
v -1.158084 1.977910 -0.087494
v -1.118363 1.954931 0.197304
v -0.711807 1.358373 0.196751
v -1.104736 1.387594 0.196751
v -0.686075 1.320557 -0.086812
v -1.135695 1.353990 -0.086812
v -0.682606 1.848690 0.198028
v -0.593775 1.693555 -0.086812
v -0.615461 1.855244 -0.088137
v -0.581087 1.358575 -0.092130
v -0.581864 1.825207 0.204463
v -0.559766 1.396377 0.235204
v -0.157383 1.842965 0.236342
v -0.118798 1.410689 0.198505
v -0.098395 1.873303 -0.092924
v -0.085584 1.380920 -0.094953
v -0.344562 1.917782 -0.066407
v -0.387091 2.461181 -0.071302
v -0.389434 1.948937 0.231464
v -0.417978 2.409349 0.229766
v -0.829127 1.987912 0.189601
v -0.854001 2.380790 0.180055
v -0.876153 1.975838 -0.125233
v -0.876153 2.411944 -0.125233
v -0.690665 1.856292 -0.092746
v -1.199293 1.817106 0.196145
v -1.069785 -1.457446 -0.096134
v -1.089507 -1.913162 -0.096134
v -1.060926 -1.849573 0.206073
v -0.571713 -1.439825 0.206073
v -0.540125 -1.414937 -0.096134
v -0.561806 -1.872627 -0.096134
v -0.977435 -1.444227 0.206734
v -0.620031 -1.869933 0.207113
v -0.722547 -1.979267 -0.096134
v -0.814577 -1.364532 -0.096134
v -1.034299 -0.337548 -0.088137
v -1.032276 -0.822945 -0.092071
v -1.002680 -0.367876 0.204463
v -1.007617 -0.787009 0.235128
v -0.578065 -0.363418 0.236236
v -0.566881 -0.786393 0.198505
v -0.516890 -0.335903 -0.092916
v -0.535628 -0.816449 -0.094953
v -0.118124 0.290642 -0.096134
v -0.152041 0.758497 -0.096134
v -0.215620 0.728312 0.206954
v -0.631455 0.263266 0.206073
v -0.631455 0.705664 0.206073
v -0.671764 0.225292 -0.096134
v -0.671764 0.733588 -0.096134
v -0.193221 0.277050 0.207141
v -0.318651 0.849490 -0.096134
v -0.364370 0.180768 -0.096134
v -0.063594 -0.396744 -0.096134
v -0.096444 -0.469081 0.206073
v -0.494588 -0.783361 0.206073
v -0.527435 -0.811737 -0.096134
v -0.527435 -0.361585 -0.096134
v -0.157786 -0.804080 0.205158
v -0.444619 -0.339500 0.211047
v -0.340469 -0.239824 -0.096134
v -0.107566 -0.848491 -0.096499
v -0.808936 -2.359388 -0.096134
v -0.773649 -2.337438 0.206073
v -0.284509 -2.033181 0.194538
v -0.249222 -2.011234 -0.096134
v -0.728759 -1.986169 0.208845
v -0.322707 -2.377918 0.199829
v -0.289605 -2.410357 -0.096323
v -0.761470 -1.948350 -0.096407
v -0.875592 1.167292 -0.096134
v -0.839957 0.841155 -0.096134
v -0.803744 0.868036 0.206073
v -0.311082 1.341513 -0.096134
v -0.248208 0.885922 -0.096134
v -0.770803 1.249535 0.240684
v -0.356117 0.868028 0.249668
v -0.501468 0.795573 -0.096134
v -0.689103 1.342186 -0.096134
v -0.261093 -1.342634 -0.088137
v -0.295468 -0.845965 -0.092130
v -0.294689 -1.312597 0.204463
v -0.316788 -0.883768 0.235204
v -0.719172 -1.330355 0.236343
v -0.757756 -0.898078 0.198505
v -0.778162 -1.360693 -0.092924
v -0.790970 -0.868309 -0.094953
v -0.265135 -0.304737 -0.092744
v -0.300026 -0.271175 0.201581
v -0.724229 0.157214 0.202611
v -0.327860 0.160187 0.204472
v -0.753041 0.189849 -0.090255
v -0.299484 0.193251 -0.088125
v -0.744041 -0.282425 0.199110
v -0.783003 -0.288949 -0.096124
v -0.543432 -1.405172 -0.066407
v -0.466700 -1.960890 -0.076874
v -0.507073 -1.436326 0.231464
v -0.492718 -1.895223 0.230399
v -0.175481 -1.446634 0.192573
v -0.135299 -1.868180 0.180055
v -0.113148 -1.463228 -0.125233
v -0.113148 -1.899334 -0.125233
v -0.272658 -1.343681 -0.092746
v -0.353374 1.297100 0.196685
v -0.683832 0.267202 -0.096134
v -0.665951 0.758917 -0.096134
v -0.703393 0.299515 0.206073
v -0.692968 0.690391 0.206073
v -1.055136 0.314086 0.206198
v -1.058562 0.268478 -0.096509
v -1.080640 0.764639 -0.096134
v -0.984161 0.787151 0.209275
v -0.889364 0.873090 -0.096134
v -2.499599 -1.441079 -0.096134
v -2.452315 -1.850583 -0.096134
v -2.476277 -1.624096 0.211827
v -2.248982 -1.420186 0.209038
v -2.210638 -1.403874 -0.097408
v -2.232157 -1.910826 0.209179
v -2.264968 -1.984624 -0.099556
v -2.425609 -0.324049 -0.088137
v -2.382047 -0.836464 -0.092325
v -2.408175 -0.355059 0.204463
v -2.380647 -0.795372 0.246908
v -2.202266 -0.335401 0.246303
v -2.167885 -0.782976 0.198505
v -2.163057 -0.309888 -0.092340
v -2.150654 -0.813708 -0.094953
v -1.654665 0.781147 -0.095064
v -1.615770 0.318456 -0.092894
v -1.580972 0.400667 0.200305
v -1.095923 0.737923 0.191128
v -1.095923 0.323147 0.193025
v -1.060743 0.767708 -0.090196
v -1.060741 0.293093 -0.088026
v -1.363794 0.258939 0.202447
v -1.367259 0.156280 -0.090443
v -1.435215 0.857884 -0.093156
v -1.631599 0.272807 -0.096134
v -1.659874 0.794761 -0.096134
v -1.741294 0.785709 0.206141
v -2.131026 0.242266 0.206073
v -2.131026 0.735819 0.206073
v -2.164631 0.199901 -0.096134
v -2.164631 0.766970 -0.096134
v -1.710577 0.255631 0.207442
v -1.870260 0.896276 -0.096134
v -1.908375 0.150228 -0.096134
v -0.807545 -1.353448 -0.096134
v -0.817953 -0.859432 -0.096134
v -0.850890 -0.891528 0.206073
v -1.340418 -1.358721 -0.096134
v -1.350825 -0.874507 -0.096134
v -0.892400 -1.357935 0.208383
v -1.281285 -0.867572 0.207408
v -1.140900 -0.793589 -0.096134
v -1.044834 -1.461255 -0.096134
v -1.072376 -1.462356 -0.090007
v -1.143779 -1.462918 0.233902
v -1.614245 -1.870769 0.200140
v -1.593222 -1.570651 0.198431
v -1.650498 -1.898393 -0.093083
v -1.626446 -1.508453 -0.095039
v -1.194886 -1.928707 0.247701
v -1.275253 -1.381195 -0.092504
v -1.128722 -1.972553 -0.088983
v -1.538130 -0.797809 -0.096134
v -1.629814 -0.388621 -0.096134
v -1.624223 -0.726576 0.206073
v -1.662663 -0.460957 0.206073
v -2.069664 -0.812457 0.207218
v -2.150881 -0.803614 -0.096134
v -2.150881 -0.353463 -0.096134
v -2.072992 -0.333839 0.210604
v -1.963915 -0.231701 -0.096134
v -1.863117 -0.859844 -0.096134
v -1.750745 -1.444762 -0.086812
v -1.341916 -1.457176 -0.087494
v -1.381637 -1.434196 0.197304
v -1.788193 -0.837641 0.196751
v -1.395264 -0.866860 0.196751
v -1.813925 -0.799824 -0.086812
v -1.364305 -0.833257 -0.086812
v -1.817394 -1.327956 0.198028
v -1.906225 -1.172822 -0.086812
v -1.462279 -0.789268 -0.110860
v -1.106152 -0.730815 -0.107183
v -1.437861 -0.759826 0.164887
v -1.153300 -0.721593 0.182699
v -1.607682 -0.419857 0.216057
v -1.179132 -0.338539 0.218343
v -1.563963 -0.290282 -0.075204
v -1.154620 -0.275829 -0.072077
v -1.712823 -0.510743 -0.095286
v -2.432382 -2.351264 -0.096134
v -2.397095 -2.329316 0.206073
v -1.907955 -2.025059 0.194538
v -1.872668 -2.003111 -0.096134
v -2.352205 -1.978045 0.208845
v -1.946152 -2.369795 0.199828
v -1.913050 -2.402233 -0.096323
v -2.384916 -1.940226 -0.096407
v -1.404214 -2.500000 -0.086811
v -1.850610 -2.414089 0.187309
v -1.430982 -2.462181 0.196751
v -1.802040 -1.937935 0.196751
v -1.828808 -1.900118 -0.086812
v -1.377341 -1.976333 0.197159
v -1.338325 -1.960421 -0.087740
v -1.902602 -2.434555 -0.088147
v -1.302238 -2.472888 -0.092066
v -1.299920 -2.431763 0.203007
v -0.848585 -2.019066 0.200264
v -0.856876 -2.420045 0.198506
v -0.815273 -1.990982 -0.092941
v -0.824762 -2.449813 -0.094953
v -1.278798 -1.980103 0.204972
v -1.307621 -1.937950 -0.088872
v -2.335366 1.245338 -0.096134
v -2.363180 0.894403 -0.096134
v -2.327895 0.914719 0.206073
v -1.911656 1.272020 0.199448
v -1.867461 1.304472 -0.096134
v -1.894468 0.811361 -0.096134
v -2.215105 1.320942 0.249388
v -1.994497 0.817655 0.253550
v -2.104112 0.772010 -0.096134
v -2.158350 1.388314 -0.096134
v -1.816485 0.809696 -0.088125
v -1.828792 0.873143 0.196751
v -1.408373 1.281569 0.196751
v -1.378043 1.311031 -0.086812
v -1.415208 0.842777 -0.086812
v -1.811193 1.297365 0.197251
v -1.473259 0.845827 0.197311
v -1.838806 1.336329 -0.087567
v -1.311952 0.756159 -0.088137
v -0.973232 0.751107 -0.090149
v -0.982944 0.828752 0.204187
v -1.359209 1.265367 0.200264
v -0.976115 1.313083 0.198505
v -1.383444 1.299766 -0.092941
v -0.950425 1.346245 -0.094953
v -1.337055 0.850039 0.205612
v -0.854144 1.047450 -0.092551
v -1.421354 1.004243 -0.090036
v -1.884539 -1.334510 -0.088137
v -1.918913 -0.837842 -0.092130
v -1.918136 -1.304473 0.204463
v -1.940234 -0.875644 0.235204
v -2.342617 -1.322231 0.236343
v -2.381202 -0.889956 0.198505
v -2.401605 -1.352570 -0.092923
v -2.414416 -0.860186 -0.094953
v -0.820440 -0.278111 -0.096134
v -0.805262 0.196540 -0.096134
v -0.839800 0.168061 0.206073
v -1.318570 -0.161557 0.206073
v -1.353108 -0.227033 -0.096134
v -1.337930 0.219409 -0.096134
v -0.913868 -0.303224 0.211596
v -1.255872 0.229658 0.207422
v -1.081104 0.290801 -0.096134
v -1.060837 -0.392369 -0.096134
v -1.369770 -0.266664 -0.071629
v -1.375621 0.240095 -0.068638
v -1.407399 -0.235150 0.209812
v -1.412511 0.205172 0.212426
v -1.886680 -0.315765 -0.104777
v -1.865266 0.230432 -0.101786
v -1.765717 0.236414 0.238653
v -1.641522 0.301590 -0.083107
v -1.615541 -0.376248 -0.086845
v -1.881413 -0.337526 -0.092396
v -1.909618 -0.296820 0.201268
v -2.222944 0.189904 0.202611
v -1.928108 0.193201 0.204472
v -2.244372 0.226106 -0.090255
v -1.907003 0.229880 -0.088125
v -2.236768 -0.305467 0.198832
v -2.268028 -0.333243 -0.095367
v -2.155438 -1.397049 -0.066407
v -2.085373 -1.940264 -0.074827
v -2.110566 -1.428203 0.231464
v -2.095135 -1.886761 0.231324
v -1.670873 -1.467180 0.189601
v -1.645999 -1.860056 0.180055
v -1.623847 -1.455105 -0.125233
v -1.623847 -1.891211 -0.125233
v -1.809335 -1.335559 -0.092746
v -1.300707 -1.296372 0.196145
v -1.651546 -0.335428 0.249238
v -1.862998 -0.275441 0.168203
v -1.609710 0.761338 0.203302
v -1.401817 0.803796 0.190319
v 1.069785 1.978180 -0.096134
v 1.089507 2.433896 -0.096134
v 1.060926 2.370306 0.206073
v 0.571712 1.960558 0.206073
v 0.540125 1.935671 -0.096134
v 0.561806 2.393361 -0.096134
v 0.977436 1.964961 0.206734
v 0.620031 2.390667 0.207113
v 0.722547 2.500000 -0.096134
v 0.814577 1.885266 -0.096134
v 0.261093 1.863366 -0.088137
v 0.295468 1.366698 -0.092130
v 0.294688 1.833330 0.204463
v 0.316788 1.404500 0.235204
v 0.719172 1.851087 0.236343
v 0.757756 1.418812 0.198505
v 0.778162 1.881425 -0.092924
v 0.790970 1.389043 -0.094953
v 0.541982 1.925906 -0.066407
v 0.464400 2.479935 -0.076764
v 0.504544 1.957059 0.231464
v 0.490045 2.415842 0.230720
v 0.161001 1.968082 0.192549
v 0.121011 2.388913 0.180055
v 0.098859 1.983962 -0.125233
v 0.098859 2.420068 -0.125233
v 0.261662 1.864415 -0.092746
v 2.499598 1.961812 -0.096134
v 2.452315 2.371316 -0.096134
v 2.453897 2.033348 0.206073
v 2.383596 2.360271 0.206067
v 2.249000 1.940831 0.208448
v 2.191502 2.379813 0.206073
v 2.210637 1.924607 -0.097409
v 2.292945 2.436969 -0.102631
v 0.807545 1.874182 -0.096134
v 0.817953 1.380166 -0.096134
v 0.850890 1.412261 0.206073
v 1.340417 1.879454 -0.096134
v 1.350825 1.395241 -0.096134
v 0.892399 1.878668 0.208383
v 1.281286 1.388306 0.207408
v 1.140900 1.314322 -0.096134
v 1.044834 1.981989 -0.096134
v 1.072376 1.983090 -0.090007
v 1.143779 1.983651 0.233902
v 1.614245 2.391502 0.200140
v 1.593222 2.091383 0.198430
v 1.650498 2.419127 -0.093083
v 1.626446 2.029187 -0.095039
v 1.194886 2.449440 0.247701
v 1.275253 1.901927 -0.092504
v 1.128723 2.493286 -0.088983
v 1.750745 1.965496 -0.086812
v 1.341916 1.977910 -0.087494
v 1.381637 1.954931 0.197304
v 1.788193 1.358373 0.196751
v 1.395264 1.387594 0.196751
v 1.813925 1.320557 -0.086812
v 1.364305 1.353990 -0.086812
v 1.817393 1.848690 0.198028
v 1.906225 1.693555 -0.086812
v 1.884539 1.855244 -0.088137
v 1.918913 1.358576 -0.092130
v 1.918136 1.825207 0.204463
v 1.940234 1.396378 0.235204
v 2.342618 1.842965 0.236342
v 2.381202 1.410689 0.198505
v 2.401605 1.873303 -0.092924
v 2.414416 1.380920 -0.094953
v 2.155437 1.917782 -0.066407
v 2.112909 2.461181 -0.071302
v 2.110566 1.948937 0.231464
v 2.082022 2.409349 0.229766
v 1.670873 1.987912 0.189601
v 1.645999 2.380790 0.180055
v 1.623847 1.975838 -0.125233
v 1.623847 2.411944 -0.125233
v 1.809334 1.856292 -0.092746
v 1.300707 1.817106 0.196145
v 1.430215 -1.457446 -0.096134
v 1.410492 -1.913162 -0.096134
v 1.439074 -1.849573 0.206073
v 1.928288 -1.439825 0.206073
v 1.959875 -1.414937 -0.096134
v 1.938194 -1.872627 -0.096134
v 1.522565 -1.444227 0.206734
v 1.879969 -1.869933 0.207113
v 1.777453 -1.979267 -0.096134
v 1.685423 -1.364532 -0.096134
v 1.465701 -0.337548 -0.088137
v 1.467724 -0.822945 -0.092071
v 1.497320 -0.367876 0.204463
v 1.492383 -0.787009 0.235128
v 1.921936 -0.363418 0.236236
v 1.933119 -0.786393 0.198505
v 1.983110 -0.335903 -0.092916
v 1.964372 -0.816449 -0.094953
v 2.381876 0.290642 -0.096134
v 2.347959 0.758497 -0.096134
v 2.284380 0.728312 0.206954
v 1.868545 0.263266 0.206073
v 1.868545 0.705664 0.206073
v 1.828235 0.225292 -0.096134
v 1.828235 0.733588 -0.096134
v 2.306779 0.277050 0.207141
v 2.181349 0.849490 -0.096134
v 2.135630 0.180768 -0.096134
v 2.436406 -0.396744 -0.096134
v 2.403557 -0.469081 0.206073
v 2.005412 -0.783361 0.206073
v 1.972565 -0.811737 -0.096134
v 1.972565 -0.361585 -0.096134
v 2.342214 -0.804080 0.205158
v 2.055381 -0.339500 0.211047
v 2.159531 -0.239824 -0.096134
v 2.392434 -0.848491 -0.096499
v 1.691063 -2.359388 -0.096134
v 1.726351 -2.337438 0.206073
v 2.215491 -2.033181 0.194538
v 2.250778 -2.011234 -0.096134
v 1.771241 -1.986169 0.208845
v 2.177293 -2.377918 0.199829
v 2.210395 -2.410357 -0.096323
v 1.738530 -1.948350 -0.096408
v 1.624408 1.167292 -0.096134
v 1.660043 0.841155 -0.096134
v 1.696256 0.868036 0.206073
v 2.188917 1.341513 -0.096134
v 2.251791 0.885922 -0.096134
v 1.729197 1.249535 0.240684
v 2.143883 0.868028 0.249668
v 1.998532 0.795573 -0.096134
v 1.810897 1.342186 -0.096134
v 2.238906 -1.342634 -0.088137
v 2.204532 -0.845965 -0.092130
v 2.205312 -1.312597 0.204463
v 2.183212 -0.883768 0.235204
v 1.780828 -1.330355 0.236343
v 1.742244 -0.898078 0.198505
v 1.721838 -1.360693 -0.092924
v 1.709030 -0.868309 -0.094953
v 2.234865 -0.304737 -0.092744
v 2.199974 -0.271175 0.201581
v 1.775771 0.157214 0.202611
v 2.172140 0.160187 0.204472
v 1.746959 0.189849 -0.090255
v 2.200516 0.193251 -0.088125
v 1.755959 -0.282425 0.199110
v 1.716997 -0.288949 -0.096124
v 1.956568 -1.405172 -0.066407
v 2.033300 -1.960890 -0.076874
v 1.992927 -1.436326 0.231464
v 2.007282 -1.895223 0.230399
v 2.324519 -1.446634 0.192573
v 2.364701 -1.868180 0.180055
v 2.386852 -1.463228 -0.125233
v 2.386852 -1.899334 -0.125233
v 2.227342 -1.343681 -0.092746
v 2.146626 1.297100 0.196685
v 1.816168 0.267202 -0.096134
v 1.834049 0.758917 -0.096134
v 1.796607 0.299515 0.206073
v 1.807032 0.690391 0.206073
v 1.444864 0.314086 0.206198
v 1.441438 0.268478 -0.096509
v 1.419360 0.764639 -0.096134
v 1.515839 0.787151 0.209275
v 1.610636 0.873090 -0.096134
v 0.000402 -1.441079 -0.096134
v 0.047685 -1.850583 -0.096134
v 0.023723 -1.624096 0.211827
v 0.251018 -1.420186 0.209038
v 0.289363 -1.403874 -0.097408
v 0.267843 -1.910826 0.209179
v 0.235032 -1.984624 -0.099556
v 0.074391 -0.324049 -0.088137
v 0.117953 -0.836464 -0.092325
v 0.091825 -0.355059 0.204463
v 0.119353 -0.795372 0.246908
v 0.297734 -0.335401 0.246303
v 0.332115 -0.782976 0.198505
v 0.336943 -0.309888 -0.092340
v 0.349346 -0.813708 -0.094953
v 0.845335 0.781147 -0.095064
v 0.884230 0.318456 -0.092894
v 0.919028 0.400667 0.200305
v 1.404077 0.737923 0.191128
v 1.404077 0.323147 0.193025
v 1.439257 0.767708 -0.090196
v 1.439259 0.293093 -0.088026
v 1.136206 0.258939 0.202447
v 1.132741 0.156280 -0.090443
v 1.064785 0.857884 -0.093156
v 0.868401 0.272807 -0.096134
v 0.840126 0.794761 -0.096134
v 0.758706 0.785709 0.206141
v 0.368974 0.242266 0.206073
v 0.368974 0.735819 0.206073
v 0.335369 0.199901 -0.096134
v 0.335369 0.766970 -0.096134
v 0.789423 0.255631 0.207442
v 0.629740 0.896276 -0.096134
v 0.591625 0.150228 -0.096134
v 1.692455 -1.353448 -0.096134
v 1.682047 -0.859432 -0.096134
v 1.649110 -0.891528 0.206073
v 1.159582 -1.358721 -0.096134
v 1.149175 -0.874507 -0.096134
v 1.607600 -1.357935 0.208383
v 1.218715 -0.867572 0.207408
v 1.359100 -0.793589 -0.096134
v 1.455166 -1.461255 -0.096134
v 1.427624 -1.462356 -0.090007
v 1.356221 -1.462918 0.233902
v 0.885755 -1.870769 0.200140
v 0.906778 -1.570651 0.198431
v 0.849502 -1.898393 -0.093083
v 0.873554 -1.508453 -0.095039
v 1.305114 -1.928707 0.247701
v 1.224747 -1.381195 -0.092504
v 1.371278 -1.972553 -0.088983
v 0.961870 -0.797809 -0.096134
v 0.870186 -0.388621 -0.096134
v 0.875777 -0.726576 0.206073
v 0.837337 -0.460957 0.206073
v 0.430336 -0.812457 0.207218
v 0.349119 -0.803614 -0.096134
v 0.349119 -0.353463 -0.096134
v 0.427007 -0.333839 0.210604
v 0.536085 -0.231701 -0.096134
v 0.636883 -0.859844 -0.096134
v 0.749255 -1.444762 -0.086812
v 1.158084 -1.457177 -0.087494
v 1.118363 -1.434196 0.197304
v 0.711807 -0.837641 0.196751
v 1.104736 -0.866860 0.196751
v 0.686075 -0.799824 -0.086812
v 1.135695 -0.833257 -0.086812
v 0.682606 -1.327956 0.198028
v 0.593775 -1.172822 -0.086812
v 1.037721 -0.789268 -0.110860
v 1.393848 -0.730815 -0.107183
v 1.062139 -0.759826 0.164887
v 1.346700 -0.721593 0.182699
v 0.892318 -0.419857 0.216057
v 1.320868 -0.338539 0.218343
v 0.936037 -0.290282 -0.075204
v 1.345380 -0.275829 -0.072077
v 0.787176 -0.510743 -0.095286
v 0.067618 -2.351264 -0.096134
v 0.102905 -2.329316 0.206073
v 0.592045 -2.025059 0.194538
v 0.627332 -2.003111 -0.096134
v 0.147795 -1.978045 0.208845
v 0.553848 -2.369795 0.199828
v 0.586950 -2.402233 -0.096323
v 0.115084 -1.940226 -0.096407
v 1.095786 -2.500000 -0.086811
v 0.649390 -2.414089 0.187309
v 1.069018 -2.462181 0.196751
v 0.697960 -1.937935 0.196751
v 0.671192 -1.900118 -0.086812
v 1.122659 -1.976333 0.197159
v 1.161675 -1.960422 -0.087740
v 0.597398 -2.434555 -0.088147
v 1.197761 -2.472888 -0.092066
v 1.200080 -2.431763 0.203007
v 1.651414 -2.019066 0.200264
v 1.643124 -2.420045 0.198506
v 1.684727 -1.990982 -0.092941
v 1.675238 -2.449813 -0.094953
v 1.221202 -1.980103 0.204972
v 1.192379 -1.937950 -0.088872
v 0.164634 1.245338 -0.096134
v 0.136820 0.894403 -0.096134
v 0.172105 0.914719 0.206073
v 0.588344 1.272020 0.199448
v 0.632539 1.304472 -0.096134
v 0.605532 0.811361 -0.096134
v 0.284895 1.320942 0.249388
v 0.505503 0.817655 0.253550
v 0.395887 0.772010 -0.096134
v 0.341650 1.388314 -0.096134
v 0.683515 0.809696 -0.088125
v 0.671208 0.873143 0.196751
v 1.091627 1.281569 0.196751
v 1.121957 1.311031 -0.086812
v 1.084792 0.842777 -0.086812
v 0.688807 1.297365 0.197251
v 1.026742 0.845827 0.197311
v 0.661194 1.336329 -0.087567
v 1.188048 0.756159 -0.088137
v 1.526767 0.751107 -0.090149
v 1.517056 0.828752 0.204187
v 1.140791 1.265367 0.200264
v 1.523885 1.313083 0.198505
v 1.116556 1.299766 -0.092941
v 1.549575 1.346245 -0.094953
v 1.162945 0.850039 0.205612
v 1.645856 1.047450 -0.092551
v 1.078646 1.004243 -0.090036
v 0.615461 -1.334510 -0.088137
v 0.581086 -0.837842 -0.092130
v 0.581864 -1.304473 0.204463
v 0.559766 -0.875644 0.235204
v 0.157383 -1.322231 0.236343
v 0.118798 -0.889956 0.198505
v 0.098395 -1.352570 -0.092923
v 0.085584 -0.860186 -0.094953
v 1.679560 -0.278111 -0.096134
v 1.694737 0.196540 -0.096134
v 1.660200 0.168061 0.206073
v 1.181430 -0.161557 0.206073
v 1.146892 -0.227033 -0.096134
v 1.162070 0.219409 -0.096134
v 1.586132 -0.303224 0.211596
v 1.244129 0.229658 0.207422
v 1.418896 0.290801 -0.096134
v 1.439163 -0.392369 -0.096134
v 1.130230 -0.266664 -0.071629
v 1.124379 0.240095 -0.068638
v 1.092601 -0.235150 0.209812
v 1.087489 0.205172 0.212426
v 0.613320 -0.315765 -0.104777
v 0.734283 0.236414 0.238653
v 0.664366 0.268925 -0.099161
v 0.884459 -0.376248 -0.086845
v 0.618587 -0.337526 -0.092396
v 0.590382 -0.296820 0.201268
v 0.277056 0.189904 0.202611
v 0.571892 0.193201 0.204472
v 0.255628 0.226106 -0.090255
v 0.592997 0.229880 -0.088125
v 0.263232 -0.305467 0.198832
v 0.231972 -0.333243 -0.095367
v 0.344562 -1.397049 -0.066407
v 0.414627 -1.940264 -0.074827
v 0.389434 -1.428203 0.231464
v 0.404865 -1.886761 0.231324
v 0.829127 -1.467180 0.189601
v 0.854001 -1.860056 0.180055
v 0.876153 -1.455105 -0.125233
v 0.876153 -1.891211 -0.125233
v 0.690665 -1.335559 -0.092746
v 1.199293 -1.296372 0.196145
v 0.848454 -0.335428 0.249238
v 0.637002 -0.275441 0.168203
v 0.890290 0.761338 0.203302
v 1.098183 0.803796 0.190319
v -2.500000 -2.499104 -0.053550
v -2.500000 2.499104 -0.053549
v -2.500000 -2.499104 -0.253550
v -2.500000 2.499104 -0.253549
v 2.500000 -2.499104 -0.053550
v 2.500000 2.499104 -0.053549
v 2.500000 -2.499104 -0.253550
v 2.500000 2.499104 -0.253549
vn 0.9408 -0.1933 0.2784
vn -0.0024 -0.0000 1.0000
vn -0.9939 0.0471 0.1000
vn -0.1797 -0.9787 0.0994
vn 0.1730 0.9604 0.2184
vn -0.9930 -0.0433 0.1096
vn 0.9806 0.0716 0.1823
vn 0.0415 -0.9928 0.1120
vn -0.0775 0.0673 0.9947
vn -0.0479 0.9954 0.0831
vn 0.9921 0.0316 0.1214
vn -0.9814 -0.0000 0.1919
vn -0.0999 0.9724 0.2110
vn -0.6001 -0.7962 0.0776
vn -0.1126 -0.0019 0.9936
vn -0.0431 -0.9942 0.0986
vn 0.9860 0.1138 0.1222
vn -0.9832 -0.1281 0.1301
vn 0.0989 0.9721 0.2125
vn 0.3991 -0.8769 0.2679
vn -0.9602 0.0841 0.2663
vn 0.0016 0.0022 1.0000
vn 0.9901 0.0213 0.1391
vn 0.1489 0.9113 0.3838
vn -0.1982 -0.9722 0.1248
vn -0.9737 0.1008 0.2045
vn 0.1108 -0.0134 0.9937
vn 0.9908 -0.0701 0.1159
vn 0.2446 -0.9128 0.3271
vn 0.1407 0.9839 0.1101
vn -0.3693 -0.9256 0.0830
vn 0.2235 0.9191 0.3246
vn -0.0288 0.0075 0.9996
vn -0.0736 -0.9894 0.1253
vn -0.9904 -0.0239 0.1362
vn 0.9638 -0.2385 0.1193
vn 0.9870 0.0785 0.1405
vn -0.9890 -0.0000 0.1477
vn -0.0828 0.9835 0.1608
vn -0.5522 -0.8258 0.1142
vn -0.0950 -0.0022 0.9955
vn -0.1170 -0.9209 0.3719
vn -0.9408 0.1933 0.2784
vn -0.0141 -0.0012 0.9999
vn 0.9939 -0.0471 0.1000
vn 0.1797 0.9787 0.0994
vn -0.1730 -0.9604 0.2184
vn -0.9938 0.0197 0.1094
vn 0.9830 0.0096 0.1835
vn 0.0104 -0.9941 0.1084
vn -0.0752 0.0736 0.9944
vn -0.0165 0.9966 0.0803
vn 0.9690 0.0482 0.2421
vn -0.9912 -0.0000 0.1322
vn -0.0510 0.9212 0.3857
vn -0.1419 -0.9796 0.1420
vn 0.9662 -0.1774 0.1870
vn 0.0117 0.0007 0.9999
vn -0.9891 0.1103 0.0972
vn -0.0867 -0.9910 0.1025
vn 0.3406 0.9053 0.2537
vn -0.9848 0.1249 0.1210
vn 0.0334 0.0116 0.9994
vn 0.9886 -0.1001 0.1125
vn 0.1213 0.9886 0.0894
vn -0.0973 -0.9918 0.0834
vn -0.9572 0.0569 0.2839
vn 0.9537 0.0309 0.2992
vn -0.1327 -0.9857 0.1036
vn 0.9930 0.0433 0.1096
vn -0.9806 -0.0716 0.1823
vn -0.0415 0.9928 0.1120
vn 0.0775 -0.0673 0.9947
vn 0.0479 -0.9954 0.0831
vn -0.0306 -0.9992 0.0261
vn -0.0046 -0.0078 1.0000
vn -0.0080 0.9937 0.1115
vn 0.9919 0.0633 0.1104
vn -0.9927 0.0608 0.1044
vn -0.9925 -0.0313 0.1179
vn 0.9813 -0.0000 0.1925
vn 0.1039 -0.9708 0.2163
vn 0.6080 0.7901 0.0780
vn 0.1165 0.0013 0.9932
vn 0.0425 0.9942 0.0988
vn 0.9974 -0.0266 0.0674
vn -0.0016 -0.0022 1.0000
vn -0.9988 -0.0445 0.0180
vn 0.3087 0.9213 0.2365
vn -0.0409 -0.9879 0.1493
vn -0.9934 -0.1147 0.0071
vn 0.0006 0.0055 1.0000
vn 0.9915 0.0340 0.1259
vn -0.7004 -0.5999 0.3867
vn -0.5956 0.6699 0.4432
vn -0.9969 -0.0572 0.0533
vn 0.9908 0.0633 0.1195
vn 0.0848 -0.9892 0.1195
vn -0.2059 0.0811 0.9752
vn -0.1074 0.9923 0.0623
vn -0.9865 -0.0798 0.1433
vn -0.0017 0.0046 1.0000
vn 0.9923 0.0006 0.1241
vn 0.2354 -0.9628 0.1324
vn 0.0049 0.0226 0.9997
vn -0.5255 -0.8009 0.2869
vn -0.3241 0.9215 0.2140
vn 0.9655 0.0566 0.2544
vn 0.0288 -0.0075 0.9996
vn -0.9939 -0.0000 0.1105
vn -0.1261 0.9853 0.1156
vn -0.1879 -0.9696 0.1568
vn 0.9602 -0.0841 0.2663
vn -0.9901 -0.0213 0.1391
vn -0.1489 -0.9113 0.3838
vn 0.1982 0.9722 0.1249
vn 0.9737 -0.1008 0.2045
vn -0.1108 0.0134 0.9937
vn -0.9908 0.0701 0.1159
vn -0.2446 0.9128 0.3271
vn -0.1407 -0.9839 0.1101
vn 0.3693 0.9256 0.0830
vn 0.9517 0.2132 0.2209
vn 0.0020 -0.0114 0.9999
vn -0.9660 -0.0085 0.2584
vn -0.1917 -0.9812 0.0227
vn 0.2889 0.9235 0.2524
vn 0.1828 -0.9447 0.2721
vn -0.2235 -0.9191 0.3246
vn 0.0736 0.9894 0.1253
vn 0.9904 0.0239 0.1362
vn -0.9638 0.2385 0.1193
vn 0.1268 -0.9874 0.0942
vn -0.0354 0.9151 0.4018
vn 0.9860 0.0517 0.1587
vn -0.0391 -0.1678 0.9850
vn -0.8796 -0.4585 0.1268
vn -0.1157 -0.9859 0.1206
vn 0.0892 0.9883 0.1234
vn -0.9845 0.1357 0.1110
vn 0.9867 -0.1203 0.1092
vn -0.9935 0.0460 0.1041
vn 0.0002 0.0026 1.0000
vn 0.9936 -0.0210 0.1109
vn 0.0276 -0.9901 0.1378
vn 0.1074 0.9885 0.1069
vn -0.9336 0.2299 0.2746
vn 0.9512 -0.1407 0.2746
vn -0.4246 -0.8987 0.1100
vn -0.9939 0.0411 0.1020
vn 0.9921 -0.0787 0.0979
vn 0.0543 0.9926 0.1089
vn -0.0560 -0.9524 0.2996
vn -0.0062 -0.0075 1.0000
vn -0.1221 0.9845 0.1256
vn 0.9195 -0.0084 0.3930
vn -0.9871 0.1276 0.0966
vn 0.9571 -0.0306 0.2881
vn -0.0002 -0.0026 1.0000
vn -0.9938 0.0338 0.1063
vn -0.3240 -0.9163 0.2355
vn 0.3208 0.9388 0.1251
vn 0.9913 0.0107 0.1313
vn -0.9960 0.0386 0.0807
vn -0.3013 -0.9499 0.0831
vn 0.1406 0.0464 0.9890
vn 0.2152 0.9653 0.1482
vn 0.3965 -0.9053 0.1524
vn -0.0118 -0.9954 0.0952
vn -0.0119 0.9923 0.1235
vn 0.9952 0.0370 0.0905
vn -0.9961 0.0414 0.0780
vn -0.9888 -0.0333 0.1455
vn 0.9890 -0.0000 0.1477
vn 0.0782 -0.9816 0.1740
vn 0.5522 0.8258 0.1142
vn 0.0950 0.0029 0.9955
vn 0.1170 0.9209 0.3719
vn -0.0033 -0.0000 1.0000
vn 0.0048 0.0131 0.9999
vn 0.0105 -0.0048 0.9999
vn 0.0013 0.0011 1.0000
vn -0.9936 0.0860 0.0735
vn 0.0534 0.9901 0.1300
vn -1.0000 -0.0000 -0.0000
vn -0.0000 -0.0000 -1.0000
vn 1.0000 -0.0000 -0.0000
vn -0.0000 -0.0000 1.0000
vn -0.0000 -1.0000 -0.0000
vn -0.0000 1.0000 -0.0000
vn 0.9954 -0.0431 0.0851
vn -0.0021 0.0003 1.0000
vn -0.9760 0.1092 0.1884
vn -0.5493 0.8280 0.1128
vn 0.0101 -0.9684 0.2494
vn 0.0440 0.9350 0.3520
vn 0.3414 -0.9378 0.0632
vn -0.9949 -0.0694 0.0728
vn 0.0852 -0.0793 0.9932
vn 0.9936 0.0254 0.1099
vn 0.0454 -0.9933 0.1059
vn -0.0337 0.9938 0.1059
vn 0.9890 0.1375 -0.0538
vn -0.1372 0.0164 0.9904
vn -0.9937 -0.0926 0.0627
vn -0.1751 0.9781 0.1125
vn 0.1627 -0.9075 0.3872
vn 0.9528 0.2049 0.2241
vn -0.0223 0.0016 0.9997
vn -0.0027 -0.0195 0.9998
vn -0.9472 0.1493 -0.2836
vn 0.3741 0.9198 0.1187
vn 0.1275 -0.9912 0.0366
vn -0.9937 -0.0209 0.1105
vn -0.0024 -0.0011 1.0000
vn 0.9742 -0.0383 0.2223
vn 0.3590 -0.9313 0.0610
vn 0.3182 0.9174 0.2389
vn -0.0545 -0.9640 0.2602
vn -0.4115 0.9058 0.1013
vn -0.9710 0.1068 0.2139
vn 0.0879 -0.0391 0.9954
vn 0.9902 -0.0617 0.1252
vn 0.3329 -0.9141 0.2314
vn 0.1472 0.9841 0.0992
vn 0.0301 0.9966 0.0762
vn 0.0016 -0.0263 0.9997
vn -0.9930 -0.0355 0.1126
vn 0.9438 -0.0571 0.3254
vn 0.8681 0.4963 0.0004
vn 0.9917 0.0619 0.1124
vn -0.1144 0.0169 0.9933
vn -0.9959 -0.0615 0.0660
vn -0.1115 0.9878 0.1089
vn 0.1641 -0.9782 0.1270
vn -0.9954 0.0431 0.0851
vn 0.0049 0.0110 0.9999
vn 0.9760 -0.1092 0.1884
vn 0.5493 -0.8280 0.1128
vn -0.0101 0.9684 0.2494
vn -0.0440 -0.9350 0.3520
vn -0.3414 0.9378 0.0632
vn -0.9971 -0.0048 0.0757
vn 0.0826 -0.0864 0.9928
vn 0.9932 -0.0392 0.1098
vn 0.0136 -0.9946 0.1033
vn -0.0022 0.9946 0.1033
vn 0.9748 0.0707 0.2115
vn -0.3093 0.9423 0.1283
vn 0.0294 -0.9574 0.2873
vn 0.4711 0.8625 0.1847
vn 0.4067 -0.9116 0.0599
vn 0.9917 -0.0966 0.0847
vn -0.9655 -0.0000 0.2603
vn -0.5437 0.8348 0.0866
vn -0.0605 -0.9889 0.1355
vn 0.4497 0.7935 0.4100
vn -0.9877 0.1141 0.1070
vn 0.9867 -0.1075 0.1221
vn 0.1081 0.9879 0.1108
vn 0.0130 -0.0096 0.9999
vn -0.0876 -0.9912 0.0988
vn -0.9859 -0.1077 0.1277
vn 0.0903 0.1215 0.9885
vn 0.9776 0.1349 0.1617
vn 0.3355 -0.9404 0.0560
vn 0.0018 0.9887 0.1502
vn -0.0842 0.9658 0.2452
vn -0.0966 -0.0817 0.9920
vn -0.0208 -0.9767 0.2134
vn -0.6837 0.7290 0.0347
vn 0.9949 0.0694 0.0728
vn -0.0852 0.0793 0.9932
vn -0.9936 -0.0254 0.1099
vn -0.0454 0.9933 0.1059
vn 0.0337 -0.9938 0.1059
vn 0.0245 -0.9929 0.1161
vn -0.0054 -0.0070 1.0000
vn 0.9923 0.0675 0.1039
vn -0.9906 0.0436 0.1298
vn -0.9893 -0.1356 -0.0548
vn 0.1406 -0.0160 0.9899
vn 0.9937 0.0929 0.0626
vn 0.1854 -0.9761 0.1131
vn -0.1686 0.9074 0.3849
vn 0.9961 -0.0362 0.0808
vn 0.0024 0.0011 1.0000
vn -0.9471 0.1402 0.2888
vn -0.4912 0.8663 0.0913
vn 0.4237 0.8291 0.3648
vn -0.0035 -0.9944 0.1061
vn 0.0106 0.0023 0.9999
vn 0.9922 -0.0925 -0.0833
vn -0.5606 -0.7899 0.2484
vn -0.1275 0.9912 0.0368
vn -0.9963 -0.0848 0.0144
vn 0.2258 -0.0863 0.9704
vn 0.9981 0.0243 0.0561
vn 0.0985 -0.9891 0.1094
vn -0.0518 0.9928 0.1083
vn -0.9867 -0.0823 0.1402
vn 0.0293 0.0243 0.9993
vn 0.3867 -0.8717 0.3010
vn 0.2084 0.9695 0.1287
vn 0.2301 0.9606 0.1562
vn 0.0630 -0.0033 0.9980
vn -0.1936 0.9766 0.0940
vn 0.9639 0.0522 0.2612
vn -0.0016 0.0263 0.9997
vn -0.3588 0.8168 0.4518
vn 0.0292 -0.9500 0.3108
vn 0.4301 0.8914 0.1426
vn 0.4044 -0.9130 0.0535
vn 0.9937 0.0209 0.1105
vn -0.9742 0.0383 0.2223
vn -0.3590 0.9313 0.0610
vn -0.3182 -0.9174 0.2389
vn 0.0545 0.9640 0.2602
vn 0.4115 -0.9058 0.1013
vn 0.9710 -0.1068 0.2139
vn -0.0879 0.0391 0.9954
vn -0.9902 0.0617 0.1252
vn -0.3329 0.9141 0.2314
vn -0.1472 -0.9841 0.0992
vn 0.9799 0.1418 0.1405
vn 0.0124 -0.0050 0.9999
vn -0.9692 -0.0000 0.2461
vn -0.5438 0.8350 0.0847
vn 0.3873 0.8246 0.4123
vn 0.1803 -0.9447 0.2740
vn -0.0301 -0.9966 0.0762
vn 0.0004 -0.0000 1.0000
vn 0.0084 -0.0078 0.9999
vn 0.9930 0.0355 0.1126
vn -0.9438 0.0571 0.3254
vn -0.8681 -0.4963 0.0004
vn 0.1611 -0.9853 0.0575
vn 0.0121 -0.0918 0.9957
vn -0.1839 0.9639 0.1926
vn 0.9897 0.0974 0.1046
vn -0.8278 0.5481 0.1196
vn -0.6675 -0.6233 0.4074
vn -0.1298 -0.9867 0.0978
vn 0.1218 0.9899 0.0720
vn -0.9794 0.0964 0.1777
vn 0.9857 -0.1089 0.1289
vn -0.9999 -0.0101 0.0093
vn 0.0019 0.0010 1.0000
vn 0.0486 -0.9932 0.1061
vn 0.0908 0.9870 0.1327
vn -0.9908 0.0785 0.1104
vn 0.1751 0.0849 0.9809
vn 0.9884 -0.0541 0.1418
vn 0.1840 -0.9804 0.0703
vn 0.2740 0.9507 0.1453
vn 0.1902 0.9573 0.2179
vn -0.1581 -0.0612 0.9855
vn -0.3011 -0.9289 0.2156
vn -0.6276 0.7770 0.0484
vn -0.9985 -0.0423 -0.0337
vn 0.9692 -0.1441 0.1996
vn 0.0820 -0.9963 0.0275
vn 0.0390 0.9905 0.1317
vn -0.0752 -0.9740 0.2137
vn -0.0129 -0.9669 0.2547
vn -0.0073 -0.0068 1.0000
vn -0.1057 0.9891 0.1025
vn 0.9450 0.3054 0.1172
vn -0.9669 -0.0484 0.2505
vn 0.9206 -0.3689 0.1277
vn -0.9140 -0.4027 0.0506
vn 0.9833 -0.1534 0.0979
vn -0.0019 -0.0010 1.0000
vn -0.9554 0.1522 0.2531
vn -0.2676 0.9627 0.0398
vn -0.4426 -0.7824 0.4380
vn 0.1417 0.9514 0.2732
vn 0.4286 -0.9017 0.0565
vn 0.9913 0.0107 0.1314
vn -0.3713 -0.0570 0.9268
vn -0.9506 0.1428 0.2755
vn -0.3078 0.9486 0.0733
vn -0.2250 -0.9609 0.1615
vn 0.0736 -0.0051 0.9973
vn 0.1030 0.9664 0.2355
vn 0.3944 -0.9059 0.1542
vn 0.0251 -0.9899 0.1396
vn 0.9960 0.0443 0.0774
vn -0.9943 0.0270 0.1031
vn -0.9918 -0.1278 -0.0093
vn 0.1144 -0.0169 0.9933
vn 0.9959 0.0615 0.0660
vn 0.1168 -0.9871 0.1092
vn -0.1641 0.9782 0.1270
vn -0.0005 0.0024 1.0000
vn 0.0031 0.0117 0.9999
vn 0.0103 -0.0046 0.9999
vn 0.0025 0.0004 1.0000
vn 0.0089 -0.0070 0.9999
vn -0.0017 -0.0011 1.0000
vn -0.9646 0.1538 0.2144
vn 0.0935 0.9927 0.0762
vt 0.375000 0.875000
vt 0.375000 0.625000
vt 0.875000 0.625000
s 0
usemtl ruins_cv_floor_a
f 1/1/1 3/1/1 7/1/1
f 103/2/2 102/2/2 106/2/2
f 4/1/3 6/1/3 5/1/3
f 10/1/4 4/1/4 5/1/4
f 9/1/5 3/1/5 2/1/5
f 11/2/6 14/2/6 13/2/6
f 16/2/7 17/2/7 15/2/7
f 12/2/8 16/2/8 14/2/8
f 13/3/9 14/3/9 15/3/9
f 17/2/10 13/2/10 15/2/10
f 19/1/11 22/1/11 21/1/11
f 23/1/12 26/1/12 25/1/12
f 20/1/13 24/1/13 22/1/13
f 27/1/14 23/1/14 25/1/14
f 22/2/15 23/2/15 21/2/15
f 23/1/16 19/1/16 21/1/16
f 29/1/17 30/1/17 28/1/17
f 33/1/18 34/1/18 32/1/18
f 31/1/19 35/1/19 33/1/19
f 32/1/20 28/1/20 30/1/20
f 36/1/21 38/1/21 41/1/21
f 439/2/22 435/2/22 438/2/22
f 80/1/23 40/1/23 39/1/23
f 44/1/24 41/1/24 80/1/24
f 43/1/25 38/1/25 37/1/25
f 53/2/26 46/2/26 51/2/26
f 51/3/27 48/3/27 47/3/27
f 48/2/28 49/2/28 47/2/28
f 52/2/29 48/2/29 46/2/29
f 53/2/30 47/2/30 49/2/30
f 52/2/31 46/2/31 45/2/31
f 54/2/32 56/2/32 61/2/32
f 558/2/33 697/2/33 561/2/33
f 57/2/34 60/2/34 59/2/34
f 55/2/35 58/2/35 56/2/35
f 62/2/36 57/2/36 59/2/36
f 63/2/6 66/2/6 65/2/6
f 68/2/7 69/2/7 67/2/7
f 64/2/8 68/2/8 66/2/8
f 65/3/9 66/3/9 67/3/9
f 69/2/10 65/2/10 67/2/10
f 72/1/37 73/1/37 71/1/37
f 75/1/38 78/1/38 77/1/38
f 72/1/39 76/1/39 74/1/39
f 79/1/40 75/1/40 77/1/40
f 73/2/41 74/2/41 75/2/41
f 79/1/42 73/1/42 75/1/42
f 81/1/43 83/1/43 87/1/43
f 317/2/44 318/2/44 314/2/44
f 84/1/45 86/1/45 85/1/45
f 90/1/46 84/1/46 85/1/46
f 89/1/47 83/1/47 82/1/47
f 91/2/48 94/2/48 93/2/48
f 96/2/49 97/2/49 95/2/49
f 92/2/50 96/2/50 94/2/50
f 93/3/51 94/3/51 95/3/51
f 97/2/52 93/2/52 95/2/52
f 99/1/53 101/1/53 106/1/53
f 454/2/2 453/2/2 457/2/2
f 102/1/54 105/1/54 104/1/54
f 107/1/55 103/1/55 101/1/55
f 108/1/56 102/1/56 104/1/56
f 117/1/57 110/1/57 114/1/57
f 526/2/58 524/2/58 523/2/58
f 115/1/59 112/1/59 111/1/59
f 117/1/60 111/1/60 112/1/60
f 109/1/61 115/1/61 110/1/61
f 125/2/62 119/2/62 122/2/62
f 123/3/63 120/3/63 122/3/63
f 120/2/64 124/2/64 121/2/64
f 125/2/65 120/2/65 121/2/65
f 124/2/66 119/2/66 118/2/66
f 126/2/67 128/2/67 131/2/67
f 160/2/68 132/2/68 130/2/68
f 133/2/69 128/2/69 127/2/69
f 135/2/70 138/2/70 137/2/70
f 140/2/71 141/2/71 139/2/71
f 136/2/72 140/2/72 138/2/72
f 137/3/73 138/3/73 139/3/73
f 141/2/74 137/2/74 139/2/74
f 143/2/75 149/2/75 150/2/75
f 497/3/76 496/3/76 500/3/76
f 145/2/77 148/2/77 147/2/77
f 143/2/78 146/2/78 144/2/78
f 150/2/79 145/2/79 147/2/79
f 151/1/80 154/1/80 153/1/80
f 155/1/81 158/1/81 157/1/81
f 152/1/82 156/1/82 154/1/82
f 159/1/83 155/1/83 157/1/83
f 154/2/84 155/2/84 153/2/84
f 155/1/85 151/1/85 153/1/85
f 161/1/86 164/1/86 163/1/86
f 359/2/87 355/2/87 358/2/87
f 165/1/88 167/1/88 166/1/88
f 162/1/89 168/1/89 164/1/89
f 166/1/90 163/1/90 165/1/90
f 171/1/91 172/1/91 170/1/91
f 31/2/92 33/2/92 32/2/92
f 175/1/93 174/1/93 173/1/93
f 171/1/94 175/1/94 172/1/94
f 173/1/95 170/1/95 172/1/95
f 177/2/96 180/2/96 179/2/96
f 182/2/97 183/2/97 181/2/97
f 178/2/98 182/2/98 180/2/98
f 180/3/99 181/3/99 179/3/99
f 183/2/100 179/2/100 181/2/100
f 185/2/101 187/2/101 350/2/101
f 351/3/102 189/3/102 188/3/102
f 188/2/103 191/2/103 190/2/103
f 192/2/104 191/2/104 189/2/104
f 187/3/105 192/3/105 351/3/105
f 186/2/106 192/2/106 187/2/106
f 351/2/107 194/2/107 185/2/107
f 195/1/108 197/1/108 202/1/108
f 389/2/109 431/2/109 392/2/109
f 198/1/110 201/1/110 200/1/110
f 197/1/111 201/1/111 199/1/111
f 204/1/112 198/1/112 200/1/112
f 205/1/113 207/1/113 210/1/113
f 88/2/22 84/2/22 87/2/22
f 347/1/114 209/1/114 208/1/114
f 213/1/115 210/1/115 347/1/115
f 212/1/116 207/1/116 206/1/116
f 222/2/117 215/2/117 220/2/117
f 220/3/118 217/3/118 216/3/118
f 217/2/119 218/2/119 216/2/119
f 221/2/120 217/2/120 215/2/120
f 222/2/121 216/2/121 218/2/121
f 221/2/122 215/2/122 214/2/122
f 224/1/123 225/1/123 223/1/123
f 465/2/124 466/2/124 462/2/124
f 230/1/125 228/1/125 227/1/125
f 232/1/126 227/1/126 228/1/126
f 224/1/127 230/1/127 226/1/127
f 232/1/128 225/1/128 227/1/128
f 233/2/129 235/2/129 240/2/129
f 236/2/130 239/2/130 238/2/130
f 234/2/131 237/2/131 235/2/131
f 241/2/132 236/2/132 238/2/132
f 242/2/133 245/2/133 244/2/133
f 246/2/134 249/2/134 248/2/134
f 243/2/135 247/2/135 245/2/135
f 244/3/136 245/3/136 246/3/136
f 246/2/137 242/2/137 244/2/137
f 258/2/62 252/2/62 255/2/62
f 256/3/63 253/3/63 255/3/63
f 253/2/64 257/2/64 254/2/64
f 258/2/65 253/2/65 254/2/65
f 257/2/66 252/2/66 251/2/66
f 259/2/138 261/2/138 260/2/138
f 114/2/124 115/2/124 111/2/124
f 264/2/139 263/2/139 262/2/139
f 266/2/140 262/2/140 263/2/140
f 265/2/141 261/2/141 259/2/141
f 274/1/142 268/1/142 273/1/142
f 588/3/143 587/3/143 591/3/143
f 270/1/144 271/1/144 269/1/144
f 267/1/145 270/1/145 268/1/145
f 274/1/146 269/1/146 271/1/146
f 275/2/147 277/2/147 281/2/147
f 278/2/148 282/2/148 280/2/148
f 283/2/149 277/2/149 276/2/149
f 292/1/150 286/1/150 290/1/150
f 287/1/151 289/1/151 288/1/151
f 292/1/152 287/1/152 288/1/152
f 293/2/153 295/2/153 300/2/153
f 333/3/154 332/3/154 336/3/154
f 297/2/155 298/2/155 296/2/155
f 301/2/156 297/2/156 295/2/156
f 302/2/157 296/2/157 298/2/157
f 303/2/70 306/2/70 305/2/70
f 308/2/71 309/2/71 307/2/71
f 304/2/72 308/2/72 306/2/72
f 305/3/73 306/3/73 307/3/73
f 309/2/74 305/2/74 307/2/74
f 312/1/158 317/1/158 311/1/158
f 409/3/159 408/3/159 412/3/159
f 314/1/160 316/1/160 315/1/160
f 315/1/161 317/1/161 314/1/161
f 319/1/162 313/1/162 312/1/162
f 322/2/163 323/2/163 321/2/163
f 349/2/164 326/2/164 325/2/164
f 329/2/165 348/2/165 349/2/165
f 323/3/166 327/3/166 348/3/166
f 328/2/167 324/2/167 322/2/167
f 329/2/168 323/2/168 348/2/168
f 330/2/169 336/2/169 337/2/169
f 683/3/154 682/3/154 686/3/154
f 332/2/170 335/2/170 334/2/170
f 330/2/171 333/2/171 331/2/171
f 337/2/172 332/2/172 334/2/172
f 338/1/173 341/1/173 340/1/173
f 342/1/174 345/1/174 344/1/174
f 339/1/175 343/1/175 341/1/175
f 346/1/176 342/1/176 344/1/176
f 340/2/177 341/2/177 342/2/177
f 346/1/178 340/1/178 342/1/178
f 352/1/1 354/1/1 358/1/1
f 207/2/33 347/2/33 210/2/33
f 355/1/3 357/1/3 356/1/3
f 361/1/4 355/1/4 356/1/4
f 360/1/5 354/1/5 353/1/5
f 362/2/6 365/2/6 364/2/6
f 367/2/7 368/2/7 366/2/7
f 363/2/8 367/2/8 365/2/8
f 364/3/9 365/3/9 366/3/9
f 368/2/10 364/2/10 366/2/10
f 370/1/11 373/1/11 372/1/11
f 374/1/12 377/1/12 376/1/12
f 371/1/13 375/1/13 373/1/13
f 378/1/14 374/1/14 376/1/14
f 373/2/15 374/2/15 372/2/15
f 374/1/16 370/1/16 372/1/16
f 380/1/17 381/1/17 379/1/17
f 384/1/18 385/1/18 383/1/18
f 382/1/19 386/1/19 384/1/19
f 383/1/20 379/1/20 381/1/20
f 387/1/21 389/1/21 392/1/21
f 175/2/58 173/2/58 172/2/58
f 431/1/23 391/1/23 390/1/23
f 395/1/24 392/1/24 431/1/24
f 394/1/25 389/1/25 388/1/25
f 404/2/26 397/2/26 402/2/26
f 402/3/27 399/3/27 398/3/27
f 399/2/28 400/2/28 398/2/28
f 403/2/29 399/2/29 397/2/29
f 404/2/30 398/2/30 400/2/30
f 403/2/31 397/2/31 396/2/31
f 405/2/32 407/2/32 412/2/32
f 199/2/179 198/2/179 202/2/179
f 408/2/34 411/2/34 410/2/34
f 406/2/35 409/2/35 407/2/35
f 413/2/36 408/2/36 410/2/36
f 414/2/6 417/2/6 416/2/6
f 419/2/7 420/2/7 418/2/7
f 415/2/8 419/2/8 417/2/8
f 416/3/9 417/3/9 418/3/9
f 420/2/10 416/2/10 418/2/10
f 423/1/37 424/1/37 422/1/37
f 426/1/38 429/1/38 428/1/38
f 423/1/39 427/1/39 425/1/39
f 430/1/40 426/1/40 428/1/40
f 424/2/41 425/2/41 426/2/41
f 430/1/42 424/1/42 426/1/42
f 432/1/43 434/1/43 438/1/43
f 382/2/92 384/2/92 383/2/92
f 435/1/45 437/1/45 436/1/45
f 441/1/46 435/1/46 436/1/46
f 440/1/47 434/1/47 433/1/47
f 442/2/48 445/2/48 444/2/48
f 447/2/49 448/2/49 446/2/49
f 443/2/50 447/2/50 445/2/50
f 444/3/51 445/3/51 446/3/51
f 448/2/52 444/2/52 446/2/52
f 450/1/53 452/1/53 457/1/53
f 651/3/180 646/3/180 647/3/180
f 453/1/54 456/1/54 455/1/54
f 458/1/55 454/1/55 452/1/55
f 459/1/56 453/1/56 455/1/56
f 468/1/57 461/1/57 465/1/57
f 624/2/181 619/2/181 620/2/181
f 466/1/59 463/1/59 462/1/59
f 468/1/60 462/1/60 463/1/60
f 460/1/61 466/1/61 461/1/61
f 476/2/62 470/2/62 473/2/62
f 474/3/63 471/3/63 473/3/63
f 471/2/64 475/2/64 472/2/64
f 476/2/65 471/2/65 472/2/65
f 475/2/66 470/2/66 469/2/66
f 477/2/67 479/2/67 482/2/67
f 511/2/68 483/2/68 481/2/68
f 484/2/69 479/2/69 478/2/69
f 486/2/70 489/2/70 488/2/70
f 491/2/71 492/2/71 490/2/71
f 487/2/72 491/2/72 489/2/72
f 488/3/73 489/3/73 490/3/73
f 492/2/74 488/2/74 490/2/74
f 494/2/75 500/2/75 501/2/75
f 496/2/77 499/2/77 498/2/77
f 494/2/78 497/2/78 495/2/78
f 501/2/79 496/2/79 498/2/79
f 502/1/80 505/1/80 504/1/80
f 506/1/81 509/1/81 508/1/81
f 503/1/82 507/1/82 505/1/82
f 510/1/83 506/1/83 508/1/83
f 505/2/84 506/2/84 504/2/84
f 506/1/85 502/1/85 504/1/85
f 512/1/86 515/1/86 514/1/86
f 516/1/88 518/1/88 517/1/88
f 513/1/89 519/1/89 515/1/89
f 517/1/90 514/1/90 516/1/90
f 522/1/91 523/1/91 521/1/91
f 237/3/143 236/3/143 240/3/143
f 526/1/93 525/1/93 524/1/93
f 522/1/94 526/1/94 523/1/94
f 524/1/95 521/1/95 523/1/95
f 528/2/96 531/2/96 530/2/96
f 533/2/97 534/2/97 532/2/97
f 529/2/98 533/2/98 531/2/98
f 531/3/99 532/3/99 530/3/99
f 534/2/100 530/2/100 532/2/100
f 536/2/101 538/2/101 700/2/101
f 701/3/102 540/3/102 539/3/102
f 539/2/103 542/2/103 541/2/103
f 543/2/104 542/2/104 540/2/104
f 538/3/105 543/3/105 701/3/105
f 537/2/106 543/2/106 538/2/106
f 701/2/107 545/2/107 536/2/107
f 546/1/108 548/1/108 553/1/108
f 291/2/182 287/2/182 290/2/182
f 549/1/110 552/1/110 551/1/110
f 548/1/111 552/1/111 550/1/111
f 555/1/112 549/1/112 551/1/112
f 556/1/113 558/1/113 561/1/113
f 273/2/181 268/2/181 269/2/181
f 697/1/114 560/1/114 559/1/114
f 564/1/115 561/1/115 697/1/115
f 563/1/116 558/1/116 557/1/116
f 573/2/117 566/2/117 571/2/117
f 571/3/118 568/3/118 567/3/118
f 568/2/119 569/2/119 567/2/119
f 572/2/120 568/2/120 566/2/120
f 573/2/121 567/2/121 569/2/121
f 572/2/122 566/2/122 565/2/122
f 575/1/123 576/1/123 574/1/123
f 58/3/159 57/3/159 61/3/159
f 581/1/125 579/1/125 578/1/125
f 583/1/126 578/1/126 579/1/126
f 575/1/127 581/1/127 577/1/127
f 583/1/128 576/1/128 578/1/128
f 584/2/129 586/2/129 591/2/129
f 38/2/109 80/2/109 41/2/109
f 587/2/130 590/2/130 589/2/130
f 585/2/131 588/2/131 586/2/131
f 592/2/132 587/2/132 589/2/132
f 593/2/133 596/2/133 595/2/133
f 597/2/134 600/2/134 599/2/134
f 594/2/135 598/2/135 596/2/135
f 595/3/136 596/3/136 597/3/136
f 597/2/137 593/2/137 595/2/137
f 609/2/62 603/2/62 606/2/62
f 607/3/63 604/3/63 606/3/63
f 604/2/64 608/2/64 605/2/64
f 609/2/65 604/2/65 605/2/65
f 608/2/66 603/2/66 602/2/66
f 610/2/138 612/2/138 611/2/138
f 8/2/87 4/2/87 7/2/87
f 615/2/139 614/2/139 613/2/139
f 617/2/140 613/2/140 614/2/140
f 616/2/141 612/2/141 610/2/141
f 625/1/142 619/1/142 624/1/142
f 621/1/144 622/1/144 620/1/144
f 618/1/145 621/1/145 619/1/145
f 625/1/146 620/1/146 622/1/146
f 626/2/147 628/2/147 632/2/147
f 629/2/148 633/2/148 631/2/148
f 634/2/149 628/2/149 627/2/149
f 643/1/150 637/1/150 641/1/150
f 550/2/179 549/2/179 553/2/179
f 638/1/151 640/1/151 639/1/151
f 643/1/152 638/1/152 639/1/152
f 644/2/153 646/2/153 651/2/153
f 300/3/180 295/3/180 296/3/180
f 648/2/155 649/2/155 647/2/155
f 652/2/156 648/2/156 646/2/156
f 653/2/157 647/2/157 649/2/157
f 654/2/70 657/2/70 656/2/70
f 659/2/71 660/2/71 658/2/71
f 655/2/72 659/2/72 657/2/72
f 656/3/73 657/3/73 658/3/73
f 660/2/74 656/2/74 658/2/74
f 663/1/158 668/1/158 662/1/158
f 642/2/182 638/2/182 641/2/182
f 665/1/160 667/1/160 666/1/160
f 666/1/161 668/1/161 665/1/161
f 670/1/162 664/1/162 663/1/162
f 673/2/163 674/2/163 672/2/163
f 699/2/183 678/2/183 676/2/183
f 679/2/165 698/2/165 699/2/165
f 674/3/166 677/3/166 698/3/166
f 678/2/184 675/2/184 673/2/184
f 679/2/168 674/2/168 698/2/168
f 680/2/169 686/2/169 687/2/169
f 146/3/76 145/3/76 149/3/76
f 682/2/170 685/2/170 684/2/170
f 680/2/171 683/2/171 681/2/171
f 687/2/172 682/2/172 684/2/172
f 688/1/173 691/1/173 690/1/173
f 692/1/174 695/1/174 694/1/174
f 689/1/175 693/1/175 691/1/175
f 696/1/176 692/1/176 694/1/176
f 690/2/177 691/2/177 692/2/177
f 696/1/178 690/1/178 692/1/178
f 702/1/185 705/1/185 704/1/185
f 705/1/186 708/1/186 704/1/186
f 709/1/187 706/1/187 708/1/187
f 707/1/188 702/1/188 706/1/188
f 708/1/189 702/1/189 704/1/189
f 705/1/190 707/1/190 709/1/190
f 668/2/44 669/2/44 665/2/44
f 1/1/191 2/1/191 3/1/191
f 101/2/192 103/2/192 106/2/192
f 4/1/193 8/1/193 6/1/193
f 8/1/194 9/1/194 6/1/194
f 10/1/195 7/1/195 4/1/195
f 9/1/196 8/1/196 3/1/196
f 10/1/197 1/1/197 7/1/197
f 11/2/198 12/2/198 14/2/198
f 15/3/199 14/3/199 16/3/199
f 16/2/200 18/2/200 17/2/200
f 12/2/201 18/2/201 16/2/201
f 17/2/202 11/2/202 13/2/202
f 19/1/203 20/1/203 22/1/203
f 22/2/204 24/2/204 23/2/204
f 23/1/205 24/1/205 26/1/205
f 20/1/206 26/1/206 24/1/206
f 23/1/207 27/1/207 19/1/207
f 29/1/208 31/1/208 30/1/208
f 611/3/209 612/3/209 615/3/209
f 613/3/210 611/3/210 615/3/210
f 33/1/211 35/1/211 34/1/211
f 29/1/212 35/1/212 31/1/212
f 32/1/213 34/1/213 28/1/213
f 36/1/214 37/1/214 38/1/214
f 438/2/215 434/2/215 439/2/215
f 80/1/216 42/1/216 40/1/216
f 43/1/217 40/1/217 42/1/217
f 39/1/218 44/1/218 80/1/218
f 43/1/219 42/1/219 38/1/219
f 41/1/220 44/1/220 36/1/220
f 53/2/221 45/2/221 46/2/221
f 51/3/222 46/3/222 48/3/222
f 48/2/223 50/2/223 49/2/223
f 52/2/224 50/2/224 48/2/224
f 53/2/225 51/2/225 47/2/225
f 54/2/226 55/2/226 56/2/226
f 558/2/227 562/2/227 697/2/227
f 57/2/34 58/2/34 60/2/34
f 55/2/228 60/2/228 58/2/228
f 62/2/229 61/2/229 57/2/229
f 61/2/230 62/2/230 54/2/230
f 63/2/198 64/2/198 66/2/198
f 67/3/199 66/3/199 68/3/199
f 68/2/200 70/2/200 69/2/200
f 64/2/201 70/2/201 68/2/201
f 69/2/202 63/2/202 65/2/202
f 72/1/231 74/1/231 73/1/231
f 74/2/232 76/2/232 75/2/232
f 75/1/233 76/1/233 78/1/233
f 72/1/234 78/1/234 76/1/234
f 79/1/235 71/1/235 73/1/235
f 81/1/236 82/1/236 83/1/236
f 313/2/237 318/2/237 317/2/237
f 84/1/238 88/1/238 86/1/238
f 88/1/239 89/1/239 86/1/239
f 90/1/240 87/1/240 84/1/240
f 89/1/241 88/1/241 83/1/241
f 90/1/242 81/1/242 87/1/242
f 91/2/243 92/2/243 94/2/243
f 95/3/244 94/3/244 96/3/244
f 96/2/245 98/2/245 97/2/245
f 92/2/246 98/2/246 96/2/246
f 97/2/247 91/2/247 93/2/247
f 99/1/248 100/1/248 101/1/248
f 452/2/192 454/2/192 457/2/192
f 102/1/54 103/1/54 105/1/54
f 107/1/249 105/1/249 103/1/249
f 108/1/250 106/1/250 102/1/250
f 100/1/251 107/1/251 101/1/251
f 108/1/252 99/1/252 106/1/252
f 117/1/253 109/1/253 110/1/253
f 115/1/254 113/1/254 112/1/254
f 115/1/255 116/1/255 113/1/255
f 117/1/256 114/1/256 111/1/256
f 109/1/257 116/1/257 115/1/257
f 125/2/258 118/2/258 119/2/258
f 120/2/259 123/2/259 124/2/259
f 125/2/260 122/2/260 120/2/260
f 119/3/261 123/3/261 122/3/261
f 124/2/262 123/2/262 119/2/262
f 126/2/263 127/2/263 128/2/263
f 160/3/264 131/3/264 132/3/264
f 129/2/265 160/2/265 130/2/265
f 133/2/266 130/2/266 132/2/266
f 160/2/267 129/2/267 134/2/267
f 134/2/268 131/2/268 160/2/268
f 131/3/269 128/3/269 132/3/269
f 133/2/270 132/2/270 128/2/270
f 134/2/271 126/2/271 131/2/271
f 135/2/272 136/2/272 138/2/272
f 139/3/273 138/3/273 140/3/273
f 140/2/274 142/2/274 141/2/274
f 136/2/275 142/2/275 140/2/275
f 141/2/276 135/2/276 137/2/276
f 143/2/277 144/2/277 149/2/277
f 495/3/278 497/3/278 500/3/278
f 145/2/77 146/2/77 148/2/77
f 143/2/279 148/2/279 146/2/279
f 150/2/280 149/2/280 145/2/280
f 151/1/281 152/1/281 154/1/281
f 154/2/282 156/2/282 155/2/282
f 155/1/283 156/1/283 158/1/283
f 152/1/284 158/1/284 156/1/284
f 155/1/285 159/1/285 151/1/285
f 161/1/286 162/1/286 164/1/286
f 358/2/287 354/2/287 359/2/287
f 165/1/288 168/1/288 167/1/288
f 168/1/289 169/1/289 167/1/289
f 162/1/290 169/1/290 168/1/290
f 166/1/291 161/1/291 163/1/291
f 30/2/292 31/2/292 32/2/292
f 175/1/293 176/1/293 174/1/293
f 171/1/294 176/1/294 175/1/294
f 173/1/295 174/1/295 170/1/295
f 177/2/296 178/2/296 180/2/296
f 180/3/297 182/3/297 181/3/297
f 182/2/298 184/2/298 183/2/298
f 178/2/299 184/2/299 182/2/299
f 183/2/300 177/2/300 179/2/300
f 185/2/301 186/2/301 187/2/301
f 351/3/302 192/3/302 189/3/302
f 188/2/103 189/2/103 191/2/103
f 192/2/303 193/2/303 191/2/303
f 188/2/304 190/2/304 351/2/304
f 190/2/305 194/2/305 351/2/305
f 350/3/306 187/3/306 351/3/306
f 186/2/106 193/2/106 192/2/106
f 350/2/307 351/2/307 185/2/307
f 195/1/308 196/1/308 197/1/308
f 389/2/309 393/2/309 431/2/309
f 198/1/110 199/1/110 201/1/110
f 197/1/310 203/1/310 201/1/310
f 204/1/311 202/1/311 198/1/311
f 196/1/312 203/1/312 197/1/312
f 202/1/313 204/1/313 195/1/313
f 205/1/314 206/1/314 207/1/314
f 87/2/215 83/2/215 88/2/215
f 347/1/315 211/1/315 209/1/315
f 212/1/316 209/1/316 211/1/316
f 208/1/317 213/1/317 347/1/317
f 212/1/318 211/1/318 207/1/318
f 210/1/319 213/1/319 205/1/319
f 222/2/320 214/2/320 215/2/320
f 220/3/321 215/3/321 217/3/321
f 217/2/322 219/2/322 218/2/322
f 221/2/323 219/2/323 217/2/323
f 222/2/324 220/2/324 216/2/324
f 224/1/325 226/1/325 225/1/325
f 461/2/326 466/2/326 465/2/326
f 230/1/327 229/1/327 228/1/327
f 230/1/328 231/1/328 229/1/328
f 224/1/329 231/1/329 230/1/329
f 232/1/330 223/1/330 225/1/330
f 233/2/331 234/2/331 235/2/331
f 516/2/332 514/2/332 515/2/332
f 515/2/333 519/2/333 516/2/333
f 236/2/130 237/2/130 239/2/130
f 234/2/334 239/2/334 237/2/334
f 241/2/335 240/2/335 236/2/335
f 240/2/336 241/2/336 233/2/336
f 242/2/337 243/2/337 245/2/337
f 245/3/338 247/3/338 246/3/338
f 246/2/339 247/2/339 249/2/339
f 243/2/340 249/2/340 247/2/340
f 248/2/341 250/2/341 246/2/341
f 246/2/342 250/2/342 242/2/342
f 258/2/258 251/2/258 252/2/258
f 253/2/259 256/2/259 257/2/259
f 258/2/260 255/2/260 253/2/260
f 252/3/261 256/3/261 255/3/261
f 257/2/262 256/2/262 252/2/262
f 266/2/343 259/2/343 260/2/343
f 110/2/326 115/2/326 114/2/326
f 264/2/344 265/2/344 263/2/344
f 266/2/345 260/2/345 262/2/345
f 265/2/346 264/2/346 261/2/346
f 274/1/347 267/1/347 268/1/347
f 586/3/348 588/3/348 591/3/348
f 270/1/144 272/1/144 271/1/144
f 267/1/349 272/1/349 270/1/349
f 274/1/350 273/1/350 269/1/350
f 275/2/351 276/2/351 277/2/351
f 281/3/352 282/3/352 278/3/352
f 279/2/353 278/2/353 280/2/353
f 283/2/354 280/2/354 282/2/354
f 278/2/355 279/2/355 284/2/355
f 284/2/356 281/2/356 278/2/356
f 281/3/357 277/3/357 282/3/357
f 283/2/358 282/2/358 277/2/358
f 284/2/359 275/2/359 281/2/359
f 292/1/360 285/1/360 286/1/360
f 260/3/209 261/3/209 264/3/209
f 262/3/210 260/3/210 264/3/210
f 287/1/361 291/1/361 289/1/361
f 285/1/362 289/1/362 291/1/362
f 292/1/363 290/1/363 287/1/363
f 285/1/364 291/1/364 286/1/364
f 293/2/365 294/2/365 295/2/365
f 331/3/366 333/3/366 336/3/366
f 297/2/367 299/2/367 298/2/367
f 301/2/368 299/2/368 297/2/368
f 302/2/369 300/2/369 296/2/369
f 294/2/370 301/2/370 295/2/370
f 302/2/371 293/2/371 300/2/371
f 303/2/272 304/2/272 306/2/272
f 307/3/273 306/3/273 308/3/273
f 308/2/274 310/2/274 309/2/274
f 304/2/275 310/2/275 308/2/275
f 309/2/276 303/2/276 305/2/276
f 312/1/372 313/1/372 317/1/372
f 407/3/373 409/3/373 412/3/373
f 314/1/374 318/1/374 316/1/374
f 319/1/375 316/1/375 318/1/375
f 315/1/376 320/1/376 317/1/376
f 319/1/377 318/1/377 313/1/377
f 317/1/378 320/1/378 311/1/378
f 322/2/379 324/2/379 323/2/379
f 348/3/380 327/3/380 349/3/380
f 349/2/381 327/2/381 326/2/381
f 328/2/382 326/2/382 327/2/382
f 349/2/383 325/2/383 329/2/383
f 323/3/384 324/3/384 327/3/384
f 328/2/385 327/2/385 324/2/385
f 329/2/386 321/2/386 323/2/386
f 330/2/387 331/2/387 336/2/387
f 681/3/366 683/3/366 686/3/366
f 332/2/170 333/2/170 335/2/170
f 330/2/388 335/2/388 333/2/388
f 337/2/389 336/2/389 332/2/389
f 338/1/390 339/1/390 341/1/390
f 341/2/391 343/2/391 342/2/391
f 342/1/392 343/1/392 345/1/392
f 339/1/393 345/1/393 343/1/393
f 346/1/394 338/1/394 340/1/394
f 352/1/191 353/1/191 354/1/191
f 207/2/227 211/2/227 347/2/227
f 355/1/193 359/1/193 357/1/193
f 359/1/194 360/1/194 357/1/194
f 361/1/195 358/1/195 355/1/195
f 360/1/196 359/1/196 354/1/196
f 361/1/197 352/1/197 358/1/197
f 362/2/198 363/2/198 365/2/198
f 366/3/199 365/3/199 367/3/199
f 367/2/200 369/2/200 368/2/200
f 363/2/201 369/2/201 367/2/201
f 368/2/202 362/2/202 364/2/202
f 370/1/203 371/1/203 373/1/203
f 373/2/204 375/2/204 374/2/204
f 374/1/205 375/1/205 377/1/205
f 371/1/206 377/1/206 375/1/206
f 374/1/207 378/1/207 370/1/207
f 380/1/208 382/1/208 381/1/208
f 165/2/332 163/2/332 164/2/332
f 164/2/333 168/2/333 165/2/333
f 384/1/211 386/1/211 385/1/211
f 380/1/212 386/1/212 382/1/212
f 383/1/213 385/1/213 379/1/213
f 387/1/214 388/1/214 389/1/214
f 431/1/216 393/1/216 391/1/216
f 394/1/217 391/1/217 393/1/217
f 390/1/218 395/1/218 431/1/218
f 394/1/219 393/1/219 389/1/219
f 392/1/220 395/1/220 387/1/220
f 404/2/221 396/2/221 397/2/221
f 402/3/222 397/3/222 399/3/222
f 399/2/223 401/2/223 400/2/223
f 403/2/224 401/2/224 399/2/224
f 404/2/225 402/2/225 398/2/225
f 405/2/226 406/2/226 407/2/226
f 197/2/395 199/2/395 202/2/395
f 408/2/34 409/2/34 411/2/34
f 406/2/228 411/2/228 409/2/228
f 413/2/229 412/2/229 408/2/229
f 412/2/230 413/2/230 405/2/230
f 414/2/198 415/2/198 417/2/198
f 418/3/199 417/3/199 419/3/199
f 419/2/200 421/2/200 420/2/200
f 415/2/201 421/2/201 419/2/201
f 420/2/202 414/2/202 416/2/202
f 423/1/231 425/1/231 424/1/231
f 425/2/232 427/2/232 426/2/232
f 426/1/233 427/1/233 429/1/233
f 423/1/234 429/1/234 427/1/234
f 430/1/235 422/1/235 424/1/235
f 432/1/236 433/1/236 434/1/236
f 381/2/292 382/2/292 383/2/292
f 435/1/238 439/1/238 437/1/238
f 439/1/239 440/1/239 437/1/239
f 441/1/240 438/1/240 435/1/240
f 440/1/241 439/1/241 434/1/241
f 441/1/242 432/1/242 438/1/242
f 442/2/243 443/2/243 445/2/243
f 446/3/244 445/3/244 447/3/244
f 447/2/245 449/2/245 448/2/245
f 443/2/246 449/2/246 447/2/246
f 448/2/247 442/2/247 444/2/247
f 450/1/248 451/1/248 452/1/248
f 646/3/396 648/3/396 647/3/396
f 453/1/54 454/1/54 456/1/54
f 458/1/249 456/1/249 454/1/249
f 459/1/250 457/1/250 453/1/250
f 451/1/251 458/1/251 452/1/251
f 459/1/252 450/1/252 457/1/252
f 468/1/253 460/1/253 461/1/253
f 619/2/397 621/2/397 620/2/397
f 466/1/254 464/1/254 463/1/254
f 466/1/255 467/1/255 464/1/255
f 468/1/256 465/1/256 462/1/256
f 460/1/257 467/1/257 466/1/257
f 476/2/258 469/2/258 470/2/258
f 471/2/259 474/2/259 475/2/259
f 476/2/260 473/2/260 471/2/260
f 470/3/261 474/3/261 473/3/261
f 475/2/262 474/2/262 470/2/262
f 477/2/263 478/2/263 479/2/263
f 511/3/264 482/3/264 483/3/264
f 480/2/265 511/2/265 481/2/265
f 484/2/266 481/2/266 483/2/266
f 511/2/267 480/2/267 485/2/267
f 485/2/268 482/2/268 511/2/268
f 482/3/269 479/3/269 483/3/269
f 484/2/270 483/2/270 479/2/270
f 485/2/271 477/2/271 482/2/271
f 486/2/272 487/2/272 489/2/272
f 490/3/273 489/3/273 491/3/273
f 491/2/274 493/2/274 492/2/274
f 487/2/275 493/2/275 491/2/275
f 492/2/276 486/2/276 488/2/276
f 494/2/277 495/2/277 500/2/277
f 496/2/77 497/2/77 499/2/77
f 494/2/279 499/2/279 497/2/279
f 501/2/280 500/2/280 496/2/280
f 502/1/281 503/1/281 505/1/281
f 505/2/282 507/2/282 506/2/282
f 506/1/283 507/1/283 509/1/283
f 503/1/284 509/1/284 507/1/284
f 506/1/285 510/1/285 502/1/285
f 512/1/286 513/1/286 515/1/286
f 227/2/398 225/2/398 226/2/398
f 226/2/399 230/2/399 227/2/399
f 516/1/288 519/1/288 518/1/288
f 519/1/289 520/1/289 518/1/289
f 513/1/290 520/1/290 519/1/290
f 517/1/291 512/1/291 514/1/291
f 235/3/348 237/3/348 240/3/348
f 526/1/293 527/1/293 525/1/293
f 522/1/294 527/1/294 526/1/294
f 524/1/295 525/1/295 521/1/295
f 528/2/296 529/2/296 531/2/296
f 531/3/297 533/3/297 532/3/297
f 533/2/298 535/2/298 534/2/298
f 529/2/299 535/2/299 533/2/299
f 534/2/300 528/2/300 530/2/300
f 536/2/301 537/2/301 538/2/301
f 701/3/302 543/3/302 540/3/302
f 539/2/103 540/2/103 542/2/103
f 543/2/303 544/2/303 542/2/303
f 539/2/304 541/2/304 701/2/304
f 541/2/305 545/2/305 701/2/305
f 700/3/306 538/3/306 701/3/306
f 537/2/106 544/2/106 543/2/106
f 700/2/307 701/2/307 536/2/307
f 546/1/308 547/1/308 548/1/308
f 290/2/400 286/2/400 291/2/400
f 549/1/110 550/1/110 552/1/110
f 548/1/310 554/1/310 552/1/310
f 555/1/311 553/1/311 549/1/311
f 547/1/312 554/1/312 548/1/312
f 553/1/313 555/1/313 546/1/313
f 556/1/314 557/1/314 558/1/314
f 268/2/397 270/2/397 269/2/397
f 697/1/315 562/1/315 560/1/315
f 563/1/316 560/1/316 562/1/316
f 559/1/317 564/1/317 697/1/317
f 563/1/318 562/1/318 558/1/318
f 561/1/319 564/1/319 556/1/319
f 573/2/320 565/2/320 566/2/320
f 571/3/321 566/3/321 568/3/321
f 568/2/322 570/2/322 569/2/322
f 572/2/323 570/2/323 568/2/323
f 573/2/324 571/2/324 567/2/324
f 575/1/325 577/1/325 576/1/325
f 56/3/373 58/3/373 61/3/373
f 581/1/327 580/1/327 579/1/327
f 581/1/328 582/1/328 580/1/328
f 575/1/329 582/1/329 581/1/329
f 583/1/330 574/1/330 576/1/330
f 584/2/331 585/2/331 586/2/331
f 38/2/309 42/2/309 80/2/309
f 587/2/130 588/2/130 590/2/130
f 585/2/334 590/2/334 588/2/334
f 592/2/335 591/2/335 587/2/335
f 591/2/336 592/2/336 584/2/336
f 593/2/337 594/2/337 596/2/337
f 596/3/338 598/3/338 597/3/338
f 597/2/339 598/2/339 600/2/339
f 594/2/340 600/2/340 598/2/340
f 599/2/341 601/2/341 597/2/341
f 597/2/342 601/2/342 593/2/342
f 609/2/258 602/2/258 603/2/258
f 604/2/259 607/2/259 608/2/259
f 609/2/260 606/2/260 604/2/260
f 603/3/261 607/3/261 606/3/261
f 608/2/262 607/2/262 603/2/262
f 617/2/343 610/2/343 611/2/343
f 7/2/287 3/2/287 8/2/287
f 615/2/344 616/2/344 614/2/344
f 617/2/345 611/2/345 613/2/345
f 616/2/346 615/2/346 612/2/346
f 625/1/347 618/1/347 619/1/347
f 578/2/398 576/2/398 577/2/398
f 577/2/399 581/2/399 578/2/399
f 621/1/144 623/1/144 622/1/144
f 618/1/349 623/1/349 621/1/349
f 625/1/350 624/1/350 620/1/350
f 626/2/351 627/2/351 628/2/351
f 632/3/352 633/3/352 629/3/352
f 630/2/353 629/2/353 631/2/353
f 634/2/354 631/2/354 633/2/354
f 629/2/355 630/2/355 635/2/355
f 635/2/356 632/2/356 629/2/356
f 632/3/357 628/3/357 633/3/357
f 634/2/358 633/2/358 628/2/358
f 635/2/359 626/2/359 632/2/359
f 643/1/360 636/1/360 637/1/360
f 548/2/395 550/2/395 553/2/395
f 638/1/361 642/1/361 640/1/361
f 636/1/362 640/1/362 642/1/362
f 643/1/363 641/1/363 638/1/363
f 636/1/364 642/1/364 637/1/364
f 644/2/365 645/2/365 646/2/365
f 295/3/396 297/3/396 296/3/396
f 648/2/367 650/2/367 649/2/367
f 652/2/368 650/2/368 648/2/368
f 653/2/369 651/2/369 647/2/369
f 645/2/370 652/2/370 646/2/370
f 653/2/371 644/2/371 651/2/371
f 654/2/272 655/2/272 657/2/272
f 658/3/273 657/3/273 659/3/273
f 659/2/274 661/2/274 660/2/274
f 655/2/275 661/2/275 659/2/275
f 660/2/276 654/2/276 656/2/276
f 663/1/372 664/1/372 668/1/372
f 641/2/400 637/2/400 642/2/400
f 665/1/374 669/1/374 667/1/374
f 670/1/375 667/1/375 669/1/375
f 666/1/376 671/1/376 668/1/376
f 670/1/377 669/1/377 664/1/377
f 668/1/378 671/1/378 662/1/378
f 673/2/379 675/2/379 674/2/379
f 698/3/380 677/3/380 699/3/380
f 699/2/401 677/2/401 678/2/401
f 699/2/383 676/2/383 679/2/383
f 674/3/384 675/3/384 677/3/384
f 678/2/402 677/2/402 675/2/402
f 679/2/386 672/2/386 674/2/386
f 680/2/387 681/2/387 686/2/387
f 144/3/278 146/3/278 149/3/278
f 682/2/170 683/2/170 685/2/170
f 680/2/388 685/2/388 683/2/388
f 687/2/389 686/2/389 682/2/389
f 688/1/390 689/1/390 691/1/390
f 691/2/391 693/2/391 692/2/391
f 692/1/392 693/1/392 695/1/392
f 689/1/393 695/1/393 693/1/393
f 696/1/394 688/1/394 690/1/394
f 702/1/185 703/1/185 705/1/185
f 705/1/186 709/1/186 708/1/186
f 709/1/187 707/1/187 706/1/187
f 707/1/188 703/1/188 702/1/188
f 708/1/189 706/1/189 702/1/189
f 705/1/190 703/1/190 707/1/190
f 664/2/237 669/2/237 668/2/237
