# Blender 5.2.2 LTS
# www.blender.org
mtllib ruins_find_kralien_optics.mtl
o piece
v 0.413684 -0.112780 -0.716520
v -0.413684 -0.112780 -0.716520
v -0.827367 -0.112780 -0.000001
v -0.413684 -0.112779 0.716522
v 0.413684 -0.112779 0.716522
v 0.827367 -0.112780 -0.000001
v 0.400659 0.143940 -0.693960
v -0.400658 0.143940 -0.693960
v -0.801317 0.143940 -0.000001
v -0.400659 0.143940 0.693962
v 0.400658 0.143940 0.693962
v 0.801317 0.143940 -0.000001
v 0.246702 0.309659 -0.427301
v -0.246702 0.309659 -0.427301
v -0.493404 0.309659 -0.000001
v -0.246702 0.309659 0.427300
v 0.246702 0.309659 0.427300
v 0.493404 0.309659 -0.000001
v 0.185326 0.117093 -0.320994
v -0.185326 0.117093 -0.320994
v 0.000000 0.117093 -0.000001
v -0.370652 0.117093 -0.000001
v -0.185326 0.117093 0.320992
v 0.185326 0.117093 0.320992
v 0.370652 0.117093 -0.000001
v 0.233752 -0.059809 -0.729207
v -0.233752 -0.059809 -0.729207
v -0.238983 0.143940 -0.715945
v 0.238984 0.143940 -0.715945
v -0.138244 0.309659 -0.463757
v 0.138244 0.309659 -0.463757
v -0.121569 0.185822 -0.386757
v 0.121569 0.185822 -0.386757
v -0.748388 -0.059809 0.162168
v -0.514636 -0.059809 0.567038
v -0.500535 0.143940 0.564937
v -0.739518 0.143940 0.151005
v -0.332503 0.309659 0.351600
v -0.470747 0.309659 0.112154
v -0.274155 0.185822 0.298657
v -0.395724 0.185822 0.088094
v 0.514636 -0.059809 0.567038
v 0.748388 -0.059809 0.162168
v 0.739518 0.143940 0.151005
v 0.500534 0.143940 0.564937
v 0.470747 0.309659 0.112154
v 0.332503 0.309659 0.351600
v 0.395724 0.185822 0.088094
v 0.274155 0.185823 0.298657
v -0.514636 -0.059809 -0.567038
v -0.748388 -0.059809 -0.162169
v -0.739518 0.143940 -0.151008
v -0.500534 0.143940 -0.564938
v -0.470747 0.309659 -0.112157
v -0.332503 0.309659 -0.351601
v -0.395724 0.185822 -0.088097
v -0.274155 0.185822 -0.298661
v -0.233752 -0.059809 0.729207
v 0.233752 -0.059809 0.729207
v 0.238983 0.143941 0.715945
v -0.238984 0.143941 0.715945
v 0.138244 0.309659 0.463755
v -0.138244 0.309659 0.463755
v 0.121569 0.185822 0.386754
v -0.121569 0.185822 0.386754
v 0.748388 -0.059809 -0.162169
v 0.514636 -0.059809 -0.567038
v 0.500534 0.143940 -0.564938
v 0.739518 0.143940 -0.151008
v 0.332503 0.309659 -0.351601
v 0.470747 0.309659 -0.112157
v 0.274156 0.185822 -0.298660
v 0.395724 0.185822 -0.088097
v 0.189470 -0.003507 -0.830790
v -0.189470 -0.003507 -0.830790
v -0.193711 0.217650 -0.786080
v 0.193711 0.217650 -0.786080
v -0.112055 0.395487 -0.458471
v 0.112055 0.395487 -0.458471
v -0.098539 0.282615 -0.306823
v 0.098539 0.282615 -0.306823
v -0.624750 -0.003507 -0.579480
v -0.814220 -0.003507 -0.251309
v -0.777620 0.217650 -0.225283
v -0.583909 0.217650 -0.560798
v -0.453075 0.395487 -0.132194
v -0.341019 0.395487 -0.326278
v -0.314985 0.282616 -0.068075
v -0.216446 0.282616 -0.238749
v -0.814220 -0.003507 0.251308
v -0.624750 -0.003507 0.579480
v -0.583910 0.217650 0.560798
v -0.777620 0.217650 0.225280
v -0.341020 0.395487 0.326276
v -0.453075 0.395487 0.132192
v -0.216446 0.282616 0.238746
v -0.314985 0.282616 0.068072
v -0.189470 -0.003507 0.830790
v 0.189470 -0.003507 0.830790
v 0.193711 0.217650 0.786078
v -0.193711 0.217650 0.786078
v 0.112055 0.395488 0.458469
v -0.112055 0.395488 0.458469
v 0.098539 0.282616 0.306820
v -0.098539 0.282616 0.306820
v 0.624750 -0.003507 0.579480
v 0.814220 -0.003507 0.251308
v 0.777620 0.217650 0.225280
v 0.583909 0.217650 0.560798
v 0.453075 0.395487 0.132191
v 0.341020 0.395487 0.326276
v 0.314985 0.282616 0.068072
v 0.216446 0.282616 0.238746
v 0.814220 -0.003507 -0.251309
v 0.624750 -0.003507 -0.579481
v 0.583910 0.217650 -0.560798
v 0.777620 0.217650 -0.225283
v 0.341020 0.395487 -0.326279
v 0.453075 0.395487 -0.132194
v 0.216446 0.282616 -0.238749
v 0.314985 0.282616 -0.068075
v 0.349028 -0.153363 -0.604532
v -0.349027 -0.153363 -0.604532
v -0.698055 -0.153363 -0.000000
v -0.349028 -0.153363 0.604534
v 0.349027 -0.153363 0.604534
v 0.698055 -0.153363 -0.000000
v 0.320718 -0.395488 -0.555498
v -0.320718 -0.395488 -0.555498
v 0.000000 -0.395488 -0.000000
v -0.641435 -0.395488 -0.000000
v -0.320718 -0.395488 0.555500
v 0.320718 -0.395488 0.555500
v 0.641435 -0.395488 -0.000000
vn -0.0000 0.1982 -0.9802
vn -0.8489 0.1982 -0.4901
vn -0.8489 0.1982 0.4901
vn -0.0000 0.1982 0.9802
vn 0.8489 0.1982 0.4901
vn 0.8489 0.1982 -0.4901
vn -0.0000 -1.0000 -0.0000
vn -0.0000 1.0000 -0.0000
vn -0.0000 0.8789 -0.4771
vn -0.4132 0.8789 -0.2385
vn -0.4132 0.8789 0.2385
vn -0.0000 0.8789 0.4771
vn 0.4132 0.8789 0.2385
vn 0.4132 0.8789 -0.2385
vn -0.0000 0.8022 0.5971
vn 0.5171 0.8022 0.2985
vn 0.5171 0.8022 -0.2985
vn -0.0000 0.8022 -0.5971
vn -0.5171 0.8022 -0.2985
vn -0.5171 0.8022 0.2985
vn -0.0000 -0.2329 -0.9725
vn -0.0970 0.0920 -0.9910
vn 0.1345 0.0609 -0.9890
vn -0.0677 0.8645 -0.4981
vn 0.1662 0.8533 -0.4943
vn 0.2693 0.5344 0.8012
vn -0.0000 0.6913 0.7225
vn -0.2621 0.5291 0.8071
vn -0.8422 -0.2329 0.4862
vn -0.8098 0.0920 0.5795
vn -0.9238 0.0609 0.3781
vn -0.3975 0.8645 0.3077
vn -0.5112 0.8533 0.1033
vn 0.5592 0.5344 -0.6338
vn 0.6257 0.6913 -0.3613
vn 0.8300 0.5291 -0.1766
vn 0.8422 -0.2329 0.4863
vn 0.9067 0.0920 0.4115
vn 0.7893 0.0609 0.6110
vn 0.4653 0.8645 0.1904
vn 0.3450 0.8533 0.3911
vn -0.8285 0.5344 -0.1674
vn -0.6257 0.6913 -0.3613
vn -0.5679 0.5291 -0.6305
vn -0.8422 -0.2329 -0.4863
vn -0.9067 0.0920 -0.4115
vn -0.7893 0.0609 -0.6110
vn -0.4653 0.8645 -0.1904
vn -0.3450 0.8533 -0.3911
vn 0.8285 0.5344 0.1674
vn 0.6257 0.6913 0.3613
vn 0.5679 0.5291 0.6305
vn -0.0000 -0.2329 0.9725
vn 0.0970 0.0920 0.9910
vn -0.1345 0.0609 0.9890
vn 0.0677 0.8645 0.4981
vn -0.1662 0.8533 0.4943
vn -0.2693 0.5344 -0.8012
vn -0.0000 0.6913 -0.7225
vn 0.2621 0.5291 -0.8071
vn 0.8422 -0.2329 -0.4863
vn 0.8098 0.0920 -0.5795
vn 0.9238 0.0609 -0.3781
vn 0.3975 0.8645 -0.3077
vn 0.5112 0.8533 -0.1033
vn -0.5592 0.5344 0.6338
vn -0.6257 0.6913 0.3613
vn -0.8300 0.5291 0.1766
vn -0.0000 -0.8746 -0.4848
vn -0.9172 0.0024 -0.3985
vn 0.8738 0.0802 -0.4797
vn -0.8530 0.5219 -0.0022
vn 0.9546 0.2862 0.0826
vn -0.9231 0.2645 0.2791
vn -0.0000 -0.6368 0.7711
vn 0.9681 0.0246 0.2492
vn -0.4198 -0.8746 -0.2424
vn -0.8037 0.0024 0.5951
vn 0.0214 0.0802 -0.9965
vn -0.4284 0.5219 0.7377
vn 0.5488 0.2862 -0.7854
vn -0.2198 0.2645 0.9390
vn 0.6678 -0.6368 0.3855
vn 0.6999 0.0246 -0.7139
vn -0.4198 -0.8746 0.2424
vn 0.1135 0.0024 0.9935
vn -0.8523 0.0802 -0.5168
vn 0.4246 0.5219 0.7398
vn -0.4058 0.2862 -0.8680
vn 0.7033 0.2645 0.6599
vn 0.6678 -0.6368 -0.3855
vn -0.2683 0.0246 -0.9630
vn -0.0000 -0.8746 0.4848
vn 0.9172 0.0024 0.3985
vn -0.8738 0.0802 0.4797
vn 0.8530 0.5219 0.0022
vn -0.9546 0.2862 -0.0826
vn 0.9231 0.2645 -0.2791
vn -0.0000 -0.6368 -0.7711
vn -0.9681 0.0246 -0.2492
vn 0.4198 -0.8746 0.2424
vn 0.8037 0.0024 -0.5951
vn -0.0214 0.0802 0.9965
vn 0.4284 0.5219 -0.7377
vn -0.5488 0.2862 0.7854
vn 0.2198 0.2645 -0.9390
vn -0.6678 -0.6368 -0.3855
vn -0.6999 0.0246 0.7138
vn 0.4198 -0.8746 -0.2424
vn -0.1135 0.0024 -0.9935
vn 0.8523 0.0802 0.5168
vn -0.4246 0.5219 -0.7398
vn 0.4058 0.2862 0.8680
vn -0.7033 0.2645 -0.6599
vn -0.6678 -0.6368 0.3855
vn 0.2683 0.0246 0.9630
vn -0.0000 -0.9402 -0.3407
vn -0.2951 -0.9402 -0.1704
vn -0.2951 -0.9402 0.1704
vn -0.0000 -0.9402 0.3407
vn 0.2951 -0.9402 0.1704
vn 0.2951 -0.9402 -0.1704
vn -0.0000 -0.1985 -0.9801
vn -0.8488 -0.1985 -0.4901
vn -0.8488 -0.1985 0.4901
vn -0.0000 -0.1985 0.9801
vn 0.8488 -0.1985 0.4901
vn 0.8488 -0.1985 -0.4901
vn -0.1345 0.0609 -0.9890
vn 0.0970 0.0920 -0.9910
vn -0.1662 0.8533 -0.4943
vn 0.0677 0.8645 -0.4981
vn 0.2621 0.5291 0.8071
vn -0.2693 0.5344 0.8012
vn -0.8422 -0.2329 0.4863
vn -0.7893 0.0609 0.6110
vn -0.9067 0.0920 0.4115
vn -0.3450 0.8533 0.3911
vn -0.4653 0.8645 0.1904
vn 0.5679 0.5291 -0.6305
vn 0.8285 0.5344 -0.1674
vn 0.9238 0.0609 0.3781
vn 0.8098 0.0920 0.5795
vn 0.5112 0.8533 0.1033
vn 0.3975 0.8645 0.3077
vn -0.8300 0.5291 -0.1766
vn -0.5592 0.5344 -0.6338
vn -0.9238 0.0609 -0.3781
vn -0.8098 0.0920 -0.5795
vn -0.5112 0.8533 -0.1033
vn -0.3975 0.8645 -0.3077
vn 0.8300 0.5291 0.1766
vn 0.5592 0.5344 0.6338
vn 0.1345 0.0609 0.9890
vn -0.0970 0.0920 0.9910
vn 0.1662 0.8533 0.4943
vn -0.0677 0.8645 0.4981
vn -0.2621 0.5291 -0.8071
vn 0.2693 0.5344 -0.8012
vn 0.7893 0.0609 -0.6110
vn 0.9067 0.0920 -0.4115
vn 0.3450 0.8533 -0.3911
vn 0.4653 0.8645 -0.1904
vn -0.5679 0.5291 0.6305
vn -0.8285 0.5344 0.1674
vn -0.8738 0.0802 -0.4797
vn 0.9172 0.0024 -0.3985
vn -0.9546 0.2862 0.0826
vn 0.8530 0.5219 -0.0022
vn -0.9681 0.0246 0.2492
vn 0.9231 0.2645 0.2791
vn -0.8523 0.0802 0.5168
vn 0.1135 0.0024 -0.9935
vn -0.4058 0.2862 0.8680
vn 0.4246 0.5219 -0.7398
vn -0.2683 0.0246 0.9630
vn 0.7033 0.2645 -0.6599
vn 0.0214 0.0802 0.9965
vn -0.8037 0.0024 -0.5951
vn 0.5488 0.2862 0.7854
vn -0.4284 0.5219 -0.7377
vn 0.6999 0.0246 0.7138
vn -0.2198 0.2645 -0.9390
vn 0.8738 0.0802 0.4797
vn -0.9172 0.0024 0.3985
vn 0.9546 0.2862 -0.0826
vn -0.8530 0.5219 0.0022
vn 0.9681 0.0246 -0.2492
vn -0.9231 0.2645 -0.2791
vn 0.8523 0.0802 -0.5168
vn -0.1135 0.0024 0.9935
vn 0.4058 0.2862 -0.8680
vn -0.4246 0.5219 0.7398
vn 0.2683 0.0246 -0.9630
vn -0.7033 0.2645 0.6599
vn -0.0214 0.0802 -0.9965
vn 0.8037 0.0024 0.5951
vn -0.5488 0.2862 -0.7854
vn 0.4284 0.5219 0.7377
vn -0.6999 0.0246 -0.7139
vn 0.2198 0.2645 0.9390
vt 0.875000 0.625000
vt 0.875000 0.875000
vt 0.125000 0.125000
s 0
usemtl ruins_find_kralien_optics
f 75/1/1 77/1/1 74/1/1
f 82/1/2 84/1/2 85/1/2
f 91/1/3 93/1/3 90/1/3
f 99/1/4 101/1/4 98/1/4
f 106/1/5 108/1/5 109/1/5
f 115/1/6 117/1/6 114/1/6
f 129/2/7 128/2/7 130/2/7
f 131/2/7 129/2/7 130/2/7
f 132/2/7 131/2/7 130/2/7
f 133/2/7 132/2/7 130/2/7
f 134/2/7 133/2/7 130/2/7
f 128/2/7 134/2/7 130/2/7
f 19/3/8 20/3/8 21/3/8
f 20/3/8 22/3/8 21/3/8
f 22/3/8 23/3/8 21/3/8
f 23/3/8 24/3/8 21/3/8
f 24/3/8 25/3/8 21/3/8
f 25/3/8 19/3/8 21/3/8
f 76/1/9 79/1/9 77/1/9
f 85/1/10 86/1/10 87/1/10
f 92/1/11 95/1/11 93/1/11
f 100/1/12 103/1/12 101/1/12
f 108/1/13 111/1/13 109/1/13
f 116/1/14 119/1/14 117/1/14
f 78/1/15 81/1/15 79/1/15
f 87/1/16 88/1/16 89/1/16
f 95/1/17 96/1/17 97/1/17
f 102/1/18 105/1/18 103/1/18
f 111/1/19 112/1/19 113/1/19
f 119/1/20 120/1/20 121/1/20
f 2/2/21 26/2/21 1/2/21
f 8/2/22 27/2/22 2/2/22
f 7/2/23 26/2/23 29/2/23
f 14/2/24 28/2/24 8/2/24
f 13/2/25 29/2/25 31/2/25
f 14/2/26 32/2/26 30/2/26
f 19/2/27 32/2/27 20/2/27
f 13/2/28 33/2/28 19/2/28
f 3/2/29 35/2/29 34/2/29
f 10/2/30 35/2/30 4/2/30
f 9/2/31 34/2/31 37/2/31
f 16/2/32 36/2/32 10/2/32
f 15/2/33 37/2/33 39/2/33
f 16/2/34 40/2/34 38/2/34
f 22/2/35 40/2/35 23/2/35
f 15/2/36 41/2/36 22/2/36
f 6/2/37 42/2/37 5/2/37
f 12/2/38 43/2/38 6/2/38
f 11/2/39 42/2/39 45/2/39
f 18/2/40 44/2/40 12/2/40
f 17/2/41 45/2/41 47/2/41
f 18/2/42 48/2/42 46/2/42
f 25/2/43 49/2/43 48/2/43
f 17/2/44 49/2/44 24/2/44
f 2/2/45 51/2/45 50/2/45
f 9/2/46 51/2/46 3/2/46
f 8/2/47 50/2/47 53/2/47
f 15/2/48 52/2/48 9/2/48
f 14/2/49 53/2/49 55/2/49
f 15/2/50 56/2/50 54/2/50
f 20/2/51 56/2/51 22/2/51
f 14/2/52 57/2/52 20/2/52
f 4/2/53 59/2/53 58/2/53
f 11/2/54 59/2/54 5/2/54
f 10/2/55 58/2/55 61/2/55
f 17/2/56 60/2/56 11/2/56
f 16/2/57 61/2/57 63/2/57
f 17/2/58 64/2/58 62/2/58
f 23/2/59 64/2/59 24/2/59
f 16/2/60 65/2/60 23/2/60
f 1/2/61 66/2/61 6/2/61
f 7/2/62 67/2/62 1/2/62
f 12/2/63 66/2/63 69/2/63
f 13/2/64 68/2/64 7/2/64
f 18/2/65 69/2/65 71/2/65
f 13/2/66 72/2/66 70/2/66
f 19/2/67 73/2/67 72/2/67
f 18/2/68 73/2/68 25/2/68
f 27/1/69 74/1/69 26/1/69
f 28/1/70 75/1/70 27/1/70
f 29/1/71 74/1/71 77/1/71
f 30/1/72 76/1/72 28/1/72
f 31/1/73 77/1/73 79/1/73
f 30/1/74 80/1/74 78/1/74
f 33/1/75 80/1/75 32/1/75
f 31/1/76 81/1/76 33/1/76
f 51/1/77 82/1/77 50/1/77
f 52/1/78 83/1/78 51/1/78
f 53/1/79 82/1/79 85/1/79
f 54/1/80 84/1/80 52/1/80
f 55/1/81 85/1/81 87/1/81
f 54/1/82 88/1/82 86/1/82
f 57/1/83 88/1/83 56/1/83
f 55/1/84 89/1/84 57/1/84
f 34/1/85 91/1/85 90/1/85
f 36/1/86 91/1/86 35/1/86
f 37/1/87 90/1/87 93/1/87
f 38/1/88 92/1/88 36/1/88
f 39/1/89 93/1/89 95/1/89
f 38/1/90 96/1/90 94/1/90
f 40/1/91 97/1/91 96/1/91
f 39/1/92 97/1/92 41/1/92
f 58/1/93 99/1/93 98/1/93
f 60/1/94 99/1/94 59/1/94
f 61/1/95 98/1/95 101/1/95
f 62/1/96 100/1/96 60/1/96
f 63/1/97 101/1/97 103/1/97
f 62/1/98 104/1/98 102/1/98
f 65/1/99 104/1/99 64/1/99
f 63/1/100 105/1/100 65/1/100
f 43/1/101 106/1/101 42/1/101
f 44/1/102 107/1/102 43/1/102
f 45/1/103 106/1/103 109/1/103
f 46/1/104 108/1/104 44/1/104
f 47/1/105 109/1/105 111/1/105
f 46/1/106 112/1/106 110/1/106
f 49/1/107 112/1/107 48/1/107
f 47/1/108 113/1/108 49/1/108
f 66/1/109 115/1/109 114/1/109
f 68/1/110 115/1/110 67/1/110
f 69/1/111 114/1/111 117/1/111
f 70/1/112 116/1/112 68/1/112
f 71/1/113 117/1/113 119/1/113
f 70/1/114 120/1/114 118/1/114
f 72/1/115 121/1/115 120/1/115
f 71/1/116 121/1/116 73/1/116
f 2/2/117 122/2/117 123/2/117
f 2/2/118 124/2/118 3/2/118
f 3/2/119 125/2/119 4/2/119
f 4/2/120 126/2/120 5/2/120
f 5/2/121 127/2/121 6/2/121
f 6/2/122 122/2/122 1/2/122
f 123/2/123 128/2/123 129/2/123
f 123/2/124 131/2/124 124/2/124
f 125/2/125 131/2/125 132/2/125
f 126/2/126 132/2/126 133/2/126
f 126/2/127 134/2/127 127/2/127
f 127/2/128 128/2/128 122/2/128
f 75/1/1 76/1/1 77/1/1
f 82/1/2 83/1/2 84/1/2
f 91/1/3 92/1/3 93/1/3
f 99/1/4 100/1/4 101/1/4
f 106/1/5 107/1/5 108/1/5
f 115/1/6 116/1/6 117/1/6
f 76/1/9 78/1/9 79/1/9
f 85/1/10 84/1/10 86/1/10
f 92/1/11 94/1/11 95/1/11
f 100/1/12 102/1/12 103/1/12
f 108/1/13 110/1/13 111/1/13
f 116/1/14 118/1/14 119/1/14
f 78/1/15 80/1/15 81/1/15
f 87/1/16 86/1/16 88/1/16
f 95/1/17 94/1/17 96/1/17
f 102/1/18 104/1/18 105/1/18
f 111/1/19 110/1/19 112/1/19
f 119/1/20 118/1/20 120/1/20
f 2/2/21 27/2/21 26/2/21
f 8/2/129 28/2/129 27/2/129
f 7/2/130 1/2/130 26/2/130
f 14/2/131 30/2/131 28/2/131
f 13/2/132 7/2/132 29/2/132
f 14/2/133 20/2/133 32/2/133
f 19/2/27 33/2/27 32/2/27
f 13/2/134 31/2/134 33/2/134
f 3/2/135 4/2/135 35/2/135
f 10/2/136 36/2/136 35/2/136
f 9/2/137 3/2/137 34/2/137
f 16/2/138 38/2/138 36/2/138
f 15/2/139 9/2/139 37/2/139
f 16/2/140 23/2/140 40/2/140
f 22/2/35 41/2/35 40/2/35
f 15/2/141 39/2/141 41/2/141
f 6/2/37 43/2/37 42/2/37
f 12/2/142 44/2/142 43/2/142
f 11/2/143 5/2/143 42/2/143
f 18/2/144 46/2/144 44/2/144
f 17/2/145 11/2/145 45/2/145
f 18/2/146 25/2/146 48/2/146
f 25/2/43 24/2/43 49/2/43
f 17/2/147 47/2/147 49/2/147
f 2/2/45 3/2/45 51/2/45
f 9/2/148 52/2/148 51/2/148
f 8/2/149 2/2/149 50/2/149
f 15/2/150 54/2/150 52/2/150
f 14/2/151 8/2/151 53/2/151
f 15/2/152 22/2/152 56/2/152
f 20/2/51 57/2/51 56/2/51
f 14/2/153 55/2/153 57/2/153
f 4/2/53 5/2/53 59/2/53
f 11/2/154 60/2/154 59/2/154
f 10/2/155 4/2/155 58/2/155
f 17/2/156 62/2/156 60/2/156
f 16/2/157 10/2/157 61/2/157
f 17/2/158 24/2/158 64/2/158
f 23/2/59 65/2/59 64/2/59
f 16/2/159 63/2/159 65/2/159
f 1/2/61 67/2/61 66/2/61
f 7/2/160 68/2/160 67/2/160
f 12/2/161 6/2/161 66/2/161
f 13/2/162 70/2/162 68/2/162
f 18/2/163 12/2/163 69/2/163
f 13/2/164 19/2/164 72/2/164
f 19/2/67 25/2/67 73/2/67
f 18/2/165 71/2/165 73/2/165
f 27/1/69 75/1/69 74/1/69
f 28/1/166 76/1/166 75/1/166
f 29/1/167 26/1/167 74/1/167
f 30/1/168 78/1/168 76/1/168
f 31/1/169 29/1/169 77/1/169
f 30/1/170 32/1/170 80/1/170
f 33/1/75 81/1/75 80/1/75
f 31/1/171 79/1/171 81/1/171
f 51/1/77 83/1/77 82/1/77
f 52/1/172 84/1/172 83/1/172
f 53/1/173 50/1/173 82/1/173
f 54/1/174 86/1/174 84/1/174
f 55/1/175 53/1/175 85/1/175
f 54/1/176 56/1/176 88/1/176
f 57/1/83 89/1/83 88/1/83
f 55/1/177 87/1/177 89/1/177
f 34/1/85 35/1/85 91/1/85
f 36/1/178 92/1/178 91/1/178
f 37/1/179 34/1/179 90/1/179
f 38/1/180 94/1/180 92/1/180
f 39/1/181 37/1/181 93/1/181
f 38/1/182 40/1/182 96/1/182
f 40/1/91 41/1/91 97/1/91
f 39/1/183 95/1/183 97/1/183
f 58/1/93 59/1/93 99/1/93
f 60/1/184 100/1/184 99/1/184
f 61/1/185 58/1/185 98/1/185
f 62/1/186 102/1/186 100/1/186
f 63/1/187 61/1/187 101/1/187
f 62/1/188 64/1/188 104/1/188
f 65/1/99 105/1/99 104/1/99
f 63/1/189 103/1/189 105/1/189
f 43/1/101 107/1/101 106/1/101
f 44/1/190 108/1/190 107/1/190
f 45/1/191 42/1/191 106/1/191
f 46/1/192 110/1/192 108/1/192
f 47/1/193 45/1/193 109/1/193
f 46/1/194 48/1/194 112/1/194
f 49/1/107 113/1/107 112/1/107
f 47/1/195 111/1/195 113/1/195
f 66/1/109 67/1/109 115/1/109
f 68/1/196 116/1/196 115/1/196
f 69/1/197 66/1/197 114/1/197
f 70/1/198 118/1/198 116/1/198
f 71/1/199 69/1/199 117/1/199
f 70/1/200 72/1/200 120/1/200
f 72/1/115 73/1/115 121/1/115
f 71/1/201 119/1/201 121/1/201
f 2/2/117 1/2/117 122/2/117
f 2/2/118 123/2/118 124/2/118
f 3/2/119 124/2/119 125/2/119
f 4/2/120 125/2/120 126/2/120
f 5/2/121 126/2/121 127/2/121
f 6/2/122 127/2/122 122/2/122
f 123/2/123 122/2/123 128/2/123
f 123/2/124 129/2/124 131/2/124
f 125/2/125 124/2/125 131/2/125
f 126/2/126 125/2/126 132/2/126
f 126/2/127 133/2/127 134/2/127
f 127/2/128 134/2/128 128/2/128
