# Blender 5.2.2 LTS
# www.blender.org
mtllib ruins_tg_ceiling_a.mtl
o piece
v -0.613068 -2.500168 -0.224409
v 0.184422 -0.709594 -0.222673
v 0.051042 -1.677772 -0.211945
v -0.429166 -1.677772 -0.191998
v 0.050027 -0.804843 -0.211675
v -0.428131 -0.804882 -0.191659
v 0.010770 -1.722706 -0.192134
v -0.388895 -1.722706 -0.192134
v 0.020964 -0.731046 -0.238260
v -0.399088 -0.731046 -0.238260
v 0.065439 -1.703941 -0.238688
v 0.064363 -0.778673 -0.238402
v -0.443562 -1.703941 -0.238688
v -0.442487 -0.778673 -0.238402
v 0.022751 -1.751569 -0.238832
v -0.400876 -1.751569 -0.238832
v -0.112209 -0.958475 -0.191668
v -0.387210 -0.759903 -0.191606
v 0.009090 -0.759907 -0.191602
v -0.111041 -1.524120 -0.192042
v -0.059020 -1.492843 -0.211945
v -0.059857 -0.989772 -0.211677
v -0.492144 -0.734466 -0.222217
v 0.187762 -2.500135 -0.225987
v 2.462570 2.462400 -0.027617
v 2.500000 2.499832 -0.027617
v 2.462570 -2.462735 -0.027617
v 2.500000 -2.500168 -0.027617
v -2.462567 -2.462735 -0.027616
v -2.500000 -2.500168 -0.027617
v -2.462567 2.462400 -0.027617
v -2.500000 2.499832 -0.027617
v -1.231284 2.499832 -0.297676
v -1.231284 -2.500168 -0.297675
v 1.231285 2.499832 -0.297676
v 1.231285 -2.500168 -0.297675
v -1.877690 2.500169 -0.303873
v -1.846126 2.468143 -0.294936
v -1.846996 -2.500067 -0.303114
v 1.875000 2.499832 -0.297676
v 1.846927 2.459449 -0.294936
v 1.846927 -2.475037 -0.297675
v 1.875000 -2.500168 -0.297675
v -1.846925 2.499832 -0.491373
v -1.846925 -2.500168 -0.491373
v -1.231243 -2.500168 -0.491031
v -1.210686 2.499831 -0.488633
v 1.231285 2.499832 -0.491373
v 1.231285 -2.500168 -0.491373
v 1.846926 -2.500169 -0.491372
v 1.846513 2.499831 -0.488633
v -0.624062 -2.500168 -0.297675
v -0.624062 2.499831 -0.294936
v 0.615643 -2.500168 -0.297675
v 0.615643 2.499832 -0.297676
v 0.615643 -2.500168 -0.225094
v 0.615643 2.499832 -0.225094
v -0.613068 2.499832 -0.224409
v 1.220987 -0.019880 -0.296305
v -1.220984 -0.019880 -0.296305
v 0.187164 2.499832 -0.224409
v 0.558204 2.499832 -0.225094
v 0.558204 -2.500168 -0.225094
v 0.542386 2.499832 -0.264504
v 0.203836 2.499832 -0.264504
v 0.542386 -2.500168 -0.264503
v 0.203836 -2.500168 -0.264503
v -1.269441 -2.500168 -0.482104
v -1.369441 -2.500168 -0.482104
v -1.419441 -2.500168 -0.395501
v -1.369441 -2.500168 -0.308898
v -1.269441 -2.500168 -0.308898
v -1.219441 -2.500168 -0.395501
v -1.269441 2.499831 -0.482105
v -1.369441 2.499831 -0.482105
v -1.419441 2.499831 -0.395502
v -1.369441 2.499831 -0.308899
v -1.269441 2.499831 -0.308899
v -1.219441 2.499831 -0.395502
v -1.370776 -1.390288 -0.484415
v -1.371648 1.347589 -0.485927
v -1.267234 1.347589 -0.485927
v -1.215028 1.347589 -0.395502
v -1.267234 1.347589 -0.305077
v -1.423855 1.347589 -0.395502
v -1.370668 -1.093002 -0.485039
v -1.267331 -1.092328 -0.483967
v -1.216773 -1.092327 -0.394605
v -1.268883 -1.092327 -0.306140
v -1.421689 -1.091745 -0.395974
v -1.372909 1.055507 -0.485199
v -1.369441 0.615328 -0.482104
v -1.269441 0.615328 -0.482104
v -1.219441 0.615328 -0.395501
v -1.269441 0.615328 -0.308898
v -1.369441 0.615328 -0.308898
v -1.419441 0.615328 -0.395501
v -1.369441 0.715997 -0.482105
v -1.269441 0.715997 -0.482105
v -1.219441 0.715997 -0.395502
v -1.269441 0.715997 -0.308899
v -1.369441 0.715997 -0.308899
v -1.419441 0.715997 -0.395502
v -1.370388 1.055507 -0.304349
v -1.423855 1.055507 -0.394046
v -1.268495 1.055507 -0.486655
v -1.215028 1.055507 -0.396957
v -1.265974 1.055507 -0.305804
v -1.371648 1.347589 -0.305077
v -1.375128 0.709125 -0.299050
v -1.430814 0.709125 -0.395502
v -1.375128 0.709125 -0.491954
v -1.263754 0.709125 -0.491954
v -1.208069 0.709125 -0.395502
v -1.263754 0.709125 -0.299050
v -1.375128 0.622201 -0.299050
v -1.430814 0.622201 -0.395501
v -1.375128 0.622201 -0.491953
v -1.263754 0.622201 -0.491953
v -1.208069 0.622201 -0.395501
v -1.263754 0.622201 -0.299050
v -1.371552 -1.092328 -0.307036
v -1.370776 -1.390288 -0.306588
v -1.422109 -1.390288 -0.395501
v -1.268107 -1.390288 -0.484415
v -1.216773 -1.390288 -0.395501
v -1.268107 -1.390288 -0.306588
v 1.306549 2.499832 -0.482105
v 1.406549 2.499832 -0.482105
v 1.456549 2.499832 -0.395503
v 1.406549 2.499832 -0.308900
v 1.306549 2.499832 -0.308900
v 1.256549 2.499832 -0.395503
v 1.306549 -2.500168 -0.482104
v 1.406549 -2.500168 -0.482104
v 1.456549 -2.500168 -0.395501
v 1.406549 -2.500168 -0.308898
v 1.306549 -2.500168 -0.308898
v 1.256549 -2.500168 -0.395501
v 1.407883 1.350529 -0.484416
v 1.408756 -1.387349 -0.485927
v 1.303370 -1.386135 -0.486297
v 1.252136 -1.387349 -0.394047
v 1.305355 -1.388392 -0.305294
v 1.460962 -1.387349 -0.395502
v 1.407775 1.053243 -0.485040
v 1.305108 1.051893 -0.483791
v 1.253881 1.052568 -0.395502
v 1.305415 1.053151 -0.305988
v 1.458796 1.051986 -0.395975
v 1.410016 -1.095266 -0.485199
v 1.406549 -0.655087 -0.482105
v 1.306549 -0.655087 -0.482105
v 1.256549 -0.655087 -0.395502
v 1.306549 -0.655087 -0.308900
v 1.406549 -0.655087 -0.308900
v 1.406549 -0.755757 -0.482104
v 1.306549 -0.755757 -0.482104
v 1.256549 -0.755757 -0.395501
v 1.306549 -0.755757 -0.308898
v 1.456549 -0.755757 -0.395501
v 1.407495 -1.095267 -0.304350
v 1.460962 -1.095267 -0.394047
v 1.304508 -1.096480 -0.486954
v 1.252136 -1.095267 -0.395502
v 1.304024 -1.094223 -0.306063
v 1.408755 -1.387349 -0.305077
v 1.409899 -0.752927 -0.305425
v 1.467920 -0.748884 -0.395501
v 1.412234 -0.748884 -0.491953
v 1.300864 -0.748884 -0.491953
v 1.245177 -0.748884 -0.395501
v 1.300864 -0.748884 -0.299050
v 1.412234 -0.661960 -0.299051
v 1.463237 -0.659130 -0.396667
v 1.412234 -0.661960 -0.491953
v 1.300864 -0.661960 -0.491953
v 1.245177 -0.661960 -0.395502
v 1.300864 -0.661960 -0.299051
v 1.408658 1.052568 -0.307036
v 1.407883 1.350528 -0.306589
v 1.459216 1.350529 -0.395502
v 1.304596 1.349946 -0.484543
v 1.253881 1.350528 -0.394607
v 1.305810 1.351203 -0.306808
v 0.051042 0.765084 -0.211946
v -0.429166 0.765084 -0.191998
v 0.050027 1.638012 -0.211676
v -0.428131 1.637973 -0.191660
v 0.010770 0.720150 -0.192134
v -0.388895 0.720150 -0.192134
v -0.387210 1.682953 -0.191606
v 0.020964 1.711810 -0.238261
v -0.399088 1.711810 -0.238261
v 0.065439 0.738915 -0.238689
v 0.064363 1.664182 -0.238403
v -0.443562 0.738915 -0.238689
v -0.442487 1.664182 -0.238403
v 0.022751 0.691287 -0.238832
v -0.400876 0.691287 -0.238832
v -0.112209 1.484381 -0.191668
v 0.009090 1.682949 -0.191602
v -0.111041 0.918736 -0.192043
v -0.059020 0.950012 -0.211946
v -0.059857 1.453084 -0.211678
v 1.131165 -2.299689 -0.297675
v 0.714102 -2.299689 -0.297675
v 1.124187 -1.571571 -0.296305
v 0.710614 -1.571571 -0.296305
v 1.162936 0.121661 -0.296305
v 0.926694 0.121661 -0.296305
v 1.158951 1.119667 -0.294936
v 0.924701 1.119667 -0.294936
v 1.131165 -2.299689 -0.339535
v 0.714102 -2.299689 -0.339535
v 1.124187 -1.571571 -0.338165
v 0.710614 -1.571571 -0.338165
v 1.162936 0.121661 -0.338165
v 0.926694 0.121661 -0.338165
v 1.158951 1.119667 -0.336796
v 0.924701 1.119667 -0.336796
v -0.494701 1.238543 -0.223062
v 0.143608 1.293780 -0.222664
v 2.500000 2.499832 -0.516854
v 2.500000 -2.500168 -0.516854
v -2.500000 -2.500168 -0.516854
v -2.500000 2.499832 -0.516854
v -1.877022 2.499832 -0.516854
v 1.877409 2.499832 -0.516854
v 1.875000 -2.500168 -0.516854
v 1.861933 -2.500168 -0.516854
v -0.805780 -1.632137 0.144912
v -0.747260 -1.632137 0.120673
v -0.688742 -1.632137 0.144912
v -0.664502 -1.632137 0.203431
v -0.688742 -1.632137 0.261949
v -0.747260 -1.632137 0.286188
v -0.805780 -1.632137 0.261949
v -0.830017 -1.632137 0.203431
v -0.805780 -1.666970 0.144912
v -0.747260 -1.666970 0.120673
v -0.688742 -1.666970 0.144912
v -0.664502 -1.666970 0.203431
v -0.688742 -1.666970 0.261949
v -0.747260 -1.666970 0.286188
v -0.805780 -1.666970 0.261949
v -0.830017 -1.666970 0.203431
v -0.887051 1.667657 0.197330
v -0.828531 1.667657 0.173091
v -0.770013 1.667657 0.197330
v -0.745773 1.667657 0.255849
v -0.770013 1.667657 0.314368
v -0.828531 1.667657 0.338606
v -0.887051 1.667657 0.314368
v -0.911288 1.667657 0.255849
v -0.887051 1.632824 0.197330
v -0.828531 1.632824 0.173091
v -0.770013 1.632824 0.197330
v -0.745773 1.632824 0.255849
v -0.770013 1.632824 0.314368
v -0.828531 1.632824 0.338606
v -0.887051 1.632824 0.314368
v -0.911288 1.632824 0.255849
v -1.375104 -2.410946 0.089721
v -1.218460 -2.410946 0.024836
v -1.061816 -2.410946 0.089721
v -0.996933 -2.410946 0.246365
v -1.061816 -2.410946 0.403009
v -1.218460 -2.410946 0.467892
v -1.375104 -2.410946 0.403009
v -1.439987 -2.410946 0.246365
v -1.375104 -2.500168 0.089721
v -1.218460 -2.500168 0.024836
v -1.061816 -2.500168 0.089721
v -0.996933 -2.500168 0.246365
v -1.061816 -2.500168 0.403009
v -1.218460 -2.500168 0.467892
v -1.375104 -2.500168 0.403009
v -1.439987 -2.500168 0.246365
v -0.509973 -2.410946 0.001540
v -0.417536 -2.410946 -0.036749
v -0.325098 -2.410946 0.001540
v -0.286810 -2.410946 0.093977
v -0.325098 -2.410946 0.186414
v -0.417536 -2.410946 0.224703
v -0.509973 -2.410946 0.186414
v -0.548261 -2.410946 0.093977
v -0.509973 -2.500168 0.001540
v -0.417536 -2.500168 -0.036749
v -0.325098 -2.500168 0.001540
v -0.286810 -2.500168 0.093977
v -0.325098 -2.500168 0.186414
v -0.417536 -2.500168 0.224703
v -0.509973 -2.500168 0.186414
v -0.548261 -2.500168 0.093977
v -0.316242 -2.410946 0.153927
v -0.223804 -2.410946 0.115639
v -0.131366 -2.410946 0.153927
v -0.093079 -2.410946 0.246365
v -0.131366 -2.410946 0.338802
v -0.223804 -2.410946 0.377090
v -0.316242 -2.410946 0.338802
v -0.354529 -2.410946 0.246365
v -0.316242 -2.500168 0.153927
v -0.223804 -2.500168 0.115639
v -0.131366 -2.500168 0.153927
v -0.093079 -2.500168 0.246365
v -0.131366 -2.500168 0.338802
v -0.223804 -2.500168 0.377090
v -0.316242 -2.500168 0.338802
v -0.354529 -2.500168 0.246365
v 0.174162 -2.410946 0.016797
v 0.266600 -2.410946 -0.021492
v 0.359038 -2.410946 0.016797
v 0.397325 -2.410946 0.109234
v 0.359038 -2.410946 0.201670
v 0.266600 -2.410946 0.239959
v 0.174162 -2.410946 0.201670
v 0.135875 -2.410946 0.109234
v 0.174162 -2.500168 0.016797
v 0.266600 -2.500168 -0.021492
v 0.359038 -2.500168 0.016797
v 0.397325 -2.500168 0.109234
v 0.359038 -2.500168 0.201670
v 0.266600 -2.500168 0.239959
v 0.174162 -2.500168 0.201670
v 0.135875 -2.500168 0.109234
v 0.685306 -2.410946 0.053493
v 0.877235 -2.410946 -0.026006
v 1.069165 -2.410946 0.053493
v 1.148666 -2.410946 0.245424
v 1.069165 -2.410946 0.437354
v 0.877235 -2.410946 0.516854
v 0.685306 -2.410946 0.437354
v 0.605804 -2.410946 0.245424
v 0.685306 -2.500168 0.053493
v 0.877235 -2.500168 -0.026006
v 1.069165 -2.500168 0.053493
v 1.148666 -2.500168 0.245424
v 1.069165 -2.500168 0.437354
v 0.877235 -2.500168 0.516854
v 0.685306 -2.500168 0.437354
v 0.605804 -2.500168 0.245424
v 1.232215 -2.410946 0.278370
v 1.318279 -2.410946 0.242722
v 1.404341 -2.410946 0.278370
v 1.439989 -2.410946 0.364433
v 1.404341 -2.410946 0.450495
v 1.318279 -2.410946 0.486143
v 1.232215 -2.410946 0.450495
v 1.196568 -2.410946 0.364433
v 1.232215 -2.500168 0.278370
v 1.318279 -2.500168 0.242722
v 1.404341 -2.500168 0.278370
v 1.439989 -2.500168 0.364433
v 1.404341 -2.500168 0.450495
v 1.318279 -2.500168 0.486143
v 1.232215 -2.500168 0.450495
v 1.196568 -2.500168 0.364433
v 1.232215 -0.035941 0.278370
v 1.318279 -0.035941 0.242721
v 1.404341 -0.035941 0.278370
v 1.439989 -0.035941 0.364432
v 1.404341 -0.035941 0.450495
v 1.318279 -0.035941 0.486143
v 1.232215 -0.035941 0.450495
v 1.196568 -0.035941 0.364432
v 1.232215 -0.125164 0.278370
v 1.318279 -0.125164 0.242721
v 1.404341 -0.125164 0.278370
v 1.439989 -0.125164 0.364432
v 1.404341 -0.125164 0.450495
v 1.318279 -0.125164 0.486143
v 1.232215 -0.125164 0.450495
v 1.196568 -0.125164 0.364432
v 0.685306 -0.035941 0.053493
v 0.877235 -0.035941 -0.026007
v 1.069165 -0.035941 0.053493
v 1.148666 -0.035941 0.245424
v 1.069165 -0.035941 0.437354
v 0.877235 -0.035941 0.516854
v 0.685306 -0.035941 0.437354
v 0.605804 -0.035941 0.245424
v 0.685306 -0.125164 0.053493
v 0.877235 -0.125164 -0.026007
v 1.069165 -0.125164 0.053493
v 1.148666 -0.125164 0.245424
v 1.069165 -0.125164 0.437354
v 0.877235 -0.125164 0.516854
v 0.685306 -0.125164 0.437354
v 0.605804 -0.125164 0.245424
v 0.174162 -0.035941 0.016796
v 0.266600 -0.035941 -0.021493
v 0.359038 -0.035941 0.016796
v 0.397325 -0.035941 0.109233
v 0.359038 -0.035941 0.201670
v 0.266600 -0.035941 0.239959
v 0.174162 -0.035941 0.201670
v 0.135875 -0.035941 0.109233
v 0.174162 -0.125164 0.016796
v 0.266600 -0.125164 -0.021493
v 0.359038 -0.125164 0.016796
v 0.397325 -0.125164 0.109233
v 0.359038 -0.125164 0.201670
v 0.266600 -0.125164 0.239959
v 0.174162 -0.125164 0.201670
v 0.135875 -0.125164 0.109233
v -0.316242 -0.035941 0.153927
v -0.223804 -0.035941 0.115639
v -0.131366 -0.035941 0.153927
v -0.093079 -0.035941 0.246364
v -0.131366 -0.035941 0.338802
v -0.223804 -0.035941 0.377090
v -0.316242 -0.035941 0.338802
v -0.354529 -0.035941 0.246364
v -0.316242 -0.125164 0.153927
v -0.223804 -0.125164 0.115639
v -0.131366 -0.125164 0.153927
v -0.093079 -0.125164 0.246364
v -0.131366 -0.125164 0.338802
v -0.223804 -0.125164 0.377090
v -0.316242 -0.125164 0.338802
v -0.354529 -0.125164 0.246364
v -0.509973 -0.035941 0.001540
v -0.417536 -0.035941 -0.036749
v -0.325098 -0.035941 0.001540
v -0.286810 -0.035941 0.093977
v -0.325098 -0.035941 0.186414
v -0.417536 -0.035941 0.224703
v -0.509973 -0.035941 0.186414
v -0.548261 -0.035941 0.093977
v -0.509973 -0.125164 0.001540
v -0.417536 -0.125164 -0.036749
v -0.325098 -0.125164 0.001540
v -0.286810 -0.125164 0.093977
v -0.325098 -0.125164 0.186414
v -0.417536 -0.125164 0.224703
v -0.509973 -0.125164 0.186414
v -0.548261 -0.125164 0.093977
v -1.375104 -0.035941 0.089720
v -1.218460 -0.035941 0.024836
v -1.061816 -0.035941 0.089720
v -0.996933 -0.035941 0.246364
v -1.061816 -0.035941 0.403008
v -1.218460 -0.035941 0.467892
v -1.375104 -0.035941 0.403008
v -1.439987 -0.035941 0.246364
v -1.375104 -0.125164 0.089720
v -1.218460 -0.125164 0.024836
v -1.061816 -0.125164 0.089720
v -0.996933 -0.125164 0.246364
v -1.061816 -0.125164 0.403008
v -1.218460 -0.125164 0.467892
v -1.375104 -0.125164 0.403008
v -1.439987 -0.125164 0.246364
v 1.232215 2.499832 0.278369
v 1.318279 2.499832 0.242721
v 1.404341 2.499832 0.278369
v 1.439989 2.499832 0.364432
v 1.404341 2.499832 0.450494
v 1.318279 2.499832 0.486142
v 1.232215 2.499832 0.450494
v 1.196568 2.499832 0.364432
v 1.232215 2.410609 0.278369
v 1.318279 2.410609 0.242721
v 1.404341 2.410609 0.278369
v 1.439989 2.410609 0.364432
v 1.404341 2.410609 0.450494
v 1.318279 2.410609 0.486142
v 1.232215 2.410609 0.450494
v 1.196568 2.410609 0.364432
v 0.685306 2.499832 0.053493
v 0.877235 2.499832 -0.026007
v 1.069165 2.499832 0.053493
v 1.148666 2.499832 0.245423
v 1.069165 2.499832 0.437353
v 0.877235 2.499832 0.516853
v 0.685306 2.499832 0.437354
v 0.605804 2.499832 0.245423
v 0.685306 2.410609 0.053493
v 0.877235 2.410609 -0.026007
v 1.069165 2.410609 0.053493
v 1.148666 2.410609 0.245423
v 1.069165 2.410609 0.437353
v 0.877235 2.410609 0.516853
v 0.685306 2.410609 0.437354
v 0.605804 2.410609 0.245423
v 0.174162 2.499832 0.016796
v 0.266600 2.499832 -0.021493
v 0.359038 2.499832 0.016796
v 0.397325 2.499832 0.109233
v 0.359038 2.499832 0.201670
v 0.266600 2.499832 0.239959
v 0.174162 2.499832 0.201670
v 0.135875 2.499832 0.109233
v 0.174162 2.410609 0.016796
v 0.266600 2.410609 -0.021493
v 0.359038 2.410609 0.016796
v 0.397325 2.410609 0.109233
v 0.359038 2.410609 0.201670
v 0.266600 2.410609 0.239959
v 0.174162 2.410609 0.201670
v 0.135875 2.410609 0.109233
v -0.316242 2.499832 0.153927
v -0.223804 2.499832 0.115638
v -0.131366 2.499832 0.153927
v -0.093079 2.499832 0.246364
v -0.131366 2.499832 0.338801
v -0.223804 2.499832 0.377090
v -0.316242 2.499832 0.338801
v -0.354529 2.499832 0.246364
v -0.316242 2.410609 0.153927
v -0.223804 2.410609 0.115638
v -0.131366 2.410609 0.153927
v -0.093079 2.410609 0.246364
v -0.131366 2.410609 0.338801
v -0.223804 2.410609 0.377090
v -0.316242 2.410609 0.338801
v -0.354529 2.410609 0.246364
v -0.509973 2.499832 0.001539
v -0.417536 2.499832 -0.036749
v -0.325098 2.499832 0.001539
v -0.286810 2.499832 0.093976
v -0.325098 2.499832 0.186413
v -0.417536 2.499832 0.224702
v -0.509973 2.499832 0.186413
v -0.548261 2.499832 0.093976
v -0.509973 2.410609 0.001539
v -0.417536 2.410609 -0.036749
v -0.325098 2.410609 0.001539
v -0.286810 2.410609 0.093976
v -0.325098 2.410609 0.186413
v -0.417536 2.410609 0.224702
v -0.509973 2.410609 0.186413
v -0.548261 2.410609 0.093976
v -1.375104 2.499832 0.089720
v -1.218460 2.499832 0.024836
v -1.061816 2.499832 0.089720
v -0.996933 2.499832 0.246364
v -1.061816 2.499832 0.403008
v -1.218460 2.499832 0.467892
v -1.375104 2.499832 0.403008
v -1.439987 2.499832 0.246364
v -1.375104 2.410609 0.089720
v -1.218460 2.410609 0.024836
v -1.061816 2.410609 0.089720
v -0.996933 2.410609 0.246364
v -1.061816 2.410609 0.403008
v -1.218460 2.410609 0.467892
v -1.375104 2.410609 0.403008
v -1.439987 2.410609 0.246364
v -0.892478 -2.463575 0.162632
v -0.833957 -2.463575 0.138393
v -0.775440 -2.463575 0.162632
v -0.751199 -2.463575 0.221151
v -0.775440 -2.463575 0.279669
v -0.833957 -2.463575 0.303908
v -0.892478 -2.463575 0.279669
v -0.916715 -2.463575 0.221151
v -0.892478 -2.500168 0.162632
v -0.833957 -2.500168 0.138393
v -0.775440 -2.500168 0.162632
v -0.751199 -2.500168 0.221151
v -0.775440 -2.500168 0.279669
v -0.833957 -2.500168 0.303908
v -0.892478 -2.500168 0.279669
v -0.916715 -2.500168 0.221151
v -0.892478 2.499832 0.162631
v -0.833957 2.499832 0.138392
v -0.775440 2.499832 0.162631
v -0.751199 2.499832 0.221150
v -0.775440 2.499832 0.279668
v -0.833957 2.499832 0.303907
v -0.892478 2.499832 0.279668
v -0.916715 2.499832 0.221150
v -0.892478 2.463238 0.162631
v -0.833957 2.463238 0.138392
v -0.775440 2.463238 0.162631
v -0.751199 2.463238 0.221150
v -0.775440 2.463238 0.279668
v -0.833957 2.463238 0.303907
v -0.892478 2.463238 0.279668
v -0.916715 2.463238 0.221150
v -1.345712 2.410607 0.119106
v -1.218460 2.410607 0.066397
v -1.091208 2.410607 0.119106
v -1.038498 2.410607 0.246358
v -1.091208 2.410607 0.373610
v -1.218460 2.410607 0.426320
v -1.345712 2.410607 0.373610
v -1.398422 2.410607 0.246358
v -1.345712 -2.410946 0.119107
v -1.218460 -2.410946 0.066398
v -1.091208 -2.410946 0.119107
v -1.038498 -2.410946 0.246359
v -1.091208 -2.410946 0.373611
v -1.218460 -2.410946 0.426321
v -1.345712 -2.410946 0.373611
v -1.398422 -2.410946 0.246359
v -0.492625 2.410607 0.018879
v -0.417534 2.410607 -0.012226
v -0.342442 2.410607 0.018879
v -0.311339 2.410607 0.093971
v -0.342442 2.410607 0.169063
v -0.417534 2.410607 0.200168
v -0.492625 2.410607 0.169063
v -0.523732 2.410607 0.093971
v -0.492625 -2.410946 0.018879
v -0.417534 -2.410946 -0.012225
v -0.342442 -2.410946 0.018879
v -0.311339 -2.410946 0.093972
v -0.342442 -2.410946 0.169064
v -0.417534 -2.410946 0.200169
v -0.492625 -2.410946 0.169064
v -0.523732 -2.410946 0.093972
v -0.298895 2.410607 0.171266
v -0.223802 2.410607 0.140162
v -0.148709 2.410607 0.171266
v -0.117606 2.410607 0.246358
v -0.148709 2.410607 0.321451
v -0.223802 2.410607 0.352556
v -0.298895 2.410607 0.321451
v -0.329999 2.410607 0.246358
v -0.298895 -2.410946 0.171267
v -0.223802 -2.410946 0.140162
v -0.148709 -2.410946 0.171267
v -0.117606 -2.410946 0.246359
v -0.148709 -2.410946 0.321452
v -0.223802 -2.410946 0.352556
v -0.298895 -2.410946 0.321452
v -0.329999 -2.410946 0.246359
v 0.191540 2.410607 0.032777
v 0.266492 2.410607 0.001732
v 0.341440 2.410607 0.032777
v 0.372485 2.410607 0.107727
v 0.341440 2.410607 0.182676
v 0.266492 2.410607 0.213721
v 0.191540 2.410607 0.182676
v 0.160498 2.410607 0.107727
v 0.191540 -2.410946 0.032778
v 0.266492 -2.410946 0.001732
v 0.341440 -2.410946 0.032778
v 0.372485 -2.410946 0.107727
v 0.341440 -2.410946 0.182676
v 0.266492 -2.410946 0.213722
v 0.191540 -2.410946 0.182676
v 0.160498 -2.410946 0.107727
v 0.703406 2.410607 0.071290
v 0.878479 2.410607 -0.001229
v 1.053555 2.410607 0.071290
v 1.126071 2.410607 0.246364
v 1.053555 2.410607 0.421438
v 0.878479 2.410607 0.493956
v 0.703406 2.410607 0.421438
v 0.630887 2.410607 0.246364
v 0.703406 -2.410946 0.071290
v 0.878479 -2.410946 -0.001228
v 1.053555 -2.410946 0.071290
v 1.126071 -2.410946 0.246365
v 1.053555 -2.410946 0.421439
v 0.878479 -2.410946 0.493957
v 0.703406 -2.410946 0.421439
v 0.630887 -2.410946 0.246365
v 1.244034 2.410607 0.289841
v 1.319125 2.410607 0.258736
v 1.394220 2.410607 0.289841
v 1.425323 2.410607 0.364933
v 1.394220 2.410607 0.440026
v 1.319125 2.410607 0.471130
v 1.244034 2.410607 0.440026
v 1.212930 2.410607 0.364933
v 1.244034 -2.410946 0.289842
v 1.319125 -2.410946 0.258737
v 1.394220 -2.410946 0.289842
v 1.425323 -2.410946 0.364934
v 1.394220 -2.410946 0.440027
v 1.319125 -2.410946 0.471131
v 1.244034 -2.410946 0.440027
v 1.212930 -2.410946 0.364934
v -0.871017 2.463238 0.166272
v -0.841959 2.463238 0.166272
v -0.827432 2.463238 0.191436
v -0.841959 2.463238 0.216600
v -0.871017 2.463238 0.216600
v -0.885544 2.463238 0.191436
v -0.871017 -2.463575 0.166273
v -0.841959 -2.463575 0.166273
v -0.827432 -2.463575 0.191437
v -0.841959 -2.463575 0.216601
v -0.871017 -2.463575 0.216601
v -0.885544 -2.463575 0.191437
v -0.785938 -1.666836 0.146049
v -0.800464 -1.666836 0.171212
v -0.785938 -1.666836 0.196376
v -0.756882 -1.666836 0.196376
v -0.742352 -1.666836 0.171212
v -0.756882 -1.666836 0.146049
v -0.821515 -0.833501 0.075241
v -0.836044 -0.833501 0.100405
v -0.821515 -0.833501 0.125568
v -0.792459 -0.833501 0.125568
v -0.777933 -0.833501 0.100405
v -0.792459 -0.833501 0.075241
v -0.862799 -0.000168 0.162513
v -0.877329 -0.000168 0.187677
v -0.862799 -0.000168 0.212841
v -0.833743 -0.000168 0.212841
v -0.819217 -0.000168 0.187677
v -0.833743 -0.000168 0.162513
v -0.718381 0.833165 0.097651
v -0.732910 0.833165 0.122815
v -0.718381 0.833165 0.147979
v -0.689325 0.833165 0.147979
v -0.674796 0.833165 0.122815
v -0.689325 0.833165 0.097651
v -0.872272 1.666499 0.201530
v -0.886801 1.666499 0.226694
v -0.872272 1.666499 0.251858
v -0.843216 1.666499 0.251858
v -0.828687 1.666499 0.226694
v -0.843216 1.666499 0.201530
v -0.865808 2.463238 0.233250
v -0.836749 2.463238 0.233250
v -0.822223 2.463238 0.258414
v -0.836749 2.463238 0.283577
v -0.865808 2.463238 0.283577
v -0.880334 2.463238 0.258414
v -0.865808 -2.463575 0.233251
v -0.836749 -2.463575 0.233251
v -0.822223 -2.463575 0.258414
v -0.836749 -2.463575 0.283578
v -0.865808 -2.463575 0.283578
v -0.880334 -2.463575 0.258414
v -0.780728 -1.666836 0.213025
v -0.795255 -1.666836 0.238189
v -0.780728 -1.666836 0.263353
v -0.751672 -1.666836 0.263353
v -0.737143 -1.666836 0.238189
v -0.751672 -1.666836 0.213025
v -0.816306 -0.833501 0.142218
v -0.830835 -0.833501 0.167382
v -0.816306 -0.833501 0.192545
v -0.787250 -0.833501 0.192545
v -0.772723 -0.833501 0.167382
v -0.787250 -0.833501 0.142218
v -0.807205 -0.000168 0.168703
v -0.821735 -0.000168 0.193867
v -0.807205 -0.000168 0.219031
v -0.778149 -0.000168 0.219031
v -0.763623 -0.000168 0.193867
v -0.778149 -0.000168 0.168703
v -0.713171 0.833165 0.164628
v -0.727701 0.833165 0.189792
v -0.713171 0.833165 0.214956
v -0.684116 0.833165 0.214956
v -0.669586 0.833165 0.189792
v -0.684116 0.833165 0.164628
v -0.867062 1.666499 0.268507
v -0.881592 1.666499 0.293671
v -0.867062 1.666499 0.318835
v -0.838007 1.666499 0.318835
v -0.823477 1.666499 0.293671
v -0.838007 1.666499 0.268507
v -0.809491 2.463238 0.193057
v -0.780435 2.463238 0.193057
v -0.765906 2.463238 0.218221
v -0.780435 2.463238 0.243385
v -0.809491 2.463238 0.243385
v -0.824017 2.463238 0.218221
v -0.809491 -2.463575 0.193058
v -0.780435 -2.463575 0.193058
v -0.765906 -2.463575 0.218222
v -0.780435 -2.463575 0.243386
v -0.809491 -2.463575 0.243386
v -0.824017 -2.463575 0.218222
v -0.724411 -1.666836 0.172833
v -0.738937 -1.666836 0.197997
v -0.724411 -1.666836 0.223161
v -0.695355 -1.666836 0.223161
v -0.680826 -1.666836 0.197997
v -0.695355 -1.666836 0.172833
v -0.759992 -0.833501 0.102026
v -0.774518 -0.833501 0.127190
v -0.759992 -0.833501 0.152353
v -0.730933 -0.833501 0.152353
v -0.716406 -0.833501 0.127190
v -0.730933 -0.833501 0.102026
v -0.688052 -0.000168 0.183577
v -0.702582 -0.000168 0.208741
v -0.688052 -0.000168 0.233905
v -0.658998 -0.000168 0.233905
v -0.644470 -0.000168 0.208741
v -0.658998 -0.000168 0.183577
v -0.656856 0.833165 0.124436
v -0.671384 0.833165 0.149600
v -0.656856 0.833165 0.174763
v -0.627799 0.833165 0.174763
v -0.613271 0.833165 0.149600
v -0.627799 0.833165 0.124436
v -0.810745 1.666499 0.228316
v -0.825275 1.666499 0.253479
v -0.810745 1.666499 0.278643
v -0.781690 1.666499 0.278643
v -0.767160 1.666499 0.253479
v -0.781690 1.666499 0.228316
vn -0.0000 0.8505 0.5260
vn 0.8809 0.0009 0.4733
vn -0.9558 0.0010 0.2941
vn 0.6334 0.5756 0.5172
vn -0.0000 -0.8506 0.5258
vn -0.6334 0.5756 0.5173
vn 0.6758 -0.3111 0.6682
vn -0.6367 -0.5722 0.5170
vn -0.0000 1.0000 -0.0000
vn 0.3571 0.0001 0.9341
vn 0.2766 0.1692 0.9460
vn 0.0003 -0.0004 1.0000
vn -0.0000 -1.0000 -0.0000
vn -0.0000 -0.0000 1.0000
vn -0.3609 -0.4031 0.8410
vn -0.3784 0.3219 0.8679
vn -0.3687 0.3687 0.8533
vn -0.0000 -0.0005 1.0000
vn -0.0045 0.0005 1.0000
vn 0.3758 0.3758 0.8471
vn 0.3303 0.5413 0.7733
vn 0.3623 -0.3624 0.8587
vn -0.9280 -0.0000 0.3725
vn -1.0000 -0.0000 -0.0000
vn -0.4017 -0.0005 0.9158
vn 0.2774 -0.1697 0.9456
vn -0.0000 -0.0019 1.0000
vn 0.4084 -0.0016 0.9128
vn 1.0000 -0.0000 -0.0000
vn -0.0000 -0.0014 1.0000
vn -1.0000 0.0041 0.0003
vn -0.0006 -0.0000 1.0000
vn -0.9889 -0.0001 0.1484
vn 1.0000 -0.0041 -0.0000
vn -0.0000 -0.0021 -1.0000
vn -0.8660 -0.0021 -0.5000
vn -0.8660 -0.0021 0.5000
vn -0.0000 -0.0021 1.0000
vn 0.8660 -0.0021 0.5000
vn 0.8660 -0.0021 -0.5000
vn -0.0000 0.0033 -1.0000
vn 0.8660 0.0033 -0.5000
vn 0.8660 0.0033 0.5000
vn -0.0000 0.0033 1.0000
vn -0.8660 0.0033 0.5000
vn -0.8660 0.0033 -0.5000
vn -0.0000 0.0011 -1.0000
vn 0.8660 0.0011 -0.5000
vn 0.8660 0.0011 0.5000
vn -0.0000 0.0011 1.0000
vn -0.8660 0.0010 0.5000
vn -0.8660 0.0013 -0.5000
vn -0.0000 -0.8201 -0.5723
vn 0.4956 -0.8201 -0.2861
vn 0.4956 -0.8201 0.2861
vn -0.0000 -0.8200 0.5723
vn -0.4956 -0.8201 0.2861
vn -0.4956 -0.8201 -0.2861
vn -0.0139 -0.0134 -0.9998
vn 0.8589 -0.0134 -0.5120
vn 0.8728 -0.0134 0.4878
vn 0.0139 -0.0134 0.9998
vn -0.8589 -0.0134 0.5120
vn -0.8728 -0.0134 -0.4878
vn -0.8660 0.0025 0.5000
vn -0.8660 0.0025 -0.5000
vn -0.0000 0.0025 -1.0000
vn 0.8660 0.0025 -0.5000
vn 0.8660 0.0025 0.5000
vn -0.0000 0.0025 1.0000
vn -0.4956 0.8201 0.2861
vn -0.4956 0.8201 -0.2861
vn -0.0000 0.8201 -0.5722
vn 0.4956 0.8201 -0.2861
vn 0.4956 0.8201 0.2861
vn -0.0000 0.8201 0.5723
vn -0.8660 -0.0000 0.5000
vn -0.8660 -0.0000 -0.5000
vn -0.0000 -0.0000 -1.0000
vn 0.8660 -0.0000 -0.5000
vn 0.8660 -0.0000 0.5000
vn -0.8711 0.0020 0.4911
vn -0.8677 -0.0007 -0.4971
vn 0.0104 0.0015 -0.9999
vn 0.8704 0.0015 -0.4924
vn 0.8616 0.0015 0.5075
vn -0.0087 0.0015 1.0000
vn -0.0000 0.0021 -1.0000
vn 0.8660 0.0020 -0.5000
vn 0.8660 0.0020 0.5000
vn -0.0000 0.0020 1.0000
vn -0.8660 0.0015 0.5000
vn -0.8660 0.0016 -0.5000
vn 0.0035 -0.0038 -1.0000
vn -0.8660 -0.0028 -0.5000
vn -0.8660 -0.0026 0.5000
vn -0.0021 -0.0034 1.0000
vn 0.8660 -0.0034 0.5000
vn 0.8660 -0.0034 -0.5000
vn -0.0000 -0.0010 -1.0000
vn -0.8660 -0.0014 -0.5000
vn -0.8660 -0.0014 0.5000
vn -0.0000 -0.0011 1.0000
vn 0.8401 0.0020 0.5425
vn 0.8333 0.0024 -0.5528
vn -0.0000 0.8201 -0.5723
vn 0.4982 0.8192 0.2841
vn 0.0165 0.0141 -0.9998
vn -0.8676 0.0123 -0.4970
vn -0.8650 0.0112 0.5017
vn -0.0165 0.0033 0.9999
vn 0.8589 0.0134 0.5120
vn 0.8728 0.0134 -0.4878
vn 0.8660 -0.0025 0.5000
vn 0.8660 -0.0025 -0.5000
vn 0.0035 -0.0023 -1.0000
vn -0.8742 -0.0024 -0.4856
vn -0.8576 -0.0025 0.5142
vn -0.0021 -0.0025 1.0000
vn 0.4962 -0.8209 0.2827
vn 0.4956 -0.8200 -0.2862
vn -0.0000 -0.8201 -0.5722
vn 0.8404 -0.0593 0.5387
vn 0.8654 0.0387 -0.4996
vn 0.0556 -0.0712 0.9959
vn 0.8711 -0.0020 0.4911
vn 0.8677 0.0007 -0.4971
vn -0.0121 -0.0025 -0.9999
vn -0.8650 -0.0028 -0.5018
vn -0.8666 -0.0015 0.4989
vn 0.0101 -0.0015 0.9999
vn 0.0009 -0.0005 1.0000
vn -0.0000 -0.0003 1.0000
vn 0.8660 -0.0055 -0.4999
vn -0.0038 -0.0019 1.0000
vn -0.0144 -0.0000 0.9999
vn -0.0034 -0.0014 1.0000
vn -1.0000 -0.0096 -0.0000
vn 1.0000 0.0048 -0.0000
vn -1.0000 -0.0040 -0.0000
vn 1.0000 0.0020 -0.0000
vn 0.9234 -0.0006 0.3839
vn -0.0005 1.0000 -0.0000
vn 0.7121 0.7021 0.0011
vn -0.1341 0.9782 0.1584
vn 0.2135 -0.9688 0.1257
vn 0.1829 0.9625 0.2003
vn -0.8213 0.5704 -0.0090
vn -0.3827 -0.0000 -0.9239
vn 0.3827 -0.0000 -0.9239
vn 0.9239 -0.0000 -0.3827
vn 0.9239 -0.0000 0.3827
vn 0.3827 -0.0000 0.9239
vn -0.3827 -0.0000 0.9239
vn -0.9239 -0.0000 0.3827
vn -0.9239 -0.0000 -0.3827
vn -0.0005 -0.0003 1.0000
vn -0.0000 -0.0442 -0.9990
vn 0.8658 -0.0235 -0.4998
vn 0.8659 0.0208 0.4998
vn -0.0000 0.0442 0.9990
vn -0.8658 0.0235 0.4999
vn -0.8658 -0.0208 -0.4999
vn -0.8633 0.0795 -0.4984
vn -0.8613 0.1046 0.4972
vn -0.0000 0.0254 0.9997
vn 0.8633 -0.0795 0.4985
vn 0.8613 -0.1046 -0.4972
vn -0.0000 -0.0254 -0.9997
vn -0.8633 -0.0792 -0.4984
vn -0.8660 0.0055 0.4999
vn -0.0000 0.0847 0.9964
vn 0.8633 0.0792 0.4984
vn -0.0000 -0.0847 -0.9964
vn -0.8660 0.0095 -0.5000
vn -0.8621 -0.0948 0.4978
vn -0.0000 -0.1042 0.9946
vn 0.8660 -0.0095 0.4999
vn 0.8622 0.0948 -0.4977
vn -0.0000 0.1042 -0.9946
vn -0.8607 0.1105 -0.4970
vn -0.8509 0.1857 0.4913
vn -0.0000 0.0776 0.9970
vn 0.8607 -0.1105 0.4970
vn 0.8510 -0.1857 -0.4913
vn -0.0000 -0.0776 -0.9970
vn -0.8619 -0.0971 -0.4977
vn -0.8454 -0.2170 0.4881
vn -0.0000 -0.1237 0.9923
vn 0.8619 0.0971 0.4977
vn 0.8454 0.2170 -0.4881
vn -0.0000 0.1237 -0.9923
vn 0.8633 -0.0795 0.4984
vn 1.0000 -0.0002 0.0004
vn -0.8660 -0.0064 0.5000
vn -0.8657 0.0253 -0.4999
vn -0.0000 -0.0318 0.9995
vn 0.8658 -0.0253 0.4998
vn -0.0000 0.0318 -0.9995
vn -0.8621 0.0948 -0.4978
vn -0.8617 0.0997 0.4975
vn -0.0000 0.0049 1.0000
vn 0.8621 -0.0948 0.4978
vn 0.8617 -0.0997 -0.4975
vn -0.0000 -0.0049 -1.0000
vn 0.8658 -0.0235 -0.4999
vn 0.8658 0.0208 0.4999
vn 0.8613 -0.1046 -0.4973
vn -0.8595 0.1228 -0.4962
vn -0.8657 0.0258 0.4999
vn -0.0000 -0.0974 0.9952
vn 0.8595 -0.1228 0.4962
vn 0.8658 -0.0258 -0.4998
vn -0.0000 0.0974 -0.9952
vn -0.8660 -0.0031 -0.5000
vn -0.8640 0.0678 0.4989
vn -0.0000 0.0708 0.9975
vn 0.8660 0.0031 0.5000
vn 0.8640 -0.0678 -0.4988
vn -0.0000 -0.0708 -0.9975
vn 0.8619 0.0971 0.4976
vn 0.6733 0.3145 0.6691
vn 0.6367 -0.5722 0.5170
vn 0.3573 0.0001 0.9340
vn 0.2677 0.1594 0.9502
vn -0.0004 -0.0008 1.0000
vn 0.0011 -0.0020 1.0000
vn -0.0003 -0.0007 1.0000
vn -0.3687 -0.3687 0.8533
vn -0.0045 -0.0000 1.0000
vn -0.0000 -0.0006 1.0000
vn -1.0000 -0.0001 0.0021
vn -1.0000 0.0042 -0.0002
vn -0.3983 -0.0000 0.9173
vn 0.2680 -0.1592 0.9502
vn 0.3979 -0.0000 0.9175
vn -0.9942 -0.0041 -0.1072
vn -0.0043 -0.0005 1.0000
vn -0.9881 -0.0000 0.1540
vn 1.0000 0.0042 -0.0000
vn 0.9986 -0.0000 0.0527
vn 0.0104 0.0017 -0.9999
vn 0.8704 0.0016 -0.4924
vn 0.8616 0.0016 0.5075
vn -0.0087 0.0016 1.0000
vn -0.8711 0.0016 0.4911
vn -0.8677 0.0015 -0.4971
vn -0.0000 -0.0091 -1.0000
vn 0.8660 -0.0091 -0.5000
vn 0.8660 -0.0091 0.5000
vn -0.0000 -0.0091 1.0000
vn -0.8660 -0.0091 0.5000
vn -0.8660 -0.0091 -0.5000
vn -0.8590 -0.0024 0.5120
vn -0.8729 -0.0024 -0.4879
vn -0.0139 -0.0024 -0.9999
vn 0.8590 -0.0024 -0.5120
vn 0.8729 -0.0024 0.4879
vn 0.0139 -0.0024 0.9999
vn -0.8660 -0.0015 0.5000
vn -0.8660 0.0004 -0.5000
vn 0.8660 -0.0015 -0.5000
vn 0.8660 -0.0015 0.5000
vn -0.0000 -0.0015 1.0000
vn 0.0012 0.0020 -1.0000
vn -0.0021 0.0018 1.0000
vn -0.8607 0.0024 0.5091
vn -0.8710 0.0025 -0.4912
vn -0.0000 -0.0034 -1.0000
vn -0.8742 -0.0043 -0.4856
vn -0.8576 -0.0041 0.5142
vn -0.0000 -0.0032 1.0000
vn -0.0121 -0.0017 -0.9999
vn -0.8650 -0.0012 -0.5019
vn -0.8666 -0.0014 0.4989
vn 0.0101 -0.0017 0.9999
vn 0.8711 -0.0016 0.4911
vn 0.8677 -0.0015 -0.4971
vn 0.4930 0.8209 -0.2883
vn -0.0000 0.0091 -1.0000
vn -0.8660 0.0113 -0.5000
vn -0.8660 0.0106 0.5000
vn -0.0338 0.0086 0.9994
vn 0.8879 -0.0048 0.4600
vn 0.8660 0.0091 -0.5000
vn 0.8590 0.0024 0.5120
vn 0.8729 0.0024 -0.4879
vn 0.0166 0.0024 -0.9999
vn -0.8678 0.0023 -0.4970
vn -0.8650 0.0025 0.5018
vn -0.0165 0.0025 0.9999
vn 0.0032 -0.8192 0.5735
vn 0.8845 0.0522 0.4636
vn 0.8816 -0.0000 -0.4719
vn 0.8660 0.0015 0.5000
vn 0.8660 -0.0004 -0.5000
vn 0.0012 0.0021 -1.0000
vn -0.8710 0.0015 -0.4912
vn -0.8607 0.0025 0.5091
vn -0.0021 0.0028 1.0000
vn -0.0000 0.8505 0.5261
vn 0.8660 0.0064 -0.4999
vn 0.8660 -0.0055 -0.5000
vn 0.0083 -0.0005 1.0000
vn -0.0022 0.0003 1.0000
vn -0.0151 -0.0014 0.9999
vn 0.0038 -0.0019 1.0000
vn 0.0298 0.0004 0.9996
vn 0.0257 0.0005 0.9997
vn 0.9229 0.0010 0.3851
vn 0.9071 -0.0000 0.4210
vn -0.0008 0.0015 1.0000
vn -0.0114 -0.0000 0.9999
vn 0.0020 -0.0014 1.0000
vn -0.0239 0.0004 0.9997
vn 0.0007 0.0004 1.0000
vn -0.0000 1.0000 -0.0016
vn -0.6665 -0.7445 0.0397
vn -0.0000 -1.0000 0.0008
vn -0.0000 -1.0000 -0.0001
vn 0.0002 -1.0000 -0.0000
vn -0.0000 -1.0000 0.0005
vn 0.0007 -0.0018 1.0000
vn -0.8658 0.0235 0.4998
vn -0.8659 -0.0208 -0.4998
vn -0.8633 -0.0792 -0.4985
vn -0.8660 0.0055 0.5000
vn 0.8633 0.0792 0.4985
vn 0.8607 -0.1105 0.4969
vn 0.8509 -0.1857 -0.4913
vn 1.0000 -0.0000 -0.0041
vn 0.8622 -0.0949 0.4977
vn -0.8658 0.0258 0.4998
vn 0.8657 -0.0258 -0.4998
vn -0.8640 0.0678 0.4988
vn -0.8619 -0.0971 -0.4976
vt 0.375000 0.625000
vt 0.125000 0.625000
vt 0.125000 0.875000
vt 0.875000 0.875000
vt 0.625000 0.875000
vt 0.625000 0.625000
vt 0.625000 0.375000
vt 0.875000 0.375000
vt 0.875000 0.625000
s 0
usemtl ruins_tg_ceiling_a
f 19/1/1 10/1/1 18/1/1
f 3/1/2 12/1/2 5/1/2
f 4/1/3 14/1/3 13/1/3
f 19/2/4 12/2/4 9/2/4
f 7/1/5 16/1/5 15/1/5
f 18/1/6 14/1/6 6/1/6
f 7/2/7 11/2/7 3/2/7
f 8/1/8 13/1/8 16/1/8
f 314/3/9 313/3/9 312/3/9
f 20/2/10 22/2/10 17/2/10
f 186/2/11 203/2/11 190/2/11
f 187/1/12 203/1/12 189/1/12
f 455/2/13 448/2/13 452/2/13
f 27/4/14 26/4/14 25/4/14
f 3/2/11 20/2/11 7/2/11
f 43/4/15 27/4/15 42/4/15
f 30/4/14 31/4/14 32/4/14
f 25/1/16 40/1/16 41/1/16
f 40/4/17 25/4/17 26/4/17
f 51/1/18 49/1/18 50/1/18
f 53/1/19 33/1/19 60/1/19
f 66/3/14 65/3/14 67/3/14
f 31/4/20 37/4/20 32/4/20
f 38/1/21 37/1/21 31/1/21
f 39/4/22 29/4/22 30/4/22
f 63/1/23 64/1/23 66/1/23
f 41/1/24 50/1/24 42/1/24
f 27/1/25 41/1/25 42/1/25
f 201/2/26 188/2/26 202/2/26
f 215/1/27 216/1/27 217/1/27
f 38/1/28 29/1/28 39/1/28
f 55/1/29 56/1/29 54/1/29
f 219/1/30 220/1/30 221/1/30
f 60/1/31 47/1/31 46/1/31
f 45/1/32 46/1/32 44/1/32
f 1/1/33 53/1/33 52/1/33
f 48/1/34 35/1/34 59/1/34
f 69/5/35 125/5/35 68/5/35
f 70/5/36 80/5/36 69/5/36
f 71/5/37 124/5/37 70/5/37
f 72/5/38 123/5/38 71/5/38
f 73/5/39 127/5/39 72/5/39
f 68/5/40 126/5/40 73/5/40
f 81/5/41 74/5/41 82/5/41
f 82/5/42 79/5/42 83/5/42
f 83/5/43 78/5/43 84/5/43
f 84/5/44 77/5/44 109/5/44
f 109/5/45 76/5/45 85/5/45
f 85/5/46 75/5/46 81/5/46
f 87/5/47 92/5/47 93/5/47
f 88/5/48 93/5/48 94/5/48
f 89/5/49 94/5/49 95/5/49
f 122/5/50 95/5/50 96/5/50
f 90/5/51 96/5/51 97/5/51
f 92/5/52 90/5/52 97/5/52
f 93/1/53 118/1/53 119/1/53
f 94/1/54 119/1/54 120/1/54
f 121/1/55 94/1/55 120/1/55
f 116/1/56 95/1/56 121/1/56
f 97/1/57 116/1/57 117/1/57
f 118/1/58 97/1/58 117/1/58
f 99/5/59 91/5/59 106/5/59
f 100/5/60 106/5/60 107/5/60
f 101/5/61 107/5/61 108/5/61
f 102/5/62 108/5/62 104/5/62
f 103/5/63 104/5/63 105/5/63
f 98/5/64 105/5/64 91/5/64
f 105/1/65 109/1/65 85/1/65
f 91/1/66 85/1/66 81/1/66
f 106/1/67 81/1/67 82/1/67
f 107/1/68 82/1/68 83/1/68
f 108/1/69 83/1/69 84/1/69
f 104/1/70 84/1/70 109/1/70
f 103/1/71 110/1/71 102/1/71
f 103/1/72 112/1/72 111/1/72
f 99/1/73 112/1/73 98/1/73
f 100/1/74 113/1/74 99/1/74
f 115/1/75 100/1/75 101/1/75
f 110/1/76 101/1/76 102/1/76
f 117/1/77 110/1/77 111/1/77
f 118/1/78 111/1/78 112/1/78
f 119/1/79 112/1/79 113/1/79
f 114/1/80 119/1/80 113/1/80
f 115/1/81 120/1/81 114/1/81
f 116/1/14 115/1/14 110/1/14
f 124/1/82 122/1/82 90/1/82
f 80/1/83 90/1/83 86/1/83
f 125/1/84 86/1/84 87/1/84
f 126/1/85 87/1/85 88/1/85
f 127/1/86 88/1/86 89/1/86
f 123/1/87 89/1/87 122/1/87
f 129/5/88 183/5/88 128/5/88
f 130/5/89 140/5/89 129/5/89
f 131/5/90 182/5/90 130/5/90
f 132/5/91 181/5/91 131/5/91
f 133/5/92 185/5/92 132/5/92
f 128/5/93 184/5/93 133/5/93
f 141/5/94 134/5/94 142/5/94
f 143/5/95 134/5/95 139/5/95
f 144/5/96 139/5/96 138/5/96
f 144/5/97 137/5/97 167/5/97
f 167/5/98 136/5/98 145/5/98
f 145/5/99 135/5/99 141/5/99
f 147/5/100 152/5/100 153/5/100
f 148/5/101 153/5/101 154/5/101
f 149/5/102 154/5/102 155/5/102
f 180/5/103 155/5/103 156/5/103
f 150/5/104 156/5/104 175/5/104
f 152/5/105 150/5/105 175/5/105
f 153/1/106 176/1/106 177/1/106
f 178/1/72 153/1/72 177/1/72
f 155/1/71 178/1/71 179/1/71
f 174/1/76 155/1/76 179/1/76
f 175/1/107 156/1/107 174/1/107
f 158/5/108 151/5/108 164/5/108
f 165/5/109 158/5/109 164/5/109
f 166/5/110 159/5/110 165/5/110
f 168/5/111 166/5/111 162/5/111
f 161/5/112 162/5/112 163/5/112
f 157/5/113 163/5/113 151/5/113
f 163/1/114 167/1/114 145/1/114
f 151/1/115 145/1/115 141/1/115
f 164/1/116 141/1/116 142/1/116
f 165/1/117 142/1/117 143/1/117
f 166/1/118 143/1/118 144/1/118
f 162/1/119 144/1/119 167/1/119
f 169/1/120 168/1/120 161/1/120
f 157/1/121 169/1/121 161/1/121
f 158/1/122 170/1/122 157/1/122
f 172/1/58 158/1/58 159/1/58
f 160/1/57 172/1/57 159/1/57
f 169/1/123 174/1/123 168/1/123
f 170/1/124 175/1/124 169/1/124
f 177/1/79 170/1/79 171/1/79
f 178/1/78 171/1/78 172/1/78
f 179/1/77 172/1/77 173/1/77
f 174/1/125 173/1/125 168/1/125
f 182/1/126 180/1/126 150/1/126
f 140/1/127 150/1/127 146/1/127
f 183/1/128 146/1/128 147/1/128
f 148/1/129 183/1/129 147/1/129
f 149/1/130 184/1/130 148/1/130
f 181/1/131 149/1/131 180/1/131
f 204/1/132 188/1/132 205/1/132
f 202/1/1 194/1/1 192/1/1
f 186/1/2 196/1/2 188/1/2
f 187/1/3 198/1/3 197/1/3
f 202/2/4 196/2/4 193/2/4
f 190/1/5 200/1/5 199/1/5
f 192/1/6 198/1/6 189/1/6
f 190/2/7 195/2/7 186/2/7
f 191/1/8 197/1/8 200/1/8
f 17/1/133 19/1/133 18/1/133
f 17/2/26 5/2/26 19/2/26
f 203/2/10 205/2/10 201/2/10
f 744/3/134 739/3/134 745/3/134
f 57/1/14 63/1/14 56/1/14
f 36/1/135 208/1/135 206/1/135
f 407/3/13 401/3/13 403/3/13
f 55/1/136 54/1/136 209/1/136
f 59/1/137 212/1/137 210/1/137
f 206/1/9 215/1/9 207/1/9
f 206/1/138 216/1/138 214/1/138
f 209/1/13 216/1/13 208/1/13
f 207/1/139 217/1/139 209/1/139
f 210/1/9 219/1/9 211/1/9
f 210/1/140 220/1/140 218/1/140
f 213/1/13 220/1/13 212/1/13
f 211/1/141 221/1/141 213/1/141
f 65/1/142 61/1/142 2/1/142
f 223/1/32 222/1/32 2/1/32
f 227/5/143 32/5/143 37/5/143
f 28/5/29 224/5/29 26/5/29
f 32/5/24 226/5/24 30/5/24
f 37/5/144 38/5/144 228/5/144
f 136/5/13 137/5/13 139/5/13
f 43/5/13 225/5/13 28/5/13
f 43/5/13 231/5/13 230/5/13
f 38/5/145 44/5/145 228/5/145
f 224/5/9 40/5/9 26/5/9
f 42/5/146 50/5/146 231/5/146
f 67/5/13 46/5/13 49/5/13
f 51/5/147 41/5/147 229/5/147
f 65/5/9 55/5/9 48/5/9
f 41/5/148 40/5/148 229/5/148
f 233/3/149 240/3/149 232/3/149
f 234/3/150 241/3/150 233/3/150
f 235/3/151 242/3/151 234/3/151
f 236/3/152 243/3/152 235/3/152
f 237/3/153 244/3/153 236/3/153
f 238/3/154 245/3/154 237/3/154
f 239/3/155 246/3/155 238/3/155
f 232/3/156 247/3/156 239/3/156
f 527/3/9 526/3/9 522/3/9
f 556/3/9 555/3/9 559/3/9
f 249/3/149 256/3/149 248/3/149
f 250/3/150 257/3/150 249/3/150
f 251/3/151 258/3/151 250/3/151
f 252/3/152 259/3/152 251/3/152
f 253/3/153 260/3/153 252/3/153
f 254/3/154 261/3/154 253/3/154
f 255/3/155 262/3/155 254/3/155
f 248/3/156 263/3/156 255/3/156
f 129/5/9 128/5/9 133/5/9
f 69/5/13 68/5/13 73/5/13
f 265/2/149 272/2/149 264/2/149
f 266/2/150 273/2/150 265/2/150
f 267/2/151 274/2/151 266/2/151
f 268/2/152 275/2/152 267/2/152
f 269/2/153 276/2/153 268/2/153
f 270/2/154 277/2/154 269/2/154
f 271/2/155 278/2/155 270/2/155
f 264/2/156 279/2/156 271/2/156
f 271/2/9 269/2/9 267/2/9
f 258/3/13 259/3/13 263/3/13
f 279/2/13 272/2/13 276/2/13
f 281/3/149 288/3/149 280/3/149
f 282/3/150 289/3/150 281/3/150
f 283/3/151 290/3/151 282/3/151
f 284/3/152 291/3/152 283/3/152
f 285/3/153 292/3/153 284/3/153
f 286/3/154 293/3/154 285/3/154
f 287/3/155 294/3/155 286/3/155
f 280/3/156 295/3/156 287/3/156
f 287/3/9 285/3/9 283/3/9
f 292/3/13 293/3/13 294/3/13
f 303/3/9 301/3/9 299/3/9
f 297/3/149 304/3/149 296/3/149
f 298/3/150 305/3/150 297/3/150
f 299/3/151 306/3/151 298/3/151
f 300/3/152 307/3/152 299/3/152
f 301/3/153 308/3/153 300/3/153
f 302/3/154 309/3/154 301/3/154
f 303/3/155 310/3/155 302/3/155
f 296/3/156 311/3/156 303/3/156
f 311/3/13 305/3/13 307/3/13
f 313/3/149 320/3/149 312/3/149
f 314/3/150 321/3/150 313/3/150
f 315/3/151 322/3/151 314/3/151
f 316/3/152 323/3/152 315/3/152
f 317/3/153 324/3/153 316/3/153
f 318/3/154 325/3/154 317/3/154
f 319/3/155 326/3/155 318/3/155
f 312/3/156 327/3/156 319/3/156
f 327/3/13 321/3/13 323/3/13
f 330/3/9 329/3/9 333/3/9
f 329/3/149 336/3/149 328/3/149
f 330/3/150 337/3/150 329/3/150
f 331/3/151 338/3/151 330/3/151
f 332/3/152 339/3/152 331/3/152
f 333/3/153 340/3/153 332/3/153
f 334/3/154 341/3/154 333/3/154
f 335/3/155 342/3/155 334/3/155
f 328/3/156 343/3/156 335/3/156
f 336/3/13 338/3/13 340/3/13
f 351/3/9 349/3/9 347/3/9
f 345/3/149 352/3/149 344/3/149
f 346/3/150 353/3/150 345/3/150
f 347/3/151 354/3/151 346/3/151
f 348/3/152 355/3/152 347/3/152
f 349/3/153 356/3/153 348/3/153
f 350/3/154 357/3/154 349/3/154
f 351/3/155 358/3/155 350/3/155
f 344/3/156 359/3/156 351/3/156
f 357/3/13 358/3/13 354/3/13
f 361/3/149 368/3/149 360/3/149
f 362/3/150 369/3/150 361/3/150
f 363/3/151 370/3/151 362/3/151
f 364/3/152 371/3/152 363/3/152
f 365/3/153 372/3/153 364/3/153
f 366/3/154 373/3/154 365/3/154
f 367/3/155 374/3/155 366/3/155
f 360/3/156 375/3/156 367/3/156
f 363/3/9 361/3/9 367/3/9
f 375/3/13 369/3/13 371/3/13
f 377/3/149 384/3/149 376/3/149
f 378/3/150 385/3/150 377/3/150
f 379/3/151 386/3/151 378/3/151
f 380/3/152 387/3/152 379/3/152
f 381/3/153 388/3/153 380/3/153
f 382/3/154 389/3/154 381/3/154
f 383/3/155 390/3/155 382/3/155
f 376/3/156 391/3/156 383/3/156
f 378/3/9 377/3/9 381/3/9
f 387/3/13 388/3/13 389/3/13
f 393/3/149 400/3/149 392/3/149
f 394/3/150 401/3/150 393/3/150
f 395/3/151 402/3/151 394/3/151
f 396/3/152 403/3/152 395/3/152
f 397/3/153 404/3/153 396/3/153
f 398/3/154 405/3/154 397/3/154
f 399/3/155 406/3/155 398/3/155
f 392/3/156 407/3/156 399/3/156
f 394/3/9 393/3/9 392/3/9
f 543/2/9 541/2/9 539/2/9
f 409/3/149 416/3/149 408/3/149
f 410/3/150 417/3/150 409/3/150
f 411/3/151 418/3/151 410/3/151
f 412/3/152 419/3/152 411/3/152
f 413/3/153 420/3/153 412/3/153
f 414/3/154 421/3/154 413/3/154
f 415/3/155 422/3/155 414/3/155
f 408/3/156 423/3/156 415/3/156
f 415/3/9 413/3/9 411/3/9
f 420/3/13 421/3/13 422/3/13
f 425/3/149 432/3/149 424/3/149
f 426/3/150 433/3/150 425/3/150
f 427/3/151 434/3/151 426/3/151
f 428/3/152 435/3/152 427/3/152
f 429/3/153 436/3/153 428/3/153
f 430/3/154 437/3/154 429/3/154
f 431/3/155 438/3/155 430/3/155
f 424/3/156 439/3/156 431/3/156
f 431/3/9 430/3/9 426/3/9
f 439/3/13 433/3/13 435/3/13
f 441/2/149 448/2/149 440/2/149
f 442/2/150 449/2/150 441/2/150
f 443/2/151 450/2/151 442/2/151
f 444/2/152 451/2/152 443/2/152
f 445/2/153 452/2/153 444/2/153
f 446/2/154 453/2/154 445/2/154
f 447/2/155 454/2/155 446/2/155
f 440/2/156 455/2/156 447/2/156
f 447/2/9 445/2/9 443/2/9
f 457/3/149 464/3/149 456/3/149
f 458/3/150 465/3/150 457/3/150
f 459/3/151 466/3/151 458/3/151
f 460/3/152 467/3/152 459/3/152
f 461/3/153 468/3/153 460/3/153
f 462/3/154 469/3/154 461/3/154
f 463/3/155 470/3/155 462/3/155
f 456/3/156 471/3/156 463/3/156
f 459/3/9 457/3/9 463/3/9
f 467/3/13 469/3/13 471/3/13
f 473/3/149 480/3/149 472/3/149
f 474/3/150 481/3/150 473/3/150
f 475/3/151 482/3/151 474/3/151
f 476/3/152 483/3/152 475/3/152
f 477/3/153 484/3/153 476/3/153
f 478/3/154 485/3/154 477/3/154
f 479/3/155 486/3/155 478/3/155
f 472/3/156 487/3/156 479/3/156
f 474/3/9 473/3/9 477/3/9
f 480/3/13 482/3/13 484/3/13
f 489/3/149 496/3/149 488/3/149
f 490/3/150 497/3/150 489/3/150
f 491/3/151 498/3/151 490/3/151
f 492/3/152 499/3/152 491/3/152
f 493/3/153 500/3/153 492/3/153
f 494/3/154 501/3/154 493/3/154
f 495/3/155 502/3/155 494/3/155
f 488/3/156 503/3/156 495/3/156
f 228/5/79 229/5/79 231/5/79
f 490/3/9 489/3/9 488/3/9
f 503/3/13 496/3/13 500/3/13
f 516/3/13 517/3/13 518/3/13
f 505/3/149 512/3/149 504/3/149
f 506/3/150 513/3/150 505/3/150
f 507/3/151 514/3/151 506/3/151
f 508/3/152 515/3/152 507/3/152
f 509/3/153 516/3/153 508/3/153
f 510/3/154 517/3/154 509/3/154
f 511/3/155 518/3/155 510/3/155
f 504/3/156 519/3/156 511/3/156
f 511/3/9 509/3/9 507/3/9
f 252/3/9 251/3/9 255/3/9
f 521/3/149 528/3/149 520/3/149
f 522/3/150 529/3/150 521/3/150
f 523/3/151 530/3/151 522/3/151
f 524/3/152 531/3/152 523/3/152
f 525/3/153 532/3/153 524/3/153
f 526/3/154 533/3/154 525/3/154
f 527/3/155 534/3/155 526/3/155
f 520/3/156 535/3/156 527/3/156
f 245/3/13 246/3/13 242/3/13
f 535/3/13 529/3/13 531/3/13
f 238/3/9 237/3/9 236/3/9
f 537/2/149 544/2/149 536/2/149
f 538/2/150 545/2/150 537/2/150
f 539/2/151 546/2/151 538/2/151
f 540/2/152 547/2/152 539/2/152
f 541/2/153 548/2/153 540/2/153
f 542/2/154 549/2/154 541/2/154
f 543/2/155 550/2/155 542/2/155
f 536/2/156 551/2/156 543/2/156
f 5/1/157 21/1/157 3/1/157
f 553/3/149 560/3/149 552/3/149
f 554/3/150 561/3/150 553/3/150
f 555/3/151 562/3/151 554/3/151
f 556/3/152 563/3/152 555/3/152
f 557/3/153 564/3/153 556/3/153
f 558/3/154 565/3/154 557/3/154
f 559/3/155 566/3/155 558/3/155
f 552/3/156 567/3/156 559/3/156
f 551/2/13 544/2/13 548/2/13
f 567/3/13 560/3/13 564/3/13
f 569/3/149 576/3/149 568/3/149
f 570/3/150 577/3/150 569/3/150
f 571/3/151 578/3/151 570/3/151
f 572/3/152 579/3/152 571/3/152
f 573/3/153 580/3/153 572/3/153
f 574/3/154 581/3/154 573/3/154
f 575/3/155 582/3/155 574/3/155
f 568/3/156 583/3/156 575/3/156
f 74/5/9 75/5/9 76/5/9
f 572/3/9 571/3/9 575/3/9
f 583/3/13 576/3/13 580/3/13
f 585/4/149 592/4/149 584/4/149
f 586/4/150 593/4/150 585/4/150
f 587/4/151 594/4/151 586/4/151
f 588/4/152 595/4/152 587/4/152
f 589/4/153 596/4/153 588/4/153
f 590/4/154 597/4/154 589/4/154
f 591/4/155 598/4/155 590/4/155
f 584/4/156 599/4/156 591/4/156
f 601/4/149 608/4/149 600/4/149
f 601/4/150 610/4/150 609/4/150
f 603/4/151 610/4/151 602/4/151
f 604/4/152 611/4/152 603/4/152
f 604/4/153 613/4/153 612/4/153
f 606/4/154 613/4/154 605/4/154
f 607/4/155 614/4/155 606/4/155
f 600/4/156 615/4/156 607/4/156
f 617/6/149 624/6/149 616/6/149
f 618/6/150 625/6/150 617/6/150
f 619/6/151 626/6/151 618/6/151
f 620/6/152 627/6/152 619/6/152
f 621/6/153 628/6/153 620/6/153
f 622/6/154 629/6/154 621/6/154
f 623/6/155 630/6/155 622/6/155
f 616/6/156 631/6/156 623/6/156
f 633/7/149 640/7/149 632/7/149
f 634/7/150 641/7/150 633/7/150
f 635/7/151 642/7/151 634/7/151
f 636/7/152 643/7/152 635/7/152
f 637/7/153 644/7/153 636/7/153
f 638/7/154 645/7/154 637/7/154
f 639/7/155 646/7/155 638/7/155
f 632/7/156 647/7/156 639/7/156
f 649/8/149 656/8/149 648/8/149
f 650/8/150 657/8/150 649/8/150
f 651/8/151 658/8/151 650/8/151
f 652/8/152 659/8/152 651/8/152
f 653/8/153 660/8/153 652/8/153
f 654/8/154 661/8/154 653/8/154
f 655/8/155 662/8/155 654/8/155
f 648/8/156 663/8/156 655/8/156
f 664/6/149 673/6/149 672/6/149
f 666/6/150 673/6/150 665/6/150
f 667/6/151 674/6/151 666/6/151
f 668/6/152 675/6/152 667/6/152
f 669/6/153 676/6/153 668/6/153
f 670/6/154 677/6/154 669/6/154
f 671/6/155 678/6/155 670/6/155
f 664/6/156 679/6/156 671/6/156
f 680/9/158 721/9/158 716/9/158
f 682/9/159 721/9/159 681/9/159
f 683/9/160 720/9/160 682/9/160
f 684/9/161 719/9/161 683/9/161
f 684/9/162 717/9/162 718/9/162
f 685/9/163 716/9/163 717/9/163
f 693/9/164 686/9/164 691/9/164
f 693/9/165 690/9/165 694/9/165
f 694/9/166 689/9/166 695/9/166
f 695/9/167 688/9/167 696/9/167
f 697/9/168 688/9/168 687/9/168
f 692/9/169 687/9/169 686/9/169
f 699/9/170 692/9/170 693/9/170
f 700/9/171 693/9/171 694/9/171
f 701/9/172 694/9/172 695/9/172
f 701/9/173 696/9/173 702/9/173
f 702/9/134 697/9/134 703/9/134
f 703/9/174 692/9/174 698/9/174
f 704/9/175 699/9/175 705/9/175
f 705/9/176 700/9/176 706/9/176
f 707/9/177 700/9/177 701/9/177
f 708/9/178 701/9/178 702/9/178
f 709/9/179 702/9/179 703/9/179
f 709/9/180 698/9/180 704/9/180
f 711/9/181 704/9/181 705/9/181
f 711/9/182 706/9/182 712/9/182
f 712/9/183 707/9/183 713/9/183
f 713/9/184 708/9/184 714/9/184
f 715/9/185 708/9/185 709/9/185
f 710/9/186 709/9/186 704/9/186
f 716/9/187 711/9/187 717/9/187
f 717/9/188 712/9/188 718/9/188
f 719/9/189 712/9/189 713/9/189
f 720/9/190 713/9/190 714/9/190
f 721/9/191 714/9/191 715/9/191
f 721/9/192 710/9/192 716/9/192
f 722/3/158 763/3/158 758/3/158
f 724/3/159 763/3/159 723/3/159
f 725/3/160 762/3/160 724/3/160
f 726/3/161 761/3/161 725/3/161
f 726/3/162 759/3/162 760/3/162
f 727/3/163 758/3/163 759/3/163
f 735/3/164 728/3/164 733/3/164
f 735/3/165 732/3/165 736/3/165
f 736/3/166 731/3/166 737/3/166
f 737/3/193 730/3/193 738/3/193
f 739/3/168 730/3/168 729/3/168
f 734/3/169 729/3/169 728/3/169
f 741/3/170 734/3/170 735/3/170
f 45/1/194 38/1/194 39/1/194
f 743/3/172 736/3/172 737/3/172
f 743/3/173 738/3/173 744/3/173
f 742/3/195 747/3/195 741/3/195
f 745/3/174 734/3/174 740/3/174
f 746/3/196 741/3/196 747/3/196
f 748/3/197 743/3/197 749/3/197
f 750/3/198 743/3/198 744/3/198
f 746/3/199 745/3/199 740/3/199
f 753/3/200 746/3/200 747/3/200
f 753/3/201 748/3/201 754/3/201
f 754/3/202 749/3/202 755/3/202
f 755/3/203 750/3/203 756/3/203
f 757/3/204 750/3/204 751/3/204
f 752/3/205 751/3/205 746/3/205
f 758/3/187 753/3/187 759/3/187
f 759/3/188 754/3/188 760/3/188
f 761/3/189 754/3/189 755/3/189
f 762/3/190 755/3/190 756/3/190
f 763/3/191 756/3/191 757/3/191
f 763/3/192 752/3/192 758/3/192
f 764/2/158 805/2/158 800/2/158
f 766/2/206 805/2/206 765/2/206
f 767/2/207 804/2/207 766/2/207
f 768/2/161 803/2/161 767/2/161
f 768/2/162 801/2/162 802/2/162
f 769/2/163 800/2/163 801/2/163
f 777/2/164 770/2/164 775/2/164
f 777/2/165 774/2/165 778/2/165
f 778/2/166 773/2/166 779/2/166
f 779/2/193 772/2/193 780/2/193
f 781/2/208 772/2/208 771/2/208
f 776/2/169 771/2/169 770/2/169
f 783/2/170 776/2/170 777/2/170
f 784/2/171 777/2/171 778/2/171
f 785/2/172 778/2/172 779/2/172
f 785/2/173 780/2/173 786/2/173
f 786/2/134 781/2/134 787/2/134
f 787/2/174 776/2/174 782/2/174
f 788/2/209 783/2/209 789/2/209
f 789/2/210 784/2/210 790/2/210
f 790/2/211 785/2/211 791/2/211
f 792/2/212 785/2/212 786/2/212
f 793/2/213 786/2/213 787/2/213
f 788/2/214 787/2/214 782/2/214
f 795/2/215 788/2/215 789/2/215
f 796/2/216 789/2/216 790/2/216
f 796/2/217 791/2/217 797/2/217
f 797/2/218 792/2/218 798/2/218
f 798/2/219 793/2/219 799/2/219
f 794/2/220 793/2/220 788/2/220
f 800/2/187 795/2/187 801/2/187
f 801/2/188 796/2/188 802/2/188
f 803/2/189 796/2/189 797/2/189
f 804/2/221 797/2/221 798/2/221
f 805/2/191 798/2/191 799/2/191
f 805/2/192 794/2/192 800/2/192
f 19/1/1 9/1/1 10/1/1
f 3/1/2 11/1/2 12/1/2
f 4/1/3 6/1/3 14/1/3
f 19/2/222 5/2/222 12/2/222
f 7/1/5 8/1/5 16/1/5
f 18/1/6 10/1/6 14/1/6
f 7/2/223 15/2/223 11/2/223
f 8/1/8 4/1/8 13/1/8
f 312/3/9 319/3/9 316/3/9
f 319/3/9 318/3/9 316/3/9
f 318/3/9 317/3/9 316/3/9
f 316/3/9 315/3/9 312/3/9
f 315/3/9 314/3/9 312/3/9
f 20/2/224 21/2/224 22/2/224
f 186/2/225 204/2/225 203/2/225
f 189/1/226 201/1/226 192/1/226
f 201/1/133 202/1/133 192/1/133
f 187/1/227 191/1/227 203/1/227
f 191/1/18 190/1/18 203/1/18
f 203/1/228 201/1/228 189/1/228
f 448/2/13 449/2/13 450/2/13
f 450/2/13 451/2/13 448/2/13
f 451/2/13 452/2/13 448/2/13
f 452/2/13 453/2/13 454/2/13
f 454/2/13 455/2/13 452/2/13
f 27/4/14 28/4/14 26/4/14
f 3/2/225 21/2/225 20/2/225
f 43/4/229 28/4/229 27/4/229
f 30/4/14 29/4/14 31/4/14
f 51/1/230 48/1/230 49/1/230
f 34/1/231 52/1/231 60/1/231
f 52/1/18 53/1/18 60/1/18
f 66/3/14 64/3/14 65/3/14
f 63/1/23 62/1/23 64/1/23
f 41/1/232 51/1/232 50/1/232
f 34/1/233 60/1/233 46/1/233
f 27/1/234 25/1/234 41/1/234
f 201/2/235 205/2/235 188/2/235
f 215/1/27 214/1/27 216/1/27
f 38/1/236 31/1/236 29/1/236
f 55/1/29 57/1/29 56/1/29
f 219/1/30 218/1/30 220/1/30
f 60/1/237 33/1/237 47/1/237
f 46/1/238 47/1/238 44/1/238
f 1/1/239 58/1/239 53/1/239
f 36/1/240 49/1/240 59/1/240
f 49/1/241 48/1/241 59/1/241
f 69/5/35 80/5/35 125/5/35
f 70/5/36 124/5/36 80/5/36
f 71/5/37 123/5/37 124/5/37
f 72/5/38 127/5/38 123/5/38
f 73/5/39 126/5/39 127/5/39
f 68/5/40 125/5/40 126/5/40
f 81/5/41 75/5/41 74/5/41
f 82/5/42 74/5/42 79/5/42
f 83/5/43 79/5/43 78/5/43
f 84/5/44 78/5/44 77/5/44
f 109/5/45 77/5/45 76/5/45
f 85/5/46 76/5/46 75/5/46
f 87/5/242 86/5/242 92/5/242
f 88/5/243 87/5/243 93/5/243
f 89/5/244 88/5/244 94/5/244
f 122/5/245 89/5/245 95/5/245
f 90/5/246 122/5/246 96/5/246
f 92/5/247 86/5/247 90/5/247
f 93/1/53 92/1/53 118/1/53
f 94/1/54 93/1/54 119/1/54
f 121/1/55 95/1/55 94/1/55
f 116/1/56 96/1/56 95/1/56
f 97/1/57 96/1/57 116/1/57
f 118/1/58 92/1/58 97/1/58
f 99/5/248 98/5/248 91/5/248
f 100/5/249 99/5/249 106/5/249
f 101/5/250 100/5/250 107/5/250
f 102/5/251 101/5/251 108/5/251
f 103/5/252 102/5/252 104/5/252
f 98/5/253 103/5/253 105/5/253
f 105/1/254 104/1/254 109/1/254
f 91/1/255 105/1/255 85/1/255
f 106/1/256 91/1/256 81/1/256
f 107/1/257 106/1/257 82/1/257
f 108/1/258 107/1/258 83/1/258
f 104/1/259 108/1/259 84/1/259
f 103/1/71 111/1/71 110/1/71
f 103/1/72 98/1/72 112/1/72
f 99/1/73 113/1/73 112/1/73
f 100/1/74 114/1/74 113/1/74
f 115/1/75 114/1/75 100/1/75
f 110/1/76 115/1/76 101/1/76
f 117/1/77 116/1/77 110/1/77
f 118/1/78 117/1/78 111/1/78
f 119/1/79 118/1/79 112/1/79
f 114/1/80 120/1/80 119/1/80
f 115/1/81 121/1/81 120/1/81
f 116/1/14 121/1/14 115/1/14
f 124/1/260 123/1/260 122/1/260
f 80/1/261 124/1/261 90/1/261
f 125/1/35 80/1/35 86/1/35
f 126/1/262 125/1/262 87/1/262
f 127/1/263 126/1/263 88/1/263
f 123/1/264 127/1/264 89/1/264
f 129/5/265 140/5/265 183/5/265
f 130/5/89 182/5/89 140/5/89
f 131/5/90 181/5/90 182/5/90
f 132/5/266 185/5/266 181/5/266
f 133/5/267 184/5/267 185/5/267
f 128/5/268 183/5/268 184/5/268
f 141/5/269 135/5/269 134/5/269
f 143/5/270 142/5/270 134/5/270
f 144/5/271 143/5/271 139/5/271
f 144/5/272 138/5/272 137/5/272
f 167/5/98 137/5/98 136/5/98
f 145/5/99 136/5/99 135/5/99
f 147/5/273 146/5/273 152/5/273
f 148/5/274 147/5/274 153/5/274
f 149/5/275 148/5/275 154/5/275
f 180/5/276 149/5/276 155/5/276
f 150/5/277 180/5/277 156/5/277
f 152/5/278 146/5/278 150/5/278
f 153/1/106 152/1/106 176/1/106
f 178/1/72 154/1/72 153/1/72
f 155/1/71 154/1/71 178/1/71
f 174/1/76 156/1/76 155/1/76
f 175/1/279 176/1/279 152/1/279
f 158/5/280 157/5/280 151/5/280
f 165/5/281 159/5/281 158/5/281
f 166/5/282 160/5/282 159/5/282
f 168/5/283 160/5/283 166/5/283
f 161/5/284 168/5/284 162/5/284
f 157/5/285 161/5/285 163/5/285
f 163/1/286 162/1/286 167/1/286
f 151/1/287 163/1/287 145/1/287
f 164/1/288 151/1/288 141/1/288
f 165/1/289 164/1/289 142/1/289
f 166/1/290 165/1/290 143/1/290
f 162/1/291 166/1/291 144/1/291
f 157/1/54 170/1/54 169/1/54
f 158/1/122 171/1/122 170/1/122
f 172/1/58 171/1/58 158/1/58
f 160/1/57 173/1/57 172/1/57
f 168/1/292 173/1/292 160/1/292
f 169/1/293 175/1/293 174/1/293
f 170/1/294 176/1/294 175/1/294
f 177/1/79 176/1/79 170/1/79
f 178/1/78 177/1/78 171/1/78
f 179/1/77 178/1/77 172/1/77
f 174/1/14 179/1/14 173/1/14
f 182/1/295 181/1/295 180/1/295
f 140/1/296 182/1/296 150/1/296
f 183/1/297 140/1/297 146/1/297
f 148/1/298 184/1/298 183/1/298
f 149/1/299 185/1/299 184/1/299
f 181/1/300 185/1/300 149/1/300
f 204/1/157 186/1/157 188/1/157
f 202/1/301 193/1/301 194/1/301
f 186/1/2 195/1/2 196/1/2
f 187/1/3 189/1/3 198/1/3
f 202/2/222 188/2/222 196/2/222
f 190/1/5 191/1/5 200/1/5
f 192/1/6 194/1/6 198/1/6
f 190/2/223 199/2/223 195/2/223
f 191/1/8 187/1/8 197/1/8
f 4/1/227 8/1/227 20/1/227
f 8/1/18 7/1/18 20/1/18
f 20/1/228 17/1/228 6/1/228
f 20/1/12 6/1/12 4/1/12
f 6/1/226 17/1/226 18/1/226
f 17/2/235 22/2/235 5/2/235
f 203/2/224 204/2/224 205/2/224
f 745/3/302 751/3/302 744/3/302
f 751/3/302 750/3/302 744/3/302
f 744/3/303 738/3/303 739/3/303
f 57/1/14 62/1/14 63/1/14
f 36/1/304 59/1/304 208/1/304
f 405/3/13 406/3/13 407/3/13
f 407/3/13 400/3/13 401/3/13
f 401/3/13 402/3/13 403/3/13
f 403/3/13 404/3/13 405/3/13
f 405/3/13 407/3/13 403/3/13
f 208/1/14 59/1/14 209/1/14
f 59/1/14 210/1/14 211/1/14
f 59/1/14 211/1/14 209/1/14
f 213/1/91 212/1/91 35/1/91
f 209/1/305 211/1/305 55/1/305
f 211/1/306 213/1/306 55/1/306
f 36/1/14 206/1/14 54/1/14
f 206/1/14 207/1/14 54/1/14
f 213/1/91 35/1/91 55/1/91
f 54/1/307 207/1/307 209/1/307
f 59/1/308 35/1/308 212/1/308
f 206/1/9 214/1/9 215/1/9
f 206/1/138 208/1/138 216/1/138
f 209/1/13 217/1/13 216/1/13
f 207/1/139 215/1/139 217/1/139
f 210/1/9 218/1/9 219/1/9
f 210/1/140 212/1/140 220/1/140
f 213/1/13 221/1/13 220/1/13
f 211/1/141 219/1/141 221/1/141
f 2/1/309 61/1/309 223/1/309
f 2/1/310 24/1/310 67/1/310
f 67/1/311 65/1/311 2/1/311
f 61/1/50 58/1/50 222/1/50
f 223/1/312 61/1/312 222/1/312
f 58/1/313 1/1/313 222/1/313
f 1/1/314 24/1/314 23/1/314
f 1/1/315 23/1/315 222/1/315
f 222/1/316 23/1/316 2/1/316
f 228/5/317 227/5/317 37/5/317
f 28/5/29 225/5/29 224/5/29
f 32/5/24 227/5/24 226/5/24
f 137/5/13 138/5/13 139/5/13
f 139/5/13 134/5/13 135/5/13
f 135/5/13 136/5/13 139/5/13
f 43/5/13 230/5/13 225/5/13
f 43/5/318 42/5/318 231/5/318
f 224/5/9 229/5/9 40/5/9
f 56/5/13 63/5/13 66/5/13
f 67/5/319 24/5/319 52/5/319
f 24/5/13 1/5/13 52/5/13
f 54/5/13 56/5/13 66/5/13
f 54/5/13 66/5/13 67/5/13
f 49/5/13 36/5/13 54/5/13
f 231/5/320 50/5/320 49/5/320
f 39/5/321 30/5/321 226/5/321
f 52/5/13 34/5/13 46/5/13
f 45/5/322 39/5/322 226/5/322
f 67/5/13 52/5/13 46/5/13
f 46/5/13 45/5/13 226/5/13
f 226/5/13 231/5/13 46/5/13
f 231/5/13 49/5/13 46/5/13
f 49/5/13 54/5/13 67/5/13
f 228/5/9 44/5/9 47/5/9
f 47/5/9 33/5/9 53/5/9
f 53/5/9 58/5/9 61/5/9
f 53/5/9 61/5/9 65/5/9
f 229/5/9 228/5/9 48/5/9
f 228/5/9 47/5/9 48/5/9
f 47/5/9 53/5/9 65/5/9
f 64/5/9 62/5/9 57/5/9
f 47/5/9 65/5/9 48/5/9
f 65/5/9 64/5/9 55/5/9
f 48/5/9 51/5/9 229/5/9
f 55/5/9 35/5/9 48/5/9
f 64/5/9 57/5/9 55/5/9
f 233/3/149 241/3/149 240/3/149
f 234/3/150 242/3/150 241/3/150
f 235/3/151 243/3/151 242/3/151
f 236/3/152 244/3/152 243/3/152
f 237/3/153 245/3/153 244/3/153
f 238/3/154 246/3/154 245/3/154
f 239/3/155 247/3/155 246/3/155
f 232/3/156 240/3/156 247/3/156
f 526/3/9 525/3/9 524/3/9
f 524/3/9 523/3/9 526/3/9
f 523/3/9 522/3/9 526/3/9
f 522/3/9 521/3/9 520/3/9
f 520/3/9 527/3/9 522/3/9
f 555/3/9 554/3/9 559/3/9
f 554/3/9 553/3/9 559/3/9
f 553/3/9 552/3/9 559/3/9
f 559/3/9 558/3/9 557/3/9
f 557/3/9 556/3/9 559/3/9
f 249/3/149 257/3/149 256/3/149
f 250/3/150 258/3/150 257/3/150
f 251/3/151 259/3/151 258/3/151
f 252/3/152 260/3/152 259/3/152
f 253/3/153 261/3/153 260/3/153
f 254/3/154 262/3/154 261/3/154
f 255/3/155 263/3/155 262/3/155
f 248/3/156 256/3/156 263/3/156
f 133/5/9 132/5/9 131/5/9
f 131/5/9 130/5/9 133/5/9
f 130/5/9 129/5/9 133/5/9
f 73/5/13 72/5/13 71/5/13
f 71/5/13 70/5/13 73/5/13
f 70/5/13 69/5/13 73/5/13
f 265/2/149 273/2/149 272/2/149
f 266/2/150 274/2/150 273/2/150
f 267/2/151 275/2/151 274/2/151
f 268/2/152 276/2/152 275/2/152
f 269/2/153 277/2/153 276/2/153
f 270/2/154 278/2/154 277/2/154
f 271/2/155 279/2/155 278/2/155
f 264/2/156 272/2/156 279/2/156
f 267/2/9 266/2/9 271/2/9
f 266/2/9 265/2/9 271/2/9
f 265/2/9 264/2/9 271/2/9
f 271/2/9 270/2/9 269/2/9
f 269/2/9 268/2/9 267/2/9
f 259/3/13 260/3/13 263/3/13
f 260/3/13 261/3/13 263/3/13
f 261/3/13 262/3/13 263/3/13
f 263/3/13 256/3/13 257/3/13
f 257/3/13 258/3/13 263/3/13
f 272/2/13 273/2/13 274/2/13
f 274/2/13 275/2/13 272/2/13
f 275/2/13 276/2/13 272/2/13
f 276/2/13 277/2/13 278/2/13
f 278/2/13 279/2/13 276/2/13
f 281/3/149 289/3/149 288/3/149
f 282/3/150 290/3/150 289/3/150
f 283/3/151 291/3/151 290/3/151
f 284/3/152 292/3/152 291/3/152
f 285/3/153 293/3/153 292/3/153
f 286/3/154 294/3/154 293/3/154
f 287/3/155 295/3/155 294/3/155
f 280/3/156 288/3/156 295/3/156
f 281/3/9 280/3/9 287/3/9
f 287/3/9 286/3/9 285/3/9
f 285/3/9 284/3/9 283/3/9
f 283/3/9 282/3/9 281/3/9
f 281/3/9 287/3/9 283/3/9
f 294/3/13 295/3/13 290/3/13
f 295/3/13 288/3/13 290/3/13
f 288/3/13 289/3/13 290/3/13
f 290/3/13 291/3/13 294/3/13
f 291/3/13 292/3/13 294/3/13
f 297/3/9 296/3/9 303/3/9
f 303/3/9 302/3/9 301/3/9
f 301/3/9 300/3/9 299/3/9
f 299/3/9 298/3/9 297/3/9
f 297/3/9 303/3/9 299/3/9
f 297/3/149 305/3/149 304/3/149
f 298/3/150 306/3/150 305/3/150
f 299/3/151 307/3/151 306/3/151
f 300/3/152 308/3/152 307/3/152
f 301/3/153 309/3/153 308/3/153
f 302/3/154 310/3/154 309/3/154
f 303/3/155 311/3/155 310/3/155
f 296/3/156 304/3/156 311/3/156
f 309/3/13 310/3/13 311/3/13
f 311/3/13 304/3/13 305/3/13
f 305/3/13 306/3/13 307/3/13
f 307/3/13 308/3/13 309/3/13
f 309/3/13 311/3/13 307/3/13
f 313/3/149 321/3/149 320/3/149
f 314/3/150 322/3/150 321/3/150
f 315/3/151 323/3/151 322/3/151
f 316/3/152 324/3/152 323/3/152
f 317/3/153 325/3/153 324/3/153
f 318/3/154 326/3/154 325/3/154
f 319/3/155 327/3/155 326/3/155
f 312/3/156 320/3/156 327/3/156
f 325/3/13 326/3/13 327/3/13
f 327/3/13 320/3/13 321/3/13
f 321/3/13 322/3/13 323/3/13
f 323/3/13 324/3/13 325/3/13
f 325/3/13 327/3/13 323/3/13
f 329/3/9 328/3/9 333/3/9
f 328/3/9 335/3/9 333/3/9
f 335/3/9 334/3/9 333/3/9
f 333/3/9 332/3/9 331/3/9
f 331/3/9 330/3/9 333/3/9
f 329/3/149 337/3/149 336/3/149
f 330/3/150 338/3/150 337/3/150
f 331/3/151 339/3/151 338/3/151
f 332/3/152 340/3/152 339/3/152
f 333/3/153 341/3/153 340/3/153
f 334/3/154 342/3/154 341/3/154
f 335/3/155 343/3/155 342/3/155
f 328/3/156 336/3/156 343/3/156
f 340/3/13 341/3/13 342/3/13
f 342/3/13 343/3/13 336/3/13
f 336/3/13 337/3/13 338/3/13
f 338/3/13 339/3/13 340/3/13
f 340/3/13 342/3/13 336/3/13
f 345/3/9 344/3/9 351/3/9
f 351/3/9 350/3/9 349/3/9
f 349/3/9 348/3/9 347/3/9
f 347/3/9 346/3/9 345/3/9
f 345/3/9 351/3/9 347/3/9
f 345/3/149 353/3/149 352/3/149
f 346/3/150 354/3/150 353/3/150
f 347/3/151 355/3/151 354/3/151
f 348/3/152 356/3/152 355/3/152
f 349/3/153 357/3/153 356/3/153
f 350/3/154 358/3/154 357/3/154
f 351/3/155 359/3/155 358/3/155
f 344/3/156 352/3/156 359/3/156
f 358/3/13 359/3/13 354/3/13
f 359/3/13 352/3/13 354/3/13
f 352/3/13 353/3/13 354/3/13
f 354/3/13 355/3/13 356/3/13
f 356/3/13 357/3/13 354/3/13
f 361/3/149 369/3/149 368/3/149
f 362/3/150 370/3/150 369/3/150
f 363/3/151 371/3/151 370/3/151
f 364/3/152 372/3/152 371/3/152
f 365/3/153 373/3/153 372/3/153
f 366/3/154 374/3/154 373/3/154
f 367/3/155 375/3/155 374/3/155
f 360/3/156 368/3/156 375/3/156
f 365/3/9 364/3/9 363/3/9
f 363/3/9 362/3/9 361/3/9
f 361/3/9 360/3/9 367/3/9
f 367/3/9 366/3/9 365/3/9
f 365/3/9 363/3/9 367/3/9
f 373/3/13 374/3/13 375/3/13
f 375/3/13 368/3/13 369/3/13
f 369/3/13 370/3/13 371/3/13
f 371/3/13 372/3/13 373/3/13
f 373/3/13 375/3/13 371/3/13
f 377/3/149 385/3/149 384/3/149
f 378/3/150 386/3/150 385/3/150
f 379/3/151 387/3/151 386/3/151
f 380/3/152 388/3/152 387/3/152
f 381/3/153 389/3/153 388/3/153
f 382/3/154 390/3/154 389/3/154
f 383/3/155 391/3/155 390/3/155
f 376/3/156 384/3/156 391/3/156
f 377/3/9 376/3/9 381/3/9
f 376/3/9 383/3/9 381/3/9
f 383/3/9 382/3/9 381/3/9
f 381/3/9 380/3/9 379/3/9
f 379/3/9 378/3/9 381/3/9
f 389/3/13 390/3/13 391/3/13
f 391/3/13 384/3/13 389/3/13
f 384/3/13 385/3/13 389/3/13
f 385/3/13 386/3/13 389/3/13
f 386/3/13 387/3/13 389/3/13
f 393/3/149 401/3/149 400/3/149
f 394/3/150 402/3/150 401/3/150
f 395/3/151 403/3/151 402/3/151
f 396/3/152 404/3/152 403/3/152
f 397/3/153 405/3/153 404/3/153
f 398/3/154 406/3/154 405/3/154
f 399/3/155 407/3/155 406/3/155
f 392/3/156 400/3/156 407/3/156
f 392/3/9 399/3/9 396/3/9
f 399/3/9 398/3/9 396/3/9
f 398/3/9 397/3/9 396/3/9
f 396/3/9 395/3/9 392/3/9
f 395/3/9 394/3/9 392/3/9
f 539/2/9 538/2/9 543/2/9
f 538/2/9 537/2/9 543/2/9
f 537/2/9 536/2/9 543/2/9
f 543/2/9 542/2/9 541/2/9
f 541/2/9 540/2/9 539/2/9
f 409/3/149 417/3/149 416/3/149
f 410/3/150 418/3/150 417/3/150
f 411/3/151 419/3/151 418/3/151
f 412/3/152 420/3/152 419/3/152
f 413/3/153 421/3/153 420/3/153
f 414/3/154 422/3/154 421/3/154
f 415/3/155 423/3/155 422/3/155
f 408/3/156 416/3/156 423/3/156
f 409/3/9 408/3/9 415/3/9
f 415/3/9 414/3/9 413/3/9
f 413/3/9 412/3/9 411/3/9
f 411/3/9 410/3/9 409/3/9
f 409/3/9 415/3/9 411/3/9
f 422/3/13 423/3/13 418/3/13
f 423/3/13 416/3/13 418/3/13
f 416/3/13 417/3/13 418/3/13
f 418/3/13 419/3/13 422/3/13
f 419/3/13 420/3/13 422/3/13
f 425/3/149 433/3/149 432/3/149
f 426/3/150 434/3/150 433/3/150
f 427/3/151 435/3/151 434/3/151
f 428/3/152 436/3/152 435/3/152
f 429/3/153 437/3/153 436/3/153
f 430/3/154 438/3/154 437/3/154
f 431/3/155 439/3/155 438/3/155
f 424/3/156 432/3/156 439/3/156
f 430/3/9 429/3/9 428/3/9
f 428/3/9 427/3/9 430/3/9
f 427/3/9 426/3/9 430/3/9
f 426/3/9 425/3/9 424/3/9
f 424/3/9 431/3/9 426/3/9
f 435/3/13 436/3/13 437/3/13
f 437/3/13 438/3/13 439/3/13
f 439/3/13 432/3/13 433/3/13
f 433/3/13 434/3/13 435/3/13
f 435/3/13 437/3/13 439/3/13
f 441/2/149 449/2/149 448/2/149
f 442/2/150 450/2/150 449/2/150
f 443/2/151 451/2/151 450/2/151
f 444/2/152 452/2/152 451/2/152
f 445/2/153 453/2/153 452/2/153
f 446/2/154 454/2/154 453/2/154
f 447/2/155 455/2/155 454/2/155
f 440/2/156 448/2/156 455/2/156
f 443/2/9 442/2/9 447/2/9
f 442/2/9 441/2/9 447/2/9
f 441/2/9 440/2/9 447/2/9
f 447/2/9 446/2/9 445/2/9
f 445/2/9 444/2/9 443/2/9
f 457/3/149 465/3/149 464/3/149
f 458/3/150 466/3/150 465/3/150
f 459/3/151 467/3/151 466/3/151
f 460/3/152 468/3/152 467/3/152
f 461/3/153 469/3/153 468/3/153
f 462/3/154 470/3/154 469/3/154
f 463/3/155 471/3/155 470/3/155
f 456/3/156 464/3/156 471/3/156
f 461/3/9 460/3/9 459/3/9
f 459/3/9 458/3/9 457/3/9
f 457/3/9 456/3/9 463/3/9
f 463/3/9 462/3/9 461/3/9
f 461/3/9 459/3/9 463/3/9
f 465/3/13 466/3/13 467/3/13
f 467/3/13 468/3/13 469/3/13
f 469/3/13 470/3/13 471/3/13
f 471/3/13 464/3/13 465/3/13
f 465/3/13 467/3/13 471/3/13
f 473/3/149 481/3/149 480/3/149
f 474/3/150 482/3/150 481/3/150
f 475/3/151 483/3/151 482/3/151
f 476/3/152 484/3/152 483/3/152
f 477/3/153 485/3/153 484/3/153
f 478/3/154 486/3/154 485/3/154
f 479/3/155 487/3/155 486/3/155
f 472/3/156 480/3/156 487/3/156
f 473/3/9 472/3/9 477/3/9
f 472/3/9 479/3/9 477/3/9
f 479/3/9 478/3/9 477/3/9
f 477/3/9 476/3/9 475/3/9
f 475/3/9 474/3/9 477/3/9
f 484/3/13 485/3/13 486/3/13
f 486/3/13 487/3/13 480/3/13
f 480/3/13 481/3/13 482/3/13
f 482/3/13 483/3/13 484/3/13
f 484/3/13 486/3/13 480/3/13
f 489/3/149 497/3/149 496/3/149
f 490/3/150 498/3/150 497/3/150
f 491/3/151 499/3/151 498/3/151
f 492/3/152 500/3/152 499/3/152
f 493/3/153 501/3/153 500/3/153
f 494/3/154 502/3/154 501/3/154
f 495/3/155 503/3/155 502/3/155
f 488/3/156 496/3/156 503/3/156
f 229/5/79 224/5/79 225/5/79
f 231/5/79 226/5/79 228/5/79
f 226/5/79 227/5/79 228/5/79
f 229/5/79 225/5/79 231/5/79
f 488/3/9 495/3/9 492/3/9
f 495/3/9 494/3/9 492/3/9
f 494/3/9 493/3/9 492/3/9
f 492/3/9 491/3/9 488/3/9
f 491/3/9 490/3/9 488/3/9
f 496/3/13 497/3/13 498/3/13
f 498/3/13 499/3/13 496/3/13
f 499/3/13 500/3/13 496/3/13
f 500/3/13 501/3/13 502/3/13
f 502/3/13 503/3/13 500/3/13
f 518/3/13 519/3/13 514/3/13
f 519/3/13 512/3/13 514/3/13
f 512/3/13 513/3/13 514/3/13
f 514/3/13 515/3/13 518/3/13
f 515/3/13 516/3/13 518/3/13
f 505/3/149 513/3/149 512/3/149
f 506/3/150 514/3/150 513/3/150
f 507/3/151 515/3/151 514/3/151
f 508/3/152 516/3/152 515/3/152
f 509/3/153 517/3/153 516/3/153
f 510/3/154 518/3/154 517/3/154
f 511/3/155 519/3/155 518/3/155
f 504/3/156 512/3/156 519/3/156
f 505/3/9 504/3/9 511/3/9
f 511/3/9 510/3/9 509/3/9
f 509/3/9 508/3/9 507/3/9
f 507/3/9 506/3/9 505/3/9
f 505/3/9 511/3/9 507/3/9
f 251/3/9 250/3/9 255/3/9
f 250/3/9 249/3/9 255/3/9
f 249/3/9 248/3/9 255/3/9
f 255/3/9 254/3/9 253/3/9
f 253/3/9 252/3/9 255/3/9
f 521/3/149 529/3/149 528/3/149
f 522/3/150 530/3/150 529/3/150
f 523/3/151 531/3/151 530/3/151
f 524/3/152 532/3/152 531/3/152
f 525/3/153 533/3/153 532/3/153
f 526/3/154 534/3/154 533/3/154
f 527/3/155 535/3/155 534/3/155
f 520/3/156 528/3/156 535/3/156
f 246/3/13 247/3/13 242/3/13
f 247/3/13 240/3/13 242/3/13
f 240/3/13 241/3/13 242/3/13
f 242/3/13 243/3/13 244/3/13
f 244/3/13 245/3/13 242/3/13
f 533/3/13 534/3/13 535/3/13
f 535/3/13 528/3/13 529/3/13
f 529/3/13 530/3/13 531/3/13
f 531/3/13 532/3/13 533/3/13
f 533/3/13 535/3/13 531/3/13
f 236/3/9 235/3/9 234/3/9
f 234/3/9 233/3/9 236/3/9
f 233/3/9 232/3/9 236/3/9
f 232/3/9 239/3/9 236/3/9
f 239/3/9 238/3/9 236/3/9
f 537/2/149 545/2/149 544/2/149
f 538/2/150 546/2/150 545/2/150
f 539/2/151 547/2/151 546/2/151
f 540/2/152 548/2/152 547/2/152
f 541/2/153 549/2/153 548/2/153
f 542/2/154 550/2/154 549/2/154
f 543/2/155 551/2/155 550/2/155
f 536/2/156 544/2/156 551/2/156
f 5/1/132 22/1/132 21/1/132
f 24/4/323 2/4/323 23/4/323
f 553/3/149 561/3/149 560/3/149
f 554/3/150 562/3/150 561/3/150
f 555/3/151 563/3/151 562/3/151
f 556/3/152 564/3/152 563/3/152
f 557/3/153 565/3/153 564/3/153
f 558/3/154 566/3/154 565/3/154
f 559/3/155 567/3/155 566/3/155
f 552/3/156 560/3/156 567/3/156
f 544/2/13 545/2/13 546/2/13
f 546/2/13 547/2/13 544/2/13
f 547/2/13 548/2/13 544/2/13
f 548/2/13 549/2/13 550/2/13
f 550/2/13 551/2/13 548/2/13
f 560/3/13 561/3/13 564/3/13
f 561/3/13 562/3/13 564/3/13
f 562/3/13 563/3/13 564/3/13
f 564/3/13 565/3/13 566/3/13
f 566/3/13 567/3/13 564/3/13
f 569/3/149 577/3/149 576/3/149
f 570/3/150 578/3/150 577/3/150
f 571/3/151 579/3/151 578/3/151
f 572/3/152 580/3/152 579/3/152
f 573/3/153 581/3/153 580/3/153
f 574/3/154 582/3/154 581/3/154
f 575/3/155 583/3/155 582/3/155
f 568/3/156 576/3/156 583/3/156
f 76/5/9 77/5/9 78/5/9
f 78/5/9 79/5/9 76/5/9
f 79/5/9 74/5/9 76/5/9
f 571/3/9 570/3/9 575/3/9
f 570/3/9 569/3/9 575/3/9
f 569/3/9 568/3/9 575/3/9
f 575/3/9 574/3/9 573/3/9
f 573/3/9 572/3/9 575/3/9
f 576/3/13 577/3/13 580/3/13
f 577/3/13 578/3/13 580/3/13
f 578/3/13 579/3/13 580/3/13
f 580/3/13 581/3/13 582/3/13
f 582/3/13 583/3/13 580/3/13
f 585/4/149 593/4/149 592/4/149
f 586/4/150 594/4/150 593/4/150
f 587/4/151 595/4/151 594/4/151
f 588/4/152 596/4/152 595/4/152
f 589/4/153 597/4/153 596/4/153
f 590/4/154 598/4/154 597/4/154
f 591/4/155 599/4/155 598/4/155
f 584/4/156 592/4/156 599/4/156
f 601/4/149 609/4/149 608/4/149
f 601/4/150 602/4/150 610/4/150
f 603/4/151 611/4/151 610/4/151
f 604/4/152 612/4/152 611/4/152
f 604/4/153 605/4/153 613/4/153
f 606/4/154 614/4/154 613/4/154
f 607/4/155 615/4/155 614/4/155
f 600/4/156 608/4/156 615/4/156
f 617/6/149 625/6/149 624/6/149
f 618/6/150 626/6/150 625/6/150
f 619/6/151 627/6/151 626/6/151
f 620/6/152 628/6/152 627/6/152
f 621/6/153 629/6/153 628/6/153
f 622/6/154 630/6/154 629/6/154
f 623/6/155 631/6/155 630/6/155
f 616/6/156 624/6/156 631/6/156
f 633/7/149 641/7/149 640/7/149
f 634/7/150 642/7/150 641/7/150
f 635/7/151 643/7/151 642/7/151
f 636/7/152 644/7/152 643/7/152
f 637/7/153 645/7/153 644/7/153
f 638/7/154 646/7/154 645/7/154
f 639/7/155 647/7/155 646/7/155
f 632/7/156 640/7/156 647/7/156
f 649/8/149 657/8/149 656/8/149
f 650/8/150 658/8/150 657/8/150
f 651/8/151 659/8/151 658/8/151
f 652/8/152 660/8/152 659/8/152
f 653/8/153 661/8/153 660/8/153
f 654/8/154 662/8/154 661/8/154
f 655/8/155 663/8/155 662/8/155
f 648/8/156 656/8/156 663/8/156
f 664/6/149 665/6/149 673/6/149
f 666/6/150 674/6/150 673/6/150
f 667/6/151 675/6/151 674/6/151
f 668/6/152 676/6/152 675/6/152
f 669/6/153 677/6/153 676/6/153
f 670/6/154 678/6/154 677/6/154
f 671/6/155 679/6/155 678/6/155
f 664/6/156 672/6/156 679/6/156
f 680/9/158 681/9/158 721/9/158
f 682/9/206 720/9/206 721/9/206
f 683/9/207 719/9/207 720/9/207
f 684/9/161 718/9/161 719/9/161
f 684/9/324 685/9/324 717/9/324
f 685/9/325 680/9/325 716/9/325
f 693/9/164 692/9/164 686/9/164
f 693/9/165 691/9/165 690/9/165
f 694/9/166 690/9/166 689/9/166
f 695/9/193 689/9/193 688/9/193
f 697/9/208 696/9/208 688/9/208
f 692/9/169 697/9/169 687/9/169
f 699/9/326 698/9/326 692/9/326
f 700/9/327 699/9/327 693/9/327
f 701/9/172 700/9/172 694/9/172
f 701/9/328 695/9/328 696/9/328
f 702/9/303 696/9/303 697/9/303
f 703/9/174 697/9/174 692/9/174
f 704/9/175 698/9/175 699/9/175
f 705/9/176 699/9/176 700/9/176
f 707/9/177 706/9/177 700/9/177
f 708/9/178 707/9/178 701/9/178
f 709/9/179 708/9/179 702/9/179
f 709/9/180 703/9/180 698/9/180
f 711/9/181 710/9/181 704/9/181
f 711/9/182 705/9/182 706/9/182
f 712/9/183 706/9/183 707/9/183
f 713/9/329 707/9/329 708/9/329
f 715/9/330 714/9/330 708/9/330
f 710/9/186 715/9/186 709/9/186
f 716/9/187 710/9/187 711/9/187
f 717/9/188 711/9/188 712/9/188
f 719/9/189 718/9/189 712/9/189
f 720/9/190 719/9/190 713/9/190
f 721/9/191 720/9/191 714/9/191
f 721/9/192 715/9/192 710/9/192
f 722/3/158 723/3/158 763/3/158
f 724/3/206 762/3/206 763/3/206
f 725/3/207 761/3/207 762/3/207
f 726/3/161 760/3/161 761/3/161
f 726/3/324 727/3/324 759/3/324
f 727/3/325 722/3/325 758/3/325
f 735/3/164 734/3/164 728/3/164
f 735/3/165 733/3/165 732/3/165
f 736/3/166 732/3/166 731/3/166
f 737/3/193 731/3/193 730/3/193
f 739/3/208 738/3/208 730/3/208
f 734/3/169 739/3/169 729/3/169
f 741/3/326 740/3/326 734/3/326
f 45/1/331 44/1/331 38/1/331
f 743/3/172 742/3/172 736/3/172
f 743/3/328 737/3/328 738/3/328
f 742/3/195 748/3/195 747/3/195
f 741/3/327 735/3/327 742/3/327
f 735/3/171 736/3/171 742/3/171
f 745/3/174 739/3/174 734/3/174
f 746/3/196 740/3/196 741/3/196
f 748/3/197 742/3/197 743/3/197
f 750/3/198 749/3/198 743/3/198
f 746/3/199 751/3/199 745/3/199
f 753/3/200 752/3/200 746/3/200
f 753/3/201 747/3/201 748/3/201
f 754/3/202 748/3/202 749/3/202
f 755/3/332 749/3/332 750/3/332
f 757/3/204 756/3/204 750/3/204
f 752/3/205 757/3/205 751/3/205
f 758/3/187 752/3/187 753/3/187
f 759/3/188 753/3/188 754/3/188
f 761/3/189 760/3/189 754/3/189
f 762/3/190 761/3/190 755/3/190
f 763/3/191 762/3/191 756/3/191
f 763/3/192 757/3/192 752/3/192
f 764/2/158 765/2/158 805/2/158
f 766/2/206 804/2/206 805/2/206
f 767/2/207 803/2/207 804/2/207
f 768/2/161 802/2/161 803/2/161
f 768/2/324 769/2/324 801/2/324
f 769/2/325 764/2/325 800/2/325
f 777/2/164 776/2/164 770/2/164
f 777/2/165 775/2/165 774/2/165
f 778/2/166 774/2/166 773/2/166
f 779/2/193 773/2/193 772/2/193
f 781/2/208 780/2/208 772/2/208
f 776/2/169 781/2/169 771/2/169
f 783/2/170 782/2/170 776/2/170
f 784/2/171 783/2/171 777/2/171
f 785/2/172 784/2/172 778/2/172
f 785/2/328 779/2/328 780/2/328
f 786/2/303 780/2/303 781/2/303
f 787/2/174 781/2/174 776/2/174
f 788/2/209 782/2/209 783/2/209
f 789/2/333 783/2/333 784/2/333
f 790/2/211 784/2/211 785/2/211
f 792/2/212 791/2/212 785/2/212
f 793/2/334 792/2/334 786/2/334
f 788/2/214 793/2/214 787/2/214
f 795/2/215 794/2/215 788/2/215
f 796/2/335 795/2/335 789/2/335
f 796/2/217 790/2/217 791/2/217
f 797/2/218 791/2/218 792/2/218
f 798/2/219 792/2/219 793/2/219
f 794/2/220 799/2/220 793/2/220
f 800/2/336 794/2/336 795/2/336
f 801/2/188 795/2/188 796/2/188
f 803/2/189 802/2/189 796/2/189
f 804/2/190 803/2/190 797/2/190
f 805/2/191 804/2/191 798/2/191
f 805/2/192 799/2/192 794/2/192
