# Blender 5.2.2 LTS
# www.blender.org
mtllib ruins_cv_pillar_a.mtl
o piece
v -0.579782 1.231267 -0.398015
v 0.033408 -1.306700 -0.692063
v 0.183042 1.315842 -0.513967
v -0.662101 0.200663 -0.473806
v 0.723525 1.128807 0.518723
v 0.111946 -1.618959 -0.340793
v -0.723525 -1.118664 0.276126
v -0.130977 1.350682 0.683518
v -0.465186 -1.395734 0.204026
v -0.655392 -1.317254 -0.426907
v -0.667363 1.151172 0.469973
v -0.209257 0.689973 -0.641511
v -0.428132 -1.198388 0.535574
v 0.629768 -1.336660 0.432073
v 0.610259 -1.225694 -0.501609
v -0.079766 -1.351396 0.521804
v -0.032986 1.618959 -0.093753
v 0.585598 -1.561625 0.361243
v -0.368091 1.555953 0.540774
v -0.299603 1.389094 -0.495100
v 0.497920 1.041422 0.692063
v 0.442832 1.397795 0.481423
v 0.427544 -1.568740 -0.477038
v 0.441892 -0.722377 -0.638059
v 0.717766 1.207225 -0.187102
v 0.659783 0.836470 -0.455735
v -0.671489 1.357710 0.036736
v -0.548950 -1.294752 -0.561262
vn 0.2017 0.9585 0.2017
vn 0.6847 0.7249 0.0750
vn 0.2203 -0.1859 -0.9576
vn 0.1866 0.6970 0.6923
vn 0.3895 0.5125 0.7653
vn 0.2451 0.5211 0.8175
vn -0.9995 0.0230 0.0205
vn -0.4128 0.1480 0.8987
vn 0.5316 0.4409 -0.7232
vn 0.4055 0.8275 -0.3884
vn -0.0290 -0.9930 -0.1148
vn -0.7087 -0.6939 0.1273
vn -0.3290 -0.7949 0.5099
vn -0.5855 -0.6662 0.4620
vn -0.7818 -0.0227 -0.6232
vn -0.0688 -0.9736 -0.2176
vn -0.7968 0.5425 0.2662
vn -0.1193 0.9463 -0.3004
vn -0.5275 0.8326 -0.1690
vn -0.4838 0.8585 -0.1703
vn 0.1048 0.8313 -0.5458
vn -0.9955 -0.0073 -0.0944
vn -0.6663 -0.0471 0.7442
vn -0.0073 0.2041 -0.9789
vn -0.3934 0.1395 -0.9087
vn -0.4394 0.1007 -0.8926
vn -0.3719 0.0261 -0.9279
vn -0.2192 -0.0019 -0.9757
vn 0.0815 0.0351 -0.9961
vn 0.1942 0.0871 -0.9771
vn 0.1961 0.0763 -0.9776
vn 0.1338 -0.9907 -0.0240
vn -0.3662 -0.0113 0.9305
vn -0.0398 -0.0533 0.9978
vn 0.1195 0.1844 0.9756
vn 0.0834 -0.1037 0.9911
vn 0.6208 -0.0511 0.7823
vn 0.9825 -0.0195 -0.1852
vn -0.9326 -0.3468 -0.0997
vn -0.2398 -0.9411 0.2386
vn -0.1547 -0.7553 -0.6368
vn 0.1488 -0.9887 -0.0197
vn 0.9828 -0.1798 -0.0419
vn 0.8665 -0.4730 -0.1594
vn 0.1254 -0.3203 0.9390
vn 0.4749 0.8783 -0.0551
vn 0.3766 -0.1793 -0.9088
vn 0.6332 0.0020 -0.7740
vn -0.9984 0.0158 -0.0541
vn -0.9682 0.0944 -0.2317
vn 0.9990 -0.0371 -0.0253
vn 0.9990 -0.0425 -0.0129
vt 0.875000 0.875000
vt 0.375000 0.625000
vt 0.125000 0.625000
s 0
usemtl ruins_cv_pillar_a
f 19/1/1 22/1/1 17/1/1
f 22/2/2 5/2/2 25/2/2
f 15/2/3 23/2/3 24/2/3
f 19/3/4 8/3/4 22/3/4
f 5/2/5 22/2/5 21/2/5
f 21/2/6 22/2/6 8/2/6
f 7/1/7 11/1/7 27/1/7
f 19/1/8 11/1/8 8/1/8
f 26/3/9 3/3/9 25/3/9
f 3/3/10 17/3/10 25/3/10
f 2/1/11 9/1/11 10/1/11
f 10/1/12 9/1/12 7/1/12
f 16/2/13 13/2/13 9/2/13
f 13/3/14 7/3/14 9/3/14
f 4/2/15 28/2/15 10/2/15
f 2/2/16 10/2/16 28/2/16
f 11/1/17 19/1/17 27/1/17
f 1/2/18 27/2/18 19/2/18
f 19/1/19 20/1/19 1/1/19
f 20/2/20 19/2/20 17/2/20
f 17/1/21 3/1/21 20/1/21
f 7/3/22 4/3/22 10/3/22
f 11/2/23 7/2/23 13/2/23
f 3/2/24 12/2/24 20/2/24
f 20/2/25 12/2/25 1/2/25
f 1/3/26 12/3/26 4/3/26
f 12/2/27 28/2/27 4/2/27
f 2/1/28 28/1/28 12/1/28
f 2/1/29 12/1/29 24/1/29
f 12/3/30 26/3/30 24/3/30
f 3/2/31 26/2/31 12/2/31
f 16/2/32 9/2/32 2/2/32
f 11/2/33 13/2/33 8/2/33
f 13/3/34 21/3/34 8/3/34
f 16/1/35 14/1/35 13/1/35
f 13/1/36 14/1/36 21/1/36
f 5/2/37 21/2/37 14/2/37
f 15/2/38 26/2/38 25/2/38
f 16/3/39 2/3/39 6/3/39
f 16/3/40 6/3/40 18/3/40
f 2/3/41 23/3/41 6/3/41
f 18/2/42 6/2/42 23/2/42
f 14/2/43 18/2/43 15/2/43
f 23/1/44 15/1/44 18/1/44
f 14/2/45 16/2/45 18/2/45
f 17/2/46 22/2/46 25/2/46
f 2/2/47 24/2/47 23/2/47
f 26/3/48 15/3/48 24/3/48
f 27/1/49 4/1/49 7/1/49
f 4/3/50 27/3/50 1/3/50
f 15/1/51 5/1/51 14/1/51
f 15/1/52 25/1/52 5/1/52
