# Blender 5.2.2 LTS
# www.blender.org
mtllib ruins_tg_trim_a.mtl
o piece
v -2.500001 -0.225194 -0.137200
v -2.492106 -0.101141 -0.123201
v -2.500001 -0.087992 0.000001
v -2.492051 -0.101376 0.123822
v -2.500001 -0.225194 0.137205
v -2.492052 -0.349013 0.123821
v -2.500001 -0.362398 0.000001
v 2.500001 -0.322211 -0.097016
v 2.493258 -0.224170 -0.174238
v 2.493258 -0.101265 -0.122481
v 2.492171 -0.050647 0.000001
v 2.500001 -0.128177 0.097018
v 2.493256 -0.226219 0.174239
v 2.492110 -0.400032 -0.000599
v -0.000002 -0.193211 0.123956
v -0.000002 -0.281722 -0.113787
v -1.233034 -0.225194 -0.137200
v -1.233034 -0.128177 -0.097015
v -1.233034 -0.128177 0.097019
v -1.233034 -0.225194 0.137205
v -1.233034 -0.322211 0.097019
v -1.233034 -0.362398 0.000001
v -1.233034 -0.322211 -0.097015
v 1.233034 -0.362398 0.000001
v 1.233034 -0.322211 0.097018
v 1.233034 -0.225194 0.137203
v 1.233034 -0.128177 0.097018
v 1.233034 -0.087992 0.000001
v 1.233034 -0.128177 -0.097016
v 1.233034 -0.225194 -0.137202
v 1.233034 -0.322211 -0.097016
v -1.328233 -0.225194 -0.137200
v -1.328233 -0.128177 -0.097018
v -1.328233 -0.087992 0.000001
v -1.328233 -0.128177 0.097019
v -1.328449 -0.226907 0.139211
v -1.328233 -0.322211 0.097019
v -1.328233 -0.362398 0.000001
v -1.328233 -0.322211 -0.097018
v 1.328233 -0.362398 0.000001
v 1.328233 -0.322211 0.097018
v 1.328233 -0.225194 0.137203
v 1.328233 -0.087992 0.000001
v 1.328233 -0.128177 -0.097016
v 1.328233 -0.225194 -0.137202
v 1.328233 -0.322211 -0.097016
v -1.320903 -0.225194 -0.168380
v -1.320903 -0.106130 -0.119064
v -1.240266 -0.106130 -0.119064
v -1.240266 -0.225194 -0.168380
v -1.320903 -0.056812 0.000001
v -1.240266 -0.056812 0.000001
v -1.320903 -0.106130 0.119065
v -1.240266 -0.106130 0.119065
v -1.287154 -0.225195 0.168385
v -1.240266 -0.225195 0.168385
v -1.320903 -0.344259 0.119065
v -1.240266 -0.344259 0.119065
v -1.320903 -0.393577 0.000001
v -1.240266 -0.393577 0.000001
v -1.320903 -0.344259 -0.119064
v -1.240266 -0.344259 -0.119064
v 1.240263 -0.393577 0.000001
v 1.240263 -0.344259 0.119065
v 1.320903 -0.393577 0.000001
v 1.320903 -0.344259 0.119065
v 1.240263 -0.225195 0.168383
v 1.320903 -0.225195 0.168383
v 1.240263 -0.106130 0.119065
v 1.320903 -0.106130 0.119065
v 1.240263 -0.056812 0.000001
v 1.320903 -0.056812 0.000001
v 1.280037 -0.106130 -0.119064
v 1.320903 -0.106130 -0.119064
v 1.240263 -0.225194 -0.168382
v 1.320903 -0.225194 -0.168382
v 1.240263 -0.344259 -0.119064
v 1.320903 -0.344259 -0.119064
v -2.413157 -0.322211 -0.097018
v -2.413157 -0.225194 -0.137203
v -2.413157 -0.128177 -0.097018
v -2.413157 -0.087992 0.000001
v -2.413157 -0.128177 0.097019
v -2.413157 -0.225194 0.137205
v -2.413157 -0.322211 0.097019
v -2.413157 -0.362398 0.000001
v 2.413157 -0.322211 0.097018
v 2.413157 -0.225194 0.137203
v 2.413157 -0.128177 0.097018
v 2.413157 -0.087992 0.000001
v 2.413157 -0.128177 -0.097016
v 2.413157 -0.225194 -0.137202
v 2.413157 -0.322211 -0.097016
v 2.413157 -0.362398 0.000001
v -2.490486 -0.225194 -0.175680
v -2.422670 -0.225194 -0.175683
v -2.422670 -0.349420 -0.124224
v -2.492171 -0.348619 -0.123422
v -2.422670 -0.100969 -0.124227
v -2.490489 -0.049512 0.000001
v -2.456108 -0.100969 0.124229
v -2.422670 -0.225194 0.175681
v -2.490489 -0.225194 0.175681
v -2.422670 -0.349420 0.124229
v -2.422670 -0.400876 0.000001
v -2.490492 -0.400876 0.000001
v 2.422670 -0.349420 0.124227
v 2.422670 -0.225194 0.175683
v 2.493256 -0.349124 0.122481
v 2.422670 -0.100969 0.124227
v 2.490489 -0.100969 0.124227
v 2.422670 -0.049513 0.000001
v 2.422670 -0.100969 -0.124226
v 2.422670 -0.225195 -0.175681
v 2.422670 -0.349420 -0.124226
v 2.490492 -0.349420 -0.124226
v 2.422670 -0.400876 0.000001
v -1.870060 -0.086828 -0.000292
v -1.570766 -0.087992 0.000001
v -1.699419 -0.105348 -0.041903
v -1.658675 -0.100693 0.030666
v -2.036299 -0.087992 0.000001
v -1.969273 -0.097711 -0.023465
v -1.946828 -0.097771 0.023609
v -0.254891 -0.225194 0.137203
v -0.000002 -0.287283 0.111485
v 0.093455 -0.225194 0.137203
v 0.728712 -0.128177 -0.097016
v 0.991078 -0.128177 -0.097016
v 0.857716 -0.115160 -0.065589
v 0.856526 -0.151186 -0.106547
v 2.231097 -0.223023 -0.134123
v 2.202732 -0.228941 -0.134369
v 1.328163 -0.127515 0.097941
v 1.707075 -0.128177 0.097018
v 1.493210 -0.131067 0.093019
v 1.240263 -0.149436 -0.137001
v 1.238897 -0.091605 -0.081836
v -1.320903 -0.201021 0.158371
v -1.320903 -0.287732 0.142480
v -2.422307 -0.049124 0.003383
v -2.421448 -0.134553 0.136755
v 0.303056 -0.322211 -0.097016
v -0.000002 -0.332836 -0.071366
v -0.133901 -0.322211 -0.097016
v -1.233397 -0.085944 0.001001
v -0.602467 -0.102368 0.034708
v -0.277571 -0.087992 0.000001
v -0.601445 -0.097434 -0.022796
v -2.500001 0.127788 -0.097015
v -2.493172 0.224804 -0.174690
v -2.493254 0.348736 -0.122476
v -2.492108 0.399643 0.000601
v -2.500001 0.321823 0.097019
v -2.493256 0.225831 0.174237
v -2.493173 0.101279 0.123529
v -2.492110 0.049968 -0.000599
v 2.500001 0.127788 -0.097016
v 2.493258 0.225830 -0.174238
v 2.493258 0.348735 -0.122481
v 2.492171 0.399353 0.000001
v 2.500001 0.321823 0.097018
v 2.493256 0.223781 0.174239
v 2.492110 0.049968 -0.000599
v -0.000002 0.256789 0.123956
v -0.000002 0.168278 -0.113787
v -1.233034 0.224806 -0.137200
v -1.233034 0.321823 -0.097015
v -1.233034 0.321823 0.097019
v -1.233034 0.224806 0.137205
v -1.233034 0.127789 0.097019
v -1.233034 0.087602 0.000001
v -1.233034 0.127788 -0.097015
v 1.233034 0.087602 0.000001
v 1.233034 0.127789 0.097018
v 1.233034 0.224806 0.137203
v 1.233034 0.321823 0.097018
v 1.233034 0.362009 0.000001
v 1.233034 0.321823 -0.097016
v 1.233034 0.224806 -0.137202
v 1.233034 0.127788 -0.097016
v -1.328233 0.224806 -0.137200
v -1.328233 0.321823 -0.097018
v -1.328233 0.362009 0.000001
v -1.328233 0.321823 0.097019
v -1.328449 0.223094 0.139211
v -1.328233 0.127789 0.097019
v -1.328233 0.087602 0.000001
v -1.328233 0.127788 -0.097018
v 1.328233 0.087602 0.000001
v 1.328233 0.127789 0.097018
v 1.328233 0.224806 0.137203
v 1.328233 0.362009 0.000001
v 1.328233 0.321823 -0.097016
v 1.328233 0.224806 -0.137202
v 1.328233 0.127788 -0.097016
v -1.320903 0.224806 -0.168380
v -1.320903 0.343870 -0.119064
v -1.240266 0.343870 -0.119064
v -1.240266 0.224806 -0.168380
v -1.320903 0.393188 0.000001
v -1.240266 0.393188 0.000001
v -1.320903 0.343870 0.119065
v -1.240266 0.343870 0.119065
v -1.287154 0.224806 0.168385
v -1.240266 0.224806 0.168385
v -1.321749 0.112033 0.124432
v -1.240266 0.105741 0.119065
v -1.320903 0.056423 0.000001
v -1.240266 0.056423 0.000001
v -1.320903 0.105741 -0.119064
v -1.240266 0.105741 -0.119064
v 1.240263 0.056423 0.000001
v 1.240263 0.105741 0.119065
v 1.320903 0.056423 0.000001
v 1.320903 0.105741 0.119065
v 1.240263 0.224806 0.168383
v 1.320903 0.224806 0.168383
v 1.240263 0.343870 0.119065
v 1.320903 0.343870 0.119065
v 1.240263 0.393188 0.000001
v 1.320903 0.393188 0.000001
v 1.280037 0.343870 -0.119064
v 1.320903 0.343870 -0.119064
v 1.240263 0.224806 -0.168382
v 1.320903 0.224806 -0.168382
v 1.240263 0.105741 -0.119064
v 1.320903 0.105741 -0.119064
v -2.413157 0.127788 -0.097018
v -2.413157 0.224806 -0.137203
v -2.413157 0.321823 -0.097018
v -2.413157 0.362009 0.000001
v -2.413157 0.321823 0.097019
v -2.413157 0.224806 0.137205
v -2.413157 0.127789 0.097019
v -2.413157 0.087602 0.000001
v 2.413157 0.127789 0.097018
v 2.413157 0.224806 0.137203
v 2.413157 0.321823 0.097018
v 2.413157 0.362009 0.000001
v 2.413157 0.321823 -0.097016
v 2.413157 0.224806 -0.137202
v 2.413157 0.127788 -0.097016
v 2.413157 0.087602 0.000001
v -2.422670 0.224806 -0.175683
v -2.422670 0.100580 -0.124224
v -2.490492 0.100580 -0.124224
v -2.422670 0.349031 -0.124227
v -2.456108 0.349031 0.124229
v -2.490489 0.349031 0.124229
v -2.422670 0.224806 0.175681
v -2.422670 0.100580 0.124229
v -2.422670 0.049124 0.000001
v 2.422670 0.100580 0.124227
v 2.422670 0.224806 0.175683
v 2.493256 0.100876 0.122481
v 2.422670 0.349031 0.124227
v 2.490489 0.349031 0.124227
v 2.422670 0.400487 0.000001
v 2.422670 0.349031 -0.124226
v 2.422670 0.224805 -0.175681
v 2.422670 0.100580 -0.124226
v 2.490492 0.100580 -0.124226
v 2.422670 0.049124 0.000001
v -1.870060 0.363173 -0.000292
v -1.570766 0.362009 0.000001
v -1.699419 0.344652 -0.041903
v -1.658675 0.349307 0.030666
v -2.036299 0.362009 0.000001
v -1.969273 0.352289 -0.023465
v -1.946828 0.352230 0.023609
v -0.254891 0.224806 0.137203
v -0.000002 0.162717 0.111485
v 0.093455 0.224806 0.137203
v 0.728712 0.321823 -0.097016
v 0.991078 0.321823 -0.097016
v 0.857716 0.334840 -0.065589
v 0.856526 0.298814 -0.106547
v 2.231097 0.226977 -0.134123
v 2.202732 0.221059 -0.134369
v 1.328163 0.322485 0.097941
v 1.707075 0.321823 0.097018
v 1.493210 0.318933 0.093019
v 1.240263 0.300564 -0.137001
v 1.238897 0.358395 -0.081836
v -1.320903 0.248979 0.158371
v -2.422307 0.400876 0.003383
v -2.421448 0.315447 0.136755
v 0.303056 0.127788 -0.097016
v -0.000002 0.117164 -0.071366
v -0.133901 0.127788 -0.097016
v -1.233397 0.364056 0.001001
v -0.602467 0.347632 0.034708
v -0.277571 0.362009 0.000001
v -0.601445 0.352566 -0.022796
vn -0.0000 0.3827 -0.9239
vn -0.1824 -0.1292 0.9747
vn -0.0427 -0.6380 -0.7688
vn -0.0000 0.9239 0.3827
vn -1.0000 -0.0000 -0.0000
vn 0.9970 0.0737 -0.0216
vn 0.0679 -0.1311 0.9890
vn 0.0963 -0.6357 -0.7659
vn -0.0000 0.9239 -0.3827
vn -0.0000 -0.9239 0.3827
vn -0.0000 -0.9239 -0.3827
vn -0.0000 -0.3827 -0.9239
vn -0.0000 -0.3827 0.9239
vn -0.0000 0.3827 0.9239
vn -0.0011 0.3930 0.9196
vn -0.0000 -0.4048 0.9144
vn -0.0202 -0.3826 -0.9237
vn -0.9691 0.0944 -0.2278
vn 0.9699 0.0932 -0.2250
vn -0.9691 0.2278 -0.0944
vn 0.9698 0.2255 -0.0936
vn -0.9691 0.2278 0.0944
vn 0.9701 0.2236 0.0947
vn -0.5156 -0.4076 0.7537
vn 0.9699 0.0932 0.2250
vn -0.5760 -0.0276 0.8170
vn 0.9699 -0.0932 0.2250
vn -0.9691 -0.2278 0.0944
vn 0.9699 -0.2250 0.0932
vn -0.9691 -0.2278 -0.0944
vn 0.9699 -0.2250 -0.0932
vn -0.9691 -0.0944 -0.2279
vn 0.9699 -0.0932 -0.2250
vn -0.9699 -0.2249 0.0932
vn 0.9691 -0.2278 0.0944
vn -0.9699 -0.0932 0.2249
vn 0.9691 -0.0944 0.2278
vn -0.9699 0.0932 0.2249
vn 0.9691 0.0944 0.2278
vn -0.9699 0.2249 0.0932
vn 0.9676 0.2331 0.0966
vn 0.9691 0.2278 -0.0944
vn -0.3851 0.6322 -0.6723
vn 0.9691 0.0944 -0.2278
vn -0.9699 -0.0932 -0.2249
vn 0.9691 -0.0944 -0.2278
vn -0.9699 -0.2249 -0.0932
vn 0.9691 -0.2278 -0.0944
vn -0.0151 -0.3897 -0.9208
vn -0.0146 0.3894 -0.9210
vn 0.0139 0.9221 -0.3866
vn -0.0077 -0.3827 0.9239
vn -0.0000 -0.9224 0.3863
vn -0.0151 -0.9208 -0.3897
vn 0.0133 -0.3826 0.9238
vn 0.0151 0.9267 0.3756
vn 0.0133 0.9238 -0.3826
vn 0.0133 0.3826 -0.9238
vn 0.0079 -0.9239 -0.3827
vn 0.0145 -0.9240 0.3821
vn 0.9660 -0.0989 -0.2388
vn 0.9660 0.0989 -0.2388
vn -0.9669 0.0885 -0.2391
vn 0.9668 0.2361 -0.0978
vn 0.5293 0.7160 0.4552
vn -0.9670 0.2391 0.0879
vn 0.9660 -0.0989 0.2388
vn -0.9670 -0.0879 0.2391
vn 0.9660 -0.2388 0.0989
vn 0.9660 -0.2388 -0.0989
vn -0.9670 -0.2390 -0.0880
vn -0.9660 -0.0989 0.2388
vn -0.9660 0.0989 0.2388
vn -0.9660 0.2388 0.0989
vn 0.9670 0.2313 0.1068
vn -0.9660 0.2388 -0.0989
vn -0.9660 0.0989 -0.2388
vn -0.9660 -0.0989 -0.2388
vn -0.9660 -0.2388 -0.0989
vn 0.9671 -0.2308 -0.1072
vn -0.9660 -0.2388 0.0989
vn -0.1382 0.9903 0.0141
vn -0.1226 0.9907 0.0597
vn -0.0816 0.7495 -0.6569
vn 0.0853 0.7469 -0.6594
vn 0.1235 0.9907 -0.0576
vn 0.0810 0.9907 -0.1090
vn -0.0101 0.9238 -0.3827
vn -0.9099 0.2748 -0.3106
vn -0.9711 0.2252 -0.0795
vn -0.9691 -0.0944 0.2279
vn -0.0244 0.9222 0.3860
vn 0.0126 0.3864 0.9222
vn -0.0000 0.3643 -0.9313
vn -0.0350 0.9958 0.0848
vn 0.0213 0.9961 0.0858
vn 0.0018 0.9184 -0.3957
vn -0.0436 -0.9122 0.4074
vn -0.5672 -0.1422 0.8112
vn -0.9681 -0.2315 0.0959
vn -0.0000 -0.3764 -0.9265
vn -0.0245 0.3881 -0.9213
vn -0.0011 0.9241 -0.3822
vn -0.0130 -0.3826 0.9238
vn -0.0145 -0.9241 0.3819
vn -0.0000 -0.9254 -0.3789
vn -0.9677 -0.1125 -0.2256
vn -0.9677 0.1131 0.2252
vn 0.0313 -0.3825 0.9234
vn -0.0315 0.9248 0.3790
vn 0.0147 0.3758 0.9266
vn 0.0311 0.9269 0.3741
vn -0.9985 0.0390 -0.0390
vn -0.0205 0.8929 0.4498
vn -0.9949 -0.0716 0.0716
vn -0.9949 0.0716 0.0716
vn -0.9949 0.0714 -0.0714
vn -0.9949 -0.0711 -0.0711
vn 0.9985 -0.0384 0.0384
vn 0.9995 -0.0123 0.0292
vn 0.9970 -0.0744 0.0215
vn 0.9985 0.0384 -0.0384
vn 0.9995 0.0123 -0.0292
vn -0.0023 -0.3827 0.9239
vn -0.0000 -0.3718 -0.9283
vn 0.0014 -0.3827 -0.9239
vn 0.0606 -0.2503 -0.9663
vn -0.9691 0.0944 -0.2279
vn 0.9699 0.2250 -0.0932
vn 0.9681 0.2316 0.0959
vn -0.9691 -0.0944 -0.2278
vn 0.9671 0.0955 0.2358
vn 0.9693 0.2279 0.0927
vn -0.0079 0.9264 -0.3764
vn -0.0000 -0.3863 0.9224
vn -0.0077 -0.9239 0.3827
vn 0.0244 -0.3880 0.9213
vn 0.0244 0.3712 0.9282
vn 0.0151 0.9241 -0.3818
vn 0.0244 0.3880 -0.9213
vn 0.0244 -0.3712 -0.9282
vn -0.0000 -0.9255 -0.3789
vn 0.0133 -0.9238 0.3826
vn -0.9670 -0.0880 -0.2391
vn 0.9661 0.2382 -0.0995
vn -0.9671 0.2391 -0.0875
vn -0.9670 0.0879 0.2391
vn -0.9670 -0.2390 0.0879
vn 0.9676 0.1118 0.2265
vn 0.9676 -0.1118 -0.2264
vn -0.0000 0.9316 -0.3635
vn -0.0000 0.9203 -0.3913
vn -0.9699 0.0932 -0.2249
vn -0.9787 0.1895 -0.0785
vn -0.9691 0.0944 0.2279
vn -0.9653 0.1043 0.2392
vn -0.9656 -0.1071 0.2369
vn -0.0148 0.9204 0.3907
vn -0.0000 0.3946 0.9189
vn -0.0145 0.3363 0.9417
vn 0.9669 0.0896 0.2390
vn 0.9720 0.0900 0.2172
vn 0.8841 0.3961 0.2480
vn 0.9711 0.2206 0.0914
vn -0.0009 0.9103 0.4139
vn 0.0046 0.3827 -0.9239
vn -0.0111 0.3827 -0.9238
vn -0.0241 0.1567 -0.9874
vn -0.0228 0.4573 0.8890
vn 0.0357 0.3727 0.9273
vn 0.0023 0.9154 0.4026
vn -0.0027 0.9095 -0.4157
vn -0.9690 -0.2278 0.0952
vn -0.0130 -0.3827 -0.9238
vn -0.0130 0.3826 -0.9238
vn -0.0132 0.9264 -0.3763
vn -0.0244 -0.3770 0.9259
vn -0.0130 -0.9238 0.3826
vn -0.0079 -0.9239 -0.3827
vn -0.9671 0.2309 0.1072
vn -0.9671 -0.2308 -0.1072
vn -0.9794 -0.0835 0.1837
vn -0.0000 -0.3631 0.9317
vn -0.0000 0.9190 0.3943
vn -0.0131 0.3947 0.9187
vn -0.0000 0.3495 0.9370
vn -0.9970 -0.0739 0.0220
vn -0.9995 -0.0126 0.0294
vn -0.9985 -0.0389 0.0389
vn -0.9970 0.0745 -0.0215
vn -0.9995 0.0117 -0.0293
vt 0.375000 0.625000
vt 0.375000 0.875000
s 0
usemtl ruins_tg_trim_a
f 30/1/1 17/1/1 131/1/1
f 15/1/2 126/1/2 127/1/2
f 143/1/3 144/1/3 16/1/3
f 90/1/4 43/1/4 135/1/4
f 5/1/5 3/1/5 1/1/5
f 10/1/6 11/1/6 12/1/6
f 160/1/6 161/1/6 162/1/6
f 125/1/7 126/1/7 15/1/7
f 144/1/8 145/1/8 16/1/8
f 48/2/1 50/2/1 47/2/1
f 51/2/9 49/2/9 48/2/9
f 53/2/4 52/2/4 51/2/4
f 59/2/10 58/2/10 57/2/10
f 59/2/11 62/2/11 60/2/11
f 47/2/12 62/2/12 61/2/12
f 63/2/10 66/2/10 64/2/10
f 64/2/13 68/2/13 67/2/13
f 67/2/14 70/2/14 69/2/14
f 69/2/4 72/2/4 71/2/4
f 75/2/12 78/2/12 77/2/12
f 77/2/11 65/2/11 63/2/11
f 32/1/1 81/1/1 33/1/1
f 126/1/13 21/1/13 25/1/13
f 21/1/10 24/1/10 25/1/10
f 35/1/15 84/1/15 36/1/15
f 36/1/16 85/1/16 37/1/16
f 37/1/10 86/1/10 38/1/10
f 38/1/11 79/1/11 39/1/11
f 79/1/12 32/1/12 39/1/12
f 87/1/10 40/1/10 94/1/10
f 41/1/13 88/1/13 42/1/13
f 43/1/9 91/1/9 44/1/9
f 279/1/17 242/1/17 243/1/17
f 46/1/11 94/1/11 40/1/11
f 33/2/18 47/2/18 32/2/18
f 17/2/19 49/2/19 18/2/19
f 34/2/20 48/2/20 33/2/20
f 18/2/21 52/2/21 146/2/21
f 34/2/22 53/2/22 51/2/22
f 146/2/23 54/2/23 19/2/23
f 139/2/24 36/2/24 55/2/24
f 19/2/25 56/2/25 20/2/25
f 36/2/26 140/2/26 55/2/26
f 21/2/27 56/2/27 58/2/27
f 38/2/28 57/2/28 37/2/28
f 22/2/29 58/2/29 60/2/29
f 38/2/30 61/2/30 59/2/30
f 23/2/31 60/2/31 62/2/31
f 39/2/32 47/2/32 61/2/32
f 17/2/33 62/2/33 50/2/33
f 24/2/34 64/2/34 25/2/34
f 40/2/35 66/2/35 65/2/35
f 25/2/36 67/2/36 26/2/36
f 41/2/37 68/2/37 66/2/37
f 26/2/38 69/2/38 27/2/38
f 42/2/39 70/2/39 68/2/39
f 27/2/40 71/2/40 28/2/40
f 134/2/41 72/2/41 70/2/41
f 44/2/42 72/2/42 43/2/42
f 137/2/43 138/2/43 73/2/43
f 45/2/44 74/2/44 44/2/44
f 30/2/45 77/2/45 31/2/45
f 46/2/46 76/2/46 45/2/46
f 24/2/47 77/2/47 63/2/47
f 40/2/48 78/2/48 46/2/48
f 95/2/49 97/2/49 98/2/49
f 99/2/50 95/2/50 2/2/50
f 141/2/51 2/2/51 100/2/51
f 102/2/52 6/2/52 104/2/52
f 105/2/53 6/2/53 106/2/53
f 97/2/54 106/2/54 98/2/54
f 107/2/55 13/2/55 108/2/55
f 108/2/14 111/2/14 110/2/14
f 112/2/56 111/2/56 11/2/56
f 112/2/57 10/2/57 113/2/57
f 113/2/58 9/2/58 114/2/58
f 114/2/12 116/2/12 115/2/12
f 115/2/59 14/2/59 117/2/59
f 109/2/60 117/2/60 14/2/60
f 79/2/61 96/2/61 80/2/61
f 80/2/62 99/2/62 81/2/62
f 1/2/63 2/2/63 95/2/63
f 81/2/64 141/2/64 82/2/64
f 142/2/65 141/2/65 101/2/65
f 4/2/66 100/2/66 3/2/66
f 85/2/67 102/2/67 104/2/67
f 6/2/68 103/2/68 5/2/68
f 85/2/69 105/2/69 86/2/69
f 86/2/70 97/2/70 79/2/70
f 98/2/71 106/2/71 7/2/71
f 88/2/72 107/2/72 108/2/72
f 88/2/73 110/2/73 89/2/73
f 89/2/74 112/2/74 90/2/74
f 12/2/75 11/2/75 111/2/75
f 91/2/76 112/2/76 113/2/76
f 92/2/77 113/2/77 114/2/77
f 93/2/78 114/2/78 115/2/78
f 93/2/79 117/2/79 94/2/79
f 8/2/80 14/2/80 116/2/80
f 87/2/81 117/2/81 107/2/81
f 120/1/82 121/1/82 119/1/82
f 123/1/83 124/1/83 118/1/83
f 132/1/17 92/1/17 93/1/17
f 273/1/13 171/1/13 175/1/13
f 129/1/84 131/1/84 130/1/84
f 130/1/85 131/1/85 128/1/85
f 122/1/86 124/1/86 123/1/86
f 118/1/87 121/1/87 120/1/87
f 138/2/88 72/2/88 74/2/88
f 137/2/1 74/2/1 76/2/1
f 29/2/89 138/2/89 137/2/89
f 28/2/90 71/2/90 138/2/90
f 37/2/91 57/2/91 140/2/91
f 140/2/13 58/2/13 56/2/13
f 55/2/14 56/2/14 54/2/14
f 141/2/92 100/2/92 4/2/92
f 142/2/93 4/2/93 103/2/93
f 35/1/4 121/1/4 124/1/4
f 44/1/94 91/1/94 132/1/94
f 289/1/11 181/1/11 174/1/11
f 148/1/95 149/1/95 147/1/95
f 147/1/96 149/1/96 146/1/96
f 143/1/11 31/1/11 24/1/11
f 292/1/97 295/1/97 168/1/97
f 165/1/2 273/1/2 274/1/2
f 81/1/9 123/1/9 120/1/9
f 289/1/3 290/1/3 166/1/3
f 165/1/14 169/1/14 272/1/14
f 171/1/10 174/1/10 175/1/10
f 272/1/7 273/1/7 165/1/7
f 290/1/8 291/1/8 166/1/8
f 198/2/1 200/2/1 197/2/1
f 201/2/9 199/2/9 198/2/9
f 203/2/4 202/2/4 201/2/4
f 209/2/98 208/2/98 207/2/98
f 209/2/11 212/2/11 210/2/11
f 197/2/12 212/2/12 211/2/12
f 213/2/10 216/2/10 214/2/10
f 214/2/13 218/2/13 217/2/13
f 217/2/14 220/2/14 219/2/14
f 219/2/4 222/2/4 221/2/4
f 225/2/12 228/2/12 227/2/12
f 227/2/11 215/2/11 213/2/11
f 182/1/1 231/1/1 183/1/1
f 185/1/15 234/1/15 186/1/15
f 186/1/16 235/1/16 187/1/16
f 187/1/10 236/1/10 188/1/10
f 188/1/11 229/1/11 189/1/11
f 230/1/12 189/1/12 229/1/12
f 237/1/10 190/1/10 244/1/10
f 191/1/13 238/1/13 192/1/13
f 193/1/9 241/1/9 194/1/9
f 129/1/9 130/1/9 28/1/9
f 196/1/11 244/1/11 190/1/11
f 183/2/18 197/2/18 182/2/18
f 167/2/19 199/2/19 168/2/19
f 184/2/20 198/2/20 183/2/20
f 168/2/21 202/2/21 292/2/21
f 184/2/22 203/2/22 201/2/22
f 292/2/23 204/2/23 169/2/23
f 286/2/24 186/2/24 205/2/24
f 169/2/25 206/2/25 170/2/25
f 186/2/99 207/2/99 205/2/99
f 171/2/27 206/2/27 208/2/27
f 188/2/100 207/2/100 187/2/100
f 172/2/29 208/2/29 210/2/29
f 188/2/30 211/2/30 209/2/30
f 173/2/31 210/2/31 212/2/31
f 189/2/32 197/2/32 211/2/32
f 167/2/33 212/2/33 200/2/33
f 174/2/34 214/2/34 175/2/34
f 190/2/35 216/2/35 215/2/35
f 175/2/36 217/2/36 176/2/36
f 191/2/37 218/2/37 216/2/37
f 176/2/38 219/2/38 177/2/38
f 192/2/39 220/2/39 218/2/39
f 177/2/40 221/2/40 178/2/40
f 281/2/41 222/2/41 220/2/41
f 194/2/42 222/2/42 193/2/42
f 284/2/43 285/2/43 223/2/43
f 195/2/44 224/2/44 194/2/44
f 180/2/45 227/2/45 181/2/45
f 196/2/46 226/2/46 195/2/46
f 174/2/47 227/2/47 213/2/47
f 190/2/48 228/2/48 196/2/48
f 151/2/101 246/2/101 247/2/101
f 248/2/102 151/2/102 152/2/102
f 287/2/103 152/2/103 153/2/103
f 251/2/104 156/2/104 252/2/104
f 253/2/105 156/2/105 157/2/105
f 246/2/106 157/2/106 247/2/106
f 254/2/55 163/2/55 255/2/55
f 255/2/14 258/2/14 257/2/14
f 259/2/56 258/2/56 161/2/56
f 259/2/57 160/2/57 260/2/57
f 260/2/58 159/2/58 261/2/58
f 261/2/12 263/2/12 262/2/12
f 262/2/59 164/2/59 264/2/59
f 256/2/60 264/2/60 164/2/60
f 229/2/61 245/2/61 230/2/61
f 151/2/107 247/2/107 150/2/107
f 231/2/62 245/2/62 248/2/62
f 231/2/64 287/2/64 232/2/64
f 288/2/65 287/2/65 249/2/65
f 154/2/108 155/2/108 250/2/108
f 235/2/67 251/2/67 252/2/67
f 235/2/69 253/2/69 236/2/69
f 236/2/70 246/2/70 229/2/70
f 238/2/72 254/2/72 255/2/72
f 238/2/73 257/2/73 239/2/73
f 239/2/74 259/2/74 240/2/74
f 162/2/75 161/2/75 258/2/75
f 241/2/76 259/2/76 260/2/76
f 242/2/77 260/2/77 261/2/77
f 242/2/78 262/2/78 243/2/78
f 243/2/79 264/2/79 244/2/79
f 158/2/80 164/2/80 263/2/80
f 237/2/81 264/2/81 254/2/81
f 267/1/82 268/1/82 266/1/82
f 270/1/83 271/1/83 265/1/83
f 276/1/84 278/1/84 277/1/84
f 277/1/85 278/1/85 275/1/85
f 269/1/86 271/1/86 270/1/86
f 265/1/87 268/1/87 267/1/87
f 285/2/88 222/2/88 224/2/88
f 284/2/1 224/2/1 226/2/1
f 179/2/89 285/2/89 284/2/89
f 178/2/90 221/2/90 285/2/90
f 207/2/109 208/2/109 206/2/109
f 205/2/14 206/2/14 204/2/14
f 287/2/110 153/2/110 250/2/110
f 288/2/111 250/2/111 155/2/111
f 271/1/4 185/1/4 268/1/4
f 231/1/9 270/1/9 267/1/9
f 15/1/14 19/1/14 125/1/14
f 283/1/112 193/1/112 281/1/112
f 194/1/94 241/1/94 279/1/94
f 16/1/12 145/1/12 17/1/12
f 166/1/12 291/1/12 167/1/12
f 294/1/95 295/1/95 293/1/95
f 293/1/96 295/1/96 292/1/96
f 151/1/113 150/1/113 154/1/113
f 278/1/1 167/1/1 275/1/1
f 18/1/1 128/1/1 17/1/1
f 128/1/1 131/1/1 17/1/1
f 131/1/1 129/1/1 30/1/1
f 129/1/1 29/1/1 30/1/1
f 136/1/114 135/1/114 43/1/114
f 135/1/4 89/1/4 90/1/4
f 43/1/112 134/1/112 136/1/112
f 7/1/115 6/1/115 5/1/115
f 5/1/116 4/1/116 3/1/116
f 3/1/117 2/1/117 1/1/117
f 1/1/118 98/1/118 7/1/118
f 7/1/5 5/1/5 1/1/5
f 12/1/119 13/1/119 8/1/119
f 13/1/120 109/1/120 8/1/120
f 109/1/121 14/1/121 8/1/121
f 8/1/122 9/1/122 12/1/122
f 9/1/123 10/1/123 12/1/123
f 162/1/119 163/1/119 158/1/119
f 163/1/120 256/1/120 158/1/120
f 256/1/121 164/1/121 158/1/121
f 158/1/122 159/1/122 162/1/122
f 159/1/123 160/1/123 162/1/123
f 48/2/1 49/2/1 50/2/1
f 51/2/9 52/2/9 49/2/9
f 53/2/4 54/2/4 52/2/4
f 59/2/10 60/2/10 58/2/10
f 59/2/11 61/2/11 62/2/11
f 47/2/12 50/2/12 62/2/12
f 63/2/10 65/2/10 66/2/10
f 64/2/13 66/2/13 68/2/13
f 67/2/14 68/2/14 70/2/14
f 69/2/4 70/2/4 72/2/4
f 75/2/12 76/2/12 78/2/12
f 77/2/11 78/2/11 65/2/11
f 32/1/1 80/1/1 81/1/1
f 26/1/13 127/1/13 25/1/13
f 127/1/13 126/1/13 25/1/13
f 126/1/13 125/1/13 21/1/13
f 125/1/13 20/1/13 21/1/13
f 21/1/10 22/1/10 24/1/10
f 35/1/14 83/1/14 84/1/14
f 36/1/124 84/1/124 85/1/124
f 37/1/10 85/1/10 86/1/10
f 38/1/11 86/1/11 79/1/11
f 79/1/12 80/1/12 32/1/12
f 87/1/10 41/1/10 40/1/10
f 41/1/13 87/1/13 88/1/13
f 43/1/9 90/1/9 91/1/9
f 243/1/125 196/1/125 280/1/125
f 196/1/126 195/1/126 280/1/126
f 280/1/127 279/1/127 243/1/127
f 46/1/11 93/1/11 94/1/11
f 33/2/128 48/2/128 47/2/128
f 17/2/19 50/2/19 49/2/19
f 34/2/20 51/2/20 48/2/20
f 18/2/129 49/2/129 52/2/129
f 34/2/22 35/2/22 53/2/22
f 146/2/130 52/2/130 54/2/130
f 19/2/25 54/2/25 56/2/25
f 21/2/27 20/2/27 56/2/27
f 38/2/28 59/2/28 57/2/28
f 22/2/29 21/2/29 58/2/29
f 38/2/30 39/2/30 61/2/30
f 23/2/31 22/2/31 60/2/31
f 39/2/131 32/2/131 47/2/131
f 17/2/33 23/2/33 62/2/33
f 24/2/34 63/2/34 64/2/34
f 40/2/35 41/2/35 66/2/35
f 25/2/36 64/2/36 67/2/36
f 41/2/37 42/2/37 68/2/37
f 26/2/38 67/2/38 69/2/38
f 42/2/132 134/2/132 70/2/132
f 27/2/40 69/2/40 71/2/40
f 134/2/133 43/2/133 72/2/133
f 44/2/42 74/2/42 72/2/42
f 45/2/44 76/2/44 74/2/44
f 30/2/45 75/2/45 77/2/45
f 46/2/46 78/2/46 76/2/46
f 24/2/47 31/2/47 77/2/47
f 40/2/48 65/2/48 78/2/48
f 95/2/12 96/2/12 97/2/12
f 99/2/1 96/2/1 95/2/1
f 141/2/134 99/2/134 2/2/134
f 102/2/135 103/2/135 6/2/135
f 105/2/136 104/2/136 6/2/136
f 97/2/11 105/2/11 106/2/11
f 107/2/137 109/2/137 13/2/137
f 108/2/138 13/2/138 111/2/138
f 112/2/4 110/2/4 111/2/4
f 112/2/139 11/2/139 10/2/139
f 113/2/140 10/2/140 9/2/140
f 114/2/141 9/2/141 116/2/141
f 115/2/142 116/2/142 14/2/142
f 109/2/143 107/2/143 117/2/143
f 79/2/61 97/2/61 96/2/61
f 1/2/144 95/2/144 98/2/144
f 80/2/62 96/2/62 99/2/62
f 81/2/145 99/2/145 141/2/145
f 2/2/146 3/2/146 100/2/146
f 4/2/147 5/2/147 103/2/147
f 85/2/67 84/2/67 102/2/67
f 85/2/69 104/2/69 105/2/69
f 6/2/148 7/2/148 106/2/148
f 86/2/70 105/2/70 97/2/70
f 88/2/72 87/2/72 107/2/72
f 88/2/73 108/2/73 110/2/73
f 13/2/149 12/2/149 111/2/149
f 89/2/74 110/2/74 112/2/74
f 91/2/76 90/2/76 112/2/76
f 92/2/77 91/2/77 113/2/77
f 93/2/78 92/2/78 114/2/78
f 8/2/150 116/2/150 9/2/150
f 93/2/79 115/2/79 117/2/79
f 87/2/81 94/2/81 117/2/81
f 93/1/125 46/1/125 133/1/125
f 46/1/126 45/1/126 133/1/126
f 133/1/127 132/1/127 93/1/127
f 176/1/13 274/1/13 175/1/13
f 274/1/13 273/1/13 175/1/13
f 273/1/13 272/1/13 171/1/13
f 272/1/13 170/1/13 171/1/13
f 74/2/151 73/2/151 138/2/151
f 138/2/152 71/2/152 72/2/152
f 76/2/1 75/2/1 137/2/1
f 137/2/1 73/2/1 74/2/1
f 75/2/153 30/2/153 137/2/153
f 30/2/153 29/2/153 137/2/153
f 29/2/154 28/2/154 138/2/154
f 53/2/155 35/2/155 139/2/155
f 35/2/156 36/2/156 139/2/156
f 36/2/157 37/2/157 140/2/157
f 56/2/13 55/2/13 140/2/13
f 140/2/13 57/2/13 58/2/13
f 54/2/14 53/2/14 139/2/14
f 139/2/14 55/2/14 54/2/14
f 4/2/158 101/2/158 141/2/158
f 103/2/159 102/2/159 142/2/159
f 142/2/160 101/2/160 4/2/160
f 102/2/161 84/2/161 142/2/161
f 84/2/162 83/2/162 142/2/162
f 142/2/163 83/2/163 141/2/163
f 83/2/164 82/2/164 141/2/164
f 82/1/4 83/1/4 122/1/4
f 83/1/4 35/1/4 124/1/4
f 35/1/4 34/1/4 119/1/4
f 121/1/165 118/1/165 124/1/165
f 35/1/4 119/1/4 121/1/4
f 124/1/4 122/1/4 83/1/4
f 133/1/166 45/1/166 44/1/166
f 91/1/167 92/1/167 132/1/167
f 132/1/168 133/1/168 44/1/168
f 42/1/14 88/1/14 135/1/14
f 88/1/14 89/1/14 135/1/14
f 42/1/169 135/1/169 136/1/169
f 136/1/170 134/1/170 42/1/170
f 174/1/11 172/1/11 290/1/11
f 172/1/11 173/1/11 291/1/11
f 290/1/11 172/1/11 291/1/11
f 290/1/11 289/1/11 174/1/11
f 24/1/11 22/1/11 144/1/11
f 22/1/11 23/1/11 145/1/11
f 144/1/11 22/1/11 145/1/11
f 144/1/11 143/1/11 24/1/11
f 19/1/4 27/1/4 147/1/4
f 27/1/4 28/1/4 148/1/4
f 147/1/4 27/1/4 148/1/4
f 147/1/171 146/1/171 19/1/171
f 295/1/9 294/1/9 275/1/9
f 294/1/9 178/1/9 277/1/9
f 178/1/9 179/1/9 276/1/9
f 277/1/9 275/1/9 294/1/9
f 275/1/9 168/1/9 295/1/9
f 178/1/9 276/1/9 277/1/9
f 169/1/4 177/1/4 293/1/4
f 177/1/4 178/1/4 294/1/4
f 293/1/4 177/1/4 294/1/4
f 293/1/171 292/1/171 169/1/171
f 33/1/9 81/1/9 120/1/9
f 81/1/9 82/1/9 122/1/9
f 123/1/9 81/1/9 122/1/9
f 120/1/9 119/1/9 33/1/9
f 119/1/9 34/1/9 33/1/9
f 123/1/172 118/1/172 120/1/172
f 165/1/14 274/1/14 177/1/14
f 274/1/14 176/1/14 177/1/14
f 177/1/14 169/1/14 165/1/14
f 169/1/14 170/1/14 272/1/14
f 171/1/10 172/1/10 174/1/10
f 198/2/1 199/2/1 200/2/1
f 201/2/9 202/2/9 199/2/9
f 203/2/4 204/2/4 202/2/4
f 209/2/10 210/2/10 208/2/10
f 209/2/11 211/2/11 212/2/11
f 197/2/12 200/2/12 212/2/12
f 213/2/10 215/2/10 216/2/10
f 214/2/13 216/2/13 218/2/13
f 217/2/14 218/2/14 220/2/14
f 219/2/4 220/2/4 222/2/4
f 225/2/12 226/2/12 228/2/12
f 227/2/11 228/2/11 215/2/11
f 182/1/1 230/1/1 231/1/1
f 185/1/14 233/1/14 234/1/14
f 186/1/124 234/1/124 235/1/124
f 187/1/10 235/1/10 236/1/10
f 188/1/11 236/1/11 229/1/11
f 230/1/12 182/1/12 189/1/12
f 237/1/10 191/1/10 190/1/10
f 191/1/13 237/1/13 238/1/13
f 193/1/9 240/1/9 241/1/9
f 130/1/9 128/1/9 148/1/9
f 128/1/9 18/1/9 149/1/9
f 149/1/9 148/1/9 128/1/9
f 148/1/9 28/1/9 130/1/9
f 18/1/97 146/1/97 149/1/97
f 29/1/9 129/1/9 28/1/9
f 196/1/11 243/1/11 244/1/11
f 183/2/128 198/2/128 197/2/128
f 167/2/19 200/2/19 199/2/19
f 184/2/20 201/2/20 198/2/20
f 168/2/129 199/2/129 202/2/129
f 184/2/22 185/2/22 203/2/22
f 292/2/130 202/2/130 204/2/130
f 169/2/25 204/2/25 206/2/25
f 171/2/27 170/2/27 206/2/27
f 188/2/173 209/2/173 207/2/173
f 172/2/29 171/2/29 208/2/29
f 188/2/30 189/2/30 211/2/30
f 173/2/31 172/2/31 210/2/31
f 189/2/131 182/2/131 197/2/131
f 167/2/33 173/2/33 212/2/33
f 174/2/34 213/2/34 214/2/34
f 190/2/35 191/2/35 216/2/35
f 175/2/36 214/2/36 217/2/36
f 191/2/37 192/2/37 218/2/37
f 176/2/38 217/2/38 219/2/38
f 192/2/132 281/2/132 220/2/132
f 177/2/40 219/2/40 221/2/40
f 281/2/133 193/2/133 222/2/133
f 194/2/42 224/2/42 222/2/42
f 195/2/44 226/2/44 224/2/44
f 180/2/45 225/2/45 227/2/45
f 196/2/46 228/2/46 226/2/46
f 174/2/47 181/2/47 227/2/47
f 190/2/48 215/2/48 228/2/48
f 151/2/174 245/2/174 246/2/174
f 248/2/175 245/2/175 151/2/175
f 287/2/176 248/2/176 152/2/176
f 251/2/177 155/2/177 156/2/177
f 253/2/178 252/2/178 156/2/178
f 246/2/179 253/2/179 157/2/179
f 254/2/137 256/2/137 163/2/137
f 255/2/138 163/2/138 258/2/138
f 259/2/4 257/2/4 258/2/4
f 259/2/139 161/2/139 160/2/139
f 260/2/140 160/2/140 159/2/140
f 261/2/141 159/2/141 263/2/141
f 262/2/142 263/2/142 164/2/142
f 256/2/143 254/2/143 264/2/143
f 229/2/61 246/2/61 245/2/61
f 231/2/62 230/2/62 245/2/62
f 231/2/145 248/2/145 287/2/145
f 154/2/180 250/2/180 153/2/180
f 235/2/67 234/2/67 251/2/67
f 235/2/69 252/2/69 253/2/69
f 236/2/70 253/2/70 246/2/70
f 150/2/181 247/2/181 157/2/181
f 238/2/72 237/2/72 254/2/72
f 238/2/73 255/2/73 257/2/73
f 163/2/149 162/2/149 258/2/149
f 239/2/74 257/2/74 259/2/74
f 241/2/76 240/2/76 259/2/76
f 242/2/77 241/2/77 260/2/77
f 242/2/78 261/2/78 262/2/78
f 159/2/150 158/2/150 263/2/150
f 243/2/79 262/2/79 264/2/79
f 237/2/81 244/2/81 264/2/81
f 224/2/151 223/2/151 285/2/151
f 285/2/152 221/2/152 222/2/152
f 226/2/1 225/2/1 284/2/1
f 284/2/1 223/2/1 224/2/1
f 225/2/153 180/2/153 284/2/153
f 180/2/153 179/2/153 284/2/153
f 179/2/154 178/2/154 285/2/154
f 203/2/155 185/2/155 286/2/155
f 185/2/156 186/2/156 286/2/156
f 186/2/182 187/2/182 207/2/182
f 206/2/183 205/2/183 207/2/183
f 204/2/14 203/2/14 286/2/14
f 286/2/14 205/2/14 204/2/14
f 250/2/184 249/2/184 287/2/184
f 155/2/185 251/2/185 288/2/185
f 288/2/186 249/2/186 250/2/186
f 251/2/161 234/2/161 288/2/161
f 234/2/162 233/2/162 288/2/162
f 288/2/163 233/2/163 287/2/163
f 233/2/164 232/2/164 287/2/164
f 192/1/14 238/1/14 282/1/14
f 238/1/14 239/1/14 282/1/14
f 192/1/169 282/1/169 283/1/169
f 283/1/170 281/1/170 192/1/170
f 271/1/4 269/1/4 233/1/4
f 269/1/4 232/1/4 233/1/4
f 233/1/4 185/1/4 271/1/4
f 185/1/4 184/1/4 266/1/4
f 268/1/165 265/1/165 271/1/165
f 185/1/4 266/1/4 268/1/4
f 183/1/9 231/1/9 267/1/9
f 231/1/9 232/1/9 269/1/9
f 270/1/9 231/1/9 269/1/9
f 267/1/9 266/1/9 183/1/9
f 266/1/9 184/1/9 183/1/9
f 270/1/172 265/1/172 267/1/172
f 15/1/14 127/1/14 27/1/14
f 127/1/14 26/1/14 27/1/14
f 27/1/14 19/1/14 15/1/14
f 19/1/14 20/1/14 125/1/14
f 283/1/114 282/1/114 193/1/114
f 282/1/4 239/1/4 240/1/4
f 240/1/4 193/1/4 282/1/4
f 241/1/167 242/1/167 279/1/167
f 279/1/168 280/1/168 194/1/168
f 280/1/166 195/1/166 194/1/166
f 145/1/12 23/1/12 17/1/12
f 17/1/12 30/1/12 16/1/12
f 30/1/12 31/1/12 143/1/12
f 16/1/12 30/1/12 143/1/12
f 291/1/12 173/1/12 167/1/12
f 167/1/12 180/1/12 166/1/12
f 180/1/12 181/1/12 289/1/12
f 166/1/12 180/1/12 289/1/12
f 150/1/187 157/1/187 156/1/187
f 156/1/188 155/1/188 150/1/188
f 155/1/189 154/1/189 150/1/189
f 154/1/190 153/1/190 152/1/190
f 152/1/191 151/1/191 154/1/191
f 278/1/1 276/1/1 180/1/1
f 276/1/1 179/1/1 180/1/1
f 180/1/1 167/1/1 278/1/1
f 167/1/1 168/1/1 275/1/1
