# Blender 5.2.2 LTS
# www.blender.org
mtllib ruins_cv_floor_b.mtl
o piece
v -1.525708 1.937911 -0.343689
v -2.219389 1.221721 -0.377316
v 1.673792 1.230722 -0.326376
v 0.721394 1.532935 0.127841
v 1.760840 0.181951 0.287857
v -1.207180 0.599252 0.176559
v -0.261310 1.971940 -0.098324
v -2.077310 -0.318892 0.042036
v 1.971007 -0.152519 0.151207
v -0.241333 2.500000 -0.390211
v 1.707519 -1.787521 0.045146
v 2.500000 -0.203113 -0.310103
v 1.568676 -0.226899 0.298725
v 2.022725 0.822791 -0.324119
v 0.564659 -1.042620 0.073051
v -0.081266 2.112866 -0.138233
v 1.107795 1.878726 -0.343311
v 1.063657 -1.826645 -0.012816
v 1.322393 -1.882144 -0.251537
v -1.872253 -0.568009 0.275853
v 1.784310 -1.256151 0.076820
v -0.374513 -1.580363 -0.238302
v -2.018350 -1.507175 -0.060902
v -1.133954 -1.660095 0.020603
v -0.254546 -1.009909 -0.035595
v 0.075372 0.324060 0.095396
v 0.783587 0.367981 0.381680
v 1.529535 -1.138622 0.132506
v -2.322166 -0.265383 -0.046309
v 0.873930 2.123743 -0.359964
v -0.747290 0.470055 0.147935
v -2.087485 -1.217616 -0.063393
v -1.911430 0.003484 0.119686
v 1.272362 -1.421042 0.084176
v -1.513381 0.715131 0.162353
v 0.951668 2.014825 -0.116842
v 0.962676 -1.310614 0.170254
v 1.302258 -0.169579 0.415592
v 1.252990 -0.457489 0.316778
v -1.356112 -0.965451 0.149010
v 1.522450 0.311938 0.314085
v 1.330331 1.560528 -0.326523
v 1.193445 -0.830304 0.345822
v -1.433482 1.920120 -0.346081
v -1.882002 1.817839 -0.339761
v -0.590570 -0.331406 0.114794
v 0.019300 2.377916 -0.389492
v -1.864153 0.262820 0.165591
v 0.264303 2.450544 -0.386216
v -0.343025 1.414284 0.022217
v 2.308944 0.503971 -0.314583
v 0.411038 1.500015 0.084795
v -1.957355 0.642748 0.048031
v 1.984522 0.068104 0.165908
v -1.841837 -1.722444 0.057452
v 0.143305 -1.929973 -0.052351
v -0.247251 1.291227 -0.004436
v -2.048563 1.582500 -0.348338
v 0.516077 -0.734825 0.082045
v 0.105918 1.269948 0.033021
v -0.561088 -0.071179 0.139316
v 0.494029 -2.127667 -0.028549
v -0.217310 1.467525 0.054312
v 0.105012 -0.264661 0.124419
v -0.013870 -0.254827 0.036496
v -1.540592 -0.867076 0.304398
v 2.028257 -0.180783 0.099597
v -0.869442 -0.587431 0.129343
v 2.317527 0.015930 -0.050814
v 0.985549 1.775530 -0.029273
v 0.037384 0.551271 0.131019
v -1.066570 -0.821142 0.157093
v 0.194303 -0.547642 0.007402
v 0.889642 1.041056 0.257622
v 0.546225 1.088776 0.131556
v 1.227948 0.900939 0.393354
v -0.342590 1.076054 0.023472
v -1.651118 -2.015707 0.006629
v 0.923344 1.541920 0.081784
v 1.928316 0.767347 -0.070646
v 0.352546 0.694003 0.147475
v -0.651663 -0.722957 0.157733
v 0.558541 0.917438 0.164411
v -1.144849 2.328911 -0.360366
v -2.171511 -0.606734 -0.038789
v 1.234187 -0.251246 0.313097
v -1.695918 -1.032898 0.149057
v -0.571052 0.902029 0.113143
v 0.089857 0.758074 0.117233
v -0.345929 0.062759 0.092100
v -0.394271 1.596149 -0.020512
v -0.097843 -0.733422 -0.040740
v 1.724136 1.004088 -0.024046
v 1.484751 -0.047666 0.400365
v -0.301828 2.168886 -0.136367
v -2.134474 -1.112379 -0.039260
v 2.231600 0.324348 -0.057010
v 1.407370 0.696472 0.313615
v -0.686352 2.448270 -0.120668
v 1.755462 0.043485 0.282636
v 1.807789 -0.386294 0.258549
v -2.380574 0.603410 -0.039609
v 1.520265 0.599411 0.337214
v 1.574180 -0.041328 0.275257
v 1.718542 -0.098220 0.237507
v -1.083374 1.624342 -0.008181
v 1.375792 -0.998715 0.229838
v 1.006883 0.044326 0.500000
v -1.640293 0.542800 0.155553
v 1.379172 -0.795961 0.299988
v 2.083755 -0.334384 0.112513
v -2.284020 1.108085 -0.154501
v 2.360089 -0.469798 0.056777
v 1.408747 1.360608 0.006145
v 0.411111 0.370994 0.307319
v 0.173900 -1.471449 0.064149
v -2.293481 -0.607787 -0.214299
v -1.671262 -0.901792 0.296197
v -1.595554 0.546739 0.190634
v 1.368225 0.845635 0.270326
v 1.881615 -0.143316 0.188117
v 2.096173 -0.780965 0.080998
v -1.941303 -1.107096 0.144848
v -1.169274 1.374475 0.062177
v -1.985777 1.628874 -0.056917
v 1.580805 -1.087460 0.217405
v -1.789039 -0.182663 0.307079
v 0.890584 1.285045 0.189890
v -1.668666 0.961308 0.140749
v 1.399799 1.324302 0.120510
v 0.706446 1.937712 0.061449
v 1.135323 -0.087686 0.348096
v -0.567486 2.002118 -0.058426
v 2.113368 0.150519 0.072917
v 0.851427 -0.734420 0.282495
v 1.359459 1.518040 0.014045
v -0.844672 2.421050 -0.116805
v 0.057097 1.356466 0.048256
v -1.960183 -0.704973 0.237436
v 1.542784 -0.694852 0.275418
v -0.726850 1.783861 0.004425
v -0.067756 1.725023 0.034315
v -0.503628 0.412081 0.118857
v -0.950938 0.516393 0.212529
v 1.495966 -0.326412 0.406370
v -0.483667 -0.493867 0.120991
v 0.245248 0.023070 0.240853
v 1.108416 0.331473 0.417096
v 0.721151 -0.422600 0.341751
v 1.319002 -0.401032 0.288219
v -1.775988 -0.579423 0.309382
v -2.074751 -0.978380 0.079110
v -2.110927 1.010239 -0.008700
v 0.744117 1.627208 0.132915
v 0.709793 -0.169111 0.398294
v 1.154707 1.057492 0.287805
v -1.809454 0.570681 0.119385
v -0.710403 -1.660058 -0.138599
v 2.183165 0.495687 -0.102859
v -1.160568 0.955663 0.172700
v -1.280137 1.624677 -0.040467
v -0.861789 0.312961 0.256634
v -1.304119 1.778516 -0.070806
v 1.706268 -0.717750 0.273072
v -1.180038 2.246559 -0.127430
v 1.179306 1.711374 0.060400
v -0.987910 0.087768 0.282550
v 0.752058 0.668621 0.330664
v -0.577962 1.382362 0.092137
v -1.013967 1.545548 0.058717
v -0.211339 -0.334935 0.083964
v 1.472009 0.563837 0.386634
v -1.778974 0.309695 0.241378
v -1.234420 0.918609 0.161369
v 2.066594 -0.108350 0.118753
v -1.353956 1.735970 -0.075570
v -0.692364 2.475334 -0.379087
v 1.066947 1.749214 0.035222
v 1.012553 1.500117 0.097592
v 1.864234 -0.011819 0.246979
v -1.015121 -0.527428 0.288930
v -1.368668 -0.807532 0.306949
v 0.749812 1.369577 0.175161
v 1.430475 1.078927 0.165298
v 0.995367 -0.596351 0.354842
v -1.744605 0.021120 0.314549
v -0.564691 0.244527 0.130261
v -1.895736 1.529334 -0.014548
v 0.219065 0.536516 0.151957
v 1.272541 1.068361 0.281845
v 0.374062 1.863816 0.046482
v 1.388941 -1.360966 0.138177
v 0.397252 1.198761 0.114292
v 0.830239 2.076193 -0.035115
v -1.308543 0.088441 0.308238
v 0.498115 1.429148 0.077117
v -0.854075 1.966816 -0.047602
v -1.517788 1.771365 -0.018268
v -2.192020 -1.233957 -0.427815
v -1.975017 -1.917187 -0.435036
v -1.675478 -2.231123 -0.441970
v 2.156847 -1.294123 -0.325083
v -1.322122 -2.252194 -0.458614
v 1.804523 -2.005583 -0.381332
v 1.335282 -2.024760 -0.433708
v -2.301300 -0.948805 -0.460215
v -2.383758 -0.429975 -0.439256
v -2.500000 0.641191 -0.379392
v -0.645878 -2.134842 -0.500000
v 0.327666 -2.500000 -0.487265
v 1.025739 -2.363847 -0.467804
v 1.488809 0.558426 0.344749
v -0.247736 0.261165 -0.386647
v -0.247736 0.261165 -0.387362
v -0.247736 0.261165 -0.380919
v -0.247736 0.261165 -0.377286
v -0.247736 0.261165 -0.324131
v -0.247736 0.261165 -0.324102
v -0.247736 0.261165 -0.323663
v -0.247736 0.261165 -0.321808
v -0.247736 0.261165 -0.320936
v -0.247736 0.261165 -0.323851
v -0.247736 0.261165 -0.334793
v -0.247736 0.261165 -0.344982
v -0.247736 0.261165 -0.351615
v -0.247736 0.261165 -0.357878
v -0.247736 0.261165 -0.349827
v -0.247736 0.261165 -0.346589
v -0.247736 0.261165 -0.345240
v -0.247736 0.261165 -0.343836
v -0.247736 0.261165 -0.350139
v -0.247736 0.261165 -0.346061
v -0.247736 0.261165 -0.334416
v -0.247736 0.261165 -0.334012
v -0.247736 0.261165 -0.328375
v -0.247736 0.261165 -0.326706
v -0.247736 0.261165 -0.327470
v -0.247736 0.261165 -0.327935
v -0.247736 0.261165 -0.330714
v -0.247736 0.261165 -0.334356
v -0.247736 0.261165 -0.336520
vn 0.3353 -0.3031 0.8920
vn -0.2945 0.8478 0.4410
vn -0.1775 0.5624 0.8076
vn -0.0920 0.1645 0.9821
vn 0.7338 -0.0642 0.6763
vn -0.4513 0.1919 0.8715
vn -0.0927 0.1636 0.9822
vn 0.3972 0.0308 0.9172
vn -0.0803 0.1775 0.9808
vn 0.7409 0.6566 0.1409
vn 0.7973 0.3558 0.4876
vn -0.2789 0.8426 0.4606
vn -0.3402 0.1014 0.9349
vn -0.1224 0.1816 0.9757
vn -0.3865 0.3518 0.8526
vn 0.4195 -0.2713 0.8663
vn -0.4956 -0.2573 0.8296
vn 0.3755 0.4893 0.7871
vn 0.1039 0.2044 0.9734
vn -0.3455 0.1990 0.9171
vn -0.5643 0.1128 0.8178
vn -0.3639 -0.0533 0.9299
vn 0.8080 0.0452 0.5875
vn -0.1664 0.0062 0.9860
vn 0.5891 -0.4145 0.6936
vn 0.2801 0.6023 0.7475
vn 0.3756 -0.2145 0.9016
vn 0.2728 0.0039 0.9621
vn 0.8692 0.1783 0.4611
vn -0.1748 -0.2146 0.9609
vn 0.5428 0.8175 0.1927
vn -0.0293 0.0450 0.9986
vn -0.2274 0.1650 0.9597
vn 0.0799 -0.1413 0.9867
vn -0.4797 -0.3531 0.8033
vn -0.7509 0.0200 0.6601
vn -0.3738 0.0799 0.9241
vn 0.1733 -0.0846 0.9812
vn 0.0872 -0.0409 0.9954
vn 0.2298 0.2835 0.9310
vn 0.3304 0.8434 0.4236
vn 0.0656 0.0224 0.9976
vn 0.5521 0.0740 0.8305
vn 0.4307 -0.1035 0.8965
vn 0.0367 0.4211 0.9063
vn 0.8655 0.0293 0.5001
vn -0.6977 0.5733 0.4296
vn -0.1086 -0.2380 0.9652
vn 0.4185 0.3527 0.8369
vn 0.1749 0.8371 0.5184
vn 0.5682 0.3699 0.7350
vn -0.5555 0.1179 0.8231
vn 0.6686 0.6128 0.4212
vn -0.3985 0.3638 0.8419
vn -0.0251 0.2160 0.9761
vn -0.2642 0.2410 0.9339
vn -0.7594 -0.1759 0.6264
vn 0.8997 0.4365 -0.0000
vn 0.2365 0.2903 0.9273
vn 0.9528 0.3005 -0.0440
vn 0.0266 0.1901 0.9814
vn -0.3101 0.2144 0.9262
vn -0.0419 0.0993 0.9942
vn 0.4297 0.2807 0.8582
vn 0.4110 0.0537 0.9100
vn 0.3098 -0.6599 0.6845
vn -0.4215 -0.4001 0.8138
vn 0.7721 0.5616 0.2972
vn 0.3903 0.1450 0.9092
vn 0.2932 -0.0427 0.9551
vn 0.0571 -0.0727 0.9957
vn -0.1120 0.4007 0.9094
vn -0.6490 -0.3204 0.6901
vn -0.8167 0.1081 0.5669
vn 0.7488 0.5841 0.3132
vn 0.6090 -0.3772 0.6977
vn -0.5862 0.4040 0.7022
vn -0.0701 0.2995 0.9515
vn 0.0797 -0.1025 0.9915
vn -0.4118 -0.5651 0.7148
vn -0.7082 -0.2102 0.6740
vn -0.3881 -0.4319 0.8141
vn -0.1267 -0.1743 0.9765
vn 0.3754 -0.2145 0.9017
vn 0.8564 -0.0728 0.5111
vn 0.1825 -0.3631 0.9137
vn -0.1744 0.0856 0.9809
vn -0.0939 0.1689 0.9812
vn -0.2637 -0.0697 0.9621
vn 0.0683 0.0238 0.9974
vn -0.1344 0.2017 0.9702
vn 0.3802 0.4980 0.7794
vn -0.0356 0.0257 0.9990
vn -0.0895 0.1575 0.9835
vn -0.0561 0.1175 0.9915
vn -0.3693 -0.1883 0.9100
vn 0.8718 0.2383 0.4280
vn 0.8608 0.2779 0.4264
vn -0.8129 0.5768 0.0811
vn 0.5507 0.2160 0.8062
vn 0.1845 0.3621 0.9137
vn -0.0006 0.3947 0.9188
vn -0.2671 0.2851 0.9205
vn 0.0798 0.0697 0.9944
vn 0.2317 0.9125 0.3372
vn -0.0690 -0.1471 0.9867
vn 0.0151 0.2393 0.9708
vn -0.2420 -0.3521 0.9041
vn -0.1660 0.9804 0.1065
vn -0.5937 0.0737 0.8013
vn 0.0073 -0.0501 0.9987
vn 0.1007 0.3788 0.9200
vn -0.0963 0.0738 0.9926
vn -0.2633 -0.1001 0.9595
vn -0.5261 -0.5892 0.6132
vn 0.2354 0.1858 0.9540
vn -0.8321 0.0279 0.5539
vn 0.5797 0.2083 0.7877
vn 0.0174 0.3859 0.9224
vn 0.5725 0.3131 0.7578
vn 0.0981 -0.3958 0.9131
vn -0.1863 -0.2218 0.9571
vn 0.1962 0.0303 0.9801
vn -0.4411 -0.1733 0.8806
vn -0.6278 0.1914 0.7545
vn -0.1918 0.1027 0.9761
vn -0.5862 -0.2078 0.7831
vn 0.6376 0.3428 0.6899
vn 0.0371 -0.1220 0.9918
vn 0.3283 0.1696 0.9292
vn -0.3951 0.0920 0.9140
vn -0.0923 0.0895 0.9917
vn 0.4554 0.3292 0.8272
vn 0.0871 0.0952 0.9916
vn 0.8194 0.5732 0.0014
vn -0.6482 0.1137 0.7530
vn -0.2326 -0.2334 0.9442
vn 0.0233 -0.1439 0.9893
vn -0.0517 0.9931 0.1052
vn 0.0504 -0.2218 0.9738
vn 0.0100 -0.1078 0.9941
vn 0.7183 0.6911 0.0799
vn 0.1237 0.0224 0.9921
vn 0.2252 -0.6800 0.6978
vn -0.1079 0.1476 0.9831
vn 0.1428 0.1067 0.9840
vn 0.0125 -0.0071 0.9999
vn 0.8788 0.2530 0.4047
vn 0.4102 0.3217 0.8534
vn 0.6983 0.5995 0.3912
vn 0.6686 0.6964 0.2609
vn -0.2284 -0.3672 0.9016
vn 0.1616 -0.0063 0.9868
vn -0.4545 0.8592 0.2351
vn -0.1950 -0.4189 0.8869
vn -0.6722 0.1711 0.7203
vn 0.3606 0.0495 0.9314
vn 0.1757 -0.0839 0.9809
vn 0.2836 -0.3178 0.9048
vn 0.5944 0.1813 0.7835
vn -0.1675 0.0326 0.9853
vn -0.8712 0.4780 0.1116
vn 0.1882 0.0436 0.9812
vn -0.0366 0.1482 0.9883
vn -0.7128 0.0366 0.7004
vn 0.4284 0.2517 0.8678
vn -0.5327 -0.4373 0.7246
vn -0.8069 0.2770 0.5217
vn 0.1667 -0.0648 0.9839
vn -0.6176 -0.4272 0.6603
vn 0.9817 0.1452 0.1229
vn -0.1971 0.1389 0.9705
vn -0.7063 0.2829 0.6490
vn -0.0056 0.0056 1.0000
vn -0.1584 0.2620 0.9520
vn -0.1166 -0.2961 0.9480
vn -0.0413 0.0615 0.9973
vn 0.5487 0.0320 0.8354
vn -0.1940 -0.2294 0.9538
vn -0.0351 -0.3467 0.9373
vn -0.0310 0.1802 0.9831
vn -0.1498 0.3975 0.9053
vn 0.4522 0.0916 0.8872
vn -0.0476 -0.0563 0.9973
vn 0.2849 -0.1404 0.9482
vn -0.4506 -0.3755 0.8099
vn -0.2009 -0.0211 0.9794
vn 0.0549 -0.0051 0.9985
vn 0.8310 0.2212 0.5104
vn -0.1848 0.2950 0.9375
vn -0.5186 -0.4668 0.7163
vn 0.5632 0.4390 0.7000
vn 0.0739 0.2893 0.9544
vn 0.1637 0.1607 0.9733
vn -0.8148 0.5736 0.0843
vn 0.0531 -0.0288 0.9982
vn 0.7705 0.5515 0.3196
vn 0.1708 0.1806 0.9686
vn 0.3811 0.3500 0.8558
vn 0.1795 0.1671 0.9695
vn 0.2894 -0.0473 0.9561
vn 0.4280 -0.0917 0.8991
vn 0.3062 -0.2038 0.9299
vn 0.3565 -0.1850 0.9158
vn -0.1304 0.0923 0.9872
vn -0.1044 0.1166 0.9877
vn -0.2462 0.2425 0.9384
vn -0.5637 0.5963 0.5716
vn 0.1557 -0.7406 0.6537
vn 0.1156 -0.3286 0.9374
vn -0.1792 0.1518 0.9720
vn 0.9286 0.0817 0.3619
vn 0.3265 -0.3499 0.8780
vn -0.1423 -0.0029 0.9898
vn -0.2824 -0.0725 0.9565
vn 0.0688 0.0243 0.9973
vn 0.3913 -0.2646 0.8814
vn -0.0147 -0.0005 0.9999
vn 0.0040 -0.0191 0.9998
vn 0.9436 0.2871 0.1650
vn -0.2148 -0.2682 0.9391
vn 0.3097 0.1643 0.9365
vn -0.1531 0.3163 0.9362
vn 0.1152 -0.3894 0.9139
vn -0.0413 0.2070 0.9775
vn 0.4640 0.2301 0.8554
vn 0.2327 0.0385 0.9718
vn -0.3903 0.3714 0.8424
vn -0.3981 0.0252 0.9170
vn -0.5538 -0.4318 0.7119
vn -0.5272 -0.5485 0.6489
vn 0.3640 -0.1187 0.9238
vn 0.0815 0.0915 0.9925
vn -0.1778 0.1769 0.9680
vn -0.2505 -0.2315 0.9400
vn 0.4743 -0.0488 0.8790
vn -0.1383 0.0898 0.9863
vn 0.2700 0.1643 0.9488
vn 0.8110 0.0547 0.5825
vn 0.1491 -0.7505 0.6438
vn -0.1302 0.0278 0.9911
vn 0.7165 0.3114 0.6243
vn 0.5450 0.0296 0.8379
vn -0.1002 -0.2992 0.9489
vn -0.1253 0.2658 0.9558
vn -0.1689 0.0811 0.9823
vn -0.3438 0.2695 0.8995
vn -0.3016 0.2930 0.9073
vn -0.4328 0.3356 0.8367
vn -0.4188 -0.1973 0.8864
vn 0.2256 -0.1065 0.9684
vn -0.5519 -0.4614 0.6946
vn -0.3295 -0.0054 0.9441
vn 0.5817 0.1775 0.7938
vn -0.2239 -0.7691 0.5987
vn -0.5257 0.3129 0.7911
vn 0.1918 -0.0125 0.9814
vn -0.4139 0.0720 0.9075
vn -0.0254 -0.1873 0.9820
vn -0.0991 0.3302 0.9387
vn -0.3409 -0.1487 0.9282
vn 0.6532 0.2939 0.6978
vn 0.4576 0.8689 0.1887
vn -0.1165 -0.2356 0.9648
vn -0.4540 -0.2121 0.8654
vn -0.0422 0.0771 0.9961
vn -0.8147 0.0462 0.5780
vn 0.1846 -0.3416 0.9215
vn 0.0244 -0.1367 0.9903
vn -0.3957 0.0926 0.9137
vn 0.0808 -0.1561 0.9844
vn 0.1531 -0.3037 0.9404
vn -0.0672 0.2159 0.9741
vn -0.6936 0.1092 0.7120
vn 0.0596 0.2668 0.9619
vn 0.2372 -0.1841 0.9539
vn -0.2080 0.0637 0.9760
vn 0.1922 0.3597 0.9130
vn 0.1123 0.1428 0.9834
vn 0.0432 0.0524 0.9977
vn 0.2386 0.1149 0.9643
vn -0.1939 0.1180 0.9739
vn -0.0439 0.0838 0.9955
vn 0.0648 -0.1297 0.9894
vn -0.3977 -0.4550 0.7968
vn 0.6527 0.4647 0.5984
vn 0.8067 0.5333 0.2547
vn 0.0283 -0.1421 0.9894
vn 0.5242 -0.0746 0.8483
vn 0.1520 -0.1098 0.9823
vn -0.9017 0.4303 -0.0421
vn -0.8195 -0.0606 0.5699
vn -0.3071 0.9515 0.0186
vn 0.2983 -0.0574 0.9527
vn -0.2970 0.1338 0.9455
vn 0.0499 0.2904 0.9556
vn 0.3541 0.3437 0.8698
vn 0.3934 0.3072 0.8665
vn -0.6531 0.1576 0.7407
vn -0.3140 0.1368 0.9395
vn -0.0784 0.6164 0.7835
vn -0.7293 0.0805 0.6795
vn 0.0208 -0.0412 0.9989
vn -0.0604 0.0427 0.9973
vn -0.1352 -0.0207 0.9906
vn 0.3344 0.0460 0.9413
vn 0.0244 0.1944 0.9806
vn -0.5941 0.0097 0.8043
vn -0.0911 0.2129 0.9728
vn 0.5629 -0.0256 0.8261
vn -0.2076 -0.2126 0.9548
vn -0.5430 0.5550 0.6301
vn 0.5129 0.0937 0.8533
vn 0.0545 -0.1646 0.9848
vn -0.0429 0.2408 0.9696
vn -0.1142 0.1519 0.9818
vn 0.6940 0.6047 0.3908
vn 0.0464 -0.1412 0.9889
vn -0.3480 -0.0465 0.9363
vn -0.2253 0.1622 0.9607
vn -0.1274 0.2139 0.9685
vn 0.0371 -0.1634 0.9859
vn -0.3927 -0.2169 0.8937
vn 0.3167 -0.0042 0.9485
vn -0.8603 -0.0635 0.5059
vn 0.1137 0.1612 0.9804
vn 0.0799 0.0068 0.9968
vn -0.1257 0.0941 0.9876
vn -0.7744 0.1168 0.6218
vn 0.0593 0.2011 0.9778
vn -0.0099 0.2427 0.9700
vn 0.0175 0.3278 0.9446
vn 0.4661 -0.4484 0.7627
vn -0.1583 0.2000 0.9669
vn -0.2432 0.1055 0.9642
vn 0.5509 -0.4513 0.7020
vn 0.3580 0.6088 0.7079
vn -0.1622 0.5658 0.8084
vn -0.0089 -0.0683 0.9976
vn 0.4211 0.2345 0.8762
vn 0.5371 0.3087 0.7850
vn 0.2822 -0.3179 0.9052
vn 0.0658 0.0278 0.9974
vn -0.0059 0.1937 0.9810
vn 0.0004 0.1383 0.9904
vn 0.7194 0.6080 0.3359
vn 0.0454 0.9437 0.3278
vn -0.1669 0.0794 0.9828
vn 0.0689 0.6725 0.7369
vn -0.1950 0.0571 0.9791
vn -0.0223 0.2354 0.9716
vn 0.4189 0.3434 0.8406
vn 0.3848 -0.4332 0.8150
vn -0.9348 -0.2208 0.2781
vn -0.7291 -0.5457 0.4130
vn 0.9436 -0.2987 0.1427
vn 0.5959 -0.4538 0.6625
vn -0.1128 -0.8948 0.4319
vn -0.8051 -0.4440 0.3933
vn -0.9538 -0.1929 0.2303
vn -0.9436 -0.0659 0.3243
vn -0.8562 -0.4432 0.2655
vn -0.4452 -0.1946 0.8740
vn 0.2931 -0.5536 0.7795
vn -0.9040 0.2516 0.3457
vn -0.4022 -0.6340 0.6605
vn 0.3115 -0.6268 0.7142
vn 0.4772 -0.5873 0.6537
vn 0.9436 -0.1538 0.2933
vn -0.8996 0.4350 -0.0391
vn 0.4278 -0.6469 0.6313
vn 0.6426 -0.4273 0.6360
vn 0.3546 -0.5353 0.7666
vn -0.9356 -0.1921 0.2961
vn 0.6607 -0.3785 0.6482
vn -0.9534 -0.1618 0.2547
vn -0.2485 -0.6371 0.7296
vn 0.0661 -0.0795 0.9946
vn 0.3219 -0.0735 0.9439
vn -0.0301 0.2030 0.9787
vn -0.3295 -0.0232 0.9439
vn -0.0000 1.0000 -0.0000
vn 0.9921 -0.1252 -0.0000
vn 0.9737 -0.2277 -0.0000
vn 0.8567 -0.5159 -0.0000
vn 0.0479 -0.0192 -0.9987
vn -0.0006 -0.0011 -1.0000
vn 0.4505 -0.8928 -0.0001
vn 0.2401 -0.9707 -0.0000
vn 0.0945 -0.9955 -0.0000
vn 0.0059 0.0119 -0.9999
vn 0.5431 0.8397 -0.0000
vn 0.1055 0.1158 -0.9877
vn 0.8221 0.5693 -0.0000
vn -0.9865 0.1639 -0.0000
vn -0.0433 0.0617 -0.9972
vn 0.0106 0.0322 -0.9994
vn -0.7836 0.6213 -0.0000
vn 0.6096 -0.7927 -0.0000
vn 0.0272 0.0447 -0.9986
vn 0.0246 0.0584 -0.9980
vn 0.0190 -0.0056 -0.9998
vn 0.0495 0.0567 -0.9972
vn 0.0249 0.0188 -0.9995
vn -0.0061 -0.0147 -0.9999
vn -0.0325 -0.0345 -0.9989
vn -0.8135 -0.5815 -0.0000
vn -0.9174 -0.3980 -0.0000
vn -0.9804 -0.1969 -0.0000
vn -0.0085 -0.0239 -0.9997
vn 0.3365 -0.3030 0.8916
vn 0.2848 0.0039 0.9586
vn 0.0180 0.0505 -0.9986
vn 0.0332 0.0537 -0.9980
vn 0.8113 0.0496 0.5825
vn -0.9294 -0.2975 0.2184
vn -0.6741 -0.6509 0.3492
vn -0.0364 -0.7881 0.6144
vn -0.9725 -0.1168 0.2014
vn 0.1584 -0.6511 0.7423
vn 0.1381 -0.7929 0.5935
vn 0.6059 -0.6050 0.5165
vn -0.0332 -0.9003 0.4341
vn -0.9159 -0.3241 0.2370
vn -0.3580 -0.9337 -0.0000
vn -0.0000 -1.0000 -0.0000
vn 1.0000 -0.0000 -0.0000
vn 0.0294 -0.9996 -0.0000
vn -0.3274 0.9449 -0.0000
vn -1.0000 -0.0000 -0.0000
vn 0.0143 -0.0031 -0.9999
vn 0.0371 -0.0111 -0.9993
vn 0.0496 -0.0206 -0.9986
vn 0.6356 -0.7720 -0.0000
vn 0.4499 -0.8931 -0.0000
vn 0.0010 -0.0047 -1.0000
vn 0.0052 -0.0252 -0.9997
vn 0.0030 -0.0055 -1.0000
vn 0.0417 0.0582 -0.9974
vn 0.0402 0.0636 -0.9972
vn -0.0738 0.0746 -0.9945
vn -0.8677 0.4971 -0.0000
vn 0.0282 0.0195 -0.9994
vn 0.0976 -0.0754 -0.9924
vn -0.3078 0.9514 -0.0000
vn 0.1664 0.9861 -0.0000
vn 0.4380 0.8990 -0.0000
vn 0.5916 0.8063 -0.0000
vn 0.6897 0.7241 -0.0000
vn -0.7953 -0.6062 -0.0000
vn -0.8136 -0.5815 -0.0000
vn -0.0181 -0.0222 -0.9996
vn -0.0327 -0.0267 -0.9991
vn -0.0233 -0.0239 -0.9994
vn -0.9921 0.1252 -0.0000
vt 0.625000 0.875000
vt 0.375000 0.625000
vt 0.125000 0.625000
vt 0.875000 0.875000
vt 0.625000 0.625000
s 0
usemtl ruins_cv_floor_b
f 158/1/1 82/1/1 24/1/1
f 1/2/2 125/2/2 198/2/2
f 191/1/3 49/1/3 47/1/3
f 89/2/4 60/2/4 77/2/4
f 108/1/5 132/1/5 148/1/5
f 75/2/6 168/2/6 183/2/6
f 143/1/7 89/1/7 77/1/7
f 187/2/8 162/2/8 61/2/8
f 144/3/9 6/3/9 162/3/9
f 166/2/10 136/2/10 17/2/10
f 97/1/11 51/1/11 159/1/11
f 125/2/12 1/2/12 45/2/12
f 196/2/13 75/2/13 183/2/13
f 74/4/14 148/4/14 156/4/14
f 115/1/15 81/1/15 189/1/15
f 175/2/16 180/2/16 9/2/16
f 37/3/17 135/3/17 59/3/17
f 161/2/18 198/2/18 124/2/18
f 137/5/19 141/5/19 133/5/19
f 48/5/20 157/5/20 53/5/20
f 115/2/21 189/2/21 147/2/21
f 67/5/22 111/5/22 175/5/22
f 145/1/23 13/1/23 94/1/23
f 92/3/24 15/3/24 73/3/24
f 68/5/25 181/5/25 72/5/25
f 47/3/26 10/3/26 16/3/26
f 192/4/27 28/4/27 107/4/27
f 50/4/28 77/4/28 57/4/28
f 12/2/29 69/2/29 113/2/29
f 155/1/30 185/1/30 108/1/30
f 36/3/31 30/3/31 194/3/31
f 35/4/32 6/4/32 174/4/32
f 89/1/33 193/1/33 60/1/33
f 71/4/34 90/4/34 26/4/34
f 59/1/35 135/1/35 149/1/35
f 53/4/36 33/4/36 48/4/36
f 27/2/37 155/2/37 108/2/37
f 11/1/38 28/1/38 192/1/38
f 41/2/39 100/2/39 5/2/39
f 91/1/40 141/1/40 50/1/40
f 198/1/41 176/1/41 1/1/41
f 148/1/42 38/1/42 145/1/42
f 54/5/43 69/5/43 134/5/43
f 77/2/44 88/2/44 31/2/44
f 179/5/45 70/5/45 79/5/45
f 94/1/46 41/1/46 172/1/46
f 109/3/47 48/3/47 173/3/47
f 52/5/48 196/5/48 4/5/48
f 98/1/49 120/1/49 156/1/49
f 176/5/50 44/5/50 1/5/50
f 103/2/51 93/2/51 184/2/51
f 168/5/52 75/5/52 83/5/52
f 159/4/53 51/4/53 14/4/53
f 170/3/54 197/3/54 106/3/54
f 129/1/55 174/1/55 124/1/55
f 124/2/56 174/2/56 160/2/56
f 32/4/57 23/4/57 123/4/57
f 211/1/58 226/1/58 225/1/58
f 50/2/59 141/2/59 169/2/59
f 136/2/60 114/2/60 42/2/60
f 193/2/61 83/2/61 75/2/61
f 196/3/62 183/3/62 4/3/62
f 193/1/63 75/1/63 52/1/63
f 187/2/64 31/2/64 162/2/64
f 39/3/65 86/3/65 132/3/65
f 40/5/66 72/5/66 182/5/66
f 149/2/67 73/2/67 59/2/67
f 98/5/68 156/5/68 76/5/68
f 121/4/69 101/4/69 9/4/69
f 144/3/70 31/3/70 88/3/70
f 15/2/71 116/2/71 18/2/71
f 16/2/72 7/2/72 142/2/72
f 152/5/73 96/5/73 123/5/73
f 8/1/74 117/1/74 85/1/74
f 3/4/75 93/4/75 80/4/75
f 181/5/76 68/5/76 61/5/76
f 109/5/77 119/5/77 35/5/77
f 27/5/78 108/5/78 148/5/78
f 171/1/79 61/1/79 46/1/79
f 19/1/80 11/1/80 34/1/80
f 55/5/81 123/5/81 23/5/81
f 29/5/82 117/5/82 8/5/82
f 26/3/83 189/3/83 71/3/83
f 43/2/84 192/2/84 107/2/84
f 145/2/85 140/2/85 13/2/85
f 82/4/86 22/4/86 25/4/86
f 191/5/87 52/5/87 154/5/87
f 77/5/88 60/5/88 57/5/88
f 15/5/89 59/5/89 73/5/89
f 172/4/90 148/4/90 94/4/90
f 163/4/91 106/4/91 197/4/91
f 161/4/92 176/4/92 198/4/92
f 142/1/93 138/1/93 191/1/93
f 148/1/94 168/1/94 27/1/94
f 82/1/95 46/1/95 68/1/95
f 147/2/96 64/2/96 149/2/96
f 12/4/97 51/4/97 97/4/97
f 70/4/98 17/4/98 36/4/98
f 165/3/99 84/3/99 44/3/99
f 120/2/100 184/2/100 130/2/100
f 120/2/101 103/2/101 184/2/101
f 128/4/102 156/4/102 179/4/102
f 91/2/103 142/2/103 7/2/103
f 195/3/104 167/3/104 162/3/104
f 178/1/105 166/1/105 17/1/105
f 73/1/106 65/1/106 92/1/106
f 197/3/107 170/3/107 169/3/107
f 38/1/108 140/1/108 145/1/108
f 137/3/109 99/3/109 177/3/109
f 168/1/110 83/1/110 27/1/110
f 164/1/111 13/1/111 140/1/111
f 6/4/112 35/4/112 162/4/112
f 89/1/113 81/1/113 193/1/113
f 118/4/114 20/4/114 139/4/114
f 139/5/115 87/5/115 118/5/115
f 52/2/116 75/2/116 196/2/116
f 139/4/117 8/4/117 152/4/117
f 190/3/118 120/3/118 130/3/118
f 128/1/119 179/1/119 79/1/119
f 54/5/120 93/5/120 5/5/120
f 180/2/121 100/2/121 121/2/121
f 155/2/122 149/2/122 185/2/122
f 90/4/123 187/4/123 61/4/123
f 132/1/124 38/1/124 148/1/124
f 20/4/125 8/4/125 139/4/125
f 109/4/126 35/4/126 157/4/126
f 139/4/127 152/4/127 123/4/127
f 70/4/128 36/4/128 194/4/128
f 62/4/129 18/4/129 116/4/129
f 105/1/130 101/1/130 121/1/130
f 129/3/131 188/3/131 53/3/131
f 89/3/132 71/3/132 81/3/132
f 80/4/133 134/4/133 159/4/133
f 46/1/134 82/1/134 146/1/134
f 42/5/135 17/5/135 136/5/135
f 127/5/136 186/5/136 173/5/136
f 43/5/137 185/5/137 37/5/137
f 126/3/138 140/3/138 39/3/138
f 99/4/139 10/4/139 177/4/139
f 139/5/140 123/5/140 87/5/140
f 104/1/141 100/1/141 41/1/141
f 30/4/142 36/4/142 17/4/142
f 187/3/143 143/3/143 31/3/143
f 40/3/144 182/3/144 66/3/144
f 163/1/145 137/1/145 165/1/145
f 77/5/146 31/5/146 143/5/146
f 195/3/147 151/3/147 66/3/147
f 69/4/148 12/4/148 97/4/148
f 134/3/149 80/3/149 54/3/149
f 3/4/150 80/4/150 14/4/150
f 114/3/151 3/3/151 42/3/151
f 192/5/152 34/5/152 11/5/152
f 164/2/153 101/2/153 13/2/153
f 137/3/154 84/3/154 165/3/154
f 34/4/155 192/4/155 43/4/155
f 156/3/156 148/3/156 76/3/156
f 150/2/157 86/2/157 39/2/157
f 28/2/158 11/2/158 21/2/158
f 107/1/159 28/1/159 110/1/159
f 97/5/160 134/5/160 69/5/160
f 6/4/161 160/4/161 174/4/161
f 125/5/162 58/5/162 112/5/162
f 171/1/163 90/1/163 61/1/163
f 68/2/164 72/2/164 82/2/164
f 152/3/165 8/3/165 85/3/165
f 131/2/166 154/2/166 70/2/166
f 150/5/167 140/5/167 38/5/167
f 44/2/168 163/2/168 165/2/168
f 111/5/169 122/5/169 113/5/169
f 32/2/170 123/2/170 96/2/170
f 130/2/171 184/2/171 114/2/171
f 169/2/172 141/2/172 197/2/172
f 102/2/173 125/2/173 112/2/173
f 151/4/174 195/4/174 127/4/174
f 198/1/175 125/1/175 188/1/175
f 57/5/176 63/5/176 50/5/176
f 129/4/177 35/4/177 174/4/177
f 54/1/178 175/1/178 69/1/178
f 56/2/179 62/2/179 116/2/179
f 140/4/180 21/4/180 164/4/180
f 162/1/181 35/1/181 119/1/181
f 191/5/182 16/5/182 142/5/182
f 9/5/183 101/5/183 111/5/183
f 118/1/184 66/1/184 151/1/184
f 171/2/185 65/2/185 26/2/185
f 37/3/186 15/3/186 18/3/186
f 102/4/187 29/4/187 53/4/187
f 195/4/188 182/4/188 181/4/188
f 39/5/189 132/5/189 108/5/189
f 27/1/190 83/1/190 115/1/190
f 132/2/191 86/2/191 38/2/191
f 93/3/192 114/3/192 184/3/192
f 128/3/193 4/3/193 183/3/193
f 133/2/194 141/2/194 91/2/194
f 58/2/195 125/2/195 45/2/195
f 156/5/196 120/5/196 190/5/196
f 172/3/197 98/3/197 76/3/197
f 95/2/198 99/2/198 133/2/198
f 190/4/199 130/4/199 166/4/199
f 91/1/200 95/1/200 133/1/200
f 100/2/201 180/2/201 5/2/201
f 101/3/202 164/3/202 122/3/202
f 92/3/203 65/3/203 171/3/203
f 92/3/204 171/3/204 25/3/204
f 92/1/205 25/1/205 116/1/205
f 71/3/206 189/3/206 81/3/206
f 160/4/207 170/4/207 124/4/207
f 163/5/208 44/5/208 176/5/208
f 40/5/209 66/5/209 118/5/209
f 100/5/210 104/5/210 105/5/210
f 197/5/211 141/5/211 137/5/211
f 172/5/212 41/5/212 212/5/212
f 180/4/213 121/4/213 9/4/213
f 129/3/214 157/3/214 35/3/214
f 15/3/215 37/3/215 59/3/215
f 148/2/216 145/2/216 94/2/216
f 164/5/217 21/5/217 122/5/217
f 195/2/218 66/2/218 182/2/218
f 90/2/219 171/2/219 26/2/219
f 136/5/220 130/5/220 114/5/220
f 135/4/221 185/4/221 149/4/221
f 101/2/222 105/2/222 104/2/222
f 161/2/223 124/2/223 106/2/223
f 37/3/224 34/3/224 43/3/224
f 148/1/225 74/1/225 168/1/225
f 113/1/226 69/1/226 175/1/226
f 43/2/227 110/2/227 39/2/227
f 106/1/228 124/1/228 170/1/228
f 26/4/229 64/4/229 189/4/229
f 38/3/230 86/3/230 150/3/230
f 110/4/231 28/4/231 126/4/231
f 82/4/232 25/4/232 146/4/232
f 146/5/233 171/5/233 46/5/233
f 157/1/234 48/1/234 109/1/234
f 135/2/235 37/2/235 185/2/235
f 101/3/236 122/3/236 111/3/236
f 191/3/237 138/3/237 52/3/237
f 150/2/238 39/2/238 140/2/238
f 94/4/239 104/4/239 41/4/239
f 87/1/240 40/1/240 118/1/240
f 6/3/241 144/3/241 160/3/241
f 111/4/242 67/4/242 9/4/242
f 54/2/243 180/2/243 175/2/243
f 57/2/244 138/2/244 63/2/244
f 156/1/245 128/1/245 74/1/245
f 153/2/246 53/2/246 188/2/246
f 142/4/247 50/4/247 63/4/247
f 178/2/248 179/2/248 156/2/248
f 115/1/249 83/1/249 81/1/249
f 25/4/250 56/4/250 116/4/250
f 4/4/251 79/4/251 154/4/251
f 64/4/252 65/4/252 73/4/252
f 20/5/253 151/5/253 127/5/253
f 39/1/254 110/1/254 126/1/254
f 126/4/255 28/4/255 21/4/255
f 70/4/256 179/4/256 178/4/256
f 111/2/257 113/2/257 175/2/257
f 53/4/258 29/4/258 33/4/258
f 138/5/259 60/5/259 52/5/259
f 166/1/260 178/1/260 156/1/260
f 20/4/261 118/4/261 151/4/261
f 103/2/262 5/2/262 93/2/262
f 30/1/263 49/1/263 194/1/263
f 57/5/264 60/5/264 138/5/264
f 22/5/265 56/5/265 25/5/265
f 89/5/266 143/5/266 71/5/266
f 48/3/267 33/3/267 127/3/267
f 100/5/268 105/5/268 121/5/268
f 55/1/269 87/1/269 123/1/269
f 129/1/270 53/1/270 157/1/270
f 78/1/271 24/1/271 40/1/271
f 18/5/272 34/5/272 37/5/272
f 183/2/273 168/2/273 74/2/273
f 127/4/274 173/4/274 48/4/274
f 183/2/275 74/2/275 128/2/275
f 146/1/276 25/1/276 171/1/276
f 153/3/277 102/3/277 53/3/277
f 4/2/278 128/2/278 79/2/278
f 160/5/279 144/5/279 88/5/279
f 142/3/280 63/3/280 138/3/280
f 13/2/281 101/2/281 104/2/281
f 106/4/282 163/4/282 176/4/282
f 143/2/283 187/2/283 71/2/283
f 187/5/284 90/5/284 71/5/284
f 64/3/285 73/3/285 149/3/285
f 130/3/286 136/3/286 166/3/286
f 172/4/287 212/4/287 98/4/287
f 87/1/288 78/1/288 40/1/288
f 140/1/289 126/1/289 21/1/289
f 68/1/290 46/1/290 61/1/290
f 112/3/291 58/3/291 2/3/291
f 117/3/292 96/3/292 85/3/292
f 177/1/293 84/1/293 137/1/293
f 167/2/294 61/2/294 162/2/294
f 188/1/295 125/1/295 153/1/295
f 98/3/296 103/3/296 120/3/296
f 31/5/297 144/5/297 162/5/297
f 79/3/298 70/3/298 154/3/298
f 33/4/299 8/4/299 20/4/299
f 153/3/300 125/3/300 102/3/300
f 131/4/301 194/4/301 49/4/301
f 147/4/302 189/4/302 64/4/302
f 186/5/303 127/5/303 195/5/303
f 170/2/304 88/2/304 169/2/304
f 52/2/305 4/2/305 154/2/305
f 88/4/306 77/4/306 169/4/306
f 91/5/307 7/5/307 95/5/307
f 26/4/308 65/4/308 64/4/308
f 191/3/309 154/3/309 131/3/309
f 108/5/310 43/5/310 39/5/310
f 43/1/311 108/1/311 185/1/311
f 119/4/312 109/4/312 173/4/312
f 5/5/313 180/5/313 54/5/313
f 40/4/314 24/4/314 72/4/314
f 173/1/315 186/1/315 119/1/315
f 163/2/316 197/2/316 137/2/316
f 14/1/317 80/1/317 159/1/317
f 55/4/318 78/4/318 87/4/318
f 29/4/319 8/4/319 33/4/319
f 50/2/320 142/2/320 91/2/320
f 129/5/321 198/5/321 188/5/321
f 72/1/322 24/1/322 82/1/322
f 149/1/323 155/1/323 147/1/323
f 167/1/324 181/1/324 61/1/324
f 152/1/325 85/1/325 96/1/325
f 160/3/326 88/3/326 170/3/326
f 181/1/327 167/1/327 195/1/327
f 116/4/328 15/4/328 92/4/328
f 20/1/329 127/1/329 33/1/329
f 95/1/330 7/1/330 16/1/330
f 162/3/331 119/3/331 195/3/331
f 156/4/332 190/4/332 166/4/332
f 9/2/333 67/2/333 175/2/333
f 176/5/334 161/5/334 106/5/334
f 60/3/335 193/3/335 52/3/335
f 18/4/336 19/4/336 34/4/336
f 16/4/337 10/4/337 99/4/337
f 131/3/338 49/3/338 191/3/338
f 95/4/339 16/4/339 99/4/339
f 131/2/340 70/2/340 194/2/340
f 80/1/341 93/1/341 54/1/341
f 107/5/342 110/5/342 43/5/342
f 76/2/343 148/2/343 172/2/343
f 198/3/344 129/3/344 124/3/344
f 137/2/345 133/2/345 99/2/345
f 114/4/346 93/4/346 3/4/346
f 70/2/347 178/2/347 17/2/347
f 81/5/348 83/5/348 193/5/348
f 191/4/349 47/4/349 16/4/349
f 155/3/350 27/3/350 115/3/350
f 119/2/351 186/2/351 195/2/351
f 159/4/352 134/4/352 97/4/352
f 72/5/353 181/5/353 182/5/353
f 199/3/354 23/3/354 32/3/354
f 200/1/355 78/1/355 55/1/355
f 113/5/356 202/5/356 12/5/356
f 122/5/357 202/5/357 113/5/357
f 19/5/358 204/5/358 11/5/358
f 23/4/359 200/4/359 55/4/359
f 29/3/360 207/3/360 117/3/360
f 208/2/361 29/2/361 102/2/361
f 96/2/362 199/2/362 32/2/362
f 22/3/363 209/3/363 56/3/363
f 24/5/364 209/5/364 158/5/364
f 112/1/365 208/1/365 102/1/365
f 56/5/366 210/5/366 62/5/366
f 62/2/367 211/2/367 18/2/367
f 211/5/368 19/5/368 18/5/368
f 11/5/369 204/5/369 21/5/369
f 2/5/370 208/5/370 112/5/370
f 78/1/371 203/1/371 24/1/371
f 21/4/372 202/4/372 122/4/372
f 158/2/373 209/2/373 22/2/373
f 206/4/374 96/4/374 117/4/374
f 21/4/375 204/4/375 202/4/375
f 207/5/376 206/5/376 117/5/376
f 209/5/377 210/5/377 56/5/377
f 103/2/378 41/2/378 5/2/378
f 212/5/379 41/5/379 103/5/379
f 98/1/380 212/1/380 103/1/380
f 147/5/381 155/5/381 115/5/381
f 236/5/382 218/5/382 222/5/382
f 47/1/383 213/1/383 214/1/383
f 49/3/384 215/3/384 213/3/384
f 30/4/385 216/4/385 215/4/385
f 42/3/386 216/3/386 17/3/386
f 3/5/387 217/5/387 42/5/387
f 3/4/388 219/4/388 218/4/388
f 14/3/389 220/3/389 219/3/389
f 51/2/390 221/2/390 220/2/390
f 202/3/391 221/3/391 12/3/391
f 202/2/392 223/2/392 222/2/392
f 205/2/393 223/2/393 204/2/393
f 205/2/394 225/2/394 224/2/394
f 209/4/395 227/4/395 226/4/395
f 201/2/396 227/2/396 203/2/396
f 200/3/397 228/3/397 201/3/397
f 200/4/398 230/4/398 229/4/398
f 199/1/399 231/1/399 230/1/399
f 207/2/400 231/2/400 206/2/400
f 208/5/401 232/5/401 207/5/401
f 2/2/402 233/2/402 208/2/402
f 58/4/403 234/4/403 2/4/403
f 45/5/404 235/5/404 58/5/404
f 1/1/405 236/1/405 45/1/405
f 44/1/406 237/1/406 1/1/406
f 44/2/407 239/2/407 238/2/407
f 84/1/408 240/1/408 239/1/408
f 177/4/409 241/4/409 240/4/409
f 47/2/410 241/2/410 10/2/410
f 158/1/411 22/1/411 82/1/411
f 50/4/412 169/4/412 77/4/412
f 211/1/413 210/1/413 226/1/413
f 210/1/414 209/1/414 226/1/414
f 94/4/415 13/4/415 104/4/415
f 199/3/416 200/3/416 23/3/416
f 200/1/417 201/1/417 78/1/417
f 19/5/418 205/5/418 204/5/418
f 208/2/419 207/2/419 29/2/419
f 24/5/420 203/5/420 209/5/420
f 62/2/421 210/2/421 211/2/421
f 211/5/422 205/5/422 19/5/422
f 78/1/423 201/1/423 203/1/423
f 206/4/424 199/4/424 96/4/424
f 219/5/382 220/5/382 222/5/382
f 218/5/382 219/5/382 222/5/382
f 222/5/425 223/5/425 224/5/425
f 225/5/382 226/5/382 227/5/382
f 222/5/426 224/5/426 225/5/426
f 225/5/427 228/5/427 229/5/427
f 232/5/428 233/5/428 234/5/428
f 225/5/382 231/5/382 222/5/382
f 231/5/382 232/5/382 222/5/382
f 232/5/382 234/5/382 222/5/382
f 234/5/429 235/5/429 222/5/429
f 235/5/382 236/5/382 222/5/382
f 215/5/426 216/5/426 217/5/426
f 236/5/430 213/5/430 215/5/430
f 236/5/382 215/5/382 218/5/382
f 47/1/431 49/1/431 213/1/431
f 49/3/432 30/3/432 215/3/432
f 30/4/433 17/4/433 216/4/433
f 42/3/434 217/3/434 216/3/434
f 3/5/435 218/5/435 217/5/435
f 3/4/436 14/4/436 219/4/436
f 14/3/437 51/3/437 220/3/437
f 51/2/438 12/2/438 221/2/438
f 202/3/392 222/3/392 221/3/392
f 202/2/439 204/2/439 223/2/439
f 205/2/394 224/2/394 223/2/394
f 205/2/440 211/2/440 225/2/440
f 209/4/441 203/4/441 227/4/441
f 201/2/442 228/2/442 227/2/442
f 200/3/398 229/3/398 228/3/398
f 200/4/443 199/4/443 230/4/443
f 199/1/444 206/1/444 231/1/444
f 207/2/445 232/2/445 231/2/445
f 208/5/446 233/5/446 232/5/446
f 2/2/447 234/2/447 233/2/447
f 58/4/448 235/4/448 234/4/448
f 45/5/449 236/5/449 235/5/449
f 1/1/450 237/1/450 236/1/450
f 44/1/451 238/1/451 237/1/451
f 44/2/452 84/2/452 239/2/452
f 84/1/453 177/1/453 240/1/453
f 177/4/454 10/4/454 241/4/454
f 47/2/455 214/2/455 241/2/455
l 231 229
l 238 236
l 241 239
l 239 236
l 213 241
l 241 236
