# Blender 5.2.2 LTS
# www.blender.org
mtllib ruins_ch_ceiling_a.mtl
o piece
v 0.866328 0.233963 -0.057584
v -0.867531 0.220211 -0.057584
v 0.873493 1.964326 -0.057584
v -0.877654 1.968024 -0.057584
v 0.878168 1.968007 0.057584
v -0.865821 1.958952 0.057584
v 0.879748 0.219914 0.057584
v -0.882623 0.224610 0.057584
v -1.075913 0.033126 -0.062585
v 1.074285 0.043772 -0.062585
v -1.060467 2.150777 -0.062583
v 1.069647 2.162167 -0.062583
v -1.068865 2.166033 0.062585
v 1.071453 2.150751 0.062585
v -1.066074 0.041320 0.062583
v 1.065684 0.041245 0.062583
v -1.091007 0.010008 -0.048099
v 1.089051 0.020807 -0.048099
v -1.083736 2.175468 -0.048098
v 1.109648 2.202581 -0.048098
v -1.082300 2.179480 0.048099
v 1.079957 2.180443 0.048099
v -1.088328 0.007061 0.048098
v 1.096013 0.010147 0.048098
v -0.003431 0.230792 -0.057584
v -0.038566 0.224090 0.057584
v 0.071381 0.032847 0.062583
v 0.101976 0.019495 0.048098
v -0.871605 1.174594 -0.057584
v -0.882716 1.149928 0.057584
v -1.061419 1.318662 -0.062584
v -1.060127 1.273687 0.062584
v -1.096329 1.327759 -0.048098
v -1.083600 1.305623 0.048099
v 0.454190 1.968128 -0.057584
v 0.381795 1.960760 0.057584
v 0.421030 2.156764 -0.062583
v 0.327644 2.164057 0.062585
v 0.398835 2.186130 -0.048098
v 0.332879 2.175389 0.048099
v 0.881146 1.748870 -0.057584
v 0.871195 1.641209 0.057584
v 1.060136 1.645871 -0.062584
v 1.068423 1.532967 0.062584
v 1.096663 1.615630 -0.048098
v 1.085972 1.515324 0.048099
v -2.500000 2.500000 0.050303
v 2.500000 2.500000 0.050303
v 2.500000 -2.500000 0.050304
v -2.500000 -2.500000 0.050304
v -2.500000 2.500000 -0.050304
v 2.500000 2.500000 -0.050304
v 2.500000 -2.500000 -0.050304
v -2.500000 -2.500000 -0.050304
v 0.924908 0.177628 -0.050304
v -0.924907 0.177628 -0.050304
v 0.924908 2.015743 -0.050304
v -0.924907 2.015743 -0.050304
v 0.924908 2.015740 0.050303
v -0.924907 2.015740 0.050303
v 0.924908 0.177626 0.050304
v -0.924907 0.177626 0.050304
vn -0.0036 0.9926 0.1215
vn 0.9915 0.0001 0.1299
vn 0.0014 -0.9969 -0.0787
vn -0.9985 -0.0355 0.0417
vn 0.0026 -0.5322 -0.8466
vn -0.0000 -0.0242 0.9997
vn -0.0002 -0.0265 -0.9996
vn 0.0282 -0.0000 0.9996
vn 0.0273 -0.0000 -0.9996
vn -0.0001 0.0260 -0.9997
vn -0.0278 0.0003 -0.9996
vn -0.5225 0.0078 -0.8526
vn -0.0080 0.3444 -0.9388
vn 0.6976 -0.0033 -0.7164
vn 0.0021 0.7339 0.6793
vn -0.5477 0.0020 0.8367
vn -0.0040 -0.4254 0.9050
vn 0.8553 0.0077 0.5180
vn 0.0006 0.9993 -0.0381
vn 0.0076 -0.7272 0.6864
vn 0.9956 -0.0208 0.0916
vn -0.6902 -0.0028 -0.7236
vn -0.7327 0.0011 0.6806
vn 0.0146 -0.9984 -0.0547
vn -0.0036 0.5035 -0.8640
vn -0.0030 0.4391 0.8984
vn -0.9933 -0.0060 0.1150
vn 0.3473 -0.0077 -0.9377
vn 0.4334 0.0029 0.9012
vn -0.0000 1.0000 -0.0000
vn 1.0000 -0.0000 -0.0000
vn -0.0260 0.0001 0.9997
vn -0.0000 -0.0000 -1.0000
vn -0.0000 -0.0000 1.0000
vn -0.0000 -1.0000 -0.0000
vn -0.0002 0.0277 0.9996
vn -1.0000 -0.0000 -0.0000
vn 0.0045 0.9982 0.0595
vn 0.9953 0.0042 0.0969
vn 0.0001 -0.9980 -0.0638
vn -0.9976 0.0213 -0.0663
vn 0.0026 -0.5323 -0.8466
vn -0.0000 -0.0246 0.9997
vn 0.0004 -0.0245 0.9997
vn -0.0005 -0.0268 0.9996
vn -0.0000 -0.0265 -0.9996
vn 0.0001 -0.0272 -0.9996
vn 0.0002 -0.0255 -0.9997
vn 0.0278 -0.0006 0.9996
vn 0.0249 0.0002 0.9997
vn 0.0274 -0.0001 0.9996
vn 0.0265 0.0002 -0.9996
vn 0.0264 0.0001 -0.9997
vn 0.0242 -0.0003 -0.9997
vn -0.0003 0.0271 -0.9996
vn -0.0001 0.0262 -0.9997
vn -0.0285 -0.0010 -0.9996
vn -0.0260 0.0005 -0.9997
vn -0.0242 -0.0002 -0.9997
vn -0.3832 0.0004 -0.9237
vn -0.0037 0.4401 -0.8979
vn 0.3710 0.0033 -0.9286
vn 0.0011 0.7874 0.6164
vn -0.5227 0.0025 0.8525
vn 0.0062 -0.7288 0.6847
vn 0.6347 -0.0031 0.7727
vn -0.0122 0.9984 0.0544
vn -0.0029 -0.3878 0.9217
vn 0.9948 0.0076 -0.1016
vn -0.3823 0.0043 -0.9240
vn -0.5303 -0.0052 0.8478
vn -0.0091 -0.9994 0.0323
vn -0.0018 0.4413 -0.8974
vn 0.0140 0.7851 0.6192
vn -0.9970 0.0098 -0.0770
vn 0.3638 -0.0067 -0.9314
vn 0.6359 -0.0012 0.7718
vn -0.0251 0.0005 0.9997
vn -0.0254 -0.0002 0.9997
vn -0.0268 -0.0000 0.9996
vn 0.0001 0.0262 0.9997
vn -0.0000 0.0261 0.9997
vn 0.0002 0.0271 0.9996
vt 0.125000 0.875000
vt 0.125000 0.625000
s 0
usemtl ruins_ch_ceiling_a
f 25/1/1 7/1/1 1/1/1
f 2/1/2 30/1/2 8/1/2
f 4/1/3 36/1/3 6/1/3
f 41/1/4 5/1/4 3/1/4
f 9/1/5 18/1/5 17/1/5
f 38/1/6 13/1/6 6/1/6
f 35/1/7 37/1/7 3/1/7
f 30/1/8 32/1/8 8/1/8
f 31/1/9 11/1/9 4/1/9
f 9/1/10 25/1/10 10/1/10
f 41/1/11 43/1/11 1/1/11
f 11/1/12 33/1/12 19/1/12
f 12/1/13 39/1/13 20/1/13
f 10/1/14 45/1/14 18/1/14
f 13/1/15 40/1/15 21/1/15
f 15/1/16 34/1/16 23/1/16
f 16/1/17 28/1/17 24/1/17
f 14/1/18 46/1/18 22/1/18
f 26/1/19 2/1/19 8/1/19
f 27/1/20 23/1/20 28/1/20
f 29/1/21 6/1/21 30/1/21
f 33/1/22 9/1/22 17/1/22
f 34/1/23 13/1/23 21/1/23
f 35/1/24 5/1/24 36/1/24
f 39/1/25 11/1/25 19/1/25
f 40/1/26 14/1/26 22/1/26
f 42/1/27 1/1/27 7/1/27
f 45/1/28 12/1/28 20/1/28
f 46/1/29 16/1/29 24/1/29
f 48/2/30 51/2/30 47/2/30
f 53/2/31 48/2/31 49/2/31
f 44/1/32 14/1/32 5/1/32
f 56/2/33 55/2/33 53/2/33
f 58/2/33 52/2/33 57/2/33
f 59/2/34 48/2/34 60/2/34
f 53/2/35 50/2/35 54/2/35
f 27/1/36 16/1/36 7/1/36
f 54/2/37 47/2/37 51/2/37
f 62/2/34 50/2/34 61/2/34
f 25/1/38 26/1/38 7/1/38
f 2/1/39 29/1/39 30/1/39
f 4/1/40 35/1/40 36/1/40
f 41/1/41 42/1/41 5/1/41
f 9/1/42 10/1/42 18/1/42
f 6/1/43 36/1/43 38/1/43
f 36/1/44 5/1/44 38/1/44
f 5/1/45 14/1/45 38/1/45
f 35/1/46 4/1/46 37/1/46
f 4/1/47 11/1/47 37/1/47
f 37/1/48 12/1/48 3/1/48
f 30/1/49 6/1/49 32/1/49
f 6/1/50 13/1/50 32/1/50
f 32/1/51 15/1/51 8/1/51
f 4/1/52 29/1/52 31/1/52
f 29/1/53 2/1/53 31/1/53
f 2/1/54 9/1/54 31/1/54
f 2/1/55 25/1/55 9/1/55
f 25/1/56 1/1/56 10/1/56
f 41/1/57 3/1/57 43/1/57
f 3/1/58 12/1/58 43/1/58
f 43/1/59 10/1/59 1/1/59
f 11/1/60 31/1/60 33/1/60
f 12/1/61 37/1/61 39/1/61
f 10/1/62 43/1/62 45/1/62
f 13/1/63 38/1/63 40/1/63
f 15/1/64 32/1/64 34/1/64
f 16/1/65 27/1/65 28/1/65
f 14/1/66 44/1/66 46/1/66
f 26/1/67 25/1/67 2/1/67
f 27/1/68 15/1/68 23/1/68
f 29/1/69 4/1/69 6/1/69
f 33/1/70 31/1/70 9/1/70
f 34/1/71 32/1/71 13/1/71
f 35/1/72 3/1/72 5/1/72
f 39/1/73 37/1/73 11/1/73
f 40/1/74 38/1/74 14/1/74
f 42/1/75 41/1/75 1/1/75
f 45/1/76 43/1/76 12/1/76
f 46/1/77 44/1/77 16/1/77
f 48/2/30 52/2/30 51/2/30
f 53/2/31 52/2/31 48/2/31
f 5/1/78 42/1/78 44/1/78
f 42/1/79 7/1/79 44/1/79
f 7/1/80 16/1/80 44/1/80
f 51/2/33 58/2/33 56/2/33
f 55/2/33 57/2/33 52/2/33
f 54/2/33 51/2/33 56/2/33
f 55/2/33 52/2/33 53/2/33
f 54/2/33 56/2/33 53/2/33
f 58/2/33 51/2/33 52/2/33
f 59/2/34 61/2/34 48/2/34
f 61/2/34 49/2/34 48/2/34
f 48/2/34 47/2/34 60/2/34
f 53/2/35 49/2/35 50/2/35
f 7/1/81 26/1/81 27/1/81
f 26/1/82 8/1/82 27/1/82
f 8/1/83 15/1/83 27/1/83
f 54/2/37 50/2/37 47/2/37
f 62/2/34 60/2/34 47/2/34
f 50/2/34 49/2/34 61/2/34
f 62/2/34 47/2/34 50/2/34
