# Blender 5.2.2 LTS
# www.blender.org
mtllib ruins_ch_mural.mtl
o piece
v -2.000000 -1.503271 0.067950
v -2.000000 1.496729 0.067950
v -2.000000 -1.503271 -0.282050
v -2.000000 1.496729 -0.282050
v 2.000000 -1.503271 0.067950
v 2.000000 1.496729 0.067950
v 2.000000 -1.503271 -0.282050
v 2.000000 1.496729 -0.282050
v -1.533262 -0.154304 0.067950
v -1.533262 -0.154304 0.117950
v -1.533262 -0.092971 0.067950
v -1.533262 -0.092971 0.117950
v -1.354238 -0.154304 0.067950
v -1.354238 -0.154304 0.117950
v -1.354238 -0.092971 0.067950
v -1.354238 -0.092971 0.117950
v -1.397692 -0.266238 0.067950
v -1.397692 -0.266238 0.117950
v -1.397692 -0.123638 0.067950
v -1.397692 -0.123638 0.117950
v -1.336358 -0.266238 0.067950
v -1.336358 -0.266238 0.117950
v -1.336358 -0.123638 0.067950
v -1.336358 -0.123638 0.117950
v -1.534819 -0.277125 0.067950
v -1.534819 -0.277125 0.117950
v -1.534819 -0.166725 0.067950
v -1.534819 -0.166725 0.117950
v -1.424419 -0.277125 0.067950
v -1.424419 -0.277125 0.117950
v -1.424419 -0.166725 0.067950
v -1.424419 -0.166725 0.117950
v -1.514081 0.606421 0.067950
v -1.514081 0.606421 0.117950
v -1.514081 0.667754 0.067950
v -1.514081 0.667754 0.117950
v -1.373419 0.606421 0.067950
v -1.373419 0.606421 0.117950
v -1.373419 0.667754 0.067950
v -1.373419 0.667754 0.117950
v -1.514081 0.475704 0.067950
v -1.514081 0.475704 0.117950
v -1.514081 0.537037 0.067950
v -1.514081 0.537037 0.117950
v -1.373419 0.475704 0.067950
v -1.373419 0.475704 0.117950
v -1.373419 0.537037 0.067950
v -1.373419 0.537037 0.117950
v -1.404086 0.506371 0.067950
v -1.404086 0.506371 0.117950
v -1.404086 0.637087 0.067950
v -1.404086 0.637087 0.117950
v -1.342752 0.506371 0.067950
v -1.342752 0.506371 0.117950
v -1.342752 0.637087 0.067950
v -1.342752 0.637087 0.117950
v -1.544748 0.506371 0.067950
v -1.544748 0.506371 0.117950
v -1.544748 0.637087 0.067950
v -1.544748 0.637087 0.117950
v -1.483415 0.506371 0.067950
v -1.483415 0.506371 0.117950
v -1.483415 0.637087 0.067950
v -1.483415 0.637087 0.117950
v -1.533262 0.612362 0.067950
v -1.533262 0.612362 0.117950
v -1.533262 0.673696 0.067950
v -1.533262 0.673696 0.117950
v -1.354238 0.612362 0.067950
v -1.354238 0.612362 0.117950
v -1.354238 0.673696 0.067950
v -1.354238 0.673696 0.117950
v -1.397692 0.500429 0.067950
v -1.397692 0.500429 0.117950
v -1.397692 0.643029 0.067950
v -1.397692 0.643029 0.117950
v -1.336358 0.500429 0.067950
v -1.336358 0.500429 0.117950
v -1.336358 0.643029 0.067950
v -1.336358 0.643029 0.117950
v -1.571625 0.541062 0.067950
v -1.571625 0.541062 0.117950
v -1.571625 0.602396 0.067950
v -1.571625 0.602396 0.117950
v -1.315875 0.541062 0.067950
v -1.315875 0.541062 0.117950
v -1.315875 0.602396 0.067950
v -1.315875 0.602396 0.117950
v -1.144570 -0.906550 0.067950
v -1.144570 -0.906550 0.117950
v -1.105146 -0.859566 0.067950
v -1.105146 -0.859566 0.117950
v -0.957354 -1.063643 0.067950
v -0.957354 -1.063643 0.117950
v -0.917930 -1.016658 0.067950
v -0.917930 -1.016658 0.117950
v -0.985192 -1.080438 0.067950
v -0.985192 -1.080438 0.117950
v -0.985192 -0.842771 0.067950
v -0.985192 -0.842771 0.117950
v -0.923858 -1.080438 0.067950
v -0.923858 -1.080438 0.117950
v -0.923858 -0.842771 0.067950
v -0.923858 -0.842771 0.117950
v -1.101581 -0.543579 0.067950
v -1.101581 -0.543579 0.117950
v -1.101581 -0.482246 0.067950
v -1.101581 -0.482246 0.117950
v -0.960919 -0.543579 0.067950
v -0.960919 -0.543579 0.117950
v -0.960919 -0.482246 0.067950
v -0.960919 -0.482246 0.117950
v -1.101581 -0.674296 0.067950
v -1.101581 -0.674296 0.117950
v -1.101581 -0.612963 0.067950
v -1.101581 -0.612963 0.117950
v -0.960919 -0.674296 0.067950
v -0.960919 -0.674296 0.117950
v -0.960919 -0.612963 0.067950
v -0.960919 -0.612963 0.117950
v -0.991585 -0.643629 0.067950
v -0.991585 -0.643629 0.117950
v -0.991585 -0.512913 0.067950
v -0.991585 -0.512913 0.117950
v -0.930252 -0.643629 0.067950
v -0.930252 -0.643629 0.117950
v -0.930252 -0.512913 0.067950
v -0.930252 -0.512913 0.117950
v -1.132248 -0.643629 0.067950
v -1.132248 -0.643629 0.117950
v -1.132248 -0.512913 0.067950
v -1.132248 -0.512913 0.117950
v -1.070915 -0.643629 0.067950
v -1.070915 -0.643629 0.117950
v -1.070915 -0.512913 0.067950
v -1.070915 -0.512913 0.117950
v -1.107975 -0.661224 0.067950
v -1.107975 -0.661224 0.117950
v -1.107975 -0.599891 0.067950
v -1.107975 -0.599891 0.117950
v -0.954525 -0.661224 0.067950
v -0.954525 -0.661224 0.117950
v -0.954525 -0.599891 0.067950
v -0.954525 -0.599891 0.117950
v -1.107975 -0.556651 0.067950
v -1.107975 -0.556651 0.117950
v -1.107975 -0.495317 0.067950
v -1.107975 -0.495317 0.117950
v -0.954525 -0.556651 0.067950
v -0.954525 -0.556651 0.117950
v -0.954525 -0.495317 0.067950
v -0.954525 -0.495317 0.117950
v -1.101581 -0.160246 0.067950
v -1.101581 -0.160246 0.117950
v -1.101581 -0.098913 0.067950
v -1.101581 -0.098913 0.117950
v -0.960919 -0.160246 0.067950
v -0.960919 -0.160246 0.117950
v -0.960919 -0.098913 0.067950
v -0.960919 -0.098913 0.117950
v -1.101581 -0.290963 0.067950
v -1.101581 -0.290963 0.117950
v -1.101581 -0.229629 0.067950
v -1.101581 -0.229629 0.117950
v -0.960919 -0.290963 0.067950
v -0.960919 -0.290963 0.117950
v -0.960919 -0.229629 0.067950
v -0.960919 -0.229629 0.117950
v -0.991585 -0.260296 0.067950
v -0.991585 -0.260296 0.117950
v -0.991585 -0.129579 0.067950
v -0.991585 -0.129579 0.117950
v -0.930252 -0.260296 0.067950
v -0.930252 -0.260296 0.117950
v -0.930252 -0.129579 0.067950
v -0.930252 -0.129579 0.117950
v -1.132248 -0.260296 0.067950
v -1.132248 -0.260296 0.117950
v -1.132248 -0.129579 0.067950
v -1.132248 -0.129579 0.117950
v -1.070915 -0.260296 0.067950
v -1.070915 -0.260296 0.117950
v -1.070915 -0.129579 0.067950
v -1.070915 -0.129579 0.117950
v -1.138642 -0.313771 0.067950
v -1.138642 -0.313771 0.117950
v -1.138642 -0.076104 0.067950
v -1.138642 -0.076104 0.117950
v -1.077308 -0.313771 0.067950
v -1.077308 -0.313771 0.117950
v -1.077308 -0.076104 0.067950
v -1.077308 -0.076104 0.117950
v -1.107975 0.105442 0.067950
v -1.107975 0.105442 0.117950
v -1.107975 0.166776 0.067950
v -1.107975 0.166776 0.117950
v -0.954525 0.105442 0.067950
v -0.954525 0.105442 0.117950
v -0.954525 0.166776 0.067950
v -0.954525 0.166776 0.117950
v -1.107975 0.210016 0.067950
v -1.107975 0.210016 0.117950
v -1.107975 0.271349 0.067950
v -1.107975 0.271349 0.117950
v -0.954525 0.210016 0.067950
v -0.954525 0.210016 0.117950
v -0.954525 0.271349 0.067950
v -0.954525 0.271349 0.117950
v -1.059910 0.119425 0.067950
v -1.059910 0.119425 0.117950
v -1.059910 0.229825 0.067950
v -1.059910 0.229825 0.117950
v -0.949510 0.119425 0.067950
v -0.949510 0.119425 0.117950
v -0.949510 0.229825 0.067950
v -0.949510 0.229825 0.117950
v -1.107975 0.488776 0.067950
v -1.107975 0.488776 0.117950
v -1.107975 0.550109 0.067950
v -1.107975 0.550109 0.117950
v -0.954525 0.488776 0.067950
v -0.954525 0.488776 0.117950
v -0.954525 0.550109 0.067950
v -0.954525 0.550109 0.117950
v -1.107975 0.593349 0.067950
v -1.107975 0.593349 0.117950
v -1.107975 0.654682 0.067950
v -1.107975 0.654682 0.117950
v -0.954525 0.593349 0.067950
v -0.954525 0.593349 0.117950
v -0.954525 0.654682 0.067950
v -0.954525 0.654682 0.117950
v -1.138642 0.452896 0.067950
v -1.138642 0.452896 0.117950
v -1.138642 0.690562 0.067950
v -1.138642 0.690562 0.117950
v -1.077308 0.452896 0.067950
v -1.077308 0.452896 0.117950
v -1.077308 0.690562 0.067950
v -1.077308 0.690562 0.117950
v -1.144570 0.626783 0.067950
v -1.144570 0.626783 0.117950
v -1.105146 0.673767 0.067950
v -1.105146 0.673767 0.117950
v -0.957354 0.469691 0.067950
v -0.957354 0.469691 0.117950
v -0.917930 0.516675 0.067950
v -0.917930 0.516675 0.117950
v -1.144570 1.010117 0.067950
v -1.144570 1.010117 0.117950
v -1.105146 1.057101 0.067950
v -1.105146 1.057101 0.117950
v -0.957354 0.853024 0.067950
v -0.957354 0.853024 0.117950
v -0.917930 0.900008 0.067950
v -0.917930 0.900008 0.117950
v -1.159125 0.853096 0.067950
v -1.159125 0.853096 0.117950
v -1.159125 0.914429 0.067950
v -1.159125 0.914429 0.117950
v -0.903375 0.853096 0.067950
v -0.903375 0.853096 0.117950
v -0.903375 0.914429 0.067950
v -0.903375 0.914429 0.117950
v -0.572692 -1.080438 0.067950
v -0.572692 -1.080438 0.117950
v -0.572692 -0.842771 0.067950
v -0.572692 -0.842771 0.117950
v -0.511358 -1.080438 0.067950
v -0.511358 -1.080438 0.117950
v -0.511358 -0.842771 0.067950
v -0.511358 -0.842771 0.117950
v -0.708262 -0.920971 0.067950
v -0.708262 -0.920971 0.117950
v -0.708262 -0.859638 0.067950
v -0.708262 -0.859638 0.117950
v -0.529238 -0.920971 0.067950
v -0.529238 -0.920971 0.117950
v -0.529238 -0.859638 0.067950
v -0.529238 -0.859638 0.117950
v -0.572692 -1.032904 0.067950
v -0.572692 -1.032904 0.117950
v -0.572692 -0.890304 0.067950
v -0.572692 -0.890304 0.117950
v -0.511358 -1.032904 0.067950
v -0.511358 -1.032904 0.117950
v -0.511358 -0.890304 0.067950
v -0.511358 -0.890304 0.117950
v -0.742497 -0.658653 0.067950
v -0.742497 -0.658653 0.117950
v -0.742497 -0.548253 0.067950
v -0.742497 -0.548253 0.117950
v -0.632097 -0.658653 0.067950
v -0.632097 -0.658653 0.117950
v -0.632097 -0.548253 0.067950
v -0.632097 -0.548253 0.117950
v -0.746625 -0.680237 0.067950
v -0.746625 -0.680237 0.117950
v -0.746625 -0.618904 0.067950
v -0.746625 -0.618904 0.117950
v -0.490875 -0.680237 0.067950
v -0.490875 -0.680237 0.117950
v -0.490875 -0.618904 0.067950
v -0.490875 -0.618904 0.117950
v -0.572692 0.069562 0.067950
v -0.572692 0.069562 0.117950
v -0.572692 0.307229 0.067950
v -0.572692 0.307229 0.117950
v -0.511358 0.069562 0.067950
v -0.511358 0.069562 0.117950
v -0.511358 0.307229 0.067950
v -0.511358 0.307229 0.117950
v -0.708262 0.229029 0.067950
v -0.708262 0.229029 0.117950
v -0.708262 0.290362 0.067950
v -0.708262 0.290362 0.117950
v -0.529238 0.229029 0.067950
v -0.529238 0.229029 0.117950
v -0.529238 0.290362 0.067950
v -0.529238 0.290362 0.117950
v -0.572692 0.117096 0.067950
v -0.572692 0.117096 0.117950
v -0.572692 0.259696 0.067950
v -0.572692 0.259696 0.117950
v -0.511358 0.117096 0.067950
v -0.511358 0.117096 0.117950
v -0.511358 0.259696 0.067950
v -0.511358 0.259696 0.117950
v -0.689081 0.606421 0.067950
v -0.689081 0.606421 0.117950
v -0.689081 0.667754 0.067950
v -0.689081 0.667754 0.117950
v -0.548419 0.606421 0.067950
v -0.548419 0.606421 0.117950
v -0.548419 0.667754 0.067950
v -0.548419 0.667754 0.117950
v -0.689081 0.475704 0.067950
v -0.689081 0.475704 0.117950
v -0.689081 0.537037 0.067950
v -0.689081 0.537037 0.117950
v -0.548419 0.475704 0.067950
v -0.548419 0.475704 0.117950
v -0.548419 0.537037 0.067950
v -0.548419 0.537037 0.117950
v -0.579085 0.506371 0.067950
v -0.579085 0.506371 0.117950
v -0.579085 0.637087 0.067950
v -0.579085 0.637087 0.117950
v -0.517752 0.506371 0.067950
v -0.517752 0.506371 0.117950
v -0.517752 0.637087 0.067950
v -0.517752 0.637087 0.117950
v -0.719748 0.506371 0.067950
v -0.719748 0.506371 0.117950
v -0.719748 0.637087 0.067950
v -0.719748 0.637087 0.117950
v -0.658415 0.506371 0.067950
v -0.658415 0.506371 0.117950
v -0.658415 0.637087 0.067950
v -0.658415 0.637087 0.117950
v -0.708262 0.612362 0.067950
v -0.708262 0.612362 0.117950
v -0.708262 0.673696 0.067950
v -0.708262 0.673696 0.117950
v -0.529238 0.612362 0.067950
v -0.529238 0.612362 0.117950
v -0.529238 0.673696 0.067950
v -0.529238 0.673696 0.117950
v -0.572692 0.500429 0.067950
v -0.572692 0.500429 0.117950
v -0.572692 0.643029 0.067950
v -0.572692 0.643029 0.117950
v -0.511358 0.500429 0.067950
v -0.511358 0.500429 0.117950
v -0.511358 0.643029 0.067950
v -0.511358 0.643029 0.117950
v -0.695475 0.872109 0.067950
v -0.695475 0.872109 0.117950
v -0.695475 0.933442 0.067950
v -0.695475 0.933442 0.117950
v -0.542025 0.872109 0.067950
v -0.542025 0.872109 0.117950
v -0.542025 0.933442 0.067950
v -0.542025 0.933442 0.117950
v -0.695475 0.976682 0.067950
v -0.695475 0.976682 0.117950
v -0.695475 1.038016 0.067950
v -0.695475 1.038016 0.117950
v -0.542025 0.976682 0.067950
v -0.542025 0.976682 0.117950
v -0.542025 1.038016 0.067950
v -0.542025 1.038016 0.117950
v -0.649417 0.836229 0.067950
v -0.649417 0.836229 0.117950
v -0.649417 1.073896 0.067950
v -0.649417 1.073896 0.117950
v -0.588083 0.836229 0.067950
v -0.588083 0.836229 0.117950
v -0.588083 1.073896 0.067950
v -0.588083 1.073896 0.117950
v -0.334125 -0.537638 0.067950
v -0.334125 -0.537638 0.117950
v -0.334125 -0.476304 0.067950
v -0.334125 -0.476304 0.117950
v -0.078375 -0.537638 0.067950
v -0.078375 -0.537638 0.117950
v -0.078375 -0.476304 0.067950
v -0.078375 -0.476304 0.117950
v -0.319570 -0.523217 0.067950
v -0.319570 -0.523217 0.117950
v -0.280146 -0.476232 0.067950
v -0.280146 -0.476232 0.117950
v -0.132354 -0.680309 0.067950
v -0.132354 -0.680309 0.117950
v -0.092930 -0.633325 0.067950
v -0.092930 -0.633325 0.117950
v -0.319570 -0.139883 0.067950
v -0.319570 -0.139883 0.117950
v -0.280146 -0.092899 0.067950
v -0.280146 -0.092899 0.117950
v -0.132354 -0.296976 0.067950
v -0.132354 -0.296976 0.117950
v -0.092930 -0.249992 0.067950
v -0.092930 -0.249992 0.117950
v -0.209159 -0.207428 0.067950
v -0.209159 -0.207428 0.117950
v -0.209159 -0.097028 0.067950
v -0.209159 -0.097028 0.117950
v -0.098759 -0.207428 0.067950
v -0.098759 -0.207428 0.117950
v -0.098759 -0.097028 0.067950
v -0.098759 -0.097028 0.117950
v -0.334125 0.157729 0.067950
v -0.334125 0.157729 0.117950
v -0.334125 0.219062 0.067950
v -0.334125 0.219062 0.117950
v -0.078375 0.157729 0.067950
v -0.078375 0.157729 0.117950
v -0.078375 0.219062 0.067950
v -0.078375 0.219062 0.117950
v -0.276581 0.223087 0.067950
v -0.276581 0.223087 0.117950
v -0.276581 0.284421 0.067950
v -0.276581 0.284421 0.117950
v -0.135919 0.223087 0.067950
v -0.135919 0.223087 0.117950
v -0.135919 0.284421 0.067950
v -0.135919 0.284421 0.117950
v -0.276581 0.092371 0.067950
v -0.276581 0.092371 0.117950
v -0.276581 0.153704 0.067950
v -0.276581 0.153704 0.117950
v -0.135919 0.092371 0.067950
v -0.135919 0.092371 0.117950
v -0.135919 0.153704 0.067950
v -0.135919 0.153704 0.117950
v -0.166585 0.123037 0.067950
v -0.166585 0.123037 0.117950
v -0.166585 0.253754 0.067950
v -0.166585 0.253754 0.117950
v -0.105252 0.123037 0.067950
v -0.105252 0.123037 0.117950
v -0.105252 0.253754 0.067950
v -0.105252 0.253754 0.117950
v -0.307248 0.123037 0.067950
v -0.307248 0.123037 0.117950
v -0.307248 0.253754 0.067950
v -0.307248 0.253754 0.117950
v -0.245915 0.123037 0.067950
v -0.245915 0.123037 0.117950
v -0.245915 0.253754 0.067950
v -0.245915 0.253754 0.117950
v -0.282975 0.105442 0.067950
v -0.282975 0.105442 0.117950
v -0.282975 0.166776 0.067950
v -0.282975 0.166776 0.117950
v -0.129525 0.105442 0.067950
v -0.129525 0.105442 0.117950
v -0.129525 0.166776 0.067950
v -0.129525 0.166776 0.117950
v -0.282975 0.210016 0.067950
v -0.282975 0.210016 0.117950
v -0.282975 0.271349 0.067950
v -0.282975 0.271349 0.117950
v -0.129525 0.210016 0.067950
v -0.129525 0.210016 0.117950
v -0.129525 0.271349 0.067950
v -0.129525 0.271349 0.117950
v -0.295762 0.612362 0.067950
v -0.295762 0.612362 0.117950
v -0.295762 0.673696 0.067950
v -0.295762 0.673696 0.117950
v -0.116737 0.612362 0.067950
v -0.116737 0.612362 0.117950
v -0.116737 0.673696 0.067950
v -0.116737 0.673696 0.117950
v -0.160192 0.500429 0.067950
v -0.160192 0.500429 0.117950
v -0.160192 0.643029 0.067950
v -0.160192 0.643029 0.117950
v -0.098858 0.500429 0.067950
v -0.098858 0.500429 0.117950
v -0.098858 0.643029 0.067950
v -0.098858 0.643029 0.117950
v -0.276581 0.606421 0.067950
v -0.276581 0.606421 0.117950
v -0.276581 0.667754 0.067950
v -0.276581 0.667754 0.117950
v -0.135919 0.606421 0.067950
v -0.135919 0.606421 0.117950
v -0.135919 0.667754 0.067950
v -0.135919 0.667754 0.117950
v -0.276581 0.475704 0.067950
v -0.276581 0.475704 0.117950
v -0.276581 0.537037 0.067950
v -0.276581 0.537037 0.117950
v -0.135919 0.475704 0.067950
v -0.135919 0.475704 0.117950
v -0.135919 0.537037 0.067950
v -0.135919 0.537037 0.117950
v -0.166585 0.506371 0.067950
v -0.166585 0.506371 0.117950
v -0.166585 0.637087 0.067950
v -0.166585 0.637087 0.117950
v -0.105252 0.506371 0.067950
v -0.105252 0.506371 0.117950
v -0.105252 0.637087 0.067950
v -0.105252 0.637087 0.117950
v -0.307248 0.506371 0.067950
v -0.307248 0.506371 0.117950
v -0.307248 0.637087 0.067950
v -0.307248 0.637087 0.117950
v -0.245915 0.506371 0.067950
v -0.245915 0.506371 0.117950
v -0.245915 0.637087 0.067950
v -0.245915 0.637087 0.117950
v 0.252308 -0.697104 0.067950
v 0.252308 -0.697104 0.117950
v 0.252308 -0.459438 0.067950
v 0.252308 -0.459438 0.117950
v 0.313642 -0.697104 0.067950
v 0.313642 -0.697104 0.117950
v 0.313642 -0.459438 0.067950
v 0.313642 -0.459438 0.117950
v 0.092930 -0.523217 0.067950
v 0.092930 -0.523217 0.117950
v 0.132354 -0.476232 0.067950
v 0.132354 -0.476232 0.117950
v 0.280146 -0.680309 0.067950
v 0.280146 -0.680309 0.117950
v 0.319570 -0.633325 0.067950
v 0.319570 -0.633325 0.117950
v 0.116737 -0.537638 0.067950
v 0.116737 -0.537638 0.117950
v 0.116737 -0.476304 0.067950
v 0.116737 -0.476304 0.117950
v 0.295762 -0.537638 0.067950
v 0.295762 -0.537638 0.117950
v 0.295762 -0.476304 0.067950
v 0.295762 -0.476304 0.117950
v 0.252308 -0.649571 0.067950
v 0.252308 -0.649571 0.117950
v 0.252308 -0.506971 0.067950
v 0.252308 -0.506971 0.117950
v 0.313642 -0.649571 0.067950
v 0.313642 -0.649571 0.117950
v 0.313642 -0.506971 0.067950
v 0.313642 -0.506971 0.117950
v 0.158245 -0.312565 0.067950
v 0.158245 -0.312565 0.117950
v 0.158245 -0.202165 0.067950
v 0.158245 -0.202165 0.117950
v 0.268645 -0.312565 0.067950
v 0.268645 -0.312565 0.117950
v 0.268645 -0.202165 0.067950
v 0.268645 -0.202165 0.117950
v 0.135919 -0.160246 0.067950
v 0.135919 -0.160246 0.117950
v 0.135919 -0.098913 0.067950
v 0.135919 -0.098913 0.117950
v 0.276581 -0.160246 0.067950
v 0.276581 -0.160246 0.117950
v 0.276581 -0.098913 0.067950
v 0.276581 -0.098913 0.117950
v 0.135919 -0.290963 0.067950
v 0.135919 -0.290963 0.117950
v 0.135919 -0.229629 0.067950
v 0.135919 -0.229629 0.117950
v 0.276581 -0.290963 0.067950
v 0.276581 -0.290963 0.117950
v 0.276581 -0.229629 0.067950
v 0.276581 -0.229629 0.117950
v 0.245915 -0.260296 0.067950
v 0.245915 -0.260296 0.117950
v 0.245915 -0.129579 0.067950
v 0.245915 -0.129579 0.117950
v 0.307248 -0.260296 0.067950
v 0.307248 -0.260296 0.117950
v 0.307248 -0.129579 0.067950
v 0.307248 -0.129579 0.117950
v 0.105252 -0.260296 0.067950
v 0.105252 -0.260296 0.117950
v 0.105252 -0.129579 0.067950
v 0.105252 -0.129579 0.117950
v 0.166585 -0.260296 0.067950
v 0.166585 -0.260296 0.117950
v 0.166585 -0.129579 0.067950
v 0.166585 -0.129579 0.117950
v 0.129525 -0.277891 0.067950
v 0.129525 -0.277891 0.117950
v 0.129525 -0.216558 0.067950
v 0.129525 -0.216558 0.117950
v 0.282975 -0.277891 0.067950
v 0.282975 -0.277891 0.117950
v 0.282975 -0.216558 0.067950
v 0.282975 -0.216558 0.117950
v 0.129525 -0.173318 0.067950
v 0.129525 -0.173318 0.117950
v 0.129525 -0.111984 0.067950
v 0.129525 -0.111984 0.117950
v 0.282975 -0.173318 0.067950
v 0.282975 -0.173318 0.117950
v 0.282975 -0.111984 0.067950
v 0.282975 -0.111984 0.117950
v 0.092930 0.626783 0.067950
v 0.092930 0.626783 0.117950
v 0.132354 0.673767 0.067950
v 0.132354 0.673767 0.117950
v 0.280146 0.469691 0.067950
v 0.280146 0.469691 0.117950
v 0.319570 0.516675 0.067950
v 0.319570 0.516675 0.117950
v 0.175583 0.452896 0.067950
v 0.175583 0.452896 0.117950
v 0.175583 0.690562 0.067950
v 0.175583 0.690562 0.117950
v 0.236917 0.452896 0.067950
v 0.236917 0.452896 0.117950
v 0.236917 0.690562 0.067950
v 0.236917 0.690562 0.117950
v 0.084807 0.511285 0.067950
v 0.084807 0.511285 0.117950
v 0.084807 0.621685 0.067950
v 0.084807 0.621685 0.117950
v 0.195207 0.511285 0.067950
v 0.195207 0.511285 0.117950
v 0.195207 0.621685 0.067950
v 0.195207 0.621685 0.117950
v 0.135919 0.989754 0.067950
v 0.135919 0.989754 0.117950
v 0.135919 1.051087 0.067950
v 0.135919 1.051087 0.117950
v 0.276581 0.989754 0.067950
v 0.276581 0.989754 0.117950
v 0.276581 1.051087 0.067950
v 0.276581 1.051087 0.117950
v 0.135919 0.859037 0.067950
v 0.135919 0.859037 0.117950
v 0.135919 0.920371 0.067950
v 0.135919 0.920371 0.117950
v 0.276581 0.859037 0.067950
v 0.276581 0.859037 0.117950
v 0.276581 0.920371 0.067950
v 0.276581 0.920371 0.117950
v 0.245915 0.889704 0.067950
v 0.245915 0.889704 0.117950
v 0.245915 1.020421 0.067950
v 0.245915 1.020421 0.117950
v 0.307248 0.889704 0.067950
v 0.307248 0.889704 0.117950
v 0.307248 1.020421 0.067950
v 0.307248 1.020421 0.117950
v 0.105252 0.889704 0.067950
v 0.105252 0.889704 0.117950
v 0.105252 1.020421 0.067950
v 0.105252 1.020421 0.117950
v 0.166585 0.889704 0.067950
v 0.166585 0.889704 0.117950
v 0.166585 1.020421 0.067950
v 0.166585 1.020421 0.117950
v 0.078375 0.995696 0.067950
v 0.078375 0.995696 0.117950
v 0.078375 1.057029 0.067950
v 0.078375 1.057029 0.117950
v 0.334125 0.995696 0.067950
v 0.334125 0.995696 0.117950
v 0.334125 1.057029 0.067950
v 0.334125 1.057029 0.117950
v 0.098858 0.836229 0.067950
v 0.098858 0.836229 0.117950
v 0.098858 1.073896 0.067950
v 0.098858 1.073896 0.117950
v 0.160192 0.836229 0.067950
v 0.160192 0.836229 0.117950
v 0.160192 1.073896 0.067950
v 0.160192 1.073896 0.117950
v 0.548419 -0.926912 0.067950
v 0.548419 -0.926912 0.117950
v 0.548419 -0.865579 0.067950
v 0.548419 -0.865579 0.117950
v 0.689081 -0.926912 0.067950
v 0.689081 -0.926912 0.117950
v 0.689081 -0.865579 0.067950
v 0.689081 -0.865579 0.117950
v 0.548419 -1.057629 0.067950
v 0.548419 -1.057629 0.117950
v 0.548419 -0.996296 0.067950
v 0.548419 -0.996296 0.117950
v 0.689081 -1.057629 0.067950
v 0.689081 -1.057629 0.117950
v 0.689081 -0.996296 0.067950
v 0.689081 -0.996296 0.117950
v 0.658415 -1.026963 0.067950
v 0.658415 -1.026963 0.117950
v 0.658415 -0.896246 0.067950
v 0.658415 -0.896246 0.117950
v 0.719748 -1.026963 0.067950
v 0.719748 -1.026963 0.117950
v 0.719748 -0.896246 0.067950
v 0.719748 -0.896246 0.117950
v 0.517752 -1.026963 0.067950
v 0.517752 -1.026963 0.117950
v 0.517752 -0.896246 0.067950
v 0.517752 -0.896246 0.117950
v 0.579085 -1.026963 0.067950
v 0.579085 -1.026963 0.117950
v 0.579085 -0.896246 0.067950
v 0.579085 -0.896246 0.117950
v 0.505430 -0.906550 0.067950
v 0.505430 -0.906550 0.117950
v 0.544854 -0.859566 0.067950
v 0.544854 -0.859566 0.117950
v 0.692646 -1.063643 0.067950
v 0.692646 -1.063643 0.117950
v 0.732070 -1.016658 0.067950
v 0.732070 -1.016658 0.117950
v 0.532653 -0.288567 0.067950
v 0.532653 -0.288567 0.117950
v 0.532653 -0.178167 0.067950
v 0.532653 -0.178167 0.117950
v 0.643053 -0.288567 0.067950
v 0.643053 -0.288567 0.117950
v 0.643053 -0.178167 0.067950
v 0.643053 -0.178167 0.117950
v 0.490875 -0.225604 0.067950
v 0.490875 -0.225604 0.117950
v 0.490875 -0.164271 0.067950
v 0.490875 -0.164271 0.117950
v 0.746625 -0.225604 0.067950
v 0.746625 -0.225604 0.117950
v 0.746625 -0.164271 0.067950
v 0.746625 -0.164271 0.117950
v 0.544854 -0.296976 0.067950
v 0.544854 -0.296976 0.117950
v 0.505430 -0.249992 0.067950
v 0.505430 -0.249992 0.117950
v 0.732070 -0.139883 0.067950
v 0.732070 -0.139883 0.117950
v 0.692646 -0.092899 0.067950
v 0.692646 -0.092899 0.117950
v 0.623314 0.577353 0.067950
v 0.623314 0.577353 0.117950
v 0.623314 0.687753 0.067950
v 0.623314 0.687753 0.117950
v 0.733714 0.577353 0.067950
v 0.733714 0.577353 0.117950
v 0.733714 0.687753 0.067950
v 0.733714 0.687753 0.117950
v 0.548419 0.606421 0.067950
v 0.548419 0.606421 0.117950
v 0.548419 0.667754 0.067950
v 0.548419 0.667754 0.117950
v 0.689081 0.606421 0.067950
v 0.689081 0.606421 0.117950
v 0.689081 0.667754 0.067950
v 0.689081 0.667754 0.117950
v 0.548419 0.475704 0.067950
v 0.548419 0.475704 0.117950
v 0.548419 0.537037 0.067950
v 0.548419 0.537037 0.117950
v 0.689081 0.475704 0.067950
v 0.689081 0.475704 0.117950
v 0.689081 0.537037 0.067950
v 0.689081 0.537037 0.117950
v 0.658415 0.506371 0.067950
v 0.658415 0.506371 0.117950
v 0.658415 0.637087 0.067950
v 0.658415 0.637087 0.117950
v 0.719748 0.506371 0.067950
v 0.719748 0.506371 0.117950
v 0.719748 0.637087 0.067950
v 0.719748 0.637087 0.117950
v 0.517752 0.506371 0.067950
v 0.517752 0.506371 0.117950
v 0.517752 0.637087 0.067950
v 0.517752 0.637087 0.117950
v 0.579085 0.506371 0.067950
v 0.579085 0.506371 0.117950
v 0.579085 0.637087 0.067950
v 0.579085 0.637087 0.117950
v 0.490875 0.853096 0.067950
v 0.490875 0.853096 0.117950
v 0.490875 0.914429 0.067950
v 0.490875 0.914429 0.117950
v 0.746625 0.853096 0.067950
v 0.746625 0.853096 0.117950
v 0.746625 0.914429 0.067950
v 0.746625 0.914429 0.117950
v 0.548419 0.989754 0.067950
v 0.548419 0.989754 0.117950
v 0.548419 1.051087 0.067950
v 0.548419 1.051087 0.117950
v 0.689081 0.989754 0.067950
v 0.689081 0.989754 0.117950
v 0.689081 1.051087 0.067950
v 0.689081 1.051087 0.117950
v 0.548419 0.859037 0.067950
v 0.548419 0.859037 0.117950
v 0.548419 0.920371 0.067950
v 0.548419 0.920371 0.117950
v 0.689081 0.859037 0.067950
v 0.689081 0.859037 0.117950
v 0.689081 0.920371 0.067950
v 0.689081 0.920371 0.117950
v 0.658415 0.889704 0.067950
v 0.658415 0.889704 0.117950
v 0.658415 1.020421 0.067950
v 0.658415 1.020421 0.117950
v 0.719748 0.889704 0.067950
v 0.719748 0.889704 0.117950
v 0.719748 1.020421 0.067950
v 0.719748 1.020421 0.117950
v 0.517752 0.889704 0.067950
v 0.517752 0.889704 0.117950
v 0.517752 1.020421 0.067950
v 0.517752 1.020421 0.117950
v 0.579085 0.889704 0.067950
v 0.579085 0.889704 0.117950
v 0.579085 1.020421 0.067950
v 0.579085 1.020421 0.117950
v 0.954525 -0.661224 0.067950
v 0.954525 -0.661224 0.117950
v 0.954525 -0.599891 0.067950
v 0.954525 -0.599891 0.117950
v 1.107975 -0.661224 0.067950
v 1.107975 -0.661224 0.117950
v 1.107975 -0.599891 0.067950
v 1.107975 -0.599891 0.117950
v 0.954525 -0.556651 0.067950
v 0.954525 -0.556651 0.117950
v 0.954525 -0.495317 0.067950
v 0.954525 -0.495317 0.117950
v 1.107975 -0.556651 0.067950
v 1.107975 -0.556651 0.117950
v 1.107975 -0.495317 0.067950
v 1.107975 -0.495317 0.117950
v 0.923858 -0.697104 0.067950
v 0.923858 -0.697104 0.117950
v 0.923858 -0.459438 0.067950
v 0.923858 -0.459438 0.117950
v 0.985192 -0.697104 0.067950
v 0.985192 -0.697104 0.117950
v 0.985192 -0.459438 0.067950
v 0.985192 -0.459438 0.117950
v 0.941738 -0.537638 0.067950
v 0.941738 -0.537638 0.117950
v 0.941738 -0.476304 0.067950
v 0.941738 -0.476304 0.117950
v 1.120762 -0.537638 0.067950
v 1.120762 -0.537638 0.117950
v 1.120762 -0.476304 0.067950
v 1.120762 -0.476304 0.117950
v 1.077308 -0.649571 0.067950
v 1.077308 -0.649571 0.117950
v 1.077308 -0.506971 0.067950
v 1.077308 -0.506971 0.117950
v 1.138642 -0.649571 0.067950
v 1.138642 -0.649571 0.117950
v 1.138642 -0.506971 0.067950
v 1.138642 -0.506971 0.117950
v 0.917930 -0.139883 0.067950
v 0.917930 -0.139883 0.117950
v 0.957354 -0.092899 0.067950
v 0.957354 -0.092899 0.117950
v 1.105146 -0.296976 0.067950
v 1.105146 -0.296976 0.117950
v 1.144570 -0.249992 0.067950
v 1.144570 -0.249992 0.117950
v 0.954525 -0.277891 0.067950
v 0.954525 -0.277891 0.117950
v 0.954525 -0.216558 0.067950
v 0.954525 -0.216558 0.117950
v 1.107975 -0.277891 0.067950
v 1.107975 -0.277891 0.117950
v 1.107975 -0.216558 0.067950
v 1.107975 -0.216558 0.117950
v 0.954525 -0.173318 0.067950
v 0.954525 -0.173318 0.117950
v 0.954525 -0.111984 0.067950
v 0.954525 -0.111984 0.117950
v 1.107975 -0.173318 0.067950
v 1.107975 -0.173318 0.117950
v 1.107975 -0.111984 0.067950
v 1.107975 -0.111984 0.117950
v 1.000583 0.452896 0.067950
v 1.000583 0.452896 0.117950
v 1.000583 0.690562 0.067950
v 1.000583 0.690562 0.117950
v 1.061917 0.452896 0.067950
v 1.061917 0.452896 0.117950
v 1.061917 0.690562 0.067950
v 1.061917 0.690562 0.117950
v 0.903375 0.612362 0.067950
v 0.903375 0.612362 0.117950
v 0.903375 0.673696 0.067950
v 0.903375 0.673696 0.117950
v 1.159125 0.612362 0.067950
v 1.159125 0.612362 0.117950
v 1.159125 0.673696 0.067950
v 1.159125 0.673696 0.117950
v 0.917930 0.626783 0.067950
v 0.917930 0.626783 0.117950
v 0.957354 0.673767 0.067950
v 0.957354 0.673767 0.117950
v 1.105146 0.469691 0.067950
v 1.105146 0.469691 0.117950
v 1.144570 0.516675 0.067950
v 1.144570 0.516675 0.117950
v 1.000583 0.836229 0.067950
v 1.000583 0.836229 0.117950
v 1.000583 1.073896 0.067950
v 1.000583 1.073896 0.117950
v 1.061917 0.836229 0.067950
v 1.061917 0.836229 0.117950
v 1.061917 1.073896 0.067950
v 1.061917 1.073896 0.117950
v 0.941738 0.995696 0.067950
v 0.941738 0.995696 0.117950
v 0.941738 1.057029 0.067950
v 0.941738 1.057029 0.117950
v 1.120762 0.995696 0.067950
v 1.120762 0.995696 0.117950
v 1.120762 1.057029 0.067950
v 1.120762 1.057029 0.117950
v 1.077308 0.883762 0.067950
v 1.077308 0.883762 0.117950
v 1.077308 1.026362 0.067950
v 1.077308 1.026362 0.117950
v 1.138642 0.883762 0.067950
v 1.138642 0.883762 0.117950
v 1.138642 1.026362 0.067950
v 1.138642 1.026362 0.117950
v 1.420943 -1.003597 0.067950
v 1.420943 -1.003597 0.117950
v 1.420943 -0.893197 0.067950
v 1.420943 -0.893197 0.117950
v 1.531343 -1.003597 0.067950
v 1.531343 -1.003597 0.117950
v 1.531343 -0.893197 0.067950
v 1.531343 -0.893197 0.117950
v 1.367025 -1.044558 0.067950
v 1.367025 -1.044558 0.117950
v 1.367025 -0.983224 0.067950
v 1.367025 -0.983224 0.117950
v 1.520475 -1.044558 0.067950
v 1.520475 -1.044558 0.117950
v 1.520475 -0.983224 0.067950
v 1.520475 -0.983224 0.117950
v 1.367025 -0.939984 0.067950
v 1.367025 -0.939984 0.117950
v 1.367025 -0.878651 0.067950
v 1.367025 -0.878651 0.117950
v 1.520475 -0.939984 0.067950
v 1.520475 -0.939984 0.117950
v 1.520475 -0.878651 0.067950
v 1.520475 -0.878651 0.117950
v 1.354238 -0.537638 0.067950
v 1.354238 -0.537638 0.117950
v 1.354238 -0.476304 0.067950
v 1.354238 -0.476304 0.117950
v 1.533262 -0.537638 0.067950
v 1.533262 -0.537638 0.117950
v 1.533262 -0.476304 0.067950
v 1.533262 -0.476304 0.117950
v 1.489808 -0.649571 0.067950
v 1.489808 -0.649571 0.117950
v 1.489808 -0.506971 0.067950
v 1.489808 -0.506971 0.117950
v 1.551142 -0.649571 0.067950
v 1.551142 -0.649571 0.117950
v 1.551142 -0.506971 0.067950
v 1.551142 -0.506971 0.117950
v 1.315875 -0.537638 0.067950
v 1.315875 -0.537638 0.117950
v 1.315875 -0.476304 0.067950
v 1.315875 -0.476304 0.117950
v 1.571625 -0.537638 0.067950
v 1.571625 -0.537638 0.117950
v 1.571625 -0.476304 0.067950
v 1.571625 -0.476304 0.117950
v 1.369854 -0.296976 0.067950
v 1.369854 -0.296976 0.117950
v 1.330430 -0.249992 0.067950
v 1.330430 -0.249992 0.117950
v 1.557070 -0.139883 0.067950
v 1.557070 -0.139883 0.117950
v 1.517646 -0.092899 0.067950
v 1.517646 -0.092899 0.117950
v 1.315875 -0.154304 0.067950
v 1.315875 -0.154304 0.117950
v 1.315875 -0.092971 0.067950
v 1.315875 -0.092971 0.117950
v 1.571625 -0.154304 0.067950
v 1.571625 -0.154304 0.117950
v 1.571625 -0.092971 0.067950
v 1.571625 -0.092971 0.117950
v 1.367025 -0.277891 0.067950
v 1.367025 -0.277891 0.117950
v 1.367025 -0.216558 0.067950
v 1.367025 -0.216558 0.117950
v 1.520475 -0.277891 0.067950
v 1.520475 -0.277891 0.117950
v 1.520475 -0.216558 0.067950
v 1.520475 -0.216558 0.117950
v 1.367025 -0.173318 0.067950
v 1.367025 -0.173318 0.117950
v 1.367025 -0.111984 0.067950
v 1.367025 -0.111984 0.117950
v 1.520475 -0.173318 0.067950
v 1.520475 -0.173318 0.117950
v 1.520475 -0.111984 0.067950
v 1.520475 -0.111984 0.117950
v 1.354238 0.229029 0.067950
v 1.354238 0.229029 0.117950
v 1.354238 0.290362 0.067950
v 1.354238 0.290362 0.117950
v 1.533262 0.229029 0.067950
v 1.533262 0.229029 0.117950
v 1.533262 0.290362 0.067950
v 1.533262 0.290362 0.117950
v 1.489808 0.117096 0.067950
v 1.489808 0.117096 0.117950
v 1.489808 0.259696 0.067950
v 1.489808 0.259696 0.117950
v 1.551142 0.117096 0.067950
v 1.551142 0.117096 0.117950
v 1.551142 0.259696 0.067950
v 1.551142 0.259696 0.117950
v 1.449434 0.108532 0.067950
v 1.449434 0.108532 0.117950
v 1.449434 0.218932 0.067950
v 1.449434 0.218932 0.117950
v 1.559834 0.108532 0.067950
v 1.559834 0.108532 0.117950
v 1.559834 0.218932 0.067950
v 1.559834 0.218932 0.117950
v 1.373419 0.606421 0.067950
v 1.373419 0.606421 0.117950
v 1.373419 0.667754 0.067950
v 1.373419 0.667754 0.117950
v 1.514081 0.606421 0.067950
v 1.514081 0.606421 0.117950
v 1.514081 0.667754 0.067950
v 1.514081 0.667754 0.117950
v 1.373419 0.475704 0.067950
v 1.373419 0.475704 0.117950
v 1.373419 0.537037 0.067950
v 1.373419 0.537037 0.117950
v 1.514081 0.475704 0.067950
v 1.514081 0.475704 0.117950
v 1.514081 0.537037 0.067950
v 1.514081 0.537037 0.117950
v 1.483415 0.506371 0.067950
v 1.483415 0.506371 0.117950
v 1.483415 0.637087 0.067950
v 1.483415 0.637087 0.117950
v 1.544748 0.506371 0.067950
v 1.544748 0.506371 0.117950
v 1.544748 0.637087 0.067950
v 1.544748 0.637087 0.117950
v 1.342752 0.506371 0.067950
v 1.342752 0.506371 0.117950
v 1.342752 0.637087 0.067950
v 1.342752 0.637087 0.117950
v 1.404086 0.506371 0.067950
v 1.404086 0.506371 0.117950
v 1.404086 0.637087 0.067950
v 1.404086 0.637087 0.117950
v 1.315875 0.541062 0.067950
v 1.315875 0.541062 0.117950
v 1.315875 0.602396 0.067950
v 1.315875 0.602396 0.117950
v 1.571625 0.541062 0.067950
v 1.571625 0.541062 0.117950
v 1.571625 0.602396 0.067950
v 1.571625 0.602396 0.117950
v 1.354238 0.612362 0.067950
v 1.354238 0.612362 0.117950
v 1.354238 0.673696 0.067950
v 1.354238 0.673696 0.117950
v 1.533262 0.612362 0.067950
v 1.533262 0.612362 0.117950
v 1.533262 0.673696 0.067950
v 1.533262 0.673696 0.117950
v 1.489808 0.500429 0.067950
v 1.489808 0.500429 0.117950
v 1.489808 0.643029 0.067950
v 1.489808 0.643029 0.117950
v 1.551142 0.500429 0.067950
v 1.551142 0.500429 0.117950
v 1.551142 0.643029 0.067950
v 1.551142 0.643029 0.117950
v 1.367025 0.872109 0.067950
v 1.367025 0.872109 0.117950
v 1.367025 0.933442 0.067950
v 1.367025 0.933442 0.117950
v 1.520475 0.872109 0.067950
v 1.520475 0.872109 0.117950
v 1.520475 0.933442 0.067950
v 1.520475 0.933442 0.117950
v 1.367025 0.976682 0.067950
v 1.367025 0.976682 0.117950
v 1.367025 1.038016 0.067950
v 1.367025 1.038016 0.117950
v 1.520475 0.976682 0.067950
v 1.520475 0.976682 0.117950
v 1.520475 1.038016 0.067950
v 1.520475 1.038016 0.117950
v 1.369854 0.853024 0.067950
v 1.369854 0.853024 0.117950
v 1.330430 0.900008 0.067950
v 1.330430 0.900008 0.117950
v 1.557070 1.010117 0.067950
v 1.557070 1.010117 0.117950
v 1.517646 1.057101 0.067950
v 1.517646 1.057101 0.117950
v -2.000000 1.346729 0.067950
v -2.000000 1.346729 0.167950
v -2.000000 1.496729 0.167950
v 2.000000 1.346729 0.067950
v 2.000000 1.346729 0.167950
v 2.000000 1.496729 0.167950
v -2.000000 -1.503271 0.167950
v -2.000000 -1.353271 0.067950
v -2.000000 -1.353271 0.167950
v 2.000000 -1.503271 0.167950
v 2.000000 -1.353271 0.067950
v 2.000000 -1.353271 0.167950
v 1.850000 -1.503271 0.067950
v 1.850000 -1.503271 0.167950
v 1.850000 1.496729 0.067950
v 1.850000 1.496729 0.167950
v -1.850000 -1.503271 0.067950
v -1.850000 -1.503271 0.167950
v -1.850000 1.496729 0.067950
v -1.850000 1.496729 0.167950
v -2.185492 -1.309286 0.253442
v -1.814507 -1.309286 0.253442
v -2.185492 1.496730 0.253442
v -1.814507 1.496730 0.253442
v -2.195593 -1.286419 0.263544
v -1.804404 -1.286419 0.263544
v -1.804404 1.473863 0.263543
v -2.195593 1.473863 0.263543
v -1.785899 -1.363487 0.282050
v -2.214101 -1.363487 0.282050
v -1.785899 -1.503271 0.282050
v -2.214101 -1.503271 0.282050
v -2.214101 -1.503271 0.067950
v -1.785899 -1.503271 0.067950
v -1.785899 -1.363487 0.067950
v -1.814507 -1.309286 0.067950
v -1.804404 -1.286419 0.067950
v -1.804404 1.473863 0.067950
v -1.814507 1.496730 0.067950
v -2.185492 1.496730 0.067950
v -2.195593 1.473863 0.067950
v -2.195593 -1.286419 0.067950
v -2.185492 -1.309286 0.067950
v -2.214101 -1.363487 0.067950
v -1.999999 1.503271 0.067950
v 1.814508 -1.309286 0.253442
v 2.185493 -1.309286 0.253442
v 1.814508 1.496730 0.253442
v 2.185493 1.496730 0.253442
v 1.804407 -1.286419 0.263544
v 2.195596 -1.286419 0.263544
v 2.195596 1.473863 0.263543
v 1.804407 1.473863 0.263543
v 2.214101 -1.363487 0.282050
v 1.785899 -1.363487 0.282050
v 2.214101 -1.503271 0.282050
v 1.785899 -1.503271 0.282050
v 1.785899 -1.503271 0.067950
v 2.214101 -1.503271 0.067950
v 2.214101 -1.363487 0.067950
v 2.185493 -1.309286 0.067950
v 2.195596 -1.286419 0.067950
v 2.195596 1.473863 0.067950
v 2.185493 1.496730 0.067950
v 1.814508 1.496730 0.067950
v 1.804407 1.473863 0.067950
v 1.804407 -1.286419 0.067950
v 1.814508 -1.309286 0.067950
v 1.785899 -1.363487 0.067950
v 2.000001 1.503271 0.067950
vn -1.0000 -0.0000 -0.0000
vn -0.0000 -0.0000 -1.0000
vn 1.0000 -0.0000 -0.0000
vn -0.0000 -0.0000 1.0000
vn -0.0000 -1.0000 -0.0000
vn -0.0000 1.0000 -0.0000
vn -0.7660 0.6428 -0.0000
vn 0.6428 0.7660 -0.0000
vn 0.7660 -0.6428 -0.0000
vn -0.6428 -0.7660 -0.0000
vn -0.7660 -0.6428 -0.0000
vn -0.6428 0.7660 -0.0000
vn 0.7660 0.6428 -0.0000
vn 0.6428 -0.7660 -0.0000
vn -0.0352 0.9994 -0.0000
vn -0.0000 -0.4041 0.9147
vn 0.9147 -0.4041 -0.0000
vn -0.9147 -0.4041 -0.0000
vn -0.0000 0.4041 0.9147
vn 0.9147 0.4041 -0.0000
vn -0.9147 0.4041 -0.0000
vn 0.8844 0.4668 -0.0000
vn -0.0000 0.4668 0.8844
vn -0.8844 0.4668 -0.0000
vn 0.0352 0.9994 -0.0000
vn -0.0000 0.9994 0.0352
vt 0.125000 0.625000
vt 0.375000 0.875000
vt 0.375000 0.625000
vt 0.875000 0.625000
vt 0.875000 0.375000
s 0
usemtl ruins_ch_mural
f 2/1/1 3/1/1 1/1/1
f 4/2/2 7/2/2 3/2/2
f 8/1/3 5/1/3 7/1/3
f 6/3/4 1/3/4 5/3/4
f 7/2/5 1/2/5 3/2/5
f 4/4/6 6/4/6 8/4/6
f 10/5/1 11/5/1 9/5/1
f 12/5/6 15/5/6 11/5/6
f 16/5/3 13/5/3 15/5/3
f 14/5/5 9/5/5 13/5/5
f 15/5/2 9/5/2 11/5/2
f 12/5/4 14/5/4 16/5/4
f 18/5/1 19/5/1 17/5/1
f 20/5/6 23/5/6 19/5/6
f 24/5/3 21/5/3 23/5/3
f 22/5/5 17/5/5 21/5/5
f 23/5/2 17/5/2 19/5/2
f 20/5/4 22/5/4 24/5/4
f 26/5/1 27/5/1 25/5/1
f 28/5/6 31/5/6 27/5/6
f 32/5/3 29/5/3 31/5/3
f 30/5/5 25/5/5 29/5/5
f 31/5/2 25/5/2 27/5/2
f 28/5/4 30/5/4 32/5/4
f 34/5/1 35/5/1 33/5/1
f 36/5/6 39/5/6 35/5/6
f 40/5/3 37/5/3 39/5/3
f 38/5/5 33/5/5 37/5/5
f 39/5/2 33/5/2 35/5/2
f 36/5/4 38/5/4 40/5/4
f 42/5/1 43/5/1 41/5/1
f 44/5/6 47/5/6 43/5/6
f 48/5/3 45/5/3 47/5/3
f 46/5/5 41/5/5 45/5/5
f 47/5/2 41/5/2 43/5/2
f 44/5/4 46/5/4 48/5/4
f 50/5/1 51/5/1 49/5/1
f 52/5/6 55/5/6 51/5/6
f 56/5/3 53/5/3 55/5/3
f 54/5/5 49/5/5 53/5/5
f 55/5/2 49/5/2 51/5/2
f 52/5/4 54/5/4 56/5/4
f 58/5/1 59/5/1 57/5/1
f 60/5/6 63/5/6 59/5/6
f 64/5/3 61/5/3 63/5/3
f 62/5/5 57/5/5 61/5/5
f 63/5/2 57/5/2 59/5/2
f 60/5/4 62/5/4 64/5/4
f 66/5/1 67/5/1 65/5/1
f 68/5/6 71/5/6 67/5/6
f 72/5/3 69/5/3 71/5/3
f 70/5/5 65/5/5 69/5/5
f 71/5/2 65/5/2 67/5/2
f 68/5/4 70/5/4 72/5/4
f 74/5/1 75/5/1 73/5/1
f 76/5/6 79/5/6 75/5/6
f 80/5/3 77/5/3 79/5/3
f 78/5/5 73/5/5 77/5/5
f 79/5/2 73/5/2 75/5/2
f 76/5/4 78/5/4 80/5/4
f 82/5/1 83/5/1 81/5/1
f 84/5/6 87/5/6 83/5/6
f 88/5/3 85/5/3 87/5/3
f 86/5/5 81/5/5 85/5/5
f 87/5/2 81/5/2 83/5/2
f 84/5/4 86/5/4 88/5/4
f 90/5/7 91/5/7 89/5/7
f 92/5/8 95/5/8 91/5/8
f 96/5/9 93/5/9 95/5/9
f 94/5/10 89/5/10 93/5/10
f 91/5/2 93/5/2 89/5/2
f 92/5/4 94/5/4 96/5/4
f 98/5/1 99/5/1 97/5/1
f 100/5/6 103/5/6 99/5/6
f 104/5/3 101/5/3 103/5/3
f 102/5/5 97/5/5 101/5/5
f 103/5/2 97/5/2 99/5/2
f 100/5/4 102/5/4 104/5/4
f 106/5/1 107/5/1 105/5/1
f 108/5/6 111/5/6 107/5/6
f 112/5/3 109/5/3 111/5/3
f 110/5/5 105/5/5 109/5/5
f 111/5/2 105/5/2 107/5/2
f 108/5/4 110/5/4 112/5/4
f 114/5/1 115/5/1 113/5/1
f 116/5/6 119/5/6 115/5/6
f 120/5/3 117/5/3 119/5/3
f 118/5/5 113/5/5 117/5/5
f 119/5/2 113/5/2 115/5/2
f 116/5/4 118/5/4 120/5/4
f 122/5/1 123/5/1 121/5/1
f 124/5/6 127/5/6 123/5/6
f 128/5/3 125/5/3 127/5/3
f 126/5/5 121/5/5 125/5/5
f 127/5/2 121/5/2 123/5/2
f 124/5/4 126/5/4 128/5/4
f 130/5/1 131/5/1 129/5/1
f 132/5/6 135/5/6 131/5/6
f 136/5/3 133/5/3 135/5/3
f 134/5/5 129/5/5 133/5/5
f 135/5/2 129/5/2 131/5/2
f 132/5/4 134/5/4 136/5/4
f 138/5/1 139/5/1 137/5/1
f 140/5/6 143/5/6 139/5/6
f 144/5/3 141/5/3 143/5/3
f 142/5/5 137/5/5 141/5/5
f 143/5/2 137/5/2 139/5/2
f 140/5/4 142/5/4 144/5/4
f 146/5/1 147/5/1 145/5/1
f 148/5/6 151/5/6 147/5/6
f 152/5/3 149/5/3 151/5/3
f 150/5/5 145/5/5 149/5/5
f 151/5/2 145/5/2 147/5/2
f 148/5/4 150/5/4 152/5/4
f 154/5/1 155/5/1 153/5/1
f 156/5/6 159/5/6 155/5/6
f 160/5/3 157/5/3 159/5/3
f 158/5/5 153/5/5 157/5/5
f 159/5/2 153/5/2 155/5/2
f 156/5/4 158/5/4 160/5/4
f 162/5/1 163/5/1 161/5/1
f 164/5/6 167/5/6 163/5/6
f 168/5/3 165/5/3 167/5/3
f 166/5/5 161/5/5 165/5/5
f 167/5/2 161/5/2 163/5/2
f 164/5/4 166/5/4 168/5/4
f 170/5/1 171/5/1 169/5/1
f 172/5/6 175/5/6 171/5/6
f 176/5/3 173/5/3 175/5/3
f 174/5/5 169/5/5 173/5/5
f 175/5/2 169/5/2 171/5/2
f 172/5/4 174/5/4 176/5/4
f 178/5/1 179/5/1 177/5/1
f 180/5/6 183/5/6 179/5/6
f 184/5/3 181/5/3 183/5/3
f 182/5/5 177/5/5 181/5/5
f 183/5/2 177/5/2 179/5/2
f 180/5/4 182/5/4 184/5/4
f 186/5/1 187/5/1 185/5/1
f 188/5/6 191/5/6 187/5/6
f 192/5/3 189/5/3 191/5/3
f 190/5/5 185/5/5 189/5/5
f 191/5/2 185/5/2 187/5/2
f 188/5/4 190/5/4 192/5/4
f 194/5/1 195/5/1 193/5/1
f 196/5/6 199/5/6 195/5/6
f 200/5/3 197/5/3 199/5/3
f 198/5/5 193/5/5 197/5/5
f 199/5/2 193/5/2 195/5/2
f 196/5/4 198/5/4 200/5/4
f 202/5/1 203/5/1 201/5/1
f 204/5/6 207/5/6 203/5/6
f 208/5/3 205/5/3 207/5/3
f 206/5/5 201/5/5 205/5/5
f 207/5/2 201/5/2 203/5/2
f 204/5/4 206/5/4 208/5/4
f 210/5/1 211/5/1 209/5/1
f 212/5/6 215/5/6 211/5/6
f 216/5/3 213/5/3 215/5/3
f 214/5/5 209/5/5 213/5/5
f 215/5/2 209/5/2 211/5/2
f 212/5/4 214/5/4 216/5/4
f 218/5/1 219/5/1 217/5/1
f 220/5/6 223/5/6 219/5/6
f 224/5/3 221/5/3 223/5/3
f 222/5/5 217/5/5 221/5/5
f 223/5/2 217/5/2 219/5/2
f 220/5/4 222/5/4 224/5/4
f 226/5/1 227/5/1 225/5/1
f 228/5/6 231/5/6 227/5/6
f 232/5/3 229/5/3 231/5/3
f 230/5/5 225/5/5 229/5/5
f 231/5/2 225/5/2 227/5/2
f 228/5/4 230/5/4 232/5/4
f 234/5/1 235/5/1 233/5/1
f 236/5/6 239/5/6 235/5/6
f 240/5/3 237/5/3 239/5/3
f 238/5/5 233/5/5 237/5/5
f 239/5/2 233/5/2 235/5/2
f 236/5/4 238/5/4 240/5/4
f 242/5/7 243/5/7 241/5/7
f 244/5/8 247/5/8 243/5/8
f 248/5/9 245/5/9 247/5/9
f 246/5/10 241/5/10 245/5/10
f 247/5/2 241/5/2 243/5/2
f 244/5/4 246/5/4 248/5/4
f 250/5/7 251/5/7 249/5/7
f 252/5/8 255/5/8 251/5/8
f 256/5/9 253/5/9 255/5/9
f 254/5/10 249/5/10 253/5/10
f 251/5/2 253/5/2 249/5/2
f 252/5/4 254/5/4 256/5/4
f 258/5/1 259/5/1 257/5/1
f 260/5/6 263/5/6 259/5/6
f 264/5/3 261/5/3 263/5/3
f 262/5/5 257/5/5 261/5/5
f 263/5/2 257/5/2 259/5/2
f 260/5/4 262/5/4 264/5/4
f 266/5/1 267/5/1 265/5/1
f 268/5/6 271/5/6 267/5/6
f 272/5/3 269/5/3 271/5/3
f 270/5/5 265/5/5 269/5/5
f 271/5/2 265/5/2 267/5/2
f 268/5/4 270/5/4 272/5/4
f 274/5/1 275/5/1 273/5/1
f 276/5/6 279/5/6 275/5/6
f 280/5/3 277/5/3 279/5/3
f 278/5/5 273/5/5 277/5/5
f 279/5/2 273/5/2 275/5/2
f 276/5/4 278/5/4 280/5/4
f 282/5/1 283/5/1 281/5/1
f 284/5/6 287/5/6 283/5/6
f 288/5/3 285/5/3 287/5/3
f 286/5/5 281/5/5 285/5/5
f 287/5/2 281/5/2 283/5/2
f 284/5/4 286/5/4 288/5/4
f 290/5/1 291/5/1 289/5/1
f 292/5/6 295/5/6 291/5/6
f 296/5/3 293/5/3 295/5/3
f 294/5/5 289/5/5 293/5/5
f 295/5/2 289/5/2 291/5/2
f 292/5/4 294/5/4 296/5/4
f 298/5/1 299/5/1 297/5/1
f 300/5/6 303/5/6 299/5/6
f 304/5/3 301/5/3 303/5/3
f 302/5/5 297/5/5 301/5/5
f 303/5/2 297/5/2 299/5/2
f 300/5/4 302/5/4 304/5/4
f 306/5/1 307/5/1 305/5/1
f 308/5/6 311/5/6 307/5/6
f 312/5/3 309/5/3 311/5/3
f 310/5/5 305/5/5 309/5/5
f 311/5/2 305/5/2 307/5/2
f 308/5/4 310/5/4 312/5/4
f 314/5/1 315/5/1 313/5/1
f 316/5/6 319/5/6 315/5/6
f 320/5/3 317/5/3 319/5/3
f 318/5/5 313/5/5 317/5/5
f 319/5/2 313/5/2 315/5/2
f 316/5/4 318/5/4 320/5/4
f 322/5/1 323/5/1 321/5/1
f 324/5/6 327/5/6 323/5/6
f 328/5/3 325/5/3 327/5/3
f 326/5/5 321/5/5 325/5/5
f 327/5/2 321/5/2 323/5/2
f 324/5/4 326/5/4 328/5/4
f 330/5/1 331/5/1 329/5/1
f 332/5/6 335/5/6 331/5/6
f 336/5/3 333/5/3 335/5/3
f 334/5/5 329/5/5 333/5/5
f 335/5/2 329/5/2 331/5/2
f 332/5/4 334/5/4 336/5/4
f 338/5/1 339/5/1 337/5/1
f 340/5/6 343/5/6 339/5/6
f 344/5/3 341/5/3 343/5/3
f 342/5/5 337/5/5 341/5/5
f 343/5/2 337/5/2 339/5/2
f 340/5/4 342/5/4 344/5/4
f 346/5/1 347/5/1 345/5/1
f 348/5/6 351/5/6 347/5/6
f 352/5/3 349/5/3 351/5/3
f 350/5/5 345/5/5 349/5/5
f 351/5/2 345/5/2 347/5/2
f 348/5/4 350/5/4 352/5/4
f 354/5/1 355/5/1 353/5/1
f 356/5/6 359/5/6 355/5/6
f 360/5/3 357/5/3 359/5/3
f 358/5/5 353/5/5 357/5/5
f 359/5/2 353/5/2 355/5/2
f 356/5/4 358/5/4 360/5/4
f 362/5/1 363/5/1 361/5/1
f 364/5/6 367/5/6 363/5/6
f 368/5/3 365/5/3 367/5/3
f 366/5/5 361/5/5 365/5/5
f 367/5/2 361/5/2 363/5/2
f 364/5/4 366/5/4 368/5/4
f 370/5/1 371/5/1 369/5/1
f 372/5/6 375/5/6 371/5/6
f 376/5/3 373/5/3 375/5/3
f 374/5/5 369/5/5 373/5/5
f 375/5/2 369/5/2 371/5/2
f 372/5/4 374/5/4 376/5/4
f 378/5/1 379/5/1 377/5/1
f 380/5/6 383/5/6 379/5/6
f 384/5/3 381/5/3 383/5/3
f 382/5/5 377/5/5 381/5/5
f 383/5/2 377/5/2 379/5/2
f 380/5/4 382/5/4 384/5/4
f 386/5/1 387/5/1 385/5/1
f 388/5/6 391/5/6 387/5/6
f 392/5/3 389/5/3 391/5/3
f 390/5/5 385/5/5 389/5/5
f 391/5/2 385/5/2 387/5/2
f 388/5/4 390/5/4 392/5/4
f 394/5/1 395/5/1 393/5/1
f 396/5/6 399/5/6 395/5/6
f 400/5/3 397/5/3 399/5/3
f 398/5/5 393/5/5 397/5/5
f 399/5/2 393/5/2 395/5/2
f 396/5/4 398/5/4 400/5/4
f 402/5/1 403/5/1 401/5/1
f 404/5/6 407/5/6 403/5/6
f 408/5/3 405/5/3 407/5/3
f 406/5/5 401/5/5 405/5/5
f 407/5/2 401/5/2 403/5/2
f 404/5/4 406/5/4 408/5/4
f 410/5/7 411/5/7 409/5/7
f 412/5/8 415/5/8 411/5/8
f 416/5/9 413/5/9 415/5/9
f 414/5/10 409/5/10 413/5/10
f 415/5/2 409/5/2 411/5/2
f 412/5/4 414/5/4 416/5/4
f 418/5/7 419/5/7 417/5/7
f 420/5/8 423/5/8 419/5/8
f 424/5/9 421/5/9 423/5/9
f 422/5/10 417/5/10 421/5/10
f 423/5/2 417/5/2 419/5/2
f 420/5/4 422/5/4 424/5/4
f 426/5/1 427/5/1 425/5/1
f 428/5/6 431/5/6 427/5/6
f 432/5/3 429/5/3 431/5/3
f 430/5/5 425/5/5 429/5/5
f 431/5/2 425/5/2 427/5/2
f 428/5/4 430/5/4 432/5/4
f 434/5/1 435/5/1 433/5/1
f 436/5/6 439/5/6 435/5/6
f 440/5/3 437/5/3 439/5/3
f 438/5/5 433/5/5 437/5/5
f 439/5/2 433/5/2 435/5/2
f 436/5/4 438/5/4 440/5/4
f 442/5/1 443/5/1 441/5/1
f 444/5/6 447/5/6 443/5/6
f 448/5/3 445/5/3 447/5/3
f 446/5/5 441/5/5 445/5/5
f 447/5/2 441/5/2 443/5/2
f 444/5/4 446/5/4 448/5/4
f 450/5/1 451/5/1 449/5/1
f 452/5/6 455/5/6 451/5/6
f 456/5/3 453/5/3 455/5/3
f 454/5/5 449/5/5 453/5/5
f 455/5/2 449/5/2 451/5/2
f 452/5/4 454/5/4 456/5/4
f 458/5/1 459/5/1 457/5/1
f 460/5/6 463/5/6 459/5/6
f 464/5/3 461/5/3 463/5/3
f 462/5/5 457/5/5 461/5/5
f 463/5/2 457/5/2 459/5/2
f 460/5/4 462/5/4 464/5/4
f 466/5/1 467/5/1 465/5/1
f 468/5/6 471/5/6 467/5/6
f 472/5/3 469/5/3 471/5/3
f 470/5/5 465/5/5 469/5/5
f 471/5/2 465/5/2 467/5/2
f 468/5/4 470/5/4 472/5/4
f 474/5/1 475/5/1 473/5/1
f 476/5/6 479/5/6 475/5/6
f 480/5/3 477/5/3 479/5/3
f 478/5/5 473/5/5 477/5/5
f 479/5/2 473/5/2 475/5/2
f 476/5/4 478/5/4 480/5/4
f 482/5/1 483/5/1 481/5/1
f 484/5/6 487/5/6 483/5/6
f 488/5/3 485/5/3 487/5/3
f 486/5/5 481/5/5 485/5/5
f 487/5/2 481/5/2 483/5/2
f 484/5/4 486/5/4 488/5/4
f 490/5/1 491/5/1 489/5/1
f 492/5/6 495/5/6 491/5/6
f 496/5/3 493/5/3 495/5/3
f 494/5/5 489/5/5 493/5/5
f 495/5/2 489/5/2 491/5/2
f 492/5/4 494/5/4 496/5/4
f 498/5/1 499/5/1 497/5/1
f 500/5/6 503/5/6 499/5/6
f 504/5/3 501/5/3 503/5/3
f 502/5/5 497/5/5 501/5/5
f 503/5/2 497/5/2 499/5/2
f 500/5/4 502/5/4 504/5/4
f 506/5/1 507/5/1 505/5/1
f 508/5/6 511/5/6 507/5/6
f 512/5/3 509/5/3 511/5/3
f 510/5/5 505/5/5 509/5/5
f 511/5/2 505/5/2 507/5/2
f 508/5/4 510/5/4 512/5/4
f 514/5/1 515/5/1 513/5/1
f 516/5/6 519/5/6 515/5/6
f 520/5/3 517/5/3 519/5/3
f 518/5/5 513/5/5 517/5/5
f 519/5/2 513/5/2 515/5/2
f 516/5/4 518/5/4 520/5/4
f 522/5/1 523/5/1 521/5/1
f 524/5/6 527/5/6 523/5/6
f 528/5/3 525/5/3 527/5/3
f 526/5/5 521/5/5 525/5/5
f 527/5/2 521/5/2 523/5/2
f 524/5/4 526/5/4 528/5/4
f 530/5/1 531/5/1 529/5/1
f 532/5/6 535/5/6 531/5/6
f 536/5/3 533/5/3 535/5/3
f 534/5/5 529/5/5 533/5/5
f 535/5/2 529/5/2 531/5/2
f 532/5/4 534/5/4 536/5/4
f 538/5/1 539/5/1 537/5/1
f 540/5/6 543/5/6 539/5/6
f 544/5/3 541/5/3 543/5/3
f 542/5/5 537/5/5 541/5/5
f 543/5/2 537/5/2 539/5/2
f 540/5/4 542/5/4 544/5/4
f 546/5/7 547/5/7 545/5/7
f 548/5/8 551/5/8 547/5/8
f 552/5/9 549/5/9 551/5/9
f 550/5/10 545/5/10 549/5/10
f 551/5/2 545/5/2 547/5/2
f 548/5/4 550/5/4 552/5/4
f 554/5/1 555/5/1 553/5/1
f 556/5/6 559/5/6 555/5/6
f 560/5/3 557/5/3 559/5/3
f 558/5/5 553/5/5 557/5/5
f 559/5/2 553/5/2 555/5/2
f 556/5/4 558/5/4 560/5/4
f 562/5/1 563/5/1 561/5/1
f 564/5/6 567/5/6 563/5/6
f 568/5/3 565/5/3 567/5/3
f 566/5/5 561/5/5 565/5/5
f 567/5/2 561/5/2 563/5/2
f 564/5/4 566/5/4 568/5/4
f 570/5/1 571/5/1 569/5/1
f 572/5/6 575/5/6 571/5/6
f 576/5/3 573/5/3 575/5/3
f 574/5/5 569/5/5 573/5/5
f 575/5/2 569/5/2 571/5/2
f 572/5/4 574/5/4 576/5/4
f 578/5/1 579/5/1 577/5/1
f 580/5/6 583/5/6 579/5/6
f 584/5/3 581/5/3 583/5/3
f 582/5/5 577/5/5 581/5/5
f 583/5/2 577/5/2 579/5/2
f 580/5/4 582/5/4 584/5/4
f 586/5/1 587/5/1 585/5/1
f 588/5/6 591/5/6 587/5/6
f 592/5/3 589/5/3 591/5/3
f 590/5/5 585/5/5 589/5/5
f 591/5/2 585/5/2 587/5/2
f 588/5/4 590/5/4 592/5/4
f 594/5/1 595/5/1 593/5/1
f 596/5/6 599/5/6 595/5/6
f 600/5/3 597/5/3 599/5/3
f 598/5/5 593/5/5 597/5/5
f 599/5/2 593/5/2 595/5/2
f 596/5/4 598/5/4 600/5/4
f 602/5/1 603/5/1 601/5/1
f 604/5/6 607/5/6 603/5/6
f 608/5/3 605/5/3 607/5/3
f 606/5/5 601/5/5 605/5/5
f 607/5/2 601/5/2 603/5/2
f 604/5/4 606/5/4 608/5/4
f 610/5/1 611/5/1 609/5/1
f 612/5/6 615/5/6 611/5/6
f 616/5/3 613/5/3 615/5/3
f 614/5/5 609/5/5 613/5/5
f 615/5/2 609/5/2 611/5/2
f 612/5/4 614/5/4 616/5/4
f 618/5/1 619/5/1 617/5/1
f 620/5/6 623/5/6 619/5/6
f 624/5/3 621/5/3 623/5/3
f 622/5/5 617/5/5 621/5/5
f 623/5/2 617/5/2 619/5/2
f 620/5/4 622/5/4 624/5/4
f 626/5/7 627/5/7 625/5/7
f 628/5/8 631/5/8 627/5/8
f 632/5/9 629/5/9 631/5/9
f 630/5/10 625/5/10 629/5/10
f 631/5/2 625/5/2 627/5/2
f 628/5/4 630/5/4 632/5/4
f 634/5/1 635/5/1 633/5/1
f 636/5/6 639/5/6 635/5/6
f 640/5/3 637/5/3 639/5/3
f 638/5/5 633/5/5 637/5/5
f 639/5/2 633/5/2 635/5/2
f 636/5/4 638/5/4 640/5/4
f 642/5/1 643/5/1 641/5/1
f 644/5/6 647/5/6 643/5/6
f 648/5/3 645/5/3 647/5/3
f 646/5/5 641/5/5 645/5/5
f 647/5/2 641/5/2 643/5/2
f 644/5/4 646/5/4 648/5/4
f 650/5/1 651/5/1 649/5/1
f 652/5/6 655/5/6 651/5/6
f 656/5/3 653/5/3 655/5/3
f 654/5/5 649/5/5 653/5/5
f 655/5/2 649/5/2 651/5/2
f 652/5/4 654/5/4 656/5/4
f 658/5/1 659/5/1 657/5/1
f 660/5/6 663/5/6 659/5/6
f 664/5/3 661/5/3 663/5/3
f 662/5/5 657/5/5 661/5/5
f 663/5/2 657/5/2 659/5/2
f 660/5/4 662/5/4 664/5/4
f 666/5/1 667/5/1 665/5/1
f 668/5/6 671/5/6 667/5/6
f 672/5/3 669/5/3 671/5/3
f 670/5/5 665/5/5 669/5/5
f 671/5/2 665/5/2 667/5/2
f 668/5/4 670/5/4 672/5/4
f 674/5/1 675/5/1 673/5/1
f 676/5/6 679/5/6 675/5/6
f 680/5/3 677/5/3 679/5/3
f 678/5/5 673/5/5 677/5/5
f 679/5/2 673/5/2 675/5/2
f 676/5/4 678/5/4 680/5/4
f 682/5/1 683/5/1 681/5/1
f 684/5/6 687/5/6 683/5/6
f 688/5/3 685/5/3 687/5/3
f 686/5/5 681/5/5 685/5/5
f 687/5/2 681/5/2 683/5/2
f 684/5/4 686/5/4 688/5/4
f 690/5/1 691/5/1 689/5/1
f 692/5/6 695/5/6 691/5/6
f 696/5/3 693/5/3 695/5/3
f 694/5/5 689/5/5 693/5/5
f 695/5/2 689/5/2 691/5/2
f 692/5/4 694/5/4 696/5/4
f 698/5/1 699/5/1 697/5/1
f 700/5/6 703/5/6 699/5/6
f 704/5/3 701/5/3 703/5/3
f 702/5/5 697/5/5 701/5/5
f 703/5/2 697/5/2 699/5/2
f 700/5/4 702/5/4 704/5/4
f 706/5/1 707/5/1 705/5/1
f 708/5/6 711/5/6 707/5/6
f 712/5/3 709/5/3 711/5/3
f 710/5/5 705/5/5 709/5/5
f 711/5/2 705/5/2 707/5/2
f 708/5/4 710/5/4 712/5/4
f 714/5/1 715/5/1 713/5/1
f 716/5/6 719/5/6 715/5/6
f 720/5/3 717/5/3 719/5/3
f 718/5/5 713/5/5 717/5/5
f 719/5/2 713/5/2 715/5/2
f 716/5/4 718/5/4 720/5/4
f 722/5/1 723/5/1 721/5/1
f 724/5/6 727/5/6 723/5/6
f 728/5/3 725/5/3 727/5/3
f 726/5/5 721/5/5 725/5/5
f 727/5/2 721/5/2 723/5/2
f 724/5/4 726/5/4 728/5/4
f 730/5/7 731/5/7 729/5/7
f 732/5/8 735/5/8 731/5/8
f 736/5/9 733/5/9 735/5/9
f 734/5/10 729/5/10 733/5/10
f 731/5/2 733/5/2 729/5/2
f 732/5/4 734/5/4 736/5/4
f 738/5/1 739/5/1 737/5/1
f 740/5/6 743/5/6 739/5/6
f 744/5/3 741/5/3 743/5/3
f 742/5/5 737/5/5 741/5/5
f 743/5/2 737/5/2 739/5/2
f 740/5/4 742/5/4 744/5/4
f 746/5/1 747/5/1 745/5/1
f 748/5/6 751/5/6 747/5/6
f 752/5/3 749/5/3 751/5/3
f 750/5/5 745/5/5 749/5/5
f 751/5/2 745/5/2 747/5/2
f 748/5/4 750/5/4 752/5/4
f 754/5/11 755/5/11 753/5/11
f 756/5/12 759/5/12 755/5/12
f 760/5/13 757/5/13 759/5/13
f 758/5/14 753/5/14 757/5/14
f 755/5/2 757/5/2 753/5/2
f 756/5/4 758/5/4 760/5/4
f 762/5/1 763/5/1 761/5/1
f 764/5/6 767/5/6 763/5/6
f 768/5/3 765/5/3 767/5/3
f 766/5/5 761/5/5 765/5/5
f 767/5/2 761/5/2 763/5/2
f 764/5/4 766/5/4 768/5/4
f 770/5/1 771/5/1 769/5/1
f 772/5/6 775/5/6 771/5/6
f 776/5/3 773/5/3 775/5/3
f 774/5/5 769/5/5 773/5/5
f 775/5/2 769/5/2 771/5/2
f 772/5/4 774/5/4 776/5/4
f 778/5/1 779/5/1 777/5/1
f 780/5/6 783/5/6 779/5/6
f 784/5/3 781/5/3 783/5/3
f 782/5/5 777/5/5 781/5/5
f 783/5/2 777/5/2 779/5/2
f 780/5/4 782/5/4 784/5/4
f 786/5/1 787/5/1 785/5/1
f 788/5/6 791/5/6 787/5/6
f 792/5/3 789/5/3 791/5/3
f 790/5/5 785/5/5 789/5/5
f 791/5/2 785/5/2 787/5/2
f 788/5/4 790/5/4 792/5/4
f 794/5/1 795/5/1 793/5/1
f 796/5/6 799/5/6 795/5/6
f 800/5/3 797/5/3 799/5/3
f 798/5/5 793/5/5 797/5/5
f 799/5/2 793/5/2 795/5/2
f 796/5/4 798/5/4 800/5/4
f 802/5/1 803/5/1 801/5/1
f 804/5/6 807/5/6 803/5/6
f 808/5/3 805/5/3 807/5/3
f 806/5/5 801/5/5 805/5/5
f 807/5/2 801/5/2 803/5/2
f 804/5/4 806/5/4 808/5/4
f 810/5/1 811/5/1 809/5/1
f 812/5/6 815/5/6 811/5/6
f 816/5/3 813/5/3 815/5/3
f 814/5/5 809/5/5 813/5/5
f 815/5/2 809/5/2 811/5/2
f 812/5/4 814/5/4 816/5/4
f 818/5/1 819/5/1 817/5/1
f 820/5/6 823/5/6 819/5/6
f 824/5/3 821/5/3 823/5/3
f 822/5/5 817/5/5 821/5/5
f 823/5/2 817/5/2 819/5/2
f 820/5/4 822/5/4 824/5/4
f 826/5/1 827/5/1 825/5/1
f 828/5/6 831/5/6 827/5/6
f 832/5/3 829/5/3 831/5/3
f 830/5/5 825/5/5 829/5/5
f 831/5/2 825/5/2 827/5/2
f 828/5/4 830/5/4 832/5/4
f 834/5/1 835/5/1 833/5/1
f 836/5/6 839/5/6 835/5/6
f 840/5/3 837/5/3 839/5/3
f 838/5/5 833/5/5 837/5/5
f 839/5/2 833/5/2 835/5/2
f 836/5/4 838/5/4 840/5/4
f 842/5/1 843/5/1 841/5/1
f 844/5/6 847/5/6 843/5/6
f 848/5/3 845/5/3 847/5/3
f 846/5/5 841/5/5 845/5/5
f 847/5/2 841/5/2 843/5/2
f 844/5/4 846/5/4 848/5/4
f 850/5/1 851/5/1 849/5/1
f 852/5/6 855/5/6 851/5/6
f 856/5/3 853/5/3 855/5/3
f 854/5/5 849/5/5 853/5/5
f 855/5/2 849/5/2 851/5/2
f 852/5/4 854/5/4 856/5/4
f 858/5/1 859/5/1 857/5/1
f 860/5/6 863/5/6 859/5/6
f 864/5/3 861/5/3 863/5/3
f 862/5/5 857/5/5 861/5/5
f 863/5/2 857/5/2 859/5/2
f 860/5/4 862/5/4 864/5/4
f 866/5/1 867/5/1 865/5/1
f 868/5/6 871/5/6 867/5/6
f 872/5/3 869/5/3 871/5/3
f 870/5/5 865/5/5 869/5/5
f 871/5/2 865/5/2 867/5/2
f 868/5/4 870/5/4 872/5/4
f 874/5/1 875/5/1 873/5/1
f 876/5/6 879/5/6 875/5/6
f 880/5/3 877/5/3 879/5/3
f 878/5/5 873/5/5 877/5/5
f 879/5/2 873/5/2 875/5/2
f 876/5/4 878/5/4 880/5/4
f 882/5/7 883/5/7 881/5/7
f 884/5/8 887/5/8 883/5/8
f 888/5/9 885/5/9 887/5/9
f 886/5/10 881/5/10 885/5/10
f 887/5/2 881/5/2 883/5/2
f 888/5/4 882/5/4 886/5/4
f 890/5/1 891/5/1 889/5/1
f 892/5/6 895/5/6 891/5/6
f 896/5/3 893/5/3 895/5/3
f 894/5/5 889/5/5 893/5/5
f 895/5/2 889/5/2 891/5/2
f 892/5/4 894/5/4 896/5/4
f 898/5/1 899/5/1 897/5/1
f 900/5/6 903/5/6 899/5/6
f 904/5/3 901/5/3 903/5/3
f 902/5/5 897/5/5 901/5/5
f 903/5/2 897/5/2 899/5/2
f 900/5/4 902/5/4 904/5/4
f 906/5/1 907/5/1 905/5/1
f 908/5/6 911/5/6 907/5/6
f 912/5/3 909/5/3 911/5/3
f 910/5/5 905/5/5 909/5/5
f 911/5/2 905/5/2 907/5/2
f 908/5/4 910/5/4 912/5/4
f 914/5/1 915/5/1 913/5/1
f 916/5/6 919/5/6 915/5/6
f 920/5/3 917/5/3 919/5/3
f 918/5/5 913/5/5 917/5/5
f 919/5/2 913/5/2 915/5/2
f 916/5/4 918/5/4 920/5/4
f 922/5/7 923/5/7 921/5/7
f 924/5/8 927/5/8 923/5/8
f 928/5/9 925/5/9 927/5/9
f 926/5/10 921/5/10 925/5/10
f 927/5/2 921/5/2 923/5/2
f 924/5/4 926/5/4 928/5/4
f 930/5/1 931/5/1 929/5/1
f 932/5/6 935/5/6 931/5/6
f 936/5/3 933/5/3 935/5/3
f 934/5/5 929/5/5 933/5/5
f 935/5/2 929/5/2 931/5/2
f 932/5/4 934/5/4 936/5/4
f 938/5/1 939/5/1 937/5/1
f 940/5/6 943/5/6 939/5/6
f 944/5/3 941/5/3 943/5/3
f 942/5/5 937/5/5 941/5/5
f 943/5/2 937/5/2 939/5/2
f 940/5/4 942/5/4 944/5/4
f 946/5/1 947/5/1 945/5/1
f 948/5/6 951/5/6 947/5/6
f 952/5/3 949/5/3 951/5/3
f 950/5/5 945/5/5 949/5/5
f 951/5/2 945/5/2 947/5/2
f 948/5/4 950/5/4 952/5/4
f 954/5/1 955/5/1 953/5/1
f 956/5/6 959/5/6 955/5/6
f 960/5/3 957/5/3 959/5/3
f 958/5/5 953/5/5 957/5/5
f 959/5/2 953/5/2 955/5/2
f 956/5/4 958/5/4 960/5/4
f 962/5/1 963/5/1 961/5/1
f 964/5/6 967/5/6 963/5/6
f 968/5/3 965/5/3 967/5/3
f 966/5/5 961/5/5 965/5/5
f 967/5/2 961/5/2 963/5/2
f 964/5/4 966/5/4 968/5/4
f 970/5/1 971/5/1 969/5/1
f 972/5/6 975/5/6 971/5/6
f 976/5/3 973/5/3 975/5/3
f 974/5/5 969/5/5 973/5/5
f 975/5/2 969/5/2 971/5/2
f 972/5/4 974/5/4 976/5/4
f 978/5/1 979/5/1 977/5/1
f 980/5/6 983/5/6 979/5/6
f 984/5/3 981/5/3 983/5/3
f 982/5/5 977/5/5 981/5/5
f 983/5/2 977/5/2 979/5/2
f 980/5/4 982/5/4 984/5/4
f 986/5/1 987/5/1 985/5/1
f 988/5/6 991/5/6 987/5/6
f 992/5/3 989/5/3 991/5/3
f 990/5/5 985/5/5 989/5/5
f 991/5/2 985/5/2 987/5/2
f 988/5/4 990/5/4 992/5/4
f 994/5/1 995/5/1 993/5/1
f 996/5/6 999/5/6 995/5/6
f 1000/5/3 997/5/3 999/5/3
f 998/5/5 993/5/5 997/5/5
f 999/5/2 993/5/2 995/5/2
f 996/5/4 998/5/4 1000/5/4
f 1002/5/11 1003/5/11 1001/5/11
f 1004/5/12 1007/5/12 1003/5/12
f 1008/5/13 1005/5/13 1007/5/13
f 1006/5/14 1001/5/14 1005/5/14
f 1003/5/2 1005/5/2 1001/5/2
f 1004/5/4 1006/5/4 1008/5/4
f 1010/5/1 1011/5/1 1009/5/1
f 1012/5/6 1015/5/6 1011/5/6
f 1016/5/3 1013/5/3 1015/5/3
f 1014/5/5 1009/5/5 1013/5/5
f 1015/5/2 1009/5/2 1011/5/2
f 1012/5/4 1014/5/4 1016/5/4
f 1018/5/1 1019/5/1 1017/5/1
f 1020/5/6 1023/5/6 1019/5/6
f 1024/5/3 1021/5/3 1023/5/3
f 1022/5/5 1017/5/5 1021/5/5
f 1023/5/2 1017/5/2 1019/5/2
f 1020/5/4 1022/5/4 1024/5/4
f 1026/5/1 1027/5/1 1025/5/1
f 1028/5/6 1031/5/6 1027/5/6
f 1032/5/3 1029/5/3 1031/5/3
f 1030/5/5 1025/5/5 1029/5/5
f 1031/5/2 1025/5/2 1027/5/2
f 1028/5/4 1030/5/4 1032/5/4
f 1034/5/1 1035/5/1 1033/5/1
f 1036/5/6 1039/5/6 1035/5/6
f 1040/5/3 1037/5/3 1039/5/3
f 1038/5/5 1033/5/5 1037/5/5
f 1039/5/2 1033/5/2 1035/5/2
f 1036/5/4 1038/5/4 1040/5/4
f 1042/5/1 1043/5/1 1041/5/1
f 1044/5/6 1047/5/6 1043/5/6
f 1048/5/3 1045/5/3 1047/5/3
f 1046/5/5 1041/5/5 1045/5/5
f 1047/5/2 1041/5/2 1043/5/2
f 1044/5/4 1046/5/4 1048/5/4
f 1050/5/1 1051/5/1 1049/5/1
f 1052/5/6 1055/5/6 1051/5/6
f 1056/5/3 1053/5/3 1055/5/3
f 1054/5/5 1049/5/5 1053/5/5
f 1055/5/2 1049/5/2 1051/5/2
f 1052/5/4 1054/5/4 1056/5/4
f 1058/5/1 1059/5/1 1057/5/1
f 1060/5/6 1063/5/6 1059/5/6
f 1064/5/3 1061/5/3 1063/5/3
f 1062/5/5 1057/5/5 1061/5/5
f 1063/5/2 1057/5/2 1059/5/2
f 1060/5/4 1062/5/4 1064/5/4
f 1066/5/1 1067/5/1 1065/5/1
f 1068/5/6 1071/5/6 1067/5/6
f 1072/5/3 1069/5/3 1071/5/3
f 1070/5/5 1065/5/5 1069/5/5
f 1071/5/2 1065/5/2 1067/5/2
f 1068/5/4 1070/5/4 1072/5/4
f 1074/5/1 1075/5/1 1073/5/1
f 1076/5/6 1079/5/6 1075/5/6
f 1080/5/3 1077/5/3 1079/5/3
f 1078/5/5 1073/5/5 1077/5/5
f 1079/5/2 1073/5/2 1075/5/2
f 1076/5/4 1078/5/4 1080/5/4
f 1082/5/1 1083/5/1 1081/5/1
f 1084/5/6 1087/5/6 1083/5/6
f 1088/5/3 1085/5/3 1087/5/3
f 1086/5/5 1081/5/5 1085/5/5
f 1087/5/2 1081/5/2 1083/5/2
f 1084/5/4 1086/5/4 1088/5/4
f 1090/5/1 1091/5/1 1089/5/1
f 1092/5/6 1095/5/6 1091/5/6
f 1096/5/3 1093/5/3 1095/5/3
f 1094/5/5 1089/5/5 1093/5/5
f 1095/5/2 1089/5/2 1091/5/2
f 1092/5/4 1094/5/4 1096/5/4
f 1098/5/1 1099/5/1 1097/5/1
f 1100/5/6 1103/5/6 1099/5/6
f 1104/5/3 1101/5/3 1103/5/3
f 1102/5/5 1097/5/5 1101/5/5
f 1103/5/2 1097/5/2 1099/5/2
f 1100/5/4 1102/5/4 1104/5/4
f 1106/5/1 1107/5/1 1105/5/1
f 1108/5/6 1111/5/6 1107/5/6
f 1112/5/3 1109/5/3 1111/5/3
f 1110/5/5 1105/5/5 1109/5/5
f 1111/5/2 1105/5/2 1107/5/2
f 1108/5/4 1110/5/4 1112/5/4
f 1114/5/1 1115/5/1 1113/5/1
f 1116/5/6 1119/5/6 1115/5/6
f 1120/5/3 1117/5/3 1119/5/3
f 1118/5/5 1113/5/5 1117/5/5
f 1119/5/2 1113/5/2 1115/5/2
f 1116/5/4 1118/5/4 1120/5/4
f 1122/5/1 1123/5/1 1121/5/1
f 1124/5/6 1127/5/6 1123/5/6
f 1128/5/3 1125/5/3 1127/5/3
f 1126/5/5 1121/5/5 1125/5/5
f 1127/5/2 1121/5/2 1123/5/2
f 1124/5/4 1126/5/4 1128/5/4
f 1130/5/11 1131/5/11 1129/5/11
f 1132/5/12 1135/5/12 1131/5/12
f 1136/5/13 1133/5/13 1135/5/13
f 1134/5/14 1129/5/14 1133/5/14
f 1135/5/2 1129/5/2 1131/5/2
f 1136/5/4 1130/5/4 1134/5/4
f 1138/4/1 2/4/1 1137/4/1
f 1139/4/6 6/4/6 2/4/6
f 1142/4/3 1140/4/3 6/4/3
f 1141/4/5 1137/4/5 1140/4/5
f 6/4/2 1137/4/2 2/4/2
f 1139/4/4 1141/4/4 1142/4/4
f 1143/4/1 1144/4/1 1/4/1
f 1145/4/6 1147/4/6 1144/4/6
f 1148/4/3 5/4/3 1147/4/3
f 1146/4/5 1/4/5 5/4/5
f 1147/4/2 1/4/2 1144/4/2
f 1145/4/4 1146/4/4 1148/4/4
f 1150/4/1 1151/4/1 1149/4/1
f 1152/4/6 6/4/6 1151/4/6
f 1142/4/3 5/4/3 6/4/3
f 1146/4/5 1149/4/5 5/4/5
f 6/4/2 1149/4/2 1151/4/2
f 1152/4/4 1146/4/4 1142/4/4
f 1143/4/1 2/4/1 1/4/1
f 1139/4/6 1155/4/6 2/4/6
f 1156/4/3 1153/4/3 1155/4/3
f 1154/4/5 1/4/5 1153/4/5
f 1155/4/2 1/4/2 2/4/2
f 1139/4/4 1154/4/4 1156/4/4
f 1164/1/4 1162/1/4 1163/1/4
f 1159/1/15 1181/1/15 1176/1/15
f 1170/1/5 1168/1/5 1169/1/5
f 1163/1/3 1173/1/3 1174/1/3
f 1164/1/1 1178/1/1 1161/1/1
f 1158/1/16 1161/1/16 1157/1/16
f 1158/1/17 1173/1/17 1162/1/17
f 1178/1/18 1157/1/18 1161/1/18
f 1160/1/19 1164/1/19 1163/1/19
f 1174/1/20 1160/1/20 1163/1/20
f 1159/1/21 1177/1/21 1164/1/21
f 1171/1/22 1158/1/22 1165/1/22
f 1157/1/23 1165/1/23 1158/1/23
f 1157/1/24 1180/1/24 1166/1/24
f 1171/1/3 1167/1/3 1170/1/3
f 1166/1/4 1167/1/4 1165/1/4
f 1180/1/1 1168/1/1 1166/1/1
f 1172/1/2 1170/1/2 1179/1/2
f 1181/1/25 1160/1/25 1175/1/25
f 1159/1/26 1160/1/26 1181/1/26
f 1189/1/4 1187/1/4 1188/1/4
f 1184/1/15 1206/1/15 1201/1/15
f 1195/1/5 1193/1/5 1194/1/5
f 1188/1/3 1198/1/3 1199/1/3
f 1189/1/1 1203/1/1 1186/1/1
f 1183/1/16 1186/1/16 1182/1/16
f 1183/1/17 1198/1/17 1187/1/17
f 1203/1/18 1182/1/18 1186/1/18
f 1185/1/19 1189/1/19 1188/1/19
f 1199/1/20 1185/1/20 1188/1/20
f 1184/1/21 1202/1/21 1189/1/21
f 1196/1/22 1183/1/22 1190/1/22
f 1182/1/23 1190/1/23 1183/1/23
f 1182/1/24 1205/1/24 1191/1/24
f 1196/1/3 1192/1/3 1195/1/3
f 1191/1/4 1192/1/4 1190/1/4
f 1205/1/1 1193/1/1 1191/1/1
f 1197/1/2 1195/1/2 1204/1/2
f 1206/1/25 1185/1/25 1200/1/25
f 1184/1/26 1185/1/26 1206/1/26
f 2/1/1 4/1/1 3/1/1
f 4/2/2 8/2/2 7/2/2
f 8/1/3 6/1/3 5/1/3
f 6/3/4 2/3/4 1/3/4
f 7/2/5 5/2/5 1/2/5
f 4/4/6 2/4/6 6/4/6
f 10/5/1 12/5/1 11/5/1
f 12/5/6 16/5/6 15/5/6
f 16/5/3 14/5/3 13/5/3
f 14/5/5 10/5/5 9/5/5
f 15/5/2 13/5/2 9/5/2
f 12/5/4 10/5/4 14/5/4
f 18/5/1 20/5/1 19/5/1
f 20/5/6 24/5/6 23/5/6
f 24/5/3 22/5/3 21/5/3
f 22/5/5 18/5/5 17/5/5
f 23/5/2 21/5/2 17/5/2
f 20/5/4 18/5/4 22/5/4
f 26/5/1 28/5/1 27/5/1
f 28/5/6 32/5/6 31/5/6
f 32/5/3 30/5/3 29/5/3
f 30/5/5 26/5/5 25/5/5
f 31/5/2 29/5/2 25/5/2
f 28/5/4 26/5/4 30/5/4
f 34/5/1 36/5/1 35/5/1
f 36/5/6 40/5/6 39/5/6
f 40/5/3 38/5/3 37/5/3
f 38/5/5 34/5/5 33/5/5
f 39/5/2 37/5/2 33/5/2
f 36/5/4 34/5/4 38/5/4
f 42/5/1 44/5/1 43/5/1
f 44/5/6 48/5/6 47/5/6
f 48/5/3 46/5/3 45/5/3
f 46/5/5 42/5/5 41/5/5
f 47/5/2 45/5/2 41/5/2
f 44/5/4 42/5/4 46/5/4
f 50/5/1 52/5/1 51/5/1
f 52/5/6 56/5/6 55/5/6
f 56/5/3 54/5/3 53/5/3
f 54/5/5 50/5/5 49/5/5
f 55/5/2 53/5/2 49/5/2
f 52/5/4 50/5/4 54/5/4
f 58/5/1 60/5/1 59/5/1
f 60/5/6 64/5/6 63/5/6
f 64/5/3 62/5/3 61/5/3
f 62/5/5 58/5/5 57/5/5
f 63/5/2 61/5/2 57/5/2
f 60/5/4 58/5/4 62/5/4
f 66/5/1 68/5/1 67/5/1
f 68/5/6 72/5/6 71/5/6
f 72/5/3 70/5/3 69/5/3
f 70/5/5 66/5/5 65/5/5
f 71/5/2 69/5/2 65/5/2
f 68/5/4 66/5/4 70/5/4
f 74/5/1 76/5/1 75/5/1
f 76/5/6 80/5/6 79/5/6
f 80/5/3 78/5/3 77/5/3
f 78/5/5 74/5/5 73/5/5
f 79/5/2 77/5/2 73/5/2
f 76/5/4 74/5/4 78/5/4
f 82/5/1 84/5/1 83/5/1
f 84/5/6 88/5/6 87/5/6
f 88/5/3 86/5/3 85/5/3
f 86/5/5 82/5/5 81/5/5
f 87/5/2 85/5/2 81/5/2
f 84/5/4 82/5/4 86/5/4
f 90/5/7 92/5/7 91/5/7
f 92/5/8 96/5/8 95/5/8
f 96/5/9 94/5/9 93/5/9
f 94/5/10 90/5/10 89/5/10
f 91/5/2 95/5/2 93/5/2
f 92/5/4 90/5/4 94/5/4
f 98/5/1 100/5/1 99/5/1
f 100/5/6 104/5/6 103/5/6
f 104/5/3 102/5/3 101/5/3
f 102/5/5 98/5/5 97/5/5
f 103/5/2 101/5/2 97/5/2
f 100/5/4 98/5/4 102/5/4
f 106/5/1 108/5/1 107/5/1
f 108/5/6 112/5/6 111/5/6
f 112/5/3 110/5/3 109/5/3
f 110/5/5 106/5/5 105/5/5
f 111/5/2 109/5/2 105/5/2
f 108/5/4 106/5/4 110/5/4
f 114/5/1 116/5/1 115/5/1
f 116/5/6 120/5/6 119/5/6
f 120/5/3 118/5/3 117/5/3
f 118/5/5 114/5/5 113/5/5
f 119/5/2 117/5/2 113/5/2
f 116/5/4 114/5/4 118/5/4
f 122/5/1 124/5/1 123/5/1
f 124/5/6 128/5/6 127/5/6
f 128/5/3 126/5/3 125/5/3
f 126/5/5 122/5/5 121/5/5
f 127/5/2 125/5/2 121/5/2
f 124/5/4 122/5/4 126/5/4
f 130/5/1 132/5/1 131/5/1
f 132/5/6 136/5/6 135/5/6
f 136/5/3 134/5/3 133/5/3
f 134/5/5 130/5/5 129/5/5
f 135/5/2 133/5/2 129/5/2
f 132/5/4 130/5/4 134/5/4
f 138/5/1 140/5/1 139/5/1
f 140/5/6 144/5/6 143/5/6
f 144/5/3 142/5/3 141/5/3
f 142/5/5 138/5/5 137/5/5
f 143/5/2 141/5/2 137/5/2
f 140/5/4 138/5/4 142/5/4
f 146/5/1 148/5/1 147/5/1
f 148/5/6 152/5/6 151/5/6
f 152/5/3 150/5/3 149/5/3
f 150/5/5 146/5/5 145/5/5
f 151/5/2 149/5/2 145/5/2
f 148/5/4 146/5/4 150/5/4
f 154/5/1 156/5/1 155/5/1
f 156/5/6 160/5/6 159/5/6
f 160/5/3 158/5/3 157/5/3
f 158/5/5 154/5/5 153/5/5
f 159/5/2 157/5/2 153/5/2
f 156/5/4 154/5/4 158/5/4
f 162/5/1 164/5/1 163/5/1
f 164/5/6 168/5/6 167/5/6
f 168/5/3 166/5/3 165/5/3
f 166/5/5 162/5/5 161/5/5
f 167/5/2 165/5/2 161/5/2
f 164/5/4 162/5/4 166/5/4
f 170/5/1 172/5/1 171/5/1
f 172/5/6 176/5/6 175/5/6
f 176/5/3 174/5/3 173/5/3
f 174/5/5 170/5/5 169/5/5
f 175/5/2 173/5/2 169/5/2
f 172/5/4 170/5/4 174/5/4
f 178/5/1 180/5/1 179/5/1
f 180/5/6 184/5/6 183/5/6
f 184/5/3 182/5/3 181/5/3
f 182/5/5 178/5/5 177/5/5
f 183/5/2 181/5/2 177/5/2
f 180/5/4 178/5/4 182/5/4
f 186/5/1 188/5/1 187/5/1
f 188/5/6 192/5/6 191/5/6
f 192/5/3 190/5/3 189/5/3
f 190/5/5 186/5/5 185/5/5
f 191/5/2 189/5/2 185/5/2
f 188/5/4 186/5/4 190/5/4
f 194/5/1 196/5/1 195/5/1
f 196/5/6 200/5/6 199/5/6
f 200/5/3 198/5/3 197/5/3
f 198/5/5 194/5/5 193/5/5
f 199/5/2 197/5/2 193/5/2
f 196/5/4 194/5/4 198/5/4
f 202/5/1 204/5/1 203/5/1
f 204/5/6 208/5/6 207/5/6
f 208/5/3 206/5/3 205/5/3
f 206/5/5 202/5/5 201/5/5
f 207/5/2 205/5/2 201/5/2
f 204/5/4 202/5/4 206/5/4
f 210/5/1 212/5/1 211/5/1
f 212/5/6 216/5/6 215/5/6
f 216/5/3 214/5/3 213/5/3
f 214/5/5 210/5/5 209/5/5
f 215/5/2 213/5/2 209/5/2
f 212/5/4 210/5/4 214/5/4
f 218/5/1 220/5/1 219/5/1
f 220/5/6 224/5/6 223/5/6
f 224/5/3 222/5/3 221/5/3
f 222/5/5 218/5/5 217/5/5
f 223/5/2 221/5/2 217/5/2
f 220/5/4 218/5/4 222/5/4
f 226/5/1 228/5/1 227/5/1
f 228/5/6 232/5/6 231/5/6
f 232/5/3 230/5/3 229/5/3
f 230/5/5 226/5/5 225/5/5
f 231/5/2 229/5/2 225/5/2
f 228/5/4 226/5/4 230/5/4
f 234/5/1 236/5/1 235/5/1
f 236/5/6 240/5/6 239/5/6
f 240/5/3 238/5/3 237/5/3
f 238/5/5 234/5/5 233/5/5
f 239/5/2 237/5/2 233/5/2
f 236/5/4 234/5/4 238/5/4
f 242/5/7 244/5/7 243/5/7
f 244/5/8 248/5/8 247/5/8
f 248/5/9 246/5/9 245/5/9
f 246/5/10 242/5/10 241/5/10
f 247/5/2 245/5/2 241/5/2
f 244/5/4 242/5/4 246/5/4
f 250/5/7 252/5/7 251/5/7
f 252/5/8 256/5/8 255/5/8
f 256/5/9 254/5/9 253/5/9
f 254/5/10 250/5/10 249/5/10
f 251/5/2 255/5/2 253/5/2
f 252/5/4 250/5/4 254/5/4
f 258/5/1 260/5/1 259/5/1
f 260/5/6 264/5/6 263/5/6
f 264/5/3 262/5/3 261/5/3
f 262/5/5 258/5/5 257/5/5
f 263/5/2 261/5/2 257/5/2
f 260/5/4 258/5/4 262/5/4
f 266/5/1 268/5/1 267/5/1
f 268/5/6 272/5/6 271/5/6
f 272/5/3 270/5/3 269/5/3
f 270/5/5 266/5/5 265/5/5
f 271/5/2 269/5/2 265/5/2
f 268/5/4 266/5/4 270/5/4
f 274/5/1 276/5/1 275/5/1
f 276/5/6 280/5/6 279/5/6
f 280/5/3 278/5/3 277/5/3
f 278/5/5 274/5/5 273/5/5
f 279/5/2 277/5/2 273/5/2
f 276/5/4 274/5/4 278/5/4
f 282/5/1 284/5/1 283/5/1
f 284/5/6 288/5/6 287/5/6
f 288/5/3 286/5/3 285/5/3
f 286/5/5 282/5/5 281/5/5
f 287/5/2 285/5/2 281/5/2
f 284/5/4 282/5/4 286/5/4
f 290/5/1 292/5/1 291/5/1
f 292/5/6 296/5/6 295/5/6
f 296/5/3 294/5/3 293/5/3
f 294/5/5 290/5/5 289/5/5
f 295/5/2 293/5/2 289/5/2
f 292/5/4 290/5/4 294/5/4
f 298/5/1 300/5/1 299/5/1
f 300/5/6 304/5/6 303/5/6
f 304/5/3 302/5/3 301/5/3
f 302/5/5 298/5/5 297/5/5
f 303/5/2 301/5/2 297/5/2
f 300/5/4 298/5/4 302/5/4
f 306/5/1 308/5/1 307/5/1
f 308/5/6 312/5/6 311/5/6
f 312/5/3 310/5/3 309/5/3
f 310/5/5 306/5/5 305/5/5
f 311/5/2 309/5/2 305/5/2
f 308/5/4 306/5/4 310/5/4
f 314/5/1 316/5/1 315/5/1
f 316/5/6 320/5/6 319/5/6
f 320/5/3 318/5/3 317/5/3
f 318/5/5 314/5/5 313/5/5
f 319/5/2 317/5/2 313/5/2
f 316/5/4 314/5/4 318/5/4
f 322/5/1 324/5/1 323/5/1
f 324/5/6 328/5/6 327/5/6
f 328/5/3 326/5/3 325/5/3
f 326/5/5 322/5/5 321/5/5
f 327/5/2 325/5/2 321/5/2
f 324/5/4 322/5/4 326/5/4
f 330/5/1 332/5/1 331/5/1
f 332/5/6 336/5/6 335/5/6
f 336/5/3 334/5/3 333/5/3
f 334/5/5 330/5/5 329/5/5
f 335/5/2 333/5/2 329/5/2
f 332/5/4 330/5/4 334/5/4
f 338/5/1 340/5/1 339/5/1
f 340/5/6 344/5/6 343/5/6
f 344/5/3 342/5/3 341/5/3
f 342/5/5 338/5/5 337/5/5
f 343/5/2 341/5/2 337/5/2
f 340/5/4 338/5/4 342/5/4
f 346/5/1 348/5/1 347/5/1
f 348/5/6 352/5/6 351/5/6
f 352/5/3 350/5/3 349/5/3
f 350/5/5 346/5/5 345/5/5
f 351/5/2 349/5/2 345/5/2
f 348/5/4 346/5/4 350/5/4
f 354/5/1 356/5/1 355/5/1
f 356/5/6 360/5/6 359/5/6
f 360/5/3 358/5/3 357/5/3
f 358/5/5 354/5/5 353/5/5
f 359/5/2 357/5/2 353/5/2
f 356/5/4 354/5/4 358/5/4
f 362/5/1 364/5/1 363/5/1
f 364/5/6 368/5/6 367/5/6
f 368/5/3 366/5/3 365/5/3
f 366/5/5 362/5/5 361/5/5
f 367/5/2 365/5/2 361/5/2
f 364/5/4 362/5/4 366/5/4
f 370/5/1 372/5/1 371/5/1
f 372/5/6 376/5/6 375/5/6
f 376/5/3 374/5/3 373/5/3
f 374/5/5 370/5/5 369/5/5
f 375/5/2 373/5/2 369/5/2
f 372/5/4 370/5/4 374/5/4
f 378/5/1 380/5/1 379/5/1
f 380/5/6 384/5/6 383/5/6
f 384/5/3 382/5/3 381/5/3
f 382/5/5 378/5/5 377/5/5
f 383/5/2 381/5/2 377/5/2
f 380/5/4 378/5/4 382/5/4
f 386/5/1 388/5/1 387/5/1
f 388/5/6 392/5/6 391/5/6
f 392/5/3 390/5/3 389/5/3
f 390/5/5 386/5/5 385/5/5
f 391/5/2 389/5/2 385/5/2
f 388/5/4 386/5/4 390/5/4
f 394/5/1 396/5/1 395/5/1
f 396/5/6 400/5/6 399/5/6
f 400/5/3 398/5/3 397/5/3
f 398/5/5 394/5/5 393/5/5
f 399/5/2 397/5/2 393/5/2
f 396/5/4 394/5/4 398/5/4
f 402/5/1 404/5/1 403/5/1
f 404/5/6 408/5/6 407/5/6
f 408/5/3 406/5/3 405/5/3
f 406/5/5 402/5/5 401/5/5
f 407/5/2 405/5/2 401/5/2
f 404/5/4 402/5/4 406/5/4
f 410/5/7 412/5/7 411/5/7
f 412/5/8 416/5/8 415/5/8
f 416/5/9 414/5/9 413/5/9
f 414/5/10 410/5/10 409/5/10
f 415/5/2 413/5/2 409/5/2
f 412/5/4 410/5/4 414/5/4
f 418/5/7 420/5/7 419/5/7
f 420/5/8 424/5/8 423/5/8
f 424/5/9 422/5/9 421/5/9
f 422/5/10 418/5/10 417/5/10
f 423/5/2 421/5/2 417/5/2
f 420/5/4 418/5/4 422/5/4
f 426/5/1 428/5/1 427/5/1
f 428/5/6 432/5/6 431/5/6
f 432/5/3 430/5/3 429/5/3
f 430/5/5 426/5/5 425/5/5
f 431/5/2 429/5/2 425/5/2
f 428/5/4 426/5/4 430/5/4
f 434/5/1 436/5/1 435/5/1
f 436/5/6 440/5/6 439/5/6
f 440/5/3 438/5/3 437/5/3
f 438/5/5 434/5/5 433/5/5
f 439/5/2 437/5/2 433/5/2
f 436/5/4 434/5/4 438/5/4
f 442/5/1 444/5/1 443/5/1
f 444/5/6 448/5/6 447/5/6
f 448/5/3 446/5/3 445/5/3
f 446/5/5 442/5/5 441/5/5
f 447/5/2 445/5/2 441/5/2
f 444/5/4 442/5/4 446/5/4
f 450/5/1 452/5/1 451/5/1
f 452/5/6 456/5/6 455/5/6
f 456/5/3 454/5/3 453/5/3
f 454/5/5 450/5/5 449/5/5
f 455/5/2 453/5/2 449/5/2
f 452/5/4 450/5/4 454/5/4
f 458/5/1 460/5/1 459/5/1
f 460/5/6 464/5/6 463/5/6
f 464/5/3 462/5/3 461/5/3
f 462/5/5 458/5/5 457/5/5
f 463/5/2 461/5/2 457/5/2
f 460/5/4 458/5/4 462/5/4
f 466/5/1 468/5/1 467/5/1
f 468/5/6 472/5/6 471/5/6
f 472/5/3 470/5/3 469/5/3
f 470/5/5 466/5/5 465/5/5
f 471/5/2 469/5/2 465/5/2
f 468/5/4 466/5/4 470/5/4
f 474/5/1 476/5/1 475/5/1
f 476/5/6 480/5/6 479/5/6
f 480/5/3 478/5/3 477/5/3
f 478/5/5 474/5/5 473/5/5
f 479/5/2 477/5/2 473/5/2
f 476/5/4 474/5/4 478/5/4
f 482/5/1 484/5/1 483/5/1
f 484/5/6 488/5/6 487/5/6
f 488/5/3 486/5/3 485/5/3
f 486/5/5 482/5/5 481/5/5
f 487/5/2 485/5/2 481/5/2
f 484/5/4 482/5/4 486/5/4
f 490/5/1 492/5/1 491/5/1
f 492/5/6 496/5/6 495/5/6
f 496/5/3 494/5/3 493/5/3
f 494/5/5 490/5/5 489/5/5
f 495/5/2 493/5/2 489/5/2
f 492/5/4 490/5/4 494/5/4
f 498/5/1 500/5/1 499/5/1
f 500/5/6 504/5/6 503/5/6
f 504/5/3 502/5/3 501/5/3
f 502/5/5 498/5/5 497/5/5
f 503/5/2 501/5/2 497/5/2
f 500/5/4 498/5/4 502/5/4
f 506/5/1 508/5/1 507/5/1
f 508/5/6 512/5/6 511/5/6
f 512/5/3 510/5/3 509/5/3
f 510/5/5 506/5/5 505/5/5
f 511/5/2 509/5/2 505/5/2
f 508/5/4 506/5/4 510/5/4
f 514/5/1 516/5/1 515/5/1
f 516/5/6 520/5/6 519/5/6
f 520/5/3 518/5/3 517/5/3
f 518/5/5 514/5/5 513/5/5
f 519/5/2 517/5/2 513/5/2
f 516/5/4 514/5/4 518/5/4
f 522/5/1 524/5/1 523/5/1
f 524/5/6 528/5/6 527/5/6
f 528/5/3 526/5/3 525/5/3
f 526/5/5 522/5/5 521/5/5
f 527/5/2 525/5/2 521/5/2
f 524/5/4 522/5/4 526/5/4
f 530/5/1 532/5/1 531/5/1
f 532/5/6 536/5/6 535/5/6
f 536/5/3 534/5/3 533/5/3
f 534/5/5 530/5/5 529/5/5
f 535/5/2 533/5/2 529/5/2
f 532/5/4 530/5/4 534/5/4
f 538/5/1 540/5/1 539/5/1
f 540/5/6 544/5/6 543/5/6
f 544/5/3 542/5/3 541/5/3
f 542/5/5 538/5/5 537/5/5
f 543/5/2 541/5/2 537/5/2
f 540/5/4 538/5/4 542/5/4
f 546/5/7 548/5/7 547/5/7
f 548/5/8 552/5/8 551/5/8
f 552/5/9 550/5/9 549/5/9
f 550/5/10 546/5/10 545/5/10
f 551/5/2 549/5/2 545/5/2
f 548/5/4 546/5/4 550/5/4
f 554/5/1 556/5/1 555/5/1
f 556/5/6 560/5/6 559/5/6
f 560/5/3 558/5/3 557/5/3
f 558/5/5 554/5/5 553/5/5
f 559/5/2 557/5/2 553/5/2
f 556/5/4 554/5/4 558/5/4
f 562/5/1 564/5/1 563/5/1
f 564/5/6 568/5/6 567/5/6
f 568/5/3 566/5/3 565/5/3
f 566/5/5 562/5/5 561/5/5
f 567/5/2 565/5/2 561/5/2
f 564/5/4 562/5/4 566/5/4
f 570/5/1 572/5/1 571/5/1
f 572/5/6 576/5/6 575/5/6
f 576/5/3 574/5/3 573/5/3
f 574/5/5 570/5/5 569/5/5
f 575/5/2 573/5/2 569/5/2
f 572/5/4 570/5/4 574/5/4
f 578/5/1 580/5/1 579/5/1
f 580/5/6 584/5/6 583/5/6
f 584/5/3 582/5/3 581/5/3
f 582/5/5 578/5/5 577/5/5
f 583/5/2 581/5/2 577/5/2
f 580/5/4 578/5/4 582/5/4
f 586/5/1 588/5/1 587/5/1
f 588/5/6 592/5/6 591/5/6
f 592/5/3 590/5/3 589/5/3
f 590/5/5 586/5/5 585/5/5
f 591/5/2 589/5/2 585/5/2
f 588/5/4 586/5/4 590/5/4
f 594/5/1 596/5/1 595/5/1
f 596/5/6 600/5/6 599/5/6
f 600/5/3 598/5/3 597/5/3
f 598/5/5 594/5/5 593/5/5
f 599/5/2 597/5/2 593/5/2
f 596/5/4 594/5/4 598/5/4
f 602/5/1 604/5/1 603/5/1
f 604/5/6 608/5/6 607/5/6
f 608/5/3 606/5/3 605/5/3
f 606/5/5 602/5/5 601/5/5
f 607/5/2 605/5/2 601/5/2
f 604/5/4 602/5/4 606/5/4
f 610/5/1 612/5/1 611/5/1
f 612/5/6 616/5/6 615/5/6
f 616/5/3 614/5/3 613/5/3
f 614/5/5 610/5/5 609/5/5
f 615/5/2 613/5/2 609/5/2
f 612/5/4 610/5/4 614/5/4
f 618/5/1 620/5/1 619/5/1
f 620/5/6 624/5/6 623/5/6
f 624/5/3 622/5/3 621/5/3
f 622/5/5 618/5/5 617/5/5
f 623/5/2 621/5/2 617/5/2
f 620/5/4 618/5/4 622/5/4
f 626/5/7 628/5/7 627/5/7
f 628/5/8 632/5/8 631/5/8
f 632/5/9 630/5/9 629/5/9
f 630/5/10 626/5/10 625/5/10
f 631/5/2 629/5/2 625/5/2
f 628/5/4 626/5/4 630/5/4
f 634/5/1 636/5/1 635/5/1
f 636/5/6 640/5/6 639/5/6
f 640/5/3 638/5/3 637/5/3
f 638/5/5 634/5/5 633/5/5
f 639/5/2 637/5/2 633/5/2
f 636/5/4 634/5/4 638/5/4
f 642/5/1 644/5/1 643/5/1
f 644/5/6 648/5/6 647/5/6
f 648/5/3 646/5/3 645/5/3
f 646/5/5 642/5/5 641/5/5
f 647/5/2 645/5/2 641/5/2
f 644/5/4 642/5/4 646/5/4
f 650/5/1 652/5/1 651/5/1
f 652/5/6 656/5/6 655/5/6
f 656/5/3 654/5/3 653/5/3
f 654/5/5 650/5/5 649/5/5
f 655/5/2 653/5/2 649/5/2
f 652/5/4 650/5/4 654/5/4
f 658/5/1 660/5/1 659/5/1
f 660/5/6 664/5/6 663/5/6
f 664/5/3 662/5/3 661/5/3
f 662/5/5 658/5/5 657/5/5
f 663/5/2 661/5/2 657/5/2
f 660/5/4 658/5/4 662/5/4
f 666/5/1 668/5/1 667/5/1
f 668/5/6 672/5/6 671/5/6
f 672/5/3 670/5/3 669/5/3
f 670/5/5 666/5/5 665/5/5
f 671/5/2 669/5/2 665/5/2
f 668/5/4 666/5/4 670/5/4
f 674/5/1 676/5/1 675/5/1
f 676/5/6 680/5/6 679/5/6
f 680/5/3 678/5/3 677/5/3
f 678/5/5 674/5/5 673/5/5
f 679/5/2 677/5/2 673/5/2
f 676/5/4 674/5/4 678/5/4
f 682/5/1 684/5/1 683/5/1
f 684/5/6 688/5/6 687/5/6
f 688/5/3 686/5/3 685/5/3
f 686/5/5 682/5/5 681/5/5
f 687/5/2 685/5/2 681/5/2
f 684/5/4 682/5/4 686/5/4
f 690/5/1 692/5/1 691/5/1
f 692/5/6 696/5/6 695/5/6
f 696/5/3 694/5/3 693/5/3
f 694/5/5 690/5/5 689/5/5
f 695/5/2 693/5/2 689/5/2
f 692/5/4 690/5/4 694/5/4
f 698/5/1 700/5/1 699/5/1
f 700/5/6 704/5/6 703/5/6
f 704/5/3 702/5/3 701/5/3
f 702/5/5 698/5/5 697/5/5
f 703/5/2 701/5/2 697/5/2
f 700/5/4 698/5/4 702/5/4
f 706/5/1 708/5/1 707/5/1
f 708/5/6 712/5/6 711/5/6
f 712/5/3 710/5/3 709/5/3
f 710/5/5 706/5/5 705/5/5
f 711/5/2 709/5/2 705/5/2
f 708/5/4 706/5/4 710/5/4
f 714/5/1 716/5/1 715/5/1
f 716/5/6 720/5/6 719/5/6
f 720/5/3 718/5/3 717/5/3
f 718/5/5 714/5/5 713/5/5
f 719/5/2 717/5/2 713/5/2
f 716/5/4 714/5/4 718/5/4
f 722/5/1 724/5/1 723/5/1
f 724/5/6 728/5/6 727/5/6
f 728/5/3 726/5/3 725/5/3
f 726/5/5 722/5/5 721/5/5
f 727/5/2 725/5/2 721/5/2
f 724/5/4 722/5/4 726/5/4
f 730/5/7 732/5/7 731/5/7
f 732/5/8 736/5/8 735/5/8
f 736/5/9 734/5/9 733/5/9
f 734/5/10 730/5/10 729/5/10
f 731/5/2 735/5/2 733/5/2
f 732/5/4 730/5/4 734/5/4
f 738/5/1 740/5/1 739/5/1
f 740/5/6 744/5/6 743/5/6
f 744/5/3 742/5/3 741/5/3
f 742/5/5 738/5/5 737/5/5
f 743/5/2 741/5/2 737/5/2
f 740/5/4 738/5/4 742/5/4
f 746/5/1 748/5/1 747/5/1
f 748/5/6 752/5/6 751/5/6
f 752/5/3 750/5/3 749/5/3
f 750/5/5 746/5/5 745/5/5
f 751/5/2 749/5/2 745/5/2
f 748/5/4 746/5/4 750/5/4
f 754/5/11 756/5/11 755/5/11
f 756/5/12 760/5/12 759/5/12
f 760/5/13 758/5/13 757/5/13
f 758/5/14 754/5/14 753/5/14
f 755/5/2 759/5/2 757/5/2
f 756/5/4 754/5/4 758/5/4
f 762/5/1 764/5/1 763/5/1
f 764/5/6 768/5/6 767/5/6
f 768/5/3 766/5/3 765/5/3
f 766/5/5 762/5/5 761/5/5
f 767/5/2 765/5/2 761/5/2
f 764/5/4 762/5/4 766/5/4
f 770/5/1 772/5/1 771/5/1
f 772/5/6 776/5/6 775/5/6
f 776/5/3 774/5/3 773/5/3
f 774/5/5 770/5/5 769/5/5
f 775/5/2 773/5/2 769/5/2
f 772/5/4 770/5/4 774/5/4
f 778/5/1 780/5/1 779/5/1
f 780/5/6 784/5/6 783/5/6
f 784/5/3 782/5/3 781/5/3
f 782/5/5 778/5/5 777/5/5
f 783/5/2 781/5/2 777/5/2
f 780/5/4 778/5/4 782/5/4
f 786/5/1 788/5/1 787/5/1
f 788/5/6 792/5/6 791/5/6
f 792/5/3 790/5/3 789/5/3
f 790/5/5 786/5/5 785/5/5
f 791/5/2 789/5/2 785/5/2
f 788/5/4 786/5/4 790/5/4
f 794/5/1 796/5/1 795/5/1
f 796/5/6 800/5/6 799/5/6
f 800/5/3 798/5/3 797/5/3
f 798/5/5 794/5/5 793/5/5
f 799/5/2 797/5/2 793/5/2
f 796/5/4 794/5/4 798/5/4
f 802/5/1 804/5/1 803/5/1
f 804/5/6 808/5/6 807/5/6
f 808/5/3 806/5/3 805/5/3
f 806/5/5 802/5/5 801/5/5
f 807/5/2 805/5/2 801/5/2
f 804/5/4 802/5/4 806/5/4
f 810/5/1 812/5/1 811/5/1
f 812/5/6 816/5/6 815/5/6
f 816/5/3 814/5/3 813/5/3
f 814/5/5 810/5/5 809/5/5
f 815/5/2 813/5/2 809/5/2
f 812/5/4 810/5/4 814/5/4
f 818/5/1 820/5/1 819/5/1
f 820/5/6 824/5/6 823/5/6
f 824/5/3 822/5/3 821/5/3
f 822/5/5 818/5/5 817/5/5
f 823/5/2 821/5/2 817/5/2
f 820/5/4 818/5/4 822/5/4
f 826/5/1 828/5/1 827/5/1
f 828/5/6 832/5/6 831/5/6
f 832/5/3 830/5/3 829/5/3
f 830/5/5 826/5/5 825/5/5
f 831/5/2 829/5/2 825/5/2
f 828/5/4 826/5/4 830/5/4
f 834/5/1 836/5/1 835/5/1
f 836/5/6 840/5/6 839/5/6
f 840/5/3 838/5/3 837/5/3
f 838/5/5 834/5/5 833/5/5
f 839/5/2 837/5/2 833/5/2
f 836/5/4 834/5/4 838/5/4
f 842/5/1 844/5/1 843/5/1
f 844/5/6 848/5/6 847/5/6
f 848/5/3 846/5/3 845/5/3
f 846/5/5 842/5/5 841/5/5
f 847/5/2 845/5/2 841/5/2
f 844/5/4 842/5/4 846/5/4
f 850/5/1 852/5/1 851/5/1
f 852/5/6 856/5/6 855/5/6
f 856/5/3 854/5/3 853/5/3
f 854/5/5 850/5/5 849/5/5
f 855/5/2 853/5/2 849/5/2
f 852/5/4 850/5/4 854/5/4
f 858/5/1 860/5/1 859/5/1
f 860/5/6 864/5/6 863/5/6
f 864/5/3 862/5/3 861/5/3
f 862/5/5 858/5/5 857/5/5
f 863/5/2 861/5/2 857/5/2
f 860/5/4 858/5/4 862/5/4
f 866/5/1 868/5/1 867/5/1
f 868/5/6 872/5/6 871/5/6
f 872/5/3 870/5/3 869/5/3
f 870/5/5 866/5/5 865/5/5
f 871/5/2 869/5/2 865/5/2
f 868/5/4 866/5/4 870/5/4
f 874/5/1 876/5/1 875/5/1
f 876/5/6 880/5/6 879/5/6
f 880/5/3 878/5/3 877/5/3
f 878/5/5 874/5/5 873/5/5
f 879/5/2 877/5/2 873/5/2
f 876/5/4 874/5/4 878/5/4
f 882/5/7 884/5/7 883/5/7
f 884/5/8 888/5/8 887/5/8
f 888/5/9 886/5/9 885/5/9
f 886/5/10 882/5/10 881/5/10
f 887/5/2 885/5/2 881/5/2
f 888/5/4 884/5/4 882/5/4
f 890/5/1 892/5/1 891/5/1
f 892/5/6 896/5/6 895/5/6
f 896/5/3 894/5/3 893/5/3
f 894/5/5 890/5/5 889/5/5
f 895/5/2 893/5/2 889/5/2
f 892/5/4 890/5/4 894/5/4
f 898/5/1 900/5/1 899/5/1
f 900/5/6 904/5/6 903/5/6
f 904/5/3 902/5/3 901/5/3
f 902/5/5 898/5/5 897/5/5
f 903/5/2 901/5/2 897/5/2
f 900/5/4 898/5/4 902/5/4
f 906/5/1 908/5/1 907/5/1
f 908/5/6 912/5/6 911/5/6
f 912/5/3 910/5/3 909/5/3
f 910/5/5 906/5/5 905/5/5
f 911/5/2 909/5/2 905/5/2
f 908/5/4 906/5/4 910/5/4
f 914/5/1 916/5/1 915/5/1
f 916/5/6 920/5/6 919/5/6
f 920/5/3 918/5/3 917/5/3
f 918/5/5 914/5/5 913/5/5
f 919/5/2 917/5/2 913/5/2
f 916/5/4 914/5/4 918/5/4
f 922/5/7 924/5/7 923/5/7
f 924/5/8 928/5/8 927/5/8
f 928/5/9 926/5/9 925/5/9
f 926/5/10 922/5/10 921/5/10
f 927/5/2 925/5/2 921/5/2
f 924/5/4 922/5/4 926/5/4
f 930/5/1 932/5/1 931/5/1
f 932/5/6 936/5/6 935/5/6
f 936/5/3 934/5/3 933/5/3
f 934/5/5 930/5/5 929/5/5
f 935/5/2 933/5/2 929/5/2
f 932/5/4 930/5/4 934/5/4
f 938/5/1 940/5/1 939/5/1
f 940/5/6 944/5/6 943/5/6
f 944/5/3 942/5/3 941/5/3
f 942/5/5 938/5/5 937/5/5
f 943/5/2 941/5/2 937/5/2
f 940/5/4 938/5/4 942/5/4
f 946/5/1 948/5/1 947/5/1
f 948/5/6 952/5/6 951/5/6
f 952/5/3 950/5/3 949/5/3
f 950/5/5 946/5/5 945/5/5
f 951/5/2 949/5/2 945/5/2
f 948/5/4 946/5/4 950/5/4
f 954/5/1 956/5/1 955/5/1
f 956/5/6 960/5/6 959/5/6
f 960/5/3 958/5/3 957/5/3
f 958/5/5 954/5/5 953/5/5
f 959/5/2 957/5/2 953/5/2
f 956/5/4 954/5/4 958/5/4
f 962/5/1 964/5/1 963/5/1
f 964/5/6 968/5/6 967/5/6
f 968/5/3 966/5/3 965/5/3
f 966/5/5 962/5/5 961/5/5
f 967/5/2 965/5/2 961/5/2
f 964/5/4 962/5/4 966/5/4
f 970/5/1 972/5/1 971/5/1
f 972/5/6 976/5/6 975/5/6
f 976/5/3 974/5/3 973/5/3
f 974/5/5 970/5/5 969/5/5
f 975/5/2 973/5/2 969/5/2
f 972/5/4 970/5/4 974/5/4
f 978/5/1 980/5/1 979/5/1
f 980/5/6 984/5/6 983/5/6
f 984/5/3 982/5/3 981/5/3
f 982/5/5 978/5/5 977/5/5
f 983/5/2 981/5/2 977/5/2
f 980/5/4 978/5/4 982/5/4
f 986/5/1 988/5/1 987/5/1
f 988/5/6 992/5/6 991/5/6
f 992/5/3 990/5/3 989/5/3
f 990/5/5 986/5/5 985/5/5
f 991/5/2 989/5/2 985/5/2
f 988/5/4 986/5/4 990/5/4
f 994/5/1 996/5/1 995/5/1
f 996/5/6 1000/5/6 999/5/6
f 1000/5/3 998/5/3 997/5/3
f 998/5/5 994/5/5 993/5/5
f 999/5/2 997/5/2 993/5/2
f 996/5/4 994/5/4 998/5/4
f 1002/5/11 1004/5/11 1003/5/11
f 1004/5/12 1008/5/12 1007/5/12
f 1008/5/13 1006/5/13 1005/5/13
f 1006/5/14 1002/5/14 1001/5/14
f 1003/5/2 1007/5/2 1005/5/2
f 1004/5/4 1002/5/4 1006/5/4
f 1010/5/1 1012/5/1 1011/5/1
f 1012/5/6 1016/5/6 1015/5/6
f 1016/5/3 1014/5/3 1013/5/3
f 1014/5/5 1010/5/5 1009/5/5
f 1015/5/2 1013/5/2 1009/5/2
f 1012/5/4 1010/5/4 1014/5/4
f 1018/5/1 1020/5/1 1019/5/1
f 1020/5/6 1024/5/6 1023/5/6
f 1024/5/3 1022/5/3 1021/5/3
f 1022/5/5 1018/5/5 1017/5/5
f 1023/5/2 1021/5/2 1017/5/2
f 1020/5/4 1018/5/4 1022/5/4
f 1026/5/1 1028/5/1 1027/5/1
f 1028/5/6 1032/5/6 1031/5/6
f 1032/5/3 1030/5/3 1029/5/3
f 1030/5/5 1026/5/5 1025/5/5
f 1031/5/2 1029/5/2 1025/5/2
f 1028/5/4 1026/5/4 1030/5/4
f 1034/5/1 1036/5/1 1035/5/1
f 1036/5/6 1040/5/6 1039/5/6
f 1040/5/3 1038/5/3 1037/5/3
f 1038/5/5 1034/5/5 1033/5/5
f 1039/5/2 1037/5/2 1033/5/2
f 1036/5/4 1034/5/4 1038/5/4
f 1042/5/1 1044/5/1 1043/5/1
f 1044/5/6 1048/5/6 1047/5/6
f 1048/5/3 1046/5/3 1045/5/3
f 1046/5/5 1042/5/5 1041/5/5
f 1047/5/2 1045/5/2 1041/5/2
f 1044/5/4 1042/5/4 1046/5/4
f 1050/5/1 1052/5/1 1051/5/1
f 1052/5/6 1056/5/6 1055/5/6
f 1056/5/3 1054/5/3 1053/5/3
f 1054/5/5 1050/5/5 1049/5/5
f 1055/5/2 1053/5/2 1049/5/2
f 1052/5/4 1050/5/4 1054/5/4
f 1058/5/1 1060/5/1 1059/5/1
f 1060/5/6 1064/5/6 1063/5/6
f 1064/5/3 1062/5/3 1061/5/3
f 1062/5/5 1058/5/5 1057/5/5
f 1063/5/2 1061/5/2 1057/5/2
f 1060/5/4 1058/5/4 1062/5/4
f 1066/5/1 1068/5/1 1067/5/1
f 1068/5/6 1072/5/6 1071/5/6
f 1072/5/3 1070/5/3 1069/5/3
f 1070/5/5 1066/5/5 1065/5/5
f 1071/5/2 1069/5/2 1065/5/2
f 1068/5/4 1066/5/4 1070/5/4
f 1074/5/1 1076/5/1 1075/5/1
f 1076/5/6 1080/5/6 1079/5/6
f 1080/5/3 1078/5/3 1077/5/3
f 1078/5/5 1074/5/5 1073/5/5
f 1079/5/2 1077/5/2 1073/5/2
f 1076/5/4 1074/5/4 1078/5/4
f 1082/5/1 1084/5/1 1083/5/1
f 1084/5/6 1088/5/6 1087/5/6
f 1088/5/3 1086/5/3 1085/5/3
f 1086/5/5 1082/5/5 1081/5/5
f 1087/5/2 1085/5/2 1081/5/2
f 1084/5/4 1082/5/4 1086/5/4
f 1090/5/1 1092/5/1 1091/5/1
f 1092/5/6 1096/5/6 1095/5/6
f 1096/5/3 1094/5/3 1093/5/3
f 1094/5/5 1090/5/5 1089/5/5
f 1095/5/2 1093/5/2 1089/5/2
f 1092/5/4 1090/5/4 1094/5/4
f 1098/5/1 1100/5/1 1099/5/1
f 1100/5/6 1104/5/6 1103/5/6
f 1104/5/3 1102/5/3 1101/5/3
f 1102/5/5 1098/5/5 1097/5/5
f 1103/5/2 1101/5/2 1097/5/2
f 1100/5/4 1098/5/4 1102/5/4
f 1106/5/1 1108/5/1 1107/5/1
f 1108/5/6 1112/5/6 1111/5/6
f 1112/5/3 1110/5/3 1109/5/3
f 1110/5/5 1106/5/5 1105/5/5
f 1111/5/2 1109/5/2 1105/5/2
f 1108/5/4 1106/5/4 1110/5/4
f 1114/5/1 1116/5/1 1115/5/1
f 1116/5/6 1120/5/6 1119/5/6
f 1120/5/3 1118/5/3 1117/5/3
f 1118/5/5 1114/5/5 1113/5/5
f 1119/5/2 1117/5/2 1113/5/2
f 1116/5/4 1114/5/4 1118/5/4
f 1122/5/1 1124/5/1 1123/5/1
f 1124/5/6 1128/5/6 1127/5/6
f 1128/5/3 1126/5/3 1125/5/3
f 1126/5/5 1122/5/5 1121/5/5
f 1127/5/2 1125/5/2 1121/5/2
f 1124/5/4 1122/5/4 1126/5/4
f 1130/5/11 1132/5/11 1131/5/11
f 1132/5/12 1136/5/12 1135/5/12
f 1136/5/13 1134/5/13 1133/5/13
f 1134/5/14 1130/5/14 1129/5/14
f 1135/5/2 1133/5/2 1129/5/2
f 1136/5/4 1132/5/4 1130/5/4
f 1138/4/1 1139/4/1 2/4/1
f 1139/4/6 1142/4/6 6/4/6
f 1142/4/3 1141/4/3 1140/4/3
f 1141/4/5 1138/4/5 1137/4/5
f 6/4/2 1140/4/2 1137/4/2
f 1139/4/4 1138/4/4 1141/4/4
f 1143/4/1 1145/4/1 1144/4/1
f 1145/4/6 1148/4/6 1147/4/6
f 1148/4/3 1146/4/3 5/4/3
f 1146/4/5 1143/4/5 1/4/5
f 1147/4/2 5/4/2 1/4/2
f 1145/4/4 1143/4/4 1146/4/4
f 1150/4/1 1152/4/1 1151/4/1
f 1152/4/6 1142/4/6 6/4/6
f 1142/4/3 1146/4/3 5/4/3
f 1146/4/5 1150/4/5 1149/4/5
f 6/4/2 5/4/2 1149/4/2
f 1152/4/4 1150/4/4 1146/4/4
f 1143/4/1 1139/4/1 2/4/1
f 1139/4/6 1156/4/6 1155/4/6
f 1156/4/3 1154/4/3 1153/4/3
f 1154/4/5 1143/4/5 1/4/5
f 1155/4/2 1153/4/2 1/4/2
f 1139/4/4 1143/4/4 1154/4/4
f 1164/1/4 1161/1/4 1162/1/4
f 1170/1/5 1167/1/5 1168/1/5
f 1163/1/3 1162/1/3 1173/1/3
f 1164/1/1 1177/1/1 1178/1/1
f 1158/1/16 1162/1/16 1161/1/16
f 1158/1/17 1172/1/17 1173/1/17
f 1178/1/18 1179/1/18 1157/1/18
f 1160/1/19 1159/1/19 1164/1/19
f 1174/1/20 1175/1/20 1160/1/20
f 1159/1/21 1176/1/21 1177/1/21
f 1171/1/22 1172/1/22 1158/1/22
f 1157/1/23 1166/1/23 1165/1/23
f 1157/1/24 1179/1/24 1180/1/24
f 1171/1/3 1165/1/3 1167/1/3
f 1166/1/4 1168/1/4 1167/1/4
f 1180/1/1 1169/1/1 1168/1/1
f 1179/1/2 1178/1/2 1172/1/2
f 1178/1/2 1177/1/2 1173/1/2
f 1172/1/2 1178/1/2 1173/1/2
f 1177/1/2 1176/1/2 1181/1/2
f 1181/1/2 1175/1/2 1174/1/2
f 1174/1/2 1173/1/2 1177/1/2
f 1172/1/2 1171/1/2 1170/1/2
f 1170/1/2 1169/1/2 1179/1/2
f 1169/1/2 1180/1/2 1179/1/2
f 1177/1/2 1181/1/2 1174/1/2
f 1189/1/4 1186/1/4 1187/1/4
f 1195/1/5 1192/1/5 1193/1/5
f 1188/1/3 1187/1/3 1198/1/3
f 1189/1/1 1202/1/1 1203/1/1
f 1183/1/16 1187/1/16 1186/1/16
f 1183/1/17 1197/1/17 1198/1/17
f 1203/1/18 1204/1/18 1182/1/18
f 1185/1/19 1184/1/19 1189/1/19
f 1199/1/20 1200/1/20 1185/1/20
f 1184/1/21 1201/1/21 1202/1/21
f 1196/1/22 1197/1/22 1183/1/22
f 1182/1/23 1191/1/23 1190/1/23
f 1182/1/24 1204/1/24 1205/1/24
f 1196/1/3 1190/1/3 1192/1/3
f 1191/1/4 1193/1/4 1192/1/4
f 1205/1/1 1194/1/1 1193/1/1
f 1204/1/2 1203/1/2 1197/1/2
f 1203/1/2 1202/1/2 1198/1/2
f 1197/1/2 1203/1/2 1198/1/2
f 1202/1/2 1201/1/2 1206/1/2
f 1206/1/2 1200/1/2 1199/1/2
f 1199/1/2 1198/1/2 1202/1/2
f 1197/1/2 1196/1/2 1195/1/2
f 1195/1/2 1194/1/2 1204/1/2
f 1194/1/2 1205/1/2 1204/1/2
f 1202/1/2 1206/1/2 1199/1/2
