# Blender 5.2.2 LTS
# www.blender.org
mtllib ruins_tg_slate.mtl
o piece
v 0.157566 0.222373 -0.027317
v 0.082193 0.222373 -0.027317
v 0.044507 0.157099 -0.027317
v 0.082193 0.091824 -0.027317
v 0.157566 0.091824 -0.027317
v 0.195252 0.157099 -0.027317
v 0.157566 0.222373 0.026385
v 0.082193 0.222373 0.026385
v 0.044507 0.157099 0.026385
v 0.082193 0.091824 0.026385
v 0.157566 0.091824 0.026385
v 0.195252 0.157099 0.026385
v 0.144122 0.199088 -0.027317
v 0.095637 0.199088 -0.027317
v 0.119879 0.157099 -0.027317
v 0.071394 0.157099 -0.027317
v 0.095637 0.115109 -0.027317
v 0.144122 0.115109 -0.027317
v 0.168365 0.157099 -0.027317
v 0.144122 0.199088 0.026385
v 0.095637 0.199088 0.026385
v 0.119879 0.157099 0.026385
v 0.071394 0.157099 0.026385
v 0.095637 0.115109 0.026385
v 0.144122 0.115109 0.026385
v 0.168365 0.157099 0.026385
v -0.195252 -0.199920 0.027317
v 0.068698 -0.199920 0.027317
v -0.195252 -0.199920 -0.017607
v 0.068698 -0.199920 -0.017607
v -0.154863 -0.177007 0.027317
v 0.068698 -0.177007 0.027317
v -0.195252 -0.101146 0.027317
v -0.195252 -0.101146 -0.017607
v -0.173415 -0.085960 0.027317
v -0.173415 -0.085960 -0.017607
v -0.143424 -0.166157 0.015720
v 0.068698 -0.166157 0.015720
v -0.170975 -0.222373 -0.008160
v 0.044420 -0.222373 -0.008160
v 0.044420 -0.222373 0.017871
v -0.170975 -0.222373 0.017871
v 0.068698 -0.166157 -0.017607
v -0.143424 -0.166157 -0.017607
v -0.173415 0.141258 -0.017607
v -0.173415 0.141258 0.027317
v -0.154863 0.141258 0.027317
v -0.143424 0.141258 0.015720
v -0.143424 0.141258 -0.017607
v -0.136387 -0.157478 0.008514
v 0.110425 -0.157478 0.008514
v -0.136387 0.159326 0.008514
v -0.136387 0.159326 -0.008916
v -0.136387 -0.157478 -0.008916
v 0.110425 -0.157478 -0.008916
v 0.136580 -0.132844 -0.008916
v 0.136580 -0.132844 0.008514
v 0.136580 0.159326 -0.008916
v 0.136580 0.159326 0.008514
v -0.120479 0.183748 0.008514
v 0.110425 0.183748 0.008514
v 0.110425 0.183748 -0.008916
v -0.120479 0.183748 -0.008916
vn -0.0000 1.0000 -0.0000
vn -0.8660 0.5000 -0.0000
vn -0.8660 -0.5000 -0.0000
vn -0.0000 -1.0000 -0.0000
vn 0.8660 -0.5000 -0.0000
vn 0.8660 0.5000 -0.0000
vn -0.0000 -0.0000 -1.0000
vn -0.0000 -0.0000 1.0000
vn -1.0000 -0.0000 -0.0000
vn -0.5709 0.8210 -0.0000
vn -0.0000 0.7302 0.6832
vn -0.0000 -0.3878 -0.9217
vn 0.6790 -0.7342 -0.0000
vn -0.0000 -0.3878 0.9217
vn -0.6790 -0.7342 -0.0000
vn 0.7119 -0.0000 0.7022
vn 1.0000 -0.0000 -0.0000
vn 0.6856 -0.7280 -0.0000
vn 0.6825 0.7309 -0.0000
vn -0.8379 0.5458 -0.0000
vt 0.625000 0.875000
vt 0.125000 0.125000
s 0
usemtl ruins_tg_slate
f 2/1/1 7/1/1 1/1/1
f 3/1/2 8/1/2 2/1/2
f 4/1/3 9/1/3 3/1/3
f 5/1/4 10/1/4 4/1/4
f 6/1/5 11/1/5 5/1/5
f 1/1/6 12/1/6 6/1/6
f 14/2/7 13/2/7 15/2/7
f 16/2/7 14/2/7 15/2/7
f 17/2/7 16/2/7 15/2/7
f 18/2/7 17/2/7 15/2/7
f 19/2/7 18/2/7 15/2/7
f 13/2/7 19/2/7 15/2/7
f 20/2/8 21/2/8 22/2/8
f 21/2/8 23/2/8 22/2/8
f 23/2/8 24/2/8 22/2/8
f 24/2/8 25/2/8 22/2/8
f 25/2/8 26/2/8 22/2/8
f 26/2/8 20/2/8 22/2/8
f 2/1/7 13/1/7 14/1/7
f 3/1/7 14/1/7 16/1/7
f 3/1/7 17/1/7 4/1/7
f 4/1/7 18/1/7 5/1/7
f 5/1/7 19/1/7 6/1/7
f 6/1/7 13/1/7 1/1/7
f 8/1/8 20/1/8 7/1/8
f 9/1/8 21/1/8 8/1/8
f 9/1/8 24/1/8 23/1/8
f 10/1/8 25/1/8 24/1/8
f 11/1/8 26/1/8 25/1/8
f 12/1/8 20/1/8 26/1/8
f 40/1/4 42/1/4 39/1/4
f 28/1/8 31/1/8 27/1/8
f 27/1/9 34/1/9 29/1/9
f 27/1/8 31/1/8 33/1/8
f 33/1/10 36/1/10 34/1/10
f 33/1/8 31/1/8 35/1/8
f 32/1/11 37/1/11 31/1/11
f 29/1/12 40/1/12 39/1/12
f 28/1/13 40/1/13 30/1/13
f 27/1/14 41/1/14 28/1/14
f 29/1/15 42/1/15 27/1/15
f 34/1/7 36/1/7 44/1/7
f 29/1/7 34/1/7 44/1/7
f 30/1/7 44/1/7 43/1/7
f 44/1/1 38/1/1 43/1/1
f 35/1/9 45/1/9 36/1/9
f 47/1/8 35/1/8 31/1/8
f 47/1/16 37/1/16 48/1/16
f 49/1/17 37/1/17 44/1/17
f 36/1/7 49/1/7 44/1/7
f 48/1/1 49/1/1 45/1/1
f 30/1/17 43/1/17 38/1/17
f 61/2/1 63/2/1 60/2/1
f 58/2/7 56/2/7 53/2/7
f 55/2/4 50/2/4 54/2/4
f 56/2/17 59/2/17 57/2/17
f 50/2/9 53/2/9 54/2/9
f 55/2/18 57/2/18 51/2/18
f 51/2/8 52/2/8 50/2/8
f 62/2/19 59/2/19 58/2/19
f 52/2/20 63/2/20 53/2/20
f 52/2/8 51/2/8 57/2/8
f 55/2/7 54/2/7 53/2/7
f 2/1/1 8/1/1 7/1/1
f 3/1/2 9/1/2 8/1/2
f 4/1/3 10/1/3 9/1/3
f 5/1/4 11/1/4 10/1/4
f 6/1/5 12/1/5 11/1/5
f 1/1/6 7/1/6 12/1/6
f 2/1/7 1/1/7 13/1/7
f 3/1/7 2/1/7 14/1/7
f 3/1/7 16/1/7 17/1/7
f 4/1/7 17/1/7 18/1/7
f 5/1/7 18/1/7 19/1/7
f 6/1/7 19/1/7 13/1/7
f 8/1/8 21/1/8 20/1/8
f 9/1/8 23/1/8 21/1/8
f 9/1/8 10/1/8 24/1/8
f 10/1/8 11/1/8 25/1/8
f 11/1/8 12/1/8 26/1/8
f 12/1/8 7/1/8 20/1/8
f 40/1/4 41/1/4 42/1/4
f 28/1/8 32/1/8 31/1/8
f 27/1/9 33/1/9 34/1/9
f 33/1/10 35/1/10 36/1/10
f 32/1/11 38/1/11 37/1/11
f 29/1/12 30/1/12 40/1/12
f 28/1/13 41/1/13 40/1/13
f 27/1/14 42/1/14 41/1/14
f 29/1/15 39/1/15 42/1/15
f 30/1/7 29/1/7 44/1/7
f 44/1/1 37/1/1 38/1/1
f 35/1/9 46/1/9 45/1/9
f 47/1/8 46/1/8 35/1/8
f 47/1/16 31/1/16 37/1/16
f 49/1/17 48/1/17 37/1/17
f 36/1/7 45/1/7 49/1/7
f 45/1/1 46/1/1 48/1/1
f 46/1/1 47/1/1 48/1/1
f 32/1/17 28/1/17 38/1/17
f 28/1/17 30/1/17 38/1/17
f 61/2/1 62/2/1 63/2/1
f 56/2/7 55/2/7 53/2/7
f 53/2/7 63/2/7 62/2/7
f 62/2/7 58/2/7 53/2/7
f 55/2/4 51/2/4 50/2/4
f 56/2/17 58/2/17 59/2/17
f 50/2/9 52/2/9 53/2/9
f 55/2/18 56/2/18 57/2/18
f 62/2/19 61/2/19 59/2/19
f 52/2/20 60/2/20 63/2/20
f 57/2/8 59/2/8 52/2/8
f 59/2/8 61/2/8 52/2/8
f 61/2/8 60/2/8 52/2/8
