# Blender 5.2.2 LTS
# www.blender.org
mtllib ruins_kr_column.mtl
o piece
v 1.168706 -1.865094 -0.484085
v 0.894489 -1.865094 -0.894489
v 0.894489 2.483195 -0.894489
v 1.168706 2.483195 -0.484085
v 0.484095 -1.865094 -1.168704
v 0.484095 2.483195 -1.168704
v 0.000000 -1.865094 -1.264996
v 0.000000 2.483195 -1.264997
v -0.484095 -1.865094 -1.168704
v -0.484095 2.483195 -1.168704
v -0.894492 -1.865094 -0.894489
v -0.894492 2.483195 -0.894489
v -1.168709 -1.865094 -0.484090
v -1.168709 2.483195 -0.484090
v -1.265001 -1.865094 0.000005
v -1.265001 2.483195 0.000005
v -1.168709 -1.865094 0.484095
v -1.168709 2.483195 0.484095
v -0.894492 -1.865094 0.894499
v -0.894492 2.483195 0.894499
v -0.484097 -1.865094 1.168714
v -0.484097 2.483195 1.168714
v 0.000000 -1.865094 1.265006
v 0.000000 2.483195 1.265006
v 0.484095 -1.865094 1.168714
v 0.484095 2.483195 1.168714
v 0.894489 -1.865094 0.894499
v 0.894489 2.483195 0.894499
v 1.168706 -1.865094 0.484100
v 1.168706 2.483195 0.484099
v 1.264997 -1.865094 0.000005
v 1.264997 2.483195 0.000005
v 1.330831 -2.919720 -0.551242
v 1.018574 -2.919720 -1.018571
v 0.551248 -2.919720 -1.330828
v 0.000000 -2.796288 -1.440477
v -0.551252 -2.919720 -1.330828
v -1.018577 -2.919720 -1.018571
v -1.330833 -2.826929 -0.551242
v -1.440482 -2.919720 0.000005
v -1.330833 -2.919720 0.551253
v -1.018577 -2.796288 1.018582
v -0.551252 -2.919720 1.330839
v 0.000000 -2.919720 1.440487
v 0.551248 -2.919720 1.330839
v 1.018572 -2.796288 1.018582
v 1.330831 -2.796288 0.551253
v 1.440482 -2.919720 0.000005
v 1.250064 -2.007508 -0.517788
v 0.956759 -2.007508 -0.956754
v 0.517793 -2.041917 -1.250062
v 0.000000 -2.041917 -1.353058
v -0.517795 -2.041917 -1.250062
v -0.956762 -2.007508 -0.956754
v -1.250067 -2.041917 -0.517792
v -1.353063 -2.041917 0.000005
v -1.250067 -2.007508 0.517798
v -0.956762 -2.007508 0.956765
v -0.517797 -2.041917 1.250072
v 0.000000 -2.041917 1.353069
v 0.517793 -2.007508 1.250072
v 0.956757 -2.041917 0.956765
v 1.250064 -2.041917 0.517803
v 1.353059 -2.041917 0.000005
v 1.267612 -2.993143 -0.525059
v 0.970187 -2.993143 -0.970182
v 0.525060 -2.993143 -1.267609
v 0.000000 -2.993143 -1.372051
v -0.525064 -2.993143 -1.267609
v -0.970192 -2.993143 -0.970187
v -1.267614 -2.993143 -0.525059
v -1.372056 -2.993143 0.000005
v -1.267614 -2.993143 0.525070
v -0.970192 -2.993143 0.970197
v -0.525064 -2.993143 1.267620
v 0.000000 -2.993143 1.372061
v 0.525060 -2.993143 1.267620
v 0.970187 -2.993143 0.970197
v 1.267612 -2.993143 0.525070
v 1.372056 -2.993143 0.000005
v 1.267612 -3.211387 -0.525059
v 0.970187 -3.211387 -0.970182
v 0.525060 -3.211387 -1.267609
v 0.000000 -3.211387 -1.372051
v -0.525064 -3.211387 -1.267609
v -0.970192 -3.211387 -0.970187
v -1.267614 -3.211387 -0.525059
v -1.372056 -3.211387 0.000005
v -1.267614 -3.211386 0.525070
v -0.970192 -3.211386 0.970197
v -0.525064 -3.211386 1.267620
v 0.000000 -3.211386 1.372061
v 0.525060 -3.211387 1.267620
v 0.970187 -3.211387 0.970197
v 1.267612 -3.211387 0.525070
v 1.372056 -3.211387 0.000005
v 1.250064 -1.865094 -0.517788
v 0.956759 -1.865094 -0.956754
v 0.517793 -1.865094 -1.250062
v 0.000000 -1.865094 -1.353058
v -0.517795 -1.865094 -1.250062
v -0.956762 -1.865094 -0.956754
v -1.250067 -1.865094 -0.517792
v -1.353063 -1.865094 0.000005
v -1.250067 -1.865094 0.517798
v -0.956762 -1.865094 0.956765
v -0.517797 -1.865094 1.250072
v 0.000000 -1.865094 1.353069
v 0.517793 -1.865094 1.250072
v 0.956757 -1.865094 0.956765
v 1.250064 -1.865094 0.517803
v 1.353059 -1.865094 0.000005
v 1.338885 2.650713 -0.554576
v 1.024737 2.650713 -1.024737
v 0.554585 2.650713 -1.338882
v 0.000000 2.650713 -1.449199
v -0.554588 2.650713 -1.338882
v -1.024742 2.650713 -1.024737
v -1.338887 2.650713 -0.554581
v -1.449203 2.650713 0.000005
v -1.338887 2.650713 0.554590
v -1.024742 2.650713 1.024747
v -0.554588 2.650713 1.338892
v 0.000000 2.650713 1.449208
v 0.554585 2.650713 1.338892
v 1.024737 2.650713 1.024747
v 1.338885 2.650713 0.554590
v 1.449199 2.650713 0.000005
v 1.407394 2.810572 -0.582957
v 1.077170 2.758348 -1.077170
v 0.582962 2.810572 -1.407390
v 0.000000 2.758348 -1.523351
v -0.582962 2.758348 -1.407390
v -1.077175 2.758348 -1.077170
v -1.407397 2.758348 -0.582957
v -1.523356 2.810572 0.000005
v -1.407397 2.810572 0.582967
v -1.077175 2.758348 1.077180
v -0.582964 2.758348 1.407404
v 0.000000 2.758348 1.523356
v 0.582962 2.810572 1.407404
v 1.077170 2.758348 1.077180
v 1.407394 2.758348 0.582967
v 1.523352 2.758348 0.000005
v 1.567454 3.023955 -0.649252
v 1.199675 3.023955 -1.199670
v 0.649259 3.023955 -1.567449
v 0.000000 3.023955 -1.696596
v -0.649261 3.023955 -1.567449
v -1.199679 3.023955 -1.199670
v -1.567454 3.023955 -0.649257
v -1.696601 3.023955 0.000005
v -1.567454 3.023955 0.649261
v -1.199679 3.023955 1.199679
v -0.649261 3.023955 1.567454
v 0.000000 3.023955 1.696601
v 0.649259 3.023955 1.567454
v 1.199675 3.023955 1.199679
v 1.567454 3.023955 0.649266
v 1.696596 3.023955 0.000005
v 1.733799 3.023955 -0.718160
v 1.326990 3.023955 -1.326990
v 0.718160 3.023955 -1.733799
v 0.000000 3.023955 -1.876650
v -0.718164 3.023955 -1.733799
v -1.326993 3.023955 -1.326990
v -1.733799 3.023955 -0.718160
v -1.876650 3.023955 0.000005
v -1.733799 3.023955 0.718169
v -1.326995 3.023955 1.327000
v -0.718164 3.023955 1.733799
v 0.000000 3.023955 1.876650
v 0.718160 3.023955 1.733799
v 1.326990 3.023955 1.327000
v 1.733799 3.023955 0.718169
v 1.876650 3.023955 0.000005
v 1.733799 3.211387 -0.718160
v 1.326990 3.211387 -1.326990
v 0.718160 3.211387 -1.733799
v 0.000000 3.211387 -1.876650
v -0.718164 3.211387 -1.733799
v -1.326993 3.211387 -1.326990
v -1.733799 3.211387 -0.718160
v -1.876650 3.211387 0.000005
v -1.733799 3.211387 0.718169
v -1.326995 3.211387 1.327000
v -0.718164 3.211387 1.733799
v 0.000000 3.211387 1.876650
v 0.718160 3.211387 1.733799
v 1.326990 3.211387 1.327000
v 1.733799 3.211387 0.718169
v 1.876650 3.211387 0.000005
v 1.437297 3.150675 -0.595341
v 1.100059 3.150675 -1.100054
v 0.595345 3.150675 -1.437297
v 0.000000 3.150675 -1.555719
v -0.595350 3.150675 -1.437297
v -1.100063 3.150675 -1.100054
v -1.437299 3.150675 -0.595341
v -1.555722 3.150675 0.000005
v -1.437299 3.150675 0.595350
v -1.100063 3.150675 1.100063
v -0.595350 3.150675 1.437297
v 0.000000 3.150675 1.555724
v 0.595345 3.150675 1.437297
v 1.100059 3.150675 1.100063
v 1.437297 3.150675 0.595355
v 1.555719 3.150675 0.000005
v 1.284087 -1.953537 -0.531878
v 0.982797 -1.953537 -0.982790
v 0.531883 -1.953538 -1.284079
v 0.000000 -1.919128 -1.389880
v -0.531888 -1.919128 -1.284079
v -0.982800 -1.953537 -0.982794
v -1.284089 -1.953537 -0.531883
v -1.389887 -1.953537 0.000005
v -1.284089 -1.953537 0.531888
v -0.982800 -1.953537 0.982800
v -0.531888 -1.919128 1.284094
v 0.000000 -1.953537 1.389895
v 0.531883 -1.953537 1.284094
v 0.982795 -1.953537 0.982800
v 1.284087 -1.919128 0.531893
v 1.389883 -1.953537 0.000005
v 1.440005 2.672047 -0.596461
v 1.102133 2.672047 -1.102128
v 0.596468 2.672047 -1.440005
v 0.000000 2.672047 -1.558647
v -0.596471 2.672047 -1.440005
v -1.102138 2.672047 -1.102128
v -1.440010 2.672047 -0.596466
v -1.558654 2.672047 0.000005
v -1.440010 2.672047 0.596471
v -1.102138 2.672047 1.102138
v -0.596473 2.672047 1.440015
v 0.000000 2.672047 1.558657
v 0.596466 2.722077 1.440015
v 1.102133 2.672047 1.102138
v 1.440005 2.672047 0.596476
v 1.558652 2.672047 0.000005
v 0.062020 1.008571 1.307402
v 0.790234 1.332975 1.330257
v -0.360959 2.166010 1.553197
v 0.400581 2.453339 1.284456
v 0.052083 1.009806 1.256953
v 0.780296 1.334210 1.279803
v 0.390644 2.454570 1.234021
v -0.370898 2.167245 1.502757
v -0.145104 1.575371 1.347385
v 0.017960 2.309810 1.337018
v 0.019438 2.315326 1.285009
v -0.148532 1.558786 1.295676
v 0.515168 1.178561 1.245160
v 0.682304 1.682416 1.230087
v 0.518701 1.184846 1.192851
v 0.678546 1.666735 1.178441
v -0.386479 -1.885654 -1.392569
v -1.121390 -1.740252 -1.119041
v -0.289273 -0.640010 -1.526408
v -0.945711 -0.574619 -0.979109
v -0.359824 -1.888451 -1.348667
v -1.094732 -1.743049 -1.075139
v -0.919061 -0.577418 -0.935220
v -0.262620 -0.642807 -1.482520
v -0.310619 -1.285719 -1.383533
v -0.587049 -0.616983 -1.177420
v -0.571093 -0.618514 -1.127615
v -0.286345 -1.307375 -1.339917
v -0.811257 -1.835474 -1.157703
v -1.048899 -1.390614 -0.991406
v -0.797224 -1.836786 -1.106820
v -1.024506 -1.411315 -0.947775
v -0.314293 1.655761 -1.538868
v -0.851574 1.160432 -1.219444
v -1.028996 2.580774 -1.077847
v -1.371970 1.994873 -0.554576
v -0.278788 1.657349 -1.501689
v -0.816064 1.162022 -1.182260
v -1.336470 1.996458 -0.517411
v -0.993495 2.582367 -1.040678
v -0.613298 2.096413 -1.252193
v -1.147876 2.276979 -0.754480
v -1.119061 2.270153 -0.711341
v -0.568390 2.084148 -1.224027
v -0.579698 1.321658 -1.302123
v -0.965290 1.395524 -0.944500
v -0.552073 1.313313 -1.257906
v -0.920858 1.383961 -0.915875
v -0.082631 -1.758870 1.325808
v 0.645583 -1.434466 1.348663
v -0.505610 -0.601431 1.571603
v 0.255930 -0.314101 1.302863
v -0.092568 -1.757635 1.275359
v 0.635645 -1.433231 1.298209
v 0.245993 -0.312871 1.252427
v -0.515549 -0.600196 1.521163
v -0.289755 -1.192070 1.365791
v -0.126691 -0.457632 1.355424
v -0.125213 -0.452115 1.303416
v -0.293183 -1.208655 1.314083
v 0.370517 -1.588880 1.263566
v 0.537653 -1.085025 1.248494
v 0.374050 -1.582595 1.211257
v 0.533895 -1.100706 1.196847
v -1.442547 -0.097486 -0.666394
v -1.850951 0.046113 0.003410
v -1.164904 1.057030 -0.704455
v -1.344597 1.113907 0.131726
v -1.394587 -0.101449 -0.648231
v -1.802990 0.042151 0.021577
v -1.296649 1.109940 0.149880
v -1.116948 1.053067 -0.686297
v -1.389306 0.511356 0.139518
v -1.125078 0.484076 -0.619016
v -1.173015 0.489429 -0.637340
v -1.341641 0.506037 0.157657
v -1.588402 0.245734 0.109806
v -1.184311 0.243481 -0.595918
v -1.232235 0.249640 -0.614338
v -1.540897 0.239633 0.127936
v 1.293998 -0.629949 -1.091671
v 0.781136 -0.558990 -1.698293
v 1.103191 0.515502 -0.840726
v 0.370169 0.476345 -1.283288
v 1.261845 -0.636937 -1.052131
v 0.748978 -0.565981 -1.658759
v 0.338030 0.469354 -1.243763
v 1.071048 0.508514 -0.801191
v 0.448542 -0.121936 -1.315593
v 1.077752 -0.064186 -0.818915
v 1.109881 -0.055796 -0.858407
v 0.416667 -0.130266 -1.276302
v 0.572453 -0.378365 -1.488709
v 1.103725 -0.304662 -0.877433
v 1.135850 -0.295459 -0.916900
v 0.540729 -0.387467 -1.449546
v 1.322544 1.159432 0.008626
v 1.319022 1.132995 -0.788455
v 1.442766 2.403110 -0.124831
v 1.153421 2.300492 -0.925126
v 1.272140 1.159962 0.018854
v 1.268611 1.133524 -0.778231
v 1.103029 2.301017 -0.914898
v 1.392374 2.403639 -0.114603
v 1.301470 1.760612 -0.053821
v 1.216698 2.344748 -0.520406
v 1.164412 2.343953 -0.522251
v 1.251729 1.742245 -0.041628
v 1.247606 1.107024 -0.470700
v 1.182089 1.482802 -0.840196
v 1.194968 1.105991 -0.474715
v 1.132314 1.465390 -0.828104
v -0.113599 -0.008792 1.309967
v 0.333819 0.032059 1.347480
v -0.132844 0.696273 1.394229
v 0.335600 0.698662 1.270366
v -0.116911 -0.008497 1.281080
v 0.330510 0.032352 1.318593
v 0.332289 0.698953 1.241484
v -0.136156 0.696567 1.365352
v -0.120223 0.333003 1.306010
v 0.103264 0.694341 1.286183
v 0.106883 0.694764 1.256833
v -0.123327 0.322554 1.277251
v 0.161567 -0.003674 1.291237
v 0.344610 0.233773 1.275754
v 0.166433 -0.003230 1.261792
v 0.341496 0.223866 1.246987
v 0.738382 1.795876 1.089687
v 1.086390 1.762177 0.805054
v 0.875845 2.492783 1.093202
v 1.121635 2.420880 0.681853
v 0.716023 1.797276 1.071153
v 1.064029 1.763578 0.786519
v 1.099281 2.422278 0.663323
v 0.853491 2.494184 1.074672
v 0.775828 2.134156 1.057296
v 0.967648 2.454349 0.853367
v 0.949883 2.454750 0.829720
v 0.752292 2.124921 1.039782
v 0.920758 1.756242 0.886560
v 1.070709 1.960774 0.725913
v 0.903816 1.756461 0.861988
v 1.047235 1.952078 0.708342
v 1.390443 -1.749310 -0.359511
v 1.277442 -1.737600 -0.795807
v 1.310334 -1.043632 -0.373349
v 1.050930 -1.106190 -0.777807
v 1.364751 -1.755048 -0.347161
v 1.251752 -1.743340 -0.783453
v 1.025248 -1.111930 -0.765457
v 1.284652 -1.049370 -0.360999
v 1.309447 -1.417198 -0.354490
v 1.138244 -1.088150 -0.562629
v 1.109953 -1.094426 -0.556697
v 1.286302 -1.433376 -0.342297
v 1.287036 -1.770672 -0.614352
v 1.161098 -1.557907 -0.784635
v 1.258271 -1.777050 -0.609574
v 1.137824 -1.573557 -0.772438
v -1.184947 1.639140 0.556941
v -1.154056 1.898601 0.924344
v -1.363420 2.235333 0.214472
v -1.166239 2.477411 0.585022
v -1.157284 1.638660 0.548005
v -1.126390 1.898121 0.915408
v -1.138580 2.476929 0.576086
v -1.335762 2.234853 0.205536
v -1.227214 1.930969 0.383935
v -1.219020 2.356116 0.393314
v -1.189785 2.359255 0.390101
v -1.198220 1.921316 0.380435
v -1.122437 1.782792 0.783987
v -1.108751 2.080480 0.820336
v -1.092913 1.786582 0.781798
v -1.079826 2.071292 0.816565
v -0.192888 -0.269648 -1.349477
v -0.611639 -0.102606 -1.347551
v 0.140736 0.673060 -1.414442
v -0.293267 0.810656 -1.248612
v -0.174007 -0.267941 -1.300635
v -0.592761 -0.100898 -1.298713
v -0.274386 0.812363 -1.199779
v 0.159616 0.674767 -1.365609
v 0.033975 0.329411 -1.312389
v -0.074453 0.739797 -1.285348
v -0.062103 0.743620 -1.235418
v 0.049589 0.320885 -1.263265
v -0.452034 -0.185726 -1.305966
v -0.557559 0.094343 -1.282463
v -0.440857 -0.181526 -1.255831
v -0.541780 0.086335 -1.233353
v -1.178041 -1.803465 0.530644
v -0.999546 -1.717824 0.935693
v -1.317813 -1.107568 0.502754
v -0.985119 -1.052335 0.850683
v -1.154413 -1.802505 0.513726
v -0.975914 -1.716863 0.918775
v -0.961499 -1.051377 0.833769
v -1.294193 -1.106608 0.485835
v -1.205349 -1.464267 0.497747
v -1.110017 -1.081250 0.656224
v -1.082668 -1.079427 0.645109
v -1.180863 -1.473969 0.481863
v -1.030121 -1.769218 0.760947
v -0.947976 -1.513691 0.895429
v -1.002097 -1.767244 0.750871
v -0.923533 -1.522854 0.879493
v -1.155453 -0.260951 1.124115
v -0.678751 -0.177866 1.578956
v -1.075208 0.679325 0.913577
v -0.426407 0.683110 1.211028
v -1.127207 -0.287611 1.091509
v -0.650501 -0.204529 1.546345
v -0.403206 0.679151 1.175256
v -1.052005 0.675369 0.877800
v -0.457358 0.181680 1.238952
v -1.026454 0.199002 0.887237
v -1.049719 0.204123 0.922990
v -0.434289 0.176595 1.203385
v -0.530293 -0.038649 1.391111
v -1.030068 -0.002455 0.935622
v -1.053371 0.003341 0.971360
v -0.507298 -0.044385 1.355658
v 0.000246 1.589724 -1.312060
v -0.437639 1.696828 -1.318879
v 0.118339 2.285330 -1.394358
v -0.335255 2.355184 -1.238914
v 0.005479 1.589109 -1.283464
v -0.432405 1.696212 -1.290283
v -0.330021 2.354567 -1.210322
v 0.123575 2.284716 -1.365771
v 0.057807 1.926687 -1.307068
v -0.107713 2.316781 -1.270513
v -0.109265 2.317312 -1.240983
v 0.061233 1.915482 -1.278634
v -0.269241 1.635208 -1.274633
v -0.413551 1.896865 -1.245704
v -0.272017 1.635943 -1.244926
v -0.410032 1.886194 -1.217255
v 1.387494 -0.974256 0.592299
v 1.716280 -0.868339 0.025111
v 1.205738 -0.025264 0.627809
v 1.336718 0.018645 -0.072441
v 1.347857 -0.997850 0.571232
v 1.676643 -0.891935 0.004039
v 1.296246 0.017391 -0.086369
v 1.165259 -0.026516 0.613880
v 1.349025 -0.484268 -0.082144
v 1.147056 -0.499748 0.555697
v 1.187577 -0.497338 0.569768
v 1.308732 -0.486661 -0.096073
v 1.504397 -0.713445 -0.063319
v 1.185875 -0.702151 0.534149
v 1.226423 -0.699073 0.548306
v 1.464207 -0.716497 -0.077247
vn 0.8315 -0.0000 -0.5556
vn 0.5556 -0.0000 -0.8315
vn 0.1951 -0.0000 -0.9808
vn -0.1951 -0.0000 -0.9808
vn -0.5556 -0.0000 -0.8315
vn -0.8315 -0.0000 -0.5556
vn -0.9808 -0.0000 -0.1951
vn -0.9808 -0.0000 0.1951
vn -0.8315 -0.0000 0.5556
vn -0.5556 -0.0000 0.8315
vn -0.1951 -0.0000 0.9808
vn 0.1951 -0.0000 0.9808
vn 0.5556 -0.0000 0.8315
vn 0.8315 -0.0000 0.5556
vn 0.9808 -0.0000 0.1951
vn 0.9808 -0.0000 -0.1951
vn 0.8278 0.0936 -0.5531
vn 0.5481 0.0935 -0.8312
vn 0.2151 0.0976 -0.9717
vn -0.1938 0.1129 -0.9745
vn -0.5529 0.0972 -0.8275
vn -0.8191 0.0939 -0.5659
vn -0.9750 0.1086 -0.1939
vn -0.9761 0.0972 0.1942
vn -0.8391 0.0939 0.5358
vn -0.5465 0.1079 0.8305
vn -0.1942 0.0972 0.9761
vn 0.1942 0.0972 0.9761
vn 0.5358 0.0939 0.8391
vn 0.8261 0.1129 0.5520
vn 0.9745 0.1129 0.1938
vn 0.9761 0.0972 -0.1942
vn -0.0000 -1.0000 -0.0000
vn -0.0000 1.0000 -0.0000
vn 0.6137 -0.6747 -0.4101
vn 0.4101 -0.6747 -0.6137
vn 0.1136 -0.3262 -0.9384
vn -0.1440 -0.6747 -0.7239
vn -0.4101 -0.6747 -0.6137
vn -0.8027 -0.3780 -0.4613
vn -0.7239 -0.6747 -0.1440
vn -0.7239 -0.6747 0.1440
vn -0.7439 -0.3262 0.5832
vn -0.4101 -0.6747 0.6137
vn -0.1440 -0.6747 0.7239
vn 0.1440 -0.6747 0.7239
vn 0.5832 -0.3262 0.7439
vn 0.7870 -0.3227 0.5259
vn 0.7239 -0.6747 0.1440
vn 0.7239 -0.6747 -0.1440
vn 0.5653 -0.7333 -0.3777
vn 0.3778 -0.7333 -0.5653
vn 0.1326 -0.7333 -0.6669
vn -0.1326 -0.7333 -0.6669
vn -0.3777 -0.7333 -0.5653
vn -0.5653 -0.7333 -0.3777
vn -0.6669 -0.7333 -0.1326
vn -0.6669 -0.7333 0.1326
vn -0.5653 -0.7333 0.3777
vn -0.3777 -0.7333 0.5653
vn -0.1326 -0.7333 0.6669
vn 0.1326 -0.7333 0.6669
vn 0.3777 -0.7333 0.5653
vn 0.5653 -0.7333 0.3777
vn 0.6669 -0.7333 0.1326
vn 0.6669 -0.7333 -0.1326
vn 0.6504 -0.6229 -0.4346
vn 0.4300 -0.5340 -0.7280
vn 0.1526 -0.6229 -0.7672
vn -0.1643 -0.5389 -0.8262
vn -0.4680 -0.5389 -0.7004
vn -0.7004 -0.5389 -0.4680
vn -0.8371 -0.5341 -0.1187
vn -0.7672 -0.6229 0.1526
vn -0.6504 -0.6229 0.4346
vn -0.4680 -0.5389 0.7004
vn -0.1643 -0.5389 0.8262
vn 0.2107 -0.5341 0.8188
vn 0.4346 -0.6229 0.6505
vn 0.7004 -0.5389 0.4680
vn 0.8262 -0.5389 0.1643
vn 0.8188 -0.5341 -0.2107
vn -0.1575 0.9819 0.1052
vn -0.1052 0.9819 0.1575
vn -0.0369 0.9819 0.1857
vn 0.0369 0.9819 0.1857
vn 0.1052 0.9819 0.1575
vn 0.1575 0.9819 0.1052
vn 0.1858 0.9819 0.0369
vn 0.1857 0.9819 -0.0369
vn 0.1575 0.9819 -0.1052
vn 0.1052 0.9819 -0.1575
vn 0.0369 0.9819 -0.1857
vn -0.0369 0.9819 -0.1858
vn -0.1052 0.9819 -0.1575
vn -0.1575 0.9819 -0.1052
vn -0.1857 0.9819 -0.0369
vn -0.1857 0.9819 0.0369
vn 0.6910 -0.5562 -0.4617
vn 0.7698 0.3780 -0.5143
vn 0.4617 -0.5561 -0.6910
vn 0.5143 0.3780 -0.7698
vn 0.1806 -0.3783 -0.9079
vn 0.1622 0.5557 -0.8154
vn -0.1872 -0.2822 -0.9409
vn -0.1622 0.5557 -0.8154
vn -0.5483 -0.2811 -0.7876
vn -0.5338 0.3796 -0.7556
vn -0.6910 -0.5561 -0.4617
vn -0.7698 0.3781 -0.5143
vn -0.9079 -0.3783 -0.1806
vn -0.9080 0.3780 -0.1806
vn -0.9035 -0.3765 0.2047
vn -0.9080 0.3781 0.1806
vn -0.6910 -0.5562 0.4617
vn -0.7698 0.3780 0.5143
vn -0.4335 -0.5525 0.7119
vn -0.4619 0.5557 0.6913
vn -0.2047 -0.2831 0.9370
vn -0.1568 0.3796 0.9118
vn 0.2047 -0.3765 0.9035
vn 0.1806 0.3781 0.9080
vn 0.4617 -0.5561 0.6910
vn 0.5143 0.3780 0.7698
vn 0.7697 -0.3783 0.5143
vn 0.6913 0.5557 0.4619
vn 0.9370 -0.2831 0.2047
vn 0.9118 0.3796 0.1568
vn 0.9035 -0.3765 -0.2047
vn 0.9080 0.3781 -0.1806
vn 0.1621 -0.9808 -0.1083
vn 0.7717 0.3723 -0.5156
vn 0.1083 -0.9808 -0.1621
vn 0.5566 0.2414 -0.7949
vn 0.0380 -0.9808 -0.1912
vn 0.1811 0.3723 -0.9103
vn -0.0380 -0.9808 -0.1912
vn -0.1811 0.3724 -0.9103
vn -0.1083 -0.9808 -0.1621
vn -0.5156 0.3723 -0.7717
vn -0.1621 -0.9808 -0.1083
vn -0.7717 0.3723 -0.5156
vn -0.1912 -0.9808 -0.0380
vn -0.9474 0.2414 -0.2101
vn -0.1912 -0.9808 0.0380
vn -0.9515 0.2425 0.1893
vn -0.1621 -0.9808 0.1083
vn -0.7717 0.3723 0.5156
vn -0.1083 -0.9808 0.1621
vn -0.5156 0.3723 0.7717
vn -0.0380 -0.9808 0.1912
vn -0.1811 0.3723 0.9103
vn 0.0380 -0.9808 0.1912
vn 0.1506 0.3620 0.9199
vn 0.2443 -0.8371 0.4896
vn 0.5405 0.3743 0.7535
vn 0.1621 -0.9808 0.1083
vn 0.7717 0.3723 0.5156
vn 0.1912 -0.9808 0.0380
vn 0.9103 0.3723 0.1811
vn 0.1912 -0.9808 -0.0380
vn 0.9557 0.2414 -0.1685
vn -0.1426 0.0177 -0.9896
vn 0.1426 -0.0177 0.9896
vn 0.3390 -0.9365 -0.0897
vn 0.9530 0.2423 -0.1818
vn -0.3390 0.9365 0.0897
vn -0.9053 -0.3897 0.1689
vn -0.5139 0.1021 -0.8518
vn 0.5223 -0.1040 0.8464
vn -0.3111 0.9466 0.0845
vn -0.9211 -0.3488 0.1729
vn 0.3910 -0.1568 -0.9069
vn -0.3678 0.1495 0.9178
vn 0.5143 -0.8489 -0.1221
vn 0.9211 0.3488 -0.1730
vn 0.4759 -0.0734 0.8764
vn -0.4759 0.0734 -0.8764
vn -0.1141 -0.9935 0.0060
vn -0.8550 -0.0120 0.5184
vn 0.1140 0.9935 -0.0060
vn 0.8419 -0.1430 -0.5204
vn 0.7538 0.1120 0.6475
vn -0.7593 -0.1166 -0.6402
vn 0.0885 0.9960 0.0098
vn 0.8477 -0.0993 -0.5211
vn -0.0127 -0.3561 0.9344
vn -0.0111 0.3449 -0.9386
vn -0.2793 -0.9540 0.1088
vn -0.8477 0.0993 0.5211
vn 0.6780 -0.0179 0.7348
vn -0.6781 0.0179 -0.7348
vn 0.5104 -0.7288 -0.4563
vn -0.4521 -0.7616 0.4643
vn -0.5105 0.7288 0.4563
vn 0.5341 0.6521 -0.5381
vn 0.6971 0.3684 0.6151
vn -0.6961 -0.3776 -0.6106
vn -0.5257 0.7079 0.4718
vn 0.5122 0.6848 -0.5184
vn 0.5067 -0.5538 0.6607
vn -0.5189 0.5318 -0.6693
vn 0.3990 -0.8497 -0.3447
vn -0.5122 -0.6848 0.5184
vn 0.4254 -0.7963 0.4301
vn -0.9606 0.0678 -0.2694
vn -0.1308 -0.9827 0.1309
vn -0.3511 0.0381 0.9356
vn 0.0996 0.9940 -0.0462
vn 0.3482 -0.0708 -0.9348
vn 0.9605 -0.0681 0.2698
vn -0.7285 0.5858 -0.3552
vn -0.3372 0.1485 0.9296
vn 0.3435 -0.1151 -0.9321
vn 0.7289 -0.5849 0.3559
vn 0.3350 -0.1714 -0.9265
vn -0.4286 0.7938 -0.4315
vn -0.3593 -0.0256 0.9329
vn -0.4477 -0.8495 0.2792
vn 0.5568 0.1173 -0.8223
vn 0.0357 -0.9887 -0.1458
vn -0.7684 -0.0663 -0.6365
vn -0.1064 0.9904 0.0886
vn 0.7725 0.0339 0.6342
vn -0.5570 -0.1177 0.8221
vn 0.5007 0.6374 -0.5857
vn -0.7804 0.0438 -0.6238
vn 0.7767 -0.0104 0.6297
vn -0.5017 -0.6365 0.5858
vn 0.7809 -0.0668 0.6211
vn 0.4504 0.8472 -0.2817
vn -0.7557 -0.1290 -0.6421
vn -0.9875 -0.0184 0.1564
vn 0.9875 0.0184 -0.1564
vn 0.0113 -0.9942 0.1069
vn -0.1962 -0.2182 -0.9560
vn -0.0113 0.9942 -0.1069
vn 0.1992 0.0643 0.9779
vn -0.8629 0.2330 0.4484
vn 0.8578 -0.2389 -0.4550
vn -0.0173 0.9905 -0.1363
vn 0.1988 0.1081 0.9740
vn -0.8818 -0.3998 -0.2502
vn 0.8936 0.3841 0.2322
vn -0.0282 -0.9957 -0.0877
vn -0.1988 -0.1081 -0.9740
vn -0.0677 -0.0129 -0.9976
vn 0.0677 0.0129 0.9976
vn 0.0178 -0.9998 -0.0122
vn 0.9890 -0.0935 -0.1143
vn -0.0178 0.9998 0.0122
vn -0.9917 -0.0619 0.1131
vn -0.3985 0.1973 -0.8957
vn 0.4061 -0.2023 0.8911
vn 0.0122 0.9999 0.0088
vn -0.9933 -0.0179 0.1137
vn 0.3729 -0.3436 -0.8619
vn -0.3542 0.3301 0.8750
vn 0.2138 -0.9763 -0.0344
vn 0.9934 0.0179 -0.1137
vn -0.7422 0.0180 -0.6699
vn 0.7422 -0.0180 0.6699
vn -0.1272 -0.9887 0.0787
vn 0.6082 -0.2520 -0.7528
vn 0.1272 0.9887 -0.0788
vn -0.6314 0.0991 0.7691
vn -0.8779 0.2775 -0.3902
vn 0.8795 -0.2835 0.3821
vn 0.1461 0.9840 -0.1018
vn -0.6263 0.1427 0.7664
vn -0.3797 -0.3831 -0.8421
vn 0.4002 0.3663 0.8400
vn -0.0009 -0.9972 -0.0744
vn 0.6263 -0.1427 -0.7664
vn -0.8963 -0.2244 0.3825
vn 0.8963 0.2244 -0.3825
vn 0.2154 -0.9765 -0.0056
vn -0.3891 -0.1960 -0.9001
vn -0.2155 0.9765 0.0056
vn 0.4248 0.0446 0.9042
vn -0.7490 0.0290 0.6619
vn 0.7436 -0.0355 -0.6677
vn -0.2279 0.9734 -0.0217
vn 0.4156 0.0877 0.9053
vn -0.8303 -0.5522 -0.0759
vn 0.8397 0.5403 0.0541
vn 0.1290 -0.9743 -0.1844
vn -0.4157 -0.0877 -0.9053
vn 0.9661 -0.0129 -0.2578
vn -0.9661 0.0129 0.2578
vn 0.1466 -0.8537 0.4997
vn 0.2854 0.4212 0.8609
vn -0.1466 0.8537 -0.4998
vn -0.2641 -0.5567 -0.7876
vn 0.7848 -0.0014 -0.6197
vn -0.7784 0.0012 0.6277
vn -0.1384 0.8690 -0.4751
vn -0.2708 -0.5196 -0.8103
vn 0.9488 -0.0809 0.3053
vn -0.9568 0.0782 -0.2801
vn 0.1972 -0.7339 0.6500
vn 0.2709 0.5196 0.8103
vn 0.0802 -0.0755 0.9939
vn -0.1582 0.0232 -0.9871
vn -0.2832 -0.9484 0.1426
vn -0.9255 0.1375 0.3529
vn 0.2832 0.9484 -0.1426
vn 0.8718 -0.3671 -0.3242
vn 0.5235 0.0825 0.8480
vn -0.5318 -0.0850 -0.8426
vn 0.2268 0.9663 -0.1215
vn 0.8886 -0.3159 -0.3325
vn -0.3694 -0.2150 0.9041
vn 0.3463 0.2073 -0.9149
vn -0.4951 -0.8403 0.2208
vn -0.8886 0.3120 0.3364
vn 0.8403 0.0151 -0.5419
vn -0.8403 -0.0151 0.5419
vn 0.0999 -0.9915 0.0833
vn 0.5817 0.0135 0.8133
vn -0.0999 0.9915 -0.0833
vn -0.5695 -0.1683 -0.8046
vn 0.5756 0.1862 -0.7962
vn -0.5676 -0.1902 0.8011
vn -0.0825 0.9948 -0.0588
vn -0.5743 -0.1247 -0.8091
vn 0.9597 -0.2728 -0.0678
vn -0.9610 0.2608 0.0914
vn 0.2114 -0.9471 0.2415
vn 0.5743 0.1247 0.8091
vn 0.4650 -0.8182 -0.3379
vn -0.4669 0.0779 0.8809
vn -0.2812 -0.8478 0.4496
vn 0.8377 -0.0213 0.5457
vn 0.0344 0.9955 -0.0877
vn -0.7784 -0.0605 -0.6248
vn 0.4672 -0.0782 -0.8807
vn -0.4700 0.6016 0.6459
vn 0.8414 0.0893 0.5330
vn -0.8405 -0.0558 -0.5389
vn 0.4709 -0.6007 -0.6460
vn -0.8401 -0.1124 -0.5306
vn -0.4292 0.8541 0.2938
vn 0.8296 -0.0848 0.5518
vn 0.1313 -0.0371 0.9906
vn -0.1313 0.0371 -0.9906
vn -0.1652 -0.9862 0.0091
vn -0.9821 0.0521 0.1809
vn 0.1652 0.9862 -0.0091
vn 0.9617 -0.2063 -0.1806
vn 0.4821 0.1233 0.8674
vn -0.4901 -0.1272 -0.8623
vn 0.1359 0.9907 -0.0036
vn 0.9699 -0.1630 -0.1811
vn -0.3616 -0.2971 0.8837
vn 0.3402 0.2867 -0.8956
vn -0.3536 -0.9343 0.0446
vn -0.9699 0.1630 0.1810
vn -0.4767 -0.7720 -0.4205
vn 0.9704 0.0191 0.2407
vn 0.4663 -0.8782 0.1063
vn 0.3246 0.0262 -0.9455
vn -0.0492 0.9974 0.0533
vn -0.4193 -0.1012 0.9022
vn -0.9703 -0.0194 -0.2411
vn 0.7667 0.5473 0.3356
vn 0.3163 0.1371 -0.9387
vn -0.3208 -0.1034 0.9415
vn -0.7670 -0.5464 -0.3364
vn -0.3153 -0.1601 0.9354
vn 0.4268 0.8116 0.3990
vn 0.3298 -0.0377 -0.9433
vn 0.5529 0.0972 -0.8275
vn 0.1938 0.1129 -0.9745
vn -0.2151 0.0976 -0.9717
vn -0.5481 0.0935 -0.8312
vn -0.8305 0.1087 -0.5464
vn -0.9791 0.0975 -0.1783
vn -0.9777 0.0935 0.1883
vn -0.8266 0.1081 0.5523
vn -0.5350 0.0976 0.8392
vn 0.1883 0.0935 0.9777
vn 0.5581 0.1131 0.8220
vn 0.8262 0.1129 0.5520
vn 0.9801 0.0976 0.1731
vn 0.9777 0.0935 -0.1883
vn 0.1440 -0.6747 -0.7239
vn -0.1136 -0.3262 -0.9384
vn -0.6137 -0.6747 -0.4101
vn -0.8938 -0.3780 -0.2414
vn -0.6137 -0.6747 0.4101
vn -0.5832 -0.3262 0.7439
vn 0.4101 -0.6747 0.6137
vn 0.9105 -0.3262 0.2542
vn 0.3777 -0.7333 -0.5653
vn -0.6669 -0.7333 0.1327
vn 0.3778 -0.7333 0.5653
vn 0.7280 -0.5341 -0.4300
vn 0.4346 -0.6229 -0.6504
vn 0.2107 -0.5341 -0.8188
vn -0.7672 -0.6229 -0.1526
vn -0.7280 -0.5341 0.4300
vn 0.1526 -0.6229 0.7673
vn 0.4300 -0.5341 0.7280
vn 0.7672 -0.6229 -0.1526
vn 0.1857 0.9819 0.0369
vn 0.0369 0.9819 -0.1858
vn -0.0369 0.9819 -0.1857
vn 0.6910 -0.5561 -0.4617
vn 0.7698 0.3781 -0.5143
vn 0.5349 -0.3764 -0.7564
vn 0.1695 -0.2831 -0.9440
vn 0.2041 0.3796 -0.9024
vn -0.4335 -0.5526 -0.7119
vn -0.4619 0.5557 -0.6913
vn -0.7564 -0.3765 -0.5349
vn -0.9080 0.3781 -0.1806
vn -0.8151 -0.5562 0.1621
vn -0.9080 0.3780 0.1806
vn -0.6910 -0.5561 0.4617
vn -0.7698 0.3781 0.5143
vn -0.5483 -0.2811 0.7876
vn -0.5338 0.3796 0.7556
vn -0.1806 -0.3783 0.9079
vn -0.1622 0.5557 0.8154
vn 0.1621 -0.5562 0.8151
vn 0.4941 -0.3764 0.7837
vn 0.8073 -0.2831 0.5178
vn 0.7556 0.3796 0.5338
vn 0.9079 -0.3783 0.1806
vn 0.8154 0.5557 0.1622
vn 0.8151 -0.5562 -0.1621
vn 0.9080 0.3780 -0.1806
vn 0.7949 0.2414 -0.5566
vn 0.5156 0.3723 -0.7717
vn 0.1685 0.2414 -0.9557
vn -0.1811 0.3723 -0.9103
vn -0.5156 0.3724 -0.7717
vn -0.9103 0.3723 -0.1811
vn -0.7949 0.2414 0.5566
vn 0.1734 -0.8371 0.5189
vn 0.1506 0.3743 0.9150
vn 0.1083 -0.9808 0.1621
vn 0.5440 0.3620 0.7570
vn 0.9103 0.3723 -0.1811
vn 0.3390 -0.9365 -0.0896
vn 0.9576 0.2488 -0.1452
vn -0.3390 0.9365 0.0896
vn -0.9009 -0.3924 0.1856
vn -0.3081 0.9469 0.0917
vn 0.5117 -0.8564 -0.0683
vn 0.9211 0.3488 -0.1729
vn -0.1141 -0.9935 0.0059
vn -0.8733 -0.0022 0.4872
vn 0.1141 0.9935 -0.0059
vn 0.8324 -0.1445 -0.5350
vn 0.0831 0.9965 0.0040
vn 0.8477 -0.0994 -0.5210
vn -0.2945 -0.9540 0.0566
vn 0.6781 -0.0179 0.7348
vn -0.6780 0.0179 -0.7348
vn 0.5104 -0.7288 -0.4564
vn -0.4814 -0.7572 0.4415
vn -0.5104 0.7288 0.4564
vn 0.5233 0.6495 -0.5516
vn -0.5318 0.7065 0.4670
vn 0.3709 -0.8425 -0.3907
vn 0.7655 -0.5234 0.3743
vn -0.9778 -0.0108 -0.2094
vn -0.3517 0.0382 0.9353
vn 0.0997 0.9939 -0.0462
vn 0.3498 -0.0716 -0.9341
vn 0.9778 0.0108 0.2094
vn -0.9410 0.2067 -0.2678
vn -0.3360 0.1478 0.9302
vn 0.3434 -0.1151 -0.9321
vn 0.9411 -0.2059 0.2682
vn 0.3342 -0.1714 -0.9268
vn -0.7671 0.5209 -0.3745
vn -0.3562 -0.0293 0.9339
vn -0.5380 -0.5784 0.6132
vn 0.5153 0.0325 -0.8564
vn 0.0356 -0.9887 -0.1458
vn -0.7680 -0.0661 -0.6370
vn 0.7714 0.0329 0.6355
vn -0.5153 -0.0325 0.8564
vn 0.5325 0.2547 -0.8072
vn -0.7812 0.0430 -0.6228
vn 0.7768 -0.0104 0.6297
vn -0.5330 -0.2540 0.8071
vn 0.7814 -0.0668 0.6204
vn 0.5390 0.5760 -0.6146
vn -0.7573 -0.1329 -0.6395
vn -0.1605 -0.2108 -0.9643
vn -0.0114 0.9942 -0.1069
vn 0.2161 0.0616 0.9744
vn -0.0101 0.9902 -0.1393
vn 0.1988 0.1081 0.9741
vn 0.0260 -0.9961 -0.0841
vn -0.1988 -0.1081 -0.9741
vn 0.9932 -0.0861 -0.0779
vn -0.0178 0.9998 0.0121
vn -0.9894 -0.0646 0.1303
vn 0.0147 0.9998 0.0162
vn -0.9934 -0.0179 0.1137
vn 0.2055 -0.9785 0.0192
vn -0.1271 -0.9888 0.0788
vn 0.6376 -0.2460 -0.7301
vn 0.1271 0.9888 -0.0788
vn -0.6181 0.0957 0.7802
vn 0.1529 0.9834 -0.0982
vn -0.6264 0.1427 0.7664
vn 0.0303 -0.9991 -0.0298
vn 0.6264 -0.1427 -0.7663
vn 0.2156 -0.9765 -0.0056
vn -0.3583 -0.1810 -0.9159
vn -0.2156 0.9765 0.0056
vn 0.4405 0.0456 0.8966
vn -0.2218 0.9747 -0.0264
vn 0.1816 -0.9641 -0.1937
vn -0.4155 -0.0876 -0.9053
vn 0.2494 0.4286 0.8684
vn -0.2802 -0.5585 -0.7808
vn -0.1452 0.8699 -0.4715
vn -0.2708 -0.5196 -0.8104
vn 0.1438 -0.7417 0.6552
vn 0.2707 0.5196 0.8104
vn 0.1582 -0.0232 0.9871
vn 0.0884 -0.0965 0.9914
vn -0.0878 0.0946 -0.9916
vn -0.0808 0.0768 -0.9938
vn -0.9355 0.1417 0.3237
vn 0.2832 0.9484 -0.1427
vn 0.8661 -0.3673 -0.3390
vn 0.2240 0.9660 -0.1294
vn 0.8872 -0.3155 -0.3367
vn -0.5007 -0.8462 0.1825
vn -0.8897 0.3123 0.3331
vn 0.0998 -0.9915 0.0833
vn 0.5513 0.0200 0.8341
vn -0.0998 0.9915 -0.0833
vn -0.5830 -0.1713 -0.7942
vn -0.0879 0.9947 -0.0531
vn 0.1607 -0.9520 0.2606
vn 0.5003 -0.5403 -0.6766
vn -0.4167 -0.0043 0.9090
vn 0.8374 -0.0212 0.5462
vn 0.0345 0.9955 -0.0878
vn -0.8385 -0.0122 -0.5448
vn 0.4167 0.0043 -0.9090
vn -0.4531 0.2166 0.8648
vn 0.8422 0.0886 0.5319
vn 0.4535 -0.2158 -0.8647
vn -0.8406 -0.1124 -0.5299
vn -0.4857 0.5704 0.6623
vn 0.7703 0.0375 0.6366
vn -0.1652 -0.9862 0.0090
vn -0.9876 0.0606 0.1449
vn 0.1652 0.9862 -0.0090
vn 0.9579 -0.2083 -0.1975
vn 0.1329 0.9911 -0.0108
vn 0.9699 -0.1630 -0.1810
vn -0.3494 -0.9369 -0.0094
vn -0.9699 0.1630 0.1811
vn -0.8011 -0.4831 -0.3533
vn 0.9819 -0.0599 0.1799
vn 0.3252 0.0263 -0.9453
vn -0.0493 0.9974 0.0533
vn -0.3250 -0.0597 0.9438
vn -0.9819 0.0599 -0.1799
vn 0.9576 0.1588 0.2403
vn 0.3151 0.1365 -0.9392
vn -0.9576 -0.1580 -0.2407
vn -0.3145 -0.1601 0.9356
vn 0.7851 0.5146 0.3447
vn 0.4317 0.0774 -0.8987
vt 0.125000 0.375000
vt 0.875000 0.375000
vt 0.375000 0.625000
vt 0.375000 0.375000
vt 0.625000 0.875000
vt 0.125000 0.875000
vt 0.875000 0.625000
vt 0.625000 0.625000
vt 0.625000 0.375000
vt 0.125000 0.625000
s 0
usemtl ruins_kr_column
f 2/1/1 4/1/1 1/1/1
f 5/2/2 3/2/2 2/2/2
f 5/2/3 8/2/3 6/2/3
f 9/3/4 8/3/4 7/3/4
f 11/4/5 10/4/5 9/4/5
f 13/2/6 12/2/6 11/2/6
f 15/1/7 14/1/7 13/1/7
f 17/3/8 16/3/8 15/3/8
f 19/1/9 18/1/9 17/1/9
f 19/2/10 22/2/10 20/2/10
f 23/2/11 22/2/11 21/2/11
f 25/3/12 24/3/12 23/3/12
f 25/4/13 28/4/13 26/4/13
f 29/2/14 28/2/14 27/2/14
f 31/1/15 30/1/15 29/1/15
f 1/3/16 32/3/16 31/3/16
f 33/5/17 50/5/17 49/5/17
f 34/5/18 51/5/18 50/5/18
f 36/5/19 51/5/19 35/5/19
f 36/5/20 53/5/20 52/5/20
f 38/5/21 53/5/21 37/5/21
f 39/5/22 54/5/22 38/5/22
f 39/5/23 56/5/23 55/5/23
f 41/5/24 56/5/24 40/5/24
f 42/5/25 57/5/25 41/5/25
f 42/5/26 59/5/26 58/5/26
f 44/5/27 59/5/27 43/5/27
f 45/5/28 60/5/28 44/5/28
f 46/5/29 61/5/29 45/5/29
f 46/5/30 63/5/30 62/5/30
f 47/5/31 64/5/31 63/5/31
f 33/5/32 64/5/32 48/5/32
f 87/6/33 83/6/33 95/6/33
f 27/7/34 110/7/34 111/7/34
f 206/5/34 194/5/34 198/5/34
f 34/5/35 65/5/35 66/5/35
f 35/5/36 66/5/36 67/5/36
f 35/5/37 68/5/37 36/5/37
f 37/5/38 68/5/38 69/5/38
f 37/5/39 70/5/39 38/5/39
f 38/5/40 71/5/40 39/5/40
f 40/5/41 71/5/41 72/5/41
f 41/5/42 72/5/42 73/5/42
f 41/5/43 74/5/43 42/5/43
f 43/5/44 74/5/44 75/5/44
f 44/5/45 75/5/45 76/5/45
f 44/5/46 77/5/46 45/5/46
f 45/5/47 78/5/47 46/5/47
f 46/5/48 79/5/48 47/5/48
f 48/5/49 79/5/49 80/5/49
f 33/5/50 80/5/50 65/5/50
f 65/6/1 82/6/1 66/6/1
f 66/6/2 83/6/2 67/6/2
f 67/6/3 84/6/3 68/6/3
f 68/6/4 85/6/4 69/6/4
f 69/6/5 86/6/5 70/6/5
f 70/6/6 87/6/6 71/6/6
f 71/6/7 88/6/7 72/6/7
f 72/6/8 89/6/8 73/6/8
f 73/6/9 90/6/9 74/6/9
f 74/6/10 91/6/10 75/6/10
f 75/6/11 92/6/11 76/6/11
f 76/6/12 93/6/12 77/6/12
f 77/6/13 94/6/13 78/6/13
f 78/6/14 95/6/14 79/6/14
f 80/6/15 95/6/15 96/6/15
f 80/6/16 81/6/16 65/6/16
f 103/7/34 11/7/34 102/7/34
f 3/5/51 113/5/51 4/5/51
f 3/5/52 115/5/52 114/5/52
f 8/5/53 115/5/53 6/5/53
f 10/5/54 116/5/54 8/5/54
f 12/5/55 117/5/55 10/5/55
f 12/5/56 119/5/56 118/5/56
f 16/5/57 119/5/57 14/5/57
f 18/5/58 120/5/58 16/5/58
f 20/5/59 121/5/59 18/5/59
f 20/5/60 123/5/60 122/5/60
f 24/5/61 123/5/61 22/5/61
f 24/5/62 125/5/62 124/5/62
f 28/5/63 125/5/63 26/5/63
f 28/5/64 127/5/64 126/5/64
f 30/5/65 128/5/65 127/5/65
f 4/5/66 128/5/66 32/5/66
f 129/5/67 146/5/67 145/5/67
f 131/5/68 146/5/68 130/5/68
f 131/5/69 148/5/69 147/5/69
f 132/5/70 149/5/70 148/5/70
f 134/5/71 149/5/71 133/5/71
f 135/5/72 150/5/72 134/5/72
f 136/5/73 151/5/73 135/5/73
f 136/5/74 153/5/74 152/5/74
f 137/5/75 154/5/75 153/5/75
f 138/5/76 155/5/76 154/5/76
f 139/5/77 156/5/77 155/5/77
f 141/5/78 156/5/78 140/5/78
f 141/5/79 158/5/79 157/5/79
f 143/5/80 158/5/80 142/5/80
f 143/5/81 160/5/81 159/5/81
f 129/5/82 160/5/82 144/5/82
f 162/5/33 145/5/33 146/5/33
f 153/5/33 154/5/33 169/5/33
f 162/5/1 177/5/1 161/5/1
f 163/5/2 178/5/2 162/5/2
f 164/5/3 179/5/3 163/5/3
f 165/5/4 180/5/4 164/5/4
f 166/5/5 181/5/5 165/5/5
f 167/5/6 182/5/6 166/5/6
f 168/5/7 183/5/7 167/5/7
f 169/5/8 184/5/8 168/5/8
f 170/5/9 185/5/9 169/5/9
f 171/5/10 186/5/10 170/5/10
f 172/5/11 187/5/11 171/5/11
f 173/5/12 188/5/12 172/5/12
f 174/5/13 189/5/13 173/5/13
f 175/5/14 190/5/14 174/5/14
f 176/5/15 191/5/15 175/5/15
f 161/5/16 192/5/16 176/5/16
f 177/5/83 194/5/83 193/5/83
f 178/5/84 195/5/84 194/5/84
f 179/5/85 196/5/85 195/5/85
f 181/5/86 196/5/86 180/5/86
f 182/5/87 197/5/87 181/5/87
f 183/5/88 198/5/88 182/5/88
f 184/5/89 199/5/89 183/5/89
f 184/5/90 201/5/90 200/5/90
f 185/5/91 202/5/91 201/5/91
f 187/5/92 202/5/92 186/5/92
f 187/5/93 204/5/93 203/5/93
f 189/5/94 204/5/94 188/5/94
f 189/5/95 206/5/95 205/5/95
f 191/5/96 206/5/96 190/5/96
f 191/5/97 208/5/97 207/5/97
f 192/5/98 193/5/98 208/5/98
f 49/7/99 210/7/99 209/7/99
f 97/7/100 210/7/100 98/7/100
f 50/7/101 211/7/101 210/7/101
f 98/7/102 211/7/102 99/7/102
f 52/7/103 211/7/103 51/7/103
f 99/7/104 212/7/104 100/7/104
f 53/7/105 212/7/105 52/7/105
f 101/7/106 212/7/106 213/7/106
f 54/7/107 213/7/107 53/7/107
f 102/7/108 213/7/108 214/7/108
f 54/7/109 215/7/109 214/7/109
f 103/7/110 214/7/110 215/7/110
f 56/7/111 215/7/111 55/7/111
f 104/7/112 215/7/112 216/7/112
f 57/7/113 216/7/113 56/7/113
f 104/7/114 217/7/114 105/7/114
f 57/7/115 218/7/115 217/7/115
f 105/7/116 218/7/116 106/7/116
f 58/7/117 219/7/117 218/7/117
f 106/7/118 219/7/118 107/7/118
f 59/7/119 220/7/119 219/7/119
f 108/7/120 219/7/120 220/7/120
f 61/7/121 220/7/121 60/7/121
f 108/7/122 221/7/122 109/7/122
f 61/7/123 222/7/123 221/7/123
f 109/7/124 222/7/124 110/7/124
f 63/7/125 222/7/125 62/7/125
f 110/7/126 223/7/126 111/7/126
f 63/7/127 224/7/127 223/7/127
f 112/7/128 223/7/128 224/7/128
f 49/7/129 224/7/129 64/7/129
f 112/7/130 209/7/130 97/7/130
f 113/2/131 226/2/131 225/2/131
f 130/2/132 225/2/132 226/2/132
f 115/2/133 226/2/133 114/2/133
f 130/2/134 227/2/134 131/2/134
f 116/2/135 227/2/135 115/2/135
f 132/2/136 227/2/136 228/2/136
f 116/2/137 229/2/137 228/2/137
f 133/2/138 228/2/138 229/2/138
f 118/2/139 229/2/139 117/2/139
f 134/2/140 229/2/140 230/2/140
f 119/2/141 230/2/141 118/2/141
f 135/2/142 230/2/142 231/2/142
f 120/2/143 231/2/143 119/2/143
f 135/2/144 232/2/144 136/2/144
f 120/2/145 233/2/145 232/2/145
f 136/2/146 233/2/146 137/2/146
f 121/2/147 234/2/147 233/2/147
f 138/2/148 233/2/148 234/2/148
f 122/2/149 235/2/149 234/2/149
f 138/2/150 235/2/150 139/2/150
f 124/2/151 235/2/151 123/2/151
f 139/2/152 236/2/152 140/2/152
f 125/2/153 236/2/153 124/2/153
f 140/2/154 237/2/154 141/2/154
f 125/2/155 238/2/155 237/2/155
f 142/2/156 237/2/156 238/2/156
f 127/2/157 238/2/157 126/2/157
f 143/2/158 238/2/158 239/2/158
f 128/2/159 239/2/159 127/2/159
f 143/2/160 240/2/160 144/2/160
f 128/2/161 225/2/161 240/2/161
f 144/2/162 225/2/162 129/2/162
f 256/3/163 255/3/163 252/3/163
f 249/2/164 254/2/164 250/2/164
f 245/4/165 253/4/165 241/4/165
f 246/4/166 254/4/166 242/4/166
f 244/4/167 251/4/167 250/4/167
f 248/4/168 249/4/168 243/4/168
f 251/3/169 252/3/169 248/3/169
f 249/4/170 250/4/170 243/4/170
f 250/4/171 248/4/171 243/4/171
f 252/4/172 241/4/172 249/4/172
f 255/3/173 256/3/173 246/3/173
f 254/4/174 253/4/174 242/4/174
f 253/4/175 246/4/175 242/4/175
f 254/4/176 247/4/176 244/4/176
f 272/3/177 271/3/177 268/3/177
f 265/2/178 270/2/178 266/2/178
f 261/4/179 269/4/179 257/4/179
f 262/4/180 270/4/180 258/4/180
f 260/4/181 267/4/181 266/4/181
f 264/4/182 265/4/182 259/4/182
f 267/3/183 268/3/183 264/3/183
f 265/4/184 266/4/184 259/4/184
f 266/4/185 264/4/185 259/4/185
f 268/4/186 257/4/186 265/4/186
f 271/3/187 272/3/187 262/3/187
f 270/4/188 269/4/188 258/4/188
f 269/4/189 262/4/189 258/4/189
f 270/4/190 263/4/190 260/4/190
f 288/3/191 287/3/191 284/3/191
f 281/2/192 286/2/192 282/2/192
f 277/4/193 285/4/193 273/4/193
f 278/4/194 286/4/194 274/4/194
f 276/4/195 283/4/195 282/4/195
f 280/4/196 281/4/196 275/4/196
f 283/3/197 284/3/197 280/3/197
f 281/4/198 282/4/198 275/4/198
f 282/4/199 280/4/199 275/4/199
f 284/4/200 273/4/200 281/4/200
f 287/3/201 288/3/201 278/3/201
f 286/4/202 285/4/202 274/4/202
f 285/4/203 278/4/203 274/4/203
f 286/4/204 279/4/204 276/4/204
f 304/3/163 303/3/163 300/3/163
f 297/8/164 302/8/164 298/8/164
f 293/7/165 301/7/165 289/7/165
f 294/7/166 302/7/166 290/7/166
f 292/7/167 299/7/167 298/7/167
f 296/7/168 297/7/168 291/7/168
f 299/3/169 300/3/169 296/3/169
f 297/8/170 298/8/170 291/8/170
f 298/7/171 296/7/171 291/7/171
f 300/7/172 289/7/172 297/7/172
f 303/3/173 304/3/173 294/3/173
f 302/7/174 301/7/174 290/7/174
f 301/7/175 294/7/175 290/7/175
f 302/7/176 295/7/176 292/7/176
f 309/3/205 320/3/205 310/3/205
f 308/7/206 315/7/206 313/7/206
f 305/7/207 310/7/207 306/7/207
f 313/7/208 311/7/208 308/7/208
f 308/7/209 312/7/209 307/7/209
f 319/7/210 309/7/210 305/7/210
f 314/3/211 311/3/211 316/3/211
f 313/7/212 319/7/212 317/7/212
f 313/7/213 320/7/213 316/7/213
f 315/7/214 312/7/214 314/7/214
f 318/3/215 316/3/215 320/3/215
f 318/7/216 315/7/216 314/7/216
f 317/1/217 305/1/217 306/1/217
f 317/7/218 310/7/218 320/7/218
f 325/3/219 336/3/219 326/3/219
f 324/7/220 331/7/220 329/7/220
f 321/7/221 326/7/221 322/7/221
f 329/7/222 327/7/222 324/7/222
f 324/7/223 328/7/223 323/7/223
f 335/7/224 325/7/224 321/7/224
f 330/3/225 327/3/225 332/3/225
f 329/7/226 335/7/226 333/7/226
f 329/7/227 336/7/227 332/7/227
f 331/7/228 328/7/228 330/7/228
f 334/3/229 332/3/229 336/3/229
f 334/7/230 331/7/230 330/7/230
f 333/1/231 321/1/231 322/1/231
f 333/7/232 326/7/232 336/7/232
f 352/3/233 351/3/233 348/3/233
f 345/1/234 350/1/234 346/1/234
f 341/1/235 349/1/235 337/1/235
f 342/4/236 350/4/236 338/4/236
f 340/1/237 347/1/237 346/1/237
f 344/4/238 345/4/238 339/4/238
f 347/3/239 348/3/239 344/3/239
f 345/2/240 346/2/240 339/2/240
f 346/4/241 344/4/241 339/4/241
f 348/4/242 337/4/242 345/4/242
f 351/3/243 352/3/243 342/3/243
f 350/1/244 349/1/244 338/1/244
f 349/4/245 342/4/245 338/4/245
f 350/4/246 343/4/246 340/4/246
f 368/9/247 367/9/247 364/9/247
f 361/9/248 366/9/248 362/9/248
f 357/9/249 365/9/249 353/9/249
f 358/9/250 366/9/250 354/9/250
f 356/9/251 363/9/251 362/9/251
f 360/9/252 361/9/252 355/9/252
f 363/9/253 364/9/253 360/9/253
f 361/9/254 362/9/254 355/9/254
f 362/9/255 360/9/255 355/9/255
f 364/9/256 353/9/256 361/9/256
f 367/9/257 368/9/257 358/9/257
f 366/9/258 365/9/258 354/9/258
f 365/9/259 358/9/259 354/9/259
f 366/9/260 359/9/260 356/9/260
f 384/10/261 383/10/261 380/10/261
f 377/10/262 382/10/262 378/10/262
f 373/10/263 381/10/263 369/10/263
f 374/10/264 382/10/264 370/10/264
f 372/10/265 379/10/265 378/10/265
f 376/10/266 377/10/266 371/10/266
f 379/10/267 380/10/267 376/10/267
f 377/10/268 378/10/268 371/10/268
f 378/10/269 376/10/269 371/10/269
f 380/10/270 369/10/270 377/10/270
f 383/10/271 384/10/271 374/10/271
f 382/10/272 381/10/272 370/10/272
f 381/10/273 374/10/273 370/10/273
f 382/10/274 375/10/274 372/10/274
f 400/9/275 399/9/275 396/9/275
f 393/9/276 398/9/276 394/9/276
f 389/9/277 397/9/277 385/9/277
f 390/9/278 398/9/278 386/9/278
f 388/9/279 395/9/279 394/9/279
f 392/9/280 393/9/280 387/9/280
f 395/9/281 396/9/281 392/9/281
f 393/9/282 394/9/282 387/9/282
f 394/9/283 392/9/283 387/9/283
f 396/9/284 385/9/284 393/9/284
f 399/9/285 400/9/285 390/9/285
f 398/9/286 397/9/286 386/9/286
f 397/9/287 390/9/287 386/9/287
f 398/9/288 391/9/288 388/9/288
f 416/9/289 415/9/289 412/9/289
f 409/9/290 414/9/290 410/9/290
f 405/9/291 413/9/291 401/9/291
f 406/9/292 414/9/292 402/9/292
f 404/9/293 411/9/293 410/9/293
f 408/9/294 409/9/294 403/9/294
f 411/9/295 412/9/295 408/9/295
f 409/9/296 410/9/296 403/9/296
f 410/9/297 408/9/297 403/9/297
f 412/9/298 401/9/298 409/9/298
f 415/9/299 416/9/299 406/9/299
f 414/9/300 413/9/300 402/9/300
f 413/9/301 406/9/301 402/9/301
f 414/9/302 407/9/302 404/9/302
f 423/9/303 432/9/303 428/9/303
f 420/9/304 426/9/304 425/9/304
f 417/9/305 431/9/305 429/9/305
f 422/9/306 430/9/306 418/9/306
f 423/9/307 426/9/307 420/9/307
f 424/9/308 425/9/308 419/9/308
f 427/9/309 428/9/309 424/9/309
f 425/9/310 426/9/310 419/9/310
f 426/9/311 424/9/311 419/9/311
f 425/9/312 421/9/312 417/9/312
f 431/9/313 432/9/313 422/9/313
f 430/9/314 429/9/314 418/9/314
f 429/9/315 422/9/315 418/9/315
f 432/9/316 420/9/316 430/9/316
f 448/7/317 447/7/317 444/7/317
f 441/7/318 446/7/318 442/7/318
f 437/7/319 445/7/319 433/7/319
f 438/7/320 446/7/320 434/7/320
f 436/7/321 443/7/321 442/7/321
f 440/7/322 441/7/322 435/7/322
f 443/7/323 444/7/323 440/7/323
f 441/7/324 442/7/324 435/7/324
f 442/7/325 440/7/325 435/7/325
f 444/7/326 433/7/326 441/7/326
f 447/7/327 448/7/327 438/7/327
f 446/7/328 445/7/328 434/7/328
f 445/7/329 438/7/329 434/7/329
f 446/7/330 439/7/330 436/7/330
f 453/10/331 464/10/331 454/10/331
f 452/10/332 459/10/332 457/10/332
f 449/10/333 454/10/333 450/10/333
f 457/10/334 455/10/334 452/10/334
f 452/10/335 456/10/335 451/10/335
f 463/10/336 453/10/336 449/10/336
f 458/10/337 455/10/337 460/10/337
f 457/10/338 463/10/338 461/10/338
f 457/10/339 464/10/339 460/10/339
f 459/10/340 456/10/340 458/10/340
f 462/10/341 460/10/341 464/10/341
f 462/10/342 459/10/342 458/10/342
f 461/10/343 449/10/343 450/10/343
f 461/10/344 454/10/344 464/10/344
f 480/9/345 479/9/345 476/9/345
f 473/9/346 478/9/346 474/9/346
f 469/9/347 477/9/347 465/9/347
f 470/9/348 478/9/348 466/9/348
f 468/9/349 475/9/349 474/9/349
f 472/9/350 473/9/350 467/9/350
f 475/9/351 476/9/351 472/9/351
f 473/9/352 474/9/352 467/9/352
f 474/9/353 472/9/353 467/9/353
f 476/9/354 465/9/354 473/9/354
f 479/9/355 480/9/355 470/9/355
f 478/9/356 477/9/356 466/9/356
f 477/9/357 470/9/357 466/9/357
f 478/9/358 471/9/358 468/9/358
f 485/10/359 496/10/359 486/10/359
f 484/10/360 491/10/360 489/10/360
f 481/10/361 486/10/361 482/10/361
f 489/10/362 487/10/362 484/10/362
f 484/10/363 488/10/363 483/10/363
f 495/10/364 485/10/364 481/10/364
f 490/10/365 487/10/365 492/10/365
f 489/10/366 495/10/366 493/10/366
f 489/10/367 496/10/367 492/10/367
f 491/10/368 488/10/368 490/10/368
f 494/10/369 492/10/369 496/10/369
f 494/10/370 491/10/370 490/10/370
f 493/10/371 481/10/371 482/10/371
f 493/10/372 486/10/372 496/10/372
f 2/1/1 3/1/1 4/1/1
f 5/2/2 6/2/2 3/2/2
f 5/2/3 7/2/3 8/2/3
f 9/3/4 10/3/4 8/3/4
f 11/4/5 12/4/5 10/4/5
f 13/2/6 14/2/6 12/2/6
f 15/1/7 16/1/7 14/1/7
f 17/3/8 18/3/8 16/3/8
f 19/1/9 20/1/9 18/1/9
f 19/2/10 21/2/10 22/2/10
f 23/2/11 24/2/11 22/2/11
f 25/3/12 26/3/12 24/3/12
f 25/4/13 27/4/13 28/4/13
f 29/2/14 30/2/14 28/2/14
f 31/1/15 32/1/15 30/1/15
f 1/3/16 4/3/16 32/3/16
f 33/5/17 34/5/17 50/5/17
f 34/5/373 35/5/373 51/5/373
f 36/5/374 52/5/374 51/5/374
f 36/5/375 37/5/375 53/5/375
f 38/5/376 54/5/376 53/5/376
f 39/5/377 55/5/377 54/5/377
f 39/5/378 40/5/378 56/5/378
f 41/5/379 57/5/379 56/5/379
f 42/5/380 58/5/380 57/5/380
f 42/5/381 43/5/381 59/5/381
f 44/5/27 60/5/27 59/5/27
f 45/5/382 61/5/382 60/5/382
f 46/5/383 62/5/383 61/5/383
f 46/5/384 47/5/384 63/5/384
f 47/5/385 48/5/385 64/5/385
f 33/5/386 49/5/386 64/5/386
f 95/6/33 94/6/33 93/6/33
f 93/6/33 92/6/33 91/6/33
f 91/6/33 90/6/33 89/6/33
f 89/6/33 88/6/33 91/6/33
f 88/6/33 87/6/33 91/6/33
f 87/6/33 86/6/33 85/6/33
f 85/6/33 84/6/33 83/6/33
f 83/6/33 82/6/33 95/6/33
f 82/6/33 81/6/33 95/6/33
f 81/6/33 96/6/33 95/6/33
f 95/6/33 93/6/33 87/6/33
f 93/6/33 91/6/33 87/6/33
f 87/6/33 85/6/33 83/6/33
f 101/7/34 102/7/34 11/7/34
f 101/7/34 11/7/34 9/7/34
f 13/7/34 103/7/34 104/7/34
f 15/7/34 13/7/34 104/7/34
f 100/7/34 101/7/34 9/7/34
f 100/7/34 9/7/34 7/7/34
f 15/7/34 104/7/34 17/7/34
f 104/7/34 105/7/34 17/7/34
f 99/7/34 100/7/34 7/7/34
f 99/7/34 7/7/34 5/7/34
f 17/7/34 105/7/34 19/7/34
f 105/7/34 106/7/34 19/7/34
f 98/7/34 99/7/34 2/7/34
f 99/7/34 5/7/34 2/7/34
f 19/7/34 106/7/34 107/7/34
f 21/7/34 19/7/34 107/7/34
f 97/7/34 98/7/34 2/7/34
f 97/7/34 2/7/34 1/7/34
f 21/7/34 107/7/34 108/7/34
f 23/7/34 21/7/34 108/7/34
f 112/7/34 97/7/34 1/7/34
f 112/7/34 1/7/34 31/7/34
f 23/7/34 108/7/34 109/7/34
f 25/7/34 23/7/34 109/7/34
f 111/7/34 112/7/34 29/7/34
f 112/7/34 31/7/34 29/7/34
f 25/7/34 109/7/34 27/7/34
f 109/7/34 110/7/34 27/7/34
f 111/7/34 29/7/34 27/7/34
f 206/5/34 207/5/34 208/5/34
f 208/5/34 193/5/34 206/5/34
f 193/5/34 194/5/34 206/5/34
f 194/5/34 195/5/34 196/5/34
f 196/5/34 197/5/34 198/5/34
f 198/5/34 199/5/34 200/5/34
f 200/5/34 201/5/34 198/5/34
f 201/5/34 202/5/34 203/5/34
f 198/5/34 201/5/34 203/5/34
f 203/5/34 204/5/34 205/5/34
f 205/5/34 206/5/34 198/5/34
f 194/5/34 196/5/34 198/5/34
f 203/5/34 205/5/34 198/5/34
f 34/5/35 33/5/35 65/5/35
f 35/5/36 34/5/36 66/5/36
f 35/5/387 67/5/387 68/5/387
f 37/5/388 36/5/388 68/5/388
f 37/5/39 69/5/39 70/5/39
f 38/5/389 70/5/389 71/5/389
f 40/5/390 39/5/390 71/5/390
f 41/5/42 40/5/42 72/5/42
f 41/5/391 73/5/391 74/5/391
f 43/5/392 42/5/392 74/5/392
f 44/5/45 43/5/45 75/5/45
f 44/5/46 76/5/46 77/5/46
f 45/5/393 77/5/393 78/5/393
f 46/5/48 78/5/48 79/5/48
f 48/5/394 47/5/394 79/5/394
f 33/5/50 48/5/50 80/5/50
f 65/6/1 81/6/1 82/6/1
f 66/6/2 82/6/2 83/6/2
f 67/6/3 83/6/3 84/6/3
f 68/6/4 84/6/4 85/6/4
f 69/6/5 85/6/5 86/6/5
f 70/6/6 86/6/6 87/6/6
f 71/6/7 87/6/7 88/6/7
f 72/6/8 88/6/8 89/6/8
f 73/6/9 89/6/9 90/6/9
f 74/6/10 90/6/10 91/6/10
f 75/6/11 91/6/11 92/6/11
f 76/6/12 92/6/12 93/6/12
f 77/6/13 93/6/13 94/6/13
f 78/6/14 94/6/14 95/6/14
f 80/6/15 79/6/15 95/6/15
f 80/6/16 96/6/16 81/6/16
f 103/7/34 13/7/34 11/7/34
f 3/5/51 114/5/51 113/5/51
f 3/5/395 6/5/395 115/5/395
f 8/5/53 116/5/53 115/5/53
f 10/5/54 117/5/54 116/5/54
f 12/5/55 118/5/55 117/5/55
f 12/5/56 14/5/56 119/5/56
f 16/5/57 120/5/57 119/5/57
f 18/5/396 121/5/396 120/5/396
f 20/5/59 122/5/59 121/5/59
f 20/5/60 22/5/60 123/5/60
f 24/5/61 124/5/61 123/5/61
f 24/5/62 26/5/62 125/5/62
f 28/5/397 126/5/397 125/5/397
f 28/5/64 30/5/64 127/5/64
f 30/5/65 32/5/65 128/5/65
f 4/5/66 113/5/66 128/5/66
f 129/5/398 130/5/398 146/5/398
f 131/5/399 147/5/399 146/5/399
f 131/5/400 132/5/400 148/5/400
f 132/5/70 133/5/70 149/5/70
f 134/5/71 150/5/71 149/5/71
f 135/5/72 151/5/72 150/5/72
f 136/5/401 152/5/401 151/5/401
f 136/5/74 137/5/74 153/5/74
f 137/5/402 138/5/402 154/5/402
f 138/5/76 139/5/76 155/5/76
f 139/5/77 140/5/77 156/5/77
f 141/5/403 157/5/403 156/5/403
f 141/5/404 142/5/404 158/5/404
f 143/5/80 159/5/80 158/5/80
f 143/5/81 144/5/81 160/5/81
f 129/5/405 145/5/405 160/5/405
f 149/5/33 150/5/33 166/5/33
f 166/5/33 165/5/33 149/5/33
f 165/5/33 164/5/33 149/5/33
f 164/5/33 163/5/33 147/5/33
f 163/5/33 162/5/33 147/5/33
f 162/5/33 161/5/33 145/5/33
f 161/5/33 176/5/33 145/5/33
f 176/5/33 175/5/33 159/5/33
f 175/5/33 174/5/33 159/5/33
f 174/5/33 173/5/33 157/5/33
f 174/5/33 157/5/33 158/5/33
f 148/5/33 149/5/33 164/5/33
f 174/5/33 158/5/33 159/5/33
f 147/5/33 148/5/33 164/5/33
f 176/5/33 159/5/33 160/5/33
f 176/5/33 160/5/33 145/5/33
f 146/5/33 147/5/33 162/5/33
f 156/5/33 157/5/33 173/5/33
f 173/5/33 172/5/33 156/5/33
f 172/5/33 171/5/33 156/5/33
f 171/5/33 170/5/33 154/5/33
f 170/5/33 169/5/33 154/5/33
f 169/5/33 168/5/33 152/5/33
f 168/5/33 167/5/33 152/5/33
f 167/5/33 166/5/33 150/5/33
f 167/5/33 150/5/33 151/5/33
f 155/5/33 156/5/33 171/5/33
f 167/5/33 151/5/33 152/5/33
f 154/5/33 155/5/33 171/5/33
f 169/5/33 152/5/33 153/5/33
f 162/5/1 178/5/1 177/5/1
f 163/5/2 179/5/2 178/5/2
f 164/5/3 180/5/3 179/5/3
f 165/5/4 181/5/4 180/5/4
f 166/5/5 182/5/5 181/5/5
f 167/5/6 183/5/6 182/5/6
f 168/5/7 184/5/7 183/5/7
f 169/5/8 185/5/8 184/5/8
f 170/5/9 186/5/9 185/5/9
f 171/5/10 187/5/10 186/5/10
f 172/5/11 188/5/11 187/5/11
f 173/5/12 189/5/12 188/5/12
f 174/5/13 190/5/13 189/5/13
f 175/5/14 191/5/14 190/5/14
f 176/5/15 192/5/15 191/5/15
f 161/5/16 177/5/16 192/5/16
f 177/5/83 178/5/83 194/5/83
f 178/5/84 179/5/84 195/5/84
f 179/5/85 180/5/85 196/5/85
f 181/5/86 197/5/86 196/5/86
f 182/5/87 198/5/87 197/5/87
f 183/5/88 199/5/88 198/5/88
f 184/5/406 200/5/406 199/5/406
f 184/5/90 185/5/90 201/5/90
f 185/5/91 186/5/91 202/5/91
f 187/5/92 203/5/92 202/5/92
f 187/5/407 188/5/407 204/5/407
f 189/5/408 205/5/408 204/5/408
f 189/5/95 190/5/95 206/5/95
f 191/5/96 207/5/96 206/5/96
f 191/5/97 192/5/97 208/5/97
f 192/5/98 177/5/98 193/5/98
f 49/7/409 50/7/409 210/7/409
f 97/7/410 209/7/410 210/7/410
f 50/7/411 51/7/411 211/7/411
f 98/7/102 210/7/102 211/7/102
f 52/7/412 212/7/412 211/7/412
f 99/7/413 211/7/413 212/7/413
f 53/7/105 213/7/105 212/7/105
f 101/7/106 100/7/106 212/7/106
f 54/7/414 214/7/414 213/7/414
f 102/7/415 101/7/415 213/7/415
f 54/7/416 55/7/416 215/7/416
f 103/7/110 102/7/110 214/7/110
f 56/7/111 216/7/111 215/7/111
f 104/7/417 103/7/417 215/7/417
f 57/7/418 217/7/418 216/7/418
f 104/7/419 216/7/419 217/7/419
f 57/7/420 58/7/420 218/7/420
f 105/7/421 217/7/421 218/7/421
f 58/7/422 59/7/422 219/7/422
f 106/7/423 218/7/423 219/7/423
f 59/7/424 60/7/424 220/7/424
f 108/7/425 107/7/425 219/7/425
f 61/7/426 221/7/426 220/7/426
f 108/7/122 220/7/122 221/7/122
f 61/7/427 62/7/427 222/7/427
f 109/7/124 221/7/124 222/7/124
f 63/7/428 223/7/428 222/7/428
f 110/7/429 222/7/429 223/7/429
f 63/7/430 64/7/430 224/7/430
f 112/7/431 111/7/431 223/7/431
f 49/7/432 209/7/432 224/7/432
f 112/7/433 224/7/433 209/7/433
f 113/2/131 114/2/131 226/2/131
f 130/2/434 129/2/434 225/2/434
f 115/2/133 227/2/133 226/2/133
f 130/2/435 226/2/435 227/2/435
f 116/2/135 228/2/135 227/2/135
f 132/2/436 131/2/436 227/2/436
f 116/2/137 117/2/137 229/2/137
f 133/2/437 132/2/437 228/2/437
f 118/2/139 230/2/139 229/2/139
f 134/2/438 133/2/438 229/2/438
f 119/2/141 231/2/141 230/2/141
f 135/2/142 134/2/142 230/2/142
f 120/2/143 232/2/143 231/2/143
f 135/2/439 231/2/439 232/2/439
f 120/2/145 121/2/145 233/2/145
f 136/2/146 232/2/146 233/2/146
f 121/2/147 122/2/147 234/2/147
f 138/2/440 137/2/440 233/2/440
f 122/2/149 123/2/149 235/2/149
f 138/2/150 234/2/150 235/2/150
f 124/2/151 236/2/151 235/2/151
f 139/2/152 235/2/152 236/2/152
f 125/2/441 237/2/441 236/2/441
f 140/2/442 236/2/442 237/2/442
f 125/2/443 126/2/443 238/2/443
f 142/2/444 141/2/444 237/2/444
f 127/2/157 239/2/157 238/2/157
f 143/2/158 142/2/158 238/2/158
f 128/2/159 240/2/159 239/2/159
f 143/2/160 239/2/160 240/2/160
f 128/2/161 113/2/161 225/2/161
f 144/2/445 240/2/445 225/2/445
f 255/3/163 245/3/163 252/3/163
f 252/3/163 251/3/163 256/3/163
f 251/3/163 247/3/163 256/3/163
f 249/2/164 241/2/164 253/2/164
f 253/2/164 254/2/164 249/2/164
f 254/2/164 244/2/164 250/2/164
f 245/4/446 255/4/446 253/4/446
f 246/4/447 256/4/447 254/4/447
f 244/4/448 247/4/448 251/4/448
f 248/4/449 252/4/449 249/4/449
f 250/4/450 251/4/450 248/4/450
f 252/4/172 245/4/172 241/4/172
f 253/4/451 255/4/451 246/4/451
f 254/4/452 256/4/452 247/4/452
f 271/3/177 261/3/177 268/3/177
f 268/3/177 267/3/177 272/3/177
f 267/3/177 263/3/177 272/3/177
f 265/2/178 257/2/178 269/2/178
f 269/2/178 270/2/178 265/2/178
f 270/2/178 260/2/178 266/2/178
f 261/4/453 271/4/453 269/4/453
f 262/4/454 272/4/454 270/4/454
f 260/4/455 263/4/455 267/4/455
f 264/4/456 268/4/456 265/4/456
f 266/4/457 267/4/457 264/4/457
f 268/4/458 261/4/458 257/4/458
f 269/4/459 271/4/459 262/4/459
f 270/4/190 272/4/190 263/4/190
f 287/3/460 277/3/460 284/3/460
f 284/3/460 283/3/460 288/3/460
f 283/3/191 279/3/191 288/3/191
f 281/2/461 273/2/461 285/2/461
f 285/2/192 286/2/192 281/2/192
f 286/2/192 276/2/192 282/2/192
f 277/4/462 287/4/462 285/4/462
f 278/4/463 288/4/463 286/4/463
f 276/4/464 279/4/464 283/4/464
f 280/4/465 284/4/465 281/4/465
f 282/4/466 283/4/466 280/4/466
f 284/4/200 277/4/200 273/4/200
f 285/4/467 287/4/467 278/4/467
f 286/4/204 288/4/204 279/4/204
f 303/3/163 293/3/163 300/3/163
f 300/3/163 299/3/163 304/3/163
f 299/3/163 295/3/163 304/3/163
f 297/8/164 289/8/164 301/8/164
f 301/8/164 302/8/164 297/8/164
f 302/8/164 292/8/164 298/8/164
f 293/7/446 303/7/446 301/7/446
f 294/7/447 304/7/447 302/7/447
f 292/7/448 295/7/448 299/7/448
f 296/7/449 300/7/449 297/7/449
f 298/7/450 299/7/450 296/7/450
f 300/7/172 293/7/172 289/7/172
f 301/7/451 303/7/451 294/7/451
f 302/7/452 304/7/452 295/7/452
f 309/3/468 318/3/468 320/3/468
f 308/7/469 307/7/469 315/7/469
f 305/7/207 309/7/207 310/7/207
f 313/7/470 316/7/470 311/7/470
f 308/7/471 311/7/471 312/7/471
f 319/7/472 318/7/472 309/7/472
f 314/3/473 312/3/473 311/3/473
f 313/7/474 315/7/474 319/7/474
f 313/7/475 317/7/475 320/7/475
f 315/7/476 307/7/476 312/7/476
f 318/3/477 314/3/477 316/3/477
f 318/7/478 319/7/478 315/7/478
f 317/1/479 319/1/479 305/1/479
f 317/7/480 306/7/480 310/7/480
f 325/3/481 334/3/481 336/3/481
f 324/7/482 323/7/482 331/7/482
f 321/7/483 325/7/483 326/7/483
f 329/7/484 332/7/484 327/7/484
f 324/7/223 327/7/223 328/7/223
f 335/7/485 334/7/485 325/7/485
f 330/3/486 328/3/486 327/3/486
f 329/7/487 331/7/487 335/7/487
f 329/7/488 333/7/488 336/7/488
f 331/7/489 323/7/489 328/7/489
f 334/3/490 330/3/490 332/3/490
f 334/7/491 335/7/491 331/7/491
f 333/1/492 335/1/492 321/1/492
f 333/7/493 322/7/493 326/7/493
f 351/3/233 341/3/233 348/3/233
f 348/3/233 347/3/233 352/3/233
f 347/3/233 343/3/233 352/3/233
f 345/1/234 337/1/234 349/1/234
f 349/1/234 350/1/234 345/1/234
f 350/1/234 340/1/234 346/1/234
f 341/1/235 351/1/235 349/1/235
f 342/4/494 352/4/494 350/4/494
f 340/1/495 343/1/495 347/1/495
f 344/4/496 348/4/496 345/4/496
f 346/4/497 347/4/497 344/4/497
f 348/4/498 341/4/498 337/4/498
f 349/4/499 351/4/499 342/4/499
f 350/4/500 352/4/500 343/4/500
f 367/9/247 357/9/247 364/9/247
f 364/9/247 363/9/247 368/9/247
f 363/9/247 359/9/247 368/9/247
f 361/9/248 353/9/248 365/9/248
f 365/9/248 366/9/248 361/9/248
f 366/9/248 356/9/248 362/9/248
f 357/9/249 367/9/249 365/9/249
f 358/9/501 368/9/501 366/9/501
f 356/9/502 359/9/502 363/9/502
f 360/9/503 364/9/503 361/9/503
f 362/9/504 363/9/504 360/9/504
f 364/9/505 357/9/505 353/9/505
f 365/9/506 367/9/506 358/9/506
f 366/9/260 368/9/260 359/9/260
f 383/10/261 373/10/261 380/10/261
f 380/10/261 379/10/261 384/10/261
f 379/10/261 375/10/261 384/10/261
f 377/10/262 369/10/262 381/10/262
f 381/10/262 382/10/262 377/10/262
f 382/10/262 372/10/262 378/10/262
f 373/10/507 383/10/507 381/10/507
f 374/10/508 384/10/508 382/10/508
f 372/10/509 375/10/509 379/10/509
f 376/10/510 380/10/510 377/10/510
f 378/10/511 379/10/511 376/10/511
f 380/10/512 373/10/512 369/10/512
f 381/10/513 383/10/513 374/10/513
f 382/10/514 384/10/514 375/10/514
f 399/9/275 389/9/275 396/9/275
f 396/9/275 395/9/275 400/9/275
f 395/9/275 391/9/275 400/9/275
f 393/9/276 385/9/276 397/9/276
f 397/9/276 398/9/276 393/9/276
f 398/9/276 388/9/276 394/9/276
f 389/9/515 399/9/515 397/9/515
f 390/9/516 400/9/516 398/9/516
f 388/9/517 391/9/517 395/9/517
f 392/9/518 396/9/518 393/9/518
f 394/9/519 395/9/519 392/9/519
f 396/9/284 389/9/284 385/9/284
f 397/9/520 399/9/520 390/9/520
f 398/9/521 400/9/521 391/9/521
f 415/9/289 405/9/289 412/9/289
f 412/9/289 411/9/289 416/9/289
f 411/9/289 407/9/289 416/9/289
f 409/9/290 401/9/290 413/9/290
f 413/9/290 414/9/290 409/9/290
f 414/9/290 404/9/290 410/9/290
f 405/9/291 415/9/291 413/9/291
f 406/9/522 416/9/522 414/9/522
f 404/9/293 407/9/293 411/9/293
f 408/9/523 412/9/523 409/9/523
f 410/9/524 411/9/524 408/9/524
f 412/9/525 405/9/525 401/9/525
f 413/9/526 415/9/526 406/9/526
f 414/9/527 416/9/527 407/9/527
f 431/9/528 421/9/528 432/9/528
f 421/9/529 428/9/529 432/9/529
f 428/9/528 427/9/528 423/9/528
f 425/9/530 417/9/530 430/9/530
f 417/9/304 429/9/304 430/9/304
f 430/9/531 420/9/531 425/9/531
f 417/9/305 421/9/305 431/9/305
f 422/9/532 432/9/532 430/9/532
f 423/9/533 427/9/533 426/9/533
f 424/9/534 428/9/534 425/9/534
f 426/9/535 427/9/535 424/9/535
f 425/9/536 428/9/536 421/9/536
f 429/9/537 431/9/537 422/9/537
f 432/9/538 423/9/538 420/9/538
f 447/7/317 437/7/317 444/7/317
f 444/7/317 443/7/317 448/7/317
f 443/7/317 439/7/317 448/7/317
f 441/7/318 433/7/318 445/7/318
f 445/7/318 446/7/318 441/7/318
f 446/7/318 436/7/318 442/7/318
f 437/7/539 447/7/539 445/7/539
f 438/7/540 448/7/540 446/7/540
f 436/7/541 439/7/541 443/7/541
f 440/7/542 444/7/542 441/7/542
f 442/7/543 443/7/543 440/7/543
f 444/7/326 437/7/326 433/7/326
f 445/7/544 447/7/544 438/7/544
f 446/7/330 448/7/330 439/7/330
f 453/10/545 462/10/545 464/10/545
f 452/10/546 451/10/546 459/10/546
f 449/10/333 453/10/333 454/10/333
f 457/10/547 460/10/547 455/10/547
f 452/10/548 455/10/548 456/10/548
f 463/10/549 462/10/549 453/10/549
f 458/10/550 456/10/550 455/10/550
f 457/10/551 459/10/551 463/10/551
f 457/10/552 461/10/552 464/10/552
f 459/10/340 451/10/340 456/10/340
f 462/10/553 458/10/553 460/10/553
f 462/10/554 463/10/554 459/10/554
f 461/10/555 463/10/555 449/10/555
f 461/10/556 450/10/556 454/10/556
f 479/9/345 469/9/345 476/9/345
f 476/9/345 475/9/345 480/9/345
f 475/9/345 471/9/345 480/9/345
f 473/9/346 465/9/346 477/9/346
f 477/9/346 478/9/346 473/9/346
f 478/9/346 468/9/346 474/9/346
f 469/9/557 479/9/557 477/9/557
f 470/9/558 480/9/558 478/9/558
f 468/9/559 471/9/559 475/9/559
f 472/9/560 476/9/560 473/9/560
f 474/9/561 475/9/561 472/9/561
f 476/9/562 469/9/562 465/9/562
f 477/9/563 479/9/563 470/9/563
f 478/9/564 480/9/564 471/9/564
f 485/10/565 494/10/565 496/10/565
f 484/10/566 483/10/566 491/10/566
f 481/10/361 485/10/361 486/10/361
f 489/10/567 492/10/567 487/10/567
f 484/10/568 487/10/568 488/10/568
f 495/10/569 494/10/569 485/10/569
f 490/10/570 488/10/570 487/10/570
f 489/10/571 491/10/571 495/10/571
f 489/10/572 493/10/572 496/10/572
f 491/10/368 483/10/368 488/10/368
f 494/10/573 490/10/573 492/10/573
f 494/10/574 495/10/574 491/10/574
f 493/10/575 495/10/575 481/10/575
f 493/10/576 482/10/576 486/10/576
