# Blender 5.2.2 LTS
# www.blender.org
mtllib ruins_tg_floor_b.mtl
o piece
v 2.462568 -2.462568 0.099738
v 2.500001 -2.500000 0.099738
v 2.422257 -2.422258 0.102478
v 1.131586 -1.160528 0.102478
v 1.162150 -1.132325 0.102478
v 1.131586 -2.421373 0.102478
v 1.131586 -2.462568 0.099738
v 0.349305 -2.306329 0.107072
v 0.290974 -2.078470 0.107072
v 0.385541 -2.421374 0.107072
v 0.385541 -2.462569 0.099738
v 0.334724 -2.249362 0.107072
v 0.318806 -2.265667 0.092404
v 0.332697 -2.322632 0.092404
v 1.131586 -2.078470 0.102478
v 1.703303 -1.746868 0.102478
v 1.749311 -1.704417 0.102478
v 0.301911 -2.121194 0.107072
v 1.131586 -2.121192 0.102478
v 1.739036 -1.783515 0.102478
v 1.786008 -1.740173 0.102478
v 1.169550 -2.100088 0.102478
v 1.169550 -2.421373 0.102478
v 1.082368 -1.110051 0.102478
v 1.113154 -1.083783 0.102478
v 2.421372 -1.131587 0.102478
v 2.462568 -1.131587 0.099738
v 2.306327 -0.349304 0.107072
v 2.462568 -0.385542 0.099738
v 2.249360 -0.334723 0.107072
v 2.265666 -0.318808 0.092404
v 2.322633 -0.332697 0.092404
v 2.078467 -1.131587 0.102478
v 2.121192 -0.301911 0.107072
v 2.121192 -1.131587 0.102478
v 2.100086 -1.169552 0.102478
v 2.421372 -1.169552 0.102478
v 2.421372 -0.439639 0.106738
v 2.121192 -0.353368 0.106787
v 0.361616 -2.121192 0.106741
v 0.449158 -2.421374 0.106680
v 2.462568 2.462569 0.099738
v 2.500001 2.500000 0.099738
v 2.422257 2.422258 0.102478
v 1.160529 1.131587 0.102478
v 1.132325 1.162150 0.102478
v 2.421372 1.131587 0.102478
v 2.462568 1.131587 0.099738
v 2.306327 0.349304 0.107072
v 2.078467 0.290976 0.107072
v 2.421372 0.385542 0.107072
v 2.462568 0.385542 0.099738
v 2.249360 0.334723 0.107072
v 2.265666 0.318808 0.092404
v 2.322633 0.332698 0.092404
v 2.078467 1.131587 0.102478
v 1.746870 1.703305 0.102478
v 1.704417 1.749312 0.102478
v 2.121192 0.301912 0.107072
v 2.121192 1.131587 0.102478
v 1.783515 1.739037 0.102478
v 1.740174 1.786010 0.102478
v 2.100086 1.169553 0.102478
v 2.421372 1.169553 0.102478
v 1.110050 1.082368 0.102478
v 1.083784 1.113153 0.102478
v 1.131586 2.421373 0.102478
v 1.131586 2.462569 0.099738
v 0.349305 2.306328 0.107071
v 0.290974 2.078470 0.107072
v 0.385541 2.421373 0.107071
v 0.385541 2.462569 0.099738
v 0.334724 2.249362 0.107071
v 0.318806 2.265666 0.092404
v 0.332697 2.322632 0.092404
v 1.131586 2.078470 0.102478
v 0.301911 2.121193 0.107072
v 1.131586 2.121193 0.102478
v 1.169550 2.100088 0.102478
v 1.169550 2.421373 0.102478
v 0.439637 2.421373 0.106738
v 0.353367 2.121193 0.106787
v 2.121192 0.361615 0.106741
v 2.421372 0.449158 0.106680
v -2.462569 2.462568 0.099738
v -2.500001 2.500000 0.099738
v -2.422259 2.422257 0.102478
v -1.131588 1.160528 0.102478
v -1.162151 1.132325 0.102478
v -1.161340 -0.000000 0.102478
v -1.131588 2.421372 0.102478
v -1.131588 2.462568 0.099738
v -0.349303 2.306328 0.107071
v -0.385543 2.462569 0.099738
v -0.334722 2.249362 0.107071
v -0.318810 2.265666 0.092404
v -0.332699 2.322632 0.092404
v -1.131588 2.078469 0.102478
v -1.703307 1.746868 0.102478
v -1.749313 1.704417 0.102478
v -0.301913 2.121193 0.107072
v -1.131588 2.121192 0.102478
v -1.739038 1.783515 0.102478
v -1.786010 1.740173 0.102478
v -1.169555 2.100088 0.102478
v -1.169555 2.421372 0.102478
v -1.082369 1.110050 0.102478
v -1.113152 1.083783 0.102478
v -2.421374 1.131587 0.102478
v -2.462569 1.131587 0.099738
v -2.306329 0.349304 0.107072
v -2.462569 0.385542 0.099738
v -2.249363 0.334723 0.107072
v -2.265667 0.318808 0.092404
v -2.322633 0.332697 0.092404
v -2.078471 1.131587 0.102478
v -2.121194 0.301911 0.107072
v -2.121194 1.131587 0.102478
v -2.100089 1.169552 0.102478
v -2.421374 1.169552 0.102478
v -2.421374 0.439639 0.106738
v -2.121194 0.353367 0.106787
v -0.361614 2.121191 0.106741
v -0.449157 2.421373 0.106680
v -1.113152 0.428382 0.102478
v -2.462569 -2.462569 0.099738
v -2.500001 -2.500000 0.099738
v -2.422259 -2.422259 0.102478
v -1.160528 -1.131588 0.102478
v -1.132326 -1.162151 0.102478
v -2.421374 -1.131588 0.102478
v -2.462569 -1.131588 0.099738
v -2.500001 -1.131588 0.099738
v -2.306329 -0.349304 0.107072
v -2.078471 -0.290976 0.107072
v -2.421374 -0.385543 0.107072
v -2.462569 -0.385543 0.099738
v -2.249363 -0.334723 0.107072
v -2.265667 -0.318808 0.092404
v -2.322633 -0.332699 0.092404
v -2.078471 -1.131588 0.102478
v -1.746868 -1.703305 0.102478
v -1.704418 -1.749313 0.102478
v -2.121194 -0.301913 0.107072
v -2.121194 -1.131588 0.102478
v -1.783517 -1.739037 0.102478
v -1.740173 -1.786010 0.102478
v -2.100089 -1.169553 0.102478
v -2.421374 -1.169553 0.102478
v -1.110052 -1.082369 0.102478
v -1.083782 -1.113153 0.102478
v -1.131588 -2.421374 0.102478
v -1.131588 -2.462569 0.099738
v -1.131588 -2.500000 0.099738
v -0.349303 -2.306329 0.107072
v -0.385543 -2.462569 0.099738
v -0.334722 -2.249362 0.107072
v -0.318810 -2.265667 0.092404
v -0.332699 -2.322632 0.092404
v -1.131588 -2.078470 0.102478
v -0.301913 -2.121194 0.107072
v -1.131588 -2.121194 0.102478
v -1.169555 -2.100089 0.102478
v -1.169555 -2.421374 0.102478
v -0.439641 -2.421374 0.106739
v -0.353368 -2.121194 0.106787
v -2.121192 -0.361615 0.106741
v -2.421374 -0.449158 0.106680
v 2.500001 -2.500000 -0.107071
v 2.500001 2.500000 -0.107072
v -2.500001 2.500000 -0.107072
v -2.500001 -2.500000 -0.107071
vn -0.0000 -0.0664 0.9978
vn 0.0055 0.0014 1.0000
vn -0.0000 -0.1662 0.9861
vn -0.5746 -0.1401 0.8064
vn -0.0000 -0.0062 1.0000
vn -0.0000 -0.0000 1.0000
vn 0.0663 -0.0000 0.9978
vn -0.0055 -0.0014 1.0000
vn 0.1492 0.5831 0.7986
vn 0.0062 -0.0000 1.0000
vn -0.6688 -0.0000 -0.7435
vn 0.6688 -0.0000 0.7435
vn 0.0664 -0.0061 0.9978
vn 0.1753 0.0061 0.9845
vn 0.0664 -0.0000 0.9978
vn 0.1662 -0.0000 0.9861
vn 0.1401 -0.5746 0.8063
vn -0.0000 0.0663 0.9978
vn -0.0005 0.1669 0.9860
vn -0.5830 0.1492 0.7986
vn -0.0000 -0.6688 -0.7434
vn -0.0000 0.6688 0.7434
vn 0.0061 0.0664 0.9978
vn -0.1680 0.0004 0.9858
vn -0.0000 0.0664 0.9978
vn -0.0000 0.1662 0.9861
vn 0.5747 0.1401 0.8063
vn -0.0663 -0.0000 0.9978
vn -0.1493 -0.5831 0.7986
vn -0.0014 0.0055 1.0000
vn 0.6688 -0.0000 -0.7434
vn -0.6688 -0.0000 0.7434
vn -1.0000 -0.0000 -0.0000
vn -0.0664 0.0061 0.9978
vn -0.0000 -0.1753 0.9845
vn -0.0664 -0.0000 0.9978
vn 0.0014 -0.0055 1.0000
vn -0.1662 -0.0000 0.9861
vn -0.1401 0.5746 0.8063
vn 0.0050 -0.0000 1.0000
vn -0.0000 -0.0663 0.9978
vn -0.0062 -0.0000 1.0000
vn 0.5831 -0.1493 0.7985
vn -0.0000 0.6688 -0.7434
vn -0.0000 -0.6688 0.7434
vn -0.0000 0.0062 1.0000
vn -0.0061 -0.0664 0.9978
vn 0.0055 -0.0000 1.0000
vn -0.0000 -1.0000 -0.0000
vn 1.0000 -0.0000 -0.0000
vn -0.0000 1.0000 -0.0000
vn -0.0000 -0.0000 -1.0000
vn -0.0000 -0.0678 0.9977
vn 0.0061 -0.0664 0.9978
vn -0.5830 -0.1492 0.7986
vn -0.0014 -0.0055 1.0000
vn -0.0032 -0.0000 1.0000
vn -0.0000 0.0050 1.0000
vn 0.0678 -0.0000 0.9977
vn 0.1401 0.5746 0.8063
vn 0.0055 -0.0014 1.0000
vn 0.1675 -0.0000 0.9859
vn 0.1680 -0.0004 0.9858
vn 0.1753 -0.0000 0.9845
vn 0.0664 0.0061 0.9978
vn 0.1492 -0.5831 0.7986
vn -0.0000 -0.0032 1.0000
vn -0.0000 0.0055 1.0000
vn -0.0050 -0.0000 1.0000
vn -0.0000 0.0678 0.9977
vn -0.0026 0.0004 1.0000
vn 0.0014 0.0055 1.0000
vn 0.0766 0.0055 0.9970
vn 0.0420 0.0032 0.9991
vn -0.0055 -0.0000 1.0000
vn -0.0005 0.0030 1.0000
vn -0.0056 -0.0014 1.0000
vn -0.0032 -0.0416 0.9991
vn -0.0055 -0.0766 0.9970
vn 0.0055 0.0013 1.0000
vn 0.0062 0.0019 1.0000
vn 0.0056 0.0014 1.0000
vn -0.0000 -0.0055 1.0000
vn 0.0026 -0.0004 1.0000
vn -0.0766 -0.0055 0.9970
vn -0.0420 -0.0032 0.9991
vn 0.0061 0.1753 0.9845
vn -0.0000 0.1753 0.9845
vn -0.5746 0.1401 0.8064
vn -0.0000 0.1675 0.9859
vn -0.1753 -0.0000 0.9845
vn -0.1753 -0.0061 0.9845
vn -0.0061 0.0664 0.9978
vn 0.5831 0.1493 0.7985
vn -0.0678 -0.0000 0.9977
vn -0.1401 -0.5746 0.8063
vn -0.0019 0.0062 1.0000
vn -0.0014 0.0056 1.0000
vn -0.0013 0.0055 1.0000
vn -0.1675 -0.0000 0.9859
vn 0.0061 -0.1753 0.9845
vn -0.0004 -0.1680 0.9858
vn -0.0032 0.0420 0.9991
vn -0.0055 0.0766 0.9970
vn 0.0013 -0.0055 1.0000
vn 0.0019 -0.0062 1.0000
vn -0.0004 -0.0026 1.0000
vn -0.0055 0.0014 1.0000
vn 0.0014 -0.0056 1.0000
vn -0.0664 -0.0061 0.9978
vn -0.1492 0.5831 0.7986
vn 0.0040 0.0032 1.0000
vn -0.0000 -0.0050 1.0000
vn 0.5747 -0.1401 0.8063
vn -0.0000 -0.1675 0.9859
vn 0.0062 -0.0019 1.0000
vn 0.0055 -0.0013 1.0000
vt 0.375000 0.625000
vt 0.625000 0.625000
vt 0.125000 0.125000
vt 0.125000 0.625000
vt 0.625000 0.875000
s 0
usemtl ruins_tg_floor_b
f 23/1/1 6/1/1 7/1/1
f 41/2/2 19/2/2 40/2/2
f 7/1/3 41/1/3 11/1/3
f 8/1/4 13/1/4 14/1/4
f 38/2/5 35/2/5 26/2/5
f 20/2/6 22/2/6 23/2/6
f 103/2/6 105/2/6 106/2/6
f 130/2/6 143/2/6 160/2/6
f 27/1/7 37/1/7 3/1/7
f 124/2/8 102/2/8 123/2/8
f 128/2/6 147/2/6 146/2/6
f 28/1/9 31/1/9 30/1/9
f 81/2/10 78/2/10 67/2/10
f 32/1/11 49/1/11 55/1/11
f 32/3/6 54/3/6 31/3/6
f 30/1/12 54/1/12 53/1/12
f 34/1/6 53/1/6 59/1/6
f 27/1/13 38/1/13 26/1/13
f 52/1/14 84/1/14 51/1/14
f 107/1/6 108/1/6 125/1/6
f 64/1/15 47/1/15 48/1/15
f 48/1/16 84/1/16 52/1/16
f 49/1/17 54/1/17 55/1/17
f 5/2/6 17/2/6 33/2/6
f 42/4/6 48/4/6 43/4/6
f 68/1/18 80/1/18 44/1/18
f 17/4/6 21/4/6 36/4/6
f 94/1/19 124/1/19 71/1/19
f 69/1/20 74/1/20 73/1/20
f 62/2/6 61/2/6 44/2/6
f 75/1/21 93/1/21 97/1/21
f 74/3/6 97/3/6 96/3/6
f 74/1/22 95/1/22 73/1/22
f 77/1/6 95/1/6 101/1/6
f 68/1/23 81/1/23 67/1/23
f 136/1/24 121/1/24 112/1/24
f 106/1/25 91/1/25 92/1/25
f 92/1/26 124/1/26 94/1/26
f 93/1/27 96/1/27 97/1/27
f 110/1/28 120/1/28 87/1/28
f 111/1/29 114/1/29 113/1/29
f 83/4/30 59/4/30 53/4/30
f 115/1/31 134/1/31 140/1/31
f 115/3/6 139/3/6 114/3/6
f 114/1/32 138/1/32 113/1/32
f 117/1/6 138/1/6 144/1/6
f 172/5/33 127/5/33 133/5/33
f 110/1/34 121/1/34 109/1/34
f 11/1/35 10/1/35 156/1/35
f 143/4/6 142/4/6 146/4/6
f 149/1/36 131/1/36 132/1/36
f 168/2/37 145/2/37 167/2/37
f 132/1/38 168/1/38 137/1/38
f 134/1/39 139/1/39 140/1/39
f 126/4/6 133/4/6 127/4/6
f 129/2/40 90/2/40 135/2/40
f 84/2/30 60/2/30 83/2/30
f 153/1/41 164/1/41 128/1/41
f 165/2/42 162/2/42 152/2/42
f 46/2/6 58/2/6 76/2/6
f 155/1/43 158/1/43 157/1/43
f 14/1/44 155/1/44 8/1/44
f 13/3/6 159/3/6 14/3/6
f 157/1/45 13/1/45 12/1/45
f 18/1/6 157/1/6 12/1/6
f 121/2/46 118/2/46 109/2/46
f 153/1/47 165/1/47 152/1/47
f 76/4/48 78/4/48 82/4/48
f 154/5/49 172/5/49 169/5/49
f 169/5/50 43/5/50 2/5/50
f 170/5/51 86/5/51 43/5/51
f 172/5/52 170/5/52 169/5/52
f 7/1/53 1/1/53 3/1/53
f 3/1/41 23/1/41 7/1/41
f 41/2/10 6/2/10 19/2/10
f 7/1/54 6/1/54 41/1/54
f 8/1/55 12/1/55 13/1/55
f 38/2/56 39/2/56 35/2/56
f 23/2/6 3/2/6 20/2/6
f 3/2/6 37/2/6 21/2/6
f 20/2/6 3/2/6 21/2/6
f 37/2/6 36/2/6 21/2/6
f 106/2/6 87/2/6 103/2/6
f 87/2/6 120/2/6 104/2/6
f 103/2/6 87/2/6 104/2/6
f 120/2/6 119/2/6 104/2/6
f 160/2/57 9/2/57 130/2/57
f 9/2/48 15/2/48 4/2/48
f 15/2/6 16/2/6 4/2/6
f 4/2/58 130/2/58 9/2/58
f 3/1/59 1/1/59 27/1/59
f 27/1/15 26/1/15 37/1/15
f 124/2/42 91/2/42 102/2/42
f 128/2/6 164/2/6 147/2/6
f 164/2/6 163/2/6 147/2/6
f 148/2/6 149/2/6 146/2/6
f 149/2/6 128/2/6 146/2/6
f 28/1/60 32/1/60 31/1/60
f 81/2/61 82/2/61 78/2/61
f 32/1/11 28/1/11 49/1/11
f 32/3/6 55/3/6 54/3/6
f 30/1/12 31/1/12 54/1/12
f 34/1/6 30/1/6 53/1/6
f 27/1/62 29/1/62 38/1/62
f 38/1/63 29/1/63 51/1/63
f 29/1/64 52/1/64 51/1/64
f 125/1/6 150/1/6 151/1/6
f 151/1/6 24/1/6 125/1/6
f 24/1/6 25/1/6 125/1/6
f 25/1/6 65/1/6 125/1/6
f 65/1/6 66/1/6 125/1/6
f 66/1/6 107/1/6 125/1/6
f 48/1/59 42/1/59 44/1/59
f 44/1/7 64/1/7 48/1/7
f 48/1/65 47/1/65 84/1/65
f 49/1/66 53/1/66 54/1/66
f 33/2/67 50/2/67 5/2/67
f 50/2/68 56/2/68 45/2/68
f 56/2/6 57/2/6 45/2/6
f 45/2/69 5/2/69 50/2/69
f 85/4/6 92/4/6 86/4/6
f 92/4/6 94/4/6 86/4/6
f 133/4/6 132/4/6 137/4/6
f 153/4/6 154/4/6 156/4/6
f 154/4/6 2/4/6 11/4/6
f 156/4/6 154/4/6 11/4/6
f 86/4/6 133/4/6 112/4/6
f 133/4/6 137/4/6 112/4/6
f 1/4/6 7/4/6 2/4/6
f 7/4/6 11/4/6 2/4/6
f 86/4/6 112/4/6 110/4/6
f 86/4/6 110/4/6 85/4/6
f 1/4/6 2/4/6 27/4/6
f 2/4/6 43/4/6 29/4/6
f 27/4/6 2/4/6 29/4/6
f 43/4/6 86/4/6 94/4/6
f 52/4/6 29/4/6 43/4/6
f 43/4/6 94/4/6 72/4/6
f 72/4/6 68/4/6 43/4/6
f 68/4/6 42/4/6 43/4/6
f 48/4/6 52/4/6 43/4/6
f 44/1/70 42/1/70 68/1/70
f 68/1/25 67/1/25 80/1/25
f 121/4/71 136/4/71 111/4/71
f 136/4/6 134/4/6 111/4/6
f 122/4/72 121/4/72 111/4/72
f 122/4/72 111/4/72 113/4/72
f 120/4/6 109/4/6 118/4/6
f 122/4/72 113/4/72 117/4/72
f 119/4/6 120/4/6 118/4/6
f 119/4/6 118/4/6 116/4/6
f 118/4/68 122/4/68 116/4/68
f 103/4/6 104/4/6 100/4/6
f 104/4/6 119/4/6 100/4/6
f 91/4/6 106/4/6 102/4/6
f 106/4/6 105/4/6 102/4/6
f 122/4/73 117/4/73 135/4/73
f 116/4/74 122/4/74 135/4/74
f 117/4/6 144/4/6 135/4/6
f 123/4/75 102/4/75 98/4/75
f 102/4/6 105/4/6 98/4/6
f 119/4/6 116/4/6 100/4/6
f 69/4/6 71/4/6 93/4/6
f 71/4/76 124/4/76 93/4/76
f 93/4/77 124/4/77 123/4/77
f 95/4/8 93/4/8 123/4/8
f 89/4/6 90/4/6 125/4/6
f 103/4/6 100/4/6 99/4/6
f 100/4/6 89/4/6 99/4/6
f 101/4/8 95/4/8 123/4/8
f 70/4/6 77/4/6 101/4/6
f 98/4/78 70/4/78 123/4/78
f 70/4/79 101/4/79 123/4/79
f 89/4/6 125/4/6 108/4/6
f 89/4/6 108/4/6 88/4/6
f 108/4/6 107/4/6 88/4/6
f 99/4/6 98/4/6 105/4/6
f 107/4/6 66/4/6 88/4/6
f 99/4/6 105/4/6 103/4/6
f 88/4/6 99/4/6 89/4/6
f 46/4/6 88/4/6 66/4/6
f 78/4/6 76/4/6 79/4/6
f 76/4/6 58/4/6 79/4/6
f 46/4/6 66/4/6 45/4/6
f 66/4/6 65/4/6 45/4/6
f 58/4/6 46/4/6 57/4/6
f 80/4/6 67/4/6 78/4/6
f 61/4/6 62/4/6 58/4/6
f 62/4/6 79/4/6 58/4/6
f 79/4/6 80/4/6 78/4/6
f 47/4/6 64/4/6 60/4/6
f 64/4/6 63/4/6 60/4/6
f 57/4/6 56/4/6 63/4/6
f 56/4/6 60/4/6 63/4/6
f 24/4/6 151/4/6 4/4/6
f 151/4/6 130/4/6 4/4/6
f 25/4/6 24/4/6 4/4/6
f 25/4/6 4/4/6 5/4/6
f 4/4/6 16/4/6 5/4/6
f 61/4/6 58/4/6 57/4/6
f 46/4/6 45/4/6 57/4/6
f 15/4/80 9/4/80 40/4/80
f 9/4/2 18/4/2 40/4/2
f 12/4/2 8/4/2 40/4/2
f 8/4/81 10/4/81 41/4/81
f 57/4/6 63/4/6 61/4/6
f 18/4/2 12/4/2 40/4/2
f 8/4/82 41/4/82 40/4/82
f 19/4/6 6/4/6 23/4/6
f 19/4/6 23/4/6 22/4/6
f 40/4/48 19/4/48 15/4/48
f 19/4/6 22/4/6 15/4/6
f 22/4/6 20/4/6 16/4/6
f 20/4/6 21/4/6 17/4/6
f 16/4/6 20/4/6 17/4/6
f 36/4/6 37/4/6 35/4/6
f 37/4/6 26/4/6 35/4/6
f 16/4/6 15/4/6 22/4/6
f 36/4/6 35/4/6 33/4/6
f 35/4/83 39/4/83 33/4/83
f 5/4/6 45/4/6 25/4/6
f 45/4/6 65/4/6 25/4/6
f 38/4/84 51/4/84 28/4/84
f 51/4/6 49/4/6 28/4/6
f 39/4/56 38/4/56 28/4/56
f 39/4/56 28/4/56 30/4/56
f 39/4/56 30/4/56 34/4/56
f 34/4/6 59/4/6 50/4/6
f 34/4/85 50/4/85 39/4/85
f 50/4/86 33/4/86 39/4/86
f 5/4/6 16/4/6 17/4/6
f 33/4/6 17/4/6 36/4/6
f 81/1/87 72/1/87 71/1/87
f 72/1/88 94/1/88 71/1/88
f 69/1/89 75/1/89 74/1/89
f 61/2/6 63/2/6 64/2/6
f 64/2/6 44/2/6 61/2/6
f 44/2/6 80/2/6 62/2/6
f 80/2/6 79/2/6 62/2/6
f 75/1/21 69/1/21 93/1/21
f 74/3/6 75/3/6 97/3/6
f 74/1/22 96/1/22 95/1/22
f 77/1/6 73/1/6 95/1/6
f 68/1/90 72/1/90 81/1/90
f 112/1/91 137/1/91 136/1/91
f 137/1/92 168/1/92 136/1/92
f 92/1/70 85/1/70 87/1/70
f 87/1/18 106/1/18 92/1/18
f 92/1/93 91/1/93 124/1/93
f 93/1/94 95/1/94 96/1/94
f 87/1/95 85/1/95 110/1/95
f 110/1/36 109/1/36 120/1/36
f 111/1/96 115/1/96 114/1/96
f 51/4/97 84/4/97 49/4/97
f 84/4/98 83/4/98 49/4/98
f 49/4/30 83/4/30 53/4/30
f 83/4/68 60/4/68 56/4/68
f 56/4/99 50/4/99 83/4/99
f 50/4/30 59/4/30 83/4/30
f 115/1/31 111/1/31 134/1/31
f 115/3/6 140/3/6 139/3/6
f 114/1/32 139/1/32 138/1/32
f 117/1/6 113/1/6 138/1/6
f 133/5/33 86/5/33 171/5/33
f 171/5/33 172/5/33 133/5/33
f 110/1/100 112/1/100 121/1/100
f 41/1/101 10/1/101 11/1/101
f 10/1/102 165/1/102 156/1/102
f 130/4/6 151/4/6 129/4/6
f 151/4/6 150/4/6 129/4/6
f 150/4/6 125/4/6 90/4/6
f 150/4/6 90/4/6 129/4/6
f 143/4/6 130/4/6 142/4/6
f 18/4/6 9/4/6 161/4/6
f 9/4/103 160/4/103 166/4/103
f 161/4/104 9/4/104 166/4/104
f 130/4/6 129/4/6 142/4/6
f 141/4/105 135/4/105 167/4/105
f 135/4/37 144/4/37 167/4/37
f 138/4/37 134/4/37 167/4/37
f 134/4/106 136/4/106 168/4/106
f 10/4/6 8/4/6 155/4/6
f 164/4/6 152/4/6 162/4/6
f 146/4/6 147/4/6 143/4/6
f 147/4/6 163/4/6 143/4/6
f 163/4/6 164/4/6 162/4/6
f 163/4/6 162/4/6 160/4/6
f 162/4/75 166/4/75 160/4/75
f 131/4/6 149/4/6 145/4/6
f 149/4/6 148/4/6 145/4/6
f 165/4/107 10/4/107 155/4/107
f 165/4/108 155/4/108 166/4/108
f 155/4/108 157/4/108 166/4/108
f 144/4/37 138/4/37 167/4/37
f 134/4/109 168/4/109 167/4/109
f 167/4/83 145/4/83 141/4/83
f 145/4/6 148/4/6 141/4/6
f 166/4/108 157/4/108 161/4/108
f 163/4/6 160/4/6 143/4/6
f 142/4/6 141/4/6 148/4/6
f 142/4/6 148/4/6 146/4/6
f 132/1/95 126/1/95 128/1/95
f 128/1/28 149/1/28 132/1/28
f 168/2/5 131/2/5 145/2/5
f 132/1/110 131/1/110 168/1/110
f 134/1/111 138/1/111 139/1/111
f 154/4/6 153/4/6 126/4/6
f 126/4/6 132/4/6 133/4/6
f 127/4/6 154/4/6 126/4/6
f 90/2/6 89/2/6 116/2/6
f 89/2/6 100/2/6 116/2/6
f 116/2/112 135/2/112 90/2/112
f 135/2/83 141/2/83 129/2/83
f 141/2/6 142/2/6 129/2/6
f 84/2/46 47/2/46 60/2/46
f 128/1/53 126/1/53 153/1/53
f 153/1/1 152/1/1 164/1/1
f 165/2/108 166/2/108 162/2/108
f 76/2/48 70/2/48 46/2/48
f 70/2/57 98/2/57 88/2/57
f 98/2/6 99/2/6 88/2/6
f 88/2/113 46/2/113 70/2/113
f 155/1/114 159/1/114 158/1/114
f 14/1/44 159/1/44 155/1/44
f 13/3/6 158/3/6 159/3/6
f 157/1/45 158/1/45 13/1/45
f 18/1/6 161/1/6 157/1/6
f 121/2/72 122/2/72 118/2/72
f 153/1/115 156/1/115 165/1/115
f 82/4/61 81/4/61 69/4/61
f 81/4/116 71/4/116 69/4/116
f 82/4/61 69/4/61 73/4/61
f 73/4/61 77/4/61 82/4/61
f 77/4/61 70/4/61 82/4/61
f 70/4/117 76/4/117 82/4/117
f 169/5/49 2/5/49 154/5/49
f 154/5/49 127/5/49 172/5/49
f 169/5/50 170/5/50 43/5/50
f 170/5/51 171/5/51 86/5/51
f 172/5/52 171/5/52 170/5/52
