# Blender 5.2.2 LTS
# www.blender.org
mtllib ruins_find_ash_salvage.mtl
o piece
v -0.496308 -0.174355 0.310042
v -0.482997 -0.186954 0.310042
v -0.482997 -0.174355 0.323720
v 0.482993 -0.186954 0.310042
v 0.496303 -0.174355 0.310042
v 0.482993 -0.174355 0.323720
v -0.482997 0.052444 0.323720
v 0.496303 0.052444 0.310042
v 0.482993 0.052444 0.323720
v -0.483987 0.052320 -0.341995
v -0.496108 0.052208 -0.325669
v 0.484497 0.052177 -0.341879
v -0.482997 -0.186954 -0.328231
v -0.496675 -0.173971 -0.327721
v 0.496545 -0.173517 -0.329290
v 0.482993 -0.186954 -0.328231
v 0.481294 -0.174779 -0.341682
v -0.475320 -0.065139 0.323731
v 0.482993 -0.060955 0.323720
v 0.496303 -0.063065 0.300077
v -0.480367 -0.174824 -0.341239
v -0.496308 -0.069824 0.299613
v 0.470290 -0.005932 0.323720
v 0.496303 -0.004255 0.310042
v 0.495986 0.052212 -0.324989
v -0.496308 0.052272 0.312270
v -0.415402 -0.186954 -0.328231
v 0.415399 -0.186954 -0.328231
v 0.415399 -0.186954 0.310042
v -0.415402 -0.186954 0.310042
v -0.415402 -0.174355 0.323720
v 0.415399 -0.174355 0.323720
v -0.415402 -0.174355 -0.341908
v 0.415399 -0.174355 -0.341908
v 0.415399 -0.060955 0.323720
v -0.415402 -0.060955 0.323720
v 0.415399 -0.060955 -0.341908
v -0.415402 -0.060955 -0.341908
v 0.382400 -0.004255 0.323720
v -0.382407 -0.004255 0.323720
v -0.382407 -0.004255 -0.341908
v -0.401860 -0.197760 -0.332446
v 0.401856 -0.197760 -0.332446
v 0.401856 -0.197760 0.314260
v -0.401860 -0.197760 0.314260
v -0.401860 -0.178935 0.334167
v 0.401856 -0.178935 0.334167
v -0.401860 -0.178935 -0.352355
v 0.401856 -0.178935 -0.352355
v 0.401856 -0.060955 0.336171
v -0.401860 -0.060955 0.336171
v 0.401856 -0.060955 -0.354360
v -0.401860 -0.060955 -0.354360
v 0.369939 -0.013468 0.336171
v -0.369943 -0.013468 0.336171
v 0.369939 -0.013468 -0.354360
v -0.369943 -0.013468 -0.354360
v -0.456658 0.052444 0.298463
v -0.469243 0.052444 0.285821
v -0.463414 0.052444 -0.313750
v 0.463409 0.052444 0.295562
v 0.466317 0.052444 -0.310837
v -0.463414 -0.152135 0.295562
v -0.469243 -0.152135 -0.304009
v 0.466317 -0.152135 0.292649
v -0.456658 -0.152135 -0.316651
v 0.463409 -0.152135 -0.313750
v 0.382400 -0.004256 -0.341908
v 0.270312 0.009671 0.343244
v 0.326554 0.009671 0.343244
v 0.270312 0.045516 0.343244
v 0.326554 0.045516 0.343244
v 0.270312 0.045516 0.323720
v 0.326554 0.045516 0.323720
v 0.270312 0.009671 0.323720
v 0.326554 0.009671 0.323720
v -0.504588 -0.092305 0.108935
v -0.530551 -0.090913 0.108935
v -0.505853 -0.115899 0.127778
v -0.531858 -0.115276 0.127719
v -0.504588 -0.092305 0.138583
v -0.530551 -0.090913 0.138583
v -0.496284 0.000022 0.108935
v -0.522246 0.001414 0.108935
v -0.494981 0.024323 0.138583
v -0.520944 0.025716 0.138583
v -0.496284 0.000021 0.038095
v -0.522246 0.001414 0.038095
v -0.520944 0.025715 0.038095
v -0.494981 0.024323 0.038095
v -0.504588 -0.092305 -0.127124
v -0.530551 -0.090913 -0.127124
v -0.504588 -0.092305 -0.156772
v -0.530551 -0.090913 -0.156772
v -0.531906 -0.116160 -0.145245
v -0.505961 -0.117905 -0.143901
v -0.496284 0.000021 -0.127124
v -0.522246 0.001414 -0.127124
v -0.494979 0.024323 -0.156772
v -0.520944 0.025715 -0.156772
v -0.496284 0.000021 -0.056306
v -0.522246 0.001414 -0.056306
v -0.520944 0.025715 -0.056306
v -0.494979 0.024323 -0.056306
v -0.482306 -0.049679 -0.062224
v -0.526357 -0.049679 -0.062224
v -0.482306 0.038903 -0.062224
v -0.540006 0.038903 -0.062860
v -0.482306 0.038903 0.044015
v -0.540006 0.038903 0.043380
v -0.482306 -0.049679 0.044015
v -0.526357 -0.049679 0.044015
v 0.504586 -0.092305 -0.127124
v 0.530549 -0.090913 -0.127124
v 0.505851 -0.115899 -0.145966
v 0.531856 -0.115276 -0.145908
v 0.504586 -0.092305 -0.156772
v 0.530549 -0.090913 -0.156772
v 0.496282 0.000021 -0.127124
v 0.522244 0.001414 -0.127124
v 0.494979 0.024323 -0.156772
v 0.520942 0.025715 -0.156772
v 0.496282 0.000021 -0.056283
v 0.522244 0.001414 -0.056283
v 0.520942 0.025715 -0.056283
v 0.494979 0.024323 -0.056283
v 0.504586 -0.092305 0.108935
v 0.530549 -0.090913 0.108935
v 0.504586 -0.092305 0.138583
v 0.530549 -0.090913 0.138583
v 0.531904 -0.116160 0.127056
v 0.505959 -0.117905 0.125713
v 0.496282 0.000022 0.108935
v 0.522244 0.001414 0.108935
v 0.494977 0.024323 0.138583
v 0.520942 0.025716 0.138583
v 0.496282 0.000021 0.038116
v 0.522244 0.001414 0.038116
v 0.520942 0.025715 0.038116
v 0.494977 0.024323 0.038116
v 0.482305 -0.049679 0.044036
v 0.526355 -0.049679 0.044036
v 0.482305 0.038903 0.044036
v 0.540006 0.038903 0.044669
v 0.482305 0.038903 -0.062205
v 0.540006 0.038903 -0.061570
v 0.482305 -0.049679 -0.062205
v 0.526355 -0.049679 -0.062205
v -0.324515 0.009671 0.343244
v -0.268273 0.009671 0.343244
v -0.324515 0.045516 0.343244
v -0.268273 0.045516 0.343244
v -0.324515 0.045516 0.323720
v -0.268273 0.045516 0.323720
v -0.324515 0.009671 0.323720
v -0.268273 0.009671 0.323720
v -0.318864 0.037760 0.358825
v -0.273925 0.037760 0.358825
v -0.318864 0.109863 0.358825
v -0.273925 0.109863 0.358825
v -0.318864 0.136573 0.340636
v -0.273925 0.136573 0.340636
v -0.318864 0.037760 0.340636
v -0.273925 0.037760 0.340636
v 0.275964 0.037760 0.358825
v 0.320903 0.037760 0.358825
v 0.275964 0.109863 0.358825
v 0.320903 0.109863 0.358825
v 0.275964 0.136573 0.340636
v 0.320903 0.136573 0.340636
v 0.275964 0.037760 0.340636
v 0.320903 0.037760 0.340636
v -0.485730 0.087166 -0.332091
v -0.485730 0.167929 -0.332091
v -0.344811 0.167929 -0.332091
v -0.250724 0.167929 -0.332091
v -0.344811 0.087166 -0.332091
v -0.250724 0.087166 -0.332091
v -0.047044 0.167929 -0.332091
v -0.047044 0.087166 -0.332091
v -0.335080 0.197760 -0.343200
v -0.260455 0.197760 -0.343200
v -0.038867 0.197760 -0.343200
v -0.485730 0.048393 -0.332091
v -0.260455 0.075789 -0.358825
v -0.335080 0.075789 -0.358825
v -0.038867 0.075789 -0.358825
v -0.507152 0.048393 -0.358502
v -0.507152 0.075789 -0.358502
v -0.335080 0.182162 -0.358825
v -0.260455 0.182162 -0.358825
v -0.038867 0.182162 -0.358825
v -0.036269 0.197505 0.325798
v -0.485592 0.048312 0.313967
v -0.506646 0.048213 0.340307
v -0.502795 0.071937 0.107223
v -0.486566 0.086654 0.314139
v -0.475419 0.167929 -0.227317
v -0.331995 0.197425 0.326133
v -0.268699 0.197760 -0.165833
v 0.485728 0.167929 -0.332091
v 0.344810 0.167929 -0.332091
v 0.344810 0.087166 -0.332091
v 0.250722 0.087166 -0.332091
v 0.047040 0.167929 -0.332091
v 0.047040 0.087166 -0.332091
v 0.335078 0.197760 -0.343200
v 0.260453 0.197760 -0.343200
v 0.038865 0.197760 -0.343200
v 0.260453 0.075789 -0.358825
v 0.335078 0.075789 -0.358825
v 0.038865 0.075789 -0.358825
v 0.505883 0.076286 -0.358285
v 0.335078 0.182162 -0.358825
v 0.260453 0.182162 -0.358825
v 0.038865 0.182162 -0.358825
v 0.025224 0.197760 -0.192855
v 0.485728 0.048393 -0.332091
v 0.507598 0.048413 -0.358490
v 0.487965 0.086472 -0.332160
v 0.467984 0.167929 -0.018788
v 0.337186 0.167929 0.072785
v 0.327455 0.197760 0.072785
v 0.270064 0.197760 -0.099151
v 0.250722 0.167929 -0.332091
v 0.485728 0.087166 0.313903
v 0.485728 0.167929 0.313903
v 0.344810 0.167929 0.313903
v 0.250722 0.167929 0.313903
v 0.344810 0.087166 0.313903
v 0.250722 0.087166 0.313903
v 0.047042 0.167929 0.313903
v 0.047042 0.087166 0.313903
v 0.335076 0.197760 0.325011
v 0.260453 0.197760 0.325011
v 0.038865 0.197760 0.325011
v 0.485728 0.048393 0.313903
v 0.260453 0.075789 0.340636
v 0.335076 0.075789 0.340636
v 0.038865 0.075789 0.340636
v 0.507148 0.048393 0.340314
v 0.507148 0.075789 0.340314
v 0.335076 0.182162 0.340636
v 0.260453 0.182162 0.340636
v 0.038865 0.182162 0.340636
v -0.485730 0.167929 0.313903
v -0.344811 0.167929 0.313903
v -0.250724 0.167929 0.313903
v -0.344811 0.087166 0.313903
v -0.250724 0.087166 0.313903
v -0.047044 0.167929 0.313903
v -0.047044 0.087166 0.313903
v -0.260455 0.197760 0.325009
v -0.260455 0.075789 0.340636
v -0.335080 0.075789 0.340636
v -0.038867 0.075789 0.340636
v -0.507152 0.075789 0.340314
v -0.335080 0.182162 0.340636
v -0.260455 0.182162 0.340636
v -0.038867 0.182162 0.340636
v -0.458650 0.089077 0.281491
v -0.458705 0.089166 -0.299611
v 0.458680 0.089202 -0.299582
v 0.458680 0.089202 0.281392
vn -0.0000 -1.0000 -0.0000
vn 0.0001 0.0001 1.0000
vn 1.0000 -0.0000 -0.0005
vn -0.6874 -0.7263 -0.0000
vn -0.0000 -0.7266 0.6871
vn 0.6874 -0.7262 -0.0007
vn 0.4681 -0.1019 0.8778
vn -0.0000 -0.7266 -0.6870
vn -0.5713 -0.6037 0.5560
vn 0.5714 -0.6036 0.5560
vn -0.5486 -0.5533 -0.6268
vn 0.5380 -0.5901 -0.6020
vn -0.0000 -0.0170 0.9999
vn 0.8714 -0.0000 0.4905
vn -0.0000 -0.0170 -0.9999
vn -1.0000 0.0001 0.0006
vn -0.7590 0.0646 0.6479
vn -0.0000 -0.0000 1.0000
vn 0.4575 0.1056 0.8829
vn 1.0000 0.0025 -0.0000
vn 0.6310 -0.0096 -0.7757
vn -0.0000 -0.0000 -1.0000
vn -0.8029 0.0074 -0.5960
vn -1.0000 -0.0000 -0.0003
vn -0.7459 -0.0687 0.6625
vn -0.0000 -0.7355 0.6775
vn -0.0000 -0.7314 -0.6820
vn -0.0025 -0.7415 -0.6709
vn 0.0002 -0.0000 1.0000
vn 0.0034 -0.0000 -1.0000
vn 0.0002 -0.0001 1.0000
vn 0.0002 0.0001 -1.0000
vn -0.0043 -0.0034 -1.0000
vn 0.6237 -0.7817 -0.0000
vn -0.6237 -0.7816 -0.0000
vn -0.6129 -0.5741 0.5429
vn 0.6237 -0.5749 0.5296
vn -0.6236 -0.5750 -0.5296
vn 0.6129 -0.5741 -0.5429
vn 0.6136 -0.0134 0.7895
vn -0.6768 -0.0000 0.7361
vn 0.6768 -0.0000 -0.7361
vn -0.6136 -0.0134 -0.7895
vn 0.6297 0.3665 0.6849
vn -0.0000 0.8039 0.5948
vn -0.5201 0.3496 0.7793
vn -0.0000 0.8039 -0.5948
vn 0.5202 0.3496 -0.7792
vn -0.6297 0.3665 -0.6849
vn -0.0000 1.0000 -0.0000
vn -0.0072 1.0000 -0.0001
vn 0.0002 1.0000 -0.0004
vn 0.0001 1.0000 -0.0085
vn -0.0099 0.9999 -0.0036
vn 0.0052 1.0000 -0.0056
vn -0.0032 0.0143 -0.9999
vn 0.9996 -0.0280 0.0097
vn -0.9999 -0.0141 -0.0048
vn -0.0031 -0.0142 0.9999
vn 0.7086 -0.0134 -0.7054
vn 1.0000 -0.0000 -0.0000
vn -1.0000 -0.0000 -0.0000
vn -0.0120 -0.4158 0.9094
vn -0.9986 0.0536 -0.0000
vn 0.9963 -0.0821 0.0235
vn -0.9960 0.0896 -0.0000
vn -0.0536 -0.9986 -0.0000
vn -0.9986 0.0535 -0.0000
vn 0.0536 0.9986 -0.0000
vn 0.9986 -0.0535 -0.0000
vn -0.0240 -0.9997 0.0074
vn -0.0222 -0.4142 -0.9099
vn 0.9960 -0.0896 -0.0000
vn -0.9963 0.0821 0.0235
vn 0.0535 0.9986 -0.0000
vn 0.9986 -0.0536 -0.0000
vn -0.9883 -0.1523 -0.0000
vn 0.0120 -0.4158 -0.9094
vn 0.9986 0.0536 -0.0000
vn -0.9963 -0.0821 -0.0235
vn 0.9960 0.0896 -0.0000
vn 0.0536 -0.9986 -0.0000
vn 0.9986 0.0535 -0.0000
vn -0.0536 0.9986 -0.0000
vn -0.9986 -0.0535 -0.0000
vn 0.0240 -0.9997 -0.0074
vn 0.0222 -0.4142 0.9099
vn -0.9960 -0.0896 -0.0000
vn 0.9963 0.0821 -0.0235
vn -0.0535 0.9986 -0.0000
vn -0.9986 -0.0536 -0.0000
vn 0.9883 -0.1523 -0.0000
vn -0.0000 0.5628 0.8266
vn -0.9952 -0.0000 0.0979
vn -0.9502 0.3117 0.0045
vn -0.9641 0.2657 0.0038
vn -0.0000 -0.0118 -0.9999
vn -0.9637 0.2667 0.0112
vn -0.0019 -0.0000 -1.0000
vn -0.6698 0.7425 -0.0003
vn 0.0003 -1.0000 -0.0003
vn -0.0007 0.9186 -0.3951
vn -0.0000 0.9201 -0.3916
vn 0.9397 -0.0000 -0.3421
vn -0.9397 -0.0000 -0.3421
vn -0.9479 0.2254 -0.2250
vn -0.0000 0.7077 -0.7065
vn 0.9479 0.2254 -0.2250
vn -0.9563 -0.0000 -0.2925
vn -0.9624 0.1923 -0.1920
vn 0.9505 0.3101 0.0179
vn -0.0000 -0.0122 -0.9999
vn 0.0031 0.0075 -1.0000
vn 0.0043 0.9196 -0.3929
vn 0.9563 -0.0000 -0.2924
vn 0.9624 0.1923 -0.1919
vn 0.9986 -0.0000 -0.0533
vn 0.9471 0.3197 -0.0286
vn -0.8391 0.5441 -0.0000
vn 0.9617 0.2730 -0.0253
vn -0.0000 -0.0118 0.9999
vn 0.9981 0.0614 -0.0018
vn 0.0019 -0.0000 1.0000
vn 0.4950 0.8689 0.0008
vn 0.0007 0.9186 0.3951
vn -0.0000 0.9201 0.3916
vn -0.9397 -0.0000 0.3421
vn 0.9397 -0.0000 0.3421
vn 0.9479 0.2255 0.2251
vn -0.0000 0.7077 0.7065
vn -0.9479 0.2254 0.2250
vn 0.9563 -0.0000 0.2925
vn 0.9624 0.1923 0.1920
vn 0.0001 -1.0000 -0.0002
vn 0.8565 0.5161 -0.0000
vn -0.0000 -0.0120 0.9999
vn -0.9997 -0.0183 -0.0184
vn -0.0019 -0.0003 1.0000
vn -0.0027 0.9198 0.3924
vn 0.0001 -1.0000 -0.0001
vn -0.9279 0.3377 0.1580
vn 0.0082 0.6880 0.7257
vn 0.9479 0.2254 0.2250
vn -0.9563 -0.0000 0.2925
vn -0.9472 0.2908 0.1349
vn 0.8342 -0.5515 -0.0002
vn -0.0000 -0.6231 0.7822
vn -0.8335 -0.5525 -0.0000
vn -0.0000 -0.6231 -0.7821
vn -0.6884 -0.7253 -0.0000
vn -0.6512 -0.0424 0.7577
vn 0.7041 -0.7101 -0.0000
vn 0.7167 -0.0000 0.6974
vn 0.7153 0.0623 0.6960
vn 1.0000 -0.0000 0.0004
vn -0.7157 0.0502 0.6966
vn 0.8651 -0.0838 0.4945
vn 1.0000 0.0001 -0.0005
vn 0.8268 0.0128 -0.5624
vn -0.6385 -0.0127 -0.7695
vn -1.0000 0.0025 0.0002
vn -0.0017 -0.7355 -0.6775
vn -0.0000 -0.7355 -0.6775
vn -0.0000 -0.0001 1.0000
vn -0.0103 -0.0000 -0.9999
vn 0.0019 -0.0009 -1.0000
vn 0.0006 -0.0004 -1.0000
vn 0.6237 -0.7816 -0.0000
vn -0.6237 -0.7817 -0.0000
vn -0.6237 -0.5749 0.5296
vn 0.6129 -0.5741 0.5429
vn -0.6129 -0.5741 -0.5429
vn 0.6236 -0.5750 -0.5296
vn 0.6768 -0.0000 0.7361
vn -0.6136 -0.0134 0.7895
vn 0.6136 -0.0134 -0.7895
vn -0.6768 -0.0000 -0.7361
vn 0.5202 0.3496 0.7792
vn -0.6297 0.3665 0.6849
vn 0.6297 0.3665 -0.6849
vn -0.5201 0.3496 -0.7793
vn -0.0064 1.0000 -0.0001
vn 0.0078 1.0000 -0.0000
vn -0.0000 1.0000 -0.0044
vn -0.0077 1.0000 0.0012
vn -0.0031 0.0142 -0.9999
vn 0.9996 0.0280 -0.0097
vn -0.9999 0.0141 0.0048
vn -0.0032 -0.0143 0.9999
vn 0.7086 0.0134 0.7054
vn 0.0001 0.0003 -1.0000
vn -0.0000 -0.0015 -1.0000
vn -0.0218 -0.4062 0.9135
vn -0.9963 0.0821 -0.0235
vn -0.0673 -0.9977 0.0032
vn 0.0160 -0.4498 -0.8930
vn 0.9963 -0.0821 -0.0234
vn 0.0110 -0.0055 -0.9999
vn -0.0110 0.0055 0.9999
vn 0.0218 -0.4062 -0.9135
vn 0.9963 0.0821 0.0235
vn 0.0673 -0.9977 -0.0032
vn -0.0160 -0.4498 0.8930
vn -0.9963 -0.0821 0.0234
vn -0.0110 -0.0055 0.9999
vn 0.0110 0.0055 -0.9999
vn -0.9918 0.1282 -0.0012
vn -0.0014 1.0000 0.0005
vn -0.0009 1.0000 0.0004
vn -0.9172 0.3985 -0.0000
vn 0.9448 0.3246 0.0439
vn -0.9396 0.3423 -0.0000
vn -1.0000 -0.0000 0.0007
vn -0.4803 0.8770 0.0117
vn 0.0046 -1.0000 -0.0001
vn 0.9980 0.0274 0.0565
vn -0.0005 0.0008 -1.0000
vn 0.9486 0.3159 0.0174
vn -0.9459 0.3224 0.0372
vn 0.9522 0.2931 0.0864
vn -0.0000 -0.0120 -0.9999
vn -0.0016 0.9313 -0.3642
vn -0.0000 -1.0000 -0.0008
vn 0.9739 0.2269 0.0031
vn -0.0034 1.0000 0.0001
vn 0.9503 0.3100 -0.0300
vn -0.9481 0.3173 -0.0215
vn 0.8072 0.5903 -0.0000
vn 1.0000 -0.0000 0.0006
vn 0.4693 0.8830 -0.0002
vn 0.0009 -1.0000 -0.0000
vn 0.0052 0.6947 0.7193
vn -0.9998 0.0102 -0.0190
vn -0.0047 1.0000 0.0001
vn 0.0017 0.0029 1.0000
vn 0.9488 0.3155 -0.0159
vn -0.0000 -0.0119 0.9999
vn -0.4899 0.8715 -0.0236
vn -0.0007 0.9238 0.3829
vn 0.0002 -1.0000 -0.0036
vn -0.0000 0.7078 0.7064
vn 0.8336 -0.5523 -0.0002
vt 0.625000 0.875000
vt 0.875000 0.625000
vt 0.375000 0.375000
vt 0.125000 0.875000
vt 0.375000 0.625000
s 0
usemtl ruins_find_ash_salvage
f 43/1/1 45/1/1 42/1/1
f 40/2/2 7/2/2 18/2/2
f 25/2/3 8/2/3 24/2/3
f 1/2/4 13/2/4 2/2/4
f 45/1/5 47/1/5 46/1/5
f 4/2/6 15/2/6 5/2/6
f 24/2/7 9/2/7 23/2/7
f 48/1/8 43/1/8 42/1/8
f 1/2/9 2/2/9 3/2/9
f 4/2/10 5/2/10 6/2/10
f 13/2/11 14/2/11 21/2/11
f 15/2/12 16/2/12 17/2/12
f 50/1/13 46/1/13 47/1/13
f 6/2/14 20/2/14 19/2/14
f 52/1/15 48/1/15 53/1/15
f 22/2/16 14/2/16 1/2/16
f 1/2/17 18/2/17 22/2/17
f 54/1/18 51/1/18 50/1/18
f 19/2/19 24/2/19 23/2/19
f 25/2/20 20/2/20 15/2/20
f 12/2/21 15/2/21 17/2/21
f 57/1/22 52/1/22 53/1/22
f 10/2/23 14/2/23 11/2/23
f 11/2/24 22/2/24 26/2/24
f 22/2/25 18/2/25 26/2/25
f 4/2/1 28/2/1 16/2/1
f 13/2/1 30/2/1 2/2/1
f 2/2/26 31/2/26 3/2/26
f 6/2/26 29/2/26 4/2/26
f 21/2/27 27/2/27 13/2/27
f 16/2/28 34/2/28 17/2/28
f 19/2/18 32/2/18 6/2/18
f 18/2/29 31/2/29 36/2/29
f 17/2/30 34/2/30 37/2/30
f 23/2/18 35/2/18 19/2/18
f 18/2/31 36/2/31 40/2/31
f 12/2/32 37/2/32 68/2/32
f 10/2/33 38/2/33 21/2/33
f 29/1/34 43/1/34 28/1/34
f 30/1/35 42/1/35 45/1/35
f 31/1/36 45/1/36 46/1/36
f 32/1/37 44/1/37 29/1/37
f 33/1/38 42/1/38 27/1/38
f 34/1/39 43/1/39 49/1/39
f 32/1/40 50/1/40 47/1/40
f 31/1/41 51/1/41 36/1/41
f 34/1/42 52/1/42 37/1/42
f 33/1/43 53/1/43 48/1/43
f 39/1/44 50/1/44 35/1/44
f 39/1/45 55/1/45 54/1/45
f 40/1/46 51/1/46 55/1/46
f 68/1/47 57/1/47 41/1/47
f 68/1/48 52/1/48 56/1/48
f 41/1/49 53/1/49 38/1/49
f 7/1/50 61/1/50 58/1/50
f 26/1/51 60/1/51 11/1/51
f 25/1/52 61/1/52 8/1/52
f 10/1/53 62/1/53 12/1/53
f 7/1/54 59/1/54 26/1/54
f 12/1/55 62/1/55 25/1/55
f 61/1/56 63/1/56 58/1/56
f 59/1/57 64/1/57 60/1/57
f 62/1/58 65/1/58 61/1/58
f 60/1/59 67/1/59 62/1/59
f 58/1/60 63/1/60 59/1/60
f 65/1/50 67/1/50 63/1/50
f 67/1/50 66/1/50 63/1/50
f 66/1/50 64/1/50 63/1/50
f 23/2/18 9/2/18 39/2/18
f 39/2/18 7/2/18 40/2/18
f 70/3/18 71/3/18 69/3/18
f 72/3/50 73/3/50 71/3/50
f 74/3/22 75/3/22 73/3/22
f 76/3/1 69/3/1 75/3/1
f 76/3/61 72/3/61 70/3/61
f 69/3/62 73/3/62 75/3/62
f 81/4/63 80/4/63 79/4/63
f 78/4/64 80/4/64 82/4/64
f 77/4/22 84/4/22 83/4/22
f 81/4/18 86/4/18 82/4/18
f 81/4/65 83/4/65 85/4/65
f 88/4/22 90/4/22 87/4/22
f 82/4/66 84/4/66 78/4/66
f 83/4/67 88/4/67 87/4/67
f 84/4/68 89/4/68 88/4/68
f 85/4/69 89/4/69 86/4/69
f 83/4/70 90/4/70 85/4/70
f 92/4/69 77/4/69 91/4/69
f 96/4/70 77/4/70 79/4/70
f 80/4/71 96/4/71 79/4/71
f 95/4/64 78/4/64 92/4/64
f 93/4/72 95/4/72 94/4/72
f 91/4/18 98/4/18 92/4/18
f 100/4/22 93/4/22 94/4/22
f 93/4/73 97/4/73 91/4/73
f 101/4/18 103/4/18 102/4/18
f 94/4/74 98/4/74 100/4/74
f 101/4/67 98/4/67 97/4/67
f 98/4/68 103/4/68 100/4/68
f 103/4/75 99/4/75 100/4/75
f 104/4/76 97/4/76 99/4/76
f 106/3/22 107/3/22 105/3/22
f 107/3/50 110/3/50 109/3/50
f 109/3/18 112/3/18 111/3/18
f 112/3/1 105/3/1 111/3/1
f 106/3/77 110/3/77 108/3/77
f 117/4/78 116/4/78 115/4/78
f 114/4/79 116/4/79 118/4/79
f 113/4/18 120/4/18 119/4/18
f 117/4/22 122/4/22 118/4/22
f 117/4/80 119/4/80 121/4/80
f 124/4/18 126/4/18 123/4/18
f 118/4/81 120/4/81 114/4/81
f 119/4/82 124/4/82 123/4/82
f 120/4/83 125/4/83 124/4/83
f 121/4/84 125/4/84 122/4/84
f 119/4/85 126/4/85 121/4/85
f 127/4/84 114/4/84 113/4/84
f 132/4/85 113/4/85 115/4/85
f 116/4/86 132/4/86 115/4/86
f 131/4/79 114/4/79 128/4/79
f 129/4/87 131/4/87 130/4/87
f 127/4/22 134/4/22 128/4/22
f 136/4/18 129/4/18 130/4/18
f 129/4/88 133/4/88 127/4/88
f 137/4/22 139/4/22 138/4/22
f 130/4/89 134/4/89 136/4/89
f 137/4/82 134/4/82 133/4/82
f 134/4/83 139/4/83 136/4/83
f 139/4/90 135/4/90 136/4/90
f 140/4/91 133/4/91 135/4/91
f 142/3/18 143/3/18 141/3/18
f 143/3/50 146/3/50 145/3/50
f 145/3/22 148/3/22 147/3/22
f 148/3/1 141/3/1 147/3/1
f 142/3/92 146/3/92 144/3/92
f 150/3/18 151/3/18 149/3/18
f 152/3/50 153/3/50 151/3/50
f 154/3/22 155/3/22 153/3/22
f 156/3/1 149/3/1 155/3/1
f 156/3/61 152/3/61 150/3/61
f 149/3/62 153/3/62 155/3/62
f 158/3/18 159/3/18 157/3/18
f 160/3/93 161/3/93 159/3/93
f 162/3/22 163/3/22 161/3/22
f 164/3/1 157/3/1 163/3/1
f 164/3/61 160/3/61 158/3/61
f 163/3/62 159/3/62 161/3/62
f 166/3/18 167/3/18 165/3/18
f 168/3/93 169/3/93 167/3/93
f 170/3/22 171/3/22 169/3/22
f 172/3/1 165/3/1 171/3/1
f 172/3/61 168/3/61 166/3/61
f 171/3/62 167/3/62 169/3/62
f 173/5/94 198/5/94 174/5/94
f 191/2/22 186/2/22 190/2/22
f 181/2/50 200/2/50 182/2/50
f 192/2/22 212/2/22 187/2/22
f 183/2/50 217/2/50 209/2/50
f 175/5/50 198/5/50 247/5/50
f 177/5/22 174/5/22 175/5/22
f 179/5/50 176/5/50 251/5/50
f 180/5/22 176/5/22 179/5/22
f 175/2/95 199/2/95 181/2/95
f 179/2/96 193/2/96 183/2/96
f 186/2/97 185/2/97 188/2/97
f 188/2/97 187/2/97 212/2/97
f 189/2/98 195/2/98 196/2/98
f 186/2/99 188/2/99 189/2/99
f 187/2/97 188/2/97 185/2/97
f 173/2/100 196/2/100 197/2/100
f 184/2/101 195/2/101 188/2/101
f 173/2/102 186/2/102 189/2/102
f 178/2/103 187/2/103 185/2/103
f 184/2/1 188/2/1 218/2/1
f 176/2/104 185/2/104 191/2/104
f 175/2/105 186/2/105 177/2/105
f 175/2/106 181/2/106 190/2/106
f 182/2/107 190/2/107 181/2/107
f 182/2/108 176/2/108 191/2/108
f 179/2/109 187/2/109 180/2/109
f 179/2/110 183/2/110 192/2/110
f 183/2/107 216/2/107 192/2/107
f 211/2/22 215/2/22 214/2/22
f 224/2/50 207/2/50 208/2/50
f 202/5/50 221/5/50 201/5/50
f 201/5/22 203/5/22 202/5/22
f 225/5/22 206/5/22 205/5/22
f 202/2/111 223/2/111 222/2/111
f 211/2/112 219/2/112 210/2/112
f 219/2/113 211/2/113 213/2/113
f 219/2/112 212/2/112 210/2/112
f 220/2/114 211/2/114 203/2/114
f 204/2/103 212/2/103 206/2/103
f 225/2/105 210/2/105 204/2/105
f 211/2/104 202/2/104 203/2/104
f 202/2/108 214/2/108 207/2/108
f 214/2/107 208/2/107 207/2/107
f 208/2/106 215/2/106 225/2/106
f 212/2/115 205/2/115 206/2/115
f 205/2/116 216/2/116 209/2/116
f 226/5/117 221/5/117 227/5/117
f 244/2/18 239/2/18 243/2/18
f 235/2/50 223/2/50 224/2/50
f 240/2/18 260/2/18 256/2/18
f 227/5/50 222/5/50 228/5/50
f 230/5/18 227/5/18 228/5/18
f 232/5/50 225/5/50 205/5/50
f 233/5/18 229/5/18 232/5/18
f 228/2/118 223/2/118 234/2/118
f 229/2/119 224/2/119 225/2/119
f 232/2/120 217/2/120 236/2/120
f 239/2/121 238/2/121 241/2/121
f 241/2/121 240/2/121 256/2/121
f 242/2/122 219/2/122 213/2/122
f 239/2/123 241/2/123 242/2/123
f 240/2/121 241/2/121 238/2/121
f 226/2/124 213/2/124 220/2/124
f 237/2/1 219/2/1 241/2/1
f 226/2/125 239/2/125 242/2/125
f 231/2/126 240/2/126 238/2/126
f 229/2/127 238/2/127 244/2/127
f 228/2/128 239/2/128 230/2/128
f 228/2/129 234/2/129 243/2/129
f 235/2/130 243/2/130 234/2/130
f 235/2/131 229/2/131 244/2/131
f 232/2/132 240/2/132 233/2/132
f 232/2/133 236/2/133 245/2/133
f 236/2/130 260/2/130 245/2/130
f 255/2/18 259/2/18 258/2/18
f 246/5/18 249/5/18 247/5/18
f 264/2/134 261/2/134 262/2/134
f 248/5/18 252/5/18 251/5/18
f 200/2/135 248/2/135 176/2/135
f 255/2/136 195/2/136 254/2/136
f 196/2/137 195/2/137 257/2/137
f 195/2/138 255/2/138 257/2/138
f 195/2/136 256/2/136 254/2/136
f 197/2/139 255/2/139 249/2/139
f 250/2/126 256/2/126 252/2/126
f 241/2/140 194/2/140 237/2/140
f 248/2/128 254/2/128 250/2/128
f 255/2/127 247/2/127 249/2/127
f 247/2/141 258/2/141 199/2/141
f 258/2/142 253/2/142 199/2/142
f 253/2/143 259/2/143 248/2/143
f 256/2/144 251/2/144 252/2/144
f 251/2/145 260/2/145 193/2/145
f 194/2/146 262/2/146 261/2/146
f 218/2/147 262/2/147 184/2/147
f 218/2/147 263/2/147 262/2/147
f 218/2/148 264/2/148 263/2/148
f 237/2/149 261/2/149 264/2/149
f 43/1/1 44/1/1 45/1/1
f 1/2/150 14/2/150 13/2/150
f 45/1/5 44/1/5 47/1/5
f 26/2/151 18/2/151 7/2/151
f 4/2/152 16/2/152 15/2/152
f 24/2/153 8/2/153 9/2/153
f 48/1/8 49/1/8 43/1/8
f 50/1/13 51/1/13 46/1/13
f 6/2/154 5/2/154 20/2/154
f 15/2/155 20/2/155 5/2/155
f 52/1/15 49/1/15 48/1/15
f 1/2/156 3/2/156 18/2/156
f 54/1/18 55/1/18 51/1/18
f 19/2/157 20/2/157 24/2/157
f 25/2/158 24/2/158 20/2/158
f 12/2/159 25/2/159 15/2/159
f 57/1/22 56/1/22 52/1/22
f 10/2/160 21/2/160 14/2/160
f 11/2/161 14/2/161 22/2/161
f 4/2/1 29/2/1 28/2/1
f 13/2/1 27/2/1 30/2/1
f 2/2/26 30/2/26 31/2/26
f 6/2/26 32/2/26 29/2/26
f 21/2/162 33/2/162 27/2/162
f 16/2/163 28/2/163 34/2/163
f 19/2/18 35/2/18 32/2/18
f 18/2/164 3/2/164 31/2/164
f 21/2/165 38/2/165 33/2/165
f 23/2/18 39/2/18 35/2/18
f 12/2/166 17/2/166 37/2/166
f 10/2/167 41/2/167 38/2/167
f 29/1/168 44/1/168 43/1/168
f 30/1/169 27/1/169 42/1/169
f 31/1/170 30/1/170 45/1/170
f 32/1/171 47/1/171 44/1/171
f 33/1/172 48/1/172 42/1/172
f 34/1/173 28/1/173 43/1/173
f 32/1/174 35/1/174 50/1/174
f 31/1/175 46/1/175 51/1/175
f 34/1/176 49/1/176 52/1/176
f 33/1/177 38/1/177 53/1/177
f 39/1/178 54/1/178 50/1/178
f 39/1/45 40/1/45 55/1/45
f 40/1/179 36/1/179 51/1/179
f 68/1/47 56/1/47 57/1/47
f 68/1/180 37/1/180 52/1/180
f 41/1/181 57/1/181 53/1/181
f 7/1/50 9/1/50 61/1/50
f 26/1/182 59/1/182 60/1/182
f 25/1/183 62/1/183 61/1/183
f 10/1/184 60/1/184 62/1/184
f 7/1/50 58/1/50 59/1/50
f 9/1/50 8/1/50 61/1/50
f 10/1/185 11/1/185 60/1/185
f 61/1/186 65/1/186 63/1/186
f 59/1/187 63/1/187 64/1/187
f 62/1/188 67/1/188 65/1/188
f 60/1/189 66/1/189 67/1/189
f 60/1/190 64/1/190 66/1/190
f 39/2/18 9/2/18 7/2/18
f 10/2/191 12/2/191 68/2/191
f 41/2/192 10/2/192 68/2/192
f 70/3/18 72/3/18 71/3/18
f 72/3/50 74/3/50 73/3/50
f 74/3/22 76/3/22 75/3/22
f 76/3/1 70/3/1 69/3/1
f 76/3/61 74/3/61 72/3/61
f 69/3/62 71/3/62 73/3/62
f 81/4/193 82/4/193 80/4/193
f 77/4/70 81/4/70 79/4/70
f 77/4/22 78/4/22 84/4/22
f 81/4/18 85/4/18 86/4/18
f 81/4/73 77/4/73 83/4/73
f 88/4/22 89/4/22 90/4/22
f 82/4/194 86/4/194 84/4/194
f 83/4/67 84/4/67 88/4/67
f 84/4/68 86/4/68 89/4/68
f 85/4/69 90/4/69 89/4/69
f 83/4/70 87/4/70 90/4/70
f 92/4/69 78/4/69 77/4/69
f 96/4/70 91/4/70 77/4/70
f 80/4/195 95/4/195 96/4/195
f 95/4/64 80/4/64 78/4/64
f 93/4/196 96/4/196 95/4/196
f 92/4/64 94/4/64 95/4/64
f 96/4/70 93/4/70 91/4/70
f 91/4/18 97/4/18 98/4/18
f 100/4/22 99/4/22 93/4/22
f 93/4/197 99/4/197 97/4/197
f 101/4/18 104/4/18 103/4/18
f 94/4/66 92/4/66 98/4/66
f 101/4/67 102/4/67 98/4/67
f 98/4/68 102/4/68 103/4/68
f 103/4/69 104/4/69 99/4/69
f 104/4/76 101/4/76 97/4/76
f 106/3/198 108/3/198 107/3/198
f 107/3/50 108/3/50 110/3/50
f 109/3/199 110/3/199 112/3/199
f 112/3/1 106/3/1 105/3/1
f 106/3/77 112/3/77 110/3/77
f 117/4/200 118/4/200 116/4/200
f 113/4/85 117/4/85 115/4/85
f 113/4/18 114/4/18 120/4/18
f 117/4/22 121/4/22 122/4/22
f 117/4/88 113/4/88 119/4/88
f 124/4/18 125/4/18 126/4/18
f 118/4/201 122/4/201 120/4/201
f 119/4/82 120/4/82 124/4/82
f 120/4/83 122/4/83 125/4/83
f 121/4/84 126/4/84 125/4/84
f 119/4/85 123/4/85 126/4/85
f 127/4/84 128/4/84 114/4/84
f 132/4/85 127/4/85 113/4/85
f 116/4/202 131/4/202 132/4/202
f 131/4/79 116/4/79 114/4/79
f 129/4/203 132/4/203 131/4/203
f 128/4/79 130/4/79 131/4/79
f 132/4/85 129/4/85 127/4/85
f 127/4/22 133/4/22 134/4/22
f 136/4/18 135/4/18 129/4/18
f 129/4/204 135/4/204 133/4/204
f 137/4/22 140/4/22 139/4/22
f 130/4/81 128/4/81 134/4/81
f 137/4/82 138/4/82 134/4/82
f 134/4/83 138/4/83 139/4/83
f 139/4/90 140/4/90 135/4/90
f 140/4/91 137/4/91 133/4/91
f 142/3/205 144/3/205 143/3/205
f 143/3/50 144/3/50 146/3/50
f 145/3/206 146/3/206 148/3/206
f 148/3/1 142/3/1 141/3/1
f 142/3/92 148/3/92 146/3/92
f 150/3/18 152/3/18 151/3/18
f 152/3/50 154/3/50 153/3/50
f 154/3/22 156/3/22 155/3/22
f 156/3/1 150/3/1 149/3/1
f 156/3/61 154/3/61 152/3/61
f 149/3/62 151/3/62 153/3/62
f 158/3/18 160/3/18 159/3/18
f 160/3/93 162/3/93 161/3/93
f 162/3/22 164/3/22 163/3/22
f 164/3/1 158/3/1 157/3/1
f 164/3/61 162/3/61 160/3/61
f 163/3/62 157/3/62 159/3/62
f 166/3/18 168/3/18 167/3/18
f 168/3/93 170/3/93 169/3/93
f 170/3/22 172/3/22 171/3/22
f 172/3/1 166/3/1 165/3/1
f 172/3/61 170/3/61 168/3/61
f 171/3/62 165/3/62 167/3/62
f 173/5/207 197/5/207 198/5/207
f 191/2/22 185/2/22 186/2/22
f 181/2/208 199/2/208 200/2/208
f 192/2/22 216/2/22 212/2/22
f 183/2/209 193/2/209 217/2/209
f 175/5/50 174/5/50 198/5/50
f 177/5/22 173/5/22 174/5/22
f 180/5/22 178/5/22 176/5/22
f 175/2/210 247/2/210 199/2/210
f 176/2/211 182/2/211 200/2/211
f 179/2/212 251/2/212 193/2/212
f 189/2/213 188/2/213 195/2/213
f 173/2/214 189/2/214 196/2/214
f 184/2/215 194/2/215 195/2/215
f 173/2/103 177/2/103 186/2/103
f 178/2/103 180/2/103 187/2/103
f 176/2/104 178/2/104 185/2/104
f 175/2/105 190/2/105 186/2/105
f 182/2/107 191/2/107 190/2/107
f 179/2/109 192/2/109 187/2/109
f 183/2/107 209/2/107 216/2/107
f 201/5/216 221/5/216 220/5/216
f 211/2/22 210/2/22 215/2/22
f 224/2/50 223/2/50 207/2/50
f 202/5/50 222/5/50 221/5/50
f 201/5/217 220/5/217 203/5/217
f 263/2/1 264/2/1 262/2/1
f 225/5/22 204/5/22 206/5/22
f 202/2/218 207/2/218 223/2/218
f 224/2/219 208/2/219 225/2/219
f 205/2/220 209/2/220 217/2/220
f 219/2/221 188/2/221 212/2/221
f 220/2/222 213/2/222 211/2/222
f 204/2/103 210/2/103 212/2/103
f 188/2/223 219/2/223 218/2/223
f 225/2/105 215/2/105 210/2/105
f 211/2/104 214/2/104 202/2/104
f 214/2/107 215/2/107 208/2/107
f 212/2/115 216/2/115 205/2/115
f 226/5/224 220/5/224 221/5/224
f 244/2/18 238/2/18 239/2/18
f 235/2/50 234/2/50 223/2/50
f 240/2/18 245/2/18 260/2/18
f 236/2/225 217/2/225 193/2/225
f 227/5/50 221/5/50 222/5/50
f 230/5/18 226/5/18 227/5/18
f 232/5/50 229/5/50 225/5/50
f 233/5/18 231/5/18 229/5/18
f 228/2/226 222/2/226 223/2/226
f 229/2/227 235/2/227 224/2/227
f 232/2/228 205/2/228 217/2/228
f 242/2/229 241/2/229 219/2/229
f 226/2/230 242/2/230 213/2/230
f 237/2/231 218/2/231 219/2/231
f 226/2/126 230/2/126 239/2/126
f 231/2/126 233/2/126 240/2/126
f 229/2/127 231/2/127 238/2/127
f 228/2/128 243/2/128 239/2/128
f 235/2/130 244/2/130 243/2/130
f 232/2/132 245/2/132 240/2/132
f 236/2/232 193/2/232 260/2/232
f 246/5/233 198/5/233 197/5/233
f 255/2/18 254/2/18 259/2/18
f 253/2/234 200/2/234 199/2/234
f 247/5/50 198/5/50 246/5/50
f 246/5/235 197/5/235 249/5/235
f 251/5/50 176/5/50 248/5/50
f 248/5/18 250/5/18 252/5/18
f 200/2/236 253/2/236 248/2/236
f 195/2/237 241/2/237 256/2/237
f 196/2/238 257/2/238 197/2/238
f 197/2/239 257/2/239 255/2/239
f 250/2/126 254/2/126 256/2/126
f 241/2/240 195/2/240 194/2/240
f 248/2/128 259/2/128 254/2/128
f 255/2/127 258/2/127 247/2/127
f 258/2/241 259/2/241 253/2/241
f 256/2/144 260/2/144 251/2/144
f 194/2/242 184/2/242 262/2/242
f 218/2/148 237/2/148 264/2/148
f 237/2/149 194/2/149 261/2/149
