# Blender 5.2.2 LTS
# www.blender.org
mtllib ruins_find_choir_salvage.mtl
o piece
v -0.060051 -0.096500 0.144976
v -0.143059 -0.094602 0.064192
v 0.146548 -0.094602 -0.055767
v 0.064817 -0.097232 -0.145618
v 0.114094 -0.064643 -0.291072
v 0.080613 -0.169049 -0.194616
v 0.194617 -0.169049 -0.080613
v -0.080613 -0.169049 0.194617
v -0.291911 -0.061466 0.120913
v 0.339261 -0.010063 -0.140547
v 0.140571 -0.010063 -0.339311
v -0.201234 0.081455 0.485714
v 0.203320 0.083552 -0.487475
v -0.000003 -0.061749 0.000000
v -0.339288 -0.010063 0.140548
v -0.140524 -0.010063 0.339311
v -0.125145 -0.064641 0.286501
v -0.502248 0.165638 0.208075
v 0.301688 -0.058404 -0.124963
v 0.485358 0.082489 -0.201047
v -0.479945 0.075316 0.198814
v 0.055768 -0.094602 0.146549
v 0.145618 -0.097232 0.064817
v 0.500815 0.165467 -0.209262
v 0.207651 0.165848 -0.501215
v 0.539922 0.169049 -0.223668
v 0.223715 0.169049 -0.539986
v 0.080613 -0.169049 0.194617
v -0.206225 0.165682 0.502342
v -0.223629 0.169050 0.539988
v -0.539947 0.169050 0.223670
v 0.194617 -0.169049 0.080613
v 0.118308 -0.059819 0.299154
v 0.339261 -0.010063 0.140548
v 0.140571 -0.010063 0.339311
v 0.286492 -0.064644 0.125140
v 0.435965 0.054734 -0.108791
v 0.436630 0.058505 -0.088726
v 0.448076 0.079148 -0.121454
v 0.203320 0.083552 0.487476
v 0.486358 0.081162 0.198391
v 0.507793 0.049527 -0.081340
v 0.452044 0.079869 -0.076342
v 0.464294 0.095116 -0.090120
v 0.509956 0.089686 -0.069391
v 0.502220 0.165638 0.208075
v 0.532788 0.074053 -0.093791
v 0.511180 0.060870 -0.000088
v 0.543701 0.038506 0.000054
v 0.207651 0.165848 0.501215
v 0.541097 0.080973 0.000019
v 0.539922 0.169050 0.223668
v 0.223715 0.169050 0.539986
v 0.509915 0.089674 0.063331
v 0.507797 0.049494 0.075328
v 0.435862 0.059558 0.085304
v 0.452050 0.079882 0.070340
v 0.532750 0.074032 0.087864
v 0.442121 0.065345 0.112010
v 0.467912 0.090748 0.116840
v 0.464535 0.096202 0.083633
v 0.459344 0.100359 -0.113751
v 0.462357 0.094359 0.103139
v -0.080613 -0.169049 -0.194617
v -0.194617 -0.169049 0.080613
v -0.148800 -0.097232 -0.057135
v -0.060803 -0.094940 -0.146792
v -0.140524 -0.010063 -0.339311
v -0.339289 -0.010063 -0.140547
v -0.127880 -0.059816 -0.295195
v -0.206224 0.165681 -0.502342
v -0.500843 0.165467 -0.209261
v -0.449682 0.082683 0.116457
v -0.435932 0.054728 0.102781
v -0.539948 0.169049 -0.223670
v -0.461745 0.099401 0.083872
v -0.436597 0.058502 0.082723
v -0.452780 0.082189 0.070403
v -0.291080 -0.064640 -0.114098
v -0.201234 0.081454 -0.485714
v -0.507797 0.049494 0.075328
v -0.485734 0.081452 -0.201132
v -0.509915 0.089674 0.063331
v -0.194617 -0.169049 -0.080613
v -0.532750 0.074032 0.087864
v -0.223629 0.169049 -0.539988
v -0.541097 0.080973 0.000019
v -0.511180 0.060869 -0.000088
v -0.543701 0.038506 0.000055
v -0.452775 0.082176 -0.076404
v -0.461745 0.099402 -0.089873
v -0.436597 0.058502 -0.088725
v -0.509956 0.089686 -0.069391
v -0.435933 0.054727 -0.108785
v -0.448067 0.079151 -0.121451
v -0.459561 0.098315 0.110371
v -0.532788 0.074053 -0.093791
v -0.507793 0.049527 -0.081340
v -0.459695 0.100869 -0.113393
v -0.122581 0.107636 0.080679
v -0.122185 0.079382 0.100000
v -0.122185 0.135889 0.100000
v -0.122581 0.107636 0.119321
v -0.180000 -0.107828 0.040722
v -0.222211 -0.108969 0.058478
v -0.239106 -0.110660 0.100000
v -0.221916 -0.107828 0.141916
v -0.179513 -0.108969 0.159209
v -0.137094 -0.115233 0.141602
v -0.120894 -0.110660 0.100000
v -0.180000 0.161366 0.037878
v -0.242122 0.161366 0.100000
v -0.219327 0.161162 0.142936
v -0.174903 0.161323 0.157269
v -0.135893 0.161486 0.144107
v -0.121395 0.161200 0.097757
v -0.132381 0.078186 0.052381
v -0.180000 0.072981 0.033728
v -0.227871 0.076676 0.052609
v -0.246288 0.073718 0.100292
v -0.227391 0.076676 0.147871
v -0.132129 0.076676 0.147391
v -0.113712 0.073718 0.099708
v -0.194583 0.021654 0.064792
v -0.216450 0.020656 0.112200
v -0.179943 0.051476 0.162436
v -0.167190 0.003542 0.109022
v -0.137789 -0.108969 0.058478
v -0.189956 0.002166 0.101158
v -0.209432 -0.095502 0.112040
v -0.150334 -0.095649 0.088001
v -0.165689 -0.093650 0.126001
v -0.193981 -0.093258 0.074481
v -0.144041 0.161332 0.055846
v -0.224154 0.161332 0.064041
v -0.161319 0.086352 0.046619
v -0.232835 0.083077 0.078973
v -0.202667 0.044114 0.138135
v -0.157508 0.083077 0.152228
v -0.125397 0.086328 0.100000
v -0.167840 0.034017 0.070642
v -0.209308 0.033875 0.090563
v -0.158819 0.027329 0.108773
v -0.177765 -0.063275 0.090551
v -0.176537 -0.064330 0.109703
v -0.170810 0.003188 0.089377
v -0.199321 0.107636 0.042581
v -0.180000 0.079382 0.042185
v -0.180000 0.135889 0.042185
v -0.160679 0.107636 0.042581
v -0.160679 0.107636 0.157419
v -0.180000 0.079382 0.157815
v -0.180000 0.135889 0.157815
v -0.199321 0.107636 0.157419
v -0.237419 0.107636 0.119321
v -0.237815 0.079382 0.100000
v -0.237815 0.135889 0.100000
v -0.237419 0.107636 0.080679
v -0.154021 -0.056609 0.104308
v -0.169422 -0.007769 0.125532
v -0.189232 -0.064146 0.115733
v -0.205445 -0.008202 0.096683
v -0.190994 -0.056029 0.073457
v -0.166659 -0.008062 0.076860
v 0.207419 0.107636 -0.139321
v 0.207815 0.079382 -0.120000
v 0.207815 0.135889 -0.120000
v 0.207419 0.107636 -0.100679
v 0.150487 -0.108969 -0.179209
v 0.108084 -0.107828 -0.161916
v 0.090894 -0.110660 -0.120000
v 0.107789 -0.108969 -0.078478
v 0.150000 -0.107828 -0.060722
v 0.192906 -0.115233 -0.078398
v 0.209106 -0.110660 -0.120000
v 0.150314 0.161446 -0.182248
v 0.087750 0.161398 -0.120313
v 0.110673 0.161162 -0.077064
v 0.155097 0.161323 -0.062731
v 0.193793 0.161469 -0.075763
v 0.207399 0.161101 -0.120686
v 0.197653 0.075204 -0.166946
v 0.150500 0.075204 -0.186892
v 0.103054 0.075204 -0.167653
v 0.102129 0.076676 -0.072609
v 0.150000 0.072981 -0.053728
v 0.196946 0.075204 -0.072347
v 0.216892 0.075204 -0.119500
v 0.137703 0.022049 -0.157346
v 0.086914 0.049880 -0.122100
v 0.135529 0.020962 -0.085205
v 0.157630 0.002821 -0.109156
v 0.186447 0.020657 -0.132213
v 0.192211 -0.108969 -0.161522
v 0.140044 0.002165 -0.118842
v 0.120344 -0.095645 -0.108019
v 0.179666 -0.095649 -0.131999
v 0.164092 -0.093361 -0.094258
v 0.136019 -0.093258 -0.145519
v 0.187431 0.161362 -0.163940
v 0.105615 0.161337 -0.155905
v 0.172175 0.089556 -0.173535
v 0.111390 0.086328 -0.158610
v 0.099044 0.086352 -0.095463
v 0.150000 0.086328 -0.065397
v 0.201241 0.077650 -0.098775
v 0.162160 0.034017 -0.149358
v 0.122301 0.033782 -0.131473
v 0.137840 0.034017 -0.090642
v 0.171181 0.027329 -0.111227
v 0.152235 -0.063275 -0.129449
v 0.153463 -0.064330 -0.110297
v 0.156417 0.002837 -0.128342
v 0.130679 0.107636 -0.177419
v 0.150000 0.079382 -0.177815
v 0.150000 0.135889 -0.177815
v 0.169321 0.107636 -0.177419
v 0.169321 0.107636 -0.062581
v 0.150000 0.079382 -0.062185
v 0.150000 0.135889 -0.062185
v 0.130679 0.107636 -0.062581
v 0.092581 0.107636 -0.100679
v 0.092185 0.079382 -0.120000
v 0.092185 0.135889 -0.120000
v 0.092581 0.107636 -0.139321
v 0.175979 -0.056609 -0.115692
v 0.160578 -0.007769 -0.094468
v 0.140768 -0.064146 -0.104267
v 0.124555 -0.008202 -0.123317
v 0.139006 -0.056029 -0.146543
v 0.163341 -0.008062 -0.143140
v 0.107419 0.107636 0.180679
v 0.107815 0.079382 0.200000
v 0.107815 0.135889 0.200000
v 0.107419 0.107636 0.219321
v 0.050487 -0.108969 0.140791
v 0.008084 -0.107828 0.158084
v -0.009106 -0.110660 0.200000
v 0.007789 -0.108969 0.241523
v 0.050000 -0.107828 0.259278
v 0.092906 -0.115233 0.241602
v 0.109106 -0.110660 0.200000
v 0.050000 0.161366 0.137878
v 0.011619 0.161403 0.156518
v -0.006777 0.161287 0.205998
v 0.005893 0.161486 0.244107
v 0.050000 0.161126 0.257682
v 0.093794 0.161446 0.244238
v 0.107422 0.161357 0.204429
v 0.096740 0.074498 0.152166
v 0.049708 0.073718 0.133712
v 0.003054 0.075204 0.152347
v -0.016878 0.076705 0.199168
v 0.002129 0.076676 0.247391
v 0.050000 0.072981 0.266272
v 0.096946 0.075204 0.247653
v 0.117344 0.078186 0.200000
v 0.063752 0.020269 0.165412
v 0.012787 0.021858 0.184552
v 0.046484 0.003714 0.214752
v 0.087229 0.021874 0.215447
v 0.092211 -0.108969 0.158478
v 0.058191 0.001584 0.195050
v 0.035823 0.003114 0.198219
v 0.020344 -0.095645 0.211981
v 0.079666 -0.095649 0.188001
v 0.064092 -0.093361 0.225742
v 0.036019 -0.093258 0.174481
v 0.091072 0.161101 0.159897
v 0.102032 0.080762 0.180977
v 0.050000 0.086328 0.145397
v -0.002835 0.083077 0.178973
v 0.026659 0.080762 0.250243
v 0.088610 0.086328 0.238610
v 0.062160 0.034017 0.170642
v 0.020692 0.033875 0.190563
v 0.040563 0.033875 0.229308
v 0.071181 0.027329 0.208773
v 0.052235 -0.063275 0.190551
v 0.053463 -0.064330 0.209703
v 0.030679 0.107636 0.142581
v 0.050000 0.079382 0.142185
v 0.050000 0.135889 0.142185
v 0.069321 0.107636 0.142581
v 0.069321 0.107636 0.257419
v 0.050000 0.079382 0.257815
v 0.050000 0.135889 0.257815
v 0.030679 0.107636 0.257419
v -0.007419 0.107636 0.219321
v -0.007815 0.079382 0.200000
v -0.007815 0.135890 0.200000
v -0.007419 0.107636 0.180679
v 0.075979 -0.056609 0.204308
v 0.060578 -0.007769 0.225532
v 0.040768 -0.064146 0.215733
v 0.039006 -0.056029 0.173457
v 0.063341 -0.008062 0.176860
vn 0.5978 0.5731 -0.5606
vn 0.1966 -0.9689 -0.1505
vn -0.5940 0.5424 0.5940
vn -0.5185 0.6777 0.5215
vn -0.4212 -0.8006 0.4263
vn 0.4046 -0.8089 -0.4266
vn -0.1065 0.9886 0.1065
vn 0.1065 0.9886 -0.1065
vn -0.1622 -0.9761 0.1446
vn 0.5184 0.6801 -0.5184
vn -0.0000 0.5424 0.8401
vn 0.0079 -0.9757 0.2191
vn 0.6013 -0.5343 -0.5941
vn -0.0662 0.9955 0.0678
vn 0.0636 0.9959 -0.0641
vn -0.0000 -1.0000 -0.0000
vn 0.2332 -0.9722 -0.0194
vn 0.5606 0.5731 0.5978
vn 0.1420 -0.9761 0.1643
vn 0.8240 0.5663 0.0187
vn -0.1506 0.9886 -0.0000
vn -0.0000 0.9886 -0.1506
vn -0.1065 0.9886 -0.1065
vn 0.0015 -0.7960 0.6053
vn 0.5856 -0.8104 0.0154
vn -0.7354 0.6777 0.0022
vn -0.5980 -0.5399 0.5924
vn -0.0000 0.6801 -0.7331
vn 0.2136 -0.6065 -0.7659
vn -0.0672 -0.2812 0.9573
vn 0.3812 0.8982 -0.2188
vn 0.4161 -0.8042 0.4244
vn -0.5617 -0.8159 0.1373
vn -0.5185 0.6777 -0.5215
vn 0.9938 0.0609 -0.0925
vn -0.5265 0.7817 0.3343
vn 0.8455 -0.5340 -0.0039
vn -0.0901 0.9959 -0.0000
vn -0.0006 0.9960 -0.0894
vn -0.9984 0.0411 -0.0386
vn 0.5495 -0.7485 0.3713
vn -0.0682 -0.2821 -0.9569
vn 0.4751 0.8725 0.1141
vn 0.3084 0.9432 0.1236
vn 0.1946 -0.5959 0.7791
vn 0.3462 0.9032 0.2536
vn 0.6057 -0.5163 0.6055
vn -0.0582 0.9966 -0.0582
vn -0.0010 -0.5269 0.8499
vn -0.6653 0.7466 -0.0037
vn -0.0000 0.9886 0.1506
vn 0.1506 0.9886 -0.0000
vn -0.2354 -0.9714 0.0322
vn -0.0156 -0.9746 -0.2236
vn -0.0006 0.9960 0.0894
vn 0.7354 0.6777 0.0022
vn -0.8431 0.5378 -0.0000
vn -0.0000 0.5422 -0.8402
vn -0.8417 -0.5399 0.0039
vn -0.0000 -0.5233 -0.8521
vn 0.0015 -0.7986 -0.6019
vn -0.1514 -0.9751 -0.1624
vn -0.3695 0.9003 0.2301
vn -0.2033 -0.6014 0.7726
vn -0.5858 -0.8104 0.0089
vn 0.1065 0.9886 0.1065
vn 0.0815 -0.2812 -0.9562
vn -0.5941 0.5422 -0.5941
vn 0.5190 0.7743 -0.3620
vn -0.9932 0.0610 0.0992
vn 0.5599 -0.8152 -0.1481
vn -0.0023 0.6777 0.7354
vn 0.0901 0.9959 -0.0000
vn 0.5184 0.6777 0.5216
vn 0.9984 0.0432 0.0356
vn -0.4815 0.8699 -0.1068
vn -0.3864 0.8973 -0.2133
vn 0.0805 -0.2803 0.9565
vn -0.5618 -0.7499 -0.3494
vn -0.4269 -0.7972 -0.4268
vn -0.2136 -0.6065 -0.7659
vn 0.0610 0.9963 0.0610
vn -0.6012 -0.5267 -0.6010
vn 0.9998 -0.0000 -0.0205
vn 0.9998 -0.0000 0.0205
vn 0.3555 -0.5536 -0.7531
vn -0.7600 -0.5399 -0.3619
vn -0.4941 -0.5336 0.6864
vn 0.7798 -0.6118 -0.1327
vn -0.6235 0.0840 0.7773
vn 0.6163 -0.2599 -0.7434
vn -0.1736 -0.7532 0.6345
vn -0.6272 -0.7169 -0.3044
vn -0.2232 -0.8707 -0.4382
vn 0.1698 0.9233 -0.3444
vn -0.4286 0.8951 -0.1228
vn -0.4963 0.8558 0.1457
vn -0.1435 0.9346 0.3256
vn 0.5322 0.8291 0.1714
vn 0.5016 0.8483 -0.1696
vn 0.7452 0.6102 0.2690
vn -0.2960 0.3781 0.8772
vn -0.7881 0.5420 -0.2918
vn 0.2962 0.3218 -0.8993
vn 0.0002 1.0000 0.0016
vn 0.0055 1.0000 0.0018
vn -0.0070 0.9999 -0.0083
vn 0.1007 -0.1443 0.9844
vn 0.9907 -0.1215 -0.0609
vn 0.3057 0.0824 -0.9485
vn -0.7382 -0.1214 -0.6635
vn -0.8781 0.0612 0.4746
vn 0.3731 0.3483 0.8600
vn 0.9006 0.3817 -0.2079
vn -0.7975 0.3824 -0.4665
vn -0.8163 0.5043 0.2816
vn 0.0715 0.9852 0.1559
vn 0.2073 0.9500 -0.2334
vn 0.0047 -0.9972 -0.0752
vn -0.0861 -0.9910 0.1023
vn -0.0033 -0.9974 -0.0718
vn -0.0205 -0.0000 -0.9998
vn 0.0205 -0.0000 -0.9998
vn 0.0205 -0.0000 0.9998
vn -0.0205 -0.0000 0.9998
vn -0.9998 -0.0000 0.0205
vn -0.9998 -0.0000 -0.0205
vn 0.3081 -0.9486 -0.0720
vn 0.9544 0.2938 0.0524
vn 0.3623 -0.5126 0.7784
vn -0.2319 0.8168 0.5283
vn -0.2976 -0.9398 -0.1680
vn -0.3131 0.7300 -0.6075
vn 0.5284 -0.5537 -0.6436
vn 0.4448 0.0995 -0.8901
vn -0.3636 0.0437 -0.9305
vn -0.8901 0.0992 -0.4449
vn -0.9294 0.0454 0.3663
vn -0.3062 0.0846 0.9482
vn 0.2846 0.0320 0.9581
vn 0.9531 0.0538 0.2978
vn 0.9301 0.0737 -0.3599
vn 0.3696 -0.5519 -0.7475
vn -0.6597 -0.5328 -0.5300
vn -0.3622 -0.4067 0.8387
vn 0.3589 -0.5543 0.7510
vn 0.6950 -0.5880 0.4138
vn -0.2177 -0.8642 0.4537
vn -0.6468 -0.6994 0.3040
vn -0.6194 -0.7123 -0.3302
vn -0.2180 -0.8725 -0.4373
vn 0.1497 0.9235 -0.3531
vn -0.1708 0.8628 -0.4757
vn -0.4069 0.9065 -0.1124
vn -0.5015 0.8484 0.1695
vn -0.1698 0.9234 0.3443
vn 0.5346 0.8278 0.1704
vn 0.7449 0.6099 0.2704
vn -0.2958 0.3767 0.8778
vn -0.7857 0.5444 -0.2938
vn 0.0001 1.0000 0.0043
vn 0.0070 1.0000 0.0018
vn -0.0073 0.9999 -0.0104
vn 0.0966 -0.1520 0.9836
vn 0.9884 -0.1380 -0.0637
vn 0.3013 0.1833 -0.9358
vn -0.7372 -0.1202 -0.6649
vn -0.9097 0.1670 0.3803
vn 0.2045 0.3595 0.9105
vn 0.7794 0.5501 -0.2998
vn 0.4872 0.2851 -0.8254
vn -0.4238 0.4717 -0.7732
vn -0.8532 0.4406 0.2791
vn 0.0648 0.9854 0.1575
vn 0.1572 0.9854 -0.0655
vn 0.0320 -0.9966 -0.0754
vn -0.0733 -0.9948 0.0703
vn -0.0445 -0.9981 -0.0433
vn 0.8705 0.4899 0.0465
vn -0.3534 0.7237 0.5927
vn 0.3884 0.0781 -0.9182
vn -0.3753 0.0490 -0.9256
vn -0.9518 0.0691 -0.2988
vn -0.9562 0.0025 0.2926
vn -0.3063 0.0810 0.9485
vn 0.3647 0.0736 0.9282
vn 0.9199 0.0490 0.3891
vn 0.9224 0.0968 -0.3740
vn -0.3098 -0.5439 -0.7798
vn -0.7976 -0.5150 0.3140
vn -0.3429 -0.5493 0.7620
vn 0.2481 -0.5862 0.7712
vn 0.8021 -0.5129 -0.3059
vn -0.7088 0.1285 0.6936
vn 0.6782 -0.6724 -0.2966
vn -0.7075 -0.5230 0.4752
vn -0.1339 -0.8268 -0.5464
vn 0.0109 0.9999 -0.0088
vn -0.5484 0.1414 0.8241
vn 0.9349 -0.0729 0.3474
vn 0.6676 -0.1260 -0.7338
vn -0.1953 0.1465 -0.9698
vn -0.9380 -0.0375 0.3446
vn -0.5241 0.2683 0.8083
vn 0.4524 0.4707 0.7575
vn 0.8743 0.3354 -0.3509
vn -0.2031 0.3484 -0.9151
vn -0.8894 0.3864 -0.2444
vn -0.7598 0.5856 0.2824
vn 0.1566 0.9844 -0.0803
vn 0.9170 0.3959 0.0497
vn -0.7441 -0.4475 0.4961
vn 0.4702 0.1090 -0.8758
vn -0.3693 0.0453 -0.9282
vn -0.9133 0.1097 -0.3923
vn -0.9273 0.0812 0.3655
vn -0.2934 0.0500 0.9547
vn 0.3635 0.0904 0.9272
vn 0.9171 0.0492 0.3956
vn 0.9306 0.1293 -0.3424
vn 0.5961 0.5378 -0.5961
vn 0.1623 -0.9758 -0.1466
vn -0.5670 0.5685 0.5960
vn -0.5185 0.6801 0.5183
vn -0.4205 -0.8104 0.4080
vn 0.4317 -0.7940 -0.4281
vn -0.1631 -0.9759 0.1447
vn 0.5184 0.6777 -0.5216
vn -0.0205 0.5685 0.8224
vn 0.0129 -0.9742 0.2252
vn 0.6057 -0.5163 -0.6055
vn -0.0582 0.9966 0.0582
vn 0.0610 0.9963 -0.0610
vn 0.2226 -0.9748 -0.0108
vn 0.5961 0.5378 0.5961
vn 0.1437 -0.9714 0.1892
vn 0.8401 0.5424 -0.0000
vn -0.0145 -0.8089 0.5877
vn 0.6076 -0.7943 -0.0042
vn -0.7332 0.6800 -0.0000
vn -0.6013 -0.5263 0.6013
vn -0.0023 0.6777 -0.7354
vn 0.2648 -0.5443 -0.7960
vn -0.1421 -0.9720 0.1874
vn 0.3151 0.1716 -0.9334
vn -0.1456 -0.4154 0.8979
vn -0.2025 0.7411 0.6402
vn 0.0197 0.9769 0.2126
vn 0.4269 -0.7984 0.4246
vn -0.5185 0.6801 -0.5183
vn -0.9984 0.0432 0.0356
vn 0.5618 -0.7499 -0.3494
vn 0.4815 0.8699 -0.1068
vn 0.8539 -0.5204 -0.0000
vn -0.0913 0.9958 -0.0001
vn -0.0000 0.9966 -0.0823
vn -0.5599 -0.8152 -0.1481
vn -0.5190 0.7743 -0.3620
vn -0.1862 -0.4821 -0.8561
vn 0.9932 0.0610 0.0992
vn -0.1029 -0.9669 0.2336
vn -0.6728 0.6011 0.4312
vn -0.2017 0.7067 -0.6782
vn 0.3319 -0.4902 0.8060
vn 0.2016 0.9696 0.1388
vn 0.6007 -0.5366 0.5926
vn -0.0634 0.9959 -0.0645
vn -0.0000 -0.5233 0.8521
vn -0.2128 -0.9770 0.0124
vn -0.0157 -0.9745 -0.2237
vn -0.0000 0.9966 0.0823
vn 0.7332 0.6800 -0.0000
vn -0.8191 0.5731 0.0263
vn 0.0180 0.5662 -0.8241
vn -0.8503 -0.5263 -0.0000
vn -0.0010 -0.5269 -0.8499
vn -0.0059 -0.8043 -0.5941
vn -0.1528 -0.9727 -0.1748
vn -0.3357 0.1499 0.9300
vn -0.2214 0.9735 0.0582
vn -0.2695 -0.5269 0.8061
vn -0.5992 -0.8006 -0.0036
vn 0.1769 0.6620 -0.7283
vn 0.1424 -0.9719 -0.1876
vn 0.1428 -0.3782 -0.9147
vn -0.5955 0.5662 -0.5700
vn 0.9984 0.0411 -0.0386
vn -0.4751 0.8725 0.1141
vn -0.5495 -0.7485 0.3713
vn -0.0000 0.6801 0.7331
vn 0.0913 0.9958 -0.0001
vn 0.5184 0.6801 0.5184
vn 0.5265 0.7817 0.3343
vn 0.1763 0.6616 0.7288
vn -0.1786 0.9829 0.0457
vn 0.5617 -0.8159 0.1373
vn 0.1426 -0.3785 0.9145
vn -0.9938 0.0609 -0.0925
vn -0.3151 0.1772 -0.9324
vn -0.4259 -0.8089 -0.4053
vn 0.1420 -0.9719 0.1876
vn -0.2646 -0.5443 -0.7960
vn 0.0664 0.9955 0.0674
vn -0.6013 -0.5263 -0.6013
vn 0.3487 -0.5558 -0.7547
vn -0.3623 -0.4051 -0.8394
vn -0.7868 -0.5178 -0.3360
vn -0.8453 -0.3945 0.3603
vn 0.5061 -0.5783 0.6398
vn 0.7711 -0.5436 0.3315
vn 0.7526 -0.5581 -0.3495
vn 0.9587 0.2794 0.0527
vn 0.3498 -0.2784 0.8945
vn -0.9591 -0.2828 -0.0143
vn -0.4374 0.2825 -0.8538
vn -0.2492 -0.7342 0.6315
vn 0.1552 0.9288 -0.3366
vn -0.2173 0.8602 -0.4613
vn -0.4089 0.9034 -0.1296
vn -0.1268 0.9197 0.3715
vn 0.3275 0.7987 0.5048
vn 0.3616 0.9009 0.2399
vn 0.9445 0.3258 -0.0426
vn 0.3968 -0.3553 0.8463
vn -0.7500 0.5780 -0.3216
vn 0.4039 0.1280 0.9058
vn 0.9169 0.1457 -0.3716
vn 0.2091 0.1091 -0.9718
vn -0.8523 0.0299 -0.5222
vn -0.8235 0.1216 0.5542
vn 0.3983 0.3864 0.8319
vn -0.2776 0.5947 -0.7545
vn -0.7806 0.3385 0.5254
vn 0.0864 -0.9934 -0.0756
vn -0.0855 -0.9858 0.1447
vn -0.0242 -0.9984 -0.0505
vn 0.8990 -0.4084 -0.1583
vn -0.5386 0.5177 0.6647
vn -0.4470 0.5865 -0.6754
vn 0.3602 0.0438 -0.9318
vn -0.5050 0.1372 -0.8521
vn -0.9329 0.0431 -0.3576
vn -0.8776 0.1110 0.4664
vn -0.2650 0.0574 0.9625
vn 0.3191 0.0508 0.9464
vn 0.9309 0.0896 0.3540
vn 0.8711 0.1418 -0.4702
vn 0.3332 -0.5181 -0.7877
vn -0.3459 -0.3909 -0.8530
vn -0.6901 -0.5261 0.4970
vn 0.3275 -0.5635 0.7584
vn 0.7881 -0.5175 0.3334
vn 0.8515 -0.3948 -0.3452
vn 0.5069 -0.8614 -0.0328
vn 0.3198 -0.6818 -0.6580
vn 0.1616 0.9191 -0.3592
vn -0.4158 0.9029 -0.1095
vn -0.1542 0.9291 0.3360
vn 0.3402 0.8030 0.4893
vn 0.9456 0.3225 -0.0429
vn 0.3964 -0.3577 0.8455
vn 0.2393 -0.0166 0.9708
vn 0.9791 0.0685 0.1914
vn 0.5082 -0.0039 -0.8612
vn -0.5367 0.0664 -0.8412
vn -0.8992 0.1355 0.4160
vn 0.3554 0.4861 0.7984
vn 0.9393 0.2898 0.1835
vn -0.4059 0.4406 -0.8007
vn -0.8631 0.3242 0.3872
vn -0.0716 -0.9699 0.2325
vn -0.0148 -0.9972 -0.0734
vn 0.9804 0.1871 -0.0618
vn -0.4075 0.6338 -0.6574
vn 0.4419 0.0492 -0.8957
vn -0.5036 0.1314 -0.8539
vn -0.8936 0.0139 -0.4486
vn -0.8776 0.1133 0.4658
vn -0.3568 0.1151 0.9271
vn 0.3186 0.0491 0.9466
vn 0.9516 0.1091 0.2873
vn 0.9015 0.1215 -0.4154
vn 0.3386 -0.4126 -0.8456
vn -0.3288 -0.5313 -0.7808
vn -0.8589 -0.3703 -0.3538
vn -0.6882 -0.6005 0.4071
vn 0.3340 -0.5311 0.7787
vn 0.8634 -0.3666 0.3466
vn 0.7639 -0.5480 -0.3409
vn -0.9974 -0.0658 0.0290
vn -0.5006 0.3113 -0.8078
vn 0.3811 -0.8673 0.3202
vn -0.2518 -0.7529 -0.6081
vn 0.9456 0.3225 -0.0428
vn 0.0036 1.0000 0.0054
vn -0.0089 0.9999 -0.0053
vn -0.0425 -0.1676 0.9849
vn 0.5245 0.1438 0.8392
vn 0.9118 0.1744 -0.3717
vn -0.6707 -0.1616 -0.7239
vn -0.9623 0.1333 -0.2370
vn 0.8060 0.4236 -0.4134
vn -0.4037 0.5051 -0.7629
vn 0.5129 0.8312 0.2149
vn -0.0062 0.8827 -0.4699
vn 0.3643 0.0430 -0.9303
vn -0.4352 0.0866 -0.8962
vn -0.9284 0.1387 -0.3448
vn -0.9476 0.0542 0.3148
vn -0.3593 0.0905 0.9288
vn 0.2928 0.0485 0.9549
vn 0.9419 0.0952 0.3222
vn 0.9115 0.0954 -0.4000
vt 0.625000 0.875000
vt 0.875000 0.375000
vt 0.625000 0.375000
s 0
usemtl ruins_find_choir_salvage
f 7/1/1 4/1/1 3/1/1
f 5/1/2 3/1/2 4/1/2
f 8/1/3 2/1/3 65/1/3
f 11/2/4 24/2/4 25/2/4
f 21/2/5 17/2/5 12/2/5
f 13/2/6 19/2/6 5/2/6
f 10/2/7 11/2/7 14/2/7
f 15/2/8 16/2/8 14/2/8
f 2/1/9 17/1/9 9/1/9
f 18/2/10 16/2/10 15/2/10
f 22/1/11 8/1/11 28/1/11
f 17/1/12 22/1/12 33/1/12
f 13/1/13 26/1/13 20/1/13
f 26/1/14 25/1/14 24/1/14
f 31/1/15 29/1/15 18/1/15
f 6/1/16 32/1/16 28/1/16
f 3/1/17 36/1/17 23/1/17
f 28/1/18 23/1/18 22/1/18
f 22/1/19 36/1/19 33/1/19
f 32/1/20 3/1/20 23/1/20
f 34/2/21 10/2/21 14/2/21
f 16/2/22 35/2/22 14/2/22
f 35/2/23 34/2/23 14/2/23
f 12/2/24 33/2/24 40/2/24
f 19/2/25 41/2/25 36/2/25
f 10/2/26 46/2/26 24/2/26
f 12/1/27 31/1/27 21/1/27
f 29/2/28 35/2/28 16/2/28
f 42/1/29 39/1/29 47/1/29
f 43/1/30 42/1/30 45/1/30
f 62/1/31 45/1/31 47/1/31
f 36/2/32 40/2/32 33/2/32
f 42/1/33 49/1/33 48/1/33
f 46/2/34 35/2/34 50/2/34
f 49/1/35 47/1/35 51/1/35
f 51/1/36 45/1/36 48/1/36
f 26/1/37 41/1/37 20/1/37
f 26/1/38 46/1/38 52/1/38
f 30/1/39 50/1/39 29/1/39
f 54/1/40 48/1/40 55/1/40
f 55/1/41 49/1/41 58/1/41
f 55/1/42 57/1/42 54/1/42
f 51/1/43 54/1/43 58/1/43
f 61/1/44 63/1/44 60/1/44
f 60/1/45 55/1/45 58/1/45
f 54/1/46 60/1/46 58/1/46
f 40/1/47 52/1/47 53/1/47
f 52/1/48 50/1/48 53/1/48
f 40/1/49 30/1/49 12/1/49
f 63/2/50 61/2/50 44/2/50
f 6/1/16 8/1/16 64/1/16
f 11/2/51 68/2/51 14/2/51
f 69/2/52 15/2/52 14/2/52
f 2/1/53 79/1/53 66/1/53
f 5/1/54 67/1/54 70/1/54
f 25/1/55 86/1/55 71/1/55
f 18/2/56 69/2/56 72/2/56
f 65/1/57 66/1/57 84/1/57
f 67/1/58 6/1/58 64/1/58
f 31/1/59 82/1/59 21/1/59
f 13/1/60 86/1/60 27/1/60
f 5/2/61 80/2/61 13/2/61
f 67/1/62 79/1/62 70/1/62
f 96/1/63 83/1/63 85/1/63
f 81/1/64 73/1/64 85/1/64
f 21/2/65 79/2/65 9/2/65
f 68/2/66 69/2/66 14/2/66
f 78/1/67 81/1/67 83/1/67
f 84/1/68 67/1/68 64/1/68
f 8/1/16 84/1/16 64/1/16
f 87/1/69 83/1/69 88/1/69
f 89/1/70 85/1/70 87/1/70
f 81/1/71 89/1/71 88/1/71
f 71/2/72 11/2/72 25/2/72
f 18/1/73 75/1/73 31/1/73
f 72/2/74 68/2/74 71/2/74
f 93/1/75 88/1/75 98/1/75
f 87/1/76 93/1/76 97/1/76
f 93/1/77 99/1/77 97/1/77
f 98/1/78 90/1/78 93/1/78
f 98/1/79 89/1/79 97/1/79
f 70/2/80 82/2/80 80/2/80
f 95/1/81 98/1/81 97/1/81
f 75/1/82 71/1/82 86/1/82
f 75/1/83 80/1/83 82/1/83
f 101/3/84 100/3/84 102/3/84
f 101/3/85 102/3/85 103/3/85
f 146/2/86 118/2/86 117/2/86
f 125/2/87 119/2/87 124/2/87
f 126/2/88 121/2/88 125/2/88
f 146/2/89 123/2/89 127/2/89
f 161/2/90 160/2/90 162/2/90
f 163/2/91 164/2/91 159/2/91
f 129/2/92 127/2/92 126/2/92
f 129/2/93 125/2/93 124/2/93
f 129/2/94 124/2/94 146/2/94
f 104/2/95 131/2/95 128/2/95
f 105/2/96 130/2/96 133/2/96
f 107/2/97 130/2/97 106/2/97
f 107/2/98 132/2/98 130/2/98
f 109/2/99 131/2/99 132/2/99
f 128/2/100 131/2/100 110/2/100
f 144/2/101 132/2/101 131/2/101
f 145/2/102 130/2/102 132/2/102
f 161/2/103 133/2/103 130/2/103
f 144/2/104 131/2/104 133/2/104
f 135/2/105 134/2/105 111/2/105
f 113/2/106 135/2/106 112/2/106
f 115/2/107 116/2/107 114/2/107
f 135/2/108 136/2/108 134/2/108
f 113/2/109 137/2/109 135/2/109
f 114/2/110 138/2/110 113/2/110
f 116/2/111 139/2/111 114/2/111
f 134/2/112 140/2/112 116/2/112
f 137/2/113 141/2/113 136/2/113
f 138/2/114 142/2/114 137/2/114
f 140/2/115 143/2/115 139/2/115
f 140/2/116 141/2/116 143/2/116
f 141/2/117 142/2/117 143/2/117
f 142/2/118 138/2/118 143/2/118
f 128/2/119 109/2/119 104/2/119
f 109/2/120 107/2/120 106/2/120
f 109/2/121 105/2/121 104/2/121
f 148/3/122 147/3/122 149/3/122
f 148/3/123 149/3/123 150/3/123
f 152/3/124 151/3/124 153/3/124
f 152/3/125 153/3/125 154/3/125
f 156/3/126 155/3/126 157/3/126
f 156/3/127 157/3/127 158/3/127
f 144/2/128 159/2/128 145/2/128
f 146/2/129 160/2/129 164/2/129
f 145/2/130 159/2/130 161/2/130
f 129/2/131 160/2/131 127/2/131
f 161/2/132 163/2/132 144/2/132
f 129/2/133 164/2/133 162/2/133
f 144/2/134 163/2/134 159/2/134
f 117/2/135 111/2/135 134/2/135
f 119/2/136 111/2/136 118/2/136
f 119/2/137 112/2/137 135/2/137
f 121/2/138 112/2/138 120/2/138
f 121/2/139 114/2/139 113/2/139
f 122/2/140 114/2/140 126/2/140
f 122/2/141 116/2/141 115/2/141
f 117/2/142 116/2/142 123/2/142
f 166/3/84 165/3/84 167/3/84
f 166/3/85 167/3/85 168/3/85
f 189/2/143 182/2/143 193/2/143
f 190/2/144 184/2/144 189/2/144
f 191/2/145 186/2/145 185/2/145
f 192/2/146 186/2/146 191/2/146
f 193/2/147 187/2/147 192/2/147
f 228/2/90 227/2/90 229/2/90
f 230/2/91 231/2/91 226/2/91
f 195/2/148 192/2/148 191/2/148
f 195/2/149 191/2/149 190/2/149
f 195/2/150 190/2/150 189/2/150
f 195/2/151 189/2/151 213/2/151
f 169/2/152 197/2/152 194/2/152
f 170/2/153 199/2/153 169/2/153
f 170/2/154 196/2/154 199/2/154
f 172/2/155 196/2/155 171/2/155
f 173/2/156 196/2/156 172/2/156
f 174/2/157 197/2/157 198/2/157
f 194/2/100 197/2/100 175/2/100
f 211/2/158 198/2/158 197/2/158
f 212/2/159 196/2/159 198/2/159
f 228/2/160 199/2/160 196/2/160
f 211/2/104 197/2/104 199/2/104
f 201/2/161 200/2/161 176/2/161
f 178/2/162 201/2/162 177/2/162
f 180/2/163 181/2/163 179/2/163
f 201/2/164 202/2/164 200/2/164
f 178/2/165 204/2/165 201/2/165
f 179/2/166 204/2/166 178/2/166
f 181/2/167 206/2/167 179/2/167
f 181/2/168 202/2/168 206/2/168
f 203/2/169 207/2/169 202/2/169
f 204/2/170 209/2/170 208/2/170
f 205/2/171 209/2/171 204/2/171
f 206/2/172 209/2/172 205/2/172
f 206/2/173 207/2/173 210/2/173
f 207/2/174 208/2/174 210/2/174
f 208/2/175 209/2/175 210/2/175
f 194/2/176 174/2/176 169/2/176
f 174/2/177 172/2/177 171/2/177
f 174/2/178 170/2/178 169/2/178
f 215/3/122 214/3/122 216/3/122
f 215/3/123 216/3/123 217/3/123
f 219/3/124 218/3/124 220/3/124
f 219/3/125 220/3/125 221/3/125
f 223/3/126 222/3/126 224/3/126
f 223/3/127 224/3/127 225/3/127
f 211/2/128 226/2/128 212/2/128
f 213/2/179 227/2/179 231/2/179
f 212/2/130 226/2/130 228/2/130
f 195/2/180 227/2/180 192/2/180
f 228/2/132 230/2/132 211/2/132
f 195/2/133 231/2/133 229/2/133
f 211/2/134 230/2/134 226/2/134
f 183/2/181 200/2/181 182/2/181
f 184/2/182 176/2/182 183/2/182
f 190/2/183 201/2/183 184/2/183
f 185/2/184 177/2/184 190/2/184
f 185/2/185 179/2/185 178/2/185
f 187/2/186 179/2/186 186/2/186
f 188/2/187 180/2/187 187/2/187
f 182/2/188 181/2/188 188/2/188
f 233/3/84 232/3/84 234/3/84
f 233/3/85 234/3/85 235/3/85
f 259/2/189 251/2/189 258/2/189
f 259/2/190 254/2/190 253/2/190
f 260/2/191 255/2/191 254/2/191
f 261/2/192 255/2/192 260/2/192
f 261/2/193 250/2/193 257/2/193
f 295/2/194 294/2/194 264/2/194
f 296/2/91 297/2/91 293/2/91
f 263/2/195 258/2/195 261/2/195
f 264/2/196 260/2/196 259/2/196
f 264/2/197 258/2/197 263/2/197
f 236/2/152 266/2/152 262/2/152
f 237/2/153 268/2/153 236/2/153
f 237/2/154 265/2/154 268/2/154
f 239/2/155 265/2/155 238/2/155
f 240/2/156 265/2/156 239/2/156
f 241/2/157 266/2/157 267/2/157
f 262/2/100 266/2/100 242/2/100
f 279/2/158 267/2/158 266/2/158
f 280/2/159 265/2/159 267/2/159
f 295/2/160 268/2/160 265/2/160
f 279/2/104 266/2/104 268/2/104
f 246/2/198 247/2/198 245/2/198
f 269/2/199 271/2/199 270/2/199
f 245/2/200 272/2/200 244/2/200
f 247/2/201 273/2/201 245/2/201
f 247/2/202 274/2/202 273/2/202
f 269/2/203 270/2/203 249/2/203
f 271/2/204 275/2/204 270/2/204
f 272/2/205 275/2/205 271/2/205
f 273/2/206 276/2/206 272/2/206
f 274/2/207 277/2/207 273/2/207
f 270/2/208 278/2/208 274/2/208
f 270/2/209 275/2/209 278/2/209
f 275/2/117 276/2/117 278/2/117
f 276/2/210 277/2/210 278/2/210
f 262/2/176 241/2/176 236/2/176
f 241/2/177 239/2/177 238/2/177
f 241/2/178 237/2/178 236/2/178
f 282/3/122 281/3/122 283/3/122
f 282/3/123 283/3/123 284/3/123
f 286/3/124 285/3/124 287/3/124
f 286/3/125 287/3/125 288/3/125
f 290/3/126 289/3/126 291/3/126
f 290/3/127 291/3/127 292/3/127
f 279/2/128 293/2/128 280/2/128
f 263/2/211 294/2/211 297/2/211
f 280/2/130 293/2/130 295/2/130
f 264/2/212 294/2/212 260/2/212
f 295/2/132 296/2/132 279/2/132
f 279/2/134 296/2/134 293/2/134
f 250/2/213 243/2/213 269/2/213
f 252/2/214 243/2/214 251/2/214
f 253/2/215 244/2/215 252/2/215
f 254/2/216 245/2/216 253/2/216
f 254/2/217 247/2/217 246/2/217
f 256/2/218 247/2/218 255/2/218
f 257/2/219 248/2/219 256/2/219
f 257/2/220 269/2/220 249/2/220
f 7/1/221 6/1/221 4/1/221
f 5/1/222 19/1/222 3/1/222
f 8/1/223 1/1/223 2/1/223
f 11/2/224 10/2/224 24/2/224
f 21/2/225 9/2/225 17/2/225
f 13/2/226 20/2/226 19/2/226
f 2/1/227 1/1/227 17/1/227
f 18/2/228 29/2/228 16/2/228
f 22/1/229 1/1/229 8/1/229
f 17/1/230 1/1/230 22/1/230
f 13/1/231 27/1/231 26/1/231
f 26/1/232 27/1/232 25/1/232
f 31/1/233 30/1/233 29/1/233
f 6/1/16 7/1/16 32/1/16
f 3/1/234 19/1/234 36/1/234
f 28/1/235 32/1/235 23/1/235
f 22/1/236 23/1/236 36/1/236
f 32/1/237 7/1/237 3/1/237
f 12/2/238 17/2/238 33/2/238
f 19/2/239 20/2/239 41/2/239
f 10/2/240 34/2/240 46/2/240
f 12/1/241 30/1/241 31/1/241
f 29/2/242 50/2/242 35/2/242
f 42/1/243 37/1/243 39/1/243
f 38/1/244 37/1/244 42/1/244
f 47/1/245 39/1/245 62/1/245
f 43/1/246 38/1/246 42/1/246
f 44/1/247 43/1/247 45/1/247
f 62/1/248 44/1/248 45/1/248
f 36/2/249 41/2/249 40/2/249
f 46/2/250 34/2/250 35/2/250
f 45/1/251 42/1/251 48/1/251
f 42/1/252 47/1/252 49/1/252
f 51/1/253 47/1/253 45/1/253
f 26/1/254 52/1/254 41/1/254
f 26/1/255 24/1/255 46/1/255
f 30/1/256 53/1/256 50/1/256
f 55/1/257 48/1/257 49/1/257
f 51/1/258 48/1/258 54/1/258
f 55/1/259 56/1/259 57/1/259
f 49/1/260 51/1/260 58/1/260
f 55/1/261 59/1/261 56/1/261
f 63/1/262 59/1/262 60/1/262
f 54/1/263 57/1/263 61/1/263
f 60/1/264 59/1/264 55/1/264
f 54/1/265 61/1/265 60/1/265
f 40/1/266 41/1/266 52/1/266
f 52/1/267 46/1/267 50/1/267
f 40/1/268 53/1/268 30/1/268
f 6/1/16 28/1/16 8/1/16
f 2/1/269 9/1/269 79/1/269
f 5/1/270 4/1/270 67/1/270
f 25/1/271 27/1/271 86/1/271
f 18/2/272 15/2/272 69/2/272
f 65/1/273 2/1/273 66/1/273
f 67/1/274 4/1/274 6/1/274
f 31/1/275 75/1/275 82/1/275
f 13/1/276 80/1/276 86/1/276
f 5/2/277 70/2/277 80/2/277
f 67/1/278 66/1/278 79/1/278
f 85/1/279 73/1/279 96/1/279
f 96/1/280 76/1/280 83/1/280
f 81/1/281 74/1/281 73/1/281
f 21/2/282 82/2/282 79/2/282
f 76/1/283 78/1/283 83/1/283
f 77/1/284 74/1/284 81/1/284
f 78/1/285 77/1/285 81/1/285
f 84/1/286 66/1/286 67/1/286
f 8/1/16 65/1/16 84/1/16
f 83/1/287 81/1/287 88/1/287
f 87/1/288 85/1/288 83/1/288
f 81/1/289 85/1/289 89/1/289
f 71/2/290 68/2/290 11/2/290
f 18/1/291 72/1/291 75/1/291
f 72/2/292 69/2/292 68/2/292
f 87/1/293 88/1/293 93/1/293
f 93/1/294 90/1/294 91/1/294
f 93/1/295 91/1/295 99/1/295
f 98/1/296 88/1/296 89/1/296
f 98/1/297 92/1/297 90/1/297
f 89/1/298 87/1/298 97/1/298
f 99/1/299 95/1/299 97/1/299
f 70/2/300 79/2/300 82/2/300
f 98/1/301 94/1/301 92/1/301
f 95/1/302 94/1/302 98/1/302
f 75/1/303 72/1/303 71/1/303
f 75/1/304 86/1/304 80/1/304
f 146/2/305 124/2/305 118/2/305
f 124/2/306 119/2/306 118/2/306
f 125/2/307 120/2/307 119/2/307
f 125/2/308 121/2/308 120/2/308
f 127/2/309 122/2/309 126/2/309
f 127/2/310 123/2/310 122/2/310
f 146/2/311 117/2/311 123/2/311
f 159/2/312 164/2/312 160/2/312
f 161/2/313 159/2/313 160/2/313
f 163/2/314 161/2/314 162/2/314
f 163/2/315 162/2/315 164/2/315
f 129/2/316 126/2/316 125/2/316
f 104/2/317 133/2/317 131/2/317
f 104/2/318 105/2/318 133/2/318
f 105/2/319 106/2/319 130/2/319
f 107/2/320 108/2/320 132/2/320
f 108/2/321 109/2/321 132/2/321
f 109/2/322 110/2/322 131/2/322
f 144/2/323 145/2/323 132/2/323
f 145/2/324 161/2/324 130/2/324
f 161/2/325 144/2/325 133/2/325
f 135/2/326 137/2/326 136/2/326
f 113/2/327 138/2/327 137/2/327
f 114/2/328 139/2/328 138/2/328
f 116/2/329 140/2/329 139/2/329
f 134/2/330 136/2/330 140/2/330
f 137/2/331 142/2/331 141/2/331
f 139/2/332 143/2/332 138/2/332
f 140/2/333 136/2/333 141/2/333
f 128/2/334 110/2/334 109/2/334
f 109/2/335 108/2/335 107/2/335
f 109/2/336 106/2/336 105/2/336
f 146/2/337 127/2/337 160/2/337
f 129/2/338 162/2/338 160/2/338
f 129/2/339 146/2/339 164/2/339
f 117/2/340 118/2/340 111/2/340
f 119/2/341 135/2/341 111/2/341
f 119/2/342 120/2/342 112/2/342
f 121/2/343 113/2/343 112/2/343
f 121/2/344 126/2/344 114/2/344
f 122/2/345 115/2/345 114/2/345
f 122/2/346 123/2/346 116/2/346
f 117/2/347 134/2/347 116/2/347
f 189/2/348 183/2/348 182/2/348
f 189/2/349 184/2/349 183/2/349
f 190/2/350 191/2/350 185/2/350
f 192/2/351 187/2/351 186/2/351
f 193/2/352 188/2/352 187/2/352
f 193/2/353 182/2/353 188/2/353
f 226/2/312 231/2/312 227/2/312
f 228/2/313 226/2/313 227/2/313
f 230/2/314 228/2/314 229/2/314
f 230/2/315 229/2/315 231/2/315
f 192/2/354 213/2/354 193/2/354
f 213/2/355 189/2/355 193/2/355
f 169/2/356 199/2/356 197/2/356
f 170/2/357 171/2/357 196/2/357
f 173/2/358 198/2/358 196/2/358
f 173/2/359 174/2/359 198/2/359
f 174/2/322 175/2/322 197/2/322
f 211/2/360 212/2/360 198/2/360
f 212/2/361 228/2/361 196/2/361
f 228/2/325 211/2/325 199/2/325
f 201/2/362 203/2/362 202/2/362
f 201/2/363 204/2/363 203/2/363
f 179/2/364 205/2/364 204/2/364
f 179/2/365 206/2/365 205/2/365
f 181/2/366 200/2/366 202/2/366
f 203/2/367 208/2/367 207/2/367
f 203/2/368 204/2/368 208/2/368
f 206/2/369 210/2/369 209/2/369
f 206/2/370 202/2/370 207/2/370
f 194/2/334 175/2/334 174/2/334
f 174/2/371 173/2/371 172/2/371
f 174/2/372 171/2/372 170/2/372
f 213/2/373 192/2/373 227/2/373
f 195/2/338 229/2/338 227/2/338
f 195/2/374 213/2/374 231/2/374
f 183/2/375 176/2/375 200/2/375
f 184/2/376 201/2/376 176/2/376
f 190/2/377 177/2/377 201/2/377
f 185/2/378 178/2/378 177/2/378
f 185/2/379 186/2/379 179/2/379
f 187/2/380 180/2/380 179/2/380
f 188/2/381 181/2/381 180/2/381
f 182/2/382 200/2/382 181/2/382
f 258/2/383 251/2/383 250/2/383
f 259/2/384 252/2/384 251/2/384
f 259/2/385 253/2/385 252/2/385
f 259/2/386 260/2/386 254/2/386
f 261/2/387 256/2/387 255/2/387
f 261/2/388 257/2/388 256/2/388
f 261/2/389 258/2/389 250/2/389
f 293/2/312 297/2/312 294/2/312
f 295/2/313 293/2/313 294/2/313
f 296/2/390 295/2/390 264/2/390
f 296/2/391 264/2/391 297/2/391
f 263/2/392 261/2/392 260/2/392
f 264/2/393 259/2/393 258/2/393
f 236/2/356 268/2/356 266/2/356
f 237/2/357 238/2/357 265/2/357
f 240/2/358 267/2/358 265/2/358
f 240/2/359 241/2/359 267/2/359
f 241/2/322 242/2/322 266/2/322
f 279/2/394 280/2/394 267/2/394
f 280/2/361 295/2/361 265/2/361
f 295/2/325 279/2/325 268/2/325
f 269/2/395 243/2/395 244/2/395
f 248/2/396 249/2/396 247/2/396
f 269/2/397 244/2/397 271/2/397
f 244/2/398 272/2/398 271/2/398
f 245/2/399 273/2/399 272/2/399
f 247/2/400 249/2/400 274/2/400
f 249/2/401 270/2/401 274/2/401
f 272/2/331 276/2/331 275/2/331
f 273/2/402 277/2/402 276/2/402
f 274/2/403 278/2/403 277/2/403
f 262/2/334 242/2/334 241/2/334
f 241/2/371 240/2/371 239/2/371
f 241/2/372 238/2/372 237/2/372
f 263/2/404 260/2/404 294/2/404
f 264/2/405 263/2/405 297/2/405
f 250/2/406 251/2/406 243/2/406
f 252/2/407 244/2/407 243/2/407
f 253/2/408 245/2/408 244/2/408
f 254/2/409 246/2/409 245/2/409
f 254/2/410 255/2/410 247/2/410
f 256/2/411 248/2/411 247/2/411
f 257/2/412 249/2/412 248/2/412
f 257/2/413 250/2/413 269/2/413
