# Blender 5.2.2 LTS
# www.blender.org
mtllib ruins_kr_floor_b.mtl
o piece
v 2.500000 2.500000 -0.015370
v -2.500000 2.500000 -0.015370
v 2.500000 -2.500000 -0.015370
v -2.500000 -2.500000 -0.015370
v -0.516624 2.500000 -0.015370
v -0.516624 -2.500000 -0.015370
v -1.662415 2.500000 -0.015370
v -2.500000 0.000000 -0.015370
v -1.662415 0.000000 -0.015370
v -2.500000 0.864281 -0.015370
v -1.662415 0.864281 -0.015370
v -0.516624 0.864281 -0.015370
v -0.516624 -1.250000 -0.015370
v 2.500000 -1.250000 -0.015370
v 0.718887 -2.500000 -0.015370
v 0.718887 -1.250000 -0.015370
v 0.718887 0.864281 -0.015370
v 0.718887 2.500000 -0.015370
v 1.609444 -1.250000 -0.015370
v 1.609444 1.605698 -0.015370
v 1.609444 2.500000 -0.015370
v -1.662415 1.682144 -0.015370
v -0.516624 1.682144 -0.015370
v 0.688004 2.459106 0.015370
v -0.485741 2.459106 0.015370
v -0.485741 0.905174 0.015370
v 0.688004 0.905174 0.015370
v -0.545273 2.448311 0.015370
v -1.633774 2.448311 0.015370
v -1.633774 1.733833 0.015370
v -0.545273 1.733833 0.015370
v -1.683357 2.459106 0.015370
v -2.479065 2.459106 0.015370
v -2.479065 0.905174 0.015370
v -1.683357 0.905174 0.015370
v -2.479065 0.842674 0.015370
v -1.683357 0.842674 0.015370
v -2.479065 0.021606 0.015370
v -1.683357 0.021606 0.015370
v 0.666275 -1.190994 0.015370
v 0.666275 0.817574 0.015370
v -1.595963 0.817574 0.015370
v -1.595963 -0.003495 0.015370
v -0.507462 -1.190994 0.015370
v -0.485741 -1.281250 0.015370
v 0.688004 -1.281250 0.015370
v -0.485741 -2.468750 0.015370
v 0.688004 -2.468750 0.015370
v 0.763412 -1.281250 0.015370
v 0.763412 -2.468750 0.015370
v 2.455475 -2.468750 0.015370
v 2.455475 -1.281250 0.015370
v 1.561768 -1.184525 0.015370
v 1.561768 1.487968 0.015370
v 0.771271 0.824043 0.015370
v 0.771271 -1.184525 0.015370
v 1.583572 1.615433 0.015370
v 1.583572 2.465027 0.015370
v 0.737541 2.465027 0.015370
v 0.737541 0.911095 0.015370
v -1.660820 -0.069474 0.015370
v -0.572311 -1.256973 0.015370
v -2.456520 -0.069474 0.015370
v -2.456520 -2.444481 0.015370
v -0.572311 -2.444481 0.015370
v 2.442200 2.406250 0.015370
v 2.442200 -1.156250 0.015370
v 1.667244 2.406250 0.015370
v 1.667244 -1.156250 0.015370
v -1.633774 1.636856 0.015370
v -0.545273 1.636856 0.015370
v -1.633774 0.909569 0.015370
v -0.545273 0.909569 0.015370
vn -0.0000 -0.0000 1.0000
vn -0.0000 0.6009 0.7993
vn -0.0000 0.5498 0.8353
vn -0.0000 -0.6009 0.7993
vn 0.7055 -0.0000 0.7088
vn -0.0000 0.5111 0.8595
vn -0.7317 -0.0000 0.6817
vn -0.0000 -0.5111 0.8595
vn 0.7316 -0.0000 0.6818
vn -0.0000 -0.7013 0.7129
vn -0.8265 -0.0000 0.5629
vn -0.0000 0.8181 0.5750
vn -0.0000 -0.8181 0.5750
vn 0.8264 -0.0000 0.5630
vn 0.5045 -0.0000 0.8634
vn -0.4198 -0.0000 0.9076
vn -0.4058 -0.3719 0.8349
vn -0.0000 -0.4620 0.8869
vn -0.0000 0.7013 0.7129
vn -0.7055 -0.0000 0.7088
vn -0.5681 -0.0000 0.8229
vn -0.4696 -0.0000 0.8829
vn 0.5681 -0.0000 0.8229
vn 0.5419 -0.0000 0.8404
vn -0.2918 0.3505 0.8899
vn -0.5061 -0.0000 0.8625
vn -0.0000 -0.4250 0.9052
vn 0.7651 -0.0000 0.6439
vn -0.0000 0.6602 0.7511
vn -0.8549 -0.0000 0.5188
vn 0.5040 -0.6054 0.6161
vn 0.4110 0.3768 0.8301
vn -0.0000 0.4046 0.9145
vn 0.4833 -0.0000 0.8755
vn 0.4696 -0.0000 0.8829
vn -0.0000 0.3116 0.9502
vn -0.0000 -0.4844 0.8749
vn -0.0000 -0.3116 0.9502
vn -0.0000 0.5616 0.8274
vn -0.7316 -0.0000 0.6817
vn -0.0000 -0.5616 0.8274
vn -0.5773 -0.0000 0.8165
vn -0.2767 0.3294 0.9027
vn 0.5040 -0.6054 0.6159
vn 0.4110 0.3767 0.8301
vt 0.375000 0.625000
vt 0.625000 0.875000
vt 0.375000 0.875000
s 0
usemtl ruins_kr_floor_b
f 25/1/1 27/1/1 24/1/1
f 29/1/1 31/1/1 28/1/1
f 33/2/1 35/2/1 32/2/1
f 36/2/1 39/2/1 37/2/1
f 41/1/1 43/1/1 44/1/1
f 45/2/1 48/2/1 46/2/1
f 50/1/1 52/1/1 49/1/1
f 53/2/1 55/2/1 56/2/1
f 57/1/1 59/1/1 60/1/1
f 61/1/1 63/1/1 64/1/1
f 66/1/1 69/1/1 67/1/1
f 70/1/1 73/1/1 71/1/1
f 18/3/2 25/3/2 24/3/2
f 41/3/3 17/3/3 12/3/3
f 17/3/4 26/3/4 12/3/4
f 18/3/5 27/3/5 17/3/5
f 7/3/6 28/3/6 5/3/6
f 7/3/7 30/3/7 29/3/7
f 22/3/8 31/3/8 30/3/8
f 5/3/9 31/3/9 23/3/9
f 3/3/10 50/3/10 15/3/10
f 2/3/2 32/3/2 7/3/2
f 10/3/11 33/3/11 2/3/11
f 10/3/4 35/3/4 34/3/4
f 10/3/12 37/3/12 11/3/12
f 10/3/11 38/3/11 36/3/11
f 8/3/13 39/3/13 38/3/13
f 9/3/14 37/3/14 39/3/14
f 17/3/15 40/3/15 16/3/15
f 22/3/14 32/3/14 35/3/14
f 9/3/16 42/3/16 11/3/16
f 13/3/17 43/3/17 9/3/17
f 13/3/18 40/3/18 44/3/18
f 16/3/19 45/3/19 46/3/19
f 6/3/20 45/3/20 13/3/20
f 15/3/10 47/3/10 6/3/10
f 16/3/5 48/3/5 15/3/5
f 25/3/20 5/3/20 23/3/20
f 15/3/21 49/3/21 16/3/21
f 68/3/22 20/3/22 69/3/22
f 14/3/23 51/3/23 3/3/23
f 19/3/24 54/3/24 53/3/24
f 17/3/25 54/3/25 20/3/25
f 17/3/26 56/3/26 55/3/26
f 19/3/27 56/3/27 16/3/27
f 20/3/28 58/3/28 57/3/28
f 18/3/29 58/3/29 21/3/29
f 18/3/30 60/3/30 59/3/30
f 20/3/31 60/3/31 17/3/31
f 13/3/32 61/3/32 62/3/32
f 9/3/33 63/3/33 61/3/33
f 19/3/19 49/3/19 52/3/19
f 13/3/34 65/3/34 6/3/34
f 1/3/35 67/3/35 14/3/35
f 21/3/36 66/3/36 1/3/36
f 4/3/37 65/3/37 64/3/37
f 14/3/38 69/3/38 19/3/38
f 22/3/39 71/3/39 23/3/39
f 11/3/40 70/3/40 22/3/40
f 11/3/41 73/3/41 72/3/41
f 23/3/9 73/3/9 12/3/9
f 4/3/42 63/3/42 8/3/42
f 25/1/1 26/1/1 27/1/1
f 29/1/1 30/1/1 31/1/1
f 33/2/1 34/2/1 35/2/1
f 36/2/1 38/2/1 39/2/1
f 44/1/1 40/1/1 41/1/1
f 41/1/1 42/1/1 43/1/1
f 45/2/1 47/2/1 48/2/1
f 50/1/1 51/1/1 52/1/1
f 53/2/1 54/2/1 55/2/1
f 57/1/1 58/1/1 59/1/1
f 65/1/1 62/1/1 64/1/1
f 62/1/1 61/1/1 64/1/1
f 66/1/1 68/1/1 69/1/1
f 70/1/1 72/1/1 73/1/1
f 18/3/2 5/3/2 25/3/2
f 12/3/3 11/3/3 42/3/3
f 42/3/3 41/3/3 12/3/3
f 17/3/4 27/3/4 26/3/4
f 18/3/5 24/3/5 27/3/5
f 7/3/6 29/3/6 28/3/6
f 7/3/40 22/3/40 30/3/40
f 22/3/8 23/3/8 31/3/8
f 5/3/9 28/3/9 31/3/9
f 3/3/10 51/3/10 50/3/10
f 2/3/2 33/3/2 32/3/2
f 10/3/11 34/3/11 33/3/11
f 10/3/4 11/3/4 35/3/4
f 10/3/12 36/3/12 37/3/12
f 10/3/11 8/3/11 38/3/11
f 8/3/13 9/3/13 39/3/13
f 9/3/14 11/3/14 37/3/14
f 17/3/15 41/3/15 40/3/15
f 35/3/14 11/3/14 22/3/14
f 22/3/14 7/3/14 32/3/14
f 9/3/16 43/3/16 42/3/16
f 13/3/17 44/3/17 43/3/17
f 13/3/18 16/3/18 40/3/18
f 16/3/19 13/3/19 45/3/19
f 6/3/20 47/3/20 45/3/20
f 15/3/10 48/3/10 47/3/10
f 16/3/5 46/3/5 48/3/5
f 23/3/20 12/3/20 26/3/20
f 26/3/20 25/3/20 23/3/20
f 15/3/21 50/3/21 49/3/21
f 21/3/22 20/3/22 68/3/22
f 20/3/22 19/3/22 69/3/22
f 14/3/23 52/3/23 51/3/23
f 19/3/24 20/3/24 54/3/24
f 17/3/43 55/3/43 54/3/43
f 17/3/26 16/3/26 56/3/26
f 19/3/27 53/3/27 56/3/27
f 20/3/28 21/3/28 58/3/28
f 18/3/29 59/3/29 58/3/29
f 18/3/30 17/3/30 60/3/30
f 20/3/44 57/3/44 60/3/44
f 13/3/45 9/3/45 61/3/45
f 9/3/33 8/3/33 63/3/33
f 52/3/19 14/3/19 19/3/19
f 19/3/19 16/3/19 49/3/19
f 13/3/34 62/3/34 65/3/34
f 1/3/35 66/3/35 67/3/35
f 21/3/36 68/3/36 66/3/36
f 4/3/37 6/3/37 65/3/37
f 14/3/38 67/3/38 69/3/38
f 22/3/39 70/3/39 71/3/39
f 11/3/7 72/3/7 70/3/7
f 11/3/41 12/3/41 73/3/41
f 23/3/9 71/3/9 73/3/9
f 4/3/42 64/3/42 63/3/42
