# Blender 5.2.2 LTS
# www.blender.org
mtllib ruins_cv_ceiling_a.mtl
o piece
v 2.454846 -0.630880 -0.187773
v 1.960670 -1.339348 -0.122265
v 1.538686 0.929353 0.571189
v 1.679020 -0.701789 0.511361
v 1.717484 1.294641 0.241689
v 1.206323 -1.904403 0.443324
v 1.383309 1.564535 0.413796
v 1.428107 -0.781442 -0.307282
v 1.025505 -1.105814 0.557010
v 1.196617 -1.610228 -0.329834
v 0.968070 1.041971 0.570888
v 0.924646 -0.197067 0.511099
v 1.007464 2.150462 0.030816
v 0.587375 -0.754982 0.623826
v 0.488977 0.872288 0.725552
v 0.987060 0.549754 -0.396514
v 0.369362 2.204582 0.367320
v 0.180569 -1.426707 -0.555028
v -0.279295 2.494060 0.118264
v 0.220148 -1.637237 -0.560698
v -0.126945 0.647190 -0.400143
v -0.438634 -2.409185 0.296368
v -0.020125 -1.382426 -0.625754
v -0.218107 -1.612980 -0.753776
v -0.347581 1.552997 -0.317633
v -0.425406 -2.476583 -0.076314
v -0.323030 1.273299 -0.429338
v -0.286425 -2.457035 -0.432917
v -0.341839 -1.907201 -0.647144
v -0.530762 1.589015 -0.432261
v -0.398483 -2.129622 -0.633168
v -0.712935 -2.410385 0.255691
v -0.488050 -2.109442 -0.609143
v -0.509556 -1.914630 -0.677847
v -0.838320 -2.117825 -0.092318
v -0.952691 -0.116596 0.460843
v -0.369239 -0.583825 -0.450215
v -0.767564 1.739689 -0.378488
v -1.062961 -1.843519 -0.539649
v -1.039167 1.524070 -0.383894
v -1.416765 2.157199 0.472170
v -1.017031 -0.345477 -0.425951
v -1.425661 2.251957 -0.062304
v -1.508135 -0.654557 0.354096
v -1.689407 -0.146706 0.447322
v -1.806145 0.422020 0.473800
v -1.823078 0.288814 -0.483269
v -1.784271 -0.074836 0.440188
v -1.688362 -2.024527 -0.276325
v -1.885749 -1.513756 0.252584
v -2.232590 0.139527 0.445018
v -1.775425 -1.626536 -0.504179
v -1.940876 -0.759807 -0.422792
v -2.205261 0.640705 0.375415
v -2.124863 -0.784332 -0.237416
v -2.390923 0.785441 -0.291634
v -2.498761 0.445167 -0.300194
v 0.487224 -0.595906 0.629450
v 0.254849 -2.349415 -0.499718
v 0.545756 1.460581 0.720008
v 0.399823 -1.634160 0.738725
v 0.694981 2.004893 0.338289
v 0.556462 -0.205772 -0.320439
v 0.563517 1.881660 -0.432768
v 0.647725 2.150706 -0.154922
v 0.586661 -1.975794 0.235124
v 0.471286 0.052021 0.466738
v 0.562216 2.118083 0.333055
v 0.639676 2.245933 0.072395
v 0.492874 -0.434431 0.616646
v 0.668558 0.773211 -0.480241
v 0.230415 0.081521 0.651890
v 0.381560 -0.032036 0.498514
v 0.408944 -2.147375 -0.534315
v 0.550334 1.964665 -0.331973
v 0.102712 0.966110 0.734688
v 0.777703 1.499731 -0.545182
v 0.463929 2.060993 -0.184271
v 0.255828 -0.863469 0.604593
v -0.122628 2.247765 0.606193
v 0.128366 0.233283 0.699841
v 0.098803 -1.318042 0.583335
v 0.476275 1.607698 -0.501352
v 0.477160 -1.277259 -0.483771
v 0.354376 -0.624736 -0.269475
v 0.104422 0.176877 0.545659
v 0.236724 -0.029052 0.507483
v 0.036441 0.581493 0.724602
v 0.503667 1.778775 -0.474563
v -0.431386 -2.286119 0.512104
v 0.117372 -1.848258 0.733486
v 0.248069 -0.707217 -0.348089
v 0.105904 2.328254 -0.188873
v -0.239157 -1.616001 0.566005
v -0.049990 0.716977 0.679500
v 0.177320 -0.293562 -0.412905
v 0.353269 -0.337784 -0.294798
v 0.243925 -0.234250 0.547038
v -0.504346 -1.556925 0.563543
v 0.089291 -2.446675 -0.431228
v -0.071835 -0.037865 0.426423
v 0.188693 1.528094 -0.440661
v 0.020358 -1.474087 -0.605685
v -0.094437 -1.740829 -0.622721
v 0.047330 -0.368991 -0.275989
v 0.189966 1.718585 -0.288974
v 0.026437 -1.281638 -0.410745
v -0.489518 1.963980 0.603528
v 0.145057 1.822513 -0.243634
v -0.014169 -2.123981 -0.520279
v -0.151529 -2.497435 -0.427883
v 0.384182 0.037103 -0.385781
v -0.162651 0.690353 0.597831
v -0.128798 -1.009945 -0.490991
v 0.047272 -2.462798 -0.336552
v -0.488495 2.148247 0.562181
v -0.128382 -1.622090 -0.732391
v -0.175518 -1.186958 -0.590229
v -0.138788 -0.850328 -0.363421
v -0.170360 -0.707486 -0.314957
v -0.108805 0.375703 -0.417831
v -0.349148 -0.212734 0.473698
v -0.413884 1.486850 0.653849
v -0.238241 -0.573803 -0.352241
v -0.385376 2.497435 0.068272
v -0.395340 2.287834 0.479537
v -0.266544 2.398369 -0.218973
v -0.412390 0.895975 0.555194
v -0.489509 0.116310 0.498424
v -0.526444 -0.176565 0.553913
v -0.531201 1.851644 0.439889
v -0.245540 -0.878638 -0.551563
v -0.443940 -2.462288 -0.203411
v -0.634073 -0.430532 -0.478262
v -0.577466 -0.982098 0.536774
v -0.557321 -2.430270 0.130406
v -0.496392 2.328762 0.211933
v -0.564890 0.968485 0.426897
v -0.693087 0.219476 0.511550
v -0.698539 -0.000365 0.545517
v -0.334547 -0.424002 -0.424294
v -0.428851 0.215053 -0.490692
v -0.918164 0.773178 0.478203
v -0.763159 0.738098 0.521594
v -0.326660 -1.070765 -0.664782
v -0.543415 2.080372 0.352277
v -0.521407 -0.896428 -0.572750
v -0.698180 1.996632 0.417890
v -0.680509 -2.270586 0.445977
v -0.810467 -0.450828 0.545993
v -0.709038 -1.820663 -0.597951
v -0.547213 -0.290250 -0.523495
v -0.632819 -2.225932 -0.184407
v -1.055744 0.160728 -0.473337
v -0.977483 2.183385 -0.023326
v -0.737807 2.231998 0.167150
v -0.859556 2.253927 0.098104
v -0.801206 -2.219842 0.142613
v -0.855330 -1.226453 0.486750
v -0.519934 1.675502 -0.312517
v -1.102421 2.445854 0.241147
v -0.669748 -0.833134 -0.479647
v -0.898095 -2.177456 0.352885
v -1.000744 -0.358519 0.406501
v -1.121468 1.392960 0.377233
v -0.659788 -1.711099 -0.672767
v -0.706025 0.889985 -0.486402
v -0.721042 -1.906104 -0.455374
v -0.924782 1.838531 -0.291658
v -0.877219 2.303608 0.162699
v -1.094712 -0.623778 0.371926
v -0.916006 -1.496210 -0.529192
v -0.932987 -1.228608 -0.539579
v -1.345386 -2.091770 0.256340
v -0.526690 2.304160 -0.237219
v -1.041990 -1.096773 0.427138
v -1.246367 1.875988 -0.242470
v -1.164560 2.372423 0.392354
v -0.925251 2.304583 0.390118
v -1.025561 -0.958137 -0.547689
v -0.861054 -0.185034 -0.518051
v -0.993616 1.016267 -0.442575
v -1.185335 -1.187897 0.420214
v -0.983582 1.273819 -0.432628
v -1.297722 0.654688 0.493518
v -1.297297 1.555911 -0.443578
v -1.381324 2.359480 0.221044
v -1.298495 1.254920 0.416510
v -1.083033 -1.615825 -0.547546
v -1.390697 -2.159474 0.106995
v -1.387756 -0.252819 0.477417
v -1.075194 -0.939269 -0.572605
v -1.088873 -0.716243 -0.431332
v -1.431162 2.267057 0.416064
v -1.476558 -0.352367 0.358342
v -1.071152 -1.358388 -0.643804
v -1.325110 -1.919787 -0.551610
v -1.255386 2.086296 -0.146566
v -1.349079 1.381648 -0.489867
v -1.240174 -2.015054 -0.484073
v -1.384017 -1.531690 -0.562060
v -1.750897 1.979074 0.290181
v -1.627180 2.040658 0.472308
v -1.656802 1.605093 0.449269
v -1.550014 1.304110 -0.564012
v -1.477534 1.018841 -0.452864
v -1.790882 1.746418 0.408394
v -1.355469 -0.924882 -0.555244
v -1.782328 -0.164996 -0.481806
v -1.538223 1.785082 -0.447239
v -1.777910 -0.319559 0.446068
v -1.759943 -1.851368 0.175853
v -1.565231 -2.105443 0.105406
v -1.745806 0.649384 -0.456021
v -1.895321 1.782399 0.288468
v -1.660523 1.875982 -0.359515
v -1.593938 -1.826681 -0.541104
v -1.871854 0.952631 -0.549020
v -2.013243 0.079393 0.488616
v -1.824210 -0.628513 -0.473658
v -1.723220 -2.012707 -0.119587
v -1.800870 -1.348732 -0.526108
v -1.509427 -1.056798 -0.623593
v -1.814005 1.367337 -0.553537
v -2.100062 1.381939 0.427159
v -1.684263 -1.917686 -0.478221
v -1.874103 -1.681797 -0.083087
v -2.045488 -0.766067 0.352873
v -2.381442 0.392228 -0.427933
v -1.995836 -0.261955 0.421752
v -2.285440 1.264927 0.378329
v -2.118917 -0.792854 0.291223
v -2.012372 -0.971411 -0.139588
v -2.211055 -0.346605 0.421867
v -1.891039 -0.861657 -0.477393
v -1.797749 -1.849654 -0.343646
v -2.400155 0.958247 0.310395
v -1.964914 -0.900073 -0.269635
v -2.195146 1.163533 -0.176415
v -2.282308 -0.228387 0.385934
v -2.389714 0.367654 0.395873
v -2.073743 1.100848 -0.488102
v -2.474876 0.553088 0.199988
v -2.232181 -0.600484 -0.241011
v -2.465423 0.749716 0.088245
v -2.461494 0.914683 0.267422
v -2.390986 0.619749 -0.432608
v -2.209756 -0.470746 -0.352623
v -2.477676 0.200736 -0.338017
v 2.378214 -0.812237 -0.107176
v 2.403180 -0.801272 -0.352176
v 2.349486 -0.747058 0.090618
v 2.175884 -0.514880 0.407212
v 2.109545 0.460977 0.248163
v 2.120518 0.180823 0.427802
v 2.292986 0.218150 -0.170620
v 2.211311 -0.953138 -0.384879
v 2.093944 0.546209 0.509543
v 2.256551 -1.053254 -0.202307
v 1.928552 -1.283751 0.418801
v 2.024735 0.104185 0.662912
v 2.070283 0.488467 -0.030492
v 1.838775 1.002647 0.538188
v 1.509638 -1.003447 -0.293378
v 1.578625 -1.457612 -0.392968
v 1.608605 -0.348314 0.627301
v 1.819491 0.613623 -0.378001
v 1.263099 1.941221 0.274040
v 1.083261 -2.081574 0.061553
v 1.552436 1.042141 0.522717
v 1.224508 -1.767716 -0.319098
v 1.268865 -1.915325 0.257925
v 1.588488 1.172071 -0.225576
v 1.118550 -0.594498 0.534154
v 1.289899 -1.405982 -0.423266
v 1.219497 -1.943571 -0.187570
v 1.069319 -1.695969 -0.487586
v 1.044213 0.082342 0.556524
v 0.947971 -0.361832 0.453942
v 1.038895 -1.879588 0.618543
v 0.820207 -1.880962 0.020280
v 0.651819 -2.092566 0.566363
v 0.798592 -0.550425 0.451214
v 0.849097 -2.139512 0.230182
v 0.827558 1.734574 -0.419061
v 0.797990 -1.145561 -0.475928
v 0.395706 -1.461959 0.747677
v 0.484018 -2.092373 0.528291
v 0.622079 -2.135037 0.406860
v 0.465113 -0.727793 0.660721
v 0.744874 -1.894948 -0.455963
v 0.743106 -1.686041 -0.499404
v 0.439410 -1.231809 0.679235
v 2.038733 0.743401 0.329197
v 1.650693 1.241457 0.406284
v 1.201307 0.700766 0.588163
v 1.388205 -0.887298 -0.359486
v 1.274510 -0.463201 -0.275536
v 1.220197 -0.829758 0.484459
v 1.325425 0.898025 -0.543721
v 0.788347 -0.462411 -0.278775
v 0.819170 -0.401339 0.434139
v 1.176398 -1.502209 -0.487483
v 0.391412 2.058001 0.692022
v 0.576587 -0.443869 -0.262334
v 0.333243 -2.011800 0.486804
v -0.146082 1.810361 0.699732
v 0.073186 -1.582189 0.734015
v 0.444277 2.184151 0.065909
v 0.404233 -0.241506 -0.392643
v 0.229795 0.598797 0.753776
v 0.447457 2.185538 0.236304
v 0.322801 -2.258238 -0.020192
v -0.095615 0.958630 0.737743
v -0.017169 0.387095 0.496889
v 0.255050 -0.497618 -0.261724
v 0.317801 -1.292610 -0.457404
v 0.097010 -0.008359 0.415940
v 0.359047 1.836345 -0.418045
v 0.117517 -1.369050 -0.422635
v -0.182117 2.440339 -0.106647
v -0.383440 -0.241438 0.502771
v -0.214958 2.369646 0.278053
v -0.074354 1.474021 -0.302529
v 0.134327 0.482877 -0.448726
v -0.172383 0.963936 -0.365144
v -0.135447 -2.064518 -0.527354
v -0.005309 -0.450212 -0.207520
v -0.433456 0.625356 0.534172
v -0.591343 -0.607664 0.576723
v -0.619653 -2.383890 0.382415
v -0.168568 0.682429 -0.453981
v -0.507886 -1.409318 -0.643356
v -0.700471 2.116243 0.267425
v -0.861762 2.023240 0.347547
v -0.838156 2.284553 0.318810
v -0.519229 1.241900 0.420340
v -0.909017 -2.235293 0.275846
v -0.780490 -1.991460 -0.378025
v -1.049263 1.648646 0.402014
v -1.184872 0.085755 0.496776
v -0.963937 -0.634179 -0.510227
v -1.314436 -0.391237 0.378304
v -1.209762 0.193371 -0.431693
v -1.505640 1.595435 -0.534411
v -1.539932 2.160127 -0.081640
v -1.385717 1.193545 0.414173
v -1.767250 0.744188 0.442178
v -1.681863 -0.534970 -0.469256
v -1.901913 -1.577669 0.196177
v -1.949736 -0.964931 0.246052
v -2.064481 -0.926166 0.176820
v -2.330508 1.237021 0.254975
v -2.018102 1.611208 0.020015
v -1.999478 0.458254 0.450761
v -2.139028 -0.833570 0.151347
v -2.123988 -0.857962 -0.041164
v -2.360910 -0.095461 -0.362993
v -2.481568 0.375011 -0.195269
v 2.463616 -0.762257 -0.265443
v 2.479251 -0.543998 -0.321952
v 2.498761 -0.526666 -0.262774
v 2.235289 -0.927821 0.284763
v 2.118300 -1.008508 0.340444
v 2.342000 -0.044521 -0.291351
v 2.069774 -1.204024 0.302021
v 1.969450 -0.424350 0.471618
v 2.232763 -1.045549 -0.361898
v 2.078638 -0.039926 0.465076
v 2.198206 0.392411 -0.081422
v 2.078287 0.527574 0.148718
v 1.998503 0.805367 0.515022
v 1.943913 0.730492 0.594458
v 2.040473 0.302191 -0.309172
v 1.971584 -0.181908 0.629653
v 1.804092 -0.576950 -0.361182
v 1.932385 0.404913 -0.260113
v 1.240929 -1.662026 0.556622
v 1.749993 -1.573766 0.084047
v 1.941478 -0.956569 0.409037
v 1.671657 -1.345778 0.499170
v 1.311885 -0.856736 0.545367
v 1.296463 -0.727695 0.530465
v 1.578437 -1.675365 0.320652
v 1.658857 0.377802 0.669643
v 1.670566 1.371666 0.144398
v 1.708376 0.362481 -0.473041
v 1.783927 0.135810 -0.312237
v 1.613991 -1.630611 -0.358114
v 1.578914 -0.013190 -0.376164
v 1.619148 -1.227903 -0.379839
v 1.466283 -0.547762 -0.297838
v 1.220176 0.277934 0.624377
v 1.208676 1.904641 -0.038921
v 1.555378 1.470000 -0.004995
v 1.440728 -1.842805 -0.227985
v 1.332035 -1.364578 -0.344158
v 1.568927 0.333351 -0.494905
v 0.783705 -2.146573 0.397987
v 1.004358 1.188772 0.551069
v 1.057562 0.745089 0.535077
v 0.901144 -2.037766 0.557064
v 1.187611 1.525012 -0.299992
v 1.160263 2.075126 0.143003
v 0.873930 -0.006708 0.598705
v 1.001583 -0.673309 0.470981
v 1.277014 0.211170 -0.357179
v 0.786194 -1.984213 0.629625
v 0.870513 -0.734474 0.449101
v 1.071025 -0.224632 -0.302120
v 0.697904 -1.067667 0.539016
v 1.344655 0.373179 -0.484452
v 0.961895 -1.825526 -0.450810
v 0.623237 0.587978 0.515125
v 1.073736 -1.723662 -0.279243
v 0.863522 0.940453 0.460280
v 0.749979 1.218964 0.589618
v 0.917627 -1.685109 -0.522968
v 0.770284 2.084016 -0.164436
v 0.786197 1.089743 0.547427
v 1.000000 2.144962 0.178496
v 0.829093 2.242677 0.115330
v 0.558471 -1.634031 0.645497
v 0.860767 1.125510 -0.538217
v 0.766049 1.819006 0.354626
v 0.799982 -0.260592 0.525072
v 0.663004 -0.170899 0.518432
v 0.700379 1.543897 0.520370
v 0.780559 2.221298 -0.009656
v 0.594236 -0.003694 0.585802
v 0.689623 -2.060526 -0.284144
v 0.542608 1.933713 0.634296
v 0.599985 0.860029 0.676098
v 0.501991 0.228718 0.575669
v 0.361834 0.126175 0.711437
v 0.329612 -1.934411 0.633923
v 0.535084 1.627598 0.684796
v 0.667519 -1.411675 -0.496381
vn 0.9288 -0.2900 0.2305
vn 0.9085 0.1286 0.3975
vn 0.2727 -0.0611 0.9601
vn 0.2308 -0.1568 0.9603
vn 0.9278 -0.0159 0.3728
vn 0.4691 -0.0729 0.8801
vn 0.8927 -0.2121 0.3977
vn 0.7839 -0.6209 -0.0036
vn 0.8280 0.5503 0.1083
vn 0.5295 0.5967 -0.6030
vn 0.8580 0.4129 -0.3057
vn 0.6822 0.2366 0.6918
vn 0.8958 -0.2482 0.3686
vn -0.1464 0.3815 -0.9127
vn 0.5647 0.3706 0.7374
vn 0.7642 0.5875 0.2660
vn 0.4159 0.7094 -0.5690
vn 0.7512 -0.6599 0.0173
vn 0.1252 -0.2866 0.9498
vn 0.1759 -0.2055 0.9627
vn 0.0507 -0.1246 0.9909
vn 0.6919 -0.0332 -0.7213
vn -0.0184 0.4722 0.8813
vn 0.4006 -0.4343 0.8068
vn -0.1343 0.1457 0.9802
vn 0.5988 -0.7956 0.0925
vn 0.5649 -0.6366 0.5250
vn 0.0291 -0.1643 -0.9860
vn 0.2302 0.0236 -0.9729
vn 0.6915 -0.2502 -0.6776
vn -0.0903 -0.0953 -0.9913
vn -0.1446 -0.0851 0.9858
vn 0.1506 -0.1656 -0.9746
vn -0.0075 0.0850 0.9964
vn 0.2104 -0.3115 -0.9267
vn -0.0267 -0.2027 -0.9789
vn 0.1583 -0.0171 -0.9872
vn -0.1273 -0.0899 -0.9878
vn 0.1228 -0.5898 -0.7982
vn 0.6682 0.4892 -0.5605
vn 0.9011 -0.1221 -0.4160
vn 0.1225 0.1617 -0.9792
vn 0.4818 0.0164 -0.8761
vn 0.7489 0.5712 -0.3360
vn 0.8090 0.5868 -0.0353
vn -0.2797 -0.3126 0.9078
vn -0.2963 -0.0640 0.9529
vn 0.0816 0.1135 0.9902
vn 0.1135 0.2379 0.9646
vn 0.1539 0.3898 -0.9080
vn 0.5352 0.4583 -0.7096
vn -0.2852 -0.1154 -0.9515
vn -0.1239 -0.0880 0.9884
vn 0.0968 0.0806 0.9920
vn -0.3404 0.0218 0.9400
vn 0.2574 -0.5365 0.8037
vn 0.3755 -0.3031 0.8759
vn -0.1351 -0.0642 0.9888
vn -0.0040 0.3467 0.9380
vn -0.0678 -0.1144 -0.9911
vn 0.4916 0.4073 -0.7697
vn 0.2082 -0.8721 0.4428
vn -0.1598 0.0265 0.9868
vn 0.5922 -0.3788 0.7112
vn -0.0864 0.1542 0.9842
vn 0.1112 -0.2801 0.9535
vn 0.2174 -0.1196 -0.9687
vn -0.0749 -0.9947 -0.0710
vn -0.0605 -0.9633 0.2616
vn 0.5336 0.5534 -0.6395
vn 0.4522 0.2545 0.8549
vn -0.0473 -0.2655 0.9629
vn 0.6289 -0.0764 0.7737
vn 0.6337 0.6414 -0.4324
vn 0.4386 0.7776 0.4504
vn 0.7568 -0.2837 0.5888
vn 0.4033 0.3650 -0.8391
vn 0.5033 -0.0560 0.8623
vn -0.0235 -0.0238 -0.9994
vn -0.0373 0.4957 0.8677
vn 0.1534 -0.4130 -0.8977
vn -0.0144 0.0837 -0.9964
vn 0.5256 -0.0147 0.8506
vn -0.2414 0.7339 -0.6349
vn 0.3308 0.6950 -0.6384
vn 0.3314 0.9001 -0.2827
vn 0.0601 0.9798 -0.1909
vn 0.3188 0.1677 0.9329
vn 0.6593 0.5797 0.4788
vn 0.4674 -0.3868 0.7949
vn -0.2025 0.0844 0.9756
vn 0.6319 0.1983 0.7493
vn 0.4482 0.1348 0.8837
vn -0.7414 -0.5481 0.3873
vn 0.0304 -0.1334 -0.9906
vn 0.4300 0.8381 -0.3359
vn 0.3955 0.4996 0.7707
vn 0.2659 -0.3725 0.8891
vn 0.1254 -0.1738 -0.9768
vn -0.0963 -0.2437 -0.9651
vn -0.0503 0.2763 -0.9598
vn 0.4842 -0.7908 0.3744
vn -0.4517 -0.6987 -0.5548
vn 0.2733 0.4095 -0.8704
vn 0.5208 -0.8492 0.0877
vn -0.0796 0.9041 0.4198
vn 0.1221 0.8763 0.4661
vn 0.0599 0.2964 0.9532
vn 0.0889 0.2969 0.9508
vn 0.5461 -0.8028 0.2393
vn -0.4113 0.2750 0.8690
vn 0.5898 -0.7703 0.2426
vn -0.2569 0.8589 -0.4430
vn 0.7707 -0.4260 0.4738
vn 0.6855 -0.5525 0.4741
vn -0.5152 -0.7637 0.3890
vn -0.1677 -0.6560 0.7359
vn 0.3545 -0.1875 -0.9161
vn -0.0539 0.2675 0.9620
vn -0.2041 0.0853 0.9752
vn 0.3976 -0.0850 0.9136
vn 0.4310 0.7234 -0.5394
vn -0.3587 0.8564 -0.3714
vn -0.0855 0.2654 -0.9604
vn 0.2559 0.5963 -0.7608
vn 0.4242 0.8973 0.1224
vn -0.3014 0.9535 -0.0021
vn -0.0056 -0.7941 0.6078
vn 0.1550 -0.0451 0.9869
vn 0.2804 0.0404 -0.9590
vn -0.0649 0.0111 -0.9978
vn 0.0205 -0.8016 0.5975
vn -0.2926 0.0564 0.9546
vn -0.4639 -0.3063 -0.8313
vn 0.1156 -0.0086 -0.9933
vn 0.1204 0.0441 -0.9918
vn 0.2617 0.5899 -0.7639
vn -0.2823 0.0496 0.9580
vn 0.0395 0.0655 0.9971
vn -0.1628 -0.0545 -0.9852
vn 0.4200 -0.7466 -0.5159
vn 0.0253 0.0070 0.9997
vn -0.2576 0.7335 -0.6290
vn 0.5863 0.7061 0.3972
vn 0.4345 0.8316 0.3459
vn -0.0392 -0.0085 0.9992
vn 0.0205 -0.0514 0.9985
vn -0.1028 -0.1172 0.9878
vn -0.1879 -0.0681 -0.9798
vn 0.0373 -0.2339 -0.9715
vn 0.0134 -0.2105 -0.9775
vn -0.0065 0.0451 0.9990
vn -0.1548 0.3085 0.9386
vn 0.0646 0.1911 0.9794
vn -0.1390 -0.1067 0.9845
vn 0.5487 -0.5293 -0.6472
vn -0.1922 0.2734 -0.9425
vn -0.0840 0.2127 0.9735
vn 0.5680 0.7552 -0.3272
vn -0.0107 0.0525 -0.9986
vn 0.4179 0.0524 -0.9070
vn 0.1085 0.2441 -0.9637
vn -0.2436 -0.4373 0.8657
vn 0.2964 0.9195 0.2582
vn 0.0921 0.3283 -0.9401
vn -0.0830 0.1671 -0.9824
vn -0.0665 -0.1144 -0.9912
vn -0.1827 0.2756 -0.9438
vn -0.0713 0.1864 0.9799
vn -0.1821 0.6937 -0.6969
vn -0.1492 -0.0002 0.9888
vn 0.4013 0.9158 -0.0149
vn 0.3915 0.9201 -0.0057
vn -0.1632 0.4513 -0.8773
vn 0.3717 0.3431 -0.8626
vn 0.3150 -0.8367 0.4479
vn 0.1940 0.8990 0.3927
vn 0.0148 0.0164 0.9998
vn 0.4668 0.2158 -0.8576
vn -0.2102 0.7410 -0.6377
vn -0.4764 0.5825 -0.6586
vn -0.0982 0.3620 -0.9270
vn 0.3201 -0.8546 0.4088
vn 0.2689 0.9629 0.0203
vn -0.2254 0.1528 -0.9622
vn -0.7133 -0.2353 0.6602
vn -0.8561 -0.4280 0.2895
vn -0.3316 0.3246 0.8858
vn -0.4372 0.5662 0.6988
vn -0.4048 0.0458 0.9133
vn -0.0069 0.0442 0.9990
vn 0.2276 -0.7507 -0.6202
vn 0.0237 -0.2300 0.9729
vn -0.2056 0.0315 0.9781
vn -0.5311 -0.4717 0.7039
vn -0.7856 -0.3335 0.5211
vn -0.2154 -0.0692 -0.9741
vn 0.0983 0.1146 -0.9885
vn -0.1213 0.3816 -0.9163
vn -0.0718 0.4232 -0.9032
vn -0.0709 0.0525 0.9961
vn -0.1334 0.0878 0.9872
vn -0.3822 0.7667 -0.5159
vn 0.1402 -0.5811 0.8017
vn 0.5327 -0.8412 0.0932
vn -0.1219 0.8874 -0.4445
vn 0.0135 -0.1324 -0.9911
vn -0.0512 -0.1677 -0.9845
vn 0.0913 -0.1743 0.9804
vn -0.8682 -0.3036 0.3925
vn 0.5286 -0.8445 0.0857
vn 0.0783 0.5925 -0.8017
vn 0.2010 -0.0239 -0.9793
vn 0.1719 -0.0606 -0.9832
vn -0.2771 0.2217 -0.9349
vn -0.2526 0.1890 -0.9489
vn -0.0187 0.1156 -0.9931
vn -0.0008 0.1088 -0.9941
vn 0.2526 -0.2002 -0.9466
vn 0.0199 -0.6519 -0.7580
vn 0.0650 -0.8988 -0.4334
vn -0.5153 -0.2915 0.8059
vn -0.4438 -0.4674 0.7646
vn -0.4720 -0.1463 0.8693
vn 0.2583 0.8099 0.5266
vn -0.4912 0.3306 -0.8059
vn -0.6593 0.7239 -0.2033
vn -0.5624 0.8267 0.0175
vn 0.2599 -0.1904 0.9467
vn 0.1424 -0.7204 -0.6788
vn -0.2327 0.3027 -0.9243
vn 0.1556 0.1339 -0.9787
vn 0.3428 0.9364 -0.0755
vn 0.1998 0.8591 -0.4712
vn 0.5026 0.6074 -0.6153
vn 0.0820 0.0304 -0.9962
vn -0.1732 0.2148 0.9612
vn 0.1015 0.1149 -0.9882
vn 0.8855 0.3166 -0.3402
vn -0.0405 -0.1386 -0.9895
vn -0.0367 -0.0651 -0.9972
vn 0.2429 -0.9285 -0.2809
vn -0.2675 0.7681 0.5818
vn -0.4842 0.8369 0.2551
vn -0.0044 0.3571 0.9341
vn -0.1787 0.0624 -0.9819
vn -0.1656 -0.2455 0.9552
vn -0.1727 0.0166 -0.9848
vn -0.4198 -0.3350 0.8435
vn -0.0754 0.3054 -0.9492
vn 0.3514 -0.8183 0.4550
vn -0.3131 -0.0539 0.9482
vn -0.4821 0.1329 -0.8660
vn 0.3376 -0.7249 -0.6004
vn 0.8514 0.3794 -0.3622
vn -0.0165 -0.0410 0.9990
vn 0.6831 -0.7044 0.1928
vn 0.5942 0.0874 -0.7996
vn -0.1494 0.0543 -0.9873
vn 0.2334 -0.8966 0.3764
vn 0.1900 -0.9817 -0.0111
vn -0.1744 0.2165 0.9606
vn -0.0177 -0.0380 0.9991
vn 0.7730 -0.2969 -0.5607
vn 0.8438 0.3663 -0.3922
vn 0.2374 -0.9046 0.3541
vn -0.0275 0.9345 0.3548
vn -0.1903 0.9572 0.2183
vn 0.3085 0.4019 -0.8621
vn -0.0519 -0.2218 -0.9737
vn -0.0778 -0.2727 -0.9590
vn 0.8790 0.3301 -0.3441
vn 0.8580 0.3247 -0.3980
vn 0.0852 0.1053 -0.9908
vn 0.0363 0.1149 -0.9927
vn -0.1088 0.9552 -0.2752
vn 0.2078 0.3324 -0.9200
vn 0.2498 0.2972 -0.9216
vn 0.8160 0.0917 -0.5708
vn 0.8314 0.1775 -0.5266
vn 0.7238 0.2165 -0.6551
vn 0.8018 0.2810 -0.5274
vn 0.5181 0.0246 -0.8550
vn 0.0929 0.1088 -0.9897
vn -0.2572 0.7096 0.6560
vn -0.2150 -0.0590 0.9748
vn -0.0627 -0.0724 0.9954
vn 0.2940 -0.3042 -0.9061
vn 0.0621 -0.9705 0.2329
vn -0.2838 0.8642 -0.4155
vn 0.1548 0.9519 -0.2643
vn -0.2567 0.6135 0.7468
vn -0.3362 0.5908 0.7335
vn 0.2523 -0.0646 -0.9655
vn 0.0858 0.1074 -0.9905
vn -0.9188 -0.0673 0.3891
vn -0.0017 0.0463 0.9989
vn 0.5464 -0.0508 -0.8360
vn 0.4439 0.3181 0.8377
vn -0.8243 -0.0343 0.5651
vn 0.5079 0.4629 -0.7265
vn -0.0301 -0.9938 -0.1074
vn -0.0962 0.3651 -0.9260
vn 0.5989 -0.0001 -0.8008
vn -0.2624 -0.1528 0.9528
vn 0.4289 0.1156 0.8959
vn 0.4103 -0.2187 -0.8854
vn -0.1340 -0.5500 -0.8243
vn -0.6685 0.6549 0.3526
vn 0.1692 -0.0019 0.9856
vn 0.1389 -0.0846 0.9867
vn -0.6479 -0.6083 -0.4586
vn 0.4532 -0.0779 0.8880
vn 0.3364 -0.0008 0.9417
vn -0.9407 -0.1155 0.3189
vn 0.2933 -0.2160 -0.9313
vn 0.2556 0.4085 -0.8763
vn -0.2734 -0.9389 -0.2091
vn 0.1119 -0.8648 0.4895
vn -0.0291 -0.9739 0.2251
vn 0.5453 0.3517 -0.7609
vn -0.9702 0.0581 0.2351
vn 0.1257 0.1694 0.9775
vn 0.1740 -0.3994 -0.9001
vn 0.4348 -0.5408 -0.7201
vn 0.6443 0.2375 -0.7270
vn 0.5660 0.2279 -0.7923
vn 0.7195 0.3679 -0.5891
vn -0.9492 0.2706 0.1609
vn -0.9738 0.0341 0.2247
vn 0.1593 -0.5539 -0.8172
vn 0.1379 -0.3802 -0.9146
vn -0.2158 -0.1115 0.9700
vn -0.1175 0.0303 0.9926
vn 0.0047 0.0521 0.9986
vn 0.4021 -0.1591 -0.9017
vn 0.0845 0.0636 -0.9944
vn 0.0949 0.0532 -0.9941
vn -0.6051 0.1199 0.7871
vn 0.1923 0.3600 0.9129
vn 0.1381 0.1479 0.9793
vn -0.2760 0.7220 0.6344
vn -0.3370 0.7291 0.5957
vn -0.0909 0.0463 0.9948
vn 0.4758 0.6920 -0.5429
vn 0.0273 -0.0730 0.9970
vn -0.3512 0.5141 0.7826
vn 0.1349 0.0327 -0.9903
vn 0.3451 0.7458 -0.5699
vn -0.3303 -0.5722 -0.7507
vn -0.0775 0.3963 -0.9148
vn -0.0160 -0.9904 0.1373
vn -0.3950 0.8479 -0.3537
vn -0.1360 0.4745 0.8697
vn -0.2423 0.1200 0.9627
vn -0.3502 0.5101 0.7856
vn -0.2839 0.5739 0.7682
vn 0.1836 -0.1082 -0.9770
vn -0.0430 -0.1520 0.9874
vn -0.4363 -0.1387 -0.8891
vn -0.0469 -0.0257 0.9986
vn -0.1492 0.7811 0.6063
vn -0.1464 0.7634 0.6291
vn -0.2437 -0.5708 0.7841
vn 0.0495 0.1111 -0.9926
vn 0.0265 0.1192 -0.9925
vn -0.1949 0.0209 0.9806
vn -0.7281 -0.5488 -0.4107
vn -0.0458 -0.6531 -0.7559
vn -0.7381 -0.5468 -0.3953
vn -0.4104 -0.0487 0.9106
vn -0.3151 -0.3464 -0.8836
vn -0.3940 -0.9180 -0.0458
vn -0.0693 -0.9950 0.0719
vn -0.3738 0.1507 0.9152
vn 0.1776 -0.0123 -0.9840
vn -0.0440 0.1692 -0.9846
vn 0.0744 0.0369 -0.9966
vn 0.7777 0.5358 0.3289
vn 0.6437 0.3134 0.6982
vn 0.4589 -0.0308 0.8880
vn -0.3509 0.0882 0.9322
vn -0.7380 -0.5496 -0.3915
vn 0.8728 -0.4562 0.1734
vn -0.4387 0.7435 -0.5047
vn -0.7399 -0.5615 -0.3705
vn -0.7397 -0.5622 -0.3699
vn -0.5388 -0.8005 -0.2625
vn -0.5336 -0.6587 0.5305
vn -0.5177 -0.6129 0.5969
vn -0.5326 -0.6389 0.5552
vn -0.1178 -0.0689 0.9906
vn -0.3172 -0.1182 0.9410
vn 0.4570 0.8894 -0.0058
vn -0.0599 -0.0332 0.9977
vn -0.0143 0.0264 0.9995
vn -0.2513 0.2172 -0.9432
vn -0.5056 -0.0366 0.8620
vn 0.5268 0.8495 -0.0281
vn 0.0889 0.0996 0.9911
vn 0.0582 0.0678 -0.9960
vn 0.1768 0.0664 -0.9820
vn -0.3726 -0.1129 0.9211
vn -0.1506 0.1138 -0.9820
vn -0.2938 -0.8929 -0.3413
vn -0.5887 -0.5965 -0.5456
vn -0.3916 0.0214 0.9199
vn -0.1433 -0.0385 0.9889
vn 0.0041 0.0638 -0.9980
vn -0.5634 -0.7073 -0.4269
vn 0.3269 0.8614 -0.3888
vn -0.0033 0.1189 -0.9929
vn 0.4345 0.8522 0.2914
vn -0.4852 -0.3380 -0.8065
vn -0.4809 -0.3366 -0.8096
vn -0.3720 0.3762 -0.8485
vn -0.3135 0.4749 -0.8223
vn -0.0043 -0.0691 0.9976
vn -0.4592 0.8857 -0.0686
vn -0.3358 0.2980 0.8936
vn -0.0368 0.1077 -0.9935
vn 0.4125 0.7731 -0.4818
vn -0.1001 -0.2487 -0.9634
vn -0.0273 -0.0048 -0.9996
vn -0.6081 -0.0571 0.7918
vn -0.5597 0.0909 0.8237
vn -0.4198 0.3329 0.8444
vn -0.0757 0.1202 -0.9899
vn 0.1059 0.2127 -0.9714
vn 0.2402 0.8308 0.5021
vn 0.0795 -0.0356 -0.9962
vn 0.1612 -0.0109 -0.9869
vn 0.1213 0.8026 -0.5841
vn 0.2599 -0.0869 0.9617
vn 0.2272 -0.0669 -0.9715
vn 0.1407 0.0561 -0.9885
vn -0.6176 -0.2349 -0.7506
vn -0.2336 0.1336 -0.9631
vn -0.2492 0.0848 0.9647
vn -0.0381 0.0637 -0.9972
vn -0.8237 -0.4532 -0.3409
vn -0.1227 0.2181 -0.9682
vn 0.1115 -0.2388 0.9646
vn -0.1074 0.3156 -0.9428
vn 0.0363 0.0129 0.9993
vn -0.2676 0.3596 -0.8939
vn 0.0773 -0.0877 0.9931
vn -0.0705 0.8547 -0.5144
vn -0.5296 -0.0664 -0.8457
vn -0.9832 0.0829 -0.1624
vn -0.0233 -0.9352 -0.3533
vn 0.2576 -0.1650 0.9520
vn 0.0827 0.2599 0.9621
vn 0.2633 0.0612 -0.9628
vn -0.1319 0.0434 -0.9903
vn -0.1131 0.1028 0.9883
vn -0.5853 0.1201 -0.8019
vn -0.5982 0.1274 -0.7912
vn -0.2334 -0.1333 0.9632
vn 0.0003 0.1273 0.9919
vn 0.1800 -0.0533 0.9822
vn 0.1853 0.6830 -0.7065
vn 0.2458 0.4109 -0.8779
vn 0.0740 0.1840 0.9801
vn 0.5981 0.0068 -0.8014
vn -0.1404 0.0238 -0.9898
vn 0.2466 0.2377 -0.9395
vn -0.0786 -0.1014 0.9917
vn -0.5627 0.7905 0.2420
vn 0.2534 0.4854 -0.8368
vn -0.3015 0.9005 0.3134
vn -0.3198 0.8852 0.3378
vn -0.0957 0.4428 0.8915
vn 0.3417 -0.3429 -0.8750
vn 0.4864 0.1406 -0.8624
vn 0.5021 0.1495 -0.8518
vn 0.0412 -0.9982 0.0434
vn 0.1893 -0.7285 -0.6584
vn -0.6153 0.2051 -0.7611
vn 0.1257 -0.0233 -0.9918
vn -0.2622 -0.8465 0.4633
vn -0.3247 -0.7337 0.5969
vn 0.5064 -0.0327 0.8617
vn -0.2614 0.9153 -0.3064
vn -0.0117 -0.5862 0.8101
vn 0.5324 0.4760 -0.7000
vn -0.2404 0.0980 -0.9657
vn 0.1638 0.0317 -0.9860
vn 0.0684 -0.0978 0.9929
vn 0.1401 -0.4332 -0.8903
vn 0.1740 -0.4616 -0.8699
vn -0.0379 -0.0018 0.9993
vn -0.2659 -0.0251 -0.9637
vn -0.3858 -0.1477 -0.9107
vn 0.0785 -0.0338 -0.9963
vn -0.2311 0.4183 0.8784
vn -0.0524 0.1668 -0.9846
vn -0.7227 0.6761 -0.1435
vn 0.2150 0.5320 -0.8190
vn 0.2783 0.6471 -0.7099
vn 0.2072 0.1932 -0.9590
vn -0.0512 -0.0264 0.9983
vn -0.1152 0.1263 0.9853
vn -0.0975 0.1294 0.9868
vn 0.6077 0.3509 -0.7124
vn 0.1940 0.5958 -0.7794
vn 0.4286 0.4154 -0.8023
vn 0.3920 0.4390 -0.8085
vn -0.2267 -0.0165 0.9738
vn 0.0364 0.1541 0.9874
vn 0.0206 -0.1086 -0.9939
vn -0.6783 0.6997 0.2242
vn -0.7337 0.6672 0.1287
vn 0.0444 -0.0558 0.9975
vn 0.0333 -0.0590 0.9977
vn -0.0520 -0.3476 -0.9362
vn 0.4154 0.1162 -0.9022
vn -0.2659 -0.8451 0.4638
vn 0.4154 -0.2367 -0.8783
vn -0.1589 0.0262 0.9869
vn 0.0511 -0.0191 -0.9985
vn 0.0394 -0.0312 -0.9987
vn -0.6285 0.7775 0.0220
vn -0.0489 0.1034 0.9934
vn -0.1647 -0.1476 0.9752
vn -0.0026 -0.9439 -0.3303
vn 0.3303 0.0455 -0.9428
vn 0.0214 0.0315 -0.9993
vn -0.2648 0.0233 -0.9640
vn -0.2997 -0.6553 0.6934
vn -0.2352 -0.5806 0.7795
vn -0.3188 -0.0284 0.9474
vn 0.0767 0.0168 -0.9969
vn 0.0845 0.0044 -0.9964
vn 0.2625 -0.1413 0.9545
vn 0.0974 -0.0207 0.9950
vn -0.8232 0.3632 0.4364
vn 0.4123 -0.0092 -0.9110
vn -0.0520 0.1733 -0.9835
vn 0.1390 0.3228 -0.9362
vn 0.0583 -0.0180 -0.9981
vn 0.1015 0.0687 0.9925
vn 0.0729 0.0004 -0.9973
vn -0.0675 0.6443 -0.7618
vn -0.2262 -0.0148 0.9740
vn 0.6724 0.0823 -0.7356
vn -0.7595 0.6395 -0.1195
vn -0.1254 -0.0725 0.9895
vn 0.2750 -0.0422 0.9605
vn -0.8060 0.5919 -0.0088
vn -0.1200 -0.0600 0.9910
vn -0.4522 -0.5428 0.7078
vn -0.1292 0.1022 -0.9863
vn -0.6075 0.4403 0.6611
vn -0.0975 0.1089 0.9893
vn -0.2219 0.3755 -0.8999
vn -0.0580 0.0225 0.9981
vn -0.0147 0.1033 -0.9945
vn -0.4822 0.7085 -0.5152
vn -0.1542 -0.6592 -0.7359
vn -0.3034 0.4181 -0.8562
vn -0.4661 -0.8839 -0.0370
vn -0.2931 -0.9501 -0.1068
vn 0.0456 -0.2302 0.9721
vn -0.1053 0.0211 0.9942
vn -0.1958 -0.8651 -0.4618
vn 0.3638 -0.2565 -0.8955
vn -0.7480 0.5984 -0.2873
vn -0.7794 0.4819 -0.4005
vn -0.3620 -0.3328 0.8707
vn -0.6653 -0.3923 0.6352
vn -0.8739 -0.4641 0.1448
vn -0.7324 -0.6317 0.2539
vn 0.1900 -0.2148 -0.9580
vn 0.0888 -0.4378 0.8947
vn -0.0987 0.1025 0.9898
vn -0.1291 0.2418 -0.9617
vn -0.2267 -0.0973 -0.9691
vn 0.0807 -0.1876 0.9789
vn -0.0654 0.1677 0.9837
vn 0.1683 -0.0592 0.9840
vn -0.7398 -0.5884 -0.3264
vn -0.0488 -0.0020 0.9988
vn -0.4095 -0.2074 -0.8884
vn -0.1832 -0.4293 -0.8844
vn -0.0728 -0.0983 -0.9925
vn -0.2750 -0.0725 -0.9587
vn -0.9051 -0.4200 0.0665
vn -0.1295 0.1602 0.9786
vn -0.0437 -0.1789 0.9829
vn -0.9034 -0.3930 -0.1713
vn -0.0409 -0.0052 -0.9992
vn -0.7800 0.4830 -0.3979
vn -0.4807 0.4466 0.7546
vn 0.0451 -0.0216 -0.9987
vn -0.8582 -0.5077 0.0756
vn -0.0812 0.0924 -0.9924
vn -0.2431 -0.1984 0.9495
vn -0.3441 0.0302 -0.9384
vn -0.3091 0.1038 -0.9453
vn -0.1517 0.1526 0.9766
vn -0.8160 0.4702 -0.3362
vn -0.8582 -0.2001 0.4727
vn -0.2042 -0.0836 0.9754
vn -0.2419 -0.1227 0.9625
vn -0.1664 0.1040 0.9806
vn -0.9675 -0.2006 -0.1543
vn -0.7797 0.6247 -0.0418
vn -0.7776 0.6116 0.1458
vn -0.5286 -0.0515 0.8473
vn -0.9702 -0.2423 -0.0063
vn -0.3930 -0.5748 0.7178
vn -0.5376 -0.6647 0.5188
vn -0.2704 0.0272 -0.9624
vn -0.7987 -0.2967 -0.5235
vn 0.4853 0.0331 0.8737
vn 0.0189 -0.0467 0.9987
vn -0.9253 -0.1359 -0.3541
vn -0.9155 -0.1143 -0.3856
vn -0.5486 0.1704 -0.8185
vn -0.3265 -0.0749 -0.9422
vn -0.9357 -0.1395 -0.3240
vn -0.2958 0.0099 -0.9552
vn -0.9069 -0.1284 -0.4014
vn 0.0657 -0.2675 -0.9613
vn -0.3751 -0.0406 0.9261
vn -0.7845 -0.5560 0.2746
vn -0.5301 -0.3372 0.7780
vn -0.7955 -0.3597 -0.4876
vn -0.7212 -0.6924 -0.0198
vn -0.7902 -0.3168 0.5247
vn -0.2234 0.1460 0.9637
vn -0.9260 -0.3053 0.2220
vn -0.7114 0.0284 -0.7023
vn -0.5948 -0.7258 -0.3457
vn -0.5992 -0.7504 -0.2789
vn -0.7812 -0.6240 0.0180
vn -0.6134 0.4362 -0.6584
vn -0.1014 0.1423 0.9846
vn -0.9737 -0.1730 -0.1484
vn -0.8954 0.3732 0.2427
vn -0.5942 0.0443 0.8031
vn -0.6360 -0.4372 -0.6360
vn -0.9528 -0.2374 0.1895
vn -0.6183 0.1019 0.7793
vn -0.0992 0.1408 0.9851
vn -0.6000 -0.1213 0.7907
vn -0.3772 -0.0607 0.9241
vn -0.2012 -0.0286 -0.9791
vn -0.2516 0.0544 -0.9663
vn -0.6304 -0.3812 -0.6762
vn -0.2128 -0.1125 -0.9706
vn -0.7589 0.5146 -0.3991
vn -0.9159 -0.4009 -0.0207
vn -0.8475 -0.4983 -0.1832
vn -0.8726 0.3560 -0.3344
vn -0.8872 0.3489 -0.3018
vn -0.0974 -0.2051 -0.9739
vn -0.9281 -0.0348 0.3706
vn -0.2151 -0.1378 -0.9668
vn -0.1009 -0.0123 -0.9948
vn -0.8733 -0.3128 -0.3734
vn -0.7771 -0.3278 -0.5372
vn -0.9991 0.0397 -0.0147
vn -0.7448 0.4325 -0.5081
vn -0.5207 -0.1342 -0.8431
vn -0.9648 -0.2504 0.0803
vn -0.9635 -0.2377 0.1234
vn -0.8652 0.4858 -0.1240
vn -0.9405 0.3020 -0.1560
vn -0.9268 -0.2501 0.2800
vn -0.8931 0.2917 -0.3424
vn -0.9989 0.0459 -0.0038
vn -0.9905 -0.0532 0.1267
vn -0.6356 -0.0425 -0.7708
vn -0.7919 0.0261 -0.6101
vn -0.9904 -0.1002 0.0953
vn 0.9519 -0.1389 -0.2731
vn 0.8879 -0.1887 0.4195
vn 0.9276 -0.1423 0.3454
vn 0.8436 -0.1904 -0.5021
vn 0.8892 0.2671 -0.3714
vn 0.0977 0.0876 -0.9914
vn 0.2922 -0.1664 -0.9418
vn 0.8723 -0.4125 0.2626
vn 0.7863 -0.5364 -0.3066
vn 0.7907 -0.5944 -0.1466
vn 0.8582 -0.5126 0.0276
vn 0.5183 -0.1737 0.8373
vn 0.8107 -0.5174 0.2741
vn 0.8701 -0.0208 0.4924
vn 0.7637 0.1328 0.6317
vn 0.9257 0.2863 -0.2471
vn 0.9351 0.1720 0.3099
vn 0.9658 0.1658 0.1996
vn 0.8926 0.0578 0.4471
vn 0.7075 -0.3870 0.5913
vn 0.5931 0.0234 0.8048
vn 0.6310 0.1643 0.7582
vn 0.9325 -0.1193 0.3410
vn 0.8991 0.4087 0.1568
vn 0.9972 0.0639 0.0387
vn 0.3650 0.0134 0.9309
vn 0.9681 0.2495 -0.0236
vn 0.6623 -0.5395 0.5199
vn 0.5401 0.4326 -0.7219
vn 0.6696 -0.7303 -0.1351
vn 0.5350 0.8201 -0.2029
vn 0.9548 0.2730 -0.1173
vn 0.9353 0.3426 0.0883
vn 0.1641 0.0922 -0.9821
vn -0.1443 0.2936 -0.9450
vn 0.3783 0.7734 -0.5086
vn 0.1093 0.1219 0.9865
vn 0.5389 -0.4633 0.7035
vn 0.8626 0.5056 0.0182
vn -0.0350 -0.1333 -0.9905
vn 0.8926 0.4305 -0.1338
vn 0.6585 -0.6731 0.3367
vn 0.2690 -0.1452 0.9521
vn 0.3610 -0.0027 0.9326
vn 0.7014 -0.7090 -0.0729
vn 0.8261 0.1382 -0.5464
vn -0.0319 0.0676 -0.9972
vn 0.5623 0.6925 0.4519
vn -0.0239 -0.0565 0.9981
vn 0.1718 -0.2000 -0.9646
vn 0.2219 0.0714 0.9725
vn 0.2948 0.0169 0.9554
vn 0.0678 -0.2987 0.9519
vn 0.7953 0.4422 -0.4147
vn 0.1305 0.0024 0.9914
vn 0.0337 0.0500 -0.9982
vn -0.1034 -0.1653 0.9808
vn -0.1675 0.2758 -0.9465
vn 0.3524 -0.3203 0.8793
vn 0.7952 0.4421 -0.4149
vn 0.8652 0.5010 -0.0206
vn 0.0529 0.2218 0.9737
vn 0.0332 0.1826 0.9826
vn 0.3626 0.3303 0.8714
vn 0.8361 0.3834 -0.3923
vn 0.3979 0.1654 -0.9024
vn 0.5137 -0.3759 -0.7712
vn 0.7374 0.4952 0.4593
vn 0.6029 -0.7927 0.0906
vn 0.5945 -0.7963 0.1122
vn 0.1508 -0.0133 -0.9885
vn 0.4321 -0.2192 -0.8748
vn 0.7020 -0.7069 -0.0863
vn -0.2347 0.2476 -0.9400
vn 0.8182 0.5720 0.0583
vn 0.0757 0.3859 0.9194
vn 0.6620 -0.7018 -0.2630
vn -0.0909 -0.0517 0.9945
vn 0.0414 0.1195 0.9920
vn -0.1975 0.0906 -0.9761
vn -0.5467 0.0313 0.8368
vn -0.3839 0.4783 0.7898
vn 0.5647 -0.7905 0.2371
vn 0.5505 0.4391 0.7100
vn 0.3974 0.3088 0.8641
vn -0.1016 -0.3251 -0.9402
vn 0.1305 -0.5962 -0.7922
vn -0.1460 -0.1132 -0.9828
vn 0.6337 -0.4000 0.6622
vn 0.3493 -0.8875 -0.3006
vn 0.4628 -0.8529 0.2417
vn 0.4693 -0.8580 0.2088
vn 0.2112 0.0811 0.9741
vn 0.8865 -0.1128 -0.4488
vn -0.1297 0.0137 -0.9915
vn 0.7877 0.5709 -0.2315
vn -0.1910 -0.2812 0.9404
vn 0.0308 0.0113 0.9995
vn 0.0109 0.0580 0.9983
vn 0.4944 0.4132 -0.7647
vn 0.8527 -0.4818 -0.2020
vn -0.0233 0.2717 0.9621
vn -0.1659 -0.1179 -0.9791
vn 0.4980 -0.6547 0.5686
vn -0.0913 0.0551 -0.9943
vn 0.0068 0.1025 -0.9947
vn 0.4758 -0.8399 0.2613
vn -0.3361 0.0372 0.9411
vn -0.4157 0.0592 0.9076
vn -0.0112 -0.1201 -0.9927
vn 0.2882 -0.9549 0.0721
vn 0.7814 -0.5168 -0.3497
vn 0.6759 -0.3732 -0.6355
vn 0.7512 -0.6520 -0.1026
vn 0.6482 -0.7529 -0.1138
vn 0.5002 0.4070 -0.7643
vn -0.2014 -0.8060 -0.5566
vn -0.4590 -0.0304 0.8879
vn 0.2271 0.0269 0.9735
vn -0.3927 -0.4611 -0.7957
vn -0.4159 -0.4481 -0.7914
vn -0.2320 0.1382 0.9628
vn -0.0076 -0.1218 -0.9925
vn -0.2338 -0.0578 0.9706
vn 0.6591 -0.7518 0.0167
vn -0.7210 -0.3160 0.6167
vn -0.4459 -0.5798 -0.6819
vn -0.3601 -0.5522 -0.7520
vn -0.4427 -0.5945 -0.6713
vn -0.5251 -0.3190 0.7890
vn -0.0427 -0.3328 0.9420
vn 0.1696 -0.6453 0.7449
vn 0.0974 -0.3945 0.9137
vn 0.0065 -0.1053 -0.9944
vn -0.0573 0.3622 0.9303
vn -0.0216 0.2684 0.9631
vn -0.3638 -0.2971 -0.8828
vn 0.1725 0.2304 0.9577
vn 0.3596 0.5151 -0.7780
vn -0.0257 0.1172 0.9928
vn -0.0458 0.0254 0.9986
vn -0.3879 -0.5369 0.7492
vn 0.5118 -0.2197 0.8305
vn 0.3148 0.3458 0.8839
vn 0.1803 -0.4040 -0.8968
vn 0.0648 0.1009 -0.9928
vn 0.6268 0.0102 0.7791
vn -0.0533 -0.9595 0.2765
vn 0.4873 0.0108 0.8732
vn 0.6497 -0.7432 0.1597
vn -0.4472 -0.7000 -0.5568
vn 0.0676 0.2775 -0.9583
vn 0.2941 0.1040 0.9501
vn -0.2526 -0.5820 0.7729
vn 0.4526 0.8916 -0.0177
vn -0.0315 0.1922 0.9809
vn 0.0493 -0.0132 0.9987
vn -0.3911 -0.6060 -0.6927
vn 0.4286 0.8805 0.2026
vn -0.1089 0.5319 0.8398
vn 0.6362 0.3055 0.7085
vn 0.7433 0.2460 0.6220
vn 0.4040 -0.0304 0.9143
vn 0.5483 0.0222 0.8360
vn 0.3655 0.2009 0.9089
vn -0.4267 -0.8877 -0.1733
vn 0.7968 0.3481 0.4939
vn 0.6798 0.1926 0.7077
vn 0.4540 0.5152 -0.7269
vn -0.3470 -0.4698 0.8118
vn -0.0423 -0.4641 0.8848
vn 0.7945 0.0798 0.6020
vn 0.7407 0.2080 0.6388
vn 0.2930 0.0202 0.9559
vn 0.2504 -0.7361 -0.6288
vn -0.1300 -0.2029 -0.9705
vn -0.1336 -0.0259 -0.9907
vn -0.7099 -0.4942 0.5018
vn 0.8547 -0.2083 0.4755
vn 0.6374 -0.6470 -0.4185
vn 0.0048 -0.0422 0.9991
vn 0.7562 -0.2157 0.6178
vn -0.7300 -0.2622 0.6311
vn 0.1876 -0.0988 -0.9773
vn -0.0089 0.0810 -0.9967
vn 0.2047 -0.9759 -0.0754
vn -0.2427 0.0636 0.9680
vn -0.4810 0.1665 0.8608
vn -0.7310 -0.5963 0.3317
vn -0.5546 0.5296 0.6419
vn -0.1781 0.0688 -0.9816
vn 0.0135 0.1447 0.9894
vn -0.1225 -0.0011 0.9925
vn -0.9711 -0.1995 -0.1314
vn 0.4904 0.0518 0.8699
vt 0.375000 0.625000
vt 0.375000 0.875000
vt 0.625000 0.875000
vt 0.125000 0.625000
vt 0.875000 0.875000
s 0
usemtl ruins_cv_ceiling_a
f 252/1/1 250/1/1 1/1/1
f 254/2/2 252/2/2 1/2/2
f 369/2/3 367/2/3 253/2/3
f 253/2/4 367/2/4 364/2/4
f 258/3/5 261/3/5 255/3/5
f 363/3/6 364/3/6 260/3/6
f 375/3/7 369/3/7 261/3/7
f 250/3/8 366/3/8 2/3/8
f 254/2/9 370/2/9 371/2/9
f 370/2/10 256/2/10 374/2/10
f 386/3/11 294/3/11 371/3/11
f 373/4/12 258/4/12 372/4/12
f 369/2/13 375/2/13 367/2/13
f 251/5/14 257/5/14 264/5/14
f 373/3/15 372/3/15 263/3/15
f 263/3/16 372/3/16 5/3/16
f 370/1/17 374/1/17 377/1/17
f 379/3/18 2/3/18 366/3/18
f 375/3/19 266/3/19 4/3/19
f 382/5/20 380/5/20 4/5/20
f 266/3/21 375/3/21 261/3/21
f 387/5/22 267/5/22 377/5/22
f 3/3/23 263/3/23 295/3/23
f 378/4/24 6/4/24 260/4/24
f 3/1/25 393/1/25 385/1/25
f 384/3/26 396/3/26 379/3/26
f 6/4/27 384/4/27 260/4/27
f 410/4/28 63/4/28 71/4/28
f 8/3/29 264/3/29 397/3/29
f 377/3/30 388/3/30 387/3/30
f 376/2/31 264/2/31 8/2/31
f 274/4/32 266/4/32 393/4/32
f 368/1/33 389/1/33 265/1/33
f 393/3/34 3/3/34 296/3/34
f 398/4/35 387/4/35 390/4/35
f 389/5/36 271/5/36 265/5/36
f 300/5/37 387/5/37 398/5/37
f 10/4/38 265/4/38 271/4/38
f 389/1/39 396/1/39 276/1/39
f 395/1/40 273/1/40 394/1/40
f 8/4/41 397/4/41 275/4/41
f 303/4/42 286/4/42 297/4/42
f 297/1/43 275/1/43 303/1/43
f 394/1/44 404/1/44 395/1/44
f 404/2/45 268/2/45 386/2/45
f 406/4/46 299/4/46 274/4/46
f 278/1/47 274/1/47 393/1/47
f 400/3/48 11/3/48 270/3/48
f 270/2/49 7/2/49 400/2/49
f 297/2/50 301/2/50 8/2/50
f 403/4/51 394/4/51 273/4/51
f 415/4/52 10/4/52 271/4/52
f 299/3/53 406/3/53 409/3/53
f 9/2/54 423/2/54 280/2/54
f 401/3/55 296/3/55 416/3/55
f 402/2/56 280/2/56 408/2/56
f 278/1/57 405/1/57 12/1/57
f 409/4/58 406/4/58 283/4/58
f 400/4/59 7/4/59 268/4/59
f 300/1/60 412/1/60 424/1/60
f 285/2/61 403/2/61 300/2/61
f 399/2/62 402/2/62 282/2/62
f 279/1/63 302/1/63 406/1/63
f 426/3/64 302/3/64 405/3/64
f 11/1/65 400/1/65 420/1/65
f 420/1/66 400/1/66 417/1/66
f 277/5/67 418/5/67 303/5/67
f 284/1/68 399/1/68 289/1/68
f 282/2/69 288/2/69 399/2/69
f 419/3/70 403/3/70 285/3/70
f 14/2/71 283/2/71 58/2/71
f 426/1/72 405/1/72 430/1/72
f 417/4/73 433/4/73 420/4/73
f 404/5/74 394/5/74 13/5/74
f 268/3/75 404/3/75 421/3/75
f 433/3/76 414/3/76 420/3/76
f 77/2/77 285/2/77 300/2/77
f 293/3/78 411/3/78 14/3/78
f 300/2/79 424/2/79 77/2/79
f 421/4/80 422/4/80 425/4/80
f 418/1/81 413/1/81 291/1/81
f 418/5/82 438/5/82 286/5/82
f 433/2/83 417/2/83 60/2/83
f 69/4/84 429/4/84 419/4/84
f 429/2/85 13/2/85 419/2/85
f 422/5/86 13/5/86 429/5/86
f 422/4/87 429/4/87 69/4/87
f 14/5/88 58/5/88 290/5/88
f 432/2/89 62/2/89 304/2/89
f 423/5/90 61/5/90 436/5/90
f 79/2/91 58/2/91 70/2/91
f 60/2/92 437/2/92 304/2/92
f 432/3/93 304/3/93 437/3/93
f 72/4/94 86/4/94 87/4/94
f 301/2/95 63/2/95 410/2/95
f 69/4/96 419/4/96 65/4/96
f 422/3/97 68/3/97 62/3/97
f 91/1/98 436/1/98 61/1/98
f 71/1/99 63/1/99 112/1/99
f 301/2/100 305/2/100 63/2/100
f 301/4/101 286/4/101 305/4/101
f 313/5/102 66/5/102 306/5/102
f 66/1/103 289/1/103 306/1/103
f 285/3/104 77/3/104 64/3/104
f 313/4/105 59/4/105 431/4/105
f 68/2/106 422/2/106 69/2/106
f 312/1/107 68/1/107 69/1/107
f 70/2/108 67/2/108 73/2/108
f 70/3/109 427/3/109 67/3/109
f 431/3/110 281/3/110 66/3/110
f 79/4/111 290/4/111 58/4/111
f 431/3/112 66/3/112 313/3/112
f 309/5/113 69/5/113 78/5/113
f 434/4/114 435/4/114 67/4/114
f 73/5/115 67/5/115 435/5/115
f 288/2/116 436/2/116 306/2/116
f 288/3/117 282/3/117 436/3/117
f 74/3/118 292/3/118 291/3/118
f 70/4/119 73/4/119 98/4/119
f 70/1/120 98/1/120 79/1/120
f 435/2/121 433/2/121 15/2/121
f 75/3/122 285/3/122 64/3/122
f 69/3/123 65/3/123 78/3/123
f 305/5/124 286/5/124 84/5/124
f 419/3/125 285/3/125 75/3/125
f 17/3/126 68/3/126 312/3/126
f 312/2/127 69/2/127 309/2/127
f 87/4/128 435/4/128 72/4/128
f 15/1/129 311/1/129 435/1/129
f 16/2/130 71/2/130 83/2/130
f 102/4/131 71/4/131 325/4/131
f 87/5/132 73/5/132 435/5/132
f 79/1/133 82/1/133 290/1/133
f 83/5/134 424/5/134 16/5/134
f 292/3/135 74/3/135 20/3/135
f 438/5/136 292/5/136 20/5/136
f 419/3/137 75/3/137 65/3/137
f 290/5/138 82/5/138 293/5/138
f 311/5/139 15/5/139 76/5/139
f 83/1/140 77/1/140 424/1/140
f 310/2/141 63/2/141 97/2/141
f 15/4/142 60/4/142 76/4/142
f 65/1/143 75/1/143 78/1/143
f 62/3/144 68/3/144 304/3/144
f 17/4/145 304/4/145 68/4/145
f 308/4/146 91/4/146 287/4/146
f 287/3/147 91/3/147 61/3/147
f 435/5/148 311/5/148 81/5/148
f 102/1/149 83/1/149 71/1/149
f 305/3/150 316/3/150 63/3/150
f 97/2/151 63/2/151 316/2/151
f 304/2/152 307/2/152 60/2/152
f 308/1/153 287/1/153 293/1/153
f 87/4/154 98/4/154 73/4/154
f 81/3/155 311/3/155 88/3/155
f 74/1/156 291/1/156 59/1/156
f 85/2/157 305/2/157 84/2/157
f 80/2/158 307/2/158 304/2/158
f 93/3/159 309/3/159 78/3/159
f 85/5/160 316/5/160 305/5/160
f 63/5/161 310/5/161 112/5/161
f 18/2/162 84/2/162 438/2/162
f 81/2/163 72/2/163 435/2/163
f 304/2/164 323/2/164 80/2/164
f 89/5/165 64/5/165 77/5/165
f 89/4/166 77/4/166 83/4/166
f 398/1/167 412/1/167 300/1/167
f 317/5/168 85/5/168 84/5/168
f 98/5/169 87/5/169 322/5/169
f 18/4/170 317/4/170 84/4/170
f 88/5/171 311/5/171 76/5/171
f 309/2/172 93/2/172 312/2/172
f 19/3/173 312/3/173 93/3/173
f 64/3/174 89/3/174 319/3/174
f 85/1/175 92/1/175 316/1/175
f 436/1/176 90/1/176 306/1/176
f 17/2/177 323/2/177 304/2/177
f 314/2/178 76/2/178 60/2/178
f 317/1/179 92/1/179 85/1/179
f 64/5/180 319/5/180 75/5/180
f 106/3/181 78/3/181 75/3/181
f 109/1/182 78/1/182 106/1/182
f 90/1/183 313/1/183 306/1/183
f 323/5/184 17/5/184 312/5/184
f 320/5/185 92/5/185 317/5/185
f 88/3/186 95/3/186 81/3/186
f 86/5/187 81/5/187 315/5/187
f 82/2/188 94/2/188 293/2/188
f 293/5/189 94/5/189 308/5/189
f 76/2/190 95/2/190 88/2/190
f 307/3/191 314/3/191 60/3/191
f 310/4/192 97/4/192 96/4/192
f 314/2/193 95/2/193 76/2/193
f 123/5/194 314/5/194 307/5/194
f 86/5/195 318/5/195 87/5/195
f 86/1/196 315/1/196 318/1/196
f 328/2/197 97/2/197 316/2/197
f 109/2/198 93/2/198 78/2/198
f 92/4/199 328/4/199 316/4/199
f 92/4/200 120/4/200 328/4/200
f 99/3/201 98/3/201 322/3/201
f 99/1/202 79/1/202 98/1/202
f 18/3/203 320/3/203 317/3/203
f 436/4/204 91/4/204 90/4/204
f 59/3/205 115/3/205 100/3/205
f 18/4/206 103/4/206 320/4/206
f 71/4/207 112/4/207 325/4/207
f 325/3/208 112/3/208 121/3/208
f 101/3/209 318/3/209 315/3/209
f 95/1/210 315/1/210 81/1/210
f 313/1/211 115/1/211 59/1/211
f 438/4/212 103/4/212 18/4/212
f 104/4/213 103/4/213 20/4/213
f 20/4/214 103/4/214 438/4/214
f 89/2/215 102/2/215 319/2/215
f 83/3/216 102/3/216 89/3/216
f 320/4/217 107/4/217 92/4/217
f 119/5/218 92/5/218 107/5/218
f 20/2/219 110/2/219 104/2/219
f 328/5/220 105/5/220 97/5/220
f 96/2/221 97/2/221 105/2/221
f 113/5/222 95/5/222 314/5/222
f 113/5/223 315/5/223 95/5/223
f 128/1/224 314/1/224 123/1/224
f 19/5/225 323/5/225 312/5/225
f 319/2/226 102/2/226 324/2/226
f 324/1/227 106/1/227 319/1/227
f 75/5/228 319/5/228 106/5/228
f 315/2/229 113/2/229 101/2/229
f 59/5/230 100/5/230 111/5/230
f 324/1/231 109/1/231 106/1/231
f 142/2/232 121/2/232 112/2/232
f 19/2/233 93/2/233 321/2/233
f 127/3/234 321/3/234 93/3/234
f 103/3/235 107/3/235 320/3/235
f 112/2/236 310/2/236 96/2/236
f 80/5/237 108/5/237 307/5/237
f 127/2/238 93/2/238 109/2/238
f 23/3/239 107/3/239 103/3/239
f 59/3/240 110/3/240 74/3/240
f 20/2/241 74/2/241 110/2/241
f 141/1/242 96/1/242 105/1/242
f 318/4/243 322/4/243 87/4/243
f 122/2/244 322/2/244 101/2/244
f 101/4/245 322/4/245 318/4/245
f 376/3/246 392/3/246 388/3/246
f 113/5/247 329/5/247 101/5/247
f 21/4/248 102/4/248 325/4/248
f 113/1/249 314/1/249 128/1/249
f 119/5/250 120/5/250 92/5/250
f 313/3/251 90/3/251 22/3/251
f 308/5/252 149/5/252 91/5/252
f 102/1/253 21/1/253 324/1/253
f 141/1/254 105/1/254 328/1/254
f 23/2/255 114/2/255 107/2/255
f 82/2/256 79/2/256 99/2/256
f 384/5/257 379/5/257 366/5/257
f 103/1/258 117/1/258 23/1/258
f 21/4/259 325/4/259 121/4/259
f 313/3/260 26/3/260 115/3/260
f 313/3/261 22/3/261 136/3/261
f 116/2/262 108/2/262 80/2/262
f 82/4/263 99/4/263 94/4/263
f 103/1/264 104/1/264 117/1/264
f 114/5/265 119/5/265 107/5/265
f 26/2/266 313/2/266 136/2/266
f 80/2/267 323/2/267 126/2/267
f 126/5/268 323/5/268 137/5/268
f 118/1/269 114/1/269 23/1/269
f 327/1/270 110/1/270 111/1/270
f 104/5/271 110/5/271 327/5/271
f 119/2/272 114/2/272 124/2/272
f 120/4/273 119/4/273 124/4/273
f 324/2/274 326/2/274 25/2/274
f 21/4/275 326/4/275 324/4/275
f 19/2/276 321/2/276 127/2/276
f 118/2/277 23/2/277 24/2/277
f 24/5/278 23/5/278 117/5/278
f 121/5/279 332/5/279 21/5/279
f 21/1/280 332/1/280 326/1/280
f 27/4/281 326/4/281 332/4/281
f 25/1/282 326/1/282 27/1/282
f 124/4/283 328/4/283 120/4/283
f 109/4/284 324/4/284 127/4/284
f 323/5/285 19/5/285 137/5/285
f 128/4/286 329/4/286 113/4/286
f 144/2/287 329/2/287 128/2/287
f 29/3/288 104/3/288 327/3/288
f 111/5/289 115/5/289 133/5/289
f 175/2/290 125/2/290 127/2/290
f 19/3/291 127/3/291 125/3/291
f 80/5/292 126/5/292 116/5/292
f 144/5/293 128/5/293 138/5/293
f 142/2/294 332/2/294 121/2/294
f 127/3/295 324/3/295 25/3/295
f 131/1/296 128/1/296 123/1/296
f 99/5/297 322/5/297 135/5/297
f 141/3/298 328/3/298 124/3/298
f 122/1/299 130/1/299 322/1/299
f 128/5/300 131/5/300 337/5/300
f 37/1/301 124/1/301 132/1/301
f 133/3/302 115/3/302 26/3/302
f 118/2/303 24/2/303 333/2/303
f 37/3/304 141/3/304 124/3/304
f 149/1/305 90/1/305 91/1/305
f 130/5/306 122/5/306 129/5/306
f 327/4/307 111/4/307 31/4/307
f 31/3/308 111/3/308 28/3/308
f 116/5/309 126/5/309 137/5/309
f 122/5/310 101/5/310 129/5/310
f 329/5/311 129/5/311 101/5/311
f 33/2/312 28/2/312 133/2/312
f 322/5/313 330/5/313 135/5/313
f 130/1/314 330/1/314 322/1/314
f 108/2/315 131/2/315 123/2/315
f 118/2/316 333/2/316 145/2/316
f 145/4/317 37/4/317 132/4/317
f 133/2/318 28/2/318 111/2/318
f 90/5/319 331/5/319 22/5/319
f 22/1/320 331/1/320 32/1/320
f 25/3/321 27/3/321 30/3/321
f 108/4/322 116/4/322 146/4/322
f 129/2/323 140/2/323 130/2/323
f 24/5/324 117/5/324 29/5/324
f 29/1/325 117/1/325 104/1/325
f 118/2/326 132/2/326 114/2/326
f 145/2/327 132/2/327 118/2/327
f 124/3/328 114/3/328 132/3/328
f 116/4/329 137/4/329 146/4/329
f 131/5/330 108/5/330 146/5/330
f 141/3/331 134/3/331 96/3/331
f 96/4/332 134/4/332 152/4/332
f 150/1/333 135/1/333 330/1/333
f 150/3/334 330/3/334 140/3/334
f 130/5/335 140/5/335 330/5/335
f 29/3/336 327/3/336 31/3/336
f 332/4/337 167/4/337 27/4/337
f 30/3/338 27/3/338 167/3/338
f 337/1/339 138/1/339 128/1/339
f 131/3/340 146/3/340 148/3/340
f 139/3/341 140/3/341 129/3/341
f 137/4/342 19/4/342 125/4/342
f 157/2/343 137/2/343 125/2/343
f 131/3/344 148/3/344 340/3/344
f 30/4/345 160/4/345 25/4/345
f 329/1/346 139/1/346 129/1/346
f 156/4/347 137/4/347 157/4/347
f 152/5/348 142/5/348 112/5/348
f 160/2/349 30/2/349 38/2/349
f 33/3/350 31/3/350 28/3/350
f 145/5/351 147/5/351 37/5/351
f 22/5/352 32/5/352 136/5/352
f 175/5/353 155/5/353 125/5/353
f 143/5/354 144/5/354 138/5/354
f 341/5/355 144/5/355 143/5/355
f 137/1/356 156/1/356 146/1/356
f 334/2/357 146/2/357 156/2/357
f 29/4/358 31/4/358 34/4/358
f 149/2/359 94/2/359 99/2/359
f 29/4/360 333/4/360 24/4/360
f 144/3/361 139/3/361 329/3/361
f 335/3/362 146/3/362 334/3/362
f 148/4/363 146/4/363 335/4/363
f 90/4/364 149/4/364 331/4/364
f 25/5/365 160/5/365 127/5/365
f 127/4/366 160/4/366 175/4/366
f 159/5/367 99/5/367 135/5/367
f 153/4/368 168/4/368 133/4/368
f 339/4/369 168/4/369 153/4/369
f 133/1/370 168/1/370 33/1/370
f 163/2/371 149/2/371 99/2/371
f 31/4/372 33/4/372 34/4/372
f 26/1/373 136/1/373 133/1/373
f 133/1/374 136/1/374 32/1/374
f 139/2/375 36/2/375 140/2/375
f 141/3/376 162/3/376 134/3/376
f 37/4/377 162/4/377 141/4/377
f 167/2/378 332/2/378 142/2/378
f 336/5/379 334/5/379 156/5/379
f 179/5/380 334/5/380 336/5/380
f 179/5/381 335/5/381 334/5/381
f 140/4/382 36/4/382 150/4/382
f 151/3/383 33/3/383 168/3/383
f 166/3/384 145/3/384 333/3/384
f 175/2/385 177/2/385 155/2/385
f 153/2/386 133/2/386 158/2/386
f 32/4/387 158/4/387 133/4/387
f 153/4/388 158/4/388 35/4/388
f 32/5/389 331/5/389 338/5/389
f 149/2/390 163/2/390 331/2/390
f 331/4/391 163/4/391 338/4/391
f 150/3/392 159/3/392 135/3/392
f 159/4/393 163/4/393 99/4/393
f 156/4/394 170/4/394 336/4/394
f 131/3/395 340/3/395 337/3/395
f 138/5/396 337/5/396 340/5/396
f 173/4/397 147/4/397 145/4/397
f 150/4/398 171/4/398 159/4/398
f 161/2/399 336/2/399 170/2/399
f 340/2/400 143/2/400 138/2/400
f 166/4/401 333/4/401 34/4/401
f 29/5/402 34/5/402 333/5/402
f 176/5/403 163/5/403 159/5/403
f 38/3/404 30/3/404 167/3/404
f 35/4/405 158/4/405 338/4/405
f 158/5/406 32/5/406 338/5/406
f 165/4/407 143/4/407 340/4/407
f 144/5/408 36/5/408 139/5/408
f 152/1/409 181/1/409 142/1/409
f 339/3/410 153/3/410 35/3/410
f 169/4/411 160/4/411 38/4/411
f 175/2/412 160/2/412 169/2/412
f 336/3/413 161/3/413 179/3/413
f 34/5/414 33/5/414 166/5/414
f 151/4/415 166/4/415 33/4/415
f 173/1/416 162/1/416 147/1/416
f 37/3/417 147/3/417 162/3/417
f 183/1/418 163/1/418 176/1/418
f 125/3/419 155/3/419 157/3/419
f 148/3/420 335/3/420 340/3/420
f 142/4/421 181/4/421 154/4/421
f 157/5/422 170/5/422 156/5/422
f 134/1/423 181/1/423 152/1/423
f 167/2/424 142/2/424 154/2/424
f 36/5/425 164/5/425 150/5/425
f 171/5/426 150/5/426 164/5/426
f 347/1/427 340/1/427 335/1/427
f 38/2/428 167/2/428 40/2/428
f 40/1/429 167/1/429 184/1/429
f 179/1/430 161/1/430 178/1/430
f 342/4/431 181/4/431 162/4/431
f 134/3/432 162/3/432 181/3/432
f 155/1/433 170/1/433 157/1/433
f 347/2/434 335/2/434 179/2/434
f 172/4/435 168/4/435 39/4/435
f 342/3/436 162/3/436 173/3/436
f 151/4/437 172/4/437 166/4/437
f 145/2/438 166/2/438 173/2/438
f 171/2/439 176/2/439 159/2/439
f 265/2/440 391/2/440 257/2/440
f 151/2/441 168/2/441 172/2/441
f 177/2/442 175/2/442 169/2/442
f 191/5/443 164/5/443 36/5/443
f 177/1/444 169/1/444 40/1/444
f 143/3/445 185/3/445 341/3/445
f 40/4/446 169/4/446 38/4/446
f 144/3/447 341/3/447 36/3/447
f 198/5/448 170/5/448 155/5/448
f 166/3/449 172/3/449 173/3/449
f 35/4/450 338/4/450 339/4/450
f 190/3/451 339/3/451 338/3/451
f 347/2/452 165/2/452 340/2/452
f 41/1/453 179/1/453 178/1/453
f 342/5/454 173/5/454 180/5/454
f 184/3/455 167/3/455 182/3/455
f 171/5/456 183/5/456 176/5/456
f 342/5/457 193/5/457 181/5/457
f 181/4/458 193/4/458 42/4/458
f 183/3/459 174/3/459 163/3/459
f 143/5/460 188/5/460 185/5/460
f 347/5/461 179/5/461 41/5/461
f 170/4/462 198/4/462 161/4/462
f 177/2/463 198/2/463 155/2/463
f 188/3/464 143/3/464 165/3/464
f 172/2/465 196/2/465 173/2/465
f 344/3/466 182/3/466 167/3/466
f 184/2/467 186/2/467 40/2/467
f 343/2/468 171/2/468 164/2/468
f 188/1/469 165/1/469 347/1/469
f 177/5/470 40/5/470 186/5/470
f 161/4/471 187/4/471 178/4/471
f 178/3/472 187/3/472 194/3/472
f 41/3/473 178/3/473 194/3/473
f 196/3/474 172/3/474 189/3/474
f 180/2/475 173/2/475 192/2/475
f 192/1/476 173/1/476 196/1/476
f 200/3/477 339/3/477 49/3/477
f 168/3/478 339/3/478 200/3/478
f 180/4/479 193/4/479 342/4/479
f 189/5/480 172/5/480 39/5/480
f 174/1/481 190/1/481 163/1/481
f 338/4/482 163/4/482 190/4/482
f 61/5/483 423/5/483 287/5/483
f 43/5/484 187/5/484 161/5/484
f 191/1/485 343/1/485 164/1/485
f 192/5/486 193/5/486 180/5/486
f 167/3/487 154/3/487 344/3/487
f 182/4/488 199/4/488 184/4/488
f 341/2/489 191/2/489 36/2/489
f 168/5/490 200/5/490 39/5/490
f 39/2/491 200/2/491 197/2/491
f 341/5/492 185/5/492 46/5/492
f 181/5/493 344/5/493 154/5/493
f 42/2/494 344/2/494 181/2/494
f 344/4/495 47/4/495 182/4/495
f 203/2/496 41/2/496 194/2/496
f 208/1/497 192/1/497 196/1/497
f 187/4/498 43/4/498 202/4/498
f 349/4/499 193/4/499 192/4/499
f 161/4/500 198/4/500 43/4/500
f 184/2/501 199/2/501 186/2/501
f 341/5/502 46/5/502 191/5/502
f 188/2/503 347/2/503 185/2/503
f 46/3/504 185/3/504 347/3/504
f 186/5/505 198/5/505 177/5/505
f 198/5/506 210/5/506 43/5/506
f 345/2/507 198/2/507 186/2/507
f 210/4/508 198/4/508 345/4/508
f 44/1/509 351/1/509 183/1/509
f 405/1/510 414/1/510 434/1/510
f 206/4/511 199/4/511 182/4/511
f 202/2/512 203/2/512 187/2/512
f 187/2/513 203/2/513 194/2/513
f 347/2/514 203/2/514 204/2/514
f 347/5/515 41/5/515 203/5/515
f 189/4/516 201/4/516 196/4/516
f 199/5/517 345/5/517 186/5/517
f 213/3/518 190/3/518 174/3/518
f 206/3/519 205/3/519 199/3/519
f 183/2/520 343/2/520 44/2/520
f 197/5/521 201/5/521 39/5/521
f 189/3/522 39/3/522 201/3/522
f 202/1/523 43/1/523 346/1/523
f 46/5/524 347/5/524 348/5/524
f 174/5/525 183/5/525 50/5/525
f 190/1/526 49/1/526 339/1/526
f 199/2/527 205/2/527 345/2/527
f 182/5/528 47/5/528 206/5/528
f 201/2/529 208/2/529 196/2/529
f 45/1/530 343/1/530 191/1/530
f 195/5/531 343/5/531 45/5/531
f 204/4/532 203/4/532 207/4/532
f 42/2/533 209/2/533 344/2/533
f 47/5/534 344/5/534 209/5/534
f 211/4/535 195/4/535 45/4/535
f 204/2/536 348/2/536 347/2/536
f 202/1/537 207/1/537 203/1/537
f 201/2/538 223/2/538 208/2/538
f 349/2/539 192/2/539 208/2/539
f 349/4/540 208/4/540 223/4/540
f 209/1/541 193/1/541 349/1/541
f 171/3/542 343/3/542 183/3/542
f 42/4/543 193/4/543 209/4/543
f 43/4/544 210/4/544 216/4/544
f 183/4/545 351/4/545 50/4/545
f 197/5/546 223/5/546 201/5/546
f 202/1/547 346/1/547 354/1/547
f 191/3/548 46/3/548 48/3/548
f 211/4/549 44/4/549 195/4/549
f 215/2/550 202/2/550 354/2/550
f 191/1/551 48/1/551 45/1/551
f 174/4/552 212/4/552 213/4/552
f 47/2/553 214/2/553 206/2/553
f 207/5/554 202/5/554 215/5/554
f 348/2/555 355/2/555 46/2/555
f 224/4/556 210/4/556 345/4/556
f 211/5/557 45/5/557 48/5/557
f 224/1/558 345/1/558 205/1/558
f 216/5/559 346/5/559 43/5/559
f 200/5/560 226/5/560 197/5/560
f 216/2/561 210/2/561 224/2/561
f 213/5/562 221/5/562 49/5/562
f 213/2/563 49/2/563 190/2/563
f 211/5/564 228/5/564 44/5/564
f 211/1/565 48/1/565 230/1/565
f 49/5/566 226/5/566 200/5/566
f 206/5/567 214/5/567 205/5/567
f 346/4/568 216/4/568 354/4/568
f 239/4/569 216/4/569 242/4/569
f 50/2/570 212/2/570 174/2/570
f 350/2/571 212/2/571 50/2/571
f 350/1/572 221/1/572 212/1/572
f 212/3/573 221/3/573 213/3/573
f 205/3/574 214/3/574 218/3/574
f 228/1/575 351/1/575 44/1/575
f 219/5/576 46/5/576 355/5/576
f 223/1/577 220/1/577 349/1/577
f 52/1/578 222/1/578 223/1/578
f 230/2/579 48/2/579 219/2/579
f 211/2/580 230/2/580 234/2/580
f 48/1/581 46/1/581 219/1/581
f 226/5/582 49/5/582 236/5/582
f 204/2/583 225/2/583 348/2/583
f 217/1/584 226/1/584 52/1/584
f 217/2/585 197/2/585 226/2/585
f 197/3/586 217/3/586 223/3/586
f 223/2/587 217/2/587 52/2/587
f 227/3/588 221/3/588 350/3/588
f 204/5/589 207/5/589 225/5/589
f 234/5/590 228/5/590 211/5/590
f 221/1/591 227/1/591 49/1/591
f 205/3/592 218/3/592 224/3/592
f 239/2/593 354/2/593 216/2/593
f 225/3/594 207/3/594 231/3/594
f 349/2/595 220/2/595 209/2/595
f 227/4/596 236/4/596 49/4/596
f 214/5/597 47/5/597 229/5/597
f 51/4/598 230/4/598 219/4/598
f 235/4/599 223/4/599 222/4/599
f 220/2/600 223/2/600 235/2/600
f 237/3/601 355/3/601 348/3/601
f 239/2/602 353/2/602 354/2/602
f 352/1/603 350/1/603 50/1/603
f 225/3/604 231/3/604 348/3/604
f 348/3/605 231/3/605 237/3/605
f 355/5/606 51/5/606 219/5/606
f 236/2/607 227/2/607 233/2/607
f 354/4/608 353/4/608 215/4/608
f 231/3/609 215/3/609 353/3/609
f 352/1/610 50/1/610 351/1/610
f 352/2/611 227/2/611 350/2/611
f 228/1/612 232/1/612 351/1/612
f 351/1/613 232/1/613 352/1/613
f 224/3/614 218/3/614 242/3/614
f 52/2/615 226/2/615 236/2/615
f 70/4/616 283/4/616 302/4/616
f 51/4/617 234/4/617 230/4/617
f 235/3/618 222/3/618 238/3/618
f 52/5/619 238/5/619 222/5/619
f 53/5/620 220/5/620 235/5/620
f 53/2/621 248/2/621 220/2/621
f 52/1/622 236/1/622 238/1/622
f 248/5/623 209/5/623 220/5/623
f 236/3/624 233/3/624 238/3/624
f 214/3/625 229/3/625 218/3/625
f 54/1/626 355/1/626 237/1/626
f 356/2/627 352/2/627 232/2/627
f 228/4/628 234/4/628 232/4/628
f 357/5/629 238/5/629 233/5/629
f 352/4/630 357/4/630 233/4/630
f 240/1/631 232/1/631 234/1/631
f 355/1/632 54/1/632 51/1/632
f 356/3/633 232/3/633 240/3/633
f 235/4/634 55/4/634 53/4/634
f 235/1/635 238/1/635 55/1/635
f 238/4/636 357/4/636 55/4/636
f 352/3/637 356/3/637 357/3/637
f 216/5/638 224/5/638 242/5/638
f 241/5/639 51/5/639 54/5/639
f 356/5/640 240/5/640 241/5/640
f 353/4/641 246/4/641 231/4/641
f 237/3/642 231/3/642 246/3/642
f 244/3/643 248/3/643 53/3/643
f 356/5/644 241/5/644 243/5/644
f 237/5/645 246/5/645 241/5/645
f 237/5/646 241/5/646 54/5/646
f 241/1/647 240/1/647 234/1/647
f 241/4/648 234/4/648 51/4/648
f 229/5/649 247/5/649 218/5/649
f 242/4/650 218/4/650 247/4/650
f 53/3/651 55/3/651 244/3/651
f 209/1/652 248/1/652 358/1/652
f 239/1/653 242/1/653 56/1/653
f 356/1/654 244/1/654 357/1/654
f 55/1/655 357/1/655 244/1/655
f 245/1/656 353/1/656 239/1/656
f 245/2/657 246/2/657 353/2/657
f 59/2/658 111/2/658 110/2/658
f 243/3/659 241/3/659 246/3/659
f 229/3/660 209/3/660 358/3/660
f 47/4/661 209/4/661 229/4/661
f 249/5/662 358/5/662 244/5/662
f 244/4/663 358/4/663 248/4/663
f 243/2/664 246/2/664 245/2/664
f 242/3/665 247/3/665 56/3/665
f 229/3/666 358/3/666 249/3/666
f 244/2/667 356/2/667 359/2/667
f 359/2/668 356/2/668 243/2/668
f 239/2/669 56/2/669 245/2/669
f 56/3/670 57/3/670 245/3/670
f 244/4/671 359/4/671 249/4/671
f 247/2/672 57/2/672 56/2/672
f 245/4/673 359/4/673 243/4/673
f 245/1/674 57/1/674 359/1/674
f 249/2/675 247/2/675 229/2/675
f 57/1/676 247/1/676 249/1/676
f 57/3/677 249/3/677 359/3/677
f 360/1/678 361/1/678 362/1/678
f 250/5/679 360/5/679 1/5/679
f 1/4/680 360/4/680 362/4/680
f 251/1/681 361/1/681 360/1/681
f 361/3/682 365/3/682 362/3/682
f 251/2/683 365/2/683 361/2/683
f 251/1/684 368/1/684 257/1/684
f 250/5/685 252/5/685 366/5/685
f 368/2/686 251/2/686 360/2/686
f 360/3/687 259/3/687 368/3/687
f 363/3/688 366/3/688 252/3/688
f 253/2/689 364/2/689 363/2/689
f 250/3/690 259/3/690 360/3/690
f 252/1/691 253/1/691 363/1/691
f 256/1/692 1/1/692 362/1/692
f 256/1/693 362/1/693 365/1/693
f 256/5/694 254/5/694 1/5/694
f 252/4/695 254/4/695 255/4/695
f 255/5/696 253/5/696 252/5/696
f 260/5/697 366/5/697 363/5/697
f 255/3/698 369/3/698 253/3/698
f 373/2/699 261/2/699 258/2/699
f 255/1/700 261/1/700 369/1/700
f 370/4/701 254/4/701 256/4/701
f 254/2/702 258/2/702 255/2/702
f 260/2/703 364/2/703 380/2/703
f 254/1/704 294/1/704 258/1/704
f 259/3/705 250/3/705 2/3/705
f 256/2/706 365/2/706 374/2/706
f 2/4/707 368/4/707 259/4/707
f 262/3/708 371/3/708 370/3/708
f 294/3/709 254/3/709 371/3/709
f 294/5/710 372/5/710 258/5/710
f 251/1/711 374/1/711 365/1/711
f 257/4/712 391/4/712 264/4/712
f 377/4/713 262/4/713 370/4/713
f 385/5/714 261/5/714 373/5/714
f 4/5/715 367/5/715 375/5/715
f 5/1/716 372/1/716 294/1/716
f 251/4/717 264/4/717 376/4/717
f 262/2/718 386/2/718 371/2/718
f 366/3/719 260/3/719 384/3/719
f 367/3/720 4/3/720 364/3/720
f 4/5/721 380/5/721 364/5/721
f 396/3/722 368/3/722 2/3/722
f 262/1/723 377/1/723 267/1/723
f 374/1/724 376/1/724 388/1/724
f 263/2/725 5/2/725 295/2/725
f 385/2/726 266/2/726 261/2/726
f 257/5/727 368/5/727 265/5/727
f 382/2/728 381/2/728 380/2/728
f 380/5/729 381/5/729 260/5/729
f 383/3/730 4/3/730 266/3/730
f 262/5/731 267/5/731 273/5/731
f 378/2/732 381/2/732 382/2/732
f 374/2/733 251/2/733 376/2/733
f 383/2/734 266/2/734 274/2/734
f 377/2/735 374/2/735 388/2/735
f 378/2/736 260/2/736 381/2/736
f 386/3/737 262/3/737 273/3/737
f 386/3/738 5/3/738 294/3/738
f 263/4/739 3/4/739 373/4/739
f 3/3/740 385/3/740 373/3/740
f 295/4/741 270/4/741 3/4/741
f 273/3/742 395/3/742 386/3/742
f 300/3/743 267/3/743 387/3/743
f 388/2/744 390/2/744 387/2/744
f 295/4/745 5/4/745 268/4/745
f 384/5/746 269/5/746 396/5/746
f 384/2/747 272/2/747 269/2/747
f 112/1/748 96/1/748 152/1/748
f 388/2/749 392/2/749 390/2/749
f 396/5/750 2/5/750 379/5/750
f 264/4/751 391/4/751 397/4/751
f 386/5/752 268/5/752 5/5/752
f 270/3/753 11/3/753 3/3/753
f 368/2/754 396/2/754 389/2/754
f 266/3/755 385/3/755 393/3/755
f 383/5/756 382/5/756 4/5/756
f 265/1/757 10/1/757 391/1/757
f 383/3/758 299/3/758 382/3/758
f 382/1/759 299/1/759 9/1/759
f 272/4/760 384/4/760 6/4/760
f 268/5/761 7/5/761 295/5/761
f 270/1/762 295/1/762 7/1/762
f 390/4/763 412/4/763 398/4/763
f 389/3/764 276/3/764 271/3/764
f 392/4/765 407/4/765 390/4/765
f 280/5/766 6/5/766 378/5/766
f 396/1/767 269/1/767 276/1/767
f 402/1/768 399/1/768 6/1/768
f 6/1/769 399/1/769 272/1/769
f 9/1/770 280/1/770 378/1/770
f 8/5/771 275/5/771 297/5/771
f 391/1/772 10/1/772 397/1/772
f 395/4/773 404/4/773 386/4/773
f 274/5/774 299/5/774 383/5/774
f 9/2/775 378/2/775 382/2/775
f 3/2/776 11/2/776 296/2/776
f 267/1/777 300/1/777 273/1/777
f 10/1/778 275/1/778 397/1/778
f 409/1/779 411/1/779 299/1/779
f 392/2/780 298/2/780 407/2/780
f 280/5/781 402/5/781 6/5/781
f 298/4/782 392/4/782 8/4/782
f 298/3/783 8/3/783 301/3/783
f 399/5/784 269/5/784 272/5/784
f 296/1/785 401/1/785 278/1/785
f 393/1/786 296/1/786 278/1/786
f 410/1/787 407/1/787 298/1/787
f 399/3/788 284/3/788 269/3/788
f 277/3/789 275/3/789 10/3/789
f 303/4/790 275/4/790 277/4/790
f 415/1/791 413/1/791 277/1/791
f 277/2/792 10/2/792 415/2/792
f 300/4/793 403/4/793 273/4/793
f 276/4/794 269/4/794 284/4/794
f 406/5/795 274/5/795 279/5/795
f 278/1/796 401/1/796 405/1/796
f 390/5/797 407/5/797 412/5/797
f 16/2/798 412/2/798 407/2/798
f 416/3/799 405/3/799 401/3/799
f 16/2/800 407/2/800 410/2/800
f 12/2/801 274/2/801 278/2/801
f 413/5/802 415/5/802 431/5/802
f 12/4/803 279/4/803 274/4/803
f 281/1/804 415/1/804 276/1/804
f 271/2/805 276/2/805 415/2/805
f 276/1/806 284/1/806 281/1/806
f 296/5/807 11/5/807 416/5/807
f 302/5/808 279/5/808 12/5/808
f 282/3/809 402/3/809 408/3/809
f 12/1/810 405/1/810 302/1/810
f 298/5/811 301/5/811 410/5/811
f 421/2/812 400/2/812 268/2/812
f 299/5/813 411/5/813 9/5/813
f 16/1/814 424/1/814 412/1/814
f 417/2/815 400/2/815 428/2/815
f 394/4/816 403/4/816 13/4/816
f 302/5/817 283/5/817 406/5/817
f 405/1/818 434/1/818 430/1/818
f 426/1/819 427/1/819 302/1/819
f 416/5/820 420/5/820 414/5/820
f 421/5/821 428/5/821 400/5/821
f 418/4/822 277/4/822 413/4/822
f 418/2/823 286/2/823 303/2/823
f 14/2/824 411/2/824 283/2/824
f 288/5/825 289/5/825 399/5/825
f 302/5/826 427/5/826 70/5/826
f 281/2/827 431/2/827 415/2/827
f 289/4/828 66/4/828 284/4/828
f 286/3/829 301/3/829 297/3/829
f 409/2/830 283/2/830 411/2/830
f 416/1/831 11/1/831 420/1/831
f 422/1/832 404/1/832 13/1/832
f 423/2/833 9/2/833 411/2/833
f 408/1/834 280/1/834 423/1/834
f 284/2/835 66/2/835 281/2/835
f 422/4/836 421/4/836 404/4/836
f 425/4/837 428/4/837 421/4/837
f 62/2/838 425/2/838 422/2/838
f 428/4/839 437/4/839 417/4/839
f 15/1/840 433/1/840 60/1/840
f 287/4/841 423/4/841 411/4/841
f 287/5/842 411/5/842 293/5/842
f 289/3/843 288/3/843 306/3/843
f 432/5/844 425/5/844 62/5/844
f 437/5/845 60/5/845 417/5/845
f 13/2/846 403/2/846 419/2/846
f 426/1/847 430/1/847 427/1/847
f 408/4/848 436/4/848 282/4/848
f 425/5/849 432/5/849 437/5/849
f 437/5/850 428/5/850 425/5/850
f 293/2/851 14/2/851 290/2/851
f 413/5/852 431/5/852 291/5/852
f 291/4/853 292/4/853 418/4/853
f 292/3/854 438/3/854 418/3/854
f 430/2/855 67/2/855 427/2/855
f 433/5/856 434/5/856 414/5/856
f 59/4/857 291/4/857 431/4/857
f 436/1/858 408/1/858 423/1/858
f 433/3/859 435/3/859 434/3/859
f 67/4/860 430/4/860 434/4/860
f 16/3/861 410/3/861 71/3/861
f 438/4/862 84/4/862 286/4/862
f 111/1/863 100/1/863 115/1/863
f 307/4/864 108/4/864 123/4/864
f 149/4/865 308/4/865 94/4/865
f 72/4/866 81/4/866 86/4/866
f 215/5/867 231/5/867 207/5/867
f 376/3/868 8/3/868 392/3/868
f 405/1/869 416/1/869 414/1/869
f 343/1/870 195/1/870 44/1/870
f 227/4/871 352/4/871 233/4/871
f 70/4/872 58/4/872 283/4/872
