# Blender 5.2.2 LTS
# www.blender.org
mtllib ruins_ch_trim_a.mtl
o piece
v -2.499996 -0.208598 0.436904
v -0.000004 -0.208598 0.436904
v -2.499996 0.208599 0.479698
v -0.000004 0.208599 0.479698
v -2.499996 0.208599 -0.513434
v -0.000004 0.208599 -0.513434
v -2.499996 -0.208599 -0.513434
v -0.000004 -0.208599 -0.513434
v -2.499996 0.155049 0.406913
v -0.000004 0.155049 0.406913
v -0.000004 0.183524 0.479698
v -2.499996 0.183524 0.479698
v -2.499996 -0.009919 0.406913
v -0.000004 -0.009919 0.406913
v -2.499996 -0.038170 0.436904
v -0.000004 -0.038170 0.436904
v -1.634267 -0.220173 0.447142
v -1.633994 -0.228709 -0.513434
v -1.634267 0.220173 0.492371
v -1.634267 0.178657 0.492371
v -1.634267 0.148155 0.415451
v -1.634267 -0.006299 0.415451
v -1.634267 -0.036563 0.447142
v -0.874767 -0.228709 -0.513434
v -0.876483 -0.220173 0.447142
v -0.876486 -0.036563 0.447142
v -0.876486 -0.006299 0.415451
v -0.876486 0.148155 0.415451
v -0.876486 0.178657 0.492371
v -0.876483 0.220173 0.492371
v -2.459382 -0.232977 0.468724
v -2.459382 -0.232978 -0.513434
v -2.459382 0.232977 -0.513434
v -2.459382 0.232978 0.513434
v -2.459382 0.166809 0.513434
v -2.459382 0.139245 0.434196
v -2.459382 -0.005494 0.434196
v -2.459382 -0.032842 0.468724
v -1.651707 -0.232977 0.468724
v -1.651707 -0.032842 0.468724
v -1.651707 -0.005494 0.434196
v -1.651707 0.139245 0.434196
v -1.651707 0.166809 0.513434
v -1.651707 0.232978 0.513434
v -1.616006 -0.232977 0.468724
v -1.616006 -0.032842 0.468724
v -1.616006 -0.005494 0.434196
v -1.616006 0.139245 0.434196
v -1.616002 0.166809 0.513434
v -1.616006 0.232978 0.513434
v -0.899517 -0.232977 0.468724
v -0.899517 -0.032842 0.468724
v -0.899517 -0.005494 0.434196
v -0.899517 0.139245 0.434196
v -0.899517 0.166809 0.513434
v -0.899517 0.232978 0.513434
v -0.848293 -0.232977 0.468724
v -0.848293 -0.032842 0.468724
v -0.848293 -0.005494 0.434196
v -0.848293 0.139245 0.434196
v -0.848293 0.166809 0.513434
v -0.848293 0.232978 0.513434
v -0.022761 -0.232978 -0.513434
v -0.022761 -0.232977 0.468724
v -0.022761 -0.032842 0.468724
v -0.022761 -0.005494 0.434196
v -0.022761 0.139245 0.434196
v -0.022761 0.166808 0.513434
v -0.022761 0.232978 0.513434
v -0.022761 0.232977 -0.513434
v -2.229702 0.232977 -0.513434
v -1.651707 0.232978 0.302102
v -1.634267 0.220173 0.307603
v -1.616006 0.232978 0.302102
v -0.899517 0.232978 0.302102
v -0.876483 0.220173 0.322824
v -0.848293 0.232978 0.302102
v -0.242657 0.232977 -0.513434
v -2.229702 0.232977 0.302102
v -0.242657 0.232977 0.302102
v -0.281646 0.135217 -0.513434
v -2.190754 0.135217 -0.513434
v -0.893828 0.135218 0.260595
v -1.614625 0.135218 0.260595
v -2.190754 0.135218 0.260595
v -0.281646 0.135218 0.260595
v 2.499996 -0.208598 0.436904
v 2.499996 0.208599 0.479698
v 2.499996 0.208599 -0.513434
v 2.499996 -0.208599 -0.513434
v 2.499996 0.155049 0.406913
v 2.499996 0.183524 0.479698
v 2.499996 -0.009919 0.406913
v 2.499996 -0.038170 0.436904
v 0.865733 -0.220173 0.447142
v 0.866006 -0.228709 -0.513434
v 0.865733 0.220173 0.492371
v 0.865733 0.178657 0.492371
v 0.865733 0.148155 0.415451
v 0.865733 -0.006299 0.415451
v 0.865733 -0.036563 0.447142
v 1.625233 -0.228709 -0.513434
v 1.623518 -0.220173 0.447142
v 1.623514 -0.036563 0.447142
v 1.623514 -0.006299 0.415451
v 1.623514 0.148155 0.415451
v 1.623514 0.178657 0.492371
v 1.623518 0.220173 0.492371
v 0.040618 -0.232977 0.468724
v 0.040618 -0.232978 -0.513434
v 0.040618 0.232977 -0.513434
v 0.040618 0.232978 0.513434
v 0.040618 0.166809 0.513434
v 0.040618 0.139245 0.434196
v 0.040618 -0.005494 0.434196
v 0.040618 -0.032842 0.468724
v 0.848293 -0.232977 0.468724
v 0.848293 -0.032842 0.468724
v 0.848293 -0.005494 0.434196
v 0.848293 0.139245 0.434196
v 0.848293 0.166809 0.513434
v 0.848293 0.232978 0.513434
v 0.883994 -0.232977 0.468724
v 0.883994 -0.032842 0.468724
v 0.883994 -0.005494 0.434196
v 0.883994 0.139245 0.434196
v 0.883998 0.166809 0.513434
v 0.883994 0.232978 0.513434
v 1.600483 -0.232977 0.468724
v 1.600483 -0.032842 0.468724
v 1.600483 -0.005494 0.434196
v 1.600483 0.139245 0.434196
v 1.600483 0.166809 0.513434
v 1.600483 0.232978 0.513434
v 1.651707 -0.232977 0.468724
v 1.651707 -0.032842 0.468724
v 1.651707 -0.005494 0.434196
v 1.651707 0.139245 0.434196
v 1.651707 0.166809 0.513434
v 1.651707 0.232978 0.513434
v 2.477239 -0.232978 -0.513434
v 2.477239 -0.232977 0.468724
v 2.477239 -0.032842 0.468724
v 2.477239 -0.005494 0.434196
v 2.477239 0.139245 0.434196
v 2.477239 0.166808 0.513434
v 2.477239 0.232978 0.513434
v 2.477239 0.232977 -0.513434
v 0.270298 0.232977 -0.513434
v 0.848293 0.232978 0.302102
v 0.865733 0.220173 0.307603
v 0.883994 0.232978 0.302102
v 1.600483 0.232978 0.302102
v 1.623518 0.220173 0.322824
v 1.651707 0.232978 0.302102
v 2.257343 0.232977 -0.513434
v 0.270298 0.232977 0.302102
v 2.257343 0.232977 0.302102
v 2.218354 0.135217 -0.513434
v 0.309246 0.135217 -0.513434
v 1.606173 0.135218 0.260595
v 0.885375 0.135218 0.260595
v 0.309246 0.135218 0.260595
v 2.218354 0.135218 0.260595
vn -0.0000 -0.9445 0.3285
vn -0.0000 -1.0000 -0.0043
vn -0.0000 1.0000 -0.0000
vn -0.0000 -0.0000 1.0000
vn -0.0000 -0.0000 -1.0000
vn -0.0000 0.7839 0.6209
vn -0.5797 -0.8148 0.0071
vn -0.7556 -0.0001 0.6551
vn -0.7041 -0.6707 0.2333
vn -0.7163 -0.0000 0.6978
vn -0.5953 0.5811 0.5549
vn -0.7634 -0.0000 0.6459
vn -0.0000 -1.0000 -0.0000
vn -0.4182 -0.9083 0.0073
vn -0.6078 -0.0000 0.7941
vn -0.4326 0.6520 0.6227
vn -0.5537 -0.0000 0.8327
vn -0.5405 -0.7947 0.2764
vn -0.5986 -0.0000 0.8011
vn -0.5147 -0.8574 -0.0000
vn 1.0000 -0.0000 -0.0000
vn -0.5147 0.8574 -0.0000
vn -0.6390 -0.0000 0.7692
vn -0.5190 -0.7960 0.3114
vn -0.5576 -0.0000 0.8301
vn -0.4751 0.6405 0.6034
vn -0.6167 -0.0000 0.7872
vn 0.5976 -0.8017 0.0073
vn 0.7778 -0.0000 0.6285
vn 0.6129 0.5715 0.5457
vn 0.7321 -0.0000 0.6812
vn 0.7203 -0.6551 0.2279
vn 0.7702 -0.0000 0.6378
vn 0.4920 -0.8706 0.0086
vn 0.6838 -0.0000 0.7297
vn 0.5065 0.6236 0.5955
vn 0.6312 -0.0000 0.7756
vn 0.6181 -0.7424 0.2583
vn 0.6748 -0.0000 0.7380
vn 0.7310 -0.6824 -0.0000
vn 0.8134 -0.0000 0.5817
vn 0.6939 0.5242 0.4938
vn 0.7679 -0.0000 0.6405
vn 0.7631 -0.6104 0.2123
vn 0.8290 -0.0000 0.5592
vn 0.7310 0.6824 -0.0000
vn 0.5918 0.8061 -0.0000
vn -0.5741 0.8188 -0.0000
vn 0.4859 0.8740 -0.0000
vn -0.4136 0.9105 -0.0000
vn -0.4803 0.3370 -0.8098
vn 0.9290 0.3701 -0.0000
vn -0.0000 0.3908 -0.9205
vn -0.6448 0.5330 -0.5479
vn 0.5701 0.4947 -0.6559
vn 0.7250 0.3045 -0.6178
vn -0.9289 0.3705 -0.0000
vn -1.0000 -0.0000 -0.0000
vn -0.7041 -0.6706 0.2333
vn -0.5146 -0.8574 -0.0000
vn -0.5146 0.8574 -0.0000
vn -0.6389 -0.0000 0.7693
vn -0.5189 -0.7961 0.3114
vn -0.5575 -0.0000 0.8302
vn -0.4750 0.6405 0.6034
vn -0.6166 -0.0000 0.7872
vn 0.7702 -0.0000 0.6377
vn -0.7555 -0.0000 0.6551
vn -0.6396 -0.7146 0.2834
vn -0.6663 0.5845 0.4630
vn 0.0052 -1.0000 -0.0043
vn -0.6079 -0.0000 0.7940
vn -0.5009 0.6785 0.5374
vn -0.4744 -0.8183 0.3245
vn -0.5985 0.0001 0.8011
vn -0.5518 -0.7877 0.2740
vn -0.5077 0.6754 0.5349
vn 0.6832 0.5724 0.4534
vn 0.6568 -0.7009 0.2780
vn 0.7703 -0.0000 0.6377
vn 0.6837 -0.0000 0.7297
vn 0.5781 0.6396 0.5066
vn 0.5506 -0.7760 0.3077
vn 0.6749 -0.0001 0.7379
vn -0.0050 -1.0000 -0.0042
vn 0.7247 0.5402 0.4278
vn 0.7349 -0.6316 0.2471
vn -0.9289 0.3704 -0.0000
vn -0.5517 -0.7877 0.2740
vn -0.5076 0.6754 0.5349
vt 0.625000 0.875000
vt 0.625000 0.625000
vt 0.375000 0.875000
vt 0.875000 0.875000
s 0
usemtl ruins_ch_trim_a
f 54/1/1 49/1/1 48/1/1
f 18/2/2 51/2/2 45/2/2
f 162/3/3 161/3/3 160/3/3
f 54/4/4 47/4/4 53/4/4
f 7/1/5 33/1/5 32/1/5
f 49/2/4 56/2/4 50/2/4
f 53/2/6 46/2/6 52/2/6
f 51/2/4 46/2/4 45/2/4
f 17/1/7 18/1/7 45/1/7
f 19/1/8 49/1/8 50/1/8
f 20/1/9 48/1/9 49/1/9
f 22/1/10 48/1/10 21/1/10
f 23/1/11 47/1/11 22/1/11
f 17/1/12 46/1/12 23/1/12
f 32/2/13 39/2/13 31/2/13
f 35/2/4 44/2/4 34/2/4
f 36/1/1 43/1/1 35/1/1
f 37/4/4 42/4/4 36/4/4
f 38/2/6 41/2/6 37/2/6
f 31/2/4 40/2/4 38/2/4
f 25/1/14 24/1/14 57/1/14
f 25/1/15 58/1/15 26/1/15
f 26/1/16 59/1/16 27/1/16
f 27/1/17 60/1/17 28/1/17
f 29/1/18 60/1/18 61/1/18
f 30/1/19 61/1/19 62/1/19
f 32/1/20 1/1/20 7/1/20
f 14/1/21 2/1/21 8/1/21
f 3/1/22 33/1/22 5/1/22
f 35/1/23 3/1/23 12/1/23
f 36/1/24 12/1/24 9/1/24
f 13/1/25 36/1/25 9/1/25
f 15/1/26 37/1/26 13/1/26
f 1/1/27 38/1/27 15/1/27
f 39/1/28 18/1/28 17/1/28
f 40/1/29 17/1/29 23/1/29
f 41/1/30 23/1/30 22/1/30
f 42/1/31 22/1/31 21/1/31
f 42/1/32 20/1/32 43/1/32
f 43/1/33 19/1/33 44/1/33
f 51/1/34 24/1/34 25/1/34
f 52/1/35 25/1/35 26/1/35
f 53/1/36 26/1/36 27/1/36
f 54/1/37 27/1/37 28/1/37
f 54/1/38 29/1/38 55/1/38
f 55/1/39 30/1/39 56/1/39
f 57/2/13 63/2/13 64/2/13
f 57/2/4 65/2/4 58/2/4
f 58/2/6 66/2/6 59/2/6
f 59/4/4 67/4/4 60/4/4
f 60/1/1 68/1/1 61/1/1
f 61/2/4 69/2/4 62/2/4
f 148/1/5 90/1/5 141/1/5
f 63/1/40 2/1/40 64/1/40
f 65/1/41 2/1/41 16/1/41
f 66/1/42 16/1/42 14/1/42
f 67/1/43 14/1/43 10/1/43
f 67/1/44 11/1/44 68/1/44
f 68/1/45 4/1/45 69/1/45
f 70/1/46 4/1/46 6/1/46
f 72/1/47 19/1/47 73/1/47
f 74/1/48 19/1/48 50/1/48
f 56/2/3 74/2/3 50/2/3
f 75/1/49 30/1/49 76/1/49
f 77/1/50 30/1/50 62/1/50
f 44/2/3 72/2/3 79/2/3
f 73/1/51 74/1/51 84/1/51
f 71/2/52 85/2/52 82/2/52
f 72/2/53 85/2/53 79/2/53
f 76/1/54 77/1/54 83/1/54
f 72/1/55 73/1/55 84/1/55
f 84/2/53 75/2/53 83/2/53
f 75/1/56 76/1/56 83/1/56
f 77/2/53 86/2/53 83/2/53
f 78/2/57 86/2/57 80/2/57
f 132/1/1 127/1/1 126/1/1
f 96/2/2 129/2/2 123/2/2
f 80/2/3 62/2/3 69/2/3
f 132/4/4 125/4/4 131/4/4
f 127/2/4 134/2/4 128/2/4
f 131/2/6 124/2/6 130/2/6
f 129/2/4 124/2/4 123/2/4
f 13/1/58 9/1/58 5/1/58
f 158/2/3 140/2/3 147/2/3
f 95/1/7 96/1/7 123/1/7
f 97/1/8 127/1/8 128/1/8
f 98/1/59 126/1/59 127/1/59
f 100/1/10 126/1/10 99/1/10
f 101/1/11 125/1/11 100/1/11
f 95/1/12 124/1/12 101/1/12
f 110/2/13 117/2/13 109/2/13
f 93/1/21 87/1/21 90/1/21
f 113/2/4 122/2/4 112/2/4
f 114/1/1 121/1/1 113/1/1
f 115/4/4 120/4/4 114/4/4
f 116/2/6 119/2/6 115/2/6
f 109/2/4 118/2/4 116/2/4
f 103/1/14 102/1/14 135/1/14
f 103/1/15 136/1/15 104/1/15
f 104/1/16 137/1/16 105/1/16
f 105/1/17 138/1/17 106/1/17
f 107/1/18 138/1/18 139/1/18
f 108/1/19 139/1/19 140/1/19
f 110/1/60 2/1/60 8/1/60
f 83/3/3 86/3/3 81/3/3
f 111/1/5 8/1/5 6/1/5
f 4/1/61 111/1/61 6/1/61
f 113/1/62 4/1/62 11/1/62
f 114/1/63 11/1/63 10/1/63
f 14/1/64 114/1/64 10/1/64
f 16/1/65 115/1/65 14/1/65
f 2/1/66 116/1/66 16/1/66
f 117/1/28 96/1/28 95/1/28
f 118/1/29 95/1/29 101/1/29
f 119/1/30 101/1/30 100/1/30
f 120/1/31 100/1/31 99/1/31
f 120/1/32 98/1/32 121/1/32
f 121/1/67 97/1/67 122/1/67
f 129/1/34 102/1/34 103/1/34
f 130/1/35 103/1/35 104/1/35
f 131/1/36 104/1/36 105/1/36
f 132/1/37 105/1/37 106/1/37
f 132/1/38 107/1/38 133/1/38
f 133/1/39 108/1/39 134/1/39
f 135/2/13 141/2/13 142/2/13
f 135/2/4 143/2/4 136/2/4
f 136/2/6 144/2/6 137/2/6
f 137/4/4 145/4/4 138/4/4
f 138/1/1 146/1/1 139/1/1
f 139/2/4 147/2/4 140/2/4
f 70/1/5 8/1/5 63/1/5
f 141/1/40 87/1/40 142/1/40
f 143/1/41 87/1/41 94/1/41
f 144/1/42 94/1/42 93/1/42
f 145/1/43 93/1/43 91/1/43
f 145/1/44 92/1/44 146/1/44
f 146/1/45 88/1/45 147/1/45
f 148/1/46 88/1/46 89/1/46
f 24/2/5 18/2/5 82/2/5
f 150/1/47 97/1/47 151/1/47
f 152/1/48 97/1/48 128/1/48
f 134/2/3 152/2/3 128/2/3
f 153/1/49 108/1/49 154/1/49
f 155/1/50 108/1/50 140/1/50
f 122/2/3 150/2/3 157/2/3
f 160/2/5 102/2/5 96/2/5
f 151/1/51 152/1/51 162/1/51
f 149/2/52 163/2/52 160/2/52
f 150/2/53 163/2/53 157/2/53
f 154/1/54 155/1/54 161/1/54
f 150/1/55 151/1/55 162/1/55
f 162/2/53 153/2/53 161/2/53
f 153/1/56 154/1/56 161/1/56
f 155/2/53 164/2/53 161/2/53
f 156/2/57 164/2/57 158/2/57
f 54/1/1 55/1/1 49/1/1
f 18/2/2 24/2/2 51/2/2
f 161/3/3 164/3/3 159/3/3
f 159/3/3 160/3/3 161/3/3
f 160/3/3 163/3/3 162/3/3
f 54/4/4 48/4/4 47/4/4
f 7/1/5 5/1/5 33/1/5
f 49/2/4 55/2/4 56/2/4
f 53/2/6 47/2/6 46/2/6
f 51/2/4 52/2/4 46/2/4
f 19/1/68 20/1/68 49/1/68
f 20/1/69 21/1/69 48/1/69
f 22/1/10 47/1/10 48/1/10
f 23/1/70 46/1/70 47/1/70
f 17/1/12 45/1/12 46/1/12
f 32/2/71 18/2/71 39/2/71
f 35/2/4 43/2/4 44/2/4
f 36/1/1 42/1/1 43/1/1
f 37/4/4 41/4/4 42/4/4
f 38/2/6 40/2/6 41/2/6
f 31/2/4 39/2/4 40/2/4
f 25/1/72 57/1/72 58/1/72
f 26/1/73 58/1/73 59/1/73
f 27/1/17 59/1/17 60/1/17
f 29/1/74 28/1/74 60/1/74
f 30/1/75 29/1/75 61/1/75
f 32/1/20 31/1/20 1/1/20
f 8/1/21 6/1/21 14/1/21
f 6/1/21 4/1/21 10/1/21
f 4/1/21 11/1/21 10/1/21
f 14/1/21 16/1/21 2/1/21
f 6/1/21 10/1/21 14/1/21
f 3/1/22 34/1/22 33/1/22
f 35/1/23 34/1/23 3/1/23
f 36/1/76 35/1/76 12/1/76
f 13/1/25 37/1/25 36/1/25
f 15/1/77 38/1/77 37/1/77
f 1/1/27 31/1/27 38/1/27
f 40/1/29 39/1/29 17/1/29
f 41/1/78 40/1/78 23/1/78
f 42/1/31 41/1/31 22/1/31
f 42/1/79 21/1/79 20/1/79
f 43/1/80 20/1/80 19/1/80
f 52/1/81 51/1/81 25/1/81
f 53/1/82 52/1/82 26/1/82
f 54/1/37 53/1/37 27/1/37
f 54/1/83 28/1/83 29/1/83
f 55/1/84 29/1/84 30/1/84
f 57/2/85 24/2/85 63/2/85
f 57/2/4 64/2/4 65/2/4
f 58/2/6 65/2/6 66/2/6
f 59/4/4 66/4/4 67/4/4
f 60/1/1 67/1/1 68/1/1
f 61/2/4 68/2/4 69/2/4
f 148/1/5 89/1/5 90/1/5
f 63/1/40 8/1/40 2/1/40
f 65/1/41 64/1/41 2/1/41
f 66/1/86 65/1/86 16/1/86
f 67/1/43 66/1/43 14/1/43
f 67/1/87 10/1/87 11/1/87
f 68/1/45 11/1/45 4/1/45
f 70/1/46 69/1/46 4/1/46
f 72/1/47 44/1/47 19/1/47
f 74/1/48 73/1/48 19/1/48
f 56/2/3 75/2/3 74/2/3
f 75/1/49 56/1/49 30/1/49
f 77/1/50 76/1/50 30/1/50
f 71/2/3 33/2/3 79/2/3
f 33/2/3 34/2/3 79/2/3
f 34/2/3 44/2/3 79/2/3
f 71/2/52 79/2/52 85/2/52
f 72/2/53 84/2/53 85/2/53
f 84/2/53 74/2/53 75/2/53
f 77/2/53 80/2/53 86/2/53
f 78/2/88 81/2/88 86/2/88
f 132/1/1 133/1/1 127/1/1
f 96/2/2 102/2/2 129/2/2
f 80/2/3 77/2/3 62/2/3
f 69/2/3 70/2/3 80/2/3
f 70/2/3 78/2/3 80/2/3
f 132/4/4 126/4/4 125/4/4
f 127/2/4 133/2/4 134/2/4
f 131/2/6 125/2/6 124/2/6
f 129/2/4 130/2/4 124/2/4
f 1/1/58 15/1/58 13/1/58
f 9/1/58 12/1/58 3/1/58
f 7/1/58 1/1/58 13/1/58
f 9/1/58 3/1/58 5/1/58
f 7/1/58 13/1/58 5/1/58
f 158/2/3 155/2/3 140/2/3
f 147/2/3 148/2/3 158/2/3
f 148/2/3 156/2/3 158/2/3
f 97/1/68 98/1/68 127/1/68
f 98/1/69 99/1/69 126/1/69
f 100/1/10 125/1/10 126/1/10
f 101/1/70 124/1/70 125/1/70
f 95/1/12 123/1/12 124/1/12
f 110/2/71 96/2/71 117/2/71
f 90/1/21 89/1/21 93/1/21
f 89/1/21 88/1/21 91/1/21
f 88/1/21 92/1/21 91/1/21
f 93/1/21 94/1/21 87/1/21
f 89/1/21 91/1/21 93/1/21
f 113/2/4 121/2/4 122/2/4
f 114/1/1 120/1/1 121/1/1
f 115/4/4 119/4/4 120/4/4
f 116/2/6 118/2/6 119/2/6
f 109/2/4 117/2/4 118/2/4
f 103/1/72 135/1/72 136/1/72
f 104/1/73 136/1/73 137/1/73
f 105/1/17 137/1/17 138/1/17
f 107/1/74 106/1/74 138/1/74
f 108/1/75 107/1/75 139/1/75
f 110/1/60 109/1/60 2/1/60
f 81/3/3 82/3/3 83/3/3
f 82/3/3 85/3/3 84/3/3
f 82/3/3 84/3/3 83/3/3
f 111/1/5 110/1/5 8/1/5
f 4/1/61 112/1/61 111/1/61
f 113/1/62 112/1/62 4/1/62
f 114/1/89 113/1/89 11/1/89
f 14/1/64 115/1/64 114/1/64
f 16/1/90 116/1/90 115/1/90
f 2/1/66 109/1/66 116/1/66
f 118/1/29 117/1/29 95/1/29
f 119/1/78 118/1/78 101/1/78
f 120/1/31 119/1/31 100/1/31
f 120/1/79 99/1/79 98/1/79
f 121/1/67 98/1/67 97/1/67
f 130/1/81 129/1/81 103/1/81
f 131/1/82 130/1/82 104/1/82
f 132/1/37 131/1/37 105/1/37
f 132/1/83 106/1/83 107/1/83
f 133/1/84 107/1/84 108/1/84
f 135/2/85 102/2/85 141/2/85
f 135/2/4 142/2/4 143/2/4
f 136/2/6 143/2/6 144/2/6
f 137/4/4 144/4/4 145/4/4
f 138/1/1 145/1/1 146/1/1
f 139/2/4 146/2/4 147/2/4
f 70/1/5 6/1/5 8/1/5
f 141/1/40 90/1/40 87/1/40
f 143/1/41 142/1/41 87/1/41
f 144/1/86 143/1/86 94/1/86
f 145/1/43 144/1/43 93/1/43
f 145/1/87 91/1/87 92/1/87
f 146/1/45 92/1/45 88/1/45
f 148/1/46 147/1/46 88/1/46
f 81/2/5 78/2/5 70/2/5
f 70/2/5 63/2/5 81/2/5
f 63/2/5 24/2/5 81/2/5
f 18/2/5 32/2/5 82/2/5
f 32/2/5 33/2/5 82/2/5
f 33/2/5 71/2/5 82/2/5
f 82/2/5 81/2/5 24/2/5
f 150/1/47 122/1/47 97/1/47
f 152/1/48 151/1/48 97/1/48
f 134/2/3 153/2/3 152/2/3
f 153/1/49 134/1/49 108/1/49
f 155/1/50 154/1/50 108/1/50
f 149/2/3 111/2/3 157/2/3
f 111/2/3 112/2/3 157/2/3
f 112/2/3 122/2/3 157/2/3
f 159/2/5 156/2/5 148/2/5
f 148/2/5 141/2/5 159/2/5
f 141/2/5 102/2/5 159/2/5
f 96/2/5 110/2/5 160/2/5
f 110/2/5 111/2/5 160/2/5
f 111/2/5 149/2/5 160/2/5
f 160/2/5 159/2/5 102/2/5
f 149/2/52 157/2/52 163/2/52
f 150/2/53 162/2/53 163/2/53
f 162/2/53 152/2/53 153/2/53
f 155/2/53 158/2/53 164/2/53
f 156/2/88 159/2/88 164/2/88
