# Blender 5.2.2 LTS
# www.blender.org
mtllib ruins_ch_pillar_a.mtl
o piece
v 0.307599 1.402146 0.296632
v 0.296676 1.387334 0.303882
v -0.296099 1.384917 0.296632
v -0.296099 1.404046 0.308139
v -0.307707 1.403494 0.297147
v 0.307901 1.405795 -0.295217
v 0.296092 1.384917 -0.295560
v 0.296092 1.406357 -0.307067
v -0.296099 1.384917 -0.295560
v -0.301652 1.401677 -0.303547
v 0.328200 1.499999 0.326559
v -0.328777 1.499999 0.324473
v 0.327529 1.499999 -0.324144
v -0.326681 1.499999 -0.326141
v 0.281811 1.384917 -0.062508
v -0.281819 1.384917 -0.002790
v -0.339134 -1.406194 0.348096
v -0.344389 -1.394952 0.339802
v 0.338420 -1.390450 0.339117
v 0.342879 -1.404753 0.345876
v -0.337707 -1.390532 -0.337167
v -0.337707 -1.409473 -0.348096
v 0.338453 -1.404539 -0.347970
v 0.348756 -1.400965 -0.336638
v 0.346200 -1.499999 0.345526
v -0.346815 -1.499999 -0.342631
v -0.345722 -1.499999 0.346983
v 0.345593 -1.499999 -0.346275
v 0.159941 -1.390532 -0.322585
v 0.232221 -1.392106 -0.133539
v 0.134071 -1.392106 -0.231688
v -0.000004 -1.392106 -0.267614
v -0.134080 -1.392106 -0.231688
v -0.232229 -1.392106 -0.133539
v -0.268154 -1.392106 0.000537
v -0.232229 -1.392106 0.134612
v -0.134080 -1.392106 0.232761
v -0.000004 -1.392106 0.268687
v 0.134071 -1.392106 0.232761
v 0.232221 -1.392106 0.134612
v 0.268146 -1.392106 0.000537
v 0.196780 1.387238 -0.113077
v 0.113609 1.387238 -0.196246
v -0.000004 1.387238 -0.226689
v -0.113617 1.387238 -0.196246
v -0.196787 1.387238 -0.113077
v -0.227229 1.387238 0.000536
v -0.196787 1.387238 0.114149
v -0.113617 1.387238 0.197319
v -0.000004 1.387238 0.227762
v 0.113609 1.387238 0.197319
v 0.196780 1.387238 0.114149
v 0.227221 1.387238 0.000536
v 0.266874 -1.376382 -0.153545
v 0.154078 -1.376856 -0.266341
v -0.000004 -1.376581 -0.307627
v -0.154087 -1.379033 -0.266341
v -0.266882 -1.378058 -0.153545
v -0.308167 -1.376837 0.000537
v -0.266882 -1.378313 0.154619
v -0.154087 -1.375941 0.267414
v -0.000004 -1.377302 0.308700
v 0.154078 -1.378367 0.267414
v 0.266874 -1.378888 0.154619
v 0.308160 -1.379279 0.000537
v 0.266668 -1.325809 -0.153427
v 0.153959 -1.323975 -0.266135
v -0.000004 -1.323922 -0.307390
v -0.153968 -1.321503 -0.266135
v -0.266676 -1.323630 -0.153427
v -0.307930 -1.325109 0.000537
v -0.266676 -1.321760 0.154500
v -0.153968 -1.323739 0.267208
v -0.000004 -1.323206 0.308463
v 0.153959 -1.324792 0.267208
v 0.266668 -1.324486 0.154500
v 0.307922 -1.324521 0.000537
v 0.246081 -1.309116 -0.141540
v 0.142073 -1.309116 -0.245547
v -0.000004 -1.309116 -0.283617
v -0.142081 -1.309116 -0.245547
v -0.246088 -1.309116 -0.141540
v -0.284157 -1.309116 0.000537
v -0.246088 -1.309116 0.142613
v -0.142081 -1.309116 0.246620
v -0.000004 -1.309116 0.284690
v 0.142073 -1.309116 0.246620
v 0.246081 -1.309116 0.142613
v 0.284150 -1.309116 0.000537
v -0.159557 -1.352401 0.276889
v -0.276357 -1.351773 0.160089
v -0.319108 -1.350478 0.000537
v -0.276357 -1.350768 -0.159016
v -0.159557 -1.351990 -0.275816
v -0.000004 -1.350696 -0.318568
v 0.159548 -1.351244 -0.275816
v 0.276349 -1.352740 -0.159016
v 0.319100 -1.353721 0.000537
v 0.276349 -1.356953 0.160089
v 0.159548 -1.351793 0.276889
v -0.000004 -1.352741 0.319641
v 0.231614 -1.170574 -0.133195
v 0.133728 -1.169209 -0.231073
v 0.000008 -1.168209 -0.266894
v -0.133716 -1.167843 -0.231058
v -0.231612 -1.168209 -0.133168
v -0.267450 -1.169209 0.000547
v -0.231628 -1.170574 0.134257
v -0.133743 -1.171940 0.232135
v -0.000023 -1.172939 0.267956
v 0.133739 -1.175045 0.232186
v 0.231598 -1.172939 0.134230
v 0.267436 -1.171940 0.000515
v 0.124662 -1.159833 -0.215391
v -0.000004 -1.159833 -0.248795
v -0.124671 -1.159833 -0.215391
v -0.215932 -1.159833 -0.124129
v -0.249336 -1.159833 0.000537
v -0.215932 -1.159833 0.125202
v -0.120688 -1.149189 0.207818
v -0.000658 -1.147455 0.239603
v 0.118985 -1.145530 0.207411
v 0.206811 -1.147906 0.120428
v 0.238616 -1.149264 -0.000075
v 0.206574 -1.149593 -0.120901
v 0.118643 -1.138544 -0.204966
v -0.000004 -1.138544 -0.236757
v -0.118651 -1.138544 -0.204966
v -0.205507 -1.138544 -0.118110
v -0.237298 -1.138544 0.000537
v -0.205507 -1.138544 0.119183
v 0.220843 1.375731 -0.126969
v 0.127502 1.375731 -0.220310
v -0.000004 1.375731 -0.254475
v -0.127511 1.375731 -0.220310
v -0.220850 1.375731 -0.126969
v -0.255015 1.372615 0.000536
v -0.220850 1.375731 0.128042
v -0.127511 1.375731 0.221382
v -0.000004 1.375731 0.255547
v 0.127502 1.375731 0.221382
v 0.220843 1.375731 0.128042
v 0.255007 1.375731 0.000536
v 0.226424 1.348345 -0.130192
v 0.130724 1.347769 -0.225891
v -0.000004 1.347190 -0.260920
v -0.130733 1.348345 -0.225891
v -0.226432 1.348345 -0.130192
v -0.261460 1.348345 0.000536
v -0.226432 1.349458 0.131265
v -0.130733 1.345503 0.226964
v -0.000004 1.348345 0.261993
v 0.130724 1.348345 0.226964
v 0.226424 1.348345 0.131265
v 0.261452 1.346745 0.000536
v 0.221147 1.317562 -0.127145
v 0.127677 1.316606 -0.220613
v -0.000004 1.317562 -0.254825
v -0.127686 1.320584 -0.220613
v -0.221154 1.317562 -0.127145
v -0.255366 1.317562 0.000536
v -0.221154 1.318601 0.128217
v -0.127686 1.317562 0.221686
v -0.000004 1.317562 0.255898
v 0.127677 1.318809 0.221686
v 0.221147 1.317562 0.128217
v 0.255358 1.317562 0.000536
v 0.197403 1.298359 -0.113436
v 0.113969 1.298359 -0.196870
v -0.000004 1.298218 -0.227409
v -0.113977 1.298359 -0.196870
v -0.197410 1.297993 -0.113436
v -0.227949 1.298359 0.000536
v -0.197410 1.298359 0.114509
v -0.113977 1.298272 0.197943
v -0.000004 1.298359 0.228482
v 0.113969 1.298359 0.197943
v 0.197403 1.298359 0.114509
v 0.227942 1.298359 0.000536
v 0.197626 1.273865 -0.113565
v 0.114097 1.272922 -0.197093
v -0.000004 1.272922 -0.227666
v -0.114106 1.271908 -0.197093
v -0.197633 1.272922 -0.113565
v -0.228206 1.272922 0.000536
v -0.197633 1.272922 0.114638
v -0.114106 1.271321 0.198165
v -0.000004 1.272922 0.228739
v 0.114097 1.274382 0.198165
v 0.197626 1.272922 0.114638
v 0.228199 1.273836 0.000536
v 0.186489 1.264166 -0.107133
v 0.108013 1.265752 -0.186823
v -0.001287 1.265377 -0.215325
v -0.107889 1.265299 -0.186040
v -0.187410 1.267371 -0.107652
v -0.215812 1.265001 0.001655
v -0.186529 1.265056 0.108413
v -0.108093 1.266107 0.187962
v 0.000229 1.266511 0.216183
v 0.106933 1.261582 0.187606
v 0.187220 1.265808 0.108893
v 0.215796 1.265183 -0.000377
v 0.184891 1.206012 -0.106212
v 0.106745 1.208247 -0.184357
v -0.000004 1.206757 -0.212961
v -0.106753 1.206757 -0.184357
v -0.184898 1.206757 -0.106212
v -0.213501 1.206757 0.000536
v -0.184898 1.205067 0.107285
v -0.106753 1.206757 0.185430
v -0.000004 1.206757 0.214033
v 0.106745 1.206757 0.185430
v 0.184891 1.206757 0.107285
v 0.213493 1.206757 0.000536
v 0.198451 1.198996 -0.114042
v 0.114574 1.198996 -0.197918
v -0.000004 1.198996 -0.228620
v -0.114583 1.199979 -0.197918
v -0.229160 1.200861 0.000536
v -0.198459 1.198996 0.115114
v -0.114583 1.198549 0.198991
v -0.000004 1.200644 0.229692
v 0.114574 1.198855 0.198991
v 0.198451 1.197026 0.115114
v 0.229152 1.198996 0.000536
v 0.193080 1.172266 -0.110870
v -0.114675 1.177742 -0.198079
v -0.194129 1.176924 -0.113928
v -0.229345 1.179621 0.000536
v -0.198620 1.177742 0.115207
v -0.000004 1.176137 0.229878
v 0.114667 1.177742 0.199152
v 0.112936 1.175713 -0.195384
v 0.000113 1.171800 -0.222393
v -0.109865 1.169761 -0.189746
v -0.219724 1.169761 0.000536
v -0.190287 1.169761 0.110396
v -0.113772 1.172843 0.193158
v -0.000004 1.171803 0.220256
v 0.109856 1.169761 0.190819
v 0.193061 1.172431 0.112003
v 0.226134 1.175133 0.000594
v 0.187078 1.141894 -0.107476
v 0.108271 1.142445 -0.186845
v 0.000609 1.141404 -0.215229
v -0.107303 1.142591 -0.187557
v -0.187421 1.142331 -0.107669
v -0.216260 1.142350 0.000877
v -0.187165 1.141272 0.107881
v -0.109696 1.142379 0.186950
v -0.000004 1.143002 0.217530
v 0.108887 1.142129 0.187099
v 0.187060 1.141435 0.108538
v 0.216420 1.142575 0.000393
v -0.348884 -1.402851 -0.336837
v -0.347592 -1.403393 -0.007865
v -0.337707 -1.390532 -0.053064
v 0.338865 -1.390450 -0.336572
v 0.325074 -1.390532 -0.007879
v 0.348884 -1.414592 0.070502
v -0.198562 1.199853 -0.112235
v 0.231646 -1.195876 -0.133212
v 0.133745 -1.194745 -0.231107
v 0.000007 -1.193917 -0.266934
v -0.133737 -1.193614 -0.231094
v -0.231646 -1.193917 -0.133190
v -0.267487 -1.194745 0.000545
v -0.231659 -1.195877 0.134276
v -0.133759 -1.197008 0.232171
v -0.000020 -1.197836 0.267998
v 0.133755 -1.199581 0.232213
v 0.231633 -1.197836 0.134254
v 0.267474 -1.197008 0.000519
v 0.239383 -1.248238 -0.137677
v 0.138210 -1.247591 -0.238846
v 0.000002 -1.247118 -0.275874
v -0.138208 -1.246945 -0.238838
v -0.239386 -1.247118 -0.137663
v -0.276422 -1.247591 0.000542
v -0.239394 -1.248238 0.138744
v -0.138222 -1.248885 0.239913
v -0.000013 -1.249358 0.276942
v 0.138215 -1.250356 0.239938
v 0.239375 -1.249358 0.138731
v 0.276411 -1.248885 0.000526
v 0.252057 -1.240185 -0.144994
v 0.291045 -1.241229 0.000524
v 0.252048 -1.241993 0.146045
v 0.145535 -1.243603 0.252617
v -0.000015 -1.241993 0.291573
v -0.145540 -1.241229 0.252586
v -0.252068 -1.240185 0.146062
v -0.291056 -1.239142 0.000543
v -0.252058 -1.238378 -0.144978
v -0.145524 -1.238098 -0.251509
v 0.000004 -1.238378 -0.290506
v 0.145528 -1.239142 -0.251519
v 0.252020 -1.203739 -0.144975
v 0.291000 -1.205120 0.000520
v 0.252007 -1.206131 0.146018
v 0.145517 -1.208262 0.252586
v -0.000019 -1.206131 0.291524
v -0.145521 -1.205121 0.252545
v -0.252032 -1.203739 0.146040
v -0.291013 -1.202358 0.000545
v -0.252020 -1.201347 -0.144953
v -0.145500 -1.200977 -0.251468
v 0.000007 -1.201347 -0.290460
v 0.145508 -1.202358 -0.251480
v 0.259651 -1.222672 -0.149380
v 0.149914 -1.221430 -0.259112
v 0.000005 -1.220521 -0.299274
v -0.149907 -1.220188 -0.259101
v -0.259652 -1.220521 -0.149361
v -0.299825 -1.221430 0.000545
v -0.259663 -1.222672 0.150446
v -0.149926 -1.223915 0.260178
v -0.000017 -1.224824 0.300339
v 0.149922 -1.226740 0.260215
v 0.259640 -1.224824 0.150426
v 0.299813 -1.223914 0.000522
v 0.140502 -1.263313 -0.232437
v 0.005199 -1.262925 -0.271472
v -0.136745 -1.262416 -0.236304
v -0.238172 -1.262925 -0.130962
v -0.272018 -1.263314 0.005732
v -0.232987 -1.263839 0.141030
v -0.131538 -1.264363 0.238687
v 0.005172 -1.264750 0.272541
v 0.135273 -1.265915 0.234842
v 0.232971 -1.264750 0.141021
v 0.272008 -1.264362 0.005701
v 0.246059 -1.293330 -0.141529
v 0.142062 -1.293184 -0.245525
v -0.000003 -1.293077 -0.283590
v -0.142068 -1.293038 -0.245524
v -0.246066 -1.293077 -0.141526
v -0.284132 -1.293184 0.000538
v -0.246068 -1.293330 0.142601
v -0.142071 -1.293476 0.246597
v -0.000006 -1.293583 0.284662
v 0.142063 -1.293808 0.246603
v 0.246058 -1.293583 0.142597
v 0.284124 -1.293476 0.000534
v 0.231775 -1.290261 -0.133281
v 0.267629 -1.290480 0.000534
v 0.231772 -1.290640 0.134349
v 0.133816 -1.290978 0.232319
v -0.000006 -1.290640 0.268166
v -0.133824 -1.290480 0.232312
v -0.231783 -1.290261 0.134353
v -0.267637 -1.290043 0.000538
v -0.231781 -1.289882 -0.133278
v -0.133820 -1.289824 -0.231238
v -0.000002 -1.289882 -0.267095
v 0.133814 -1.290043 -0.231240
v 0.238159 -1.263839 -0.130986
v 0.117810 -0.977653 -0.203522
v 0.160274 -1.044773 -0.159744
v 0.053402 1.074148 -0.198779
v 0.107744 1.003604 -0.186089
v 0.219185 -1.047407 -0.057224
v 0.204056 -0.977653 -0.117277
v 0.186622 1.003604 -0.107212
v 0.145906 1.074147 -0.145372
v 0.219185 -1.047407 0.058297
v 0.235623 -0.982628 0.000537
v 0.215492 1.003276 0.000536
v 0.199283 1.074157 -0.052979
v 0.160274 -1.044773 0.160817
v 0.204056 -0.977653 0.118350
v 0.186622 1.003604 0.108285
v 0.199283 1.074158 0.054053
v 0.058910 -1.044045 0.219408
v 0.117810 -0.977653 0.204595
v 0.107744 1.003604 0.187161
v 0.145906 1.074148 0.146445
v -0.058919 -1.044046 0.219408
v -0.000004 -0.976231 0.236150
v -0.000004 1.003694 0.216031
v 0.053394 1.074187 0.199854
v -0.160283 -1.044772 0.160816
v -0.117818 -0.977653 0.204595
v -0.107753 1.003604 0.187161
v -0.053402 1.074187 0.199854
v -0.218949 -1.044772 0.059203
v -0.204063 -0.977653 0.118350
v -0.186629 1.003604 0.108285
v -0.145914 1.074149 0.146446
v -0.218949 -1.044773 -0.058130
v -0.235631 -0.977653 0.000537
v -0.215500 1.003604 0.000536
v -0.199320 1.074149 0.053942
v -0.160283 -1.044772 -0.159743
v -0.204063 -0.977653 -0.117277
v -0.186629 1.003604 -0.107212
v -0.199319 1.074148 -0.052869
v -0.058670 -1.044772 -0.218409
v -0.117818 -0.977653 -0.203522
v -0.107753 1.003604 -0.186089
v -0.145914 1.074149 -0.145373
v 0.058663 -1.044771 -0.218408
v -0.000004 -0.977653 -0.235091
v -0.000004 1.003604 -0.214960
v -0.053411 1.074149 -0.198779
v 0.138447 1.021164 -0.137914
v 0.151919 -0.999652 -0.151386
v 0.188544 1.019867 -0.051537
v 0.208535 -1.003949 -0.052708
v 0.188544 1.019868 0.052610
v 0.208535 -1.003949 0.053781
v 0.138447 1.021165 0.138986
v 0.151919 -0.999652 0.152459
v 0.049274 1.019929 0.189825
v 0.057769 -1.000571 0.207844
v -0.049282 1.019929 0.189824
v -0.057777 -1.000572 0.207844
v -0.138454 1.021165 0.138987
v -0.151927 -0.999653 0.152459
v -0.189131 1.021165 0.051213
v -0.207534 -0.999653 0.056144
v -0.189131 1.021165 -0.050139
v -0.207534 -0.999654 -0.055071
v -0.138455 1.021165 -0.137914
v -0.151927 -0.999653 -0.151386
v -0.050681 1.021165 -0.188590
v -0.055612 -0.999651 -0.206993
v 0.055604 -0.999652 -0.206993
v 0.050672 1.021165 -0.188591
v 0.324770 1.470901 -0.326921
v -0.325312 1.470730 -0.325662
v -0.330369 1.470465 0.318788
v -0.318029 1.470650 0.330922
v 0.328731 1.469330 0.324933
v 0.316761 1.464612 0.306208
v 0.311848 1.466363 -0.311161
v -0.316185 1.465944 0.305068
v 0.316200 1.453410 -0.303839
v 0.304371 1.453517 -0.315668
v -0.306232 1.463659 -0.316567
v -0.318038 1.466988 -0.303939
v -0.316104 1.452941 0.305394
v -0.304388 1.465046 0.318547
v 0.305988 1.460237 0.317533
v 0.307599 1.434459 0.296632
v 0.304503 1.434865 -0.302277
v -0.296099 1.434459 -0.307067
v -0.307606 1.434459 -0.295560
v -0.307600 1.434499 0.296648
v -0.296099 1.434459 0.308139
v 0.296092 1.434459 0.308139
vn -0.9843 -0.1765 -0.0094
vn 0.8041 -0.5945 -0.0033
vn -0.8479 -0.5287 -0.0404
vn -0.6969 -0.0992 0.7103
vn -0.0015 -0.4729 -0.8811
vn -0.0031 0.2135 0.9769
vn 0.0007 -1.0000 0.0066
vn 0.0030 0.0947 -0.9955
vn 0.9663 0.0384 0.2546
vn -0.9999 -0.0135 0.0016
vn -0.6184 -0.4051 0.6734
vn 0.6527 -0.3583 -0.6675
vn -0.9546 -0.2941 0.0466
vn -0.0000 -1.0000 -0.0000
vn -0.0031 0.5927 0.8054
vn 0.7281 0.6848 0.0307
vn -0.7013 0.0276 -0.7123
vn -0.0035 0.4998 -0.8661
vn 0.7325 0.0427 -0.6794
vn -0.9656 0.0271 0.2587
vn -0.0000 1.0000 -0.0001
vn -0.0066 0.9999 0.0111
vn 0.0003 -0.0177 -0.9998
vn 0.9994 -0.0342 -0.0009
vn -0.2587 0.0271 -0.9656
vn -0.4994 0.4330 -0.7504
vn 0.5456 0.5174 -0.6592
vn 0.2786 0.9191 -0.2786
vn 0.1020 0.9191 -0.3806
vn -0.1020 0.9191 -0.3806
vn -0.2786 0.9191 -0.2786
vn -0.3909 0.9168 -0.0823
vn -0.4621 0.8781 0.1238
vn -0.2786 0.9191 0.2786
vn -0.1020 0.9191 0.3806
vn 0.1020 0.9191 0.3806
vn 0.2786 0.9191 0.2786
vn 0.3806 0.9191 0.1020
vn 0.3806 0.9191 -0.1020
vn 0.2680 -0.9265 -0.2641
vn 0.0950 -0.9302 -0.3545
vn -0.0818 -0.9292 -0.3605
vn -0.2266 -0.9473 -0.2266
vn -0.3300 -0.9398 -0.0884
vn -0.3552 -0.9308 0.0863
vn -0.2377 -0.9418 0.2377
vn -0.1070 -0.9233 0.3689
vn 0.0862 -0.9344 0.3457
vn 0.2341 -0.9425 0.2385
vn 0.3114 -0.9464 0.0859
vn 0.3042 -0.9491 -0.0815
vn 0.6430 -0.4077 -0.6483
vn 0.2386 -0.3814 -0.8931
vn -0.2367 -0.3782 -0.8949
vn -0.6602 -0.3638 -0.6571
vn -0.9016 -0.3609 -0.2387
vn -0.8972 -0.3724 0.2374
vn -0.6532 -0.3694 0.6610
vn -0.2369 -0.4096 0.8809
vn 0.2400 -0.3950 0.8868
vn 0.6485 -0.3706 0.6649
vn 0.8699 -0.4342 0.2342
vn 0.8911 -0.3814 -0.2459
vn 0.4158 0.8089 -0.4158
vn 0.1406 0.8396 -0.5247
vn -0.1403 0.8404 -0.5234
vn -0.3457 0.8787 -0.3291
vn -0.5195 0.8443 -0.1311
vn -0.5521 0.8206 0.1479
vn -0.3350 0.8747 0.3503
vn -0.1390 0.8435 0.5188
vn 0.1440 0.8513 0.5045
vn 0.3987 0.8259 0.3987
vn 0.5374 0.8310 0.1438
vn 0.5376 0.8296 -0.1510
vn -0.6625 0.3382 0.6684
vn -0.8881 0.3913 0.2411
vn -0.8985 0.3694 -0.2372
vn -0.6698 0.3335 -0.6635
vn -0.2429 0.3737 -0.8952
vn 0.2418 0.3682 -0.8977
vn 0.6586 0.3724 -0.6538
vn 0.9053 0.3466 -0.2455
vn 0.9148 0.3161 0.2515
vn 0.6560 0.3714 0.6570
vn 0.2464 0.3431 0.9064
vn -0.2415 0.3525 0.9041
vn 0.7071 0.0014 -0.7071
vn 0.2588 0.0014 -0.9659
vn -0.2588 0.0015 -0.9659
vn -0.7071 0.0016 -0.7071
vn -0.9659 0.0015 -0.2589
vn -0.9659 0.0014 0.2588
vn -0.7071 0.0014 0.7071
vn -0.2587 0.0015 0.9659
vn 0.2584 0.0017 0.9660
vn 0.7074 0.0012 0.7068
vn 0.9659 0.0016 0.2589
vn 0.9659 0.0014 -0.2588
vn 0.4291 0.7795 -0.4564
vn 0.1223 0.8814 -0.4563
vn -0.1118 0.9018 -0.4174
vn -0.2967 0.9088 -0.2934
vn -0.4203 0.9012 -0.1059
vn -0.4556 0.8805 0.1311
vn -0.3651 0.8512 0.3770
vn -0.1621 0.7625 0.6264
vn 0.1865 0.7328 0.6544
vn 0.5211 0.6863 0.5074
vn 0.6541 0.7383 0.1643
vn 0.6120 0.7736 -0.1644
vn 0.2271 0.4794 -0.8477
vn -0.2271 0.4794 -0.8477
vn -0.6206 0.4794 -0.6206
vn -0.8477 0.4793 -0.2271
vn -0.8477 0.4794 0.2271
vn -0.6058 0.4767 0.6370
vn 0.6895 0.2217 -0.6895
vn 0.2526 0.2173 -0.9428
vn -0.2511 0.2132 -0.9442
vn -0.6895 0.2217 -0.6895
vn -0.9433 0.2214 -0.2473
vn -0.9361 0.2486 0.2487
vn -0.6881 0.2306 0.6881
vn -0.2576 0.2019 0.9449
vn 0.2524 0.2217 0.9419
vn 0.6895 0.2217 0.6895
vn 0.9419 0.2217 0.2524
vn 0.9450 0.2101 -0.2506
vn 0.6951 -0.1879 -0.6940
vn 0.2530 -0.1856 -0.9495
vn -0.2582 -0.1947 -0.9463
vn -0.6917 -0.2074 -0.6917
vn -0.9487 -0.1878 -0.2542
vn -0.9484 -0.1878 0.2556
vn -0.6984 -0.1877 0.6907
vn -0.2533 -0.2062 0.9452
vn 0.2559 -0.1877 0.9483
vn 0.6935 -0.1955 0.6935
vn 0.9481 -0.1879 0.2563
vn 0.9469 -0.1977 -0.2537
vn 0.4185 -0.8103 -0.4102
vn 0.1414 -0.8227 -0.5506
vn -0.1536 -0.8074 -0.5697
vn -0.4401 -0.7682 -0.4650
vn -0.5751 -0.8039 -0.1515
vn -0.5670 -0.8095 0.1519
vn -0.4331 -0.7953 0.4242
vn -0.1518 -0.8082 0.5690
vn 0.1519 -0.8096 0.5670
vn 0.4260 -0.7924 0.4366
vn 0.5670 -0.8096 0.1519
vn 0.5670 -0.8096 -0.1519
vn 0.7071 0.0102 -0.7071
vn 0.2588 0.0098 -0.9659
vn -0.2588 0.0098 -0.9659
vn -0.7070 0.0094 -0.7071
vn -0.9659 0.0099 -0.2588
vn -0.9659 0.0098 0.2588
vn -0.7071 0.0098 0.7071
vn -0.2589 0.0092 0.9659
vn 0.2587 0.0098 0.9659
vn 0.7071 0.0103 0.7071
vn 0.9659 0.0098 0.2589
vn 0.9659 0.0101 -0.2588
vn 0.4313 -0.7874 -0.4404
vn 0.1363 -0.8483 -0.5116
vn -0.1442 -0.8375 -0.5270
vn -0.3476 -0.8779 -0.3294
vn -0.4227 -0.8992 -0.1133
vn -0.5420 -0.8270 0.1491
vn -0.3797 -0.8410 0.3855
vn -0.1020 -0.9089 0.4044
vn 0.1326 -0.8818 0.4527
vn 0.5200 -0.6976 0.4929
vn 0.5098 -0.8504 0.1298
vn 0.5730 -0.8050 -0.1537
vn 0.7063 -0.0306 -0.7072
vn 0.2522 -0.0470 -0.9665
vn -0.2646 -0.0446 -0.9633
vn -0.7067 -0.0340 -0.7067
vn -0.9666 -0.0460 -0.2522
vn -0.9635 -0.0433 0.2643
vn -0.7064 -0.0325 0.7071
vn -0.2517 -0.0469 0.9667
vn 0.2587 -0.0357 0.9653
vn 0.7068 -0.0305 0.7068
vn 0.9664 -0.0450 0.2530
vn 0.9636 -0.0421 -0.2641
vn 0.2976 0.9072 -0.2976
vn 0.1245 0.8517 -0.5091
vn -0.1182 0.8897 -0.4410
vn -0.3168 0.8967 -0.3092
vn -0.3505 0.9308 -0.1034
vn -0.3503 0.9303 0.1086
vn -0.2615 0.9277 0.2664
vn -0.1234 0.8789 0.4607
vn 0.1113 0.9257 0.3614
vn 0.3391 0.8847 0.3198
vn 0.5226 0.8410 0.1400
vn 0.4406 0.8890 -0.1243
vn 0.7031 -0.2215 -0.6757
vn 0.2569 -0.1224 -0.9587
vn -0.2130 -0.2189 -0.9522
vn -0.9659 0.0084 0.2589
vn -0.7071 0.0084 0.7071
vn -0.2938 -0.2203 0.9301
vn 0.2589 0.0073 0.9659
vn 0.7072 0.0085 0.7070
vn 0.9325 -0.2386 0.2710
vn 0.9587 -0.1219 -0.2569
vn -0.7029 -0.6859 0.1883
vn -0.4635 -0.7593 0.4568
vn 0.1219 -0.9050 0.4076
vn 0.4607 -0.7587 0.4606
vn 0.6925 -0.2138 -0.6890
vn 0.2329 -0.2723 -0.9336
vn -0.2443 -0.2262 -0.9429
vn -0.7006 -0.1227 -0.7030
vn -0.9479 -0.2247 -0.2260
vn -0.9592 -0.1180 0.2570
vn -0.7064 -0.1387 0.6941
vn -0.2604 -0.2261 0.9387
vn 0.2562 -0.0911 0.9623
vn 0.6847 -0.1208 0.7187
vn 0.9439 -0.2111 0.2540
vn 0.9239 -0.2740 -0.2669
vn -0.7858 0.6184 0.0041
vn 0.7565 0.6533 -0.0292
vn -0.4716 -0.7568 -0.4526
vn -0.7013 -0.6843 -0.1996
vn -0.9443 -0.1614 -0.2867
vn -0.7271 0.0080 -0.6865
vn 0.3478 -0.8684 -0.3533
vn 0.1302 -0.8580 -0.4969
vn -0.1372 -0.8504 -0.5080
vn -0.3739 -0.8478 -0.3761
vn -0.5061 -0.8510 -0.1401
vn -0.4960 -0.8590 0.1267
vn -0.3534 -0.8696 0.3449
vn -0.1273 -0.8798 0.4580
vn 0.1098 -0.8878 0.4469
vn 0.3102 -0.9017 0.3012
vn 0.4477 -0.8865 0.1169
vn 0.4597 -0.8789 -0.1273
vn 0.6782 -0.3339 -0.6546
vn 0.2606 -0.3316 -0.9067
vn -0.2281 -0.3301 -0.9160
vn -0.6954 -0.1797 -0.6958
vn -0.9498 -0.1811 -0.2551
vn -0.9499 -0.1824 0.2537
vn -0.6956 -0.1839 0.6945
vn -0.2549 -0.1853 0.9491
vn 0.2528 -0.1863 0.9494
vn 0.6524 -0.3445 0.6751
vn 0.9046 -0.3377 0.2600
vn 0.9139 -0.3361 -0.2276
vn 0.8806 0.4129 -0.2325
vn 0.8783 0.4148 0.2379
vn 0.6387 0.4188 0.6456
vn 0.2409 0.4140 0.8778
vn -0.2331 0.4123 0.8807
vn -0.6424 0.4097 0.6477
vn -0.8813 0.4072 0.2400
vn -0.8836 0.4055 -0.2340
vn -0.6472 0.4050 -0.6458
vn -0.2357 0.4059 -0.8830
vn 0.2386 0.4078 -0.8813
vn 0.6471 0.4103 -0.6425
vn 0.3250 0.9425 -0.0781
vn 0.3281 0.9399 0.0945
vn 0.2409 0.9352 0.2594
vn 0.1007 0.9383 0.3308
vn -0.0819 0.9413 0.3275
vn -0.2270 0.9444 0.2380
vn -0.3066 0.9476 0.0902
vn -0.3030 0.9500 -0.0753
vn -0.2198 0.9511 -0.2168
vn -0.0780 0.9507 -0.3002
vn 0.0880 0.9487 -0.3037
vn 0.2359 0.9457 -0.2236
vn 0.6345 -0.4351 -0.6388
vn 0.2314 -0.4312 -0.8721
vn -0.2346 -0.4284 -0.8726
vn -0.6386 -0.4275 -0.6399
vn -0.8719 -0.4288 -0.2363
vn -0.8721 -0.4318 0.2301
vn -0.6389 -0.4358 0.6340
vn -0.2349 -0.4396 0.8669
vn 0.2265 -0.4429 0.8675
vn 0.6356 -0.4485 0.6284
vn 0.8670 -0.4421 0.2300
vn 0.8670 -0.4391 -0.2355
vn 0.1342 0.9820 -0.1329
vn 0.0507 0.9812 -0.1865
vn -0.0506 0.9805 -0.1899
vn -0.1402 0.9802 -0.1396
vn -0.1904 0.9804 -0.0499
vn -0.1868 0.9810 0.0517
vn -0.1329 0.9819 0.1351
vn -0.0468 0.9827 0.1791
vn 0.0495 0.9833 0.1754
vn 0.1223 0.9847 0.1245
vn 0.1750 0.9834 0.0476
vn 0.1785 0.9828 -0.0468
vn 0.7071 0.0015 -0.7071
vn 0.2588 0.0015 -0.9659
vn -0.2588 0.0016 -0.9659
vn -0.9659 0.0016 -0.2588
vn -0.9659 0.0015 0.2588
vn -0.7071 0.0015 0.7071
vn -0.2588 0.0016 0.9659
vn 0.2588 0.0018 0.9659
vn 0.7071 0.0013 0.7071
vn 0.9659 0.0017 0.2588
vn 0.9659 0.0015 -0.2588
vn 0.9600 -0.1100 -0.2574
vn 0.9600 -0.1107 0.2571
vn 0.7029 -0.1116 0.7025
vn 0.2702 -0.2127 0.9390
vn -0.2355 -0.2110 0.9487
vn -0.6788 -0.2088 0.7040
vn -0.9403 -0.2066 0.2704
vn -0.9499 -0.2050 -0.2358
vn -0.7052 -0.2010 -0.6799
vn -0.2574 -0.1063 -0.9604
vn 0.2572 -0.1074 -0.9604
vn 0.7028 -0.1087 -0.7030
vn 0.9645 -0.0365 0.2615
vn -0.7068 0.0271 -0.7068
vn -0.2486 -0.0371 -0.9679
vn 0.9658 0.0405 -0.2562
vn 0.6931 0.0394 -0.7198
vn -0.2563 0.0441 0.9656
vn 0.8456 -0.5338 -0.0047
vn 0.2687 -0.0387 0.9625
vn 0.2551 -0.0361 -0.9662
vn 0.7082 -0.0360 0.7051
vn -0.2681 -0.0392 0.9626
vn -0.7136 -0.0366 0.6996
vn -0.9658 -0.0377 -0.2566
vn 0.7253 0.0099 -0.6883
vn 0.6757 0.0254 -0.7368
vn 0.9745 0.0190 -0.2235
vn 0.6805 -0.0036 -0.7328
vn 0.9561 0.0182 -0.2925
vn 0.9548 -0.0061 0.2972
vn 0.9546 -0.0067 -0.2980
vn 0.9744 0.0185 0.2240
vn 0.6802 0.0200 0.7328
vn -0.0000 1.0000 -0.0000
vn -0.3023 -0.0103 0.9532
vn -0.9985 0.0545 -0.0032
vn -0.2204 0.0220 0.9752
vn -0.7365 0.0250 0.6760
vn -0.7376 -0.0093 0.6752
vn -0.2254 -0.0017 0.9743
vn -0.6883 0.0099 0.7253
vn -0.6834 -0.0005 0.7301
vn -0.9588 0.0099 0.2840
vn -0.9588 0.0099 -0.2840
vn -0.9554 -0.0045 -0.2954
vn -0.9548 -0.0060 0.2972
vn -0.9723 0.0099 -0.2334
vn -0.6883 0.0099 -0.7253
vn -0.6780 -0.0063 -0.7350
vn -0.9756 -0.0063 -0.2196
vn -0.7253 0.0099 -0.6883
vn -0.7055 -0.0382 -0.7077
vn -0.2840 0.0099 -0.9588
vn 0.2840 0.0099 -0.9588
vn 0.8555 0.2431 -0.4571
vn 0.8385 0.0091 -0.5448
vn 0.4782 -0.1881 -0.8579
vn 0.5398 0.0092 -0.8417
vn 0.9715 0.2352 0.0284
vn 0.9978 0.0099 -0.0652
vn 0.8487 -0.1811 -0.4969
vn 0.8893 0.0090 -0.4573
vn 0.8171 0.2540 0.5174
vn 0.8898 0.0090 0.4563
vn 0.9809 -0.1934 -0.0226
vn 0.9993 0.0090 0.0371
vn 0.4571 0.2431 0.8555
vn 0.5448 0.0091 0.8385
vn 0.8579 -0.1881 0.4782
vn 0.8417 0.0092 0.5398
vn -0.0453 0.2557 0.9657
vn 0.0506 0.0090 0.9987
vn 0.5096 -0.1937 0.8383
vn 0.4672 0.0090 0.8841
vn -0.5055 0.2342 0.8304
vn -0.4433 0.0099 0.8963
vn 0.0058 -0.1813 0.9834
vn -0.0480 0.0091 0.9988
vn -0.8555 0.2431 0.4571
vn -0.8385 0.0091 0.5448
vn -0.4782 -0.1881 0.8579
vn -0.5398 0.0092 0.8417
vn -0.9695 0.2431 -0.0319
vn -0.9986 0.0091 0.0525
vn -0.8431 -0.1881 0.5039
vn -0.8884 0.0092 0.4591
vn -0.8236 0.2431 -0.5124
vn -0.8911 0.0091 -0.4538
vn -0.9820 -0.1881 0.0148
vn -0.9989 0.0092 -0.0466
vn -0.4571 0.2431 -0.8555
vn -0.5448 0.0091 -0.8385
vn -0.8579 -0.1881 -0.4782
vn -0.8417 0.0092 -0.5398
vn 0.0319 0.2431 -0.9695
vn -0.0525 0.0091 -0.9986
vn -0.5039 -0.1881 -0.8431
vn -0.4591 0.0092 -0.8884
vn -0.0148 -0.1881 -0.9820
vn 0.0466 0.0092 -0.9989
vn 0.5123 0.2431 -0.8236
vn 0.4538 0.0091 -0.8911
vn 0.3743 -0.9273 -0.0056
vn -0.0003 -0.9609 -0.2770
vn -0.3242 -0.9444 -0.0541
vn -0.4483 -0.8939 -0.0039
vn -0.2019 -0.9730 0.1119
vn 0.0020 -0.9101 0.4144
vn 0.3724 -0.9281 -0.0042
vn 0.9998 0.0174 -0.0010
vn 0.6972 -0.1607 -0.6987
vn 0.0068 0.3275 -0.9448
vn 0.9490 0.3151 -0.0067
vn -0.7521 0.0118 0.6590
vn 0.6293 -0.4503 -0.6334
vn -0.0038 -0.3106 -0.9505
vn -0.7235 -0.3804 -0.5761
vn -0.9093 -0.4161 -0.0067
vn -0.4738 -0.3960 0.7865
vn -0.0011 -0.3420 0.9397
vn 0.7366 -0.3976 0.5471
vn 0.7034 -0.0890 -0.7052
vn 0.0078 0.1635 -0.9865
vn 1.0000 -0.0000 0.0005
vn -0.6879 0.0141 0.7257
vn 0.0046 -0.0899 0.9959
vn 0.6105 -0.0638 0.7895
vn -1.0000 0.0035 -0.0000
vn 0.5335 -0.8457 -0.0161
vn -0.0084 -0.5155 0.8569
vn -0.0000 -0.4302 -0.9027
vn 0.0091 -0.0528 0.9986
vn 0.0041 -1.0000 0.0002
vn -0.0019 -0.0165 -0.9999
vn 0.9568 0.0161 0.2904
vn -0.9999 0.0133 0.0089
vn -0.9998 -0.0215 0.0039
vn 0.8688 -0.4923 0.0532
vn -0.6115 -0.7913 -0.0038
vn -0.8116 0.0501 0.5821
vn 0.6693 0.7426 0.0246
vn 0.0122 0.9093 -0.4160
vn -0.9723 0.0099 0.2334
vn -0.0001 1.0000 -0.0000
vn 0.2334 0.0099 -0.9723
vn 0.2587 0.0271 -0.9656
vn 0.0021 -0.0120 0.9999
vn 0.0033 -0.0036 1.0000
vn -0.0053 -0.0597 -0.9982
vn 0.9995 -0.0318 -0.0014
vn 0.9992 0.0348 0.0205
vn -0.2334 0.0099 -0.9723
vn 0.9748 -0.0036 -0.2228
vn 0.9643 -0.0371 -0.2621
vn 0.0020 0.4278 0.9039
vn -0.0609 0.6289 -0.7751
vn 0.0005 1.0000 -0.0003
vn -0.0004 1.0000 0.0002
vn -0.4621 0.8781 -0.1238
vn -0.3908 0.9168 0.0823
vn 0.2595 -0.9302 -0.2595
vn 0.0948 -0.9281 -0.3601
vn -0.0829 -0.9473 -0.3095
vn -0.2446 -0.9403 -0.2365
vn -0.3551 -0.9307 -0.0878
vn -0.3246 -0.9418 0.0870
vn -0.2609 -0.9238 0.2803
vn -0.0926 -0.9338 0.3455
vn 0.0867 -0.9422 0.3235
vn 0.2288 -0.9462 0.2288
vn 0.3042 -0.9491 0.0815
vn 0.3558 -0.9277 -0.1128
vn 0.6545 -0.3813 -0.6529
vn 0.2384 -0.3781 -0.8945
vn -0.2357 -0.3635 -0.9013
vn -0.6612 -0.3614 -0.6574
vn -0.8967 -0.3722 -0.2396
vn -0.8984 -0.3696 0.2372
vn -0.6462 -0.4094 0.6440
vn -0.2410 -0.3949 0.8865
vn 0.2381 -0.3693 0.8983
vn 0.6361 -0.4339 0.6381
vn 0.8943 -0.3828 0.2319
vn 0.8811 -0.4083 -0.2386
vn 0.3922 0.8383 -0.3786
vn 0.1405 0.8404 -0.5234
vn -0.1107 0.8785 -0.4647
vn -0.3778 0.8453 -0.3778
vn -0.5521 0.8206 -0.1479
vn -0.4742 0.8737 0.1081
vn -0.3798 0.8435 0.3798
vn -0.1383 0.8520 0.5050
vn 0.1459 0.8259 0.5446
vn 0.3924 0.8308 0.3947
vn 0.5381 0.8304 0.1442
vn 0.5680 0.8089 -0.1522
vn -0.6607 0.3526 0.6626
vn -0.9109 0.3379 0.2367
vn -0.8886 0.3915 -0.2388
vn -0.6552 0.3694 -0.6590
vn -0.2391 0.3334 -0.9120
vn 0.2402 0.3740 -0.8958
vn 0.6605 0.3677 -0.6546
vn 0.8972 0.3719 -0.2381
vn 0.9060 0.3468 0.2427
vn 0.6777 0.3163 0.6638
vn 0.2383 0.3711 0.8975
vn -0.2442 0.3432 0.9069
vn -0.7071 0.0015 -0.7071
vn -0.9659 0.0014 -0.2589
vn 0.2584 0.0012 0.9660
vn 0.7074 0.0017 0.7068
vn 0.9659 0.0015 0.2589
vn 0.3413 0.8805 -0.3291
vn 0.1184 0.9012 -0.4170
vn -0.1057 0.9088 -0.4036
vn -0.3056 0.9018 -0.3056
vn -0.4563 0.8814 -0.1223
vn -0.5052 0.8523 0.1354
vn -0.4757 0.7551 0.4511
vn -0.1851 0.7288 0.6592
vn 0.1794 0.6835 0.7075
vn 0.4715 0.7353 0.4869
vn 0.6074 0.7763 0.1686
vn 0.5906 0.7928 -0.1501
vn 0.6381 0.4766 -0.6048
vn -0.6206 0.4793 -0.6206
vn -0.8477 0.4793 0.2271
vn 0.6895 0.2174 -0.6909
vn 0.2520 0.2132 -0.9440
vn -0.2524 0.2217 -0.9419
vn -0.9356 0.2485 -0.2507
vn -0.9414 0.2302 0.2466
vn -0.6883 0.2020 0.6967
vn -0.2524 0.2217 0.9419
vn 0.9450 0.2101 0.2506
vn 0.9419 0.2217 -0.2524
vn 0.6958 -0.1856 -0.6939
vn 0.2547 -0.1948 -0.9472
vn -0.2549 -0.2075 -0.9444
vn -0.6915 -0.1876 -0.6976
vn -0.9484 -0.1875 0.2557
vn -0.6931 -0.2061 0.6908
vn -0.2504 -0.1880 0.9497
vn 0.2538 -0.1955 0.9473
vn 0.6933 -0.1877 0.6958
vn 0.9469 -0.1977 0.2537
vn 0.9481 -0.1879 -0.2563
vn 0.4012 -0.8235 -0.4012
vn 0.1536 -0.8074 -0.5697
vn -0.1826 -0.7682 -0.6136
vn -0.4188 -0.8039 -0.4223
vn -0.5670 -0.8096 -0.1519
vn -0.5839 -0.7953 0.1629
vn -0.4168 -0.8082 0.4160
vn -0.1519 -0.8096 0.5670
vn 0.1651 -0.7924 0.5872
vn 0.4151 -0.8096 0.4151
vn 0.7070 0.0097 -0.7071
vn -0.2589 0.0094 -0.9659
vn -0.7071 0.0099 -0.7070
vn -0.9659 0.0098 -0.2588
vn -0.7070 0.0092 0.7072
vn -0.2588 0.0098 0.9659
vn 0.2588 0.0103 0.9659
vn 0.7072 0.0098 0.7070
vn 0.9659 0.0101 0.2588
vn 0.3783 -0.8491 -0.3687
vn 0.1357 -0.8515 -0.5065
vn -0.1157 -0.8798 -0.4610
vn -0.3136 -0.9000 -0.3027
vn -0.5222 -0.8388 -0.1539
vn -0.5193 -0.8432 0.1391
vn -0.3033 -0.9090 0.2858
vn -0.1083 -0.8862 0.4505
vn 0.1602 -0.6799 0.7156
vn 0.3680 -0.8474 0.3828
vn 0.5582 -0.8159 0.1506
vn 0.5959 -0.7877 -0.1561
vn 0.7113 -0.0458 -0.7014
vn 0.2591 -0.0333 -0.9653
vn -0.2587 -0.0328 -0.9654
vn -0.7019 -0.0460 -0.7108
vn -0.9654 -0.0333 -0.2587
vn -0.9656 -0.0311 0.2582
vn -0.7110 -0.0460 0.7017
vn -0.2587 -0.0337 0.9654
vn 0.2568 -0.0392 0.9657
vn 0.7006 -0.0470 0.7120
vn 0.9654 -0.0340 0.2587
vn 0.9655 -0.0306 -0.2585
vn 0.3834 0.8509 -0.3591
vn 0.1182 0.8897 -0.4410
vn -0.0990 0.9118 -0.3986
vn -0.2892 0.9126 -0.2892
vn -0.4093 0.9058 -0.1097
vn -0.3527 0.9293 0.1096
vn -0.3487 0.8773 0.3297
vn -0.1137 0.9255 0.3613
vn 0.1198 0.8863 0.4473
vn 0.3826 0.8410 0.3826
vn 0.4401 0.8880 0.1332
vn 0.4065 0.9072 -0.1089
vn 0.7015 -0.1257 -0.7015
vn 0.2344 -0.2160 -0.9478
vn -0.2587 0.0081 -0.9659
vn -0.6707 -0.1842 0.7185
vn -0.2589 0.0073 0.9659
vn 0.2587 0.0085 0.9659
vn 0.7145 -0.2397 0.6573
vn 0.9594 -0.1207 0.2550
vn 0.9367 -0.2205 -0.2721
vn -0.1722 -0.7592 -0.6277
vn -0.6341 -0.7570 0.1575
vn -0.1056 -0.9067 0.4084
vn 0.1560 -0.7568 0.6348
vn 0.6934 -0.2688 -0.6685
vn 0.2508 -0.2182 -0.9431
vn -0.2813 -0.1034 -0.9540
vn -0.6586 -0.2557 -0.7077
vn -0.9590 -0.1243 -0.2548
vn -0.9574 -0.1278 0.2590
vn -0.7102 -0.2306 0.6652
vn -0.2315 -0.0917 0.9685
vn 0.2656 -0.1378 0.9542
vn 0.6919 -0.2111 0.6904
vn 0.9230 -0.2770 0.2673
vn 0.9428 -0.2148 -0.2551
vn -0.8046 0.5938 -0.0070
vn -0.7406 0.6719 -0.0000
vn 0.9533 0.3019 0.0100
vn -0.9651 0.0084 -0.2619
vn -0.7115 -0.0861 -0.6974
vn 0.3577 -0.8590 -0.3662
vn 0.1317 -0.8510 -0.5083
vn -0.1388 -0.8478 -0.5118
vn -0.3713 -0.8504 -0.3728
vn -0.4954 -0.8580 -0.1357
vn -0.4799 -0.8685 0.1245
vn -0.3401 -0.8789 0.3345
vn -0.1226 -0.8865 0.4462
vn 0.1057 -0.9017 0.4192
vn 0.3321 -0.8878 0.3185
vn 0.4603 -0.8798 0.1187
vn 0.4754 -0.8696 -0.1336
vn 0.6946 -0.1824 -0.6958
vn 0.2539 -0.1811 -0.9501
vn -0.2548 -0.1797 -0.9501
vn -0.6792 -0.3301 -0.6555
vn -0.9155 -0.3316 -0.2276
vn -0.9060 -0.3339 0.2601
vn -0.6541 -0.3361 0.6777
vn -0.2271 -0.3377 0.9134
vn 0.2584 -0.3445 0.9025
vn 0.6958 -0.1863 0.6936
vn 0.9494 -0.1852 0.2538
vn 0.9492 -0.1839 -0.2552
vn 0.8821 0.4096 -0.2324
vn 0.8793 0.4123 0.2385
vn 0.6398 0.4140 0.6476
vn 0.2397 0.4188 0.8759
vn -0.2331 0.4148 0.8796
vn -0.6417 0.4129 0.6464
vn -0.8800 0.4104 0.2392
vn -0.8826 0.4078 -0.2340
vn -0.6468 0.4059 -0.6456
vn -0.2357 0.4051 -0.8834
vn 0.2392 0.4055 -0.8822
vn 0.6484 0.4072 -0.6432
vn 0.3196 0.9444 -0.0776
vn 0.3246 0.9413 0.0928
vn 0.2361 0.9383 0.2527
vn 0.1042 0.9352 0.3383
vn -0.0823 0.9399 0.3314
vn -0.2302 0.9425 0.2424
vn -0.3116 0.9457 0.0925
vn -0.3070 0.9487 -0.0757
vn -0.2210 0.9507 -0.2177
vn -0.0779 0.9511 -0.2988
vn 0.0863 0.9500 -0.3000
vn 0.2314 0.9476 -0.2205
vn 0.6353 -0.4318 -0.6402
vn 0.2314 -0.4288 -0.8733
vn -0.2349 -0.4275 -0.8730
vn -0.6383 -0.4284 -0.6395
vn -0.8709 -0.4312 -0.2357
vn -0.8705 -0.4351 0.2301
vn -0.6374 -0.4391 0.6331
vn -0.2343 -0.4421 0.8658
vn 0.2265 -0.4485 0.8646
vn 0.6380 -0.4429 0.6299
vn 0.8682 -0.4396 0.2300
vn 0.8685 -0.4358 -0.2363
vn 0.1381 0.9810 -0.1360
vn 0.0520 0.9804 -0.1899
vn -0.0508 0.9802 -0.1912
vn -0.1391 0.9805 -0.1388
vn -0.1868 0.9812 -0.0493
vn -0.1822 0.9820 0.0498
vn -0.1298 0.9828 0.1312
vn -0.0463 0.9834 0.1754
vn 0.0466 0.9847 0.1682
vn 0.1272 0.9833 0.1305
vn 0.1785 0.9827 0.0490
vn 0.1834 0.9819 -0.0475
vn 0.2588 0.0016 -0.9659
vn -0.9659 0.0015 -0.2588
vn -0.2588 0.0017 0.9659
vn 0.2588 0.0013 0.9659
vn 0.7071 0.0018 0.7071
vn 0.9659 0.0016 0.2588
vn 0.9491 -0.2088 -0.2358
vn 0.9394 -0.2110 0.2704
vn 0.6781 -0.2127 0.7035
vn 0.2569 -0.1116 0.9600
vn -0.2573 -0.1107 0.9600
vn -0.7029 -0.1100 0.7027
vn -0.9602 -0.1087 0.2571
vn -0.9603 -0.1073 -0.2575
vn -0.7031 -0.1063 -0.7031
vn -0.2363 -0.2010 -0.9507
vn 0.2708 -0.2050 -0.9406
vn 0.7044 -0.2066 -0.6791
vn 0.9748 -0.0035 0.2230
vn 0.2248 0.0179 0.9742
vn 0.2926 0.0182 0.9561
vn 0.2590 0.0393 0.9651
vn -0.9656 0.0271 -0.2587
vn -0.7196 0.0392 0.6933
vn -0.2907 -0.0006 -0.9568
vn -0.2155 -0.0096 -0.9764
vn -0.2949 0.0204 0.9553
vn 0.9564 -0.2920 0.0045
vn 0.2257 -0.0014 0.9742
vn 0.3023 -0.0103 0.9532
vn -1.0000 -0.0061 0.0030
vn 0.2198 -0.0061 -0.9755
vn 0.2938 -0.0032 -0.9559
vn 0.7352 -0.0065 -0.6778
vn 0.7090 -0.0370 -0.7042
vn 0.6806 -0.0035 0.7327
vn 0.7346 -0.0058 0.6785
vn 0.7303 0.0166 0.6830
vn 0.7037 0.0397 0.7094
vn -0.9747 -0.0031 0.2235
vn -0.9644 -0.0358 0.2619
vn -0.9989 -0.0469 -0.0079
vn -0.7338 -0.0048 -0.6794
vn 0.8417 0.0092 -0.5398
vn 0.8579 -0.1881 -0.4782
vn 0.5448 0.0091 -0.8385
vn 0.4571 0.2431 -0.8555
vn 0.9993 0.0090 -0.0371
vn 0.9809 -0.1934 0.0226
vn 0.8898 0.0090 -0.4563
vn 0.8171 0.2540 -0.5174
vn 0.8893 0.0090 0.4573
vn 0.8487 -0.1811 0.4969
vn 0.9978 0.0099 0.0652
vn 0.9715 0.2352 -0.0284
vn 0.5398 0.0092 0.8417
vn 0.4782 -0.1881 0.8579
vn 0.8385 0.0091 0.5448
vn 0.8555 0.2431 0.4571
vn 0.0480 0.0091 0.9988
vn -0.0058 -0.1813 0.9834
vn 0.4433 0.0099 0.8963
vn 0.5055 0.2342 0.8304
vn -0.4672 0.0090 0.8841
vn -0.5096 -0.1937 0.8383
vn -0.0506 0.0090 0.9987
vn 0.0454 0.2557 0.9657
vn -0.8417 0.0092 0.5398
vn -0.8579 -0.1881 0.4782
vn -0.5448 0.0091 0.8385
vn -0.4571 0.2431 0.8555
vn -0.9989 0.0092 0.0466
vn -0.9820 -0.1881 -0.0148
vn -0.8911 0.0091 0.4538
vn -0.8236 0.2431 0.5124
vn -0.8884 0.0092 -0.4591
vn -0.8431 -0.1881 -0.5039
vn -0.9986 0.0091 -0.0525
vn -0.9695 0.2431 0.0319
vn -0.5398 0.0092 -0.8417
vn -0.4782 -0.1881 -0.8579
vn -0.8385 0.0091 -0.5448
vn -0.8555 0.2431 -0.4571
vn -0.0466 0.0092 -0.9989
vn 0.0148 -0.1881 -0.9820
vn -0.4538 0.0091 -0.8911
vn -0.5123 0.2431 -0.8236
vn 0.0525 0.0091 -0.9986
vn -0.0319 0.2431 -0.9695
vn 0.4591 0.0092 -0.8884
vn 0.5039 -0.1881 -0.8431
vn 0.3268 -0.9451 -0.0043
vn 0.0089 -0.7803 -0.6253
vn -0.3043 -0.9526 -0.0007
vn -0.1975 -0.9563 0.2154
vn -0.0036 -0.6257 0.7801
vn 0.9956 -0.0938 -0.0063
vn 0.0069 -0.5832 -0.8123
vn -0.6386 -0.4294 -0.6386
vn -0.9522 -0.3054 -0.0000
vn -0.5905 -0.5517 0.5891
vn -0.0000 -0.3221 0.9467
vn 0.6250 -0.4677 0.6250
vn -0.0050 -0.1059 -0.9944
vn -0.7064 0.0438 -0.7064
vn 0.9934 0.1149 -0.0051
vn -0.7068 -0.0000 0.7074
vn -0.0000 -0.0000 1.0000
vn 0.7071 -0.0000 0.7071
vt 0.125000 0.875000
vt 0.875000 0.625000
vt 0.625000 0.875000
vt 0.375000 0.625000
vt 0.625000 0.375000
vt 0.875000 0.875000
vt 0.875000 0.375000
vt 0.375000 0.375000
vt 0.375000 0.875000
vt 0.125000 0.625000
vt 0.625000 0.625000
s 0
usemtl ruins_ch_pillar_a
f 449/1/1 10/1/1 5/1/1
f 2/2/2 6/2/2 1/2/2
f 3/1/3 5/1/3 16/1/3
f 434/3/4 12/3/4 433/3/4
f 7/4/5 10/4/5 8/4/5
f 434/2/6 11/2/6 12/2/6
f 2/5/7 16/5/7 15/5/7
f 431/4/8 14/4/8 13/4/8
f 124/4/9 367/4/9 123/4/9
f 26/6/10 27/6/10 257/6/10
f 3/1/11 4/1/11 5/1/11
f 6/2/12 7/2/12 8/2/12
f 16/1/13 10/1/13 9/1/13
f 15/2/14 9/2/14 7/2/14
f 28/7/14 27/7/14 26/7/14
f 18/1/15 17/1/15 19/1/15
f 260/4/16 24/4/16 259/4/16
f 22/8/17 26/8/17 256/8/17
f 21/9/18 23/9/18 22/9/18
f 24/9/19 28/9/19 23/9/19
f 131/9/20 387/9/20 130/9/20
f 29/1/21 21/1/21 19/1/21
f 19/8/22 258/8/22 18/8/22
f 23/9/23 28/9/23 22/9/23
f 25/7/24 28/7/24 261/7/24
f 399/6/25 127/6/25 128/6/25
f 256/6/26 21/6/26 22/6/26
f 23/9/27 259/9/27 24/9/27
f 133/2/28 42/2/28 132/2/28
f 133/4/29 44/4/29 43/4/29
f 134/3/30 45/3/30 44/3/30
f 135/3/31 46/3/31 45/3/31
f 137/1/32 46/1/32 136/1/32
f 137/1/33 48/1/33 47/1/33
f 139/3/34 48/3/34 138/3/34
f 140/3/35 49/3/35 139/3/35
f 140/2/36 51/2/36 50/2/36
f 141/4/37 52/4/37 51/4/37
f 143/2/38 52/2/38 142/2/38
f 143/4/39 42/4/39 53/4/39
f 30/9/40 55/9/40 54/9/40
f 32/9/41 55/9/41 31/9/41
f 32/5/42 57/5/42 56/5/42
f 34/6/43 57/6/43 33/6/43
f 35/6/44 58/6/44 34/6/44
f 35/6/45 60/6/45 59/6/45
f 37/5/46 60/5/46 36/5/46
f 37/4/47 62/4/47 61/4/47
f 38/5/48 63/5/48 62/5/48
f 39/5/49 64/5/49 63/5/49
f 40/2/50 65/2/50 64/2/50
f 30/4/51 65/4/51 41/4/51
f 54/9/52 96/9/52 97/9/52
f 56/9/53 96/9/53 55/9/53
f 56/5/54 94/5/54 95/5/54
f 58/6/55 94/6/55 57/6/55
f 59/6/56 93/6/56 58/6/56
f 59/6/57 91/6/57 92/6/57
f 61/5/58 91/5/58 60/5/58
f 61/8/59 101/8/59 90/8/59
f 62/5/60 100/5/60 101/5/60
f 63/5/61 99/5/61 100/5/61
f 65/7/62 99/7/62 64/7/62
f 54/7/63 98/7/63 65/7/63
f 66/9/64 79/9/64 78/9/64
f 67/9/65 80/9/65 79/9/65
f 68/5/66 81/5/66 80/5/66
f 70/6/67 81/6/67 69/6/67
f 71/6/68 82/6/68 70/6/68
f 71/6/69 84/6/69 83/6/69
f 73/5/70 84/5/70 72/5/70
f 73/8/71 86/8/71 85/8/71
f 75/5/72 86/5/72 74/5/72
f 75/5/73 88/5/73 87/5/73
f 77/7/74 88/7/74 76/7/74
f 66/7/75 89/7/75 77/7/75
f 91/5/76 73/5/76 72/5/76
f 91/6/77 71/6/77 92/6/77
f 93/6/78 71/6/78 70/6/78
f 94/6/79 70/6/79 69/6/79
f 94/5/80 68/5/80 95/5/80
f 95/9/81 67/9/81 96/9/81
f 96/9/82 66/9/82 97/9/82
f 98/7/83 66/7/83 77/7/83
f 98/7/84 76/7/84 99/7/84
f 100/7/85 76/7/85 75/7/85
f 101/5/86 75/5/86 74/5/86
f 101/8/87 73/8/87 90/8/87
f 264/9/88 102/9/88 263/9/88
f 265/5/89 103/5/89 264/5/89
f 266/5/90 104/5/90 265/5/90
f 266/10/91 106/10/91 105/10/91
f 267/9/92 107/9/92 106/9/92
f 268/1/93 108/1/93 107/1/93
f 269/9/94 109/9/94 108/9/94
f 270/6/95 110/6/95 109/6/95
f 271/7/96 111/7/96 110/7/96
f 273/5/97 111/5/97 272/5/97
f 274/4/98 112/4/98 273/4/98
f 263/2/99 113/2/99 274/2/99
f 102/9/100 114/9/100 125/9/100
f 103/5/101 115/5/101 114/5/101
f 104/6/102 116/6/102 115/6/102
f 106/10/103 116/10/103 105/10/103
f 107/3/104 117/3/104 106/3/104
f 108/9/105 118/9/105 107/9/105
f 109/9/106 119/9/106 108/9/106
f 110/6/107 120/6/107 109/6/107
f 111/5/108 121/5/108 110/5/108
f 111/7/109 123/7/109 122/7/109
f 112/4/110 124/4/110 123/4/110
f 113/2/111 125/2/111 124/2/111
f 114/5/112 127/5/112 126/5/112
f 115/6/113 128/6/113 127/6/113
f 117/4/114 128/4/114 116/4/114
f 118/3/115 129/3/115 117/3/115
f 118/9/116 131/9/116 130/9/116
f 120/9/117 131/9/117 119/9/117
f 144/2/118 133/2/118 132/2/118
f 145/4/119 134/4/119 133/4/119
f 147/3/120 134/3/120 146/3/120
f 148/3/121 135/3/121 147/3/121
f 148/3/122 137/3/122 136/3/122
f 150/3/123 137/3/123 149/3/123
f 150/3/124 139/3/124 138/3/124
f 152/3/125 139/3/125 151/3/125
f 153/2/126 140/2/126 152/2/126
f 154/4/127 141/4/127 153/4/127
f 154/2/128 143/2/128 142/2/128
f 144/4/129 143/4/129 155/4/129
f 156/2/130 145/2/130 144/2/130
f 158/4/131 145/4/131 157/4/131
f 159/10/132 146/10/132 158/10/132
f 159/10/133 148/10/133 147/10/133
f 160/10/134 149/10/134 148/10/134
f 162/10/135 149/10/135 161/10/135
f 162/10/136 151/10/136 150/10/136
f 164/10/137 151/10/137 163/10/137
f 165/2/138 152/2/138 164/2/138
f 165/2/139 154/2/139 153/2/139
f 166/2/140 155/2/140 154/2/140
f 156/4/141 155/4/141 167/4/141
f 168/2/142 157/2/142 156/2/142
f 169/4/143 158/4/143 157/4/143
f 171/1/144 158/1/144 170/1/144
f 171/3/145 160/3/145 159/3/145
f 173/1/146 160/1/146 172/1/146
f 174/5/147 161/5/147 173/5/147
f 174/10/148 163/10/148 162/10/148
f 176/1/149 163/1/149 175/1/149
f 177/2/150 164/2/150 176/2/150
f 177/2/151 166/2/151 165/2/151
f 179/2/152 166/2/152 178/2/152
f 168/4/153 167/4/153 179/4/153
f 180/2/154 169/2/154 168/2/154
f 181/11/155 170/11/155 169/11/155
f 182/10/156 171/10/156 170/10/156
f 184/5/157 171/5/157 183/5/157
f 185/1/158 172/1/158 184/1/158
f 186/3/159 173/3/159 185/3/159
f 186/1/160 175/1/160 174/1/160
f 188/10/161 175/10/161 187/10/161
f 189/2/162 176/2/162 188/2/162
f 189/2/163 178/2/163 177/2/163
f 191/2/164 178/2/164 190/2/164
f 180/4/165 179/4/165 191/4/165
f 193/2/166 180/2/166 192/2/166
f 194/2/167 181/2/167 193/2/167
f 195/10/168 182/10/168 194/10/168
f 196/5/169 183/5/169 195/5/169
f 196/10/170 185/10/170 184/10/170
f 198/1/171 185/1/171 197/1/171
f 199/1/172 186/1/172 198/1/172
f 200/5/173 187/5/173 199/5/173
f 200/4/174 189/4/174 188/4/174
f 202/2/175 189/2/175 201/2/175
f 202/2/176 191/2/176 190/2/176
f 203/4/177 180/4/177 191/4/177
f 205/2/178 192/2/178 204/2/178
f 205/2/179 194/2/179 193/2/179
f 206/10/180 195/10/180 194/10/180
f 208/5/181 195/5/181 207/5/181
f 208/10/182 197/10/182 196/10/182
f 209/1/183 198/1/183 197/1/183
f 211/1/184 198/1/184 210/1/184
f 211/5/185 200/5/185 199/5/185
f 213/2/186 200/2/186 212/2/186
f 214/2/187 201/2/187 213/2/187
f 214/2/188 203/2/188 202/2/188
f 215/2/189 192/2/189 203/2/189
f 217/2/190 204/2/190 216/2/190
f 217/2/191 206/2/191 205/2/191
f 218/1/192 207/1/192 206/1/192
f 208/10/193 219/10/193 262/10/193
f 209/1/194 262/1/194 220/1/194
f 220/10/195 210/10/195 209/10/195
f 222/1/196 210/1/196 221/1/196
f 222/10/197 212/10/197 211/10/197
f 224/2/198 212/2/198 223/2/198
f 225/2/199 213/2/199 224/2/199
f 225/2/200 215/2/200 214/2/200
f 226/2/201 204/2/201 215/2/201
f 234/2/202 216/2/202 227/2/202
f 234/2/203 218/2/203 217/2/203
f 228/1/204 218/1/204 235/1/204
f 230/5/205 221/5/205 220/5/205
f 231/10/206 222/10/206 221/10/206
f 232/1/207 222/1/207 239/1/207
f 232/2/208 224/2/208 223/2/208
f 233/2/209 225/2/209 224/2/209
f 243/2/210 225/2/210 242/2/210
f 243/2/211 216/2/211 226/2/211
f 238/5/212 230/5/212 237/5/212
f 239/5/213 231/5/213 238/5/213
f 240/2/214 233/2/214 232/2/214
f 242/2/215 233/2/215 241/2/215
f 245/2/216 227/2/216 244/2/216
f 245/2/217 235/2/217 234/2/217
f 247/7/218 235/7/218 246/7/218
f 248/7/219 236/7/219 247/7/219
f 248/7/220 237/7/220 229/7/220
f 249/7/221 238/7/221 237/7/221
f 251/7/222 238/7/222 250/7/222
f 252/7/223 239/7/223 251/7/223
f 252/2/224 241/2/224 240/2/224
f 253/4/225 242/4/225 241/4/225
f 255/2/226 242/2/226 254/2/226
f 255/2/227 227/2/227 243/2/227
f 256/6/228 257/6/228 258/6/228
f 261/2/229 260/2/229 19/2/229
f 229/1/230 228/1/230 236/1/230
f 230/10/231 229/10/231 237/10/231
f 230/1/232 262/1/232 229/1/232
f 229/10/233 219/10/233 228/10/233
f 276/9/234 287/9/234 275/9/234
f 277/9/235 298/9/235 276/9/235
f 278/5/236 297/5/236 277/5/236
f 278/10/237 295/10/237 296/10/237
f 279/6/238 294/6/238 295/6/238
f 280/6/239 293/6/239 294/6/239
f 281/6/240 292/6/240 293/6/240
f 282/6/241 291/6/241 292/6/241
f 283/5/242 290/5/242 291/5/242
f 285/5/243 290/5/243 284/5/243
f 286/7/244 289/7/244 285/7/244
f 275/7/245 288/7/245 286/7/245
f 323/9/246 275/9/246 358/9/246
f 324/9/247 276/9/247 323/9/247
f 325/5/248 277/5/248 324/5/248
f 325/10/249 279/10/249 278/10/249
f 326/6/250 280/6/250 279/6/250
f 327/6/251 281/6/251 280/6/251
f 328/6/252 282/6/252 281/6/252
f 329/6/253 283/6/253 282/6/253
f 330/5/254 284/5/254 283/5/254
f 332/5/255 284/5/255 331/5/255
f 333/4/256 285/4/256 332/4/256
f 358/7/257 286/7/257 333/7/257
f 311/7/258 300/7/258 322/7/258
f 322/7/259 301/7/259 321/7/259
f 321/5/260 302/5/260 320/5/260
f 319/5/261 302/5/261 303/5/261
f 318/6/262 303/6/262 304/6/262
f 317/9/263 304/9/263 305/9/263
f 316/1/264 305/1/264 306/1/264
f 315/9/265 306/9/265 307/9/265
f 314/10/266 307/10/266 308/10/266
f 314/5/267 309/5/267 313/5/267
f 313/5/268 310/5/268 312/5/268
f 312/9/269 299/9/269 311/9/269
f 299/2/270 274/2/270 300/2/270
f 300/4/271 273/4/271 301/4/271
f 301/5/272 272/5/272 302/5/272
f 303/5/273 272/5/273 271/5/273
f 304/6/274 271/6/274 270/6/274
f 305/9/275 270/9/275 269/9/275
f 306/1/276 269/1/276 268/1/276
f 307/9/277 268/9/277 267/9/277
f 308/10/278 267/10/278 266/10/278
f 308/5/279 265/5/279 309/5/279
f 309/5/280 264/5/280 310/5/280
f 310/9/281 263/9/281 299/9/281
f 298/9/282 311/9/282 287/9/282
f 297/5/283 312/5/283 298/5/283
f 296/5/284 313/5/284 297/5/284
f 296/10/285 315/10/285 314/10/285
f 295/9/286 316/9/286 315/9/286
f 294/1/287 317/1/287 316/1/287
f 293/9/288 318/9/288 317/9/288
f 292/6/289 319/6/289 318/6/289
f 291/7/290 320/7/290 319/7/290
f 289/5/291 320/5/291 290/5/291
f 288/4/292 321/4/292 289/4/292
f 287/2/293 322/2/293 288/2/293
f 335/9/294 346/9/294 334/9/294
f 336/9/295 357/9/295 335/9/295
f 337/5/296 356/5/296 336/5/296
f 337/10/297 354/10/297 355/10/297
f 338/6/298 353/6/298 354/6/298
f 339/6/299 352/6/299 353/6/299
f 340/6/300 351/6/300 352/6/300
f 341/6/301 350/6/301 351/6/301
f 342/5/302 349/5/302 350/5/302
f 344/7/303 349/7/303 343/7/303
f 345/7/304 348/7/304 344/7/304
f 334/7/305 347/7/305 345/7/305
f 79/9/306 334/9/306 78/9/306
f 80/9/307 335/9/307 79/9/307
f 81/5/308 336/5/308 80/5/308
f 81/6/91 338/6/91 337/6/91
f 82/6/309 339/6/309 338/6/309
f 83/6/310 340/6/310 339/6/310
f 84/6/311 341/6/311 340/6/311
f 85/6/312 342/6/312 341/6/312
f 86/5/313 343/5/313 342/5/313
f 88/5/314 343/5/314 87/5/314
f 89/7/315 344/7/315 88/7/315
f 78/7/316 345/7/316 89/7/316
f 346/7/317 333/7/317 347/7/317
f 347/4/318 332/4/318 348/4/318
f 348/5/319 331/5/319 349/5/319
f 350/5/320 331/5/320 330/5/320
f 351/6/321 330/6/321 329/6/321
f 352/6/322 329/6/322 328/6/322
f 353/6/323 328/6/323 327/6/323
f 354/6/324 327/6/324 326/6/324
f 355/10/325 326/10/325 325/10/325
f 355/5/326 324/5/326 356/5/326
f 356/9/327 323/9/327 357/9/327
f 357/9/328 358/9/328 346/9/328
f 254/2/329 374/2/329 255/2/329
f 129/4/330 395/4/330 128/4/330
f 246/5/331 406/5/331 247/5/331
f 125/11/332 363/11/332 124/11/332
f 126/9/333 360/9/333 125/9/333
f 379/6/334 120/6/334 121/6/334
f 439/2/335 446/2/335 447/2/335
f 253/2/336 252/2/336 382/2/336
f 245/4/337 361/4/337 246/4/337
f 378/2/338 254/2/338 253/2/338
f 251/5/339 386/5/339 252/5/339
f 250/5/340 390/5/340 251/5/340
f 248/1/341 398/1/341 249/1/341
f 126/5/342 359/5/342 360/5/342
f 125/4/343 360/4/343 364/4/343
f 125/4/344 364/4/344 363/4/344
f 244/4/345 365/4/345 366/4/345
f 124/4/346 363/4/346 368/4/346
f 255/4/347 374/4/347 369/4/347
f 255/2/348 369/2/348 370/2/348
f 123/2/349 367/2/349 372/2/349
f 123/2/350 372/2/350 371/2/350
f 12/2/351 11/2/351 14/2/351
f 28/5/14 25/5/14 27/5/14
f 252/8/352 386/8/352 381/8/352
f 12/3/353 14/3/353 433/3/353
f 120/5/354 379/5/354 384/5/354
f 120/5/355 384/5/355 383/5/355
f 251/8/356 390/8/356 385/8/356
f 251/1/357 385/1/357 386/1/357
f 131/8/358 383/8/358 388/8/358
f 250/8/359 389/8/359 390/8/359
f 130/7/360 387/7/360 392/7/360
f 130/3/361 392/3/361 391/3/361
f 249/5/362 398/5/362 393/5/362
f 249/8/363 393/8/363 394/8/363
f 129/5/364 391/5/364 396/5/364
f 129/5/365 396/5/365 395/5/365
f 248/8/366 402/8/366 397/8/366
f 248/10/367 397/10/367 398/10/367
f 128/5/368 395/5/368 400/5/368
f 247/5/369 402/5/369 248/5/369
f 127/4/370 399/4/370 404/4/370
f 127/8/371 404/8/371 403/8/371
f 359/5/372 408/5/372 360/5/372
f 362/2/373 408/2/373 359/2/373
f 365/4/374 407/4/374 366/4/374
f 365/2/375 408/2/375 407/2/375
f 364/10/376 410/10/376 363/10/376
f 364/2/377 409/2/377 410/2/377
f 369/2/378 409/2/378 370/2/378
f 369/2/379 410/2/379 409/2/379
f 368/10/380 412/10/380 367/10/380
f 369/2/381 412/2/381 368/2/381
f 373/2/382 411/2/382 374/2/382
f 372/2/383 411/2/383 373/2/383
f 372/10/384 414/10/384 371/10/384
f 373/2/385 414/2/385 372/2/385
f 377/2/386 413/2/386 378/2/386
f 377/2/387 414/2/387 413/2/387
f 376/5/388 416/5/388 375/5/388
f 377/2/389 416/2/389 376/2/389
f 381/2/390 415/2/390 382/2/390
f 380/2/391 415/2/391 381/2/391
f 380/6/392 418/6/392 379/6/392
f 380/5/393 417/5/393 418/5/393
f 385/1/394 417/1/394 386/1/394
f 385/5/395 418/5/395 417/5/395
f 384/6/396 420/6/396 383/6/396
f 385/5/397 420/5/397 384/5/397
f 389/1/398 419/1/398 390/1/398
f 389/5/399 420/5/399 419/5/399
f 388/9/400 422/9/400 387/9/400
f 389/5/401 422/5/401 388/5/401
f 393/8/402 421/8/402 394/8/402
f 393/5/403 422/5/403 421/5/403
f 392/3/404 424/3/404 391/3/404
f 393/5/405 424/5/405 392/5/405
f 397/8/406 423/8/406 398/8/406
f 397/5/407 424/5/407 423/5/407
f 396/5/408 426/5/408 395/5/408
f 397/5/409 426/5/409 396/5/409
f 401/5/410 425/5/410 402/5/410
f 401/5/411 426/5/411 425/5/411
f 400/6/412 428/6/412 399/6/412
f 401/5/413 428/5/413 400/5/413
f 405/5/414 427/5/414 406/5/414
f 405/5/415 428/5/415 427/5/415
f 362/4/416 430/4/416 361/4/416
f 362/2/417 429/2/417 430/2/417
f 404/8/418 429/8/418 403/8/418
f 405/2/419 429/2/419 404/2/419
f 437/2/420 435/2/420 436/2/420
f 437/4/421 432/4/421 431/4/421
f 442/3/422 432/3/422 441/3/422
f 442/1/423 433/1/423 432/1/423
f 444/1/424 433/1/424 438/1/424
f 444/2/425 435/2/425 434/2/425
f 436/2/426 435/2/426 445/2/426
f 435/2/427 13/2/427 11/2/427
f 440/2/428 437/2/428 439/2/428
f 440/2/429 441/2/429 437/2/429
f 439/2/430 437/2/430 436/2/430
f 444/3/431 438/3/431 443/3/431
f 439/2/432 447/2/432 440/2/432
f 440/2/433 448/2/433 441/2/433
f 441/3/434 449/3/434 442/3/434
f 442/1/435 450/1/435 443/1/435
f 443/1/436 451/1/436 444/1/436
f 444/2/437 452/2/437 445/2/437
f 445/2/438 446/2/438 436/2/438
f 8/2/439 447/2/439 6/2/439
f 8/4/440 448/4/440 447/4/440
f 446/2/441 1/2/441 6/2/441
f 4/1/442 450/1/442 5/1/442
f 452/2/443 4/2/443 2/2/443
f 1/2/444 452/2/444 2/2/444
f 450/1/445 449/1/445 5/1/445
f 2/2/446 15/2/446 6/2/446
f 2/2/447 4/2/447 3/2/447
f 7/4/448 9/4/448 10/4/448
f 434/2/449 435/2/449 11/2/449
f 2/5/450 3/5/450 16/5/450
f 431/4/451 432/4/451 14/4/451
f 124/4/452 368/4/452 367/4/452
f 18/6/453 257/6/453 27/6/453
f 257/6/454 256/6/454 26/6/454
f 15/2/455 7/2/455 6/2/455
f 16/1/456 5/1/456 10/1/456
f 15/2/14 16/2/14 9/2/14
f 17/5/457 18/5/457 27/5/457
f 260/4/458 261/4/458 24/4/458
f 21/9/459 29/9/459 23/9/459
f 131/9/460 388/9/460 387/9/460
f 19/8/461 21/8/461 258/8/461
f 403/5/462 359/5/462 126/5/462
f 126/5/463 127/5/463 403/5/463
f 27/5/464 25/5/464 17/5/464
f 25/5/465 20/5/465 17/5/465
f 28/9/466 26/9/466 22/9/466
f 24/7/467 261/7/467 28/7/467
f 261/7/468 20/7/468 25/7/468
f 128/6/469 400/6/469 399/6/469
f 370/4/470 365/4/470 244/4/470
f 244/4/471 255/4/471 370/4/471
f 19/5/472 17/5/472 20/5/472
f 29/9/473 259/9/473 23/9/473
f 260/5/474 29/5/474 19/5/474
f 29/2/475 260/2/475 259/2/475
f 133/2/28 43/2/28 42/2/28
f 133/4/29 134/4/29 44/4/29
f 134/3/30 135/3/30 45/3/30
f 135/3/31 136/3/31 46/3/31
f 137/1/476 47/1/476 46/1/476
f 137/1/477 138/1/477 48/1/477
f 139/3/34 49/3/34 48/3/34
f 140/3/35 50/3/35 49/3/35
f 140/2/36 141/2/36 51/2/36
f 141/4/37 142/4/37 52/4/37
f 143/2/38 53/2/38 52/2/38
f 143/4/39 132/4/39 42/4/39
f 30/9/478 31/9/478 55/9/478
f 32/9/479 56/9/479 55/9/479
f 32/5/480 33/5/480 57/5/480
f 34/6/481 58/6/481 57/6/481
f 35/6/482 59/6/482 58/6/482
f 35/6/483 36/6/483 60/6/483
f 37/5/484 61/5/484 60/5/484
f 37/4/485 38/4/485 62/4/485
f 38/5/486 39/5/486 63/5/486
f 39/5/487 40/5/487 64/5/487
f 40/2/488 41/2/488 65/2/488
f 30/4/489 54/4/489 65/4/489
f 54/9/490 55/9/490 96/9/490
f 56/9/491 95/9/491 96/9/491
f 56/5/492 57/5/492 94/5/492
f 58/6/493 93/6/493 94/6/493
f 59/6/494 92/6/494 93/6/494
f 59/6/495 60/6/495 91/6/495
f 61/5/496 90/5/496 91/5/496
f 61/8/497 62/8/497 101/8/497
f 62/5/498 63/5/498 100/5/498
f 63/5/499 64/5/499 99/5/499
f 65/7/500 98/7/500 99/7/500
f 54/7/501 97/7/501 98/7/501
f 66/9/502 67/9/502 79/9/502
f 67/9/503 68/9/503 80/9/503
f 68/5/504 69/5/504 81/5/504
f 70/6/505 82/6/505 81/6/505
f 71/6/506 83/6/506 82/6/506
f 71/6/507 72/6/507 84/6/507
f 73/5/508 85/5/508 84/5/508
f 73/8/509 74/8/509 86/8/509
f 75/5/510 87/5/510 86/5/510
f 75/5/511 76/5/511 88/5/511
f 77/7/512 89/7/512 88/7/512
f 66/7/513 78/7/513 89/7/513
f 91/5/514 90/5/514 73/5/514
f 91/6/515 72/6/515 71/6/515
f 93/6/516 92/6/516 71/6/516
f 94/6/517 93/6/517 70/6/517
f 94/5/518 69/5/518 68/5/518
f 95/9/519 68/9/519 67/9/519
f 96/9/520 67/9/520 66/9/520
f 98/7/521 97/7/521 66/7/521
f 98/7/522 77/7/522 76/7/522
f 100/7/523 99/7/523 76/7/523
f 101/5/524 100/5/524 75/5/524
f 101/8/525 74/8/525 73/8/525
f 264/9/88 103/9/88 102/9/88
f 265/5/307 104/5/307 103/5/307
f 266/5/308 105/5/308 104/5/308
f 266/10/526 267/10/526 106/10/526
f 267/9/527 268/9/527 107/9/527
f 268/1/93 269/1/93 108/1/93
f 269/9/311 270/9/311 109/9/311
f 270/6/312 271/6/312 110/6/312
f 271/7/528 272/7/528 111/7/528
f 273/5/529 112/5/529 111/5/529
f 274/4/530 113/4/530 112/4/530
f 263/2/99 102/2/99 113/2/99
f 102/9/531 103/9/531 114/9/531
f 103/5/532 104/5/532 115/5/532
f 104/6/533 105/6/533 116/6/533
f 106/10/534 117/10/534 116/10/534
f 107/3/535 118/3/535 117/3/535
f 108/9/536 119/9/536 118/9/536
f 109/9/537 120/9/537 119/9/537
f 110/6/538 121/6/538 120/6/538
f 111/5/539 122/5/539 121/5/539
f 111/7/540 112/7/540 123/7/540
f 112/4/541 113/4/541 124/4/541
f 113/2/542 102/2/542 125/2/542
f 125/9/543 114/9/543 126/9/543
f 114/5/112 115/5/112 127/5/112
f 115/6/113 116/6/113 128/6/113
f 117/4/544 129/4/544 128/4/544
f 118/3/115 130/3/115 129/3/115
f 118/9/545 119/9/545 131/9/545
f 144/2/546 145/2/546 133/2/546
f 145/4/547 146/4/547 134/4/547
f 147/3/548 135/3/548 134/3/548
f 148/3/121 136/3/121 135/3/121
f 148/3/549 149/3/549 137/3/549
f 150/3/550 138/3/550 137/3/550
f 150/3/551 151/3/551 139/3/551
f 152/3/552 140/3/552 139/3/552
f 153/2/126 141/2/126 140/2/126
f 154/4/127 142/4/127 141/4/127
f 154/2/553 155/2/553 143/2/553
f 144/4/554 132/4/554 143/4/554
f 156/2/555 157/2/555 145/2/555
f 158/4/556 146/4/556 145/4/556
f 159/10/557 147/10/557 146/10/557
f 159/10/558 160/10/558 148/10/558
f 160/10/134 161/10/134 149/10/134
f 162/10/559 150/10/559 149/10/559
f 162/10/560 163/10/560 151/10/560
f 164/10/561 152/10/561 151/10/561
f 165/2/562 153/2/562 152/2/562
f 165/2/563 166/2/563 154/2/563
f 166/2/564 167/2/564 155/2/564
f 156/4/565 144/4/565 155/4/565
f 168/2/566 169/2/566 157/2/566
f 169/4/567 170/4/567 158/4/567
f 171/1/568 159/1/568 158/1/568
f 171/3/569 172/3/569 160/3/569
f 173/1/570 161/1/570 160/1/570
f 174/5/571 162/5/571 161/5/571
f 174/10/572 175/10/572 163/10/572
f 176/1/573 164/1/573 163/1/573
f 177/2/574 165/2/574 164/2/574
f 177/2/575 178/2/575 166/2/575
f 179/2/152 167/2/152 166/2/152
f 168/4/153 156/4/153 167/4/153
f 180/2/576 181/2/576 169/2/576
f 181/11/155 182/11/155 170/11/155
f 182/10/577 183/10/577 171/10/577
f 184/5/578 172/5/578 171/5/578
f 185/1/579 173/1/579 172/1/579
f 186/3/159 174/3/159 173/3/159
f 186/1/580 187/1/580 175/1/580
f 188/10/581 176/10/581 175/10/581
f 189/2/582 177/2/582 176/2/582
f 189/2/583 190/2/583 178/2/583
f 191/2/584 179/2/584 178/2/584
f 180/4/165 168/4/165 179/4/165
f 193/2/585 181/2/585 180/2/585
f 194/2/586 182/2/586 181/2/586
f 195/10/587 183/10/587 182/10/587
f 196/5/588 184/5/588 183/5/588
f 196/10/589 197/10/589 185/10/589
f 198/1/590 186/1/590 185/1/590
f 199/1/591 187/1/591 186/1/591
f 200/5/592 188/5/592 187/5/592
f 200/4/593 201/4/593 189/4/593
f 202/2/594 190/2/594 189/2/594
f 202/2/595 203/2/595 191/2/595
f 203/4/596 192/4/596 180/4/596
f 205/2/597 193/2/597 192/2/597
f 205/2/598 206/2/598 194/2/598
f 206/10/599 207/10/599 195/10/599
f 208/5/600 196/5/600 195/5/600
f 208/10/601 209/10/601 197/10/601
f 209/1/602 210/1/602 198/1/602
f 211/1/603 199/1/603 198/1/603
f 211/5/604 212/5/604 200/5/604
f 213/2/605 201/2/605 200/2/605
f 214/2/606 202/2/606 201/2/606
f 214/2/607 215/2/607 203/2/607
f 215/2/608 204/2/608 192/2/608
f 217/2/609 205/2/609 204/2/609
f 217/2/610 218/2/610 206/2/610
f 218/1/611 219/1/611 207/1/611
f 208/10/612 207/10/612 219/10/612
f 209/1/613 208/1/613 262/1/613
f 220/10/614 221/10/614 210/10/614
f 222/1/615 211/1/615 210/1/615
f 222/10/616 223/10/616 212/10/616
f 224/2/617 213/2/617 212/2/617
f 225/2/618 214/2/618 213/2/618
f 225/2/619 226/2/619 215/2/619
f 226/2/620 216/2/620 204/2/620
f 234/2/621 217/2/621 216/2/621
f 234/2/622 235/2/622 218/2/622
f 228/1/623 219/1/623 218/1/623
f 230/5/205 231/5/205 221/5/205
f 231/10/624 239/10/624 222/10/624
f 232/1/625 223/1/625 222/1/625
f 232/2/626 233/2/626 224/2/626
f 233/2/627 242/2/627 225/2/627
f 243/2/628 226/2/628 225/2/628
f 243/2/629 227/2/629 216/2/629
f 236/9/630 228/9/630 235/9/630
f 238/5/631 231/5/631 230/5/631
f 240/9/632 232/9/632 239/9/632
f 240/2/633 241/2/633 233/2/633
f 245/2/634 234/2/634 227/2/634
f 245/2/635 246/2/635 235/2/635
f 247/7/636 236/7/636 235/7/636
f 248/7/637 229/7/637 236/7/637
f 248/7/638 249/7/638 237/7/638
f 249/7/639 250/7/639 238/7/639
f 251/7/640 239/7/640 238/7/640
f 252/7/641 240/7/641 239/7/641
f 252/2/642 253/2/642 241/2/642
f 253/4/643 254/4/643 242/4/643
f 255/2/644 243/2/644 242/2/644
f 255/2/645 244/2/645 227/2/645
f 18/6/646 258/6/646 257/6/646
f 256/6/647 258/6/647 21/6/647
f 20/4/648 261/4/648 19/4/648
f 230/1/649 220/1/649 262/1/649
f 229/10/650 262/10/650 219/10/650
f 276/9/651 298/9/651 287/9/651
f 277/9/652 297/9/652 298/9/652
f 278/5/653 296/5/653 297/5/653
f 278/10/654 279/10/654 295/10/654
f 279/6/655 280/6/655 294/6/655
f 280/6/656 281/6/656 293/6/656
f 281/6/657 282/6/657 292/6/657
f 282/6/658 283/6/658 291/6/658
f 283/5/659 284/5/659 290/5/659
f 285/5/660 289/5/660 290/5/660
f 286/7/661 288/7/661 289/7/661
f 275/7/662 287/7/662 288/7/662
f 323/9/663 276/9/663 275/9/663
f 324/9/664 277/9/664 276/9/664
f 325/5/665 278/5/665 277/5/665
f 325/10/666 326/10/666 279/10/666
f 326/6/667 327/6/667 280/6/667
f 327/6/668 328/6/668 281/6/668
f 328/6/669 329/6/669 282/6/669
f 329/6/670 330/6/670 283/6/670
f 330/5/671 331/5/671 284/5/671
f 332/5/672 285/5/672 284/5/672
f 333/4/673 286/4/673 285/4/673
f 358/7/674 275/7/674 286/7/674
f 311/7/675 299/7/675 300/7/675
f 322/7/676 300/7/676 301/7/676
f 321/5/677 301/5/677 302/5/677
f 319/5/678 320/5/678 302/5/678
f 318/6/679 319/6/679 303/6/679
f 317/9/680 318/9/680 304/9/680
f 316/1/681 317/1/681 305/1/681
f 315/9/682 316/9/682 306/9/682
f 314/10/683 315/10/683 307/10/683
f 314/5/684 308/5/684 309/5/684
f 313/5/685 309/5/685 310/5/685
f 312/9/686 310/9/686 299/9/686
f 299/2/687 263/2/687 274/2/687
f 300/4/688 274/4/688 273/4/688
f 301/5/689 273/5/689 272/5/689
f 303/5/690 302/5/690 272/5/690
f 304/6/691 303/6/691 271/6/691
f 305/9/692 304/9/692 270/9/692
f 306/1/693 305/1/693 269/1/693
f 307/9/694 306/9/694 268/9/694
f 308/10/695 307/10/695 267/10/695
f 308/5/696 266/5/696 265/5/696
f 309/5/697 265/5/697 264/5/697
f 310/9/698 264/9/698 263/9/698
f 298/9/699 312/9/699 311/9/699
f 297/5/700 313/5/700 312/5/700
f 296/5/701 314/5/701 313/5/701
f 296/10/702 295/10/702 315/10/702
f 295/9/703 294/9/703 316/9/703
f 294/1/704 293/1/704 317/1/704
f 293/9/705 292/9/705 318/9/705
f 292/6/706 291/6/706 319/6/706
f 291/7/707 290/7/707 320/7/707
f 289/5/708 321/5/708 320/5/708
f 288/4/709 322/4/709 321/4/709
f 287/2/710 311/2/710 322/2/710
f 335/9/711 357/9/711 346/9/711
f 336/9/712 356/9/712 357/9/712
f 337/5/713 355/5/713 356/5/713
f 337/10/714 338/10/714 354/10/714
f 338/6/715 339/6/715 353/6/715
f 339/6/716 340/6/716 352/6/716
f 340/6/717 341/6/717 351/6/717
f 341/6/718 342/6/718 350/6/718
f 342/5/719 343/5/719 349/5/719
f 344/7/720 348/7/720 349/7/720
f 345/7/721 347/7/721 348/7/721
f 334/7/722 346/7/722 347/7/722
f 79/9/306 335/9/306 334/9/306
f 80/9/723 336/9/723 335/9/723
f 81/5/308 337/5/308 336/5/308
f 81/6/91 82/6/91 338/6/91
f 82/6/724 83/6/724 339/6/724
f 83/6/310 84/6/310 340/6/310
f 84/6/311 85/6/311 341/6/311
f 85/6/725 86/6/725 342/6/725
f 86/5/726 87/5/726 343/5/726
f 88/5/727 344/5/727 343/5/727
f 89/7/728 345/7/728 344/7/728
f 78/7/316 334/7/316 345/7/316
f 346/7/729 358/7/729 333/7/729
f 347/4/730 333/4/730 332/4/730
f 348/5/731 332/5/731 331/5/731
f 350/5/732 349/5/732 331/5/732
f 351/6/733 350/6/733 330/6/733
f 352/6/734 351/6/734 329/6/734
f 353/6/735 352/6/735 328/6/735
f 354/6/736 353/6/736 327/6/736
f 355/10/737 354/10/737 326/10/737
f 355/5/738 325/5/738 324/5/738
f 356/9/739 324/9/739 323/9/739
f 357/9/740 323/9/740 358/9/740
f 254/2/741 373/2/741 374/2/741
f 122/5/742 376/5/742 375/5/742
f 375/5/743 380/5/743 121/5/743
f 122/5/744 375/5/744 121/5/744
f 129/10/745 130/10/745 391/10/745
f 131/6/746 120/6/746 383/6/746
f 246/5/747 405/5/747 406/5/747
f 406/5/748 401/5/748 247/5/748
f 121/6/749 380/6/749 379/6/749
f 439/2/750 436/2/750 446/2/750
f 382/2/751 377/2/751 253/2/751
f 252/2/752 381/2/752 382/2/752
f 438/3/753 442/3/753 443/3/753
f 245/4/754 362/4/754 361/4/754
f 361/4/755 405/4/755 246/4/755
f 366/2/756 362/2/756 245/2/756
f 245/2/757 244/2/757 366/2/757
f 378/2/758 373/2/758 254/2/758
f 253/2/759 377/2/759 378/2/759
f 371/5/760 376/5/760 122/5/760
f 122/5/761 123/5/761 371/5/761
f 394/5/762 389/5/762 250/5/762
f 250/5/763 249/5/763 394/5/763
f 13/2/351 14/2/351 11/2/351
f 14/3/764 432/3/764 433/3/764
f 247/5/765 401/5/765 402/5/765
f 362/2/766 407/2/766 408/2/766
f 362/2/767 366/2/767 407/2/767
f 365/2/768 364/2/768 408/2/768
f 364/10/769 360/10/769 408/10/769
f 364/2/770 365/2/770 409/2/770
f 365/4/771 370/4/771 409/4/771
f 369/2/772 368/2/772 410/2/772
f 368/10/773 363/10/773 410/10/773
f 369/2/774 411/2/774 412/2/774
f 369/2/775 374/2/775 411/2/775
f 372/2/776 412/2/776 411/2/776
f 372/10/777 367/10/777 412/10/777
f 373/2/778 413/2/778 414/2/778
f 373/2/779 378/2/779 413/2/779
f 377/2/780 376/2/780 414/2/780
f 376/5/781 371/5/781 414/5/781
f 377/2/782 415/2/782 416/2/782
f 377/2/783 382/2/783 415/2/783
f 380/2/784 416/2/784 415/2/784
f 380/5/785 375/5/785 416/5/785
f 380/5/786 381/5/786 417/5/786
f 381/1/787 386/1/787 417/1/787
f 385/5/788 384/5/788 418/5/788
f 384/6/789 379/6/789 418/6/789
f 385/5/790 419/5/790 420/5/790
f 385/1/791 390/1/791 419/1/791
f 389/5/792 388/5/792 420/5/792
f 388/9/793 383/9/793 420/9/793
f 389/5/794 421/5/794 422/5/794
f 389/1/795 394/1/795 421/1/795
f 393/5/796 392/5/796 422/5/796
f 392/9/797 387/9/797 422/9/797
f 393/5/798 423/5/798 424/5/798
f 393/8/799 398/8/799 423/8/799
f 397/5/800 396/5/800 424/5/800
f 396/5/801 391/5/801 424/5/801
f 397/5/802 425/5/802 426/5/802
f 397/5/803 402/5/803 425/5/803
f 401/5/804 400/5/804 426/5/804
f 400/5/805 395/5/805 426/5/805
f 401/5/806 427/5/806 428/5/806
f 401/5/807 406/5/807 427/5/807
f 405/5/808 404/5/808 428/5/808
f 404/8/809 399/8/809 428/8/809
f 362/2/810 359/2/810 429/2/810
f 359/5/811 403/5/811 429/5/811
f 405/2/812 430/2/812 429/2/812
f 405/4/813 361/4/813 430/4/813
f 437/2/814 431/2/814 435/2/814
f 437/4/815 441/4/815 432/4/815
f 442/1/816 438/1/816 433/1/816
f 444/1/817 434/1/817 433/1/817
f 444/2/818 445/2/818 435/2/818
f 435/2/819 431/2/819 13/2/819
f 440/2/820 447/2/820 448/2/820
f 441/3/821 448/3/821 449/3/821
f 442/1/822 449/1/822 450/1/822
f 443/1/823 450/1/823 451/1/823
f 444/2/824 451/2/824 452/2/824
f 445/2/825 452/2/825 446/2/825
f 8/4/826 10/4/826 448/4/826
f 10/3/827 449/3/827 448/3/827
f 447/2/828 446/2/828 6/2/828
f 4/1/829 451/1/829 450/1/829
f 452/2/830 451/2/830 4/2/830
f 1/2/831 446/2/831 452/2/831
